<svg xmlns="http://www.w3.org/2000/svg" viewBox="-56.742 -48.819 400 400"><path fill="#2c2b2b" fill-opacity=".102" d="M159.353 338.467l80.438 10.231 92.416-24.373-32.69-8.567-74.699-21.794-175.35 4.908-31.609 21.377-63.551 10.813 125.689 19.549z"/><path fill="#999" d="M168.504 320.166l12.476 14.308 14.641-3.745-9.817-24.288-23.457 1.165z"/><path fill="#efcfca" d="M59.201 81.432l14.974-93.497 29.862 36.434 6.322 33.106-12.561 37.432-37.432 16.637z"/><path fill="#ffede8" d="M-2.105-13.23l3.328 68.958 15.639 26.619 42.339-.915 14.807-27.284V25.866l-4.326-9.899 4.575-10.814.168-17.468.414-17.635-44.418 2.412-20.298-5.489z"/><path fill="#efcfca" d="M33.664 1.077l-2.745 8.152 2.662 1.83z"/><path fill="#d4aca3" d="M74.008 22.206l-2.413-10.814 15.556 5.74z"/><path fill="#cda39e" d="M34.911 81.931l12.062 14.806 4.16 8.735 14.806-2.08 12.145-22.126-18.883.166zM32.75 44.749l-7.321-5.158 13.643-.25z"/><path fill="#c1b174" d="M74.175-12.065l18.133 43.254 6.239.666 20.796-10.647-.999-43.006-25.287-1.747z"/><path fill="#454444" d="M74.175 5.07l45.168 16.138-19.132-1.165-26.203-5.822-3.826-4.409z"/><path fill="#ffede8" d="M100.211 20.043l-1.664 11.812-1.913 12.894 17.218 2.329 5.491-25.87z"/><path fill="#cda39e" d="M101.79 39.258l2.247-14.889 10.231 2.162zM110.359 57.475L96.634 44.749l17.218 2.329z"/><path fill="#a09060" d="M-2.105-13.23l15.14-15.056 3.993-5.158-13.809.916z"/><path fill="#c1b174" d="M44.894-48.25L14.365-36.688l-11.146 4.16 24.623 10.647 41.84-5.407 11.978 1.414 17.885-16.719z"/><path fill="#e2cf85" d="M74.175-12.065l-4.493-15.223 29.863-15.305 18.799 20.795z"/><path d="M.142 33.518l20.629 3.079 4.658 2.994 1.414-6.322-.915-6.238L.142 33.518zm38.93 5.823l28.614-6.321-28.781-6.738-3.411 5.906 3.578 7.153z" fill="#f4dad4"/><path fill="#fff4f2" d="M25.429 39.591l.499-12.56-3.411-6.988 3.91-5.157 6.988-2.745 5.324 3.077 4.242 6.073-4.076 5.324.167 12.726z"/><path fill="#454444" d="M26.427 14.886l12.312.332 2.911-3.077-2.911-2.829-12.062-.166-2.995 2.912z"/><path fill="#545657" d="M-6.929 5.985l33.939-.499-1.082 21.545-5.988 5.573-19.798.914-6.571-5.407zM38.655 5.236l.25 21.379 3.744 5.489 25.037.916 6.322-7.154V14.221l.167-9.151z"/><path fill="#efcfca" d="M19.274-8.322L32.25-7.241l22.043-4.242-22.125 2.745z"/><path fill="#cda39e" d="M23.35 55.728l12.726.25 16.97-3.577.333 2.246-16.969 3.66-12.644.083z"/><path fill="#efcfca" d="M43.979 39.757l10.482 5.241 6.404 10.397-4.658-13.143z"/><path fill="#5e5d5e" d="M104.952 259.859l-22.293-9.899 29.696-8.568z"/><path fill="#6f7173" d="M199.863 336.055l3.494 4.824 19.299-6.737-3.328-43.089z"/><path fill="#b0afaf" d="M267.326 321.331l-21.961 13.725-26.867.416-2.248-19.049-33.522-2.079-1.748 20.13-21.045-5.657-13.641-16.138 20.296-28.697 23.125.997 25.787-2.495 44.502 17.552z"/><path fill="#999" d="M286.623 287.641l25.205 6.323-12.311 21.794-54.152 19.298 10.396-24.538z"/><path d="M198.699 292.717c9.232-.334 17.135 10.232 17.551 23.706.416 13.475-6.736 24.622-16.053 25.038-9.234.332-17.137-10.232-17.553-23.707-.416-13.476 6.821-24.622 16.055-25.037z" fill="#858686"/><path d="M200.945 303.53c3.826 1.497 6.82 6.737 6.986 13.225.25 6.737-2.66 12.395-6.654 13.893 0 0-8.068-1.497-8.734-13.31-.664-11.895 8.402-13.808 8.402-13.808zM65.856 323.66l23.54-6.489-.248-33.855-15.639-15.637-12.977 10.729z" fill="#6f7173"/><path fill="#a1a1a1" d="M159.935 328.817l-73.45-10.897-3.993-23.956-30.112-16.222 1.913-14.889 14.557-7.07 44.586 16.802 45.085 7.071 21.711 8.485z"/><path fill="#cdcccb" d="M170.25 274.914l.25 11.148 9.732 2.079 32.358-.748 43.171 23.125 56.067-16.554-36.02-21.545-37.347-5.406z"/><path fill="#6f7173" d="M96.301 257.779l3.328 11.479 69.457 9.732-15.971-24.372-45.252-9.066z"/><path fill="#b0afaf" d="M99.877 257.862l3.66 9.399 62.223 9.983-10.649-19.632-49.077-5.823-.833-6.903 3.162-8.984 6.321 8.402 40.593 2.995 17.801 4.325 9.484 21.045-.666 7.402-1.664 8.07-79.689-13.559-5.739-5.989z"/><path fill="#858686" d="M157.191 247.299l5.572 5.572 19.133 27.2 56.565-13.058-35.022-19.964z"/><path fill="#cdcccb" d="M112.938 246.549l49.825 6.322 40.676-5.822-83.015-9.235z"/><path fill="#b0afaf" d="M108.363 235.902l-46.25 11.397-7.82 15.554 17.386-1.83 31.858 6.238-2.994-8.567 10.398-9.981z"/><path d="M63.777 269.508c10.398-.416 18.799 11.396 18.799 26.453 0 15.055-8.402 27.531-18.799 27.949-7.57.248-14.807-3.411-18.551-12.895-1.247-3.327-.166-9.564-.166-13.559 0-15.056 8.402-27.532 18.717-27.948z" fill="#858686"/><path d="M63.86 282.235c4.16 1.663 7.153 7.486 7.153 14.558 0 7.319-3.244 13.557-7.652 15.304 0 0-11.229-3.326-9.483-16.304 1.663-12.893 9.982-13.558 9.982-13.558z" fill="#6f7173"/><path fill="#eaeceb" d="M279.136 287.393l11.647-3.162 11.56 7.321-12.974 3.326z"/><path fill="#cdcccb" d="M269.736 309.936l-4.492 15.553 26.369-9.066 5.408-14.474z"/><path d="M272.566 312.43l-1.664 6.404.748 1.499 3.492-.334 1.084-2.079 1.246-5.823-1.58-1.247-2.496.166-.83 1.414zm1.662.832l.914.582-.248 3.577-1.996-.083 1.33-4.076z" fill="#858686"/><path d="M279.385 310.518l-1.662 6.321.832 1.497 3.494-.249 1.08-2.079 1.164-5.822-1.496-1.332-2.578.167-.834 1.497zm1.666.832l.914.582-.166 3.576-2.08-.082 1.332-4.076zM285.959 307.606l6.652-1.415-4.324 9.235-2.246.665 2.412-5.823-2.994.5z" fill="#8b8a8a"/><path fill="#eaeceb" d="M240.791 297.54l15.47 7.737 15.057-4.576-12.976-8.318z"/><path fill="#e3a733" d="M-37.706 61.219l-3.244-11.646-3.828-5.157 8.236-4.908 32.358 44.419-4.991 11.479-9.233-.166z"/><path fill="#feeee9" d="M-31.218 70.618l-9.233 6.821 7.153 7.819 8.568-4.159z"/><path d="M-40.202 95.989l-4.824 5.823 9.899 14.806 9.731-3.909 8.485-21.212-2.247-10.979-21.792-30.945-3.91 3.577 6.155 9.733-6.571 7.403 3.992 8.568 1.082 17.135zm4.242-28.698l7.486 11.896-5.489 1.913-6.405-9.483 4.408-4.326z" fill="#b88a2d"/><path d="M-39.703 98.318l4.824 3.494 2.08 2.579 12.061-13.227-3.078-6.655-1.663-1.663-4.242 3.494s-8.402 4.991-9.566 5.074c-1.164.083-.416 6.904-.416 6.904z" fill="#e3a733"/><path fill="#eecec9" d="M-18.408 118.615l6.404-4.741 2.829-18.468-11.563-4.242-1.413 6.655-12.976 18.799z"/><path fill="#feeee9" d="M-9.175 95.406l-9.982-14.889-6.321 2.329 3.327 14.973z"/><path fill="#82652e" d="M-7.261 137.414l26.119-25.371 5.656 10.231-3.66 45.916-11.729 1.082-9.731-9.648z"/><path fill="#ececeb" d="M-18.575 133.172l-14.806-3.494-1.746-13.06 23.123-2.744 3.994 10.646z"/><path fill="#bb8d2d" d="M-33.381 129.678l25.371-5.158 17.135 44.752-36.85 3.412z"/><path fill="#feeee9" d="M-41.2 78.853l-3.826 22.959h10.147l5.159-15.472z"/><path fill="#e3c521" d="M63.694 249.71l-19.132 35.852-11.564 25.454-7.403 3.494-9.399-3.41-.499-84.431 12.061-.999 31.111 16.471z"/><path fill="#ccad2d" d="M66.189 250.875l-20.963 60.141-7.403 4.325-4.825-4.325 6.74-72.784 15.637 2.08z"/><path fill="#e3c521" d="M87.235 235.735l21.71 81.436 15.138.167 3.328-3.993-6.987-75.531-18.218-35.351z"/><path fill="#ccad2d" d="M66.189 250.875l34.437 63.719 9.4 4.24 1.415-4.74-21.462-75.115-17.219-1.497z"/><path fill="#b19732" d="M66.189 250.875l-26.451-12.643 1.08-7.155 18.883-10.979 24.122 10.397 6.156 8.484z"/><path fill="#ececeb" d="M99.461 107.218l-30.777-.332-25.371-3.161 1.665 40.509 15.388 40.428 43.753-48.413z"/><path fill="#d1d1d0" d="M72.095 113.457l-.416-.166-6.821 4.076-4.492 67.295 43.753-48.413-9.981-12.727 4.659-2.163 3.161-15.971-3.079-.083 1.498-3.993-2.579-6.405-31.859 7.903-.582 6.238z"/><path fill="#ececeb" d="M54.793 113.457l-11.48-9.732 3.66-6.988 18.966 6.073-.582 6.238z"/><path fill="#545657" d="M92.308 104.64l-4.575 22.958-18.301-8.484-4.324-2.745-4.41 2.412-12.81 6.488-4.325-9.566-.25-11.978 17.885 5.656 3.992 2.163 3.828-1.997z"/><path fill="#454444" d="M69.432 119.114l-8.734-.333.5-9.4 7.82.166z"/><path fill="#b3b0af" d="M63.86 131.508l4.99 4.159-5.489 4.408-4.992-4.99zM57.372 156.296l5.157-3.826 4.492 4.575-5.074 4.242z"/><path fill="#bb8d2d" d="M43.313 103.725l-24.455 8.318-3.494 56.647 21.794 20.712 23.208-4.74-19.298-55.733z"/><path fill="#ae842d" d="M15.364 168.69l.333 57.979 24.041 11.563 19.879-13.642 4.575-25.205-3.826-14.723z"/><path fill="#ae842d" d="M100.377 101.312l31.028 10.897 1.995 33.44-11.478 29.947-29.365 15.055-32.191-5.989 41.84-51.49z"/><path fill="#98732c" d="M123.835 178.173l-2.995 27.367-18.634 9.233-17.052 7.82-25.537 1.997.749-39.928 61.556-9.066z"/><path fill="#e5af47" d="M43.313 103.725l17.053 80.937-31.942-48.413zM100.377 101.312l8.235 31.86-48.246 51.49z"/><path fill="#82652e" d="M131.405 112.209l17.302 20.963 11.146 52.404-21.295 2.08-16.636-12.06z"/><path fill="#bb8d2d" d="M121.922 175.596l-14.142 28.031 8.069 10.731 14.89 2.412 29.114-31.194z"/><path fill="#efd0cb" d="M102.206 214.773l18.218 23.041 2.496-12.642-7.155-6.821z"/><path fill="#545657" d="M100.626 314.594l-3.492 19.215 18.881 2.412 17.967-2.662-6.571-20.214z"/><path fill="#454444" d="M97.134 339.632h36.848v-6.073l-36.848.25zM45.226 332.81l-54.733.167v-5.657l12.477-3.494 34.188-.916 8.068 3.827z"/><path fill="#545657" d="M16.196 311.1l-25.703 16.22 54.733-.166v-16.138z"/><path fill="#ececeb" d="M107.78 203.627l22.959 13.143-7.819 8.402-20.714-10.399z"/><path fill="#ae842d" d="M59.617 224.59l42.589-9.817-12.227 24.206z"/><path d="M61.198 281.735c.915 0 1.83.167 2.662.5-4.408 1.747-7.652 7.984-7.652 15.305 0 7.071 2.994 12.893 7.154 14.557-.666.25-1.414.418-2.163.418-5.49.248-9.899-6.489-9.899-14.975-.001-8.484 4.408-15.555 9.898-15.805zM198.615 303.197c.75 0 1.582.083 2.33.333-3.992 1.497-6.904 7.237-6.656 13.891.168 6.489 3.162 11.813 6.988 13.227-.582.25-1.164.332-1.83.332-4.908.25-9.066-5.822-9.316-13.559-.25-7.653 3.576-14.059 8.484-14.224z" fill="#545657"/></svg>