<svg xmlns="http://www.w3.org/2000/svg" viewBox="-124.13 -49.069 400 400"><path fill="#cea39f" d="M58.823 92.776l7.404-3.896 19.676-.194 22.795-7.21-5.65 21.431-10.715 11.885-13.248 17.144-10.521-19.093-4.87-9.156z"/><path fill="#efd0cb" d="M79.474 92.582l20.457-.39-11.884 17.925 22.405-8.378-.974-6.43 17.339-36.237-.39-21.431-8.182-29.028-6.43-5.456-4.481 4.676-6.429 59.226L78.111 88.1z"/><path fill="#46382d" d="M117.466-.349l24.158 3.701 5.455 3.897-7.209 19.093-3.312 2.727-9.547-1.753-5.065 10.325-5.066-.974-5.065-33.51z"/><path fill="#cea19c" d="M119.024 47.578l7.793 11.494 4.481-9.546-4.871-3.702z"/><path fill="#74665b" d="M88.243-19.832l1.557 6.235 15.002 16.17 7.013.584 5.651-3.506 10.715-20.457 1.17-7.598-13.249-2.921-24.744 5.454z"/><path fill="#5e5044" d="M147.079 7.249l-17.728-35.653-17.536 31.561zM94.476-48.861l-6.233 4.092-3.508 16.365 3.508 8.572 41.108-8.572z"/><path fill="#74665b" d="M45.38-49.25l.78 5.065L81.033-21l7.21 1.168 6.233-29.029zM43.432-43.405l-17.534 10.91v6.429l3.896 8.378 4.092 1.364 7.988-8.184 4.091-14.027z"/><path fill="#5e5044" d="M45.38-49.25L33.886-16.324l5.65 4.091 39.744-1.17 8.963-6.429zM19.664 6.859L16.157.43l9.741-32.925 7.988 16.171v7.597L25.898 5.301z"/><path fill="#ffeee9" d="M19.664 6.859l14.222-23.183 54.357-3.508 23.572 22.989-7.987 68.773-24.354 20.652-25.131.389-21.431-17.729z"/><path d="M82.787 39.005l7.013 2.144-25.132 6.818-4.286-5.454 1.948-2.922 20.457-.586zm-52.603 1.754l-3.507 2.338 18.703 2.922 2.923-2.922-1.559-2.727-16.56.389zm64.292-15.781l14.807-.779-15.976-4.091 1.169 4.87zm-45.004.584l-4.871-7.792 19.677-1.17-4.091 7.987-10.715.975z" fill="#eecec9"/><path fill="#6b5321" d="M21.223 22.64l2.143-3.896 21.235-.974 4.091 8.377-3.896 14.417-17.339.584-4.676-5.065zM60.188 24.588l4.09-7.988 24.159-.778 4.675 4.48-.779 13.443-3.312 5.26-24.743.779z"/><path fill="#98732c" d="M125.257 25.367l-1.752 1.364-28.834-4.87-1.559-1.559 1.559-1.364 29.224 4.676z"/><path d="M89.021 14.068l5.65 4.87-.391 15.391-4.48 6.819-26.69.78-3.117-2.338-3.117-13.053-5.065.194-2.143 12.664-3.507 3.118-19.483.584-5.649-5.844-.974-16.366 2.338-3.701 66.628-3.118zM58.823 23.42l2.338-5.066-14.027.78 2.338 4.676 9.351-.39zm-36.042-.78l.974 12.859 3.702 4.091 16.56-.195 2.922-13.443-3.117-6.623-19.872.973-1.169 2.338zm42.471 15.975l22.599-.974 3.117-5.066.39-12.273-4.09-3.117-22.405.974-3.118 6.624 3.507 13.832z" fill="#bb8d2d"/><path fill="#cea19c" d="M55.706 54.786l-11.105-6.04 8.573-2.337 11.494 1.558z"/><path fill="#ffeee9" d="M49.861 26.731l8.962-.389 5.845 21.625-20.067.779z"/><path fill="#cea19c" d="M48.303 62.969l.195 2.142 24.548-.973-.195-2.143z"/><path fill="#feeee9" d="M123.895 23.614l-4.871 23.964 12.274 1.948 8.572-23.184z"/><path fill="#cea19c" d="M128.765 29.653l-2.338 9.937 7.013-8.963z"/><path fill="#2b2b2b" fill-opacity=".149" d="M-10.728 334.748l96.047 16.365 91.177-16.171-90.787-13.638-30.587 4.482z"/><path fill="#e3c521" d="M13.04 168.563L-.988 211.425l1.754 4.286 12.079 4.092 5.065-1.17 15.002-22.21-1.949-11.494-13.637-17.536z"/><path fill="#ccad2d" d="M33.886 133.689L29.6 118.104l-16.56 50.459 19.872 27.86 5.26-14.613z"/><path fill="#cececd" d="M50.836 127.455l4.091-7.209 7.598-9.546 7.793-1.363 7.208 16.949 4.091 4.286.197 68.384-2.922 2.532-29.225-.391-1.559-3.895z"/><path fill="#ececeb" d="M88.047 110.117l-10.521 16.169.391 28.055 1.557 2.922-1.363 3.117.781 41.108h26.884l.974-7.403-.196-67.993-3.311-8.183-8.767-6.624z"/><path fill="#9c9fa0" d="M73.63 158.822l4.481 4.286 4.482-4.286-4.676-4.481z"/><path fill="#ccad2d" d="M138.116 122.39l9.157-8.377 27.666 55.524-5.067 3.312-29.808-.974-7.792-6.039z"/><path fill="#545657" d="M117.659 330.462l.196 7.988h38.185v-7.988l-6.232-3.312-28.057.195z"/><path fill="#686b6d" d="M122.335 308.252l-4.676 22.21h38.381l-7.598-22.21-3.896-3.506-17.535-.391z"/><path fill="#b88a2d" d="M81.814 243.765l.973-7.013 19.483-15.781 35.262 82.605-1.363 4.676h-13.834z"/><path fill="#e3a733" d="M111.621 215.127l-9.351 5.844-1.949 8.183 35.848 79.098h12.273l-9.546-74.619-6.43-5.065-20.845.78z"/><path fill="#545657" d="M1.545 326.564v6.624h53.577v-7.402l-5.455-3.313-39.939 1.56z"/><path fill="#686b6d" d="M25.898 305.72L1.545 326.564l53.577-.778-.39-20.456-4.286-5.066H32.522z"/><path fill="#b88a2d" d="M39.146 305.33l-3.312-4.676 23.185-77.735 21.041 13.833 1.754 7.013-27.082 61.565z"/><path fill="#e3a733" d="M30.184 232.855l-3.896 72.475h12.858l21.431-75.202-1.558-7.209-9.937-6.819-4.091 10.716z"/><path fill="#b88a2d" d="M45.38 205.385l4.287-4.288 56.109.391 5.845 4.871 2.143 11.106-2.338 2.922-29.612 23.378-33.122-19.092-3.701-7.014z"/><path fill="#6b5321" d="M46.355 204.995l2.727 7.404 21.041.193 2.143-6.817-2.533-6.819H49.861zM86.878 198.956l-5.65 7.013 5.845 6.82 21.43.389v-7.793l-3.311-6.429z"/><path fill="#ccad2d" d="M69.733 198.956h17.145v4.092l-2.338 2.727 2.338 3.116.195 3.898-16.95-.197z"/><path fill="#7e5f26" d="M75.189 203.242l11.689-.194v5.843l-11.494-.194z"/><path fill="#e3c521" d="M30.184 232.855l11.106 1.169 7.402-9.351 1.169-25.717-9.156 6.624-8.573 2.922zM29.6 118.104l3.312 78.319 1.753 2.143 10.715 1.753 4.481-1.363-5.65-70.527 14.223-21.626z"/><path fill="#ccad2d" d="M32.132 208.502l8.767 1.559 8.962-11.105-16.949-2.533z"/><path fill="#e3c521" d="M116.491 234.998l-10.911-9.936-.388-26.106 14.221 7.013 10.911-3.702 5.65 2.338 2.922 29.028z"/><path fill="#ccad2d" d="M119.413 210.061l-14.221-11.105 6.038-5.651 17.535-6.039 6.039 3.117 1.17 14.222z"/><path fill="#e3c521" d="M123.31 143.041l-18.118 55.915 29.612-8.573 12.469-76.37-33.315-11.106z"/><path d="M174.939 169.537c.779.194-45.199-3.896-45.199-3.896l-7.209 4.676-3.701 11.104 2.338 3.508 42.667 17.144 11.104-32.536z" fill="#f5d852"/><path fill="#ccad2d" d="M51.615 120.246h3.312l-5.066 78.71-15.975-65.267 8.573-7.793z"/><path fill="#f5d852" d="M62.915 101.933l-1.754 7.793-6.429 13.638-20.846 10.325z"/><path fill="#ccad2d" d="M103.439 123.558l7.208-3.506 11.883 5.26 10.131 8.377-27.469 65.267-.586-17.146-3.116-12.663 2.728-15.196z"/><path fill="#f5d852" d="M109.478 95.309l-7.404 12.47 1.365 15.779 29.222 10.131z"/><path fill="#ececeb" d="M70.318 109.337l-7.403-7.404-8.183 21.431z"/><path fill="#cececd" d="M88.047 110.117l15.392 13.441 6.039-28.249z"/><path fill="#e3a733" d="M96.814 143.041l-.973 7.404 1.557 2.921 2.728-.974 1.364-8.571zM78.111 163.108l3.506-2.923 18.119-1.753 4.092 1.948-3.311 21.627-16.562.584z"/><path fill="#b2882e" d="M85.515 155.9l-7.598-1.559 13.832-5.454 1.17 3.895-2.534 2.532z"/><path fill="#98732c" d="M104.218 154.146l-13.833 1.168 1.364-6.427z"/><path fill="#f0ba5f" d="M77.917 154.341l.194 8.767 21.431-.391 4.676-2.337v-6.234z"/><path fill="#eecec9" d="M99.542 162.717l4.676-8.766 15.389 10.91-1.752 7.599-3.702 7.209-1.754 1.752-11.882.586-3.508-8.574z"/><path fill="#feeee9" d="M85.709 175.967l-1.169-13.053 19.678-8.768-3.701 27.861z"/><path fill="#cececd" d="M129.739 165.641l-8.572 19.288-8.768-3.508 7.208-16.56z"/><path fill="#9c9fa0" d="M73.046 130.572l4.676 4.287 4.285-4.092-4.481-4.481z"/><path d="M70.318 109.337l11.105 10.715-3.896 6.234-7.209-16.949zM48.692 224.673l33.121 19.093 18.508-14.611 5.259-4.092-.194-11.885-56.304-.778-.39 12.273zm56.5-25.717l-21.237-16.365 20.651-.78.586 17.145zm-50.46-75.592l-4.871 75.592h7.208l-2.337-75.592z" fill="#070908" fill-opacity=".149"/><path fill="#9c9fa0" d="M74.215 189.994l4.677 4.286 4.284-4.286-4.481-4.481z"/><path fill="#e3a733" d="M-13.261 265.78l-3.312 9.352v4.481l-7.988.194-.195-45.783 8.962-5.456 6.234 4.676z"/><path fill="#efd0cb" d="M-12.872 256.039h9.546l-1.169-8.768-8.571-1.558z"/><path d="M5.441 243.375l6.235-1.558.584-14.807-8.572-2.144-16.171 10.131-3.702 8.571-.389 31.562 4.286-.39.39-9.742 8.378-1.752 1.363-7.793 7.598-12.078zm-17.338 17.34l.195-11.689 5.845 1.363-.39 9.548-5.65.778z" fill="#b88a2d"/><path d="M6.416 241.622l-1.558-4.87-.195-2.728-14.612 3.117-1.169 6.04.195 1.947 4.675-.39s8.183.78 8.962 1.364c.78.391 3.702-4.48 3.702-4.48z" fill="#e3a733"/><path fill="#ffeee9" d="M5.832 219.217l-9.158-.584-12.468 9.935 5.844 8.573 4.092-3.897 18.118-6.234z"/><path fill="#efd0cb" d="M-15.794 228.568l-.39 15.001 5.261 1.56 5.065-11.885zM-2.157 255.455l13.833-13.638-6.819-5.065-11.105 7.987z"/><path fill="#cececd" d="M-3.326 218.633l15.586 8.377 5.65-8.377-18.898-7.208z"/></svg>