<svg xmlns="http://www.w3.org/2000/svg" viewBox="-152 -152 400 400"><path fill="#9c782c" d="M26.749 159.551l9.817-52.673 38.268 21.289-21.235 39.386-31.093 39.894z"/><path fill="none" d="M-151.5-151.5h399v399h-399z"/><path opacity=".1" fill="#2b2b2b" d="M-32.65 231.687L48.969 247.5 155.5 231.918 50.763 216.336z"/><path d="M21.526 97.42l22.869-12.639 1.551-20.075-9.845-2.946-18.916 21.783-3.255 7.599 7.596 6.278z" fill="#cbad2d"/><path d="M8.891 79.821l8.294 3.567 4.341 13.955-8.993 1.627-6.279-4.497 2.637-14.652z" fill="#cda29e"/><path fill="#74665b" d="M-.756-101.077l-6.71 56.402 20.775 21.861 9.924-8.839 2.48-18.295-14.653-47.21-7.285-6.744z"/><path fill="#46382d" d="M23.233-31.653L-7.466-44.675 12.767-5.451l14.884-2.48L44.86-24.442zM9.279 9.977l16.434 22.867L50.752 7.805 42.922.828l-15.194.544z"/><path fill="#74665b" d="M12.767-5.451L9.279 9.977l22.403-6.048 6.822-7.131-4.807-15.505z"/><path fill="#cbad2d" d="M127.25 61.76l-16.654 17.517 1.785 8.686 7.444 7.44L161.25 61.76 134.5 56.5z"/><path fill="#e4c723" d="M119.825 7.805l6.665 12.792 34.76 41.163h-34l-21.688-13.257-2.638-2.713 7.672-25.581z"/><path fill="#9c782c" d="M51.84-1.652L88.507-3.59l1.936 1.938 2.018 38.218-8.995 3.255H48.272L44.473 6.953z"/><path fill="#eecfca" d="M65.481 10.285L88.507-3.59l8.524-10.697 3.645-15.661.621-25.27-5.581-51.631H81.295L57.031-42.816 51.84-1.652z"/><path fill="#836528" d="M44.86 34.472l38.606 2.947 10.39 1.704-20.002 32.946H53z"/><path fill="#755924" d="M36.566 106.878l9.922-17.673 19.533-4.497 41.863 21.395-30.619 19.535-8.606-.155-2.638.155-9.842-7.445z"/><path fill="#cbad2d" d="M107.884 36.721l2.712-27.907L88.507-3.59l-5.041 41.009 14.729 2.402z"/><path fill="#cbad2d" d="M64.937 65.636l-5.97 10.387 7.054 8.685L77.5 86.567l21.316-3.954L117.25 22 86.957 36.721 78.27 51.994z"/><path fill="#e4c723" d="M107.884 106.103l-9.068-23.49-32.795 2.095 13.881 35.19 16.045-1.705z"/><path d="M98.195 106.103h9.688l-1.858-4.806-3.491-1.319-4.339 6.125z" fill="#cbad2d"/><path fill="#e4c723" d="M44.318 84.708L25.713 32.844 42.922.828l3.877 16.901v16.666l18.138 31.241 1.084 19.072-20.152 3.255z"/><path fill="#f3d65c" d="M56.179 118.193l9.842-33.485H44.318l-7.752 22.17z"/><path fill="#836528" d="M77.43 169.445l-11.409-43.807 41.863-19.535-4.305 64.385-9.723 29.689z"/><path fill="#f3d65c" d="M51.84-1.652l-5.041-2.869L42.922.828l-5.657 29.924 9.921 5.969 4.341-1.782z"/><path fill="#cbad2d" d="M37.265 30.752l27.672 34.884-13.41-30.697z"/><path fill="#f3d65c" d="M83.466 37.419L88.507-3.59l9.688 10.155-.385 28.217-8.763 5.039z"/><path fill="#e4c723" d="M64.937 65.636l18.529-28.217 14.344-2.637z"/><path fill="#46382d" d="M97.81 34.782l15.732-11.705 11.633-8.295-.544-12.48-15.74-.93L88.507-3.59z"/><path fill="#eecfca" d="M110.596 79.277l-2.712 1.243-9.068 2.093-.621 10.31 7.83 8.297 13.8-5.817z"/><path fill="#8e7e74" d="M28.426-147.393L-.756-101.077l11.816 3.919 20.467-27.519z"/><path fill="#74665b" d="M111.76-124.756l-37.362-26.279-22.713 10.93-6.591 11.396L57.498-111.5l31.009 9.071 7.209-4.42z"/><path fill="#8c7e73" d="M74.398-151.035l-29.304 8.062-9.303 8.837 9.303 5.427 12.789-9.768z"/><path fill="#fdede9" d="M98.816 82.613l-10.309 7.672 9.688 15.818 7.83-4.883z"/><path fill="#cda29e" d="M44.627-18.551L41.76-7.389l10.08 5.737 30.311-16.744-26.902.077z"/><path fill="#8e7e74" d="M130.91-92.119l-19.15-32.637-23.253 22.327 5.423 21.241 4.42 8.139 6.047.542 2.943 4.885 21.321-17.366z"/><path fill="#46382d" d="M126.952-47.389l3.958-44.73-26.698 14.496-18.674-3.797 2.969 12.324 8.524 37.21h7.135z"/><path fill="#74665b" d="M140.367-15.529l-16.901-17.364-26.435 1.007L88.507-3.59l31.318 11.395 9.303-1.861z"/><path fill="#8c7e73" d="M140.367-15.529l-13.415-31.86-29.921 15.503z"/><path fill="#fdede9" d="M11.06-97.158l3.412 54.575 19.225 23.876 21.552.388L80.39-31.886l2.532-44.418 5.585-26.125-31.009-9.071-12.404-17.209z"/><path fill="#eecfca" d="M15.093-84.909l12.635 5.736L38.969-61.42l4.108 5.658 4.497-1.705 13.877-18.449 13.333-9.38-10.155-4.11-14.73 5.273-3.953 3.409-2.713 5.892-2.559-5.427-4.729-4.031-14.108-5.426z"/><path fill="#b28b2e" d="M29.666-43.358l13.955-2.945 15.813 3.255-14.728 4.418z"/><path fill="#cda29e" d="M38.659-57.467l4.34 6.202 4.575-6.202z"/><path fill="#fff4f2" d="M38.659-57.467h8.915l-2.403-13.567.775-9.69-5.272.465.233 9.459z"/><path fill="#524236" d="M52.611-87.468l-2.712 3.335 15.66-3.877 9.225 2.714-9.225-5.66zM35.945-84.29l-2.325-3.101-12.017-3.798-6.51 6.28 6.821-3.411z"/><path fill="#cbad2d" d="M29.666-43.358l14.186 1.86 15.582-1.55-15.039 6.125z"/><path d="M-23.9 59.125l-30.465 22.401 4.341 36.821L-17 129.826l30.465-21.167-6.279-33.177-31.01-16.357h-.076zm22.48 45.427l-18.991 11.475-19.304-8.143-1.083-22.169 19.068-12.173 17.908 11.012 2.248 8.604-.388 6.742.542 4.652z" fill="#474747"/><path d="M-16.846 130.91l-34.031-11.783-4.42-37.909 31.32-23.104L7.959 74.939l.932 4.883v3.953l1.24 2.639 4.341 22.713-.465.309-30.776 21.476h-.077zm-32.327-13.179l32.093 11.162 29.613-20.619-6.123-32.17-30.157-15.895-29.533 21.784 4.185 35.737h-.078z" fill="#73cfe5"/><path d="M-20.024 120.986l-23.799-10.078-1.396-27.365 23.567-15.038L.44 82.07l3.024 24.808-23.411 14.108h-.077zm-22.017-11.316l21.94 9.303 21.627-13.024-2.791-22.791L-21.652 70.6l-21.706 13.873 1.24 25.197h.077z" fill="#73cfe5"/><path fill="#eecfca" d="M8.891 79.821l-6.589.621 2.015 6.434 5.814-.463zM-3.9 84.554L.363 82.07l4.962 16.511-7.287 1.319z"/><path d="M27.805-81.81c2.314 0 4.187 1.875 4.187 4.187 0 2.312-1.873 4.187-4.187 4.187-2.311 0-4.185-1.875-4.185-4.187.001-2.312 1.874-4.187 4.185-4.187zM60.676-81.42c2.31 0 4.185 1.873 4.185 4.185 0 2.313-1.875 4.187-4.185 4.187-2.314 0-4.185-1.873-4.185-4.187 0-2.312 1.871-4.185 4.185-4.185z" fill="#2b2b2b"/><path fill="#eecfca" d="M70.6-52.815l7.439-2.403-9.615 18.139zM19.898-53.436l-3.876-.155 4.418 14.186z"/><path fill="#8c7e73" d="M114.437-83.175L87.809-81.73 57.498-111.5l54.262-13.256 19.15 32.637z"/><path fill="#5e5043" d="M88.507-69.096L57.498-111.5l56.939 28.325zM140.367-15.529L126.49 20.597 97.81 34.782l22.015-26.977zM18.038-120.646l17.753-13.49 9.303 5.427L11.06-97.158z"/><path fill="#74665b" d="M28.426-147.393l-10.388 26.747 14.188-4.265 12.868-3.798v-14.264z"/><path fill="#5e5043" d="M31.682 3.929l2.015-22.636 10.93.156 3.334 7.751 3.879 9.148L45.79.053l-2.868.775z"/><path fill-rule="evenodd" clip-rule="evenodd" fill="#836528" d="M29.305 228.512l5.842-.089 2.118-14.457-1.257-13.789-13.502 7.27zM100.736 213l5.217 14.398-5.217 11.806z"/><path fill-rule="evenodd" clip-rule="evenodd" fill="#efd0cb" d="M77.43 169.445l9.895 38.002.949 12.928L100.736 213l2.843-42.512z"/><path fill-rule="evenodd" clip-rule="evenodd" fill="#ffeee9" d="M87.325 207.447l-7.661 11.946 6.529 8.523 14.992 2.799-.449-17.715z"/><path fill-rule="evenodd" clip-rule="evenodd" fill="#836528" d="M101.185 230.715l-21.521-11.321-2.903 4.358 4.302 6.963 19.672 4.69z"/><path fill-rule="evenodd" clip-rule="evenodd" fill="#efd0cb" d="M100.736 235.405l-23.974-11.653-7.626 11.653 11.776 2.299zM26.749 159.551l-6.856 36.79 2.901 7.516 13.214-3.68 17.591-32.624z"/><path fill-rule="evenodd" clip-rule="evenodd" fill="#ffeee9" d="M19.892 196.341L5.383 210.275l6.308 6.938 9.627 3.429 14.69-20.465z"/><path fill-rule="evenodd" clip-rule="evenodd" fill="#836528" d="M21.318 220.642L5.382 210.274l-3.843 3.692 5.745 6.408 11.489 3.477z"/><path fill-rule="evenodd" clip-rule="evenodd" fill="#efd0cb" d="M18.772 225.001L1.54 213.966l-11.491 11.035L5.272 227.3z"/><g fill-rule="evenodd" clip-rule="evenodd" fill="#836528"><path d="M69.136 235.405h31.601v3.799H69.136zM27.635 211.842l-1.373 7.24-11.319 9.43H-9.952v-3.511h20.68z"/></g></svg>