<svg xmlns="http://www.w3.org/2000/svg" viewBox="0 0 400 400"><path fill="#cea39f" d="M121.865 124.422l-9.925 4.108-1.884 9.371 6.011 1.292.533 5.769 12.133-5.016 5.689-10.06 2.022-12.335z"/><path opacity=".1" fill="#2b2b2b" d="M100.039 388.59l128.133-14.731 92.529 14.417-93.664 10.717z"/><path fill="#898989" d="M105.784 266.612l36.684 36.363-30.389-40.705z"/><path fill="#636363" d="M135.932 211.626l-30.148 54.986 5.422 5.375 35.285-61.361z"/><path fill="#898989" d="M79.486 203.993l63.658 12.287 3.347-5.654-68.825-17.029z"/><path fill="#636363" d="M49.666 126.839l29.82 77.154 8.175 1.512-27.609-82.295z"/><path fill="#898989" d="M109.498 79.326l-59.832 47.513 3.202 8.284 66.873-52.621 12.342-12.19z"/><path fill-rule="evenodd" clip-rule="evenodd" fill="#706123" d="M184.031 158.16l-45.917 15.67 12.735 28.63 33.299-5.515z"/><path fill-rule="evenodd" clip-rule="evenodd" fill="#755924" d="M182.238 263.268l-11.27 56.966 14.532 24.302 21.5 23.286-2.332-36.867 18.545-32.669z"/><path fill-rule="evenodd" clip-rule="evenodd" fill="#9d782c" d="M260.754 273.317l.996 22.78-4.054 40.55-17.606 3.771-17.238-7.787-8.228-33.182z"/><path fill-rule="evenodd" clip-rule="evenodd" fill="#846528" d="M222.852 332.631l16.277 32.855 11.406 5.36 14.573-1.675-7.412-32.524z"/><path fill-rule="evenodd" clip-rule="evenodd" fill="#8d7c2f" d="M239.129 365.486l-8.58 22.111 15.945 2.68 22.307-2.68-3.693-18.426z"/><path fill-rule="evenodd" clip-rule="evenodd" fill="#846528" d="M260.754 273.317l-46.13 26.132-32.386-36.181 32.386-2.156z"/><path fill-rule="evenodd" clip-rule="evenodd" fill="#63491e" d="M170.968 320.234l33.7 10.721 5.35 39.884-19.984-1.341-7.143-10.719z"/><path fill-rule="evenodd" clip-rule="evenodd" fill="#8d7c2f" d="M182.891 358.779l-27.845 21.438 29.862 2.002 25.479-2.002-.369-9.378z"/><path fill-rule="evenodd" clip-rule="evenodd" fill="#706123" d="M155.046 380.217h55.341v5.36h-55.341z"/><path fill-rule="evenodd" clip-rule="evenodd" fill="#63491e" d="M182.238 248.908v14.36l14.757 1.889 15.26.707 9.841 2.505 38.658 4.948-1.005-14.409-36.983-10z"/><path fill-rule="evenodd" clip-rule="evenodd" fill="#a3a2a2" d="M198.627 251.023l-1.632 14.134 25.101 3.212 1.215-14.162-13.293-3.184z"/><path fill-rule="evenodd" clip-rule="evenodd" fill="#63491e" d="M202.934 255.167l-.334 7.203 14.239 1.508 1.005-7.204z"/><path fill-rule="evenodd" clip-rule="evenodd" fill="#706123" d="M230.549 387.597h38.252v5.36h-38.252z"/><path fill-rule="evenodd" clip-rule="evenodd" fill="#8d7c2f" d="M185.831 162.274l-6.783 21.597-12.271 63.319 15.448 1.827 16.402 2.006 24.684 3.184 36.438 4.701 20.095-102.801-22.689-6.092-56.695 9.681z"/><path fill-rule="evenodd" clip-rule="evenodd" fill="#755924" d="M255.335 75.265l26.396-26.754-10.344-17.3-11.415 6.598-38.569 14.893 13.243 11.147z"/><path fill="#feeee9" d="M148.322 78.381l-.449 7.899 10.083 38.925 25.368 30.363 18.759-3.316-3.108 31.094 20.094 1.784 11.623-11.058 17.509-28.002 7.134-70.805-34.244-17.123z"/><path fill="#efd0cb" d="M221.091 58.142l5.975 66.526-9.365 27.827-16.097 1.012-3.521 14.679.892 15.16 14.982 13.912 18.46-16.676 7.341-19.352 9.561-20.068 3.753-32.862-.275-6.755 1.729-5.754.809-20.526z"/><path fill="#cea39f" d="M147.873 86.278l74.537-13.453 7.213-3.769-8.532-10.914-75.979 17.478z"/><path fill="#5f5044" d="M229.623 69.056l5.201 6.654v13.109h7.491V76.245l13.02-.98-3.251-17.123-18.597-1.16z"/><path fill="#46382d" d="M229.623 69.056l22.461-10.914-1.033-5.44h-20.24l-9.72 5.44z"/><path fill="#cea39f" d="M254.526 95.792h-12.047l10.593 12.508zM246.863 90.691v-9.898h6.153z"/><path fill="#e2c8c5" d="M179.178 115.304l-17.585 14.253 22.438 28.603 16.784-1.364 18.254-7.917 9.068-24.834-1.895-9.169-35.025-2.515z"/><path fill="#c6a5a1" d="M226.242 115.499l8.582-26.68h7.491l-1.338 53.773-21.908 6.91z"/><path fill="#a58884" d="M201.604 153.507l39.373-10.915-22.144 25.701z"/><path fill-rule="evenodd" clip-rule="evenodd" fill="#f0d1cc" d="M155.005 92.503l14.215 8.435 9.958 14.366 12.039-2.943 6.896-20.138 9.625-13.842-21.36 4.904-2.474 8.744-5.796 1.07-3.371-4.306z"/><path fill-rule="evenodd" clip-rule="evenodd" fill="#a58884" d="M186.314 119.277l-7.136-3.973 12.039-2.943z"/><path fill-rule="evenodd" clip-rule="evenodd" fill="#fff5f2" d="M178.108 93.099l1.07 22.205 12.039-2.943-7.313-20.332z"/><path fill-rule="evenodd" clip-rule="evenodd" fill="#c6a5a1" d="M184.908 144.549l12.04-2.601 7.365.068.355 1.728-7.611-.406-11.771 1.98z"/><path fill-rule="evenodd" clip-rule="evenodd" fill="#5f5044" d="M155.005 92.503l8.453-5.29 10.522-1.471.757 3.051zM185.83 79.427l12.253-2.212 9.642 1.173-21.347 4.897z"/><circle cx="198.083" cy="89.53" r="3.389" fill-rule="evenodd" clip-rule="evenodd" fill="#2b2b2b"/><circle cx="168.298" cy="97.2" r="3.389" fill-rule="evenodd" clip-rule="evenodd" fill="#2b2b2b"/><path fill-rule="evenodd" clip-rule="evenodd" fill="#a58884" d="M179.624 130.999l16.811-2.853 9.698-7.066-.402-3.234 4.683 3.768-13.294 9.653-16.961 2.764z"/><path fill-rule="evenodd" clip-rule="evenodd" fill="#c6a5a1" d="M179.178 115.304l-2.649 13.031-.487-10.489zM191.217 112.361l14.514 5.485 4.683 3.768-2.689-8.067z"/><path fill-rule="evenodd" clip-rule="evenodd" fill="#efefef" d="M230.178 179.6l-6.867 74.607-24.684-3.184.144-68.827 14.07 13.065zM237.072 168.293l-4.257-.335-1.732-8.565 18.236-18.231-.297 7.533z"/><path fill-rule="evenodd" clip-rule="evenodd" fill="#aaa" d="M237.072 168.293l-5.989-8.9-17.009 34.754 16.104-14.547zM198.771 182.196l-8.684-25.64 11.517-3.049 6.858 5.886z"/><path fill-rule="evenodd" clip-rule="evenodd" fill="#efefef" d="M194.75 172.313l-4.663-15.757 11.517-3.049z"/><path fill-rule="evenodd" clip-rule="evenodd" fill="#ac923b" d="M249.319 141.162l7.836 8.853-5.453 48.931-22.986-3.685 1.462-15.661zM198.627 196.613l-19.579-12.742 3.19-16.772 7.849-10.543 8.684 25.64z"/><path opacity=".2" fill-rule="evenodd" clip-rule="evenodd" fill="#2b2b2b" d="M251.702 198.946l-24.093 8.561 1.107-12.246zM198.627 196.613v9.382l-19.579-22.124z"/><path fill-rule="evenodd" clip-rule="evenodd" fill="#846528" d="M190.087 156.556l57.414 100.772-3.358 9.206-4.418 4.091-57.487-103.526 1.793-8.939z"/><path fill-rule="evenodd" clip-rule="evenodd" fill="#706123" d="M279.844 156.107l25.089 47.61-43.183 23.372z"/><path fill="#cea39f" d="M253.439 228.534l-9.532 2.058-3.706 4.91-4.552 1.058-1.322-18.278 19.633 4.044z"/><path fill="#feeee9" d="M253.96 222.326l-16.888.36-6.523-2.845-2.94-12.334 23.915 1.092z"/><path fill="#cea39f" d="M214.074 224.432l4.9 8.823 8.063-4.412z"/><path fill="#efd0cb" d="M227.609 207.507l-13.535 16.925 21.575 12.128 1.423-13.874z"/><path fill-rule="evenodd" clip-rule="evenodd" fill="#ac923b" d="M304.933 203.717l-53.409 4.882 2.629 31.374L294 230.718z"/><path opacity=".2" fill-rule="evenodd" clip-rule="evenodd" fill="#2b2b2b" d="M243.494 283.094l1.784 34.948 12.418 18.605 3.665-37.198z"/><path fill-rule="evenodd" clip-rule="evenodd" fill="#706123" d="M239.725 270.625l12.814 42.392 6.339 7.826-1.565-38.731-9.812-24.784z"/><path fill-rule="evenodd" clip-rule="evenodd" fill="#8d7c2f" d="M253.742 292.172l11.741-17.48 24.416 5.384-2.663 32.249-28.358 8.518z"/><path fill-rule="evenodd" clip-rule="evenodd" fill="#ac923b" d="M253.742 292.172l36.157-12.096-14.246-27.524-28.152 4.776z"/><path fill-rule="evenodd" clip-rule="evenodd" fill="#846528" d="M264.265 272.362l6.7 28.762 6.365-1.675-7.203-28.824z"/><path d="M273.729 273.988l-11.223 3.183 2.602 11.199 11.642-3.895-3.021-10.487zm-6.629 10.596l-1.328-5.487 6.048-1.695 1.319 5.214-6.039 1.968z" fill-rule="evenodd" clip-rule="evenodd" fill="#ccae2d"/><path fill-rule="evenodd" clip-rule="evenodd" fill="#ac923b" d="M150.849 202.46l-22.116-62.514-22.99 9.505-7.488 3.268 22.443 39.427z"/><path opacity=".2" fill-rule="evenodd" clip-rule="evenodd" fill="#2b2b2b" d="M136.186 161.015l-7.453-21.069-22.991 9.505 8.266 11.564z"/><path fill="#4f5253" d="M105.742 149.451l10.344 5.287 1.042-5.288-.466-2.742 1.475-2.381.863-4.381-.529-2.424 1.479-2.399 6.923-35.149-.408-3.039 1.499-2.503 5.794-29.414-10.05-1.489-6.199 29.647.574 2.063-1.398 1.876-7.098 33.802-1.521 4.666v2.757l-1.041 4.977.41 2.851z"/><path fill="#737474" d="M105.742 149.451h11.385l1.01-5.124-11.112-1.011zM119 139.946l-10.934-1.606.731-3.497 11.153.28zM126.89 99.978l-10.205-2.863.824-3.939 10.455 1.256z"/><path fill-rule="evenodd" clip-rule="evenodd" fill="#bd902d" d="M145.117 19.973L174.9 2.851 225.495 0l-58.98 31.211zM109.498 79.326l67.229-4.061 83.245-37.456-18.547.356-98.209 8.579-27.529 3.193z"/><path fill-rule="evenodd" clip-rule="evenodd" fill="#e2a940" d="M142.261 60.195l-32.763 19.131 69.68 1.302 80.794-42.819-18.547.356z"/><path fill-rule="evenodd" clip-rule="evenodd" fill="#9d782c" d="M145.117 19.973l21.398 4.281 7.761 13.555v24.613l-31.06-15.678z"/><path fill-rule="evenodd" clip-rule="evenodd" fill="#846528" d="M166.515 24.254L225.495 0l10.124 24.254-61.343 38.168z"/><path fill-rule="evenodd" clip-rule="evenodd" fill="#846528" d="M171.687 48.154l-28.471-1.41-.955 13.451 32.015 2.227.461-7.839z"/><path fill-rule="evenodd" clip-rule="evenodd" fill="#755924" d="M235.619 24.254l-63.932 23.9 2.589 14.268 67.149-24.257z"/><path fill="#cea39f" d="M108.066 138.34l-4.062-10.407 15.839-3.501.107 10.691-10.363-4.206z"/><path fill="#efd0cb" d="M119.95 135.123l16.494-17.572-9.554-17.573-8.166 16.797-.882 9.659z"/><path fill="#feeee9" d="M126.89 99.978l-16.332 1.005-6.554 26.95 13.838-1.499z"/></svg>