<svg xmlns="http://www.w3.org/2000/svg" viewBox="150.513 58.532 900 350"><path fill="#EBEBEA" d="M159.389 96.333l43.921-37.801 125.335 9.183 19.742 35.505 29.995 4.896 34.739-32.902 127.019-9.948 83.098 48.513-42.084 73.612-24.18-1.836-62.285 16.528 22.037-19.742-13.008-.918-113.246-8.57-15.151-52.953-31.525-1.989-63.969 31.986-82.945-2.908z"/><path fill="#DDDDDC" d="M566.309 110.26l-8.57-13.621-8.57 14.233z"/><path fill="#FFF" d="M515.807 95.262l-18.364 56.624 51.573 15.151 1.99-13.927 6.733-56.471z"/><path fill="#F4D75D" d="M501.422 90.977v48.513l34.586 2.142 4.285-52.951z"/><path fill="#B58B00" d="M506.319 125.869l24.945.306-.153 2.602-24.792-.307v-2.601zm-.153-21.885l24.792.307-.154 2.602-24.791-.306.153-2.603zm0 7.347l24.792.306v2.602l-24.792-.306v-2.602zm.153 7.192l24.792.307-.153 2.754-24.792-.306.153-2.755z"/><path fill="#CCAD14" d="M552.995 121.432l1.53 3.978-4.743 1.225 2.754 13.161 12.243-.918.306 5.51-11.325.764.919 4.745 5.356-.459.306 4.285 5.815-.919-1.071-3.825 4.897-.307-.46-15.456-13.466 1.529-.918-5.203 11.018-1.989-1.683-4.744-5.815 1.53-.153-3.979z"/><path fill="#2B2B2B" fill-opacity=".102" d="M201.32 120.054l28.924 14.998 23.261-2.448 18.824 3.213 15.456-20.202-75.446-10.1-9.182 2.755z"/><path fill="#755800" d="M251.822 126.787l6.887-2.448s-5.356-3.826-5.662-3.979c-.307 1.531-1.225 6.427-1.225 6.427zM222.439 115.004l7.04-2.603s-5.509-3.825-5.662-3.979c-.46 1.531-1.378 6.582-1.378 6.582z"/><path fill="#CCAD14" d="M287.785 115.615l-.459-7.345-3.214-4.897-11.477 2.295-7.346 8.724v8.417l1.683 4.897z"/><path fill="#9E7700" d="M286.867 102.761l-21.578 11.631-7.651-1.378-3.368-3.52 9.489-7.192 12.242-2.602z"/><path fill="#755800" d="M274.471 100.618l-16.375 8.57 7.193 3.367 17.752-9.642z"/><path fill="#8E8E8E" d="M269.115 89.446l3.673 5.509-18.518 14.539-4.744-6.428-1.377-5.049 10.407-7.04z"/><path fill="#E5C828" d="M244.17 82.101l24.945 7.345-20.966 8.571-13.314-2.755-11.784-6.275z"/><path fill="#CCAD14" d="M210.961 93.731l12.09-4.744-2.449 7.958-5.509-.612z"/><path fill="#B58B00" d="M266.972 127.706l-54.633-22.191-1.378-11.784 6.887 1.531 5.203-6.275 25.098 9.03 6.121 11.477 11.019 4.898z"/><path fill="#F4D75D" d="M287.326 108.27l-4.744 3.213-.765-5.968 5.05-2.754zM271.564 111.024l.612 6.275-6.122 3.826-.765-6.733z"/><path fill="#737373" d="M250.139 108.116l-3.826-8.416-11.325-3.979-.458 6.121 15.609 6.274zM232.54 94.955l-8.111-3.061-4.744 4.285 12.702 4.744.153-5.968z"/><path fill="#856400" d="M248.761 115.463c-2.602 0-4.132 2.601-3.52 5.815.458 3.061 3.061 5.662 5.509 5.662 2.602 0 4.132-2.602 3.52-5.662-.459-3.214-3.06-5.815-5.509-5.815z"/><path fill="#E5C828" d="M249.373 119.288c-.918 0-1.377.766-1.224 1.99.306 1.071 1.071 1.989 1.99 1.989.918 0 1.377-.918 1.224-1.989-.306-1.224-1.072-1.99-1.99-1.99z"/><path fill="#856400" d="M219.378 103.525c-2.602 0-4.132 2.602-3.52 5.815.612 3.061 3.06 5.663 5.662 5.663 2.449 0 3.979-2.603 3.52-5.663-.611-3.213-3.213-5.815-5.662-5.815z"/><path fill="#E5C828" d="M219.991 107.352c-.765 0-1.377.765-1.071 1.989.153 1.071.918 1.99 1.837 1.99.918 0 1.377-.919 1.224-1.99-.154-1.225-1.072-1.989-1.99-1.989zM281.205 92.048l-15.304 6.887-9.794 11.325 19.894-10.56 9.795-8.877z"/><path fill="#CCAD14" d="M266.207 99.853l-10.1 10.407-1.837-.766 11.172-11.172 19.13-8.722 1.224 1.223z"/><path fill="#A3A3A3" d="M286.867 102.761l-5.05-8.265-1.225 1.071 4.898 7.958z"/><path fill="#FFF" d="M414.804 97.098l48.666-2.755 2.295 48.972-46.982.613z"/><path fill="#DDDDDC" d="M419.548 102.148l.765 4.591 39.024-2.907-.153-4.744-39.636 3.06zm.765 9.183l3.52 27.547 37.341.306-1.071-30.608-39.79 2.755z"/><path fill="#A3A3A3" d="M429.802 116.534l7.039-1.071 2.143 3.367-3.367 3.825 4.591 1.378-1.989 9.029-7.499-.919.153-3.213 4.744.306.459-2.908-5.662-1.836 4.285-5.662-4.438.765-.459-3.061zm14.538-1.224l-3.06 5.969 1.836 10.406 7.499.459 1.071-7.039h-2.907l-.459 4.132-2.296-.459-1.377-6.581 1.989-3.52 2.448 3.978-.306 2.449h2.907l.459-3.214-3.061-5.969-4.743-.611zM456.277 127.247l3.213-3.214 4.133 1.684-2.755 5.203-4.591-3.673zm4.284-5.663l7.346-15.304 6.427 4.285-9.488 12.702-4.285-1.683z"/><path fill="#EBEBEA" d="M150.513 366.6l130.692 41.932 251.131-27.699-87.231-37.342-81.72-13.621-132.988 16.682z"/><path fill="#DDDDDC" d="M309.21 204.685l-106.053 6.274 51.42 16.987 78.506-4.438 20.966-9.947z"/><path fill="#2B2B2B" fill-opacity=".102" d="M212.033 386.342l96.412.765 51.267-31.067-129.315-9.488-79.884 20.048z"/><path fill="#DDDDDC" d="M308.598 326.962l223.738 53.871 19.894-41.015zM807.186 313.802l-1.224 94.73 244.551-43.768-29.536-25.711z"/><path fill="#C3C3C3" d="M552.23 339.818l-17.293 41.167 282.502 27.547 4.132-95.037z"/><path fill="#2B2B2B" fill-opacity=".102" d="M553.607 339.665l84.628 18.977 83.558-22.038-28.464-10.559-139.722 13.62zm417.939 10.865l-160.381-4.897-55.092-25.71 51.267-5.05 164.206 35.657z"/><path fill="#C3C3C3" d="M663.334 271.409l-69.784 5.203 59.837 17.141 61.978-12.396z"/><path fill="#8E8E8E" d="M605.639 301.558l-3.061 23.262 3.215 14.079 10.864-1.53 5.203-31.68-6.733-4.896z"/><path fill="#A3A3A3" d="M688.277 304.007l7.654 33.362 11.324 2.449 2.141-6.427-5.967-30.303zM593.55 276.612l-4.744 59.686 16.987 2.601 5.509-34.892 20.506 3.367 2.601 36.27 18.978 3.52 7.957-37.188-7.957-22.651z"/><path fill="#8E8E8E" d="M653.387 287.325v59.839l13.007-2.142 4.745-36.271 29.688-3.52 6.734 34.281 14.232-2.908-6.428-55.247z"/><path fill="#4F5253" d="M657.671 224.579l6.274-2.601 7.194 17.294-6.275 2.601z"/><path fill="#858686" d="M675.576 220.294l-27.24 11.325.153 14.539 31.831-12.55z"/><path fill="#636363" d="M648.489 246.158l7.805 1.684 29.229-10.865-3.366-4.133h-3.214z"/><path fill="#4F5253" d="M677.413 253.352l-6.274-14.08-6.275 2.601 5.968 14.539 3.979 1.53z"/><path fill="#6F7173" d="M675.576 220.294h3.214l4.437.307 2.296 16.376-6.58-4.133z"/><path fill-opacity=".102" d="M644.816 377.007l51.42-11.632 81.873 10.866-66.57 13.927z"/><path fill="#856400" d="M737.861 320.994l1.225 35.811-7.193 3.673-13.161 3.979-11.171-25.863 10.252-10.101z"/><path fill="#9D782C" d="M715.977 358.029l22.956-7.192.153 5.968-7.805 6.122-12.549 1.53z"/><path fill="#755924" d="M739.086 356.805l13.62 15.61-16.069 1.836-17.905-1.836v-7.958z"/><path fill="#B38C2E" d="M718.6864579 372.3878542l34.073-.0579241.0062917 3.701-34.073.0579241z"/><path fill="#9E7700" d="M707.561 338.594l-11.325 26.781-5.203.919-18.058.306 3.825-43.77 19.742 1.53z"/><path fill="#BF8F00" d="M737.861 320.994l-30.3 17.6L676.8 322.83l18.977-1.683z"/><path fill="#E5C82E" d="M689.655 247.383l27.853 2.754 13.62 52.799 3.52 8.722-45.911-.305-11.018 2.295v-8.57z"/><path fill="#BF8F00" d="M677.413 253.352l12.242-5.969 5.662 34.28h-6.733l-7.498-16.068zM677.719 305.078l34.279-20.66 19.895 5.662 4.132 22.038-30.147 3.366-28.465-4.59z"/><path fill="#CCAD14" d="M740.157 275.389l-2.755 5.815-5.509 8.876-6.734-12.702-3.214-17.906 2.603-6.734 6.428 2.45z"/><path fill="#856400" d="M736.025 312.118l-14.691-.153-3.673 2.448-4.592-2.601-35.656-.918-.613 11.936 36.882-1.071 3.979-2.907 4.284 2.601 15.916-.459z"/><path fill="#CCAD14" d="M713.069 311.812l.613 9.947 8.263-.306-.611-9.488z"/><path fill="#FFE6D6" d="M741.688 194.89l.458 22.038-2.754 20.966-17.599 4.131-8.724 8.418-12.854-.612-10.56-2.448-5.967-16.682-4.898-10.407-4.897-12.09-1.377-18.976 17.446 7.499 25.25-.766 6.274-8.111 6.581 6.886z"/><path fill="#F5CAB3" d="M695.624 197.338l1.377 22.038-4.897 3.214-4.897-2.755-1.684-8.876 4.591-.153-.152-13.315z"/><path fill="#F5CAB3" d="M716.896 218.305l-7.193-12.397-14.079-8.57 21.425-2.907zM728.374 214.632l11.63-19.742-14.691-1.684z"/><path fill="#CCA997" d="M742.146 216.928l-63.356 3.366 19.436 29.537 7.345 1.836 17.14-9.028 20.048-1.225z"/><path fill="#BA9888" d="M697.001 219.376l1.684 24.64 5.968 2.296 5.356 14.844-20.354-13.773-7.804-19.131-.154-3.673-2.907-4.285 8.417-.459z"/><path fill="#A67862" d="M722.711 242.639l-27.087 1.53 14.385 16.987zM687.207 219.835l-5.356 8.417-3.061-7.958zM731.74 225.957l-23.261-.153 7.04 9.182 11.018-.153zM716.896 218.305l6.121 3.826 5.357-4.439-5.663-.305z"/><path fill="#484748" d="M695.624 197.338l20.353 4.745-.152-5.663-8.111-.306zM727.914 201.93l-.306-6.428 5.509-1.071 6.887.459zM689.962 197.491l.152 13.315-4.591.153-1.224-6.428-10.406 3.673-7.499-18.517 13.621 1.376z"/><path fill="#C4937D" d="M677.413 210.193l3.979-1.223 2.142 7.651z"/><path fill="#9E7700" d="M689.503 173.617l-8.723-.305-7.805 1.376-3.673 6.582-2.908 8.417 14.692-9.183z"/><path fill="#856400" d="M672.975 174.688l22.802-10.712 20.2-6.887 23.721 14.692-27.546 2.295-22.649-.459-7.346.459z"/><path fill="#BF8F00" d="M715.977 157.089l-35.197.612-7.805 16.987z"/><path fill="#9E7700" d="M672.975 174.688l-10.101-10.712-14.079 11.325 11.325.765z"/><path fill="#BF8F00" d="M648.795 175.301l-20.813 17.14 29.842-11.171 15.151-6.582z"/><path fill="#755800" d="M627.982 192.441l38.412-2.754 6.581-14.999z"/><path fill="#E5C82E" d="M689.503 173.617l61.979-2.295.918 23.109-24.792 1.071-6.122-7.652-5.661 8.57-25.863 1.071-1.225-13.773z"/><path fill="#474747" d="M696.236 178.974l22.802-.918-7.499 12.243-14.997.459zM746.278 176.984l-22.801.766 8.416 11.631 14.998-.459z"/><path fill="#CCAD14" d="M689.962 197.491l-23.568-7.804 23.109-16.07z"/><path fill="#2B2B2B" d="M735.383 203.241c1.556.095 2.739 1.433 2.645 2.988-.095 1.556-1.433 2.739-2.988 2.645-1.556-.095-2.739-1.433-2.645-2.988.095-1.556 1.433-2.739 2.988-2.645z"/><path fill="#FFF1E8" d="M721.486 187.85l6.122 7.652.766 22.19-11.478.613-1.071-21.885z"/><path fill="#CCAD14" d="M668.996 283.193l-8.876-21.578 17.293-8.263 11.171 28.311-7.192 5.51z"/><path fill="#E5C82E" d="M694.858 297.732l-17.139 7.346-8.723-21.885 19.588-1.53 6.122 7.651z"/><path fill="#FFE6D6" d="M710.315 279.367l-21.731 2.296 6.274 16.069 18.671-8.111 1.224-5.051z"/><path fill="#B58B00" d="M724.548 252.738l-7.04-2.601v17.599l3.52 2.45 5.509-1.531z"/><path fill="#C4937D" d="M710.315 279.367l20.354-10.253-13.161-1.378z"/><path fill="#F5CAB3" d="M713.529 289.621l18.364.459-1.531-14.691 6.275-7.805-1.989-4.286-24.333 16.069z"/><path fill="#846528" d="M696.236 365.375l3.367 8.724-28.924.612 2.296-8.111 15.15-3.979z"/><path fill="#CCAE2D" d="M670.679 378.537l29.077.152-.153-4.59-28.924.612z"/><path fill="#BF8F00" d="M698.99 358.642l-25.25-.766-.765 8.724 23.261-1.225z"/><path fill="#F5CAB3" d="M765.255 277.837l5.203-13.468-4.132-8.569-7.651 9.029-1.378 6.428zM731.893 290.08l10.56-21.272 9.794-.613-.153 7.806-5.203 21.425z"/><path fill="#C4937D" d="M742.453 268.808l16.222-3.979 6.58 13.008-13.161-1.836z"/><path fill="#9E7700" d="M731.434 335.839l7.04 4.285.306 6.121-8.877 1.684-3.366-13.468z"/><path fill="#B58B00" d="M738.167 331.859l.307 8.265-11.937-5.663z"/><path fill="#2B2B2B" d="M711.024 204.899c1.556.095 2.739 1.434 2.645 2.989-.095 1.555-1.433 2.738-2.988 2.644-1.556-.095-2.739-1.433-2.645-2.988.096-1.556 1.433-2.739 2.988-2.645z"/><path fill="#FFF" d="M729.139 227.181h-17.293l4.744 6.275 9.028-.307z"/><path fill="#EBEBEA" d="M678.637 58.532h2.601l-158.85 350h-2.601z"/><path fill="#A3A3A3" d="M251.669 239.425l6.887 96.261 87.536-6.734 8.57-7.193 21.731-85.854-23.874-8.724z"/><path fill="#8E8E8E" d="M238.967 287.784l-10.559 41.934 30.148 5.968 7.192-5.204-4.132-84.324z"/><path fill="#CCAD14" d="M173.774 351.143l-3.367-.459-.765-6.581 6.733-12.244 3.368-.764.918 2.449-6.428 11.019.765 4.59zM191.22 338.134l.306 9.641-3.061 3.368-.152 2.754 3.06.154 3.979-4.285-.153-9.948-1.683-2.755z"/><path fill="#B58B00" d="M185.558 332.166l-3.826 9.642 3.367 1.683 2.907-6.734z"/><path fill="#CCAD14" d="M220.297 338.747l5.509 9.028-2.295 4.287 1.377 3.212 2.448-1.53 3.061-7.192-5.662-8.724-3.52-.918z"/><path fill="#8E8E8E" d="M176.375 331.859l5.663-48.971 33.055 1.682 2.602 36.272-15.916 21.578z"/><path fill="#A3A3A3" d="M201.779 342.42l28.312-5.663 13.467-49.432-28.465-2.755z"/><path fill="#A3A3A3" d="M182.038 282.888l-10.253-35.2 24.944-.459 28.924 17.447-12.243 27.088z"/><path fill="#C3C3C3" d="M210.35 258.707l3.06 33.057 50.043-7.346-1.837-38.26-18.976-3.673z"/><path fill="#C3C3C3" d="M203.157 210.959l-31.372 36.729 38.565 11.019 25.71-18.977 15.609-18.976z"/><path fill="#DDDDDC" d="M251.669 220.754l-41.319 37.953 51.266-12.549 3.214-13.314z"/><path fill="#9E7700" d="M170.407 350.684l4.591-1.531.612 4.591-4.743 1.53zM188.465 351.143l2.908 2.908-3.06 3.06-3.061-2.448zM223.511 352.062l3.825 1.682-1.836 4.132-4.132-1.836z"/><path fill="#CCAD14" d="M371.343 212.184l-1.684-2.45-6.734-.918-8.876 4.745v4.744l3.979-.765 7.346-3.979 3.367.612z"/><path fill="#9E7700" d="M369.659 209.734l-.918 4.439 4.438.918.765-4.744z"/><path fill="#CCAD14" d="M383.126 231.619l-.459-3.06-5.662-3.673-11.019.611-1.071 4.133 3.826 1.071 8.417-.459 2.754 2.142z"/><path fill="#9E7700" d="M382.667 228.559l-2.755 3.825 3.673 2.602 2.755-4.132z"/><path fill="#C3C3C3" d="M251.669 220.754l9.947 25.404 114.777-10.253-22.344-22.344-42.697-1.99-35.657 7.499z"/><path fill="#8E8E8E" d="M272.941 249.678l-1.837 2.296 1.225 5.968 1.989 1.53 4.285-6.427z"/><path fill="#737373" d="M271.104 251.974l-2.295 2.755 3.52 3.213 2.754-3.673z"/><path fill="#8E8E8E" d="M290.54 248.148l-1.837 1.836.919 5.968 1.53 1.684 4.591-5.662z"/><path fill="#737373" d="M288.703 249.984l-2.448 2.602 3.367 3.366 2.754-3.826z"/><path fill="#8E8E8E" d="M308.598 247.077l-1.99 2.448.918 5.05 1.837 1.837 3.673-5.663z"/><path fill="#737373" d="M306.608 249.525l-1.836 2.142 2.754 2.908 2.449-3.214z"/><path fill="#8E8E8E" d="M326.044 245.546l-1.837 2.142 1.378 5.204 1.683 1.683 3.367-5.203z"/><path fill="#737373" d="M324.207 247.688l-1.836 2.143 3.214 3.061 2.295-3.214z"/><path fill="#FFF" d="M338.746 253.352l-6.887 3.06 3.52 1.988zM337.675 236.67l-2.908 3.06 5.662 2.143zM347.622 255.188l1.989 7.499 3.214-3.215zM341.807 259.166l-2.908 7.193 4.897-1.53z"/><g><path fill="#4F5253" d="M477.702 216.621l-6.58-1.989-5.204 17.905 6.428 1.99z"/><path fill="#858686" d="M459.337 214.173l28.465 8.265 1.377 14.539-33.055-9.031z"/><path fill="#636363" d="M489.179 236.977l-7.651 2.6-30.148-7.805 2.754-4.285 3.215-.459z"/><path fill="#4F5253" d="M461.174 247.229l4.744-14.692 6.428 1.99-4.285 15.151-3.827 1.989z"/><path fill="#6F7173" d="M459.337 214.173l-3.06.459-4.438.765-.459 16.375 5.969-4.744z"/><path fill-opacity=".102" d="M501.27 377.007l-52.186-9.489-81.108 8.723 68.712 15.151z"/><path fill="#856400" d="M408.224 320.994l-1.225 35.811 7.193 3.673 13.314 3.979 11.019-25.863-10.254-10.101z"/><path fill="#9D782C" d="M430.108 358.029l-22.955-7.192-.154 5.968 7.805 6.122 12.702 1.53z"/><path fill="#755924" d="M406.999 356.805l-13.62 15.61 16.069 1.836 18.058-1.836v-7.958z"/><path fill="#B38C2E" d="M393.367118 376.0724417l.0062917-3.701 34.073.0579241-.0062917 3.701z"/><path fill="#9E7700" d="M438.525 338.594l11.477 26.781 5.051.919 18.057.306-3.825-43.77-19.742 1.53z"/><path fill="#BF8F00" d="M408.224 320.994l30.301 17.6 30.76-15.764-18.976-1.683z"/><path fill="#E5C82E" d="M448.319 242.639l-26.475 11.172-8.876 48.512-2.448 9.03 45.604-5.204 11.172 1.072-.919-8.571z"/><path fill="#BF8F00" d="M461.174 247.229l-12.855-4.59-1.989 34.739 6.733-.766 5.663-16.834zM466.377 298.65l-36.269-16.68-16.222 9.946-3.825 19.896 46.063-4.438 11.018-1.99z"/><path fill="#2B2B2B" fill-opacity=".2" d="M435.005 296.661l-9.488 8.417-14.845 3.673 1.224-6.121 17.141-15.457 18.823 4.743 18.517 6.734z"/><path fill="#CCAD14" d="M406.081 271.257l-4.437 3.213 3.978 6.428 8.264 11.018-2.142-14.385-1.683-5.356z"/><path fill="#4F5253" d="M431.179 276.612l-5.662 28.466-13.621-2.448 5.663-28.925z"/><path fill="#856400" d="M410.061 311.812l13.619-1.531 4.438 2.907 3.826-3.978 35.198-3.826 2.143 17.446-36.728-1.224-3.52-2.449-4.745 2.296-16.068-.459z"/><path fill="#CCAD14" d="M431.944 309.21l.613 12.396-8.265-.153-.612-11.172z"/><path fill="#FFE6D6" d="M390.931 195.961l1.837 22.038 5.049 20.507 17.906 2.296 9.641 7.346 12.855-1.836 10.1-3.673 4.132-17.142 3.826-10.865 3.52-12.549-.612-18.977-16.528 9.335-25.251 1.836-7.04-7.345-5.968 7.499z"/><path fill="#F5CAB3" d="M436.995 193.513l.918 22.037 5.203 2.755 4.744-3.214.613-9.029-4.439.306-1.377-13.315zM418.018 216.621l5.968-13.008 13.009-10.1-21.579-.46zM406.388 214.173l-13.774-18.212 14.385-3.366z"/><path fill="#CCA997" d="M392.768 217.999l63.509-3.367-7.958 28.007-8.264 3.366-7.193 2.601-11.018 5.205-3.673-8.112-3.214-4.133-20.047.766z"/><path fill="#BA9888" d="M437.913 215.55l1.071 24.793-5.815 2.908-1.072 6.733 3.061 6.58 13.161-13.925 5.662-19.896-.152-3.673 2.448-4.438-8.417.459z"/><path fill="#A67862" d="M414.957 241.566l27.088-1.377-6.887 16.375-6.887 1.685-6.427-4.438zM447.86 215.091l6.121 7.652 2.296-8.111zM408.683 225.497l20.813 1.837-.153 1.99-20.813-1.837zM418.018 216.621l-5.663 4.439-5.815-3.827 5.815-.764z"/><path fill="#484748" d="M436.995 193.513l-19.742 6.886-.306-5.509 7.804-1.224zM405.469 201.471l-.459-6.428-5.662-.459-6.734 1.377zM442.657 193.053l1.377 13.315 4.439-.306.611-6.581 10.713 2.602 5.509-19.283-13.314 2.755z"/><path fill="#C4937D" d="M456.583 204.378l-4.132-.918-1.224 7.958z"/><path fill="#9E7700" d="M440.667 169.332l8.57-1.224 7.805.459 4.438 6.275 3.826 7.958-15.61-7.499z"/><path fill="#856400" d="M457.042 168.567l-23.72-8.111-20.813-4.744-22.037 17.141 27.546-.613 22.649-2.908 7.346-.306z"/><path fill="#BF8F00" d="M412.509 155.712l35.045-3.061 9.488 15.916z"/><path fill="#9E7700" d="M457.042 168.567l9.029-11.63 15.151 9.793-11.172 1.837z"/><path fill="#BF8F00" d="M481.222 166.73l22.496 14.693-30.761-7.958-15.915-4.898z"/><path fill="#755800" d="M503.718 181.423l-38.412 1.377-8.264-14.233z"/><path fill="#E5C82E" d="M440.667 169.332l-61.979 4.285 1.531 23.11 24.791-1.684 5.356-8.111 6.581 7.958 25.71-1.837-.153-13.774z"/><path fill="#474747" d="M434.546 175.301l-22.802 1.53 8.723 11.325 14.997-1.071zM384.503 178.821l22.803-1.683-7.193 12.395-14.844 1.072z"/><path fill="#CCAD14" d="M442.657 193.053l22.649-10.253-24.639-13.468z"/><path fill="#2B2B2B" d="M398.132 203.654c-1.536.26-2.571 1.717-2.31 3.253.261 1.536 1.717 2.571 3.253 2.311 1.537-.261 2.571-1.717 2.31-3.254-.26-1.536-1.716-2.57-3.253-2.31z"/><path fill="#FFF1E8" d="M410.366 186.932l-5.356 8.111 1.53 22.19 11.478-.612-1.224-21.731z"/><path fill="#CCAD14" d="M472.652 276.154l6.58-22.497-18.058-6.428-8.111 29.383 7.652 4.745z"/><path fill="#E5C82E" d="M448.625 293.294l17.752 5.356 6.275-22.496-19.589.458-5.356 8.265z"/><path fill="#FFE6D6" d="M431.179 276.612h21.884l-4.438 16.682-19.588-6.121-1.684-4.744z"/><path fill="#F5CAB3" d="M429.037 287.173l-15.151 4.743 1.53-12.243 2.143-5.968 5.356-.612 8.264 3.519z"/><path fill="#C4937D" d="M413.886 291.916l-5.968-8.569-1.837-12.09 5.51-.153 5.968 2.601z"/><path fill="#846528" d="M449.85 365.375l-3.367 8.724 28.923.612-2.296-8.111-15.15-3.979z"/><path fill="#CCAE2D" d="M475.406 378.537l-29.076.152.153-4.59 28.923.612z"/><path fill="#BF8F00" d="M447.095 358.642l25.251-.766.764 8.724-23.108-1.225z"/><path fill="#F5CAB3" d="M388.023 278.908l-8.723-4.591-1.53-9.029 7.651 5.356z"/><path fill="#737474" d="M435.158 256.564l-53.256-11.171-2.448 9.641-1.684 10.254 53.409 11.324z"/><path fill="#4F5253" d="M381.902 245.393l-7.346 5.662-1.377 3.674-.153 3.52 4.744 7.039z"/><path fill="#484748" d="M374.556 251.055l-7.652-1.683.613 3.98 2.142 4.131 3.367.766z"/><path fill="#737474" d="M366.904 249.372l-6.274-1.378.306 3.673 2.449 4.438 6.274 1.378z"/><path fill="#484748" d="M360.63 247.994l-6.121-1.377.918 3.98 1.683 4.132 6.275 1.376z"/><path fill="#737474" d="M354.509 246.617l-5.969-1.224.612 3.672 1.99 4.439 5.968 1.225z"/><path fill="#484748" d="M348.54 245.393l-5.968-1.377 2.601 8.11 5.816 1.226z"/><path fill="#F5CAB3" d="M413.886 291.916l-15.763-22.344-9.793.46-.307 8.876 8.723 19.59z"/><path fill="#C4937D" d="M398.123 269.572l-9.947-2.6-10.406-1.684 10.253 13.62z"/><path fill="#FFE6D6" d="M398.123 269.572l-4.896-11.323-13.162-3.98-2.295 11.019z"/><path fill="#4F5253" d="M415.5537152 260.4685728l.3777172-1.9017712 12.8494608 2.5520748-.3777172 1.9017712zM414.8386779 263.9757457l.3779111-1.9017712 12.8494608 2.5533849-.3779111 1.9017712zM414.1350708 267.4111376l.3777172-1.9017712 12.8494608 2.5520748-.3777172 1.9017712z"/><path fill="#856400" d="M463.623 340.43l6.886-3.826 1.377 16.376-14.997 1.223-4.897-15.609z"/><path fill="#B58B00" d="M470.509 336.604l-5.815 7.346-12.702-5.356z"/><path fill="#2B2B2B" d="M422.529 202.704c-1.536.26-2.571 1.717-2.31 3.253.26 1.536 1.717 2.57 3.254 2.311 1.536-.261 2.571-1.718 2.31-3.254-.261-1.536-1.717-2.571-3.254-2.31z"/></g><path fill="#C3C3C3" d="M247.996 151.121l31.831-1.224 10.407 31.985-14.539 37.188-49.583-9.488z"/><path fill="#DDDDDC" d="M234.376 168.721l22.802.459 3.979 7.498-14.079 3.367-13.927-4.285z"/><path fill="#A6A6A6" d="M235.6 184.024l-2.449-8.264 28.006.918-3.673 7.652z"/><path fill="#C3C3C3" d="M229.479 160.456l9.182 15.457-6.734 2.755-6.887-1.225-7.345-15.916z"/><path fill="#979797" d="M220.909 191.982l-.459-10.712 7.193-5.816 11.018.459-5.815 15.763z"/><path fill="#8E8E8E" d="M211.574 176.984l6.121-15.457 9.948 13.927-6.734 16.528z"/><path fill="#C3C3C3" d="M350.376 160.915l8.571 14.386-6.275 2.601-6.427-1.224-6.887-14.845z"/><path fill="#A3A3A3" d="M342.266 190.451l-.306-10.099 6.58-5.357 10.407.306-5.509 14.845z"/><path fill="#8E8E8E" d="M333.542 176.372l5.816-14.539 9.182 13.162-6.274 15.456z"/><path fill="#C3C3C3" d="M332.013 169.944h5.967l4.286 6.734-5.815 2.143-5.969-2.601z"/><path fill="#A3A3A3" d="M330.482 176.22l11.784.458-3.214 7.04z"/><path fill="#DDDDDC" d="M279.827 149.897l-4.132 69.173 78.354-5.509-31.372-62.134z"/><path fill="#8E8E8E" d="M269.88 334.921l-39.789 1.836.918 26.629 36.576 7.499 4.897-17.905z"/><path fill="#A3A3A3" d="M363.385 329.87l-3.673 26.17-92.127 14.845-1.378-30.914 43.003-8.264z"/><path fill="#C3C3C3" d="M354.662 321.759l8.723 8.111-97.178 10.101-36.116-3.214 2.755-10.101 32.902 3.826z"/><path fill="#2A2A2A" fill-opacity=".102" d="M906.813 390.474l62.285-11.172-58.459-13.161-51.115 10.866z"/><g><path fill="#BFC0C0" d="M820.194 81.335l139.263-22.803 13.16 31.373 8.417 213.336-9.488 47.289-162.064-35.199z"/><path fill="#9DA1A2" d="M1039.188 89.905l-79.731-31.373 12.089 291.998 49.431-11.477z"/><path fill="#A3A3A3" d="M832.743 96.333l38.718.765 40.555 7.193 7.345 195.278-57.694 9.029-33.361-1.377z"/><path fill="#CECECD" d="M916.453 97.71l-12.089 7.652 5.968 193.288 21.271 9.183 22.344-4.592-8.263-203.388z"/><path fill="#8E8E8E" d="M904.364 105.362l-71.621-9.029 112.175-16.375.766 19.895z"/><path fill="#DDDDDC" d="M828.306 307.221l82.026-8.571 43.615 4.591 1.072 28.007z"/></g><g><path fill="#C3C3C3" d="M745.973 236.977l-2.449 9.181-7.959 4.897 6.888 17.753 16.222-3.979 7.651-9.029-2.448-13.62-8.111.152z"/><path fill="#A3A3A3" d="M742.453 268.808l8.723-4.439 7.499.46z"/><path fill="#F4D75D" d="M738.474 258.4l8.11-3.212-.306-6.428 10.407-3.826 3.213 5.356 5.204-1.836.612 3.672-4.591 1.837.611 7.193-10.558 3.213-3.367-5.509-7.957 3.367z"/><path fill="#B58B00" d="M750.104 250.902v5.357l3.368 4.897 5.661-2.142-1.224-6.276-2.601-3.825z"/><path fill="#A3A3A3" d="M735.565 251.055l10.713-2.295-.305-11.783-3.214 4.437z"/><path fill="#DDDDDC" d="M745.973 236.977l10.712 7.957 7.193-2.754z"/></g><g><path fill="#2B2B2B" fill-opacity=".102" d="M783.925 365.681l47.9 15.152 40.402-11.172-32.597-11.785z"/><path fill="#BCBDBD" d="M794.943 275.695l8.724-24.028 9.487 22.803-7.344 17.906-9.795-7.04z"/><path fill="#A3A3A3" d="M785.149 294.672l-4.744-5.204.766-5.662 13.772-8.111 10.867 16.681z"/><path fill="#B58B00" d="M806.727 309.822l3.214 26.324 10.253 6.121 9.794-5.816 3.367-14.845-5.049-11.784-14.233-2.754z"/><path fill="#856400" d="M806.727 309.822l20.966-2.601 34.126 4.897-13.925 8.876-14.539.612z"/><path fill="#B58B00" d="M861.819 312.118l-1.07 24.945-9.336 4.438-12.854-4.744-5.204-15.151z"/><path fill="#DDDDDC" d="M824.633 244.169l-3.673 4.896.152 10.713 2.909 6.122 3.519.306 8.417-16.987-7.805-6.428z"/><path fill="#8E8E8E" d="M825.703 250.443l-2.142-4.744 4.591-2.908 4.591 3.826-3.978 4.132 2.601 7.806-4.592 6.885-2.753-.611-1.684-7.193z"/><path fill="#BCBDBD" d="M817.134 241.72l3.214 2.602 1.683 4.897 4.284 15.916-6.732-2.754-10.407-11.479z"/><path fill="#CECECD" d="M806.727 309.822l20.661 1.072 5.05-19.895-6.123-25.864-15.15-14.386 5.969-9.029-13.467 9.947z"/><path fill="#BCBDBD" d="M863.197 278.449l-1.378 33.669-34.431-1.224-.307-6.735-.766-39.024 13.927-12.855 7.04-9.948 17.293 6.274-9.182 18.671z"/><path fill="#CECECD" d="M853.25 283.959l9.947-5.51 1.378-29.843-28.924 24.487 4.897 8.264z"/><path fill="#A3A3A3" d="M819.123 274.011l16.375 19.59 17.752-9.642-26.935-18.824-4.437 1.683z"/><path fill="#EBEBEA" d="M814.532 269.114l4.591 4.897 7.192-8.876-3.825-3.826-3.826 1.53z"/><path fill="#F5CCB6" d="M811.165 250.749l1.378 6.734 9.947 3.826-5.051-11.325z"/><path fill="#FDE5D7" d="M811.165 250.749l11.325 10.56-7.958 7.805-7.192-1.99-3.521-10.253-8.876.306-.458-4.439z"/><path fill="#CECECD" d="M847.282 242.332l-3.52 12.856-17.447 9.947 7.346-14.386 5.51-5.662z"/><path fill="#EBEBEA" d="M828.306 242.944l5.355 7.805 13.621-8.417-2.908-3.519-8.876.152zM822.031 249.219l6.275-6.275-5.51-4.438-3.52.307-2.142 2.907 3.673 5.815z"/><path fill="#848585" d="M824.326 301.252l2.755-3.214 3.214 3.062-3.214 3.059zM824.173 289.162l2.601-3.214 3.214 3.214-3.059 2.908z"/><path fill="#C69682" d="M816.521 228.1l2.755 10.713 9.03 4.131 9.794-2.601 3.519-2.295-3.826-7.041z"/><path fill="#F5CCB6" d="M835.039 233.149l3.061 7.194 6.274-1.53 11.325-18.519-2.296-14.386 1.225-23.414-3.673-4.133-3.215 2.909-3.673 2.907-9.947 41.78z"/><path fill="#C69682" d="M855.699 220.294l-4.744-8.264h7.346l1.377 1.99z"/><path fill="#FDE5D7" d="M796.934 223.049l38.105 10.1 12.701-51.879-11.324-5.357-32.29 3.061z"/><path fill="#5F6162" d="M877.124 189.533l-17.446 24.487-1.225-4.286-11.324-3.06.611-25.404 17.294 1.989z"/><path fill="#737373" d="M847.74 181.27l29.384 8.263-12.397-24.945-13.007 7.499z"/><path fill="#5F6162" d="M798.769 163.058l5.357 15.916 43.614 2.296-28.617-12.09z"/><path fill="#8E8E8E" d="M864.727 164.588L847.74 181.27l-20.659-16.07-8.876-12.855z"/><path fill="#737373" d="M818.205 152.345l29.535 28.925-48.971-18.212z"/><path fill="#FDE5D7" d="M854.321 199.175l-3.366 12.855 8.723 1.99 3.826-12.09z"/><path fill="#C69682" d="M856.464 203.307l3.367.765-4.897 4.744z"/><path fill="#F5CCB6" d="M805.044 187.391l6.58.919 3.367 1.683 1.072 5.356-4.286 9.948zM820.041 207.133l1.071-11.172 2.909-4.285 5.509-.153 7.345 2.143z"/><path fill="#FFF3EB" d="M811.777 205.297l3.367 1.683 4.897.153 3.98-15.457-9.03-1.683z"/><path fill="#C08A71" d="M814.991 208.663l-3.214-3.366 8.264 1.836z"/><path fill="#454444" d="M805.044 187.391l6.274-.918 3.673 3.52zM824.021 191.676l5.815-1.836 7.039 3.826z"/><path fill="#C69682" d="M808.717 212.03l2.448 8.724 9.029 2.448 7.958-7.958z"/><path fill="#FFF" d="M811.013 213.867l13.16 2.295-2.142 2.448-9.947-1.989z"/><path fill="#545657" d="M860.596 367.365l-.765-8.264-7.193-4.438-6.58 3.826-4.898 8.876 9.795.918zM826.01 363.845l-.153-8.264-7.346-3.367-6.121 2.908-11.325 8.723 12.549 1.378z"/><path fill="#454444" d="M826.01 363.845h-24.945v2.755h24.945zM860.596 367.365h-19.283v3.213h19.283z"/><path fill="#9E7700" d="M859.831 359.101l-13.773-.612-7.499-21.732 22.19.306zM825.857 355.581l-13.467-.459-2.449-18.976 20.047.305z"/><path fill="#2B2B2B" d="M807.34 195.655c1.224 0 2.296 1.071 2.296 2.143 0 1.224-.919 2.296-2.143 2.296-1.224 0-2.295-1.072-2.295-2.296-.001-1.071.917-2.143 2.142-2.143zM826.163 199.94c1.225 0 2.143.918 2.143 2.143.153 1.224-.918 2.295-2.143 2.295s-2.143-1.071-2.143-2.295c.001-1.225.918-2.143 2.143-2.143z"/></g><g><path fill="#F4D75D" d="M915.382 123.727l-17.599 3.672-12.549 84.785 19.589-.154z"/><path fill="#CCAD14" d="M928.237 127.247l-12.855-3.52 10.254 88.762 24.485-1.989z"/><path fill="#E5C828" d="M908.19 226.722l-5.204-14.692 12.396-88.303 13.927 88.457-3.52 13.773z"/><path fill="#E5C828" d="M906.813 288.397l-21.579-76.213 19.589-.154 11.171 79.121z"/><path fill="#BF8F00" d="M950.121 210.5l-24.179 77.591-9.948 3.06 9.642-78.662z"/><path fill="#CCAD14" d="M902.986 212.03l13.008 79.121 13.315-78.967z"/><path fill="#EBEBEA" d="M915.536 198.104l-12.55 13.926 12.702 14.386 13.621-14.232z"/><path fill="#C3C3C3" d="M876.664 302.171l-.153 6.121 42.238 6.581 1.225-2.755-2.143-4.285-17.752-5.203z"/><path fill="#A3A3A3" d="M944.306 302.171h-18.211l-8.264 5.662.918 7.04 27.394-5.357z"/><path fill="#DDDDDC" d="M910.332 296.508l-33.668 5.663 41.167 5.662 26.475-5.662z"/><path fill="#CCAD14" d="M909.413 301.1l6.581-9.949 3.367 6.887-3.214 4.133z"/><path fill="#BF8F00" d="M923.493 301.1l-7.346 1.071-.153-11.02z"/><path fill="#E5C828" d="M901.608 140.408l-17.598-8.723 3.673 9.336z"/><path fill="#CCAD14" d="M901.608 140.408l-12.548-1.53-4.897 1.377v5.969z"/><path fill="#F4D75D" d="M884.01 131.685l-5.203 7.805 5.356 6.734 4.897-7.346zM924.258 138.725l17.599-9.03-3.519 9.335z"/><path fill="#E5C828" d="M924.258 138.725l12.55-1.836 5.049 1.377.154 5.815z"/><path fill="#CCAD14" d="M941.857 129.695l5.357 7.194-5.203 7.192-5.203-7.192z"/></g><g><path fill="#F8CBB4" d="M886.765 280.438l13.925-7.958-6.121 36.271z"/><path fill="#755800" d="M928.696 377.159l-.305-4.438 11.477-1.99 10.406 2.143.306 4.592z"/><path fill="#B58B00" d="M939.256 360.172l-4.132 1.99-6.733 10.559 21.883.153-4.897-10.406z"/><path fill="#737373" d="M929.002 341.96l-6.733 6.887 11.325 15.763 11.783-2.142-3.673-18.365z"/><path fill="#5F6162" d="M900.69 360.784l9.795-13.62-8.263-5.51-11.172 1.684-1.99 15.304 4.591 4.285z"/><path fill="#737373" d="M894.569 308.751l12.397 10.254 13.467 17.293-9.948 10.866-19.435-3.826z"/><path fill="#B58B00" d="M875.746 370.426l13.314-11.784 11.63 2.142-.458 10.101-9.488 2.449z"/><path fill="#755800" d="M875.746 375.476v-5.05l24.486.459-.153 5.203z"/><path fill="#8E8E8E" d="M908.343 330.177l13.926 18.67 19.435-4.744-3.673-21.884-3.214-11.172-6.426-6.428-12.397 10.865z"/><path fill="#5F6162" d="M901.303 302.782l-6.734 5.969 13.774 21.426 19.588-24.946-13.62-3.52z"/><path fill="#EBEBEA" d="M897.783 259.778l5.662 25.405-16.68-4.745z"/><path fill="#A3A3A3" d="M897.783 259.778l-3.214 48.973 33.362-3.52 7.193-1.224 5.203-20.355-1.989-35.504-13.468-3.214-20.047 2.908z"/><path fill="#2A2A2A" fill-opacity=".102" d="M932.369 301.864l6.122-16.528-14.998-15.15z"/><path fill="#EBEBEA" d="M904.823 247.842l11.784-5.203 8.263 2.295-15.303 14.386zM938.185 286.407l-14.692-16.221 14.845-22.038 14.845 35.963z"/><path fill="#F8CBB4" d="M941.245 308.445l11.938-24.334-16.222.919-4.592 16.834 4.285 6.581z"/><path fill="#FEE6D6" d="M938.031 322.219l3.367-14.08-8.876-5.968-4.591 3.06z"/><path fill="#C4947E" d="M902.068 234.986l15.61-3.979-12.855 16.835z"/><path fill="#F8CBB4" d="M907.118 172.853l-7.805 31.525 2.755 30.608 10.407-1.071-7.652 13.927 20.354-2.908 22.955-41.015-4.591-21.885-26.628-11.477z"/><path fill="#FFF3EB" d="M878.96 216.009l5.203-18.671L886 208.97l-1.225 9.182z"/><path fill="#FEE6D6" d="M883.857 183.259l11.785-12.397 13.925 1.378-7.499 62.746-16.834 1.531z"/><path fill="#5F6162" d="M874.828 172.393l9.029 10.866 23.72 5.969 10.101 19.588 5.356-8.264 7.193-24.332-6.886-21.426-28.925 17.293z"/><path fill="#737373" d="M923.341 154.794l-.307 45.758 17.14-4.132 9.947-13.773 4.592-7.5z"/><path fill="#5F6162" d="M950.121 210.5l-15.456 17.6-7.193-14.539-4.438-13.009 31.679-25.405z"/><path fill="#737373" d="M874.828 172.393l32.749 16.835 15.764-34.434z"/><path fill="#C4947E" d="M893.957 221.978l-9.028 2.295v2.295l9.487-2.907z"/><path fill="#F8CBB4" d="M889.366 195.349l5.357 1.071-6.735 7.347-3.213 14.385-.612-20.814z"/><path fill="#5F6162" d="M884.163 194.584l10.253-1.071.307 2.907-10.56.918z"/><path fill="#2B2B2B" d="M888.142 202.389c1.269 0 2.296 1.027 2.296 2.296 0 1.268-1.027 2.296-2.296 2.296-1.268 0-2.295-1.028-2.295-2.296 0-1.269 1.027-2.296 2.295-2.296z"/><path fill="#C4947E" d="M922.575 219.988l-4.592-5.203 5.205-3.519 4.284 2.295z"/><path fill="#FEE6D6" d="M917.219 200.399l.764 14.386 9.489-1.224 1.683-12.856z"/><path fill="#C4947E" d="M921.197 203.919l4.439-.152-4.439 5.508z"/></g><path fill="#F5CCB6" d="M763.419 294.672l5.662-3.521h8.723l2.296 3.98-7.499 8.876-9.335-3.367z"/><path fill="#FDE5D7" d="M764.949 285.03l10.559 1.99 2.296 4.131-3.979 2.45-10.1-5.358z"/><path fill="#EBEBEA" d="M781.171 283.806l3.978 10.866-5.049.459-4.592-8.111z"/><path fill="#FDE5D7" d="M753.472 296.661l9.947-1.989 9.182 9.335-13.008.152z"/><path fill="#8E8E8E" d="M282.582 308.139l63.356-6.122-1.224 4.897-61.367 5.815-.765-4.59zm1.378 9.336l59.531-5.663-1.225 4.744-57.541 5.51-.765-4.591z"/></svg>