<svg xmlns="http://www.w3.org/2000/svg" viewBox="-133.831 -48.819 400 400"><path fill="#614900" d="M15.939 252.675l-17.864 7.509 2.071 4.66 17.865-8.027-.259-3.107z"/><path fill="#2b2b2b" fill-opacity=".102" d="M-11.765 336.564l93.211-12.946 72.237 13.204-72.757 14.241z"/><path d="M20.859 340.188l-.777-12.688 18.383-4.659h12.687l9.839 3.625-1.813 13.722H20.859z" fill="#454444"/><path fill="#efd0cb" d="M100.087 219.274l1.812 10.618 8.804 5.695 11.65-16.313-3.883-5.954-8.544-2.071z"/><path fill="#856400" d="M19.823 184.322l7.768-36.248 11.91 34.952-8.286 25.375-8.026-3.366z"/><path fill="#755800" d="M6.878 224.971l12.945-40.649 10.357 8.284 4.919 20.197-3.366 5.177-10.097 13.463z"/><path fill="#e5c828" d="M44.679 219.274l7.768 1.037H78.08l7.248-1.037 16.312-41.683-18.124-16.571-18.124-5.179-14.758 5.695-11.651 28.482z"/><path d="M51.411 182.509l-3.884-13.722 4.143-1.554 3.107 8.026 2.33-.776-.776-8.026 3.625-.26 1.294 7.25 3.625-.777.777-6.99 5.438 1.554-2.072 6.732 2.331 1.813 3.624-6.214 4.66 3.106-4.401 5.697 3.366 3.105 3.365-2.329 1.035 9.839-3.107 11.651 5.957 9.838-12.169-5.696.776-6.474 4.401-10.873-14.241-10.357-13.204 5.437zm2.33 1.813l9.839-3.625 9.321 5.695.259 8.544-2.33 5.438-5.438-.517 1.813 6.472-5.955 3.884-4.66-3.884-.518-1.811h1.812l.777 1.294.518-1.294 1.553-.259 1.813.776.259-1.813-2.589-3.365-4.661.258.259-2.071-1.036 1.294-1.295-.776.518-1.812-1.294 1.294-1.036-.776 2.071-4.661 3.624.777 2.072 1.813 4.661-6.732-4.143.26-3.108 3.624h-1.812l-1.294-8.027z" fill="#bf8f00"/><path fill="#ffeee9" d="M52.188 134.351l-2.59 2.589-2.071 10.357 3.107 14.239 32.882-.516 4.142-10.357 3.366-19.419-24.855 7.508z"/><path fill="#9e7700" d="M27.591 148.074l4.142 69.906 5.438 12.169 7.508-1.035 1.553-14.758 5.697-16.571-3.366-55.667-3.366-3.884-7.25 3.884-1.553 2.331v.776l-1.036-1.553z"/><path fill="#ccad14" d="M31.733 217.98l6.214 8.286-1.035 5.956-4.402-.519z"/><path fill="#9e7700" d="M114.327 141.859l2.331 21.233-4.92 18.381-1.294 22.008-18.902 30.552-7.766-11.392-1.814-9.062-7.507-15.277 6.213-19.677 4.144-15.017 6.73-30.81h2.849l7.249 3.366 1.553 3.365 2.849-1.553z"/><path fill="#856400" d="M147.728 182.769l-33.401-40.91-2.589 39.614 6.473 5.437 6.214 3.108z"/><path fill="#755800" d="M129.345 213.061l18.383-30.292-29.517 4.141-6.214 18.383 6.473 8.027z"/><path fill="#ccad14" d="M137.888 221.604l-11.65.26-1.295-5.955 4.402-2.848 8.803 2.589z"/><path fill="#e5c828" d="M111.997 205.293l17.348 7.768-3.107 8.803-16.312-10.615z"/><path fill="#755800" d="M71.089 249.051l-24.598-10.616-8.544-12.169 6.732-6.992 3.107-3.624 7.768-2.589h4.142l4.402 1.812 5.179-1.553h4.401l5.438 1.294 2.846-1.035 5.18 10.357 3.882 4.919-5.696 16.312z"/><path fill="#856400" d="M71.089 249.051l-4.92 32.882-16.571 6.991-12.945-8.285-4.143-48.936 4.402.519 1.035-5.956z"/><path fill="#686a6c" d="M57.107 281.674l2.589 6.991-3.883 27.963-9.322 2.588-7.249-6.732-.518-5.437 2.589-2.847-3.107-3.367-.518-6.214 4.143-2.848-4.66-4.401-.518-6.731z"/><path fill="#454444" d="M66.169 281.933l-5.438 35.989-7.767 2.071v-4.142l4.143-34.177z"/><path d="M62.803 303.164l-1.036 7.508-23.043-3.625-.518-6.214 24.597 2.331zm2.072-13.982l-1.036 7.768-26.151-2.33-.517-7.249 27.704 1.811z" fill="#545657"/><path fill="#856400" d="M71.089 249.051l5.955 33.399 15.793 19.419 14.758-23.82 3.108-42.462-10.875-16.313-10.874 6.992-3.884 9.063z"/><path fill="#b58b00" d="M91.284 197.527l15.016 9.32 2.85-.258 1.294-3.108-15.277-9.321z"/><path fill="#ccad14" d="M86.105 222.124l24.339-18.643-.518 7.768-18.642 18.123-3.626-.776z"/><path fill="#686a6c" d="M87.142 281.156l-2.33 7.249 5.438 30.034 7.248 2.59 7.25-6.215.777-7.248-3.366-3.107 3.883-4.402.517-7.509-3.106-2.848 3.625-4.402.517-7.249z"/><path fill="#454444" d="M77.044 282.45l1.294 6.991 6.214 3.624-4.92 3.368 1.294 7.507 4.921 3.367-3.625 3.365 1.294 7.25 6.734 2.588 1.81-3.882-4.918-35.472z"/><path d="M80.926 303.94l1.296 6.731 23.303-3.105.518-7.51-25.117 3.884zm-2.588-14.499l1.294 6.991 26.927-3.885.519-7.25-28.74 4.144zM20.082 327.501l19.16-15.017 21.489 5.438.26 8.545zM83.516 317.922l-2.848 13.722 16.83 4.92 12.946-5.179-5.696-16.571z" fill="#545657"/><path fill="#454444" d="M82.222 345.108l-1.554-13.464 29.776-.259-.777 13.723z"/><path fill="#efd0cb" d="M103.712 274.683l-22.526-2.848 5.697 5.178zM80.15 266.397l17.607 3.368 8.285-5.698zM78.08 260.442l20.712.778 6.214-7.25z"/><path fill="#856400" d="M115.881 208.142l-2.848 1.035 1.552 3.626 3.885-1.813zM124.166 212.543l-3.624.777 1.036 3.883 4.401-1.81z"/><path fill="#efd0cb" d="M92.32 120.111l5.697-30.552 3.365-18.124L88.694 43.73 76.267 29.231l-15.794 85.442 2.589 17.866 19.678-6.474z"/><path fill="#ffeee9" d="M.664 34.668l7.767 62.399 20.454 21.49 31.588-3.884 20.973-26.668-6.732-75.603L30.18 3.081z"/><path fill="#efd0cb" d="M6.36 56.677l12.686 6.472L31.215 79.72l4.402.777 4.661-3.107 3.624-2.33 8.804-18.383L65.91 46.579l-8.544-2.589-12.428 8.026-9.58 6.991-1.812 2.33-2.589-1.035-5.437-4.661-12.429-2.848z"/><path fill="#3a3a3a" d="M20.859 18.357L1.181 38.811l-3.624-9.32L6.878 8.259l9.32 1.036z"/><path fill="#4f5253" d="M32.251 16.286l-11.392 2.071-42.203-30.293L-.89-15.819l17.088 9.838z"/><path fill="#474747" d="M53.482 13.437l-21.231 2.849L-.89-15.819l-10.357-14.759L8.69-27.212l23.82 10.615L53.741 4.894z"/><path fill="#4f5253" d="M4.029-45.336L8.69-27.212l44.792 40.649 7.249 4.402-14.499-43.756z"/><path fill="#474747" d="M39.501-32.908L4.029-45.336l31.847 23.561 17.606 35.212 5.437-.776 9.063-5.696-7.251-33.919-24.855-21.748z"/><path fill="#4f5253" d="M35.876-48.702l18.383 21.748L61.25 7.741l6.732-.776 5.436-5.955-4.141-23.303-6.474-11.651z"/><path fill="#474747" d="M70.052-45.855l-7.249 11.911 7.249 35.213L75.231.75l5.179-2.847-3.625-22.526z"/><path fill="#4f5253" d="M70.052-45.855l6.473 42.463 9.322-14.499-1.812-10.098z"/><path fill="#474747" d="M97.757-33.426l-13.722 5.437-7.51 24.597L79.116.232 87.4 1.269l8.803-8.804-.258-10.097z"/><path fill="#404344" d="M72.382 29.749l-18.9-16.312 12.946-9.579 10.097-7.25 7.767 2.33 16.313-.258L113.551 8 98.533 23.276z"/><path fill="#4f5253" d="M110.703-18.668l-6.733 11.91v6.473L98.017 3.34 84.292-1.062l11.653-16.57z"/><path fill="#474747" d="M119.505-6.758H103.97L98.017 3.34 113.551 8z"/><path fill="#3a3a3a" d="M88.694 43.73l-3.366.778-2.846-6.215-10.1-8.544L113.551 8l4.142 11.393-10.098 16.829z"/><path fill="#404344" d="M123.649 34.927l-5.956-15.534L88.694 43.73l8.804 4.144 8.802-2.072 7.51 1.295z"/><path fill="#3a3a3a" d="M107.595 79.72l16.054-44.793L106.3 45.802l-11.39 11.91 4.659 23.043-1.552 8.804 9.838-1.036z"/><path fill="#404344" d="M122.093 102.504L107.595 79.72l-9.578 9.839z"/><path fill="#ffeee9" d="M88.694 43.73l-1.552 26.41 7.768 2.589 6.472-1.294 4.918-25.633z"/><path fill="#cea39f" d="M94.131 59.524l-.258-9.32 7.25.258zM87.142 70.14l12.427 10.615 1.813-9.32zM78.338 112.343l-17.865 2.33-20.195 2.59 7.767 8.802 15.017 6.474 3.625-4.402z"/><path fill="#f4d75d" d="M49.339 135.905l-1.294-9.84 17.347 2.59 1.555 6.473-3.626 4.401z"/><path fill="#e5c828" d="M91.024 131.244l-27.703 8.285 2.071-10.874 26.928-8.544z"/><path fill="#404344" d="M82.482 38.293l2.588 79.746 2.33 4.402 4.92-2.33-3.626-76.381z"/><path fill="#3a3a3a" d="M80.41 134.092l4.66-16.053 7.25 2.072z"/><path fill="#fff5f3" d="M30.957 60.302l.258 19.418 10.098-2.072-5.955-18.641z"/><path fill="#cea39f" d="M37.171 83.604l-5.956-3.884 10.098-2.072z"/><path fill="#755800" d="M27.85 94.996l10.356-4.919 13.464.518-12.428 4.142z"/><path fill="#856400" d="M39.501 97.326l-11.651-2.33 23.82-4.401z"/><path fill="#9e7700" d="M41.313 77.648l3.107-2.07 2.331 2.588-2.331 3.366-4.142-2.589-1.036 1.812 5.696 2.331 3.884-4.661-3.884-4.919-4.143 2.589z"/><path fill="#474747" d="M26.296 52.275l-.776 3.366-13.723-1.554-5.437 2.59 5.437-5.956zM43.385 48.909l1.553 3.107 13.205-6.214 7.767.777-9.062-4.143z"/><path d="M19.046 59.784c1.812 0 3.107 1.553 3.107 3.366 0 1.812-1.554 3.366-3.367 3.366-1.812 0-3.106-1.554-3.106-3.366.001-1.813 1.554-3.366 3.366-3.366zM52.706 53.569c1.813 0 3.107 1.295 3.107 3.107 0 2.071-1.554 3.366-3.366 3.366-1.813 0-3.107-1.295-3.107-3.366-.001-1.812 1.553-3.107 3.366-3.107z" fill="#2b2b2b"/><path fill="#856400" d="M43.644 131.762l4.66-3.366.777 5.696zM57.366 129.172l-4.402 3.367 3.625 3.625 3.884-3.108zM73.16 128.396l-3.883 3.884 4.141 2.848 3.626-3.884zM91.801 123.735l6.216 2.589-6.993 3.108z"/><path fill="#614900" d="M65.133 227.302l1.036 2.59 1.294-.52 2.072 1.814-4.402 2.071-3.625-7.251 7.509-3.106 3.625 6.992-3.107 1.294-2.072-1.814 1.554-.517-1.295-2.849z"/><path fill="#614900" d="M71.607 235.846l-4.402-4.919 2.072-1.035 4.66 5.177z"/><path d="M72.123 237.399l2.072 1.295.777-1.035 2.848 1.035-2.33 3.624-6.732-4.919 2.332-3.106 2.07 1.813-1.037 1.293zm2.849.26l1.036-1.554-2.071-1.036-.777 1.036-2.07-1.813 2.329-3.107 6.214 5.438-1.813 2.071-2.848-1.035zM82.222 244.131l2.59 1.295.516-1.035 2.59 1.294-1.813 3.624-7.249-4.142 1.813-3.626 2.329 1.556-.776 1.034zm3.106.26l.777-1.554-2.329-1.296-.778 1.556-1.811-2.072 1.811-3.625 6.732 4.142-1.812 4.143-2.59-1.294zM94.651 250.345l2.847 1.035.52-1.035 2.846 1.035-2.33 4.144-7.509-4.401 1.296-3.107 2.848 1.294-.518 1.035zm3.366 0l.774-1.813-2.847-1.035-.777 1.812-2.848-1.294 2.071-4.66 8.285 4.401-1.813 3.624-2.845-1.035zM107.855 255.006l3.365 1.034 1.035-3.105-3.625-.777-.516 1.552-2.849-1.035.52-4.143 9.319 2.331-1.553 8.284-9.322-1.811 1.036-4.661 2.849 1.035z" fill="#614900"/><path fill="#614900" d="M82.482 243.097l-6.992-3.886 1.035-2.071 7.251 4.401zM93.095 249.568l-5.695-4.142-.258-2.329 6.989 3.624zM106.559 254.488l-7.249-2.59.259-2.07 7.249 1.811zM48.045 219.274h4.143v-1.035l2.848-.517-.259 4.66-10.098-.518v-2.59l2.072-6.471 8.803.258-.518 4.661-2.848.517v-2.33h-3.625zM62.544 219.274h4.143v-.776l2.59-.776v4.143h-9.321l-.259-4.143h2.848v1.552zm4.143-.776l-.259-2.589h-3.625l-.259 1.813h-2.848v-4.661l9.581.26v4.401l-2.59.776zM76.267 219.274l4.143.26v-3.366l-3.885.26-.258 2.07-2.849-.518.26-4.66 8.284.259 2.073 4.401-.259 4.661-10.616-.517.258-4.144 2.849.518z"/><path fill="#614900" d="M62.544 219.274h-9.58l.259-2.33 9.321-.257zM74.972 219.274h-8.025l.258-2.33h9.062zM64.615 226.006l-2.071-5.695h3.107l1.296 4.919z"/><path fill="#ccad14" d="M-1.666 224.454l4.401 7.768 3.107-3.884 1.036-3.367-5.438-3.367z"/><path fill="#e5c828" d="M21.636 231.443l-14.758-6.472-4.143 7.251 2.071.516 2.848 4.661 10.357-.776z"/><path fill="#856400" d="M16.975 230.927l.777 2.846-3.107.779-.518-2.849zM9.726 228.078l.776 2.849-3.107.776-.517-2.848z"/><path fill="#755800" d="M-.631 249.828l3.625 8.284 5.696-.258 2.072-3.108 2.847-6.731-2.071-13.463-6.732-1.814z"/><path fill="#efd0cb" d="M12.314 265.363l-9.32-7.251 7.768-3.366 6.213 10.098zM18.011 236.623l3.366 18.641-3.366 1.553-8.285-16.312 1.812-5.953z"/><path fill="#e6e6e6" d="M-3.738 258.112l.777-12.427-8.545-4.92-3.107-12.427 4.143-10.875-7.249 9.321 1.294 18.383 9.839 2.33z"/><path fill="#ccad14" d="M35.358 153.252l7.509 1.036-8.027 7.768 12.687 20.453-2.33-44.275 4.142-2.329.259 1.553 2.331 60.327-22.526-36.507 5.437-4.143-5.178-.777 5.696-12.686 3.884-2.071zM102.935 148.85l-1.295-12.686 4.402 1.812 2.588 13.722-6.471 2.33 6.214 4.661-33.918 39.613 16.052-65.763.517-1.295 3.367 1.554-11.134 47.639 18.125-21.231-9.062-6.213z"/><path fill="#b58b00" d="M39.76 198.821l-8.545 11.909.518 7.25 11.393-15.016z"/><path fill="#e5c828" d="M99.828 129.69l-4.143 3.884 1.554 2.59h4.401zM41.313 134.869l3.884 3.365-1.812 3.107-2.848-.517zM81.446 231.703l4.659-9.579 5.179 7.248-6.214 5.957zM43.385 239.988l-5.438-13.722-5.437 5.437 5.437 10.358z"/><path fill="#856400" d="M38.983 232.222l.777 2.847-3.107.777-.518-2.849zM87.142 228.078l.775 2.849-3.105.776-.52-2.848z"/></svg>