<svg xmlns="http://www.w3.org/2000/svg" viewBox="0 0 400 400"><g fill-rule="evenodd" clip-rule="evenodd"><path fill="#785924" d="M179.717 159.966l-38.321 24.178 3.413 20.618 21.275 4.304 9.578-.337 15.1-15.432z"/><path fill="#cc9e99" d="M182.911 138.522l5.778 6.598 3.929 6.458 1.623 26.444 26.431.425 19.445-18.947 1.937-4.98 6.047-28.647-13.676 4.562-55.288.567z"/><path fill="#edcfc9" d="M211.406 144.792l19.462.141-7.462 24.263 21.277-13.97 6.531-7.056 2.014-4.629 11.653-30.094-1.961-31.46-11.047-7.869-18.022-33.735-4.557 7.978-1.929 63.945z"/><path fill="#402e1c" d="M233.851 40.383l14.604 43.995 7.417 1.147 22.893-7.945 8.667-22.381-11.12-8.262-25.644-5.701z"/><path fill="#402e1c" d="M264.413 10.285L239.58 29.497l-5.729 10.886 53.581 14.816z"/><path fill="#544538" d="M287.432 55.199l-53.581-14.816 1.213-6.447 9.252-3.859z"/><path fill="#402e1c" d="M146.65 18.154l8.551 16.529 5.127 4.559 64.404 6.836 9.119-5.695 10.465-10.306-21.508-14.665h-49.585z"/><path fill="#544538" d="M177.078 1.38L146.65 18.154l97.666 11.923 20.097-19.792z"/><path fill="#402e1c" d="M139.812 48.361l14.048 41.603 3.048-17.093 2.281-30.779-3.988-7.409z"/><path fill="#ffede8" d="M172.081 145.36l39.325-.568 22.664-28.318-.219-76.091-78.65-5.7-4.077 27.315 2.382 42.601-.352 14.424z"/><path fill="#edcfc9" d="M168.307 60.36L157.53 62.1l11.062 9.942 11.411 25.208 3.408-9.576 1.142-19.377-2.134-4.895zM201.079 59.176l-8.412 3.378-2.416 6.883 2.281 22.554 1.544 5.259 12.134-25.777 13.681-14.82z"/><path fill="#382612" d="M160.043 58.647L157.53 62.1l24.889 1.302-.147-4.226zM192.532 58.608l.135 3.946 27.224-5.901-4.274-3.135z"/><path fill="#cc9e99" d="M187.401 93.944l-7.398 3.306 7.97 7.279 6.441-7.68z"/><path fill="#fff5f2" d="M192.667 62.554l-10.248.848-2.416 33.848 14.411-.401z"/><path fill="#cc9e99" d="M254.371 101.364l10.51 12.083 4.517-11.668-6.193-2.692z"/><path fill="#ffede8" d="M256.935 74.295l-2.564 27.069 15.027.415 9.367-24.199z"/><path fill="#cc9e99" d="M260.161 95.059l1.058-14.283 10.214 1.626zM170.438 110.969l8.831 11.682 20.524-.285 11.108-12.256z"/><path fill="#fff" d="M175.851 113.53l28.077-.775-5.85 7.046-16.811.286z"/><path fill="#edcfc9" d="M173.048 102.987l-3.707 11.115-1.601-5.056zM206.271 101.846l6.27 11.399 1.144-5.698z"/><path d="M205.808 77.603c2.592 0 4.703-2.116 4.703-4.708s-2.111-4.706-4.703-4.706c-2.597 0-4.712 2.114-4.712 4.706 0 2.592 2.119 4.708 4.712 4.708M169.198 78.205c2.592 0 4.708-2.116 4.708-4.708s-2.116-4.708-4.708-4.708-4.706 2.116-4.706 4.708c-.002 2.592 2.114 4.708 4.706 4.708" fill="#2b2b2b"/><path fill="#785924" d="M242.596 194.492l25.528 28.295 7.622 11.153 15.141-8.723 5.05-18.701-17.359-44.532-10.608 2.547-18.677 19.519z"/><path fill="#b0872e" d="M112.401 113.774l1.082.061 4.987 5.614-.792 1.686-2.553-1.298-3.688-4.11zM132.713 97.177l8.13 6.071-3.395 8.345-1.872 1.545 1.884-8.554-6.671-5.116-.43-2.22z"/><path opacity=".149" fill="#2b2b2b" d="M143.6 382.439l76.502-17.871 71.651 19.116-71.565 16.696z"/><path fill="#383838" d="M176.751 358.896l-19.113 16.288 6.377 2.572 29.311.236 4.791-2.808-.81-17.053-4.242-4.243-11.184.858z"/><path fill="#616666" d="M173.577 328.59l5.039 3.393 20.339.18 7.536-3.309 7.584-24.17-2.306-6.689-35.962-20.784-7.278 1.81z"/><path fill="#383838" d="M245.847 364.572l-3.264 17.192 3.772 2.8 25.709-.175 3.059-2.625-8.122-17.143-5.187-3.519-13.156-.423z"/><path fill="#616666" d="M215.764 297.092l-1.689 7.592 14.136 26.649 4.146 3.523 28.533-1.151 4.358-4.301-2.373-47.746-26.737-8.484z"/><path fill="#383838" d="M176.923 273.744l-8.394 5.277 45.546 25.663 20.448-14.973-.35-11.446-6.58-5.213z"/><path fill="#ccab2e" d="M215.769 256.198l11.035 3.394 3.222 19.315-54.799.098 9.712-8.487z"/><path fill="#e3c421" d="M172.879 275.01l2.348 3.995 46.059-21.11 2.97-5.518v-77.238l-5.094-1.697H207.28l-3.393 3.819z"/><path fill="#785924" d="M260.756 254.925l-4.672-3.398-28.857 1.274-5.941 5.094 13.237 31.816 8.817-11.479 5.53-2.091 13.155-16.549z"/><path fill="#edcfc9" d="M243.34 278.232l19.535 3.426-1.7-5.091-11.031-7.852z"/><path fill="#f5d947" d="M263.299 267.229l-9.392-3.141-3.763 4.627 12.629 12.65 3.496-3.528z"/><path fill="#b0872e" d="M284.941 240.492l-9.195-6.552-14.99 20.985-6.849 9.163 12.362 13.749 23.339-22.912z"/><path fill="#946e29" d="M221.286 257.895l1.322-55.391 2.922-1.901 20.89-4.785 4.195 1.365 17.509 25.604-7.368 32.138z"/><path fill="#b0872e" d="M261.17 150.627l-20.788 24.089-16.972-5.52-2.548 2.973 2.409 2.642-.565 23.725 3.674.792 18.246-3.394 3.499-2.393 30.453-31.557z"/><path fill="#f5d947" d="M222.706 198.536l-.098 3.968 28.007-5.321-2.592-3.794z"/><path fill="#946e29" d="M168.529 279.021l6.13-5.79 20.74-71.354-2.973-2.549-13.155-2.546-2.547 1.488z"/><path fill="#b0872e" d="M179.717 159.966l-2.568 34.271 1.911 1.486 13.157 2.756 3.109-.72 2.193-1.825 6.368-22.492-.423-4.671-3.394-1.272-9.764 5.093-5.145-16.166z"/><path fill="#f5d947" d="M177.149 194.237l-.425 4.033 17.373 3.863 2.15-1.53-.921-2.844zM203.464 168.771l.423 4.671 1.697 1.697h17.68l.142-5.943z"/><path fill="#785924" d="M168.529 279.021l6.698-.016 33.539-103.866-5.302-6.368z"/><path fill="#946e29" d="M120.679 191.743l.466-5.913 10.199-12.449 5.023-1.269 29.717 36.954-36.888 1.323z"/><path fill="#785924" d="M106.82 160.865l13.859 30.876 15.688-19.629-14.642-17.344-8.585.875z"/><path fill="#f5d947" d="M106.82 160.865l14.905-6.097-3.654-4.33-6.801.078-6.732 5.269z"/><path fill="#cc9e99" d="M119.699 140.19l-1.628 10.248-13.533 5.347-14.193-14.303 16.42 1.294z"/><path fill="#ffede8" d="M90.896 122.928l9.145-4.185 2.83 2.193-1.526 5.581 4.415 8.005-6.63 5.746-4.531-.709zM109.795 130.13l2.5 7.389 7.404 2.671 2.799-17.627-4.82-1.428z"/><path fill="#edcfc9" d="M105.215 146.505l-14.87-5.023 13.694-6.185 5.756-5.167 9.904 10.06z"/><path fill="#ccab2e" d="M98.719 127.489l5.32 7.808 7.383-3.332 6.256-10.83-5.251-6.323-8.335 5.873zM115.949 111.555l6.085 6.192 13.542-4.609 3.199-8.806-7.931-6.553-8.598 6.051z"/><path fill="#785924" d="M129.336 95.403L97.329 125.45l1.39 2.039 32.125-29.71 15.859-4.987 3.245 2.845 3.784-1.75-5.863-3.705zM252.581 145.026l8.589 5.601-19.087 34.699-18.673-16.13zM185.161 156.426l2.012 24.31 16.291-11.965-10.846-17.193z"/><path fill="#946e29" d="M295.937 206.516l-20.354 27.653 14.025 20.756 18.25-17.826z"/><path d="M268.124 222.787l-19.999-29.246 12.631 61.383 7.368-32.137zm-33.601 66.924l8.817-11.479 19.535 3.426-28.352 8.053z" opacity=".149"/><path fill="#525254" d="M173.577 328.59l32.914.264-9.184 29.277-20.556.765zM228.211 331.333l37.037-1.929 1.753 35.217-21.154-.049z"/><path fill="#616666" d="M157.638 375.184h40.479v4.301h-40.479zM242.583 381.764h32.54v4.781h-32.54z"/></g></svg>