<svg xmlns="http://www.w3.org/2000/svg" viewBox="0 0 400 400"><path fill-rule="evenodd" clip-rule="evenodd" fill="#12110c" d="M131.011 388.233L199.7 400l84.05-10.656-80.392-10.655-58.055 7.3z" opacity=".149"/><path fill-rule="evenodd" clip-rule="evenodd" fill="#ad8e1b" d="M145.303 385.989l-.316-5.25 10.525-1.914 28.477.098 3.652.577-.085 6.01zM234.812 384.707l-8.746 1.69.058 6.238 34.194-.03-.075-6.171-5.818-1.727z"/><path fill-rule="evenodd" clip-rule="evenodd" fill="#9c7573" d="M251.167 362.227l-1.416-41.9-16.254-1.942-19.128 10.64 14.235 33.178 15.205 5.198z"/><path fill-rule="evenodd" clip-rule="evenodd" fill="#7d534f" d="M210.317 319.585l24.618-3.931 14.814 4.673-35.38 8.698z"/><path fill-rule="evenodd" clip-rule="evenodd" fill="#6d5018" d="M226.066 386.4l5.855-16.465 11.888-2.534 7.98 2.534 8.454 16.499z"/><path fill-rule="evenodd" clip-rule="evenodd" fill="#f2bc4d" d="M228.604 362.203l3.317 7.732h19.868l-.622-7.708z"/><path fill-rule="evenodd" clip-rule="evenodd" fill="#9c7573" d="M186.301 358.002l5.568-38.105-17.222-5.141-21.873 3.085 12.919 47.643 12.78-5.234z"/><path fill-rule="evenodd" clip-rule="evenodd" fill="#7d534f" d="M191.869 319.897l-17.221-5.141-.047.007-21.827 3.078 2.512 9.262z"/><path fill-rule="evenodd" clip-rule="evenodd" fill="#6d5018" d="M144.987 381.283l20.706-15.799 10.333-2.308 9.534 2.308 2.08 14.678z"/><path fill-rule="evenodd" clip-rule="evenodd" fill="#f2bc4d" d="M163.501 357.605l2.192 7.879 19.861-.001.805-7.878z"/><path fill-rule="evenodd" clip-rule="evenodd" fill="#a88a1b" d="M145.971 317.483l45.898 2.414.564-4.832-1.016-2.168 1.504-2.014 3.251-27.787-14.707-20.529-28.584-.465-6.91 2.451v44.136l1.089 2.386-1.089 1.951zM200.479 319.897l-.863-4.316-.108-2.351-.845-2.401-3.622-18.058 2.662-8.064 43.623-19.407 6.769.834 1.36 44.514-1.294 2.138 1.446 2.88.142 4.661z"/><path fill-rule="evenodd" clip-rule="evenodd" fill="#9c7573" d="M157.905 176.602l-.895-22.888-44.613 37.986 2.935 9.144 10.811 4.476 16.368-3.196 10.302-4.876z"/><path fill-rule="evenodd" clip-rule="evenodd" fill="#b5908f" d="M126.142 205.321l-13.746-13.622-14.765 45.51 9.544.967z"/><path fill-rule="evenodd" clip-rule="evenodd" fill="#b5908f" d="M100.979 255.392l-3.348-18.183 10.376-.476 7.383 11.014-4.398 5.974z"/><path fill-rule="evenodd" clip-rule="evenodd" fill="#856563" d="M100.978 255.392l14.412-7.645 11.611 7.254-5.979 2.857z"/><path fill-rule="evenodd" clip-rule="evenodd" fill="#9c7573" d="M251.154 151.173l28.257 38.125-5.025 24.75-11.719 3.641-13.309-9.194-4.632-33.408z"/><path fill-rule="evenodd" clip-rule="evenodd" fill="#b5908f" d="M172.251 130.693l8.147 12.341-4.711 2.165.156 25.558 44.728-.215 12.693-24.113-7.897-2.096-.972-18.252-12.423 5.265z"/><path fill-rule="evenodd" clip-rule="evenodd" fill="#9c7573" d="M200.586 133.834l-12.156 28.909 39.588-17.745 16.54-53.482-1.036-9.17 12.535-25.06-17.304-36.998-22.065-7.159-.439 7.16-9.7 3.58-10.733 106.155z"/><path fill-rule="evenodd" clip-rule="evenodd" fill="#cbaba8" d="M212.515 3.88L175.538 0l6.56 8.356 19.68 10.738 14.471 1.195h22.504z"/><path fill-rule="evenodd" clip-rule="evenodd" fill="#b5908f" d="M152.878 130.024h42.938l16.182-26.794 4.251-82.941L175.539 0l-40.388 24 .465 68.823z"/><path fill-rule="evenodd" clip-rule="evenodd" fill="#7d534f" d="M233.395 81.753l11.163 9.763 4.031-11.994-4.461-3.139z"/><g fill-rule="evenodd" clip-rule="evenodd"><path d="M141.436 258.474c19.083 0 34.646-14.085 34.646-31.355 0-17.268-15.563-31.357-34.646-31.357-19.085 0-34.649 14.089-34.649 31.357s15.565 31.355 34.649 31.355" fill="#e5a800"/><path d="M148.383 196.395c1.299.24 2.571.546 3.813.913l-10.536 27.489 9.052-.838-.318 2.922-8.483.799 7.863 16.603-2.382 2.898-8.721-19.198-3.694.35 5.959 30.139c-1.229-.019-2.446-.092-3.645-.221l-5.569-29.614-3.674.346-3.252 25.648c-1.009-.5-1.985-1.049-2.934-1.637.41-3.188 2.351-18.348 3.163-23.727l-17.979 1.689c-.128-.963-.21-1.936-.241-2.922l17.805-1.65c-2.543-4.047-10.548-18.345-10.594-18.429.657-.769 1.353-1.509 2.088-2.22l11.422 20.378 3.659-.34-5.04-26.794c.912-.407 1.849-.778 2.806-1.111l5.461 27.605 3.751-.349 10.22-28.729z" fill="#bd8a16"/><path d="M143.844 258.39c.102-.006.203-.014.305-.021.48-.033.959-.075 1.434-.128 1.337-.146 2.65-.359 3.937-.64l-2.128-10.418 3.12.725-1.798-8.116-25.313 1.333-16.344-10.17c.009.066.019.132.028.197l.522 2.717c.017.073.037.146.056.22l4.198 9.331c.001.002.002.004.004.006.472.697.977 1.373 1.506 2.032.052.066.102.131.154.196.515.633 1.058 1.244 1.622 1.84.081.085.161.17.243.254.573.593 1.169 1.168 1.789 1.719.058.051.117.1.174.15 1.306 1.144 2.708 2.195 4.197 3.145.065.041.13.084.195.125.731.459 1.483.893 2.254 1.301.077.041.155.081.233.121.792.413 1.6.802 2.429 1.156.011.005.021.009.032.014.869.371 1.757.713 2.663 1.02.093.031.185.064.276.095.433.143.871.275 1.313.402.199.057.4.111.601.165.273.073.548.144.822.213.124.03.246.066.371.095.408.096.821.182 1.235.264.416.082.834.156 1.255.227.419.068.837.135 1.26.189.13.018.261.03.39.045.138.016.274.032.412.047.451.051.905.091 1.362.123.126.01.253.018.38.026.105.008.211.016.317.021.691.037 1.385.063 2.086.063.699 0 1.394-.024 2.083-.063.109-.005.217-.014.325-.021z" opacity=".2" fill="#33302d"/></g><path fill-rule="evenodd" clip-rule="evenodd" fill="#b5908f" d="M235.781 53.708L234.2 72.284l-.805 9.469 15.194-2.231 7.468-22.236z"/><path fill-rule="evenodd" clip-rule="evenodd" fill="#7d534f" d="M241.137 58.517l-1.517 13.69 9.877-12.17z"/><path fill-rule="evenodd" clip-rule="evenodd" fill="#e5e4e4" d="M239.193 77.512l4.22-.341.059 8.312-5.01.634z"/><path fill-rule="evenodd" clip-rule="evenodd" fill="#9c7573" d="M143.932 48.333l10.286 12.211 8.86 15.514 4.129-17.198-3.17-7.117zM177.53 51.34l-2.728 7.153 5.467 24.58 7.584-23.466 12.733-14.256z"/><path fill-rule="evenodd" clip-rule="evenodd" fill="#33302d" d="M145.126 45.947l-1.194 2.386 20.105 3.41-.226-3.784zM177.029 47.439l.501 3.901 23.056-5.989-1.789-2.388zM154.217 64.417c2.192 0 3.982-1.739 3.982-3.873 0-2.132-1.789-3.872-3.982-3.872-2.191 0-3.98 1.741-3.98 3.872.001 2.134 1.789 3.873 3.98 3.873M188.429 63.75c2.192 0 3.982-1.861 3.982-4.142 0-2.281-1.789-4.143-3.982-4.143-2.191 0-3.979 1.862-3.979 4.143 0 2.282 1.788 4.142 3.979 4.142"/><path fill-rule="evenodd" clip-rule="evenodd" fill="#d0ad02" d="M219.137 167.943l14.127-21.515 17.89 4.745-1.824 58.228-1.483 33.227-14.818 5.321-4.732 9.909-76.378-1.432-4.529-2.9 4.807-49.874 4.812-49.938 18.678-8.515 1.829 22.744z"/><path fill-rule="evenodd" clip-rule="evenodd" fill="#917c20" d="M195.041 292.771l42.154-21.165-11.858-8.46-75.765-.908-3.601 2.315z"/><path fill-rule="evenodd" clip-rule="evenodd" fill="#f9d937" d="M147.39 253.526l79.868 1.161 4.697 4.044-7.786 7.033-78.198-1.211z"/><path fill-rule="evenodd" clip-rule="evenodd" fill="#9c7573" d="M256.613 253.7l-3.025-6.77-5.741-4.302L230.355 247l.631 8.048 17.109 11.086z"/><path fill-rule="evenodd" clip-rule="evenodd" fill="#b5908f" d="M237.195 271.606l-18.489-5.927L230.355 247l17.74 19.134zM262.667 217.689l-14.82 24.939 8.766 11.072 26.558-20.363-5.437-13.228z"/><path fill-rule="evenodd" clip-rule="evenodd" fill="#6d5018" d="M283.171 233.337l-20.504-15.648 16.744-28.391 22.958 29.295z"/><path fill-rule="evenodd" clip-rule="evenodd" fill="#f9d937" d="M173.453 146.219l-3.657 1.672 2.458 26.979 50.707-.432 17.18-26.185-4.169-1.107-15.402 23.395-44.727.216zM164.487 150.312l-3.814 44.391-8.476 8.949.616-6.405 3.342-3.857 3.671-40.957zM248.996 216.661l-7.857-11.056 2.069-56.54 4.697 1.247-1.368 53.545 2.821 4.638z"/><path fill-rule="evenodd" clip-rule="evenodd" fill="#f2bc4d" d="M145.971 308.689l46.95 2.194-.488 4.182-46.462-2.039zM198.663 310.829l50.792-.181.152 5.018-49.991-.084z"/><path fill-rule="evenodd" clip-rule="evenodd" fill="#9b701b" d="M171.213 190.714l14.831-.435 6.696 5.629-.956 15.584-11.604 7.562 11.689-.244-.996 8.308-22.05-.637v-10.226l11.479-9.091.479-7.793h-12.437zM201.673 211.883l7.812 2.207-.774 5.193-11.394-.472-.903 8.657 23.239 1.259 2.269-16.26-5.071-3.271 4.176-3.494.601-9.794-6.696-5.628-16.128.824-1.572 8.267h12.436l-.358 5.851-7.157.601z"/><path fill-rule="evenodd" clip-rule="evenodd" fill="#7d534f" d="M170.468 130.024h48.865l-30.903 32.719z"/><path fill-rule="evenodd" clip-rule="evenodd" fill="#9c7573" d="M97.631 237.209l10.008-3.176 7.838 13.853-3.564 2.003z"/><path fill="#7d534f" d="M161.394 83.073l9.073 6.087 9.802-6.087z"/><path fill-rule="evenodd" clip-rule="evenodd" fill="#cbaba8" d="M180.269 83.073l-5.467-24.58 2.728-7.153-13.493.403 3.17 7.117-5.813 24.213z"/><path fill-rule="evenodd" clip-rule="evenodd" fill="#7d534f" d="M155.144 97.75l39.083-4.927-9.777 11.677-18.056 1.834z"/><path fill-rule="evenodd" clip-rule="evenodd" fill="#fff" d="M160.126 99.053l28.625-3.522-3.857 4.407-20.333 2.409z"/><path fill-rule="evenodd" clip-rule="evenodd" fill="#917c20" d="M237.195 271.606l11.456 12.734-.556-18.206z"/><path fill="none" d="M152.436 317.823l13.257 47.661"/></svg>