<svg xmlns="http://www.w3.org/2000/svg" viewBox="0 0 400 400"><path opacity=".1" fill="#2b2b2b" d="M109.148 384.726l92.233-12.92 91.275 14.227L195.275 400z"/><path fill="#846528" d="M250.563 309.161l23.745-12.95-7.322-24.174-19.964-.18z"/><path fill="#ba9e2b" d="M170.116 279.642l-5.95 44.154 12.085 22.744 21.683-9.278 16.025-28.859-32.613-34.544z"/><path fill="#e4c824" d="M204.534 309.105l7.633 27.106 18.725 18.357 17.431-15.522 4.346-52.483-17.961-22.539z"/><path fill="#ccae2d" d="M240.42 273.89l-35.886 35.215-14.77-15.578-21.889-21.49 46.3-1.739 26.245-2.001z"/><path fill="#846528" d="M261.624 176.499l29.886 69.287-20.332-5.599-18.509-3.209z"/><path fill="#b38c2e" d="M176.57 173.793l-31.947 26.515 13.651 26.515 14.973-25.099z"/><path fill="#606060" d="M228.034 166.71l-37.883 5.826-16.904 38.572.365 51.701 71.513-2.383z"/><path fill="#e4c824" d="M135.711 12.804L220.241 0l-61.574 31.844z"/><path fill="#846528" d="M214.965 64.207l26.429-8.861 31.593-10.642 9.388 21.429-34.087 27.352-16.661-13.682z"/><path fill="#feeee9" d="M131.842 95.398l1.548 20.817 20.107 46.949 26.27-1.259 13.789 11.213-6.185 15.964 11.128 29.224 20.299-40.836 8.809-5.782 20.681-78.203-14.554-7.319-18.769-21.959z"/><path fill="#efd0cb" d="M214.965 64.207l-2.227 62.061-11.843 34.251-17.62 2.79 3.637 9.379 10.123 18.269 21.763-13.487 12.255-6.089-.149-7.575 10.01-34.222.141-8.746 2.705-5.187 4.528-22.166-14.554-7.319zM192.1 89.656l-22.804 31.182-30.859-26.072z"/><path fill="#cea39f" d="M131.842 95.398l82.381-7.851 11.624-4.032v-9.654l-10.882-9.654-84.639 10.787zM243.76 115.651l-12.419-1.459 9.573 15.392zM179.767 161.905l43.531-3.217-32.02 21.879z"/><path fill="#fff5f3" d="M168.067 91.924l1.229 28.914-7.11.505-2.939-28.573z"/><path fill="#cea39f" d="M169.296 120.838l-3.16 5.586-3.95-5.081z"/><path fill="#efd0cb" d="M182.802 102.184l5.452 8.542 6.704-1.156zM150.115 104.484l-2.746 8.746-5.937.288zM160.391 121.888l-5.554 1.068-.479 9.44z"/><path fill="#cea39f" d="M186.244 134.995l-27.577-.722.469 8.957 25.958-2.601z"/><path fill="#fff" d="M183.275 137.018l-22.239-.385 1.15 3.948 21.089-1.83z"/><ellipse cx="184.402" cy="97.267" rx="3.904" ry="3.926" fill="#2b2b2b"/><ellipse cx="146.348" cy="100.558" rx="3.904" ry="3.926" fill="#2b2b2b"/><path fill="#6f7173" d="M192.1 89.656l-24.033 2.268v-4.025l22.341-1.878zM159.247 92.77l-.58-3.797-19.615 1.764-.615 4.029z"/><path fill="#cea39f" d="M235.649 109.001l1.902-10.122h6.209z"/><path fill="#9ca0a1" d="M227.537 71.141l-1.69 12.374-2.549 23.119 8.043 2.367 2.393-15.66 14.554.144-2.785-12.434z"/><path fill="#737474" d="M225.847 83.515l19.656-2.464-3.343-14.918-27.195-1.926z"/><path fill="#e4c824" d="M92.409 71.141l66.838 12.374 82.147-28.169-77.123 3.947-27.434-4.91-4.596-11.75-16.469 2.317z"/><path fill="#ccae2d" d="M130.326 59.969L92.409 71.141l23.363-30.817 16.469 2.309 3.147 8.048z"/><path fill="#b38c2e" d="M135.711 12.804l21.663 10.446 6.897 11.978-5.024 30.905-27.006-23.5z"/><path fill="#846528" d="M157.374 23.25L220.241 0l12.934 35.228-73.928 30.905z"/><path fill="#9d782c" d="M132.241 42.633l26.321 6.153 2.474 7.618-1.789 9.729-28.921-6.164z"/><path fill="#bb8f2d" d="M158.562 48.786l74.613-13.558 8.219 20.118-82.147 10.787z"/><path fill="#846528" d="M159.092 208.125l-12.076-36.897-16.682 1.747-.612 58.431 28.06 10.921z"/><path fill="#cea39f" d="M147.016 171.228l5.648-25.083-29.459 2.619 9.649 16.521z"/><path fill="#efd0cb" d="M147.016 171.228l-23.811-22.464 7.129 24.211zM123.205 148.764l25.839 2.101 9.748-12.258-15.726-4.918z"/><path fill="#b58c8c" d="M147.016 171.228l8.71-9.44 3.324-17.165-7.186 5.478-7.186 8.999z"/><path fill="#9d782c" d="M161.036 136.633l-15.823 13.92.674 2.999 2.73 1.599 14.677-14.57z"/><path fill="#4f5253" d="M145.213 150.553l-4.474 4.274 3.939 4.273 3.939-3.949z"/><path fill="#8f8f8f" d="M221.125 269.881l-13.534.802-9.012-.385-7.155 1.329-14.072.41-4.105-10.129 17.592-.707 8.376 1.407 7.618-2.182 37.315-2.358z"/><path opacity=".2" fill="#2b2b2b" d="M187.371 189.082l-17.036 1.178 15.472-6.726z"/><path fill="#9d782c" d="M228.034 171.714l-4.725 34.5-16.476 30.764 14.292 32.903 19.295 4.009 17.03-5.244 1.689-32.081 2.485-60.066z"/><path fill="#e2a940" d="M242.631 173.793l3.011 34.512-38.809 28.673 24.508-74.665z"/><path opacity=".2" fill="#2b2b2b" d="M234.708 192.969l-21.224-4.809 5.314-10.69z"/><path fill="#8f8f8f" d="M218.798 177.47l15.91 15.499-3.367-30.656z"/><path fill="#bc9235" d="M259.139 236.565L240.42 273.89l5.222 7.498 10.415 2.336 35.453-37.938z"/><path d="M206.833 260.426l-15.994.775.585 10.426 16.167-.944-.758-10.257zm-3.041 7.251l-9.384.655v-4.02l9.384-.655v4.02z" fill="#c4c4c3"/><path fill="#ccae2d" d="M248.323 339.046l-36.156-2.835 8.895 31.397 10.6 5.069 13.957-2.622z"/><path fill="#a58c25" d="M197.934 337.262l-33.768-13.466-5.959 36.117 8.067 6.992h15.867z"/><path fill="#feeee9" d="M240.42 273.89l10.939 28.493 4.698-18.659z"/><path opacity=".2" fill="#2b2b2b" d="M184.065 301.059l-18.088 9.02 1.73-12.561z"/><path fill="#9d782c" d="M181.781 225.092l2.284 75.967-32.716-6.961 7.866-88.235 22.566-15.603z"/><path fill="#e2a940" d="M181.781 225.092l-22.566-19.229 11.12-15.603 15.472-11.905 1.564 10.727z"/><path fill="#606060" d="M185.807 183.534l-15.472 6.726 6.235-16.467z"/><path opacity=".2" fill="#2b2b2b" d="M187.371 189.082l-17.036 1.178 6.235-16.467z"/><path fill="#8f8f8f" d="M187.371 189.082l3.907-8.515-7.354-11.923-7.354 5.149z"/><path fill="#9d782c" d="M158.207 359.913l23.934 6.992-.164 11.787-8.404 2.885-10.506-2.885-10.521 1.277-24.719-1.277zM221.062 367.608l-10.668 18.425 15.533 1.676 21.736-1.676-2.044-15.978z"/><path fill="#846528" d="M181.977 378.692v5.77h-16.059l-2.851-5.77-7.864 5.77h-27.376v-5.77zM210.394 386.033h37.268v6.059h-37.268z"/></svg>