<svg xmlns="http://www.w3.org/2000/svg" viewBox="-93.581 -0.5 400 400"><path fill="#2b2b2b" fill-opacity=".102" d="M24.86 378.207l119.452-19.632 68.783 20.138-82.93 20.787-95.489-17.468z"/><path fill="#484648" d="M78.92 328.983l7.073 33.923L96.314 373.3l16.384-5.485 1.733-34.357-14.797-14.507 6.496-60.267-16.383-8.734z"/><path fill="#4f5252" d="M66.289 268.501l12.631 60.482 35.511 4.475 1.515-26.777-9.816-47.997-16.383-8.734zM141.641 368.391l17.971 8.157 7.652-11.476-5.486-36.594-23.457-22.23-13.641-56.803.865 83.002z"/><path fill="#6e7072" d="M125.545 332.447l36.233-3.969-5.414-37.603-11.476-21.798-20.208-19.632-27.283 20.137z"/><path fill="#9d782c" d="M113.276 376.043l-.578-8.228-26.705-4.909-19.704 13.137 14.796 3.247z"/><path fill="#846528" d="M113.276 381.455v-5.412H66.289v5.412z"/><path fill="#9d782c" d="M136.228 382.032l5.413-13.641 25.623-3.319 4.402 16.96-15.59 2.455z"/><path fill="#846528" d="M136.228 382.032h35.438v4.837h-35.438z"/><path fill="#b38c2d" d="M6.816 368.391l18.044-5.99 3.826 9.239-3.826 6.567-12.559 4.908v-3.825l-3.248-1.659 1.083-5.414zM33.016 358.575l-8.156 3.826 7.074 10.899 26.199-2.166 4.908-9.31-11.476-4.909z"/><path fill="#755923" d="M31.934 362.401l10.898-2.238 9.311 1.083-1.661 4.402-11.476.506z"/><path fill="#ccae2d" d="M34.676 382.032l-9.816-3.825v-15.806l8.733 7.073 20.137-.577 9.311-7.073v13.641l-9.311 4.402z"/><path fill="#efd0cb" d="M149.292 147.894l4.33-24.54 13.642-31.613-38.182-52.4-12.991 93.829-1.733 35.511 33.274-13.137z"/><path fill="#cea39f" d="M118.978 132.087l21.075-.505-16.961 30.531H99.634v-10.394l-4.33-18.188 8.083-9.094z"/><path d="M57.556 38.764l9.455 69.434 16.673 26.272c13.785-1.083 22.086-1.66 36.232-2.454l11.476-29.231-1.805-62.36-26.2-17.972-17.971 11.98-9.311-3.825-10.321-2.743-8.228 10.899z" fill="#ffede8"/><path fill="#efcfca" d="M76.25 63.376l10.609 3.031 3.825 3.465 4.187 4.763.866-5.196 5.268-4.547 2.96-2.959 13.93-2.166 4.764 3.248-10.898 10.321L99.49 87.049l-6.857-2.959-3.969 3.176-13.425-11.909L66 68.284l6.496-5.414z"/><path fill="#cda39e" d="M114.358 30.03l-28.942 4.403-23.746 2.454 3.537-8.445 19.126-4.907 19.054-1.083z"/><path fill="#82754d" d="M47.234 43.167l14.147 23.962.289-30.242-9.527-.794z"/><path fill="#a09060" d="M52.648 20.214l-5.414 22.953 28.871-12.559-4.331-13.642z"/><path fill="#c1b174" d="M81.59 5.491L52.648 20.214l23.457 10.394 9.311 3.825 7.073-12.558-3.248-11.477z"/><path fill="#fff6ae" d="M117.606-.5L89.241 10.398l-3.825 24.035 17.971-11.981 17.467-4.908L137.815.078z"/><path fill="#82754d" d="M129.587 40.424l-26.2-17.972 15.879-9.888 9.24 6.063z"/><path fill="#a09060" d="M168.346 25.7l-14.147 10.899-24.612 3.825-7.073-19.127-3.248-8.733L137.815.078z"/><path fill="#c1b174" d="M178.739 58.973L168.346 25.7l-38.759 14.724 9.311 22.374v20.715l8.878 1.155 15.158-18.044 9.237 2.743z"/><path fill="#a09060" d="M173.254 100.98l-10.32 7.073-4.91-12.487 4.91-28.942 15.805-7.651z"/><path fill="#fdede8" d="M162.934 66.624l-18.622-1.083-.434 23.962 14.94 1.156z"/><path fill="#cda39e" d="M143.878 89.503l13.281 11.477 1.659-10.321z"/><path fill="#8e8e8e" d="M100.14 240.713l33.85-19.704 12.559-66.547-21.292 10.393-27.282-2.742-14.725 48.575z"/><path fill="gray" d="M96.892 165.36L83.25 210.688l9.239 15.805 8.228 7.073-3.32-68.711z"/><path fill="#cda39e" d="M149.797 80.842l.578-9.31h6.494z"/><path fill="#c3c3c3" d="M125.763 168.681l20.786-14.219 2.743-6.568-26.2 14.219-20.787-1.66-2.671-8.734-2.237 13.136z"/><path fill="#755924" d="M78.848 161.03l20.786-9.311-9.31 19.127 4.402 10.899-3.825 27.86 9.816 22.879 3.825 19.126-7.145 17.972-10.898-.505-20.21-11.475-.505-40.924 1.588-27.861z"/><path fill="#694f00" d="M96.892 168.681l-2.166 13.064-13.641-5.414 14.147-9.888z"/><path fill="#ccae2d" d="M86.499 269.077l-20.21-.576v-10.899l20.21-.578z"/><path fill="#846528" d="M151.457 260.344l-40.924 9.238H97.397l3.32-37.098 23.457-17.466 10.898-32.696 8.734-8.228 5.486-26.2 20.136 18.044 2.743 45.832-5.485 33.85z"/><path fill="#775900" d="M135.072 182.322l2.743-7.651 3.826-8.733 10.898 12.558z"/><path fill="#9d782c" d="M152.539 178.496l-3.247-30.602-10.971 25.694zM81.085 176.331l15.229-3.825 3.32-20.787z"/><path fill="#755924" d="M197.794 225.41l-28.366-59.472-9.238 59.978 14.724 12.053z"/><path fill="#9d782c" d="M161.778 281.636l36.016-56.226-37.604.506-15.302 43.161z"/><path fill="#4f5252" d="M161.778 281.636l5.486-8.734-17.972-15.878-4.404 12.053z"/><path fill="#ccae2d" d="M111.038 257.024h38.254l-4.404 12.053-34.355.505z"/><path fill="#efcfca" d="M156.364 290.875l-14.218-9.815h-9.817l-2.742-3.827 15.301-8.156 16.89 12.559z"/><path fill="#f4d65b" d="M46.657 87.338l1.66 4.403-5.485 28.87-4.331-1.588 2.166-27.859 3.248-4.909z"/><path fill="#846528" d="M78.848 161.03l-22.375 26.705-5.991 15.879 15.302 13.064z"/><path fill="#ccae2d" d="M23.777 90.659h1.083l4.331 2.165 7.65 25.116-4.33 2.671-10.394-24.54.577-4.907z"/><path fill="#bf8e00" d="M22.694 89.503l2.166 1.156 2.165 3.753-1.66 1.154-2.671-4.402z"/><path fill="#b38c2d" d="M37.419 120.106L1.403 102.64l-1.66 5.99 4.33 2.165.578 4.403 3.248-2.165 1.154 3.248 3.248-1.66v3.825l4.908-1.66.578 3.825 4.33-2.165 7.651 7.073z"/><path fill="#755924" d="M35.181 219.421l30.603-2.743-9.311-28.943-14.724 4.908z"/><path fill="#9d782c" d="M45.069 168.681l11.404 19.054-21.292 31.686-12.487-41.502 7.579-10.321z"/><path fill="#4f5252" d="M38.501 157.205l6.568 11.476-22.375 9.238-3.824-11.981 7.073-17.467z"/><path fill="#cda39e" d="M18.87 165.938l-8.734-14.724 18.55-14.219 9.815 20.21z"/><path fill="#836428" d="M12.301 146.306l21.292-29.52 8.156-1.082 4.908 3.825v9.31l-21.292 27.283z"/><path fill="#f4d65d" d="M35.758 120.611l-3.824 6.569 1.082 4.402 4.908-.578 4.403-5.99z"/><path fill="#efcfca" d="M38.501 157.205l3.248-16.384-2.743-2.743-7.578 10.393-6.063 7.651.578 6.568z"/><path fill="#ffede8" d="M3.568 148.977l10.898 9.31 14.22-21.292-10.899-8.733z"/><path fill="#c1b174" d="M176.574 132.665l-17.467-3.826-4.908-10.899 4.619-27.281 14.436 10.321z"/><path fill="#a09060" d="M176.574 132.665l-22.375-14.725-2.742 15.807z"/><path fill="#efcfca" d="M91.695 53.416l-1.083 7.145 2.165 5.99v-5.99z"/><path fill="#836428" d="M70.692 224.328h17.972v5.991l-11.981 4.908-7.651-4.908z"/><path fill="#755923" d="M132.907 223.751l20.138 3.32-1.588 7.074-12.559 2.742-8.228-6.568z"/><path fill="#484648" d="M66.289 268.501l44.749 31.684 31.108-19.125h-9.817l-2.742-3.827 15.301-8.156z"/><path fill="#cda39e" d="M90.901 83.73l-2.237 3.536 5.99 5.991 4.836-6.208z"/><path d="M79.091 69.318c1.927-.193 3.646 1.212 3.839 3.139.193 1.927-1.212 3.646-3.139 3.839-1.927.193-3.646-1.212-3.839-3.139-.193-1.927 1.212-3.646 3.139-3.839zM108.501 66.926c1.927-.193 3.645 1.212 3.839 3.139.194 1.927-1.212 3.646-3.139 3.839-1.927.193-3.645-1.212-3.838-3.139-.194-1.927 1.211-3.646 3.138-3.839z" fill="#2b2b2b"/><path fill="#fff4f2" d="M90.684 69.872l-.072 8.228-1.948 9.166 10.826-.217-2.815-9.238-.938-8.372z"/><path fill="#efcfca" d="M84.261 88.71l-8.084 12.847.577-9.455zM106.708 87.194l10.393 10.754-2.455-8.589z"/><path fill="#cda39e" d="M76.754 102.64l39.698-3.465-11.476 15.446-13.064 1.154z"/><path fill="#6e5655" d="M107.213 107.187l-3.97 4.907-10.466.722-4.836-3.897 9.601-3.32z"/><path fill="#fff" d="M83.034 104.444l27.932-2.093-3.753 4.836-19.272 1.732z"/><path fill="#82754d" d="M86.859 66.407l-.072-4.547-15.013-.577-6.207 4.33.433 2.671 6.929-2.454zM100.356 59.983l15.878-2.886 6.497 2.814-.072 3.104-6.785-1.805-14.869 3.682z"/><path fill="#efcfca" d="M124.174 90.731l-3.97 22.23 5.775-10.466zM70.259 97.587l5.701 16.096-6.134-7.579z"/></svg>