<svg xmlns="http://www.w3.org/2000/svg" viewBox="-79.658 -29.616 400 400"><path fill="#9c793c" d="M68.256 267.51l-2.31 4.477 6.209 1.876 3.248-5.558z"/><path fill="#2b2b2b" fill-opacity=".102" d="M52.663 350.387l113.269 19.997 75.079-18.265-79.338-11.984z"/><path fill="#846528" d="M170.191 350.315l-9.6 8.085v4.548h32.124V358.4zM94.245 346.704l-11.983 3.323v4.186l43.098-.145v-4.403z"/><path fill="#9d782c" d="M113.232 325.047l-9.818 9.025-21.152 15.955 43.098-.362v-10.179z"/><path fill="#846528" d="M111.86 300.863l-8.446 12.778v20.431l21.946 5.414 4.26-19.131z"/><path fill="#bca02a" d="M124.278 291.983l8.013 18.626-2.671 9.746-26.206-6.714-.578-21.585z"/><path fill="#9d782c" d="M169.615 334.721l-2.888 10.252-6.136 13.427h32.124l-3.754-13.139z"/><path fill="#846528" d="M171.13 314.218l-12.345 13.86 7.942 16.895 22.234.288-4.621-24.834z"/><path fill="#ccae2d" d="M161.457 283.103l-11.046 26.712 8.374 18.263 25.555-7.651-2.164-12.417zM117.636 264.695l-5.199 5.198-9.601 22.163 29.455 18.553 19.13-25.556-5.848-17.761z"/><path fill="#e4c824" d="M143.624 268.593l.073 7.219 6.714 34.003 31.765-1.805 4.331-39.851-29.31-12.055z"/><path fill="#bca02a" d="M133.229 268.521l10.468 7.291 15.666-9.745-12.634-18.482z"/><path fill="#846528" d="M166.367 269.532l9.528 3.249 10.612-4.622-1.516-13.86-18.264-11.046-11.118 3.321z"/><path fill="#9d782c" d="M143.264 250.762l17.471 29.237 15.16-7.218-11.768-25.99-18.12-6.28z"/><path fill="#b38c2e" d="M126.298 241.81l-7.58 30.392 12.562 5.847 20.141-31.547z"/><path fill="#bc923f" d="M130.486 242.459l-7.796 3.827-10.253 23.607 6.281 2.309 5.271-9.096 12.849-22.09z"/><path fill="#cecdcd" d="M58.077 233.579l.65-5.27-40.789-103.884-15.16-10.901 5.847 27.145 42.955 96.303z"/><path fill="#dedfdd" d="M51.58 236.972l-4.404-3.465L-.327 132.366l3.105-18.842 51.689 121.355z"/><path d="M52.085 240.581l2.31-4.692-7.219-2.382-18.048.361 4.982 7.652 17.975-.939zm6.642-12.272l11.407-14.077 2.887 9.241s-11.262 12.273-11.406 13.14l-3.537-3.033.649-5.271z" fill="#b58c3d"/><path d="M57.788 243.47l-5.703-2.889-4.909-7.074 11.551-5.198 2.888 8.304c-.217.865-3.827 6.857-3.827 6.857z" fill="#9c793c"/><path fill="#cea39f" d="M70.855 265.272l7.364-8.663-5.92-12.634-10.179 3.032z"/><path fill="#b58c3d" d="M64.141 244.842l11.262 23.463-9.457 3.682-12.2-28.156z"/><path fill="#efd0cb" d="M52.807 247.152l-3.104 2.166 7.147 14.943 11.695-.361-8.952-17.542z"/><path fill="#feeee9" d="M81.25 241.954l-13.571-3.032-6.065-2.309-9.529 3.968-2.382 8.737 5.053 2.166 4.837-5.126 12.706 2.96z"/><path fill="#e4c934" d="M99.371 214.232l-4.043 3.898-27.649 20.792 15.665 35.157 22.163-38.984z"/><path fill="#9c793c" d="M103.269 227.01l-1.516 3.321 3.754 4.764 21.948-18.264-15.018-6.28z"/><path fill="#b58c3d" d="M105.507 207.23l-7.652 17.038 3.898 6.063 17.759-16.749-4.042-18.12z"/><path fill="#c3953c" d="M119.296 186.87l-5.775-12.994-18.193 44.254 2.527 6.138 13.789-20.287z"/><path fill="#feeee9" d="M221.954 188.605l-5.126-8.375 1.587-12.707 14.368-1.588 5.847 18.41z"/><path fill="#efd0cb" d="M215.457 199.794l.504-7.292.867-12.272 21.802 4.115-7.797 18.337z"/><path fill="#cea39f" d="M230.833 202.682l-4.981 10.179-5.848-7.292-4.043-13.067z"/><path fill="#bc923f" d="M177.554 178.207l8.593-7.867 21.945 46.347-8.013 4.259-27.217-35.88z"/><path fill="#b38c2e" d="M182.103 184.056l22.668 37.973-8.302 5.415-9.818-7.22-9.24-19.925z"/><path fill="#9d782c" d="M175.606 196.328l4.765 25.123 14.943 10.251 7.147-2.887-19.419-20.502z"/><path fill="#846528" d="M176.4 206.507l6.642 1.806-.795 27-25.989 3.465-4.404-32.704z"/><path d="M167.448 242.027l-3.32-6.57 18.119-.144.363 11.55s-15.45-5.414-15.162-4.836z" fill="#cdb03d"/><path d="M158.569 203.043l3.826 5.63 1.732 26.783-25.268 4.909s-1.516-36.097-2.094-34.94c-.504 1.227 21.804-2.382 21.804-2.382z" fill="#9d782c"/><path fill="#d6ba3a" d="M160.374 238.993l3.753-3.537 37.252 14.583-16.388 4.26-20.864-7.508z"/><path fill="#b4993f" d="M144.348 240.655l7.073-5.054 12.706-.145v11.335l-12.706-.289z"/><path fill="#b38c2e" d="M126.082 226.505l5.487 11.839 10.107 1.661 3.897-4.404-4.763-26.856-19.926-9.24z"/><path fill="#bc923f" d="M117.78 198.783l-6.136 5.198 10.685 31.475 7.146 6.859 2.816-6.786-7.508-29.093z"/><path fill="#9d782c" d="M152.793 202.61l.721.577 8.881 5.486 20.647-.36 3.105-37.973-7.148-2.744-28.804 13.283z"/><path fill="#b38c2e" d="M133.517 196.762l7.293 11.983 21.585-.072 4.477-33.569-35.014 7.724z"/><path d="M123.772 168.607l-4.62 1.372-5.631 3.898-1.877 30.105 13.139 2.455s7.58-29.455 8.374-29.022c.866.432-9.385-8.808-9.385-8.808z" fill="#d3a141"/><path fill="#bc923f" d="M131.497 174.527l-5.342 1.01-1.372 30.899 16.027 2.309-.218-32.125z"/><path d="M158.498 173.371l8.374 1.732L179 167.595l-9.457-5.414s-14.007.433-13.789.722c.215.362 2.744 10.468 2.744 10.468z" fill="#cdb03d"/><path fill="#dcbe43" d="M148.172 176.548l7.581 4.765 11.119-6.209-8.231-13.789-10.901 7.797zM130.703 173.156l-4.548 2.381-7.003-5.559 12.271-5.847 5.126-1.083z"/><path fill="#e3c634" d="M138.788 173.227l.289 4.837-6.426 2.455-6.496-4.982 7.868-11.479 6.138 3.754z"/><path fill="#cfb13c" d="M140.881 186.005l-.216 22.525 15.088-27.217-13.427-1.083z"/><path fill="#e3c634" d="M143.552 164.708l-1.226 1.156 1.731 1.01-3.176 17.543v1.588l1.588 1.083 13.284-5.775-2.311-9.891z"/><path fill="#e4c934" d="M132.651 180.519l8.014 28.011 1.804-21.442-2.165-7.58z"/><path fill="#f5d95a" d="M142.326 165.864l-4.331 3.97-5.344 10.685 9.818 6.569 1.083-13.789z"/><path fill="#46403a" d="M185.713 92.228l10.396 44.037-22.525 18.769-21.512-12.417-14.439-43.243z"/><path fill="#efd0cb" d="M169.685 111.575l.939 13.716 4.982 28.156-3.537 10.178-17.254 9.891-20.285-9.169-4.261-28.588 25.195-66.85 26.062 40.716z"/><path fill="#46403a" d="M181.021 112.008l-5.415 41.439-12.851-15.233 10.18-31.693z"/><path d="M142.326 140.163l-4.622 16.965 24.835.072-7.724 16.315h-10.901l-13.86-8.735-6.714-11.985c-.001.001 19.058-12.56 18.986-12.632z" fill="#cea39f"/><path fill="#51463e" d="M195.604 78.511l4.908 5.414-4.403 52.34-15.45-24.835-10.828-21.801z"/><path fill="#5b4d45" d="M185.135 63.567l15.377 20.358-37.757 54.289-3.537-16.171 10.902-59.632z"/><path d="M172.141 60.246l1.443 8.734-11.768 13.645-17.325-5.125s-35.59-28.661-36.24-29.021c-.649-.289 36.818-14.078 36.602-15.016-.29-1.011 27.288 26.783 27.288 26.783z" fill="#5b4d45"/><path d="M129.114 66.166l-.938-6.57-15.594-12.489s-16.027 12.2-15.593 13.139c.433.938 32.125 5.92 32.125 5.92z" fill="#46403a"/><path fill="#51463e" d="M102.331 48.767l-.289 10.324 43.531-20.647-15.014-4.114-16.533-2.455z"/><path fill="#51463e" d="M141.749 34.906l-.579-1.949-.578-2.02-10.9-2.239-22.38 2.382-3.609 5.848 11.478-.434z"/><path fill="#5b4d45" d="M87.459 57.648L82.694 50.5l24.618-19.42 7.869 5.414-13.139 22.597z"/><path fill="#46403a" d="M81.395 67.177l-3.104 13.571L92.657 116.7l-2.599-56.31z"/><path fill="#feeee9" d="M88.903 65.155l1.516 69.377 16.532 22.379 30.753.217 17.327-19.709 4.115-39.056-13.934-21.368-17.036-17.399-26.134-.505z"/><path d="M100.02 88.762l12.417 6.643 3.177 6.93 1.516 2.96 3.249-2.96 5.197-6.354 4.765-3.104 17.688-3.248 7.652.866-32.92 29.455s-4.548-5.776-5.125-4.909c-.649.938-4.548-.145-4.548-.145L90.707 89.34l6.786-1.083 2.527.505z" fill="#efd0cb"/><path fill="#b38c2e" d="M116.697 132.944l-7.436 5.342 4.765 3.248h10.829l3.394-3.753-8.881-5.198z"/><path fill="#cfa49f" d="M116.264 115.473l-4.548 4.26 5.991 4.042 5.054-3.826z"/><path fill="#51463e" d="M82.694 50.5l19.348 8.591-23.751 21.657z"/><path fill="#67594f" d="M154.092 29.348l28.3 15.232 18.12 39.345-26.928-14.944-29.381-29.742-29.022-2.745 25.411-5.557z"/><path fill="#51463e" d="M125.577 95.981l1.515-4.693 19.782-3.392 8.807 2.598-8.375.362zM112.437 95.405l-1.01-3.9-13.211-4.62-7.509 2.455 6.57.071z"/><path fill="#fff5f3" d="M115.614 102.334l-3.898 17.399 11.045.216-2.382-17.615z"/><path fill="#9d782c" d="M106.013 136.193l3.031-.217 8.592-5.126 10.323 4.403 4.188-.216-3.898 2.744-6.137-1.444-3.826 1.371-4.549-1.299-4.476 1.877z"/><path fill="#d6ba3a" d="M122.69 246.286l-.361-10.83 29.092.145v10.901zM155.031 238.85l5.775-.289.217 5.197-6.136-.288z"/><path fill="#e4c934" d="M215.961 192.502l-20.647 39.2 10.54 7.437 30.61-20.431z"/><path d="M109.333 102.696c0 2.31-1.877 4.187-4.187 4.187-2.238 0-4.115-1.877-4.115-4.187 0-2.311 1.877-4.116 4.115-4.116 2.31 0 4.187 1.805 4.187 4.116zM141.386 103.272c0 2.311-1.876 4.187-4.187 4.187-2.309 0-4.188-1.876-4.188-4.187 0-2.31 1.879-4.187 4.188-4.187 2.311 0 4.187 1.877 4.187 4.187z" fill="#2b2b2b"/><path fill="#51463e" d="M173.584 68.981l-18.553 68.438-9.819-60.424z"/></svg>