<svg xmlns="http://www.w3.org/2000/svg" viewBox="-152 -152 400 400"><path fill="#2b2b2b" fill-opacity=".102" d="M48.857 246.859l-103.282-15.18 123.592-16.678 81.258 12.614z"/><path fill="#cea39f" d="M16.78 185.063l35.068 19.885 13.686-3.848-8.34-14.324-13.898-17.108-5.771-3.207z"/><path fill="#b58b00" d="M15.927 143.793l-9.408-19.028 7.696-18.391 45.117-20.956 10.265 20.53v7.485l.216 16.889-7.274 18.39-24.803 11.763z"/><path fill="#856400" d="M50.781 100.172l-.431 13.687-5.986 32.929 4.704 4.704 7.273-3.421 8.552-18.391-1.497-16.036v-7.696l-2.991-9.197z"/><path d="M48 101.885l.215 12.189-5.986 32.714-2.139 2.565-1.713-2.991 5.987-32.719-.211-11.548h4.063l-.216-.21zm19.885 8.553l1.928 2.995 2.135 17.319-8.979 18.175-3.852 1.709-.642-2.139 9.197-18.387-1.924-16.678 2.351-2.995h-.214z" fill="#856400"/><path fill="#9e7700" d="M14.645 114.926l-3.422-4.704 2.992-3.848 25.444-10.69 25.45 1.282 4.488 8.982v7.485z"/><path fill="#856400" d="M63.396 113.644l-6.413 4.493-6.633-4.278.431-13.687 9.624-3.421 2.991 9.197zM64.893 96.966h.216l4.488 8.982v7.484l-.856 3.848-3.206-3.637v-7.911l-.642-8.766zm-16.678 17.108l-.856.852-3.207-.852-.215-12.189H48l.215 12.189z"/><path fill="#ffeee9" d="M16.354 167.529l-8.552-19.243 8.125-4.493 46.612 4.919-19.243 20.956-8.767 8.767z"/><path fill="#efd0cb" d="M17.21 216.283l-.641-37.632-3.637-6.633 3.637-4.704 26.727 2.354 3.422 22.238-11.122 25.661-3.421 6.412z"/><path fill="#9e7700" d="M-1.822 140.375L1.6 111.72l-.215-6.202 12.83.856 1.712 37.419-8.341 7.914z"/><path fill="#856400" d="M1.6 111.72l-.215-6.202 12.83.856.43 8.552z"/><path fill="#cea39f" d="M16.78 185.063l-15.606-7.91 5.556-15.826 9.624 5.561z"/><path fill="#ffeee9" d="M-19.571 7.371l16.04-6.197-3.21 19.458 3.636 16.893L-7.809 68.1l-15.18.215-9.408-17.965-.43-22.664z"/><path fill="#efd0cb" d="M-12.939 16.78l6.198 3.852 3.636 16.893-1.067 7.053-3.637 27.799-17.319 32.715 7.485-36.777-5.987-31.862z"/><path fill="#ffeee9" d="M-32.397 50.35l14.754 17.965-7.485 36.777-8.982 11.763-10.906-9.409 5.345-44.05zM-19.356 49.498l6.417-32.718 9.408-15.606L.102-.324 13.573-5.67l53.459-1.713L90.123.532l12.189 20.741-2.78 27.369-22.666 33.996-7.269 23.31-55.382.426-12.83-.856-7.055-29.077z"/><path fill="#efd0cb" d="M102.312 21.273L99.961 45.22l-8.766 16.252-14.969 23.735-3.849-61.584z"/><path fill="#ffeee9" d="M-3.531 237.236l-1.498-5.557 22.239-15.396 18.386 1.284-.21 19.458z"/><path fill="#efd0cb" d="M-1.822 140.375l2.996 36.778 15.18-10.265-.427-23.095zM21.699-19.782l29.082-92.586 24.803 40.625 1.924 36.35-10.476 28.01-52.817 31.862L29.183-3.105z"/><path fill="#ffeee9" d="M-25.984-127.552l-7.27 74.41 11.974 28.866 42.979 4.494 18.817-25.445 10.265-67.141-8.768-13.687-41.27-8.767z"/><path fill="#d4aca3" d="M45.005-74.094l1.713-11.762 26.512 9.408-2.35 4.919z"/><path fill="#cea39f" d="M1.174-21.922l13.041 46.401 31.431-49.607-23.947 5.346z"/><path fill="#ffeee9" d="M53.561 229.114l13.256-9.839.856 10.265zM90.123.532L72.377 23.623l18.818 37.849 14.112 7.91 20.525 2.566 4.704-20.953-.856-16.04-19.458-25.23z"/><path fill="#cea39f" d="M.317-60.196l-6.628-6.202L7.586-64.9z"/><path fill="#a09160" d="M50.781-112.368l11.973 45.97 6.202 1.498 22.664-8.126-14.968-21.813z"/><path fill="#908356" d="M58.907-81.578l2.349 9.193 9.624.856 2.35-4.919z"/><path fill="#2b2b2b" d="M48.215-95.05L91.62-73.026l-19.243-3.637-25.659-9.193-3.207-4.92z"/><path fill="#ffeee9" d="M72.377-76.663L68.956-64.9l-3.847 12.829 17.103 4.49 9.408-25.445z"/><path fill="#efd0cb" d="M51.422 204.306l5.772-17.53 21.381 6.198-10.902 36.566z"/><path fill="#cea39f" d="M71.095-56.99l4.489-14.753 10.05 3.421zM77.508-35.393L65.109-52.071l17.103 4.49z"/><path fill="#a09160" d="M-36.89-124.772l10.906-2.78 13.471-3.633 36.566 1.282-28.014-11.332-14.112-.857z"/><path fill="#c1b274" d="M19.349-151.073l-37.422 8.981 8.767 3.422 10.049 3.848 4.494 6.628 18.816-1.709 17.96 3.848 18.392.641 21.166-9.408z"/><path fill="#e2d086" d="M50.781-112.368l-8.768-13.687 17.534-3.848 22.024-4.919 15.395 18.176z"/><path fill="#c1b274" d="M91.62-73.026L71.522-92.484l-20.741-19.884 25.018-2.354 21.167-1.924z"/><path fill="#f4dad4" d="M-30.904-75.806l20.315 5.775 4.278 3.633 2.35-6.202v-6.413z"/><path fill="#efd0cb" d="M7.586-64.9l36.136-.857 1.283-8.337-35.706-4.062L5.021-72.6z"/><path fill="#fff5f3" d="M-6.311-66.398l2.35-12.615-2.35-7.484 4.704-4.705 7.485-1.924 4.915 3.848 3.422 6.628-4.916 4.92L7.586-64.9z"/><path fill="#2b2b2b" d="M-1.607-91.202l12.4 1.924 3.422-2.78-2.566-3.206-12.188-1.709-3.422 2.565z"/><path fill="#535150" d="M-34.11-104.458L.317-100.61l-4.278 21.597-6.843 4.919-21.808-1.712-4.278-6.203zM12.291-100.184L9.299-77.73l2.992 5.987 25.234 4.063 7.48-6.414 1.713-11.762.856-4.704.641-4.49z"/><path fill="#efd0cb" d="M15.071 36.453L11.865 63.18l-19.674 9.197 21.812-1.282 34.212 3.633-30.153-11.117z"/><path fill="#ffeee9" d="M117.066 135.882l-2.351-9.835 2.566-10.049 11.758-9.624 11.547 7.059 4.493 22.238-14.757 7.911z"/><path fill="#ffeee9" d="M105.307 69.382l25.229-18.387 11.763 19.885-1.713 42.553-23.305 2.565-13.687-36.777z"/><path fill="#474747" d="M141.017 103.594l-.431 7.059-24.377 2.991-1.924-5.346z"/><path fill="#efd0cb" d="M115.357 151.278l1.709-15.396 28.013-.211-12.83 15.607z"/><path fill="#cea39f" d="M109.155 127.972l2.78 12.188h4.92l.211-4.278.215-19.884z"/><path fill="#999" d="M126.689 101.67l-4.919 3.207-1.283 4.919 2.996 4.063 5.345.856 5.557-2.353.641-5.772-3.633-4.494z"/><path fill="#e6e6e6" d="M127.115 103.809l-3.632 2.35-.857 3.21 1.924 2.782 4.063.64 3.847-1.927.431-3.633-2.569-3.206z"/><path fill="#efd0cb" d="M91.195 61.472l17.96-1.925-3.848 9.835z"/><path fill="#cea39f" d="M13.358 98.037l-2.135 3.418 2.992 2.781 2.565-3.422zM42.229 64.893l5.986-2.565 3.422 3.206-4.278 2.781zM-10.163 65.32l3.211-2.14 5.772 1.713-5.131 3.422z"/><path fill="#e2d086" d="M-18.926-115.579l42.979-14.324-23.31-4.919-13.256 3.637z"/><path fill="#b58b00" d="M14.429 111.078l-3.636 6.203-1.494 8.982-2.354-.431 1.498-8.977.211-.216v-.215l5.775-7.91.857 1.924z"/><path fill="#856400" d="M18.062 126.263l-.852-10.481-2.781-4.704v-2.564l4.92 5.986.211.426v.216l.856 10.905z"/><path fill="#efd0cb" d="M8.869 237.236l-15.18-12.185.426 12.399zM7.802-104.247l-3.637 7.915 2.354.211zM-5.459-115.579l13.045 2.78 41.482-2.78-40.625.43z"/><path fill="#cea39f" d="M-10.804-50.362l12.83 1.924 17.749-1.493v2.35L2.026-46.084l-12.83-1.497z"/><path fill="#efd0cb" d="M12.506-63.833l9.834 6.628 4.92 11.337-2.781-13.902z"/><path fill="#cea39f" d="M-48.438 128.187l12.619-21.813 10.691-1.282 2.139 18.391-11.762 8.977z"/><path fill="#efd0cb" d="M-42.021 148.927l-6.417-20.74 25.449-4.704-1.928 16.036z"/><path fill="#ffeee9" d="M-35.819 106.374l.642 11.332-5.346 3.422-3.211 9.408-4.704-2.349 3.422-20.741z"/><path fill="none" d="M-151.5-151.5h399v399h-399z"/></svg>