<svg xmlns="http://www.w3.org/2000/svg" viewBox="0 0 400 400"><path opacity=".1" fill="#4f4b4a" d="M123.796 385.618l71.924 14.549 77.403-14.549-74.664-10.111z"/><path fill="#d8b89d" d="M250.893 146.993l-7.239 50.321 18.235 17.339 31.442 5.65zM170.814 217.822l3.691-62.171-7.75 2.159-17.707 50.545 5.943 7.076z"/><path fill="#edd8c7" d="M174.756 238.135l-3.942-20.313-43.251-18.814-10.665 12.148 38.487 27.533z"/><path fill="#edd8c7" d="M124.094 177.698l-8.596 4.621-4.332 7.764 5.732 21.073 10.665-12.148z"/><path fill="#d8b89d" d="M127.563 199.008l1.979-16.508-4.696-.181-4.847 12.108 1.978 10.943z"/><path fill="#edd8c7" d="M174.522 155.651l-19.137 41.482 14.804 50.348 59.189-.011 14.276-50.156-23.289-50.003-29.882 3.343z"/><path fill="#d2b000" d="M183.092 152.968l-10.168 23.078-4.322-7.565 5.92-12.83z"/><path fill="#f8da53" d="M168.602 168.481l24.613 28.728-37.83-.076z"/><path fill="#e9ca00" d="M229.146 166.165l-35.931 31.044 50.439.105z"/><path fill="#d8b89d" d="M194.93 175.145l-1.715 22.064-7.785-9.086z"/><path fill="#d2b000" d="M229.378 247.47l14.276-50.156-88.269-.181 14.804 50.348z"/><path fill="#725419" d="M185.43 188.123l7.785 9.086-1.571 35.682-8.057 5.798-5.052-7.592 5.597-13.19 5.738-2.997-4.457-4.53-6.069-13.168z"/><path fill="#7d5b1a" d="M170.186 247.481l-7.002 33.334 6.566 24.976-5.393 21.15.896 35.209 18.021-3.248 7.732-27.528L185.875 307l16.036-14.449L215.5 309.5l-2.435 21.849 8.856 30.802h17.13l1.969-34.952-7.02-21.105 9.666-25.856-5.699-13.063-13.799-19.718z"/><path fill="#956d1b" d="M164.357 326.94l26.649 4.434 10.905-38.823-38.727-11.736zM240.822 327.199l2.844-46.961-41.755 12.313 11.152 38.793z"/><path fill="#edd8c7" d="M255.443 258.72l37.888-38.417-31.442-5.65-18.235 32.804zM224.168 247.457l-6.195 15.858 11.525 12.128 8.469-8.268z"/><path fill="#d8b89d" d="M243.654 247.457h-19.486l13.799 19.718 17.476-8.455z"/><path fill="#7e5c1b" d="M239.051 362.151l5.402 11.13-1.84 18.654h-3.562l-3.116-14.893zM183.274 358.902l4.481 8.905-6.403 17.811h-3.847l-4.327-13.015z"/><path fill="#c49312" d="M165.253 358.902l-25.982 26.716h28.085l15.918-26.716zM221.921 362.151l-8.893 29.784h26.023v-29.784z"/><path fill="#edd8c7" d="M142.477 42.603l-8.92 20.036 8.92 46.066 21.461 25.962h26.77l18.712-19.113 6.166-59.251-32.494-22.262-22.832-10.618z"/><path fill="#d8b89d" d="M197.091 162.133l23.274-8.423 12.002-29.936 3.711-40.521-20.492-26.95-6.166 59.251-21.99 22.262z"/><path fill="#ae9175" d="M181.375 134.667h34.75l-19.034 27.466z"/><path fill="#4c4b4a" d="M139.483 93.245l-16.326-28.092 8.882-19.131 4.718-26.962 85.308-15.397L223.718 26l34.845 9.741-4.954 19.249 13.311 10.612-8.357 11.895 15.148 12.37-17.37 33.907 9.029 23.537-16.655 14.822 7.626 16.097-12.687 19.084-11.308-11.137-21.226-4.436-2.77-23.683 15.368-15.447 5.395-11.131-8.748-11.302 9.709-17.745-5.52-14.766-8.968-31.364-55.326-32.88-17.783 19.18-8.92 20.036z"/><path fill="#4c4b4a" d="M160.26 23.423l-19.339 8.946 5.147 21.536 14.192 6.85 8.342-2.055-10.899-16.612zM175.847 18.286l-15.587 5.137 15.587 26.372 20.644 8.562 5.738-3.767-14.365-14.762z"/><path fill="#33302d" d="M140.921 32.369L130.19 60.902l7.369 22.407-.802-20.502 6.567-20.383z"/><path fill="#423f3b" d="M136.757 19.06l4.164 13.309-10.731 28.533-7.033 4.251z"/><path fill="#4c4b4a" d="M171.732.167L160.26 23.423l15.587-5.137 46.218-14.623z"/><path fill="#423f3b" d="M157.703 42.088l-11.635 11.817 14.192 6.85 8.342-2.055zM215.586 56.303l42.977-20.562-36.498-32.078-46.218 14.623 12.017 21.542z"/><path fill="#423f3b" d="M202.229 54.59l-14.365-14.762-12.017 9.967 20.644 8.562z"/><path fill="#33302d" d="M136.757 19.06L171.732.167 160.26 23.423l-19.339 8.946z"/><path fill="#423f3b" d="M238.42 93.245l35.291-3.378-6.791-24.265-17.787-14.18 9.43-15.681-42.977 20.562 8.968 31.364z"/><path fill="#6f6e70" d="M266.92 65.602l-8.357-29.861-42.977 20.562z"/><path fill="#33302d" d="M230.074 102.433l43.637-12.566-17.37 33.907-35.976-3.596zM223.718 142.611l41.652 4.7-16.655 14.822-40.365-4.075z"/><path fill="#423f3b" d="M220.365 120.178l35.976 3.596 9.029 23.537-41.652-4.7z"/><path fill="#33302d" d="M211.12 181.741l45.221-3.511-12.687 19.084z"/><path fill="#423f3b" d="M208.35 158.058l40.365 4.075 7.626 16.097-45.221 3.511z"/><path fill="#33302d" d="M160.26 23.423l15.587-5.137 12.017 21.542-12.017 9.967z"/><path fill="#ae9175" d="M163.336 95.819l6.497 6.048 4.911-6.048z"/><path fill="#423f3b" d="M174.571 71.886l15.762-2.927 10.101 1.197-9.851-3.531-16.012 1.709zM163.916 71.886l.417-3.552-16.667-2.125-6.745 3.833 6.454-1.333z"/><path fill="#d8b89d" d="M200.434 70.156l-16.889 7.934-8.801 17.729-3.012-15.984 2.839-7.949 15.762-2.927zM140.921 70.042l14.017 7.455 8.398 18.322 3.735-15.923-3.155-8.01-16.541-3.177z"/><path d="M187.68 77.497c0 2.146-1.74 3.885-3.885 3.885-2.146 0-3.886-1.74-3.886-3.885 0-2.146 1.739-3.885 3.886-3.885 2.145 0 3.885 1.739 3.885 3.885zM158.824 77.497c0 2.146-1.739 3.885-3.884 3.885-2.146 0-3.886-1.74-3.886-3.885 0-2.146 1.739-3.885 3.886-3.885 2.145 0 3.884 1.739 3.884 3.885z" fill="#33302d"/><path fill="#c49312" d="M156.957 109.626l7.547 5.716h13.547l8.994-6.255z"/><path fill="#7e5c1b" d="M156.957 109.626l10.562-2.964 2.17-.192 2.038-.096 15.318 2.713-4.781 1.468h-21.32z"/><path fill="#4f4b4a" d="M273.711 89.867l-49.157-2.2 5.52 14.766z"/><path fill="#ae9175" d="M230.074 102.433l-6.356-1.756 3.956 6.143z"/><path fill="#33302d" d="M169.023 137.816l-3.983 9.177 9.482 8.658 15.961-4.997-9.108-15.987z"/><path fill="#423f3b" d="M165.04 146.993l16.335-12.326H170z"/><path fill="#f0e5de" d="M163.916 71.886h10.655l-2.839 7.949 3.012 15.984h-11.408l3.735-15.923z"/><path fill="#33302d" d="M187.864 39.828l70.699-4.087-42.977 20.562z"/><path fill="#d8b89d" d="M124.094 177.698l-11.66-13.191-6.556 13.304 5.288 12.272 1.268-1.321z"/><path fill="#423f3b" d="M220.042 71.886l-2.792 15.781h7.304z"/><path fill="#8c681c" d="M116.898 211.156l5.395 3.86 11.672-13.223-6.402-2.785z"/></svg>