<svg xmlns="http://www.w3.org/2000/svg" viewBox="0 0 400 400"><path fill="#ffeee9" d="M259.554 275.215l11.326-9.902-1.576 12.652-6.9 8.375zM273.429 237.84l32.5-10.375-17.716 40.879-8.659 3.074-8.674-6.105z"/><path fill="#efd0cb" d="M288.213 268.344l-2.659 20.621-13.25 3.375-9.9-6 8.476-21.027zM272.738 178.504l33.191 48.961-32.5 10.375-15.708-12.658z"/><path fill="#cea39f" d="M285.554 288.965l-5.875 14.375-18.375.375 1.1-17.375z"/><path opacity=".1" fill="#2b2b2b" d="M126.988 390.838l21.416-4.589 63.084-8.25 76.084 8.25-28.334 5.91-48.23 7.679z"/><path d="M202.738 168.504l43-6.666 27 16.666-15.017 46.678s-37.608-11.969-37.983-11.969-17.125.75-17 .625c.077-.077-26.406-15.873-26.406-15.873l-6.76-5.464 6.833-27.33 21.647-6.419 4.686 9.752zM179.738 11.505l-18.25 17.333-9.083 78.5 11.333 26.166 37.858 6.168 21.974-8.728 25.734-89.423-20.899-24.016-15 11.333-29.001-5.333z" fill="#ffeee9"/><path fill="#efd0cb" d="M202.738 168.504l43-6.666 25-71.25-21.434-49.067-26.233 91.317-20.981 6.677z"/><path fill="#cea39f" d="M187.806 137.426l14.932 31.078 24.333-24.666z"/><path fill="#9e7700" d="M254.679 271.442l.062 55.146-16.42 11.044-19.496-5.37-14.837-35.174 11.417-13.017 18.149-7.106z"/><path fill="#856400" d="M209.093 309.188l-17.105 58.4-26.5-48.232-3.524-48.296 12.107 7.11 19.003-1.832 10.914 20.75z"/><path fill="#755800" d="M176.613 265.313h40.901l37.165 6.129-50.691 25.646-42.024-26.028z"/><path fill="#ffeee9" d="M255.793 374.965l2.094 17.194h-31.149l6.732-19.944z"/><path fill="#efd0cb" d="M226.738 392.159l15-11.821 16.149 11.821z"/><path fill="#ffeee9" d="M190.47 374.965l-.166 11.284h-41.9l20.5-20.411z"/><path fill="#efd0cb" d="M148.404 386.249l-6-13.079 24.258 13.079zM176.405 165.171l-28.883 32.945 16.549 16.388z"/><path fill="#ffeee9" d="M129.917 180.391l34.154 34.113 1.733 13.961-2.846 9.25h-25.2l-22.687-47.877z"/><path fill="#fff5f3" d="M186.708 62.664l-1.554 18.257-5.416 8.167 12.886 1.25-2.386-8.834 2.909-18.133z"/><path fill="#cea39f" d="M179.738 89.088l5.416 6.75 7.47-5.5z"/><path fill="#46382d" d="M193.147 63.371l20.334 2.5 4.375 3.625 1.75-1.5-3.125-4.625-18.125-3.125zM186.708 62.664l-16-4-4.75.75v-2l5.625-2.375 14.375 3.812z"/><path fill="#efd0cb" d="M217.856 69.496l-13.743 5.53-11.489 15.312-2.386-8.834 2.909-18.133 20.334 2.5z"/><circle cx="204.113" cy="75.026" r="3.938" fill="#2b2b2b"/><path fill="#efd0cb" d="M165.958 59.414l9.843 11.674 6.505 14.127 2.848-4.294 1.554-18.257-16-4z"/><circle cx="175.801" cy="71.088" r="3.938" fill="#2b2b2b"/><path fill="#5e5044" d="M264.362 39.112L237.988 8.838 186.657.162l-6.919 11.343 4.666 12 29.001 5.333 15-11.333 20.899 24.016 4.004 13.192-7.9 9.125 4.58 15.25-4 15.75 9.25 3.5 4.25-13.5 11.25 5.75 6.167-19.5z"/><path fill="#b58b00" d="M161.964 258.444l92.777-.063-.062 13.061-92.715-.382z"/><path fill="#e5c828" d="M204.488 267.819l-17.159 3.345v-12.72h21.447z"/><path fill="#ccad14" d="M187.329 271.164l21.447-12.72v12.808z"/><path fill="#eed0ca" d="M192.624 90.338l13.552 16.253 1.263 12.982 20.734-6.069 13.315-2.424 4.5-16.242 9.25 3.5-11.166 28.25-42.509 13.084-37.825-6.168-11.333-26.166 9.767 2.316 4.566-10.441 13-10.125 5.416 6.75z"/><path fill="#d6bab6" d="M227.071 143.838l22.594-39.553 1.803-6.537-9.23-3.503-4.5 16.242-9.565 3.017-4.603 17.44-21.974 8.728z"/><path fill="#cda29e" d="M187.806 137.426l-1.625-12.963-6.443 11.649z"/><path fill="#cea39f" d="M174.3993668 108.8132927l.4219406-2.9712901 22.0010121 3.1242726-.4219406 2.9712901z"/><path fill="#46382d" d="M228.405 17.505l9.583-8.667 26.374 30.274-15.058 2.409zM276.905 71.088l-33.926-7.55 3.259 14.957-4 15.75 9.23 3.503 4.27-13.503 15 6.343z"/><path fill="#5e5044" d="M249.304 41.521l15.058-2.409 12.543 31.976-33.926-7.55 10.329-8.825z"/><path fill="#46382d" d="M179.738 11.505l48.667 6-15 11.333-29.001-5.333z"/><path fill="#755800" d="M202.335 332.262l-36.847-12.906 3.416 46.482 21.566 9.127z"/><path fill="#856400" d="M233.47 372.215l21.41 2.638-.139-48.265-35.916 5.674z"/><path fill="#755800" d="M117.785 195.401l16.659-10.488-4.527-4.522-14.846 9.447zM130.018 173.004l7.74-16.093-33.33-32.77-5.357 4.53z"/><path fill="#efd0cb" d="M130.018 180.217v-7.213l-11.28-15.666-7.557 5.716-5.319 18.802 9.209 7.982z"/><path fill="#ffeee9" d="M111.092 163.054l-7.854-11.216 7.63-6.125 8.168 11.512z"/><path fill="#cea39f" d="M116.209 170.333l-10.347 11.523-11.791-11.523 13.062-12.995z"/><path fill="#755800" d="M105.862 181.856l5.319 4.609 18.837-13.461-13.809-2.671z"/><path fill="#efd0cb" d="M119.036 157.225l-7.944 5.829 14.096 20.273 4.83-3.11v-7.213z"/><path fill="#b58b00" d="M137.758 156.911l-26-38.969-7.33 6.199 29.501 40.731z"/><path fill="#755800" d="M120.6 131.194l-3.029 6.232 8.667 12.745 6.401-.933z"/><path fill="#ffeee9" d="M249.665 104.285l14.622 4.686 6.451-18.383-15-6.343-4.27 13.503z"/><path fill="#cea39f" d="M256.113 98.682l10.375-6.75-7-2.125zM249.665 104.285l10.156 17.415 4.466-12.729z"/><path fill="#b58b00" d="M122.375 185.137l-2.566 1.651 3.229 5.306 2.479-1.56-.607-1.227-1.672.531-1.309-2.317 1.309-1.056z"/><path fill="#dddddc" d="M245.738 161.838l-4.08 30.256-32.565 7.907-19.039-11.385 7.999-29.864-15.544 4.395-12.937 29.354-5.501 22.003-2.107 43.94 92.777-.063 7.812-86.164z"/><path fill="#c4c4c4" d="M254.741 258.381l2.98-33.199-93.65-10.678-2.107 43.94z"/><path fill="#755800" d="M170.213 271.094l2.716 2.434 1.875-2.415v-12.669h-4.591zM244.977 271.402l2.295.813 2.295-.795v-12.976h-4.59z"/><path fill="#efd0cb" d="M212.221 89.088l1.25 1.877 15.583-7.5-3.583-3.417zM213.366 93.747l2.688 1.029 7.167-2.313v-4.165zM213.721 182.048l12.666-5.333 4.334 7.25-5.334 1.417-7.333 6.166-4.333-2.166z"/><path fill="#a5a5a5" d="M162.958 237.715l11.658-4.375 3 5.75h10.375v9.313l-8.25 5.75-9.812-5.438-7.646 3.068z"/><path fill="#c4c4c4" d="M258.731 214.369l1.757-19.372-13.851 5.801 2.667 2.833v6z"/><path fill="#846501" d="M247.221 310.298l-8.75-7.167-7.667 6.5 3.25 10.084 6.583 4.25.834-8.167z"/><path fill="#755800" d="M225.282 271.321l2.855 2.644 1.735-2.626v-12.941l-4.59.003z"/><path fill="#cda29e" d="M174.613 108.901l-17.933 8.306-2.234-5.258 8.608-3.048z"/><path fill="#ececeb" d="M150.241 107.465l.602 4.875 23.77-3.439.211-3.048z"/><path fill="#737373" d="M149.241 112.684l5.205-.735-2.041-4.611h-3.32z"/><path fill="#b58b00" d="M174.824 105.853l-5.415.356v3.445l5.204-.753z"/></svg>