<svg xmlns="http://www.w3.org/2000/svg" viewBox="0 0 400 400"><path opacity=".1" fill-rule="evenodd" clip-rule="evenodd" fill="#322f2c" d="M107.469 385.914L229.324 400l91.788-13.782-90.838-11.024z"/><path d="M153.366 376.307c-2.103.573-17.426 6.202-17.426 6.202l.325 6.123 56.512-1.72-.381-6.306-21.068-6.786-17.962 2.487z" fill-rule="evenodd" clip-rule="evenodd" fill="#8c681d"/><path fill-rule="evenodd" clip-rule="evenodd" fill="#b98f16" d="M169.99 350.319l-8.046 11.945-25.87 14.903-.134 5.342 56.455-1.902-1.768-17.677z"/><path fill-rule="evenodd" clip-rule="evenodd" fill="#7e5c1b" d="M176.296 302.168l-15.624 16.227 1.272 43.869 28.683.666 3.823-28.598z"/><path fill-rule="evenodd" clip-rule="evenodd" fill="#8c681d" d="M185.188 269.554l-24.516 48.841 33.778 15.937 34.365-30.876-14.117-29.57z"/><path d="M239.875 92.597l12.18 19.103-9.321 36.918-21.764 12.955S198.01 46.75 198.158 44.197c.151-2.552 22.986-17.681 22.986-17.681l21.324 31.198-2.593 34.883z" fill-rule="evenodd" clip-rule="evenodd" fill="#f2d6d2"/><path fill-rule="evenodd" clip-rule="evenodd" fill="#d2b000" d="M193.251 190.736l-12.403-13.175-20.176 25.406 25.414 15.788 10.703-11.879z"/><path fill-rule="evenodd" clip-rule="evenodd" fill="#8c681d" d="M265.638 377.504l-20.828 8.181-.166 6.568h41.584l-.442-6.568z"/><path fill-rule="evenodd" clip-rule="evenodd" fill="#b98f16" d="M260.478 351.707l-8.596 16.087-7.072 17.891h40.976l-7.348-23.204z"/><path fill-rule="evenodd" clip-rule="evenodd" fill="#8c681d" d="M226.276 313.909l3.203 24.316 22.403 29.569 26.556-5.313-13.14-35.473z"/><path fill-rule="evenodd" clip-rule="evenodd" fill="#a47a1b" d="M230.752 275.604l-16.434 26.564 15.161 36.057 35.819-11.217-3.017-54.651z"/><path fill-rule="evenodd" clip-rule="evenodd" fill="#7e5c1b" d="M193.49 259.172l-5.828 5.35-2.474 5.032 29.13 32.614 47.963-29.811-2.675-11.658-27.134-24.647z"/><path fill-rule="evenodd" clip-rule="evenodd" fill="#d2b000" d="M212.777 263.185l-25.115 1.337-1.576-13.855 27.976-12.095 15.417 10.611z"/><path fill-rule="evenodd" clip-rule="evenodd" fill="#b98f16" d="M260.369 234.901l1.147 13.09-1.91 12.708-46.829 2.486-1.436-13.381 2.721-11.232 2.07-.898 28.474-10.51 15.381.861z"/><path fill-rule="evenodd" clip-rule="evenodd" fill="#504b4a" d="M249.43 224.964l7.166 7.546.381 15.72 4.539-.239 5.208-42.922-17.627.595z"/><path d="M239.733 233.039l16.862-.528-.286-12.024s-9.857-15.978-11.369-14.916l-19.874 13.949 14.667 13.519z" fill-rule="evenodd" clip-rule="evenodd" fill="#605b5a"/><path fill-rule="evenodd" clip-rule="evenodd" fill="#b98f16" d="M256.024 200.41l-16.245 10.892.957 9.554 16.05-.382 9.938-15.405z"/><path fill-rule="evenodd" clip-rule="evenodd" fill="#504b4a" d="M211.341 249.804l36.275-1.239-.573-45.672-38.568 13.231-6.245 13.759z"/><path fill-rule="evenodd" clip-rule="evenodd" fill="#555554" d="M194.112 221.046l-11.87 5.481 3.844 24.14 25.255-.863-.989-18.556-1.877-15.124z"/><path fill-rule="evenodd" clip-rule="evenodd" fill="#d2b000" d="M180.163 209.964l2.079 16.563-17.748 18.788-14.887-10.885-1.459-17.47 8.907-7.254z"/><path fill-rule="evenodd" clip-rule="evenodd" fill="#a47a1b" d="M149.607 234.43l-11.003-8.932 1.002-1.587 8.542-6.951 12.142 5.879z"/><path fill-rule="evenodd" clip-rule="evenodd" fill="#504b4a" d="M87.297 177.934l-7.452 6.496 1.049 7.262 21.05.29 8.187-11.086z"/><path fill-rule="evenodd" clip-rule="evenodd" fill="#555554" d="M111.775 192.564l-9.831-.582-1.081-7.742-21.018.19-.957-9.171 60.766-.191 2.655 7.364 1.553 5.787-17.968 7.033z"/><path fill-rule="evenodd" clip-rule="evenodd" fill="#504b4a" d="M123.985 213.286l-9.172-12.804-3.038-7.918.316-4.093 20.111-.218 11.66-.034 1.906 7.104 7.453 8.096-12.502 12.102-9.917-.511z"/><path fill-rule="evenodd" clip-rule="evenodd" fill="#fef2f0" d="M122.215 211.835l-5.928-2.082-1.474-9.271 16.909-.357 1.052 6.09zM149.207 182.903l-16.814-1.148-.191 6.498 13.566 7.07z"/><path fill-rule="evenodd" clip-rule="evenodd" fill="#f2d6d2" d="M156.469 210.8l4.203-7.833-14.904-7.644 3.988 16.191zM143.093 216.916l-4.586 15.858-20.446-11.847-1.774-11.174 16.114-5.702z"/><path fill-rule="evenodd" clip-rule="evenodd" fill="#fef2f0" d="M176.533 213.859l-15.861-10.892-28.271 1.084 6.106 28.723 21.783-9.935z"/><path d="M174.622 164.559l13.417 8.373 12.666 11.786 5.638 14.236-16.736 1.471.589 5.884 28.185 4.874s18.312-30.629 16.8-31.844c-1.515-1.213-42.965-19.211-42.965-19.211l-17.594 4.431z" fill-rule="evenodd" clip-rule="evenodd" fill="#b98f16"/><path fill-rule="evenodd" clip-rule="evenodd" fill="#d1af01" d="M186.51 177.205l3.097 23.219 16.736-1.471-2.39-16.338-9.601-5.854z"/><path fill-rule="evenodd" clip-rule="evenodd" fill="#504b4a" d="M220.307 165.163l-13.964 33.79 26.942 9.364 14.523-22.931 5.733-18.535-8.982-4.586z"/><path fill-rule="evenodd" clip-rule="evenodd" fill="#555554" d="M180.848 177.561l-.684 27.888 20.063 1.722 6.116-8.218-11.991-22.192-7.601-4.633z"/><path fill-rule="evenodd" clip-rule="evenodd" fill="#a47a1b" d="M214.368 207.361l-8.025-8.408-14.243 1.925-5.614 5.276 7.621 22.364 16.245 2.73z"/><path fill-rule="evenodd" clip-rule="evenodd" fill="#f2d6d2" d="M160.672 202.967l-.382 19.872 33.817 5.679-2.007-27.64z"/><path fill-rule="evenodd" clip-rule="evenodd" fill="#d4aba5" d="M168.539 130.411l16.433 25.305 18.981 26.899 23.903-18.287 4.303-13.1-6.764-5.145z"/><path fill-rule="evenodd" clip-rule="evenodd" fill="#f8da46" d="M207.583 157.296l-3.63 25.319 40.606-20.35-1.826-13.647z"/><path fill-rule="evenodd" clip-rule="evenodd" fill="#a6924f" d="M242.469 31.09l6.2-5.552 15.178 14.484-3.678 35.557-16.113 7.181h-10.334l-6.117-33.315z"/><path d="M200.366 14.619L236.874 4.58l11.795 20.958-21.063 23.908-8.179-6.576-31.382-1.823s-7.403-23.427-8.176-24.975c-.776-1.548 20.497-1.453 20.497-1.453z" fill-rule="evenodd" clip-rule="evenodd" fill="#c9b66a"/><path d="M193.458 5.685c.114.009.42.009.885.004 5.473-.076 42.531-1.109 42.531-1.109l-41.119 20.077-22.517-3.168.221-11.492 19.999-4.312z" fill-rule="evenodd" clip-rule="evenodd" fill="#e7d37d"/><path fill-rule="evenodd" clip-rule="evenodd" fill="#fff7b2" d="M171.801 18.172l-33.044-4.476L172.131.38l64.743 4.2-54.356 8.231z"/><path fill-rule="evenodd" clip-rule="evenodd" fill="#a6914f" d="M150.029 16.735L128.04 44.142l10.94 14.751 25.528-15.083-1.437-21.991z"/><path fill-rule="evenodd" clip-rule="evenodd" fill="#c9b66a" d="M170.142 43.974l-13.041-19.227-18.344-11.051 43.761-.885 13.703 11.493z"/><path fill-rule="evenodd" clip-rule="evenodd" fill="#fef2f0" d="M138.98 58.893l11.965 71.915 21.607 24.935 52.843-9.66-5.968-103.213-23.206-18.566-24.753 7.958-14.367-7.515z"/><path fill-rule="evenodd" clip-rule="evenodd" fill="#d2b000" d="M253.541 166.851l-47.198 32.102 4.009 32.295 56.372-26.179z"/><path fill-rule="evenodd" clip-rule="evenodd" fill="#fef2f0" d="M120.305 192.242l9.651-.096 1.528 5.732-10.223.479z"/><path fill-rule="evenodd" clip-rule="evenodd" fill="#504b4a" d="M116.018 177.916l13.185.096v2.149l-12.802-.383zM116.233 180.735l13.185.095v2.149l-12.803-.382zM116.448 183.433l13.184.096v2.15l-12.802-.383z"/><path fill-rule="evenodd" clip-rule="evenodd" fill="#f2d6d2" d="M154.479 75.905l12.451.842 3.589 3.701 4.487 4.935 2.076 3.59 4.765-4.6 5.499-5.16 1.962-3.756 15.816-7.572 6.002 2.018-22.884 39.598-8.523-15.985-5.61 17.779-24.903-32.193z"/><path fill-rule="evenodd" clip-rule="evenodd" fill="#d4a8a2" d="M180.166 99.517l-6.057 11.778 9.31 3.814 4.823-5.608z"/><path fill-rule="evenodd" clip-rule="evenodd" fill="#fef8f8" d="M175.006 85.383l-.897 25.912 14.133-1.794-6.395-25.128z"/><path fill-rule="evenodd" clip-rule="evenodd" fill="#a6914f" d="M170.519 80.448l.224-4.711-16.151-1.907-6.619 4.037 1.233 1.235 5.609-1.795zM187.346 79.213l-1.908-5.047 19.181-8.413 7.291 2.243-.784 1.907-5.835-.337z"/><path fill-rule="evenodd" clip-rule="evenodd" fill="#d4a8a2" d="M174.249 134.541l11.386-4.88 15.761-2.017 5.831-5.385-3.983 8.636-16.937 1.851-10.431 3.927z"/><path fill-rule="evenodd" clip-rule="evenodd" fill="#d4a8a2" d="M204.173 120.83l8.607 7.066-3.253-9.168z"/><path fill-rule="evenodd" clip-rule="evenodd" fill="#f2d6d2" d="M204.173 120.83l-15.931-11.33 5.644-.705zM171.894 132.961l2.215-21.666-3.774 2.373z"/><path d="M160.977 92.508c1.969 0 3.575-1.607 3.575-3.575 0-1.968-1.606-3.575-3.575-3.575-1.97 0-3.575 1.607-3.575 3.575-.001 1.967 1.605 3.575 3.575 3.575zM198.192 88.722c1.971 0 3.577-1.605 3.577-3.574 0-1.97-1.606-3.575-3.577-3.575-1.967 0-3.572 1.605-3.572 3.575.001 1.969 1.606 3.574 3.572 3.574z" fill-rule="evenodd" clip-rule="evenodd" fill="#322f2c"/><path fill-rule="evenodd" clip-rule="evenodd" fill="#d4a8a2" d="M245.579 94.807l-6.236 3.027 12.712 13.866 3.744-13.189z"/><path fill-rule="evenodd" clip-rule="evenodd" fill="#fef2f0" d="M240.553 73.83l-1.21 24.004 16.456.677 4.37-22.932z"/><path fill-rule="evenodd" clip-rule="evenodd" fill="#d4a8a2" d="M255.546 81.187l-8.934-1.234v10.81z"/></svg>