<svg xmlns="http://www.w3.org/2000/svg" viewBox="0 0 400 400"><g fill-rule="evenodd" clip-rule="evenodd"><path opacity=".102" d="M292.888 375.416l-51.619 20.96-118.556-16.895 79.769-10.945z"/><path fill="#f2d1cc" d="M244.34 382.98l-10.88-25.841-15.435 2.498 1.698 28.861 17.403 2.967z"/><path fill="#ccad2b" d="M244.34 382.98l-5.44-12.922.773 13.773-14.437 2.543-6.36-13.155.847 15.279 13.163 11.882 8.484-1.27z"/><path fill="#fff0ed" d="M210.396 322.572l9.29-5.966 15.849-.809-2.075 41.342-15.435 2.498z"/><path fill="#f2d1cc" d="M160.488 293.743l5.819 21.468 24.448 4 .912-23.417-17.218-10.652z"/><path fill="#cfa39e" d="M160.488 293.743l30.751 13.013.428-10.962-17.218-10.652z"/><path fill="#f2d1cc" d="M235.535 315.797l-25.139 6.775-2.693-13.241 16.865-16.593 11.858 5.289z"/><path fill="#cfa39e" d="M207.703 309.331l-1.412-7.246 18.277-9.347 11.858 5.289z"/><path fill="#f2d1cc" d="M189.51 351.364l-23.091 25.456-8.252-10.083 16.896-19.307 5.371-8.11z"/><path fill="#fff0ed" d="M190.755 319.211l-1.245 32.153-14.447-3.934-8.756-32.219z"/><path fill="#b58f2e" d="M188.713 378.199l.797-26.835-9.399 11.239 3.562 15.596z"/><path fill="#e6c729" d="M189.51 351.364l-17.594 26.835h-23.375l9.626-11.462 7.334 6.421z"/><path fill="#5e4f45" d="M151.815 112.765l-38.967-33.118 32.802 1.941 3.736 8.55z"/><path fill="#ffede8" d="M160.754 161.846l24.132-14.079 39.659-4.619 37.613 17.557-17.252 32.562-16.46 21.675-35.662-13.138-26.807-25.767z"/><path d="M173.928 188.549l-13.393-6.482.22-20.221 8.203 10.889 5.737 9.711c0-.001-.228 3.018-.767 6.103" fill="#f2d1cc"/><path fill="#9e7800" d="M178.557 151.457l6.329-3.69-5.361 23.464-3.754 2.189-.94-7.198zM232.679 146.945l3.938 1.841-3.596 19.941-1.567 9.698-7.821-4.069z"/><path fill="#b58c00" d="M174.831 166.224l-17.708 19.625 24.402 20.956 11.259-5.001-13.259-30.573zM223.633 174.356l-30.849 27.448 7.509 11.882 44.613-20.419-11.885-24.54z"/><path fill="#9e7800" d="M171.513 231.833l-5.943-7.508-3.44-22.835-5.007-15.641 35.661 15.955 52.122-8.537-22.09 41.695-27.216 6.881z"/><path fill="#b58c00" d="M174.449 285.142l-11.412-5.726-.431-18.742 8.907-28.841 51.303 3.129-.627 22.518-21.237 18.754-11.295 9.09z"/><path fill="#ccad14" d="M160.486 293.743l7.584-42.521 32.882 25.012 17.171 13.892-11.832 11.959z"/><path fill="#9e7800" d="M236.426 298.027l-30.135 4.058-5.339-25.851 21.864-41.272 14.868 24.284z"/><path fill="#f2d1cc" d="M244.906 193.267l17.252-32.562 11.621 47.67-22.904-.802zM161.833 251.303l.4-49.125 9.28 29.655-3.443 19.328-3.125 3.194z"/><path fill="#f2d1cc" d="M154.808 274.717l7.025-23.409 5.461-.391-2.31 17.635-3.192 17.908z"/><path fill="#ffede8" d="M161.049 267.303l.784-15.995 6.237-.086-3.086 17.33z"/><path fill="#f0d1cc" d="M224.545 143.148l-31.369 24.132-10.152-36.005 3.506-8.107 41.36-95.979 31.473 19.898z"/><path fill="#ffede8" d="M157.705 22.848l-10.128 38.709-2.847 29.6 11.787 37.074 29.842 4.346 23.72-26.357 17.811-79.031z"/><path fill="#cfa39e" d="M193.176 167.28l-16.04-36.048 9.223 1.345 17.877 2.847zM226.807 91.944l-4.346 13.389 6.519 3.615 2.343 15.501 11.398-29.248z"/><path fill="#5e4f45" d="M248.145 108.948l15.267-57.147-5.262 3.029-16.154 42.904z"/><path fill="#73665c" d="M256.901 26.838l6.511 24.963-10.01 21.472-11.406 24.461-6.31-24.556 7.759-33.688z"/><path fill="#8f7d73" d="M220.288 48.605l13.749-20.691 22.864-1.076-21.212 46.342-8.882 18.764z"/><path fill="#73665c" d="M225.834 18.016l31.067 8.822-36.613 21.767-7.597-28.29z"/><path fill="#8f7d73" d="M172.023 33.033l48.265 15.572 5.542-30.587L203.996 1.38l-31.763 13.952z"/><path fill="#73665c" d="M147.577 61.557l4.814-5.136 2.791-2.976L203.996 1.38l-48.928 3.497-7.237 34.383z"/><path fill="#8f7d73" d="M121.37 82.724l23.36 8.435 2.847-29.602 7.491-56.68-24.133 50.167-9.766 4.706z"/><path fill="#73665c" d="M112.848 79.646l8.522 3.078 5.945-17.91-4.339-7.599-8.681-2.893-8.324-6.873z"/><path fill="#5e4f45" d="M130.935 55.044l-16.64-.722 13.02 10.492z"/><path fill="#f0d1cc" d="M153.007 61.337l7.039 5.658 8.055 15.468 3.333 4.846-.202 3.591 4.47-.455 16.321-15.756 11.705-5.128-5.913-5.095-16.677 1.813-3.704 2.248-3.675 1.682-1.721-2.087-1.642-3.095-11.748-7.143z"/><path fill="#fff5f2" d="M172.038 68.122l-.637 5.625-5.068 15.389 9.369 1.309.464-16.582 1.268-5.336z"/><path fill="#cfa39e" d="M170.05 95.256l-3.717-6.12 9.369 1.309z"/><path fill="#5e4f45" d="M181.281 64.969l-.143 1.31 16.077-.625 6.513 3.907-4.729-7.009zM170.945 63.294l-.549 1.733-12.518-5.788-4.871 2.098 5.512-5.265z"/><path fill="#856300" d="M236.711 289.255L216.374 277.3l20.983 5.278z"/><path d="M160.266 63.632c2.089 0 3.78 1.69 3.78 3.78 0 2.087-1.691 3.78-3.78 3.78-2.089 0-3.782-1.692-3.782-3.78 0-2.09 1.693-3.78 3.782-3.78M192.81 69.172c2.087 0 3.782 1.692 3.782 3.782 0 2.087-1.695 3.78-3.782 3.78-2.089 0-3.782-1.692-3.782-3.78 0-2.09 1.693-3.782 3.782-3.782" fill="#2b2b2b"/><path fill="#e6c729" d="M218.852 264.072l27.726 2.669 23.804 12.451-9.09 8.981-28.992-6.727-15.926-4.146z"/><path fill="#f5d65c" d="M218.852 264.072l8.431-7.426 42.782 10.698.317 11.848z"/><path fill="#ffede8" d="M247.196 248.194l3.679-40.621 22.904.806-13.159 47.518z"/><path fill="#f2d1cc" d="M237.342 269.5l9.854-21.306 13.424 7.703-.793 20.199z"/><path fill="#ffede8" d="M232.3 281.446l5.042-11.946 22.485 6.596-11.893 8.976z"/><path fill="#cfa39e" d="M247.196 248.194l-9.497 11.007 4.017.956z"/><path fill="#e6c729" d="M237.699 259.201l-3.125 9.484 2.764.823 4.378-9.351z"/><path fill="#ccad2b" d="M232.3 281.446l2.274-12.761 2.768.815z"/><path fill="#ffede8" d="M235.689 73.18l-8.882 18.764 15.189 5.79 9.029-19.362z"/><path fill="#cfa39e" d="M233.545 88.345l3.463-10.018 7.78 2.814z"/><path d="M236.935 100.989l-4.342 6.513 1.444 7.597 3.609-6.876-.711-7.234zm1.082-10.851l-15.556 15.195 8.862 19.116 16.821-15.501-10.128-19.173v.363z" fill="#f5d65c"/><path fill="#f0d1cc" d="M194.82 183.881l-5.434 10.084 3.398 7.839 5.573-4.961z"/><path fill="#9e7800" d="M156.445 99.494l15.229.838 20.558 5.025-12.791 9.671-15.838-2.668z"/><path fill="#fff" d="M161.166 102.768l3.73 6.016 6.32.913 7.54 1.599 7.462-4.645-15.002-2.893z"/></g></svg>