<svg xmlns="http://www.w3.org/2000/svg" viewBox="-152 -152 400 400"><path fill="#35291b" d="M53.4-134.527l-16.689-1.612-13.134 13.58v15.536l36.923-6.048z"/><path fill="#484748" d="M13.575-19.663l3.764-7.901 3.369-9.165 1.599.824-3.789 9.237z"/><path fill="#484748" d="M15.833-23.486l2.685-3.182 4.112-5.723 1.482 1.263-5.795 6.383z"/><path fill="#6f7173" d="M3.487-19.663l6.775 9.275 8.733-4.637 3.312-8.762-4.968-3.777-5.872 2.819z"/><path fill="#484748" d="M-6.073-28.939l-5.496 8.67 8.883 6.87 12.948 3.011 1.205-14.357z"/><path fill="#9d782c" d="M-10.685-36.729l-14.228 14.96 14.916 8.677h9.946l6.625-11.653-7.629-10.114z"/><path fill="#bd902d" d="M9.059-24.745l-.27-5.183-6.722-11.113h-19.219l-7.761 8.991 3.909 9.479 9.435-9.235 11.518 1.221L2.66-18.976z"/><path fill="#ccae2d" d="M15.833-29.759L2.067-9.885l-4.753-3.514L10.262-32.05z"/><path fill="#feeee9" d="M3.337-3.753l-8.733-1.516-18.67-7.823-4.817-17.621 3.97-1.337 8.466 13.074 26.709 8.588-7.226 7.522"/><path fill="#2c2b2b" fill-opacity=".102" d="M-90.455 224.111L34.6 248l151.855-25.431-129.522-3.851z"/><path fill="#98732c" d="M30.592 204.735l7.43-10.418-1.279-14.857 6.043 15.299 10.096 30.807-21.363-12.819z"/><path d="M50.094 225.566h6.503l13.933 8.811-24.151 1.603s-14.86-20.029-13.929-20.029c.926-.802 17.644 9.615 17.644 9.615z" fill="#897a2f"/><path fill="#aa8e30" d="M28.735 200.727l12.071 8.815 15.791 16.024-10.218 10.414-20.432-32.848z"/><path fill="#a87d2c" d="M27.804 240.791l18.575-4.811-8.357-41.663-25.078-4.808-8.356 24.84 15.786 25.639z"/><path fill="#897a2f" d="M19.447 231.173l9.288 1.603L42.664 248l-32.504-5.607z"/><path fill="#aa8e30" d="M6.445 219.956l10.214-6.41 12.076 19.23-18.575 9.617z"/><path fill="#bb8d2d" d="M-21.421 223.964l5.572 16.024 26.009 2.405 6.499-28.847v-19.229l-30.818.442-1.69.13z"/><path fill="#897a2f" d="M-36.281 222.362l-3.715 3.204-14.859 10.414h29.719z"/><path fill="#aa8e30" d="M-26.993 207.94l-6.499.799-6.504 16.827 14.86 10.414z"/><path fill="#ae802c" d="M-30.137 195.713l15.978-.954-1.69 45.229-9.287-4.008-8.356-27.241z"/><path fill="#484748" d="M4.932 184.259l-19.091 4.773v5.727h56.945v-5.727l-3.497-4.773z"/><path fill="#4f5253" d="M20.202 167.08l-5.726 6.683-28.635 15.269h56.945v-14.259z"/><path fill="#b38c2e" d="M40.241 157.537l5.726-5.726 35.312-7.635-6.677-19.086-46.766 20.995z"/><path fill="#9d782c" d="M36.423 146.085l1.909-12.404-15.269 2.861-9.544 20.043.957 17.178 28.31 1.01 3.181-22.962z"/><path fill="#484748" d="M24.019 155.629l-10.5.956-1.908-24.813 14.317 1.909-.956 4.77z"/><path fill="#b38c2e" d="M52.65 107.911h-.957l-10.496.953-12.408 9.543-3.817 20.044 11.451 7.634 41.995-13.361 20.04-25.769z"/><path fill="#484748" d="M111.818 218.62l7.831 10.495 12.723 3.872-.815 7.696-38.088-.584-.408-6.844 10.171-5.092z"/><path fill="#4f5253" d="M118.501 204.302l10.5 6.683 3.371 22.002-39.311.268 8.645-23.821z"/><path fill="#9d782c" d="M101.323 161.355l-11.452 12.408 11.835 35.671 27.295 1.551V188.08l-18.134-28.634z"/><path fill="#b38c2e" d="M122.318 116.499l6.683 11.93v22.43l-21 20.996-18.13 1.908-8.592-29.587.957-32.447z"/><path fill="#9d782c" d="M57.423 107.911l-16.226.953 40.082 35.312 47.722-15.747v-12.883z"/><path d="M52.65 107.911h-.957l-10.495.953 22.253 19.605 18.785-14.832 5.726 7.635 7.634-9.544-33.403-3.818H52.65z" fill="#88682f"/><path fill="#88682f" d="M122.318 116.499l6.683-.953-31.879 19.125-15.843-21.033.957-1.909z"/><path fill="#484748" d="M116.592 168.989l-8.591 2.866.957 17.177 20.043-.952-.336-17.598z"/><path fill="#eecec9" d="M150.949 135.59l-9.544-7.635-11.451 4.769.328 4.974 13.988-.2z"/><path fill="#efd0cb" d="M154.766 141.316l7.635 9.543-13.837 15.36-12.842-5.44 3.774-14.694z"/><path fill="#feeee9" d="M157.631 126.998l1.909 2.865 2.861 20.996-22.905-4.774 1.909-18.13z"/><path fill="#eecec9" d="M143.314 126.047l-1.909 1.908 6.683 4.769h7.634l3.818-2.861z"/><path fill="#484748" d="M153.813 125.09v.957l2.861 4.769 2.866-.953v-6.682l-4.774-.956z"/><path fill="#eaeceb" d="M146.179 126.047l2.861 3.816 7.634.953v-9.543h-9.543z"/><path fill="#484748" d="M142.362 120.316l-.957 1.909v5.73l7.635 1.908v-9.547z"/><path fill="#897a2f" d="M159.54 106.003l6.678 11.452-6.678 5.726-18.135-.956-3.817-7.635z"/><path fill="#4f5253" d="M131.861 63.056l19.088 26.721-32.448 18.134-1.909-35.312z"/><path fill="#484748" d="M142.362 107.911l-4.774 6.679-8.587.956-6.683-10.499 6.683-6.679 10.495-10.5z"/><path fill="#aa8e30" d="M83.188 105.047l-.952 6.682 18.13 16.226 28.635-12.409V98.368z"/><path d="M54.558 98.368l-.957.953-12.404 9.544s24.813 15.269 25.77 15.269c.952 0 15.269-11.452 15.269-11.452l-18.134-15.27-9.544 1.909v-.953z" fill="#cbae53"/><path fill="#4f5253" d="M61.24 86.917l-5.73 3.816-1.908 8.588 3.821 1.908 5.726-10.496z"/><path fill="#b2882e" d="M60.284 90.733l-2.861 10.496 2.861.957 9.544-9.544z"/><path fill="#4f5253" d="M66.01 103.138l-5.726-.952 4.774-12.409 9.544 7.635z"/><path fill="#646464" d="M78.418 105.047l-6.681 2.864-9.544 5.727-1.909-11.452 14.318-4.774z"/><path fill="#eaeceb" d="M82.236 111.729l-10.499-3.818 2.865-13.36 13.36-2.866-6.683 8.592 3.818 4.77z"/><path fill="#c9c9c8" d="M97.505 103.138l-2.865 4.773-12.404 3.818-.957-11.452 6.683-8.592 5.727-.952z"/><path fill="#646464" d="M88.915 93.594l5.725 14.317 12.409-2.864V87.868z"/><path d="M101.323 90.733l5.726 14.313 5.726-1.909s-.956-20.995-.956-20.039c0 .952-9.543 7.635-9.543 7.635h-.953z" fill="#b2882e"/><path fill="#646464" d="M107.049 83.099l21.952 1.909v13.36l-16.227 4.77-5.725-15.27z"/><path d="M61.24 61.147L50.741 67.83l4.77 22.904 25.769 9.544s-1.908-39.13-.952-38.178c.951.956-19.088-.953-19.088-.953z" fill="#cbae53"/><path fill="#aa8e30" d="M84.145 59.238L76.51 69.739l4.769 30.538 47.722-15.269v-7.635l-4.774-20.043z"/><path fill="#cbae53" d="M71.737 60.19l4.773 9.549 46.765-4.774 14.313-52.492-74.439 10.5zM145.223 79.281l-5.727 8.587-1.908 26.722 28.63 2.865-1.908-35.312z"/><path fill="#4f5253" d="M157.631 35.378h8.587l-6.678 42.947-20.044-36.265z"/><path fill="#aa8e30" d="M145.223 43.969l5.726.952 3.817 9.543.956 7.635 8.588 20.044-24.814 5.725-8.586-18.129-7.635-14.318z"/><path d="M154.766 54.464l9.543 27.679-2.861-2.862-5.727-1.908-.956-5.727.956-4.774-3.817-6.682 2.862-5.726zm-2.861 22.909l1.908 1.908 1.909-.956-1.909-1.909-1.908.957z" fill="#f0ba5f"/><path fill="#686b6d" d="M152.857 24.882l5.726.952 7.635 9.544-15.269 9.543-8.587-18.13z"/><path fill="#6d6e6e" d="M143.314 30.608l15.269-4.774-.952-12.404-27.677 10.495z"/><path fill="#897a2f" d="M134.726 29.651l8.588-4.769 7.635 20.039-23.857 14.317z"/><path fill="#56595a" d="M125.184 38.242l-13.366 16.222 17.183 22.909 1.909-7.634-3.818-9.549-1.908-20.995z"/><path fill="#9d782c" d="M121.366 47.786l-9.548 6.678H91.78l.952-6.678 23.86-.956z"/><path fill="#6d6e6e" d="M135.679 8.656l-8.587 6.682-15.274 39.126 15.274 5.726 16.222-35.308z"/><path fill="#808181" d="M126.144-2.866l-6.687 14.387 7.635 3.817 16.222 9.544 14.317-11.452z"/><path fill="#aa8e30" d="M67.443 19.156l10.975 13.881-1.908 36.702-25.769-1.909 7.634-43.905z"/><path fill="#9d782c" d="M49.784 52.556l4.774-4.77 11.452-.956v7.634l-14.317.957z"/><path fill="#56595a" d="M52.65 41.104l-5.727 11.452 3.818 15.274 2.861-12.409z"/><path fill="#6d6e6e" d="M52.65 11.521l-.957 4.77-13.361 14.317 8.591 21.948 6.679 2.865 11.456-31.496z"/><path fill="#b79b45" d="M50.741-1.129l-4.774 12.65 32.451 21.516-10.499-36.79z"/><path fill="#cea39f" d="M86.054 22.973l-8.175 8.175L63.626-1.198l51.057-2.555-1.909 20.044z"/><path fill="#efd0cb" d="M132.818-41.926l1.438 7.002-10.097 37.62-25.701 15.027 9.543-18.852-22.902-.508 4.772-130.954 37.221 2.861 8.587 39.13z"/><path fill="#cea39f" d="M129.954-50.513l-7.895 1.841 12.197 13.748 2.836-10.568z"/><path fill="#35291b" d="M125.184-124.956l-3.941 14.962-6.56 20.879 2.161 8.369.01 14.007 14.878 3.905 11.903-7.036 4.583-17.075z"/><path fill="#46382d" d="M105.14-130.611l5.249 10.499 9.068 8.592 28.761 24.575-20.173-52.253z"/><path fill="#5f5044" d="M45.015-97.207l-10.967-25.352L81.654-152l46.391 12.802-17.656 19.086z"/><path fill="#feeee9" d="M23.577-107.023l1.8 78.93 28.225 16.041L85.099-1.637l20.519-28.384 4.771-90.091-49.889 7.041-26.452-9.488z"/><path fill="#aa8e30" d="M87.006 13.43l39.138-16.296.948 18.204-48.674 17.699z"/><path fill="#56595a" d="M106.093 153.72l22.908-2.861-.336 19.623-20.664 1.373zM11.611 131.772l17.178-13.365 8.591 11.456-12.408 8.588z"/><path d="M117.548 217.663h1.909l1.909 1.909h1.909l1.908.956 2.862 4.77-.953 1.909h-2.865l-4.77 1.909-4.774-1.909-5.726-1.909v-1.908l3.817-.953 4.774-4.774zm-5.725 1.909l-1.909-1.909h-1.908l-.957 1.909 1.909 1.909 2.865-1.909z" fill="#f0ba5f"/><path d="M152.857 126.047l-1.909-1.913h-.952v.956l2.861.957zm0 0l.956-.957h.953v.957h-1.909z" fill="#484748"/><path fill="#aa8e30" d="M51.693 16.291l-43.9-2.861-5.726 17.178L26.88 48.677l20.043 3.879z"/><path fill="#cbae53" d="M17.339-5.269l9.541 53.946-30.112-5.891-5.53-37.48L-.277-5.269z"/><path fill="#897a2f" d="M10.262-10.388l7.077 5.119L-8.762 5.306l3.366-10.575z"/><path fill="#efd0cb" d="M78.105-82.703l13.087 3.097-16.261 12.737-7.294 20.434-10.388-3.934-7.145 4.495-8.733-23.02-9.478-11.301 14.157-2.508 7.35 5.21 2.455 5.389 2.423 3.651 2.206-3.651 3.801-5.389z"/><path fill="#3e3228" d="M64.285-82.738l18.966-1.877 6.852 1.208 1.089 3.801-8.391-1.448-18.516 3.561zM53.4-82.53L38.865-84l-6.131.593-.841 3.212 7.211-.171L53.4-77.493z"/><path fill="#f2e3df" d="M61.923-43.776l-27.875 7.321-8.967-4.603.296 12.965L50.741-1.129l30.305-.448 24.572-28.444.673-12.698-22.592 7.795z"/><path fill="#cea39f" d="M40.334-30.924l39.565-.389-19.99 9.664z"/><path fill="#fff" d="M46.947-29.571l26.959-.351-14.33 5.868z"/><path fill="#cea39f" d="M59.642-51.204l-9.538 5.33 9.538 5.751 7.995-6.312z"/><path fill="#fff5f3" d="M55.855-72.104l.142 15.689-5.893 10.541 7.416 1.382 10.117-1.943-7.137-9.811-.016-15.858z"/><path fill="#e5c8c6" d="M106.291-42.719l-.673 12.698L81.046-1.577l26.955.448 14.058-47.543 4.62-17.004-9.825-1.063-2.171 19.812z"/><path fill="#feeee9" d="M125.654-73.456l-3.595 24.784 15.033 3.18 6.543-24.378z"/><path fill="#cea39f" d="M130.887-66.418l7.657 2.275-10.697 8.506z"/><path d="M47.081-70.242c0 1.863-1.511 3.374-3.374 3.374-1.863 0-3.374-1.511-3.374-3.374s1.511-3.374 3.374-3.374c1.864 0 3.374 1.51 3.374 3.374z" fill="#2b2b2b"/><circle cx="75.007" cy="-70.242" r="3.374" fill="#2b2b2b"/><path fill="#efd0cb" d="M83.251-70.242l8.864-.857-3.759 3.455zM29.014-70.242l8.297.87-4.974 2.503z"/><path fill="#46382d" d="M81.654-152l-29.959 21.101 3.43 8.34H34.048l2.663-13.58z"/><path fill="#35291b" d="M51.695-130.899l-17.647 8.34 26.331 10.257 50.01-7.81z"/></svg>