<svg xmlns="http://www.w3.org/2000/svg" viewBox="0 0 400 400"><path fill="#fdeee9" d="M237.518 150.218l-6.268 18.449 1.373 14.817 22.955 4.576 15.871-19.393z"/><path fill="#eed0ca" d="M165.395 171.622l-5.65 49.036-19.994 23.092L161.75 234l21.017-2.958z"/><path opacity=".1" fill="#2b2b2b" d="M166.588 392.32l76.98-19.92 74.348 14.086L239.559 400z"/><path fill="#35785e" d="M230.9 352.385l12.668 20.015-4.56 1.017-10.514-12.413z"/><path fill="#729f53" d="M218.994 146.152l18.524 4.066-4.895 33.266-5.678 7.532-6.345 32.975-37.833 7.051-26.347-28.373 10.931-21.28z"/><path fill="#eed0ca" d="M167.398 42.601l26.009 22.591 17.904 24.32-3.209 54.168-32.597 21.833-16.213-27.023z"/><path fill="#fdeee9" d="M117.744 36.818L92.073 61.139l1.351 19.928L111.241 123l22.717 21.57 25.334-6.08 18.583-28.573-10.477-67.316-20.942-11.187z"/><path fill="#729f53" d="M226.945 222.809l23.473 15.327-3.305 49.889 12.854 23.309-.016 29.825-44.588 17.227-38.17-60.125 12.837-33.61-7.263-33.609 18.831-13.568z"/><path fill="#cda29e" d="M159.292 138.49l30.738-6.756-14.525 33.779z"/><path fill="#eed0ca" d="M175.505 165.513l-10.11 6.109 1.956 9.767zM282.314 215.923l-10.865-47.256-15.871 19.393 14.793 33.332z"/><path fill="#fdeee9" d="M129.397 244.935l-19.405-2.491L120.912 258l18.839-6.179z"/><path fill="#eed0ca" d="M100.245 263.167l11.921 1.809 8.746-6.976-10.92-15.556z"/><path fill="#5b753e" d="M259.951 341.159l20.604-40.196-33.442-12.938z"/><path fill="#3f8e6f" d="M209.994 386.486l-1.133 5.931 19.506-12.16 2.533-27.872-5.355 2.067zM297.748 335.148l5.129 4.245-.814-22.972-21.508-15.458-1.862 3.632z"/><path fill="#35785e" d="M280.555 300.963l22.273-1.636-.57 4.255-14.133 2.821z"/><path fill="#53af8a" d="M260.227 249.026l37.904-29.048 22.295 24.595-41.112 31.139z"/><path fill="#73c6a4" d="M298.131 219.978l-37.904 29.048 5.609 7.844 28.242-2.269 10.326-27.703z"/><path fill="#eed0ca" d="M273.4 238.931l7.842 8.07 8.178-9.207-1.952-9.645z"/><path fill="#eed0ca" d="M270.371 221.392l-.598 20.316 3.87-2.963z"/><path fill="#e2d086" d="M93.424 81.067l-13.85-17.564 10.81-36.143L133.958 0l46.162 2.702 13.287 13.073 8.952 2.465 20.436 37.157-11.484 34.115-17.904-24.32-26.009-22.591-20.942-11.187-28.712 5.404-25.671 24.321z"/><path fill="#eed0ca" d="M211.311 89.512l-13.344 1.182-4.56-25.502z"/><path fill="#cda29e" d="M195.56 90.694l15.751 11.654V89.512z"/><path fill="#e2d086" d="M211.311 102.348h11.484l7.092-14.356-14.324-11.11-4.252 12.63z"/><path fill="#9f9060" d="M224.281 83.644l5.606-15.244-9.85-4.813-4.474 13.295z"/><path fill="#738c57" d="M226.945 222.809l5.678-39.325-76.203 19.185 26.347 28.373z"/><path fill="#98c16d" d="M182.767 231.042l64.346 56.983-69.92 10.236z"/><path fill="#fdeee9" d="M270.371 221.392l3.029 17.539 14.068-10.782-5.154-12.226z"/><path fill="#eed0ca" d="M129.397 244.935l-10.759 19.392 3.607.649 17.506-13.155z"/><path fill="#fdeee9" d="M167.351 181.389l14.149 2.701 37.494-37.938-10.892-2.472-32.597 21.833z"/><path fill="#eed0ca" d="M209.994 386.486l11.914-7.369 3.637-24.665-10.182 3.934zM297.748 335.148v-14.97l-19.055-15.583-5.322 10.38z"/><path fill="#9f9060" d="M117.744 36.818l-19.929 5.405-5.742 18.916z"/><path fill="#c2b476" d="M180.12 2.702l-49.033 19.95 36.311 19.949 26.009-26.826z"/><path fill="#e2d086" d="M131.087 22.652L133.958 0l46.162 2.702z"/><path fill="#fff6af" d="M131.087 22.652L90.384 27.36 133.958 0l46.162 2.702z"/><path fill="#c2b476" d="M193.407 65.192l29.388-9.795-11.484 34.115z"/><path fill="#cda29e" d="M203.125 78.393l-3.639 5.251-1.519-12.257z"/><path fill="#fff5f4" d="M123.486 83.644l6.249-1.732 5.575 19.423-8.953 2.026z"/><path fill="#cda29e" d="M126.357 103.361l5.236 2.703 3.717-4.729z"/><path fill="#eed0ca" d="M129.735 81.912l1.431-5.809 18.753-7.479 9.476 3.462-16.909 11.431-7.176 17.818z"/><path d="M146.117 83.517c0 2.005-1.625 3.631-3.631 3.631-2.005 0-3.631-1.626-3.631-3.631s1.626-3.631 3.631-3.631c2.006-.001 3.631 1.625 3.631 3.631z" fill="#2b2b2b"/><path fill="#9f9060" d="M159.395 72.086l-8.887-5.035-18.569 5.53-.773 3.522 19.275-6.007z"/><path fill="#eed0ca" d="M123.486 83.644l-3.861-4.06-15.801 4.042-4.086 4.098 15.135 2.97 10.965 9.098z"/><path fill="#9f9060" d="M119.625 79.584l-3.229-2.745-13.675 4.951-2.983 5.934 4.086-4.098z"/><path d="M118.504 90.694c0 2.005-1.626 3.631-3.631 3.631s-3.632-1.626-3.632-3.631 1.627-3.631 3.632-3.631 3.631 1.626 3.631 3.631z" fill="#2b2b2b"/><path fill="#73c6a6" d="M134.375 126.96l-12.924-6.731 30.448-7.521-10.961 12.627z"/><path fill="#3f8f72" d="M121.451 120.228l10.162-6.968 2.2.076 1.808-1.257 16.277.628-16.108 6.92z"/><path fill="#fff" d="M136.676 123.745l-12.667-3.624 11.3-4.515 13.046-1.377z"/><path fill="#9f9060" d="M202.359 18.24l-34.961 24.361 26.009-26.826z"/><path fill="#fdeee9" d="M159.745 220.658l23.022 10.384-43.016 20.779-10.354-6.886z"/><path fill="#eed0ca" d="M140 101.335l11.898 4.729L163 99.334zM124.5 104.834l-14.818 8.791 10.443-.917z"/><path fill="#9f9060" d="M193.407 65.192v13.975l-12.489-24.823z"/><path fill="#eed0ca" d="M181.5 184.09l-.582-10.639-3.725 9.817z"/></svg>