<svg xmlns="http://www.w3.org/2000/svg" viewBox="0 0 400 400"><g fill-rule="evenodd" clip-rule="evenodd"><path opacity=".102" fill="#2b2b2b" d="M121.629 388.522l91.817-6.978 97.1 7.353-71.159 11.483z"/><path fill="#636161" d="M257.714 372.304l-20.081 14.827.216 6.332 39.827.073.077-6.43zM180.414 370.448l-28.951 14.27-.309 4.809 47.994-.146-.244-4.663z"/><path fill="#403d3d" d="M247.928 356.243l-4.33 11.764-5.965 19.124 40.165-.025-9.428-21.667z"/><path fill="#1a7054" d="M228.474 325.478l-.965 5.915 16.089 36.614 24.772-2.568-3.47-28.784-11.488-13.831z"/><path fill="#0d664a" d="M264.9 336.655l-1.796-14.86-12.788 1.359-6.494 5.989z"/><path fill="#403d3d" d="M176.667 362.27l-3.683 1.489-21.521 20.959h47.441l-1.585-17.363z"/><path fill="#1a7054" d="M170.895 343.715l2.089 20.044 24.335 3.596 7.473-32.812-3.902-22.762-29.151 6.222z"/><path fill="#0d664a" d="M169.662 331.865l1.233 11.85 13.568-10.722-1.532-8.28-16.915 1.029z"/><path fill="#364f24" d="M196.55 322.495l8.242 12.048 22.717-3.15.476-23.054-19.369-39.282-5.033 39.669z"/><path d="M202.725 282.765l9.542 18.962-7.475 32.816-20.329-1.55-15.137-81.8s32.707-.965 32.857 0c.155.96.542 31.572.542 31.572" fill="#308c69"/><path fill="#308c69" d="M192.263 253.646l20.004 48.081 15.242 29.666 16.313-2.25 9.224-41.291-24.45-39.596z"/><path fill="#1f664f" d="M212.267 301.727l38.706-14.063 9.402-21.948-10.201-18.519-77.414 3.899-5.092 33.803z"/><path d="M167.668 267.665l70.689.427-.102-37.956s-67.983 9.396-68.539 8.599c-.55-.795-2.048 28.93-2.048 28.93" fill="#c2c2c2"/><path fill="#424747" d="M172.063 215.581l2.345 30.063 19.161-.498 34.274-.886 9.151-59.553-10.787-10.129-18.538-17.401-32.9 38.055z"/><path fill="#3d4040" d="M173.658 259.169l56.626-1.945 36.101-32.606-99.022-8.642z"/><path fill="#3b5929" d="M170.891 236.806l-6.954 21.768-9.092 72.16 29.62 2.259-.403-74.183zM233.527 246.185l-6.088 11.136 16.383 71.822 36.731-5.07-6.002-36.129-11.312-18.814 5.64-12.07-1.266-2.522z"/><path fill="#4f7033" d="M286.641 217.245l-8.659 5.266-7.589 23.649 9.13 17.818 12.94-3.19 19.792-30.037z"/><path fill="#6b874d" d="M254.898 197.777l11.487 26.841 45.866 6.133-40.756-67.705z"/><path fill="#4f7033" d="M271.495 163.046l-9.973-4.852-16.003 5.375-21.241 19.934 3.161 73.818 40.174-2.783-1.228-29.92z"/><path fill="#ffede8" d="M104.645 154.332l-9.286 3.349-9.321-21.588 10.728-10.551 12.746 13.932z"/><path fill="#f0cfc9" d="M123.06 143.35l-13.548-3.876-14.153 18.207 15.67 11.973 15.359-9.001z"/><path d="M125.281 165.941c.278-.137 4.998-7.566 4.998-7.566l-3.332-21.684-7.959-11.881-5.829 3.241 4.441 13.77-3.271 13.849 6.326 8.344 4.626 1.927z" fill="#ffede8"/><path fill="#6b9947" d="M133.982 175.143l3.272-8.366-6.974-8.402-19.251 11.279 5.369 11.341z"/><path fill="#4f7033" d="M132.823 218.971l-16.425-37.976 20.856-14.22 16.716 19.501 3.176 19.902z"/><path fill="#6b874d" d="M183.22 183.408l-12.12-13.886-20.593 12.716-17.684 36.733 34.54-2.991z"/><path fill="#4f7033" d="M191.093 164.295l-8.101-2.113-11.892 7.34-7.163 89.052 20.125.236 8.384-76.361z"/><path fill="#c2c2c2" d="M205.687 163.319l18.591 20.186 37.244-25.311-9.965-4.853-12.129-8.606zM199.482 153.331l-4.46 1.42-12.03 7.431 9.454 20.269 13.241-19.132z"/><path fill="#f0cfc9" d="M205.687 163.317l31.495-6.848 14.375-3.128 13.579-35.892-.839-66.421-25.622-22.455-7.036 5.074-10.823 94.786z"/><path fill="#cca19c" d="M210.419 132.683l9.2 11.932 19.813.12-6.466 12.651-27.279 5.933-10.665-8.568-7.668-16.428zM265.241 101.114l-9.086 2.579 8.692 14.525 4.109-10.038z"/><path fill="#383838" d="M260.317 49.215l-7.14 11.282 2.588 16.672-2.787 16.462 13.439 3.611 11.394-10.258 8.56-23.625z"/><path fill="#ffede8" d="M261.457 82.264l-5.302 21.429 12.801 4.487 8.855-21.198z"/><path fill="#424747" d="M241.303 34.359l11.874 26.138 33.194 2.862-8.207-36.188-27.01-18.245-8.597 7.93z"/><path fill="#696b6e" d="M172.341 26.594l-3.822-10.785L190.434 1.38l60.72 7.546-20.047 16.77-52.813 27.047-9.2-15.096z"/><path fill="#424747" d="M167.292 43.625l-5.142-9.893-5.002-4.848 11.371-13.075 10.762 12.978z"/><path fill="#696b6e" d="M158.183 65.471l-7.345-10.583 6.31-26.004 22.133-.097-13.342 37.374z"/><path fill="#424747" d="M169.998 59.021l-10.582-3.316-8.578-.817 10.733 32.129z"/><path fill="#ffede8" d="M179.281 28.787l-19.865 26.918-.045 59.762 20.038 28.782 40.21.366 23.787-27.279 6.059-64.593-8.162-18.384-7.841-10.443-30.985 10z"/><path d="M171.029 72.409l-2.104 3.703 11.477 6.877s6.332 21.92 6.58 22.109c.248.191 8.35-17.993 8.35-18.38 0-.386-3.106-8.093-3.106-8.093l-2.871-4-10.785-1.528-7.541-.688zm32.965 2.911l-6.132 3.345s-.906 16.223-.906 17.082c0 .861 4.22 9.41 4.22 9.41l13.881-19.541 15.67-8.01-3.796-5.632-9.367.896-13.57 2.45z" fill="#f0cfc9"/><path d="M193.935 100.566c0 .211-6.956 4.531-6.956 4.531l6.815 6.008 7.381-5.949-7.24-4.59z" fill="#cca19c"/><path fill="#383838" d="M223.997 69.097l8.224 7.033-1.494 1.475-6.636-3.503-19.495 1.086.13-1.998zM189.274 72.815l-16.923-2.736-4.571 4.567 1.145 1.465 4.981-1.989 15.447.502z"/><path fill="#fff5f2" d="M192.224 78.624l-5.245 26.473 7.08 1.369 7.117-1.31-3.314-26.491z"/><path fill="#cca19c" d="M180.202 115.85l13.825 2.097 11.924-1.042 5.29-2.59.781 1.551-5.404 3.147-12.55 1.343-13.357-2.138zM262.312 98.066l2.461-9.526 8.859 2.206z"/><path d="M215.904 80.754c2.222 0 4.024 1.719 4.024 3.839 0 2.118-1.803 3.837-4.024 3.837-2.222 0-4.025-1.719-4.025-3.837.001-2.119 1.803-3.839 4.025-3.839M180.654 80.018c2.222 0 4.024 1.717 4.024 3.837s-1.802 3.837-4.024 3.837-4.024-1.717-4.024-3.837 1.802-3.837 4.024-3.837" fill="#2b2b2b"/><path fill="#f0cfc9" d="M174.516 118.382l10.287-12.691-8.54 2.309zM204.559 105.864l14.369 12.466-4.639-10.101z"/><path fill="#383838" d="M251.154 8.926l-48.677 24.99 38.826.443z"/><path fill="#f0cfc9" d="M189.41 125.247l5.508 3.184 6.268-2.773zM263.695 260.861l-7.341-5.525-15.881 22.187 16.89 13.869 14.083-8.994z"/><path fill="#ffede8" d="M275.365 252.048l-.386.163-5.563 2.327-13.062.798 15.092 27.062 12.818-9.167z"/><path fill="#304521" d="M274.551 301.096l-3.105-18.698-14.083 8.994z"/><path fill="#6b9947" d="M270.393 246.16l-2.78 8.378 16.651 18.693 8.199-12.443z"/></g></svg>