<svg xmlns="http://www.w3.org/2000/svg" viewBox="0 0 400 400"><path fill="#ffeee9" d="M250.452 343.716L247.14 370.5h-20.158l-6.837-26.784 16.769-10.549zM170.543 343.716L172.447 366h19.625l3.478-22.284L181.5 337z"/><path opacity=".1" fill="#2b2b2b" d="M130.221 387.375l80.809-12.5 74.024 14.94-74.496 10.06z"/><path fill="#3f8f6f" d="M170.543 343.716l59.633-87.614 19.18-16.407 12.198 25.594-11.102 78.427z"/><path fill="#709d53" d="M179.819 152.226l-16.569 6.024-26.75 64.417 34.953 18.18z"/><path fill="#5a753d" d="M159.764 209.476l13.338 31.371 23.521 3.903 23.522-3.903 17.677-12.698 6.29-32.908z"/><path fill="#44622d" d="M237.822 228.149l6.29-32.908-45.747 8.811v36.795h21.78z"/><path fill="#36785d" d="M160.455 260.603l10.088 83.113 82.399-96.495-3.586-7.526L204 253.834z"/><path fill="#54b08b" d="M220.145 252.766h-46.622l-.421-11.919h47.043z"/><path fill="#feeee9" d="M145.304 53.503l-3.887 26.163 7.086 22.483 1.301 19.762 15.5 13.992 38.721-1.744 21.64-16.523-9.871-65.428L173.5 41.537z"/><path fill="#cea39f" d="M184.076 134.92l19.949-.761 13.842-5.78 6.102 4.917-20.139 29.642z"/><path fill="#efd0cb" d="M215.794 52.208l39.99 18.83-18.483 65.988-33.471 25.912 20.139-29.642-19.944.863 12.023-14.305z"/><path fill="#738d57" d="M148.429 102.154l-41.528-28.699 20.764-57.697 93.917 10.711 50.787 25.739 20.73 37.831-49.425 24.234 12.11-43.235-39.99-18.83-70.49 1.295L135 73.045z"/><path fill="#44622d" d="M145.304 53.503l-38.403 19.952 41.528 28.699z"/><path fill="#5a753d" d="M127.665 15.758l17.639 37.745 70.49-1.295 5.788-25.739z"/><path fill="#44622d" d="M221.582 26.469l50.787 25.739-16.585 18.83-39.99-18.83zM293.099 90.039l-37.315-19.001-12.11 43.235z"/><path fill="#72c9a6" d="M158.078 19.559l92.439-3.801.797 25.779-29.732-15.068z"/><path fill="#d9e354" d="M158.078 19.559L175.113.125h44.309l24.66 15.898z"/><path fill="#e8f078" d="M175.113.125l11.261 18.271 29.42-1.21L219.422.125z"/><path fill="#737373" d="M181.202 77.299l16.542-8.508 7.686 5.831-9.07-1.879zM169.023 77.299l-13.459-7.753-7.529 6.242 7.515-2.333z"/><path fill="#fff5f3" d="M172.367 82.438h6.719l1.339 19.716h-10.106z"/><path fill="#cea39f" d="M170.319 102.154l5.053 4.556 5.053-4.556z"/><path fill="#efd0cb" d="M205.43 74.622l-25.407 21.61-.937-13.794 2.116-5.139 15.158-4.556zM148.035 75.788l22.9 20.444 1.432-13.794-3.344-5.139-13.473-3.844z"/><path d="M162.763 85.575c0 1.684-1.257 3.05-2.808 3.05-1.55 0-2.807-1.366-2.807-3.05 0-1.685 1.257-3.05 2.807-3.05 1.551 0 2.808 1.365 2.808 3.05z" fill="#2b2b2b"/><path fill="#efd0cb" d="M194.054 91.125l5.821 2.25 6.667-.25-6.333 3.666zM150.221 93.375l3.083-.574 3.844-2.532-3.636 5.065z"/><path fill="#738d57" d="M163.3 116.938l9.989 2.916h8.041l11.813-4.073-15.688-.364z"/><path fill="#446125" d="M163.3 116.938l14.315-.534 15.528-.623-13.095-3.054-2.676 1.357-2.169-1.16z"/><path fill="#efd0cb" d="M190.361 111.927l5.807 8.146.41-5.581zM164.553 112.212l-2.62 8.385-1.978-6.032z"/><path fill="#feeee9" d="M239.203 73.455l-7.99 26.042 15.217 4.935 7.056-25.189z"/><path fill="#737373" d="M215.794 52.208l19.995 32.37 3.414-11.123 14.283 5.788 2.298-8.205z"/><path fill="#cea39f" d="M238.821 90.412l10.406-7.887-6.877-2.43zM231.213 99.497l12.461 14.776 2.756-9.841z"/><path fill="#72c9a6" d="M237.467 106.015l-1.341-4.925 4.183-3.109 4.628 1.475 1.493 4.976-4.161 3.141z"/><path fill="#99c26d" d="M237.71 135.565l6.402 59.676-45.747 8.811-38.601 5.424 16.244-44.983 13.189-20.849 14.633 19.294z"/><path fill="#709d53" d="M263.866 170.584l-17.436-19.751-42.6 12.105-5.465 41.114 41.135 5.736z"/><path fill="#44622d" d="M177.499 249.311l-14.64 7.536-26.359-34.18 23.264-13.191z"/><path fill="#efd0cb" d="M203.83 162.938l-14.016-19.879 8.551 60.993 39.345-68.487-9.12 2.67z"/><path fill="#54b08b" d="M246.43 150.833l-1.159 9.855-18.781 10.973 3.592 11.92-31.717 20.471 39.345-68.487zM189.814 143.059l-9.995 9.167-3.811 12.267 9.274 6.909-5.383 6.306 18.466 26.344z"/><path fill="#b8c745" d="M193.936 172.464h22.576l-18.147 31.588z"/><path fill="#4f5253" d="M239.203 73.455l16.581-2.417-2.298 8.205z"/><path fill="#e8f078" d="M160.455 260.603l10.088 2.527 6.956-13.819-3.768-8.464zM220.145 240.847l12.834 19.519-12.834 1.21-9.068-15.418z"/><path fill="#99c26d" d="M208.22 215.064l-2.92 1.388-2.612-1.942.307-3.333 2.919-1.389 2.614 1.943zM208.22 230.093l-2.92 1.388-2.612-1.943.307-3.333 2.919-1.388 2.614 1.944z"/><path fill="#b8c745" d="M219.422.125l-3.628 17.061 28.288-1.163z"/><path fill="#44622d" d="M247.14 370.5l5.134 17.422h-30.72l5.428-17.422z"/><path fill="#446125" d="M192.404 272.459h5.961v27.467h-5.961zM222.246 269.483l-4.354 4.247-11.388-12.704 4.573-4.179z"/><path fill="#446125" d="M223.077 282.195h-6.691l-.289-12.474 6.076-.221z"/><path fill="#709d53" d="M221.554 387.922h30.721v3.787h-30.721zM156.35 381.029h36.704v3.787H156.35z"/><path fill="#44622d" d="M192.072 366l-.683 15.029H156.35L172.447 366z"/><path fill="#cea39f" d="M250.452 343.716h-30.307l1.872 7.332z"/><path fill="#446125" d="M182.55 295.952l5.382-6.824 5.382 7.343zM197.305 295.952l5.381-6.824 5.384 7.343z"/><path fill="#cea39f" d="M170.543 343.716L187.932 350l7.618-6.284z"/><path fill="#d9e354" d="M189.232 366h8.929l4.527-56.375-.844-13.5-6.294-6.564-6.79 6.391-2.934 12.173zM177.499 249.311l26.331 1.294-11.426 26.345-21.861-13.82z"/><path fill="#99c26d" d="M266.75 156.25v68.567h-22.638l-4.612-15.029 6.93-58.955z"/><path fill="#709d53" d="M239.5 209.788l-19.355 31.059 10.031 15.255 36.574-31.285z"/><path fill="#d9e354" d="M211.077 246.158l-7.247 4.447 1.16 29.498 15.155-18.527z"/><path fill="#b8c745" d="M203.83 250.605l11.497 16.86-10.337 12.638-12.586-3.153z"/><path fill="#efd0cb" d="M145.304 53.503l.603 9.395 69.887-10.69z"/><path fill="#35785d" d="M189.232 366l2.488 25.709h3.849L198.161 366z"/><path fill="#e8f078" d="M188.76 295.952l.472 70.048-9.415-74.711z"/><path fill="#b8c745" d="M201.844 296.125L198.161 366l11.798-75.403z"/><path d="M163.166 85.575c0 1.773-1.437 3.211-3.211 3.211-1.773 0-3.211-1.438-3.211-3.211s1.438-3.211 3.211-3.211c1.774 0 3.211 1.438 3.211 3.211zM195.167 84.933c0 1.773-1.438 3.211-3.211 3.211s-3.211-1.438-3.211-3.211 1.438-3.211 3.211-3.211 3.211 1.438 3.211 3.211z" fill="#2b2b2b"/></svg>