<svg xmlns="http://www.w3.org/2000/svg" viewBox="0 0 400 400"><path opacity=".1" fill-rule="evenodd" clip-rule="evenodd" fill="#2b2b2b" d="M103.301 387.844l109.608-14.776 97.756 16.353L207.529 400z"/><path fill-rule="evenodd" clip-rule="evenodd" fill="#efd0cb" d="M277.924 327.808v12.343l-9.755 6.171-19.915-3.099-2.646-8.786 21.478-11.213zM194.194 329.726l-6.263 12.012-18.132 2.468-10.735-7.934v-15.164l25.741 2.116z"/><path fill-rule="evenodd" clip-rule="evenodd" fill="#cea39f" d="M277.924 327.808l-29.67 15.415-4.651-8.374 23.483-11.625zM187.931 341.738l-28.867-20.63 25.741 2.116 9.389 6.502z"/><path fill-rule="evenodd" clip-rule="evenodd" fill="#c4c4c4" d="M248.254 343.223l29.67-3.072v22.344l-7.768 2.314-11.834-2.314zM187.931 341.738l-28.867-5.466-1.057 20.857 7.002 4.408 14.581-1.235z"/><path fill-rule="evenodd" clip-rule="evenodd" fill="#686868" d="M258.322 362.495l-14.561 23.146 1.624 4.1 28.291 2.777 7.421-6.876-3.173-23.147z"/><path fill-rule="evenodd" clip-rule="evenodd" fill="#474747" d="M243.761 385.642h37.336v6.876h-37.336z"/><path fill-rule="evenodd" clip-rule="evenodd" fill="#686868" d="M158.007 357.129l-32.385 21.056 3.929 3.967 23.172.662 13.631-4.629 7.173 2.777 6.063-2.777v-17.883z"/><path fill-rule="evenodd" clip-rule="evenodd" fill="#474747" d="M166.354 378.185h13.237v6.612h-13.237zM125.622 384.797h26.089l14.643-6.612h-40.732z"/><path fill-rule="evenodd" clip-rule="evenodd" fill="#3f8f6f" d="M182.204 252.696l-4.648 2.821-1.674 15.869-8.96 44.962 10.485 9.26 16.787 4.118 10.391-.683 7.01 4.951 16.473 4.041 8.77-4.042 8.77.444 15.657-3.211 9.975-5.617 4.336-72.913-60.153-2.468z"/><path fill-rule="evenodd" clip-rule="evenodd" fill="#35785d" d="M261.265 331.226l16.659-3.418-1.764-56.422-15.832-19.316zM243.368 251.374l-10.83-.444-4.47 1.766v85.339l17.54-3.598zM194.194 329.726l17.398 4.267-1.013-81.297-5.325-1.713-13.172.979zM177.412 325.609l-1.782-53.479-16.566 48.978z"/><path opacity=".5" fill-rule="evenodd" clip-rule="evenodd" fill="#72c9a6" d="M277.121 302.122l-112.373 2.183-5.684 16.803 118.566-2.705zM169.561 290.076h107.183l-.584-18.69H175.882z"/><path fill-rule="evenodd" clip-rule="evenodd" fill="#a0cf7e" d="M236.248 271.386l-37.665 18.69-3.919-11.123-14.405-20.507 1.945-5.75 16.233 23.619 1.629 7.502 35.169-17.224z"/><path opacity=".2" fill-rule="evenodd" clip-rule="evenodd" fill="#2b2b2b" d="M232.403 290.076l-26.627 38.085-27.022-38.085 27.022 23.451z"/><path fill-rule="evenodd" clip-rule="evenodd" fill="#c4c4c4" d="M178.754 290.076l11.549-8.074 15.275-6.737 15.674 7.067 11.151 7.744-26.734 30.022z"/><path fill-rule="evenodd" clip-rule="evenodd" fill="#9b9b9b" d="M190.303 282.002l6.337 5.384 8.938-6.038 8.071 6.157 7.6-5.175-15.761-10.944z"/><path fill-rule="evenodd" clip-rule="evenodd" fill="#8e8e8e" d="M213.649 287.505l3.129 10.77h-6.199zM205.549 294.131l3.129 10.77h-6.199zM196.64 287.386l3.158 10.889h-6.458z"/><path fill-rule="evenodd" clip-rule="evenodd" fill="#5a753d" d="M152.614 158.954l-27.81 36.95 29.925 18.014 15.896-25.391zM278.184 155.74l32.515 60.342-41.084 4.624z"/><path fill-rule="evenodd" clip-rule="evenodd" fill="#39511e" d="M310.699 216.082l-34.384 46.463-6.7-41.839 3.057-11.36z"/><path fill-rule="evenodd" clip-rule="evenodd" fill="#709d53" d="M182.204 149.375l-4.648 56.189 4.648 47.132h45.864l13.367-47.132 4.283-60.237z"/><path fill-rule="evenodd" clip-rule="evenodd" fill="#f7f7f7" d="M182.204 149.375l25.705 80.588 37.809-84.636z"/><path fill-rule="evenodd" clip-rule="evenodd" fill="#ffeee9" d="M125.747 37.659l6.366 67.256 15.489 24.19 22.417 3.451 38.213 11.289 38.403-1.592 12.169-70.713-23.516-59.27L196.569.053l-51.994 16.81z"/><path fill-rule="evenodd" clip-rule="evenodd" fill="#efd0cb" d="M235.288 12.27l-27.72 16.874 8.344 98.849-31.006 6.664 24.582 26.789 36.23-16.119 6.542-38.038-1.623-12.246 4.918-6.111 4.381-27.024zM192.776 55.059l-26.929 32.95-34.895-29.247 10.999-4.814 11.379 3.333 11.379-1.018 12.895-4.166z"/><path fill-rule="evenodd" clip-rule="evenodd" fill="#e2e2e2" d="M132.113 104.915l24.421-15.983 10.83-.923 46.141 11.461 5.821 15.935-2.275 18.882-47.032-1.731-26.446 2.828z"/><path fill-rule="evenodd" clip-rule="evenodd" fill="#ccc" d="M213.505 99.47l20.455-36.387-8.534-25.146 9.862-25.667 15.376 4.799 9.272 44.839-18.499 1.332-12.028 62.994-22.909 4.016z"/><path fill-rule="evenodd" clip-rule="evenodd" fill="#939393" d="M192.776 55.059l.19-4.072-14.698-3.517-14.507 3.795.948 4.998 12.895-3.055zM153.33 57.281v-5.415l-10.999-2.36-12.518 6.11 1.139 3.146 12.137-3.703z"/><path fill-rule="evenodd" clip-rule="evenodd" fill="#fff5f3" d="M164.709 56.263l-.948 14.997 3.603 16.749-10.83.923V72.597l-3.204-15.316z"/><path opacity=".3" fill-rule="evenodd" clip-rule="evenodd" fill="#2b2b2b" d="M167.364 88.009l-5.026 7.034-5.804-6.111z"/><ellipse cx="178.353" cy="63.646" rx="3.863" ry="3.771" fill-rule="evenodd" clip-rule="evenodd" fill="#2b2b2b"/><ellipse cx="143.672" cy="66.702" rx="4.053" ry="3.956" fill-rule="evenodd" clip-rule="evenodd" fill="#2b2b2b"/><path fill-rule="evenodd" clip-rule="evenodd" fill="#cea39f" d="M170.019 132.556l59.39-6.322-19.921 35.212-27.284-12.071zM255.555 88.932l-17.649-.923 14.354 19.28zM244.309 82.011l1.897-14.225h7.94z"/><path fill-rule="evenodd" clip-rule="evenodd" fill="#ffeee9" d="M147.591 105.872l16.264.463 19.628-4.05.963 2.569-1.247 10.551-11.663 1.119-6.283-4.451-5.098 5.542-8.816.845-4.094-9.707z"/><path fill-rule="evenodd" clip-rule="evenodd" fill="#cea39f" d="M145.6 104.854h18.161l21.145-3.887-.46 3.887-20.685 4.304-16.518-.409z"/><path fill-rule="evenodd" clip-rule="evenodd" fill="#4f4f4f" d="M209.488 161.446l21.752-9.678 1.053 24.73-19.39-8.637-6.661.034-16.281 8.603-1.109-24.182z"/><path fill-rule="evenodd" clip-rule="evenodd" fill="#7c7c7c" d="M204.585 182.027l4.155-3.879 3.532 3.879-3.843 3.35zM204.585 203.538l4.155-3.879 3.532 3.879-3.843 3.35z"/><path fill-rule="evenodd" clip-rule="evenodd" fill="#5a753d" d="M208.429 237.957l-5.109 5.29 5.109 5.289 5.532-5.289z"/><path fill-rule="evenodd" clip-rule="evenodd" fill="#446125" d="M245.718 145.327l32.466 10.413-2.024 115.646-32.557 18.69-15.535-37.38 13.367-47.132zM182.204 149.375l-29.59 9.579 2.115 99.208 17.129 25.122 10.346-30.588-3.631-50.063z"/><path fill-rule="evenodd" clip-rule="evenodd" fill="#5a753d" d="M245.718 145.327l14.505 38.704-9.949 13.048 22.398 12.267-44.604 43.35zM182.204 149.375l-27.475 39.505 19.148 11.814-19.148 13.224 27.475 38.778z"/><path fill-rule="evenodd" clip-rule="evenodd" fill="#446125" d="M154.729 213.918l-36.34-59.235-14.026 4.53-8.348 15.159 22.041 50.759z"/><path fill-rule="evenodd" clip-rule="evenodd" fill="#efd0cb" d="M102.991 139.436l-12.977-20.027-6.974 5.284-7.975 16.677 9.082 12.758z"/><path fill-rule="evenodd" clip-rule="evenodd" fill="#686868" d="M84.147 154.128l15.692-16.823 10.082 13.126-5.558 8.782-11.777 6.769z"/><path fill-rule="evenodd" clip-rule="evenodd" fill="#ffeee9" d="M83.04 124.693l7.443 9.912 7.088-6.308-6.708-10.135z"/><path fill-rule="evenodd" clip-rule="evenodd" fill="#fff5f3" d="M97.571 128.297l-14.482 12.855 7.087 6.513 7.205-7.724z"/><path fill-rule="evenodd" clip-rule="evenodd" fill="#efd0cb" d="M97.381 139.941l4.952 18.686 5.509-1.084 6.377-8.55-6.729-12.788-9.919-7.908z"/><path fill-rule="evenodd" clip-rule="evenodd" fill="#898989" d="M113.447 144.98L76.269 99.684l2.725-4.82 8.46-6.599 6.035 7.086 6.339 11.115 9.683 7.7 14.676 17.234-6.193 10.932z"/><path fill-rule="evenodd" clip-rule="evenodd" fill="#686868" d="M78.994 94.864l39 47.468-3.775 6.661L73.883 98.85zM93.489 95.351l-4.601 3.424 15.916 19.073 4.704-3.686z"/><path fill-rule="evenodd" clip-rule="evenodd" fill="#e2e2e2" d="M96.015 174.372l22.374-19.689-4.17-5.69-21.633 16.989z"/><path fill-rule="evenodd" clip-rule="evenodd" fill="#efd0cb" d="M167.364 88.009l14.852-1.151 6.636 6.599zM156.534 88.932l-11.992 2.594-2.97 7.198zM179.16 71.72l10.75 1.262-3.789 5.419zM148.62 73.57l-10.002 4.831 5.924 3.61z"/></svg>