<svg xmlns="http://www.w3.org/2000/svg" viewBox="0 0 400 400"><path d="M147.394 133.982l11.227 29.131 19.34.764s3.707-21.917 3.738-22.687c.03-.771-34.276-6.542-34.276-6.542l-.029-.666z" fill-rule="evenodd" clip-rule="evenodd" fill="#33302d"/><path opacity=".1" fill-rule="evenodd" clip-rule="evenodd" fill="#33302d" d="M90.907 386.937L184.615 400l87.935-12.37-88.321-9.899z"/><path fill-rule="evenodd" clip-rule="evenodd" fill="#496427" d="M198.782 364.323l-6.362 5.177 2.121 17.809 7.235.031.625-9.669z"/><path fill-rule="evenodd" clip-rule="evenodd" fill="#54712a" d="M206.394 368.065l-11.049-10.128-2.925 11.563 7.735 7.422zM210.384 379.918l12.59 4.619-.12 7.357h-25.443l-.126-6.986z"/><path fill-rule="evenodd" clip-rule="evenodd" fill="#749c46" d="M204.522 348.978l4.45 8.795 14.002 26.764-25.689.371-1.94-26.971z"/><path fill-rule="evenodd" clip-rule="evenodd" fill="#496427" d="M152.464 373.546l5.552 9.804 6.05-.057.624-16.022z"/><path fill-rule="evenodd" clip-rule="evenodd" fill="#54712a" d="M134.499 374.554l-12.601 6.051-.249 5.266 25.451-1.008 17.59-17.592z"/><path d="M151.591 351.025c-.374 1.009-5.894 7.085-5.894 7.085l-23.798 22.495 23.027-1.261 19.765-12.073-4.688-9.39-8.412-6.856z" fill-rule="evenodd" clip-rule="evenodd" fill="#749c46"/><path fill-rule="evenodd" clip-rule="evenodd" fill="#d8c19e" d="M209.106 283.137l-15.944 23.494 2.183 51.306 13.627-.164 9.457-47.73zM150.471 284.989l-4.775 24.904v48.217l14.307-.229 11.912-51.532z"/><path fill-rule="evenodd" clip-rule="evenodd" fill="#a88d6f" d="M142.726 267.753l-11.38 2.98-3.337-8.428 9.203-1.17 3.307 1.752z"/><path fill-rule="evenodd" clip-rule="evenodd" fill="#d7be9a" d="M141.991 250.984l-.277 2.786-10.368 16.963 17.413 1.729 15.106-15.776-9.356-4.372-5.542-4.618z"/><path fill-rule="evenodd" clip-rule="evenodd" fill="#f1e5d0" d="M134.292 214.291l-14.377 1.768 21.799 37.711 12.795-1.456-10.342-33.267z"/><path d="M157.516 169.99c.048-.477-12.741-6.286-12.741-6.286l-24.859 52.355 24.252 2.988 15.413-23.567-2.065-25.49z" fill-rule="evenodd" clip-rule="evenodd" fill="#d8c19e"/><path fill-rule="evenodd" clip-rule="evenodd" fill="#3d8d69" d="M164.918 252.314l-19.222 31.741v25.838l72.733.15 5.162-34.564-12.334-17.546z"/><path fill-rule="evenodd" clip-rule="evenodd" fill="#377759" d="M215.638 247.638l-15.984-15.762-43.562 14.948-10.396 37.231 77.895-8.576z"/><path fill-rule="evenodd" clip-rule="evenodd" fill="#d8c19e" d="M261.653 201.773l6.481-14.379 12.515-13.381 3.389 2.989-4.566 14.806z"/><path fill-rule="evenodd" clip-rule="evenodd" fill="#f1e5d0" d="M263.272 201.061l4.598-13.667 25.207 4.414 12.533-7.83 3.483 2.989-11.838 13.097-25.209 1.709zM219.218 169.521c.258 1.196 17.447-4.629 17.447-4.629l12.299 45.488-22.385 3.417-5.477-11.806-12.193-11.685 10.309-20.785z"/><path fill-rule="evenodd" clip-rule="evenodd" fill="#496527" d="M155.238 187.317l-12.243 11.816 13.016 42.22 5.264 3.512 48.406 1.361 6.113-4.086 4.902-40.149-14.777-11.685z"/><path fill-rule="evenodd" clip-rule="evenodd" fill="#d7d4d3" d="M156.011 241.353l.081 5.471 59.546.814.156-5.498z"/><path fill-rule="evenodd" clip-rule="evenodd" fill="#749c46" d="M152.391 169.237l-9.396 29.896 77.701 2.858-1.965-7.079 3.709-18.89z"/><path fill-rule="evenodd" clip-rule="evenodd" fill="#377759" d="M172.474 154.719l-27.7 8.985 18.649 7.668 13.632-6.423z"/><path fill-rule="evenodd" clip-rule="evenodd" fill="#56ad86" d="M189.547 166.888l-13.723-3.231-31.05.047 19.143 22.557 42.096-11.764z"/><path fill-rule="evenodd" clip-rule="evenodd" fill="#377759" d="M194.512 177.641l-18.688-13.984 15.289-9.44 18.831-.801 2.239 17.173z"/><path fill-rule="evenodd" clip-rule="evenodd" fill="#d8c19e" d="M236.665 236.587l-10.086-22.791 41.555-26.402 4.416 14.379z"/><path fill-rule="evenodd" clip-rule="evenodd" fill="#504b4a" d="M213.052 165.765l-18.54 11.876 26.184 24.35 15.045-37.099z"/><path fill-rule="evenodd" clip-rule="evenodd" fill="#33302d" d="M207.374 123.133l-6.295 5.997 1.065 25.55-7.632 22.961 41.229-12.749-2.474-31.674-17.389-19.339z"/><path d="M173.077 140.305l3.467 11.248-.366 12.253 25.966-9.126 6.582-29.645 15.332-3.938-13.459-58.58-20.29 5.206c0 .001-17.221 72.983-17.232 72.582z" fill-rule="evenodd" clip-rule="evenodd" fill="#d8c19e"/><path fill-rule="evenodd" clip-rule="evenodd" fill="#a88d6f" d="M160.673 134.399l15.505 29.408 17.826-23.4-20.927-.102 1.145-4.37z"/><path fill-rule="evenodd" clip-rule="evenodd" fill="#33302d" d="M114.615 40.158l-7.002 15.534 21.285 36.66.317-44.97z"/><path fill-rule="evenodd" clip-rule="evenodd" fill="#f1e5d0" d="M132.77 14.929l-12.282 14.417 5.938 18.036-2.774 18.931 3.911 51.802 17.639 22.292 27.875-.102 17.415-16.929 7.686-54.919-33.639-50.19z"/><path fill-rule="evenodd" clip-rule="evenodd" fill="#fff" d="M153.409 114.865l10.402.067 12.395-.802-20.631 9.246-15.503-9.513 9.825 1.036z"/><path fill-rule="evenodd" clip-rule="evenodd" fill="#d8c09d" d="M137.247 66.979l-8.988 1.182 13.25 10.08 7.132 23.221 6.808-9.41 4.997 9.511 12.306-22.258 15.232-10.447-9.376-2.436-14.963 5.579-5.393 6.035-2.336 3.937-2.52-3.987-4.022-5.991z"/><path fill-rule="evenodd" clip-rule="evenodd" fill="#ab8f72" d="M152.027 97.892l-3.386 3.57 5.856 3.772 5.949-3.671z"/><path fill-rule="evenodd" clip-rule="evenodd" fill="#504b4a" d="M227.411 81.271l-27.615 2.324 8.93 41.44 24.541 8.183-2.653-30.188z"/><path fill-rule="evenodd" clip-rule="evenodd" fill="#33302d" d="M207.522 59.646l-9.344 8.811 1.618 15.138 30.818 19.435 6.742-35.975z"/><path fill-rule="evenodd" clip-rule="evenodd" fill="#504b4a" d="M170.145 32.682l-13.377 14.7 41.41 21.075 39.178-1.402-3.406-28.766z"/><path fill-rule="evenodd" clip-rule="evenodd" fill="#787677" d="M126.895 18.666l-10.019.825-9.263 36.201 18.813-8.31 7.229-14.7z"/><path fill-rule="evenodd" clip-rule="evenodd" fill="#504b4a" d="M157.063 17.064l3.606-12.125-14.699-.354-29.094 14.906 16.779 13.191z"/><path fill-rule="evenodd" clip-rule="evenodd" fill="#787677" d="M133.655 32.682l23.113 14.7 77.182-9.093-26.295-27.231L164.807.001z"/><path fill-rule="evenodd" clip-rule="evenodd" fill="#33302d" d="M148.009 68.727l-11.106-3.311-8.644 2.745 8.343.091 12.772 3.743zM165.509 68.889l13.61-3.128 8.865 3.097-9.008-.333-15.331 3.476z"/><path fill-rule="evenodd" clip-rule="evenodd" fill="#fff6e4" d="M153.396 77.986l-4.755 23.476 11.805.101-2.194-23.527z"/><path fill-rule="evenodd" clip-rule="evenodd" fill="#6c993a" d="M139.811 113.672l12.845 11.951h7.315l16.235-11.493-3.396 1.172-13.598 5.875-5.818-.006-10.661-5.884z"/><path fill-rule="evenodd" clip-rule="evenodd" fill="#54712a" d="M155.662 116.466l18.648-1.265 1.896-1.071-8.245-.209-9.155-.964-2.954.715-3.012-.764-7.286.776-5.743-.012 1.719 1.599z"/><path fill-rule="evenodd" clip-rule="evenodd" fill="#d7be9a" d="M130.096 106.644l6.221 3.276.294 8.699zM190.492 104.704l-10.399 14.943-.001-8.777z"/><path d="M175.843 77.957c0 1.556-1.936 2.818-4.323 2.818-2.388 0-4.322-1.262-4.322-2.818 0-1.557 1.934-2.818 4.322-2.818 2.387 0 4.323 1.261 4.323 2.818zM146.093 77.957c0 1.556-1.856 2.818-4.146 2.818s-4.146-1.262-4.146-2.818c0-1.557 1.855-2.818 4.146-2.818 2.289 0 4.146 1.261 4.146 2.818z" fill-rule="evenodd" clip-rule="evenodd" fill="#32302c"/><path fill-rule="evenodd" clip-rule="evenodd" fill="#a68867" d="M218.429 310.043l-24.813 7.268-.454-7.324zM171.075 309.984l-25.379-.091 23.818 6.844z"/><path fill="none" d="M145.696 284.055v72.167"/></svg>