<svg xmlns="http://www.w3.org/2000/svg" viewBox="0 0 400 400"><g fill-rule="evenodd" clip-rule="evenodd"><path fill="#6e874a" d="M172.533 195.017l-8.496.522-24.666-2.752-10.7 13.512 8.984 7.369 32.419 7.222z"/><path opacity=".102" fill="#2b2b2b" d="M134.066 387.706l91.036 12.794 85.74-12.721-82.822-7.662z"/><path d="M236.944 387.783c-.19.142-7.275 3.251-7.275 3.251l.772 3.077 27.76-.252.487-3.109-21.744-2.967z" fill="#425c2e"/><path fill="#f0d1cc" d="M115.517 207.819l-7.428 5.434-12.158-11.506 3.168-18.97 9.165 9.575z"/><path fill="#4d4d4f" d="M109.431 170.061l-2.325-3.54-19.948 13.081 6.385 1.88 12.624-9.685z"/><path fill="#3b3d3d" d="M112.333 221.955l-2.823 3.804 1.953 16.579 7.846-1.069-4.953-15.661z"/><path fill="#f0d1cc" d="M132.081 202.548l-6.818 7.499-17.174 3.206.175-20.901 14.654-2.168z"/><path fill="#4d4d4f" d="M106.163 195.577l-5.611 16.506 8.958 13.676 4.846-.151 8.347-15.082-7.544-15.816-4.747-13.661z"/><path fill="#3b3d3d" d="M99.099 182.777l7.064 12.8 8.996-.867 6.564-12.931-9.973-15.038-4.644-.22z"/><path fill="#ffede8" d="M132.64 197.413l-5.526-6.796-5.391-8.838-5.019 1.459 8.559 26.809z"/><path fill="#d9e04d" d="M139.371 192.787l-12.257-2.17-1.851 19.43 12.392 3.621z"/><path fill="#544538" d="M272.711 147.066l18.086-2.38 2.113 20.988-10.315 18.717-53.084-18.467zM193.942 144.633l-4.422 7.495 3.213 13.681 12.031-2.611 15.561-10.756s-11.425-9.303-11.412-10.313c.012-1.009-14.971 2.504-14.971 2.504"/><path d="M204.67 162.785c.171 1.302-8.769-4.908-8.769-4.908l-31.864 37.662 6.038 25.351 28.245-18.655 6.35-39.45z" fill="#3b5929"/><path fill="#544538" d="M187.329 135.204l3.691 14.66 12.313 6.45 8.949 7.6-.902-26.231-16.038-3.066z"/><path fill="#61544a" d="M176.409 136.346l-1.726 4.851 14.874 11.085 6.344 5.595 2.402 2.463 5.03-4.028-13.522-15.39z"/><path fill="#8c7a6e" d="M177.077 117.894l-2.394 23.303 10.573-.321-4.409-22.393z"/><path fill="#4f7033" d="M242.582 376.842l-6.475-3.325-6.438 17.517 29.02-.28-5.341-17.847z"/><path fill="#3b4d2b" d="M207.759 376.554l9.12 12.452 4.499-.723-1.142-15.778z"/><path d="M177.061 381.813c-.039-.414-4.185 3.702-4.185 3.702l-.541 3.431 29.033 1.166 18.96-13.546-.093-4.061-23.898 11.128-19.276-1.82z" fill="#425c2e"/><path fill="#4f7033" d="M193.105 372.94l-8.204 6.043-11.1.724-.924 5.808 27.627 1.012 19.732-14.022-1.28-10.405z"/><path fill="#ffede8" d="M236.924 321.771l-3.337 6.502 4.931 38.452-2.411 6.792 2.674 10.969 11.173-.093 3.394-11.486-1.625-6.328 7.913-47.341z"/><path fill="#cfa39e" d="M231.844 314.251l1.743 14.022 26.049-9.035z"/><path fill="#ffede8" d="M212.619 319.6l-16.458-3.593 8.476 45.659-19.736 17.317 11.758-.841 22.297-16.042 2.512-34.55z"/><path fill="#cfa39e" d="M205.365 307.456l-9.204 8.551 25.307 11.543 2.178-19.947z"/><path d="M198.327 200.491s-.219 49.897.801 50.23c1.018.334 36.869-.711 36.13.146-.744.854 7.759-59.626 7.759-59.626l-44.69 9.25z" fill="#b5c436"/><path fill="#6e6e6e" d="M201.451 247.109l4.576-3.036 19.867.215 10.815 9.328-20.172 13.298-18.427-9.689z"/><path fill="#217354" d="M197.094 260.55l-5.659 7.473-1.878 7.93 50.777 21.171 24.017-7.445 13.127-12.937-38.595-18.863z"/><path fill="#308c69" d="M200.435 257.802l6.239 10.555-17.117 7.596 19.665 19.018 50.414 24.267 4.715-29.559-26.63-7.735 2.613-5.06-11.754-7.95 5.08-15.464-30.616-1.013z"/><path fill="#217354" d="M189.557 275.953l6.604 40.054 63.475 3.231z"/><path fill="#3b5929" d="M238.883 218.488l-12.989 25.8 2.686 24.646 35.844.866-12.19-40.614z"/><path fill="#4f7033" d="M272.401 210.969l-6.978.215-5.353 33.901-17.704-1.443-16.472.646 20.097-46.327z"/><path fill="#3b5929" d="M198.837 236.843l9.661 7.255-1.824 24.259-15.239-.334 5.935-24.369z"/><path fill="#ebedeb" d="M275.304 280.57l-9.65 2.459-27.933-1.085 2.325-48.133 62.68 2.312-1.159 48.134-12.985-.435z"/><path fill="#ebedeb" d="M247.747 264.415l6.958-6.487 8.486 5.897-2.263 5.309-3.544-1.427-1.845 1.102z"/><path opacity=".149" fill="#1c1c1c" d="M281.189 236.871l-10.149-1.919-3.796-.138-1.504 25.39-8.356 7.503 8.014-1.773-5.839 6.471 6.095 10.624 19.815-7.567z"/><path fill="#f0d1cc" d="M278.567 272.767l10.015 11.055-8.999 6.653-15.232-.796 1.303-6.65zM273.418 265.683l-3.699-6.214-12.335 8.238 2.175 4.698 12.623-1.662z"/><path fill="#ffede8" d="M280.673 255.852l9.229 7.591-1.32 20.379-22.928-.793 4.065-23.56z"/><path fill="#d9e04d" d="M279.006 242.122l-8.564 7.368-.723 9.979 20.183 3.974 1.147-10.733z"/><path fill="#6e874a" d="M277.697 212.489l-6.238 12.286-1.017 24.715 20.607 3.22 3.914-35.165z"/><path fill="#3b5929" d="M261.302 170.712l11.791-11.797 21.87 58.63-23.504 7.23-6.036-13.591-7.605-27.751z"/><path fill="#4f7033" d="M186.067 195.502l-3.889 7.561 15.192 40.591 11.128.444-11.693-46.281z"/><path fill="#6e874a" d="M247.711 173.134l5.113 37.998 12.599.052 7.67-52.269-18.615-12.199zM210.733 159.438l-7.4-3.124-5.766 1.211-1.666.352-13.723 45.186 7.732 1.329 21.982-31.512z"/><path fill="#d9e04d" d="M200.646 194.852l2.219 13.028 31.767 2.158 7.223-10.992 7.413-47.796-38.364 3.782-6.482 13.802z"/><path fill="#e6e875" d="M247.369 161.898l5.479-15.903-24.943 3.68-17.005 5.359-4.121 8.779 13.819 25z"/><path fill="#99c266" d="M203.333 156.314l-13.423 48.078 10.635 8.223 2.32-4.735 8.035-52.846-5.149.87z"/><path fill="#85a861" d="M189.91 204.392l18.588 39.706-5.633-36.218z"/><path fill="#99c266" d="M257.741 153.928l-2.271-9.008-6.206 6.33-14.653 58.699 2.76 11.177 15.453-9.994z"/><path fill="#85a861" d="M234.632 210.038l-8.738 34.25 26.93-33.156-18.505-1.115z"/><path fill="#f0d1cc" d="M265.065 137.1l-15.801 14.15-26.459 23.051-11.905-19.267 15.205-100.586 20.423-12.376 23.33 50.879z"/><path fill="#8c7a6e" d="M274.49 129.808l-16.744 24.12 15.347 4.987 17.704-14.229z"/><path fill="#61544a" d="M260.668 111.759l-4.495 4.948-6.909 34.543 8.477 2.678 14.941-14.174 7.267-25.134z"/><path fill="#544538" d="M289.887 115l10.367 7.515-9.457 22.171-11.908-7.29-4.399-22.985z"/><path fill="#8c7a6e" d="M277.002 91.87l10.535 5.396 12.717 25.249-24.662-1.032-12.88-27.448z"/><path fill="#544538" d="M274.49 108.371l7.699.736-3.3 28.289-21.148 16.532 16.749-30.38zM272.764 77.58l22.028 1.987-7.255 17.699-23.414 2.412-5.971-23.868z"/><path fill="#706154" d="M266.321 81.998l3.772 4.79 12.096 22.319-7.699 14.441-19.321-21.511-1.057-17.911z"/><path fill="#544538" d="M251.869 86.123l-6.305 13.542 10.609 17.042 18.317 6.841-14.452-26.89z"/><path fill="#706154" d="M266.479 51.65l13.019 10.655 15.294 17.262-23.366 9.684-20.028-26.847z"/><path fill="#8c7a6e" d="M252.34 80.378l7.698 16.28 11.388-7.407-8.323-19.481z"/><path fill="#544538" d="M253.047 64.761l-6.58 7.657-.903 27.247 14.474-3.007 3.065-26.888z"/><path fill="#8c7a6e" d="M255.876 41.631L238.907 30.58l-4.084 12.965 3.686 9.005 7.958 19.868 16.636-2.648z"/><path fill="#544538" d="M256.348 24.687h14.924l8.226 37.618-16.395 7.465-22.935-29.76z"/><path fill="#8c7a6e" d="M240.793 16.583l16.497 1.77 13.982 6.334-31.104 15.323-34.405 1.178 8.17-13.995z"/><path fill="#544538" d="M204.975 46.049l14.842-10.957 20.351 4.918-1.659 12.54z"/><path fill="#706154" d="M209.689 28.223l10.128 6.869 37.473-16.739L235.526 1.5l-31.335 15.82z"/><path fill="#544538" d="M218.956 45.021l.861-9.929-6.913-18.269-37.961 18.976 28.621 15.702z"/><path fill="#cfa39e" d="M199.788 135.921l23.017 38.38 17.322-32.734-16.636-.293z"/><path fill="#ffede8" d="M165.147 55.718l-2.2 13.554 4.337 39.254 17.972 32.35 38.235.398 12.287-36.607 2.731-52.117-18.692-17.458-29.064-.736z"/><path d="M170.682 45.309l-7.308 28.643 39.561-34.973 16.883-3.89s-28.422-4.282-29.137-5.542c-.716-1.257-19.999 15.762-19.999 15.762" fill="#cfa39e"/><path fill="#699c47" d="M191.087 117.725l-5.576 1.888 11.979 6.511 11.365-6.596z"/><path fill="#f0d1cc" d="M177.047 68.368l-10.799 5.03 16.936 8.541 8.626 15.646 4.404-6.231 4.753 10.11 15.404-20.259 16.875-9.872-12.526-4.363-17.241 6.722-4.487 5.866-3.8 4.06-.669-4.032-4.712-5.747z"/><path d="M195.23 96.233c-.395.294-4.005 5.23-4.005 5.23l5.42 3.831 4.322-3.831-5.737-5.23z" fill="#cfa39e"/><path fill="#8c7a6e" d="M169.231 46.289l-18.222 1.473 24.508-34.475L235.526 1.5l-22.622 15.323z"/><path fill="#706154" d="M212.904 16.823l-49.53 57.13-12.365-26.191z"/><path fill="#fff5f2" d="M194.523 79.586l-3.298 21.878h9.742l-1.975-21.906z"/><path fill="#544538" d="M190.126 70.23l-13.276-2.8-10.602 5.968 10.525-3.243 13.038 3.684zM203.243 69.419l18.302-3.463 11.701 5.377-11.929-2.361-17.838 4.72z"/><path fill="#4f7033" d="M180.444 116.216l5.382 1.621 10.595-3.591 12.801 3.13 6.19-2.051-6.557 4.203-23.344.085z"/><path fill="#fff" d="M109.793 173.171l-4.789 9.035 5.296 6.937 4.28-6.649zM110.953 202.369l-3.859 8.389 4.584 7.514 4.934-8.242z"/><path d="M216.371 75.005c2.45 0 4.439 1.985 4.439 4.438 0 2.451-1.988 4.438-4.439 4.438s-4.438-1.987-4.438-4.438c0-2.452 1.987-4.438 4.438-4.438M181.938 75.786c2.453 0 4.438 1.985 4.438 4.438 0 2.451-1.986 4.438-4.438 4.438-2.451 0-4.438-1.987-4.438-4.438 0-2.453 1.987-4.438 4.438-4.438" fill="#2b2b2b"/></g></svg>