<svg xmlns="http://www.w3.org/2000/svg" viewBox="0 0 400 400"><path fill="#2c2b2b" fill-opacity=".102" d="M129.706 377.648l135.501 21.197 105.889-18.896-110.838-11.264z"/><path fill="#9e7f79" d="M151.711 237.747l15.595.122-7.984 11.142-17.77 1.457-2.532-9.937zM132.245 238.959l15.838-13.566 6.524 4.845-13.534 8.721z"/><path d="M69.15 233.99l5.315-3.631 40.011 10.055s-24.05 15.744-24.05 14.896c0-.846-21.153-21.319-21.153-21.319h-.123z" fill="#207455"/><path fill="#308b69" d="M75.317 241.865l-.852-2.546v-8.96l-44.36 10.9 20.067 15.628z"/><path d="M88.486 243.683l-2.897-2.664-11.124-3.755-11.725 5.813s9.194 7.023 10.037 6.902c.844-.118 15.709-6.175 15.709-6.175v-.121z" fill="#bcda89"/><path fill="#6e884a" d="M80.389 247.439l.243-4.362 6.653-2.785 14.987 4.358-8.341 9.691-10.881.605z"/><path fill="#98c166" d="M70.481 245.86l2.175-2.783h7.976l9.794 7.753-18.492 6.662z"/><path fill="#507033" d="M59.235 246.951l-.843-6.053 14.264 2.179 1.688 11.264-10.995.845z"/><path fill="#699b47" d="M48.476 249.617l9.916-8.719 11.724 12.232z"/><path fill="#46af85" d="M89.338 259.427l-14.994-5.086-44.239-13.082 2.297 15.262 42.063 14.415zM114.476 240.414l16.925-4.24 4.35-4.603 18.856-1.333 5.566 4.845-2.661 6.66-45.09 10.659z"/><path fill="#557c40" d="M192.2 208.07l-11.36 4.724-17.161 11.387 1.444 13.566 6.289 7.996 34.449-9.448z"/><path fill="#699b47" d="M163.679 224.181l-9.072 6.057 4.715 18.773 12.09-3.268z"/><path fill="#3a592a" d="M213.716 160.346l-1.81-6.052-6.775 2.906-24.291 55.594 25.021 23.501z"/><path fill="#207455" d="M282.254 374.741l-11.723 8.599.722 4.601 35.538.366.124-4.484z"/><path fill="#33916e" d="M287.091 353.784l-6.767 8.36-9.793 21.196 36.384.483-5.203-21.315z"/><path fill="#c3a39f" d="M296.641 327.984l10.873.364-5.802 34.16-21.388-.364-6.532-24.348z"/><path fill="#9e7f79" d="M280.202 316.48l-10.638 6.054 4.228 15.262 33.722-9.448z"/><path fill="#207455" d="M204.652 365.655l-20.907 11.265.357 3.996 47.992.122v-4.24z"/><path fill="#33916e" d="M216.013 351.849l-8.585 5.935-23.683 19.136 48.349-.122-.851-18.29z"/><path fill="#c3a39f" d="M228.703 297.702l-24.537 27.377 3.262 32.705 23.815.724 7.253-23.498z"/><path fill="#9e7f79" d="M211.663 315.147l-7.497 9.932 34.33 9.931 2.539-8.72 6.403-15.14z"/><path fill="#3a592a" d="M311.141 256.521l9.071 8.358-12.698 63.469-103.348-3.269-1.566-17.684 75.663-55.959z"/><path fill="#507033" d="M316.829 247.679l3.383 17.2-42.55 1.212-4.235-25.799z"/><path fill="#b5c436" d="M214.682 232.178l-8.821 4.117-6.764 23.617 3.503 47.483 98.146 2.421 3.627-59.47-33.12-49.907z"/><path fill="#dddddc" d="M226.17 262.456l-7.01-7.146-14.63 3.876.723 4.481 1.453.605-.966 2.302.6 4.241 1.452.727-.964 2.18.722 4.601 1.816.971-1.208 2.424.6 3.997 14.995-1.578z"/><path d="M205.253 263.667l.487 2.907 11.847-3.391-12.212.483h-.122zm1.209 7.148l.487 2.907 11.002-3.15-11.489.243zm1.208 7.508l.609 3.395 8.941-2.911 1.453-.483H207.67z" fill="#cdcccb"/><path fill="#eaeceb" d="M243.09 263.789l-3.019 5.209-16.318 15.139-4.593-28.827 20.059 7.63z"/><path fill="#dddddc" d="M273.55 258.581l-6.648 6.42-26.831 3.997-.852-6.058 32.642-7.147z"/><path d="M313.682 202.135l4.592 25.559s-20.188 9.931-20.545 9.326c-.365-.606-10.882-37.064-10.882-37.064l25.625-2.179 1.088 4.48.122-.122z" fill="#507033"/><path fill="#3a592a" d="M324.439 219.578l9.916-18.533-23.214-50.87-9.549-3.151-13.657 48.935 15.96 18.413 16.196 11.021z"/><path fill="#d8e14d" d="M278.75 245.016l-10.76-9.448-62.129.727-6.531-31.738 58.867-5.813 45.333 6.057.965 26.888-23.692 15.75z"/><path fill="#c3a39f" d="M286.969 243.683l-18.979-8.115-1.088 29.433 21.642 2.179z"/><path fill="#e2c6c3" d="M299.538 235.808l-5.559-.725-25.989.485 20.554 31.612 10.751-8.964z"/><path fill="#c3a39f" d="M299.538 235.808l-5.559-.725 5.316 23.133 4.836-3.996z"/><path fill="#e6e976" d="M230.033 160.346l-8.699-9.57-9.428 3.518-12.576 50.263 104.2.244-1.938-57.777-12.447-3.756z"/><path fill="#507033" d="M228.581 152.837l-7.247-2.061-1.574 40.699h64.792l4.593-48.207z"/><path d="M283.707 143.028c.122 1.089 5.438.239 5.438.239l-13.656 33.795-30.226-7.147-20.909 6.18-3.14-25.437 24.049-6.542 38.322-1.211.122.123z" fill="#4b6632"/><path fill="#699b47" d="M251.065 151.143l-6.037 17.078 25.137 3.875 18.98-28.828-4.472-6.297z"/><path fill="#699b47" d="M229.555 141.21l-8.221 9.566 4.836 20.474 18.858-3.029z"/><path fill="#9e7f79" d="M277.784 131.763l-18.977 16.351-13.779 20.107-30.825-40.82 50.161-.606z"/><path fill="#c3a39f" d="M282.5 120.62l3.982 7.508-1.809 8.843-39.645 31.25 11.238-29.071-13.055.366-10.272-78.128 29.494-11.871L282.5 84.04z"/><path fill="#9e7f79" d="M279.959 107.538l-7.133 1.817 13.656 18.773 2.54-12.354z"/><path d="M273.914 104.025l-1.088 5.33 16.318 6.419 9.671-7.997s-15.108-16.35-15.474-16.956c-.364-.606-9.307 13.204-9.307 13.204h-.12z" fill="#444648"/><path fill="#686b6d" d="M301.112 104.993l5.803 4.484 8.34-24.592-14.751 5.696z"/><path fill="#393939" d="M292.771 99.423l-1.087 8.96-2.662 7.391 17.893-6.297V92.882z"/><path d="M279.594 100.631l6.409.244 5.681 7.509L306.915 93s-17.407-13.566-18.014-13.444c-.602.122-18.127 13.204-18.127 13.204l8.82 7.871z" fill="#8b8a8a"/><path fill="#686b6d" d="M272.704 89.126l-5.434 10.297 5.556 9.932 13.177-8.603-7.375-8.236z"/><path fill="#8b8a8a" d="M301.477 65.384l4.828 5.09 8.95 14.411-18.858.606-.244-17.562z"/><path fill="#7f7f7e" d="M294.945 78.71l8.341 1.573 11.969 4.602-8.34 7.997-9.674-3.513z"/><path d="M294.224 77.133l12.081-6.781 2.904-12.961s-22.961-2.183-21.996-2.423c.965-.361 7.011 22.165 7.011 22.165z" fill="#393939"/><path fill="#444648" d="M289.866 63.205l5.444 3.269 7.976 13.809-6.045 9.086-7.133-3.028-12.446-25.681z"/><path fill="#686b6d" d="M284.794 61.75l.358 5.573 4.956 19.018-11.48 6.175-6.287-25.799 10.636-12.11z"/><path fill="#444648" d="M268.955 68.657l-1.451 5.447-.234 25.319 11.358-6.907-.601-21.559z"/><path fill="#686b6d" d="M290.353 42.854l6.167 3.878 12.568 10.781-19.457 1.936-4.715-13.928z"/><path fill="#444648" d="M288.544 25.292l7.132.727.844 20.713-10.88 4.602-1.698-14.294z"/><path fill="#8b8a8a" d="M282.376 42.736h6.28l6.654 23.738-10.272.849-2.418-7.992-16.082-24.108z"/><path d="M274.035 8.457l7.611-2.301 14.029 19.863-7.02 16.835s-27.189-23.62-27.189-22.892c-.121.727 12.691-11.383 12.691-11.383l-.122-.122z" fill="#9c9fa0"/><path d="M271.009 26.502l7.376-3.996 10.271 20.347-17.647 7.391s-9.542-13.326-9.542-14.172c0-.727 9.542-9.57 9.542-9.57z" fill="#686b6d"/><path fill="#444648" d="M266.902 9.908l7.856 2.301 3.627 10.298-10.759 3.995-24.659-3.874z"/><path fill="#8b8a8a" d="M251.673 9.786l6.289-3.874 23.684.244-6.888 6.053-21.997 7.391z"/><path fill="#444648" d="M264.364 38.979l10.515-3.874 7.741 24.226-4.593 11.626-19.709-27.132z"/><path d="M243.697 19.116l9.063.483 25.624 2.907-3.506 12.716s-35.539.728-34.564-1.09c.843-1.938 3.383-14.777 3.383-14.777v-.239z" fill="#8b8a8a"/><path fill="#393939" d="M245.871 24.202l29.008 10.903-8.219 7.509-26.468 3.752z"/><path fill="#444648" d="M249.377 8.213l3.384 11.387-3.871 16.111-32.149-14.778 15.466-15.749z"/><path fill="#393939" d="M235.233 7.485L248.89.22l9.072 5.692-5.201 13.688-13.657-7.753z"/><path fill="#8b8a8a" d="M205.861 13.665l12.448-7.269L248.89.22l-9.786 11.627-23.091 17.563-14.508-7.993z"/><path fill="#9c9fa0" d="M188.694 20.567l-3.14-7.992 23.447-7.391 9.308 1.212-10.03 14.293z"/><path d="M194.861 37.89c2.052.845-.122-15.867-.122-15.867l13.54-1.211 30.704-8.964.722 10.903-14.63 16.957-28.397-.85-1.939-1.089.122.121z" fill="#9c9fa0"/><path fill="#666665" d="M181.927 31.471l-.721-4.846 4.348-14.05 22.725 8.114-7.496 8.48z"/><path fill="#9c9fa0" d="M172.742 44.671l-4.957-2.907 13.421-15.139 19.577 2.544-9.306 22.893z"/><path fill="#393939" d="M177.579 78.95l-9.551 8.481 17.526 24.953 25.265-23.864-12.331-15.262z"/><path fill="#686b6d" d="M174.795 64.05l-.601 8.481-6.166 14.9 36.868.483-5.686-35.491z"/><path fill="#444648" d="M172.134 48.183l-8.455 8.842 10.515 15.506 25.744-11.627z"/><path fill="#7c7b7b" d="M188.694 40.191l-11.115 1.573h-9.794l-4.106 15.261 22.719 1.212z"/><path fill="#686b6d" d="M207.915 36.317l-7.132-7.148-23.204 12.595 5.436 9.932 23.691.971z"/><path fill="#8b8a8a" d="M243.09 38.374l5.8-2.663 17.77 6.903 11.367 28.343-10.523 3.147-9.307-18.53-21.388-2.784z"/><path fill="#4d4f50" d="M224.231 37.646l-6.523-3.39-16.925-5.087 3.505 13.079 17.525 13.688 8.098-5.086z"/><path fill="#393939" d="M222.901 52.062l-1.567-3.635-3.626-14.171 21.997-11.506 9.185 12.961-5.8 2.663z"/><path fill="#e2c6c3" d="M183.015 51.696l2.539 60.688 15.951 27.132h41.706l14.508-26.771.478-57.171-15.107-17.2-21.756 10.053-11.723-3.874-5.201-.728z"/><path fill="#fff" d="M216.013 110.684l12.69-.362 8.219.122-10.273 10.782-12.446.723-11.247-10.777z"/><path fill="#c3a39f" d="M198.61 64.9l-9.55 1.089 12.931 11.144L210.819 93l8.341-8.477 4.106 14.05 12.933-22.286 15.232-10.538-15.232-2.666-9.915 6.297-5.802 5.818-6.888 6.903-.121-6.663-4.228-5.33zM190.755 82.706l10.27-1.695-5.678 4.724z"/><path fill="#c3a39f" d="M235.111 80.04l13.3 1.577-8.34 2.785z"/><path fill="#9e7f79" d="M215.411 89.609l-5.443 8.964 7.74 3.513 5.558-3.513z"/><path fill="#444648" d="M209.001 66.474l-9.904-3.631-10.037 3.146 9.306-.122 10.879 4.241zM226.049 65.628l10.873-4.119 14.509 4.24-14.388-.487-10.759 4.118z"/><path fill="#eedcda" d="M213.473 75.438l-3.505 23.135h13.298l-2.784-23.375z"/><path fill="#699b47" d="M201.269 111.29l2.541-.118v.362l11.115 8.964 10.636-.244 9.918-9.57-3.627-.24 5.921-.122-10.28 13.204-13.777.606z"/><path fill="#507033" d="M201.269 111.29l16.439-2.301 20.065 1.333-3.382 1.456-15.595 1.573-13.778-.728z"/><path fill="#c3a39f" d="M208.279 99.301l-12.688 17.562 3.619-12.716zM226.284 99.058l18.744 15.626-3.506-9.691z"/><path fill="#557c40" d="M304.373 226.36l29.982-25.315 13.534 30.283-31.06 16.351-9.55-9.204z"/><path fill="#699b47" d="M293.979 235.083l10.394-8.723 12.456 21.319-12.698 6.541z"/><path fill="#308b69" d="M113.031 256.281l1.445-15.867-40.132 13.927.121 16.595z"/><path fill="#e2c6c3" d="M129.227 232.295l15.352-9.688 10.028 7.631-13.899 3.512-9.307 2.424zM129.949 257.492l-7.254-7.512 22.006-12.233 14.621 11.264z"/><path fill="#eaeaea" d="M45.336 177.909l3.027 17.2-4.602 6.908 10.038 15.989-4.592-16.235L59 188.934zM62.14 167.977l4.714 20.473-6.045 13.685 8.463 9.33-1.331 13.684 8.098-15.262-3.383-10.054 6.167-10.293zM87.164 179.726l3.862 15.383-6.767 7.752 6.288 6.664-2.061 11.265 8.228-12.96-3.749-7.509 5.193-8.24z"/><path d="M236.199 72.047c2.338 0 4.228 1.898 4.228 4.24 0 2.342-1.89 4.241-4.228 4.241-2.336 0-4.227-1.899-4.227-4.241 0-2.342 1.891-4.24 4.227-4.24zM201.991 72.897c2.337 0 4.228 1.894 4.228 4.236 0 2.342-1.891 4.24-4.228 4.24s-4.226-1.898-4.226-4.24c.001-2.342 1.889-4.236 4.226-4.236z" fill="#2b2b2b"/></svg>