<svg xmlns="http://www.w3.org/2000/svg" viewBox="0 0 400 400"><path opacity=".1" fill-rule="evenodd" clip-rule="evenodd" fill="#2b2b2b" d="M91.549 387.113L204.333 400l109.653-12.779-92.271-15.164z"/><path fill-rule="evenodd" clip-rule="evenodd" fill="#997c7c" d="M97.496 199.763l-12.954-9.301-6.311 6.645.324 6.253 10.97 1.385z"/><path fill-rule="evenodd" clip-rule="evenodd" fill="#96637c" d="M51.363 207.444l.131-6.686 10.295-1.992 1.994 5.882z"/><path fill-rule="evenodd" clip-rule="evenodd" fill="#3f8f6f" d="M68.302 204.99l-.997-7.885 10.926.002 1.321 5.256z"/><path fill-rule="evenodd" clip-rule="evenodd" fill="#35785d" d="M223.84 359.335l16.729 11.851 15.1 2.863 1.159-23.754-11.525-.99z"/><path fill-rule="evenodd" clip-rule="evenodd" fill="#54b08b" d="M223.84 359.335l-8.471 27.776 22.129 3.071 20.15-2.745-1.979-13.388z"/><path fill-rule="evenodd" clip-rule="evenodd" fill="#35785d" d="M215.369 387.111v6.142h42.279v-5.816z"/><path fill-rule="evenodd" clip-rule="evenodd" fill="#3f8f6f" d="M153.587 287.955l13.839 7.999 17.436 3.267 5.218-47.643z"/><path fill-rule="evenodd" clip-rule="evenodd" fill="#35785d" d="M153.587 287.955l-4.94 38.114 3.322 31.469 9.383 6.894 18.458 3.737 5.457-38.612-.405-30.336z"/><path fill-rule="evenodd" clip-rule="evenodd" fill="#54b08b" d="M151.969 357.538l-27.887 23.308 28.854 3.114 26.874-3.114v-12.677z"/><path fill-rule="evenodd" clip-rule="evenodd" fill="#35785d" d="M124.082 380.846h55.728v6.228h-55.728z"/><path fill-rule="evenodd" clip-rule="evenodd" fill="#709d53" d="M153.587 143.927l-27.526 50.853 7.639 17.812 19.887 20.814 5.025-48.624z"/><path fill-rule="evenodd" clip-rule="evenodd" fill="#446125" d="M306.584 233.144l-42.47 34.382-1.23-50.329z"/><path fill-rule="evenodd" clip-rule="evenodd" fill="#709d53" d="M286.143 156.881l20.441 76.263-40.708-11.958-2.142-29.397z"/><path fill-rule="evenodd" clip-rule="evenodd" fill="#5a753d" d="M192.474 176.81v22.953l-7.78 66.106-31.107 22.086V182.782zM220.89 189.764l-6.228 65.551 13.203 93.451 26.655-1.246 9.594-79.995 2.612-72.745-19.098-5.141z"/><path fill-rule="evenodd" clip-rule="evenodd" fill="#54b08b" d="M199.466 156.881l-10.61 25.901h-35.269v-38.855l26.223-3.238z"/><path fill-rule="evenodd" clip-rule="evenodd" fill="#709d53" d="M190.08 156.881l-5.386 108.988 11.769 82.897h21.411l3.933-109.147-.917-49.855 3.986-9.965-.997-10.961-14.949-10.462z"/><path fill-rule="evenodd" clip-rule="evenodd" fill="#5a753d" d="M174.074 141.397l16.006 15.484 33.799 11.957 2.823-11.957-2.823-6.975-17.434-6.981z"/><path fill-rule="evenodd" clip-rule="evenodd" fill="#446125" d="M223.879 168.838l21.424-3.985 12.289-14.947 3.155-17.438-23.107 8.221-13.761 9.217zM183.897 131.994l-9.823 9.403 37.848 6.018v-7.972z"/><path fill-rule="evenodd" clip-rule="evenodd" fill="#b29393" d="M210.996 6.473l-46.824 5.923-14.668 18.617-9.529 71.385 9.876 25.137 34.046 4.459 24.278 11.274 16.701 1.3 35.012-14.266 8.086-77.664-9.024-35.73z"/><path fill-rule="evenodd" clip-rule="evenodd" fill="#997c7c" d="M258.95 16.908l-21.44 22.003-9.391 79.322-12.997 17.454 9.131 10.975 13.445-3.411 23.049-10.783 5.24-25.348-1.548-18.377 8.643-19.728 3.354-17.693zM210.996 47.656l-6.411 25.798-12.77 6.859-18.617-2.194-9.966-9.921 2.444-26.467 15.608 8.651 12.223 1.504z"/><path fill-rule="evenodd" clip-rule="evenodd" fill="#7c6262" d="M191.815 80.313l-10.719 8.43-7.898-10.624zM157.865 97.094l6.582-.495 9.331-1.648 7.299 4.296 7.962-2.66 7.555 2.933 7.916 2.054-24.119 2.174z"/><path fill-rule="evenodd" clip-rule="evenodd" fill="#997c7c" d="M157.865 97.094l3.958 5.578 18.392 4.318 18.777.183 5.518-5.599-23.817.673z"/><path fill-rule="evenodd" clip-rule="evenodd" fill="#c4a7a7" d="M181.284 50.382l-2.624 6.735-1.077 5.96-4.385 15.042 18.617 2.194.965-16.214 1.432-6.148-.705-6.065h-5.994z"/><path fill-rule="evenodd" clip-rule="evenodd" fill="#7c6262" d="M183.897 131.994l44.209 5.046 9.593 6.21-13.82 6.656-24.413-4.472zM268.647 92.834l-15.961-2.664 13.301 16.95z"/><path fill-rule="evenodd" clip-rule="evenodd" fill="#b29393" d="M268.647 92.834l-15.961-2.664 3.761-23.506 16.635 2.351z"/><path fill-rule="evenodd" clip-rule="evenodd" fill="#7c6262" d="M258.278 85.281l2.444-12.933 7.898 1.457z"/><path fill-rule="evenodd" clip-rule="evenodd" fill="#606060" d="M181.284 50.382l1.222-5.454-15.702-6.769-1.128 3.572 5.124 5.83zM193.507 51.886v-5.641l17.291-3.009.198 4.42-9.45 4.23z"/><path fill-rule="evenodd" clip-rule="evenodd" fill="#474747" d="M193.507 51.886l-12.223-1.504-2.068 2.291 15.419 2.292z"/><path fill-rule="evenodd" clip-rule="evenodd" fill="#474747" d="M152.889 57.904l12.787-16.173 5.856 3.246.608 1.409h1.934l2.131 1.181.66 1.287 1.798.075 2.621 1.453-3.701 12.695-14.351 5.121-1.543-1.535.156-1.316-1.39.088-2.032-2.023-.386-1.653-1.992-.714zM192.78 64.099l.727-12.213 17.489-4.23v2.185l1.665.802 1.505 2.699-.138 1.929 1.511.535 5.048 9.055-16.002 8.593-2.262-1.792-.073-1.018-1.325-.09-1.633-1.294-.496-2.596-2.446.265z"/><path fill-rule="evenodd" clip-rule="evenodd" fill="#8f8f8f" d="M199.293 69.26l13.365-18.622-1.662-2.982-14.645 19.273zM202.329 71.667l13.208-15.865-1.369-2.455-13.239 17.21zM156.047 61.047l2.379 2.368 15.648-17.029-2.549-1.413zM160.456 65.436l1.234 1.228 16.97-17.737-2.449-1.357z"/><path fill-rule="evenodd" clip-rule="evenodd" fill="#c4a7a7" d="M258.95 16.908l-94.778-4.512L211.56.549z"/><path fill-rule="evenodd" clip-rule="evenodd" fill="#54b08b" d="M223.879 168.838l-2.989 20.926 45.836 5.016 19.417-37.899-28.551-6.975z"/><path fill-rule="evenodd" clip-rule="evenodd" fill="#446125" d="M153.587 287.955l-1.618 69.583-46.176-34.867z"/><path fill-rule="evenodd" clip-rule="evenodd" fill="#5a753d" d="M126.061 194.78l-28.565 4.983-2.325 12.829 5.647 9.433 52.769 11.381z"/><path fill-rule="evenodd" clip-rule="evenodd" fill="#b29393" d="M97.496 199.763l-46.133 6.684-1.696 6.145 51.151 9.433z"/><path fill-rule="evenodd" clip-rule="evenodd" fill="#618748" d="M184.694 265.869l37.113-26.251 9.047 63.311-7.014 56.406-44.03 8.834z"/><path fill-rule="evenodd" clip-rule="evenodd" fill="#4a6629" d="M264.114 267.526l-42.307-27.907 2.033 119.716 69.291-14.014z"/><path fill-rule="evenodd" clip-rule="evenodd" fill="#997c7c" d="M191.815 80.313l9.467 11.456-1.979-9.328zM173.198 78.119l-9.501 9.447 2.4-7.817z"/></svg>