<svg xmlns="http://www.w3.org/2000/svg" viewBox="-71.938 -2.979 400 400"><path d="M116.624 397.021l-79.956-21.706s80.979-11.62 78.421-11.694c-2.558 0 88.507 11.694 88.507 11.694l-86.972 21.706z" opacity=".1" fill="#2b2b2b"/><path fill="#34795e" d="M93.675 369.102l-7.016 3.874-.22 5.92 12.06 1.68 8.258-1.022-.146-7.894z"/><path fill="#3f906f" d="M106.173 356.385l-7.894 7.674-11.62 8.917 24.118 2.484 5.993-17.686z"/><path fill="#4fb189" d="M103.907 343.303l-.585 3.8-5.043 16.956 19.734 1.17 4.75-20.976-9.866-5.189z"/><path fill="#34795e" d="M125.906 356.897l5.774-4.02 4.53 9.502-1.242 24.702-3.946-.218-1.243-4.605zM109.827 375.096l-11.328 5.48-.146 7.602 30.623 1.169.803-7.089z"/><path fill="#75c7a6" d="M120.57 345.057l-4.53 6.87-17.541 28.649 31.28 1.682 1.901-29.381z"/><path fill="#34795e" d="M85.709 314.872l17.613 32.231 22.073-11.109-4.825-21.34-9.939-2.559-13.082-4.166z"/><path fill="#4fb189" d="M84.539 291.339l-5.847 11.254 7.017 12.279 24.922-2.777 9.939 2.559-2.85-22.292z"/><path d="M44.342 200.566l23.46 2.193 22.657-8.406s5.408-29.38 6.286-29.089c.876.292-.512-13.886-.512-13.886l-52.549 33.838.658 15.35z" fill="#eecfca"/><path fill="#feeeea" d="M19.566 173.596l25.653 39.175 22.583-10.012-33.473-39.54z"/><path fill="#eecfca" d="M12.111 170.307l17.906-3.507-5.773 13.959-4.678-7.163z"/><path fill="#6e7174" d="M34.768 139.685l-3.728-9.721 14.764-6.504 14.909 15.129-5.847 14.324z"/><path fill="#464647" d="M29.14 148.601l-1.388-9.501 3.288-9.136 23.826 22.949-14.544 6.724z"/><path fill="#34795e" d="M21.978 157.518l-12.206 4.896-11.694 15.933 7.674 7.601 24.338-18.929 4.532-14.106z"/><path fill="#eecfca" d="M34.622 152.913l7.162-1.9 4.166 9.063-15.86 6.943-2.265-3.8zM212.952 175.497l-4.02-7.162 20.099-13.814 4.896 1.901-11.328 16.225z"/><path fill="#feeeea" d="M206.081 185.437l2.851-17.102 31.135-3.29 15.932-10.889 2.046 3.142-10.085 12.937-24.776 7.601zM163.619 166.8l5.115-15.129 29.893 38.735-5.189 11.256-15.494 2.631-13.522-9.502z"/><path fill="#eecfca" d="M157.334 158.906l11.4-7.235-4.312 43.12-26.749-14.762zM95.064 238.059l-11.255 21.049-5.117 43.485h7.163l31.5.22-1.243-35.593z"/><path fill="#feeeea" d="M121.74 240.251l37.273 21.853-13.593 45.168-20.464 3.361-15.202-7.893-3.216-35.081z"/><path fill="#3f906f" d="M141.546 319.989l-9.866 32.888-15.64-.95-5.409-39.832 17.468-.584z"/><path fill="#75c7a6" d="M145.42 307.272l-3.874 12.717-12.351-3.143-18.564-4.751-.877-9.355z"/><path fill="#597642" d="M97.403 231.773l-6.871 6.359-6.723 20.976 23.606 18.417 51.598-15.421-10.303-23.241-9.575-19.003z"/><path fill="#6f9e52" d="M107.123 231.627l7.455 17.175 35.519-6.942 4.166-12.79z"/><path fill="#738c54" d="M96.671 224.757l-8.112 1.389 1.462 13.74 24.557 8.916.365-12.862z"/><path fill="#9ecf7f" d="M97.329 205.754l-10.378 9.063 1.608 11.329 26.384 9.794 39.32-6.87 3.581-12.06 1.463-8.989z"/><path fill="#eecfca" d="M86.367 210.944l8.624 1.9 18.783 14.325 24.776-10.889.658-20.538-44.948 1.608z"/><path fill="#cfa49f" d="M90.386 208.458l4.605 4.386 21.998-10.232 24.995 12.205-11.254-17.175-22.584-3.874z"/><path fill="#6f9e52" d="M137.599 208.239l24.339-3.07 2.484-10.378-8.916-4.75-40.125 2.339-1.315 5.189z"/><path fill="#6f9e52" d="M87.462 185.437l-13.155 2.996.146 11.914 11.621 7.746 28.869-10.305-12.498-7.236z"/><path d="M106.173 177.982l8.771 19.806 49.479-2.997-7.747-18.125-6.432-10.452s-8.844-.073-12.059-6.139l-32.012 17.907z" fill="#9ecf7f"/><path d="M156.675 176.667l12.059-24.996-10.597-2.851-19.953 11.256c3.216 6.066 7.163 13.302 7.163 13.302l11.328 3.289z" fill="#6f9e52"/><path fill="#9ecf7f" d="M110.485 157.298l-3.582-4.75-5.919 18.344-8.479-3.946-7.746 3.874-10.452 17.613 40.636 9.355.731-8.843z"/><path fill="#6f9e52" d="M106.903 152.548l-3.069-4.02-7.601 2.851-11.474 19.441 10.232.584 5.993-.512z"/><path fill="#feeeea" d="M114.358 144.655l-10.524 3.873-8.332 22.803 20.172 17.614 29.673-15.567 12.79-24.558-10.379-3.727z"/><path fill="#eecfca" d="M122.252 185.51l-6.578 3.435 6.724-10.306z"/><path fill="#4f5152" d="M64.953 105.918l-3.436 8.187-2.996 17.467 13.959-9.208z"/><path fill="#464647" d="M56.767 80.777l-5.116 3.582 9.866 29.746 10.963 8.259 5.701-10.89-5.92-35.813z"/><path fill="#6e7174" d="M68.095 39.045l-20.318 5.993 3.874 39.321 14.105 8.331 17.468-10.889z"/><path fill="#4f5152" d="M113.043 42.918l-18.198-29.16-28.651-5.555-18.417 36.835 16.956 8.77z"/><path d="M111.728 132.01l4.239 7.162 8.259 6.797-5.189 16.518 28.722-17.395 7.748-16.299s4.238-46.335 5.189-43.852c.95 2.412-14.544-41.732-12.79-40.854 1.754.95-33.985 33.107-33.985 33.107l-2.193 54.816z" fill="#eecfca"/><path fill="#cfa49f" d="M98.426 131.719l20.61 30.769 17.248-22.73-20.318-.585z"/><path fill="#4f5152" d="M153.24 113.227l2.266 15.567 18.637 10.014-3.289-29.454z"/><path fill="#464647" d="M163.108 97.148l-18.784 10.744 11.182 20.902 15.348-19.44z"/><path fill="#4f5152" d="M159.16 69.229l-6.284 13.375-8.552 25.288 26.53 1.462 15.275-30.696z"/><path fill="#6e7174" d="M158.649 27.863l13.739-2.046 13.741 52.841-33.253 3.946-7.309-29.819z"/><path fill="#4f5152" d="M126.783 21.65l21.195-9.282 24.41 13.449-26.821 26.968-24.85-17.906z"/><path fill="#6e7174" d="M102.957 41.092L91.044 25.963l-24.85-17.76 68.19-11.182 13.594 15.347-19.807 17.76z"/><path fill="#feeeea" d="M91.044 25.963L64.733 53.808l1.023 38.882 6.724 29.674 19.368 16.517 24.118.292 23.023-18.929 6.578-67.459-17.396-22.657z"/><path fill="#eecfca" d="M75.696 61.336l12.059 1.608 3.07 3.143 5.189 6.213 1.242 2.045 1.9-2.265 8.406-6.212 1.534-2.12 14.544-3.873 10.086 2.119-15.933 12.863-15.421 19.953-3.654-5.7-7.162 5.992-12.936-20.61-9.794-10.67z"/><path fill="#fff" d="M82.273 108.842l7.748 8.843 8.77 2.048 9.428-.951 7.675-9.428z"/><path fill="#6f9e52" d="M83.297 109.208l-3.362-1.316 10.597 13.813 17.907.22 10.89-13.74-4.093 1.023-9.283 8.332-13.666.073z"/><path fill="#cfa49f" d="M96.525 90.863l-4.969 4.239 5.481 4.897 5.335-5.189z"/><path fill="#4f5152" d="M106.977 62.286l17.102-3.507 9.647 3.215-9.72-.511-16.444 4.385zM91.702 62.725l-.877 3.362-15.275-3.509-6.724 1.244 6.359-3.655z"/><path fill="#fef4f2" d="M96.014 72.3l-4.458 22.802 10.816-.292-3.216-22.73z"/><path d="M81.397 68.572c2.301 0 4.166 1.865 4.166 4.165s-1.865 4.167-4.166 4.167-4.166-1.866-4.166-4.167 1.865-4.165 4.166-4.165zM116.332 68.353c2.301 0 4.166 1.865 4.166 4.166s-1.865 4.166-4.166 4.166c-2.3 0-4.165-1.865-4.165-4.166-.001-2.301 1.864-4.166 4.165-4.166z" fill="#2b2b2b"/><path d="M76.865 106.796l9.136.439 6.651-1.9s14.91-.147 15.202.365c.293.439 5.993 2.193 5.993 2.193l8.771-.731-8.771 3.289-29.454-.219-7.528-3.436zM114.943 197.788l-19.952 15.056-8.04 1.973-12.498-14.47zM138.55 216.28l-23.607-18.492 46.995 7.381-4.094 11.841z" fill="#597642"/><path fill="#eecfca" d="M208.932 168.335l-30.988 35.958 22.144 16.298 23.096-42.755z"/><path fill="#feeeea" d="M27.752 139.1l-17.98 23.314 9.355 8.406 22.657-19.807z"/></svg>