<svg xmlns="http://www.w3.org/2000/svg" viewBox="0 0 400 400"><path fill="#feeee9" d="M144.101 149.782l-12.932-9.909-7.375 6.405 5.201 14.141 16.558 1.448zM153.285 156.914l3.991-3.627-1.574-12.932-13.654 4.835z"/><path fill="#eecec9" d="M163.32 162.471l-6.044-9.184-8.096-6.648-12.089 4.591-8.096 9.189 9.062 6.526 12.81 2.535z"/><path fill="#46af85" d="M197.524 173.833l-14.749 16.437-31.908-20.79 6.409-16.193 27.195 9.184z"/><path fill="#2b2b2b" fill-opacity=".102" d="M72.31 370.598l135.487 28.281 119.892-25.864-128.112-15.836z"/><path d="M244.176 365.519c.121-.73-11.115 9.906-11.115 9.906l.235 4.957h35.178l-.243-4.836-23.934-9.905-.121-.122z" fill="#308b69"/><path fill="#308b69" d="M226.286 353.552l-31.788 8.219-.122 4.834 49.921-.121-.121-4.47z"/><path fill="#459a78" d="M227.374 335.906l-5.071 6.045-27.805 19.82 49.678.243-.244-11.244z"/><path fill="#46af85" d="M252.272 343.524l-8.096 8.941-11.115 23.081h35.047l-2.782-20.906z"/><path fill="#6e884a" d="M204.657 248.523l-9.307 7.13 18.127 57.895 26.471 17.158 24.778-11.114-26.351-54.989z"/><path fill="#627a47" d="M213.477 313.548l8.826 28.403 21.751 10.879 20.794-32.995-.122-.243-26.952.243z"/><path fill="#699b47" d="M266.778 252.27l15.715 20.672-10.88 46.65-24.655 14.619-9.184-14.376-8.218-42.179z"/><path fill="#608945" d="M271.613 319.592l-6.287 35.048-21.15-2.175-6.402-32.63z"/><path d="M148.214 349.447c.844-.122 20.063 14.018 22.116 15.341l-18.011 2.305-8.819-9.314 4.714-8.332z" fill="#a0a1a0"/><path fill="#8b8a8a" d="M151.597 306.659l-8.583.966-5.801 32.63 15.715-.965-2.418-3.384 3.748-23.689z"/><path fill="#cdcccb" d="M145.188 362.379l10.036 4.471 17.158 14.261-38.187 1.088z"/><path fill="#c2c1c2" d="M149.78 345.82l-1.566 3.627 7.01 17.403-21.029 15.349 3.018-41.944z"/><path fill="#cdcccb" d="M172.504 293.728l4.47 11.479-39.761 35.048 11.001 9.192 40.362-40.613z"/><path fill="#a0a1a0" d="M145.553 256.862l-11.723 6.288 9.184 44.475 11.244 4.592-4.357-39.518z"/><path fill="#c2c1c2" d="M158.485 253.602l10.514 1.208 19.577 54.024-11.602-3.627-23.446-44.475z"/><path fill="#cdcccb" d="M148.336 235.348l-3.87 5.922-10.636 21.88 16.071 9.549 19.098-17.889-15.228-15.228z"/><path d="M143.979 223.624c-.479-.122-3.627 8.705-3.627 8.705l3.992 8.94 9.306-1.688-.365-10.393-9.306-5.564z" fill="#c2c1c2"/><path fill="#308b69" d="M227.139 162.954l-10.758-4.953-31.91 4.47-1.696 27.799 40.371 1.691z"/><path fill="#8b8a8a" d="M142.892 226.65l10.514 2.539 14.506-23.21-7.009-6.282-15.472 14.143z"/><path fill="#a0a1a0" d="M142.17 213.597l5.922 4.957 14.385-17.409-9.914-6.162-12.811 12.205z"/><path d="M138.665 203.928c.244-.605 8.576 2.659 8.576 2.659l11.123-11.36s-14.263-6.287-14.863-6.044c-.487.239-7.861 5.318-7.861 5.318s3.148 9.306 3.148 9.427h-.123z" fill="#c2c1c2"/><path fill="#cdcccb" d="M140.839 216.014l-.965 5.079.478 11.236 13.054-3.14-5.314-10.635z"/><path fill="#8b8a8a" d="M137.456 202.719l-3.991 9.304 6.409 9.07 4.227-1.209 3.991-1.33-.851-11.967z"/><path fill="#a0a1a0" d="M134.073 194.136l-1.695 4.713 1.087 13.174 13.776-5.436-6.402-10.638z"/><path fill="#c2c1c2" d="M132.986 180.238l-10.279 2.296 9.671 16.315 8.461-2.9 3.384-3.988-4.714-9.184z"/><path fill="#a0a1a0" d="M158.242 181.325l3.869-.239 5.558 10.515-1.931 5.196-6.653-2.296z"/><path d="M152.928 175.403l3.627-.239 5.679 5.922-3.262 14.502s-14.749-9.91-14.027-10.879c.73-.965 8.105-9.184 8.105-9.184l-.122-.122z" fill="#c2c1c2"/><path fill="#cdcccb" d="M145.188 170.45l5.679-.97 5.566 5.684-5.444 12.206-13.176-8.945z"/><path fill="#dddddc" d="M140.596 178.182l-2.896 12.331 44.84 42.417 10.75-12.446-7.01-4.226-43.266-40.977z"/><path fill="#eaeceb" d="M145.675 163.197l-7.618 3.748-15.35 15.589 14.993 7.979 13.167-21.033z"/><path fill="#cdcccb" d="M142.892 150.87l-5.801.36.966 15.715 12.81 2.535-2.653-13.658z"/><path fill="#c2c1c2" d="M138.909 139.268l-7.74.605 5.922 11.357 11.123 4.592 1.444-12.688z"/><path fill="#9c9fa0" d="M133.465 121.623l-2.661 9.788.365 8.462 18.011 6.766-4.236-19.337z"/><path fill="#8b8a8a" d="M117.15 105.908l8.827 15.11 4.827 10.393 14.871-1.453-11.001-39.761z"/><path fill="#c2c1c2" d="M101.321 76.418l-8.583 33.964 33.239 10.636 19.211-40.37-17.524-22.841z"/><path fill="#cdcccb" d="M133.465 44.027l-32.752-.844L85.85 71.1l6.888 39.282 29.247-38.796z"/><path fill="#dddddc" d="M169.121 80.648l14.984-29.973-37.221-20.907-46.171 13.415 21.272 28.403z"/><path fill="#cdcccb" d="M168.877 128.145l-4.47-2.174-11.001 3.265 5.566 8.458 10.993-1.087z"/><path fill="#dddddc" d="M175.287 126.336l-1.817-2.417-9.063 2.052 3.505 8.701 7.975-2.535z"/><path fill="#cdcccb" d="M184.836 125.006l-1.817-3.749-9.549 2.662.965 9.544 7.861-1.204z"/><path fill="#dddddc" d="M184.592 131.532l4.592-5.439.601-6.649-6.766 1.813-1.453 8.219zM176.496 113.644l4.836-.483 8.454-6.165-.722-6.284s-12.567 1.813-13.054 1.452c-.366-.365.486 11.48.486 11.48z"/><path fill="#cdcccb" d="M170.452 115.456l3.504 2.057 7.375-4.352-2.661-15.35-9.793 12.932zM166.217 115.213l-3.14 2.905h-13.776l-1.452-9.549 17.045.844z"/><path fill="#dddddc" d="M168.034 106.756l4.957 5.557.965 5.2-10.879.605-3.262-9.188z"/><path fill="#507033" d="M204.657 248.523l3.749 16.08 21.15 13.053 20.664-6.531-1.209-21.637-40.126-8.94z"/><path d="M207.676 245.748l17.28 2.531c-.479-4.471 4.957-4.227 4.835-4.592l2.296.486 4.714 5.801 22.359 3.383 8.219-14.384-56.32-7.854-3.262 14.628h-.121z" fill="#444648"/><path d="M224.956 248.279l11.845 1.817 3.505-10.88-16.55-2.896c.113.235.843 7.367 1.322 11.959h-.122z" fill="#757273"/><path fill="#dddddc" d="M210.337 235.348l45.805 10.635 17.645-64.897-28.882-23.45-26.959 22.963z"/><path fill="#207455" d="M251.794 223.867l-3.749 12.453-5.679 37.344 40.127-.722 2.417-40.37z"/><path fill="#6e884a" d="M248.889 180.964l-5.801 1.692-15.828 42.542 4.227 15.106 13.898-8.819 4.835-47.016z"/><path d="M240.671 189.422l-3.262 8.705 11.724-2.057.844-8.34-9.306 1.692zm-6.767 18.252l-3.505 13.776 17.645-1.566.122-14.992-14.384 2.661.122.121zm-4.835 23.933l2.539 8.818 13.532-7.375c-.844-.356-1.33-.844-1.209-1.087.365-.601-9.305-.844-14.862-.235v-.121z" fill="#627a47"/><path fill="#507033" d="M239.462 168.032l3.626 14.624 7.132 1.813 10.758-12.088-8.219-10.636z"/><path fill="#eaeceb" d="M227.86 176.733l23.569-7.613 17.045 21.272 10.75-18.616 1.938-17.041-37.23-3.505-10.271 7.858z"/><path fill="#308b69" d="M219.52 217.588l-11.114 47.015-13.056-8.95 6.766-38.673 7.012-2.662z"/><path fill="#207455" d="M221.573 202.476l-.966 10.398-1.087 4.714-17.526.235 4.595-26.588 9.792-33.234 19.698-4.957-2.418 12.932z"/><path fill="#6fc5a3" d="M220.607 212.874l-5.678-32.997 22.237-28.525 2.904 2.779z"/><path fill="#c2c1c2" d="M223.756 162.11l.234 9.305 10.036-2.174.601-2.9zM223.99 158.24l-5.801-10.392 19.943-.849 2.174 7.497-5.436 5.075z"/><path d="M216.138 167.063c0-.722-1.088-3.383-1.088-3.383l3.14-15.954 16.681 11.723-10.758 11.845-7.975-4.349v.118z" fill="#dddddc"/><path fill="#c2c1c2" d="M234.383 213.718l-2.296-3.748-15.706 3.992-30.101 2.296-3.74 16.672 35.171-11.237 10.637 3.87z"/><path d="M283.58 172.02l-1.939-10.393-.479-6.892s-27.072 58.861-28.16 58.739c-1.087-.121 17.402 9.671 17.402 9.671l20.064-38.798-6.888-12.327z" fill="#6fc5a3"/><path fill="#eecec9" d="M258.438 215.77l4.592-3.139-14.863-7.739-8.34 5.565 13.297 9.062z"/><path d="M251.55 216.736l.601-5.314-20.063-1.452-4.948 15.229s23.203.965 22.594 1.695c-.723.721 1.816-10.158 1.816-10.158z" fill="#dddddc"/><path fill="#eecec9" d="M250.098 228.581l-2.053 7.739-20.785-11.122 10.628-7.497z"/><path fill="#feeee9" d="M265.691 226.65l-7.497 5.679-10.149 3.991-10.157-18.619 14.262-6.279 10.158 1.209z"/><path fill="#308b69" d="M302.913 193.17l.243-25.381-21.994-13.054 2.053 43.632-20.907 14.264 12.08 11.236 17.767-7.253z"/><path fill="#207455" d="M286.477 218.554l26.951-5.323-10.272-45.442z"/><path d="M242.366 141.564l9.063 27.556 29.733-14.384 12.811-33.717 6.401-75.178S272.7 35.448 270.77 39.196c-1.938 3.744-28.525 102.486-28.525 102.486l.121-.118z" fill="#eecec9"/><path fill="#cea19c" d="M243.932 126.575l4.357 16.198 22.359 4.831-19.219 21.516-31.665-41.457zM290.346 105.064l-5.801 2.296 9.428 13.658 3.139-8.583z"/><path fill="#1c140a" d="M296.269 67.838l-10.15 12.084-2.539 9.066 12.08 4.714 9.549-3.505 6.531-16.075z"/><path fill="#3e3630" d="M296.269 47.292L283.58 48.74l2.539 31.182 25.621-5.8 6.28-18.25z"/><path fill="#4e453f" d="M301.947 35.69l7.976 1.449 8.097 18.733-34.44-7.132 1.566-10.271z"/><path fill="#332c23" d="M278.136 38.591l5.444 10.149 26.343-11.601-4.471-15.472z"/><path fill="#3e3630" d="M231 20.098L210.337 1.122l72.513 9.909 22.602 10.636-34.682 11.001z"/><path fill="#4e453f" d="M215.294 27.59l-4.957-26.468 95.115 20.545-22.602 28.165z"/><path fill="#3e3630" d="M224.956 30.129l-6.157-10.392-19.709 14.019 8.221 31.908z"/><path fill="#332c23" d="M216.016 43.544l5.678-6.645-11.965-10.635.608-25.142L283.58 48.74z"/><path fill="#feeee9" d="M209.371 44.027l-9.672 46.653 4.715 43.631 43.875 8.462 22.838-36.865L283.58 48.74l-42.666-6.04-19.22-5.801z"/><path fill="#eecec9" d="M226.165 70.012l2.417 3.387 2.54 5.68 1.33 3.504 5.322-1.33 6.645-4.109 7.375-1.209 12.809 1.692 5.436 5.561-16.802 3.022-18.124 16.919-3.505-9.67-8.462 3.991-1.33-18.854-12.202-11.363 8.332-1.452z"/><path fill="#cea19c" d="M226.53 96.12l-5.192 4.352 4.713 7.249 9.062-4.592z"/><path fill="#332c23" d="M209.614 67.233h4.592l14.376 6.166L231 70.012l-15.585-5.922zM243.811 72.913l.608 4.231 18.611 2.539 7.009 3.505-5.078-8.097z"/><path fill="#fef4f2" d="M231.122 79.079l-9.784 21.393 4.827 3.383 8.948-.726 2.775-22.359z"/><path fill="#cea19c" d="M214.206 112.556l15.107 2.9 17.645-.847v2.178l-17.889 1.57-14.863-3.627z"/><path fill="#eecec9" d="M239.219 101.677l14.14 15.471-6.279-13.775z"/><path fill="#feeee9" d="M291.434 85.001l13.775 5.196-8.097 22.238-12.567-5.075z"/><path fill="#cea19c" d="M300.374 94.307l-6.645-2.54-2.896 9.671z"/><path fill="#46af85" d="M313.428 213.231l-5.801 35.9-49.433-16.802 4.114-19.698z"/><path fill="#eaeceb" d="M121.985 71.586l62.12-20.911 4.958 50.036-16.072 11.602-23.69.243 7.975 21.394 31.908-7.857 1.688 14.384-41.692 6.162-8.705-16.194z"/><path fill="#8b8a8a" d="M156.79 92.132l-14.142 2.657-3.261-15.228 12.81.726z"/><path fill="#c2c1c2" d="M139.387 79.561l14.141-2.174 3.262 14.745-5.801-10.275z"/><path fill="#8b8a8a" d="M167.068 72.795l4.106 15.832 11.722-5.683-4.713-12.084z"/><path fill="#c2c1c2" d="M182.896 82.944l-3.382-14.984-12.446 4.835 9.663-.122z"/><path fill="#8b8a8a" d="M164.164 93.58l-.965 8.097 4.713.726zM166.46 92.854l3.261 9.427 2.661-3.987z"/><path fill="#c2c1c2" d="M177.339 195.466l9.914.604 27.797-32.39 8.94 7.735-35.536 40.608z"/><path fill="#dddddc" d="M162.111 181.086l25.865 14.141.478 16.796-22.716-15.226z"/><path d="M220.486 73.034c2.142 0 3.869 1.732 3.869 3.87 0 2.134-1.728 3.866-3.869 3.866-2.134 0-3.862-1.732-3.862-3.866 0-2.137 1.728-3.87 3.862-3.87zM251.063 80.409c2.142 0 3.87 1.728 3.87 3.866s-1.729 3.866-3.87 3.866c-2.134 0-3.862-1.728-3.862-3.866s1.729-3.866 3.862-3.866z" fill="#2b2b2b"/><path fill="#eecec9" d="M226.408 56.841l11.244 3.383 20.064.605-19.706 2.417z"/></svg>