<svg xmlns="http://www.w3.org/2000/svg" viewBox="0 0 400 400"><g fill-rule="evenodd" clip-rule="evenodd"><path fill="#e3d187" d="M151.621 123.274l4.886 14.666 10.601 6.896 4.575-9.228-8.661-10.866z"/><path fill="#bfb375" d="M179.819 142.631l-4.939 5.44-7.772-3.235-4.086-20.094 8.323 1.071 14.359 8.805z"/><path opacity=".102" fill="#2b2b2b" d="M65.17 376.74l116.114-21.875 117.732 23.757-123.8 21.878z"/><path fill="#54b08c" d="M126.667 309.251l14.564-58.079L174 267.389l1.62 25.645-14.968 30.177-20.634 2.64z"/><path fill="#408f70" d="M119.384 366.206l1.195-9.345 6.088-47.61 33.985 13.96-19.844 38.93-12.866 2.774z"/><path fill="#456126" d="M129.077 364.401v17.728l10.517.379 1.214-20.367z"/><path fill="#738c57" d="M89.024 376.85l31.555-19.989 20.229 5.28-29.938 19.988z"/><path fill="#54b08c" d="M197.062 334.901l-21.442-41.867 23.059-27.153 19.015 14.33 9.712 35.83-4.448 15.463z"/><path fill="#408f70" d="M233.47 360.548l-2.394-1.687-34.014-23.964 30.344-18.856 19.047 30.376-3.267 15.264z"/><path fill="#456126" d="M242.408 356.976l15.373 9.425 6.472-8.294-17.8-11.69z"/><path fill="#738c57" d="M231.483 395.07l-.407-36.209 15.377-12.444 1.617 33.944z"/><path fill="#ffede8" d="M215.669 142.543l1.459.342 4.623 1.416 1.207 27.286-37.224 19.235-24.679-27.533 18.764-20.658z"/><path fill="#36785c" d="M141.231 251.172l16.588 20.363 17.801 21.499 50.168-38.095z"/><path fill="#d9e354" d="M164.291 175.736l-23.06 75.436 55.428 3.393 19.01-73.927-19.01-.753-9.711 3.395-8.495-4.903z"/><path fill="#738c57" d="M179.819 142.631l-32.114 5.57-6.474 102.971 37.222-72.795-8.903-19.613z"/><path fill="#99c26e" d="M176.833 210.438l-14.564-29.046-5.662-24.891-4.452-9.051-9.709-4.528-38.841-4.149-13.351 23.384-5.26 4.526 37.628 74.68z"/><path d="M90.254 162.157l-5.261 4.528 16.589 33.191c5.665.379 10.923.379 12.135-1.132 3.644-4.149 19.017-35.454 19.017-35.454l.403-10.56-18.204 1.132-24.679 8.674-.002-.379h.002z" fill="#8ab061"/><path fill="#8ab061" d="M103.202 202.515l3.642 7.544 55.425-28.667-6.878-13.956z"/><path fill="#738c57" d="M217.128 142.885l-1.459 21.913-19.01 15.087v74.68h29.936l17.805-103.72-15.692-12.699z"/><path fill="#99c26e" d="M231.047 229.293l12.95 7.544-4.453 18.102-19.014 10.942-23.871-11.316v-21.496z"/><path fill="#d9e354" d="M214.863 205.154l29.537-54.311 14.966 36.207-2.021 10.185-4.049-.756-16.994 24.513 1.621 7.927-6.876.374-6.065 8.677-19.423-16.978z"/><path fill="#738c57" d="M184.52 230.805l-43.289 20.367-18.609-9.809 14.159-9.804 21.038-12.071z"/><path fill="#f0d1cc" d="M157.819 213.077l27.106-3.772 7.281 10.558-7.686 10.942-26.701-4.53-7.687-5.283z"/><path fill="#ffede8" d="M137.59 209.305l8.903-.758 11.326 4.53v13.198l-21.038 5.284-6.88-10.938z"/><path fill="#f0d1cc" d="M121.812 214.209l15.778-4.904-.809 22.254-13.352-1.887z"/><path fill="#cfa39e" d="M145.68 204.775l-8.09 4.53 20.229 3.772z"/><path fill="#b8c745" d="M196.659 233.069l-6.07-13.96 6.07-11.315 18.204-2.64 10.119 32.816-4.452 4.9-6.074-6.786z"/><path fill="#738c57" d="M184.52 230.805l.405-21.5 11.734-1.511v25.275z"/><path fill="#f0d1cc" d="M115.339 201.382l21.442-21.874 5.259-8.677-9.304-7.92-28.323 17.348-2.425 12.074z"/><path fill="#b8c745" d="M97.132 219.863l9.712-9.804-1.217-14.333-10.519-9.43-12.944 7.921z"/><path fill="#738c57" d="M106.844 210.059l8.495-8.677-10.926-21.123-9.305 6.037z"/><path fill="#ffede8" d="M156.607 156.501h-8.094l-15.777 6.41 4.045 16.597 17.8-1.886 5.26-7.546z"/><path fill="#f0d1cc" d="M165.911 170.076l-9.304-13.575-2.026 21.497 7.688 3.394z"/><path fill="#cfa39e" d="M147.301 153.859l9.306 2.642-23.871 6.41z"/><path fill="#458f70" d="M236.302 220.992l26.302.757 4.448-4.147 6.066 4.147 17.804 34.323-24.68 13.202-26.698-14.335-8.497-25.646 2.831-4.15z"/><path fill="#99c26e" d="M332.831 255.481l-31.285-6.24-4.016 17.499 31.284 6.237z"/><path d="M316.263 254.614c3.882.773 6.359 4.342 5.528 7.963-.831 3.622-4.66 5.936-8.542 5.157-3.887-.773-6.367-4.342-5.536-7.968.831-3.621 4.661-5.93 8.55-5.152" fill="#e8f078"/><path fill="#99c26e" d="M322.276 311.092l-21.883-21.752-14 12.241 21.883 21.756z"/><path d="M309.188 301.572c2.717 2.697 2.578 6.945-.326 9.483-2.895 2.533-7.454 2.395-10.171-.306-2.722-2.705-2.579-6.949.325-9.483 2.893-2.537 7.451-2.403 10.172.306" fill="#e8f078"/><path fill="#59753d" d="M280.747 244.932l.061 29.825-19.189.041-.07-29.83z"/><path d="M278.23 259.485c0-3.706-3.223-6.709-7.198-6.709-3.972 0-7.193 3.003-7.193 6.709 0 3.707 3.222 6.709 7.193 6.709 3.975 0 7.198-3.002 7.198-6.709" fill="#e8f078"/><path fill="#738c57" d="M259.818 269.714l9.593-28.453-18.31-5.368-9.594 28.453z"/><path d="M262.306 254.418c-1.193 3.536-5.234 5.504-9.026 4.392-3.796-1.112-5.902-4.88-4.709-8.416 1.193-3.535 5.234-5.495 9.027-4.391 3.792 1.116 5.898 4.884 4.708 8.415" fill="#e8f078"/><path fill="#99c26e" d="M253.381 273.453l9.598-28.457-18.318-5.364-9.593 28.453z"/><path d="M255.867 258.158c-1.189 3.531-5.234 5.499-9.027 4.387-3.792-1.112-5.898-4.876-4.709-8.412 1.194-3.535 5.234-5.503 9.027-4.391 3.792 1.108 5.902 4.88 4.709 8.416" fill="#e8f078"/><path fill="#99c26e" d="M273.118 221.749l-13.752-34.699-6.07 9.429 9.308 25.27h6.069z"/><path fill="#bfdb8f" d="M196.659 254.565l42.885.374 19.418 9.81-12.945 43.748-48.146 1.512z"/><path fill="#738c57" d="M214.863 254.565l-.407-18.481 10.526 1.886 2.424 45.259-12.95-.378z"/><path fill="#54b08c" d="M246.017 308.497l33.174-3.389 11.731-49.036-51.378-1.133z"/><path fill="#99c26e" d="M220.933 270.785l-4.453 4.522 4.453 3.772 3.642-3.772z"/><path fill="#ffede8" d="M99.56 127.08l.807 15.842 14.972 10.558 16.589-3.014 10.518-7.544-9.71-34.699-3.643-.756-14.565-2.261 1.619 4.523-12.542 11.693z"/><path fill="#cfa39e" d="M115.339 153.48l18.204-1.13 8.903-9.428z"/><path fill="#f0d1cc" d="M99.56 127.08l.807 15.842 14.972 10.558-11.734-31.679v-.379zM115.742 126.704l7.285 1.132 6.874 3.016 2.835-.378 3.235-2.261-1.619-5.281.226-4.846-3.056-.057-2.834 2.64.407 2.263h-2.428l-4.045.756h-4.049z"/><path fill="#c2b373" d="M115.339 114.636l2.428 8.296 11.326-15.465-14.565-2.261-9.306 4.147-1.617 12.448zM114.528 124.817l1.214 1.887 6.88-3.016-1.214-2.266z"/><path fill="#fff5f2" d="M128.688 121.801l7.283 6.412-6.473 3.016-2.831-8.297z"/><path fill="#cfa39e" d="M133.948 132.738l2.023-4.525-6.473 3.016z"/><path fill="#738c57" d="M138.398 133.115l-9.305 3.396 2.835 6.786 9.709-3.391-1.216-6.037z"/><path fill="#d9e354" d="M145.276 130.852l-9.305 5.28.405 2.263 11.329.755 1.617-5.658z"/><path fill="#c2b373" d="M127.476 118.785l1.212 1.884 6.042-2.65-.615-1.713z"/><path fill="#a1cf7d" d="M96.324 102.564l18.204 2.642-14.565 22.251-5.833-6.8z"/><path fill="#8ab061" d="M76.498 131.606l19.826-29.042 2.004 13.709 1.635 11.184-7.686 7.165z"/><path fill="#a1cf7d" d="M90.254 162.157l-13.756-30.551 23.465-4.149 15.376 26.023z"/><path fill="#cfa39e" d="M188.16 176.112l-4.854 5.28 3.642 1.888 4.047-1.51z"/><path fill="#f5eda6" d="M132.736 108.223l10.056-34.057L150.77 98.1l.851 25.174z"/><path fill="#ffede8" d="M160.008 16.635L143.211 39.31l-1.725 52.702 10.135 31.26 19.724 2.541 22.675 6.718 13.014-5.459 11.34-17.635-3.356-60.469-11.76-32.333z"/><path fill="#cfa39e" d="M157.703 19.747L143.211 39.31l-.073 2.228 28.974-16.237z"/><path fill="#f0d1cc" d="M244.408 64.506l-27.28 78.379-27.119 19.972 1.124-35.522 15.2-31.653 4.436-25.538 20.515 8.951zM142.792 53.589l11.737 13.08 8.428 14.453 4.19 6.9 5.456-1.682 13.858-18.895 16.826-7.639-7.763-3.887-17.238 5.72-6.656 2.82-4.483 3.406-1.847-3.723-6.133-4.677-10.078-8.395z"/><path fill="#cfa39e" d="M171.345 125.813l18.664 37.044 14.927-34.284z"/><path fill="#e3d187" d="M142.792 53.589l6.297-3.782 13.685 7.67-2.033 3.19-12.491-7.497zM177.216 58.162l1.07 3.477 17.86-3.935 7.141 2.102-6.3-6.3z"/><path fill="#fff5f2" d="M165.3 64.142l6.33.315-1.33 12.642 2.303 9.241-11.336-.839 3.379-8.758z"/><path fill="#cfa39e" d="M166.725 90.539l-5.46-5.038 11.338.839z"/><path fill="#456126" d="M153.173 103.178l14.086-5.536 13.218 7.719-13.768-.132z"/><path fill="#738c57" d="M165.984 108.198l-12.811-5.02 13.424-.887 13.88 3.07z"/><path d="M154.529 62.467c2.32 0 4.202 1.882 4.202 4.202 0 2.322-1.882 4.202-4.202 4.202-2.32 0-4.202-1.88-4.202-4.202.001-2.319 1.882-4.202 4.202-4.202M185.123 64.926c2.32 0 4.202 1.88 4.202 4.202 0 2.32-1.882 4.2-4.202 4.2s-4.202-1.88-4.202-4.2c0-2.322 1.882-4.202 4.202-4.202M134.352 120.791c1.183 0 2.141.959 2.141 2.141 0 1.184-.958 2.141-2.141 2.141-1.181 0-2.139-.957-2.139-2.141 0-1.182.957-2.141 2.139-2.141M123.453 125.883c1.181 0 2.141.957 2.141 2.139 0 1.183-.959 2.141-2.141 2.141-1.183 0-2.141-.958-2.141-2.141.001-1.182.958-2.139 2.141-2.139" fill="#2b2b2b"/><path fill="#f5eda6" d="M114.273 41.546l40.949-15.469L179.97 6.352l-23.391-.082-25.881 5.947z"/><path fill="#e0d187" d="M143.138 41.538l-28.865.008L179.97 6.352l-3.986 14.654-18.062 6.409z"/><path fill="#f5eda6" d="M134.995 57.872l-8.994-16.328 17.137-.006z"/><path fill="#d4c280" d="M142.04 75.081l-7.045-17.209 8.143-16.334z"/><path fill="#d6c27d" d="M193.655 22.091l-35.733 5.324L179.97 6.352l15.599 5.342z"/><path fill="#fff7ad" d="M226.11 7.529l-46.14-1.177 13.685 15.739 27.819-4.735z"/><path fill="#f5eda6" d="M240.286 27.959L226.11 7.529l-11.21 5.03 21.377 15.598z"/><path fill="#e3d187" d="M193.655 22.091l19.041 7.481 27.59-1.613-25.386-15.4z"/><path fill="#e0cf85" d="M260.718 79.189l-8.42-19.38-19.5-25.517-20.668-9.875-3.911 13.359 3.784 25.339 12.09 12.086 30.291 20.343z"/><path fill="#fff7ab" d="M240.286 27.959l21.804 30.307-9.792 1.543-26.31-19.768 1.955-8.756z"/><path fill="#f5eda6" d="M212.13 24.417l13.858 15.624 8.354-7.055 5.944-5.027zM260.718 79.189l1.372-20.923-36.102-18.225L244.86 61.31zM235.023 91.479l-24.254-21.335-17.114-48.053 14.784 8.793 5.536 16.736 14.697 18.462 27.549 24.643z"/><path fill="#c2b075" d="M256.417 108.124l-.196-17.399-21.198.754z"/><path fill="#e3d187" d="M263.651 114.968l-7.234-6.844-33.521-27.311 7.43 24.155 19.793 17.436 13.825 2.931z"/><path fill="#c2b075" d="M241.85 132.667l17.891-4.495 4.203-2.837-33.618-20.367z"/><path fill="#f5eda6" d="M244.4 150.843l15.341-22.671-12.71-1.957-16.705-21.247-5.687 32.394z"/><path fill="#c2b075" d="M217.128 142.885l27.272 7.96-14.188-21.695.114-24.182z"/><path fill="#ffede8" d="M222.896 80.813l-2.705 12.384 7.007 1.591z"/><path fill="#cfa39e" d="M230.326 104.968l-10.135-11.771 7.007 1.591z"/><path fill="#c2b075" d="M210.769 70.144l5.219 14.55 5.555 2.312 1.353-6.193z"/><path fill="#fff7ad" d="M160.753 1.5l-30.055 10.717 49.272-5.865zM212.13 24.417l-18.475-2.326 20.32 25.529z"/></g></svg>