<svg xmlns="http://www.w3.org/2000/svg" viewBox="0 0 400 400"><g fill-rule="evenodd" clip-rule="evenodd"><path opacity=".102" fill="#2b2b2b" d="M116.062 388.346l88.927-9.583 80.713 6.388-43.566 10.519-26.274 4.83z"/><path fill="#4a876e" d="M152.095 378.064l-11.898 11.527 25.185 3.044 14.958-3.044V378.45z"/><path fill="#a1cf7d" d="M153.979 217.484l-17.291 32.174 1.712 7.092 9.845 4.671 8.641-12.386 12.669-20.178z"/><path fill="#4a876e" d="M215.35 378.682l-4.537 16.907 15.661 2.132 15.662-2.051-9.587-16.829z"/><path fill="#ffede8" d="M167.844 168.632l9.672-2.885 31.839-.389 7.618 2.261-11.642 36.385H167.16z"/><path fill="#99c26e" d="M171.438 191.459l-3.594-22.827-12.156 3.583-9.241 36.073 42.625 14.258 31.75-8.569 12.329-19.401-5.823-23.92-10.355-3.037-16.268 23.84z"/><path fill="#709e54" d="M157.145 242.024l-10.698-33.736 74.375 5.689-3.504 28.047-26.706 17.139z"/><path fill="#709e54" d="M152.095 378.064l4.107-111.186.684-17.843 15.151-2.804 17.118 3.354 28.33 137.593h-4.451z"/><path fill="#99c26e" d="M156.886 249.035l38.773-2.258 22.51 2.808 28.675 93.493-9.497 44.177-24.313-.077z"/><path fill="#a1cf7d" d="M229.383 221.847l-8.561-7.87 6.506-43.321 26.962 46.902-12.154 14.648z"/><path fill="#bfdb8f" d="M228.272 254.956l1.111-33.109 24.907-4.289-10.783 43.241-6.592 3.589z"/><path fill="#ffede8" d="M118.886 276.933l12.324-17.143 1.37 1.163 7.446 19.015-6.59-1.79z"/><path fill="#f0d1cc" d="M133.436 278.178l-.856-17.225 10.185 7.247-2.739 11.768z"/><path fill="#cfa39e" d="M130.612 290.022l-11.726-13.089 14.55 1.245 6.59 1.79z"/><path fill="#73c9a6" d="M128.727 309.574l.512-31.787 4.197.391-.515 31.477z"/><path fill="#d9e354" d="M130.696 308.016h17.549l-17.549 80.639-5.394-68.094z"/><path fill="#b8c745" d="M115.891 308.016h14.805v80.639z"/><path fill="#36785c" d="M118.544 304.744l-2.653 3.272h32.354l-1.715-3.818-3.339 2.576-4.107-2.884-3.849 3.194-4.366-2.649-4.024 2.567-3.766-2.726-2.311 2.417z"/><path fill="#f0d1cc" d="M211.004 165.849l14.457-40.737-1.587-33.946-13.05-14.548-25.834 75.475-4.054 34.477z"/><path fill="#ffede8" d="M131.381 53.43l2.206 70.187 13.755 26.008 18.781 1.059 12.697 6.789 9.359-5.089 14.182-26.652 11.812-85.969-58.103-2.997z"/><path fill="#f0d1cc" d="M134.999 82.526l12.431 9.787 12.256 22.132 5.643 2.466 4.671-1.935 17.813-20.544 12.87-8.378-7.67-3.793-16.134 1.15-8.114 8.638-3.084 3.97-2.645-4.147-4.144-9.436-11.814-2.555z"/><path fill="#7d4f26" d="M123.799 62.158l8.73 27.421 3.086-29.359 3.084-8.027-3.613-15.338z"/><path fill="#9c6633" d="M140.553 65.247l-4.938-5.027-.529-23.365 12.344-5.468-1.321 27.069z"/><path fill="#b07545" d="M143.814 73.708l-3.261-8.461 6.085-24.075.792-9.785 7.23 21.071-.971 11.287z"/><path fill="#7d4f26" d="M167.797 71.328l-14.108-7.583 2.381-26.979 8.907-5.115 7.935 3.965.528 16.492z"/><path fill="#9c6633" d="M147.43 31.387l17.547.264-1.322 10.492-9.966 21.602-6.701-22.573zM178.024 31.828l-13.047-.177 8.463 20.457 5.469 16.134 10.401 10.317 2.207-11.815-2.736-26.629z"/><path fill="#b07545" d="M199.535 34.385l-21.511-2.557 13.493 34.916 16.484 18.164-1.059-28.391z"/><path fill="#9c6633" d="M213.38 48.228l-13.845-13.843-.788 9.697 9.254 40.826 8.113-11.023z"/><path fill="#7d4f26" d="M233.045 93.107l-6.348-33.506-13.317-11.373-5.379 36.68 3.442 5.2 3.259 10.228 7.234 5.556z"/><path fill="#54b08c" d="M97.259 87.461l36.24 31.922-.97-29.804-22.398-14.99z"/><path fill="#408f70" d="M127.766 62.425l-18.164-22.31-10.895 2.004-1.448 45.342 35.268 2.118z"/><path fill="#54b08c" d="M146.636 41.172l-1.764-25.48-26.363-11.639-24.355 37.239 33.612 21.133z"/><path fill="#408f70" d="M198.747 44.082l7.581-21.159L196.449 1.5l-77.94 2.553 28.127 37.119z"/><path fill="#54b08c" d="M241.684 35.443L196.449 1.5l2.298 42.582 14.287 9.169 18.067-2.817z"/><path fill="#408f70" d="M233.045 93.107L213.03 53.251l28.654-17.808z"/><path fill="#59753d" d="M246.185 80.674l-5.82-25.921 1.319-19.31-8.289-2.911.089 8.024-.439 52.551-10.14 14.285 2.556 17.72 11.202-10.05z"/><path fill="#709e54" d="M197.155 15.519l36.329 25.037 8.2-5.113L196.449 1.5l-4.407 7.232z"/><path fill="#59753d" d="M118.509 4.053l77.94-2.553.706 14.019-70.622-1.59-7.23-.794z"/><path fill="#709e54" d="M94.154 41.292l24.355-37.239 8.024 9.876-23.474 32.918-2.207 2.997z"/><path fill="#59753d" d="M97.259 87.461l-3.105-46.169 8.905 5.555 2.049 41.058.439 3.526z"/><path fill="#709e54" d="M133.499 119.383l-36.24-31.922 7.849.444 28.127 23.189z"/><path fill="#cfa39e" d="M166.123 150.684l14.813 35.886 22.556-33.006z"/><path fill="#ffede8" d="M218.763 90.198l-2.474 23.189 8.732 4.761 3.878-2.908 4.146-22.133z"/><path fill="#cfa39e" d="M220.439 104.745l1.229-10.051 7.406 1.233zM216.289 113.387l9.172 11.725 3.438-9.872z"/><path fill="#408f70" d="M252.442 65.155l-.178 51.054-10.58-1.854-4.932-9.344 3.613-50.258z"/><path fill="#36785c" d="M252.264 116.209l-26.803 8.903 11.291-20.101z"/><path fill="#fff5f2" d="M163.036 91.872l-3.35 22.573 10.314.531-1.235-22.927z"/><path fill="#cfa39e" d="M164.271 119.912l-4.585-5.467 10.314.531z"/><path fill="#9c6633" d="M134.999 82.526l6.433-4.848 17.812.087-.352 4.671-16.225-1.584zM200.683 86.054L193.721 79l-15.961-.441-.881 4.852 16.134-1.15z"/><path d="M186.313 89.492c2.293.087 4.055 2.116 3.969 4.319-.089 2.295-2.118 4.059-4.411 3.88-2.291-.085-4.055-2.114-3.967-4.319.09-2.293 2.116-4.057 4.409-3.88" fill="#2b2b2b"/><path fill="#59753d" d="M151.718 128.992l13.932-2.731 14.814 4.143-15.255.793z"/><path fill="#709e54" d="M165.209 134.106l-13.491-5.114 2.031.089 24.422 1.233 2.293.09z"/><path d="M149.265 87.526c-2.313-.12-4.285 1.648-4.407 3.951-.12 2.303 1.656 4.269 3.967 4.389 2.314.122 4.287-1.646 4.407-3.949s-1.656-4.269-3.967-4.391" fill="#2b2b2b"/><path fill="#9c6633" d="M211.443 90.108l1.152 30.684 2.55-1.499 1.413-5.731 1.237-13.93z"/><path fill="#b07545" d="M219.109 142.922l-6.514-22.13 3.873-7.141z"/><path fill="#e8f078" d="M157.145 242.024l-.259 7.011 61.283.55-.851-7.561z"/><path fill="#a1cf7d" d="M285.702 385.151l2.141-4.756-10.271-9.034-59.403-121.776 19.178 137.67z"/><path fill="#bfdb8f" d="M303.846 383.593l-26.274-12.232 8.13 13.79z"/><path fill="#f0d1cc" d="M233.322 261.89l-3.679-5.453-8.821 12.158-.086 9.037 4.196 1.404z"/><path fill="#ffede8" d="M220.736 277.632l8.907-21.195 4.021 9.192 7.617 3.039.342 13.48-14.295 4.753z"/><path fill="#f0d1cc" d="M222.62 292.59l-1.884-14.958 20.887 4.516-7.788 12.778z"/><path fill="#54b08c" d="M224.757 263.139l3.686-12.464 16.26 5.298 6.763 16.59zM131.21 259.79l5.478-10.132 11.557 11.763.938 14.263z"/><path fill="#36785c" d="M140.197 389.591h40.143v4.265h-40.143zM210.813 395.589h31.323v4.264h-31.323z"/></g></svg>