<svg xmlns="http://www.w3.org/2000/svg" viewBox="0 0 400 400"><path fill="#503e2f" d="M106.935 26.279l2.194 23.486 7.253-24.143-1.225-5.485z"/><path fill="#7d6a5b" d="M230.293 121.624l8.359 13-4.75 3.551-20.941-3.721 9.693-10.62z"/><path fill="#503e2f" d="M238.652 134.73l-25.691-.172 20.648 7.234z"/><path fill="#1a7578" d="M227.74 94.022l7.918 14.943-7.756 10.779-9.111-2.913z"/><path fill="#685545" d="M235.658 108.965l-2.203 17.576-19.978 8.017 5.314-17.727z"/><path opacity=".1" fill="#2b2523" d="M98.016 383.267l103.283-15.347 88.209 18.067L197.646 400z"/><path fill="#f3d9d4" d="M166.515 149.649l35.985-25.797 3.793 21.643-39.421 83.647-16.225-15.462 22.864-53.947z"/><path fill="#fff" d="M205.203 145.001l-18.508 13.426 5.526 7.397-36.277 86.028h35.226l-12.576-38.172z"/><path fill="#e5e4e3" d="M193.625 212.072l-21.815 2.155-15.866 37.625 1.658 9.603 33.568-9.603zM153.505 264.181l9.481 19.451h38.61l-5.614-19.451z"/><path fill="#2e8ea8" d="M127.489 283.632l9.488 73.717 26.057 8.321 10.771-37.344-30.153-44.694z"/><path fill="#f2f2f2" d="M168.21 152.093l5.595 6.517-17.861 53.151 11.222 13.475-11.222 26.616h-30.567z"/><path fill="#52a8ab" d="M248.842 164.729l-19.336 43.012-50.912 5.939 26.609-68.679z"/><path fill="#1a7578" d="M200.928 281.461l23.605 39.158 49.996-27.945-18.506-10.411-24.306-50.96 4.42-14.245-7.735-9.317-49.808 5.939z"/><path fill="#82cbce" d="M248.842 164.729l32.039 66.299H246.08l-17.678-23.287z"/><path fill="#339396" d="M280.881 231.028l-14.086 26.85-25.902-13.424 5.187-13.426z"/><path fill="#1a7578" d="M240.893 244.454l36.652 18.904-21.522 18.905-24.767-18.082z"/><path fill="#1b5d60" d="M231.717 231.303l-30.291 16.438 13.857 18.63 15.973-2.19 9.637-19.727z"/><path fill="#cecccc" d="M211.406 233.409l-14.478-25.28 4.72-2.704 17.862 23.688z"/><path fill="#f3d9d4" d="M195.146 20.137l20.256 17.249 5.25 27.399 7.088 29.237-14.314 40.708-55.437-6.22z"/><path fill="#fef3f1" d="M238.652 62.99l-7.246 20.44-12.166-4.411 2.936-22.058z"/><path fill="#d5aba6" d="M226.406 62.99l6.762 2.836-8.6 9.648zM219.24 79.019l8.5 15.003 3.666-10.592z"/><path fill="#52a8ab" d="M168.21 152.093l-27.757 4.689-12.575 49.316-2.501 45.754 23.201-42.193z"/><path fill="#339396" d="M157.953 136.71l-18.95 2.6 12.856 15.51 16.351-2.727z"/><path fill="#cecccc" d="M196.928 208.129l-4.723-2.704-.492-4.724 5.213-3.388 4.724 2.704-.002 5.408z"/><path fill="#3b9fbc" d="M213.432 253.369l-2.026-1.159v-2.315l2.024-1.159 2.023 1.159-.002 2.316z"/><path fill="#a4d7d9" d="M211.867 160.087l-.39 3.777-3.493 1.555-3.101-2.221.388-3.781 3.493-1.551zM206.293 177.419l-.389 3.778-3.492 1.555-3.101-2.222.388-3.78 3.49-1.553z"/><path fill="#3b9fbc" d="M219.51 261.455l-2.026-1.158v-2.317l2.024-1.158 2.023 1.158v2.318z"/><path fill="#685545" d="M106.935 26.279l15.954-22.318 22.224-.989 8.914 4.217 16.794-5.362L211.867 0l18.426 22.661 8.359 21.765-2.615 11.988-13.451-5.876-7.184-13.152-20.256-17.249z"/><path fill="#988376" d="M135.382 24.298l25.633-1.784 9.806-20.687-25.709 1.145z"/><path fill="#7d6a5b" d="M211.867 0l-16.721 20.137 20.256 17.249 14.891-14.725z"/><path fill="#999593" d="M208.83 228.911l7.211-4.398 1.631 2.164-7.592 4.417z"/><path fill="#2e8ea8" d="M143.652 283.632l55.659 84.722 29.091 4.871-3.869-58.905-22.937-32.859h-38.61l-9.481-17.28z"/><path fill="#339396" d="M140.453 156.782l-41.147 70.376 28.572-21.06z"/><path fill="#82cbce" d="M99.306 227.158l15.033 22.465 11.612-8.255 1.927-35.27z"/><path fill="#1b5d60" d="M125.377 264.181l-17.083-10.3 17.657-12.513 4.234 17.771z"/><path fill="#25768d" d="M173.563 329.164l52.654 10.753 2.185 33.308-29.091-4.871z"/><path fill="#3b9fbc" d="M173.563 329.164l-41.184-7.541-4.89-37.991h16.163z"/><path fill="#1b5d60" d="M125.377 264.181l-17.083 46.163 24.085 11.279z"/><path fill="#d8d6d5" d="M148.578 209.659l7.366 2.102 11.242 13.431-11.242 26.66h-30.567z"/><path fill="#52a8ab" d="M200.928 281.461l9.343-7.555 45.752 8.357 18.506 10.411-49.996 27.945z"/><path fill="#fef3f1" d="M231.256 264.181l-15.973 2.19 6.248 12.151 11.688 7.36 22.804-3.619z"/><path fill="#f3d9d4" d="M233.219 285.882l-16.707 2.504-8.293-12.82 7.064-9.195z"/><path fill="#339396" d="M140.453 156.782l60.973 90.959 11.83-6.373-61.397-86.548z"/><path fill="#1b5d60" d="M181.7 218.316l19.726 29.425 11.83-6.373-20.881-29.296-13.781 1.608z"/><path fill="#a4d7d9" d="M156.814 185.51l6.352-18.626 12.659 19.517-7.818 15.122z"/><path fill="#339396" d="M160.706 184.439l3.997-9.738 6.647 9.779-4.333 9.164z"/><path fill="#cecccc" d="M195.924 206.775l-11.079 16.231 9.889 23.904 6.692.831 9.814-5.289-3.513-5.851-9.664 1.483-7.411-15.593 8.223-11.199z"/><path fill="#aca9a8" d="M198.063 238.084l13.177 4.368 16.125-8.74.596-13.02z"/><path fill="#1a7578" d="M125.377 251.852l23.201-42.193-20.7-3.561z"/><path fill="#fef3f1" d="M116.382 25.622l-7.253 24.143 4.861 40.674 19.075 40.372 45.405-4.192 18.212-21.103-1.536-85.379z"/><path fill="#fff9f9" d="M144.234 63.407l5.7-.715 1.681 17.705 4.035 6.983-12.705 1 1.92-7.608z"/><path fill="#d5aba6" d="M149.856 93.499l5.794-6.119-12.705 1zM137.782 102.814l26.917-2.535-.232 2.577-25.727 2.625z"/><path fill="#f3d9d4" d="M154.027 56.414l-4.093 6.278 1.681 17.705 4.035 6.983 12.517-22.983 16.751-11.5-11.222-3.714zM140.505 57.825l3.729 5.582.631 17.365-28.875-24.358 6.672-2.017z"/><path fill="#82cbce" d="M203.293 130.915l30.609 10.473-9.318 12.376-19.381-8.763z"/><path fill="#d5aba6" d="M152.739 128.995l20.772 30.738 22.413-34.725z"/><path fill="#86cfe7" d="M144.712 251.852h25.779v12.329h-25.779z"/><g fill="#2e8ea8"><path d="M125.377 251.852h19.335v12.329h-19.335zM192.355 251.852h-21.864v12.329h25.116z"/></g><path fill="#7b7877" d="M278.787 339.963l-37.246-55.403 14.482-2.297 45.961 68.512-6.492 2.247z"/><path opacity=".2" fill="#2b2523" d="M274.529 292.674l-18.506-10.411-14.482 2.297-25.029 3.826z"/><path fill="#565555" d="M228.402 373.225l1.541 14.215-16.589 2.75-21.282-2.75 7.119-19.086zM162.916 365.67v10.743l-23.722 1.781-22.921-1.781 20.587-19.064z"/><path fill="#33302d" d="M162.916 381.839l-46.643.073v-5.499l46.643-.073z"/><path fill="#503e2f" d="M195.146 20.137l9.444 28.316 8.01 4.402.361 39.001h4.76l4.455-34.895 16.476 6.029V44.426l-8.359-10.654V22.661z"/><path fill="#988376" d="M230.293 22.661l8.359 21.765-43.506-24.289z"/><path fill="#685545" d="M167.426 99.085l-2.061-2.563-12-3.75-3.125 2.125-3.437-1.75-10.313 6.438-.562 2.312 12.084-3.402 2.33 1.101 1.94-1.74z"/><path fill="#33302d" d="M192.072 387.44h37.871v5.499h-37.871zM170.168 63.737c0 2.221-1.801 4.021-4.021 4.021s-4.021-1.8-4.021-4.021 1.8-4.021 4.021-4.021 4.021 1.801 4.021 4.021zM136.354 66.713c0 2.221-1.801 4.021-4.021 4.021s-4.02-1.8-4.02-4.021 1.8-4.021 4.02-4.021 4.021 1.801 4.021 4.021z"/><path fill="#25768d" d="M127.748 283.632l29.854 20.677 43.326-22.848h-37.942l-9.481-17.28z"/><path fill="#d8d6d5" d="M153.505 264.181l-9.853 19.451h-16.163l-2.112-19.451z"/><path fill="#f3d9d4" d="M176.854 110.022V93.499l16.771-16.065zM133.88 114.438l-4.378-15.343-13.512-7.239z"/><path fill="#685545" d="M155.061 53.915l21.793-5.768 8.064 4.75-10.064.054-20.827 3.463zM139.704 55.337l-18.888-3.412-4.826 4.489 7.486-.508 17.157 1.946zM148.548 107.523l3.402-.383 2.113 15.662 7.487 5.379-17.316 1.598 5.064-6.721z"/></svg>