<svg xmlns="http://www.w3.org/2000/svg" viewBox="0 0 400 400"><g fill-rule="evenodd" clip-rule="evenodd"><path d="M218.226 145.163l31.596 7.521s-38.271 9.074-38.271 7.847c0-1.226 6.675-15.368 6.675-15.368z" fill="#16788e"/><path opacity=".1" fill="#34302d" d="M111.808 377.42l92.55 22.58 83.834-21.238-80.633-8.896z"/><path fill="#504b4a" d="M210.354 380.856l-11.429 8.26-.015 4.816 32.784-.592v-4.203zM155.769 380.672l-4.899 3.959.073 4.326 37.969-.835v-4.659l-2.37-18.156z"/><path fill="#555554" d="M169.368 344.868l-3.026 3.424 2.998 14.853-18.47 21.486 38.042-1.168.207-35.478-2.095-2.904z"/><path fill="#504b4a" d="M168.467 336.249l-3.689 6.146 1.564 5.897 22.777-.307.306-5.701z"/><path fill="#288fa8" d="M154.365 306.389l10.413 36.006 24.647-.111 3.633-53.241-13.637-6.259-.494 4.504-15.155-10.094z"/><path fill="#007088" d="M162.207 294.006l5.196 7.098-13.038 5.285-1.487-5.754z"/><path fill="#555554" d="M213.541 363.836l-5.422 3.899-9.194 21.381 32.769.021-5.214-20.656zM203.815 342.807l-1.411 4.43 5.715 20.498 8.048-18.332-5.365-6.149z"/><path fill="#504b4a" d="M202.922 332.301l-2.683 8.27 2.165 6.666 14.266-.201 3.8-14.623z"/><path fill="#369dbb" d="M191.94 275.84l-9.39 13.86 17.689 50.871 20.231-.803-6.845-55.433z"/><path fill="#007088" d="M213.898 293.663l-12.681 9.898 9.11 6.322 11.673 4.35z"/><path d="M157.959 283.887l24.591 5.813 40.016-16.318-13.163-23.322s-53.685 6.541-53.009 7.674c.676 1.13 1.565 26.153 1.565 26.153z" fill="#16788e"/><path d="M232.18 281.875l5.533-1.564v6.211l1.536 18.805-19.451.414c-.643 1.013 12.382-23.866 12.382-23.866z" fill="#005356"/><path fill="#137d81" d="M258.994 292.899l-3.452 2.9-30.168 7.83-10.073 10.104 32.551 2.434 21.926-16.114z"/><path fill="#006d70" d="M251.63 283.278l-.057 5.48 3.969 7.041 14.236 4.254-5.713-14.715-9.53-12.121z"/><path fill="#175e5f" d="M209.041 258.514l-8.718 6.709.894 38.338 13.549-.242 21.854-28.135-.36-3.641-.671-15.152z"/><path fill="#128e93" d="M219.492 315.075l6.484-2.174 43.802-12.848 7.616 47.215-49.742 22.602z"/><path fill="#43a5a8" d="M221.468 303.207l-11.141 6.676-2.208 57.852 19.533 2.135-1.676-56.969z"/><path fill="#9fd5d8" d="M244.419 271.207l-8.159.336-25.933 38.34 15.649 3.018 11.737-26.379 7.265-7.715z"/><path fill="#86cac7" d="M243.373 271.25l-7.113.293 1.478 14.95 7.24-7.686-.433-5.885z"/><path fill="#175e5f" d="M162.15 255.833l3.969 8.382 1.284 36.889-24.366-.783 4.918-36.018z"/><path fill="#7ec9ce" d="M162.598 249.012l3.521 15.203 15.045-2.146 19.159 3.154 12.016-45.381-48.276.963z"/><path d="M164.472 257.108l1.646 7.107 34.205 1.008 1.897-7.17c-10.423-.287-31.063-.843-37.748-.945z" fill="#a4a5a5"/><path d="M174.051 264.45l14.773.434-.945-7.217c-4.717-.123-9.577-.25-13.775-.352-.005 2.037-.027 4.646-.053 7.135z" fill="#d4d1d2"/><path d="M159.244 220.846c-.105-.674 11.792 3.578 11.792 3.578l28.391.67 22.748-22.02-1.342-15.203-68.855 5.254 7.266 27.721z" fill="#a2d6d9"/><path d="M223.349 197.542c-.895.671-46.834 14.195-46.834 14.195l-8.719-4.473-4.627 7.322-6.439-16.039 1.454-11.736 67.849.894-2.684 9.837z" fill="#7bc8cd"/><path fill="#117578" d="M248.22 215.034l-12.631 41.357-35.266 8.832 22.075-57.119 22.692-4.359z"/><path d="M208.371 241.469c.984.383-8.048 23.754-8.048 23.754l39.511-48.305 4.865-7.305-17.326-7.936-19.002 39.792z" fill="#006164"/><path fill="#fef2f0" d="M255.598 255.67l-10.434 5.739-8.904 10.134 6.372 5.141 5.304 5.651 16.129 3.003-.818-19.47z"/><path fill="#f2d6d2" d="M242.632 276.684l-4.919 9.838 13.86 2.236 12.492-3.42z"/><path fill="#117578" d="M253.082 210.227l-5.439 17.358-2.479 33.824 18.083 4.459 7.496-43.569z"/><path fill="#175e5f" d="M252.411 174.236l8.272.335 10.06 47.728-23.1 5.286-15.616-21.331-3.09-23.076z"/><path fill="#004c4e" d="M239.834 216.919l-4.242-5.795 6.425-16.824 9.276-3.41z"/><path fill="#4fa7ab" d="M210.829 216.489l-11.401 8.605.895 40.129 22.691-37.894z"/><path fill="#117578" d="M133.144 222.411l-2.905 4.674 5.08 14.98 22.751-6.912-8.718-17.102z"/><path fill="#706c6b" d="M161.982 219.729l8.706 7.516-4.569 36.97-12.91.063-10.622-2.52-3.864-35.365z"/><path fill="#7e7b7b" d="M162.783 220.143l8.254 4.281-.349 2.821-31.965-.852-.326-2.976 19.973-3.123z"/><path fill="#4d4948" d="M147.06 239.737l11.457-2.461-5.308 27.002-10.341.051zM158.07 210.899l5.099 3.688 7.868 9.837-32.64-1.007 5.03-15.09z"/><path fill="#175e5f" d="M146.221 176.247l-1.85-.869-14.132 51.707 8.158-3.668 8.986-8.83 9.849-28.615z"/><path fill="#319396" d="M158.741 191.001l4.428 23.586h-15.786l-6.661-25.855 13.345-.828z"/><path fill="#006164" d="M231.173 183.625l5.198 6.203 24.312-15.257-8.886-5.533z"/><path fill="#319396" d="M220.777 189.102l-1.272 4.627-5.521 6.825-14.556 24.54 23.586 2.235 28.279-36.439-14.922-1.062z"/><path fill="#278184" d="M225.987 182.653l10.384 7.175-22.387 10.726 3.071-5.177z"/><path fill="#6bc2dd" d="M157.232 185.972l-4.051 1.987-8.81-12.581 5.67-16.073 7.471 8.447z"/><path fill="#369dbb" d="M180.762 197.038l-4.304 10.002-23.277-19.081 1.219-14.444 25.859 3.291z"/><path fill="#288fa8" d="M236.93 173.061l-.559 16.767-59.913 17.212-1.565-21.571 59.578-17.884z"/><path fill="#16788e" d="M219.445 159.305l30.376-6.62 1.976 16.353-15.426 20.79-7.714-17.549z"/><path fill="#6bc2dd" d="M228.657 172.279l21.164-19.594-23.353.412-37.527-12.865 15.585 20.253z"/><path fill="#249bb9" d="M164.498 168.814l10.395 16.655 53.764-13.19-39.515-19.313z"/><path fill="#288fa8" d="M181.017 155.935l1.682 11.158-7.806 18.376-20.493-11.954-4.359-14.21 23.202-8.185z"/><path fill="#d4a8a2" d="M165.718 139.193l16.821 28.413 23.858-7.224 13.325-17.561-23.407-6.099z"/><path d="M233.599 114.854l1.408 3.493-8.539 34.75-20.07 7.285 6.708-15.931-17.367-.247s-8.994-101.231-8.349-97.63c.645 3.601 34.614-16.934 34.614-16.934l11.595 85.214z" fill="#f2d6d2"/><path fill="#4b4b4a" d="M227.549 84.316h-7.679l.643-14.123 11.136-13.336z"/><path fill="#d4a8a2" d="M235.922 95.499l2.746 8.237-3.661 14.611-9.601-14.611z"/><path fill="#413e3b" d="M246.188 61.339l8.704 6.839-16.224 35.558-2.633-42.605z"/><path fill="#fef2f0" d="M235.62 66.727l-9.994 9.532-.22 27.477h13.262l4.334-26.284z"/><path fill="#4b4b4a" d="M239.351 35.436l15.541-.623v33.365l-11.89 9.274-17.376-1.193 6.886-35.228z"/><path fill="#616060" d="M227.124 17.614l10.776 4.145 16.992 13.054-20.929 19.273-24.246-27.354z"/><path fill="#747170" d="M217.178 30.048l-2.153 15.572 6.202 8.82-.714 15.753 13.45-16.107-9.168-18.741-4.922-10.064z"/><path fill="#616060" d="M205.364 1.45l18.501.248L237.9 21.759l-13.136 13.702-9.739 10.159-27.066-31.322z"/><path d="M237.9 21.759l-13.137 13.702-9.738 10.159-20.68-23.93c1.865-1.767 3.249-3.088 3.249-3.088l40.306 3.157z" fill="#4b4b4a"/><path fill="#4b4b4a" d="M153.973 20.101l-34.71 13.16L157.289.001l66.576 1.697-26.27 16.904z"/><path d="M175.732 24.661l21.863-6.06-41.135-5.753-37.197 20.413 7.845 5.821 8.479-1.829s5.066 7.604 8.659 12.603l31.486-25.195z" fill="#413e3b"/><path d="M119.263 33.261l10.491 28.188 14.491-11.594c-3.593-4.999-8.659-12.603-8.659-12.603l-16.323-3.991z" fill="#4b4b4a"/><path fill="#616060" d="M196.559 48.65l18.466-3.03-17.43-27.018-31.292.414-9.324 9.325-20.931 11.811 13.056 16.993z"/><path fill="#fef2f0" d="M135.586 37.252l-5.832 24.197 4.177 56.898 24.943 25.589 36.865.269 17.401-25.425 1.885-73.16-32.972-17.693-40.202 14.92 15.128-14.506z"/><path fill="#f2d6d2" d="M167.403 71.807l-3.012 3.741-2.582-3.741-6.43-6.316-13.647-8.616-7.801 3.747 12.023 15.828 12.464 23.197 7.73-7.69 4.611 7.926L184 76.685l21.261-18.919L192 54.916l-15.668 10.156z"/><path fill="#4fa7ab" d="M151.487 113.146l-6.165-1.657 14.507 16.578h18.65l19.374-17.614-13.836 4.568z"/><path fill="#117578" d="M145.322 111.489l5.906 2.902 12.744 2.382 24.66-1.14.8-.449 8.421-4.731-9.946 1.968-22.483-3.005-12.62 2.259z"/><path fill="#d4a8a2" d="M162.16 97.189l-3.742 2.458 6.435 4.536 5.906-4.3z"/><path fill="#616060" d="M173.508 61.12l18.698-8.016 13.471 2.901-.416 1.761-12.743-1.554-16.186 8.86zM157.348 61.243l-1.969 4.248-15.646-6.943-5.802 2.073-.725-1.346 6.424-3.834z"/><path fill="#fef8f8" d="M161.809 71.807l-3.391 27.84 12.341.236-3.356-28.076z"/><path fill="#fff" d="M151.228 114.391l14.774-.408 20.798 1.407 1.832.243-12.614 7.849-13.72-.096z"/><path fill="#d4a8a2" d="M231.161 82.017l7.203.366-7.714 13.562z"/><path fill="#9fd5d8" d="M231.351 100.348l-.305 9.448 5.071-1.883.206-6.736z"/><path fill="#fef2f0" d="M150.469 260.417l-7.601 3.912-4.725-20.346 1.303-10.971 19.071 4.264z"/><path fill="#f2d6d2" d="M139.446 233.012l-4.127 9.053 7.549 22.264z"/><path fill="#9fd5d8" d="M256.38 309.71l-6.707 2.122-2.347 5.59.559 4.807 2.905-.559 2.795 21.686-2.402 1.061 1.413 7.669 12.718-6.066-1.209-6.67-2.808.988z"/><path d="M148.112 81.353c2.701 0 4.903-2.203 4.903-4.903 0-2.701-2.203-4.904-4.903-4.904-2.701 0-4.903 2.203-4.903 4.904 0 2.7 2.202 4.903 4.903 4.903zM185.084 80.993c2.711 0 4.922-2.211 4.922-4.922 0-2.71-2.211-4.922-4.922-4.922s-4.922 2.212-4.922 4.922c0 2.711 2.211 4.922 4.922 4.922z" fill="#33302d"/><path fill="#f2d6d2" d="M201.479 108.046l-.934 11.872 5.325-8.059zM143.792 109.215l.936 11.872-5.324-8.059z"/></g></svg>