<svg xmlns="http://www.w3.org/2000/svg" viewBox="0 0 900 350"><g fill-rule="evenodd" clip-rule="evenodd" fill="#2B2B2B"><path opacity=".1" d="M60.25 325.25L127.5 343l63.25-26.25-66.25-11zM294.5 287.5l-92 28.667 238.75 33.958 111.25-25.958 132 10.666 14-4.666 102 11.333 54.667-24-336.667-40z"/></g><g fill-rule="evenodd" clip-rule="evenodd"><path fill="#C4C4C2" d="M178.5 110.5l174-81 548-29-13 308-550-59z"/><path fill="#5EC0D9" d="M178.5 110.5l174-81 548-29-3.932 39.097L352 59.5z"/><path fill="#DDDDDC" d="M352.5 29.5L.5 1.5l23 314 324-67z"/><path fill="#75CFE3" d="M352.5 29.5L.5 1.5l2.5 39 348.833 16.667z"/></g><g fill-rule="evenodd" clip-rule="evenodd"><path fill="#3AA0BA" d="M679.167 282.833l46.666-7.333v32l-48.666 17.333-23.334-24z"/><path fill="#5EC0D9" d="M629.167 306.833l-29.334-20.666 57.334-15.334 68.666 4.667-48.666 16.667z"/><path fill="#308FA6" d="M599.833 318.833v-32.666l77.334 6v32.666z"/><path fill="#3AA0BA" d="M608.75 293.5l-6.5 7 8.125.375zM612.75 307.25l.5 5.625 8.125-3zM632.75 296.5l-4.625 6.125L637 304.5zM651.125 310.25l4.125 9.375 6.625-5.625zM661.25 303.375l6-5.875 3.75 7.875z"/><path fill="#5EC0D9" d="M690.625 292.75l-.375 7.25 7.25-3.125zM700.375 300.25l5.375 8.375s5-7.5 4.625-7.5-10-.875-10-.875zM687 312.625l7.125.875s-1.625-6.625-2-6.625-5.125 5.75-5.125 5.75zM716.25 292l-4.75 5.75 7.125-1.125z"/><g><path fill="#3AA0BA" d="M686.377 233.465l37.456-5.886v43.342l-39.061 13.912-18.728-19.263z"/><path fill="#5EC0D9" d="M646.246 270.386l-23.544-34.246 46.017-12.307 55.114 3.746-39.061 13.377z"/><path fill="#308FA6" d="M622.702 280.017V236.14l62.07 4.816v43.877z"/><path fill="#3AA0BA" d="M640.333 281.5l6.167-43.75 10.583-.5 2.386 1.688.031 43.979-14.417-.584z"/><path fill="#75CFE3" d="M680 224.625l-33.5 13.125 12.969 1.188L696 225.625z"/></g><g><path fill="#3AA0BA" d="M793.044 278.465l37.456-5.886v43.342l-39.061 13.912-18.728-19.263z"/><path fill="#5EC0D9" d="M752.912 315.386l-23.544-34.246 46.018-12.307 55.114 3.746-39.061 13.377z"/><path fill="#308FA6" d="M729.368 325.017V281.14l62.071 4.816v43.877z"/><path fill="#4EA9AA" d="M752.875 282.875l-.125 44 12.375.875 1.625-43.625z"/><path fill="#72CBCC" d="M749.708 275.667l57.042 5.083 9.125-3-51.75-5.917z"/><path fill="#94D5D4" d="M789.313 269.688l-36.438 13.187 13.875 1.25 36.125-13.5z"/><path fill="#4EA9AA" d="M807 324.333l-.25-43.583 9.125-3 2.958 42.25z"/></g></g><g fill-rule="evenodd" clip-rule="evenodd" fill="#ECECEB"><path d="M496.5 43.5L616 20l83 27.5 25.333 80.667L639.5 187.5l-105.167-16.833-64.5-49zM457.5 140.75l7.75-5.75 8.75 3.5.25 10.75-11 2.917-6.583-3.834zM435.954 140.016l6.821 3.06.949 7.239-7.307 3.602-5.334-4-.57-7.592zM418.484 135.794l.711 4.736-3.574 3.017-4.471-2.693.311-4.26 3.896-2.934z"/></g><g fill-rule="evenodd" clip-rule="evenodd"><path fill="#DDDDDC" d="M533.25 160l22.25-13.833 137.25 4.083-52.979 37.333-84.271-13.458z"/><path fill="#F5CBB3" d="M674.5 157l-3 2.75-1.5 6.5 7-4.875.125-5.75L673 152l-4.5 3.875.875 2.25z"/><path fill="#FEE5D6" d="M675.875 149.375L673 152l-1.5 7.75s5.125 1.75 5.5 1.625 3.125-2.25 3.125-2.25l-.375-4.75-3.875-5z"/><path fill="#308FA6" d="M606.5 61.083l12.333 8.334-4.083 6.75L598 69.583l-3.833-9.75z"/><path fill="#4EA9AA" d="M591 77.333l22.333 9.5-7.666 12.334-25.667 4.5z"/><path fill="#C3927D" d="M570.813 100.875l2.562-3 5.813-6.375-13.688-6.625 1.563 13z"/><path fill="#72CBCC" d="M567.833 72l-3.166-6.5 29.5-5.667 19.166 27-24.833 9.334z"/><path fill="#3AA0BA" d="M520.75 134.875l-13.625-.625-5.5 11.75 15.25 11.75z"/><path fill="#F5CBB3" d="M565.25 94.75l-6.625 21.125 2 10.25 10.75-3.625 2-24.625z"/><path fill="#3AA0BA" d="M541.5 134.875l4.25-12 12.875-7.375 12.75 7-15.875 23.667zM545.5 142.833l10 3.334v27.958l-21.583-3.25-17.042-13.125z"/><path fill="#5EC0D9" d="M545.75 122.875l-31.287 5.857-6.838 5.518 9.25 23.5 38.625-11.583z"/><path fill="#4F5353" d="M503.044 79.285l-13.589 3.768 8.679 18.843 19.413 5.595-4.111-24.78z"/><path fill="#494749" d="M506.927 68.437l-11.877 6.509-5.595 8.107 19.527 6.395 20.784-11.762z"/><path fill="#4F5353" d="M537.531 62.613l-4.682-3.655-26.608 1.371-11.191 14.617 21.948 1.519z"/><path fill="#6F7273" d="M544.725 72.662l5.253-9.707-17.129-3.997-15.851 17.507z"/><path fill="#4F5353" d="M543.583 76.544l6.594-5.523-.199-8.066-7.879 3.654 1.256 10.392"/><path fill="#C3927D" d="M511.038 117.084l-2.513 1.827-3.426-5.025 6.624-6.775z"/><path fill="#F5CBB3" d="M525.426 80.313l-8.428-3.848-8.016 12.983 2.284 12.105-2.512 1.142-3.198-4.568-7.422 3.769 6.965 11.99 4.112-1.827-.686 6.852 5.938 9.821 21.412.685z"/><path fill="#C3927D" d="M536.161 110.46l-7.758 9.292-8.001 3.955 15.473 5.71 4.625-18.5z"/><path fill="#FEE5D6" d="M550.177 71.021l9.66 37.536-31.434 11.195-11.405-43.287 25.101-9.856z"/><path fill="#F5CBB3" d="M529.4 84.223l-3.759 2.01 7.108 2.71 5.706 5.691 2.347-2.983 3.201 1.875.584-5.368 3.543-6.525-3.895-.849-3.383 2.39-.141 1.967-2.352 4.669-1.899-3.021-2.41-2.177z"/><path fill="#C3927D" d="M539.798 91.16l-1.343 3.474 3.613 2.036 1.935-3.144z"/><path fill="#FFF1E9" d="M540.711 85.141l3.292 8.385-5.548 1.108-1.995-7.845z"/><path fill="#2B2B2B" d="M533.573 89.236c.033 1.043-.785 1.915-1.828 1.948-1.043.033-1.915-.785-1.948-1.828-.033-1.043.785-1.915 1.828-1.948 1.042-.033 1.914.785 1.948 1.828zM548.119 85.864c.033 1.043-.785 1.915-1.828 1.948-1.043.033-1.915-.785-1.948-1.828-.033-1.043.785-1.915 1.828-1.948 1.043-.033 1.915.785 1.948 1.828z"/><path fill="#C3927D" d="M535.414 101.36l12.903-3.843-.413 6.41-7.115 2.539z"/><path fill="#FFF" d="M537.787 101.939l9.368-3.025-.129 2.119-7.859 2.454z"/><path fill="#4F5353" d="M533.226 82.022l-7.995 2.305.41 1.906 8.409-1.621zM547.458 79.736l-7.13.707.524 2.731 7.278-1.541z"/><path fill="#C3927D" d="M502.13 104.027l2.855-1.56 2.113 5.1z"/><path fill="#349496" d="M559 74.5l21 29.167 8.5-7.5L564.667 65.5z"/><path fill="#FEE5D6" d="M568.938 96.234l-3.688-1.484L560.5 86l7.167-9.833 2 2.5-3 5.5L569.5 89.5z"/><path fill="#DDDDDC" d="M578.375 73.375l11.25 16.063L606 83.063l-11.875-14.625z"/><path fill="#4EA9AA" d="M576.281 68.844l3.375-1 .844-1.938 6-1.406 1.781 1 3.313-.562.687 1.687-14.906 4.125z"/><g><path fill="#4F5353" d="M627 162.667l-11 4.166-2.167 16.667 13.834 2.167 4.083-10.917z"/><path fill="#6F7273" d="M645.125 150l-13.958-7.833L616 166.833l15.75 7.917L651 162.875zM644.75 172.5l-2 4.375 2.344 7 7.461-5.281z"/><path fill="#858686" d="M643.333 152.333l-4.5 9.334 3.917 15.208 9.805 1.719 9.534-6.703 2.458-21.583z"/><path fill="#4F5353" d="M639.5 134.333l-8.333 7.834 7.666 19.5 25.667-11.5z"/><path fill="#F5CBB3" d="M677.5 130l10 5.167-7.75 19.208L673 152l-.375-14.25z"/><path fill="#349496" d="M660.667 126.333L676.5 117.5l11 17.667-14.875 2.583z"/><path fill="#4EA9AA" d="M641 115l-7.125 6.25-2.708 20.917 33.333 8 7.625-19.667z"/><path fill="#5EC0D9" d="M638.083 53.25l2-7.167L614 45.5l-19.833 14.333 17.75 9.834z"/><path fill="#C3927D" d="M624.333 77.667l-3.166-1.834-2.084-5.75 9.084-6.75 7.666-2.25-7.916 14.334z"/><path fill="#3AA0BA" d="M614.75 76.167L631.125 63.5l14.125-9.333-5.167-8.084-28.166 23.584z"/><path fill="#F5CBB3" d="M641.75 116.75l-15.25-16.125-5.333-24.792 9.083-1.583 15 28.125z"/><path fill="#4EA9AA" d="M636.25 118l-9.75-17.375 4.167-2.292L644.5 96.5l9.375 14.25z"/><path fill="#72CBCC" d="M649.125 106.25l-5.25-7.25-2.75 1.625-7.25 20.625 38.25 9.25 4.375-13-5.375-5.875z"/><path fill="#494749" d="M670.188 65.25l9.062-2.625 5.438 15.125-1.25 4.375-13.938 5.563-3.312-18.5z"/><path fill="#C3927D" d="M671.375 91.625L678 95.5l1.75-4.25-2.625-4.375-6.812.125z"/><path fill="#F5CBB3" d="M671.125 87.5l3.5 1.75 5.125 2 3.688-9.125-6.938-2.25-.75 3.75z"/><path fill="#F5CBB3" d="M652.75 107.5l-2.125 5.125 20.5-1L678 95.5l-3.375-6.25 1.125-5.625-3.062-.937.562-8.063-4.083-4.792-20.792 8.917z"/><path fill="#C3927D" d="M641.625 98l-10.958.333 14.583 4.042 5.375 10.25L668.5 105.5l-4.667-2z"/><path fill="#4F5353" d="M651.875 57.375l.875-.625 11-4.75 15.5 10.625-10.083 7.208-17.167.792z"/><path fill="#6F7273" d="M643.75 60.125l1-6.75 19-1.375-13.125 16.875z"/><path fill="#4F5353" d="M637.875 68.25l-6.75-4.75 13.625-10.125 6.083 10.458z"/><path fill="#494749" d="M649.75 68l-16.375 7.75-2.25-12.25 19.708.333z"/><path fill="#FEE5D6" d="M634.667 65.833l-4 32.5 33.166 5.167 5.334-33.667-18.334-6z"/><path fill="#F5CBB3" d="M642.719 71.969l.469-.469-4.657.719 7.147 12.35 3.666-2.975 1.677 4.369 10.917-9.838-3.125-1.875-4.282.156-2.813 3.891-4.155 3.266-.569-3.886-1.056-4.239z"/><path fill="#C3927D" d="M645.678 84.569l2.4 2.633 2.943-1.239-2.091-3.02z"/><path fill="#FFF1E9" d="M646.994 77.677c-.077.232-1.316 6.892-1.316 6.892l5.343 1.394.697-7.667-4.724-.619z"/><path fill="#C3927D" d="M641.883 88.054l12.526 1.975-7.144 5.304z"/><path fill="#FFF" d="M643.606 89.041l8.944 1.394-1.993 1.142-5.615-.735z"/><circle fill="#2B2B2B" cx="642.251" cy="77.367" r="1.742"/><circle fill="#2B2B2B" cx="657.061" cy="79.11" r="1.742"/><path fill="#4F5353" d="M646.313 71l-7.532-.312-.25 1.531 7.407 1.219zM655 72.031l-.469 2.375 7.407 1.719.187-1.656z"/><path fill="#C3927D" d="M680 83.875l-1.75-.625-.562 3.25z"/><path fill="#FEE5D6" d="M624.833 75.333l5.417-1.083 1.583-5.833-5.5-8.417-2.25 1.75 2.75 5.667-2.75 5.5z"/><path fill="#DDDDDC" d="M612.875 49.958l15 .959-11.583 9.375-14-3.459z"/><path fill="#3AA0BA" d="M601 57.958l13.417 4.25-2.167 2.125-12.417-5.541z"/></g></g><g fill-rule="evenodd" clip-rule="evenodd"><path opacity=".1" fill="#2B2B2B" d="M776 205.5l-1.5 37 75 8-5-168.5z"/><path fill="#72CBCC" d="M762.5 82.833l-.667 152 79.334 7.334L844.5 82z"/><path fill="#DDDDDC" d="M775.167 98.167l-3.334 125.666 58.334 5L831.833 97.5z"/><path fill="#72CBCC" d="M784.5 110.5l37.667-.167-.167 5.834-37.167.666zM779.75 195.5l40.5 2.25-.5 7.25-39.667-3.167zM779.5 206.75L820 209l-.5 7.25-39.667-3.167z"/><path fill="#4EA9AA" d="M799.167 127.833l-12.834 19.334 6 3.833-6 11.5 6.167 3-6 11.333 8.833 1.5.5 10.667 6 .667 1.5-11.334 12.167-.666-9.833-11.167 5.833-4.167-8-11 6.167-3.333z"/></g><g fill-rule="evenodd" clip-rule="evenodd"><path fill="#29788C" d="M100.083 302.458l-10.166-15.833 36.166-9.417 36.334 9.584-24.584 21.916z"/><path fill="#858686" d="M138.458 257.333l-3.5 47.25-8.625-.375-9-48z"/><path fill="#6F7273" d="M107.583 304.708l11.25-8.375-3.875-43.25 8.375-.625 4.03 15.542.47 25.958-9.25 11.75z"/><path fill="#3AA0BA" d="M115.333 307.208l13.25 23.5 26.5-8 5.334-25.416-32.584-3.334z"/><path fill="#5EC0D9" d="M115.333 307.208l12.75-3.083 32.334-6.833 2-10.5-34.584 7.166z"/><path fill="#72CBCC" d="M114.057 232.668L127.363 268l64.698-22.025-52.768-67.91-33.037 40.379z"/><path fill="#4EA9AA" d="M100.75 191.831l-37.167 62.403L127.363 268l5.965-55.062zM114.974 122.086l18.354 90.852 59.192-32.578-50.015-50.933z"/><path fill="#349496" d="M103.962 136.769l-39.461 54.144 68.827 22.025-5.965-64.239z"/><path fill="#72CBCC" d="M115.892 108.321l8.718-62.863 42.673 82.593-39.92 20.648z"/><path fill="#4EA9AA" d="M124.61 45.458l2.753 103.241-50.014-14.224z"/><path fill="#308FA6" d="M91.917 298.792l28.16-3.79 8.006 9.123.5 26.583-32.5-7.25z"/><path fill="#3AA0BA" d="M89.917 286.625l37.916 7.333.25 10.167-36.166-5.333z"/><path fill="#4EA9AA" d="M136.917 105.25l-.688 4.354-3.687 2.167 3.791 1.833.021 4.959 3.792-3.605 4.937-.125-2.875-3.5 1.667-2.875-3.479-.062z"/><path fill="#72CBCC" d="M106.888 123.087l-3.547 2.616-4.147-1.048 1.411 3.968-3.468 3.544 5.231.098 3.602 3.379.412-4.51 3.206-.876-2.433-2.488zM143.708 165.333l-.5 4.938-3.375 2.187 3.813.813-.375 4.375 3.625-3.813h5.375l-3.25-2.687 1.562-3.688-3.437 1.25z"/><path fill="#4EA9AA" d="M109.917 178.125l-1.417 3.667-3.833 1.916 2.75.834-.25 4.416 3.5-3.583 5.833 2.417-4.417-4.417 3.25-2.083h-4.5zM150.417 221.958l-3.167 4.584-6.5 1.083 5.583 2.333-1.666 5.167 6.25-3.333 6.916 3.666-2.916-4.75 3.75-2.916-6.667-.167z"/><path fill="#72CBCC" d="M102.417 226.375l1.916 5.417-4.5 3.083 5.917-.167 3.417 8.667.333-8.167 8.25-1-7-1.75 3.917-4.166-7.417 2.166z"/></g><g fill-rule="evenodd" clip-rule="evenodd"><path opacity=".1" fill="#2B2B2B" d="M260.93 111l-58.599-8.992-9.295 67.59 67.49-6.466z"/><path fill="#B7B7B7" d="M213.849 149.291l-5.152 6.516-4.146-.63-2.826-.43.606-52.739 5.509-.909z"/><path fill="#D0CECD" d="M223.7 134.288l2.576 19.549-17.579 1.97-.857-54.708z"/><path fill="#ECECEB" d="M207.84 101.099l57.545.555 5.143 48.849-55.062 7.174z"/><path fill="#D0CECD" d="M220.854 116.859l11.111-3.334 4.92 9.048-3.809 13.65 6.984-.793.159 6.825-15.079 1.429-.635-8.572 5.396-9.841-1.269-3.651-7.302 1.112zM257.546 114.132l-12.882.151-3.486 9.245 11.518 4.243 1.061 6.971-9.851.455.556 6.567 14.751-1.566 1.212-11.972-9.396-6.214v-3.182l8.941.454z"/></g><g fill-rule="evenodd" clip-rule="evenodd"><path fill="#F6CBB4" d="M413.333 188.667l-21.166-8.334L377.75 184l-5 18.25 19.75-5.583 19 5.166z"/><path fill="#308FA6" d="M569.75 292l-10.917 18-14.333-1.833-19-35.667 40.75 1.5z"/><path fill="#29788C" d="M279 283.5l.833 39.667L299 318.833l15.5-38.333z"/><path fill="#F6CBB4" d="M362.128 268.448l11.01 18.156 6.028 1.168 2.806-2.656-1.36-14.729zM351.345 267.379l-1.9 20.405-7.629 2.515-1.7-3.431-6.836-21.345z"/><path fill="#2A788C" d="M381.972 285.116l8.347 7.699-8.025 8.917-9.772-1.354.616-13.774zM349.445 287.784l5.706 15.116-10.043 1.505-9.948-1.505 4.956-16.032z"/><path fill="#C3937D" d="M380.612 270.387l-14.921 3.936-3.563-5.875 9.242-.879zM333.28 265.523l17.576 7.099.489-5.243-8.644-1.856z"/><path fill="#3B9FB9" d="M348.907 297.06h-7.403l-6.344 5.84v2.38h19.991v-2.38zM390.319 292.815l-10.757 7.563h-7.04v2.295h28.564v-5.186z"/><path fill="#4FA8A9" d="M328.91 150.764l-21.898 46.448 24.696-10.774 5.629-5.394zM367.587 144.825l7.395 3.322 17.185 32.186L372 187.25l-4.413-20.161z"/><path fill="#73CBCC" d="M367.587 144.825l-8.282 21.144-11.645 4.982 11.897-8.932-15.492-18.937-15.155 7.682 5.142 28.711-6.527 19.541-9.23 19.989h23.206l26.086-4.662 6.987-9.529-5.574-5.147 12.614-23.583z"/><path fill="#369496" d="M334.052 179.475l-6.527 19.541 47.049 5.798 7.04-28.73zM367.587 214.343l-13.507 24.376-22.639 21.261-13.146-40.975z"/><path fill="#4FA8A9" d="M367.587 214.343l5.826 9.781 6.383 30.954v15.62l-45.514-2.046-2.841-8.672z"/><path fill="#369496" d="M334.282 268.652l45.514-13.574 1.818 18.438zM367.587 214.343l12.209 40.735-5.222-50.264z"/><path fill="#FFF" d="M367.587 144.825l-26.086-.618v30.169l17.804-8.407 19.731 4.369z"/><path fill="#505354" d="M411.336 82.048l13.154 13.565-16.124 13.626-.164-13.987z"/><path fill="#73CBCC" d="M341.088 65.372l-5.015-6.155-4.295-14.825 57.465-10.812 1.265 14.89-1.848 10.906-25.953 6.903z"/><path fill="#93D3D4" d="M389.243 33.58l32.465 23.574-10.372 24.894-13.855-10.172-8.821-12.5z"/><path fill="#369496" d="M331.778 44.392l-4.18 31.726 8.633-4.455 4.857-6.291z"/><path fill="#2A788C" d="M389.125 38.812l-2.277.355-.29 6.208-5.456.816-.187 4.116 5.642-.732-.113 5.719 2.313-.218 1.751-6.606z"/><path fill="#338EA5" d="M389.125 38.812l2.166 1.788-.02 5.351 4.493 3.638-.91 3.523-3.712-2.841-.236 6.104-2.149-1.299z"/><path fill="#FEE5D6" d="M411.336 82.048l-6.939 63.509-31.638-2.336-20.081 6.259-14.575-19.604-13.198-20.52 13.251-3.664 2.209 4.107 17.801-25.147 11.496-3.659 13.738-2.578z"/><path fill="#F6CBB4" d="M358.166 84.652l-5.682 57.551 20.275 1.018-7.483 4.36.646 6.501-6.617 11.887-17.804-21.762-8.398-18.16-1.025-5.295-2.729-2.456-6.676-13.782 14.076-7.14 2.501 13.455 6.716-10.526zM402.407 96.941l-14.931 12.839-7.142 5.944-12.069-21.303z"/><path fill="#FFF1E9" d="M382.141 95.398l-1.807 20.326 6.587.636 1.729-20.504z"/><path fill="#C3937D" d="M386.921 116.36l-3.785 3.592-2.802-4.228zM372.759 143.221l-6.837 10.861-19.261-13.202zM337.996 115.361l-4.891 10.688-3.754-7.749zM335.986 112.886l-2.429-8.131-6.303 1.932z"/><path fill="#505354" d="M380.473 83.559l6.548-11.509 1.639-12.674-47.572 5.996-26.986 21.341 22.133.104 21.931-2.165 9.685-.475z"/><path fill="#2B2C2B" d="M358.166 84.652l-18.547 27.75-3.695-11.553-13.251 3.665-8.571-17.801z"/><path fill="#707274" d="M388.66 59.376l22.676 22.672-30.863 1.511z"/><path fill="#505354" d="M382.141 95.398l.377-4.503-14.253 3.526zM388.65 95.856l13.757 1.085-13.25-5.399z"/><path fill="#227779" d="M375.372 126.849l7.472-2.511 6.676 3.575-7.268 2.283z"/><path fill="#4FA8A9" d="M370.057 124.854l12.115 8.925 12.393-6.987-12.146 2.701z"/><path fill="#2B2C2B" d="M377.624 104.646c-.394 1.659-2.058 2.684-3.716 2.29-1.659-.394-2.684-2.058-2.29-3.716.394-1.659 2.058-2.684 3.716-2.29 1.659.393 2.684 2.057 2.29 3.716zM397.055 106.085c-.394 1.659-2.058 2.684-3.716 2.29-1.659-.394-2.684-2.058-2.29-3.716.394-1.659 2.058-2.684 3.716-2.29 1.658.394 2.684 2.058 2.29 3.716z"/><path fill="#3AA0BA" d="M417.167 303.5L440.5 342l20.333-5.667 10-27.5 87.5-21.5.5 22.667 22.379-5.303 8.621-67.864L417.167 259.5z"/><path fill="#308FA6" d="M248.5 250.833l7.5 68 23.833 4.334 5.667-22 128 14.333 3.167 22.833L440.5 342l4-76.5z"/><g><path fill="#D0CECD" d="M419.5 224l35.75 57.75L605 246l5-26.5z"/><path fill="#A3A1A1" d="M315 230.5l-88.167-.5 10.667 31.5 217.75 20.25L456 254z"/><path fill="#ECECEB" d="M428.25 204.25L226.833 230 456 254l154-34.5z"/><path opacity=".1" fill="#2B2B2B" d="M377.833 210.5L319 218.333l60.167 9.5 57.574 6.5-4.241-11.166z"/></g><g><path fill="#3AA0BA" d="M422.135 208.167L398.722 225.5l26.738 4.333L451.109 224l.535-5.792-15.972.792z"/><path fill="#5EC0D9" d="M469.159 222.5l-17.515-4.292-26.184 11.625 11.281 4.5z"/></g><path fill="#3AA0BA" d="M425.994 215.583l9.678 3.417 26.578-18.25-22.54-14.25-24.581-2.542-18.88 14.75z"/><g><path fill="#ECECEB" d="M375.853 204.506l-23.54-10.058 42.354-5.281 38.393 7.82-19.382 11.62z"/><path fill="#DDDDDC" d="M387.992 209.486l13.949-8.398 31.119-4.101L435.672 219l-36.95 6.5z"/><path fill="#D0CECD" d="M352.313 194.448l5.106 14.448-3.497 12.893 46.78-11.581 1.239-9.12z"/><path fill="#3AA0BA" d="M352.313 194.448l1.02 27.219 45.389 3.833 1.98-15.292-16.922-2.875z"/></g><g><path fill="#F6CBB4" d="M355.5 209.25l5-6 8.167 8.75-5.084 5.833L353 216.208z"/><path fill="#FEE5D6" d="M360.5 203.25l-12.25-1.75-5.25 1-2 6.25 12 7.458z"/><path fill="#F6CBB4" d="M348.25 201.5l-16.453-15.25-24.785 10.962L341 208.75z"/></g><path fill="#5EC0D9" d="M415.129 183.958l29.568-2.375 36.553 16.667-19 2.5zM352.313 194.448l48.389 15.76-18.465 4.125z"/></g></svg>