<svg xmlns="http://www.w3.org/2000/svg" viewBox="0 0 400 400"><path opacity=".1" fill="#2b2523" d="M123.733 389.455l73.537-10.543 84.531 11.743L198.137 400z"/><path fill="#503e2f" d="M167.181 141.199l-1.91 6.562 4.817 10.397 14.741-2.201-1.308-16.383z"/><path fill="#685545" d="M156.538 130.84v20.099l13.55 7.219-2.907-16.959z"/><path fill="#edd8c7" d="M218.871 142.453l-11.838 4.308-20.472 12.816-.858-7.011-15.615 5.592-3.186 28.647 6.882 9.446 14.82-3.143.285-10.849 13.549-18.181zM311.896 191.183l6.075 6.597-6.983 13.131-19.76-.541-2.876-13.34z"/><path fill="#d8b89d" d="M260.215 194.352l26.137.491 2.199 7.003-2.801 9.409-43.715 7.059 6.715-17.267z"/><path fill="#edd8c7" d="M223.383 169.491l18.652 48.823 18.18-23.962-11.363-39.853-15.577-1.9z"/><path fill="#d8b89d" d="M311.896 191.183l14.209 1.366-.986 12.985-14.131 5.377zM291.949 202.666l7.479-2.609 5.662-15.317-4.608-5.844-7.566 16.071z"/><path fill="#1a7578" d="M239.014 390.655h18.506v2.041h-18.506z"/><path fill="#2e8ea8" d="M195.771 361.2l9.252 8.488 10.954-8.155 2.236-6.991.775-50.096-19.377-11.128-18.947 32.431z"/><path fill="#25768d" d="M195.771 361.2l3.84-67.882-31.96 25.11 13.397 45.367z"/><path fill="#d8b89d" d="M227.115 206.971l3.725-18.432-7.457-19.048-13.358 8.389-.845 11.847 4.732 15.746 6.543 4.759z"/><path fill="#565555" d="M107.285 138.931l4.315-11.644 5.797-3.291 11.381.625 12.876 18.032-4.658 11.279-5.563 3.158h-12.16z"/><path fill="#aca9a8" d="M111.6 127.287l19.833 29.803 5.563-3.158-19.599-29.936z"/><path fill="#edd8c7" d="M170.088 158.158l-45.33 30.041 12.238 20.711 17.446-6.805z"/><path fill="#d8b89d" d="M114.794 165.358l29.063 40.875-22.499 9.927-20.723-44.022z"/><path fill="#339396" d="M107.285 138.931l-4.237 5.766-9.641 11.122-8.62 3.37-10.893 8.644 5.676 8.008 39.703-18.751z"/><path fill="#1a7578" d="M106.448 154.327l-11.826 11.987-9.835-7.125z"/><path fill="#edd8c7" d="M84.787 159.189l8.006 3.731 13.655-8.593-2.322-11.097zM114.794 165.358l6.564-16.1-7.837-.856-4.812 12.049-13.645 8.072 5.571 3.615z"/><path fill="#d8b89d" d="M217.154 47.019l24.627 18.128-9.306 43.272-13.604 34.811-32.31 18.008 7.681-22.729z"/><path fill="#ae9175" d="M175.19 140.403l11.371 20.835 24.757-24.713-17.076 1.984-9.413-2.944z"/><path fill="#edd8c7" d="M135.716 60.898l-.617 16.628 8.169 40.4 23.913 23.273 27.061-2.69 16.75-20.126 3.258-36.822 2.904-34.542-49.831-21.226-24.352 14.995z"/><path fill="#d8b89d" d="M176.158 199.512l12.356-2.94 2.244 7.603-2.756 11.606-9.71-7.196z"/><path fill="#339396" d="M172.39 194.338l16.298-4.415 2.07 2.624-2.244 4.025-12.258 3.073-3.866-1.793z"/><path fill="#25768d" d="M162.08 174.718l-16.728 16.56 16.728 30.448 11.549-1.907 14.381-4.04-21.108-28.974zM200.023 174.718l-11.134 7.541-.879 33.52 15.363.795 16-7.847-4.92-15.862 2.184-3.542-4.274-3.534-2.338-7.909z"/><path fill="#685545" d="M167.038 33.706l28.923 37.107 37.664 22.135 2.035 12.9-10.031 14.344 2.734 15.373-9.492 7.665-10.812 6.028 1.361 8.204-6.982 6.616 7.587 13.802 38.827-23.381-7.071-22.08 7.254-7.827 13.365-21.651 2.483-25.622-14.473-24.493-13.746-38.521L199.111 0l-18.613 3.115-31.503 4.816-23.769 32.007-3.15 25.776 13.64-4.816 10.702-20.11z"/><path fill="#25768d" d="M164.07 225.349l21.504-8.441 40.457-4.746-2.418 11.712-29.002 7.678-25.042 3.804z"/><path fill="#1a7578" d="M222.41 229.658l20.569 24.194-.762 19.281-27.305 11.509-17.441 1.499-24.738-15.144-1.194-32.055 23.072-5.643z"/><path fill="#d8b89d" d="M162.441 275.428l-10.67 43 28.893 7.321 18.947-32.431-2.14-7.177-17.515-9.82z"/><path fill="#edd8c7" d="M228.094 366.718l10.92 23.937h18.506l-16.106-28.507zM181.048 363.795l-14.547 21.868h-18.506l17.562-21.801 6.835-2.621z"/><path fill="#ae9175" d="M180.664 325.749l.384 38.046-15.491.067-13.786-45.434z"/><path fill="#1a7578" d="M181.048 363.795l-12.96 18.696-12.318-6.479-2.336 2.9 12.486 6.751h-17.925v2.498h18.506l8.851-11.223.859 11.223h2.741l3.935-14.938z"/><path fill="#52a8ab" d="M162.08 221.726l1.99 3.623 61.961-13.187 1.084-5.191zM223.613 223.874l-54.044 11.482 1.97 3.586 50.871-9.284z"/><path fill="#6dc1dc" d="M242.219 273.056l20.775 105.712 18.127-23.394-38.142-101.522h-10.008z"/><path fill="#3b9fbc" d="M222.41 229.658l-19.816 3.471 39.625 39.927.76-19.204z"/><path fill="#25768d" d="M241.414 362.148l17.908-1.533-17.103-87.559-9.248 44.373z"/><path fill="#d8b89d" d="M180.63 192.064l-1.049-14.491-4.391 15.969z"/><path fill="#1a7578" d="M212.363 185.788l18.477 2.751-1.391 5.813-14.996-1.493z"/><path fill="#25768d" d="M215.977 361.533l-7.332-37.935 19.449 43.12z"/><path fill="#339396" d="M162.441 275.428l35.03 10.713-25.932-47.199z"/><path fill="#3b9fbc" d="M145.352 191.278l21.55-4.473 3.186-28.647zM188.889 182.259l21.136-4.379-7.587-13.801z"/><path fill="#edd8c7" d="M197.471 286.141l11.517 38.611 31.479-7.323 1.75-44.296z"/><path fill="#d8b89d" d="M240.467 317.429l.947 44.719-13.32 4.57-19.106-41.966z"/><path fill="#685545" d="M167.038 33.706L199.111 0l37.553 14.305-55.76 37.191z"/><path fill="#503e2f" d="M236.664 14.305l-55.76 37.191 15.057 19.317 54.449-17.987zM199.111 0l-32.073 33.706-20.62 7.082 2.577-32.857zM122.076 65.714l13.023 11.812.617-16.628z"/><path fill="#988376" d="M125.226 39.938l10.49 20.96 10.702-20.11 2.577-32.857z"/><path fill="#503e2f" d="M233.625 92.948l28.775 9.993-36.771 17.251zM225.629 120.192l-6.758 23.038 29.981 11.269z"/><path fill="#f0e5de" d="M162.949 82.031h7.371l2.651 18.696h-12.41z"/><path fill="#ae9175" d="M160.561 100.727l5.832 4.429 6.578-4.429z"/><path fill="#503e2f" d="M160.906 74.053l-8.449-2.549-13.946.427 1.701-3.068 12.291-.459 6.883 3.525z"/><path fill="#d8b89d" d="M160.906 74.053l2.043 7.978-1.643 12.862-22.795-22.962 13.946-.427zM172.971 100.727l22.99-29.914-15.76.313-8.593 2.549-1.288 8.356z"/><path fill="#503e2f" d="M171.608 73.675l.668-1.628 8.078-4.312h13.209l2.398 3.078-15.76.313z"/><path fill="#1b5d60" d="M154.442 112.898l28.185-.564 1.501-2.13-1.958.192-10.402-1.742-4.165 1.075-3.294-.59-9.487 2.001-2.362-.363z"/><path fill="#339396" d="M154.442 112.898l7.719 9.465 13.65-.566 6.816-9.463z"/><path fill="#fff" d="M156.538 112.861l7.991-.228 7.082-.299h8.878l-6.365 4.86-11.175.621z"/><path fill="#988376" d="M195.961 70.813l18.289 10.748 50.633-4.242-14.473-24.493zM208.059 149.258l15.324 20.233-20.945-5.413zM225.629 120.192l23.406 4.4-.183 29.907z"/><path fill="#1a7578" d="M252.377 381.552l-13.887 5.641.524 3.462 15.302-5.422z"/><path fill="#d8b89d" d="M254.316 385.233l-6.515 1.94-8.787 3.482h18.506zM153.434 378.912l12.486 6.751h-17.925z"/><path fill="#ae9175" d="M224.408 97.39h7.912l-2.482 8.458z"/><path fill="none" d="M186.561 161.238l32.31-18.008"/><path fill="#503e2f" d="M223.383 86.929l-.973 6.019-3.978-8.68z"/><path d="M187.088 84.268c0 2.285-1.746 4.138-3.901 4.138-2.153 0-3.9-1.853-3.9-4.138 0-2.284 1.747-4.137 3.9-4.137 2.155 0 3.901 1.852 3.901 4.137zM155.46 85.392c0 2.284-1.746 4.137-3.9 4.137s-3.901-1.853-3.901-4.137c0-2.285 1.747-4.137 3.901-4.137s3.9 1.851 3.9 4.137z" fill="#33302d"/><path fill="#3a9ebc" d="M285.75 211.255l5.478-.885 1.688-15.403-6.564-.124z"/><path fill="#edd8c7" d="M104.126 143.23l-5.737-5.227-13.602 21.186z"/><path fill="#d8b89d" d="M104.536 162.92l-9.472 5.603 5.571 3.615 5.819-2.786z"/><path fill="#3a9ebc" d="M103.152 177.485l15.301-6.98-3.659-5.147-14.159 6.78z"/><path fill="#1a7578" d="M240.248 390.655l-12.154-23.937-2.893 11.188 3.625 14.79h2.75l1.246-9.626 6.192 9.626z"/></svg>