<svg xmlns="http://www.w3.org/2000/svg" viewBox="0 0 400 400"><path fill="#d2965e" d="M227.055 67.551v84.28l25.353 13.548-7.256-18.109 4.416-8.78-1.8-17.045-6.411-14.846 1.498-31.675z"/><path fill="#85511f" d="M252.408 165.379l-2.84-26.888v-.001l-22.513-6.401v19.742z"/><path fill="#a2662b" d="M227.055 93.965l18.097 2.708 2.616 24.772-20.713-12.192z"/><path fill="#b6773e" d="M242.855 74.924l2.297 21.749-18.097-2.708V67.551z"/><path opacity=".1" fill="#13110c" d="M123.707 384.846l83.766-17.229 88.754 17.229-42.079 7.574-65.316 7.48z"/><path fill="#1a7578" d="M162.472 213.221l-2.432-52.189-27.496 58.544 22.15 8.764z"/><path fill="#b6773e" d="M164.434 134.851l-5.596 33.345 33.382.28-17.377-34.968z"/><path fill="#1a7578" d="M169.496 245.813l-20.01 65.25 34.998 38.015 68.674 36.106.99 6.138 24.088-9.969-42.472-148.189z"/><path fill="#f3d9d4" d="M196.612 53.281l-14.242 79.256 9.85 31.002 15.253 4.937 8.357-24.387 11.225-12v-64.64l-30.443-14.168z"/><path fill="#fef3f1" d="M196.616 110.878l-14.246 21.659-29.391 3.792-20.203-17.73-20.839-59.444 31.124-30.799 53.551 24.925z"/><path fill="#52a8ab" d="M227.055 149.152l33.154 13.539-11.423 36.104-12.682 14.426.337 24.59h-66.945L167.5 211.1l-12.053-22.47 4.593-27.598 12.262-13.188z"/><path fill="#339396" d="M236.441 237.811l12.344-39.017-93.338-10.164 14.049 49.181z"/><path fill="#d5aba6" d="M192.22 163.539l-17.377-30.031 32.798-4.232z"/><path fill="#d2965e" d="M113.156 48.187l-9.383-7.155L117.029 21 156.317.099l48.771 6.967 32.726 41.564 14.594 12.143-9.553 14.151-99.794-46.568z"/><path fill="#1a7578" d="M260.209 162.691l18.906 79.409-29.051-19-3.771-16.428z"/><path fill="#52a8ab" d="M279.115 242.1l-37.931 68.978-23.176-63.619-6.811-15.422 38.867-8.937z"/><path fill="#1b5d60" d="M206.084 245.521l5.113 25.409 29.987 40.148-23.176-63.619z"/><path fill="#52a8ab" d="M162.802 230.953l-4.668-1.252-25.59-10.125-6.521 23.922 23.463 67.565 20.01-65.342z"/><path fill="#339396" d="M241.184 311.078l37.931-68.978-61.107 5.359z"/><path fill="#1b5d60" d="M149.486 287.492v23.571l25.357-43.426 5.183-24.139-18.439 3.852z"/><path fill="#f3d9d4" d="M192.22 163.539l3.457 33.171 20.153-49.44-15.043-2.765z"/><path fill="#339396" d="M161.587 247.35l-35.564-3.852 23.463 67.565z"/><path fill="#6dc1dc" d="M199.715 193.45l32.601-41.867v-10.126l-5.261-9.368-13.741 11.376-21.861 49.085z"/><path fill="#6dc1dc" d="M191.453 192.55l8.262.9-7.495-29.911-13.239-22.878-6.89 5.481 1.664 13.436z"/><path fill="#2e8ea8" d="M195.509 192.96l4.206.49 11.482 77.48-9.552-.408.664 8.185-13.477 7.279 2.621-93.436z"/><path fill="#25768d" d="M202.309 278.707l-2.594-85.257-10.883 92.536z"/><path fill="#3b9fbc" d="M191.453 192.55l-16.61 75.087 13.989 18.349 10.883-92.536z"/><path fill="#6dc1dc" d="M191.453 192.55l19.744 78.38-11.482-77.48z"/><path fill="#a2662b" d="M196.616 53.346l15.269 14.205 31.353 10.986 9.17-17.764-14.594-12.145v-.002z"/><path fill="#fef3f1" d="M161.587 247.35l22.897-4.454-1.175-18.681-20.507 6.738z"/><path fill="#fef3f1" d="M211.197 232.037l-20.623-10.035-13.451 4.1v16.894l13.451 1.332 27.434 3.131z"/><path fill="#f3d9d4" d="M177.123 244.328h13.451v-22.326l-13.451 4.1z"/><path fill="#52a8ab" d="M166.823 281.373l-17.337 29.69-4.806 73.783h15.052z"/><path fill="#339396" d="M188.832 285.986V399.9l-29.341-11.543 7.332-106.984 8.02-13.736z"/><path fill="#1b5d60" d="M211.197 270.93l15.129 120.392-37.494 8.578V285.986l13.477-7.279-.237-7.777z"/><path fill="#52a8ab" d="M241.184 311.078l12.964 80.244h-27.822L211.197 270.93z"/><path fill="#f3d9d4" d="M155.25 74.296l2.365-5.028 14.476-8.786h12l-13.318 14.442-9.497 22.8-6.026-10.625z"/><path fill="#a2662a" d="M157.615 69.268l10.757-5.297 3.719-3.489h12l-12.193-2.073-12.252 6.412z"/><path fill="#f3d9d4" d="M144.709 71.707l2.567 4.017 3.625 12.25-.378 6.044-27.167-23.654 5.834-2.181z"/><path fill="#fef3f1" d="M211.885 67.551v25.034l15.17 1.38V72.867z"/><path fill="#d5aba6" d="M211.885 92.585l15.17 16.668V93.965zM215.83 84.849V72.224l7.234 1.959z"/><path fill="#b6773e" d="M156.317.099l-13.256 28.257 29.03 13.546 32.997-34.836z"/><path fill="#a2662b" d="M117.029 21l26.032 7.356L156.317.099z"/><path fill="#85511f" d="M178.981 140.661l-4.138-7.153-10.409 1.343-4.394 26.181z"/><path fill="#2e8ea8" d="M149.841 115.205l7.162 2.276 8.167-1.584 10.059-5.839z"/><path fill="#25768d" d="M149.471 115.245l9.504-1.014 16.254-4.173-14.812.25-2.022 2.245-2.759-.934zM232.316 151.583l-35.72 29.421 3.119 12.446zM173.755 159.578l25.96 33.872-8.262-.9z"/><path fill="#a2662b" d="M237.814 48.626l-42.478-4.136-16.751-9.442-35.524-6.692 53.555 24.99z"/><path fill="#85511f" d="M204.514 60.693l7.371 23.848v-16.99z"/><path fill="#1b5d60" d="M240.219 179.378l-.59-1.022-4.483-1.023-5.537-.512 1.649 1.024-10.02 2.484 1.914 1.265-4.449 2.06 3.002 5.883 6.932 3.544 8.117-8.186 2.705 2.119 2.154-2.886h-1.31l-3.465-2.046 4.607.622.549.767 2.75-2.009.293-1.205z"/><path fill="#52a8ab" d="M237.242 178.794l1.205-.192.789.768h-1.412zM235.02 178.987l-1.776-.385-3.742.768 2.758 1.562h2.316l-2.316-.347-1.551-1.061 2.408-.537z"/><path d="M174.631 74.811c0 2.234-1.761 4.045-3.933 4.045-2.172 0-3.933-1.811-3.933-4.045s1.761-4.045 3.933-4.045c2.172 0 3.933 1.811 3.933 4.045zM140.102 80.852c0 2.234-1.761 4.045-3.933 4.045-2.172 0-3.933-1.811-3.933-4.045s1.761-4.045 3.933-4.045c2.172 0 3.933 1.811 3.933 4.045z" fill="#33302d"/><path fill="#f3d9d4" d="M147.813 103.349l-5.726.737-6.953-.279 7.326 2.845v9.1zM164.957 99.22l15.354 10.033-1.774-6.834 6.526-6.757-9.438 3.875z"/><path fill="#a2662a" d="M144.709 71.707l-2.705-3.649-13.528-1.229-5.12 3.535 5.834-1.463 4.615 1.463z"/><path fill="#85511f" d="M143.061 28.356l-18.043 8.167-11.862 11.664 3.873 25.495 6.327-25.828z"/><path fill="#a2662a" d="M117.029 73.682L103.773 59.6V41.032l9.383 7.155z"/><path fill="#b6773e" d="M113.156 48.187l1.9 12.506-11.283-1.093V41.032z"/><path fill="#d5aba6" d="M161.276 97.724l-4.807 6.219-6.318-3.969z"/><path opacity=".5" fill="#fff9f9" d="M147.276 75.724l7.974-1.428.401 13.053 5.625 10.375-11.125 2.25.75-12z"/></svg>