<svg xmlns="http://www.w3.org/2000/svg" viewBox="0 0 400 400"><path fill-rule="evenodd" clip-rule="evenodd" fill="#34302d" d="M109.53 389.145l90.817-11.778 78.517 14.953-81 7.68z" opacity=".1"/><path fill-rule="evenodd" clip-rule="evenodd" fill="#e8d1ce" d="M232.64 359.703l-2.858 6.771-2.937 7.737 1.193 3.483-2.803.753-3.502 9.225 30.882 1.012-2.2-10.338-2.352-1.061.454-3.087-3.735-8.155z"/><path fill-rule="evenodd" clip-rule="evenodd" fill="#319396" d="M226.845 374.211l-1.61 4.236 8.754 9.584 8.51.251 7.916-9.936-1.898-4.148-9.913 7.422z"/><path fill-rule="evenodd" clip-rule="evenodd" fill="#005356" d="M273.2 279.108l2.307 14.011 3.545 11.07 9.572-8.274-5.117-7.831z"/><path fill-rule="evenodd" clip-rule="evenodd" fill="#e8d1ce" d="M168.817 357.577l-7.752 3.369-18.312 12.639.547 2.343-3.594-.239-12.387 8.549 46.44-1.635 1.483-16.74z"/><path d="M142.753 373.585l-3.047 2.104 7.711 7.842 15.623-.552c-4.879-2.306-15.101-7.01-20.287-9.394" fill-rule="evenodd" clip-rule="evenodd" fill="#319396"/><path fill-rule="evenodd" clip-rule="evenodd" fill="#e8d1ce" d="M226.376 302.254l-11.359 13.595 7.096 24.33 14.02 15.996 10.917-15.224 1.818-20.117z"/><path d="M248.868 320.834l1.625-12.262-2.527-3.662c-14.027 4.536-32.289 13.205-32.289 13.205l33.191 2.719z" fill-rule="evenodd" clip-rule="evenodd" fill="#a98980"/><path fill-rule="evenodd" clip-rule="evenodd" fill="#e8d1ce" d="M186.712 301.436l-10.514 5.043-6.45 23.215 3.59 23.632 19.494-11.289 17.661-23.922z"/><path fill-rule="evenodd" clip-rule="evenodd" fill="#a98980" d="M210.493 318.115l-13.291-7.398-21.004-4.238 30.295 17.055z"/><path fill-rule="evenodd" clip-rule="evenodd" fill="#2c8da8" d="M206.001 278.879l-21.69-1.568-8.113 29.168 34.295 11.636 3.82-4.386z"/><path fill-rule="evenodd" clip-rule="evenodd" fill="#3a9ebc" d="M212.956 290.478l-2.557 11.448 5.278 16.189 34.816-9.543 3.539-35.597z"/><path fill-rule="evenodd" clip-rule="evenodd" fill="#24768d" d="M247.642 257.438l-36.784-1.606-13.922-.683-7.5 3.271-5.125 18.891 26.088 24.615 43.633-28.951z"/><path fill-rule="evenodd" clip-rule="evenodd" fill="#87cfe6" d="M205.8 245.335l-14.364 5.031-1.998 8.054 58.204-.982-2.694-6.582z"/><path fill-rule="evenodd" clip-rule="evenodd" fill="#006d70" d="M263.911 321.758l10.567 19.3 26.074-22.736-7.387-13.873-28.23-.519z"/><path fill-rule="evenodd" clip-rule="evenodd" fill="#128e93" d="M270.856 318.526l-3.367-9.363 2.324-6.885 18.811-6.363 6.275 11.79z"/><path fill-rule="evenodd" clip-rule="evenodd" fill="#1d9a9e" d="M266.115 274.542l-6.719 2.89-8.436 54.958 23.518 8.668-6.049-50.295-1.194-11.93z"/><path fill-rule="evenodd" clip-rule="evenodd" fill="#e8d1ce" d="M267.235 268.084l-3.37 7.666 3.37 3.083 5.028 9.64 11.244-.389-.399-23.078-7.737-3.381z"/><path fill-rule="evenodd" clip-rule="evenodd" fill="#cbaaa4" d="M267.235 278.833l1.477 14.286h6.795l8-5.035z"/><path fill-rule="evenodd" clip-rule="evenodd" fill="#cfada7" d="M261.952 214.177l-3.713 21.721 8.996 32.186 15.873-3.078-2.332-35.993z"/><path fill-rule="evenodd" clip-rule="evenodd" fill="#e8d1ce" d="M250.02 181.139l9.243-4.702 6.097 4.702 15.416 47.874-22.537 6.883-6.644-19.059z"/><path fill-rule="evenodd" clip-rule="evenodd" fill="#cfada7" d="M124.562 214.44l7.489-11.976-12.436-5.047-3.712 3.286 8.074 9.214z"/><path fill-rule="evenodd" clip-rule="evenodd" fill="#e8d1ce" d="M137.806 212.779l-3.36 5.994-22.998 4.06-3.655-8.946 8.817-1.908 15.44-9.516z"/><path fill-rule="evenodd" clip-rule="evenodd" fill="#cfada7" d="M167.097 229.254l-5.909 3.325-26.898-13.885-2.239-16.231 42.788 9.191z"/><path fill-rule="evenodd" clip-rule="evenodd" fill="#e8d1ce" d="M190.731 212.633l-15.486-13.298-14.057 33.244 16.707 8.994 19.358-26.397z"/><path fill-rule="evenodd" clip-rule="evenodd" fill="#319396" d="M185.301 191.812l-10.056 7.523 16.191 51.031 53.512.49 6.647-34.019z"/><path d="M202.642 168.751l-1.791-1.921-9.564 1.564-16.041 30.942 76.35 17.501 7.668-40.4s-18.605-12.818-17.266-12.493c1.339.326-39.356 4.807-39.356 4.807" fill-rule="evenodd" clip-rule="evenodd" fill="#50a8ab"/><path d="M246.784 167.691s-17.795 13.628-29.435 22.823c-5.543 4.376-9.693 7.748-9.865 8.167-.531 1.302.418-9.144.418-9.144l31.676-29.252 2.328 3.734 4.878 3.672z" fill-rule="evenodd" clip-rule="evenodd" fill="#7bc8cd"/><path fill-rule="evenodd" clip-rule="evenodd" fill="#9fd5d8" d="M200.85 166.83l-4.782.781 11.318 31.19 1.134-7.275z"/><path fill-rule="evenodd" clip-rule="evenodd" fill="#cfada7" d="M256.126 112.5l6.322 5.088-20.451 46.356-14.395 11.861-19.082 15.721-4.25-13.684 18.84-98.496 29.209-11.307.306 37.728z"/><path fill-rule="evenodd" clip-rule="evenodd" fill="#a98980" d="M196.573 153.875l4.277 12.955 3.42 11.012 29.928-23.967z"/><path d="M249.804 113.584L257.413 129l5.035-11.412s-11.436-6.301-10.947-6.735l-1.697 2.731z" fill-rule="evenodd" clip-rule="evenodd" fill="#a6847b"/><path fill-rule="evenodd" clip-rule="evenodd" fill="#d4a8a2" d="M235.616 98.544l13.889 4.171 3.578-3.925-14.873-5.732z"/><path fill-rule="evenodd" clip-rule="evenodd" fill="#3d2e1e" d="M262.286 70.331l10.647 16.013-2.36 10.031-17.948 9.392-6.177-2.271-3.633-27.725z"/><path fill-rule="evenodd" clip-rule="evenodd" fill="#695444" d="M259.985 48.413l18.588 13.838-5.64 24.093-30.118-10.574-9.972-11.161z"/><path fill-rule="evenodd" clip-rule="evenodd" fill="#7d6a5b" d="M242.263 28.949l14.654 1.472 21.656 31.829-38.996 3.543-14.187-21.796z"/><path fill-rule="evenodd" clip-rule="evenodd" fill="#4f3d2f" d="M215.505 17.173L206.39 0l50.527 30.421-25.051 4.253z"/><path fill-rule="evenodd" clip-rule="evenodd" fill="#5f4937" d="M229.991 22.898l7.158 2.781 19.768 4.742-25.137 9.324-28.033-6.053z"/><path fill-rule="evenodd" clip-rule="evenodd" fill="#695444" d="M193.862 22.08l7.465-6.653L206.39 0l24.931 30.527-19.607 3.371z"/><path fill-rule="evenodd" clip-rule="evenodd" fill="#4f3d2f" d="M243.657 7.359l2.11 18.626-17.553 7.033z"/><path d="M211.542 33.794c.529-.458 32.115-26.435 32.115-26.435l-9.756 22.816-22.359 3.619z" fill-rule="evenodd" clip-rule="evenodd" fill="#7d6a5b"/><path fill-rule="evenodd" clip-rule="evenodd" fill="#4f3d2f" d="M259.245 18.151l-2.328 12.271-21.983 12.921 5.704-12.945zM181.998 15.778l-2.281-10.872 22.075 9.106 9.922 19.886zM186.534 23.552l-31.187 1.145 31.187 35.657 21.473-14.558z"/><path fill-rule="evenodd" clip-rule="evenodd" fill="#978375" d="M190.393 24.651L179.717 4.906l-5.285 19.285 16.405 23.447zM183.126 58.554l-.67-8.129-6.787-13.5-20.322-12.228 7.969 22.3 1.277 12.417z"/><path fill-rule="evenodd" clip-rule="evenodd" fill="#695444" d="M195.725 54.122l-4.888-6.484-15.168-10.713-21.166 14.349 12.506 4.814 3.045-.247 6.884 5.991z"/><path fill-rule="evenodd" clip-rule="evenodd" fill="#978375" d="M154.501 51.274l6.416 17.133 16.021-6.574-6.884-5.992z"/><path fill-rule="evenodd" clip-rule="evenodd" fill="#695444" d="M215.337 47.105l-3.623-13.207-31.997-28.991 11.12 42.73z"/><path d="M190.964 57.246l-.127-9.608 20.877-13.739 16.813 2.601 6.408 6.844-5.832 6.36-8.021 4.236 3.143 17.737s6.938.238 13.734.458l-3.756 14.707-43.239-29.596z" fill-rule="evenodd" clip-rule="evenodd" fill="#978375"/><path d="M234.934 43.343l7.881 32.427-4.857-3.636c-6.797-.22-13.734-.457-13.734-.457l-3.143-17.737 13.853-10.597z" fill-rule="evenodd" clip-rule="evenodd" fill="#4f3d2f"/><path fill-rule="evenodd" clip-rule="evenodd" fill="#e8d1ce" d="M160.916 68.407l1.157 58.076 20.117 27.392h29.133l21.125-20.863 10.367-57.241-21.736-21.831-30.242-6.302-20.783 8.204z"/><path fill-rule="evenodd" clip-rule="evenodd" fill="#43a5a8" d="M187.198 136.125h11.5l11.094-8.751-32.71-.41z"/><path fill-rule="evenodd" clip-rule="evenodd" fill="#a98980" d="M191.817 110.853l-6.056 2.772 5.187 5.079 4.719-5.141z"/><path fill-rule="evenodd" clip-rule="evenodd" fill="#f3e3e3" d="M188.823 94.377l.459 6.873-3.521 12.375 9.906-.062-2.23-11.979 1.386-7.207z"/><path d="M124.935 382.44l51.295-1.227-.084 5.643-50.871.653c-.001 0-.133-5.074-.34-5.069M219.007 386.2l38.514.326-.491 5.562h-38.023z" fill-rule="evenodd" clip-rule="evenodd" fill="#1b5d5f"/><path fill-rule="evenodd" clip-rule="evenodd" fill="#695444" d="M184.698 85.334h-12.833l-5.118 4.879 1.451 1.95 4.522-3.415 13.041 1.405zM259.245 18.151l-47.531 15.747 23.22 9.445z"/><path fill="#cfada7" d="M267.235 268.084v10.749l-7.839-1.401z"/><path fill-rule="evenodd" clip-rule="evenodd" fill="#cfada7" d="M220.801 91.417l-10.447 6.47-14.687 15.676-2.23-11.979 1.386-7.207 3.542-4.46 16.521-3.076zM185.761 90.153l3.062 4.224.459 6.873-1.817 6.386-19.267-15.473 4.522-3.415z"/><path d="M212.085 95.196c0 2.158-1.749 3.907-3.908 3.907-2.158 0-3.907-1.75-3.907-3.907 0-2.158 1.749-3.907 3.907-3.907 2.159 0 3.908 1.749 3.908 3.907zM180.708 95.509c0 2.158-1.749 3.907-3.908 3.907-2.158 0-3.907-1.749-3.907-3.907s1.749-3.907 3.907-3.907c2.159 0 3.908 1.749 3.908 3.907z" fill-rule="evenodd" clip-rule="evenodd" fill="#33302d"/><path fill-rule="evenodd" clip-rule="evenodd" fill="#e8cfcc" d="M257.079 92.377l13.494 3.998-8.125 21.213-12.644-4.004z"/><path fill-rule="evenodd" clip-rule="evenodd" fill="#695444" d="M200 85.516l15.662-.641 6.68 5.019-1.541 1.523-6.404-3.368-16.032 1.868z"/><path fill-rule="evenodd" clip-rule="evenodd" fill="#a6847b" d="M256.126 109.667l2.823-9.667 6.333 1.613z"/><path fill-rule="evenodd" clip-rule="evenodd" fill="#cfada7" d="M204.27 116.125l7.053 9.125v8.5l3.735-7.125 5.743-4.875-5.889.457zM181.046 117.588l-4.163 6.537v8.25l-4.163-6.625-5.272-5.823 6.799 1.948z"/><path fill-rule="evenodd" clip-rule="evenodd" fill="#fff" d="M182.385 127.326l3.376 4.674h12.875l4.75-4.06z"/><path fill-rule="evenodd" clip-rule="evenodd" fill="#006d70" d="M191.695 124.857l-4.427-1.441-10.186 3.548 14.322.976 18.388-.566-12.599-3.829z"/><path fill-rule="evenodd" clip-rule="evenodd" fill="#cfada7" d="M116.61 211.979L97.782 203.5v11.833l13.666 7.5zM169.748 329.694l-8.683 31.252 14.177 4.917 17.59-23.826zM222.113 340.179l7.669 26.295 15-.431 2.268-25.092zM139.706 375.689l-12.387-.439 2.786 7.065 15.747-.375zM232.419 386.311l-13.412-.111 6.228-7.753zM250.415 378.346l3.733 8.151h-10.227z"/></svg>