<svg xmlns="http://www.w3.org/2000/svg" viewBox="0 0 400 400"><path opacity=".1" fill="#2b2b2b" d="M117.543 381.197l80.216-13.426 94.831 15.104L198.501 400z"/><path fill="#185e60" d="M173.287 359.968l-31.357 20.213 27.02 2.023 33.057-2.023 2.041-16.17z"/><path fill="#134c4c" d="M202.007 386.245h-10.706l-4.417-3.034-9.01 3.034H141.93v-6.064h60.077z"/><path fill="#1e7678" d="M202.007 366.034l-10.706 20.211 25.831 3.035 19.206-3.035-2.041-13.473-14.317-6.022z"/><path fill="#185e60" d="M191.301 386.245h45.037v6.064h-45.037z"/><path fill="#359496" d="M192.077 304.201l2.877 29.301 7.053 32.532-26.937-15.583-14.544-24.06-17.944-43.168 42.94 9.355z"/><path fill="#1e7678" d="M193.937 333.502l-33.409-7.108 12.759 33.574 28.72 6.066z"/><path fill="#4fa9aa" d="M183.93 296.949l31.153-6.645 38.248-6.064-12.206 54.802-21.225 14.6-26.972-20.14z"/><path fill="#359496" d="M192.928 333.502l48.197 5.539-6.828 33.731-32.29-6.738z"/><path fill="#1e7678" d="M194.698 295.097l-10.768 1.852-9.112-2.355 12.743-22.235z"/><path fill="#359496" d="M144.99 152.928l-20.734 35.543-7.994 36.891 7.994 13.476 19.096 10.274 8.86-21.351z"/><path fill="#1e7678" d="M141.562 214.686l-17.306-26.215-10.013 36.891 2.981 18.364 26.128 5.386 8.86-21.351z"/><path fill="#cea39f" d="M107.186 211.124l7.057 14.238 7.421-.654-5.152-9.748z"/><path fill="#185e60" d="M166.658 146.273l-21.668 6.655-2.408 130.295 32.236 11.371 10.704-12.381 9.176 12.884 58.633-10.857 15.04-127.69-33.02-8.22z"/><path fill="#1e7678" d="M235.351 148.33l12.372 28.686-55.646 47.05zM166.658 146.273l-15.466 29.058 27.138 49.746z"/><path fill="#fff" d="M235.351 148.33l-56.584 104.489-12.109-106.546 18.864-.757z"/><path opacity=".2" fill="#2b2b2b" d="M211.479 136.305l3.604 13.848-16.582 25.178-12.979-21.224-16.825 10.11 3.598-11.289 13.227-7.412z"/><path fill="#6d6d6d" d="M259.251 75.855v18.359l-14.444-9.525 3.933-16.648z"/><path fill="#606060" d="M259.251 94.214l-16.464 15.221 4.177-25.815z"/><path fill="#feeee9" d="M169.533 4.399l-16.504 8.015-20.136 18.244-8.352 80.914 15.155 13.678 27.682 4.214 20.341 16.289h41.086l22.092-74.505-12.393-5.608 3.503-20.028-15.357-21.897-19.937-15.222z"/><path fill="#efd0cb" d="M226.65 23.715l-14.281 19.494-16.364 91.502-10.845 15.849 52.476-16.877 5.15-24.247-.106-10.475 3.755-6.701 4.462-21.012-12.393-7.746 3.503-17.89zM195.128 61.368l-31.118 21.23-29.77-28.084 7.285-5.162 15.076 1.601 1.347 3.205 7.275.534 1.899-2.755 16.69 1.421z"/><path fill="#fff5f3" d="M165.223 54.692l-1.213 27.906-11.719-1.291 5.657-27.149z"/><path fill="#cea39f" d="M164.01 82.598l-6.6 5.474-5.119-6.765zM139.224 100.222l17.647-2.002 20.475 5.608.674 3.605-21.823-5.875-17.916 1.735z"/><path fill="#efd0cb" d="M164.01 82.598l10.776 5.741 2.56 15.489 10.238 8.945h-9.968l-.27-8.945zM152.291 81.307l-13.067 18.915-1.617 9.213-8.082-1.335 9.699-7.878 3.234-14.687zM181.927 70.314l8.621 4.806 9.16-.4-9.564 6.676zM146.519 65.749l-6.891 8.303-10.358-8.303 9.011 2.629z"/><path d="M176.658 59.754c-.314.627-.508 1.324-.508 2.072 0 2.586 2.115 4.682 4.724 4.682 2.506 0 4.535-1.94 4.694-4.384l-8.91-2.37zM139.779 58.206c-.014.7.111 1.412.433 2.088 1.114 2.338 3.93 3.339 6.289 2.235 2.266-1.061 3.266-3.674 2.356-5.951l-9.078 1.628z" fill="#2b2b2b"/><path fill="#4f5253" d="M167.122 51.937l2.95-4.278 17.366 4.095 7.69 9.614-11.321-6.544zM156.601 50.953l-1.077-4.184-15.716.89-5.568 6.855 6.668-3.27z"/><path fill="#6f7173" d="M157.41 88.072l12.662 4.006 7.005 8.278-9.835-4.54-7.408-2.136zM157.41 88.072l-10.891 1.59-6.741 6.785 8.816-2.767 6.526-.668z"/><path fill="#cea39f" d="M167.378 129.464l44.101 6.841-6.328 9.968-19.629-.757zM246.435 92.259l-13.589-2.318 9.941 19.494zM236.708 84.689l3.592-13.441 7.364 2.804z"/><path fill="#6d6d6d" d="M229.259 13.325l29.992 22.405-19.61.269-12.991-12.284-18.098-7.363 4.249-5.8z"/><path fill="#898989" d="M191.892 9.822l25.418-5.423 11.949 8.926-20.707 3.027z"/><path fill="#6d6d6d" d="M153.029 12.414l8.847-8.015L179.275.601l5.885 3.798 9.968-2.215 22.182 2.215-45.621 13.352-4.311-4.184-8.624.485z"/><path fill="#898989" d="M171.689 17.751l23.439-15.567L179.275.601l-20.518 13.451z"/><path fill="#606060" d="M226.65 23.715l32.601 12.015v22.967l-16.3-4.183-12.529-8.902z"/><path fill="#898989" d="M225.033 58.697l5.304 23.768 9.246-20.032z"/><path fill="#9e9e9e" d="M230.422 45.612l28.829 13.085v17.158l-34.218-17.158z"/><path fill="#efd0cb" d="M146.184 37.69l17.602 2.848 20.116.712-20.296-3.738zM149.956 32.349l14.907 1.958 18.68 1.781-19.039-3.917z"/><path fill="#e0e0e0" d="M237.636 133.683l-26.157 2.622-25.957 9.211 13.766 7.412 37.163-11.644z"/><path fill="#484748" d="M236.451 141.284l-36.313 3.558-.85 8.086 36.063-4.598z"/><path opacity=".2" fill="#2b2b2b" d="M211.479 136.305l-12.191 16.623 15.795-2.775z"/><path fill="#484748" d="M185.522 145.516l16.485 8.591-.85 8.591-15.635-8.591-5.608-.337-8.158 4.043-1.529-9.433 9.689-3.65z"/><path fill="#5b5b5b" d="M185.522 145.516v8.591l17.165 13.476 3.366-15.843-7.552-4.034zM179.916 144.73l-.002 9.04-11.217 10.447-2.039-17.944z"/><path fill="#fff" d="M211.479 136.305l-5.426 15.435-20.531-6.224z"/><path fill="#e0e0e0" d="M167.378 129.464l-.72 16.809 18.864-.757z"/><path fill="#5b5b5b" d="M179.916 170.278l4.076-3.706 3.952 4.379-4.014 4.38zM178.896 189.143l4.013-4.211 4.652 4.211-4.652 4.717z"/><path fill="#359496" d="M268.371 156.55l16.4 65.611-18.705 26.951-19.576-27.426z"/><path fill="#cea39f" d="M124.256 188.471l23.198 7.412-13.598 10.195z"/><path fill="#318fa6" d="M168.697 246.728L157.29 260.23l-2.868 15.161-11.5-1.011 13.7-34.186zM168.697 195.883l24.983 5.554 12.842 26.324-21 24.614-34.33-19.349z"/><path fill="#28788c" d="M177.684 214.835l24.323 12.001v13.686l-16.485 11.853-41.985-14.092z"/><path fill="#3aa0ba" d="M147.454 195.883l3.738-20.552 21.197 21.373-15.099 2.463z"/><path fill="#28788c" d="M152.212 195.883l3.389-9.433 9.16 9.813-7.471 1.641z"/><path fill="#5ec0d9" d="M135.08 202.381l12.374-6.498 24.935.821 5.295 18.131-17.824 20.464-26.342 3.539-11.854-14.13z"/><path fill="#3aa0ba" d="M133.518 238.838l12.619-8.676 16.06-8.78 15.487-6.547-16.804 22.487z"/><path fill="#8feaf9" d="M147.454 221.15l-1.317 9.012 12.108 1.894 3.952-10.99-8.03-3.706-2.975 2.822z"/><path fill="#318fa6" d="M153.274 223.593l.574 2.969-7.711 3.6 9.113-2.401 6.947-6.379-6.628 4.338z"/><path fill="#185e60" d="M147.454 221.15l6.713-3.79-.893 6.233z"/><path fill="#fff" d="M154.167 217.36l3.123-8.233 9.368-2.59-4.461 8.149zM147.454 221.15l-8.2-1.79-6.118 7.202h8.476z"/><path fill="#359496" d="M157.29 209.127l4.142.758.765 4.801-3.824-1.769zM139.254 219.36l2.676 2.78-.318 4.422-3.442-2.969z"/><path fill="#28788c" d="M208.465 243.534l-1.943 32.868 13.378-1.011 1.265-34.64z"/><path fill="#3aa0ba" d="M221.165 240.751l-11.256 26.807 9.991 7.833 10.743-24.004 15.847-29.701zM203.621 206.537l19.629-14.36 8.158 27.183-10.243 21.391-35.643 11.624 16.485-25.539z"/><path fill="#318fa6" d="M223.25 192.177l23.24 29.509-25.325 19.065z"/><path fill="#5ec0d9" d="M202.007 226.836l21.243-34.659-29.57 9.26zM246.49 221.686l23.666 33.156-9.718 13.685-24.38-5.725-4.983-12.225z"/><path fill="#318fa6" d="M251.402 265.621l1.929 18.619 24.133-10.197z"/><path fill="#3aa0ba" d="M270.156 254.842l7.308 19.201-41.406-11.241z"/><path fill="#185e60" d="M284.771 222.161l-62.775-.779-3.366 13.865-.976 13.865 52.502 5.73z"/><path fill="#fff" d="M221.996 221.382h-8.153l-5.674 16.151v11.005l9.485.574z"/><path fill="#efd0cb" d="M213.843 221.382h-7.321l-4.515 5.454-10.182 15.775 3.962 8.025 12.382-2.098z"/><path fill="#feeee9" d="M213.843 221.382l-11.836-11.875-4.895 2.399 4.895 14.93z"/><path opacity=".2" fill="#2b2b2b" d="M141.562 210.711l-1.267-11.069-5.215 2.739.775 5.799z"/><path fill="#feeee9" d="M114.824 218.455l6.84 6.253 19.898-13.997-17.306-22.24-7.818 18.066z"/><path fill="#efd0cb" d="M124.256 188.471l-9.432 29.984-7.638-7.331z"/><path fill="#cea39f" d="M202.007 226.836l-6.22 23.8-10.265 1.739 4.079-11.624z"/><path fill="#5ec0d9" d="M177.684 214.835l24.323 12.001-16.485 25.539-5.606 7.855h-6.629z"/><path fill="#3aa0ba" d="M173.287 260.23v17.688l12.235 4.295v-29.838z"/><path fill="#359496" d="M223.25 192.177l-3.35-15.835 13.927-7.58 13.896 8.254-7.284 17.855z"/><path fill="#72cbcc" d="M226.604 172.693h13.841l3.429 13.757-12.466 7.006-9.691-8.524z"/><path fill="#359496" d="M232.963 172.693l8.997 6.077-4.498 11.283-10.67-.657-2.892-9.931z"/><path fill="#72cbcc" d="M237.413 175.699l2.394 8.471-7.153 5.587-7.327-5.393 2.873-8.112z"/><path fill="#359496" d="M232.796 175.976l5.771 3.807-2.509 7.096-6.811.37-2.516-6.85z"/></svg>