<svg xmlns="http://www.w3.org/2000/svg" viewBox="-82.36 6.884 400 400"><path opacity=".1" fill="#2b2b2b" d="M209.723 393.937L99.474 406.884 3.912 395.749l97.233-12.181z"/><path fill="#3aa0ba" d="M217.17 174.067l14.2-6.82-8.144-17.679-16.218 1.044-1.531 15.59z"/><path fill="#5e5045" d="M95.02 162.026l-.697-7.169 13.712-3.48 8.77 8.979z"/><path fill="#524439" d="M106.574 184.507l-6.613-7.307.139-10.232-5.08-4.942 17.609-4.663 9.118 19.767z"/><path fill="#5e5045" d="M166.848 148.732l17.401 9.884-16.426 30.555-25.474-22.342z"/><path fill="#74665a" d="M177.149 120.474l6.543 10.928.557 27.214-30.833 5.707-12.947 3.55 17.888-42.944z"/><path fill="#318fa6" d="M207.913 188.057l11.763-3.062 11.694-17.748-25.893-1.045-2.644 13.573z"/><path fill="#c7a5a1" d="M145.62 184.09l20.741-13.92 34.314 43.153-19.419 12.459-43.361-18.863z"/><path fill="#e2c8c5" d="M202.833 179.775l-21.577 46.007 28.606 9.604 3.967-23.317-7.656-21.854z"/><path fill="#28788c" d="M192.044 202.743l21.785 9.326 5.847-27.074-16.843-5.22zM65.648 374.659l9.605 1.739-1.949 15.521h-3.619z"/><path fill="#28788c" d="M47.203 379.46l-14.199 10.86v4.314h31.809l10.44-18.236-1.81-9.605z"/><path fill="#318fa6" d="M67.527 357.258l-13.224 7.517-21.299 25.545 30.486-.28 9.953-23.247z"/><path fill="#28788c" d="M165.04 381.549l8.003 7.866v5.219H140.4l.14-5.219z"/><path fill="#318fa6" d="M159.54 356.076l4.385 11.553 9.118 21.786H140.54l5.359-21.786z"/><path fill="#c7a5a1" d="M123.069 187.291L100.1 166.968l-43.361 47.817 23.038 7.725 5.986-7.169 21.089-11.832z"/><path fill="#e2c8c5" d="M135.25 290.233l-33.131 39.881-32.156 12.946 5.916-24.361 19.836-44.544 28.608-4.594z"/><path fill="#c7a5a1" d="M102.119 330.114l-28.676 36.679-19.14-2.018 21.576-46.076z"/><path fill="#e2c8c5" d="M179.585 273.806l-10.579 50.113-14.964 21.09-13.573-17.958-5.219-36.818 10.857-22.83z"/><path fill="#c7a5a1" d="M169.006 323.919l-5.081 43.71h-18.026l-5.43-40.578z"/><path fill="#72cbcc" d="M149.656 162.653l16.705 7.517-2.158 48.164-33.13 7.168-35.775-16.983 4.802-41.551 9.606-2.227z"/><path d="M164.203 218.334l-1.6 15.868-54.985 29.163-6.334-.975-5.985-53.872 68.904 9.816zm-34.592 48.234l-.208.139-.975-.208 1.183.069z" fill="#359496"/><path fill="#1e7678" d="M162.603 234.203l-1.184 12.11-31.808 20.255-1.183-.069-20.81-3.133-8.909-23.734-.557-5.36z"/><path fill="#5e5045" d="M73.165 66.254l-8.561 6.822 11.623 30.555 4.246-32.922z"/><path fill="#8f7f74" d="M84.788 42.103L64.604 73.076l10.162 2.366 4.733-2.436 9.535-22.133z"/><path fill="#5e5045" d="M157.453 121.796l2.783 9.327 23.456.279 19.07-30.834-35.774-1.948-9.466 23.664z"/><path fill="#c7a5a1" d="M161.35 119.639l2.436 18.375-10.37 26.309-33.13 21.507-1.951-45.102 16.217-95.911 26.519 7.587 5.638 45.38z"/><path d="M117.501 150.472c.766.07 6.961 6.821 6.961 6.821l16.008 1.531-20.184 27.005-16.914-33.826 14.129-1.531zM160.166 115.324l-4.106 4.106 7.726 18.584 5.846-13.155z" fill="#a0847d"/><path fill="#e2c8c5" d="M168.31 90.059l-6.056 4.454-.417 8.073-5.777 16.844 13.572 5.429 9.814-22.829z"/><path fill="#5e5045" d="M155.782 84.212l6.055 18.374 7.586-5.428-4.593-14.826z"/><path fill="#74665a" d="M162.116 46.697l-12.738 7.586 6.404 29.929 13.502 12.946 10.162 4.872 23.316-1.462-17.47-39.046z"/><path fill="#524439" d="M166.501 28.392l21.854 18.375-3.063 14.755-35.983-7.169-18.862-27.354z"/><path fill="#5e5045" d="M153.903 17.255l19.766-4.245 14.686 33.757-41.204-15.73z"/><path fill="#74665a" d="M118.406 14.819l20.95-4.037 34.313 2.228-26.518 18.027-41.343 7.934.835-10.579z"/><path fill="#8f7f74" d="M90.147 36.813L76.993 24.424l43.153-17.539 19.21 3.897-28.815 20.95zM101.145 46.209l9.396-14.477 36.61-.695 2.227 23.246-39.812 7.099z"/><path fill="#5e5045" d="M90.983 56.371l-4.455-7.586-9.535-24.361 33.548 7.308-1.949 21.716z"/><path fill="#e2c8c5" d="M86.528 48.785L74.766 75.442l-1.323 43.432 20.88 35.983 30.138 2.436 16.914-30.416 8.003-72.594-40.786-.835z"/><path fill="#fff" d="M89.243 127.573l20.254-1.043 10.231 3.062-7.935 7.448-13.989-1.184z"/><path fill="#5dc0da" d="M93.906 126.391l-1.949 1.67 9.118 8.073 6.89.557 9.884-6.542v-1.392l6.751-1.045-15.243 12.32-9.187-.556-13.433-13.991 4.524 1.045z"/><path fill="#c7a5a1" d="M117.918 88.457l-2.993 2.715-7.307 2.088-1.95 7.865-.626-7.865-4.802-3.48-1.949-2.715-13.155-5.776-8.004.209 13.572 13.781 9.675 16.078 2.297-.836 6.681 5.011 30.417-30.554-12.111.069z"/><path fill="#a1847f" d="M102.676 111.496l-4.942 3.897 6.682 4.524 5.011-3.48z"/><path fill="#74665a" d="M112.49 89.014l18.026-6.194 9.258 2.158-10.72 1.322-14.129 4.872zM102.049 87.344l-16.147-7.448-8.77 1.602 8.004 1.739 15.104 6.543z"/><path d="M92.892 90.259c2.129.5 3.451 2.632 2.95 4.762-.5 2.13-2.632 3.451-4.762 2.951-2.13-.5-3.451-2.632-2.95-4.762.499-2.13 2.632-3.451 4.762-2.951zM125.455 92.92c2.127.499 3.444 2.628 2.946 4.755-.5 2.127-2.628 3.445-4.755 2.946-2.128-.499-3.445-2.628-2.947-4.755.501-2.126 2.629-3.445 4.756-2.946z" fill="#2b2b2b"/><path fill="#efdddc" d="M105.042 93.26l-7.308 22.133 11.693 1.044-1.809-23.177z"/><path fill="#c7a5a1" d="M91.331 115.672l-6.612 9.187-.905-6.194zM117.849 117.76l9.466 9.396-.696-7.239z"/><path fill="#308fa7" d="M124.6 127.712h-5.846l-14.895-2.574-11.484 1.044-5.638-.697 5.22 2.576 11.902.974 13.99 1.114z"/><path fill="#a0847d" d="M172.764 105.928l-5.289-2.367-4.804 12.876z"/><path fill="#185e60" d="M161.419 246.313l-33.269 8.84-26.866 7.238-5.569 11.764 39.535 16.078 44.335-16.427z"/><path fill="#e2c8c5" d="M85.763 215.341l-29.024-.556 27.632 35.217 23.942 4.455-13.224-15.661z"/><path fill="#e3c8c5" d="M92.932 248.611l21.298-5.361 5.289 14.27-18.514 5.429-10.301-5.012z"/><path fill="#c7a5a1" d="M95.089 238.796l19.141 4.454-23.526 14.687-6.333-7.935z"/><path fill="#fff" d="M212.298 153.117l-3.689 5.429 3.897 5.429 4.037-5.638z"/><path fill="#72cbcc" d="M209.305 140.311l3.828.834-2.715 8.492zM206.312 150.124l-6.264-5.568 3.203-2.853zM197.959 150.959l-.973 3.481 9.048.417z"/></svg>