<svg xmlns="http://www.w3.org/2000/svg" viewBox="0 0 400 400"><path fill="#3aa0ba" d="M192.1 315.486l-2.074 20.098-11.373-2.035z"/><path opacity=".1" fill="#2b2b2b" d="M108.105 387.236l89.391-11.917 87.002 12.935L192.874 400z"/><path fill="#efd0cb" d="M129.57 218.508l-13.269-13.787-5.104 2.299 5.564 17.357z"/><path fill="#feeee9" d="M129.57 218.508l-27.901 1.485 18.713 11.186 8.508-6.335z"/><path fill="#efd0cb" d="M120.382 231.179l-30.625-22.116 3.065 13.101 8.847 9.015z"/><path fill="#185e60" d="M154.598 206.764l-25.028 11.744-9.188 12.671 37.658 1.363 1.021-14.034z"/><path fill="#28788c" d="M164.169 269.801l-4.453 33.771 15.833 24.142 16.551-12.228 11.291-17.957-3.531-22.626z"/><path fill="#185e60" d="M232.227 358.817l6.844 13.106-4 19.899h-3.058l-2.268-9.916-.349-15.085z"/><path fill="#1e7678" d="M222.485 355.074l-17.352 36.748h26.88l.214-33.005z"/><path fill="#3aa0ba" d="M192.711 285.283l24.5 64.005 2.887-28.406 18.805-6.652 7.394-43.407z"/><path fill="#28788c" d="M180.363 147.305l-18.364 10.716-7.401 48.743 10.949 7.403 10.968-32.128z"/><path fill="#c4c4c3" d="M154.598 206.764l3.442 25.778 13.204.68-1.532-21.865z"/><path fill="#4fa9aa" d="M180.363 147.305l-22.448 41.342 17.694 37.009 52.933 4.913 26.311-40.112-29.055-34.184-43.128-8.641"/><path fill="#1e7678" d="M157.915 188.647l89.416 17.354-16.301 33.686-59.786-6.465z"/><path fill="#a3a2a2" d="M243.279 186.266l-20.242 52.557 7.993.864 19.627-40.38-.802-10.66z"/><path fill="#3aa0ba" d="M185.222 160.065l-7.146 1.787-10.267 8.574 12.554-23.121 4.178 3.743z"/><path fill="#c4c4c3" d="M185.222 160.065l-17.413 10.361 5.071-9.34 12.212-7.749z"/><path fill="#4fa9aa" d="M171.244 233.222l59.786 6.465 15.267 31.136-53.586 12.416-28.542-13.438 2.249-3.295-.863-3.871 2.255-5.278-.035-6.196z"/><path fill="#185e60" d="M168.784 224.993l66.261 6.433-4.015 8.261-59.786-6.465z"/><path fill="#a3a2a2" d="M172.95 127.076l-13.889 17.674 21.302 2.555-.755-8.932z"/><path fill="#9b6533" d="M273.487 107.948l7.329 29.243-16.228 10.37-9.187-10.37 7.961-16.586z"/><path fill="#7c4f24" d="M263.362 102.968l10.125 4.98-14.527 26.949-6.568-4.448 1.752-16.468z"/><path fill="#185e60" d="M256.611 112.73l-1.21 14.159-10.251.865-8.79-4.758 7.76-7.172z"/><path fill="#7c4f24" d="M256.611 112.73l-20.251 10.266-2.672-33.749z"/><path fill="#9b6533" d="M135.108 48.603l13.968 17.156 4.03-33.752z"/><path fill="#7c4f24" d="M135.108 48.603l-2.813 13.769 12.373 15.762 4.408-16.887z"/><path fill="#feeee9" d="M149.076 40.608l-4.408 37.526 12.094 42.188 28.127 3.094 9.001 13.432 4.347 10.713-13.015 12.504-1.694 33.691 1.361 10.505 8.197-8.788 20.718-30.559 20.025-17.308 2.531-47.392-3.937-37.83-50.628-46.132z"/><path fill="#efd0cb" d="M218.565 51.298l-4.988 45.962-19.688 28.97-9-2.814 10.969 18.565 2.379 5.58 37.092 1.921 1.031-26.486 2.532-24.611-6.469-36.001zM200.642 60.133l-23.627 22.502-26.439-26.299 6.674-3.797 10.375 1.586 4.704 4.749 3.654.228 5.267-3.852 11.625-.5z"/><path fill="#9b6533" d="M167.625 54.125l-1.375-2-10.875-1.25-4.799 5.461 7.299-2.586zM181.25 55.25l1.375-1.75 11.5-.375 6.517 7.008L192.625 56z"/><path fill="#fff5f3" d="M175.983 59.102l1.032 23.533-10.173-.633 5.487-23.128z"/><path fill="#cea39f" d="M177.015 82.635l-5.907 5.531-4.266-6.164z"/><circle cx="190.715" cy="66.991" r="3.763" fill="#2b2b2b"/><circle cx="159.131" cy="63.897" r="3.763" fill="#2b2b2b"/><path fill="#185e60" d="M156.063 96.626l15.164-.875 16.836 3.625-17.374 1.125z"/><path fill="#4fa9aa" d="M156.063 96.626l14.77 7.541 17.23-4.791-17.146.625z"/><path fill="#cea39f" d="M184.889 123.416l36.002 3.375-22.654 20.77-7.723-7.267zM237.388 90.016l-8.903-1.85 3.375 9.235 7.032.984z"/><path fill="#af7546" d="M188.264 5.709l79.317 54.424 5.906 28.033-29.367-10.875-19.246-10.803-7.311-3.261-21.954-34.388-13.814-6.957z"/><path fill="#cc9262" d="M188.264 10.912l6.214-3.937L215.547.506l24.751 23.344 27.283 36.283z"/><path fill="#af7546" d="M215.547.506l41.346 18.844 10.688 40.783zM215.547.506L169.42 4.443l5.626 6.469h13.218z"/><path fill="#cc9262" d="M181.795 21.882l-18.141 7.734-14.578 10.992-13.968 7.995 3.937-18.283L169.42 4.443l18.844 6.469z"/><path fill="#9b6533" d="M224.879 66.49l-.05 11.927h8.859z"/><path fill="#7c4f24" d="M224.879 66.49l21.607 7.847 27.001 13.829-10.125 14.802-17.157-12.177z"/><path fill="#9b6533" d="M263.362 102.968l-6.751 9.762-17.719-14.345-14.013-31.895zM195.609 28.839l77.878 59.327-55.924-24.939-3.985-3.094-2.841-7.598-8.831-10.684z"/><path fill="#af7546" d="M181.795 21.882h-20.72l-11.999 18.726z"/><path fill="#cc9262" d="M149.076 40.608l-2.191 18.655-6.199-5.611zM146.885 59.263l-8.258 11.175.37 13.603 5.671-5.907zM181.795 21.882l6.472 16.312 22.472 14.345-15.13-23.7zM210.739 52.539l6.824 10.688-1.61 12.139-9.685-12.139z"/><path fill="#af7546" d="M213.629 72.454l6.278 5.395-5.696 13.572-4.571-11.111z"/><path fill="#8f8f8f" d="M236.36 122.996l19.041 3.893-5.614 11.484-14.929 5.615v-2.807z"/><path fill="#dddddc" d="M198.237 147.561l-6.124 7.4-6.891 5.104-12.272-32.989 11.939-3.66 5.625 12.808z"/><path fill="#a3a2a2" d="M198.237 147.561l-13.015 12.504-5.846-34.959 5.513-1.69z"/><path fill="#359496" d="M231.157 141.181l-32.92 6.38.765 5.869 17.481-3.573 14.547-3.572z"/><path fill="#185e60" d="M198.237 147.561l7.913 14.886-12.746 9.357-8.182-11.739z"/><path fill="#4fa9aa" d="M197.077 153.43l2.947 7.656-5.615 4.424-4.594-4.764z"/><path fill="#28788c" d="M224.521 147.632l-3.742 13.454 12.675-1.616 9.187-10.862z"/><path fill="#3aa0ba" d="M242.641 148.608l25.775 13.244-10.463 15.822-14.674 8.592-12.249-9.825-10.251-15.355z"/><path fill="#a3a2a2" d="M216.483 149.857l-2.679 15.057 4.593-.766 2.382-3.062 4.764-13.454z"/><path fill="#dddddc" d="M255.401 126.889l9.187 20.672-48.105 2.296zM213.804 164.914l26.69 28.582 1.32-3.426 1.465-3.804-22.5-25.18z"/><path fill="#28788c" d="M268.416 161.852l15.065 42.409-11.724 8.718-11.671 2.449-16.807-29.162z"/><path fill="#efd0cb" d="M183.528 193.756l8.329-13.615 1.228 15.332-10.415 15.363z"/><path fill="#74cfe4" d="M177.409 225.831l4.24-3.497 7.656.595 4.099 4.454-.782 8.136-5.295 3.849-6.777-.677-3.835-4.877z"/><path fill="#185e60" d="M181.649 226.242l7.018.685-.893 8.083-6.955-.746z"/><path fill="#dddddc" d="M164.169 269.801l1.386-7.166 26.776 14.822 50.299-14.112 3.667 7.478-53.586 14.46z"/><path fill="#185e60" d="M165.555 262.635l40.595-7.236 4.694-2.616 7.346.47 17.925-3.196-5.085-10.37-63.255 11.474zM238.903 314.23l-35.512-1.046 3.337 8.717 4.116 3.046-1.317 4.267 7.684 20.074 6.932 1.221 9.569-1.219z"/><path fill="#efd0cb" d="M271.757 255.274l-10.649 15.822 3.294 3.828 12.738-8.166z"/><path fill="#feeee9" d="M271.757 255.274l.233 17.609 10.079 3.574 10.078-6.634-2.804-15.825z"/><path fill="#dddddc" d="M283.481 204.261l-23.395 11.167 5.524 11.245h11.53l10.924-8.165z"/><path fill="#185e60" d="M265.61 226.673l6.147 28.601 10.695 9.445 6.891-10.721-1.279-35.49z"/><path fill="#efd0cb" d="M271.99 272.883l1.531 17.612 14.546-9.187 4.08-11.485z"/><path fill="#185e60" d="M192.1 315.486l-32.384-11.914-1.065 8.076 1.873 5.167-2.852 2.258-3.813 28.907 7.892 3.351 8.179-.588 13.537-21.529-.613-5.133 4.93-1.731zM166.276 357.12l6.844 10.128-3.131 18.878h-4.802l-3.436-9.916 1.01-10.584z"/><path fill="#1e7678" d="M155.513 354.486l-33.698 31.64h27.901l12.035-9.916 2.453-6.717 2.072-10.242z"/><path opacity=".2" fill="#2b2b2b" d="M143.078 366.161l18.673 10.049 11.369-8.962-6.844-10.128z"/><path fill="#4fa9aa" d="M146.172 346.658l23.758 4.085 8.041 11.746-4.851 4.759-6.844-7.997-2.131 10.22-21.067-3.31z"/><path opacity=".2" fill="#2b2b2b" d="M214.784 371.383l17.32 6.326 4.689-10.148-4.566-12.487-16.155 13.581z"/><path fill="#4fa9aa" d="M209.826 349.288l23.886.002 8.167 13.787-5.086 4.484-4.566-8.744-.194 10.221-24.56-.589z"/><path fill="#5ec0d9" d="M206.728 321.901l30.835 1.379-1.033 6.974-27.003-1.04z"/><path fill="#74cfe4" d="M158.651 311.648l29.133 10.702-4.317 6.864-25.795-10.141z"/><path fill="#3aa0ba" d="M237.563 323.28l5.068 18.953-8.141 1.802-1.378-20.971z"/><path fill="#74cfe4" d="M233.112 323.064l-9.445 15.768 6.21 3.573 7.686-19.125z"/><path fill="#1e7678" d="M193.404 227.383l24.785 25.87-12.039 2.146-13.528-19.88z"/><path fill="#28788c" d="M236.847 273.373l24.261-6.124 2.459-9.186-22.819 1.582z"/><path fill="#318fa6" d="M236.847 273.373l-15.06-31.982 4.429-10.822 12.853 19.199 3.561 13.577z"/><path fill="#5ec0d9" d="M226.216 230.569l20.081-2.621 17.27 30.115-20.937 5.282z"/><path fill="#318fa6" d="M233.454 245.023l20.552-3.632-1.987-3.465-21.246 3.782z"/><path opacity=".2" fill="#2b2b2b" d="M236.847 273.373l6.432 17.401 3.018-19.951z"/><path fill="#bd902d" d="M88.484 196.308l17.867 13.061 9.269-9.233-13.568-11.747z"/><path fill="#e2a940" d="M115.62 200.136l13.189-6.299-6.128-13.621-13.802 4.21-7.21 9.33z"/><path fill="#f4d75c" d="M88.484 196.308l13.185-2.552-4.423-26.319-19.483 20.952z"/><path fill="#bd902d" d="M101.669 193.756l21.012-13.54-11.484-8.412-16.121.741z"/><path fill="#ffe888" d="M104.435 128.761l10.843-11.565-11.589-24.839-10.097 34.026z"/><path fill="#f4d75c" d="M89.716 157.008l-6.845-10.467 5.613-9.35 6.592 6.29zM124.126 142.299l-6.804-14.129 5.359-3.064 6.889 5.616zM122.681 180.216l-5.359-23.943-22.246 16.272z"/><path fill="#e2a940" d="M95.076 172.545l4.212-10.663-6.508-2.831-9.909 5.098-5.108 24.24z"/><path fill="#ffe888" d="M95.076 172.545l20.544-11.164-1.403-11.524-10.505-14.418-10.932 23.612z"/><path fill="#e2a940" d="M122.681 180.216l7.909-12.115-5.868-15.688-7.4 3.86-1.702 5.108z"/><path fill="#f4d75c" d="M115.62 161.381l9.102-8.968-21.01-16.974z"/><path fill="#ffe888" d="M95.076 143.481l-12.205 3.06 3.821-16.21zM117.322 128.17l12.248 2.552-6.891-11.231z"/><path fill="#f4d75c" d="M93.592 126.383l21.686-9.187-11.566 18.243z"/></svg>