<svg xmlns="http://www.w3.org/2000/svg" viewBox="0 0 400 400"><path fill-rule="evenodd" clip-rule="evenodd" fill="#1b5d5f" d="M104.896 113.967l-1.577-7.958 16.572-6.926-6.048 9.097-8.947 5.787"/><g fill-rule="evenodd" clip-rule="evenodd"><path fill="#b3702e" d="M204.888 144.175l-6.805-3.087-19.876 2.811 14.906 12.239z"/><path fill="#f2d6d2" d="M116.367 153.503l14.127-1.983-4.2-25.088-19.853 24.173z"/><path fill="#007088" d="M201.22 159.832l-5.902-4.881-49.862 21.613-2.56 3.912 15.764 18.243 21.218-2.921 7.036-2.875z"/><path fill="#9f5d19" d="M202.658 152.731l-5.774-3.232-20.244-39.718 25.404 11.458z"/><path opacity=".1" fill="#34302d" d="M141.275 387.686L223.681 400l80.682-12.191-82.375-10.684z"/><path fill="#007088" d="M200.562 376.293l-11.571 4.836-.04 6.088 32.347.676 11.846-8.654-.99-6.076z"/><path fill="#249bb9" d="M219.406 369.866l-13.024 1.763-17.391 9.5 21.385.452 21.981.603v-11.248z"/><path fill="#249bb9" d="M220.662 357.815l-.602 5.516-13.678 8.298 23.877.852 2.805-2.75 1.807-8.318z"/><path fill="#0086a1" d="M233.939 381.733l-12.641 6.158.08 6.158 35.487-.25 1.099-5.707z"/><path fill="#45b9db" d="M239.357 367.874l-10.424 3.619-7.635 16.398 36.666.201-7.892-15.545z"/><path d="M235.589 358.299c-.531-.26-2.574 4.582-2.574 4.582l-4.082 8.611 21.139 1.055-2.084-4.477-.035-4.414-12.364-5.357z" fill="#45b9db"/><path d="M218.035 323.768l-18.466-3.658 15.144 46.465 16.262.613 2.797-6.209s-3.297-34.182-4.293-34.16c-.997.019-11.444-3.051-11.444-3.051z" fill="#f2d6d2"/><path d="M207.841 313.094l-8.273 7.016 33.31 13.725s.014-17.031-.182-15.707c-.193 1.322-24.855-5.034-24.855-5.034z" fill="#d4a8a2"/><path fill="#fef2f0" d="M253.443 325.6l9.387-2.898-14.842 45.369-17.014-.883-2.652-45.9z"/><path fill="#f2d6d2" d="M226.929 318.852l1.393 2.436.312 10.798 34.196-9.384z"/><path fill="#006d70" d="M199.566 257.582l-16.629 7.168 16.632 55.36 63.261 2.592-5.717-15.209z"/><path fill="#1a7477" d="M99.551 92.934l3.958 20.001 1.387 1.032 1.545-22.084z"/><path fill="#d46654" d="M96.448 132.621l-11.582-2.734 6.621-16.52 25.75-1.432 9.057 14.497-8.447 4.199z"/><path fill="#af443c" d="M117.237 111.935l9.057 14.497-8.447 4.199-10.002-.288-22.979-.456z"/><path fill="#c65b4d" d="M109.803 147.857l16.491-21.425-41.428 3.455 2.418 6.291.798 4.596 10.497 11.694z"/><path fill="#af443c" d="M116.144 149.979l10.15-23.547-32.084 19.393z"/><path fill="#58aca8" d="M117.237 111.935l-13.728 1 16.382-13.852z"/><path fill="#128e93" d="M193.213 237.629l-2.459 3.204-7.817 23.917 79.893 57.952 10.509-54.106-22.246-36.592-52.086-8.591z"/><path fill="#278184" d="M273.339 268.596l-29.154-2.367 15.469-16.691 15.84 7.13z"/><path fill="#f2d6d2" d="M252.142 246.87l-12.162-6.418-8.045 15.873 12.25 9.904 12.25-1.975z"/><path fill="#fef2f0" d="M279.324 248.7l-11.983-8.539-13.439-8.705-13.715 9.105 16.248 23.693 19.059-7.586z"/><path fill="#f2d6d2" d="M301.855 218.657l-13.77-.153-20.744 21.657 8.153 16.507 25.234-18.07z"/><path fill="#0a89a4" d="M292.378 195.631l13.532 4.732 14.9 23.784-20.082 14.451-14.266-18.396z"/><path fill="#007088" d="M269.666 186.328l.517 17.169 16.279 16.705 19.448-19.839-28.049-45.744z"/><path fill="#62bfdd" d="M189.651 186.592l-10.735 9.339 12.421 37.505 4.916 5.109 9.215-9.822-2.818-34.274z"/><path fill="#b8deee" d="M209.224 218.962l1.059 9.464-9.836 12.657-9.693-.25.583-7.397 5.534-.283 6.617-8.539-3.52-27.774 10.729-2.544z"/><path fill="#fef2f0" d="M126.649 164.33l-14.753-1.449-27.003-14.03-5.703-16.23 5.676-2.734 9.344 15.938 36.284 5.695z"/><path fill="#89cce4" d="M238.908 180.076l-31.926 17.343 2.734 31.738 15.768 11.621 41.857-.617-2.144-6.688-23.262-10.232z"/><path fill="#249bb9" d="M266.984 193.648l3.199 9.849-4.986 29.976-35.422.444-12.338-10.295-1.352-25.519z"/><path fill="#9f5d19" d="M272.914 140.268l29.234-4.072-11.301 16.828z"/><path fill="#7d4715" d="M261.837 116.343l13.598 10.3 15.412 26.381-12.555 1.39-12.96 6.173-11.084-11.999-2.715-12.04z"/><path fill="#9f5d19" d="M252.375 126.232l1.982 14.856 21.078-12.668 8.758-71.746-18.291 9.135z"/><path fill="#62bfdd" d="M247.492 149.881l14.789-2.295 15.58 7.033-7.678 48.878-54.098-5.394-2.81-13.752 9.182-23.49z"/><path fill="#7d4715" d="M200.666 133.478l-7.624 22.46 5.126 6.013 5.64-5.737 12.879-10.91 6.33-23.606z"/><path fill="#f2d6d2" d="M133.265 190.255l-11.622-4.499-9.747-22.875 18.598-11.361 14.962 25.044z"/><path fill="#82cee6" d="M210.251 154.418l-6.742-4.451-10.467 5.971-14.126 39.993 21.052.909 2.682-2.391 9.478-31.263z"/><path fill="#d0ebf5" d="M211.794 145.048l-8.285 4.919 5.489 13.372-9.03 33.501 7.014.579 3.715-3.123 10.73-41.403z"/><path fill="#c0e1f0" d="M252.275 138.329l3.414 6.281 6.592 2.976-38.44 18.269-7.756 32.248-9.103-.684 11.877-43.049-.026-2.926z"/><path fill="#f2d6d2" d="M217.232 140.919l18.945 12.629 19.512-8.938 10.035-45.729-5.9-34.386-3.729-22.425-11.002 10.725z"/><path fill="#7d4715" d="M264.744 70.987l-7.082-1.026-2.541-16.576 4.914.525z"/><path fill="#d4a8a2" d="M240.632 111.712l-16.834 25.246 20.795-.531-8.416 17.121-17.318 7.387-15.35-34.518zM258.601 84.851l-3.346 3.178 10.469 10.852 1.766-8.043z"/><path fill="#fef2f0" d="M261.148 62.358l2.025 5.351-5.511 2.252-2.407 18.068 12.235 2.809 4.51-20.55z"/><path fill="#b3702e" d="M221.63 16.318l29.459-7.659 11.625 5.112 21.479 42.903L272 70.288l-8.827-2.579-9.232-16.422-9.332 2.907z"/><path d="M223.304 15.882l27.785-7.223 11.625 5.112-8.773 37.516s-7.006 2.869-10.936.264l-20.726-34.163 1.025-1.506z" fill="#9f5d19"/><path fill="#d09152" d="M175.814 38.875l-3.434-16.12 25.078-21.751L240.789 0l10.3 8.659-18.642 15.461-2.881 2.39-51.451 10.681z"/><path fill="#b3702e" d="M170.77 60.164l-6.831-4.745 8.441-32.664 9.984 10.227 2.064 5.136-11.012 22.294z"/><path fill="#9f5d19" d="M181.061 56.214l-7.956-1.011-9.166.216 12.701 54.362z"/><path fill="#fef2f0" d="M173.105 55.203l3.535 54.578 24.026 26.655 23.666.534 24.525-19.988 5.084-65.695-21.494-27.167-50.083 8.862z"/><path d="M183.041 59.195l14.978 6.359 8.241 6.097 1.92 2.93 3.707-3.131 6.969-7.263 15.936-5.976 9.322 2.201c-4.455 4.293-14 11.828-14 11.828s-9.203 13.455-14.408 19.375L208.985 88l-7.482 3.884-12.14-18.704-12.582-11.411 6.26-2.574z" fill="#f2d6d2"/><path fill="#d4a8a2" d="M266.697 73.305l-5.213-1.065-1.553 8.84z"/><path fill="#0a89a4" d="M128.617 202.227l30.043-3.508-13.204-22.155-23.813 9.192z"/><path fill="#7bc8cd" d="M261.808 94.822l-3.815-6.164 5.635-3.807 3.862 5.987z"/><path d="M208.47 89.338l-6.969 2.545 6.9 6.366 7.303-6.634c.001 0-7.519-2.12-7.234-2.277z" fill="#d4a8a2"/><path fill="#9f5d19" d="M218.855 64.187l3.082-3.35 13.064-4.421 9.112 3.996-8.91-1.116zM198.018 65.554l-2.077-3.349-13.332-4.222-5.828 3.786 5.627-1.172z"/><path fill="#fef8f8" d="M206.259 71.651l-4.758 20.232 14.204-.268-3.819-20.165z"/><path fill="#43a5a8" d="M204.273 106.851l10.4.171 11.506-2.216-9.633 7.927-13.636.256-9.633-7.246z"/><path fill="#006d70" d="M193.277 105.743l10.314 2.984 12.53-.085 10.058-3.836-14.316-1.137-3.834 2.052-3.666-1.65z"/><path fill="#f2d6d2" d="M195.064 95.756l-6.17 11.177.18 5.454-3.219-7.242zM224.66 95.13l7.689 10.73.715 6.348 2.504-7.957z"/><g fill="#fff"><path d="M213.619 161.378l2.904-1.488 1.459 2.61-2.742 1.898zM217.982 162.5l2.801-1.814 1.666 2.296-2.41 2.126zM222.451 162.982l2.023-2.701 3.199 1.289-1.83 2.888zM227.673 161.57l1.743-2.813 3.343 1.06-1.568 3.025zM232.759 159.817l.926-2.992 3.547.795-.922 3.232zM245.568 152.487l1.832-3.28 3.504.848-1.676 3.493zM237.232 157.624l.725-3.052 3.283.233-1.065 3.083zM241.24 154.865l.849-3.212 3.479.777-1.115 3.468zM250.904 150.032l.849-3.213 3.479.777-1.115 3.468zM255.232 147.574l.797-1.686 2.834.042-1 3.011zM210.255 158.593l3.303-.126.061 2.911-3.336.758z"/><path d="M208.119 155.072l2.861.865-.725 2.656-3.05-.678zM206.771 151.181l2.615 1.446-1.267 2.445-2.84-1.303zM205.753 148.613l2.172.629-1.162 1.939-2.119-.376z"/></g><path d="M232.048 71.181c0 2.021-1.639 3.659-3.66 3.659-2.02 0-3.658-1.638-3.658-3.659s1.639-3.659 3.658-3.659c2.022-.001 3.66 1.637 3.66 3.659zM194.718 71.671c0 2.021-1.639 3.659-3.66 3.659-2.02 0-3.658-1.638-3.658-3.659s1.639-3.659 3.658-3.659c2.022 0 3.66 1.638 3.66 3.659z" fill="#33302d"/></g></svg>