<svg xmlns="http://www.w3.org/2000/svg" viewBox="97.638 220.944 400 400"><path fill="#cda39e" d="M353.213 492.712l.85 13.373 5.024.695.851-4.483 11.285-7.729-8.039-13.373z"/><path fill="#ffede8" d="M227.918 372.21l17.237-6.647-3.478 20.869 3.942 18.165-5.102 32.849-16.309.233-10.048-19.324-.464-24.348z"/><path fill="#efcfca" d="M235.029 382.335l6.648 4.097 3.942 18.165-1.16 7.574-3.864 29.836-14.841 26.358-5.488 2.473-8.657-2.859 18.396-30.3-6.416-34.242z"/><path fill="#ffede8" d="M214.16 418.355l15.845 19.324-8.039 29.836v9.661l-9.661 12.599-11.286-13.295 4.252-7.498-2.938-3.632 4.02-33.004z"/><path fill="#eecfca" d="M228.15 417.428l6.879-35.093 10.126-16.772 3.864-1.624 14.455-5.719 26.357-.85v120.965l-25.662.155-13.758-.927-7.575-31.15z"/><path fill="#cda39e" d="M200.401 495.882l11.285-22.957 10.899 1.005 4.792 19.323-11.208 11.208z"/><path fill="#efcfca" d="M215.319 517.292l-14.918-21.41 26.976-2.629 2.551 15.227z"/><path fill="#ffede8" d="M215.86 473.774l1.314 9.509-5.411 4.483-2.163 8.038-9.199.078.618-19.402zM289.831 357.37l29.449-1.005 14.145 3.478 9.353 5.024 12.445 22.261-2.861 29.45-23.033 36.483-7.421 24.965-32.077.309z"/><path fill="#efcfca" d="M355.223 387.128l-2.397 25.739-8.966 17.469-15.227 25.43-3.864-66.087z"/><path fill="#ffede8" d="M342.778 364.867l-18.009 24.812 19.091 40.657 14.377 8.503 20.948 2.705 4.792-22.493-.851-17.237-19.865-27.053zM359.938 502.297l3.246-21.102 13.372-8.503 10.512 9.2 1.159 24.269-16.154 6.262z"/><path fill="#ffede8" d="M358.237 438.839l25.74-19.788 11.98 21.333-6.493 30.532-5.256 5.023 2.86 5.953-23.884-.697 7.498-4.792-9.276-3.711-4.87-23.342z"/><path fill="#efcfca" d="M352.75 516.983l7.188-14.686 28.289 3.864-18.783 13.991zM343.86 430.336l18.319-2.087-3.942 10.59z"/><path fill="#feeeea" d="M254.043 423.225l52.098 1.391 15.845-71.884-68.483 6.184z"/><path opacity=".1" fill="#2b2b2b" d="M379.57 605.563l-90.357 15.381-89.894-18.318 92.599-12.367z"/><path fill="#177678" d="M272.208 596.905l-.077 5.721h-45.604l-.077-5.721 25.12-5.333z"/><path fill="#329597" d="M270.198 577.505l2.01 19.4H226.45l21.101-19.245 9.353-3.401z"/><path fill="#38a1ba" d="M247.345 499.209l11.491-10.902 30.686.078-1.546 29.371-8.502 29.217-17.16 10.048-8.039 6.338-7.42-19.4z"/><path fill="#177678" d="M345.406 603.398l.232 6.339-35.71-.078-.155-6.415 18.242-3.556z"/><path fill="#329597" d="M338.218 583.069l7.188 20.329-35.633-.154 6.338-20.175 13.218-5.333z"/><path fill="#38a1ba" d="M334.081 502.297l2.204 43.285-6.88 17.777-19.786-4.946-8.812-12.444-12.831-28.213-23.575-28.058 4.406 2.551 52.097-13.604z"/><path fill="#308fa7" d="M287.976 517.756l-40.631-18.547.206-18.786 10.28-9.74 75.285 12.676.965 18.938z"/><path fill="#66686a" d="M237.116 427.244l49.237-25.508 57.429 28.369-10.82 46.067-11.054 6.261-72.038-7.343-2.474-2.938z"/><path fill="#308fa7" d="M246.855 543.959l32.619 3.014-9.276 30.532-22.647.155zM300.807 545.969l35.478-.387 1.933 37.487h-22.107z"/><path d="M247.396 472.152l25.121 1.159 6.106 5.179-4.329 3.169-26.744-1.236-.154-8.271zm46.918 1.856l38.802.927v8.425l-40.039-1.082-5.179-4.096 6.416-4.174z" fill="#4f5152"/><path fill="#dbdbdb" d="M272.517 473.312l21.797.696-1.236 8.269-18.783-.618z"/><path fill="#6e7174" d="M253.503 358.916l7.961 33.855 25.352.772 33.702-41.584 12.907 7.884 3.865 30.841 6.338 40.038-106.512-3.478 5.797-60.831z"/><path fill="#cfa49f" d="M291.145 331.708l25.662-28.445-1.545 40.967-9.044 13.294-34.165 32.155-18.55-30.763 3.169-23.344-7.653-2.782z"/><path fill="#eecfca" d="M320.518 351.959l3.864-25.353-4.638-24.966 9.585-16.773-6.493-39.497-21.334-14.687-11.439 4.252 1.546 5.256-12.058 116.87 18.01-14.764 3.865 13.372-29.373 34.01z"/><path d="M326.623 289.582l5.488-4.251-9.275-39.961-21.334-14.686 8.039 37.179-13.294 59.595s-1.778 1.159-2.164 1.7l-14.532 27.904 21.875-1.392 9.816-48.154 11.672-18.164 3.709.23z" fill="#e8c8c3"/><path fill="#cfa49f" d="M324.382 326.606l-13.14-19.865 4.561-6.647 11.285 10.744z"/><path fill="#feeeea" d="M315.647 281.312l16.464 4.019-5.023 25.507-15.846-4.097z"/><path fill="#cfa49f" d="M319.667 287.572l7.111 2.088-9.121 11.671z"/><path fill="#feeeea" d="M223.281 254.799v44.599l11.13 43.054 15.613 11.903 29.527 2.706 16.696-29.604 2.55-70.184 2.705-26.59-34.396-9.738-32.386 13.062z"/><path fill="#fae6e1" d="M301.502 230.683l-34.396-9.738-32.386 13.062 20.483 3.401zM234.411 342.452l19.092 16.464 26.048-1.855 16.155-16.464.541-13.14-14.377-13.063-26.667-2.087-18.087 10.203-2.705 19.942zm45.527-3.401l-7.575-19.169-26.126 2.86-.232 20.406 33.933-4.097z"/><path d="M238.43 280.848l-4.328-1.391-6.725 4.715 9.352 7.188 10.203 8.889 5.72-.232 10.28 6.107 13.526-19.788 7.034-9.43s-2.087-1.855-2.165-1.082c-.077.773-7.575-1.623-7.575-1.623l-13.527 6.802-4.328 3.401-2.396 3.71-1.855-3.092-3.556-2.474-2.087-1.392-7.573-.308z" fill="#eecfca"/><path fill="#cfa49f" d="M250.333 304.268l-4.946 3.788 9.816 4.251 7.73-6.183z"/><path fill="#fef4f2" d="M251.647 285.022l-.927 7.575-3.787 7.652-1.546 7.807 6.879-.774 10.667-1.158-5.257-13.836-1.777-7.885z"/><path fill="#cfa49f" d="M246.16 325.138l27.208-2.705-1.005-2.551-26.126 2.86z"/><path fill="#5e5045" d="M259.3 277.447l14.918-5.179 10.048 2.241-.773 2.397-8.734-1.082-14.532 5.178zM248.324 278.993l-14.686-1.469-6.724 4.792.463 1.856 6.57-3.092 14.145 1.468z"/><path d="M239.976 285.64c1.793 0 3.247 1.488 3.247 3.324 0 1.836-1.454 3.324-3.247 3.324s-3.247-1.488-3.247-3.324c0-1.836 1.454-3.324 3.247-3.324zM274.373 281.775c1.792 0 3.246 1.488 3.246 3.324 0 1.835-1.454 3.323-3.246 3.323-1.793 0-3.247-1.488-3.247-3.323 0-1.836 1.454-3.324 3.247-3.324z" fill="#2a2a2a"/><path fill="#38a1ba" d="M202.333 465.35l23.421 3.015-3.169 5.643-21.566 2.472zM361.406 472.692l28.058-1.776-2.396 10.976-23.884-.697z"/><path fill="#eecfca" d="M258.527 328.925l-6.106 6.956 16.85-2.396zM237.658 265.775l15.458.464 25.121-6.416-26.512 4.561zM237.348 262.374l13.295.078 16.309-3.787-17.005 2.705zM269.812 308.287l13.604 3.865 6.029 9.121-7.575-6.879zM242.449 312.848l-7.729 8.425 1.005 11.594 1.391-10.358z"/></svg>