<svg xmlns="http://www.w3.org/2000/svg" viewBox="0 0 400 400"><path fill-rule="evenodd" clip-rule="evenodd" fill="#f2d6d2" d="M129.153 173.155l-15.644 16.947 3.154 3.883 12.28-5.966 2.681-3.138 3.925-7.371z"/><path fill-rule="evenodd" clip-rule="evenodd" fill="#fef2f0" d="M243.339 286.303l-7.852 79.561-5.72 12.11-9.272-11.625-16.932-59.628z"/><path fill-rule="evenodd" clip-rule="evenodd" fill="#33302d" d="M115.075 390.371l78.462-8.941 75.066 9.229-76.669 8.434z" opacity=".1"/><path fill-rule="evenodd" clip-rule="evenodd" fill="#d4a8a2" d="M171.61 294.179l19.401 9.799 2.011-.99 1.666-12.665z"/><path fill-rule="evenodd" clip-rule="evenodd" fill="#9fd5d8" d="M149.871 228.187l-1.861-6.782 7.165-18.54 4.427 3.643 8.453 27.546-2.797 3.131-8.054-1.576z"/><path fill-rule="evenodd" clip-rule="evenodd" fill="#cab66b" d="M175.959 147.442l-4.401 2.399-4.457 19.95 15.01-4.12 2.956-11.429-.772-5.598z"/><path fill-rule="evenodd" clip-rule="evenodd" fill="#a6924f" d="M269.906 150.671l-38.61 7.783-2.732 3.245-6.702-4.023-3.783-2.963 6.398-7.108 14.62-9.904 7.859-1.335 21.377 9.117z"/><path fill-rule="evenodd" clip-rule="evenodd" fill="#cab66b" d="M269.748 132.043l.158 18.627-26.567-11.476-5.815-5.894-1.495-10.454 3.003-8.097 28.045 11.319z"/><path fill-rule="evenodd" clip-rule="evenodd" fill="#a6924f" d="M218.079 154.713l25.26-15.518-4.307-24.447-4.182 2.202-16.897 31.912z"/><path opacity=".3" fill-rule="evenodd" clip-rule="evenodd" fill="#33302d" d="M218.079 154.713l25.26-15.518-4.307-24.447-4.182 2.202-16.897 31.912z"/><path fill-rule="evenodd" clip-rule="evenodd" fill="#a6924f" d="M286.019 122.257l-16.271 9.786-30.716-17.295 38.497 1.379z"/><path fill-rule="evenodd" clip-rule="evenodd" fill="#cab66b" d="M277.529 108.267l8.49 13.99-46.987-7.509 30.953-8.211z"/><path fill-rule="evenodd" clip-rule="evenodd" fill="#a6924f" d="M286.491 87.36l-8.962 20.907-38.497 6.481 36.14-27.624z"/><path fill-rule="evenodd" clip-rule="evenodd" fill="#a6924f" d="M251.318 85.059l-11.434 22.185-.852 7.504 47.459-27.388-8.254-5.266-18.706-2.673-3.575 3.044z"/><path fill-rule="evenodd" clip-rule="evenodd" fill="#cab66b" d="M261.912 67.447l5.871-.366 18.708 20.279-30.535-4.894-.079-7.94z"/><path fill-rule="evenodd" clip-rule="evenodd" fill="#a6924f" d="M236.424 53.09l-17.15 2.663 23.837 22.175 12.845 4.537 11.827-15.384.82-15.659-9.585-2.186z"/><path fill-rule="evenodd" clip-rule="evenodd" fill="#cab66b" d="M254.115 29.653h-7.859l-28.303 11.85 1.321 14.25 49.329-4.332z"/><path fill-rule="evenodd" clip-rule="evenodd" fill="#cab66b" d="M195.866 33.44l-.63 5.345 24.038 16.968 34.843-26.1-33.098-26.237-10.735 6.599z"/><path fill-rule="evenodd" clip-rule="evenodd" fill="#e8d37d" d="M205.394 8.619l15.625-5.203-25.153 30.024-1.181-7.781 3.809-12.382z"/><path fill-rule="evenodd" clip-rule="evenodd" fill="#a6924f" d="M183.524-.907l21.87 9.526-9.528 24.821-11.243-8.408-5.341-13.955z"/><path fill-rule="evenodd" clip-rule="evenodd" fill="#cab66b" d="M142.602 34.755L183.524-.906l12.342 34.347-4.325 5.737-33.326 13.519-5.66-2.672-4.872-2.044-3.553-5.455z"/><path fill-rule="evenodd" clip-rule="evenodd" fill="#e8d37d" d="M124.495 83.822l18.107-49.068 9.955 15.27 1.963 5.503-8.647 10.218z"/><path fill-rule="evenodd" clip-rule="evenodd" fill="#a6924f" d="M124.495 83.822l20.741-18.847 2.938 5.005-1.2 14-2.596 2.686-3.849 3.445-11.005-1.257z"/><path fill-rule="evenodd" clip-rule="evenodd" fill="#cab66b" d="M139.115 103.158l-14.62-19.337 20.367 2.341 3.213 4.893 1.776 9.264-1.951 2.746-2.341 2.765-4.951.236z"/><path fill-rule="evenodd" clip-rule="evenodd" fill="#cab66b" d="M131.333 118.72l7.782-15.562 8.785-.092 2.454 2.608 1.1 8.488-1.248 1.729-2.683 2.829z"/><path fill-rule="evenodd" clip-rule="evenodd" fill="#a6924f" d="M146.57 95.659l-7.457 7.499 11.093 12.733 2.797-5.201-1.698-10.699zM154.52 132.043l-23.187-13.323h14.095l6.772-.431 4.633 7.843z"/><path fill-rule="evenodd" clip-rule="evenodd" fill="#cab66b" d="M148.114 147.174l7.061-22.276 7.817 5.812 2.562 7.061 3.117 2.015-12.776 6.288z"/><path fill-rule="evenodd" clip-rule="evenodd" fill="#a6924f" d="M185.067 154.242l-14.605.493-22.348-7.561 15.714-5.646 6.305-.968 15.943 10.071z"/><path fill-rule="evenodd" clip-rule="evenodd" fill="#a6924f" d="M186.076 150.631l-1.009 3.611-21.239-12.713-.838-10.819 18.325 8.292z"/><path opacity=".3" fill-rule="evenodd" clip-rule="evenodd" fill="#33302d" d="M186.076 150.631l-1.009 3.611-21.239-12.713-.838-10.819 18.325 8.292z"/><path fill-rule="evenodd" clip-rule="evenodd" fill="#62bfdd" d="M142.145 177.295l-6.596.215-3.925 2.022-2.471 6.618 3.391 4.686 4.822 7.565 6.195.101 1.867-2.75-2.184-1.989-2.44.058-4.45-6.238 2.869-5.604 3.218-.261 2.031-2.444z"/><path fill-rule="evenodd" clip-rule="evenodd" fill="#43a5a8" d="M220.454 187.273l-30.929.795-3.085 3.641 1.743 6.146 24.021 26.182 7.516-1.934 6.573-22.881z"/><path fill-rule="evenodd" clip-rule="evenodd" fill="#9fd5d8" d="M224.325 186.747l-6.33 4.493-2.721 26.634 1.873 8.837 7.596 7.655 9.976 1.155 26.595-56.679-11.203-.797z"/><path fill-rule="evenodd" clip-rule="evenodd" fill="#7bc8cd" d="M159.665 175.508l27.176-20.906-1.34 7.284 7.514-1.935 7.916 2.959 17.148-8.197 9.416 4.782 3.801-1.041 30.018 20.388-43.319 12.398-31.555.469h-5.367l-10.493-5.119-.779-3.758-3.76-5.103z"/><path fill-rule="evenodd" clip-rule="evenodd" fill="#0a89a4" d="M220.495 366.349l-9.603 21.643 24.712 5.334 3.239-5.334-3.356-22.128-9.235 3.711z"/><path fill-rule="evenodd" clip-rule="evenodd" fill="#128e93" d="M165.258 237.185l-9.329 26.443 47.634 9.818 43.856-9.818-12.7-28.107-13.791-2.488-46.833-.114z"/><path fill-rule="evenodd" clip-rule="evenodd" fill="#43a5a8" d="M155.175 202.865l10.083 34.32 34.843-.003 2.041-5.973-17.579-31.646-11.675-2.958-14.895 1.138z"/><path fill-rule="evenodd" clip-rule="evenodd" fill="#7bc8cd" d="M234.719 235.521l-32.557 5.497-18.616-31.151 1.786-4.675 6.327-5.708 4.056-.539z"/><path fill-rule="evenodd" clip-rule="evenodd" fill="#005356" d="M178.706 207.36l3.91 3.359 2.197-2.013.366-2.479-2.765-1.997z"/><path fill-rule="evenodd" clip-rule="evenodd" fill="#9fd5d8" d="M183.546 209.867l12.169-10.922-7.738-7.258-4.623 1.616-2.683 6.488.693 6.73z"/><path fill-rule="evenodd" clip-rule="evenodd" fill="#7bc8cd" d="M120.307 213.463l18.764 30.835 26.187-7.113-33.232-30.664-2.512.465-7.608 3.873z"/><path fill-rule="evenodd" clip-rule="evenodd" fill="#9fd5d8" d="M120.307 213.463l11.719-6.942-3.022-2.963-1.54-1.774-8.723.796-3.468 2.611z"/><path fill-rule="evenodd" clip-rule="evenodd" fill="#005356" d="M177.735 230.679l3.348 3.561 3.911-3.042-3.556-3.415zM188.968 162.508l2.404 3.163 4.991-2.999-.828-1.779-2.52-.942-2.63.677zM183.161 183.695l2.402 3.164 4.328-2.456-2.685-3.263z"/><path fill-rule="evenodd" clip-rule="evenodd" fill="#f2d6d2" d="M219.274 55.753l-1.313 9.469-9.82 57.141-18.16 18.197 3.034 19.391 11.201-1.518 10.546-1.51 3.317-2.21 20.953-39.964-1.924-11.415 5.373-22.918z"/><path fill-rule="evenodd" clip-rule="evenodd" fill="#d4a8a2" d="M178.179 139.786l4.912-5.607 9.924 5.607h19.377l-10.25 19.208-2.698 3.327-7.146-.691-4.329-.567-2.902-6.821z"/><path fill-rule="evenodd" clip-rule="evenodd" fill="#a6924f" d="M219.274 55.753l16.561 37.912 7.153-9.391 8.33.785 4.638-2.593z"/><path opacity=".3" fill-rule="evenodd" clip-rule="evenodd" fill="#33302d" d="M219.274 55.753l16.561 37.912 7.153-9.391 8.33.785 4.638-2.593z"/><path fill-rule="evenodd" clip-rule="evenodd" fill="#d4a8a2" d="M242.436 101.329l-5.94-.13-2.782 2.015 5.318 11.535 5.842-11.141z"/><path fill-rule="evenodd" clip-rule="evenodd" fill="#fef2f0" d="M238.9 79.872l17.056 2.594-11.084 21.141-11.158-.391z"/><path fill-rule="evenodd" clip-rule="evenodd" fill="#d4a8a2" d="M242.672 86.179l-2.553 10.355 8.645-9.51z"/><path fill-rule="evenodd" clip-rule="evenodd" fill="#cab66b" d="M229.274 173.061l-11.195-18.348 13.217 3.741z"/><path fill-rule="evenodd" clip-rule="evenodd" fill="#fef2f0" d="M145.236 64.975l.192 53.745 23.243 21.066h24.344l23.216-20.282 3.043-63.751-23.408-22.312-18.945 9.117-27.076 17.449z"/><path fill-rule="evenodd" clip-rule="evenodd" fill="#d4a8a2" d="M152.557 50.025l-7.321 14.95 50.63-31.535z"/><path fill-rule="evenodd" clip-rule="evenodd" fill="#f2d6d2" d="M177.39 94.658l2.117 3.923L189.1 81.03l15.84-9.217-10.281-3.796-13.784 3.968-1.607 1.601-3.823 4.789zM170.986 78.375l-2.429 16.987-1.048-2.259-5.672-11.934-13.189-8.3 7.071-3.514 9.563 2.349 1.978 1.572z"/><path fill-rule="evenodd" clip-rule="evenodd" fill="#a6924f" d="M204.94 71.813l-9.918-3.628-15.181 2.214-.573 3.187 16.182-3.062zM167.26 73.276l-.285-3.083-11.857-.838-6.47 3.514 6.719-1.186z"/><path fill-rule="evenodd" clip-rule="evenodd" fill="#d4a8a2" d="M172.837 104.789l6.67-6.207-13.34.209z"/><path fill-rule="evenodd" clip-rule="evenodd" fill="#fef8f8" d="M179.507 98.581l-13.34.212 4.819-20.418h4.459z"/><path fill-rule="evenodd" clip-rule="evenodd" fill="#81cace" d="M173.224 117.733l15.613-7.206-16.255 2.366-9.251-1.348z"/><path fill-rule="evenodd" clip-rule="evenodd" fill="#f0f2f2" d="M155.342 156.358l-2.818 5.464 3.353 5.237-.804 5.349 3.356-5.805z"/><path fill-rule="evenodd" clip-rule="evenodd" fill="#1a7477" d="M188.837 110.527l-11.841-.397-4.595 1.529-3.41-1.132-5.66 1.018 9.496 2.011z"/><path d="M180.952 237.183l-4.417 27.712 4.223.01 3.838-27.722.396-5.984 1.25-16.819-2.696-4.512-.93.853-1.128 16.362-.049.701 3.554 3.415-3.911 3.043-.13 2.941m73.504-62.999l-.782 6.846-18.955 54.492v29.246l6.637.181-.997-16.094-5.64-13.333 11.994-25.559 10.509-29.95.471-3.631-3.237-2.198zM148.01 221.405l13.645 16.76 3.603-.98-5.413-34.319h-4.67l1.838 6.259-5.659 15.258 3.089 2.845 4.498-11.54 2.053 6.985-2.687 8.11 3.04 2.799 1.399-4.947 2.512 8.551c0-.001-17.218-15.854-17.248-15.781m-19.281-12.931l3.299-1.951 25.421 32.783-4.153 1.129-24.567-31.961zm-5.993 3.549l3.43-2.03 22.313 31.749-5.145 1.397-20.598-31.116zm-4.688-2.272l10.691-6.498-13.466 1.939 2.775 4.559zm69.403-3.407l19.344 33.893-2.072 24.727 4.564.011 2.033-25.501-21.057-35.648-2.812 2.518zm5.446-4.876l2.818-2.523-3.868-3.628-3.87-3.629-3.334-1.624.92-3.203 4.327-2.456-2.684-3.264 4.166-15.468 4.993-2.999-6.474 21.731-1.913 7.284-5.562 12.544 9.432-8.914.526-3.696 7.157-26.372 3.256 2.646-6.191 23.665-.879 7.384 25.19 38.908-1.358 27.145-5.03-.013s1.044-19.587 1.633-26.329l-23.255-37.189zm14.755 8.672l18.294 26.862c-.273 5.416-1.173 28.01-1.173 28.01l4.828.011 1.295-28.857-15.566-18.826 2.665-26.099 5.4-27.816 3.14 5.146-4.043 21.383-7.163 27.385-3.723-3.491 2.261-22.546 7.408-31.351-3.197-5.238-8.236 36.648-2.19 18.779zm37.02-26.535l1.827-14.826 3.899 2.648-1.302 10.911-15.956 51.703-3.005-2.817 14.537-47.619zm-9.206 2.635l3.384-22.656 4.094 2.781-2.591 18.477-13.029 43.743-3.481-3.264 11.623-39.081zm-8.346 2.388l4.176-30.175 3.643 2.474-3.639 26.505-10.44 35.092-2.614-2.45 8.874-31.446zm-58.078 13.3l-4.607.311.824 34.946-9.33 26.443 6.221.091 7.079-26.567-.187-35.224zm9.79 1.229l-1.358 34.026-4.892 27.701-4.525-.013 5.673-27.688-.038-35.57 5.14 1.544zm11.471 18.016l3.771 6.313-.655 9.696-3.411 27.746-4.724-.013 4.061-27.733.958-16.009zm7.539 12.681l-.2 3.328-2.757 27.758 5.028.011 2.249-23.932-4.32-7.165zm3.283-42.363l4.92-20.946 5.934-10.315-6.741 31.2-1.845 14.713-3.68-3.449 1.412-11.203zm-34.024-21.7l5.236-4.03-3.075 9.495-4.349.114 2.188-5.579zm7.122 15.195l7.243-26.249-4.268 3.285-7.396 20.81 4.421 2.154zm14.745-22.478l-5.126 3.238-5.63 21.183 3.566 1.739 1.383-4.973 5.807-21.187z" fill-rule="evenodd" clip-rule="evenodd" fill="#161511" opacity=".15"/><path d="M192.916 81.03c0 2.107-1.709 3.816-3.817 3.816-2.105 0-3.815-1.709-3.815-3.816s1.709-3.816 3.815-3.816c2.108 0 3.817 1.709 3.817 3.816zM165.205 81.03c0 2.107-1.71 3.816-3.817 3.816-2.105 0-3.815-1.709-3.815-3.816s1.71-3.816 3.815-3.816c2.108 0 3.817 1.709 3.817 3.816z" fill-rule="evenodd" clip-rule="evenodd" fill="#33302d"/><path fill-rule="evenodd" clip-rule="evenodd" fill="#fef2f0" d="M157.77 306.721l5.074 56.056 12.603 13.025 2.253-10.952 14.477-58.129z"/><path fill-rule="evenodd" clip-rule="evenodd" fill="#007088" d="M210.894 387.992h27.949v5.334h-27.949zM141.307 382.66h36.167v5.332h-36.167z"/><path fill-rule="evenodd" clip-rule="evenodd" fill="#0a89a4" d="M177.7 364.85l-.226 17.81h-36.167l6.332-5.846z"/><path fill-rule="evenodd" clip-rule="evenodd" fill="#f3d8d4" d="M217.298 381.786h16.096l2.093-15.922-14.992.485z"/><path fill="#f3d8d4" d="M147.639 376.814l17.155.368L177.7 364.85l-14.856-2.073z"/><path fill-rule="evenodd" clip-rule="evenodd" fill="#9fd5d8" d="M178.591 169.157l13.707-7.527-7.231-7.388zM206.045 170.544l-13.747-8.914 25.781-6.917z"/><path fill-rule="evenodd" clip-rule="evenodd" fill="#d4aba5" d="M157.77 306.721l31.804 10.449 2.603-10.449zM241.554 306.721l-35.084 10.552-2.907-10.552z"/><path fill-rule="evenodd" clip-rule="evenodd" fill="#0a89a4" d="M155.929 263.628l1.841 43.093h83.784l5.865-43.093z"/><path fill-rule="evenodd" clip-rule="evenodd" fill="#161511" d="M247.419 263.628h-91.49l85.625 43.093z" opacity=".15"/><path fill-rule="evenodd" clip-rule="evenodd" fill="#43a5a8" d="M236.548 103.315l4.163-3.711 4.163 4.004-3.513 6.7z"/><path fill-rule="evenodd" clip-rule="evenodd" fill="#f2d6d2" d="M128.943 188.019l2.681-8.487 9.196 5.774.296 4.465-9.066 1.1z"/><path fill-rule="evenodd" clip-rule="evenodd" fill="#fef2f0" d="M113.509 190.102l1.764 15.09 19.153-2.758-2.802-22.902z"/><path fill="#f2d6d2" d="M163.372 101.872l-5.95 2.917v6.104zM183.923 101.685l11.362 9.208-2.445-6.104z"/><path fill="none" d="M181.364 206.521l20.798 34.497"/><path fill-rule="evenodd" clip-rule="evenodd" fill="#82cee6" d="M142.056 175.972l1.812 27.15 17.112-.257 2.345-8.88 4.196-7.17 2.28-3.983-.542-7.577z"/><path fill-rule="evenodd" clip-rule="evenodd" fill="#fef2f0" d="M169.68 181.14l-2.159 5.675 2.003 10.046 4.168 4.751 7.672 4.909 6.613-14.834z"/><path fill-rule="evenodd" clip-rule="evenodd" fill="#f2d6d2" d="M156.794 187.898l12.886-6.758 4.012 20.472-12.712 1.253z"/></svg>