<svg xmlns="http://www.w3.org/2000/svg" viewBox="0 0 400 400"><path opacity=".1" fill="#2b2b2b" d="M111.616 386.799l101.156-15.371 88.739 16.003L206.564 400z"/><path fill="#1e7678" d="M170.337 175.813l-31.982 49.854 29.262 7.172 5.391-27.706z"/><path fill="#185e60" d="M265.897 258.324l11.916 27.225-25.427 11.056-7.745-5.945 11.34-20.759z"/><path fill="#1e7678" d="M207.238 308.591l-11.532 26.679-19.064-1.876-13.313-9.527 1.411-35.956 31.497-4.084zM207.238 308.591l13.822 30.234 17.658 4.608 16.698-8.163-3.328-42.569-10.969-29.605z"/><path fill="#185e60" d="M189.636 293.696l17.602 14.895 33.881-35.627-33.881-12.695-20.779 20.496z"/><path fill="#1e7678" d="M266.643 177.042l23.037 71.885-34.696-4.281z"/><path fill="#359496" d="M127.285 54.29l16.396-15.305 8.458 1.178.911 18.395z"/><path fill="#4fa9aa" d="M149.244 54.586l9.806-46.858L212.771 0l3.806 34.423-3.806 35.688z"/><path fill="#318fa6" d="M262.381 150.095l-4.748 4.599-174.506 42.417-2.038-3.888.097-4.393 14.718-3.413 17.605-1.964 15.874-5.799 126.708-29.543z"/><path fill="#28788c" d="M71.184 184.901l.268 10.605 4.469 9.61 7.206-8.005-1.941-8.281z"/><path fill="#5ec0d9" d="M75.921 205.116l-11.01-8.061 6.273-12.154z"/><path fill="#74cfe4" d="M257.633 154.694l30.809-7.451-1.474-6.292-30.877 7.16z"/><path fill="#dddddc" d="M234.825 162.371l-4.4 27.904-21.251 47.473-12.428-46.593-4.063-28.274 17.771 8.678z"/><path fill="#4f5253" d="M201.109 182.006l6.129 8.184-6.973 12.097 8.909 15.982 12.449-14.056-9.344-13.854 7.484-8.204-10.232-6.849z"/><path fill="#fff" d="M209.531 175.306l17.585 18.133 7.709-11.39 3.709-17.091-28.367 7.653-20.744-8.956 3.195 16.581 3.779 10.546z"/><path fill="#1e7678" d="M212.771 0l46.55 18.543 2.049 54.879-48.599-9.138z"/><path fill="#94d5d5" d="M152.139 40.163l60.632 8.194 5.27 6.229-3.513 8.633-12.554-.426-28.725-.555-24.005-7.652z"/><path fill="#4fa9aa" d="M212.771 48.357l33.021 4.462-33.021 11.465z"/><path fill="#185e60" d="M201.974 62.793l43.818-9.974 33.145 19.426-17.567 21.486-5.86-14.418z"/><path fill="#feeee9" d="M156.562 61.532l-9.007 4.532-3.874 29.433 8.781 53.568 33.961 3.531 7.612 11.479 15.496 11.231 26.369-15.351 17.686-63.281-27.933-30.61-8.459 1.243z"/><path fill="#efd0cb" d="M225.653 66.064l-16.699 88.819.577 20.423 29.003-10.348 22.836-71.227zM203.698 83.43l-28.105 25.607-26.349-30.022z"/><path fill="#cea39f" d="M147.555 66.064l76.721 7.643 5.938 3.231 23.372 7.816 2.807-9.345-30.74-9.345-76.704-10.596zM253.586 118.009l-12.124-2.498 7.495 16.938zM246.146 110.213l3.513-12.363 6.734 1.179z"/><path fill="#46382d" d="M225.653 66.064l4.561 10.874 13.297 12.295 17.859 4.498V73.422z"/><path fill="#5f5044" d="M239.706 111.685l6.44-20.016 15.224 2.062-31.156-16.793 5.686 13.555-5.124 19.72z"/><path fill="#fff5f3" d="M177.658 81.319l-2.065 27.718-9.222-.736 4.829-27.506z"/><path fill="#5f5044" d="M203.698 83.43l-1.611-3.385-17.858-3.09-6.571 4.364zM171.2 80.795l-2.78-5.017-15.076.442-4.1 2.795zM166.371 108.301l-13.321 11.772 3.512 2.943 13.907-3.971 17.859 6.769 6.294-2.502-19.029-14.275z"/><path fill="#35291b" d="M175.593 109.037l-5.417 6.034-3.805-6.77z"/><ellipse cx="188.763" cy="90.637" rx="3.802" ry="3.822" fill="#2b2b2b"/><ellipse cx="160.365" cy="87.988" rx="3.802" ry="3.822" fill="#2b2b2b"/><path fill="#cea39f" d="M186.423 152.596l40.596 4.121-17.488 18.589-20.108-11.651zM156.562 123.016l31.766 2.798v4.12l-31.766-2.796z"/><path fill="#72cbcc" d="M127.285 54.29l44.729 14.188 29.96-5.685-52.73-8.207z"/><path fill="#5ec0d9" d="M200.265 202.287l8.909 11.895 4.58 41.152-4.58 17.185-4.558 11.23-13.328-8.429z"/><path fill="#3aa0ba" d="M209.174 214.182l12.449-9.969 19.496 68.751-25.334 10.785-6.611-11.23z"/><path fill="#359496" d="M238.534 164.958l-14.879 37.115-14.481 35.675-1.936 5.402 1.936 6.508 31.945 23.306 16.216-17.861 2.219-14.371 7.089-63.69-20.775-7.015-4.195-1.101z"/><path fill="#359496" d="M189.423 163.655l-3.001 7.904-16.085 4.254-3.887 81.472 2.012 5.444-2.563 4.432-1.159 20.75 24.896 5.785 19.538-44.038v-11.91l-12.937-42.878z"/><path fill="#1e7678" d="M227.61 226.13l26.255 2.043.762-9.27-8.759-.212-13.968-1.702zM166.45 257.285l20.141 4.763-2.201 8.848-18.491-3.735z"/><path fill="#72cbcc" d="M211.721 243.788l2.793-4.594 3.726 4.594-4.107 3.701z"/><path fill="#4fa9aa" d="M289.68 248.927l-31.328 35.051-8.617-1.145-8.616-9.869 18.435-32.232z"/><path fill="#feeee9" d="M241.119 272.964l17.233 11.014-5.966 12.627z"/><path fill="#185e60" d="M221.06 338.825l34.356-3.555 2.936 35.465-13.47 1.702-11.326-4.764zM195.706 335.27l-32.377-11.403-1.417 36.607 11.872 6.615 11.595-1.851z"/><path fill="#3aa0ba" d="M233.556 367.673l-6.035 18.546 13.651 1.212 21.071-1.212-3.891-15.484z"/><path fill="#28788c" d="M227.521 386.219h34.722v5.87h-34.722z"/><path fill="#3aa0ba" d="M161.912 360.474l-25.024 20.333 30.337 1.468 18.08-1.468.074-15.569z"/><path fill="#28788c" d="M185.26 386.677h-9.022l-1.777-4.211-8.187 4.211h-29.446v-5.87h48.432z"/><path fill="#4fa9aa" d="M167.617 232.839l-33.529-31.448-11.736 2.748-6.18 6.253 22.419 32.892z"/><path fill="#cea39f" d="M116.172 210.392l-17.865-16.953 12.729-6.578h15.134l7.918 14.53z"/><path fill="#efd0cb" d="M98.307 193.439l-2.404-8.022 22.763-14.757 3.906 8.433-.432 5.808-4.738 4.03z"/><path fill="#feeee9" d="M134.088 201.391l-4.706-23.737-14.258 3.246 2.278 8.031 8.768-2.07-7.914 9.732 6.61 9.431z"/><path fill="#4fa9aa" d="M238.534 164.958l7.334 5.069v30.032H231.9l13.968 18.632-36.694 19.057z"/><path fill="#4fa9aa" d="M189.423 163.655l-19.974 28.058 11.617 5.539-4.819 10.549 32.927 29.947z"/></svg>