<svg xmlns="http://www.w3.org/2000/svg" viewBox="-136.338 -76.4 400 400"><path fill="#2b2b2b" fill-opacity=".102" d="M20.627 313.845l56.888 9.606 51.717-12.007-55.966-10.343z"/><path fill="#318fa6" d="M-39.218 26.815l22.534 1.663 29.183-8.497.924-6.095L6.773.218-3.94-.152z"/><path fill="#efd0cb" d="M135.881 205.794l-3.51 1.476-1.661-13.113 8.864 2.401z"/><path fill="#3aa0ba" d="M142.9 179.196l23.643 5.173-6.28 17.361-3.88 4.064-.367 7.573-2.405 6.465h-9.233l-13.853-7.943 10.528-27.706z"/><path fill="#50a9aa" d="M131.633 149.643l9.42 34.54-3.139 8.311-7.204 1.663-16.439-32.692.924-5.727 12.928-7.756z"/><path fill="#369496" d="M106.698 146.504l-3.324-8.127 6.834-30.292 7.573-8.497 13.852 50.055-17.362 11.822z"/><path fill="#ffeee9" d="M153.242 189.909l-12.189-5.726-10.343 9.974 14.038 10.714 5.54-.739z"/><path fill="#efd0cb" d="M160.263 201.73l-7.021-11.821-8.494 14.962 11.268 8.496z"/><path fill="#318fa6" d="M145.117 224.634l-14.592-12.745 23.086 7.943z"/><path fill="#5ec0d9" d="M4.002-43.741l1.293 24.564 6.834.554 53.012-21.241 3.507-5.91-5.91-7.203-25.119-6.095z"/><path fill="#8ce0dc" d="M42.791-76.25l-9.605 19.21 35.462 11.266 4.248-8.312-1.845-6.649z"/><path fill="#8ce0dc" d="M93.399-74.033L71.051-60.735l1.845 6.649 6.282 3.88 5.541 1.292 16.808-10.712z"/><path fill="#72cbcc" d="M71.051-60.735l-2.403 14.961 4.248 1.663 6.282-6.095z"/><path fill="#46382d" d="M92.66 87.953l.924 6.649 1.662 2.954 15.145 3.51 7.39-1.478 5.726-23.642 1.108-34.17-6.095-11.451-6.464 2.215z"/><path fill="#5e5044" d="M127.199 40.483l-8.679-4.802-.739 63.907 27.521-32.876z"/><path fill="#74665b" d="M114.825 21.828l3.695 13.853 26.782 31.031-26.412-53.38z"/><path fill="#46382d" d="M55.535 84.258l-13.668 19.395 13.853 1.661 10.159-2.216-5.911-15.515z"/><path fill="#cea39f" d="M56.644 81.488l-1.109 2.77 5.91 14.961-2.031 5.356 6.834 17.363 4.803-4.063 19.208-40.451z"/><path fill="#efd0cb" d="M90.629-8.463l-5.91 2.771-.37 61.69-20.502 24.197 3.693 2.77 17.917-1.662-17.178 34.54 21.428-13.668 3.877-7.573 20.571-47.569-1.362-9.32z"/><path fill="#5e5044" d="M96.171-5.323l-8.312 1.107 17.545 39.528 3.879-16.624 9.607-5.356-4.435-8.127z"/><path fill="#50a9aa" d="M38.542 145.58l5.356-4.986 2.033-30.846-4.064-6.095-17.916 25.304.923 4.986 8.127 10.713z"/><path fill="#369496" d="M-1.169 121.753l24.381 41.188 15.33-17.361-28.628-32.508-7.389 1.478z"/><path fill="#318fa6" d="M50.179 311.444h20.502l7.573-3.324.555-5.173-6.834-5.725H62z"/><path fill="#ffeee9" d="M64.032 277.09l-2.402 3.693.37 16.439 16.809 5.725-1.479-14.776-5.355-11.821z"/><path fill="#318fa6" d="M83.056 288.541L71.975 276.35l6.834 26.597 4.431-6.095z"/><path fill="#3aa0ba" d="M65.693 316.43l28.077 2.772-5.172-10.712-9.789-5.543z"/><path fill="#ffeee9" d="M83.056 288.541l-4.247 14.406 14.961 16.255 3.509-18.47-2.033-9.79-6.648-5.355z"/><path fill="#3aa0ba" d="M101.527 302.024l-6.281-11.082-1.476 28.26z"/><path fill="#efd0cb" d="M77.885 254.002l5.171 34.539 12.19 2.401 7.942-39.343-3.877-3.878-17.733 2.587zM29.861 241.442l31.769 39.341 10.345-4.433-6.652-23.642-4.616-4.432-25.489-9.421z"/><path fill="#cea39f" d="M65.323 252.708l-35.462-11.266 5.357-2.587 25.304 3.88 2.956 3.324zM80.655 245.136l-3.509 2.77.739 6.096 25.303-2.403-3.877-3.878z"/><path fill="#27788c" d="M42.052 200.991l-12.191 40.451 73.327 10.157 8.498-41.373-5.912-4.062-55.042-6.652z"/><path fill="#369496" d="M70.865 174.579L59.414 173.1l-9.604 2.218-4.618 15.146 6.279 6.464 14.408 1.663 2.586-2.217z"/><path fill="#1c7678" d="M98.57 181.043l-3.877-3.141-23.828-3.323-1.662 2.954-3.324 21.058 34.908 4.248 5.172-5.172z"/><path fill="#72cbcc" d="M45.192 190.464l60.767 7.203 5.727 12.559-69.634-9.235z"/><path fill="#369496" d="M38.542 145.58l6.28 3.693 16.438.924 4.433-13.298-1.846-3.878 1.108-4.803-9.235-22.904-4.803-3.694-9.05 2.033z"/><path fill="#50a9aa" d="M61.26 150.197l40.267 2.032 4.618-3.51 11.636-49.131-9.236-1.847-44.698 35.28-3.51 12.744z"/><path fill="#50a9aa" d="M38.542 145.58l21.795.185 2.032.923 8.496 27.891-1.662 2.954-19.393-2.215z"/><path fill="#369496" d="M60.337 145.765l46.361.739-8.128 34.539-29.367-3.51z"/><path fill="#72cbcc" d="M50.917 101.62l8.866 21.426 6.465-1.108 2.031-6.095-6.834-16.624z"/><path fill="#8ce0dc" d="M59.783 123.046l33.801-28.444 14.961 3.139-44.698 35.28z"/><path fill="#5e5044" d="M28.752-12.343l.555 5.357-13.114 25.304-3.694 1.663L2.156 2.988 3.818-7.909l15.515-8.127z"/><path fill="#46382d" d="M64.771-17.514l-3.694 4.434-26.968 2.769-5.357-2.032 1.664-8.495 42.48-23.273 9.607.739-4.435 15.885z"/><path fill="#5e5044" d="M119.072-9.202l-6.834 2.771-31.213-4.988-16.254-6.095 17.732-25.858 9.419 1.293 24.197 21.98z"/><path fill="#74665b" d="M87.859-4.216l-5.356 2.587-17.362-10.344-.37-5.541 54.301 8.312-.182 22.534z"/><path fill="#cea39f" d="M112.238 31.617l-6.834 3.695 8.751 11.721-.491-5.593 4.856-5.759z"/><path fill="#ffeee9" d="M87.859-4.216l.922 64.463L67.54 82.965l-22.903 2.216-23.641-17.73-8.497-47.47 16.253-32.324 36.019-5.171z"/><path fill="#318fa6" d="M134.773-73.479l-2.955 60.768-12.746 3.509-36.569-34.17 2.216-5.542z"/><path fill="#ffeee9" d="M104.113 14.625l1.291 20.687 13.116.369.37-22.349z"/><path fill="#cea39f" d="M109.283 18.688l.186 8.866 5.172-9.42z"/><path fill="#73cfe5" d="M5.295-19.177l-44.513 45.992L134.773-73.479z"/><path fill="#efd0cb" d="M36.51 49.349l-9.604 7.019 7.573-1.478zM64.4 45.656l4.618 4.986 9.236-1.478z"/><path fill="#cea39f" d="M41.498 44.363l4.802-2.587 6.649 1.109-3.879 6.649z"/><path fill="#efd0cb" d="M25.797 16.472l12.007 1.477 4.248 7.757 1.477 7.388-2.031 11.269-10.159-15.885-11.636-6.834zM52.026 15.549l-3.694 9.419.184 7.757 4.433 10.16 6.465-19.209 13.113-10.898-8.127-2.033z"/><path d="M31.692 23.241c2.037.124 3.589 1.875 3.466 3.912-.123 2.037-1.874 3.589-3.912 3.466-2.037-.123-3.588-1.875-3.465-3.911.122-2.037 1.873-3.59 3.911-3.467zM60.525 20.249c2.037.124 3.589 1.875 3.466 3.913-.123 2.037-1.874 3.587-3.911 3.466-2.038-.123-3.589-1.874-3.466-3.913.123-2.037 1.874-3.589 3.911-3.466z" fill="#2b2b2b"/><path fill="#46382d" d="M19.703 21.644l5.91-3.695h12.191L36.51 14.81l-11.267.739zM52.58 12.408l-.554 3.141 12.929-4.065 7.572 1.294L64.4 9.084z"/><path fill="#fff5f3" d="M42.052 25.706l6.28-.738 4.617 17.917-11.451 1.478z"/><path fill="#50a9aa" d="M45.561 64.31l-11.082-9.42 16.069-.37 18.47-3.878-9.419 12.005z"/><path fill="#fff" d="M47.039 60.8l-7.758-5.726 24.566-2.954-6.28 7.573z"/><path fill="#1c7678" d="M34.479 54.89l16.623.739 17.916-4.987z"/><path fill="#72cbcc" d="M113.37 29.217l-4.825 6.183 6.741 3.422 3.234-3.141z"/><path fill="#2b2b2b" fill-opacity=".102" d="M33.186-57.04l27.151 14.777 8.311-3.511z"/><path fill="#50a9aa" d="M114.155 47.033l-5.61-11.633 9.975.281z"/><path fill="#efd0cb" d="M3.448 99.404l1.109 17.732-5.726 4.617-11.452-14.777 1.108-6.094z"/><path fill="#ffeee9" d="M-4.494 84.443l7.942 14.961-16.069 7.572-2.401-15.515zM8.436 91.461H5.111l-3.694 18.841 3.14 6.834 5.357-4.064z"/></svg>