<svg xmlns="http://www.w3.org/2000/svg" viewBox="0 0 400 400"><path opacity=".1" fill-rule="evenodd" clip-rule="evenodd" fill="#34302d" d="M103.949 388.374l102.128 14.208 99.391-13.712-99.696-6.443z"/><path fill-rule="evenodd" clip-rule="evenodd" fill="#a2807f" d="M144.446 275.889l-5.167 4.25 9.02 13.916 9.02 6.003 1.512-10.909-1.892-10.281z"/><path d="M142.248 260.684l-2.969 19.455 17.667-.914 2.02-9.255s-4.563-7.508-3.344-7.428c1.218.079-13.374-1.858-13.374-1.858z" fill-rule="evenodd" clip-rule="evenodd" fill="#ba9996"/><path fill-rule="evenodd" clip-rule="evenodd" fill="#ccafae" d="M150.986 256.827l-4.334 5.089 6.294 25.056 4.131-.414-.32-17.872 9.351-8.717z"/><path fill-rule="evenodd" clip-rule="evenodd" fill="#f0f2f2" d="M151.671 240.971l-7.296 8.712-2.127 11.001 14.437 4.037 9.12-8.18-5.168-13.571z"/><path fill-rule="evenodd" clip-rule="evenodd" fill="#6cc1dd" d="M153.646 220.114l-3.951 1.928-5.32 27.641 23.405 4.146.911-29.145-5.318-7.285z"/><path fill-rule="evenodd" clip-rule="evenodd" fill="#2c8da8" d="M178.433 169.649l-17.492-11.213-11.246 63.606 22.796 1.429z"/><path fill-rule="evenodd" clip-rule="evenodd" fill="#24768d" d="M232.064 382.433l-9.117 4.144.151 6.57 37.432-.067v-6.503z"/><path fill-rule="evenodd" clip-rule="evenodd" fill="#3a9ebc" d="M231.456 354.434l-2.431 15.284-6.078 16.859h37.583l-6.125-16.573z"/><path fill-rule="evenodd" clip-rule="evenodd" fill="#24768d" d="M155.317 374.147l-18.996 8.001v7.142l31.306-.143 3.951-4.285 2.736 4.285 9.726-.285v-6.143z"/><path fill-rule="evenodd" clip-rule="evenodd" fill="#3a9ebc" d="M166.411 351.862l-7.75 8-22.34 22.286 47.719.571-1.215-17.714z"/><path fill-rule="evenodd" clip-rule="evenodd" fill="#1b5d5f" d="M170.818 311.005l-13.069 13 .912 35.857 24.164 5.143 9.504-31.285z"/><path d="M204.708 292.971l-12.379 40.75-34.58-9.715-.863-48.116s41.828-6.094 42.656-5.17c.828.925 5.166 22.251 5.166 22.251z" fill-rule="evenodd" clip-rule="evenodd" fill="#1a7477"/><path fill-rule="evenodd" clip-rule="evenodd" fill="#1b5d5f" d="M220.212 307.292l-3.61 23.216 12.423 39.21 25.38.286.305-49.142z"/><path fill-rule="evenodd" clip-rule="evenodd" fill="#1a7477" d="M197.566 273.863l7.142 19.108 11.894 37.537 38.108-9.646 1.063-32.856-11.398-22.286-19.451-13.499z"/><path fill-rule="evenodd" clip-rule="evenodd" fill="#1b5d5f" d="M171.883 243.863l-15.198 20.858.2 11.168 47.823 17.082 46.05-9.965-33.283-40.571z"/><path fill-rule="evenodd" clip-rule="evenodd" fill="#3a9ebc" d="M208.66 239.578l-14.155 16.354-7.879 15.968-29.941-7.179 4.256-57.714v-48.571l16.869-9.284z"/><path d="M239.665 263.006l-7.295-.999-23.71 11.54-14.155-17.615-1.041-29.637s19.024-29.159 20.364-29.001c1.341.157 26.901-52.999 26.901-52.999l25.216 10.075-4.965 70.667-21.315 37.969z" fill-rule="evenodd" clip-rule="evenodd" fill="#2c8da8"/><path d="M256.23 263.721l1.165 10.31-1.622 13.976-5.016-5s1.542-18.07.761-17.57c-.782.497 4.712-1.716 4.712-1.716z" fill-rule="evenodd" clip-rule="evenodd" fill="#006266"/><path fill-rule="evenodd" clip-rule="evenodd" fill="#ba9996" d="M248.935 254.579l-7.447-1.428-9.118 8.856 18.388 20.999 6.637-8.975z"/><path fill-rule="evenodd" clip-rule="evenodd" fill="#f0f2f2" d="M265.044 245.15l-17.477-.571-6.079 8.572 15.501 21.428 9.119-12.286z"/><path fill-rule="evenodd" clip-rule="evenodd" fill="#24768d" d="M260.94 195.436l-15.502 4.286 2.129 44.857 21.429-11.572z"/><path fill-rule="evenodd" clip-rule="evenodd" fill="#6cc1dd" d="M263.677 220.294l-5.472 4.572-10.638 19.713 18.541 17.714 24.317-35.428-20.063-23.144z"/><path d="M177.506 163.438l6.687 44.856 30.396-6.429s5.311-41.01 6.078-40.285c.766.726-38.918-.082-38.918-.082l-4.243 1.94z" fill-rule="evenodd" clip-rule="evenodd" fill="#d8d6d5"/><path fill-rule="evenodd" clip-rule="evenodd" fill="#1a7477" d="M198.327 171.152l-4.559 5.856-7.447 19 2.431 17.572 4.712 12.714 16.413-23-2.853-9.624-5.13-.354 2.728-7.748-2.496-8.417z"/><path d="M188.101 191.467l-1.78 4.541 1.042 7.532 19.661-9.87-2.402-8.102-16.521 5.899zm.613 21.832l.038.28 4.712 12.715 12.585-17.637c-.008.004-12.164 3.373-17.335 4.642z" fill-rule="evenodd" clip-rule="evenodd" fill="#319396"/><path fill-rule="evenodd" clip-rule="evenodd" fill="#87cfe6" d="M183.434 154.009l1.671 17.999 8.359 54.286-24.317-35.714 8.663-41.428zM218.691 164.866l-3.494 9.143-21.733 52.285 42.705-36 4.56-46z"/><path d="M212.916 164.009l-10.79 13.143-8.358-.143-6.232-14.285s21.128-6.609 20.517-7.428c-.611-.82 4.863 8.713 4.863 8.713z" fill-rule="evenodd" clip-rule="evenodd" fill="#1b5d5f"/><path fill-rule="evenodd" clip-rule="evenodd" fill="#f0f2f2" d="M191.64 144.437l6.734 19.425-13.269 8.146-7.295-22.856 9.119-8.571zM198.935 148.295l-.561 15.567 16.823 10.147 25.532-29.715-4.104-8.428z"/><path fill-rule="evenodd" clip-rule="evenodd" fill="#866663" d="M175.694 130.835l22.68 33.027 27.098-18.405 8.429-8.635.201-10.666z"/><path fill-rule="evenodd" clip-rule="evenodd" fill="#a2807f" d="M243.659 83.253l6.949-12.164 2.941-14.902-5.948-28.802-10.443-11.614-20.029 13.752-3.345 46.444-5.88 59.881 16.166-.02-6.973 15.317 20.133-13.957 5.627-31.749z"/><path fill-rule="evenodd" clip-rule="evenodd" fill="#866663" d="M240.852 86.193l-9.155 4.477 11.16 14.769 2.873-10.692z"/><path fill-rule="evenodd" clip-rule="evenodd" fill="#24768d" d="M238.245 71.157l-1.603-3.943-13.944-1.878-2.039 4.155 1.79 2.472 14.259 2.602z"/><path opacity=".3" fill-rule="evenodd" clip-rule="evenodd" fill="#33302d" d="M238.245 71.157l-1.603-3.943-13.944-1.878-2.039 4.155 1.79 2.472 14.259 2.602z"/><path fill-rule="evenodd" clip-rule="evenodd" fill="#ba9996" d="M153.489 13.633l-13.099 25.93 1.862 24.59 1.066 14.084 2.151 28.422 23.791 30.206 38.644-1.017 12.79-17.378 1.755-46.507-3.026-3.615 3.275-3.012 1.095-28.981 13.365-20.584L200.001 0z"/><path fill-rule="evenodd" clip-rule="evenodd" fill="#24768d" d="M212.531 68.693l1.454-4.287 8.713.93-.249 6.627-8.594-.149z"/><path d="M177.363 82.182l-7.352 9.49-12.982-9.807-4.794-14.184-5.813-11.027 12.63-1.938 10.024 4.277.335 1.805 3.189 3.291 6.501 2.322 3.274-2.473 1.671-3.074 15.504-6.884 12.23 3.074s-8.434 10.811-8.42 10.225c.013-.585-6.283 15.437-6.283 15.437l-13.232 9.223-6.482-9.757z" fill-rule="evenodd" clip-rule="evenodd" fill="#a2807f"/><path fill-rule="evenodd" clip-rule="evenodd" fill="#866663" d="M176.561 87.061l-6.549 4.611 7.686 4.612 6.147-4.345z"/><path d="M170.106 72.363l2.495-8.274 9.774-.151 7.485 8.822s-19.751-.486-19.754-.397z" fill-rule="evenodd" clip-rule="evenodd" fill="#24768d"/><path fill-rule="evenodd" clip-rule="evenodd" fill="#ccafae" d="M170.88 71.222l1.32 4.094-2.188 16.356 13.833.267-1.536-16.841 1.971-5.312-13.4-.033z"/><path fill-rule="evenodd" clip-rule="evenodd" fill="#ba9996" d="M144.316 66.143l25.946-.117-.2 8.155-13.232 5.512-11.728-3.208z"/><path d="M148.961 64.974l-4.228 1.521 19.031 4.327s5.749 3.973 5.68 3.809c-.068-.164 2.038-9.289 2.038-9.289l-22.521-.368z" fill-rule="evenodd" clip-rule="evenodd" fill="#a2807f"/><path fill-rule="evenodd" clip-rule="evenodd" fill="#ba9996" d="M184.581 65.075l28.133.601-.532 8.754-17.243 5.614-10.96-5.547z"/><path fill-rule="evenodd" clip-rule="evenodd" fill="#a2807f" d="M212.714 65.676l-1.335 1.203-17.775 3.106-8.155 3.777-1.838-8.367z"/><path d="M142.252 64.153l30.349-.064-.4 11.227-15.17 6.549-13.712-3.628-1.067-14.084zm2.481 2.342l.602 9.222 11.294 3.343 12.697-5.948.402-6.483-24.995-.134zM182.375 63.938l31.61.468-.201 11.562-16.707 6.749-14.768-7.619.066-11.16zm2.873 2.34l.201 7.484 11.579 5.602 14.15-6.003.2-6.482-26.13-.601z" fill-rule="evenodd" clip-rule="evenodd" fill="#3a9ebc"/><path fill-rule="evenodd" clip-rule="evenodd" fill="#4b4949" d="M146.422 56.654l12.63-3.008 9.31 1.909 1.05 5.242-10.56-4.411zM186.529 55.722l13.021-2.945 12.23 4.278-11.895-1.203-15.839 5.012z"/><path fill-rule="evenodd" clip-rule="evenodd" fill="#866663" d="M159.52 103.969l42.504-.134-14.435 14.635-13.566-.067z"/><path fill-rule="evenodd" clip-rule="evenodd" fill="#fff" d="M166.471 106.575l28.87-.134-8.688 8.153-12.03-.2z"/><path fill-rule="evenodd" clip-rule="evenodd" fill="#a2807f" d="M214.253 100.159l-6.349 3.208 1.337 9.222zM150.499 101.629l5.947 1.872.669 8.019z"/><path fill-rule="evenodd" clip-rule="evenodd" fill="#ba9996" d="M236.642 67.214l13.966 3.875-4.878 23.658-14.033-4.077z"/><path fill-rule="evenodd" clip-rule="evenodd" fill="#866663" d="M239.716 73.295l5.813 1.871-8.152 10.024z"/><path fill-rule="evenodd" clip-rule="evenodd" fill="#3a9ebc" d="M266.108 154.008l24.317 72.857-32.22-1.999-12.767-25.144z"/><path d="M196.831 70.901c0 2.023-1.64 3.664-3.664 3.664-2.023 0-3.663-1.64-3.663-3.664s1.64-3.663 3.663-3.663c2.024 0 3.664 1.64 3.664 3.663zM163.443 70.901c0 2.023-1.64 3.664-3.663 3.664-2.024 0-3.663-1.64-3.663-3.664s1.64-3.663 3.663-3.663c2.024 0 3.663 1.64 3.663 3.663z" fill="#33302d"/></svg>