<svg xmlns="http://www.w3.org/2000/svg" viewBox="0 0 400 400"><path opacity=".1" fill="#2b2b2b" d="M113.635 384.502l97.058-10.5 74.806 12.997L201.752 400z"/><path fill="#28788c" d="M203.633 0l42.124 13.247 5.673 29.306-39.633 12.643-20.793-3.116z"/><path fill="#3aa0ba" d="M148.723 44.507l7.259-29.747L203.633 0l-5.556 50.24-28.846 7.507z"/><path fill="#5ec0d9" d="M148.723 44.507l50.986-9.691 2.043 18.875-32.521 4.056z"/><path fill="#3aa0ba" d="M199.709 34.816l51.721 7.737-33.213 10.595-20.14-2.908z"/><path fill="#74cfe4" d="M94.016 65.885l54.707-21.378 26.888 12.965z"/><path fill="#1e7678" d="M170.768 21.624l8.514 17.075-10.373 8.838.322 6.859-11.532 8.53-16.7-4.463 7.724-13.956z"/><path fill="#359496" d="M179.282 38.699h-24.929l-5.63 5.808 20.508 9.889z"/><path fill="#4fa9aa" d="M170.768 21.624l-1.859 17.075-7.489 3.576-1.675 7.547-18.746 8.641-4.497-6.281-8.942.966-2.954-16.081 8.928-6.097 2.252-9.534 20.196-6.676 4.74 5.186z"/><path fill="#72cbcc" d="M168.909 38.699l-16.56-3.883-5.861 2.251 13.257 12.755zM146.488 38.699l-5.489 19.764-13.439-5.315 15.113-16.537zM137.024 36.682l-12.418.385 11.18-15.631 6.887 10.977zM155.982 14.76l-11.448 17.28 3.068.932 23.166-11.348z"/><path fill="#1e6677" d="M94.016 65.885l40.797-6.445 3.022.208 3.164-1.185 110.431-15.91 58.058 24.421-37.963 16.937-143.965 4.975z"/><path fill="#1e7678" d="M256.761 174.84l24.201 52.331-36.089 7.002V204.84zM172.452 165.506l-43.16 22 18.956 19.138 7.879-3.138 13.882-13.666z"/><path fill="#4fa9aa" d="M148.248 206.644l-17.6-36.804-7.992.353-6.171 8.688 7.178 35.625z"/><path fill="#28788c" d="M235.38 365.925l4.622 10.577L235.75 392h-4.079l-1.838-10.498z"/><path fill="#efd0cb" d="M216.141 350.518L221.002 366l-7.78 13.5 5.113 6.25 15.502-7.251 1.543-12.574 5.335-20.425-15.902-1.629z"/><path fill="#3aa0ba" d="M213.222 379.5L206.34 392h25.331l2.166-13.501-13.835 5.168z"/><path fill="#cea39f" d="M216.141 350.518l24.574-5.018-17.713-6.333-9.306 3.566z"/><path fill="#efd0cb" d="M194.663 349.337l-2.893 11.05-20.273 20.615-6.333-9.166 11.834-10.001-5.547-22.668 19.208 3.5z"/><path fill="#cea39f" d="M171.451 339.167l23.212 10.17 4-14.504z"/><path fill="#3aa0ba" d="M165.164 371.836l-16.916 12.666h29.374l9.375-6.333 4.773-7v-10.782l-19.899 17.783z"/><path fill="#28788c" d="M191.77 360.387l5.563 11.446-3.516 12.669h-6.048l-.772-6.333z"/><path fill="#72cbcc" d="M238.088 165.048l18.673 9.792-5.622 37.666-53.202 5.667-41.81-14.667 16.325-38z"/><path fill="#feeee9" d="M231.366 161.506l6.722 3.542-26.654 31.207-30.028-2.5-8.954-28.249 7.026-3z"/><path fill="#8f8f8f" d="M140.999 58.463l-6.185.977-8.417 13.542 16.276-2.03 1.861-9.42z"/><path fill="#b7b7b7" d="M139.987 65.885l-13.59 7.097 10.627 26.394 2.963-11.888 1.756-10.326z"/><path fill="#a5a5a5" d="M126.397 72.982l-1.071 14.372 7.858 10.463 3.318-6.375z"/><path fill="#8f8f8f" d="M125.326 87.354l9.469 16.602h5.798l-4.091-12.514z"/><path fill="#7c7c7c" d="M269.013 139.064l-17.583 10.664-4.087-5.861 1.715-24.282z"/><path fill="#686868" d="M249.76 124.593l1.67 25.135-11.961-3.741z"/><path fill="#8f8f8f" d="M252.825 108.155l-3.065 16.438 19.253 14.471-1.953-19.479z"/><path fill="#feeee9" d="M146.208 62.926l-6.221 2.959-6.803 49.886 11.536 34.609 26.422 3.721 19.723 20.837 39.56-14.769 23.074-48.004-8.302-3.837-14.886-32.748-20.838-12.654z"/><path fill="#efd0cb" d="M224.558 72.982l-24.762 86.515-11.722 3.907 31.041 5.552 12.251-7.45 8.103-15.519 2.429-8.826 7.862-12.568 4.74-11.427-7.069-11.542-17.12-26.044zM193.837 88.886l-26.418 22.886-18.696-27.353z"/><path fill="#fff5f3" d="M173.979 86.92l-4.791 12.108-1.769 12.744-7.674-.837 1.675-12.839 4.739-11.95z"/><path fill="#cea39f" d="M167.419 111.772l-4.464 3.768-3.21-4.605zM171.142 154.101l45.819 5.675 2.617 8.899-26.336 10.443-9.867-10.162-4.558-6.167zM236.219 124.749l11.359 5.104-8.109 16.134zM139.987 65.885l87.998 17.557 2.326-7.862-20.838-12.654-68.474-4.463z"/><path fill="#efd0cb" d="M180.914 100.082l3.531 9.318h6.559zM156.795 95.563l-6.26 9.092-6.001-2.235zM181.515 127.469l7.459 13.829-7.69-5.459zM149.234 123.644l-.874 7.178-7.767 3.415z"/><circle cx="183.05" cy="96.98" r="3.768" fill="#2b2b2b"/><circle cx="154.045" cy="93.035" r="3.768" fill="#2b2b2b"/><path fill="#737474" d="M193.837 88.886l-12.601-5.722-7.257 3.756zM166.159 86.146l-5.96-4.929-11.476 3.202z"/><path fill="#1e7678" d="M181.515 127.469l-18.472-3.443-13.809-.382 13.116 6.367z"/><path fill="#4fa9aa" d="M181.515 127.469l-19.212 5.798-13.069-9.623 13.116 5.249z"/><path fill="#359496" d="M236.219 124.749l5.679 6.283 5.68-1.179 2.182-5.26-4.621-7.276z"/><path fill="#8f8f8f" d="M209.473 62.926l3.348 11.445 10.34 4.611h13.058l11.359-8.03z"/><path fill="#a5a5a5" d="M223.161 78.982l7.15 15.763 17.267-.837 23.947-9.997-9.768-9.812-14.179-3.147zM244.138 110.445l22.922 9.14 8.373-12.42-10.048-3.209z"/><path fill="#b7b7b7" d="M275.433 107.165l-31.295 3.28L254.5 98.513l11.443-1.789z"/><path fill="#7c7c7c" d="M271.525 83.911l-5.582 12.813-21.805 13.721-7.895 5.454-8.595-8.734 2.663-12.42z"/><path opacity=".2" fill="#2b2b2b" d="M209.473 62.926l52.284 11.173 9.768 9.812-46.62-1.084-1.744-3.845-10.34-4.611z"/><path fill="#359496" d="M156.127 203.506l95.012 9-3.881 26-43.625 6.334-37.656-8.334z"/><path fill="#5ec0d9" d="M172.452 165.506l22.031 27.228 43.605-27.686-6.722-3.542-34.944 21.25-3.18-3.638-14.425-16.329z"/><path fill="#4fa9aa" d="M165.977 236.506l-10.546 33.334 52.059 10.666 53.271-12.668-13.503-29.332z"/><path opacity=".2" fill="#2b2b2b" d="M196.24 248.383l11.856 13.199 20.405-8.076 32.26 14.332-13.503-29.332z"/><path fill="#1e7678" d="M155.431 269.84l16.02 69.327 69.15 6.333 20.16-77.662z"/><path opacity=".2" fill="#2b2b2b" d="M193.329 310.672l14.767 19.907 36.777 1.619 4.659-18.873z"/><path fill="#72cbcc" d="M280.962 227.171l-39.22.502-5.05 2.083-8.083-1.915-3.709 8.665 3.709 6.443 44.658 7.222z"/><path fill="#28788c" d="M203.633 268.924l24.976-41.083v15.108l-17.785 27.976z"/><path fill="#3aa0ba" d="M228.609 227.841l13.133-.168 25.438 35.513-7.116 3.745z"/><path fill="#efd0cb" d="M228.609 227.841l-12.488-5.835-12.488 5.835 13.374 2.665z"/><path fill="#feeee9" d="M228.609 227.841h-24.976l-2.369 13.165 5.18 7.377 22.165-5.434z"/><path fill="#efd0cb" d="M203.633 227.841l-14.375 9.238 6.982 11.304h10.204z"/><path fill="#5ec0d9" d="M203.633 268.924l63.547-5.738 12.816 44.484-66.794 12.086-9.569-23.5z"/><path fill="#318fa6" d="M203.633 268.924l-10.304 41.748 19.873 9.084z"/><path fill="#3aa0ba" d="M207.814 291.131l35.951-5.875 29.255-1.8-29.255 5.05zM249.532 313.325l-4.659-23.655-4.562 1.801z"/><path fill="#28788c" d="M233.837 286.879l7.657-7.536 6.401 8.45-6.373 6.547z"/><path fill="#feeee9" d="M114.663 169.84l-10.164-16.667 7.998-10.167 11.107 1.98 3.059 16.52-5.416 6.5z"/><path fill="#efd0cb" d="M104.499 153.173l-1.001-21.971 11.583-6.944 4.184 10.174 4.714 4.723-.375 5.831z"/><path fill="#efd0cb" d="M121.139 168.04l-4.474-11.865 6.939-11.189 1.675-6.987 6.014 7.802-4.63 15.705z"/><path fill="#feeee9" d="M119.264 134.432l4.989-1.922 7.04 13.291-7.689-.815z"/><path fill="#74cfe4" d="M116.485 178.881l14.163-9.041-3.985-8.334-12 8.334z"/><path fill="#28788c" d="M231.366 192.734l1.653-3.394 7.53-3.265.026 6.659-4.937 4.439-1.747 4.333-7.852 1.334 2.462-7.5z"/><path fill="#3aa0ba" d="M233.891 195.006l-.872-5.666-7.714-1.5 3.196 7.5 5.39-.334v6.5l9.967.333-3.283-9.105z"/><path fill="#1e7678" d="M146.381 29.251l5.968 5.565-6.525 6.274-5.837-1.54-2.963-2.868 4.719-5.752z"/></svg>