<svg xmlns="http://www.w3.org/2000/svg" viewBox="0 0 400 400"><g fill-rule="evenodd" clip-rule="evenodd"><path fill="#1c7578" d="M246.38 212.943l22.344 5.359 2.983 30.401-3.807 16.843-28.399-14.985z"/><path fill="#707073" d="M252.681 215.1l11.341-7.078 4.702 10.28 9.996 23.391-1.434 6.504-5.579.506z"/><path fill="#8f8f8f" d="M259.832 258.161l7.434-5.02 11.454-11.448 11.195 13.722 6.532 42.048h-21.052l-7.034-22.923z"/><path fill="#cfcfcc" d="M291.28 250.558l-12.56-8.865 17.727 55.77 3.697-10.709z"/><path fill="#245c5c" d="M134.151 257.762l-7.741-15.64 6.001-10.526 10.616-.449z"/><path opacity=".1" fill="#2b2b2b" d="M99.856 384.02l95.307-7.795 98.362 10.72-75.607 13.555z"/><path fill="#308fa6" d="M230.972 180.191l5-1.306 25.111-1.726-3.831 18.328-9.544 5.828-12.755-5.402-4.002.709-1.04-4.224z"/><path fill="#f0d1cc" d="M246.954 365.38l-1.765-27.752-16.655 5.551-8.264 6.556 8.11 18.31 10.265 6.903z"/><path fill="#cfa39e" d="M244.537 336.165l-27.996 5.146 3.729 8.424 24.919-12.107z"/><path fill="#3ba1ba" d="M188.037 345.028l18.381.533 18.551-22.237-33.449-15.265-34.06 17.143zM160.717 344.686l-26.362 1.113 5.169-88.273 7.784 6.992z"/><path fill="#26788c" d="M188.036 344.992l3.484-36.933-6.714-15.669L150 304.048l-1.046 32.451 8.687 1.858 13.026 9.259z"/><path fill="#1c6e70" d="M163.099 299.659L150 304.048l-.249 7.78 28.386 2.967z"/><path fill="#26788c" d="M206.418 345.561l-14.898-37.502 3.759-13.844 39.943 5.016 15.008 3.473-2.986 34.504-29.818 6.101z"/><path fill="#1c6e70" d="M225.845 298.054l9.377 1.177 15.008 3.473-1.496 17.254-5.586-14.443-39.729 8.77z"/><path fill="#f0d1cc" d="M185.716 383.42l2.321-38.392-21.67-2.098-6.389 1.789 6.691 18.114 1.559 15.037z"/><path fill="#cfa39e" d="M188.037 345.028l-30.394-6.633 2.335 6.324z"/><path fill="#ffede8" d="M141.215 382.707l25.454-19.874 19.047 20.587z"/><path fill="#c2b373" d="M148.952 376.668l17.717-13.835 9.18 9.923-22.471 7.845z"/><path fill="#a19161" d="M157.521 369.977l4.142-3.232.841 10.669-5.705 1.989z"/><path fill="#f0d1cc" d="M143.441 371.778l-5.903 11.285 18.483-.119z"/><path fill="#ffede8" d="M220.449 390.973l7.931-22.928 18.574-2.665 10.062 25.593z"/><path fill="#c2b373" d="M222.814 384.138l5.566-16.093 18.574-2.665 7.528 19.141z"/><path fill="#a19161" d="M222.814 384.138l2.371-6.859 12.095-7.102 14.108 6.479 3.094 7.865-15.837-9.573z"/><path fill="#f0d1cc" d="M237.862 380.841l-17.413 10.132h36.567z"/><path fill="#175e61" d="M191.52 308.059l7.435-4.781 12.301-11.214-22.542-14.04-24.573 11.733 18.091 12.083z"/><path fill="#78bab8" d="M137.371 201.651l22.768-5.799 4.869-.399 6.855 3.679 3.692 1.981 3.678 7.063 1.445 8.042-19.551 3.595-6.693-5.804z"/><path fill="#8ce0db" d="M223.958 221.18l-9.173 8.753-23.17-2.917-5.006-6.631 8.295-3.501 29.849-22.892 7.656-.412 6.611 5.887z"/><path fill="#175e61" d="M242.402 216.439l-10.738 10.028-7.706-5.287 15.062-21.713 5.995 3.91z"/><path fill="#3ba1ba" d="M188.714 278.024l-6.983-40.536 9.884-10.472 32.343-5.836 23.692 10.416-10.953 18.171z"/><path fill="#308fa6" d="M203.419 314.285l-14.705-36.261 23.011-22.878 30.775 3.33 11.997 31.635zM178.652 314.994l3.146-11.565 6.916-25.405-41.406-13.506-7.08 35.797z"/><path fill="#308fa6" d="M161.127 219.813l-7.429 24.037-6.39 20.668 41.406 13.506 2.901-51.008-10.937-10.798z"/><path fill="#4fa8ab" d="M126.41 242.122l23.844-15.323 1.331-16.07-3.187-4.235-12.384.651-4.186 11.871z"/><path fill="#73cfe6" d="M134.151 257.762l1.707-21.708 14.396-9.255 2.337 12.853 2.232 17.198z"/><path fill="#5ebfd9" d="M164.141 289.757l-29.99-31.995 18.44-18.11 26.428 17.911 3.115 10.151-10.061 4.883z"/><path fill="#2e6e70" d="M161.127 219.813l1.498 26.636-10.034-6.797-2.337-12.853 4.316-9.057z"/><path fill="#175e61" d="M148.044 207.383l2.21 19.416 10.873-6.986-5.388-17.844-7.074.695z"/><path fill="#cfa39e" d="M179.162 257.42l15.548-.546-5.996 21.15-16.641-5.427zM203.223 278.913l-14.509-.889 5.996-21.15 12.769 12.087 3.777 6.977z"/><path fill="#4fa8ab" d="M245.015 203.377l10.639 12.083-7.982 7.05-10.567-3.702z"/><path fill="#2e6e70" d="M223.958 221.18l-.889 22.506 12.854-6.895 7.062-11.001-5.88-6.982z"/><path fill="#a3a3a3" d="M172.042 218.794l18.785 22.072-9.854 10.498-19.846-31.551z"/><path fill="#858787" d="M190.827 240.866l11.137 10.853-14.228 5.399-6.763-5.754z"/><path fill="#1c7578" d="M246.954 365.38l24.961-21.33-4.649-90.909-19.522 1.769-6.801 16.003z"/><path fill="#73cfe6" d="M220.066 276.072l-9.605-8.534-3.443 2.507-3.795 8.868 9.578 4.796z"/><path fill="#175e61" d="M223.791 272.425l-4.992 4.886-5.998 6.398-3.094 4.267 3.094 8.174 15.77-16.883z"/><path fill="#cfcfcc" d="M284.39 325.125l-27.757-23.904-33.404-16.232-2.542 2.721 50.295 39.877z"/><path fill="#dededb" d="M282.539 312.093l1.851 13.032-61.161-40.136 3.386-3.631z"/><path fill="#1c7578" d="M141.313 366.448l-1.689-102.845-5.473-5.841-8.896 88.423z"/><path fill="#308fa6" d="M130.867 186.222l38.838-3.136-4.697 12.367-9.269 6.516-16.765 5.618-13.137-5.901z"/><path fill="#26788c" d="M131.828 219.016l-5.991-17.33 29.902.283-15.795 11.109zM255.654 215.46l3.783-14.45-11.382-11.957-15.649 4.527z"/><path fill="#4fa8ab" d="M268.724 218.302l-13.07-2.842-7.599-26.407 13.028-11.894 20.8 8.263.387 19.551z"/><path fill="#369496" d="M278.398 189.511l-14.316-4.089-8.321 12.264 2.71 7.643 9.866 6.043 9.87-10.665-4.259-7.288-11.028 1.602 10.45 2.131.578 3.911-5.998 5.509-6.965-2.308-1.161-8 5.998-7.998z"/><path fill="#f0d1cc" d="M182.134 267.714l8.03-15.193 14.795 4.402 2.059 13.122-18.304 7.979z"/><path fill="#ffede8" d="M208.998 251.238l-7.034.481-11.8.802 7.165 7.451 9.689 10.073 10.02-7.294z"/><path fill="#5ebfd9" d="M208.998 251.238l8.04 11.513 11.533 16.516 12.372-8.354 11.871-8.016 14.452-9.756-15.669-18.839-15.674 2.489z"/><path fill="#73cfe6" d="M237.105 218.808l-.404 6.09-.778 11.893 15.62 8.146 15.723 8.204-11.612-37.681z"/><path fill="#f0d1cc" d="M242.87 125.333l-23.309-15.386-15.315 82.84-9.197 24.097 37.36-23.304 7.507-30.957z"/><path fill="#ffede8" d="M131.221 112.59l4.615 55.6 19.985 24.597h48.425l16.912-23.316-1.798-66.873-50.472-7.432z"/><path fill="#f0d1cc" d="M143.449 131.417l11.484 10.372 10.44 13.001 6.469 2.244 6.472-2.37 15.372-13.835 10.08-7.47-10.398-3.961-9.224 2.178-9.675 3.487-2.69 3.459-2.563-3.074-7.902-4.047-8.933-2.288z"/><path fill="#a19161" d="M120.461 137.188l14.061 15.182-1.879-22.668-6.092-2.407z"/><path fill="#82754d" d="M123.538 122.839l-3.077 14.349 12.182-7.486-1.021-12.3-3.761-3.025z"/><path fill="#a19161" d="M142.285 107.472l-10.663 9.93-8.084 5.437-7.497-8.647 8.582-8.712 9.986-4.971z"/><path fill="#a19161" d="M150.375 107.91l-8.143-.461-7.345-5.074 5.483-22.238 13.847-9.377 8.163 23.834z"/><path fill="#82754d" d="M123.213 83.571l16.967-1.324-1.847 12.084 3.952 13.141-17.662-1.992-5.252-9.099z"/><path fill="#c2b373" d="M142.432 70.76l-19.219 12.811 15.12 10.76 7.092-10.526 8.792-13.045z"/><path fill="#82754d" d="M183.53 97.322l-13.104 11.841-20.051-1.253 3.842-37.15 25.344 7.417z"/><path fill="#82ccc9" d="M191.615 227.016l-10.255-2.548-20.233-4.655 18.104-11.637 14.184-3.14 1.489 11.848-.925 2.848z"/><path fill="#a19161" d="M177.536 58.459L154.217 70.76l29.313 26.562 8.684-5.212.182-13.921 5.381-9.866z"/><path fill="#82754d" d="M218.017 66.917l-23.06-7.688-17.421-.77 14.86 19.73 23.204-.106z"/><path fill="#a19161" d="M249.021 87.668l-31.334 6.808-25.291-16.287 25.621-11.272z"/><path fill="#c2b373" d="M219.561 109.947l21.863 3.442 7.597-25.721-56.625-9.479 11.831 25.185z"/><path fill="#a19161" d="M205.975 113.805l13.586-3.858-27.165-31.758-2.296 22.76 7.421 5.938z"/><path fill="#82754d" d="M190.346 111.497l7.175-4.61-5.125-28.698-8.866 19.133-5.249 7.751 4.377 4.375z"/><path fill="#a19161" d="M150.375 107.91l1.795 9.483 19.807.757 10.681-8.702.518-7.18.354-4.946z"/><path fill="#82754d" d="M185.735 122.003l-9.224.768-24.341-5.378 30.488-7.945-3.586 5.895zM257.477 113.547l-8.456-25.879-29.46 22.279 5.119 19.486 20.762-.991z"/><path fill="#a19161" d="M253.12 133.021l4.357-19.474-32.797 15.886 15.611 9.421z"/><path fill="#82754d" d="M224.68 147.37v-17.937l28.44 3.588-1.027 7.174-12.022 10.616z"/><path fill="#a19161" d="M230.316 164.28l-5.636-16.91 27.413-7.175-2.579 20.773z"/><path fill="#cfa39e" d="M217.115 192.72l-12.2.067h-41.072l3.635 8.326 11.755 7.063 15.671 8.708 12.884-7.945z"/><path fill="#fff5f2" d="M169.216 135.448l-3.843 19.342 12.941-.126-3.845-19.601z"/><path fill="#cfa39e" d="M172.036 159.404l-6.663-4.614 12.941-.126zM160.634 168.243l14.218 1.153 15.502-3.714v1.921l-15.628 5.124-13.707-2.178z"/><path fill="#f0d1cc" d="M157.431 159.532l-1.922 8.967-9.736 4.1zM192.277 158.636l1.665 6.917 12.302 4.1zM170.883 177.467h8.711l-4.996 2.947z"/><path fill="#a19161" d="M143.449 131.417l17.865-.014-.024-4.094-16.708-.5zM183.695 131.535l19.621 1.785-.406-5.793-19.107-.214z"/><path d="M154.933 136.923c2.158 0 3.906 1.749 3.906 3.906 0 2.158-1.748 3.908-3.906 3.908-2.158 0-3.908-1.75-3.908-3.908s1.75-3.906 3.908-3.906M189.779 136.921c2.158 0 3.906 1.75 3.906 3.908s-1.748 3.906-3.906 3.906c-2.158 0-3.908-1.748-3.908-3.906.001-2.158 1.751-3.908 3.908-3.908" fill="#2b2b2b"/></g></svg>