<svg xmlns="http://www.w3.org/2000/svg" viewBox="-61.929 0 400 400"><path fill="#cea39f" d="M15.213 140.245l4.32 11.015 8.063 6.839 8.279-6.839-.792-8.639z"/><path fill="#ffede8" d="M42.067 159.899l-20.806-2.376-1.728-6.263 24.622-9.648 4.103 8.064z"/><path fill="#eed0cb" d="M44.227 137.725L.022 132.829l4.032 7.704 29.662 4.967 8.351 14.399 3.24-12.455z"/><path opacity=".1" fill="#2b2b2b" d="M24.644 374.369l122.535-11.59 128.365 15.479L120.54 400z"/><path fill="#393b3c" d="M181.304 375.522l-3.96 3.816v3.167l36.501.288.144-3.455zM132.492 371.418l-7.632 2.304-1.512 3.168 44.348-.216.073-3.24-11.879-6.48z"/><path fill="#4e5152" d="M167.625 361.699l.144 11.735-16.415.144-26.494.144 16.271-17.351 17.71-5.039z"/><path fill="#474747" d="M187.495 360.043l-10.151 19.295h36.717l-1.296-17.279-9.935-10.727z"/><path d="M177.704 309.143l-3.527 18.574-10.656 8.496-5.327-8.567-13.247-6.839-4.463 3.6-2.088-28.295s29.086-14.182 29.23-15.262c.071-1.008 17.494 4.68 17.494 4.68l-7.416 23.613z" fill="#96637c"/><path fill="#734d61" d="M174.177 327.717l-6.552 33.982-24.839-7.775-2.303-29.518 4.463-3.599 12.096 3.239z"/><path fill="#b3889d" d="M175.399 296.111l5.977 31.606 9.143 5.616 22.966-5.544-14.327-49.676z"/><path fill="#96637c" d="M181.376 327.717l6.119 32.326 25.27 2.016 3.744-22.966-19.078-11.376z"/><path fill="#734d61" d="M144.874 280.85l30.525 15.261 38.59-15.261-9-24.334-26.709-1.368-22.822 4.247z"/><path fill="#ebebea" d="M157.689 264.578l43.414-2.519 4.535-65.731-20.519-33.261-26.565-3.168-4.608 9.935z"/><path fill="#474747" d="M157.401 263.931l.145 2.952 40.172-2.376-4.608-9.359-31.316 1.368zM167.625 241.037l7.991 7.127 7.631-7.127-6.264-4.68z"/><path fill="#4e5152" d="M171.225 169.114l-1.008 19.871-10.152 36.141 7.56 15.911h15.622v-15.911l-2.088-54.86z"/><path fill="#594265" d="M161.936 163.643v25.27l-2.951 15.622 2.809 51.981.142 88.336h-40.748l2.16-70.483-1.583-87.184 14.47-31.174 8.639-11.591 16.703 11.087z"/><path fill="#532f42" d="M144.659 376.746l5.615 5.471 2.304-.648-1.224-7.991h-3.744z"/><path fill="#734c5e" d="M148.618 374.802l1.656 7.415 2.304-.648-1.224-7.991z"/><path fill="#9da1a2" d="M122.628 271.706l-7.127-2.088-2.232 3.529 31.39 103.599 6.695-3.168z"/><path fill="#737373" d="M115.285 279.697l6.48 1.368v-6.551l-2.52-4.896-5.976 3.529z"/><path d="M151.354 373.578l-28.726-101.872-2.448-.72c-.576.72-.936 1.295-.936 1.295l29.374 102.521 2.736-1.224z" fill="#c3c3c3"/><path fill="#848585" d="M121.765 281.065l2.735-2.16-1.872-7.128-3.095-1.511-.288 2.448z"/><path fill="#532f42" d="M64.025 375.162l-5.544 5.688-2.303-.721 1.224-7.919h3.671z"/><path fill="#734c5e" d="M60.065 373.361l-1.584 7.489-2.303-.721 1.224-7.919z"/><path fill="#9da1a2" d="M85.191 274.586l7.128-2.088 2.159 3.455-30.453 99.209-6.623-2.952z"/><path fill="#737373" d="M92.463 282.577l-6.408 1.296v-6.479l2.52-4.896 5.903 3.527z"/><path d="M57.402 372.21l27.789-97.624 2.376-.721c.576.721 1.008 1.297 1.008 1.297l-28.51 98.199-2.663-1.151z" fill="#c3c3c3"/><path fill="#848585" d="M86.055 283.873l-2.807-2.088 1.872-7.199 3.095-1.439.36 2.447z"/><path fill="#532f42" d="M126.228 384.449l-2.375 11.735-4.752 1.584-7.632-10.223 6.768-7.272z"/><path fill="#848585" d="M111.469 387.545l-2.304-1.872-15.046-107.56 4.751-3.24 7.632 17.135 8.711 77.538z"/><path fill="#737373" d="M98.222 287.113l-2.879-.432-1.296-7.991 2.088-2.52 2.663 2.016z"/><path fill="#9da1a2" d="M97.07 278.041l14.399 109.504 14.759-3.096-14.039-110.727-7.271-2.304z"/><path fill="#848585" d="M96.926 277.178l7.272-6.48 8.063 2.159 1.008 9.288-15.047 4.968z"/><path d="M142.427 160.547l-6.191 19.367s-15.911.36-15.911-.936c0-1.224.576-9.719.576-9.863l21.526-8.568z" fill="#785c87"/><path fill="#8f75a0" d="M131.052 145.428l-86.825-7.703-2.88 28.942 56.875 8.999 17.351-4.752 17.998-16.63z"/><path fill="#785c87" d="M133.571 154.284l-2.519-8.856-49.316-4.391 10.727 33.549 3.815.792 1.944.288 17.351-4.752z"/><path fill="#c3c3c3" d="M94.047 278.69l-17.279-3.096v-13.535l21.526-1.08 4.032 10.08z"/><path fill="#a3a3a3" d="M94.047 266.883v11.807l39.668-5.904v-14.327l-7.847-3.311zM65.177 241.037v-13.752l11.591-7.486 16.559 7.486s4.752 11.016 4.968 12.168c.144 1.08-5.688 8.711-5.688 8.711l-27.43-7.127z"/><path fill="#cececd" d="M59.49 255.148l5.687-14.111h28.87l-10.079 14.111-17.279 6.911z"/><path fill="#c3c3c3" d="M68.489 266.883l-8.999-1.441v-10.294l8.999 1.368 5.327 3.886z"/><path fill="#a3a3a3" d="M94.047 266.883H68.489v-10.367l25.558-15.479 8.279 8.567z"/><path fill="#8e8e8e" d="M167.625 241.037l-5.831 15.479-67.747 10.367v-25.846l20.59-11.592z"/><path fill="#cececd" d="M105.278 169.114l-40.101 16.991 2.52 13.391h21.742l16.199-13.391z"/><path d="M56.394 223.686l-4.248 15.768s-17.422-3.744-17.422-4.248c0-.576-.576-3.24 0-3.672.504-.432 8.279-5.903 8.279-5.903l13.391-1.945z" fill="#95627c"/><path fill="#784e62" d="M36.451 235.205l16.055-9.575 3.024-33.19-14.039-2.303-5.04 2.303-1.727 4.392z"/><path fill="#532f42" d="M36.451 192.44l25.414 5.976-7.559-15.695z"/><path d="M56.106 177.753L33.284 191v46.941l20.302 3.096 8.279-34.918-5.759-28.366zm-5.904 59.756l-13.751-2.304V192.44l15.191-6.983-1.44 52.052z" fill="#b3879d"/><path fill="#784e62" d="M70.936 227.285l-17.35 13.752 2.52-63.284 15.838 14.687 4.752 13.392z"/><path fill="#543042" d="M80.872 227.285h-9.936l1.008-34.845h8.928l5.759 6.768z"/><path fill="#c3c3c3" d="M94.047 185.457l-13.175 6.983v34.845l13.175 13.752 8.279-15.551z"/><path fill="#a3a3a3" d="M170.217 188.985l-2.592 52.052H94.047v-55.58l38.301-4.247z"/><path fill="#c3c3c3" d="M105.278 169.114l-11.231 16.343 76.17 3.528-8.281-9.071-56.298-10.08z"/><path fill="#794e61" d="M162.729 140.821l-7.919-5.112-9.936 8.711 17.062 19.223 16.488-3.6z"/><path fill="#594265" d="M193.11 224.406v120.446h47.733l1.728-111.231-1.728-29.373-21.598-15.335-33.046 15.263z"/><path fill="#785c87" d="M222.988 237.509l-8.999 3.528 11.015 38.733 9.288-1.153-2.664-8.999V249.82z"/><path fill="#8f75a0" d="M276.12 222.318l-33.909 36.069-10.583-6.264-8.64-14.614 15.335-18.07 16.271-7.056z"/><path fill="#eed0cb" d="M222.988 237.509l19.223 20.878-10.583 11.231z"/><path fill="#a687b9" d="M224.572 199.352l13.751 20.087 37.797 2.879-33.549-66.811-13.752 12.167z"/><path fill="#785c87" d="M202.614 198.056l21.958 1.296 17.999-43.845-19.583-11.087-17.35 2.952-15.119 16.271z"/><path fill="#b3879d" d="M192.319 217.135l13.319-1.801-8.424-47.66H186.56z"/><path fill="#95627c" d="M177.2 172.498l1.296 52.988 14.614-1.08-4.463-53.78-5.04-2.952z"/><path d="M222.988 144.42l-10.079 22.246s-4.535-5.04-5.039-5.831c-.504-.792-2.881-11.159-2.881-11.159l7.92-5.255h10.079z" fill="#8e6d7e"/><path fill="#784e62" d="M176.983 172.498l35.926-5.831v-13.535l-25.63 6.335z"/><path d="M102.83 26.566l16.126 40.604s6.912-20.59 6.912-21.67c0-1.008-3.456-13.175-3.456-13.175l-19.582-5.759z" fill="#c0b274"/><path fill="#c0b274" d="M151.282 30.022l-16.775 12.527-17.206-2.088-14.471-13.895 9.503-7.056 22.462 4.752-16.918-8.855L132.78 4.176l16.702 12.167z"/><path fill="#a18f63" d="M139.186 40.749L102.83 26.566l14.471 13.895z"/><path fill="#e2d085" d="M175.399 10.655L170.288 0 132.78 4.176l17.781 11.375 17.064 7.343z"/><path fill="#c0b274" d="M151.282 30.022L132.78 4.176l35.565 12.167-2.233 11.231z"/><path fill="#a18f63" d="M117.877 15.407l-5.544 4.103 23.83 15.191 16.127 7.488-3.24-11.447-11.375-16.487z"/><path fill="#c0b274" d="M151.282 30.022l24.117-19.367 22.967-5.256 10.583 5.4-6.552 3.96 18.143 3.384-9.503 15.55-11.231.864-10.511 3.456z"/><path fill="#e2d085" d="M172.736 19.51l36.213-8.711 11.591 7.344-37.293 8.423zM199.806 34.557l20.734-16.414 9.504 36.285-13.751-.936z"/><path fill="#eed0cb" d="M156.753 135.133l14.975 33.91 19.583-10.584 13.607-7.919 13.391-20.807 9.863-62.13-2.663-11.448-25.703-21.598z"/><path fill="#b3879d" d="M195.919 153.132l3.743-10.511 18.647-12.888 4.679 14.687-10.079 8.712z"/><path fill="#cea39f" d="M161.865 121.814l-6.695 14.687 16.558 32.542 23.902-31.894-24.045-.36z"/><path fill="#c0b274" d="M207.222 50.468l-.073 24.046 4.104.144 2.952-8.063 13.967 1.008-2.663-2.952z"/><path fill="#c0b274" d="M207.222 50.468l-7.416-15.911 30.238 19.871-8.711 10.583z"/><path fill="#a0905f" d="M228.172 67.603l1.872-13.175-22.822-3.96z"/><path fill="#ffede8" d="M117.301 40.461l2.807 73.866 21.599 21.958 29.878.504 23.901-23.974 4.32-78.258-31.461-18.214-17.063 13.679z"/><path fill="#95627c" d="M161.936 163.643l37.726-21.022 13.247 10.511-35.926 19.366z"/><path fill="#cea39f" d="M224.429 91.577h-12.024l10.512 9.215zM223.204 73.578l-7.344-.72.217 11.231z"/><path fill="#a3a3a3" d="M142.427 160.547l-26.854 19.367-8.639-2.376-1.656-8.424 25.774-23.686 8.783 3.312 2.808 4.608z"/><path fill="#c3c3c3" d="M120.54 165.659l19.295-16.919-4.896-3.96-3.887.648-19.151 17.639v6.767z"/><path fill="#8e8e8e" d="M120.54 165.442l-8.639-2.375-6.623 6.047 1.656 8.424 8.639 2.376 5.904-4.248zM142.427 160.547h6.119l-3.672-16.127-5.039 4.32z"/><path fill="#a3a3a3" d="M144.874 144.42l-5.039 4.32-8.783-3.312.936-6.551z"/><path fill="#6f7173" d="M170.001 256.155v10.007l15.91-.935v-9.719z"/><path fill="#d1a49e" d="M151.57 90.425l-5.759 1.008 8.135 7.991 9.143-8.135z"/><path d="M182.671 61.915c.217-.72 6.336 3.168 6.336 3.168l-15.119 10.295-10.799 15.911-8.999-4.104-8.279 4.248-8.423-16.343L124.5 64.867l14.399-3.024 8.711 5.4 4.464 2.448 2.088 2.52 4.392-2.448 3.383-3.167 10.8-4.68h9.934z" fill="#eed0ca"/><circle cx="140.123" cy="72.426" r="3.888" fill="#2b2b2b"/><circle cx="171.728" cy="72.21" r="3.888" fill="#2b2b2b"/><path fill="#fff4f2" d="M152.074 69.69l-1.296 13.391-4.967 8.352 7.918 2.88 9.36-3.024-4.248-8.424-.287-13.103z"/><path fill="#a29065" d="M148.331 64.867l-10.296-5.76-14.255 4.32.72 1.44 13.175-.936 9.935 3.312z"/><path fill="#9c8a5c" d="M161.433 64.147l11.519-5.543 16.847 4.391-.792 2.088-15.695-1.8-11.376 3.312z"/><path fill="#efd0cc" d="M122.557 73.074l8.783-.288-3.6 3.384z"/><path fill="#f0d3cd" d="M186.199 72.21l9.575.144-5.183 3.168z"/><path fill="#efcdca" d="M144.946 92.225l-10.079 10.223 3.6-9.863z"/><path fill="#efd1cc" d="M164.097 92.152l14.974 11.808-7.99-12.095z"/><path fill="#cfa09d" d="M140.698 106.12l31.102.36-4.463 2.951-23.399-.72z"/><path fill="#efd0cb" d="M128.892 101.08l2.664 9.575 3.599 8.495-8.135-8.279z"/><path fill="#eed1cc" d="M186.632 102.376l-3.24 7.271-5.039 9.792 8.998-7.848z"/></svg>