<svg xmlns="http://www.w3.org/2000/svg" viewBox="0 0 400 400"><path opacity=".1" fill="#2b2b2b" d="M104.469 380.146l90.937-10.426 101.804 12.716L199.467 400z"/><path fill="#734d61" d="M242.878 331.791l-4.714 39.009H224.65l-10.605-7.75-5.33-21.889zM196.458 346.395l-1.901 19.083-13.266 1.123-9.89-9.092-9.923-28.959z"/><path fill="#795d88" d="M214.045 363.05l-10.283 22.544 18.558 2.995 18.557-2.995-2.713-14.794z"/><path fill="#594265" d="M203.762 385.594h37.114v5.988h-37.114z"/><path fill="#795d88" d="M171.401 357.509l-32.469 19.229 28.749 2.906 26.876-2.906v-11.26z"/><path fill="#594265" d="M138.932 376.738h55.625v5.812h-55.625z"/><path fill="#795d88" d="M270.644 163.456l15.248 62.928-10.32 11.517-20.257-14.086-1.26-12.981z"/><path fill="#594265" d="M255.315 223.815l30.577 2.569-39.614 40.132-12.136-1.757.129-25.392 5.198-6.569z"/><path fill="#795d88" d="M132.021 178.425l-2.191 49.368 25.091 5.04-5.774-36.617z"/><path fill="#594265" d="M129.83 227.793l29.452 37.45 7.861-22.41-14.116-14.84z"/><path fill="#9075a0" d="M162.061 148.997l-25.508 16.072 28.383 85.346-16.881 51.634-1.492 12.722 49.895 31.624 68.677-28.32-2.368-15.733-21.698-53.852 28.058-88.556-42.474-15.939z"/><path fill="#594265" d="M146.563 314.771l49.895 19.383 68.677-16.079 1.717 11.412-70.394 16.908-51.031-21.928z"/><path fill="#35291b" d="M102.79 47.12l12.933 19.493 2.852-26.47-6.3-10.72z"/><path fill="#feeee9" d="M113.12 37.027l5.136 58.389 20.152 45.756 25.432-.948 32.605-2.448 23.075-4.886 10.597-68.672-20.682-6.423-7.605-25-35.738-3.923-42.859-5.365z"/><path fill="#efd0cb" d="M191.725 31.686l2.2 99.732-7.24 5.241 6.942 8.017 30.187-9.483 2.978-33.532-2.326-10.678 3.693-4.717 1.958-22.048-20.682-6.423-7.605-25z"/><path fill="#cea39f" d="M123.67 26.692l38.628 12.433 14.075 4.188 15.415-8.73-33.956-6.523z"/><path fill="#efd0cb" d="M171.877 63.505l-22.04 29.335-30.08-21.968 4.299-1.737 14.404-.558 6.248-1.241 15.761-8.487z"/><path fill="#fff5f3" d="M144.708 67.336l5.129 25.504-9.291 2.085-2.087-26.348z"/><path fill="#cea39f" d="M149.837 92.84l-3.137 7.417-6.154-5.332zM137.789 115.564l13.624-1.248 19.763-9.679 1.26 3.091-20.702 9.94-13.707.547z"/><path fill="#efd0cb" d="M164.863 97.045l7.573 10.683 1.4-6.129zM160.029 75.158l9.155 13.491 2.031-6.161zM132.432 79.592l-2.311 15.32-3.779-3.231z"/><path fill="#74665b" d="M147.451 102.572l19.897 1.901-16.511 7.28zM147.451 102.572l-.14 9.75-13.673 1.24zM146.046 120.709l11.162-2.537-3.651 10.825z"/><path d="M164.556 69.267c-.253 1.676-1.817 2.83-3.493 2.577-1.676-.253-2.83-1.817-2.577-3.493.253-1.676 1.817-2.83 3.493-2.577 1.676.252 2.83 1.816 2.577 3.493zM132.972 75.511c-.253 1.676-1.817 2.83-3.493 2.577-1.676-.253-2.83-1.817-2.577-3.493.253-1.676 1.817-2.83 3.493-2.577 1.676.253 2.83 1.817 2.577 3.493z" fill="#2b2b2b"/><path fill="#74665b" d="M144.708 67.336l.493-3.268 15.2-9.633 10.832 6.037.644 3.033-11.251-3.715zM138.459 68.577l-.941-2.326-16.109-.246-1.652 4.867z"/><path fill="#46382d" d="M123.67 26.692l-3.919-2.609 5.028-4.746L149.094 4.61 183 0l41.44 19.142-73.708 3.559z"/><path fill="#5f5044" d="M124.779 19.337L183 0l-34.756 1.729z"/><path fill="#9ca0a1" d="M191.788 34.583l14.637 17.621 10.296 4.122 14.428-2.595.79-11.623-19.734-8.757z"/><path fill="#46382d" d="M206.425 52.204l-.937 23.238 6.459.974 3.71-13.646 14.46 1.448 1.032-10.487z"/><path fill="#35291b" d="M123.67 26.692l22.309-8.011 16.11 13.623z"/><path fill="#554e4a" d="M145.979 18.681l16.319 20.444 29.49-4.542 40.151 7.525-7.499-22.966z"/><path fill="#5f5044" d="M123.67 26.692L102.79 47.12l8.568-27.606 13.421-.177z"/><path fill="#cea39f" d="M228.159 86.265l-13.893-1.503 12.526 16.899zM218.487 81.103l1.992-13.202 7.4 1.117zM163.84 140.224l42.27-11.739-11.403 14.247-10.367.279z"/><path fill="#795d88" d="M163.84 140.224l-1.779 8.773 30.181 6.622 4.216-6.622-1.408-6.404z"/><path fill="#594265" d="M195.05 142.593l28.824-8.079 2.779 9.481-34.411 11.624zM192.242 155.619l-.89 90.736 5.106 87.799-5.106-.273-3.554-87.526v-91.711z"/><path fill="#d1a1b8" d="M200.025 164.513v5.9l-18.91.442v-6.342zM181.731 182.566l16.873.925v6.868l-16.873-1.1zM198.319 200.663v6.472l-16.073-.66v-5.812z"/><path fill="#96637c" d="M226.653 143.995l-36.93 96.725.065 7.837 16.117 67.28 21.761-5.164 6.735-6.108 11.687 1.735 16.679-3.958-11.537-53.853-2.767-3.942 1.611-3.74 29.006-89.944-17.574-2.302-11.788 4.089-5.308-6.329z"/><path fill="#96637c" d="M162.061 148.997l27.662 91.723.065 7.837-10.528 64.814-12.828-4.654-4.267-5.913-6.09 2.155-8.02-2.91 8.952-53.56 3.112-3.942-2.18-4.004-33.293-80.961 11.908-3.369 7.529 4.112 5.065-7.675z"/><path fill="#734d61" d="M244.409 146.321l-32.135 94.222 15.392 70.13 18.422-4.372-16.524-65.758 31.942-91.982zM149.147 152.65l27.312 87.893-10.03 68.173-10.36-3.759 8.768-64.353-28.284-84.391z"/><path fill="#d1a1b8" d="M250.074 240.807l-50.699-.145-9.485.712-7.399-.761-24.552-.07-.932 7.947h25.366l7.611-1.09 9.482 1.09h51.764z"/><path fill="#795d88" d="M199.375 240.662l.092 7.828h-17.093l.117-7.877z"/></svg>