<svg xmlns="http://www.w3.org/2000/svg" viewBox="0 0 900 350"><path opacity=".1" d="M769.689 235.223l-35.966-5.498-7.473-4.413 6.417-4.979 21.642-3.043 4.105-2.623v-4.226l-21.081 1.565-36.201-5.044-5.715-6.275L738.75 196l27.872 12.694zM787.656 307.255l-52.949-3.878-22.21-15.237 51.003-5.42zM659 284.364l-24.74-1.644-12.565-7.305 13.616-8.167zM581.089 306.25l-40.225-5.693-18.364 1.832-28.394-13.355 19.394-8.644 38.486 5.943zM177.864 240.75l-18.333 1.718-22.947-.859-6.879-8.637-11.955 1.134-29.383-6.728L76 235.992l-44.25-4.685-6.75-6.654-25-12.458 59.405-7.913 94.223-3.217zM849.5 222.05h-18.244l-12.022-2.645 16.349-6.229z"/><path fill="#dddddc" d="M86.311 186.16l4.439-14.789-78.417 4.471 24.334 19.344z"/><path fill="#848484" d="M12.333 175.842L0 212.195l32.5 8.981 5.567-17.861-1.4-11.129z"/><path fill="#b2b2b2" d="M86.311 186.16l-4.308 34.415-49.503.601 4.167-28.99z"/><path fill="#dddddc" d="M674 160.652l46.333 7.55 48.355-6.145-5.339-11.694-85.682 3.407z"/><path fill="#848484" d="M720.333 166.202l.092 13.782L712 205.696l-46.333-5.589L674 160.652z"/><path fill="#b2b2b2" d="M712 205.696l8.333-.561 48.355-29.097v-13.981l-48.355 4.145z"/><path fill="#dddddc" d="M766 116.25l18.667-.685 21 3.185-26 5.696z"/><path fill="#848484" d="M766 116.25l-11 90.712 27.333 7.705.043-67.696-2.709-24.525z"/><path fill="#b2b2b2" d="M779.667 122.446l26-3.696L814 210.441l-31.667 4.226z"/><path fill="#dddddc" d="M809.123 156.779L863.5 169.31l-52.846 6.315-13.821-12.92z"/><path fill="#848484" d="M796.833 162.705l-3.326 50.471 12.16 7.157 5.364-31.51-.377-15.198z"/><path fill="#b2b2b2" d="M810.654 173.625l-4.987 46.708 59.833-4.095-2-46.928z"/><path fill="#dddddc" d="M864.547 193.877l-.373-8.743L890 200.107l-40.5 11.348-16-9.492z"/><path fill="#848484" d="M833.5 201.963l-2.244 16.619 18.244 3.468 2-6.55-2-6.045z"/><path fill="#b2b2b2" d="M890 200.107l10 16.71-50.5 5.233v-12.595z"/><path fill="#dddddc" d="M728.833 176.038l30.142-1.858L766 186.672l-28.667.462z"/><path fill="#b2b2b2" d="M766 186.672l2.688 24.312-31.355 1.022-2-12.82 2-14.052z"/><path fill="#848484" d="M728.833 176.038l-8.5 29.097 17 6.871v-26.872z"/><path fill="#dddddc" d="M757.5 203.377l24.331-6.077 37.403 22.105-42.734 2z"/><path fill="#848484" d="M757.5 203.377l-5.489 23.937 17.678 7.909 7.786-9.239-.975-6.579z"/><path fill="#b2b2b2" d="M819.234 219.405l3.767 12.641-53.312 3.177 6.811-15.818z"/><path fill="#dddddc" d="M306 149.036l-81.793-2.676 22.806 19.345 62.847-6.617z"/><path fill="#848484" d="M247.013 162.705l1.598 18.624-5.111 41.027-19.498-4.309.205-71.687z"/><path fill="#b2b2b2" d="M247.013 162.705l62.847-3.617-3.86 53.289-62.5 9.979z"/><path fill="#dddddc" d="M171.333 166.202l52.874-.942L234.5 175l-50.526 13.672z"/><path fill="#848484" d="M171.333 166.202l-3 23.459 17.148 15.474 2.249-9.197-3.756-9.266z"/><path fill="#a3a3a3" d="M234.5 175l-10.498 43.047-51.365 1.001 5.395-33.914z"/><path fill="#dddddc" d="M88.367 159.14l51.415-11.429 47.273 19.193L132 181.966z"/><path fill="#848484" d="M88.367 159.14l-5.069 42.823 33.202 26.47 18.08-40.449-2.58-17.022z"/><path fill="#b2b2b2" d="M132 170.962l55.055-4.058-15.419 57.147-55.136 4.382z"/><path fill="#dddddc" d="M64.5 206.391l18.798-4.428 27.339 6.322-36.304 14.891z"/><path fill="#848484" d="M64.5 206.391l-15.75 24.325L76 235.992l1.333-13.995-3-4.824z"/><path fill="#b2b2b2" d="M110.637 208.285l7.113 25.821L76 235.992l-1.667-18.819z"/><path fill="#dddddc" d="M325.015 127.25l-15.015 5-21.298-12.093 36.313-.907z"/><path fill="#b2b2b2" d="M310 129.25l.84 19.786 6.938 12.765 7.237 9.021V127.25z"/><path fill="#848484" d="M288.702 120.157l4.745 50.725 24.331-9.081L310 129.25z"/><path fill="#b2b2b2" d="M296.783 173.964l-3.336 57.343 51.053-3.874-10.743-41.305-8.742-11.948z"/><path fill="#848484" d="M274.555 170.822l2.125 56.611 16.767 3.874 6.338-54.341-5.222-5.248z"/><path fill="#dddddc" d="M325.015 160.291l-50.46 10.531 25.23 6.144 25.23-2.786zM144.477 205.135l34.136-4.07 32.637 4.631-36.238 11.121z"/><path fill="#848484" d="M144.477 205.135l-5.902 28.115 39.289 7.5 2.636-13.25-5.488-15.599z"/><path fill="#b2b2b2" d="M211.25 205.696l8 29.304-41.386 5.75-2.852-28.849z"/><g><path fill="#96637c" d="M676.5 75.387l-9.333-5.637 1.583-17.125 3.458-10.587 8.417-2.157z"/><path fill="#734d60" d="M672.208 42.038l-5.041 27.712L656.083 71l4-16.75 5.584-12.917z"/><path fill="#96637c" d="M665.667 41.333L656.083 71 650 57.333l2.5-8.833 4.417-5.333z"/><path fill="#d1a1b8" d="M657.883 37.949l29.617-1.355-.667 4.364-5.166 1.85-2.358-1.294-22.392 1.653-.542-1.945z"/><path fill="#b3889d" d="M686.833 40.958l-8.166 35.709-2.167-1.28 2.81-33.873z"/><path fill="#96637c" d="M598.667 14.333L613 26l13.5-3.442 10.882-4.811-1.054-6.997z"/><path fill="#734d60" d="M637.382 17.747L641 22.333v3.634l-9.94 7.312-13.035 5.685L617.5 33l-4.5-7z"/><path fill="#96637c" d="M641 25.967l2.5 3.408.595 3.625-7.72 7.958L627 46.25l-8.975-7.286z"/><path fill="#734d60" d="M644.095 33l2.713 2.125v4.756l-6.387 10.28L627 46.25z"/><path fill="#d1a1b8" d="M649.385 36.251l-4.649-12.918-5.403-16.166L635 9.625v2.708l11.273 25.616z"/><path fill="#b3889d" d="M635 12.333l-36.333 2 .822-2 39.844-5.166z"/><path fill="#785d88" d="M656.083 47.667L650 57.333l-9.579-7.172 3.079-7.353 6.798.625z"/><path fill="#9075a0" d="M657.883 37.949l-1.8 9.718-12.583-4.859 4.583-8.032z"/><path fill="#96637c" d="M663.667 27L670 26l-3.5 8.25-3.716-4.39zM653.667 22.333l-3.325-6.208-5.606 7.208h5.389z"/><path fill="#b3889d" d="M644.736 23.333l1.294 4.425 2.222 2.117-.169 4.901.531 1.816 1.728 3.783 4.271-1.022 3.27-1.404 2.93-2.199 2.698-.217 2.989-1.283-2.833-7.25-10-4.667z"/><path fill="#785d88" d="M663.51 35.533L660 29l-5.388 1.833L652.5 26l-6.469 1.759 2.052 7.019 5.75-1.778 4.05 4.949z"/><path fill="#96637c" d="M648.614 36.594l5.998 2.759-4.612 1.98z"/><path fill="#f5f5f5" d="M648.919 29.333l1.998-.666.849 2.416H650zM656.917 33l2.583-1.025.583 2.608h-2.25z"/></g><g><path fill="#dddddc" d="M698.333 213.176l34.334 7.157-11.334 28.932-101.666-2-1.5-17.831z"/><path fill="#a3a3a3" d="M732.667 220.333l4.666 41.491L723.667 266l-3.334-8.602v-10.133z"/><path fill="#737373" d="M720.333 247.265l-101.304-7.586 19.231 19.103L723.667 266z"/><path fill="#dddddc" d="M678.565 173.372L695.333 175l12 11.672-30.971 6.822-20.088 1.128L650 180.333z"/><path fill="#a3a3a3" d="M707.333 186.672L701 229.434l-53 10.245 8.274-45.057z"/><path fill="#dddddc" d="M648.999 107.842l32.334 6.991-14.66 3.555-12.061-.721z"/><path fill="#a3a3a3" d="M681.333 114.833L678 180.322l-8.5.719-14.888-63.374z"/><path fill="#dddddc" d="M697.667 252.912l9.295 11.676-45.962 7.66-26.74-15.466 19.407-3.424z"/><path fill="#a3a3a3" d="M706.962 264.588L710 281.737l-51 2.627-.957-7.359 2.957-6.757z"/><path fill="#737373" d="M659 284.364l-26-10.479 1.26-17.103L661 270.248z"/></g><g><path opacity=".14" d="M695.417 230.379L712 237.106l15.912-6.39-21.933-5.404z"/><path fill="#785d88" d="M713.125 171.688l-2.792-28.213L716 147zM697.667 117.25l24.333-5 21.667 8.196L723.5 129z"/><path fill="#9075a0" d="M714.415 202.032l9.085-56.557-3.464-1.296L716 147l-8.667 39.672 3 15.024z"/><path fill="#785d88" d="M707.333 186.672l-11.916 43.707 8.604.337 10.394-28.684z"/><path fill="#96637c" d="M716 147l1.577-12.937 9.245-4.058 7.511-1.255-10.833 16.725z"/><path fill="#734d60" d="M719.333 135.25l-6.323-4.275-8.094-.912-2.916 14L716 147z"/><path fill="#b197c6" d="M719.333 135.25l-.459-5.64L723.5 126l20.167-5.554-9.334 8.304z"/><path fill="#9075a0" d="M723.5 126l-25.833-8.75 7.249 12.813 14.417 5.187z"/><path fill="#d1a1b8" d="M723.5 126l-5.833-10.845 13.603-14.124 5.397 12.485z"/><path fill="#b3889d" d="M723.5 126l-2.833-8.845-4.397-6.749-7.735-3.593 3.59 15.25z"/><path fill="#e5b3cd" d="M720.667 117.155l10.603-16.124-5.986-9.146-5.951-3.111-10.798 18.039z"/><path fill="#b3889d" d="M731.27 101.031l5.397-7.368-11.5-16.996-6.011 3.248.177 8.859z"/><path fill="#d1a1b8" d="M719.333 88.774l-7.208-7.833L720.667 62l4.5 14.667z"/></g><g><path fill="#a688ba" d="M435.321 35L439 15.25l43.486 27.5 42.764-27.5L530 36.667l-48.121 19.15z"/><path fill="#785d88" d="M440.5 33.376l2.25-9.626 8.517 6.25-7.249 4.25zM511.814 30.725l10.019-6.975L523 34.25h-8z"/><path fill="#9075a0" d="M431.472 56.917L435.321 35l45.71-14.333 48.969 16 3.5 16-53.487 4.25z"/><path fill="#d1a1b8" d="M444.018 56.394l2.732-12.769 6.596-3.612 3.261-.826 12.288-3.113 6.855.551L481.031 33l13.076 3.074L500 40.5l7.144-1.36 11.103 2.61 1.492 11.49-37.253 3.677z"/><path fill="#96637c" d="M507.144 39.139l1.354 14.569-13.093 1.546-1.299-19.18zM481.031 33l.848 22.817-13.873-.422.889-19.321zM456.607 39.187V56.87l-12.589-.476L445.5 42z"/><path fill="#b197c6" d="M450 217.29l41.986 4.76L546 219.405l5.986-26.361v-26.36l-60-1.424-65.486 6.205 4.328 22.285z"/><path fill="#785d88" d="M641.667 249L633 273.885l-38.333 5.186 39-35.295z"/><path fill="#785d88" d="M657.333 214.667L654 253l-57.058 19.885z"/><path fill="#a688ba" d="M431.472 56.917l102.028-4.25 16 59.252 2.486 54.765-125.486 4.781-7-63.901z"/><path fill="#9075a0" d="M358.986 30l72.486 26.917-4.972 114.548-41.485 13.14-42.515 5.837 3-82.878z"/><path fill="#785d88" d="M533.5 52.667L617.5 33l23 75.504 12 76.63-53.25-1.338-47.264-17.112z"/><path fill="#a688ba" d="M617.5 33L650 57.333l19.5 123.708-6 2.755-11 1.338z"/><path fill="#785d88" d="M358.986 30l-33.971 10.319-8.508 142.814 17.25 9.911 8.743-2.602z"/><path fill="#bca7d3" d="M342.5 190.442l84-18.977L450 217.29l-69.5 27.954z"/><path fill="#a688ba" d="M551.986 166.684L546 219.405l47 14.701 59.5-48.972zM450 217.29l3.5 31.71-.514 27.327-71.027 9.741L375 268.661l5.5-23.417z"/><path fill="#785d88" d="M546 219.405l-4.5 31.517 4.5 32.072 43.5 6.401 7.442-30.146L593 234.106z"/><path fill="#9075a0" d="M652.5 185.134l8.5 10.71 5.5 24.489-77 69.062 3.5-55.289z"/><path fill="#b69fcc" d="M669.5 181.041l-3 39.292-14-35.199z"/><path fill="#785d88" d="M380.5 245.244l1.459 40.824L328.5 222.05l5-21.655 9-9.953z"/><path fill="#9075a0" d="M316.507 183.133l25.993 7.309-14 31.608zM450 217.29l96 2.115v53.583l-93.014 3.339z"/><path fill="#efefef" d="M430.828 71.75l105.442-2 9.73 41.772 4.134 43.735-123.096 3.809-4.052-41.399z"/><path fill="#fcfcfc" d="M430.828 71.75L371.472 48.5l-12.486 120.81 68.052-10.244z"/><path fill="#dddddc" d="M536.27 69.75l69.158-19.25L628 162.057l-77.866-6.8z"/><path fill="#96637c" d="M480.013 275.357v-45.488l33.487-.435v44.721z"/><path fill="#d1a1b8" d="M484.75 237.265h23.75V243h-23.75zM484.75 247.265h23.75V253h-23.75zM484.75 257.265h23.75V263h-23.75zM560.333 178.347l36.609 7.787-18.304 13.052-22.971-6.142z"/><path fill="#96637c" d="M555.667 193.044v5.142l20.638 5.914 2.333-5.914z"/><path fill="#b3889d" d="M567.152 201.477l29.79-21.144 22.725 4.801L585 208.911z"/><path fill="#734d60" d="M567.152 201.477l-2.137 9.507 20.318 8.421 1.917-7.155-2.25-5.339z"/><path fill="#96637c" d="M619.667 185.134l7.471 8.488-41.805 25.783-.333-12.494z"/><path fill="#d1a1b8" d="M437.024 191.988l-34.087 6.874-34.687 9.493 6.75 11.05 30.73-9.555 33.96-12.664z"/><path fill="#b3889d" d="M437.024 191.988l54.964-2.575 57.491-.647-.956 8.42-57.523 1-51.31-1z"/><path fill="#b3889d" d="M547.413 206.962l-103.395-1.337-4.328-8.439h108.833zM549.479 188.766l-112.455 3.222-4.69-9.146 118.102-2.509z"/><path fill="#d1a1b8" d="M432.334 182.842l-70.084 16.344 6 9.169 68.774-16.367zM439.69 197.186l4.328 8.439L381 229.434l-6-10.029z"/><path fill="#96637c" d="M457.75 197.186l1.542 8.637 16.211.209v-8.846zM486.56 197.186v8.989l16.688.216 1.002-9.205zM517.25 197.186l-1.001 9.373 14.001.181 2-9.554zM456.755 191.422l-1.508-9.068 20.256-.432v8.963zM486.56 190.569v-8.882l17.69-.377v8.752zM518.247 189.661l1.247-8.675 16.776-.357-2.77 8.595zM456.755 191.422l-19.731.566 2.666 5.198h18.06z"/><path fill="#96637c" d="M475.503 190.885l11.057-.316v6.617h-11.057zM504.25 190.062l13.997-.401-.997 7.525h-13zM533.5 189.224l15.979-.458-.956 8.42H532.25z"/><path fill="#a06e85" d="M426.5 194.492l-4.808-9.169-13.451 3.137 6.461 8.84zM397.859 201.308l-6.097-9.005-14.128 3.295 7.246 8.799zM389.962 214.266l4.945 9.914 14.602-5.517-5.539-9.208zM417.37 204.852l12.977-4.457 4.974 8.516-12.335 4.66zM384.88 204.397l5.082 9.869L375 219.405l-6.75-11.05zM397.859 201.308l16.843-4.008 2.668 7.552-13.4 4.603z"/><path fill="#9075a0" d="M437.5 80.5l41.5 1.25 2.013 47.25-43.513 1z"/><path fill="#f5f5f5" d="M441.75 83.833l34.192 1.667 1.561 39.25-5.34.358-12.05.059-12.056 1.559-7.807.524z"/><path fill="#b3889d" d="M438.5 139.25h6.5l-.982 11.75H438.5zM447.387 139.25h6.113V150l-6.113 1zM456.75 139.25h7.625L463 149.75h-6.25zM467.006 139.25h6.936v10.5h-6.936z"/><path fill="#96637c" d="M486.56 105.375l11.44-.125v11h-11.44zM502.302 105.375H514.5v10.875h-12.198zM518.407 105.375l11.093-.125v11h-11.093z"/><path fill="#9075a0" d="M486.56 125.25l2.683-1.75 1.991 4.5 4.171-6.75 1.095 1.375-5.266 8.25zM487.625 136.25l2.625-2.125.984 3.125 4.171-4.5 1.095 1.125-5.266 6.5zM488.25 145.875l2.25-2 1.78 3.375 4.22-4.625L498 144l-6.47 6.375z"/><path fill="none" stroke="#a3a2a2" stroke-miterlimit="10" d="M502.302 123.063H531M502.302 127.063H516M502.302 134.063H531M502.302 138.063H516M502.302 144.063H531M502.302 148.063H516M487.625 83h36.329M487.625 88h26.329M487.625 93h16.329"/><path fill="#96637c" d="M377.634 66l10.112 3.75-.76 13.25L375 78.667zM375 95.333l11.986 2.423-2.319 13.057-11-1.908zM372 124.25l10.5 1.813-1.127 11.137H370z"/><path fill="none" stroke="#a3a2a2" stroke-miterlimit="10" d="M394.907 75.667L419.5 83M393.907 80.667l15.334 4.274M393.58 103.607l25.092 5.38M392.975 108.67l15.622 3.057M391.185 131.319l25.595 1.858M391.287 136.417l15.894.868"/><path fill="#d1a1b8" d="M369 148.824l50.5-3.1v8.377l-51.25 6.19z"/><path fill="none" stroke="#a3a2a2" stroke-miterlimit="10" d="M560.761 80.5l8.46 62.125L593 141.104M566.719 124.25l23.69-2M564.274 107.297l26.135-3.682M562.464 93l23.786-4"/><path fill="#fbd9c6" d="M447.429 94.833l1.837 12.464 1.163 11.453 4.854-.24 4.55.24 4.542-.691 6.75-.334-2.957-26.412-9.697 4.322z"/><path fill="#e9bca6" d="M452.085 101.838l4.522-.73 1.393.559 1.594-1.042 5.656-1.046-4.881 8.764-2.844.87z"/><path fill="#737373" d="M448.064 95.452l1.202 11.845-2.148-2.88-1.822-11.921 12.094-4.466 13.735.867v12.941l-1.279 4.459-2.618-13.801-8.757 4.139z"/><path fill="#737373" d="M452.085 101.838l3.665-2.216.857 1.486zM459.594 100.625v-2.093l5.656 1.047z"/><path fill="#fde9e0" d="M459.594 100.625l.775 7.718-2.844.87-.918-8.105z"/><path fill="#c1907c" d="M460.369 108.343l-1.702 2.47-1.142-1.6zM453.167 112.5l6.427.75 6.906-2v1l-6.906 2.583-6.427-1z"/><path fill="#e9bca6" d="M447.118 104.417h-1.822l1.517 5.458 2.75.346-.297-2.924zM471.125 101.838h2l-.437 5.481-2.613 1.024-.229-2.046z"/><path fill="#96637c" d="M455.283 118.51l-7.219 8.323 24.099-1.725-7.788-7.049-5.098 1.024z"/><path fill="#c2917d" d="M455.283 118.51l4.311 5.74 4.781-6.191z"/><path fill="#b3889d" d="M548.523 77.667l23.144-5.334 1.333 7-22.866 5.608zM581.33 85.5l16.825-3.804 1.334 7-16.549 4.078zM584.447 101.342l17.02-2.81.921 7.066-16.76 3.1zM588.121 119.418l17.161-1.751.482 7.109-16.919 2.057zM589.769 137.733l17.204-1.255.276 7.121-16.971 1.567z"/><circle cx="462.813" cy="103.625" r=".938" fill="#2b2b2b"/><circle cx="454.346" cy="104.563" r=".938" fill="#2b2b2b"/><path fill="#a06e85" d="M426.5 194.492l10.524-2.504 2.666 5.198-9.343 3.209z"/></g><g><path fill="#dddddc" d="M450.788 235.5l14.462 8.276L451.267 255l-18.933-11.224z"/><path fill="#737373" d="M432.334 243.776l-1.506 12.136 13.19 25.525 11.265-11.291L451.267 253z"/><path fill="#a3a3a3" d="M465.25 243.776l14.763 31.581-35.605 21.494-4.718-13.99 7.296-11.537L451.267 253z"/><path fill="#dddddc" d="M430.828 255.912l16.158 15.412-20.486 15.723-73.644-11.928 6.13-17.721 22.351 11.263z"/><path fill="#919191" d="M446.986 271.324l-2.578 25.527-86.038-5.052-5.514-16.68z"/><path fill="#dddddc" d="M527.259 271.123l-13.759 2.762 11 18.466 44.193-6.018-7.932-8.333-19.897 2.364zM546 240.132l10.75 10-15.25 8.65-11.25-18.449z"/><path fill="#737373" d="M530.25 240.333l-2.991 30.79 13.605 13.241 2.406-17.619-1.77-9.963z"/><path fill="#a3a3a3" d="M556.75 250.132L560.761 278l-19.897 6.364.636-27.582z"/><path fill="#737373" d="M513.5 273.885l-7.003 14.53 16.003 9.835 3.912-4.396-.912-2.503z"/><path fill="#a3a3a3" d="M525.5 291.351l43.193-5.018 1.807 9.64-48 2.277z"/><path fill="#dddddc" d="M555.667 271.818l21.675-15.906L619.029 263l-36.894 24.364z"/><path fill="#737373" d="M555.667 271.818l-3.681 25.033 29.103 9.399 3.658-13.769-2.612-8.117z"/><path fill="#a3a3a3" d="M619.029 263l6.304 29.351-44.244 13.899 1.046-21.886z"/><path fill="#dddddc" d="M755.656 269.429l36-6.424 47.667 8-50.334 18.072z"/><path fill="#737373" d="M755.656 269.429l-13 22.663 45 15.163 6.667-11.886-5.334-8.293z"/><path fill="#a3a3a3" d="M839.323 271.005l6.166 26.034-57.833 10.216 1.333-20.179z"/></g><g><path fill="#5d5d5d" d="M184.685 64.655l-13.333 16.333-5.319 31.341 18.652-14.674z"/><path fill="#828282" d="M182.019 97.655l2.666-33 37.445 16.012 15.753 7.325 46.636-25.333 11.935 24.333-55.552 13.25z"/><path fill="#5e5e5e" d="M191.929 93.457l.528-16.802 21.839 7.329-10.641 6.456zM267.478 80.808l12.946-6.482 5.515 10.422h-13.175z"/><path opacity=".1" d="M169.345 329.326l103.984-11.334 63.244-24.44-49.054-26.157-73.516-1.331L66 298.25z"/><path fill="#515151" d="M203.655 235.992l-10.751 36.256 20.479 30.08zM182.019 97.655l-15.986 14.674 37.11 98.989 4.896 3.738 5.646-2.064-6.866-48.369z"/><path fill="#6d6d6d" d="M182.019 97.655l55.083-23.329 59.352 12.666 6.685 112.405-3.354 5v11.955l.022 17.974-52.168 12.027-17.977-1.111-15.977-32.25z"/><path fill="#5e5e5e" d="M199.019 103.988l38.864-15.996 44.653 9.5 6.845 79.852 4.471 10.543-2.333 14.395-63.394 9.272-21.306-74.636z"/><path opacity=".14" d="M183.232 82.645l8.225-9.99 10.895 7.297 9.47-6.005-22.137-7.601-16 8.15-1.333 4.492z"/><path fill="#96637c" d="M196.033 32.655l7.986-13 2.854 17.666-5.188-1z"/><path fill="#b3889d" d="M169.769 37.321l-12.584-10.166 5.834 19.5 5.166-3.834z"/><path fill="#734d60" d="M177.1 73.947l11.881-7.242 13.936 5.746.738-22.713-16.6 12.105-17.286-6.188z"/><path fill="#96637c" d="M187.055 61.843l-.203-14.188-3.847-10.334h-13.236l-6.75 9.334 8.333 34.333 11.88 1.657-7.873-22.662z"/><path fill="#b3889d" d="M183.005 37.321l13.028-4.666 10.84 4.666 4.949 39.346-9.47 3.285-1.268-24.297-14.029 6.188z"/><path fill="#734d60" d="M174.352 47.821l7.5 7.834-7.667-1.334zM191.352 53.821l5.833-9.5 2 6.667z"/><path fill="#d1a1b8" d="M191.929 59.693l-5.896-4.038v3.094l1.022 3.094z"/><path fill="#b3889d" d="M186.033 55.655l-3.535 5.463 4.557.725z"/><path fill="#666" d="M203.143 211.318l10.542 1.674 12.203 30.25 2.237 26.417-14.742 32.669-17.864-70.091z"/><path fill="#515151" d="M291.519 202.282l33.496 18.894L336.573 255v38.552l-23.571-8.219z"/><path fill="#828282" d="M303.139 199.397l49.532 21.904-22.318 9.415-14.179-3.639-24.655-24.795z"/><path fill="#737373" d="M316.174 227.077l14.179 28.576L342.5 255l16.486-3.321-6.315-30.378z"/><path fill="#5e5e5e" d="M358.986 251.679l-.616 40.12-21.797 1.753-6.22-37.899z"/><path fill="#737373" d="M313.002 285.333l-68.394 6.017-3.109-29.593 74.104-8.847z"/><path fill="#828282" d="M231.499 241.68l68.308-7.354 15.796 18.584L245.269 263z"/><path fill="#828282" d="M213.685 212.992l2.313 23 20.818 9.25 8.823-11.136-17.514-22.552z"/><path fill="#737373" d="M215.998 235.992l-2.001 32.386 24.54 2.916 14.65-5.096-7.548-32.092z"/><path fill="#5e5e5e" d="M252.201 262.006l-5.722 39.284-33.096 1.038.614-33.95z"/></g><g><path opacity=".14" d="M297.557 208.355l-1.263 12.387-17.262 9.845-40.148-7.364-6.092 1.43-8.402 3.839-9.739-6.569-.966-8.931-18.558-67.595 38.735-2.128.638 37.064 48.863 23.949z"/><path fill="#95647d" d="M267.346 180.742h8.856l16.13 12.302 4.118 5.142 1.107 10.169-17.788-4.944-5.44-5.284z"/><path fill="#f5cab3" d="M274.329 172.163l7.075 8.579 7.115-2.25-1.5-6.365z"/><path fill="#b07593" d="M283.363 204.282l-31.966 5.246-14.628 3.464 12.87 24.923 15.818-.423 13.575-6.905z"/><path fill="#95647d" d="M247.027 240.008l32.005-4.016 20.987 9.25-20.078 12.5-27.74 4.264z"/><path fill="#594266" d="M219.333 188.805l-2.745 4.203-8.549-.579 6.612-8.799z"/><path fill="#795d88" d="M214.651 183.63l1.938 9.378 18.463 1.137 6.85-7.576-13.777-6.902z"/><path fill="#9076a0" d="M214.651 183.63l18.607 2.006h4.559l1.067-3.733-28.989-21.286z"/><path fill="#594266" d="M209.895 160.617l28.989 21.286-14.047-35.854z"/><path fill="#ffe6d6" d="M265.527 262.159l4.478 26.957 8.19-.721 4.491-17.52L281.5 264z"/><path fill="#d1a2b9" d="M238.884 181.903l28.462-1.161 16.017 23.54-46.594 8.71-3.511-27.356z"/><path fill="#594266" d="M271.125 113.408l14.035 14.688-6.172 28.206z"/><path fill="#ffe6d6" d="M271.125 113.408l3.108 15.04 3.745 5.527-.801 8.72 5.58 27.003-19.994 5.847-8.742 11.024-12.119-3-21.866-30.804 24.548-22.336z"/><path fill="#594266" d="M206.819 136.918l15.688-29.685 39.352-9.789-27.644 20.548z"/><path fill="#f5cab3" d="M238.884 138.065l10.048 41.267 4.836 3.504 1.829 7.292-16.713-8.225-18.848-29.138z"/><path fill="#c4937d" d="M245.28 180.086l17.483-4.541-7.166 14.583z"/><path fill="#fff1e8" d="M267.346 153.676l-5.849 1.354-5.271-21.678 5.849-1.353z"/><path fill="#95647d" d="M244.437 148.74l-2.118-8.653 14.586-3.96-.679-2.775-17.342 4.713 3.478 14.187 17.369-4.608-.68-2.771zM276.994 127.794l-14.997 4.075.672 2.747 12.145-3.258 1.793 8.691-11.86 3.22.68 2.774 14.514-3.956z"/><path fill="#494749" d="M256.226 133.352l-6.321 1.718h-6.853l3.514-2.707zM262.075 131.999l4.794-4.833 6.896-.983-8.568-1.99z"/><path fill="#594266" d="M225.927 145.26l5.953 9.477 1.982-1.266-.297-11.222z"/><path fill="#c1907c" d="M267.346 153.676l-2.085 2.499-3.764-1.145z"/><path fill="#ecebeb" d="M116.544 310.846l11.035 2.34"/><path fill="#ffe6d6" d="M234.215 158.457l-7.521 4.574-6.658-10.266 7.165-5.482z"/><path fill="#e9bca6" d="M257.068 145.397l-4.649-5.864-9.685 2.253-.415-1.699 14.586-3.96 2.146 8.746zM264.747 143.269l.476-7.101 5.969-3.805-8.523 2.253z"/><path fill="#c4937d" d="M282.686 270.875l-17.159-8.716L275.5 261l9.363 1.382z"/><path fill="#e9bca6" d="M266.06 148.389l7.705-4.618-8.308 2.271zM242.362 152.252l17.995-1.576-.626-3.032z"/><path fill="#c4937d" d="M226.976 163.493l4.718 7.295 2.521-12.331-7.521 4.574zM222.426 153.288l4.079-2.806 3.586 5.471z"/><path fill="#795d88" d="M195.127 145.397l14.768 15.22 66.307-51.089-12.29-9.286z"/><path fill="#a587b8" d="M195.127 145.397l40.341-19.282 40.734-16.587-9.973-14.972z"/><path fill="#ffe6d6" d="M291.519 260.688l-1.689 9.328 10.68 16.416 5.157-1.682 2.345-3.708-4.242-18.466z"/><path fill="#c4937d" d="M303.77 262.576l-13.94 7.44-4.967-7.634 7.575-1.694zM272.367 119.418l-24.888 12.241 23.665-18.233z"/><path fill="#d1a1b8" d="M254.188 165.219l9.584 2.057 7.982-3.873-7.419.001z"/><path fill="#95647d" d="M271.754 163.403l-17.566 1.816 8.793-4.046z"/><path fill="#ecebeb" d="M255.597 190.128l12.882 6.739-8.27-16.125zM238.884 181.903l16.713 8.225-4.2 14.154z"/><path fill="#744e61" d="M300.019 245.242l3.751 17.334-51.569-.57z"/><path fill="#a587b8" d="M292.332 193.044l1.52-5.157 8.662 1.001 7.15 13.394-12.107 6.073z"/><path fill="#ffe6d6" d="M302.514 188.888l-9.769-16.761-3.726 1-2.079 3.48 5.392 16.437z"/><path fill="#fff1e8" d="M292.745 172.127l-11.009-6.788-7.407 6.824 12.611 4.444z"/><path fill="#744e61" d="M300.019 245.242l-52.992-5.234 15.736-5.902 16.269-3.519z"/><path fill="#95647d" d="M236.769 212.992l13.834 6.084 7.706 1.796 20.723 9.715-32.005 9.421-1.388-5.902-7.709-9.926zM233.258 185.636l3.511 27.356-2.554 4.75-9.825 10.75-2-35.003z"/><path fill="#a587b8" d="M236.769 212.992l9.5 3.475-2.07 7.46-3.786 3.451-16.023 1.114z"/><path fill="#c4937d" d="M255.333 233.152l-.745 4.63 8.175-2.406-4.527-2.404zM249.962 226.082l.961 4.868 4.41 2.202.79-7.506z"/><path fill="#ffe6d6" d="M246.269 216.467l12.04 4.405-.722 4.005-2.142 2.108-15.032.393z"/><path fill="#f5cab3" d="M258.309 220.872l4.454 14.504-7.43-2.224.112-6.167z"/><circle cx="271.449" cy="136.467" r="2.315" fill="#2b2b2b"/><circle cx="253.434" cy="141.015" r="2.315" fill="#2b2b2b"/><path fill="#594367" d="M270.856 296.564l-1.794 2.045-.079 2.749 16.427-.073.007-2.885z"/><path fill="#795e87" d="M278.195 288.395l7.222 10.005-16.355.209.943-9.493z"/><path fill="#594367" d="M309.833 287.573l-6.302 5.708 1.136 2.386 18.666-11.084-1.238-2z"/><path fill="#795e87" d="M308.012 281.042l14.083 1.541-18.564 10.698-3.021-6.849z"/></g><g><path fill="#785d88" d="M95.345 114.41l24-9.358 24.151 3.095-20.452 12.908zM159.531 243.253l-5.903-33.085-12.253-10.202 6.746 49.375z"/><path fill="#9075a0" d="M153.628 210.168l-27.707-23.069 2.647-6.177 2.925-2.618 18.852 18.143z"/><path fill="#785d88" d="M125.921 187.099l-2.877-49.107 8.782-9.5-.333 49.812z"/><path fill="#734d60" d="M123.435 144.671l-10.053-8.544-6.851-12.717 18.513 1.957.6 6.254z"/><path fill="#96637c" d="M124.044 127.367l6.953-7.726 8.778-5.231-7.949 19.63-8.391 10.631z"/><path fill="#9075a0" d="M124.044 127.367l1.405-5.386-2.405-3.669-27.699-3.902 11.186 9z"/><path fill="#a688ba" d="M123.044 118.312l20.452-10.165-3.721 6.263-15.731 12.957z"/><path fill="#d1a1b8" d="M123.044 116.312l-.833-14.901-4.165-5.453-7.649-4.341-5.718 11.625 6.092 13.341z"/><path fill="#e5b3cd" d="M110.397 91.617l1.301-6.413 9.981-5.212 8.026 12.032-7.494 9.387z"/><path fill="#b3889d" d="M122.211 101.411l-11.44 15.172 12.273 1.729 4.391-12.57zM121.679 79.992l-4.334-5.765h-5.442l-5.224 8.099 3.718 9.291z"/><path fill="#d1a1b8" d="M111.903 74.227l9.776-12.735 5.756 10.441-5.756 8.059z"/></g><g><path fill="#594165" d="M229.895 313.186l-14.868-5.527-2.146-8.125 17.014-2.963zM130.345 306.381l21.667-5.741-3-8.593-20-7.694z"/><path fill="#a688ba" d="M166.762 252.19l83.017 29.247-77.781 23.891-52.236-45.45z"/><path fill="#9075a0" d="M249.779 281.437l.976 28.222-20.86 3.527-2.364-13.858-44.519 11.518-2 14.146-11.667 4.334v-16.14l2.653-10.858z"/><path fill="#785d88" d="M171.998 302.328l-52.236-42.45-1.19 37.696 11.773 8.807.667-19.805 26.333 21.416-2.318 13.667 14.318 7.667 1.411-14.359z"/><path opacity=".14" d="M119.762 259.878l28.25 22.957 28.037-8.21-7.455-14.747zM186.124 281.376l32.387-3.263-2.916 6.749-8.885 1.57z"/><path fill="#cececd" d="M148.012 272.326l-11.5-15.188v8.926l11.5 16.771z"/><g><path fill="#ececeb" d="M178.679 267.395l-30.667 4.931-1 4.669 1 5.84 30-6.448z"/><path fill="#96637c" d="M148.012 273.326l-11.5-16.188 30.25-4.948 11.917 15.205z"/><path fill="#b3889d" d="M157.595 258.138l18.454-12.896-39.465-6.627-21.012 11.48z"/><path fill="#dddddc" d="M176.049 255.685l-18.454 10.379-1.458-5.186 1.458-3.74 18.454-11.896z"/><path fill="#734d60" d="M157.595 257.138l-42.023-7.043.107 9.231 41.916 6.738z"/></g><g><path fill="#ececeb" d="M230.351 250.2l-14.756-6.947v11.249l-1.197 7.004 1.197 23.356 9.166-3.415-6.25-3.334v-7.692z"/><path fill="#cececd" d="M200.838 250.2l14.757-6.947v41.609l-9.167-3.415 6.25-3.334v-9.116z"/><path fill="#ececeb" d="M200.838 250.2l14.757 4.303.666-4.875-.666-6.375z"/><path fill="#cececd" d="M215.595 243.253v11.25l14.756-4.303z"/><path fill="#785d88" d="M206.71 251.912l8.885-3.807 8.038 3.807-8.038 2.591zM205.72 253.663l9.875 3.09v11.625z"/><path fill="#9075a0" d="M215.595 256.753l9.25-2.921-9.25 14.546z"/></g></g><g><path opacity=".1" d="M745.497 317.306l-20.194-5.178-11.528 1.068-13.111.26L661 320.794l-20.075-4.9-18.804-1.269-10.368 3.064-35.622 3.45 30.787 8.528L650 326.52l15-2.46 29.497 2.46 36.402-3.38 26.601-3.392z"/><path fill="#b3889d" d="M736.832 309.453l9.498 4.437.792 1.336-1.625 2.08-12.589-2.415zM730.899 323.14l-7.237-5.834-12.498 2.251v3.583z"/><path fill="#96637c" d="M705.33 274.057l-15.166 2.675-3.247 2.339 2.231 3.65 10.516 7.336 3.666-5.599z"/><path fill="#734d61" d="M690.164 276.732l-7.664 1.351 6.647 4.637z"/><circle cx="696.497" cy="278.641" r="2" fill="#2b2b2b"/><path fill="#b3889d" d="M705.33 274.057l8.445 7.041-1.278 7.042-6.417 3.75-6.416-1.833z"/><path fill="#d1a1b8" d="M712.497 288.14l-7.167-14.083 9.417 6.333z"/><path fill="#b3889d" d="M727.664 292.723l-15.167-4.583-3.501 11 15.416 10.417 12.42-.104z"/><path fill="#96637c" d="M736.832 309.453l-5.933 13.687-17.124-9.944 3.361-8.556z"/><path fill="#b3889d" d="M714.747 280.39l6.25-3.749-3.861-11.193-3.623 5.19-3.35 5.002z"/><path fill="#96637c" d="M714.747 280.39l-1.234-9.752-12.381-4.888 6.073 11.997z"/><path fill="#d1a1b8" d="M736.832 309.453l-24.335-21.313 17.791 2.6z"/><path fill="#b3889d" d="M703.345 293.64l-7.847 2.417-5.334 3.166 3.333 2 3.833-2.5 11.666.417z"/><path fill="#96637c" d="M699.664 290.057l12.833-1.917 2.611 9.287-1.333 3.13-4.779-1.417z"/><path fill="#d1a1b8" d="M708.996 299.14l-6.998 9.502-1.334 4.814 3.167 1.77 1.5-5.578 11.805-5.008-2.027-7.208z"/><path fill="#96637c" d="M746.33 313.89l9.917-9.25 2.167 3v1.917l-12.917 7.749z"/><path fill="#d1a1b8" d="M756.247 304.64l20.75 10.586-18.583-5.669z"/><g><path fill="#795d88" d="M657.872 306.527l7.795 4.006 1.713 1.055-2.38 1.388-9.45.089.783-4.007z"/><path fill="#9075a0" d="M611.753 317.689L609 321.833l3.216.5 3.835-3.519 7.949-1.978-4.001-4.708z"/><path fill="#795d88" d="M658.043 312.976L650 326.52h-3.832l2.042-6.02 2.79-3.664z"/><path fill="#9075a0" d="M604.034 299.042l-8.51 12.518-.221 3.065 3.947 1.389 14.316-3.038L612 307.56z"/><path fill="#795d88" d="M595.523 311.56l-4.166 6.129 7.893-1.675z"/><circle cx="601.618" cy="309.56" r="2" fill="#2b2b2b"/><path fill="#a588b9" d="M604.034 299.042l7.799-.792 10.565 6.128-8.832 8.598z"/><path fill="#a588b9" d="M616.051 299.666l2.978-5.335-5.813-3.664-2.383 5.291v2.558z"/><path fill="#795d88" d="M622.398 304.378l11.862-.934 19.408-.067-1.168 11.185-27.167 3.127-11.767-4.713z"/><path fill="#a588b9" d="M657.872 306.527l-9.267 3.269-9.438-.738-18.977-2.531-4.139-6.861h6.347l11.219-5.709 18.548 4.874z"/><path fill="#9075a0" d="M658.043 312.976l-.171-6.449-18.705 2.531 1.758 6.836 7.285 4.606z"/><path fill="#a588b9" d="M623.203 316.836l5.173-3.86 2.199 3.531 3.685 10.013h-4.087z"/><path fill="#b39bc6" d="M620.19 306.527l-16.156-7.485 5.59-.792 6.427 1.416h6.347z"/><path fill="#795d88" d="M612.218 302.833l-1.385-6.875-9.215-.708 5.428 8.194z"/><path fill="#b39bc6" d="M657.872 306.527l-24.255-12.57L652.5 297.5z"/><path fill="#9075a0" d="M665.667 310.533l7.166-2.973.219 2.403-1.704 2.165-6.348.848z"/><path fill="#a588b9" d="M672.833 307.56l11.188 11.356-12.673-6.788z"/></g></g></svg>