<svg xmlns="http://www.w3.org/2000/svg" xmlns:xlink="http://www.w3.org/1999/xlink" viewBox="0 0 400 400"><path fill-rule="evenodd" clip-rule="evenodd" fill="#696b6d" d="M129.884 381.274h42.66v-5.438l-21.654-3.67-21.006 3.67z"/><path fill-rule="evenodd" clip-rule="evenodd" fill="#cda09c" d="M169.179 143.369l-4.12-10.402 50.567-1.985-1.922 14.102-24.915 12.218z"/><path fill-rule="evenodd" clip-rule="evenodd" fill="#efcec8" d="M213.045 31.893L208.4 42.214l-30.003 92.412 23.811 2.549-13.419 17.032 24.915-9.123 6.567 1.381 5.16-5.676 7.085-39.066z"/><path fill-rule="evenodd" clip-rule="evenodd" fill="#594265" d="M145.511 218.943l-18.349 11.125-13.722-16.512-.81-17.063 5.84-6.413 16.876-27.798 15.769-8.075 2.581 31.482zM278.588 183.211l20.371 16.22-11.475 3.995-9.574-.161-1.471-16.051zM244.543 154.078l24.755 21.713 2.324 4.478.255 27.094-11.352 12.387-14.947-4.837-5.182-31.807z"/><path fill-rule="evenodd" clip-rule="evenodd" fill="#060808" d="M190.501 399.383L87.343 384.638l45.124-11.036 61.367-9.166 115.215 21.742z" opacity=".15"/><path fill-rule="evenodd" clip-rule="evenodd" fill="#424242" d="M171.115 359.157l1.429 16.679h-42.66l-.649-2.064 19.44-16.357 13.176-1.705z"/><path fill-rule="evenodd" clip-rule="evenodd" fill="#7d7c7d" d="M142.084 271.616l6.591 85.799 10.539.482 4.755-5.602 8.575-51.402-6.014-15.648-4.191-11.224z"/><path fill-rule="evenodd" clip-rule="evenodd" fill="#5e5f5f" d="M179.916 284.578l-13.386.667-7.316 72.652 11.901 1.26 19.86-60.282z"/><path fill-rule="evenodd" clip-rule="evenodd" fill="#424242" d="M224.693 384.967l4.735-21.135 10.907-4.183 12.45 3.057 8.447 22.261-5.953 2.342-24.87-.37z"/><path fill-rule="evenodd" clip-rule="evenodd" fill="#7d7c7d" d="M221.929 288.53l20.76 69.83-1.547 4.908-11.714.564-38.453-64.957 9.039-14.435 16.714 1.893z"/><path fill-rule="evenodd" clip-rule="evenodd" fill="#5e5f5f" d="M216.728 286.333l24.414 76.935 11.643-.562-2.273-57.516-7.464-7.199-2.9-23.064-16.952 2.591z"/><path fill-rule="evenodd" clip-rule="evenodd" fill="#efcec8" d="M111.893 161.948l-7.888 1.407 2.726-11.728 11.353-9.807 2.325 11.096z"/><path fill-rule="evenodd" clip-rule="evenodd" fill="#fdede9" d="M87.636 140.272l-6.707 26.837 9.288 3.612 10.321-2.065 17.547-26.835z"/><path fill-rule="evenodd" clip-rule="evenodd" fill="#755583" d="M90.217 229.557l-7.488-50.344 7.2-4.269 15.45 4.79 21.782 50.334z"/><path fill-rule="evenodd" clip-rule="evenodd" fill="#e2e3e2" d="M82.729 179.212l22.65.523-4.841-11.079-19.61-1.546z"/><path fill-rule="evenodd" clip-rule="evenodd" fill="#5e5f5f" d="M125.133 276.28l4.312-98.259 2.575-5.752 1.971.758-1.966 103.749z"/><path fill-rule="evenodd" clip-rule="evenodd" fill="#444748" d="M142.084 271.616l31.827-4.358 66.237 7.669-49.173 23.948z"/><path fill-rule="evenodd" clip-rule="evenodd" fill="#755583" d="M142.084 271.616l31.739 1.29 3.613-16.514.257-46.189-15.223-44.127 3.612-15.482-14.967 3.612-2.58 4.129.516 6.194z"/><path fill-rule="evenodd" clip-rule="evenodd" fill="#a181b6" d="M230.955 148.434l-18.427 27.448-37.756 36.016-.95 61.008 75.504 2.308-4.783-121.136z"/><path fill-rule="evenodd" clip-rule="evenodd" fill="#594265" d="M204.973 185.726l5.647-2.103h18.422v7.226l-27.185-.313z"/><path fill-rule="evenodd" clip-rule="evenodd" fill="#8c709e" d="M156.792 168.656l9.289-18.063 7.834 12.629.858 48.676z"/><path fill-rule="evenodd" clip-rule="evenodd" fill="#755583" d="M202.208 165.561l-27.436 46.337 52.206-41.176 3.977-22.289z"/><path fill-rule="evenodd" clip-rule="evenodd" fill="#c4c3c3" d="M174.855 158.335l-3.097 6.193 1.239 19.444 5.471-4.477 1.549-10.322v-6.709zM199.109 160.916l-8.773 1.032-2.579 7.741-2.063 9.289 4.435 9.496 13.112-20.334z"/><path fill-rule="evenodd" clip-rule="evenodd" fill="#424242" d="M174.773 211.898l-1.776-27.926 7.02-14.8 5.16-4.128 2.581 4.645 2.371 18.786z"/><path fill-rule="evenodd" clip-rule="evenodd" fill="#5e5f5f" d="M174.855 158.335l5.162 10.838 7.741.516 11.352-8.773-10.321-6.709z"/><path fill-rule="evenodd" clip-rule="evenodd" fill="#e2e3e2" d="M169.179 143.369l-3.097 7.225 5.676 13.934 17.031-10.321zM225.431 140.789l-36.642 13.418 14.452 13.933 27.714-19.706z"/><path fill-rule="evenodd" clip-rule="evenodd" fill="#fdede9" d="M128.316 23.12l-5.066 76.475 18.811 31.067 36.336 3.964 24.068-18.868 10.58-83.865-18.768-17.03-21.45-8.259z"/><path fill-rule="evenodd" clip-rule="evenodd" fill="#efcec8" d="M129.508 54.463l8.705 8.912 3.611 27.868 5.938-24.93-1.815-11.009zM160.317 56.638l25.375 2.333-14.643 5.921-11.675 27.901-3.098-25.934z"/><path fill-rule="evenodd" clip-rule="evenodd" fill="#cda09c" d="M145.438 106.21l1.033 10.322 20.643 1.548-.517-7.224z"/><path fill-rule="evenodd" clip-rule="evenodd" fill="#fff" d="M147.503 108.79l17.03 3.871v3.097l-16.515-1.806z"/><path fill-rule="evenodd" clip-rule="evenodd" fill="#b9b8b8" d="M223.449 78.376l-6.275.483-4.129-46.966 13.419-5.161 19.095 3.097-6.969 38.414z"/><path fill-rule="evenodd" clip-rule="evenodd" fill="#cda09c" d="M221.82 94.34l10.696 7.383 1.709-9.412-5.183-1.584z"/><path fill="#e2e3e2" d="M172.827 6.604l40.218 25.289 32.514-2.064L188.857 0z"/><path fill-rule="evenodd" clip-rule="evenodd" fill="#737374" d="M185.924 56.331l-24.663-1.821-1.488 3.504 25.919.956zM129.657 52.106l16.106 1.26.45 3.549-16.705-2.452z"/><path fill-rule="evenodd" clip-rule="evenodd" fill="#fdf3f2" d="M147.762 66.313l8.514.546 3.098 25.934-9.807 1.031-7.742-2.581z"/><path fill-rule="evenodd" clip-rule="evenodd" fill="#cda09c" d="M150.082 97.953l-8.257-6.71 17.549 1.55z"/><path fill-rule="evenodd" clip-rule="evenodd" fill="#594265" d="M169.349 229.751l5.24-6.045 5.571 6.32-5.748 5.202zM169.003 251.939l5.242-6.046 5.569 6.322-5.751 5.201z"/><path fill-rule="evenodd" clip-rule="evenodd" fill="#5e5f5f" d="M111.376 183.624l7.094 6.456 4.89-5.373-1.662-6.245-5.677-.515z"/><path fill-rule="evenodd" clip-rule="evenodd" fill="#7d7c7d" d="M130.987 157.819l-14.966 20.128 7.339 6.761 16.345-17.963-2.525-5.828zM132.02 146.981l6.193 11.869 10.838 5.678 2.064-10.321-6.707-9.29z"/><path fill-rule="evenodd" clip-rule="evenodd" fill="#5e5f5f" d="M132.02 146.981l17.031 17.547-9.346 2.217-8.719-8.926z"/><path fill-rule="evenodd" clip-rule="evenodd" fill="#696b6d" d="M224.693 384.967h36.54v5.44h-36.54z"/><path d="M289 329.813l6.395-5.976-7.651-12.317 3.542-3.919 11.51 18.49-13.531 8.998-.265-5.276zm-7.074-4.937l4.048.293 4.305-4.065-1.741-2.008-6.612 5.78z" fill-rule="evenodd" clip-rule="evenodd" fill="#8f5574"/><path fill-rule="evenodd" clip-rule="evenodd" fill="#af8097" d="M294.817 305.988l-3.334-.51-.619 3.966 9.762 15.608-9.516 8.075-.705 4.823 3.962.365 12.547-11.806z"/><path d="M275.74 151.441l-1.968 2.42-12.555 167.53 8.096 7.214 10.836 50.275 12.884 9.628 27.004-14.539c-13.49-18.735-25.632-35.67-37.945-54.999l12.724-12.981 1.264-56.952-13.841-4.02-1.952-93.643-4.547.067z" fill-rule="evenodd" clip-rule="evenodd" fill="#cf9db5"/><path fill-rule="evenodd" clip-rule="evenodd" fill="#a181b6" d="M287.188 249.846l-4.949-4.83-13.452 2.511-4.145 7.963-3.957 47.16 2.767 18.626 9.445 7.074 9.196-9.38 4.748-13.059z"/><path fill-rule="evenodd" clip-rule="evenodd" fill="#915977" d="M271.192 151.507l4.548-.066-.345 4.755-1.947 1.97 1.439 5.047-6.1 84.314-3.211 3.256-2.698-2.669z"/><path fill-rule="evenodd" clip-rule="evenodd" fill="#8b709d" d="M262.878 248.114l5.909-.587-1.673 23.12-2.754 8.8 1.547 7.894-2.455 33.935-1.918 2.055-4.982-1.698z"/><path d="M243.566 297.907l-.518.084-9.828 1.559 1.286 4.258 16.006 1.382 2.206-4.315s-9.411-2.926-9.152-2.968" fill-rule="evenodd" clip-rule="evenodd" fill="#745381"/><path fill-rule="evenodd" clip-rule="evenodd" fill="#8b709d" d="M233.22 299.55l6.048-18.882 2.185-1.759-1.305-3.982-4.863-30.295 11.543-1.267 10.727 2.973-7.124 27.723-.959 9.16 3.246 17.654z"/><path fill-rule="evenodd" clip-rule="evenodd" fill="#745381" d="M236.684 237.549l-1.399 7.083 22.27 1.707-.56-7.397z"/><path fill-rule="evenodd" clip-rule="evenodd" fill="#b2839a" d="M240.148 274.928l-.88 5.74 20.277 6.171 6.362.502 1.207-16.694z"/><path fill-rule="evenodd" clip-rule="evenodd" fill="#745381" d="M265.73 328.858l-9.178-7.225 6.9-.357 9.445 7.074-2.98 2.885z"/><path fill-rule="evenodd" clip-rule="evenodd" fill="#af8097" d="M265.73 328.858l1.352 19.581 5.94 4.117 4.816-4.307-4.941-19.899z"/><path fill-rule="evenodd" clip-rule="evenodd" fill="#915977" d="M267.082 348.439l10.756-.191 15.195 40.26-16.161-4.012zM249.579 283.806l16.328 3.535-6.488.977z"/><path fill-rule="evenodd" clip-rule="evenodd" fill="#8b709d" d="M296.081 249.036l-13.842-4.02-.146 73.954 12.724-12.982z"/><path fill-rule="evenodd" clip-rule="evenodd" fill="#a181b6" d="M265.196 155.414l10.199.782-.508 7.017-3.563-1.118z"/><path fill-rule="evenodd" clip-rule="evenodd" fill="#8b709d" d="M270.137 163.769l-4.941-8.355 9.691 7.799z"/><path fill-rule="evenodd" clip-rule="evenodd" fill="#755583" d="M288.396 208.395l-3.199-7.234 13.762-1.73-5.404 9.997z"/><path fill-rule="evenodd" clip-rule="evenodd" fill="#efcec8" d="M293.555 209.428l-8.358-8.267-4.028 12.395.78 17.519zM257.428 206.332l8.257-1.55 2.582 7.741-2.582 9.29-5.16-2.063z"/><path fill-rule="evenodd" clip-rule="evenodd" fill="#fdede9" d="M285.197 201.161l-21.06 3.912.375 24.049 17.437 1.953z"/><g opacity=".25"><defs><path id="a" d="M263.884 229.122h18.065v7.294h-18.065z"/></defs><clipPath id="b"><use xlink:href="#a" overflow="visible"/></clipPath><path clip-path="url(#b)" fill-rule="evenodd" clip-rule="evenodd" fill="#060808" d="M264.513 229.122l17.436 1.953-18.065 5.34z"/></g><path fill-rule="evenodd" clip-rule="evenodd" fill="#fdede9" d="M221.82 94.34l2.581-25.288 14.189-.809-4.365 24.068z"/><path fill-rule="evenodd" clip-rule="evenodd" fill="#cda09c" d="M227.496 86.083l1.352-11.149 5.447-.552z"/><path fill-rule="evenodd" clip-rule="evenodd" fill="#efcec8" d="M135.563 40.476l18.236 7.021 34.23-1.252-1.242-2.928-32.391 1.675-16.045-6.953z"/><path d="M141.745 65.824c0 2.031-1.645 3.678-3.677 3.678s-3.678-1.647-3.678-3.678c0-2.031 1.646-3.678 3.678-3.678 2.031 0 3.677 1.647 3.677 3.678zM175.15 68.243c0 2.22-1.798 4.018-4.018 4.018-2.219 0-4.018-1.798-4.018-4.018 0-2.219 1.799-4.017 4.018-4.017 2.22.001 4.018 1.798 4.018 4.017z" fill-rule="evenodd" clip-rule="evenodd" fill="#2b2b2b"/><path fill-rule="evenodd" clip-rule="evenodd" fill="#424242" d="M129.755 393.041l-24.514-6.193.052-4.229 48.718-.675.516 4.388z"/><path fill-rule="evenodd" clip-rule="evenodd" fill="#6f7173" d="M129.89 387.551l-24.597-4.932 18.823-6.124 9.198-.344 20.697 5.793z"/><path fill-rule="evenodd" clip-rule="evenodd" fill="#424242" d="M129.212 273.22l-4.079 3.06-1.055 104.117 9.288-.258-.051-3.988 1.004-2.199-1.058-1.913-1.236-95.263z"/></svg>