<svg xmlns="http://www.w3.org/2000/svg" viewBox="0 0 400 400"><path opacity=".1" fill="#2b2b2b" d="M111.018 384.066l94.815-9.838 87.927 10.337L201.146 400z"/><path fill="#3d3d3d" d="M194.338 352.86l-6.57 16.231 5.791 2.264h11.685l2.18-16.057-1.275-7.53h-8.753z"/><path fill="#515151" d="M187.768 369.091l-11.212 8.706 12.808 1.567 9.958-1.567 5.922-6.442z"/><path fill="#543042" d="M171.896 259.644l-4.193 49.748 19.196 17.203 12.018-25.345-2.924-32.989z"/><path fill="#96637c" d="M178.993 265.389l-1.39 41.915-3.617 2.35 2.126-48.983z"/><path fill="#353535" d="M167.703 309.392l31.781-8.142 6.665 46.518-11.811 5.092-15.095-24.635-.25-4.85-5.003-3.723z"/><path fill="#795d88" d="M200.866 323.864l-21.624 4.359-5.256-8.567 25.498-5.869 3.683 4.007z"/><path fill="#353535" d="M176.556 377.797h29.629v5.223h-29.629z"/><path fill="#543042" d="M241.509 200.04l8.417 15.077 25.855-9.333-11.51-36.824-20.799 7.967z"/><path fill="#795d88" d="M241.509 200.04l28.896-11.453 5.376 17.197-11.51 9.272-12.295 3.136z"/><path fill="#dddddc" d="M249.926 215.117l23.805-12.408 11.51 14.364-19.878 1.916z"/><path fill="#d8c2ef" d="M265.363 215.972l-6.623-22.762 26.501-29.066L277 150.333l17.92-7.648v-12.294l9.592 13.895-9.592 6.047 20.754 13.811-8.457 14.865 10.55 9.597-10.55 12.012zM117.927 195.592l8.958-17.23-8.958-3.316 2.616-13.829-11.162-9.794-11.16 5.876V144.43l-17.441-4.977 6.54-12.449-13.167 4.689v12.737l10.812 4.981-8.547 22.645 21.803 22.981z"/><path fill="#444" d="M117.927 195.592l-7.325-17.443-4.883.828v14.755zM98.221 187.501l-10.113-9.87-11.69-5.575 11.862 24.155 7.847-3.811z"/><path fill="#543042" d="M150.934 169.548l-18.761 41.198 25.541 6.789 10.202-16.19-6.977-28.349z"/><path fill="#795d88" d="M142.264 188.587l14.403 4.4 11.249 8.358-10.202 16.19-25.541-6.789z"/><path fill="#353535" d="M230.781 74.175l32.992 13.122-19.292 42.982-14.416-36.733-4.49-14.626z"/><path fill="#666" d="M230.065 93.546l35.944 45.944-7.269 9.861-21.249 3.258-9.229-10.329-5.03-36.57z"/><path fill="#444" d="M266.009 139.49l-37.442-6.142-.305 8.932 8.67 14.642 32.047.154z"/><path fill="#a3a2a2" d="M226.778 120.764l16.305 8.954-14.821 12.562z"/><path fill="#474747" d="M221.122 359.824l5.4 8.829-.639 23.247h-4.184l-5.87-19.675z"/><path fill="#734d61" d="M194.245 275.574l5.239 38.213 16.127 30.293 19.141-26.66 2.948-16.67 13.272-33.794-43.231-5.489z"/><path fill="#96637c" d="M217.967 272.179l-10.543 43.047h3.27l11.823-45.659z"/><path fill="#a588b9" d="M238.412 268.671l-13.985 49.123 10.325-.374 16.22-50.464-8.11-.983z"/><path fill="#593a4c" d="M178.993 265.389l15.252 10.185 13.496-8.88-3.292-32.642-12.678-1.107z"/><path fill="#96637c" d="M158.65 181.237l-1.983 11.75 47.782 8.358 37.06-1.305 6.02-16.717-24.23-23.867-43.787 4.542z"/><path fill="#d1a1b8" d="M192.442 171.682l3.551 11.641 21.974-16.191 8.745 2.145-25.281 27.431-9.667 1.241-5.95-2.539-1.68-28.191zM225.813 198.735l9.246-14.975-8.961-3.36-10.906 17.452 3.953 2.448zM178.993 194.843l-3.67-9.948-10.722-4.495 4.71 13.638 5.754 2.736z"/><path fill="#734d61" d="M156.667 192.987l14.677 32.688 2.74 3.222.524 4.048 6.736 4.179h34.799l14.381-3.656.131-3.265 2.093-3.504 8.761-26.659z"/><path fill="#b3889d" d="M201.431 196.708l-2.343 25.704 16.104-24.56 10.621.883-24.384 37.88-4.709.509-12.586-2.378-14.823-40.708 9.682.805 8.629 24.261-1.808-23.694z"/><path fill="#353535" d="M114.38 86.635l18.228 28.076 12.154-7.883-16.804-51.634z"/><path fill="#444" d="M138.519 102.928l-5.911 11.783 8.146 14.172 4.008-22.055z"/><path fill="#353535" d="M144.762 106.828l-8.48 35.033 18.079 10.748 4.566-9.63-2.446-13.157z"/><path fill="#353535" d="M156.481 129.822l8.271 14.692 9.632 4.859 2.716-11.279v-12.282l-12.022-2.735z"/><path fill="#feeee9" d="M128.184 55.886l3.444 20.18 6.891 26.862 17.962 26.894 20.619-4.01 9.786 10.701 3.075 15.17 2.481 19.999 2.81 17.971 22.715-22.521 10.295-24.852-7.343-74.362-20.055-12.724-11.182-31.019-48.369 8.969z"/><path fill="#efd0cb" d="M200.864 55.194l-2.238 70.06-7.033 24.097 1.774 46.687 24.6-28.906-.039-22.859 10.639-13.994 1.498-36.733-1.498-6.249 1.96-6.248.254-6.874z"/><path fill="#795d88" d="M154.361 152.609l-8.986 8.516 15.564-1.958z"/><path fill="#9075a0" d="M217.967 167.132l-28.938-.615 2.843 5.165 30.645.183zM145.375 161.125l13.275 20.112 4.862-15.933-4.862-7.445z"/><path fill="#795d88" d="M158.65 181.237l14.322-5.486 3.14-6.791-8.196-3.656-6.977 2.351z"/><path fill="#594265" d="M176.112 168.96l-2.695 7.836 1.906 8.099 17.119-13.213-7.637-13.823-11.388-9.72-.445 7.11z"/><path fill="#444" d="M156.481 129.822l16.936 18.317 2.695 20.821-14.435-3.791-7.316-12.56z"/><path fill="#484748" d="M176.112 168.96l-15.173-1.305-6.578-15.046z"/><path fill="#666" d="M178.778 4.887l9.6-5.065 41.629 13.371 15.031 39.21z"/><path fill="#efd0cb" d="M186.328 62.731l-19.944 28.331-31.221-18.283 7.269-4.466 11.929 2.233 6.384-1.395 13.84-6.42z"/><path fill="#4f5253" d="M186.328 62.731L175.004 59.8l-10.615 5.565-3.644 3.786 13.84-6.42zM135.163 72.779l4.612-4.883 10.975.556 3.611 2.094-13.292-.278z"/><path fill="#fff5f3" d="M160.745 69.151l.699 10.955 4.94 10.956-9.413 1.884.839-12.003-3.449-10.397z"/><path fill="#cea39f" d="M156.971 92.946l6.291 4.327 3.122-6.211z"/><ellipse cx="173.327" cy="70.989" rx="3.821" ry="3.815" fill="#2b2b2b"/><ellipse cx="146.113" cy="77.316" rx="3.821" ry="3.815" fill="#2b2b2b"/><path fill="#9075a0" d="M181.831 103.204l-15.005 7.247-12.324-1.665 10.793-3.07z"/><path fill="#cea39f" d="M177.1 125.812l36.999-8.467-17.722 25.204-10.865-3.074z"/><path fill="#594265" d="M154.502 108.786l27.329-5.582-17.378-.558z"/><path fill="#cea39f" d="M230.527 81.048l-9.904 1.501 9.442 10.997z"/><path fill="#353535" d="M200.864 55.194l14.959 25.447 5.096-12.723z"/><path fill="#444" d="M193.361 51.286l32.214 5.025 33.165 14.678 5.033 16.308-62.909-22.821z"/><path fill="#666" d="M193.361 51.286l-9.271-15.909 69.058 15.909 5.592 19.703z"/><path fill="#444" d="M160.745 32.586l5.639-11.814 12.394-15.885 74.37 46.399z"/><path fill="#666" d="M178.778 4.887L149.515.752l-25.369 32.401 25.369-7.173z"/><path fill="#7f7f7f" d="M149.515.752l-33.892 34.625 19.54-4.474 7.456-7.757z"/><path fill="#353535" d="M142.619 23.146l36.159-18.259-18.033 27.699z"/><path fill="#cea39f" d="M160.745 32.586l-20.83 15.91-8.289 27.562-4.852-18.909 15.098-20.097z"/><path fill="#666" d="M160.745 32.586l-18.126-9.44-26.996 12.231-1.243 51.258 27.119-47.816z"/><path fill="#444" d="M160.745 32.586l-26.701 1.674-19.664 52.375 27.119-44.464z"/><path fill="#484748" d="M228.567 130.279l-43.055 9.196 6.081 9.876 36.669-7.071z"/><path fill="#795d88" d="M201.509 147.361l7.913 6.283-6.958 8.777-7.212-7.348z"/><path fill="#a588b9" d="M205.244 150.327l-8.524 6.247 11.021-.809-9.334-4.581 4.057 11.237z"/><path fill="#fff" d="M192.442 171.682l-19.025-23.543 3.683-22.327 14.493 23.539z"/><path opacity=".2" fill="#2b2b2b" d="M174.79 139.815l2.31-14.003 14.493 23.539z"/><path fill="#594265" d="M217.967 167.132l5.332-7.676 10.626 7.676 13.604 16.191-24.816 2.494z"/><path fill="#795d88" d="M234.448 149.373l-11.149 10.083 24.23 23.867 1.569-14.363-4.186-19.587z"/><path fill="#9075a0" d="M244.912 149.373l12.034 7.703 7.325 11.884-16.742 14.363z"/><path fill="#795d88" d="M244.912 149.373l19.359 19.587 4.708-11.884-9.94-7.703z"/><path fill="#9075a0" d="M175.323 184.895l-16.673-3.658 17.462-12.277z"/><path fill="#96637c" d="M197.562 236.602l20.405 34.271 29.081-5.484-.514-5.646-16.01-26.275zM174.608 232.945l22.112 4.179-17.727 24.343-6.1-1.823-.268-8.519z"/><path fill="#d1a1b8" d="M205.956 236.125l16.561 28.132 24.015-4.518 4.44 7.217-33.005 5.223-20.84-36.054zM188.139 235.502l-11.51 19.353-4.004-3.73-.729 8.519 7.097 5.745 17.727-28.265z"/><path fill="#353535" d="M232.748 226.7l-42.296 4.742 6.268 5.682 33.804-3.656zM207.741 242.434l10.226 29.745-10.226-5.485-9.593-28.612z"/><path fill="#474747" d="M234.752 317.42l-35.268-3.633 1.382 10.077 1.717 5.9-.194 5.213 3.168 23.106 5.791 4.353 9.774-2.612 5.877-18.284-1.678-5.682 5.21-5.308z"/><path fill="#9075a0" d="M230.531 330.55l-29.665-6.686 1.523 11.113 24.61 6.563z"/><path fill="#6f7173" d="M205.557 358.083l-17.789 28.593 16.677 1.742 12.952-1.742 3.725-26.852z"/><path fill="#474747" d="M187.768 386.676h29.629v5.223h-29.629z"/><path fill="#484748" d="M249.926 215.117l2.615 27.296 33.482-4.099-.782-21.241-18.312 1.916z"/><path fill="#a3a2a2" d="M249.926 215.117l15.437.855 9.327-1.512 10.551 2.613-11.51 14.119z"/><path fill="#444" d="M285.241 217.073l21.976-16.455-2.094-5.484-13.865-.26z"/><path fill="#353535" d="M265.363 215.972l4.967-15.657 13.778-.329 10.812 4.029-9.679 13.058z"/><path fill="#666" d="M270.33 200.315l4.709-14.803 19.881-5.264v23.767z"/><path fill="#a3a2a2" d="M157.714 217.535l-28.167 12.02-9.289-10.776 7.348-9.639 7.871-2.05 6.725 1.96z"/><path fill="#a3a2a2" d="M134.792 204.996l-15.534 13.784-7.086-9.64v-7.347l5.755-6.201z"/><path fill="#484748" d="M142.2 209.049l-8.723 33.817-14.219-24.086 15.534-13.784z"/><path fill="#353535" d="M117.927 195.592l-18.658-7.046-10.989 7.665 23.892 12.929z"/><path fill="#666" d="M117.927 195.592l-29.647.619 9.941-8.71z"/><path fill="#565656" d="M171.341 225.669l19.107 5.772 3.191 2.611 2.258-.965 10.059 3.038 1.785 6.309-12.067-3.455-2.755-1.855-5.37-.473-12.941-3.706z"/><path fill="#484748" d="M195.893 233.085l-.222 5.893-8.122-2.326 2.903-5.21z"/><path fill="#fff" d="M243.083 129.718l-8.635 19.655-16.481 17.759-.039-22.859z"/></svg>