<svg xmlns="http://www.w3.org/2000/svg" viewBox="-93.516 -40.247 400 400"><path fill="#2b2b2b" fill-opacity=".149" d="M-26.5 333.198l105.163 26.063 64.765-10.686 96.041-26.453-17.333-4.432-86.267-.259-24.629 2.738z"/><path fill="#cececd" d="M178.481 294.626l-36.356 5.604 36.879 12.378 39.092-12.769-1.563-1.434-1.824 1.043-14.204-1.955-1.304-1.433-1.433 1.173z"/><path fill="#ababab" d="M135.869 317.431l6.256-17.201 37.399 5.341 38.572-5.732 4.04 17.851-43.003 7.559z"/><path fill="#cececd" d="M152.029 61.106l23.716-9.643 23.587 11.206-.521 37.01-23.326 2.476-23.456-1.303zM161.019 153.498l5.474-12.901-5.212-11.076.13-20.199 15.246-5.473 14.726 4.821.651 20.981-4.301 10.034 5.213 14.464 4.04 118.323-17.201 4.172-19.807-4.039z"/><path d="M183.433 167.312l-9.514-.131v2.215h8.472l1.172.131v1.172l-.13 5.344v1.824l-11.467.262-.521-3.26 9.253.262.129-3.389-7.948.652-1.564.391v-7.687l.912-.262 10.425-.781.781 3.257zm-12.379 86.918l4.69-3.387-3.647-4.563 2.865-1.563 3.389 3.908 10.294-5.863-8.73 8.08 5.995 6.904-3.519.912-4.431-5.473-4.953 6.385-1.953-5.34zm13.161-23.065l-8.99-.393v1.695l7.558-.131-.912 3.648-6.776-.781v2.605l9.643.391-.522 3.65-11.857-.652-.652-12.641 12.25-.912.258 3.521zm-1.041-16.941l-8.472-.912.912 6.516 7.56-1.043 1.303 4.432h-12.641v-1.695l.262-9.773v-1.172h11.597l-.521 3.647zm-11.207-7.297l.131-9.254v-1.041l.91-.262 5.344-1.824h.781l4.562 1.434 1.043.262v.912l-.131 10.033-2.736-.26.13-3.52-7.167-.26.13 3.518-2.997.262zm2.866-8.342v1.305l7.037.781.13-2.477-3.257-1.041-3.91 1.432zm-3.128-5.082v-11.467l12.25-.65-.13 8.859-9.383-.65.26 3.779-2.997.129zm2.346-9.25l.131 2.604h7.037l-.52-2.734-6.648.13zM177.83 126.523l14.204 2.345.912 27.626-14.726-2.736-17.201 1.954.262-27.105 16.549-2.084zm19.938 170.71l-17.724 2.865-20.328-2.605.262-25.541 36.878-.131.912 25.412z" fill="#858686"/><path fill="#ababab" d="M152.029 100.852l24.628-4.692 22.154 3.519-7.428 8.991-14.595-1.954-15.377 2.606z"/><path fill="#e6e6e6" d="M152.029 61.106l23.716-4.561 23.587 6.124-24.108-22.413z"/><path d="M152.029 61.106l23.195-20.85.521 16.29.912 39.615.912 10.425 2.475 193.513-20.328-2.605 1.694-188.171-9.382-8.471V61.106zm-16.16 256.325l6.256-17.201 37.399 5.342-.392 19.678-43.263-7.819z" fill="#2b2b2b" fill-opacity=".102"/><path fill="#b3889d" d="M26.015 129.39L3.472 187.118l14.204 4.432 15.117-5.735-1.825-49.779z"/><path fill="#96637c" d="M26.015 129.39L56.9 115.446l-7.298 40.658-15.115 13.813-7.819-2.605z"/><path fill="#ffeee9" d="M16.113 184.382l10.555-17.07 15.246-9.774 2.216 12.51-14.596 15.506z"/><path fill="#96637c" d="M120.754 109.061l-5.734 8.21-16.419 32.317 22.543 21.503 27.366-18.245 6.255-19.025z"/><path fill="#454444" d="M-3.044 332.024l12.38-3.127 32.447-1.431 8.862 4.558v7.17l-53.819-.261zM105.898 340.497l8.731-3.519 22.804-1.563 5.995 4.691v8.469h-37.53z"/><path fill="#545657" d="M27.189 309.872l-30.233 22.152h53.689v-15.765l-11.727-8.733zM111.24 320.169l-5.342 20.328 37.53-.391-7.559-22.675-11.728-3.52z"/><path fill="#9075a0" d="M52.6 251.755l-8.992 57.076-6.255 3.777-10.164-2.736-.782-53.428 25.802-11.207zM95.734 260.876l22.543 51.082 6.907 6.647 10.685-1.174-.521-63.592-38.442-10.164z"/><path fill="#785d88" d="M52.209 245.237l-9.904.653 2.215 18.634-7.167 48.084 13.292 3.651 25.411-52.647-4.04-9.773z"/><path fill="#785d88" d="M79.835 253.317l22.154-12.509 2.084 4.17 2.085 23.064 19.026 50.563-13.944 1.564-35.184-56.557z"/><path fill="#6c557a" d="M43.869 229.079l-5.082 12.772 8.209 7.037 29.06 14.724 28.017-18.634-7.427-15.377z"/><path d="M45.563 208.491l-8.992 20.457 4.431 2.998 52.256 1.955 3.388-4.301-12.901-20.98-16.681-8.34-21.501 8.211zm22.675-70.631l-4.171-7.688-13.421 1.173 3.779 47.955 28.668 1.303 10.425-51.473-14.464 1.694-10.816 7.036z" fill="#6f7173"/><path fill="#865a70" d="M26.015 223.997l-11.076 27.365 29.581 13.162 8.08-53.558-7.037-2.475z"/><path fill="#96637c" d="M88.045 219.956l18.113 48.086 43.395-20.98-15.248-45.479-22.022 2.086zM3.472 187.118l22.543 36.879 39.486-19.287 1.563-4.43-33.23-19.677z"/><path fill="#efd0cb" d="M84.527 184.772l-3.911-14.205 10.295-16.157 16.159-3.649 9.514 15.508-3.519 12.64z"/><path fill="#b3889d" d="M31.228 144.115l25.542 32.058-1.694-43.265-4.431-1.563zM88.697 133.039l-8.081 37.528 33.751-25.279-10.684-11.077z"/><path fill="#b3889d" d="M62.634 181.124l-6.256-5.344 24.238-5.213 4.823 12.121z"/><path fill="#8f8f8f" d="M61.331 108.931l-30.103 35.184 23.848-11.207 13.162 4.952.912-19.547zM116.584 99.679l-13.032 3.388-22.674 17.331-12.64 17.462 20.459-4.821 25.67 12.249 6.387-36.227z"/><path fill="#efd0cb" d="M98.991 68.665l-20.85 20.849-9.903 48.346 48.346-38.181L135.869 62.8 107.461-4.571l-5.213 7.558z"/><path fill="#96637c" d="M88.045 219.956L44.13 192.853l.26-11.989 11.988-5.084 49.52 4.563.26 18.894z"/><path fill="#734d60" d="M52.47 189.335l5.212-1.955 1.694 5.342-5.604 1.695zM63.025 194.546l5.082-1.955 1.694 5.474-5.473 1.563z"/><path fill="#b3889d" d="M154.765 133.821l-36.749 28.537-12.118 17.985-17.853 39.613 60.855-21.631z"/><path fill="#ffeee9" d="M122.578 186.337l-16.68-5.994 1.172-29.582 14.986 8.47z"/><path fill="#efd0cb" d="M41.914 157.538l-14.986 24.629 17.202 10.686 12.248-17.073z"/><path d="M26.928 182.167L52.6 210.966l11.597-5.734-1.563 27.496 30.624 1.174-5.212-13.945-23.848-14.725-37.27-23.065zm34.403-73.236l-6.255 23.977 13.162 4.952-2.216 35.836 14.595-3.129 8.08-37.528 25.67 12.249 6.387-36.227-4.17-9.382-27.887 33.36-20.459 4.821-6.907-28.929zm74.147 159.373l-29.32-.262 29.19-14.203.13 14.465z" fill="#2b2b2b" fill-opacity=".149"/><path fill="#545657" d="M64.067 144.767l3.91-3.779 3.779 4.17-4.171 3.779z"/><path fill="#cea39f" d="M97.818 97.073l-19.416.521-10.817-6.125-8.73 6.776 9.383 39.615z"/><path fill="#46382d" d="M103.812 11.327l11.729 11.077.131 20.198 10.164 1.954 18.244-17.331 2.867-20.328-15.769-10.556L107.33.381z"/><path fill="#5e5044" d="M86.872-22.034l7.429 14.205L107.33.381l39.617 6.516-19.287-36.619-28.669.521zM27.58-25.291L19.631 2.596l22.414-7.428 4.43-15.898z"/><path fill="#ffeee9" d="M24.062 75.31L19.631 2.596l18.504-22.675 48.737-1.955L107.33.381l-2.214 72.714-26.714 24.499-31.927.912z"/><path fill="#efd0cb" d="M27.711 27.486l10.554 5.734 8.992 16.81 5.213-9.904-2.216-6.646-2.607-5.212-13.291-4.692zM60.028 28.137L56.77 33.48l-1.955 8.861 3.649 10.425L69.019 33.22l14.465-7.689-9.643-2.867z"/><path fill="#46382d" d="M33.444 22.404l12.77 2.475 1.433 3.389-13.552-2.867-6.384 2.085zM61.721 24.618l-1.693 3.519 14.855-4.301 8.601 1.695-8.34-4.952z"/><path fill="#cea39f" d="M52.731 59.543l-6.256-6.516L52.6 50.16l7.166 2.606z"/><path fill="#fff5f3" d="M50.254 33.48l-3.779 19.547 13.291-.261L56.77 33.48z"/><path fill="#cea39f" d="M42.436 69.316l24.237-1.564 5.083-2.867 1.564 2.085-5.604 3.128-24.759 1.433zM121.535 53.939l14.334 8.861 4.431-8.47-6.515-4.952z"/><path fill="#ffeee9" d="M124.141 25.27l-2.606 28.669 18.765.391 3.78-27.105z"/><path fill="#cea39f" d="M129.484 31.786l-.912 11.598 8.601-11.077z"/><path fill="#74665b" d="M53.512-39.755l26.974 8.86 9.644 12.641-55.122 2.085-7.428-9.122z"/><path fill="#74665b" d="M127.66-29.722L90.13-18.254l-9.644-12.641 11.338-7.687z"/><path fill="#545657" d="M62.634 169.655l3.91-3.908 3.778 4.301-4.3 3.648zM59.766 219.306l3.911-3.91 3.779 4.3-4.3 3.649z"/><path fill="#5e5044" d="M91.824-38.582l-38.312-1.173L90.13-18.254z"/><path d="M38.787 30.613c1.954 0 3.388 1.433 3.388 3.257 0 1.825-1.434 3.388-3.388 3.388-1.824 0-3.259-1.563-3.259-3.388 0-1.824 1.435-3.257 3.259-3.257zM69.279 30.352c1.825 0 3.259 1.565 3.259 3.389 0 1.824-1.434 3.388-3.259 3.388-1.823 0-3.388-1.564-3.388-3.388 0-1.824 1.565-3.389 3.388-3.389z" fill="#2b2b2b"/><path d="M201.026 272.472l6.255 9.904 6.515-9.642-6.775-10.686-5.995 10.424zM177.7 111.146v5.343l20.068 2.345v178.399l2.736.26 6.776-9.642 7.428 11.598 3.388.391-6.385-181.134-.261-5.213v-1.303l-1.304-.131-32.578-3.909.132 2.996zm2.998 2.606v-2.215l27.886 3.257v2.345l-27.886-3.387zm34.141 180.354l-.651-16.682-5.082 7.689 5.733 8.993zm-.912-26.845l-.651-16.418-4.562 8.209 5.213 8.209zm-1.043-27.106l-.39-13.813-3.91 6.906 4.3 6.907zm-.913-25.15l-.39-14.074-3.649 6.908 4.039 7.166zm-.912-26.063l-.391-13.682-3.257 6.775 3.648 6.907zm-.912-26.712l-.391-12.12-2.606 5.995 2.997 6.125zm-.911-26.194l-.392-10.556-2.085 4.952 2.477 5.604zm-1.304-16.029l-6.256-.651 3.389 7.428 2.867-6.777zm-7.168 4.431v12.249l2.737-6.255-2.737-5.994zm0 25.802v12.901l2.998-6.907-2.998-5.994zm0 25.933v12.9l3.259-6.906-3.259-5.994zm0 25.281v13.813l3.78-7.299-3.78-6.514zm0 25.151v14.594l4.301-7.818-4.301-6.776zm0 25.539v14.727l4.431-7.69-4.431-7.037zm0 25.541v14.596l4.822-7.166-4.822-7.43zm4.431-143.604l-4.3 9.774 4.431 8.861 4.039-9.122-4.17-9.513zm.392 25.542l-4.691 10.556 4.691 8.6 4.691-9.773-4.691-9.383zm.259 25.802l-4.82 10.293 5.212 9.123 4.952-9.643-5.344-9.773zm.523 25.67l-5.343 10.166 5.733 9.121 5.212-9.514-5.602-9.773zm.52 25.15l-5.863 10.688 5.863 9.252 5.994-10.555-5.994-9.385z" fill="#ababab"/></svg>