<svg xmlns="http://www.w3.org/2000/svg" viewBox="0 0 400 400"><g fill-rule="evenodd" clip-rule="evenodd"><path opacity=".1" fill="#34302d" d="M95.651 384.85l110.213-13.971 101.905 17.272L204.333 400z"/><path fill="#5c3242" d="M223.776 382.258l-14.485 5.881.073 4.983h48.32v-4.92z"/><path fill="#7b4c61" d="M119.749 205.272l11.673 15.215 23.849-8.625-2.875-43.85-28.841 21.035z"/><path fill="#9e627c" d="M130.154 150.256l-12.737 15.087-20.248 40.689 19.283 21.553 18.536-8.389 5.285-42.344z"/><path fill="#f0f2f2" d="M127.579 152.441l-7.131 6.052-3.031 6.85 22.856 11.509 1.49-7.329-9.609-15.946z"/><path fill="#764056" d="M222.692 358.5l-8.105 9.26-5.296 20.379 48.393.063-10.508-23.426-13.195-6.276zM190.859 367.76l-16.668-12.343-1.48 3.558-4.865-.768-9.785 4.6-25.962 20.537 30.634.854 29.312-1.037z"/><path fill="#504c4a" d="M141.887 315.026l16.174 47.781 32.798 4.953 3.31-38.144-4.708-33.549-23.152-4.633z"/><path fill="#474341" d="M141.887 315.026l51.03 29.014 1.252-14.424-18.918-28.729z"/><path fill="#504c4a" d="M207.223 311.028l-13.054 18.588 20.418 38.144 32.589-2.984 1.368-41.582z"/><path fill="#7b4c61" d="M153.813 248.147l-5.902 1.141-6.024 65.738 33.364 13.113v-27.252l16.113-33.467z"/><path d="M187.684 253.471l-11.61 11.541-.823 35.875 18.918 28.728 54.374-6.422 1.368-33.971s-9.322-35.668-10.597-36.254c-1.267-.587-51.63.503-51.63.503z" fill="#5c3242"/><path fill="#f2d6d2" d="M233.926 264.792l-3.045.851-12.875 4.027 32.105 19.301-7.749-17.461z"/><path fill="#f0f2f2" d="M245.407 258.735l-10.848 1.203-3.678 5.705 19.031 23.58 5.2-6.465z"/><path fill="#7b4c61" d="M235.068 163.722l6.181 4.501 13.227 4.628 4.062 22.69-.761 50.71-23.218 13.687-58.485 5.074-9.132-28.398 27.656-51.72 23.495 3.912z"/><path fill="#9e627c" d="M249.402 234.46l-5.199 4.564-9.644 20.914 20.553 22.82 25.627-35.877z"/><path fill="#5c3242" d="M249.908 197.569l-5.705 41.455 36.536 7.857-26.263-74.03z"/><path fill="#9e627c" d="M161.951 166.993l-9.555 1.019-4.485 81.276 28.163 15.724.158-27.609-4.63-51.655-5.982 2.567 1.196-5.577z"/><path fill="#f0f2f2" d="M171.602 185.748l4.63 51.655 28.101-44.047z"/><path fill="#d8aac0" d="M163.802 166.796l-11.406 1.216 23.836 69.391 1.269-50.103zM222.602 160.813l18.647 7.41-65.017 69.18 15.569-42.738 16.147-27.234z"/><path fill="#9776a1" d="M163.355 169.109l1.682 18.498 14.526 5.873 8.436-4.489-.16-7.33z"/><path fill="#7f5a87" d="M165.037 187.607l-1.708 11.403 16.234-5.53 8.436-4.489-.139-6.382-3.128-.948z"/><path fill="#9776a1" d="M185.303 187.996l3.39 6.669 19.296-5.948 4.27-17.01-27.527 9.954z"/><path fill="#7f5a87" d="M185.303 187.996l3.39 6.669 19.591 8.638-.295-14.586-23.257-7.056z"/><path fill="#5d4063" d="M179.563 193.48l9.13 1.185-3.961-13.004z"/><path fill="#f0f2f2" d="M175.406 153.009l-23.01 15.003 32.336 13.649z"/><path fill="#d4aba5" d="M200.398 171.389l-15.666 10.272-26.832-49.823 50.785 26.446z"/><path d="M193.294 129.178c-.639.581 15.39 29.106 15.39 29.106l17.72 3.219 14.465-9.255 10.629-20.41 10.557-56.665-26.639-43.861L195.58 80.5s-2.304 48.734-2.286 48.678z" fill="#f3d8d4"/><path fill="#d4aba5" d="M256.957 121.355l-5.459 10.483L242.899 111z"/><path fill="#403d3b" d="M258.754 67.821l-13.826 12.551-5.203 17.625 7.445 4.844 20.34-1.402 13.7-25.125z"/><path fill="#4b4949" d="M239.855 35.242l-.89 14.451 5.963 30.679 36.282-4.058-17.379-49.946zM144.007 42.278l-1.013 4.5-13.765 6.781 13.319 14.851 8.246-22.646z"/><path fill="#6e6e6f" d="M150.858 22.248l-11.355 3.232 3.045 42.93 16.937-22.331z"/><path fill="#fef2f0" d="M155.74 28.015l-5.707 10.65-22.709 90.258 81.361 29.361 30.28-108.591-56.202-28.144z"/><path fill="#f2d6d2" d="M130.518 116.231l-3.194 12.692 4.706 1.698 49.622 17.909 25.27-1.666 7.555-9.349-24.571-4.943-56.366-19.005z"/><path fill="#f3d8d4" d="M157.32 58.234l-6.668 3.685 6.677 16.739-1.547 25.771 13.028-1.937 8.413 8.667 19.178-20.011 25.887-17.223-21.319.616-17.92 4.639-7.452 3.6-3.072-6.207-5.366-11.032-4.82-8.543z"/><path fill="#948f8e" d="M183.779 9.635L177.815.001 139.503 25.48l10.53 13.185 21.946-11.537z"/><path fill="#676567" d="M190.501 127.386l6.852 1.014 17.124 9.115-10.275 6.097z"/><path fill="#6e6e6f" d="M133.54 113.567l-7.755 1.097-1.214-10.088 8.172 2.808z"/><path fill="#4f4f4f" d="M164.366 119.526l12.857-8.367 20.13 17.241 6.849 15.212-21.153-.467zM161.83 114.456l-6.048-10.027-23.039 2.955-6.958 7.28 10.035 9.745z"/><path fill="#403d3b" d="M163.352 102.795l-7.57 1.634-19.962 19.98 47.229 18.736-5.826-31.986z"/><path fill="#fef2f0" d="M125.143 145.436l-8.888-12.854 13.649-13.917 22.717 19.389-3.757 12.665z"/><path fill="#fef8f8" d="M172.525 76.573l-16.743 27.856 21.441 6.73 5.826-31.979z"/><path fill="#676465" d="M148.964 58.592l13.319-5.251 10.819 14.48-.577 8.752-12.053-17.812-9.82 3.158zM187.051 72.127l-4.002 7.053 39.239-5.255.141-4.439z"/><path fill="#4b4949" d="M187.711 41.073l-15.732-13.945L177.815.001l12.112 22.551z"/><path fill="#6e6e6f" d="M263.831 26.368l-24.866 23.325-51.254-8.62L177.815.001z"/><path fill="#f0f2f2" d="M191.517 161.503l49.352-9.255.38 15.975-56.517 13.438z"/><path fill="#fef2f0" d="M253.102 91.512l14.408 9.927-10.553 19.916L242.899 111z"/><path fill="#d4aba5" d="M254.759 97.412l6.459 4.282-10.563 5.523z"/><path fill="#5c3242" d="M210.012 210.184l26.707 4.688-1.08 4.629-26.136-5.008z"/><path d="M220.794 212.077l2.326.402-.05 4.918-2.305-.021.029-5.299zm-.4 41.457l2.305.025-.05 4.764-2.301-.025.046-4.764zm.213-20.545l2.301.02-.054 5.172-2.305-.025.058-5.167z" fill="#ececec"/><path d="M221.944 214.801c4.07.041 7.323 4.416 7.27 9.766-.055 5.352-3.401 9.656-7.468 9.615-4.071-.041-7.327-4.416-7.27-9.766.054-5.353 3.397-9.656 7.468-9.615zM221.718 236.749c4.07.043 7.325 4.418 7.268 9.766-.053 5.354-3.396 9.658-7.467 9.617-4.067-.043-7.323-4.416-7.27-9.77.059-5.35 3.4-9.654 7.469-9.613z" fill="#ae8dbd"/><path d="M221.916 217.778c2.635.025 4.741 3.057 4.703 6.764-.04 3.709-2.209 6.693-4.845 6.668-2.635-.029-4.74-3.055-4.703-6.764.036-3.711 2.205-6.695 4.845-6.668zM221.689 239.723c2.636.027 4.74 3.053 4.703 6.768-.037 3.707-2.205 6.691-4.839 6.666-2.637-.029-4.747-3.059-4.705-6.766.037-3.709 2.206-6.693 4.841-6.668z" fill="#fff"/><path fill="#f2d6d2" d="M120.448 158.493l-4.193-25.911 32.609 18.137-7.101 18.804z"/><path d="M202.081 86.813c0 2.918-2.365 5.283-5.283 5.283-2.917 0-5.283-2.365-5.283-5.283s2.366-5.283 5.283-5.283c2.918 0 5.283 2.366 5.283 5.283zM164.768 75.174c0 2.917-2.365 5.283-5.283 5.283-2.917 0-5.283-2.366-5.283-5.283 0-2.918 2.366-5.284 5.283-5.284 2.918 0 5.283 2.366 5.283 5.284z" fill="#33302d"/><path fill="#5c3242" d="M132.099 383.161h59.947v4.982h-59.947z"/></g><path fill="#33302d" d="M155.782 104.429l6.691 11.895 14.75-5.165z"/><path fill-rule="evenodd" clip-rule="evenodd" fill="#474341" d="M201.174 342.7l47.37-19.506-54.375 6.422z"/></svg>