<svg xmlns="http://www.w3.org/2000/svg" viewBox="0 0 400 400"><path fill-rule="evenodd" clip-rule="evenodd" fill="#7b4c61" d="M139.633 213.753l-9.403 22.296 32.508 24.042 18.079-36.045z"/><path fill-rule="evenodd" clip-rule="evenodd" fill="#9e627c" d="M161.123 172.651l-23.102-12.492-7.791 75.89 34.385-16.119z"/><path fill-rule="evenodd" clip-rule="evenodd" fill="#f2d6d2" d="M259.175 244.578l-4.944 13.608-17.085 16.924-5.105-16.764 9.003-23.008z"/><path d="M271.264 226.646l.651 15.447-17.684 16.093s-13.084-21.407-13.188-22.848l13.541-13.907 16.68 5.215z" fill-rule="evenodd" clip-rule="evenodd" fill="#7b4c61"/><path opacity=".1" fill-rule="evenodd" clip-rule="evenodd" fill="#33302d" d="M123.815 384.582L202.121 400l74.171-15.36-74.545-7.794z"/><path fill-rule="evenodd" clip-rule="evenodd" fill="#5c3242" d="M222.534 383.751l6.48 4.611.006 4.267-37.978.246.024-4.389z"/><path d="M166.458 381.742l-6.678 2.01.115 4.516 31.998.135 3.93-1.576s-.988-6.185-1.29-6.185c-.303-.001-28.075 1.1-28.075 1.1z" fill-rule="evenodd" clip-rule="evenodd" fill="#5c3242"/><path fill-rule="evenodd" clip-rule="evenodd" fill="#9e627c" d="M183.958 358.014l-2.15 4.501-22.028 21.236h42.428l8.691-16.889z"/><path fill-rule="evenodd" clip-rule="evenodd" fill="#8f5b73" d="M212.298 355.732l13.02 9.402 3.696 23.228-37.948.124 10.681-17.343z"/><path fill-rule="evenodd" clip-rule="evenodd" fill="#5d4063" d="M226.402 312.482l1.982 21.557-3.066 31.095-23.571 6.009-7.313-30.857z"/><path fill-rule="evenodd" clip-rule="evenodd" fill="#7f5a87" d="M183.018 324.571l-7.762 10.253 6.552 27.691 19.939 8.628-1.067-30.839z"/><path fill-rule="evenodd" clip-rule="evenodd" fill="#9776a1" d="M206.389 335.98l-5.709 4.324-14.305-2.973-5.558-17.826-5.282 16.499-6.755-22.051 22.833-35.865 17.597 14.91z"/><path fill-rule="evenodd" clip-rule="evenodd" fill="#7f5a87" d="M206.521 274.462l-6.849 18.268 1.008 47.574 14.975-1.63 21.491-23.379z"/><path d="M173.843 287.956l25.829 14.079 20.591-14.587-14.277-37.699s-21.61 10.655-22.431 10.209c-.822-.449-9.712 27.998-9.712 27.998z" fill-rule="evenodd" clip-rule="evenodd" fill="#5d4063"/><path fill-rule="evenodd" clip-rule="evenodd" fill="#d8aac0" d="M193.359 252.972l4.164 9-11.148 75.359-36.955-16.784 38.567-70.663z"/><path fill-rule="evenodd" clip-rule="evenodd" fill="#d8aac0" d="M186.375 337.331l-42.31-9.538 2.284-8.595 3.071-5.628 28.627 13.016z"/><path fill-rule="evenodd" clip-rule="evenodd" fill="#9e627c" d="M167.974 241.832l-6.582 2.954-15.043 74.412 31.698 7.388 12.09-73.472z"/><path d="M200.344 247.876l-2.82 7.117 18.132 83.681 10.88-9.134s7.122-23.465 7.624-23.841c.5-.374 9.823-.095 18.702.117l-46.608-60.091-5.91 2.151z" fill-rule="evenodd" clip-rule="evenodd" fill="#d8aac0"/><path d="M215.655 338.674l46.476-15.097-2.956-9.618-6.314-1.164c-8.879-.213-18.355-.377-18.702-.118-.657.492-15.561 8.101-15.561 8.101l-2.943 17.896z" fill-rule="evenodd" clip-rule="evenodd" fill="#d8aac0"/><path fill-rule="evenodd" clip-rule="evenodd" fill="#7b4c61" d="M226.806 237.265l14.071 4.541 18.298 72.154-36.266 13.968-17.059-76.023z"/><path d="M169.652 243.033l20.484 17.059 7.387 1.881.928-25.629-22.553 1.048-6.246 5.641zm48.539-2.103l3.91-5.687-3.503.161-.407 5.526z" fill-rule="evenodd" clip-rule="evenodd" fill="#7f5a87"/><path fill-rule="evenodd" clip-rule="evenodd" fill="#5d4063" d="M197.523 261.972l8.327-3.091 12.341-17.951.408-5.525-20.148.938-4.824 5.75z"/><path fill-rule="evenodd" clip-rule="evenodd" fill="#565353" d="M168.646 232.018l-7.657 7.926-1.078 12.166 30.226 7.981-16.253-23.506zM233.924 230.273l7.12 5.065-.167 13.446-35.027 10.097 12.895-25.116 15.873-3.05z"/><path fill-rule="evenodd" clip-rule="evenodd" fill="#9e627c" d="M241.578 165.667l9.671-17.461 6.718 1.881 31.157 76.65-17.209 15.356-35.037-41.773z"/><path d="M244.465 210.129l5.461-49.829c-5.135-1.737-11.049-9.478-17.334-11.636-8.917-3.061-17.903-.457-20.615-1.559l-38.496 15.607 5.877 49.136 19.364 19.972 45.743-21.691z" fill-rule="evenodd" clip-rule="evenodd" fill="#ba8ca1"/><path fill-rule="evenodd" clip-rule="evenodd" fill="#9e627c" d="M181.674 231.213l11.953 10.88 47.417-6.755 3.421-25.209-54.609.872-10.499.847z"/><path d="M249.926 160.3l1.323-12.095-23.102-7.656-16.17 6.556c4.62 1.878 25.529 8.996 37.949 13.195z" fill-rule="evenodd" clip-rule="evenodd" fill="#7b4c61"/><path d="M141.071 170.758l12.987 45.109 25.279 16.195 10.519-21.061-5.63-46.409-11.903-9.771c-3.771.858-6.235 1.425-6.235 1.425l-17.279.621-7.738 13.891z" fill-rule="evenodd" clip-rule="evenodd" fill="#d8aac0"/><path fill-rule="evenodd" clip-rule="evenodd" fill="#ba8ca1" d="M154.059 215.867l6.93 24.077 32.638 2.149-3.771-31.092z"/><path d="M166.228 149.816l-12.357.806-15.849 9.537 3.05 10.599 25.017-14.512s2.464-.566 6.235-1.425l-6.096-5.005z" fill-rule="evenodd" clip-rule="evenodd" fill="#7b4c61"/><path fill-rule="evenodd" clip-rule="evenodd" fill="#b9879e" d="M190.001 154.518l-5.774 10.075-30.357-13.97 3.816-8.513 19.689.454z"/><path fill-rule="evenodd" clip-rule="evenodd" fill="#d6a6bd" d="M185.837 142.027l-2.686 9.806 1.076 12.76 43.919-24.043-5.048-7.483z"/><path fill-rule="evenodd" clip-rule="evenodd" fill="#d4aba5" d="M214.323 121.219l1.027 13.193-30.486 17.421-24.285-9.272 11.476-19.165 39.196-9.094z"/><path fill-rule="evenodd" clip-rule="evenodd" fill="#f3d8d4" d="M227.193 102.305l-4.095 30.762-19.294 9.287.798-9.287-3.151-3.543.834-38.534 13.239-16.25z"/><path fill-rule="evenodd" clip-rule="evenodd" fill="#d4aba5" d="M213.357 88.402l13.836 13.903 1.457-13.033-3.458-9.061z"/><path fill-rule="evenodd" clip-rule="evenodd" fill="#a9a6a5" d="M190.18 39.882l9.351-9.478 34.04 9.048-1.958 26.447-18.041 21.406-8.97 45.762-17.039 3.627-1.268-11.763z"/><path fill-rule="evenodd" clip-rule="evenodd" fill="#f3d8d4" d="M197.095 26.05l4.356 13.402 1.834 46.77-11.56 7.854-5.43-3.566-13.023-62.155 9.222-15.113z"/><path fill-rule="evenodd" clip-rule="evenodd" fill="#d6d4d3" d="M172.999 3.843l34.722-.824 25.85 36.433h-32.12l-13.486-13.57-7.781-12.64z"/><path fill-rule="evenodd" clip-rule="evenodd" fill="#f0f2f2" d="M125.99 29.077l-1.793-8.71 6.789-8.966L154.299 0l53.422 3.019-27.537 10.223-22.299 12.761z"/><path fill-rule="evenodd" clip-rule="evenodd" fill="#fef2f0" d="M124.197 20.367l-13.321 19.341 4.099 43.678 19.548 53.542 15.944 7.414 14.997-6.507 17.396-4.768 2.799-12.363 6.066-26.628-3.76-68.194-7.781-12.64-22.812 10.711-29.461 2.946z"/><path d="M123.746 70.259l-4.211 3.228 13.42 7.08 9.461 17.27 3.473-1.687 6.676 3.066 14.399-26.397 11.816-8.771s-8.993-1.99-9.446-2.799c-.451-.808-19.936 9.773-19.936 9.773l-2.224 3.718-2.064 3.25-2.932-2.737-2.402-2.3-16.03-2.694z" fill-rule="evenodd" clip-rule="evenodd" fill="#f2d6d2"/><path fill-rule="evenodd" clip-rule="evenodd" fill="#a9a6a5" d="M149.397 66.847l18.833-8.015 10.422 2.141.127 3.075-9.925-.677-19.457 7.651zM138.227 68.656l-14.272-.099-5.252 3.586.832 1.344 4.163-1.472 16.077.938z"/><path fill-rule="evenodd" clip-rule="evenodd" fill="#d4aba5" d="M142.178 116.887l9.895-5.343 17.048-1.018.534 1.913-17.091 1.48-9.877 4.976z"/><path fill-rule="evenodd" clip-rule="evenodd" fill="#fef2f0" d="M215.35 64.927l16.263.972-2.963 23.373-15.293-.87z"/><path fill-rule="evenodd" clip-rule="evenodd" fill="#d4aba5" d="M220.151 81.924l-.785-11.635 7.827.161z"/><path fill-rule="evenodd" clip-rule="evenodd" fill="#8f5b73" d="M160.153 178.899l11.149-5.909 14.445 4.138-13.37 6.876zM214.148 174.602l-16.281-4.458-12.12 6.984 13.494 4.324zM165.214 222.439l12.76-6.313 13.016 4.234-12.211 6.377zM218.404 218.678l-16.254-4.836-11.16 6.518 12.773 4.497zM162.738 200.199l11.149-5.909 14.444 4.137-13.37 6.877zM215.524 195.364l-15.073-3.921-12.12 6.984 13.491 4.324z"/><path d="M166.046 74.035c0 1.979-1.605 3.584-3.584 3.584-1.98 0-3.584-1.604-3.584-3.584s1.604-3.585 3.584-3.585c1.978 0 3.584 1.606 3.584 3.585zM136.54 79.232c0 1.979-1.605 3.585-3.584 3.585-1.978 0-3.584-1.605-3.584-3.585 0-1.979 1.606-3.584 3.584-3.584 1.979 0 3.584 1.605 3.584 3.584z" fill-rule="evenodd" clip-rule="evenodd" fill="#33302d"/><path d="M191.725 94.076l-13.118 11.021-30.35-1.301-15.301 10.46-7.09-1.04 8.657 23.712 15.943 7.415 37.097-7.648 4.162-42.619zm-42.366 36.975l-7.182-14.164 9.895-5.343 17.048-1.018 4.359 15.605-24.12 4.92z" fill-rule="evenodd" clip-rule="evenodd" fill="#d6d4d3"/><path fill-rule="evenodd" clip-rule="evenodd" fill="#d4aba5" d="M145.192 94.637l-2.747 5.993 5.812 3.166 4.307-4.58z"/><path fill-rule="evenodd" clip-rule="evenodd" fill="#fef8f8" d="M142.178 75.253l.267 25.377 10.119-1.414-5.39-24.476z"/><path fill-rule="evenodd" clip-rule="evenodd" fill="#d6d4d3" d="M148.829 121.212l15.012-3.562-.934 11.323-7.29 2.283z"/><path fill-rule="evenodd" clip-rule="evenodd" fill="#f3d8d4" d="M156.539 82.283l12.01.094 9.554-5.245-8.219 10.49zM138.021 84.005l-5.065 4.762-8.759-1.145 9.811 5.178 4.904-5.178z"/><path fill-rule="evenodd" clip-rule="evenodd" fill="#f2d6d2" d="M138.227 68.656l3.951-5.499.862 7.102-3.265 2.694zM149.397 71.022v-4.175l-4.193-3.69.933 6.404z"/><path fill="#f3d8d4" d="M186.295 87.622L174.973 98.39l5.143 23.135z"/><path fill="#a9a6a5" d="M178.606 105.097l-2.163-.093 3.673 16.521 3.808-20.895z"/><path fill-rule="evenodd" clip-rule="evenodd" fill="#f3d8d4" d="M132.956 122.4l-2.343-13.719-6.867-5.665z"/><path fill-rule="evenodd" clip-rule="evenodd" fill="#a9a6a5" d="M132.956 122.4l-1.427-8.354-2.732-.4z"/></svg>