<svg xmlns="http://www.w3.org/2000/svg" viewBox="0 0 400 400"><path fill="#46382d" d="M136.938 50.704l-14.662 28.733 19.838 5.825 6.572-38.872z"/><path fill="#281b0e" d="M122.276 79.437l15.691 31.624 8.214-13.417-5.384-16.393z"/><path fill="#fff" d="M142.791 91.086l-6.363-10.263 6.048-6.989 1.236 10.688z"/><path opacity=".1" fill="#2b2b2b" d="M131.863 383.433l76.169-9.035 82.497 10.07L206.675 400z"/><path fill="#795d88" d="M190.096 373.771l-10.976 13.224 27.486.582 6.546-16.913 6.977 5.176 1.746-2.761-3.908-12.77-9.935-8.63-11.048 22.437zM229.472 366.782l5.441 11.477-5.441 14.493h-4.301v-15.186z"/><path fill="#e2c8c5" d="M217.824 317.715l-7.658 17.075 7.801 25.519-11.292 20.494 2.387 7.807 16.109 4.142 11.318-63.303z"/><path fill="#9075a0" d="M225.171 392.752l-18.496-11.949-6.584 11.949z"/><path fill="#c7a5a1" d="M158.955 312.542l35.724 39.483-4.583 21.746 16.579 7.032 2.387-28.087-7.828-17.864-15.335-24.73z"/><path fill="#a0847d" d="M236.489 329.449l-26.322 5.345-3.343-13.091zM158.955 312.542l42.279 22.311-6.277-18.36z"/><path fill="#c7a5a1" d="M260.155 152.348l8.977 67.46-23.662 6.731-10.877-29.322zM169.223 152.348l-23.452 61.087 27.714 14.867z"/><path fill="#96637c" d="M169.223 152.348l25.016-8.283 65.916 8.283-21.443 44.869-39.651 6.557-34.897-2.07z"/><path fill="#281b0e" d="M149.369 139.923l19.854 12.425 10.674-2.824h5.016l3.282-2.196 4.179-1.106-10.419-22.175z"/><path fill="#59493e" d="M142.791 91.086l-18.456 23.293 25.034 25.544 30.528-10.009z"/><path fill="#281b0e" d="M262.732 74.223V51.571L242.92 25.339 211.239 7.821l21.82 37.706z"/><path fill="#e2c8c5" d="M148.686 46.39l-7.889 34.861 9.002 44.392 30.098 4.271 16.808 20.45 26.151-6.213 26.324-33.565-1.715-25.54-16.806-49.355-35.84-15.187-12.864 2.073z"/><path fill="#a0847d" d="M194.819 20.504l-25.596 22.693 12.732-22.693z"/><path fill="#c7a5a1" d="M225.677 33.344l-11.931 60.883-17.041 38.185-4.804 22.698 34.642-4.832 22.637-39.692-1.715-25.54-16.806-49.355z"/><path fill="#a0847d" d="M179.897 129.914l38.328 5.697-26.324 19.499z"/><path fill="#c7a5a1" d="M205.107 63.906L178.74 83.708l-11.704-5.824-15.177-22.391 9.432-4.789 7.932 5.436 1.929 2.848 8.489 1.294 4.115-3.106 10.483-2.515z"/><path fill="#efdddc" d="M179.641 60.282l-3.988 8.283 3.087 15.143-14.576-2.07 7.824-13.073-.836-9.577z"/><path fill="#a0847d" d="M178.74 83.708l-7.888 5.178-6.688-7.248z"/><path fill="#594265" d="M154.131 92.803l16.463-1.717 21.351 6.471-13.205 13.504-16.549-2.157z"/><path fill="#fff" d="M158.247 95.227l28.468 4.013-8.618 8.154-14.791-2.028z"/><path fill="#c7a5a1" d="M178.74 83.708l13.205 13.849-4.503 16.484 9.263-17.686zM164.164 81.638l-10.033 11.165.129 14.163-4.891-15.88z"/><path fill="#484748" d="M183.371 57.434l10.868-4.012 10.868 10.484-10.868-7.248-9.454 2.588zM167.036 57.176l2.187-1.036-7.932-7.118-9.432 6.471 8.234-3.437z"/><ellipse cx="188.73" cy="68.522" rx="4.028" ry="4.053" fill="#2b2b2b"/><ellipse cx="161.291" cy="64.921" rx="4.028" ry="4.053" fill="#2b2b2b"/><path fill="#281b0e" d="M198.418 20.504h-16.463L187.7 7.215z"/><path fill="#46382d" d="M180.948 5.174L193.981.699l11.836.131 56.915 73.393-16.468-7.017-24.125-16.502z"/><path fill="#281b0e" d="M222.139 50.704l11.263 16.502-3.858 16.502 5.402 2.027 5.401-4.483 7.118 3.794 16.549 10.181 7.717-15.79z"/><path fill="#46382d" d="M211.239 7.821l37.251 9.574 14.242 34.176z"/><path fill="#59493e" d="M193.981.699L176.876.256l-42.51 33.088 15.262 8.68 19.595 1.173z"/><path fill="#281b0e" d="M169.223 43.197l-32.285 7.507-2.572-17.36z"/><path fill="#fff" d="M243.625 96.299l-4.913-7.413-13.541 8.758 7.374 15.531 3.119-2.902-5.092-10.362 6.69-5.72 2.327 5.703zM226.542 146.222l.001 4.056-.002 3.796-2.836 1.036-3.866-1.036-.842-6.903z"/><path fill="#fff" d="M219.839 154.074l-6.33 1.036 1.201 6.557 5.129.432 2.3-1.122v-3.451zM208.022 161.667h6.688l.943 3.365-2.144 3.193-3.342.863-3.343-1.553z"/><path fill="#fff" d="M201.162 163.22l5.662 4.315-4.633 5.349-5.486-3.796zM194.988 161.667l1.717 7.421h-7.204l-.858-5.868z"/><path fill="#fff" d="M191.901 155.11l-3.258 8.11-4.201-1.553-1.973-2.502.429-3.451 3.001-1.64zM185.899 154.074l2.295-6.746-8.297 2.196 2.572 3.256z"/><path fill="#cfcecd" d="M226.541 154.074l1.031 6.04-5.433.863-2.3-6.903zM214.71 161.667l7.429-.69-1.598 8.111-7.032-.863zM213.509 168.225v8.283l-6.685-1.208v-7.765zM206.824 175.3l-4.633-2.416-3.773 4.142 5.316 4.659zM189.548 175.026l7.157-5.938 1.713 7.938-6.044 2.934zM189.548 175.026l-.047-5.938-7.032-.863.686 7.075zM182.469 168.225l6.174-5.005-6.174-4.055-3.729 4.53zM182.469 159.165l3.43-5.091-6.002-4.55-3.258 5.586z"/><path fill="#734d61" d="M238.712 197.217l6.758 29.322-55.922 19.17-15.586-16.047-9.798-27.958z"/><path fill="#96637c" d="M171.452 255.778l65.814-28.881 16.635 28.646-47.077 19.374-41.968 9.418z"/><path fill="#734d61" d="M253.901 255.543l-17.412 73.906-77.534-16.907 5.901-28.207zM253.901 255.543l-49.532-9.834-32.917 10.069 4.118-18.995 29.537-15.735 40.363 20.38z"/><path fill="#e2c8c5" d="M145.771 213.435l26.131 10.35 10.053 3.112 4.76 13.462-42.236 1.501z"/><path fill="#c7a5a1" d="M186.715 240.359l17.654 5.35 11.909-16.15-11.171-1.257-25.466-1.763z"/><path fill="#a0847d" d="M204.369 245.709l21.832-11.919-14.042-3.195z"/><path fill="#e2c8c5" d="M269.132 219.808l-46.993-5.156-10.017 7.03.037 8.913 33.311 10.833zM211.239 213.435l-21.566.692-7.204 14.39 4.246 11.842 18.392-12.057 7.015-6.62z"/><path fill="#c7a5a1" d="M189.673 214.127l-17.771 9.658 14.813 16.574z"/><path fill="#795d88" d="M211.239 213.435l-6.132 14.867 7.052 2.293 9.98-15.943z"/><path fill="#46382d" d="M247.465 85.046l-14.92 28.129 16.635 13.374 23.843 3.021 7.879-29.686z"/><path fill="#281b0e" d="M232.545 113.175l40.478 16.395-14.24 10.353-18.521 2.589-13.721-5.35z"/><path fill="#46382d" d="M226.541 137.162l.002 13.116 33.612 2.07-1.372-12.425z"/><path fill="#734d61" d="M233.454 162.57l-.936 2.988-.966 1.368-.329 1.574.161 1.313 12.02 2.643.727-.873.33-1.564-.525-1.02.867-.605.365-1.729-.722-.744.99-.528.28-1.328-6.694-1.289z"/><path fill="#d1a1b8" d="M231.552 166.925l12.909 3.093.342-1.624-6.578-1.338-2.014-2.24 8.957 1.848.268-1.27-12.463-2.293-1.178 2.659zM231.223 168.501l-.351 1.684 12.952 2.856.307-1.457z"/><path fill="#795d88" d="M238.225 167.056l.797-4.28-6.349-1.224-.878 4.209z"/><path fill="#a0847d" d="M225.171 97.644v12.773l6.052 8.038 1.322-5.28zM239.589 99.894l-4.508 1.179-.177 7.654-4.332-8.816 6.69-5.72z"/></svg>