<svg xmlns="http://www.w3.org/2000/svg" viewBox="-152 -152 400 400"><path opacity=".1" fill="#2b2b2b" d="M61.855 223.6l70.112 11.578-73.656 12.57-76.811-12.901z"/><path fill="#785d88" d="M93.97 175.751l-4.09 34.758-12.681 19.446-3.227-19.39-10.203-34.814 11.924-15.121zM32.678 204.285l-7.694-34.12 19.814-6.145 9.077 11.731-5.171 28.552-12.195 16.231z"/><path fill="#9075a0" d="M64.768 129.57l33.506 7.4-4.304 38.781H63.769l-6.162-25.079zM25.443 172.198l-8.15-38.499 27.505-25.226 12.809 42.199-3.732 25.079z"/><path fill="#594165" d="M28.597 106.212l-15.448 7.911 4.144 19.576 40.314 16.973 40.667-13.702 2.661-23.976z"/><path fill="#734d61" d="M-9.835 53.086L17.293 6.744l-5.274 32.779 7.159 29.01z"/><path fill="#b07545" d="M4.861-51.657l-10.927-9.418-8.29-33.532 8.29-29.388 15.446 3.014-4.519 21.852z"/><path fill="#543042" d="M14.279 65.899l-28.635 10.172-22.983-53.504 5.652-11.679 7.16 3.769z"/><path fill="#b07545" d="M79.083 1.092l5.649-40.315 16.203-9.418 3.393 14.693-4.147 38.809-9.417 9.418z"/><path fill="#96637c" d="M8.627 40.276l8.666-33.532 29.766-8.29 32.024 2.638 21.098 3.769 1.131 45.211-10.925 33.909 10.548 29.013-23.736 20.721-26.748-25.242-17.333 19.592-19.969-13.942 6.405-21.853z"/><path fill="#b3879e" d="M24.828 48.189L17.293 6.744l21.1-6.03 40.69.378 21.098 3.769 10.552 25.244-11.964 27.859-50.203 2.281z"/><path fill="#fff" d="M38.393.714l40.69.378-2.257 27.88-24.491 7.913-14.695-9.796z"/><path fill="#cfcfcf" d="M76.826 28.972l-28.26 31.273L37.64 27.089z"/><path fill="#734d61" d="M19.554 92.27l29.012-32.025 41.821 23.736-39.936 24.492z"/><path fill="#7d4f26" d="M17.293 6.744l-4.144-24.867 12.434-8.29 10.926 10.927 10.55 13.94z"/><path fill="#b07545" d="M-4.183-72.001l-2.26 38.431 1.507 26.749L8.627 40.276l16.201 7.913 5.276-24.114-15.447-40.314 4.897-13.565L4.861-51.657z"/><path fill="#f0d1cc" d="M50.072-16.617l15.072-86.278 19.588-35.418 18.464 25.997-3.766 33.91-3.016 40.314L79.083 1.092 53.086 26.713 38.393.714z"/><path fill="#cfa39e" d="M38.393.714l-8.289-17.331 19.592-11.679 19.88 11.616 6.142 2.221-9.819 28.361-12.813 12.811z"/><path fill="#cc9161" d="M110.355-123.62l5.655 55.01-15.829 73.471.38-27.882.374-25.62-15.07-62.353 7.91-13.379z"/><path fill="#cfa39e" d="M100.935-48.641l-4.521 10.549-9.794-13.187z"/><path fill="#ffede8" d="M14.657-16.239L4.861-51.657v-78.367l79.871-8.289 1.133 27.319-3.287 63.208L69.576-16.68z"/><path fill="#b07545" d="M100.935-48.641L90.009-62.583l-3.767-4.519 5.651-17.709-6.028-26.183L116.01-68.61zM85.865-110.994l-7.156-8.857 9.794-13.94 21.852 10.171z"/><path fill="#9c6633" d="M27.466-145.848l35.04-5.275 23.359 14.693 24.49 12.81-31.646 3.769-32.781-3.391-19.97-9.419z"/><path fill="#cc9161" d="M85.865-136.43l-7.156 16.579-16.203-31.272z"/><path fill="#b07545" d="M-6.066-123.995l33.532-21.853 29.763 16.201-42.197 14.317z"/><path fill="#cc9161" d="M4.861-99.129l-10.927-24.866 63.295-5.652v8.288l-20.72 3.769z"/><path fill="#ffede8" d="M107.34-70.118l-13.938-3.391-6.782 22.23 14.315 2.638z"/><path fill="#f0d1cc" d="M31.988-92.347l1.883 6.028 1.13 7.535 6.405-7.91 4.9-5.653 15.072-1.13 12.809 10.549-19.969 1.13-14.695 21.1H29.35l-7.158-21.1-12.434-4.521 7.912-6.405z"/><path d="M52.335 32.363c6.404 0 6.404 9.42 0 9.42-6.407.001-6.407-9.42 0-9.42z" fill="#96637d"/><path fill="#cfa39e" d="M94.157-59.945l2.257-9.418 6.782 1.883z"/><path fill="#cc9161" d="M-6.131-28.029L4.861-51.657l-19.217-42.95zM-1.796.321l31.9 23.754-24.868 3.769-9.041-16.203z"/><path fill="#9c6633" d="M5.236 27.844L-8.327 12.772l4.144-16.955L-1.796.321z"/><path fill="#b0b0b0" d="M-6.131-28.029l12.542 5.332.837 9.078-4.286 8.288-3.255-8.538L-13.1-24.545z"/><path fill="#c9c9c9" d="M-15.36-18.14l2.26-6.405L.494-16.239 2.962-5.331h-8.527z"/><path fill="#cfa39e" d="M-23.174 16.443l-.474-13.485-6.783-5.275L-44.159 18.8l6.82 3.767z"/><path fill="#73c9cc" d="M-32.691-13.243l15.07-8.288 15.072 8.288-16.578 14.695-8.29-4.899z"/><path fill="#3ba1ba" d="M-18.752 10.117l-2.258-8.665 1.506-4.899 16.955-9.796.753 13.564z"/><path fill="#26788c" d="M-32.691-13.243L-33.822-.056l15.07 10.173-.752-13.564z"/><path fill="#fff" d="M-19.504-19.648l2.26 1.13-8.665 4.522 2.261 2.261 7.535-6.028 1.507 1.129-9.42 6.029-3.014-3.768zM-24.401-10.227l2.26-.378 8.666-5.652-1.885 7.16 6.029-3.769v-1.507l2.636 1.885-11.302 6.405 1.884-6.783-5.652 3.769v1.506z"/><path fill="#c9c9c9" d="M-30.431-5.33l-34.164 23.527 7.815 8.874 33.342-21.853z"/><path fill="#b0b0b0" d="M-27.583 1.452l-19.792 14.923-6.792 4.125-1.958 8.688 32.951-22.444z"/><path fill="#9c6633" d="M9.758-86.319l6.405-7.535 14.317-3.767 1.508 5.274-14.695 3.014zM47.811-97.998l-1.505 5.651 18.462 3.767 9.419 5.652-9.419-11.302z"/><path fill="#fff5f2" d="M29.35-60.698l4.521-25.621 7.535-.375-1.883 25.996z"/><path fill="#cfa39e" d="M34.624-55.801l-5.274-4.897h10.173z"/><path fill="#96637d" d="M18.423-42.236l12.434-8.29 4.144 1.13 3.769-1.506 18.459 6.405-5.649 2.639L31.988-39.6z"/><path fill="#fff" d="M24.828-42.236l9.796-4.144 15.827 4.144z"/><path fill="#b3879e" d="M35.379-39.976l15.072-2.26 6.778-2.261-21.097 12.433-17.709-10.172h6.405z"/><path fill="#543042" d="M31.61-38.092h8.29l10.551-4.144H24.828z"/><path d="M21.061-86.319c2.261 0 4.144 1.884 4.144 4.145 0 2.261-1.883 4.146-4.144 4.146s-4.144-1.885-4.144-4.146 1.884-4.145 4.144-4.145zM54.218-86.319c2.257 0 4.144 1.884 4.144 4.145 0 2.261-1.888 4.146-4.144 4.146-2.265 0-4.146-1.885-4.146-4.146s1.881-4.145 4.146-4.145z" fill="#2b2b2b"/><path fill="#f0d1cc" d="M42.537-59.945l12.81 5.275 6.782 10.551-4.9-13.942zM28.219-59.567l-7.158 4.521-5.651 11.302 3.013-13.187z"/><path fill="#7d4f26" d="M36.509-117.59l42.2-2.261-21.48-9.796z"/><path fill="#935d78" d="M98.769 57.964l20.139 9.214 11.308-3.299.828-24.029-30.863-34.989z"/><path fill="#543042" d="M151.248 10.888l-13.255 6.411-19.085 49.879 28.862 13.195 4.36-53.66z"/><path fill="#feeee9" d="M149.894-11.796l-11.901 29.095 10.248-1.648 6.247-9.895.471-15.668z"/><path fill="#eecec9" d="M166.62 14.59l-14.49 9.189-14.137-6.48 16.495-11.543 15.903 3.415z"/><path fill="#feeee9" d="M187.588 5.874l-17.197 3.297-18.261 14.608 23.797-3.18z"/><path fill-rule="evenodd" clip-rule="evenodd" fill="#543042" d="M89.88 210.509l5.586 10.913-1.863 19.413h-1.937l-2.363-15.162z"/><path fill-rule="evenodd" clip-rule="evenodd" fill="#efd0cc" d="M89.88 210.509l-15.908.056v18.196h13.105z"/><path fill-rule="evenodd" clip-rule="evenodd" fill="#734d60" d="M89.88 210.509l-4.653 15.103-8.442.028-2.813-15.075.009-.002h-.009l-6.803 30.272h24.497z"/><path fill-rule="evenodd" clip-rule="evenodd" fill="#efd0cc" d="M20.689 220.707l6.03 3.398 9.182-1.913 12.803-17.889-16.026-.018z"/><path fill-rule="evenodd" clip-rule="evenodd" fill="#543042" d="M51.59 232.594h-5.652v-11.617l2.766-16.674 5.562 15.533z"/><path fill-rule="evenodd" clip-rule="evenodd" fill="#734d60" d="M20.689 220.707l-8.677 11.887h21.703l18.795-17.663-3.806-10.628-16.409 16.664z"/><path fill="none" d="M32.678 204.285l-20.666 28.309"/><path fill="#f0d1cc" d="M-47.375 16.375l-7.5-9.631 21.847-16.066 7.713 6.648-8.882 11.283z"/><path fill="#ffede8" d="M-23.174 16.443l.674-10.13-2.815-8.987-12.024 5.888 3.142 5.395L-28.438 6l-4.253 7.227 3.084 5.998z"/><path fill="#8f8f8f" d="M-54.167 20.5l-10.428-2.303 8.47 10.991z"/><path fill="#785d88" d="M96.867-53.832l4.068 5.191-2.958 6.902-6.039-2.38-.956-6.356z"/></svg>