<svg xmlns="http://www.w3.org/2000/svg" viewBox="0 0 400 400"><path opacity=".1" fill-rule="evenodd" clip-rule="evenodd" fill="#34302d" d="M298.625 388.954l-69.922-8.944-66.1-.355-62.089 6.931L189.506 400z"/><path fill-rule="evenodd" clip-rule="evenodd" fill="#805c87" d="M268.093 363.62l11.155 20.658-19.803 2.77-15.295-2.77 3.179-19.071 8.474-4.238z"/><path fill-rule="evenodd" clip-rule="evenodd" fill="#5b5857" d="M249.126 267.614l3.572 10.843 8.334 76.269-2.457 9.62-11.246.861-18.039-44.159-6.753-24.702-2.647-35.49 24.042 3.043z"/><path fill-rule="evenodd" clip-rule="evenodd" fill="#7e7b7a" d="M246.489 262.313l-12.607 24.714 19.191 25.454 5.478 51.867 9.542-.728-3.857-96.174z"/><path fill-rule="evenodd" clip-rule="evenodd" fill="#5d4063" d="M259.617 162.503l-4.237 51.382 6.943 21.386 6.39 10.869 17.919-6.299-8.77-39.45z"/><path fill-rule="evenodd" clip-rule="evenodd" fill="#805c87" d="M299.486 241.116l-.966-43.902-9.534-2.12-11.124 5.297-9.149 45.749z"/><path fill-rule="evenodd" clip-rule="evenodd" fill="#eaeaea" d="M298.52 185.029v12.185l-20.658 3.177 2.649-13.771 9.535-4.768z"/><path fill-rule="evenodd" clip-rule="evenodd" fill="#a47e75" d="M269.387 176.024l6.669.083-.313-11.735-8.475-9.006-4.238 9.535z"/><path fill-rule="evenodd" clip-rule="evenodd" fill="#c9a8a2" d="M295.873 154.836l2.647 30.193-18.009 1.591-13.243-31.254z"/><path fill-rule="evenodd" clip-rule="evenodd" fill="#5d4063" d="M155.264 162.503l2.118 31.254-6.676 35.974-17.58 11.114-6.467-15.836 5.298-27.014z"/><path fill-rule="evenodd" clip-rule="evenodd" fill="#805c87" d="M111.297 194.287l10.594-2.12 10.066 5.828 1.169 42.85-31.856-8.19z"/><path fill-rule="evenodd" clip-rule="evenodd" fill="#eaeaea" d="M131.957 184.751v13.244l-20.66-3.708 2.649-13.243h9.006z"/><path fill-rule="evenodd" clip-rule="evenodd" fill="#a47e75" d="M148.376 162.503l-3.705-6.886-8.476 7.946.225 10.956 7.034-1.756z"/><path fill-rule="evenodd" clip-rule="evenodd" fill="#c9a8a2" d="M144.671 155.617l-25.834-.987-4.891 26.414 18.011 3.707z"/><path fill-rule="evenodd" clip-rule="evenodd" fill="#805c87" d="M264.236 267.446l-23.227 17.887-50.234 11.932 4.746-63.251 4.201-13.955 46.123-35.837-6.407-25.156 20.179 3.437z"/><path fill-rule="evenodd" clip-rule="evenodd" fill="#86568f" d="M217.626 203.948h7.774v3.925h-7.774z"/><path fill-rule="evenodd" clip-rule="evenodd" fill="#ae8cbd" d="M226.362 203.948h7.774v3.925h-7.774z"/><path fill-rule="evenodd" clip-rule="evenodd" fill="#86568f" d="M235.1 203.948h7.774v3.925H235.1z"/><path fill-rule="evenodd" clip-rule="evenodd" fill="#5d4063" d="M243.835 203.948h7.774v3.925h-7.774z"/><path fill-rule="evenodd" clip-rule="evenodd" fill="#86568f" d="M217.626 213.799h7.774v3.926h-7.774z"/><path fill-rule="evenodd" clip-rule="evenodd" fill="#5d4063" d="M225.283 208.874H232.098v3.925h-14.472v-3.925z"/><path fill-rule="evenodd" clip-rule="evenodd" fill="#ae8cbd" d="M226.362 213.799h7.774v3.926h-7.774z"/><path fill-rule="evenodd" clip-rule="evenodd" fill="#5d4063" d="M223.368 218.726h5.11v3.926h-10.852v-3.926zM233.175 208.874h9.699v3.926h-9.699z"/><path fill-rule="evenodd" clip-rule="evenodd" fill="#86568f" d="M235.1 213.799h7.774v3.926H235.1zM229.672 218.726h11.508v3.926h-11.508z"/><path fill-rule="evenodd" clip-rule="evenodd" fill="#ae8cbd" d="M243.835 208.874h7.774v3.926h-7.774z"/><path fill-rule="evenodd" clip-rule="evenodd" fill="#5d4063" d="M243.835 213.799h7.774v3.926h-7.774z"/><path fill-rule="evenodd" clip-rule="evenodd" fill="#ae8cbd" d="M242.181 218.726h9.429v3.926h-9.429z"/><path fill-rule="evenodd" clip-rule="evenodd" fill="#5d4063" d="M239.02 170.421l20.79-2.75-16.643-6.589z"/><path fill-rule="evenodd" clip-rule="evenodd" fill="#9c78a5" d="M238.52 166.496l21.288 1.114-.362-5.162-19.777-5.241z"/><path fill-rule="evenodd" clip-rule="evenodd" fill="#9876a1" d="M182.475 161.779l-27.211.724-7.557 111.459 17.582 12.003 30.982 6.181 1.731-66.373-26.847-44.729z"/><path fill-rule="evenodd" clip-rule="evenodd" fill="#5d4063" d="M156.503 205.666l24.122 1.563.13 8.61-25.013-2.385z"/><g fill-rule="evenodd" clip-rule="evenodd"><path fill="#5b5857" d="M178.309 272.998l2.325-2.537 1.754-38.582-1.754-2.423-2.72 2.22-1.72 38.998z"/><path fill="#4a4542" d="M190.836 222.649l-4.851-6.747-8.734-.397-6.359 5.998 6.16 2.835 6.936.881z"/><path fill="#4a4542" d="M189.81 226.48l-.87-2.984-18.048 2.273 6.943 7.713 4.465.323z"/></g><path fill-rule="evenodd" clip-rule="evenodd" fill="#5d4063" d="M203.845 237.369l-6.139-5.574-5.656 5.319 5.37 5.608zM178.783 169.748l-23.921-1.316 21.705-4.798z"/><path fill-rule="evenodd" clip-rule="evenodd" fill="#9c78a5" d="M154.862 168.432l22.805-2.996-.703-8.565-21.7 5.632z"/><path fill-rule="evenodd" clip-rule="evenodd" fill="#ae8cbd" d="M249.736 185.811l-10.067-28.604-25.955 27.544-15.892 41.317zM176.964 156.871l8.677 24.173 12.181 45.024-35.49-43.966z"/><path fill-rule="evenodd" clip-rule="evenodd" fill="#ccc9ca" d="M199.941 177.335l13.773 3.179 6.406 8.862-9.365 15.413-20.929-2.894-4.447-15.102 3.439-6.809z"/><path fill-rule="evenodd" clip-rule="evenodd" fill="#a47e75" d="M243.138 132.243l-5.265 20.016-37.932 42.028-22.978-37.416-8.483-19.529 61.41-1.063z"/><path fill-rule="evenodd" clip-rule="evenodd" fill="#4a4542" d="M210.74 179.828l-6.561 11.809-4.238 2.65-4.237-3.179-6.886-11.124 11.123-2.649z"/><path fill-rule="evenodd" clip-rule="evenodd" fill="#5b5857" d="M210.755 204.789l-6.576-13.152-8.475-.529-5.878 10.787 7.996 24.173z"/><path fill-rule="evenodd" clip-rule="evenodd" fill="#7b4c60" d="M244.325 318.117l-15.367 73.155-10.28 2.873-10.444-8.807 3.707-94.289 4.504-8.74z"/><path d="M211.65 257.686l13.979-9.144 21.351 17.535 6.094 46.403-12.612.551s-22.636-10.135-20.911-11.429c1.723-1.293-7.901-43.916-7.901-43.916z" fill-rule="evenodd" clip-rule="evenodd" fill="#7b4c60"/><path fill-rule="evenodd" clip-rule="evenodd" fill="#d9aac1" d="M170.236 309.66l-34.782-6.82 13.879-52.871 76.296-1.427 10.652 55.666-22.718 5.24z"/><path fill-rule="evenodd" clip-rule="evenodd" fill="#9e637c" d="M219.713 307.489l10.671 4.965-11.706 81.691-56.092-1.38-16.653-80.788 20.686-3.331z"/><path fill-rule="evenodd" clip-rule="evenodd" fill="#6b394f" d="M230.384 312.454l13.941 5.663 8.748-5.636-16.792-8.273-100.827-1.368 10.669 10.054z"/><path fill-rule="evenodd" clip-rule="evenodd" fill="#c9a8a2" d="M239.668 157.207l11.721-44.422-5.248-42.693-7.566 6.486-8.212 41.671-13.305 22.286 18.639.739-28.869 37.651z"/><path fill-rule="evenodd" clip-rule="evenodd" fill="#e7cdca" d="M147.085 114.341l14.241 24.74 55.732 1.454 19.569-18.829 3.468-42.392 2.436-34.067-9.126-24.942-5.477-4.259-62.049-1.825-12.169 5.474-7.301 14.602-2.432 29.201z"/><path d="M224.888 71.405h-29.203l-6.021 10.072 5.783 8.112 7.844-9.969 21.597-1.523v-6.692zm-72.394 6.086l-.611-7.299 25.553.093 6.029 15.39-5.908 3.927-6.064-10.708-18.999-1.403z" fill-rule="evenodd" clip-rule="evenodd" fill="#c9a8a2"/><path fill-rule="evenodd" clip-rule="evenodd" fill="#c1bebd" d="M264.055 25.797l-3.222 44.546-14.046 8.364-6.692.607 1.654-32.628-2.683-10.906-5.661-15.475 7.3-9.734z"/><path fill-rule="evenodd" clip-rule="evenodd" fill="#d2d1d2" d="M238.359.802l25.696 24.995-24.989 9.983-15.418-17.55-2.106-12.83z"/><path fill-rule="evenodd" clip-rule="evenodd" fill="#b8b4b2" d="M240.106 28.211l6.061 4.732-4.418 13.743-2.683-10.906z"/><path fill-rule="evenodd" clip-rule="evenodd" fill="#eceeec" d="M164.232 0l74.127.802-6.802 9.306-8.289 5.802-54.045 1.047-6.69-5.474z"/><path fill-rule="evenodd" clip-rule="evenodd" fill="#d2d1d2" d="M146.409 16.199L164.232 0l4.991 16.957-18.009 13.979-3.587-1.204z"/><path fill-rule="evenodd" clip-rule="evenodd" fill="#c1bebd" d="M143.977 63.498l7.237-32.562-4.805-14.737z"/><path fill-rule="evenodd" clip-rule="evenodd" fill="#a47e75" d="M251.389 112.785l-8.881-17.54 6.457-.184 6.42 2.169z"/><path fill-rule="evenodd" clip-rule="evenodd" fill="#e7cdca" d="M245.316 68.294l15.517 2.051-5.448 26.885-12.877-1.985z"/><path fill-rule="evenodd" clip-rule="evenodd" fill="#a47e75" d="M250.79 73.769l5.158.88-6.373 11.896z"/><path fill-rule="evenodd" clip-rule="evenodd" fill="#4b4949" d="M224.888 55.683l1.825 3.955-30.939 9.871-.905-4.745zM153.71 53.553l24.336 11.255-1.029 4.084-25.74-11.688z"/><path fill-rule="evenodd" clip-rule="evenodd" fill="#837e7d" d="M226.713 69.372l-30.939.137-4.882 4.863 1.249 5.835 6.485-7.313 24.742-.177-.308 16.73-30.75.157.415 2.921 33.683.268zM181.057 74.534l-4.039-5.642-26.652-.435V91.27l31.279 1.878-4.209-2.18 2.943-1.197-26.974-1.618V71.729l22.314.737 4.736 8.658z"/><path d="M190.892 74.372l-9.835.163-5.444 23.43 9.734 1.824 12.774-1.824c-.001-.001-7.6-23.6-7.229-23.593z" fill-rule="evenodd" clip-rule="evenodd" fill="#f3e2e2"/><path fill-rule="evenodd" clip-rule="evenodd" fill="#a47e75" d="M185.346 104.655l12.774-6.691h-22.507zM194.684 113.572l5.023 9.974-27.927-1.899 6.483-8.529z"/><path fill-rule="evenodd" clip-rule="evenodd" fill="#fff" d="M192.432 116.207l2.812 5.004-18.229-.843 2.642-4.446z"/><path fill-rule="evenodd" clip-rule="evenodd" fill="#eaeaea" d="M220.12 189.376l19.549-32.169-39.728 20.128zM176.964 156.871l22.977 20.464-14.562 9.458z"/><path fill-rule="evenodd" clip-rule="evenodd" fill="#5d4063" d="M244.15 384.278h35.098v4.682H244.15z"/><path d="M186.004 14.154c-.02.659-18.675-3.632-18.675-3.632l-16.115 20.415 18.009-13.979 16.781-2.804z" fill-rule="evenodd" clip-rule="evenodd" fill="#c1bebd"/><path fill-rule="evenodd" clip-rule="evenodd" fill="#b8b4b2" d="M222.057 18.274l-52.834-1.316-1.893-6.437 64.227-.413 14.61 22.835-7.101 2.837z"/><path d="M159.18 207.079l-.611 5.015 1.1.146.275-2.024 2.058-1.906-2.822-1.231zm.948 2l.132-.962.7.488-.832.474zm1.894 1.172l.921-2.075 1.527-.597 1.312.483.621 1.859-.556 2.235-1.914.612-1.623-.793-.288-1.724zm2.892-.75l-1.22.024-.134 1.505 1.225.087.129-1.616zm1.812-1.375l.565 4.666 1.177.164.695-1.709.314 1.811.91.092 1.895-4.724-1.273-.129-.868 2.77-.182-1.482-1.025-.242-.678 1.498-.23-2.949-1.3.234zm5.848.072l3.054.347-.136 1.391-1.981-.236-.073.725 1.688.171-.148 1.1-1.648-.201-.07.69 1.817.183-.167 1.344-2.971-.344.635-5.17zm4.475.714l-1.303-.207-.351 5.195 2.767.208.163-1.271-1.677.038.401-3.963z" fill-rule="evenodd" clip-rule="evenodd" fill="#f1f4f4"/><circle cx="159.267" cy="164.673" r="1.655" fill-rule="evenodd" clip-rule="evenodd" fill="#5d4063"/><path d="M164.309 165.173c.911 0 1.655-.743 1.655-1.655 0-.911-.744-1.655-1.655-1.655s-1.655.744-1.655 1.655c0 .912.743 1.655 1.655 1.655zM169.351 164.018c.911 0 1.655-.744 1.655-1.655s-.744-1.655-1.655-1.655c-.912 0-1.656.744-1.656 1.655s.744 1.655 1.656 1.655zM244.516 164.057c.911 0 1.654-.743 1.654-1.654 0-.912-.743-1.655-1.654-1.655-.911 0-1.655.744-1.655 1.655-.001.911.743 1.654 1.655 1.654zM249.903 164.98c.911 0 1.655-.743 1.655-1.654 0-.912-.744-1.656-1.655-1.656s-1.654.744-1.654 1.656c0 .911.743 1.654 1.654 1.654zM255.292 165.904c.911 0 1.654-.744 1.654-1.655 0-.912-.743-1.655-1.654-1.655s-1.655.744-1.655 1.655c0 .912.744 1.655 1.655 1.655z" fill-rule="evenodd" clip-rule="evenodd" fill="#5d4063"/><path fill-rule="evenodd" clip-rule="evenodd" fill="#817b7a" d="M170.892 221.503l19.944 1.146-1.026 3.831-18.918-.711z"/><path d="M172.355 78.894c0 2.574-2.086 4.661-4.66 4.661s-4.661-2.086-4.661-4.661c0-2.574 2.086-4.66 4.661-4.66s4.66 2.086 4.66 4.66zM217.336 79.314c0 2.574-2.085 4.661-4.66 4.661-2.574 0-4.661-2.086-4.661-4.661 0-2.574 2.087-4.66 4.661-4.66 2.575 0 4.66 2.087 4.66 4.66z" fill-rule="evenodd" clip-rule="evenodd" fill="#33302d"/></svg>