<svg xmlns="http://www.w3.org/2000/svg" viewBox="0 0 400 400"><path opacity=".1" fill="#2b2b2b" d="M99.591 388.341l83.714-14.606 89.547 13.655-87.51 12.61z"/><path fill="#ffeee9" d="M108.213 203.878l-10.311 3.456-7.366 10.951 2.706 10.386 11.544-11.23z"/><path fill="#54b08b" d="M142.476 169.007l-27.279 40.615 23.992 28.788 5.461-36.69z"/><path fill="#35785d" d="M137.768 232.015l-14.558-14.443-9.16-2.087-14.459 20.352 18.005 21.269 22.953-12.576z"/><path fill="#cea39f" d="M115.197 209.622l8.012 7.949-5.635 9.659-5.361-2.348z"/><path fill="#709d53" d="M124.45 232.703l.926 8.147-4.959-6.53-21.763-54.285 4.033-1.617z"/><path fill="#99c26d" d="M106.397 199.349l5.681-15.023-10.743-32.104-15.674-16.273 7.604 30.645z"/><path fill="#bfdb8e" d="M85.661 135.949l-4.847 19.758 13.171 29.679 12.412 13.963z"/><path fill="#efd0cb" d="M115.197 209.622l2.377 17.608-17.983 8.607-6.349-7.166 14.971-24.793z"/><path fill="#aaa" d="M245.069 273.67l32.845 12.175-12.543 18.595-23.415-14.57z"/><path fill="#ddd" d="M245.348 264.076l23.373 5.251-4.935 19.251-18.933-7.486z"/><path fill="#54b08b" d="M249.246 158.997l13.19 1.588 14.244 61.746-34.142-8.578z"/><path fill="#3f8f6f" d="M276.68 222.331l-31.332 41.745-8.497-34.253 8.411-18.129z"/><path fill="#35785d" d="M183.973 366.044l-1.446 18.729h-18.273l5.668-10.327z"/><path fill="#2f6b51" d="M257.914 332.213l-22.444 13.178-91.191-11.189-9.69-56.932 30.282-18.621 49.678 3.617z"/><path fill="#5a753d" d="M134.589 277.27l24.475 58.746 18.295 8.55 11.807-4.856 6.83-32.584z"/><path fill="#709d53" d="M181.593 307.979l21.921 33.491 16.209 8.171 15.747-4.25 1.67-30.605-38.575-41.304z"/><path fill="#738d56" d="M151.985 288.246l29.608 19.733 20.928-21.365-44.916-23.497z"/><path fill="#a5a5a5" d="M145.427 53.769l-9.392 10.475 5.668 19.995 5.625-13.729zM164.189 27.906l-15.829-4.523-2.933 30.386 12.831-10.77z"/><path fill="#686868" d="M261.668 115.775l4.002 12.257-25.725 1.523.633-10.334 10.807-10.209z"/><path fill="#7a7a7a" d="M271.423 96.087l-9.755 19.688-13.479-1.024 2.191-14.415 12.403-11.837z"/><path fill="#ffeee9" d="M159.373 31.103l-13.946 22.666-8.827 72.232 18.096 4.389 24.035 18.595 41.522 6.641 37.071-62.434-11.253-5.702-11.411 16.325-11.545-4.413-1.12-25.05 16.739-30.84-11.463-15.337-24.262 2.162-28.721-7.035z"/><path fill="#efd0cb" d="M227.271 28.175l-33.779 111.932-38.796-9.717 29.127 17.022 39.025 10.805 11.511-10.34 5.585-18.322.634-10.334 7.611-4.47 13.363-23.995-16.828-7.558-9.916 16.968-7.085-2.857-.948-22.148 17.698-33.081z"/><path fill="#efd0cb" d="M199.828 67.292l-27.746 24.756-8.976-8.658-10.284-26.146 7.483-4.265 8.907 3.009.094 3.01 9.394 1.901 1.529-2.547 10.613.918z"/><path fill="#cea39f" d="M248.189 114.751l-12.844-5.517 4.6 20.321zM241.303 104.149l5.495-12.883 7.148 3.216zM172.082 92.048l-9.172 8.007-4.475-11.019z"/><path fill="#fff5f3" d="M178.7 60.899l-6.618 31.149-7.799.462-5.848-3.474 10.871-30.038z"/><path fill="#cea39f" d="M153.117 103.729l25.085 5.613-1.033 4.065-25.085-5.613z"/><path fill="#efd0cb" d="M187.494 78.297l7.52 5.231-2.948 10.978zM158.438 71.521l-10.247 3.627-.139 8.566z"/><ellipse transform="translate(-.3481 .9179)" cx="186.531" cy="71.265" rx="3.588" ry="4.893" fill="#2b2b2b"/><ellipse transform="rotate(-68.943 158.4641133 65.14997577)" cx="158.47" cy="65.146" rx="4.893" ry="3.588" fill="#2b2b2b"/><path fill="#cea39f" d="M153.245 130.038l52.901 11.684 16.702 16.495-47-2.57-15.415-19.803z"/><path fill="#a5a5a5" d="M176.595 25.351l13.184-13.609L211.601.439l9.296 9.46-7.03 13.245-10.729 9.371z"/><path fill="#c9c9c9" d="M211.601.439l-27.304 7.623-5.179 6.313-2.523 10.976zM220.897 9.899l20.662 3.145-3.884 11.056-10.404 4.075-24.133 4.34z"/><path fill="#a5a5a5" d="M227.271 28.175l14.288-15.131 20.132-.194 16.597 33.32-24.814-4.623z"/><path fill="#b7b7b7" d="M270.718 65.753l5.832 20.11-40.496-30.016 8.29-15.945z"/><path fill="#878787" d="M227.271 28.175l51.017 17.995-7.57 19.583z"/><path fill="#939393" d="M236.054 55.847l40.496 30.016-5.127 10.224-26.841-12.581-9.693 18.02-10.197-1.579 2.083-24.786z"/><path fill="#a5a5a5" d="M176.595 25.351l-17.222 5.752.141-8.381 13.377-16.714 11.406 2.054z"/><path fill="#c9c9c9" d="M172.891 6.008L148.36 23.383l11.013 7.72z"/><path fill="#7a7a7a" d="M199.828 67.292l1.939-1.828-7.919-8.465-11.953-3.252-1.666 4.605 9.882 1.598zM169.212 55.988l1-4.864-9.686-.558-8.552 5.09.848 1.588 7.937-2.745z"/><path fill="#f4f4f4" d="M181.584 151.787l-10.294 18.36 1.6 23.019 26.551-10.419 22.968-24.53z"/><path fill="#c9c9c9" d="M203.731 172.909l-25.765-3.902-2.629-8.003 6.247-9.217 31.486 13.776-1.257 5.817zM188.254 182.322l-10.288-13.315-6.325 9.066 1.249 15.093 12.281-4.819z"/><path fill="#a0cf7e" d="M172.89 193.166l-12.189 50.171 2.289 30.671 18.261 17.561 34.556-8.05-27.758-85.247z"/><path opacity=".2" fill="#2b2b2b" d="M188.051 244.995l.618 25.439 13.852 16.18 33.809 43.02.81-14.848-24.537-48.771z"/><path fill="#bfdb8e" d="M172.89 193.166l-9.9 80.842-11.005 14.238-17.396-10.976 18.265-57.008z"/><path fill="#35785d" d="M222.409 158.217l26.837.78-3.898 105.079-28.129 8.301-37.366-4.423-5.149-55.305 6.615-16.644z"/><path fill="#3f8f6f" d="M245.348 264.076l12.566 68.137-78.061-64.259zM167.757 193.47l-3.029 17.618-12.783 54.19-17.356 11.992 7.887-108.263 10.404-5.728 28.704-11.492z"/><path fill="#54b08b" d="M176.368 230.526l7.365-.436 4.005-4.39 4.412 4.479-3.95 5.329-3.811-2.974-7.703 1.41zM178.123 249.379l5.721-.339 4.207-4.045 4.51 4.118-4.607 5.249-3.97-2.964-5.553 1.281z"/><path fill="#99c26c" d="M159.064 336.016l30.102 3.694-5.193 26.334-11.751-1.578-4.594-6.167z"/><path fill="#bfdb8e" d="M203.514 341.47l31.956 3.921-.74 24.573-9.128-2.001-7.548-1.919z"/><path opacity=".2" fill="#2b2b2b" d="M174.704 212.649l47.083 5.745 27.459-59.397-38.827 33.527zM164.728 211.088l-14.117-1.121.382-10.45 1.887-36.238 7.107 30.651z"/><path fill="#54b08b" d="M239.945 129.555l9.301 29.442-34.703 49.141-39.839 4.511-1.814-19.483 49.519-34.949z"/><path fill="#72c9a6" d="M160.433 135.844l-7.553 27.435-1.887 36.238 13.735 11.571 8.162-17.922 8.694-41.379z"/><path opacity=".2" fill="#2b2b2b" d="M222.409 158.217l21.587-13.928-4.051-14.734z"/><path fill="#3f8f6f" d="M235.815 383.331l.707 8.713h-32.623l7.625-14.006 17.12-5.956zM183.973 366.044l-19.719 18.729h-33.349l24.478-17.528 13.357-7.422 7.105 2.346z"/><path fill="#54b08b" d="M211.524 378.038l24.291 5.293-1.085-13.367-16.676-3.92zM167.628 358.299l8.217 3.87-11.377 10.129-9.085-5.053z"/><path fill="#3f8f6f" d="M220.211 369.964l11.708 3.843-.731 5.218-13.537-3.087zM164.746 360.405l5.429 2.597-5.671 4.759-5.54-3.132z"/><path fill="#bababa" d="M222.552 195.874l-10.158.601-3.438 51.963 7.038 2.842z"/><path fill="#969696" d="M246.739 216.917l6.464 4.907-20.977 32.837-8.102.48 17.772-35.049z"/><path fill="#969696" d="M247.804 190.327l9.921 6.347-17.52 25.92-4.063-1.892z"/><path fill="#a3a3a3" d="M227.086 233.205l25.702-47.534-31.251 1.851z"/><path fill="#bababa" d="M257.725 196.674l-17.793 1.299-21.474 54.583 7.596 2.47z"/><path fill="#eaeaea" d="M221.537 187.522l-7.69 62.891 5.057 5.037 21.028-57.477z"/><path fill="#969696" d="M220.223 198.267l10.112 6.107.488-.81-10.474-6.326zM219.496 204.213l8.853 5.644.508-.799-9.233-5.885zM218.72 210.559l7.366 4.839.519-.792-7.756-5.096zM217.972 216.681l6.283 4.232.53-.785-6.684-4.501z"/><path fill="#3f8f6f" d="M233.465 252.721l-32.293-9.45-2.305 6.954 32.977 9.285z"/></svg>