<svg xmlns="http://www.w3.org/2000/svg" viewBox="0 0 400 400"><path fill-rule="evenodd" clip-rule="evenodd" fill="#699b47" d="M220.032 126.867v14.784l-13.831 21.463-27.547-6.192-6.794-5.255.494-5.866 27.647.62z"/><path fill-rule="evenodd" clip-rule="evenodd" fill="#9cce7a" d="M139.905 190.776l-19.554-1.907 6.2-20.032 4.293-7.63-3.225-5.815.223-2.809.869-1.475-.548-2.175.238-2.814.517-.377-.238-3.132.256-3.82 18.124-10.493 17.887 5.246 2.357 2.757-14.487 28.466-2.179 16.71z"/><path fill-rule="evenodd" clip-rule="evenodd" fill="#46af85" d="M128.68 142.61l40.191-10.144 7.752 3.634-9.319.2-38.903 9.819zM149.92 162.637l7.633-5.724 4.166-11.174-34.1 9.653-1.034 13.025zM128.163 148.933l38.754-10.144-1.567 3.834-37.508 9.96z"/><path fill-rule="evenodd" clip-rule="evenodd" fill="#699b47" d="M146.786 211.59l-1.634-6.982-12.182 7.688 1.213 9.003 7.154 6.533zM261.525 377.738l-52.267-2.275-90.216-11.883 77.393-11.1 57.459 19.533z"/><path opacity=".1" fill-rule="evenodd" clip-rule="evenodd" fill="#2c2b2b" d="M272.734 389.138L189.355 400l-87.128-14.97 97.296-9.78z"/><path fill-rule="evenodd" clip-rule="evenodd" fill="#757574" d="M236.927 384.451l-7.769 4.528-18.225-.745-5.63-3.783 5.94-26.734 9.228-2.167 7.057 7.056zM186.408 357.153l.28 22.683-11.073 1.467-25.075.135-10.935-1.602 27.45-22.146 10.751-3.762z"/><path fill-rule="evenodd" clip-rule="evenodd" fill="#98c166" d="M119.042 363.58l4.649-28.289 8.107-3.338 64.637 20.527.445 5.35z"/><path d="M261.525 377.738l-3.933-5.96 4.26-2.608.047-1.19-1.326-2.361 1.469-1.365.059-1.526-2.492-2.171 2.633-1.482 3.365-87.859-1.696-5.557 2.172-6.871h.001l.213-5.531-9.54-7.151-63.434-13.833-1.429-18.6-33.863-25.756-6.677 9.538-.833 3.995-5.367 3.16-18.203 110.841.935 2.271-1.474 1.018-.304 1.851 2.206 3.173-2.746.116-.343 2.089 2.89 4.826-4.421 4.498 137.831 42.445zm-53.416-194.592l15.259 24.863-10.21-.457-40.829-18.455 9.825-25.999 10.661 2.907 15.294 17.141z" fill-rule="evenodd" clip-rule="evenodd" fill="#bcda89"/><path fill-rule="evenodd" clip-rule="evenodd" fill="#efeeed" d="M160.212 225.046l2.5-4.598 3.433 2.271.909 1.513-1.827 3.696z"/><path fill-rule="evenodd" clip-rule="evenodd" fill="#46af85" d="M224.62 214.64l-.146 3.831-32.512-7.962-20.814-29.896.873-2.279 3.605 2.423 18.961 26.673zM265.28 279.712l-.146 3.831-35.666-8.672-26.86-38.057.874-2.279 3.605 2.423 25.006 34.834z"/><path fill-rule="evenodd" clip-rule="evenodd" fill="#98c166" d="M253.671 224.462l8.332 9.716 4.293 19.076-20.509-6.198z"/><path fill-rule="evenodd" clip-rule="evenodd" fill="#9cce7a" d="M225.755 151.732l-17.646 14.244-14.308-1.431-1.97 2.921 27.008 38.812 5.009-7.394z"/><path fill-rule="evenodd" clip-rule="evenodd" fill="#98c166" d="M225.755 148.329l-1.907 8.107-14.307 14.309-25.757-4.769-6.676-4.769.046-5.445 27.616 3.536 15.262-17.647z"/><path fill-rule="evenodd" clip-rule="evenodd" fill="#46af85" d="M244.083 252.698l-60.299-86.722-5.723 6.677.556 7 58.808 84.262 28.181 7.298.476-12.427z"/><path fill-rule="evenodd" clip-rule="evenodd" fill="#46af85" d="M265.51 273.729l-.148 3.831-32.51-7.962-20.814-29.896.873-2.279 3.606 2.424 18.96 26.673zM261.525 377.738l-137.834-42.447 1.532-9.325 136.629 43.203z"/><path fill-rule="evenodd" clip-rule="evenodd" fill="#eecec9" d="M150.638 181.476l-30.287 7.393 4.294 19.794 7.887 6.271 26.445-19.215-2.378-11.619z"/><path fill-rule="evenodd" clip-rule="evenodd" fill="#bcda89" d="M107.95 228.456l33.387-.624-20.986-38.963z"/><path fill-rule="evenodd" clip-rule="evenodd" fill="#eecec9" d="M167.304 136.3l1.218 32.537-11.445 5.723-7.157-11.923z"/><path fill-rule="evenodd" clip-rule="evenodd" fill="#cea19c" d="M150.638 181.476l-.718-18.839 16.218 11.923-7.161 21.159z"/><path fill-rule="evenodd" clip-rule="evenodd" fill="#eecec9" d="M162.469 171.864l-3.492 23.855 12.286.448 4.412-8.729 8.109-21.462-12.398-2.862z"/><path fill-rule="evenodd" clip-rule="evenodd" fill="#feeee9" d="M188.555 224.637l-26.059-25.478-1.071.484-2.448-3.924 16.698-8.281 22.656 10.015-2.372 16.387z"/><path fill-rule="evenodd" clip-rule="evenodd" fill="#9cce7a" d="M182.831 237.041l15.5-39.588 20.508 8.825 15.023 12.638 11.925 28.14z"/><path fill-rule="evenodd" clip-rule="evenodd" fill="#bcda89" d="M223.848 156.436l-5.009 49.842 26.948 40.778 10.969-20.51-3.339-15.74-19.555-44.353z"/><path fill-rule="evenodd" clip-rule="evenodd" fill="#9cce7a" d="M297.774 181.238l-17.989 41.604-2.327 2.638-.181 2.651-1.161 2.656-3.332 1.6.772 4.625-1.345 3.268-6.959 2.569 1.044 10.405-11.986-27.337-30.462-69.481 36.723 5.724z"/><path fill-rule="evenodd" clip-rule="evenodd" fill="#bcda89" d="M270.588 134.498l27.186 46.74-73.926-24.802 20.031-15.738z"/><path fill-rule="evenodd" clip-rule="evenodd" fill="#46af85" d="M276.116 230.787l-30.513-67.052-3.641-3.197.053 1.993 31.541 74.481zM279.785 222.842l-27.208-56.768-3.642-3.196.052 1.993 28.29 63.26z"/><path fill-rule="evenodd" clip-rule="evenodd" fill="#9cce7a" d="M273.927 67.727l-3.339 66.771-46.74 21.938-6.067-28.437 19.421-32.133z"/><path fill-rule="evenodd" clip-rule="evenodd" fill="#bcda89" d="M262.003 31.956l11.924 35.771-21.242 21.857-2.606-.396-4.479 7.686-4.582 4.715-14.786-24.325-3.815-20.032 20.985-21.938z"/><path fill-rule="evenodd" clip-rule="evenodd" fill="#9cce7a" d="M236.248 6.201l25.755 25.755-39.586 25.276 2.384-31.953z"/><path fill-rule="evenodd" clip-rule="evenodd" fill="#bcda89" d="M121.306 73.926l10.492-5.724 12.029 3.907 3.233 29.48 10.772 30.756-28.896 6.445z"/><path fill-rule="evenodd" clip-rule="evenodd" fill="#9cce7a" d="M136.566 28.14l13.354 19.227-6.093 24.742-22.521 1.817z"/><path fill-rule="evenodd" clip-rule="evenodd" fill="#bcda89" d="M154.691 45.786l-3.338 13.832-8.61.014-2.788-7.801-3.388-23.691 13.832 3.338z"/><path fill-rule="evenodd" clip-rule="evenodd" fill="#9cce7a" d="M167.568 0l-2.629 25.511-10.248 20.275-18.125-17.646z"/><path fill-rule="evenodd" clip-rule="evenodd" fill="#6fc5a3" d="M139.362 30.861l2.192.176-.078 1.882-3.342 6.181-.59-4.124z"/><path fill-rule="evenodd" clip-rule="evenodd" fill="#bcda89" d="M236.248 6.201L167.568 0l-12.877 45.786 27.186 10.492 40.54.954z"/><path fill-rule="evenodd" clip-rule="evenodd" fill="#6fc5a3" d="M230.054 29.055l.66 2.674-1.893 1.866-67.809-10.527-1.209-1.033 2.351-3.034z"/><path d="M200.001 150.713l-27.647-4.912s-3.037-3.219-3.831-3.196c-.794.024-1.219-6.305-1.219-6.305l4.556-1.802 31.479.954 4.24 5.42-7.578 9.841z" fill-rule="evenodd" clip-rule="evenodd" fill="#cea19c"/><path fill-rule="evenodd" clip-rule="evenodd" fill="#eecec9" d="M229.461 115.429l-23.355 27.356-11.627-3.042 18.399-34.339 13.05-50.413 9.336 32.386z"/><path fill-rule="evenodd" clip-rule="evenodd" fill="#cea19c" d="M229.461 115.429l-1.32-13.84 5.3.498 3.084 4.882z"/><path fill-rule="evenodd" clip-rule="evenodd" fill="#feeee9" d="M235.264 87.377l-7.123 14.212 8.384 5.38 4.493-5.38-1.599-3.952-1.979-1.056-.072-4.007z"/><path fill-rule="evenodd" clip-rule="evenodd" fill="#cea19c" d="M237.368 92.574l-3.266 6.39 5.317-1.327z"/><path fill-rule="evenodd" clip-rule="evenodd" fill="#feeee9" d="M222.417 57.232l11.098 11.781-10.546 39.252-28.49 31.478-36.647-7.398-17.877-38.626 3.872-21.61-1.187-8.075 10.826-19.441z"/><path d="M203.339 63.911l-11.446-.478-7.791 2.394-1.569 12.549.107 10.573 28.658-22.356-7.959-2.682zm-24.636 1.286l-5.412-4.148-3.814-3.339h-13.354l15.144 28.258 8.859-8.457-1.423-12.314z" fill-rule="evenodd" clip-rule="evenodd" fill="#eecec9"/><path fill-rule="evenodd" clip-rule="evenodd" fill="#eecec9" d="M201.432 107.789l-17.037-15.1-2.807-3.072 2.789-2.022 5.685 4.857zM172.815 84.419l-2.861 6.677-12.877 9.061 8.844-10.782zM221.358 79.995l-8.603-3.339 7.003 7.763zM154.93 68.99l-7.154 1.907 2.144 4.331z"/><path fill-rule="evenodd" clip-rule="evenodd" fill="#7d7c7d" d="M211.299 66.593l-2.236-4.592-13.151-2.185-4.019 3.617zM173.29 61.049l-1.43-4.771-12.637-1.906-3.101 3.338z"/><path fill-rule="evenodd" clip-rule="evenodd" fill="#fef4f2" d="M184.395 92.689l-.098-26.869-5.594-.623-9.808 25.824 7.021 2.698z"/><path fill-rule="evenodd" clip-rule="evenodd" fill="#cea19c" d="M175.573 98.413l8.822-5.724-15.5-1.668zM193.322 108.027l-31.001-5.008 5.247 11.687 16.693 2.622z"/><path fill-rule="evenodd" clip-rule="evenodd" fill="#fff" d="M188.076 109.696l-21.461-3.338 2.623 5.962 14.069 2.623z"/><path fill-rule="evenodd" clip-rule="evenodd" fill="#6fc5a3" d="M143.827 72.109l9.838-27.414-2.607-5.085-2.942-.226-8.161 12.447z"/><path fill-rule="evenodd" clip-rule="evenodd" fill="#6fc5a3" d="M158.192 33.341l-3.113 3.935-1.442 7.483 68.779 12.473 6.086-11.354-2.333-2.489zM252.685 89.584l-14.816-42.217-4.96.328-10.493 9.537 18.602 44.357zM143.517 34.906l2.191.175-.078 1.883-6.347 10.171-.618-4.322zM228.273 35.629l.661 2.675-1.893 1.866-67.81-10.526-1.209-1.034 2.352-3.033z"/><path fill-rule="evenodd" clip-rule="evenodd" fill="#6fc5a3" d="M256.818 85.33l-2.367 2.437-14.362-41.818-8.351-5.589 11.618 3.501z"/><path fill-rule="evenodd" clip-rule="evenodd" fill="#46af85" d="M148.116 39.384l-.5-.487 6.021 5.862 4.555-11.418zM237.869 47.367l-11.7-3.978-3.753 13.843zM160.374 25.577l-1.143 4.067-13.601 7.32-2.113-2.058zM243.356 43.861l-3.267 2.088-13.048-5.779 1.232-4.541zM216.266 130.772l10.24-11.907 8.364 37.115-.953 3.834-10.069-3.378z"/><path fill-rule="evenodd" clip-rule="evenodd" fill="#46af85" d="M266.296 253.254l-42.448-96.818 9.256 1.443 5.079 3.367 34.028 79.034zM236.976 150.274l2.637-.01.985-1.69-6.62-38.555-4.517 5.41z"/><path fill-rule="evenodd" clip-rule="evenodd" fill="#feeee9" d="M183.784 165.976l-21.315 5.888 4.835-35.564z"/><path fill-rule="evenodd" clip-rule="evenodd" fill="#46af85" d="M261.899 367.979l-136.334-44.101.54-3.29 135.937 43.665z"/><path d="M187.839 252.603l57.948-5.547-62.956-10.016 5.008 15.563zm20.746-50.738l10.254 4.413 5.009-49.842-15.263 45.429zm-25.754 35.176l-9.086-26.884 14.183 13.868-5.097 13.016zm-23.854-41.322l-14.04 10.205-3.6 21.908 15.141-27.516.77-.064 1.729-4.533z" opacity=".15" fill-rule="evenodd" clip-rule="evenodd" fill="#070908"/><path fill-rule="evenodd" clip-rule="evenodd" fill="#efeeed" d="M156.478 200.316l2.499-4.597 3.45 3.372-1.949 5.121z"/><path fill-rule="evenodd" clip-rule="evenodd" fill="#6fc5a3" d="M223.848 156.436l10.059-4.722 4.276 9.532zM242.015 162.531l3.588 1.204-5.005-15.161-3.622 1.7z"/><path d="M176.634 234.453l-7.87-.239.238-6.2-5.3-.118-2.331 1.31 4.292 8.108 7.394.716 1.931 4.342 1.896-1.188-.25-6.731zm-7.743 7.437l1.067 14.503-1.891 1.686-1.211-4.787-.239-12.639 2.274 1.237zm-7.041-5.053l-6.924-1.664 1.146-1.047 7.209.088-1.431 2.623z" fill-rule="evenodd" clip-rule="evenodd" fill="#e5e6e5"/><path fill-rule="evenodd" clip-rule="evenodd" fill="#fff" d="M174.638 236.479l-7.503-.496-.278-6.539-5.484-.239.281 6.413-6.728-.446-.653 5.562 7.018.553-1.077 16.792h7.854l-.689-16.31 7.61.602z"/><path fill-rule="evenodd" clip-rule="evenodd" fill="#5e5f5f" d="M139.64 387.071h47.082l-.034-7.235h-47.083zM205.422 391.088h31.624l-.119-6.637h-31.624z"/><path fill-rule="evenodd" clip-rule="evenodd" fill="#6fc5a3" d="M260.908 81.224l-2.368 2.437-13.195-41.069-8.62-7.37 11.663 5.428z"/><path fill-rule="evenodd" clip-rule="evenodd" fill="#46af85" d="M248.388 40.65l-3.043 1.942-16.524-8.997 1.233-4.54zM162.154 19.001l-1.142 4.067-19.536 9.851-2.114-2.058zM242.721 147.578l2.635-.011.985-1.689-5.912-43.583-3.904 4.674z"/><path fill-rule="evenodd" clip-rule="evenodd" fill="#6fc5a3" d="M248.987 164.871l3.59 1.203-6.236-20.196-3.62 1.7z"/><path fill-rule="evenodd" clip-rule="evenodd" fill="#46af85" d="M262.101 362.726L126.41 318.738l.539-3.289 135.292 43.624z"/><path fill-rule="evenodd" clip-rule="evenodd" fill="#fff" d="M173.77 190.54l3.812-2.259 1.836 4.021-3.986 2.281zM173.43 202.818l-2.29-4.933 4.292-3.302 2.04 4.722zM175.842 207.839l-2.412-5.021-3.671 3.442 2.083 5.475zM174.255 216.756l-2.413-5.021-3.557 2.572 1.404 5.625z"/><path fill-rule="evenodd" clip-rule="evenodd" fill="#fff" d="M172.02 224.786l-2.331-4.854-3.544 2.787-.918 5.209z"/><path fill-rule="evenodd" clip-rule="evenodd" fill="#efeeed" d="M157.978 208.808l2.5-4.596 3.449 3.371-2.332 4.747zM159.095 216.927l2.5-4.597 3.449 3.373-2.332 4.745z"/><path d="M163.936 72.028c2.019 0 3.665-1.731 3.665-3.854 0-2.122-1.646-3.854-3.665-3.854-2.018 0-3.665 1.731-3.665 3.854.001 2.123 1.647 3.854 3.665 3.854zM198.62 77.469c2.018 0 3.665-1.732 3.665-3.854 0-2.123-1.646-3.854-3.665-3.854s-3.665 1.731-3.665 3.854c0 2.122 1.646 3.854 3.665 3.854z" fill-rule="evenodd" clip-rule="evenodd" fill="#2b2c2b"/></svg>