<svg xmlns="http://www.w3.org/2000/svg" viewBox="0 0 400 400"><path fill-rule="evenodd" clip-rule="evenodd" fill="#207455" d="M249.477 317.294l3.039-.076 9.961-5.079 5.293-100.686-24.34-8.976-10.893 73.639z"/><path fill-rule="evenodd" clip-rule="evenodd" fill="#236a4f" d="M238.59 293.373l7.341-1.29 6.585 25.135-8.34 7.599-10.17-15.543z"/><path fill-rule="evenodd" clip-rule="evenodd" fill="#6d6e6e" d="M245.896 285.455l38.637 37.617 28.405 23.233-62.314-68.619z"/><path opacity=".1" fill-rule="evenodd" clip-rule="evenodd" fill="#2c2b2b" d="M103.509 385.123l101.072 14.13 92.009-11.835-101.43-16.426z"/><path fill-rule="evenodd" clip-rule="evenodd" fill="#96a43a" d="M215.669 382.405l-7.163 2.578.717 6.877 36.243.286-.144-6.877L232 380.686z"/><path fill-rule="evenodd" clip-rule="evenodd" fill="#b8c742" d="M228.848 359.77l-6.446 7.02-13.896 18.193 36.816.286-4.583-18.909z"/><path fill-rule="evenodd" clip-rule="evenodd" fill="#96a43a" d="M163.671 372.233l-27.217 7.88-.143 7.305h29.795l6.304-4.728.429 4.441h12.321l-.431-8.307z"/><path fill-rule="evenodd" clip-rule="evenodd" fill="#b8c742" d="M177.424 349.885l-10.748 8.023-30.222 22.205 48.275-1.289-.859-13.18z"/><path fill-rule="evenodd" clip-rule="evenodd" fill="#96a43a" d="M227.129 306.05l-11.746 28.078 7.019 32.662 18.337-.43 3.437-41.543zM176.131 316.793l-8.452 10.46-1.003 30.655 17.194 7.736 9.759-30.401z"/><path fill-rule="evenodd" clip-rule="evenodd" fill="#3f8f6f" d="M211.371 286.138l-4.942 12.822 8.954 35.168 28.793-9.311 1.755-32.734-3.76-11.246-23.053-6.005zM204.639 290.006l1.79 8.953-12.8 36.283-25.95-7.99.714-29.116s12.746-27.532 11.605-27.039c-1.141.491 24.641 18.909 24.641 18.909z"/><path fill-rule="evenodd" clip-rule="evenodd" fill="#37785d" d="M191.889 276.253l-8.741 5.287 23.281 17.42 22.168-17.907-14.003-7.592z"/><path fill-rule="evenodd" clip-rule="evenodd" fill="#56893e" d="M201.415 273.281l3.687 7.844 10.352-.033 4.655-2.583.932 2.568 7.556-.024 4.119-4.262-4.728-17.909-26.143-1.289z"/><path fill-rule="evenodd" clip-rule="evenodd" fill="#699b47" d="M225.911 273.568l-7.343 2.327-3.114 5.197 5.587-.015zM199.229 251.471l5.909 9.312-.036 20.342-5.436.102-3.122-1.858-1.328 1.942-12.068.229-5.121-11.876 3.564-17.726z"/><path fill-rule="evenodd" clip-rule="evenodd" fill="#6ea649" d="M177.884 258.204l7.091.502 6.017 9.883-7.844 12.951-1.836-4.26 6.376-8.887-6.228-9.121zM204.261 256.842l-9.831 12.177 5.236 12.208-4.45.084-4.224-12.722 8.165-12.105z"/><path fill-rule="evenodd" clip-rule="evenodd" fill="#b5c436" d="M171.366 306.48l2.578 3.009 7.665 1.218.071-5.802-1.719-2.651-7.306-.072z"/><path fill-rule="evenodd" clip-rule="evenodd" fill="#d8e14d" d="M161.624 304.905l2.579 2.793 9.741 1.791 1.075-8.452-8.882-.574z"/><path fill-rule="evenodd" clip-rule="evenodd" fill="#e6e976" d="M167.784 296.739l-9.812 4.655-3.224 4.514 9.455 1.79 4.799-8.164z"/><path fill-rule="evenodd" clip-rule="evenodd" fill="#9da938" d="M168.071 290.006l-2.865 1.002-7.234 10.386 23.708 3.511.501-9.311-4.225-4.37z"/><path fill-rule="evenodd" clip-rule="evenodd" fill="#b5c436" d="M171.223 290.364l2.506 3.009 8.452 2.221.359-6.447-4.8-3.224-6.087.826z"/><path fill-rule="evenodd" clip-rule="evenodd" fill="#d8e14d" d="M164.06 288.717l1.146 2.291 8.523 2.365 3.438-8.309-10.457-.717z"/><path fill-rule="evenodd" clip-rule="evenodd" fill="#e6e976" d="M164.776 282.128l-6.303 1.717-2.722 4.586 9.455 2.577 5.014-9.023z"/><path fill-rule="evenodd" clip-rule="evenodd" fill="#8a9539" d="M180.534 252.474l4.626 6.535-2.62 30.138-24.067-5.302 14.541-26z"/><path fill-rule="evenodd" clip-rule="evenodd" fill="#d8e14d" d="M173.127 240.133l-2.293 4.477 2.293 5.284 64.208 6.806 8.596-6.735.643-10.596-12.248-3.442z"/><path fill-rule="evenodd" clip-rule="evenodd" fill="#b5c436" d="M173.014 257.845l52.288 5.014 18.766 2.078 2.364-5.587-.501-9.385-72.804-.071-2.314.445z"/><path fill-rule="evenodd" clip-rule="evenodd" fill="#444648" d="M212.267 244.523l-3.87.43-.153 16.149 14.479 10.926 2.937-5.66-11.818-6.087z"/><path fill-rule="evenodd" clip-rule="evenodd" fill="#6d6e6e" d="M226.018 269.878l-.716-7.019-16.905-17.906 3.511-4.624 3.786-.104 22.751 24.318z"/><path fill-rule="evenodd" clip-rule="evenodd" fill="#6d6e6e" d="M232.607 264.435l-7.305-1.576-6.734 13.036 10.579 1.81 8.044-6.108z"/><path fill-rule="evenodd" clip-rule="evenodd" fill="#444648" d="M246.359 264.149l.073-4.799-21.13 3.509 5.157 6.876 11.316-4.01z"/><path fill-rule="evenodd" clip-rule="evenodd" fill="#96a43a" d="M242.35 270.308l-11.891-.573-1.862 11.318 17.334 11.03.142-5.873z"/><path fill-rule="evenodd" clip-rule="evenodd" fill="#b5c436" d="M255.814 257.703l-9.382 1.647-15.973 10.385 15.472 22.348 16.257-24.353z"/><path fill-rule="evenodd" clip-rule="evenodd" fill="#96a43a" d="M261.401 225.399l-2.794 8.237-12.175 25.714 15.756 8.38 5.802-7.377z"/><path fill-rule="evenodd" clip-rule="evenodd" fill="#5a753d" d="M242.42 205.271l16.187 28.365 12.006-15.339-17.593-42.367z"/><path fill-rule="evenodd" clip-rule="evenodd" fill="#207455" d="M271.787 169.458l7.593 8.452-11.175 19.339-9.228-28.663z"/><path d="M282.388 256.414l4.298-19.197-22.634-71.053-7.121-5.68s-4.191 9.504-1.475 9.118c2.717-.387 11.531 106.509 11.531 106.509l13.108-11.389 2.293-8.308z" fill-rule="evenodd" clip-rule="evenodd" fill="#54b08b"/><path fill-rule="evenodd" clip-rule="evenodd" fill="#3f8f6f" d="M279.38 177.91l-24.604-11.243 1.558-6.33 15.453 2.102zM264.769 346.95l7.735 6.732 14.236-36.226-.055-80.24-15.186 26.217z"/><path fill-rule="evenodd" clip-rule="evenodd" fill="#6fc5a3" d="M267.49 327.897l-5.3 7.592.429 24.211 9.885-6.018-.43-22.346z"/><path fill-rule="evenodd" clip-rule="evenodd" fill="#8dcfb3" d="M268.206 304.976l-5.729 7.163-.287 23.35 9.884-4.153-.143-18.767z"/><path fill-rule="evenodd" clip-rule="evenodd" fill="#6fc5a3" d="M267.203 287.212l-4.726 3.869v21.058l9.454.43-.143-21.059z"/><path fill-rule="evenodd" clip-rule="evenodd" fill="#8dcfb3" d="M265.915 260.711l-3.727 7.019.289 23.351 9.311.429-.289-28.077z"/><path d="M262.762 228.049c-.143.716-4.154 5.587-4.154 5.587l3.581 34.094 9.311-4.297-4.153-28.508-4.585-6.876z" fill-rule="evenodd" clip-rule="evenodd" fill="#6fc5a3"/><path fill-rule="evenodd" clip-rule="evenodd" fill="#8dcfb3" d="M259.323 207.708l-2.722 6.375 2.006 19.553 8.739 1.289-3.153-21.772z"/><path fill-rule="evenodd" clip-rule="evenodd" fill="#6fc5a3" d="M257.175 186.506l4.153 4.872 2.865 21.775-7.592.93-2.846-23.474z"/><path fill-rule="evenodd" clip-rule="evenodd" fill="#8dcfb3" d="M244.712 165.878l4.726 24.926 4.371.144 7.519.43-4.397-30.894z"/><path d="M173.014 257.845l-15.595-26.803 4.634-10.012 13.368-1.101s3.187 14.389 1.96 13.85c-1.226-.539-4.255 6.354-4.255 6.354l-.112 17.712z" fill-rule="evenodd" clip-rule="evenodd" fill="#96a43a"/><path d="M162.34 208.138l-13.752 7.448 8.831 15.456 20.536-9.582s-.511-13.401.286-12.463c.797.938-15.901-.859-15.901-.859z" fill-rule="evenodd" clip-rule="evenodd" fill="#6e884a"/><path fill-rule="evenodd" clip-rule="evenodd" fill="#5a753d" d="M183.112 185.933l-8.694-19.559-25.83 49.213 25.255-1.24z"/><path fill-rule="evenodd" clip-rule="evenodd" fill="#56893e" d="M202.308 232.276l3.197 8.231 41.069-1.138 7.235-48.421-4.441-27.935-11.174-11.316-38.837 22.142z"/><path d="M217.601 166.094l-4.084 16.077 3.941-.892 4.155-16.475-4.012 1.29zm-5.693 74.235c1.262-3.205 5.389-11.17 5.389-11.17l-5.158-9.741 6.519-11.03-5.838-10.064.466-3.582 11.64-12.713 9.168 13.609-6.875 11.747 5.657 12.034-6.231 9.382 5.295 10.975-3.778.104-5.742-11.006 6.804-8.667-5.873-12.392 5.658-10.744-4.726-11.102-9.384 8.523 7.737 13.251-6.232 12.034 5.192 8.952s-4.509 8.187-5.899 11.496l-3.789.104zM192.396 158.065l-5.604 2.679-12.374 5.63-.575 47.973 4.156 14.7-4.872 11.086 5.517.064 3.287-1.33 1.012 1.379 12.749.147 1.676-1.423 2.869 1.476 5.268.061 1.226-32.194-.12-35.687z" fill-rule="evenodd" clip-rule="evenodd" fill="#699b47"/><path d="M190.186 159.121l6.793 14.809-5.587 11.746 7.449 11.102-4.871 19.196 3.373 4.732-6.954 10.382 5.302 9.305 4.545.053-5.621-9.286 7.097-10.667-5.02-7.526 4.943-18.336-5.945-8.667 4.553-10.284s-2.429-11.786-2.906-11.563c-.476.224-7.151-4.996-7.151-4.996z" fill-rule="evenodd" clip-rule="evenodd" fill="#6ea649"/><path fill-rule="evenodd" clip-rule="evenodd" fill="#6ea649" d="M188.67 158.96l-1.878 1.784-7.576 14.404 7.449 11.746-6.876 12.177 6.733 9.598-2.435 20.557 1.432 2.005-6.875 8.966 4.299.049 7.447-9.158-4.584-6.232 3.796-19.625-5.444-6.303 7.235-13.252-8.022-11.317 7.306-13.465z"/><path fill-rule="evenodd" clip-rule="evenodd" fill="#3f8f6f" d="M240.348 157.87l-3.081 4.027-28.359 24.207-3.107 1.104-31.958 27.139-.716 25.786 33.604-31.82.585-2.363 1.91-.132 47.705-45.334-11.784-2.899z"/><path fill-rule="evenodd" clip-rule="evenodd" fill="#b5c436" d="M193.757 162.219l12.974 26.921 34.531-30.039-1.663-2.827-2.712 4.535-29.791 25.299-11.334-24.104z"/><path fill-rule="evenodd" clip-rule="evenodd" fill="#cea39f" d="M199.592 137.53l-7.472 8.239-.192 5.513 11.46 18.121 3.223 3.223 9.384-6.088 14.755-24.64z"/><path fill-rule="evenodd" clip-rule="evenodd" fill="#5a753d" d="M228.529 142.328l-21.918 30.298 38.536-15.041 1.002-12.82-5.945-.143z"/><path fill-rule="evenodd" clip-rule="evenodd" fill="#6e5f51" d="M239.254 127.563l15.399 12.248 7.02-11.603z"/><path fill-rule="evenodd" clip-rule="evenodd" fill="#554537" d="M232.735 119.326l8.74 16.761 13.178 3.724-11.03-30.37z"/><path fill-rule="evenodd" clip-rule="evenodd" fill="#6e5f51" d="M237.033 119.04l4.442 17.047 15.92-39.026-4.298-1.433-14.326 14.756z"/><path fill-rule="evenodd" clip-rule="evenodd" fill="#b5c436" d="M283.877 70.595l5.643.823-2.472-10.743 6.447 11.46 25.068 5.014-18.191-19.053-31.723-19.576z"/><path fill-rule="evenodd" clip-rule="evenodd" fill="#d8e14d" d="M253.098 27.727l3.992-3.977 26.806 2.257-2.434 10.744 8.308-3.151 28.793 43.549-43.423-30.335z"/><path fill-rule="evenodd" clip-rule="evenodd" fill="#3f8f6f" d="M243.578 78.307l13.817 18.754 26.482-26.466-15.596-4.334z"/><path d="M254.387 68.267l.268 9.204 2.741 19.59-12.018 12.786-4.148-13.858s2.42-19.27 2.843-20.559c.422-1.29 10.314-7.163 10.314-7.163z" fill-rule="evenodd" clip-rule="evenodd" fill="#8b7a6e"/><path fill-rule="evenodd" clip-rule="evenodd" fill="#eecec9" d="M242.209 105.226l3.169 4.621-5.174 34.775-35.12 1.075 1.311-6.662 16.476-15.902 5.156-58.304 10.171 2.579z"/><path fill-rule="evenodd" clip-rule="evenodd" fill="#cea19c" d="M243.516 98.243l-8.273 4.154 10.135 7.45.609-5.73z"/><path fill-rule="evenodd" clip-rule="evenodd" fill="#6e5f51" d="M234.491 63.002l-4.195 6.484 2.189 18.442 7.178 1.134 9.045-5.288 5.946-6.303-1.826-5.229z"/><path fill-rule="evenodd" clip-rule="evenodd" fill="#6fc5a3" d="M226.146 9.569l-59.449-1.004 18.622 34.095 25.858.788 12.68-20.444z"/><path fill-rule="evenodd" clip-rule="evenodd" fill="#33a079" d="M241.152 44.853l33.988 1.961 8.737 23.781-29.223 6.876-24.358-7.985z"/><path fill-rule="evenodd" clip-rule="evenodd" fill="#33a079" d="M222.995 43.806V22.604L220.56-.747l36.53 24.497 18.05 23.064z"/><path d="M178.587 54.549c-.122-1 17.906-14.039 17.906-14.039L166.697 8.565l-18.194 37.532 30.084 8.452z" fill-rule="evenodd" clip-rule="evenodd" fill="#8dcfb3"/><path fill-rule="evenodd" clip-rule="evenodd" fill="#46af85" d="M151.941 45.954l44.552-5.444 26.502-17.906 52.145 24.21-44.844 22.672-81.076 6.122zM145.495 36.643l-8.022-9.168-52.861 17.62 25.5 34.667 11.173-5.587z"/><path fill-rule="evenodd" clip-rule="evenodd" fill="#33a079" d="M133.175 79.905l-23.063-.143 27.361-52.287 59.02 13.035-40.975 26.684z"/><path fill-rule="evenodd" clip-rule="evenodd" fill="#37785d" d="M170.564 69.735l-15.046-2.541-45.406 12.568 53.29 19.769z"/><path fill-rule="evenodd" clip-rule="evenodd" fill="#feeee9" d="M155.518 67.194l2.149 56.871 21.488 21.775 11.317-2.149 14.612 2.006 21.202-19.913 4.01-56.298-39.681-11.174z"/><path fill-rule="evenodd" clip-rule="evenodd" fill="#eecec9" d="M168.411 75.824l-7.592 4.225 10.411 6.668 8.211 16.504 6.733-7.199 7.234 6.913 11.608-17.382 12.387-6.864-12.39-3.653-12.392 4.154-4.799 4.764-1.289 2.471-1.433-2.471-3.725-4.907z"/><path fill-rule="evenodd" clip-rule="evenodd" fill="#6e5f51" d="M184.813 105.298l-14.039 8.165-.172 5.466 16.402-8.022 18.838 7.092-1.612-6.003-17.268-6.912z"/><path fill-rule="evenodd" clip-rule="evenodd" fill="#cea19c" d="M186.102 98.279l-6.661 4.942 7.378 4.871 6.589-5.157z"/><path fill-rule="evenodd" clip-rule="evenodd" fill="#6e5f51" d="M188.037 137.245l-8.882 8.595 25.929-.143z"/><path fill-rule="evenodd" clip-rule="evenodd" fill="#fef4f2" d="M185.1 83.954l-5.659 19.267 13.967-.286-5.586-18.981z"/><path fill-rule="evenodd" clip-rule="evenodd" fill="#cea19c" d="M175.501 117.744l11.604-2.669 10.78 1.934 3.116-.572.859 1.324-3.188 2.042-11.28-2.006-11.031 1.844z"/><path fill-rule="evenodd" clip-rule="evenodd" fill="#6e5f51" d="M183.309 123.062l11.03-.18-5.837 6.949z"/><path fill-rule="evenodd" clip-rule="evenodd" fill="#eecec9" d="M161.177 91.725l11.174 4.369-6.949 2.65zM208.953 96.381l11.53-5.945-4.082 7.878z"/><path fill-rule="evenodd" clip-rule="evenodd" fill="#6e5f51" d="M181.375 77.4l-11.961-2.722-9.383 4.226.788 1.145 8.738-2.506 11.818 1.504zM192.621 77.4l12.392-3.796 12.535 3.509-.145 1.576-12.319-2.543-12.463 3.044z"/><path fill-rule="evenodd" clip-rule="evenodd" fill="#eecec9" d="M210.468 83.954l9.572.62-6.151 1.686zM161.548 87.49l7.35-.96-2.881 1.919z"/><path fill-rule="evenodd" clip-rule="evenodd" fill="#feeee9" d="M237.105 83.058l-1.862 19.339 10.744 1.72 2.721-20.343z"/><path fill-rule="evenodd" clip-rule="evenodd" fill="#cea19c" d="M239.075 95.091l.788-8.094 6.338.144z"/><path fill-rule="evenodd" clip-rule="evenodd" fill="#5a753d" d="M192.12 145.769l14.491 26.857-30.226-18.121z"/><path fill-rule="evenodd" clip-rule="evenodd" fill="#d8e14d" d="M207.752 204.343l1.474 1.475-2.495 2.495-2.495-2.495 1.474-1.476v-6.845h-4.075l-1.708 1.707-2.496-2.495 2.496-2.496 1.671 1.672h4.112v-2.775l-1.474-1.475 2.495-2.495 2.495 2.495-1.474 1.475v2.775h4.112l1.671-1.672 2.496 2.496-2.496 2.495-1.707-1.707h-4.076z"/><path d="M206.422 83.183c0 1.561-1.265 2.825-2.825 2.825-1.561 0-2.825-1.265-2.825-2.825 0-1.561 1.265-2.826 2.825-2.826 1.56 0 2.825 1.265 2.825 2.826zM175.176 84.186c0 1.561-1.265 2.826-2.825 2.826-1.561 0-2.826-1.265-2.826-2.826 0-1.561 1.265-2.825 2.826-2.825 1.56-.001 2.825 1.264 2.825 2.825z" fill="#2b2b2b"/></svg>