<svg xmlns="http://www.w3.org/2000/svg" viewBox="0 0 400 400"><path opacity=".1" fill="#2b2b2b" d="M90.164 387.094l115.324-12.135 122.922 14.632L202.098 400z"/><path fill="#749d4e" d="M257.918 65.69l2.354 16.003L272.65 62.02l-2.086-14.511z"/><path fill="#666" d="M239.401 109.819l3.812 2.651 33.249-47.799-4.583 2.522-5.739 4.216zM257.884 122.675l3.811 2.651 33.249-47.799-4.582 2.522-5.74 4.216z"/><path fill="#709d52" d="M306.594 99.548l-15.822 3.36L304.91 84.46l14.33-3.092z"/><path fill="#99c26c" d="M286.367 85.479l2.353 16.002 12.379-19.673-2.086-14.51z"/><path fill="#666" d="M301.0927421 81.7980379l3.8114387 2.651153-33.247046 47.7977234-3.8114387-2.651153z"/><path fill="#99c26c" d="M266.14 71.409l2.354 16.003 12.378-19.673-2.086-14.511z"/><path fill="#709d52" d="M286.367 85.479l-15.822 3.36 14.138-18.449 14.33-3.092z"/><path fill="#666" d="M251.4405322 118.1989421l-3.8114387-2.651153 33.247046-47.7977234 3.8114387 2.651153z"/><path fill="#4f4f4f" d="M266.363 118.339l11.85 20.183-19.535 28.591-13.442-14.141z"/><path fill="#6f7173" d="M278.213 138.522l-25.531-16.98 13.681-3.203 17.408 12.048z"/><path fill="#44622d" d="M259.841 139.051l18.585 71.626 5.178 65.586 5.473 89.736-20.159 2.031-9.232 4.133-30.092-.433-58.218-6.43-25.173-8.57-20.794-7.169 34.094-128.854-5.177-67.195z"/><path fill="#efd0cb" d="M137.242 248.778l1.182 19.668-9.821-10.263z"/><path fill="#cea39f" d="M126.211 275.423l5.341-3.017-6.143-3.372-1.117 1.836z"/><path fill="#36785d" d="M154.326 153.512l-28.745 54.454 13.123 11.784 15.766-2.857 16.302-60.592z"/><path fill="#efd0cb" d="M280.641 256.634l2.963 19.629 17.122-7.042 6.428-16.872-14.551-1.246zM278.052 235.388l-9.284 21.246 3.926 4.955 7.947-4.955 2.544-11.605z"/><path fill="#36785d" d="M278.052 235.388l2.589 21.246 26.513-4.285-8.034-21.147-10.319-2.681zM259.841 139.051l37.136 54.097-13.792 10.712h-14.417l-21.184-13.424.827-23.355z"/><path fill="#709d52" d="M268.768 203.86l9.284 31.528 21.068-4.186-2.143-38.054z"/><path fill="#a0cf7e" d="M273.302 219.257l9.883-20.872 14.839 13.349-9.223 21.518z"/><path fill="#709d52" d="M288.801 233.252l.276-17.433-5.892-17.434-.313 19.2z"/><path fill="#2a5e48" d="M241.045 217.851l15.573 37.366 29.356 57.279-32.447 21.613-67.919-5.644-33.476-8.472-27.553-9.912 16.135-40.125 14.464-46.18 3.704-14.036z"/><path fill="#36785d" d="M247.584 190.436l9.036 64.784-16.418-33.837 2.976-28.146z"/><path fill="#3a3a3a" d="M199.328 290.089l33.108 75.479 25.977 2.142-10.355-73.216-25.832-8.705zM199.328 290.089L171.376 365.3l-25.173-8.57 1.639-10.486 8.223-12.135-4.114-14.144 5.265-33.683 21.056-4.285z"/><path fill="#3a3a3a" d="M216.686 325.254l40.349 31.476 1.378 10.98-13.926 2.952-12.051-5.094z"/><path fill="#4f4f4f" d="M232.436 365.568l-10.21 21.111 19.322 1.968 22.582-1.968-5.717-18.969z"/><path fill="#3a3a3a" d="M222.226 386.679h41.904v5.713h-41.904z"/><path fill="#4f4f4f" d="M146.203 356.73l-30.8 21.203 28.192 1.609 27.781-1.609V365.3z"/><path opacity=".3" fill="#2b2b2b" d="M248.058 294.494l-44.899 5.399-3.831-9.804 20.655-2.379zM157.216 286.282l21.056-4.285 21.056 8.092-3.244 9.804z"/><path fill="#6f7173" d="M215.875 329.354l1.977 27.298 39.183.078-3.508-22.621zM185.112 328.34l-1.599 25.902-35.671-7.998 4.112-26.3z"/><path fill="#3a3a3a" d="M115.815 377.933h55.561v5.713h-55.561z"/><path fill="#738d56" d="M172.848 143.794l-12.184 13.691 2.424 49.89-1.085 18.293-.373 9.833-4.414 50.781 90.842 8.212-7.856-73.111 15.533-77.589-27.048-9.742z"/><path fill="#281b0e" d="M172.848 143.794l17.061.21-23.048-19.88-15.807 8.886z"/><path fill="#46382d" d="M134.972 110.741l-6.788 28.308 26.142 14.463 12.633.853 5.889-10.571-17.069-10.259z"/><path fill="#554e4a" d="M117.204 42.904l-15.046 39.197 17.28 25.919-1.178 35.348 31.981 17.882 4.085-7.738-22.604-15.642 3.25-27.129-4.928-15.289-15.317-19.512 4.711-20.251z"/><path fill="#281b0e" d="M119.438 55.689l-7.069 20.251 15.317 21.871h6.037zM174.52 6.105L196.546.608l25.25 18.262 3.485 15.71 26.314 23.564 4.707 53.048 10.061 7.147-6.522 20.712-2.748 6.87-6.726-8.39 4.762-13.603-14.139-16.102-1.767-34.758-32.793-45.361zM158.101 6.925L139.664 5.91l-10.997 10.604 19.245 5.694z"/><path fill="#554e4a" d="M146.514 13.961l20.052-12.175 43.398 23.564 30.634 46.834 1.571 34.463 15.513 16.205-7.315 14.679-7.039 4.022-3.514-5.716-12.767-26.635 5.302-32.083-16.299-7.78-8.443-32.401-20.699-2.946-20.047-20.029z"/><path fill="#feeee9" d="M132.398 26.823l-12.96 28.866 8.248 42.122 4.958 5.708 5.491 12.835 10.464 18.571 18.262-3.535 34.169 13.661 31.811-7.181-11.782-56.26-22.975-38.881-38.292-26.215z"/><path fill="#efd0cb" d="M198.084 42.729l2.946 48.012 2.651 38.292-23.472 10.706-7.361 4.055 11.701 10.717 7.518 28.452 13.675-26.634-4.418-1.964 31.517-16.495-11.782-56.26zM182.276 61.286l-20.324 29.259-34.856-17.477 7.266-5.989 12.152-.757 9.551-1.879 13.055-4.335z"/><path fill="#fff5f3" d="M156.065 64.443l-.102 10.687 5.989 15.415-10.898 2.16-.246-16.691-4.294-9.692z"/><circle cx="169.241" cy="69.263" r="3.756" fill="#2b2b2b"/><circle cx="138.927" cy="75.498" r="3.756" fill="#2b2b2b"/><path fill="#46382d" d="M156.065 64.443l.929-4.335 13.255-3.829 12.027 5.007-13.156-1.178zM146.514 66.322l-2.186-3.563-12.42 1.684-4.812 8.625 7.266-5.989z"/><path fill="#baa09e" d="M161.952 90.545l9.474 1.571 29.604-1.375 10.014 9.52-6.185 27.447-37.365 3.935-18.895 3.282-16.792-29.8 12.839-7.314 6.408-5.106z"/><path fill="#89726f" d="M161.952 90.545l-4.664 7.118-6.234-4.958z"/><path fill="#967a78" d="M201.03 90.741l16.316-15.415 3.713 6.284-4.418 41.242-13.209 3.523z"/><path fill="#89726f" d="M167.493 131.643l49.148-8.791-9.398 22.43-5.919 9.083-6.967-5.618zM145.704 108.715l30.083-5.196.942 3.715-30.06 5.288zM151.054 92.705l-6.408 5.106.124 8.248zM161.952 90.545l9.474 1.571 3.094 7.758zM131.807 105.125l1.173-2.598 2.38.574 2.776 13.255z"/><path fill="#efd0cb" d="M127.686 97.811l7.265 3.338.409 1.952-3.553 2.024z"/><path fill="#89726f" d="M191.465 90.152l-4.557 1.326 2.045 16.542 5.174-16.958z"/><path fill="#efd0cb" d="M196.022 84.849l-9.114 6.629 7.219-.416z"/><path fill="#cea39f" d="M144.77 32.816l-12.224 3.286-11.147 29.602-1.961-10.015 13.463-23.822zM144.77 32.816l20.324 1.41 22.241 16.918 11.124-2.627 2.571-1.811-17.017-5.155-19.506-20.372z"/><path fill="#46382d" d="M144.77 32.816l2.923-13.946-19.026-2.356-17.673 16.298 8.444 22.877 13.463-23.822z"/><path fill="#35291b" d="M229.405 106.844l5.302-30.904-16.299-8.959-9.622-32.401-21.878-2.946-20.047-20.03-20.347 2.357-1.744 18.855 19.984-7.266 22.041 20.717 11.664 2.25 4.652 18.366 14.411 18.265-.881 37.704 16.2 15.018 5.793 2.749 1.18-4.782z"/><path fill="#5a753d" d="M192.495 184.813l2.716 9.227 4.117 96.049-4.117-.372-4.144-95.32z"/><path fill="#99c26c" d="M184.5465539 211.7612173l19.1099559-.8876784.2319536 4.9935011-19.1099559.8876784zM183.8210666 200.10458l19.1099559-.8876784.2319536 4.9935011-19.1099559.8876784z"/><path fill="#3f8f6f" d="M230.831 136.196l-21.962 14.828 7.499 8.469 23.834 61.89 19.639-82.332zM172.848 143.794l-9.76 63.581-7.91 16.402-3.851-37.42 2.999-32.845z"/><path fill="#44622d" d="M211.072 153.512l39.295-11.652-10.553-6.023-11.127-1.785-28.656 14.997zM172.848 143.794l20.64 7.23-13.673 6.811-25.489-4.323z"/><path fill="#3f8f6f" d="M211.072 153.512l-6.461-13.886-13.544 3.402 6.621 7.427 1.64 11.248-.58 8.248 11.462-5.19z"/><path fill="#36785d" d="M211.072 153.512l-20.005-10.484 3.841 6.675 12.622 4.568-10.04 6.83 1.258 8.85z"/><path fill="#54b08b" d="M211.072 153.512l-16.715-4.765-14.542 9.088 17.794 5.546z"/><path fill="#74c7a5" d="M211.072 153.512l-15.861.887-15.396 3.436 15.383-1.198z"/><path fill="#4f5253" d="M259.841 139.051l-97.838 86.617 1.085-18.293 76.725-71.538z"/><path fill="#4f5253" d="M162.003 225.668l78.199-4.285 1.346 12.529-79.918 1.589z"/><path opacity=".21" fill="#2b2b2b" d="M202.575 262.625l14.193 17.004-3.212 11.746 12.206 1.104 5.134-11.911-13.36-17.407z"/><path fill="#3f3f3f" d="M227.883 269.722l3.013 10.846-6.228 5.221-7.9-6.16-3.212-13.924 5.757-2.544z"/><path fill="#4f5253" d="M213.556 265.705l14.327 4.017-2.946-11.114-19.449-6.829z"/><path fill="#636363" d="M205.923 228.88l7.633 36.825-10.981-3.08-5.154-20.361 1.907-6.419z"/><path fill="#74c7a5" d="M192.169 219.75l13.754 9.13-8.502 13.384-14.544-7.185z"/><path fill="#4f5253" d="M189 233.252l4.488-7.584 6.543 4.419-4.344 6.232z"/><path fill="#709d52" d="M125.581 207.966l-6.515 33.447 18.176 7.365 17.228-31.885z"/><path fill="#a0cf7e" d="M139.704 213.004l5.382 21.256-17.446 10.627-5.355-19.997z"/><path fill="#709d52" d="M139.855 213.792l-3.381 15.547-8.834 15.548 2.226-18.014z"/><g><path fill="#6b6b6b" d="M143.643 266.063l-6.889 10.451-39.327-25.927 2.397-5.583 4.493-4.867z"/><path fill="#545454" d="M100.057 232.192l-7.148 8.895-4.462 8.716 8.98.784 6.89-10.45z"/><path fill="#7a7a7a" d="M100.057 232.192l-11.61 17.611-1.885-13.875z"/><path fill="#cfcecd" d="M279.837 351.467l21.392 25.984-31.582-12.197-132.128-87.108 9.986-13.921z"/><path fill="#969696" d="M142.477 272.791l158.752 104.66-32.311-9.421-132.333-87.243z"/><path fill="#b2b2b2" d="M169.696 241.645l-26.139 31.858-18.978 36.578-9.32-6.145 46.322-68.435z"/></g><path fill="#36785d" d="M137.242 248.778l-11.833 20.256-8.564-3.329-12.528-10.576 14.749-13.716z"/><path fill="#efd0cb" d="M104.317 255.129l4.866 14.43 17.028 5.864-.802-6.389z"/></svg>