<svg xmlns="http://www.w3.org/2000/svg" viewBox="0 0 400 400"><path fill-rule="evenodd" clip-rule="evenodd" fill="#45622e" d="M154.667 203.948l-10.772-1.174 7.424 60.201 12.517 8.303 21.332-17.845-11.535-41.531z"/><path opacity=".1" fill-rule="evenodd" clip-rule="evenodd" fill="#2c2b2b" d="M93.195 383.019L205.115 400l101.691-15.382-93.916-8.359z"/><path fill-rule="evenodd" clip-rule="evenodd" fill="#308b69" d="M154.555 371.628l-11.397 7.463 30.95 3.887 7.649-11.123z"/><path fill-rule="evenodd" clip-rule="evenodd" fill="#337359" d="M143.158 379.091l-.182 3.87 28.105 1.582 3.18-3.779z"/><path fill-rule="evenodd" clip-rule="evenodd" fill="#207455" d="M190.527 381.638l-15.805-11.347-20.167 1.337 11.097 8.672 8.797 2.184z"/><path fill-rule="evenodd" clip-rule="evenodd" fill="#25604a" d="M171.081 384.543l24.665.842-5.219-3.747-24.875-1.338z"/><path fill-rule="evenodd" clip-rule="evenodd" fill="#5c8d3e" d="M219.985 379.042l-24.239 6.343-41.191-13.757 21.174-34.923 53.456 36.454z"/><path fill-rule="evenodd" clip-rule="evenodd" fill="#308b69" d="M247.682 386.874l-13.412 2.41-19.089-3.073 4.804-7.169 8.857-11.396 14.333 8.12 4.21 6.008z"/><path fill-rule="evenodd" clip-rule="evenodd" fill="#337359" d="M247.682 391.539l-32.328-.461-.173-4.867 32.358.663z"/><path fill-rule="evenodd" clip-rule="evenodd" fill="#207455" d="M247.088 372.01l.297 9.764-27.4-2.732 19.82-15.07z"/><path fill-rule="evenodd" clip-rule="evenodd" fill="#709d51" d="M242.357 355.085l14.603 14.488-36.975 9.469-62.637-33.914 37.872-42.608z"/><path fill-rule="evenodd" clip-rule="evenodd" fill="#738d56" d="M232.568 276.988l-32.676 21.955-2.383 17.771 59.451 52.859z"/><path fill-rule="evenodd" clip-rule="evenodd" fill="#7cb159" d="M173.737 263.491l-9.901 7.787-9.281 100.35 42.954-54.914z"/><path fill-rule="evenodd" clip-rule="evenodd" fill="#5a753d" d="M213.714 299.79l22.133 14.705 21.113 55.078-17.514-86.937z"/><path fill-rule="evenodd" clip-rule="evenodd" fill="#699b47" d="M172.053 243.273l-5.004 6.948-3.213 21.057 33.673 45.436 7.902-10.884 14.798-69.018z"/><path fill-rule="evenodd" clip-rule="evenodd" fill="#98c166" d="M175.421 231.784l-8.032 4.555-.34 13.882 22.311 11.891 35.075-22.056-9.218-14.143z"/><path d="M205.597 237.451c1.104.34-.354 62.98-.186 68.379l30.436 8.665-7.429-85.008-22.821 7.964z" fill-rule="evenodd" clip-rule="evenodd" fill="#45622e"/><path d="M168.683 188.59l-12.774 4.287 11.974 41.03 19.704 11.667 43.742-20.529s7.352-31.706 7.352-33.085c0-1.378-24.301-13.491-25.732-12.866-.972.423-16.499 6.4-26.398 10.206l-17.868-.71z" fill-rule="evenodd" clip-rule="evenodd" fill="#678c44"/><path fill-rule="evenodd" clip-rule="evenodd" fill="#a0a1a0" d="M157.87 207.368l5.689 28.873 5.073-5.884-2.439-13.937z"/><path d="M178.163 243.744c-.17-1.268-14.604-7.503-14.604-7.503l15.216-36.761 6.048-4.246 11.413 5.012 13.221 35.064-15.46 8.702-15.834-.268z" fill-rule="evenodd" clip-rule="evenodd" fill="#cdcccb"/><path fill-rule="evenodd" clip-rule="evenodd" fill="#a0a1a0" d="M202.516 250.331l-10.109 5.82-14.477-5.438-14.371-14.472 44.376.394z"/><path d="M256.831 179.401l7.199 3.981-11.029 34.157s-4.572-33.624-5.819-33.391c-1.247.234 9.649-4.747 9.649-4.747z" fill-rule="evenodd" clip-rule="evenodd" fill="#9d8d56"/><path d="M251.777 158.263l3.521 11.487 8.732 13.632-17.461 4.442s-3.479-19.376-4.29-19.146c-.809.231 9.498-10.415 9.498-10.415z" fill-rule="evenodd" clip-rule="evenodd" fill="#c1b170"/><path fill-rule="evenodd" clip-rule="evenodd" fill="#e1ce7f" d="M245.343 139.27l7.582 1.838 2.374 28.643-10.722 10.109-9.648-34.003z"/><path fill-rule="evenodd" clip-rule="evenodd" fill="#b6a763" d="M243.588 122.575l1.531 1.455 7.806 17.078-7.482 15.967-25.22-1.319 18.77-39.002z"/><path d="M233.555 127.936l5.531 6.125 6.411 23.205-16.384 5.439s-6.508-25.879-5.898-25.81c.613.072 10.34-8.959 10.34-8.959zM246.911 111.661l-1.792 12.369-6.033 10.031-14.841-28.622 24.627-8.061z" fill-rule="evenodd" clip-rule="evenodd" fill="#9d8d56"/><path d="M239.3 99.293c-.373.202 1.274 3.254 1.274 3.254l4.545 21.482 9.457-19.913-15.276-4.823z" fill-rule="evenodd" clip-rule="evenodd" fill="#c1b170"/><path fill-rule="evenodd" clip-rule="evenodd" fill="#cea19c" d="M238.61 98.91l1.964 3.637-6.866 12.139-4.73-12.631z"/><path fill-rule="evenodd" clip-rule="evenodd" fill="#709d51" d="M227.422 179.706l1.411 12.592 3.883 26.735 2.899 20.104 28.261 10.415-18.379-92.286z"/><path fill-rule="evenodd" clip-rule="evenodd" fill="#99c26b" d="M155.909 192.878l3.828-3.798 1.839 6.928 17.199 3.472 17.461.766 32.73-4.731 16.531-38.249-19.687-10.99-63.818 8.973-1.404 19.909z"/><path fill-rule="evenodd" clip-rule="evenodd" fill="#a0a1a0" d="M162.158 185.089l6.916-4.532 4.877.161 7.315 4.831z"/><path fill-rule="evenodd" clip-rule="evenodd" fill="#cdcccb" d="M160.627 200.981l-4.718-8.103 4.157-12.521 3.102.037 4.609-.686 1.297.849-7.643 15.753z"/><path fill-rule="evenodd" clip-rule="evenodd" fill="#dddddc" d="M178.775 199.48l-4.824-18.762 28.757.766-6.472 18.762z"/><path fill-rule="evenodd" clip-rule="evenodd" fill="#98c166" d="M172.945 153.708l14.868 27.393 11.671-36.569-13.745-21.883-20.962 21.751z"/><path fill-rule="evenodd" clip-rule="evenodd" fill="#fff7ae" d="M158.726 175.569l-1.762 4.748-1.055 12.561 4.883-8.399 2.376-4.085z"/><path fill-rule="evenodd" clip-rule="evenodd" fill="#fff7ae" d="M157.96 169.826l5.208 10.568 5.906.163-2.537-14.292-8.088-4.848z"/><path fill-rule="evenodd" clip-rule="evenodd" fill="#c1b170" d="M158.267 160.865l-4.519 5.132 3.216 14.32 6.204.077-3.026-13.861z"/><path fill-rule="evenodd" clip-rule="evenodd" fill="#fff7ae" d="M160.257 137.43l-.858 5.255-5.651 23.312 6.394.536 17.423-26.268z"/><path fill-rule="evenodd" clip-rule="evenodd" fill="#e1ce7f" d="M171.323 138.885l-3.338 4.013-7.843 23.635 6.395-.268 11.865-23.249z"/><path d="M187.101 153.13l1.609 12.534-.897 15.437 20.977-15.449s10.582-13.881 11.395-13.594c.813.287-3.522-19.452-3.522-19.452l-29.562 20.524z" fill-rule="evenodd" clip-rule="evenodd" fill="#699b47"/><path fill-rule="evenodd" clip-rule="evenodd" fill="#cea19c" d="M174.801 135.104l13.908 30.561 26.975-22.204-36.702-9.63z"/><path fill-rule="evenodd" clip-rule="evenodd" fill="#eecec9" d="M205.409 135.669l6.679 7.935 11.025-.439 10.49-90.962-28.718-2.783z"/><path fill-rule="evenodd" clip-rule="evenodd" fill="#fff7ae" d="M249.458 80.184l5.118 23.933-14.002-1.57-.243-8.234z"/><path fill-rule="evenodd" clip-rule="evenodd" fill="#c1b170" d="M216.562 184.837l.072 10.276 2.777.09 5.807-16.264-8.118.23z"/><path fill-rule="evenodd" clip-rule="evenodd" fill="#fff7ae" d="M215.645 177.408l.076 4.135-2.505 13.458 3.418.112 3.836-13.57z"/><path fill-rule="evenodd" clip-rule="evenodd" fill="#fff7ae" d="M214.648 172.2l5.822 9.343 4.748-2.604-2.91-13.326-9.038-6.739z"/><path fill-rule="evenodd" clip-rule="evenodd" fill="#c1b170" d="M213.27 158.874l-4.481 6.778 6.932 15.891h4.749l-4.329-15.432z"/><path fill-rule="evenodd" clip-rule="evenodd" fill="#e1ce7f" d="M230.884 127.168l4.596 6.893-13.172 31.552-6.167.498 5.82-39.67z"/><path d="M224.841 125.024l2.324 9.842 11.921-.805-5.404-29.063s-12.847-.946-10.109-1.072c2.737-.127 1.268 21.098 1.268 21.098z" fill-rule="evenodd" clip-rule="evenodd" fill="#c1b170"/><path fill-rule="evenodd" clip-rule="evenodd" fill="#fff7ae" d="M221.961 126.441l-2.609 5.207-10.563 34.004 7.352.459 11.024-31.245z"/><path fill-rule="evenodd" clip-rule="evenodd" fill="#cea19c" d="M217.639 56.518l2.119 2.164 7.379 12.962-5.132-22.86z"/><path fill-rule="evenodd" clip-rule="evenodd" fill="#9d8d56" d="M147.744 39.628l-11.167 15.445 13.322 36.751 10.569-39.211z"/><path fill-rule="evenodd" clip-rule="evenodd" fill="#c1b170" d="M244.403 63.336l4.748 1.838.307 15.01-19.843 5.665 1.845-17.995z"/><path fill-rule="evenodd" clip-rule="evenodd" fill="#fff7ae" d="M241.341 53.687l9.805-.299-1.995 11.786-13.632 12.406-8.118-19.453z"/><path fill-rule="evenodd" clip-rule="evenodd" fill="#c1b170" d="M243.943 43.884l7.203 9.504-18.842 10.407-6.894-24.2z"/><path fill-rule="evenodd" clip-rule="evenodd" fill="#eecec9" d="M237.511 81.87l4.594-6.586 18.075-7.046-19.606 34.309-6.892 2.451.612-16.849z"/><path d="M245.17 82.022l-9.268 2.987s-1.764 10.187-.688 10.492c1.073.305 9.956-13.479 9.956-13.479z" fill-rule="evenodd" clip-rule="evenodd" fill="#cea19c"/><path fill-rule="evenodd" clip-rule="evenodd" fill="#9d8d56" d="M231.385 81.87l4.134-4.29 6.586-2.296-8.423 29.714-7.046 5.82-.766-16.542z"/><path fill-rule="evenodd" clip-rule="evenodd" fill="#e1ce7f" d="M223.572 103.925l-4.442 5.668.222 22.055 7.813 3.218-.529-24.048z"/><path fill-rule="evenodd" clip-rule="evenodd" fill="#c1b170" d="M229.852 72.832l-1.684 4.595-9.038 32.166 7.506 1.225 8.883-33.238z"/><path fill-rule="evenodd" clip-rule="evenodd" fill="#9d8d56" d="M219.437 47.407l.923 4.603 7.808 25.417 7.351.153-2.344-31.051z"/><path fill-rule="evenodd" clip-rule="evenodd" fill="#b6a763" d="M230.58 11.795l14.244 8.104 5.081 18.745-13.812 3.171-33.239-12.389L220.93 9.038z"/><path d="M182.638 4.749l12.561-.92L214.191 0l20.316 9.336 10.316 10.563-24.048-.139s-38.59-2.656-39.058-3.37c-.466-.715.921-11.641.921-11.641z" fill-rule="evenodd" clip-rule="evenodd" fill="#e1ce7f"/><path d="M176.206 18.993c-.048-.837 13.785-9.037 13.785-9.037l30.786 9.803-3.174 10.807-38.794-2.995-2.603-8.578z" fill-rule="evenodd" clip-rule="evenodd" fill="#c1b170"/><path fill-rule="evenodd" clip-rule="evenodd" fill="#c1b170" d="M177.583 18.075l12.408-8.119 5.207-6.127L178.962.46l-18.38 4.441-15.163 15.011zM157.213 23.588l-11.794-3.676-6.468 20.15 31.587-2.688z"/><path fill-rule="evenodd" clip-rule="evenodd" fill="#e1ce7f" d="M175.593 28.489l7.701-8.032 6.697-10.501-44.572 9.956 14.102 10.535z"/><path fill-rule="evenodd" clip-rule="evenodd" fill="#feeee9" d="M145.224 59.509l.849 49.632 13.326 33.544 52.689.919 7.67-84.922-38.762-24.134z"/><path d="M145.308 55.992l-.084 3.518 15.474 2.677 10.645-9.42 8.118 6.585 9.727-4.978 11.029 7.506 19.542-3.198.603-6.672-16.643-7.382-11.927 4.846-13.858.238-6.777-5.48c2.808 1.62 5.203 2.905 5.203 2.905l4.825-3.905s5.355 5.691 5.361 6.012c.004.259 12.267-3.338 16.942-4.718l-22.492-9.976-35.688 21.442z" fill-rule="evenodd" clip-rule="evenodd" fill="#eecec9"/><path fill-rule="evenodd" clip-rule="evenodd" fill="#709d51" d="M169.043 120.237l-8.462-.689 11.105 9.343 12.138.23 11.067-9.076-12.062.345-6.931 3.255z"/><path fill-rule="evenodd" clip-rule="evenodd" fill="#cea19c" d="M173.639 100.707l-2.367 4.528 5.124 3.744 3.301-3.666z"/><path d="M167.664 74.784l1.54 2.498 5.133 5.515 1.637 2.671 3.152-2.69 8.612-4.883 14.429-8.317 11.532 2.114-34.002 33.622-5.867-2.345-2.558 2.268-21.674-32.472s10.296-1.043 10.753-2.114c.458-1.073 7.313 4.133 7.313 4.133z" fill-rule="evenodd" clip-rule="evenodd" fill="#eecec9"/><path fill-rule="evenodd" clip-rule="evenodd" fill="#fff7ae" d="M185.132 38.683l-3.754-.403-7.581 7.297-15.777-10.264 1.501-4.866 23.773-9.99 9.037 10.568z"/><path fill-rule="evenodd" clip-rule="evenodd" fill="#e1ce7f" d="M194.935 47.108l-5.974.766-7.583-9.594 1.916-17.823 34.308 10.109z"/><path fill-rule="evenodd" clip-rule="evenodd" fill="#e1ce7f" d="M245.786 41.135L220.36 52.01l-20.218 8.424-11.181-12.56 27.724-13.172z"/><path d="M143.01 45.882l-6.433 9.19 23.741 3.83s12.458-12.211 13.48-13.326c1.021-1.115-15.777-10.263-15.777-10.263L143.01 45.882z" fill-rule="evenodd" clip-rule="evenodd" fill="#fff7ae"/><path fill-rule="evenodd" clip-rule="evenodd" fill="#3f8f6f" d="M177.933 49.711l2.45-.152 37.219-18.993 14.353 3.588-1.321 6.65-12.418-.436-37.986 15.318z"/><path fill-rule="evenodd" clip-rule="evenodd" fill="#37785d" d="M231.955 34.154l17.95 4.49 1.241 14.744-32.93-13.02z"/><path fill-rule="evenodd" clip-rule="evenodd" fill="#54b08b" d="M159.092 39.45l21.138 16.236.153-6.127-20.862-19.112-7.665 3.583-4.929 6.728z"/><path fill-rule="evenodd" clip-rule="evenodd" fill="#3f8f6f" d="M136.577 55.073l22.515-15.623-7.236-5.42-12.905 6.032z"/><path fill-rule="evenodd" clip-rule="evenodd" fill="#9d8d56" d="M149.598 72.763l9.343-3.982 12.024 5.131-1.761 3.37-10.645-5.131zM185.516 74.219l16.083-6.51 12.1 3.982-10.645-.307-15.316 6.51z"/><path fill-rule="evenodd" clip-rule="evenodd" fill="#fef4f2" d="M174.336 82.796l-3.064 22.439 8.425.078-.571-22.536z"/><path fill-rule="evenodd" clip-rule="evenodd" fill="#5a753d" d="M160.581 119.548l12.024-1.264 3.752 2.488 4.366-2.411 14.168 1.684-18.304 5.208z"/><path fill-rule="evenodd" clip-rule="evenodd" fill="#eecec9" d="M189.36 262.112l-14.779-7.877 3.349-3.522 12.56 2.911 16.625-16.996 9.987 8.187-4.277 8.26z"/><path d="M210.56 238.107l-3.903-1.482-16.933-.151s-.155 3.231-.074 3.829c.081.599 21.736 8.938 21.736 8.938l-.826-11.134z" fill-rule="evenodd" clip-rule="evenodd" fill="#feeee9"/><path fill-rule="evenodd" clip-rule="evenodd" fill="#9cce7a" d="M232.716 219.033l-26.059 17.591 29.19 77.871 28.029-64.943z"/><path fill-rule="evenodd" clip-rule="evenodd" fill="#cea19c" d="M154.667 203.948l1.242-11.07 11.92 4.392-.992 22.827-5.196 6.411z"/><path fill-rule="evenodd" clip-rule="evenodd" fill="#feeee9" d="M143.895 202.774l12.014-9.896 5.732 33.63-9.209-1.233z"/><path d="M165.507 83.204c0 2.127-1.724 3.851-3.851 3.851s-3.851-1.724-3.851-3.851 1.724-3.851 3.851-3.851 3.851 1.724 3.851 3.851zM198.761 84.045c0 2.127-1.724 3.851-3.851 3.851s-3.851-1.724-3.851-3.851 1.724-3.851 3.851-3.851 3.851 1.725 3.851 3.851z" fill-rule="evenodd" clip-rule="evenodd" fill="#2b2b2b"/></svg>