<svg xmlns="http://www.w3.org/2000/svg" viewBox="0 0 400 400"><path fill-rule="evenodd" clip-rule="evenodd" fill="#000101" d="M157.247 389.652l52.214 10.334 57.372-11-56.706-14.525z" opacity=".149"/><path fill-rule="evenodd" clip-rule="evenodd" fill="#eecec9" d="M201.752 381.998l-19.551-2.383 14.641-13.029 9.076-2.068 5.131 4.75zM226.215 372.139l.117 13.265 15.184.274-.655-10.776-8.521-6.049z"/><path fill-rule="evenodd" clip-rule="evenodd" fill="#96c05e" d="M196.842 366.586l59.32 11.211-14.646-35.467-8.707-5.289-36.905-3.879-6.456 4.461z"/><path fill-rule="evenodd" clip-rule="evenodd" fill="#97cd74" d="M170.659 278.172l18.789 59.451 52.068 4.707 6.748-59.096-11.901-17.416-49.173-10.556z"/><path fill-rule="evenodd" clip-rule="evenodd" fill="#698440" d="M182.201 379.615l19.723-.101 9.125-10.246.189 16.894-36.325-.197zM226.215 372.139l1.209 11.953 13.297-.02.14-9.17 6.553 16.112h-24.646z"/><path fill-rule="evenodd" clip-rule="evenodd" fill="#eecec9" d="M268.943 172.281l-15.275 18.85-3.695 15.974 3.629 21.288 10.8 5.953 9.36-2.481z"/><path fill-rule="evenodd" clip-rule="evenodd" fill="#629941" d="M123.161 258.412l14.98-7.349 2.987 9.91z"/><path fill-rule="evenodd" clip-rule="evenodd" fill="#eecec9" d="M167.729 215.285l7.364-18.784 7.636 17.546.071 17.818-9.567-5.021z"/><path fill-rule="evenodd" clip-rule="evenodd" fill="#feeee9" d="M139.747 230.6l.32 7.664 7.294 4.957 35.439-11.356-15.071-16.58z"/><path fill-rule="evenodd" clip-rule="evenodd" fill="#cc9f9a" d="M129.059 237.576l9.082 13.487 9.22-7.842-7.294-4.957z"/><path fill-rule="evenodd" clip-rule="evenodd" fill="#69c4a2" d="M127.406 216.938l3.805 11.777-7.793 15.195-29.569 20.113-26.165-29.335z"/><path fill-rule="evenodd" clip-rule="evenodd" fill="#629941" d="M67.684 234.688l13.76 9.906 6.37 11.115.378 7.465 2.511 7.851-6.642 7.147z"/><path fill-rule="evenodd" clip-rule="evenodd" fill="#67833c" d="M108.326 270.857l-8.821-5.982-11.313-1.701-4.131 14.998z"/><path fill-rule="evenodd" clip-rule="evenodd" fill="#629941" d="M114.471 254.916l-14.586 1.514-11.693 6.744 20.134 7.683 8.761-9.609z"/><path fill-rule="evenodd" clip-rule="evenodd" fill="#67833c" d="M141.581 260.836l-13.859-3.154-4.964-4.071-8.287 1.305-6.145 15.941z"/><path fill-rule="evenodd" clip-rule="evenodd" fill="#bcda85" d="M90.281 245.447l-7.005 1.492 6.837 10.247 6.468-4.469z"/><path fill-rule="evenodd" clip-rule="evenodd" fill="#96c05e" d="M101.639 258.529l-7.326 2.532-3.369-1.311-.068-3.09 5.705-3.943 4.336 2.269z"/><path fill-rule="evenodd" clip-rule="evenodd" fill="#bcda85" d="M92.538 234.809l-11.094 9.785 1.832 2.347 7.886-4.908 1.651-2.789z"/><path fill-rule="evenodd" clip-rule="evenodd" fill="#97cd74" d="M96.581 252.717l-5.419-10.684 1.376-7.224 7.878 10.629-.756 4.507z"/><path fill-rule="evenodd" clip-rule="evenodd" fill="#bcda85" d="M107.605 241.965l-7.189 3.473-3.815 7.287 5.038 5.804 4.454-1.498 2.135-9.084z"/><path fill-rule="evenodd" clip-rule="evenodd" fill="#97cd74" d="M114.471 254.916l-8.377 2.115 1.512-15.066 6.673 3.371 2.341 4.127z"/><path fill-rule="evenodd" clip-rule="evenodd" fill="#96c05e" d="M138.141 251.063l-10.418 6.619-13.252-2.766-.192-9.58 14.865.824z"/><path fill-rule="evenodd" clip-rule="evenodd" fill="#bcda85" d="M120.113 241.568l-5.833 3.768 23.861 5.727-3.514-11.77-5.568-1.717-4.954 4.08z"/><path fill-rule="evenodd" clip-rule="evenodd" fill="#eecec9" d="M126.789 227.738l-6.676 13.83 3.305 2.342 5.642-6.334 18.301 5.645-7.614-12.621z"/><path fill-rule="evenodd" clip-rule="evenodd" fill="#bcda85" d="M182.8 231.865l-12.141 46.307 77.605 5.062-15.203-42.664-22.145-10.422z"/><path fill-rule="evenodd" clip-rule="evenodd" fill="#96c05e" d="M175.093 196.501l7.707 35.364 36.327 4.133 20.555-10.004 10.291-18.889-14.323-5.99-31.658 12.035-14.778-15.556z"/><path fill-rule="evenodd" clip-rule="evenodd" fill="#bcda85" d="M175.093 196.501l28.899 16.649-3.715-23.668-12.8-22.706zM226.148 189.621l-22.156 23.529 45.981-6.045 18.97-34.823z"/><path fill-rule="evenodd" clip-rule="evenodd" fill="#feeee9" d="M211.004 207.041l10.053 15.744-5.645-.551-4.406-4.558-1.414-8.047zM192.987 206.813l-2.758 11.154 11.792 16.086 2.797-10.854-.826-10.049z"/><path fill-rule="evenodd" clip-rule="evenodd" fill="#eecec9" d="M221.057 222.785l-17.065-9.635-1.971 20.903 17.108 1.945 3.85-4.82z"/><path fill-rule="evenodd" clip-rule="evenodd" fill="#feeee9" d="M187.477 166.776l23.023-8.709 1.301.493 1.01-1.366 3.912 6.678 27.461-3.787.718 1.144 1.762.078 22.279 10.974-46.73 29.403-14.344 1.908-8.444-3.27z"/><path fill-rule="evenodd" clip-rule="evenodd" fill="#97cd74" d="M199.425 200.322l8.585 1.336-.283 5.379-3.737 6.113z"/><path fill-rule="evenodd" clip-rule="evenodd" fill="#045f66" d="M209.443 198.85l-.98-6.678 1.277-1.623 5.772-1.459 7.927 1.909z"/><path fill-rule="evenodd" clip-rule="evenodd" fill="#1a7989" d="M201.795 186.342l7.648 12.508.297-8.301-1.582-3.01z"/><path fill-rule="evenodd" clip-rule="evenodd" fill="#279db8" d="M207.373 183.812l-5.578 2.53 7.945 4.207 2.924-3.401.094-3.531z"/><path fill-rule="evenodd" clip-rule="evenodd" fill="#1a7989" d="M223.439 191l-4.535-5.173-6.146-2.21-3.018 6.932z"/><path fill-rule="evenodd" clip-rule="evenodd" fill="#2aaabf" d="M219.328 182.411l-6.57 1.205L223.439 191z"/><path fill-rule="evenodd" clip-rule="evenodd" fill="#62cae5" d="M208.707 180.389l4.051 3.227-10.963 2.725z"/><path fill-rule="evenodd" clip-rule="evenodd" fill="#96c05e" d="M210.5 158.067l2.258 25.55 33.906-22.309-2.48-1.224-29.881 20.157-1.492-23.047z"/><path fill-rule="evenodd" clip-rule="evenodd" fill="#feeee9" d="M273.762 231.865l-52.705-9.08-1.928 13.213 44.861 14.723z"/><path fill-rule="evenodd" clip-rule="evenodd" fill="#97cd74" d="M81.444 244.594l12.87 16.467-6.122 2.113z"/><path fill-rule="evenodd" clip-rule="evenodd" fill="#629941" d="M83.276 246.941l7.005-1.494-3.564 5.893z"/><path d="M238.008 254.443l-35.986-20.391 17.107 1.945 13.934 4.572 4.945 13.874zM123.417 243.91l11.209-4.615-5.566-1.719-5.643 6.334zm71.428-10.674l7.177.816-11.791-16.086 4.614 15.27z" fill-rule="evenodd" clip-rule="evenodd" fill="#000101" opacity=".149"/><path fill-rule="evenodd" clip-rule="evenodd" fill="#96c05e" d="M208.01 201.658l-4.018 11.492 18.221-11.466z"/><g opacity=".1"><path fill-rule="evenodd" clip-rule="evenodd" fill="#2b2b2b" d="M248.264 283.234l-58.817 54.389 52.069 4.707z"/></g><g><path fill-rule="evenodd" clip-rule="evenodd" fill="#69c4a2" d="M189.399 20.997l11.085-16.051 53.948 6.88-6.881 14.587z"/><path fill-rule="evenodd" clip-rule="evenodd" fill="#138863" d="M269.209 49.608l-14.777-37.782-6.881 14.587z"/><path fill-rule="evenodd" clip-rule="evenodd" fill="#67833c" d="M277.1 24.727l-27.059-3.6-2.734 1.936.244 3.35 12.91 8.825 14.83-.734z"/><path fill-rule="evenodd" clip-rule="evenodd" fill="#629941" d="M255.729 38.858l-8.178-12.445 27.74 8.091-2.752 14.871z"/><path fill="#629941" d="M211.393 10.614l11.933 9.235 16.588 5.58 4.27-2.334-1.762-4.709L218.977.014z"/><path fill-rule="evenodd" clip-rule="evenodd" fill="#96c05e" d="M211.393 10.613l28.521 14.816-18.396 2.129-17.424-6.745z"/><path fill-rule="evenodd" clip-rule="evenodd" fill="#6b3d17" d="M193.491 45.672l-8.461 6.166-8.695 1.489-6.263-5.459-2.796-8.28 14.03.732z"/><path fill-rule="evenodd" clip-rule="evenodd" fill="#33ac81" d="M101.954 33.569l13.486 47.612 29.06-12.952 22.776-28.641-26.394-11.022z"/><path fill-rule="evenodd" clip-rule="evenodd" fill="#476b32" d="M242.422 18.387l-2.508 7.042 3.371 1.172 4.266-.188 2.49-5.285z"/><path fill-rule="evenodd" clip-rule="evenodd" fill="#33ac81" d="M247.551 26.413L140.762 12.651l7.165 14.807 19.349 12.13 44.023-1.868z"/><path fill-rule="evenodd" clip-rule="evenodd" fill="#138863" d="M241.223 57.764l-32.739-5.991-17.573-6.377-23.635-5.808 80.275-13.176 9.963 24.9z"/><path fill-rule="evenodd" clip-rule="evenodd" fill="#33ac81" d="M282.148 99.242l-20.261-16.257-20.123-17.683-.541-7.539 6.328-31.35 84.765 77.888z"/><path fill-rule="evenodd" clip-rule="evenodd" fill="#006e4c" d="M282.502 119.99l49.814-15.689-48.711-8.808-4.712 12.136z"/><path fill-rule="evenodd" clip-rule="evenodd" fill="#138863" d="M101.954 33.569l65.322 6.019-26.514-26.937zM115.44 81.181l51.835-41.593-8.075 41.317-20.232 5.085z"/><path fill-rule="evenodd" clip-rule="evenodd" fill="#006e4c" d="M142.139 100.448L115.44 81.181l22.017-.138 21.743-.137z"/><path fill-rule="evenodd" clip-rule="evenodd" fill="#965824" d="M174.277 161.874l13.2 4.902 12.578-2.154 12.756-7.428-25.048-1.376z"/><path fill-rule="evenodd" clip-rule="evenodd" fill="#aa6b28" d="M178.957 151.14l-4.68 10.734 38.534-4.68-17.831-7.808z"/><path fill-rule="evenodd" clip-rule="evenodd" fill="#6b3d17" d="M199.459 136.619l-14.173 4.889-6.329 9.631 33.854 6.056-1.163-11.534z"/><path fill-rule="evenodd" clip-rule="evenodd" fill="#965824" d="M157.215 146.186l21.743 4.955 20.501-14.522-7.642-.115-25.384 1.012z"/><path fill-rule="evenodd" clip-rule="evenodd" fill="#aa6b28" d="M160.794 124.855l-3.578 21.331 23.783-9.844-7.96-10.66z"/><path fill-rule="evenodd" clip-rule="evenodd" fill="#6b3d17" d="M173.396 102.598l-9.991 7.258-2.612 15 18.591 12.155 12.433-.507z"/><path fill-rule="evenodd" clip-rule="evenodd" fill="#965824" d="M142.139 100.448l18.655 24.407 13.483-20.837-15.001-4.896z"/><path fill-rule="evenodd" clip-rule="evenodd" fill="#aa6b28" d="M154.049 80.94l-11.91 19.508 32.138 3.57.561-9.386-5.204-19.484z"/><path fill-rule="evenodd" clip-rule="evenodd" fill="#965824" d="M177.442 49.719l-11.699 8.67L154.05 80.94l15.584-5.792 6.217-3.15z"/><path fill-rule="evenodd" clip-rule="evenodd" fill="#aa6b28" d="M167.276 39.588l10.166 10.131L154.05 80.94z"/><path fill-rule="evenodd" clip-rule="evenodd" fill="#965824" d="M244.184 160.084l3.853 6.061 20.906 6.136 25.745-26.097-26.835 2.755z"/><path fill-rule="evenodd" clip-rule="evenodd" fill="#aa6b28" d="M275.834 132.287l-16.926 9.082-14.724 18.716 50.504-13.901z"/><path fill-rule="evenodd" clip-rule="evenodd" fill="#965824" d="M258.082 119.488l-7.588 12.815-6.31 27.781 31.65-27.797-8.256-11.697z"/><path fill-rule="evenodd" clip-rule="evenodd" fill="#aa6b28" d="M287.967 118.268l-12.133 14.019-18.895-9.457 14.696-8.64z"/><path fill-rule="evenodd" clip-rule="evenodd" fill="#eecec9" d="M216.723 163.872l4.836-27.368 13.603-47.908 6.061-30.832 10.316 42.666 6.543 19.059-13.898 40.596z"/><path fill-rule="evenodd" clip-rule="evenodd" fill="#6b3d17" d="M263.857 104.018l-4.209 1.267-2.709 17.545 31.028-4.562-11.537-11.575z"/><path fill-rule="evenodd" clip-rule="evenodd" fill="#aa6b28" d="M263.857 104.018l10.563-8.899 9.219.363 4.328 22.787z"/><path fill-rule="evenodd" clip-rule="evenodd" fill="#965824" d="M241.223 57.764l6.634 17.019 5.895 10.915 10.105 18.32 19.748-8.525z"/><path fill-rule="evenodd" clip-rule="evenodd" fill="#cc9f9a" d="M212.811 157.194l3.912 6.678 19.244-27.368-36.507.114z"/><path fill-rule="evenodd" clip-rule="evenodd" fill="#feeee9" d="M237.402 118.269l-15.843 18.235h-29.742l-15.155-17.034-7.028-44.322 7.808-25.429 15.973-.702 47.808 8.747z"/><path fill-rule="evenodd" clip-rule="evenodd" fill="#6b3d17" d="M241.223 57.764l9.353 45.006 3.176-17.072z"/><path fill-rule="evenodd" clip-rule="evenodd" fill="#cc9f9a" d="M256.043 104.877l-6.467 1.307 7.363 16.646 4.92-13.242z"/><path fill-rule="evenodd" clip-rule="evenodd" fill="#feeee9" d="M249.576 106.184l12.283 3.404 1.998-5.57-10.105-18.32z"/><path fill-rule="evenodd" clip-rule="evenodd" fill="#cc9f9a" d="M258.184 93.733l-2.008 9.454 5.082-3.878zM193.06 104.249l4.878-1.998 6.664 1.999-6.315 3.546z"/><path fill-rule="evenodd" clip-rule="evenodd" fill="#eecec9" d="M175.284 74.409l11.646 10.97 6.683 13.027 2.586-17.12-2.163-5.634-14.104-3.119zM216.205 74.938l-11.295 1.151-1.974 5.618 1.666 22.542 10.091-18.87 13.881-10.948-7.845-1.339zM186.533 111.127c.823 0 1.491-.67 1.491-1.492s-.67-1.491-1.491-1.491c-.821 0-1.492.67-1.492 1.491 0 .822.671 1.492 1.492 1.492"/><path fill-rule="evenodd" clip-rule="evenodd" fill="#96c05e" d="M197.089 119.802l-7.909-4.958 9.786.637 11.501-.362-7.965 4.683z"/><path fill-rule="evenodd" clip-rule="evenodd" fill="#698440" d="M189.18 114.845l6.799-2.616 2.757.997 3.379-1.237 8.352 3.13-11.031 1.343z"/><path fill-rule="evenodd" clip-rule="evenodd" fill="#6b3d17" d="M175.284 74.409l4.248-3.052 13.959 2.075.545 2.22-9.581-1.225-4.523-1.894zM204.91 76.089l.762-2.274 15.627-2.342 7.275 2.958-7.845-1.339-4.524 1.846z"/><path fill-rule="evenodd" clip-rule="evenodd" fill="#fef4f2" d="M196.199 81.286l-3.469 22.963 11.87.001-1.664-22.543z"/><path fill-rule="evenodd" clip-rule="evenodd" fill="#cc9f9a" d="M177.442 49.719l63.781 8.045-50.312-12.368z"/><path d="M218.393 85.624c-.135 2.043-1.898 3.588-3.943 3.453-2.041-.135-3.588-1.9-3.453-3.943.137-2.042 1.902-3.588 3.943-3.453 2.044.135 3.591 1.901 3.453 3.943zM190.628 85.624c-.137 2.043-1.9 3.588-3.943 3.453-2.041-.135-3.588-1.9-3.453-3.943.136-2.042 1.901-3.588 3.943-3.453 2.043.135 3.59 1.901 3.453 3.943z" fill-rule="evenodd" clip-rule="evenodd" fill="#2b2b2b"/></g></svg>