<svg xmlns="http://www.w3.org/2000/svg" viewBox="0 0 400 400"><path opacity=".1" fill="#2b2b2b" d="M95.014 387.586l96.546-13.907 96.852 18.637L191.395 400z"/><path fill="#709d52" d="M191.395 306.172l-10.344 29.972-21.732 3.281-15.668-17.047.316-38.499 17.64-29.597zM191.395 303.176l12.332 30.971 21.863 21.935 17.197-17.654 1.644-49.14-14.13-36.339z"/><path fill="#5a753d" d="M191.395 306.172l-15.035-15.57 11.62-23.722 14.969 28.715z"/><path fill="#2c634b" d="M145.965 154.834l-32.951 72.838 34.699-3.912z"/><path fill="#99c26c" d="M230.568 149.593l-34.057-6.733-27.729 4.015-9.463 23.923 28.661 62.863 44.32-52.552z"/><path fill="#c0db8e" d="M228.847 141.202l1.721 8.391-16.129 23.535-19.766-21.537-15.26 1.579-10.631-6.295 1.205-7.919 26.524 7.562z"/><path fill="#9ca0a1" d="M161.654 25.784V10.818l9.508-2.344 5.559 7.663z"/><path fill="#e2c8c5" d="M172.572 14.604l-21.92 22.447-9.742 39.756v38.944l27.602 7.573 4.33 16.768 20.874 15.415 31.644-17.038 31.644-60.58-14.343-14.334 3.789-21.906-21.379-24.34z"/><path fill="#c7a5a1" d="M237.498 31.457l-17.569 23.444-22.461 75.184 9.85 20.67 21.529-9.553 13.277-29.856-.942-8.893 6.48-3.559 9.342-21.005-14.343-14.334 3.789-21.906zM200.625 58.957l-7.757-6.31h-10.103l-14.614-3.426-6.855-4.507-8.479.901 9.922 23.8 12.899 7.933zM206.398 86.363l-11.185 7.119-3.247 17.942z"/><path fill="#efdddc" d="M182.765 52.647l-7.893 8.384.766 16.317h-8.479l-7.171-4.057 10.148-13.657-1.985-10.413z"/><path fill="#a0847d" d="M175.638 77.348l-9.832 6.491-5.818-10.548 7.171 4.057zM150.11 89.248l13.766 6.625 19.25 1.353-.587 4.056-19.565-.939-14.487-7.67z"/><path fill="#c7a5a1" d="M175.638 77.348l9.472 4.507 3.789 15.866zM159.988 73.291l-8.434 1.533-4.33 11.539zM140.91 76.807l3.788 5.769-3.788 15.146z"/><path fill="#6f7173" d="M200.625 58.957l-6.224-6.941-9.832-2.795-1.804 3.426 8.93 1.442zM168.151 49.221l.402-3.651-8.565-2.298-7.171 2.343 7.915.767z"/><path fill="#c7a5a1" d="M166.15 34.135l13.031 5.698 18.228 2.972-17.375-6.109zM171.162 28.98l10.279 3.48 13.311 2.983-12.162-5.317z"/><ellipse cx="188.899" cy="62.203" rx="3.247" ry="3.245" fill="#2b2b2b"/><ellipse cx="160.755" cy="54.991" rx="3.247" ry="3.245" fill="#2b2b2b"/><path fill="#a0847d" d="M189.079 73.426l2.3-1.893.984 2.705-1.75 1.352zM199.768 78.88h2.03l-.059 2.525-1.971-.541zM196.386 73.967l-.677-1.487 2.165-.812.271 2.84zM154.711 61.662l.676 2.569-2.706-.135-.541-1.758zM148.622 59.093l1.624-.136v2.299l-2.165-.541zM147.134 66.665l1.894-.541.677 1.893h-1.759zM197.468 130.085l16.327 5.86-6.477 14.81-13.602 4.752-23.729-16.551-3.098-7.519 11.546-2.344z"/><path fill="#a5a5a5" d="M181.547 118.275l7.352-20.554-23.093-13.882 2.007 7.031 15.313 6.356-6.394 17.083-18.503.901-10.283-7.933 2.164-18.029h11.547l4.149-5.409-18.582 2.524-6.314 29.388 25.979 15.686 30.579-1.352z"/><path fill="#b5b5b5" d="M171.162 8.474L174.285 0l7.983 1.803 3.383 8.113-1.082 9.917-11.997-5.229z"/><path fill="#999" d="M182.268 1.803L192.363 0l6.594 3.606-.812 8.474-4.429 6.491-9.147 1.262z"/><path fill="#828282" d="M198.957 3.606l7.441-1.803 7.397 3.065-1.172 9.736-4.962 5.229-7.893 2.524-6.052-3.786z"/><path fill="#b5b5b5" d="M213.795 4.868l8.119-2.344 7.216 5.95v7.663l-7.667 3.696h-13.802z"/><path fill="#999" d="M229.13 8.474h6.675l7.578 11.359-8.873 3.966h-9.15l-3.897-3.966z"/><path fill="#b5b5b5" d="M243.383 19.833l12.267 3.245 1.354 5.902-10.69 6.463H234.51l-9.15-11.644z"/><path fill="#999" d="M257.004 28.98l7.487 3.232v8.355l-5.864 5.679-17.445.631-6.672-11.434z"/><path fill="#727272" d="M264.491 40.567l6.675 7.212-4.33 7.212-10.662-.902-14.992-7.212z"/><path fill="#999" d="M266.836 54.991v14.784l-15.245-10.818-10.409-12.08z"/><path fill="#828282" d="M266.836 69.775l-9.832 8.114-14.704-4.801-6.458-5.071-3.498-10.68 8.838-10.46z"/><path fill="#727272" d="M232.344 57.337l1.162 17.305-4.123 10.638 5.127 2.255 7.79-14.447z"/><path fill="#7c7c7c" d="M197.468 130.085l-31.318-5.138-25.24-9.196 27.643 19.727z"/><path fill="#a0847d" d="M234.51 93.482l13.152 5.411-5.362 12.531zM239.955 89.248l4.871-10.683 7.848 2.84z"/><path fill="#595959" d="M194.673 151.591l26.424-1.747-6.658 23.284-17.554-11.892-3.494-1.734-5.242.499-16.949 8.054-2.418-21.18z"/><path fill="#484748" d="M194.673 151.591l2.212 9.645-8.736-1.235z"/><path fill="#2c634b" d="M191.56 175.954l2.863 5.155-4.427 3.991-4.426-4.989zM184.712 204.059l5.133-4.49 3.74 5.654-5.487 3.326z"/><path fill="#3f8f6f" d="M168.782 146.875l-22.817 7.959-2.276 64.366-1.052 29.76 16.937 12.967-3.974 19.107 20.76 9.568 10.874-16.692 4.655-24.284-3.909-15.965-28.661-62.863z"/><path fill="#36785d" d="M230.568 149.593l28.551 9.646-9.936 94.039-18.882 9.98-4.711 23.617-22.641 8.72-15.715-21.685.746-40.249 42.321-55.878z"/><path fill="#54b08b" d="M168.782 146.875l-4.22 23.591 23.418 63.195-35.4-34.092 9.737-17.46-12.606-6.984zM230.568 149.593l14.489 34.174-16.754 4.993 5.225 18.294-45.548 26.607 34.613-56.21zM191.061 245.881l5.617-4.739 4.539 6.032-5.997 4.446zM195.71 257.277l5.682 4.661-5.113 5.555-5.462-5.088z"/><path fill="#2c634b" d="M259.119 159.239l24.629 74.422-21.632-1.497-11.831-8.404z"/><path fill="#3f8f6f" d="M250.285 223.76l-19.984 39.498 12.887 9.312 8.095 1.996 32.465-40.905z"/><path fill="#c7a5a1" d="M230.301 263.258l14.13 26.03 6.852-14.722z"/><path fill="#36785d" d="M113.014 227.672l24.961 43.155 9.738 2.076 11.861-10.976-15.885-42.727z"/><path fill="#c7a5a1" d="M137.975 270.827l5.992 13.052 15.607-21.952z"/><path fill="#5a753d" d="M203.727 334.147l39.06 4.281-.973 33.262-11.513 1.335-14.782-4.329zM143.651 322.378l37.4 13.766-11.206 36.881-13.521-1.275-13.022-9.037z"/><path fill="#595959" d="M215.519 368.696l-6.654 18.627 18.782 2.619 16.784-2.619-2.617-15.633z"/><path fill="#484748" d="M208.865 387.323h35.566v5.239h-35.566zM169.301 385.579h-12.854l-.832-3.747-14.81 3.747H117.26v-5.238l26.293-2.877 25.748 2.877z"/><path fill="#595959" d="M143.302 362.713l-26.042 17.628h52.041l.544-7.316z"/></svg>