<svg xmlns="http://www.w3.org/2000/svg" viewBox="0 0 400 400"><g fill-rule="evenodd" clip-rule="evenodd"><path fill="#858787" d="M117.3 33.662l26.923-26.227L203.83 1.5l3.19 5.721-5.383 18.705-18.443 3.315-58.57 6.394z"/><path fill="#737373" d="M220.83 44.275l8.554 1.516 10.294-16.313L203.83 1.5l-2.649 9.874-3.015 11.234 13.664 24.697z"/><path fill="#4f5254" d="M245.883 60.606l-4.297 8.678-7.019-6.488-1.965 16.994-12.349-6.773.577-28.742 18.848-14.797z"/><path fill="#f0d1cc" d="M220.867 155.797l-37.673 13.153 4.492-14.42-13.865-21.568 9.373-103.721 14.97-6.633 22.666 21.667-.577 28.742 9.928.159.492-11.479 11.605 10.553-2.629 13.359z"/><path fill="#edcfc9" d="M239.649 85.609l-3.938 14.713-8.517-15.582z"/><path fill="#cfa39e" d="M212.578 129.308l-30.751 3.094-29.513-3.631 6.755 20.237-.391 10.175 24.516 9.767z"/><path fill="#ffede8" d="M181.827 132.402l-34.738 2.421-20.691-21.289-9.098-79.872 14.644-6.757 10.58 2.14 23.908-9.222 31.732 2.785 4.107 84.184z"/><path fill="#edcfc9" d="M159.398 92.28l13.345-19.763 9.943-10.667-14.338-2.509-13.863 7.489-3.227 3.571-2.136-2.808-14.707-3.445-3.467.579-4.747 3.788 11.973 6.071 10.313 9.997 5.217 3.658z"/><path fill="#737373" d="M149.262 63.947l-17.027-1.119-6.526 4.488.492 1.199 5.798-2.753 17.123 1.831z"/><path fill="#cfa39e" d="M148.164 93.281l5.479-2.454 5.755 1.453-5.273 6.827z"/><path fill="#fff5f2" d="M154.483 66.83l-5.361.763-.958 25.688 11.234-1.001z"/><path fill="#737373" d="M154.485 66.83l14.453-5.009 13.748.029.252-1.762-15.819-1.88-12.705 5.072z"/><path fill="#cfa39e" d="M146.296 107.807l20.376-.75.506 3.405-20.784 1.451z"/><path fill="#fcede8" d="M227.194 84.74l1.623-24.968 17.066.834-6.234 25.003z"/><path fill="#cfa39e" d="M231.841 75.741l1.233-10.667 6.917.344z"/><path d="M138.075 69.648c2.366 0 4.283 1.888 4.283 4.215 0 2.332-1.917 4.218-4.283 4.218-2.366 0-4.283-1.886-4.283-4.218 0-2.327 1.916-4.215 4.283-4.215M170.008 66.568c2.366 0 4.283 1.89 4.283 4.219 0 2.328-1.917 4.216-4.283 4.216-2.364 0-4.283-1.888-4.283-4.216.001-2.329 1.919-4.219 4.283-4.219" fill="#2b2b2b"/><path opacity=".1" fill="#2b2b2b" d="M88.03 383.735l96.22 16.765 116.374-18.771-100.886-13.313z"/><path fill="#5c753d" d="M153.659 298.034l-3.916-4.818-6.076 3.162-.72 30.615 13.391-5.305-.866-17.55z"/><path fill="#73c7a3" d="M153.659 298.034l-9.992-1.656 2.257-35.4 17.879-1.807 21.179 10.998-6.25 27.865z"/><path fill="#5c753d" d="M191.218 307.905l-20.74 45.11-9.279-15.658 16.146-23.653z"/><path fill="#636363" d="M215.431 362.048l7.743-2.218 20.459 3.333 10.266 21.297-20.459 3.3-20.455-3.157z"/><path fill="#5c753d" d="M202.268 332.608l16.74 12.367 21.704-15.093-3.215-36.666-25 2.035-21.279 12.654z"/><path fill="#4a5e33" d="M215.431 362.048l28.202 1.115-2.921-33.281-38.444 2.726z"/><path fill="#45612e" d="M191.218 307.905l10.602-2.937 1.738-23.954-18.576-10.845-8.773 28.874z"/><path fill="#b8c745" d="M108.255 372.607l22.566 17.778 36.107-3.016-14.581-21.053z"/><path fill="#e6e87a" d="M108.255 372.607l32.809-2.865 25.864 17.627 6.944-67.187-2.777-11.903-16.665 3.618z"/><path fill="#d9e057" d="M171.583 310.375l-5.349 2.274-25.17 57.093 25.864 17.627 6.944-67.187z"/><path fill="#d9e057" d="M154.43 311.897l11.804.752 7.638 7.533 17.346-12.277-9.245-16.247 1.101-6.462-7.686 3.231-22.173 1.628z"/><path fill="#b8c745" d="M181.973 291.658l1.101-6.462-1.134.476-15.706 26.977 7.638 7.533 17.346-12.277z"/><path fill="#54b08a" d="M201.82 304.968l35.677-11.752-2.083-34.045-13.021-.981-36.788 13.265z"/><path fill="#54b08a" d="M185.605 271.455l-39.681-10.477-17.794-57.923-2.344-32.54 33.283-21.507 1.511 5.792 22.492 35.149 9.896 37.284z"/><path fill="#dededb" d="M190.646 172.108l-6.012-5.884L160.58 154.8l8.779 18.502 13.713 16.647 5.304-10.47z"/><path fill="#cfcfcc" d="M184.634 166.224l-1.562 23.725 37.266-31.71.439-5.988"/><path fill="#36785c" d="M284.453 217.594l-13.887-38.416-13.021-10.018-14.359 30.505 5.489 5.57z"/><path fill="#408f70" d="M235.414 259.171l-49.809 12.284-2.531-18.461 3.644-19.206-3.644-43.839 32.112-14.085 7.207-27.947 35.152 21.243z"/><path fill="#73c7a3" d="M125.786 170.515l22.915 50.39-25.78 15.142h-10.935z"/><path fill="#ffede8" d="M186.718 233.788l-38.017-12.883-36.715 15.142 71.088 16.947 6.809-13.334z"/><path fill="#f0d1cc" d="M207.549 227.685l-20.831 6.103-3.644 19.206h12.237l12.238-19.206z"/><path fill="#e6e87a" d="M199.738 260.225l-1.302-7.231h-3.125l-19.923 35.433h4.046l2.539 3.231zM207.549 227.685l35.637-67.202 5.68-3.298 1.298 7.513-40.531 75.641z"/><path fill="#ffede8" d="M217.705 240.339l-10.156-12.654-12.238 25.309 4.427 7.231z"/><path fill="#73c7a3" d="M215.102 177.52l-32.03 12.429 37.705-37.698z"/><path fill="#54b08a" d="M222.393 147.917l-11.658 31.297 19.21 5.31z"/><path fill="#e6e87a" d="M253.578 139.708l1.623 3.239 8.769-3.239 17.529-32.387-9.546-3.919z"/><path fill="#ffede8" d="M243.186 160.483l6.978 4.215 3.91-2.108 9.896-22.882h-10.392z"/><path fill="#f0d1cc" d="M257.545 169.16l10.937-2.936 3.471-6.179-7.983-20.337-13.806 24.99z"/><path fill="#ffede8" d="M284.453 217.594l-26.908-48.434 14.408-9.115 38.018 26.664z"/><path fill="#408f70" d="M183.072 189.949l-21.177-13.784-1.315-21.365z"/><path fill="#73c7a3" d="M159.069 149.008l-7.591 38.908 15.556-8.409z"/><path fill="#c4c4c4" d="M154.534 222.883l-25.637 17.196-16.911-4.032 36.715-15.142zM279.705 209.049l22.636-27.69 7.63 5.35-25.518 30.885z"/><path d="M186.29 236.047l-6.964 1.208 5.589 6.026m-49.156-1.566l14.089-3.007-2.537-5.884-7.552-.033-10.862 7.288m27.047-16.72l-6.096 6.372 3.666 7.523 2.319-5.957 7.662-5.379m11.893 11.032v7.007l-9.003 5.058 9.003 2.148 4.958-6.364-4.958-7.849zm-16.01-4.159l8.248-1.046 7.762 3.585 11.33-1.546-9.723-3.292-10.044-1.489-7.573 3.788zm-16.512 10.62l12.504-2.278 4.008-5.563 6.856-1.086 6.683 3.141-.702 4.472-4.869 1.86-5.153-1.86 6.128-1.758-2.087-3.389-5.015 1.403-3.327 5.604-6.958 1.375M290.939 195.306l.737-8.766 4.854 1.927M278.212 206.358l6.237-6.882s-9.306 1.365-9.285 1.402m-14.84-33.476l7.088 3.479.265-8.13m5.448 34.453l12.879-1.636 3.137-8.614-6.876 3.567-13.574-1.298m1.786-15.636l5.794-5.896 8.183.936-8.198-5.566-3.463.834-2.316 9.692zm10.038 13.471l-7.813-4.256-3.565-7.851-11.593-5.79 5.359 9.644 8.102 6.726 9.51 1.527zm17.912-.91l-7.642-3.615-7.972 2.185-6.673-3.355-3.027-6.807 4.289-3.327 5.635 1.467 2.8 4.773-6.612-2.335-1.046 4.154 5.384 1.943 7.434-2.645 11.345 2.775" fill="#9ea1a3"/><path fill="#404040" d="M212.985 391.06l40.406-.521.508-6.079-20.467.073-20.447.07z"/><path fill="#cfa39e" d="M227.194 84.74l10.25 9.113 2.205-8.244z"/></g></svg>