<svg xmlns="http://www.w3.org/2000/svg" viewBox="-67.671 0 400 403.132"><path fill="#efcfca" d="M39.455 200.53l-17.574-16.574-15.86 19.789 23.575 12.43z"/><path fill="#ffede8" d="M14.451 172.454l7.716 11.787-15.932 19.79-5.215-21.218zM27.024 181.455l1.215 21.432 5.716 6.645 5.5-9.002-7.001-21.075z"/><path fill="#2a2a2a" fill-opacity=".102" d="M39.527 387.421l98.803-14.931 94.018 12.43-78.658 16.646z"/><path fill="#506936" d="M155.619 380.205l-8.359 6.429.143 4.144 34.15.787-.073-4.215z"/><path fill="#709c52" d="M214.13 205.388l-24.862-35.864-6.715 83.087 34.363-28.721z"/><path fill="#3f8e6e" d="M91.608 286.332l6.787 43.65 18.574 13.502 16.932-11.501 1.643-38.079-12.574-27.648-21.361-1.286z"/><path fill="#36785d" d="M98.395 329.982l5.858 38.078 15.431 5.93 12.36-1.358 1.857-40.649z"/><path fill="#388064" d="M95.965 313.049l1.715 11.075 25.505-1.644-.215-56.224-7.215 7.429z"/><path fill="#3f8e6e" d="M143.616 331.696l-8.072-37.792 5.858-24.147 13.717 1.357 14.36 35.221 9.145 17.002-.072 6.002-20.789 9.859z"/><path fill="#36785d" d="M152.333 372.704l-8.717-41.008 34.936-2.357-.786 39.507-11.931 4.715z"/><path fill="#388064" d="M155.119 266.042l6.571-1.715 12.575 17.432 4.572 31.29-.213 10.288-30.221.143-3.287-45.436z"/><path fill="#36785d" d="M85.345 279.739l50.199 14.165 35.563-9.574 2.086-23.218-18.074-8.501-45.294 1.5z"/><path fill="#59753d" d="M104.253 368.06l-16.86 14.718 21.075 1.57 23.432-1.857.144-9.859z"/><path fill="#506936" d="M87.393 382.778l.285 3.856 44.151-.214.071-3.929z"/><path fill="#59753d" d="M152.333 372.704l-5.073 13.93 34.22.716-3.714-18.504z"/><path fill="#efcfca" d="M164.692 166.238l9.359-60.725-14.788-40.293-11.074-11.073-20.075 88.444 3.715 34.292z"/><path fill="#cda39e" d="M155.404 142.591h-27.29l-22.147-3.715 4.072 15.86 3.287 21.504 24.219-13.074z"/><path fill="#ffede8" d="M56.815 43.787l7.931 9.145 6.286 73.299 19.289 16.36h37.793l17.861-20.575 2.214-67.869-3.715-28.006-18.717-5.5-55.01 16.145z"/><path fill="#cda39e" d="M96.395 52.647l39.149-21.504-18.717-4.573-24.505 7.358z"/><path fill="#998980" d="M96.395 52.647l-31.578 1.071-.428-22.147L80.463 9.353l45.936-7.788-10.002 21.933L104.467 32z"/><path fill="#6e6256" d="M126.399 1.565l3.072 9.788 8.717 8.002-2.644 11.788-22.861-3.93-3.287-8.502z"/><path fill="#594b42" d="M135.544 31.143l-26.148-12.432-5.143 13.645L117.684 32z"/><path fill="#8e7e72" d="M170.55 8.71l-41.079 2.643 6.073 19.79 15.288-5.431z"/><path fill="#6e6256" d="M189.268 49.789L170.55 8.71l-35.006 22.433 12.645 23.004 20.932 6.358z"/><path fill="#594b42" d="M178.98 73.221l10.288-23.432-41.079 4.358-.213 13.073 6.5 14.574 11.145.143z"/><path fill="#ffede8" d="M158.834 71.507l20.146 1.714-3.5 23.433-4.573 2.572-11.858-4.143z"/><path fill="#cda39e" d="M164.192 86.223l-.215-10.287h9.288z"/><path fill="#594b42" d="M52.101 41.93l11.43-1.429 1.286 13.217 2.643 30.934z"/><path fill="#6e6256" d="M80.463 9.353L52.101 41.93l12.716 11.788z"/><path fill="#738d57" d="M42.67 193.171l-17.217 27.435 44.365 21.718 19.218-7.787v-10.431l-12.217-16.36-9.787 1.571z"/><path fill="#709c52" d="M86.606 174.454l-19.574 34.863 22.004 14.789 2.143-13.931z"/><path fill="#c3c3c3" d="M108.182 164.738L94.823 231.75l19.86 24.361 43.723-.428 7-25.219-10.073-57.725-17.788-9.573z"/><path fill="#ebebeb" d="M117.255 182.813l3.929-20.29-11.145-7.787-1.857 10.002zM143.616 181.026l-6.071-17.86 29.148-9.501 5.572 7.143z"/><path fill="#728c56" d="M123.756 186.884l-1-3.857-5.501-.214 3.929-20.29 16.361.643-2.429 7.144 4.786-.143 3.714 10.859-6.286 5.644-5.286 3.715z"/><path fill="#709c52" d="M123.756 186.884l1.072 5.002-2.286 3.072-1.358 7.144 1.143 5.43-3.072 4.857-2 10.86 2.643 7.787-4.572 2.571 16.503 22.29 5.93-10.43-2.643-5.93 7.358-2.857-1.072-10.646-4.929-6.929 3.857-3.002-.928-8.143-4.501-7.073 3.715-1.572-1.286-12.645z"/><path d="M123.756 186.884l-1.429 7.858 16.86 13.217-.786-8.644-14.788-12.431h.143zm-2.786 15.218l-1.929 10.287 22.147 13.645-1.072-9.931-19.146-14.001zm-3.93 21.147l-1.929 10.358 22.433 11.86 4.715-8.787-25.219-13.431z" fill="#b8c644"/><path fill="#99c16d" d="M108.182 164.738l6.715 97.016 3.072 50.868-35.72.643 4.357-138.811z"/><path fill="#709c52" d="M98.323 178.883l9.859-14.145 3.858 54.081L97.251 192.1l7.216-8.859z"/><path fill="#99c16d" d="M149.476 176.883l.213 41.292 1.143 42.937 1.93 53.51 42.007-2.429-1.572-42.436-3.929-100.233-17.003-8.716-16.932 11.931z"/><path fill="#89af62" d="M193.411 275.901l-.214-6.144-.214-2.787-9.788 1.715z"/><path d="M158.834 179.74l4.143 10.859s-13.288 29.148-13.288 27.576c0-1.285-.214-41.292-.214-41.292l22.789-15.86-1.5 15.217-11.93 3.5zM155.333 214.96l23.934-1.285.427 16.075-23.075.286z" fill="#709c52"/><path fill="#b8c644" d="M159.049 217.533l.641 8.288 6.145-.215-.929-8.502zM167.765 217.962l.428 1.572 8.073-.215.214-2.215zM168.193 222.319l.428 2.431 8.287-.43-.428-2.43z"/><path fill="#72c8a5" d="M162.334 202.102l1.286 12.431 4.357-.214-.641-12.432z"/><path fill="#3f8e6e" d="M166.693 193.386l1.072 15.502 4.285-.214.215-8.287v-7.43z"/><path fill="#72c8a5" d="M177.766 200.387l-5.501.5-.215 7.787 5.716-.214z"/><path fill="#3f8e6e" d="M226.918 189.742l-.857 6.287 7.572-.215.642-5.857zM238.491 189.457l-1.356 6.572h10.429l.858-6.287z"/><path fill="#54af89" d="M218.201 198.672l-12.143-4.786-9.789-.5-13.074 75.299 10.002 1.072z"/><path fill="#72c8a5" d="M257.423 194.958l-51.365-1.072-12.861 75.871 47.652 3.715 3.857-17.646-1.214-18.433 7.145-11.143z"/><path fill="#ffede8" d="M252.422 218.034l-17.647 5.5-1.642 20.29 13.145 4.143 6.287-13.788z"/><path d="M263.639 226.25c-1.143-.787-11.217-8.216-11.217-8.216l-3.144 15.573-3 14.36 14.002-6.931 3.072-14.787h.287z" fill="#efcfca"/><path fill="#cda39e" d="M174.051 105.513l-15.002-10.43 16.431 1.571z"/><path fill="#b8c644" d="M137.545 163.166l-20.29 19.647 6.501 4.071 16.146-16.717z"/><path fill="#3f8e6e" d="M233.133 243.824l11.573 12.002 1.572-7.859z"/><path fill="#efcfca" d="M78.248 72.936l13.717.571 6.215 7.573 1.286 3.001 2.786-3.144 6.501-9.288 5.359-3.5 21.074 3.144-13.359 10.358-14.217 19.504-7.572-7.716-8.145 7.93-6.93-15.074-14.574-10.431z"/><path fill="#cda39e" d="M99.823 95.654l-7.93 5.715 9.645 5.644 6.072-5.858z"/><path d="M85.821 79.151c2.052 0 3.715 1.664 3.715 3.715 0 2.052-1.664 3.715-3.715 3.715-2.052 0-3.715-1.663-3.715-3.715 0-2.052 1.663-3.715 3.715-3.715zM119.184 76.222c2.072 0 3.715 1.643 3.715 3.715s-1.643 3.786-3.715 3.786-3.787-1.714-3.787-3.786 1.715-3.715 3.787-3.715z" fill="#2a2a2a"/><path fill="#5b5046" d="M108.468 66.577l21.789-2.215 4.929 6.931-26.433.356zM91.465 68.006l-18.932 2-2.144 5.858 21.576-2.357s-.572-5.501-.5-5.501z"/><path fill="#fff4f2" d="M98.18 81.08l-1.857 8.644-4.43 11.645 15.717-.214-3.929-11.859-1.429-8.359z"/><path fill="#cda39e" d="M90.536 118.872l12.145-2.5 11.931-.572 8.215-.357-1 2.072-18.789 1.071-11.359 2.287z"/></svg>