<svg xmlns="http://www.w3.org/2000/svg" viewBox="0 0 400 400"><g fill-rule="evenodd" clip-rule="evenodd"><path opacity=".1" fill="#2b2b2b" d="M115.492 390.208l78.814 9.898 79.126-10.797-79.597-7.508z"/><path fill="#9e8468" d="M163.278 169.245l7.004-18.269 12.543-.139 9.878 10.554-8.034 19.884-15.372 6.873z"/><path fill="#d0b996" d="M114.661 97.388l11.462-20.134 21.992-19.933 5.111 67.667-11.151 12.466-2.471-.224zM278.335 157.906l-21.332 36.358-7.771-22.611-1.023-14.348 2.83-4.49 8.03-1.978 11.488 2.328zM277.285 94.185l8.055 2.744-13.737 45.563-4.424-3.523-8.521-17.272-2.282-14.071 10.686-9.88z"/><path fill="#eedfc6" d="M285.34 96.929l-28.964 10.697 2.556-21.232 5.575-9.349 5.808 1.2z"/><path fill="#eecec9" d="M136.602 265.355l6.632 21.545 9.257-10.383-6.558-8.641z"/><path fill="#feeee9" d="M139.784 260.806l-3.3 4.25 11.372 9.58 4.635 1.881 3.665-18.064zM152.9 229.779l-15.129 22.454 4.882 2.288 9.97-1.581 5.402-3.917 3.704-15.878z"/><path fill="#e6e976" d="M130.765 253.344l2.05 12.569 22.517-3.31 2.693-13.58z"/><path fill="#cea19c" d="M183.892 150.363l-.95 4.123 3.26 6.995 4.821 1.063 8.607-3.928 2.139-3.906-3.937-4.347z"/><path fill="#d0b996" d="M130.356 207.786l26.234 27.099 2.87-12.176 1.543-28.09-21.219 6.49z"/><path fill="#6e884c" d="M260.763 380.66l-26.844 13.076-10.918-8.282-7.735-20.488-7.317-24.261z"/><path fill="#6fc5a3" d="M151.429 378.526l-6.241 15.21h30.936l-4.99-6.102-10.919-7.409z"/><path fill="#6e884c" d="M165.22 344.916l-13.791 33.61 24.695 15.21 3.2-8.282-8.19-36.614z"/><path fill="#899a46" d="M233.919 393.736l-25.97-53.031-7.908-2.997-27.613 2.232-9.565 10.719 13.261 43.077z"/><path fill="#6e884c" d="M205.37 247.06l-8.199 10.605-31.972 76.9-2.336 16.094 45.086-9.954 12.212-42.512 3.145-2.97 2.961-10.129.008-8.186z"/><path fill="#aebf3a" d="M143.234 286.9l9.257-10.383 40.582-25.922 12.297-3.535-42.507 103.599z"/><path fill="#899a46" d="M156.59 234.885L143.234 286.9l62.136-39.84-2.875-4.591-40.766-9.324z"/><path fill="#6fc5a3" d="M226.275 276.908h11.069l11.888-5.891 12.555 5.974 5.772 21.514-34.594-.314-2.893-2.563-3.805-10.534z"/><path fill="#eecec9" d="M242.263 304.794l-5.055-6.565 5.055-3.253 12.705.391 5.92 3.076zM242.723 276.927l-13.233 10.21-1.11 2.415 2.053.583 9.543-2.565 5.155-6.734z"/><path fill="#feeee9" d="M255.979 276.972l-7.158-2.421-6.098 2.376-5.515 21.302 23.68.214z"/><path fill="#6e884c" d="M233.595 208.402L205.37 247.06l-48.78-12.175-1.639-34.562 6.052-5.704 12.803.206 6.969-2.75 47.141 13.67z"/><path fill="#eedfc6" d="M145.933 175.188l-15.577 32.598 43.45-12.961-4.919-8.248-16.806-11.389z"/><path fill="#feeee9" d="M261.118 214.855l-4.099-3.612-15.166 1.179-4.92 4.713 4.147 48.321 8.152 3.205 7.231-3.459z"/><path fill="#aebf3a" d="M216.847 164.584l7.788 7.462 11.89 33.775-2.93 2.581-22.165-4.889-2.923-5.526 3.421-28.298z"/><path fill="#899a46" d="M170.117 183.631l-.82 4.517 4.509 6.677 37.631 8.545 5.41-38.786-6.253-1.827-27.359 10.859-2.62 5.667z"/><path fill="#6e884c" d="M166.427 170.082l14.188 9.201 36.232-14.699 1.23-9.819-.799-7.267-15.509 7.212z"/><path fill="#61803a" d="M232.656 148.41l-15.378-.912-15.509 7.212 15.078 9.874 7.379-5.891z"/><path fill="#eecec9" d="M226.071 163.995l-9.224.589 20.086 52.551 24.185-2.28-7.379-36.919-4.507-6.283z"/><path fill="#d0b996" d="M122.157 158.3l24.596 2.749 19.674 9.033 7.379 24.743z"/><path fill="#fff0d8" d="M134.865 152.802l-12.708 5.498 44.27 11.782 8.402-15.693-10.86-3.552z"/><path fill="#eedfc6" d="M149.74 124.988L122.157 158.3l52.672-3.911-1.16-7.141-17.191-20.924z"/><path fill="#d0b996" d="M210.342 41.773l-3.218-10.717-13.849-13.59-17.454 15.269-5.296 12.113 4.969 2.712 29.772-2.705z"/><path fill="#fff0d8" d="M211.305 17.701L186.215-.106l-4.182 10.239 2.514 14.968 5.85 1.057 19.979 16.027 6.04-10.239z"/><path fill="#d0b996" d="M237.103 60.797l-10.929-1.336L213.28 46.01l-2.904-3.825 6.04-10.239 11.834-4.734 11.864 10.522z"/><path fill="#eedfc6" d="M233.608 9.242l-22.303 8.459-.929 24.484 15.798-8.013 10.222-12.91z"/><path fill="#fff0d8" d="M256.376 31.056L233.608 9.242l-7.434 24.93 10.929 26.625 14.626-11.489zM256.376 107.626l21.959 50.281-23.281-6.08-4.593-9.706.487-22.534z"/><path fill="#fff0d8" d="M256.376 31.056l13.939 47.189-13.939 29.381-4.647-18.252V49.308z"/><path fill="#eecec9" d="M229.891 119.202l.466-27.157 6.568-11.164 10.158 12.054 1.393 10.684 3.478 11.612-5.335 23.113-13.963 10.066-30.887 6.3 2.568-12.804z"/><path fill="#cea19c" d="M243.133 107.85l5.343-4.231 7.9 4.007-2.788 10.685-6.673 4.628z"/><path fill="#feeee9" d="M247.083 92.935l-2.98-.451-.97 15.366 13.243-.224z"/><path fill="#cea19c" d="M248.048 97.351l-.004 5.628 4.864-3.443z"/><path fill="#feeee9" d="M144.585 78.059l5.155 46.929 25.089 29.401 26.94.321 31.656-29.623 3.475-41.491.203-22.799-26.727-18.612-39.851 2.663-11.778 11.078-10.342 10.854z"/><path fill="#eecec9" d="M181.141 91.689l-3.138-6.389-18.584-5.787-8.829 3.561 15.332 8.013 13.476 24.93 4.646-13.355zM190.592 92.112l3.702-6.25 18.267-5.341 9.147 3.115-15.652 8.014-13.485 24.194-5.615-12.154z"/><path fill="#cea19c" d="M179.398 116.017l6.585 5.101 6.588-5.274-6.669-2.498z"/><path fill="#fef4f2" d="M181.141 91.689l9.408-.156 2.022 24.311-13.173.173z"/><path d="M166.544 95.879c2.39 0 4.339-1.867 4.339-4.156 0-2.289-1.949-4.157-4.339-4.157-2.389 0-4.338 1.867-4.338 4.157 0 2.289 1.949 4.156 4.338 4.156z" fill="#2b2b2b"/><path fill="#b5c436" d="M182.566 135.135l-11.196-5.683 15.183 1.434 17.33-1.756-11.824 6.005z"/><path fill="#eecec9" d="M170.391 124.988l-9.388-.5 14.293-7.736z"/><path fill="#bda476" d="M150.59 83.074l7.622-2.225 19.791 4.451-1.858-3.562-16.726-4.006zM221.708 83.636l-7.623-2.224-19.791 4.45 1.859-3.561 16.726-4.007z"/><path fill="#6e884c" d="M171.37 129.452l9.679-.568 5.719-1.481 5.288 1.425 12.247.214-17.75 3.073z"/><path fill="#eedfc6" d="M216.847 164.584l39.529-56.958-2.637 70.31z"/><path fill="#929c39" d="M244.274 111.373l5.323-8.394 4.452 8.001-4.748 6.454z"/><path fill="#eedfc6" d="M256.376 31.056v76.57l-27.572-34.02z"/><path fill="#e6e976" d="M237.344 265.519v11.389l24.443.083-.669-11.865z"/><path fill="#eecec9" d="M201.201 123.586l9.766 1.921-14.569-8.755z"/><path fill="#f0cfc9" d="M144.618 77.464l25.907-32.616-10.813 2.129-12.064 11.716-3.839 11.28z"/><path fill="#eedfc6" d="M134.215 33.516l-19.554 63.872 75.736-71.23-4.182-26.264z"/><path fill="#6e884c" d="M244.274 111.373l9.775-.393-4.91 7.074z"/><path d="M205.37 247.06l6.061-43.547 22.165 4.89-18.817 25.773-9.409 12.884zm-62.136 39.84l83.041-9.992-20.905-29.848-62.136 39.84z" opacity=".15" fill="#2b2b2b"/><path d="M205.539 95.879c2.39 0 4.339-1.867 4.339-4.156 0-2.289-1.949-4.157-4.339-4.157-2.39 0-4.338 1.867-4.338 4.157 0 2.289 1.948 4.156 4.338 4.156z" fill="#2b2b2b"/><path fill="#46ae88" d="M226.275 276.908l6.69 21.283-12.804.002z"/></g></svg>