<svg xmlns="http://www.w3.org/2000/svg" viewBox="0 0 400 400"><path fill="#2b2b2b" fill-opacity=".102" d="M118.085 388.527l127.534 10.99 38.413-12.802-77.426-7.369z"/><path fill="#5a753d" d="M156.732 214.969l-17.998 23.913 13.767 28.866 11.601-42.15z"/><path fill="#35785d" d="M164.216 267.748l-.6 14.735 30.435 21.983 13.65 13.163 36.233-18.116-15.461-23.07.243-6.401-3.624-5.918-51.812.848z"/><path fill="#73c6a4" d="M193.929 161.343l-15.817 10.99-2.173 87.564 14.852 4.831 16.667-3.863 19.085-43.362 3.98-50.002z"/><path fill="#46382d" d="M139.821 34.042l-7.37 15.1v7.726l14.861 25.968 3.98-38.891z"/><path fill="#5e5044" d="M149.971 56.268l1.321-12.323-11.471-9.903-7.37 15.1z"/><path fill="#efd0cb" d="M182.822 147.694l17.026 11.959 46.623-19.81 6.275-18.959-2.894-29.953L231.61 35.25z"/><path fill="#cea39f" d="M234.391 144.918l-51.569 2.776 17.026 11.959z"/><path fill="#ffeee9" d="M145.739 38.631l3.259 92.277 18.242 18.237 48.309-3.141 13.766-18.359 2.295-92.395z"/><path fill="#fff5f3" d="M175.574 79.938l8.334-.361 2.173 24.638-6.405 1.69-5.675-.965z"/><path fill="#cea39f" d="M174.001 104.94l6.283 4.229 5.797-4.954-6.405 1.69zM205.52 115.93l-22.577-.843-17.633 2.898 10.985 12.923 17.756-.121z"/><path fill="#fff" d="M201.896 117.621l-10.383 10.267h-13.766l-9.056-8.455z"/><path fill="#5e5044" d="M184.508 77.765l1.451-5.072 16.303-10.024 14.617 7.005-15.339-1.813zM174.488 77.765l-.609-5.315-15.695-7.126-6.284 5.436 6.884-1.569z"/><path fill="#efd0cb" d="M216.879 69.674l-31.406 26.81-1.565-16.907.6-1.812 17.032-9.904zM158.784 69.191L151.9 70.76l22.944 22.344.73-13.166-1.086-2.173zM221.225 109.169l-8.456 5.314-3.503 12.436zM159.992 121.366v-9.299l-4.711 4.828z"/><path fill="#46382d" d="M232.453 13.149L205.52 9.165l-22.463 7.122-37.318 2.537-5.918 15.218 11.471 9.903 67.881 2.537 12.437-5.674 8.821-11.355-3.502-11.472z"/><path fill="#5e5044" d="M195.745 15.2l-3.624-6.157-17.755-7.005-28.627 16.786 73.434 13.406 17.756-14.249-4.476-4.832z"/><path fill="#74665b" d="M232.453 13.149L174.366 2.038 195.745 15.2z"/><path fill="#46382d" d="M231.61 40.808l-.6 21.014 8.092 9.781v21.501l7.725 1.447 2.06-13.405 13.401-2.656 7.97-10.146-4.346-9.664 3.502-8.33-10.385-14.735 2.294-5.197-12.08-5.314-4.223-7.123h-8.091z"/><path fill="#46382d" d="M270.258 68.344l-4.346-9.664-7.491 8.456-26.811-13.77-.357.486-.243 7.97 8.092 9.781v21.501l7.725 1.447 2.06-13.405 7.969-2.295z"/><path fill="#5e5044" d="M270.258 68.344l-21.371 12.802 7.24 11.232 8.334-6.522zM269.414 50.35l-12.558 7.969-25.246-17.511 14.495 1.933 12.924-7.126zM249.243 25.104L231.61 40.808l5.319-22.827h8.091z"/><path fill="#ffeee9" d="M248.887 81.146l-8.334 24.638 15.695 4.71 8.213-24.638z"/><path fill="#cea39f" d="M251.538 85.856l8.091 2.416-11.351 7.852zM240.553 105.784l12.193 15.1 3.502-10.39z"/><path fill="#53af8a" d="M199.969 159.049l-1.573 4.346-5.918 2.416-4.467 3.867 2.902-16.308zM199.969 159.049l.719 7.244 9.186.726 3.259 2.659 34.902-21.74-1.564-8.095z"/><path fill="#44612d" d="M213.133 169.678l3.016 26.571-8.569 50.241-.122 14.253-1.938 5.554 15.826 1.811 7.969-7.243 17.034 36.11 24.995-19.685-8.691-14.856 14.252-97.467-28.87-17.029z"/><path fill="#5a753d" d="M212.29 180.667l-4.71 65.823 22.344-43.722-10.508-13.163-.121-6.765z"/><path fill="#738d56" d="M248.035 147.938l-34.902 21.74-.843 10.989 7.126 8.938z"/><path fill="#44612d" d="M183.3 171.607l6.77-13.766-30.078 16.547-8.813 43.601 4.824 5.315-3.502 44.444 6.647 14.735 6.884-3.624 5.797-11.111 7.126-2.776-3.016-5.194.843-15.461 6.161-53.747z"/><path fill="#5a753d" d="M176.782 244.317l-11.472-42.514 21.25-21.136z"/><path fill="#738d56" d="M171.342 180.667l6.77 8.456 8.448-8.456 3.51-22.826z"/><path fill="#4d4d4d" d="M175.939 259.778l31.519.965 13.888 7.365-49.517-.36 2.537-4.832z"/><path fill="#b7c643" d="M195.502 171.851l-12.559 72.828 7.127 10.507 11.47-8.935 3.381-73.918-4.952-2.173z"/><path fill="#a5b23c" d="M192.478 165.811l3.024 6.04 9.419.482 4.953-5.314-9.905-7.97z"/><path fill="#429676" d="M152.501 267.748l3.502 56.164 19.814 23.912 19.806-14.856 5.431-18.842-5.795-11.111-34.781-28.744z"/><path fill="#5a753d" d="M250.451 372.945l4.346 15.822-15.818 2.78-19.328-3.02 5.076-20.896 22.343-.122zM184.151 371.858v13.166l-50.97-1.811 25.238-19.324 20.536.361z"/><path fill="#35785d" d="M184.151 371.858l11.472-38.89-39.62-9.056 2.416 39.977z"/><path fill="#738d56" d="M156.003 223.304l3.989-48.916-21.258 64.494z"/><path fill="#e5e87b" d="M188.132 252.409l13.529-9.06.122-2.411-14.737 9.902zM182.943 244.679l.965 1.451 18.232-12.563.122-2.416zM184.508 235.862l17.997-12.198.121-2.294-17.753 11.958zM186.324 225.111l16.667-11.228.113-2.299-16.301 10.994zM188.132 214.365l15.338-10.267.121-2.295-14.972 10.025zM189.948 203.615l13.886-9.299.122-2.295-13.529 9.056zM204.435 182.236l-12.192 8.095-.365 2.534 12.435-8.335zM204.921 172.455l-10.749 7.126-.486 2.655 11.113-7.487zM202.14 160.861l-8.568 7.244.965 1.694 9.054-7.73zM206.729 164.602l-8.568 7.37 2.649.122 7.492-6.283z"/><path fill="#54b08b" d="M195.259 303.015l26.087-34.907 17.999 14.132 7.004 14.735 1.565 29.835-20.893 24.395-17.025-15.821z"/><path fill="#3e8e6f" d="M245.385 278.98l-6.892 8.939 7.856 9.056z"/><path fill="#446125" d="M254.797 393.959l-34.78-.117-.366-5.315 12.802.118 22.344.122zM184.151 388.284v-5.436l-50.606.243-.243 5.193z"/><path d="M164.824 80.302c2.197 0 3.989 1.784 3.989 3.985 0 2.201-1.792 3.985-3.989 3.985-2.205 0-3.989-1.784-3.989-3.985 0-2.201 1.784-3.985 3.989-3.985zM197.918 78.851c2.197 0 3.979 1.784 3.979 3.985 0 2.201-1.782 3.989-3.979 3.989-2.205 0-3.989-1.788-3.989-3.989 0-2.201 1.784-3.985 3.989-3.985z" fill="#2b2b2b"/><path fill="#efd0cb" d="M245.385 278.98l-6.892 8.939-17.147-19.811z"/><path fill="#738d56" d="M284.389 241.658l-39.004 37.322-24.039-10.872 28.14-42.51 18.356 4.95z"/><path fill="#5a753d" d="M239.944 199.869l36.961-34.902 7.484 76.691-34.903-15.821z"/><path fill="#35785d" d="M250.451 372.945l-2.537-46.135-37.918 8.574 14.731 32.247z"/></svg>