<svg xmlns="http://www.w3.org/2000/svg" viewBox="0 0 400 400"><path opacity=".1" fill-rule="evenodd" clip-rule="evenodd" fill="#34302d" d="M140.577 384.497L229.805 400l82.51-8.418-82.51-18.508-91.357 11.423"/><path fill-rule="evenodd" clip-rule="evenodd" fill="#45692a" d="M275.1 245.049l14.711-22.068 15.869-9.678 22.456 3.875-36.393 47.997-11.223-11.998z"/><path fill-rule="evenodd" clip-rule="evenodd" fill="#f4d7d2" d="M285.554 268.276l-11.913 11.688-8.994-11.3 5.808-11.23z"/><path fill-rule="evenodd" clip-rule="evenodd" fill="#f0f2f2" d="M291.743 265.175l-6.189 8.133-13.555-14.71-3.095-5.421 6.196-8.128z"/><path fill-rule="evenodd" clip-rule="evenodd" fill="#f4d7d2" d="M128.383 263.245l.775 13.934 13.16 8.903 6.195-3.483-2.712-18.194z"/><path fill-rule="evenodd" clip-rule="evenodd" fill="#425c27" d="M167.483 195.109l22.451-34.838 4.646 41.421-7.358 19.742-20.515-8.518z"/><path fill-rule="evenodd" clip-rule="evenodd" fill="#f0f2f2" d="M205.803 152.525l-2.708 41.038 19.356 37.934 9.292-63.485-6.584-8.516z"/><path fill-rule="evenodd" clip-rule="evenodd" fill="#fff" d="M253.031 193.176l-30.58 38.321 9.292-63.485 8.902-9.291 18.582-7.74z"/><path fill-rule="evenodd" clip-rule="evenodd" fill="#f4d7d2" d="M250.711 39.875L227.6 143.124l5.304 6.307 26.323-11.617 25.164-61.938z"/><path fill-rule="evenodd" clip-rule="evenodd" fill="#3b4f22" d="M193.417 270.984l14.323 27.484 20.439-1.005 28.727 1.005 10.836-34.063-46.841-12.777z"/><path fill-rule="evenodd" clip-rule="evenodd" fill="#45692a" d="M184.072 283.832l9.345-26.943 15.292 31.895 14.905 30.819-11.534 55.486-16.338-9.713z"/><path d="M207.031 279.964l21.148 17.499-10.76 80.45-8.841-1.319-3.933-86.799s-1.775-14.768-2.831-14.218c.132.118-.21 6.934 5.217 4.387z" fill-rule="evenodd" clip-rule="evenodd" fill="#425c27"/><path fill-rule="evenodd" clip-rule="evenodd" fill="#54702b" d="M236.775 324.249l7.663-40.885 17.114-33.44 12.154 29.097-2.864 40.971-1.355 50.688-3.434 14.605-14.162-10.009z"/><path fill-rule="evenodd" clip-rule="evenodd" fill="#425c27" d="M228.179 297.463l18-17.499-1.407 4.247 12.219 91.824-9.376-3.808z"/><path fill-rule="evenodd" clip-rule="evenodd" fill="#fef2f0" d="M178.706 42.583l-.387 36.78.329 27.561 16.138 34.461 32.814 1.739 16.023-16.372 7.088-86.877-49.165-8.128z"/><path fill-rule="evenodd" clip-rule="evenodd" fill="#f4d7d2" d="M201.933 98.332l-11.999-15.099-7.357-8.903 3.875-5.033h11.999l6.519 3.265.45 3.701 2.712-3.786 9.287-3.568 13.16-1.161 4.646 4.257-9.678 9.678-15.869 16.649-4.258-3.875z"/><path d="M191.45 85.546c2.045 0 3.713-1.668 3.713-3.714 0-2.045-1.669-3.713-3.713-3.713-2.045 0-3.714 1.668-3.714 3.713 0 2.046 1.669 3.714 3.714 3.714zM223.471 84.91c2.039 0 3.702-1.663 3.702-3.702 0-2.039-1.663-3.702-3.702-3.702-2.039 0-3.702 1.663-3.702 3.702 0 2.04 1.663 3.702 3.702 3.702z" fill-rule="evenodd" clip-rule="evenodd" fill="#33302d"/><path fill-rule="evenodd" clip-rule="evenodd" fill="#3e2b19" d="M160.512 53.812l17.807 25.551.387-36.78-12.387-2.708z"/><path fill-rule="evenodd" clip-rule="evenodd" fill="#5f4a38" d="M170.966 21.681l-10.454 32.131 18.194-11.229 4.258-8.516z"/><path fill-rule="evenodd" clip-rule="evenodd" fill="#836e61" d="M216.256 0l-45.29 21.681 7.74 20.902 22.451 1.938 11.617-18.194z"/><path fill-rule="evenodd" clip-rule="evenodd" fill="#3e2b19" d="M256.131 8.133L216.256 0l-15.099 44.521 32.136-14.324z"/><path fill-rule="evenodd" clip-rule="evenodd" fill="#5f4a38" d="M250.711 39.875l-49.554 4.646 54.974-36.388 4.646 19.356z"/><path fill-rule="evenodd" clip-rule="evenodd" fill="#836e61" d="M294.068 52.261L256.131 8.133l-5.42 31.742 17.031 18.194z"/><path fill-rule="evenodd" clip-rule="evenodd" fill="#5f4a38" d="M250.711 39.875l1.551 36.001 24.383-1.934 17.423-21.681z"/><path fill-rule="evenodd" clip-rule="evenodd" fill="#3e2b19" d="M252.262 75.876l1.157 18.198 15.099 3.482 12.774-13.935 12.776-31.36z"/><path fill-rule="evenodd" clip-rule="evenodd" fill="#fef2f0" d="M261.939 79.75l-5.033 23.227 15.093 3.484 9.293-22.84z"/><path fill-rule="evenodd" clip-rule="evenodd" fill="#d2a7a0" d="M263.098 92.524l1.549-8.128 7.741 1.933zM269.292 113.043l-12.386-10.066 15.093 3.484z"/><path fill-rule="evenodd" clip-rule="evenodd" fill="#d4d1d0" d="M205.803 142.073v10.452l4.646 1.551 22.069 7.74.386-12.385z"/><path fill-rule="evenodd" clip-rule="evenodd" fill="#f0f2f2" d="M259.227 137.814l-26.323 11.617-.386 12.385 26.709-10.835z"/><path fill-rule="evenodd" clip-rule="evenodd" fill="#d2a7a0" d="M205.803 142.073l27.101 7.358 11.612-5.033-6.578-.775z"/><path fill-rule="evenodd" clip-rule="evenodd" fill="#4a4b4a" d="M210.449 174.978v-20.902l22.069 8.128-.775 5.808z"/><path fill-rule="evenodd" clip-rule="evenodd" fill="#4a4b4a" d="M248.002 179.239l-16.259-11.227.775-5.808 17.417-7.353z"/><path fill-rule="evenodd" clip-rule="evenodd" fill="#3f3c3a" d="M222.838 158.721v11.999l14.712 1.162 1.931-12.773z"/><path fill-rule="evenodd" clip-rule="evenodd" fill="#45692a" d="M189.934 160.271l15.869-7.746-2.708 41.038-5.032 8.903-13.936-2.712z"/><path fill-rule="evenodd" clip-rule="evenodd" fill="#53702a" d="M222.451 231.497l-27.484-9.673-10.84-22.07 12.386-4.258 6.582-1.933z"/><path fill-rule="evenodd" clip-rule="evenodd" fill="#53702a" d="M269.679 205.174l-8.514 16.26-38.714 10.063 30.58-38.321 11.227-.387z"/><path fill-rule="evenodd" clip-rule="evenodd" fill="#45692a" d="M275.487 157.171l5.805 25.939-11.613 22.064-10.065-6.583-6.583-5.415 6.196-42.195zM247.391 303.889l-27.264-43.746-5.416-12.772 7.74-15.874 31.356-2.321 21.293 15.873-5.808 27.485z"/><path fill-rule="evenodd" clip-rule="evenodd" fill="#708944" d="M269.679 205.174l8.13.387.386 7.355-3.095 32.133-25.165-6.582-27.484-6.97z"/><path fill-rule="evenodd" clip-rule="evenodd" fill="#53702a" d="M289.811 222.981l-20.132-17.807 5.808-48.003 52.649 60.007-19.744 3.095z"/><path fill-rule="evenodd" clip-rule="evenodd" fill="#dfdf3a" d="M90.832 198.208l22.065 18.195 2.325 34.45-43.358-46.066z"/><path fill-rule="evenodd" clip-rule="evenodd" fill="#ede86a" d="M81.929 156.008l8.903 42.2-18.968 6.579z"/><path fill-rule="evenodd" clip-rule="evenodd" fill="#bfc40c" d="M98.96 157.946l-17.031-1.938 2.708 12.779z"/><path fill-rule="evenodd" clip-rule="evenodd" fill="#187250" d="M148.897 282.599l-33.675-31.746 1.545-3.482 26.713-36.776 28.648-4.645 12.773 48.391z"/><path fill-rule="evenodd" clip-rule="evenodd" fill="#bdc407" d="M112.897 216.403l24.389-20.132 30.197-1.162-19.357 60.001-32.904-4.257z"/><path fill-rule="evenodd" clip-rule="evenodd" fill="#ede86a" d="M124.512 206.725l5.033-4.259 27.097 25.935-8.516 26.709-17.423-2.319z"/><path fill-rule="evenodd" clip-rule="evenodd" fill="#248964" d="M169.415 280.663l-20.902 1.936-13.552-13.166 20.131-1.932zM167.483 254.728l8.902-23.614s25.161 30.966 25.935 30.191c.774-.775-10.453 17.809-10.453 17.809l-6.579-6.967-17.806-17.037v-.382z"/><path fill-rule="evenodd" clip-rule="evenodd" fill="#fef8f8" d="M204.97 72.562l-6.083 25.77h10.791l-1.134-25.867z"/><path fill-rule="evenodd" clip-rule="evenodd" fill="#d2a7a0" d="M205.42 102.59l-6.533-4.258h10.791zM191.492 111.304l2.792 1.049 26.884-1.398 6.98-2.446-10.126 14.664-19.199.35z"/><path fill-rule="evenodd" clip-rule="evenodd" fill="#fff" d="M195.332 114.096l23.738-.349 3.49-1.394-5.932 6.631h-10.475l-7.679.35z"/><path fill-rule="evenodd" clip-rule="evenodd" fill="#836e61" d="M217.807 66.2l-.388 2.709 17.806 3.096.725-3.855zM197.469 65.866l.982 3.431-15.874 5.033-.194-3.291z"/><path d="M227.097 241.561c1.551 0 2.708 1.938 2.708 4.646 0 2.324-1.157 4.646-2.708 4.646-1.55 0-2.708-1.934-2.708-4.646 0-2.321 1.158-4.646 3.095-4.646h-.387z" fill-rule="evenodd" clip-rule="evenodd" fill="#343d20"/><path fill-rule="evenodd" clip-rule="evenodd" fill="#ede86a" d="M126.445 183.885l2.713-55.748 16.256 43.745z"/><path fill-rule="evenodd" clip-rule="evenodd" fill="#bfc40c" d="M149.672 133.169l-20.514-5.032 5.42 14.323z"/><path fill-rule="evenodd" clip-rule="evenodd" fill="#dfdf3a" d="M182.577 210.595l-37.163-38.713-18.969 12.003 32.517 37.549z"/><path fill-rule="evenodd" clip-rule="evenodd" fill="#bfc40c" d="M158.962 221.434l29.422 30.582 8.516-14.326-1.933-14.322-27.484-28.259z"/><path fill-rule="evenodd" clip-rule="evenodd" fill="#708944" d="M187.997 251.628l-3.87-51.874 38.324 31.743-13.935 17.81z"/><path fill-rule="evenodd" clip-rule="evenodd" fill="#53702a" d="M184.072 283.832l1.217-13.624 2.708-18.58 34.454-20.131-1.163 14.711-1.161 13.935-15.482 43.746z"/><path fill-rule="evenodd" clip-rule="evenodd" fill="#f4d7d2" d="M242.138 100.503l-13.244 12.002 6.584 6.501zM180.599 104.929l9.039 8.532-3.101 5.551z"/><path fill="#3d3a37" d="M247.433 384.427l-9.489 4.082.438 4.745 34.155.552v-4.847zM190.799 375.294l-21.406 6.62v4.328l48.885-.615v-4.904z"/><path fill="#504b4a" d="M169.393 381.914l25.737-18.219 23.148 7.797v9.231zM269.487 370.68l3.05 18.279-34.593-.45 9.671-16.282z"/></svg>