<svg xmlns="http://www.w3.org/2000/svg" viewBox="0 0 400 400"><g fill-rule="evenodd" clip-rule="evenodd"><path opacity=".1" fill="#33302d" d="M129.893 391.452l66.637-8.638 66.578 8.119-65.059 9.088z"/><path fill="#6c993c" d="M186.243 370.139l5.812-.943-4.117 20.136-4.587-11.234z"/><path fill="#a1c059" d="M150.606 388.766l11.335-11.807 7.22-2.249 15.926-15.57 6.968 10.056-17.151 20.381z"/><path fill="#d2a59f" d="M161.941 376.959l12.963 12.618 10.183-30.437-7.685-5.572-7.747 5.863z"/><path fill="#fef2f0" d="M279.646 280.269l5.931-4.551-2.61-7.499-16.119-7.231-.974 12.398 4.654 6.93z"/><path fill="#f2d6d2" d="M272.645 291.434l-5.797-30.446-8.027 5.731.64 10.499 1.481 8.404 8.783 6.788zM279.646 280.269l3.321-12.05 7.895 5.912 8.064 6.035z"/><path fill="#d2a59f" d="M165.591 311.015l-13.069-.983 15.614 45.017 8.84 2.563 8.157-3.142 1.462-30.63-4.433-5.569zM218.22 348.832l-24.315-25.901 3.273-6.248 15.793-8.098 7.666-.348 10.729 29.812-5.082 7.988z"/><path fill="#b68e88" d="M186.596 323.839l.395-8.274-6.012-4.147-16.604-3.239-11.853 1.853zM193.905 322.931l-6.914-7.366 2.9-5.382 20.65-4.839 10.096 2.893z"/><path fill="#c7da7f" d="M185.133 354.47l-16.997.579 1.52 4.382 15.431-.291z"/><path fill="#383432" d="M130.645 80.126l16.659-49.304-26.07-3.229-9.29 45.498 4.852 22.934z"/><path fill="#c7da84" d="M106.462 263.453l6.819 18.422 6.014-.752 11.198-22.32 5.41-17.003z"/><path fill="#d2a59f" d="M252.661 224.395l-8.159-21.043-6.727 3.807-10.582 14.245-1.38 6.757 4.771 6.584 6.127.593 12.44-5.039z"/><path fill="#b68e88" d="M225.813 228.161l18.689-24.809-16.953 7.23-6.722 10.699z"/><path fill="#33302d" d="M233.405 142.972l32.418-12.8 8.988.408-23.758 44.43-8.816-3.568z"/><path fill="#403d3b" d="M257.687 95.558l-9.183 12.892-12.505 33.365 2.867 3.854 35.945-15.089z"/><path fill="#33302d" d="M226.703 106.326l-11.63 25.396 10.834 17.083 9.754 5.401 22.026-58.648-8.37-4.584-16.388 1.419z"/><path fill="#403d3b" d="M242.436 28.914l-10.595 23.043.792 31.839-.486 13.588 25.54-1.825z"/><path fill="#33302d" d="M210.663 42.577l4.182 12.762 11.265 38.535 6.037 3.51 10.289-68.47-11.285-2.33z"/><path fill="#383432" d="M200.954 9.281l5.496 25.355 9.947 4.315 26.039-10.037L199.762-.021z"/><path fill="#403d3b" d="M174.086 41.154l-8.498-6.02 12.391-29.365 6.234-3.16 15.549-2.63 16.635 38.972-7.479 5.716z"/><path fill="#383432" d="M142.205 25.608l17.496-19.687 24.512-3.312-13.682 33.21-13.638 4.149-17.756-6.162z"/><path fill="#403d3b" d="M117.913 135.672l-10.375-12.154 18.517-54.984 4.121 6.952 4.844 47.137z"/><path fill="#383432" d="M107.538 123.518l22.086-3.881 10.858 9.953 8.682 17.452-12.326 8.466-9.471 1.209z"/><path fill="#33302d" d="M141.182 119.637h-11.558l11.796 32.724 11.616-6.572 3.572-7.932-2.263-8.989z"/><path fill="#b68e88" d="M252.659 224.395l-22.075 10.35 14.487 16.973 16.25 9.168 5.527.102z"/><path fill="#a8cc6f" d="M266.848 260.988l-36.264-26.244 7.821 19.058 10.748 15.05 10.308 8.366z"/><path fill="#b68e88" d="M124.71 203.234l9.703 8.079 17.852-9.09-15.389-8.599-12.248-8.672z"/><path fill="#d2a59f" d="M124.628 184.952l17.743 44.616-1.333 7.952-5.135 4.28-34.828-38.791z"/><path fill="#b68e88" d="M182.624 207.345l22.257-14.026-2.869-8.375-49.077 8.193-7.319 12.472 4.885 24.026 8.76 1.946 17.187-3.034z"/><path fill="#d2a59f" d="M213.519 146.907l-35.147 10.588-16.434 21.287.73 9.001 3.405 6.328 34.552-3.895 10.219-27.25z"/><path fill="#b68e88" d="M170.091 145.469l7.175 1.926 5.519 10.214-.622 4.673-14.142 17.229-18.047-6.438-1.892-6.141 9.972-16.539z"/><path fill="#a8cc6f" d="M150.501 229.635l1.082 6.9 8.168 6.464 9.49-6.279 2.673-10.493z"/><path fill="#c7da84" d="M183.106 242.287l-.972 16.059-27.482-9.835.717-7.197 5.622-1.274 10.923-13.813z"/><path fill="#a8cc6f" d="M194.657 250.052l19.105-12.777-1.797-5.234-15.622-7.485-14.305-1.205-10.124 2.876 10.22 32.119z"/><path fill="#a1c059" d="M230.584 234.744l-18.619-2.703-29.831 26.305 10.439.873 35.416-13.749z"/><path fill="#a1c059" d="M178.727 203.842l-6.707 22.393 39.945 5.806-15.773-20.788z"/><path fill="#a8cc6f" d="M200.625 190.216l-21.898 13.626 33.238 28.199-2.583-27.226z"/><path fill="#c7da84" d="M244.502 203.354l-16.627-10.704-27.25-2.434 11.34 41.825z"/><path fill="#a1c059" d="M251.053 175.01l-6.551 28.342-43.877-13.136 28.709-14.599z"/><path fill="#a8cc6f" d="M238.866 145.669l-20.723 19.243-17.518 25.304 50.428-15.206z"/><path fill="#c7da84" d="M222.523 148.855l-12.165 4.378-9.733 36.983 38.241-44.547z"/><path fill="#a8cc6f" d="M220.214 128.3l-8.397 5.469-1.459 19.464 28.508-7.564zM178.18 153.862l-5.782-22.527-15.79 6.522-1.547 12.791 7.694 9.315z"/><path fill="#c7da84" d="M127.367 156.717l29.241-18.861 6.147 22.107-10.454 10.301-17.859 1.46z"/><path fill="#a8cc6f" d="M124.628 184.952l2.739-28.235 24.934 13.547-10.072 12.167z"/><path fill="#c7da84" d="M145.616 205.609l-20.988-20.657 27.673-14.688 15.72 9.247-1.948 14.6z"/><path fill="#a3ca68" d="M142.342 189.318l3.274 16.291 9.753-8.093-.974-8.272-3.407-2.433z"/><path fill="#2d8862" d="M152.935 193.137l-7.319 12.472 26.404 20.626-13.422-29.745z"/><path fill="#7ac3a1" d="M166.073 194.111l-7.784-2.434-3.65-2.637-1.704 4.097 19.085 33.098z"/><path fill="#1e7150" d="M157.113 185.413l-6.125 1.398 1.947 6.326 5.354-1.46z"/><path fill="#f2d6d2" d="M142.371 229.568l8.13.067-2.431 6.324-6.663 5.053-5.504.788z"/><path fill="#fef2f0" d="M150.501 229.635L135.903 241.8l18.749 6.711 6.339-8.471z"/><path fill="#d2a59f" d="M207.61 132.917l-33.174.923-4.109 3.419 11.836 25.023 11.71-8.63z"/><path fill="#f2d6d2" d="M227.988 108.63l-17.63 44.603-28.195 9.049 19.234-26.079-23.533.729 1.141-7.753 19.915-14.226 2.51-60.841 24.827 36.547z"/><path fill="#fef2f0" d="M203.503 118.359l-25.639 18.573-21.256.924-26.984-18.219-3.569-51.103 9.056-10.074 26.418-18.29 8.865-4.3 13.083 5.113 25.011 21.111-2.989 5.768z"/><path fill="#d2a59f" d="M159.294 107.231l-5.279-5.499 3.449-1.41 4.877 1.219z"/><path fill="#f2d6d2" d="M174.499 78.97l-12.158 22.571-3.25-13.006 2.414-8.936 2.958-7.738 14.217-3.999 11.958 2.891zM151.243 72.592l2.97 7.002 2.439 8.535-2.637 13.603L141.614 80l-11.243-7.7 8.804-3.273z"/><path fill="#33302d" d="M216.803 66.995l-11.322 1.321 14.412 26.237 6.291-7.051-1.025-13.489zM179.215 66.237l11.423 4.516-12.897-1.676-13.278 2.784 1.13-3.24zM130.371 72.3l8.694-4.438 10.677 1.571 1.501 3.159-11.691-2.033z"/><path fill="#fef8f8" d="M154.015 101.732l.198-22.138 7.292.005.836 21.942-4.183 1.744z"/><path opacity=".1" fill="#33302d" d="M162.755 159.963l-10.454 10.301 7.86 4.624 18.019-21.026z"/><path fill="#bdc30f" d="M146.084 112.108l12.234 6.875 6.271-.127 13.197-8.374-15.864 4.353z"/><path fill="#738944" d="M160.918 111.866l-5.074.802-9.76-.56 15.092 4.012 16.61-5.638-11.173 1.961z"/><path fill="#d2a59f" d="M227.988 108.63l-8.095-14.077 6.217-.679 6.037 3.51z"/><path fill="#fef2f0" d="M232.147 97.384l-2.526-8.449-1.683-2.395-.266-4.118-2.513-8.409-5.266 20.54z"/><path fill="#d2a59f" d="M227.672 82.422l-1.415 8.237 3.364-1.724z"/><path fill="#f2d6d2" d="M140.338 112.512l10.352-8.521-7.608.407zM183.018 109.496l-15.511-6.212h10.673z"/><path fill="#383432" d="M170.531 35.819l34.95 32.497 19.678 5.697-8.762-35.062z"/><path fill="#403d3b" d="M126.055 68.534l22.874-8.855 21.602-23.86-31.394-2.013zM121.234 27.593l17.903 6.213 20.564-27.885z"/><path fill="#ccc9ca" d="M167.564 327.224l-1.285 1.427 1.502 1.167 1.167-1.502zM169.983 339.019l-1.285 1.427 1.501 1.169 1.168-1.504zM165.171 316.721l-1.285 1.426 1.502 1.169 1.167-1.502zM172.317 349.862l-1.285 1.428 1.502 1.166 1.168-1.501zM203.434 320.636l-.568 1.835 1.851.43.43-1.853zM210.575 330.332l-.569 1.835 1.854.431.43-1.854zM217.241 339.194l-.569 1.835 1.853.431.431-1.852zM112.542 201.657l-1.284 1.428 1.501 1.168 1.167-1.501zM118.008 209.352l-1.284 1.427 1.502 1.167 1.167-1.5zM124.489 217.653l-1.285 1.428 1.501 1.167 1.168-1.5zM130.855 225.344l-1.285 1.427 1.501 1.168 1.169-1.501zM238.82 213.641l-1.285 1.427 1.502 1.167 1.167-1.502zM242.43 223.345l-1.285 1.428 1.5 1.167 1.17-1.501zM246.954 233.579l-1.285 1.428 1.502 1.168 1.167-1.501zM179.166 170.874l-1.285 1.428 1.501 1.167 1.168-1.501zM173.408 164.083l-1.284 1.428 1.5 1.167 1.168-1.501zM189.231 168.586l-1.285 1.428 1.502 1.168 1.167-1.501z"/><path fill="#a1c059" d="M135.903 241.8l46.231 16.546-4.143 11.706-29.591 31.686-8.741 6.229-2.926-12.063-2.908-40.019zM186.99 315.565l48.341-10.529-1.092-2.068-42.916-40.416-9.189-4.206-1.643 10.872 3.185 39.7zM269.725 292.41l-34.394 12.626-4.764-14.609-2.082-47.006 2.099-8.676z"/><path fill="#a8cc6f" d="M106.67 293.584l29.233-51.784 3.756 66.167zM186.99 315.565l-47.331-7.598 42.475-49.621zM230.584 234.745l-48.45 23.601 53.197 46.69z"/><path fill="#ccc9ca" d="M251.393 243.506l-1.285 1.428 1.502 1.166 1.167-1.501z"/><path d="M142.609 83.83c1.952 0 3.544-1.592 3.544-3.544s-1.592-3.543-3.544-3.543-3.544 1.591-3.544 3.543c0 1.951 1.592 3.544 3.544 3.544zM174.5 83.83c1.952 0 3.544-1.592 3.544-3.544s-1.592-3.543-3.544-3.543-3.544 1.591-3.544 3.543c0 1.951 1.592 3.544 3.544 3.544z" fill="#33302d"/><path fill="#6c993c" d="M241.504 361.027l-3.305-8.389 3.418-7.555 9.944 17.988z"/><path fill="#a1c059" d="M232.901 342.314l3.039 25.145-13.25 2.68-3.201 15.474 21.88-5.511.248-35.019z"/><path fill="#d2a59f" d="M222.69 370.139l18.679 9.963-8.468-37.788-10.649 5.121-1.299 4.65z"/><path fill="#c7da7f" d="M231.366 338.049l-13.146 10.783 2.735 3.253 11.946-9.771z"/><path fill="#ccc9ca" d="M198.654 165.57l-1.285 1.428 1.502 1.167 1.167-1.501z"/></g></svg>