<svg xmlns="http://www.w3.org/2000/svg" viewBox="0 0 400 400"><g fill-rule="evenodd" clip-rule="evenodd"><path opacity=".102" fill="#2b2b2b" d="M98.131 375.431l113.009-15.605 88.729 12.622-109.1 28.052z"/><path fill="#7ab059" d="M126.315 377.648l17.949-129.439 9.674-5.115 14.602 11.853 19.624 90.552-17.206 42.55z"/><path fill="#668c45" d="M254.76 380.546l-83.802 7.503-2.418-133.102 18.973-11.174 51.435 111.622 20.369 10.058z"/><path fill="#456126" d="M299.869 372.448l-60.921-17.053 15.812 25.151z"/><path fill="#54b08c" d="M143.891 232.352l7.257-16.032-16.754-38.198-14.406 44.082 10.419 13.387z"/><path fill="#668c45" d="M143.891 232.352l-3.8-33.067 5.43-14.893 35.213 16.82 31.101-14.191 19.882-48.971 1.404 48.356-9.111 16.205-3.523 30.225-26 2.539-40.12 2.104z"/><path fill="#73c9a6" d="M144.298 250.056l-.407-17.704-23.903-10.148 10.229 126.965 15.442-59.773z"/><path fill="#f0d1cc" d="M196.55 57.652l-14.08 73.575-16.409 9.851 9.847 19.791 33.706-27.384 3.699-12.388-4.732-36.361.377-14.014-6.723-18.654z"/><path fill="#36785c" d="M211.787 287.771l-18.972-41.182-6.138.167-6.419 2.905 19.719 82.11 38.971 23.624z"/><path fill="#73c9a6" d="M257.177 227.831l-10.787-7.165-14.139 2.559-45.759 11.17.185 12.361 52.271 108.639 9.301-62.846z"/><path fill="#36785c" d="M130.217 349.169l16.836-19.869 6.234-78.702-8.989-.542z"/><path fill="#3d3d3d" d="M233.739 145.031L221.268 85.31l-2.25-5.424-11.479.612-1.225 52.558 14.055 13.519z"/><path fill="#ffede8" d="M153.474 147.507l15.126-8.855 6.694 16.223 24.909-24.863 6.111 3.048 18.177 7.934 2.457 10.264-8.651 24.301-10.135 15.604-8.185 1.449-38.784 1.621-13.858-13.901z"/><path fill="#454545" d="M203.165 80.061l-4.91 21.199 14.63.35-1.924-5.082 1.4-16.03z"/><path fill="#4d4d4d" d="M207.539 113.697l-9.284-12.437 12.706-4.732 7.967 16.469-5.688 4.556z"/><path fill="#666" d="M200.203 130.012l6.55-17.277 12.175.262-10.551 20.96-4.248 7.159z"/><path fill="#4d4d4d" d="M201.499 154.609l-1.296-24.597 8.174 3.945 5.648 16.622-7.621 6.744z"/><path fill="#666" d="M194.4 172.389l7.099-17.78 12.526-4.03-7.361 17.694-5.868 7.884z"/><path fill="#4d4d4d" d="M128.807 116.818l4.975-22.742 7.619 20.938-3.676 7.971z"/><path fill="#666" d="M132.905 127.188l-4.098-10.37 9.514-3.896 3.08 2.092 5.453 10.188-7.377 5.227z"/><path fill="#4d4d4d" d="M132.191 139.944l.714-12.756 13.949-1.986-2.875 14.553-3.923 3.316z"/><path fill="#666" d="M138.034 156.829l-5.843-16.885 11.788-.189 3.633 11.289-5.113 9.986z"/><path fill="#9ccf7a" d="M153.474 147.507l-5.862 3.537-9.299 14.625-3.919 12.453 7.825 12.018 4.834-2.047.282-7.761z"/><path fill="#4f7d3d" d="M142.219 190.14l14.136 16.967 6.512-5.371-1.674-7.503-13.858-13.9z"/><path fill="#73b34a" d="M206.802 206.18l-50.447.826 4.838-12.773 38.784-1.621 7.257 6.142z"/><path fill="#4f7d3d" d="M227.738 180.555l-20.936 25.625-4.308-7.001 4.239-11.448 11.288-13.367 6.603.259z"/><path fill="#9ccf7a" d="M233.739 145.031l.745 25.157-6.746 10.367-9.717-6.191 2.95-34.908z"/><path fill="#b8c745" d="M164.238 141.204l-3.696 24.719 15.252 10.659 22.657-14.341-1.142 2.862-21.515 14.207-17.765-12.364 3.546-24.184z"/><path fill="#54b08c" d="M233.739 145.031l23.438 82.8-24.834-4.606-8.333-20.614z"/><path fill="#e8f078" d="M175.794 176.582l-5.021 7.588 5.021 9.467 5.024-9.979z"/><path fill="#4d4d4d" d="M206.843 217.414L194.4 172.389l12.264-4.116zM132.704 173.994l5.33-17.165 9.578-5.785-3.477 20.842-8.864 5.76z"/><path fill="#666" d="M137.922 186.73l-5.218-12.736 11.431-2.108 3.2 8.447-7.244 10.364z"/><path fill="#4d4d4d" d="M133.782 221.618l4.14-34.888 9.413-6.397z"/><path fill="#454545" d="M124.584 39.189l-8.238 23.766 10.701 20.835.664-54.543zM228.035 27.71l-4.684 32.123-14.393 12.688-7.48-14.583-2.747-17.235 6.061-9.186z"/><path fill="#666" d="M226.497 54.737l1.538-21.442-3.939-3.493-13.135 33.842-7.8 16.417 8.703 6.099 6.657-.95z"/><path fill="#ffede8" d="M231.094 52.825l-20.133 10.819.903 22.516 9.404-.85z"/><path fill="#cfa39e" d="M221.642 64.082l-10.457 5.098.346 8.704z"/><path fill="#ffede8" d="M127.711 29.245l-.664 54.543 6.534 16.099 4.742 13.035 13.698 19.717 30.449-1.412 12.254-18.956 10.068-80.847z"/><path fill="#f0d1cc" d="M143.999 74.036L127.9 62.202l8.144-3.127 13.352 7.1 6.155 5.97 3.788 3.216 3.41-3.504 6.342-6.154 17.991-8.051 10.038 4.737-18.274 11.174-15.057 21.589-4.45 2.558-4.451-2.558z"/><path fill="#cfa39e" d="M175.294 154.875l15.304-23.868-29.706 1.221z"/><path fill="#454545" d="M166.629 62.767l2.462 2.936 19.224-5.778 8.805 2.464-9.753-6.629zM151.289 63.146l-16.004-5.681-7.385 4.737 7.385-1.612 14.111 5.585z"/><path fill="#fff5f2" d="M155.551 72.145l-.663 23.007h8.901l-1.04-23.295z"/><path fill="#cfa39e" d="M159.433 100.172l-4.545-5.02h8.901z"/><path fill="#738c57" d="M159.905 115.133l-12.498-6.819 27.46.191z"/><path fill="#364f26" d="M147.407 108.314l10.795-2.464 1.799 1.518 2.178-1.61 12.688 2.747-14.771 2.84z"/><path fill="#666" d="M121.841 21.668l1.797 10.986 25.758.664-2.842-6.533-6.723-8.997z"/><path fill="#4d4d4d" d="M133.771 6.993l-11.93 14.675 24.713 5.117 2.842 6.533 55.868-.19.285-4.168-28.22-19.788z"/><path fill="#666" d="M183.77 1.5l-49.999 5.493 32.197 9.849h33.994L216.1 8.198z"/><path fill="gray" d="M205.549 28.96l10.795-8.332-.244-12.43-50.132 8.644z"/><path fill="#454545" d="M228.035 24.585L216.1 8.198 205.549 28.96l14.486 2.37z"/><path fill="#b8c745" d="M228.035 33.295l.597-8.825-23.083 4.49-4.638 4.168 3.027 5.587z"/><path fill="#e8f078" d="M123.638 32.654l17.801-.757 5.115-5.112 12.122 6.437 9.847-6.628 3.979 3.411 33.047-1.045-1.611 9.755-32.575-1.326-11.837 9.375-12.591-9.184-22.351 1.609z"/><path d="M143.999 69.937c2.265 0 4.1 1.833 4.1 4.099 0 2.265-1.835 4.1-4.1 4.1-2.264 0-4.1-1.835-4.1-4.1 0-2.266 1.836-4.099 4.1-4.099M178.846 69.937c2.265 0 4.1 1.833 4.1 4.099 0 2.265-1.835 4.1-4.1 4.1-2.267 0-4.102-1.835-4.102-4.1.001-2.266 1.836-4.099 4.102-4.099" fill="#2b2b2b"/><path fill="#f0d1cc" d="M167.677 235.367l-9.276-3.821-14.51.806.407 17.704 9.841 2.604z"/><path fill="#cfa39e" d="M158.094 227.831l-14.203 4.521 23.786 3.015z"/><path fill="#f0d1cc" d="M187.208 234.22l-7.098-1.738-12.433 2.885-4.979 12.716 5.89 9.704 19.776-7.523z"/><path fill="#ffede8" d="M151.706 239.826l1.436 12.573 15.446 5.388-.911-22.42z"/><path fill="#cfa39e" d="M180.209 230.061l-12.532 5.306 19.531-1.147z"/></g></svg>