<svg xmlns="http://www.w3.org/2000/svg" viewBox="0 0 400 400"><path fill="#507033" d="M265.712 184.169l-9.66-20.775-8.096 6.765-11.354 28.02-.118 6.04 10.868 17.512 17.877-30.075z"/><path fill="#404040" d="M106.886 92.98l35.63 19.928 9.421 5.558-.363-28.745-5.073-3.264-15.218-2.898-10.629 7.005z"/><path fill="#dddddc" d="M140.585 159.773l-2.416-2.659 2.053-12.197-7.972-10.508 11.111-15.218 9.421 1.087 5.919 18.72-10.751 7.487-1.931 13.045z"/><path fill="#2b2c2b" fill-opacity=".149" d="M117.636 388.409l68.241 11.112 81.164-8.456-69.208-13.285z"/><path fill="#393939" d="M138.288 383.217v5.553h43.482l.12-6.28-2.779-1.451-31.522.605z"/><path fill="#444648" d="M162.686 365.7l-24.398 17.517 43.602-.727-.724-16.669-3.141-1.928-11.474.238z"/><path fill="#eecec9" d="M166.792 329.711l-5.434 11.111.604 12.441 11.111 3.742 10.388-3.624 3.261-17.873-9.301 1.208z"/><path fill="#cea39f" d="M184.91 345.168l-6.281-4.225 1.208-4.832 6.885-.603z"/><path fill="#393939" d="M181.166 365.821l2.295-12.44-21.499-.118.724 12.437zM232.256 387.805l-.365 5.919h-32.004l-.242-6.163 20.291-3.623z"/><path fill="#444648" d="M224.043 369.324l8.213 18.481-32.611-.244 7.851-17.994 2.416-1.812 10.872-.243z"/><path fill="#eecec9" d="M222.713 332.005l6.162 7.609-4.832 29.71-6.283-3.985-10.264 4.228-5.193-37.926 12.076-.722z"/><path fill="#cea39f" d="M229.236 338.406l-1.326 7.248-9.421-7.127 5.311-7.248z"/><path fill="#393939" d="M224.043 369.567h-16.547l-1.573-11.476h20.171z"/><path fill="#207455" d="M155.922 316.905l5.677 7.492 7.489-5.919 10.023 5.436 8.576-7.127 9.542 7.487 9.058-7.608 8.817 6.762 7.488-6.762 10.146 2.294 8.096-46.257-29.836 3.259-4.106-21.861-37.321-.726-2.053 21.136-18.238-.117z"/><path fill="#bcda89" d="M169.692 253.375l5.313 3.624 10.992.364 3.743-3.502.363-63.291 2.053-17.269-17.875 9.538z"/><path fill="#3a592a" d="M157.251 238.521l-12.923 33.939 30.194 11.472.726-47.222-9.784-11.111z"/><path fill="#9cce7a" d="M192.156 173.301l-5.555 16.543-.604 67.519 17.753.605 3.142-3.867-.122-68.12z"/><path fill="#6e884c" d="M157.251 238.521l17.997-1.811.241-11.111-8.575-25.847-14.01-17.273-4.228 19.203 6.401 8.816z"/><path fill="#6e884a" d="M202.906 235.137l14.132 6.887 13.284-7.73 16.066-50.729-1.574-3.142-8.934-.36-33.338 44.931z"/><path fill="#699b47" d="M224.165 174.387l14.853 8.213 7.37.965 9.664-20.171-24.882-10.869 1.086 15.822zM153.869 162.068l-3.503 10.868 2.538 9.543 17.512-7.005-3.14-8.092 6.28-11.354z"/><path fill="#507033" d="M175.489 225.599l-22.585-43.12 14.131-9.06 6.764 4.227 2.777 8.213z"/><path fill="#6e884a" d="M162.203 167.139l14.373 18.72 6.885-16.06 1.569-16.791-2.053-6.04z"/><path fill="#507033" d="M228.389 173.905l-12.076 3.741-12.924 9.904-.847 37.444 36.476-42.394z"/><path fill="#6e884a" d="M237.21 169.434l-33.821 18.116 3.02-16.061 11.959-15.704 7.605-17.391z"/><path fill="#9cce7a" d="M176.576 185.859l15.58-12.558-1.931-13.892-5.195-6.401z"/><path fill="#bcda89" d="M203.389 187.55l-11.233-14.249 7.972-11.355 18.24-6.161z"/><path fill="#cea39f" d="M192.156 173.301l26.812-18.12 2.538-24.157-10.63 2.781-31.402 3.138z"/><path fill="#efd0cb" d="M213.896 113.995l-14.372 26.09h14.494l-21.862 33.216 26.212-17.516 15.218-34.06-4.589-8.334z"/><path fill="#cea19c" d="M233.586 121.725l-18.121-2.416 12.562-6.279h9.422z"/><path fill="#ffeee9" d="M146.985 89.838l4.952 28.628 19.928 22.344 27.659-.725 23.068-29.35 5.918-41.668-8.334-11.959-44.808-8.091-26.814 8.817-6.642.843z"/><path fill="#eecec9" d="M165.706 88.148l-11.957-8.574 12.319-4.589 9.421 5.315 2.053 6.036-2.294 15.461z"/><path fill="#efd0cb" d="M182.977 86.218l3.141 19.081 10.145-17.151 14.253-9.782-14.857-3.985-10.266 5.919-1.691 2.777z"/><path fill="#474747" d="M143.483 57.834l76.693-.726-.479-25.485-34.424-15.579-35.026 17.995z"/><path fill="#404040" d="M150.488 57.712l29.59-33.455 34.787 8.695 2.655 24.156-37.442-32.851-26.451 11.354z"/><path fill="#cea39f" d="M261.849 274.754l-13.411-4.589-4.345-3.381 1.69-1.933 6.28-1.208 14.978 1.933z"/><path fill="#eecec9" d="M271.869 257.242l-4.828 8.334-21.258-.725-1.933-1.691.243-1.572 8.573-3.26z"/><path fill="#308b69" d="M275.133 243.715l-9.543 5.192-9.904 5.194-.365 3.141 4.355 2.051 12.193-2.051 14.979-2.295-5.436-6.643z"/><path fill="#207455" d="M285.64 230.065l-7.122 7.488-3.507 9.181 11.837 8.213z"/><path fill="#308b69" d="M247.352 239.243l5.675 7.127 2.659 7.731-6.162 3.624-6.882.965-6.883-7.005-1.573-9.54 6.765-2.415z"/><path fill="#207455" d="M247.23 222.817l-16.908 11.477-1.208 5.314 3.624 2.656 13.045-1.448 2.655-9.299z"/><path fill="#cdcccb" d="M254.965 224.391l-9.182 16.425 10.269-3.502 6.036-6.041 1.451-6.882h-6.04z"/><path fill="#c2c1c2" d="M248.925 202.768l-3.142 38.048 11.716-16.425zM272.112 226.441l-4.466 5.919.603 8.817 6.762 5.557 2.299-17.272z"/><path fill="#cdcccb" d="M295.304 214.605l-19.689 13.892-.604 18.237z"/><path fill="#c2c1c2" d="M260.275 231.03l-14.492 9.786 9.903 13.285 7.731-9.661 1.447-13.045z"/><path fill="#cdcccb" d="M275.011 246.734l-7.365-14.374-2.782-.965-9.178 22.706z"/><path fill="#cea19c" d="M260.397 225.959l-.122 5.071 8.092 2.299 3.988-4.349-4.832-3.503z"/><path fill="#fff" d="M266.681 226.924l-4.832-.604.239 2.66 6.279 1.69 2.294-2.173z"/><path fill="#feeee9" d="M248.925 202.768l8.092 22.344 6.522-3.381 3.863 2.538 5.197.239 3.016 5.197 19.689-15.1-7.248-3.742-33.091-7.973z"/><path fill="#dddddc" d="M263.296 221.127l-6.279 3.985 3.38.847 12.441 3.142 2.777.604-2.538-5.68-5.431-.239z"/><path fill="#cea19c" d="M268.61 221.852l-5.314-.725 4.106 3.746 5.675-.848z"/><path fill="#fef4f2" d="M268.731 214.97l-5.435 6.157 9.781 2.898-.239-7.969z"/><path fill="#cdcccb" d="M256.651 211.467l12.08 3.503-4.345-5.919zM280.447 213.519l-7.609 2.537 11.837 3.503z"/><path d="M261.483 218.594c.965 0 1.813-.726 1.813-1.573 0-.843-.848-1.568-1.813-1.568s-1.808.726-1.808 1.568c.001.847.844 1.573 1.808 1.573zM277.666 223.183c.969 0 1.816-.726 1.816-1.573 0-.843-.848-1.568-1.816-1.568-.965 0-1.808.726-1.808 1.568 0 .847.843 1.573 1.808 1.573z" fill="#393939"/><path fill="#308b69" d="M289.264 158.079l-14.37 31.044-2.782 21.258 23.192 4.224z"/><path fill="#feeee9" d="M255.686 254.101l3.99 5.192-15.583 2.295-1.812-1.326.361-1.572 6.04-2.052z"/><path fill="#507033" d="M139.133 231.756l15.944-21.258-2.173-28.019.965-20.411-7.488 9.299-6.885 3.142-6.401 48.308z"/><path fill="#6e884c" d="M128.385 183.565l-16.063 39.978 26.811 8.213 3.505-35.872-7.127-2.654 1.691-13.167z"/><path fill="#dddddc" d="M134.423 182.722l-2.173 12.076 10.388 1.086 1.327-14.614-3.139-1.812z"/><path fill="#efd0cb" d="M117.997 168.226l9.543-14.253 3.624 15.1-2.779 14.492zM142.275 167.139l3.744-7.609 7.85 2.538-5.797 13.645-5.074-.722z"/><path fill="#feeee9" d="M127.54 153.973l.845 29.592 15.58-2.295 2.054-21.74z"/><path fill="#474747" d="M139.014 28.846l-18.36 61.718 25.847-4.107 7.126-50.846-3.984-6.522z"/><path fill="#57595a" d="M161.721 6.984l-22.707 21.862 14.613 6.765 31.162-13.409-5.919-9.056z"/><path fill="#474747" d="M200.369 7.953l-38.648-.969 18.357 17.273 20.777-7.248z"/><path fill="#57595a" d="M207.739 2.034l-27.661 22.223 34.787 8.695 17.026.726 13.653-9.3z"/><path fill="#4d4d4d" d="M220.662 87.305l-5.797-54.353 30.679-8.574 18.112 61.354-19.684 10.511z"/><path fill="#404040" d="M278.996 85.128l-58.334 2.177-5.197 32.004 32.252-9.299z"/><path fill="#207455" d="M181.527 236.105l4.591 3.864 4.469-3.742-4.349-3.867zM181.649 213.519l4.71 3.867 4.348-3.746-4.348-3.864zM181.89 190.935l4.591 3.863 4.708-3.142-3.743-4.345z"/><path fill="#404040" d="M153.749 79.574l11.715-6.161 9.541 2.176.484 4.711-10.266-2.781zM185.03 75.468l.363 4.832 11.232-3.867 13.891 1.933-14.132-5.797z"/><path fill="#cea39f" d="M181.408 111.096l-6.403-5.553 5.918-1.813 5.195 1.569z"/><path fill="#fef4f2" d="M175.005 105.543l1.451-22.223 7.366-.243 2.296 22.222z"/><path fill="#98c166" d="M176.093 124.623l-11.233-8.573 16.306 3.502 17.272-4.832-11.112 9.543z"/><path fill="#6e884c" d="M164.86 116.05l11.233.604 5.073-1.33 5.315 1.087 11.957-1.691-17.03 7.248z"/><path fill="#308b69" d="M151.455 325l4.467-8.095 6.159 4.471 7.127-5.797 9.542 5.676 9.3-7.366 8.938 7.244 8.935-7.848 9.421 7.609 8.095-7.609 9.299 5.675 4.35 6.279-4.111 9.543-8.691-7.852-10.029 7.491-9.538-8.095-7.37 6.887-10.144-5.315-8.696 6.402-9.06-6.279-8.213 7.487z"/><path fill="#46af85" d="M151.455 325l10.144 6.401 7.609-6.283 9.542 5.801 7.972-6.522 9.421 6.279 8.576-7.005 9.66 7.248 9.299-7.248 8.7 7.97 4.71-6.402 5.071 7.248-9.781 10.026-9.786-8.092-8.213 8.331-11.716-8.331-7.124 6.762-8.817-5.675-8.093 5.435-9.784-6.404-7.487 6.283-13.89-8.695z"/><path fill="#3a592a" d="M204.598 284.418l-1.692-49.281 27.416-.843 18.116 35.871z"/><path d="M245.783 240.816l9.903 13.405-7.248 2.655-2.655-15.94v-.12zm-42.033 17.152l.121 4.589-20.532 4.949-8.695 16.426.361-26.933c9.542.364 19.204.604 28.745.969zM140.1 144.795l18.722-5.797-10.872 7.487-7.85-1.69zm3.383 42.516l-8.938-4.471 9.542-1.326-.604 5.919v-.122zm93.848 105.681l-32.733-8.456 36.114-11.716-3.502 20.172h.121z" fill="#070908" fill-opacity=".149"/><path fill="#46af85" d="M289.264 158.079l-17.152 52.302-23.187-7.613z"/><path d="M165.706 83.92c2.335 0 4.228 1.893 4.228 4.228s-1.893 4.228-4.228 4.228-4.228-1.893-4.228-4.228c-.001-2.335 1.893-4.228 4.228-4.228zM197.471 83.92c2.335 0 4.229 1.893 4.229 4.228s-1.893 4.228-4.229 4.228c-2.335 0-4.228-1.893-4.228-4.228s1.893-4.228 4.228-4.228z" fill="#2b2c2b"/></svg>