<svg xmlns="http://www.w3.org/2000/svg" viewBox="-152 -152 400 400"><path fill="none" d="M0 0h96v96H0z"/><path fill="#2b2b2b" fill-opacity=".149" d="M-41.225 234.957l90.789-9.559 88.403 11.35L47.773 247.5z"/><path fill="#54b08b" d="M55.541 218.828l-5.977 20.31 19.118 4.181 17.917-4.181-5.378-20.905-14.933-14.337z"/><path fill="#3f8f6f" d="M21.493 203.301l-16.726 6.571-21.503 20.306 23.295 2.389 23.295-2.389.597-16.724z"/><path fill="#35785d" d="M-16.736 230.178v4.779h46.59v-4.779z"/><path fill="#434848" d="M23.284 161.487l-19.712 4.182 1.195 44.203 25.684 3.582 10.155-44.203z"/><path fill="#383838" d="M71.666 154.917l14.933 14.933-5.378 48.383-25.68.595-7.169-49.577z"/><path fill="#434848" d="M21.493 134.013l23.891 13.735 2.988 21.503 38.227.599 4.18-35.244-27.474-35.833L28.66 119.08z"/><path fill="#6c6d6d" d="M11.934 99.368L1.781 113.706l1.791 51.963 37.034 3.582 4.778-21.503-6.571-40.018z"/><path fill="#383838" d="M45.384 147.748l31.057-22.696-7.759-10.153-66.901-1.193z"/><path fill="#f0cfc9" d="M-16.736-2.175l-2.986-7.763L.586-33.235 4.171.214H-.608z"/><path fill="#eaeceb" d="M-24.502 10.37L-29.279.813l9.557-10.751L-.608.214l-9.558 14.933z"/><path fill="#dbdcda" d="M-21.513 34.262l-20.311-18.517L-29.279.813l19.113 14.334-5.375 16.726z"/><path fill="#cbcbcb" d="M8.948 22.316l-3.582-7.169h-15.532l-11.347 19.115 28.072 24.49z"/><path fill="#f0cfc9" d="M95.559 104.742l9.558 7.768-14.338 22.096-23.892-15.526 1.795-4.181 16.126-16.126z"/><path fill="#cca09b" d="M95.559 104.742l9.558 7.768-5.975 9.558-14.334-19.712h7.169z"/><path fill="#eaeceb" d="M103.921 93.994l8.361 7.165-7.165 11.351L79.43 99.967 86 82.645z"/><path fill="#cbcbcb" d="M81.819 62.933l13.142 16.129 8.361 5.374 19.113.594-13.14-57.937-13.736-6.57z"/><path d="M112.282 101.159l10.752-16.724-27.476-7.165-8.96 11.944 1.791-1.197c-.599 0 16.728 8.961 24.491 13.142h-.598z" fill="#dbdcda"/><path fill="#828181" d="M16.117 108.927l5.376 4.779 47.189 1.193 7.165-26.881-62.718 5.976z"/><path fill="#dbdad9" d="M11.338 86.825l10.155 16.724 17.919.599 8.96-37.035-15.531-48.382-21.503 23.893z"/><path fill="#c9c9ca" d="M11.338 86.825l10.155 16.724 17.919.599 5.972-24.492-5.972-1.791-19.114.598-8.96-13.739z"/><path fill="#c7c5c5" d="M20.894 31.274l-8.361 10.155 1.791 5.376 19.712-20.308z"/><path d="M40.606 61.735l-1.195 12.547v29.865h36.435l.595-80.637s-30.459-.598-31.058-1.793c-.596-1.194-4.777 40.018-4.777 40.018z" fill="#cbcbcb"/><path fill="#bebcbd" d="M39.412 77.865v26.283l36.435-.599V80.255l-6.571-1.193z"/><path d="M76.441 50.988V23.511s-14.33 0-23.294-.598l-2.386 4.779 24.487 27.473 1.192-3.583v-.594z" fill="#b3b2b3"/><path fill="#3a592a" d="M75.847 14.551l9.559.596 9.555 62.124-14.335 36.435-11.944 1.193.594-37.034z"/><path fill="#507033" d="M75.847 14.551l9.559.596 10.153 5.376-.598 56.748-25.685 1.791.599-41.813z"/><path fill="#eaeceb" d="M50.762 27.692l19.113 9.557 15.531-22.102-4.185-7.167zM15.519 18.135l2.986-2.988L30.451 3.799l3.585 22.698L14.324 39.04z"/><path fill="#cca09b" d="M36.425 89.81l-6.571-59.73L12.533-8.147l61.523-7.766 5.374 9.557L71.666 7.98 50.762 27.692z"/><path fill="#5a4d44" d="M117.656-48.764L86.599-15.913l-2.985-9.557 14.33-28.073z"/><path fill="#6f6054" d="M98.547-78.032l17.917 1.791 1.192 27.477-23.294 10.153-20.905-36.435z"/><path fill="#8b7a6d" d="M106.909-108.496l9.555 32.255-14.334 2.389-8.362 6.571-8.96-2.389-.599-2.987-23.295-44.201z"/><path fill="#f0cfc9" d="M61.509-94.756l11.35-14.934 11.35 37.033 2.988 14.933 7.165 19.113L81.221 7.98 50.762 27.692l17.92-35.839-19.714 5.972z"/><path d="M-17.333-97.146c1.792 0-7.169 1.195-7.169 1.195l-2.986 26.879 14.336 18.517 4.777-44.201c.001 0-8.361-2.39-8.958-2.39z" fill="#5a4d44"/><path fill="#8b7a6d" d="M-4.79-102.521l-5.972-18.518-13.74 2.39v22.698l7.169 14.334 2.987-.596z"/><path fill="#feeee9" d="M7.753-116.858l-22.099 34.645 4.18 7.765-2.985 17.322 3.582 28.074L4.171.214l17.918-4.18 26.879 1.791L71.067-34.43l1.792-66.3v-8.96l-34.046-15.53z"/><path fill="#f0cfc9" d="M-.01-88.187l-7.765 5.377-1.196 6.569 2.987 5.376L5.962-57.126l11.348 5.973 3.584-3.585 5.975 3.585 16.127-5.973 14.931-16.127-.595-8.96 4.177-5.376-9.555-5.376-20.904 9.557-4.181 5.376-5.376 4.18-2.988-3.584-5.376-3.583z"/><path fill="#72c9a6" d="M29.256-81.617v22.101h29.268l1.792-22.697zM-11.36-80.422l27.477-.597v3.583l-1.195 17.92h-25.088z"/><path fill="#54b08b" d="M31.05-59.516l.596-2.389 12.543-9.557 14.934-1.791 1.193-8.96-28.67.596-2.39 2.39v19.711zM-10.166-80.422l-1.194 4.181 2.986 5.376H3.572l8.961 8.96.596 2.389h1.793l1.195-17.92-4.779-3.583z"/><path fill="#554537" d="M43.592-39.207l5.376 4.777 7.765 8.364-5.378-13.141zM5.366-38.611H1.183L-2.4-27.261l5.972-6.57z"/><path fill="#cca09b" d="M20.298-55.334l-2.988 4.181 5.375 3.584 4.184-3.584z"/><path fill="#554537" d="M4.171.214l44.797-2.389 7.765-11.348-13.141 5.376-35.24 1.791-8.96-4.181z"/><path fill="#6f6054" d="M31.05-83.408l-.599-4.779 21.503-6.569 10.752 5.972-1.197 1.195-10.154-3.585zM14.324-85.798L.586-90.575l-7.765 5.972 2.389 1.793 5.376-2.988 12.543 4.779z"/><path fill="#fff5f3" d="M18.505-77.436L17.31-51.153h9.559v-26.879z"/><path fill="#6f6054" d="M19.7-45.182L1.183-38.611l2.389 4.78L19.7-38.012zM26.27-45.778l.599 7.766 22.099 3.582 2.387-4.777z"/><path fill="#cca09b" d="M4.767-32.637l40.02-.598L23.88-17.704z"/><path fill="#fff" d="M10.143-30.845l10.155 8.362h7.167l10.752-8.959z"/><path fill="#3a592a" d="M20.298 78.463l1.195 35.243H1.781l1.195-38.23 10.153-40.617z"/><path fill="#507033" d="M18.505 15.147l1.793 63.316-17.322-2.987 2.39-60.329z"/><path fill="#35785d" d="M49.564 239.138h37.035v5.972H49.564z"/><path d="M3.572-76.837c2.311 0 4.181 1.873 4.181 4.181s-1.871 4.181-4.181 4.181c-2.308 0-4.181-1.873-4.181-4.181s1.873-4.181 4.181-4.181z" fill="#2b2b2b"/><path d="M16.117-83.408h2.388V-77.435l-1.195 17.92v2.39h-30.462l-1.195-25.684 30.463-1.195v.596zm-2.39 4.779l-22.698.597 1.195 16.127h20.308l.596-16.127v-1.195l.599.598zM31.646-79.227v17.322h25.087l1.193-17.918-25.682.596h-.598zm-4.777 19.711V-84.006h2.388l31.06-.598h2.39v2.39l-1.792 22.698v2.39H26.868v-2.39z" fill="#4d4d4d"/><path fill="#4d4d4d" d="M18.505-84.005h8.364l2.387 2.986-2.387 1.792-8.364.598-1.792-2.39z"/><path d="M43.592-77.436c2.308 0 4.181 1.873 4.181 4.183 0 2.308-1.873 4.181-4.181 4.181s-4.181-1.873-4.181-4.181c.001-2.31 1.873-4.183 4.181-4.183z" fill="#2b2b2b"/><path fill="#6f6054" d="M22.089-151.5l-46.591 32.851 8.961 7.766 9.557 5.375 13.737-11.35 22.698-5.972 5.376-12.544z"/><path fill="#6f6054" d="M72.859-109.69l-42.408-13.14 4.181-14.336 20.306 1.792L86-137.762l20.909 29.266z"/><path fill="#8b7a6d" d="M22.089-151.5l32.849 16.126-24.487 12.544z"/><path fill="#7d6e62" d="M7.753-116.858L-4.79-82.81l-7.765 6.569-4.778-5.376 1.792-29.266z"/><path fill="#8b7a6d" d="M-7.179-49.362L-4.79-82.81l-12.543 1.193-1.793 22.698 10.752 14.336z"/><path fill="#5a4d44" d="M-9.569-29.052l-9.557-29.867 11.947 9.557z"/><path fill="#cca09b" d="M94.362-38.611L81.819-52.349l16.125.599z"/><path fill="#6f6054" d="M77.639-93.561v34.642l4.779 2.39 5.972-12.543-3.582-10.752z"/><path fill="#4d4d4d" d="M62.706-84.603l22.102 4.779-.599 4.778-22.098-4.181-1.197-2.39z"/><path fill="#feeee9" d="M84.808-79.824l17.916 2.388-4.78 25.686-16.125-.599z"/><path fill="#cca09b" d="M97.35-73.253l-9.559 9.557 1.197-10.752z"/></svg>