<svg xmlns="http://www.w3.org/2000/svg" viewBox="0 0 400 400"><g fill-rule="evenodd" clip-rule="evenodd"><path opacity=".149" fill="#2b2b2b" d="M143.83 386.588l63.055 13.912 63.827-15.332-62.855-10.84z"/><path fill="#edcfc9" d="M203.731 362.764l-27.549 21.797h33.311l12.716-21.72-5.985-43.356-25.625 3.793z"/><path fill="#cfa19c" d="M221.944 360.912l-2.36-17.085-21.794 1.078 5.327 16.012 4.085-.7-.394-3.463z"/><path fill="#1a5e45" d="M190.586 373.164l-14.404 11.397h33.311l1.433-2.441-4.692-11.914-6.089 8.61z"/><path fill="#ffede8" d="M203.357 326.383l4.354 38.346-1.477 5.477-1.714 17.928 17.188 1.062 1.778-17.989-.435-5.273 11.723-39.551z"/><path d="M207.016 358.593l.183 1.624h.004l-.187-1.624zm-1.6-14.067l1.392 12.228 17.542 4.817 5.407-18.249-24.341 1.204z" fill="#cfa19c"/><path fill="#217354" d="M206.234 370.206l-7.155 26.538 26.52.045-2.113-25.582-3.47 13.025-12.899-.093z"/><path fill="#ffede8" d="M194.137 158.257l9.797-5.821 22.47-.061 10.97 25.788-31.881 24.424-25.354-31.791z"/><path fill="#edcfc9" d="M224.553 63.471l-3.324 33.395-17.473 44.26.105 28.567 12.765-11.064 10.486.039 7.324-15.477 3.967-14.318 4.175-4.448-1.685-4.486-.321-7.914-.817-2.324-4.692-42.476z"/><path fill="#3b5929" d="M204.11 334.134l-32.398-1.537-3.625 1.826-.067 19.568 38.788 2.763 2.424-12.439-1.448-7.877z"/><path fill="#4f7033" d="M245.565 330.509l-37.679 3.271-1.905 3.073.827 19.901 42.097-3.927-.304-19.909z"/><path fill="#4f7033" d="M172.418 259.977l-10.571 6.184-4.116 67.599 48.25 3.097 3.955-3.036-.625-39.941-4.725-29.997-9.707-4.301z"/><path fill="#47662e" d="M161.847 266.161l24.418 1.493-8.388-14.395-3.768-9.608-4.647 2.446z"/><path fill="#6e874d" d="M217.285 262.544l-12.577 5.18.293 35.287.98 33.846 52.426-4.842-3.874-66.049-13.383-2.071z"/><path fill="#637a45" d="M246.591 247.627l-5.014-1.356-6.998 9.38-7.964 12.337 27.918-2.022z"/><path fill="#45382e" d="M151.422 128.069l-.106-12.586 4.484-1.613 6.444 5.43 6.5 15.869zM140.105 106.279l11.211 9.202 3.166-4.427.324-6.089-10.128-2.855z"/><path fill="#5e5245" d="M140.105 106.279l13.637 2.438-9.443-20.512z"/><path fill="#45382e" d="M238.403 128.873l14.938-4.094-1.782-13.012-7.068-4.737-3.919 4.995.321 7.914z"/><path fill="#cfa19c" d="M203.861 169.693l15.45-26.133-30.537 2.419z"/><path fill="#6e874d" d="M165.363 198.207l-3.133 23.317 28.896 38.248 13.415 2.695 4.944-4.663-3.344-26.441-23.475-20.622z"/><path fill="#699c47" d="M229.407 210.005l-24.496 23.775-.394 27.885 16.451-1.985 35.258-37.415-.729-24.657z"/><path fill="#70c4a3" d="M136.269 32.579l.502 19.759 12.183-4.545-.272-7.804-2.808-7.88z"/><path fill="#45b085" d="M158.191 13.447l-21.922 19.132 12.413 7.41 11.301-19.247z"/><path fill="#70c4a3" d="M206.982 1.5l-48.791 11.947-9.509 26.542 38.149-20.343z"/><path fill="#45b085" d="M220.186 27.385l-1.57-15.409L206.982 1.5l-58.3 38.489 18.697 2.122 32.602-5.481z"/><path fill="#70c4a3" d="M244.153 20.022l-8.008 2.91-15.959 4.453L206.982 1.5z"/><path fill="#45b085" d="M236.422 39.37l-16.236-11.985 23.967-7.363 6.1 18.758z"/><path fill="#217354" d="M268.682 69.85l3.559-22.741-15.527 6.658-5.086 11.767-1.782 6.987 1.228 1.78 7.04 2.708z"/><path fill="#308c69" d="M257.951 85.275l10.731-15.425-17.608 4.451 1.714 8.425zM174.034 288.378l-3.754 24.023 14.827-7.369 1.787-7.596-3.447-6.132z"/><path fill="#217354" d="M202.165 295.234l-15.271 2.202-16.614 14.965 78.797-2.941-14.644-14.474z"/><path fill="#308c69" d="M243.408 287.007l-9.005 2.218-2.173 7.718 16.847 12.517z"/><path fill="#45b085" d="M174.034 288.378l34.06-4.301 35.314 2.93-11.178 9.936-45.336.493z"/><path fill="#70c4a3" d="M186.265 267.654l-4.27 13.807 2.553 1.916 3.127-2.018 2.11-7.662-.574-3.861zM223.246 267.016v6.189l4.09 7.475 4.081 1.29 1.786-1.392-6.588-12.59z"/><path fill="#cfa19c" d="M204.708 267.724l-14.923 5.973 3.735-11.093 10.859-5.39 1.916 5.879z"/><path fill="#edcfc9" d="M223.246 273.205l-7.255-10.327-11.612-5.664.329 10.51zM190.074 245.845l14.305 11.369-14.594 16.483-11.908-20.438 4.661-5.636z"/><path fill="#ffede8" d="M223.471 245.295l-19.092 11.919 18.867 15.991 11.333-17.554-4.403-8.642z"/><path fill="#699c47" d="M160.187 166.252l-1.276 13.85 6.452 18.105 15.944-8.757 3.131-33.915z"/><path fill="#6e874d" d="M238.521 153.747l.053 33.799 16.923 10.06 6.193-17.981-.244-15.86z"/><path fill="#4f7033" d="M143.457 223.962l28.607 14.469 5.813 14.828 12.197-7.414-22.134-31.71-13.641-6.547z"/><path fill="#3b5929" d="M160.187 166.252l7.753 47.883-24.483 9.827z"/><path fill="#4f7033" d="M223.471 245.295l29.126-31.192 16.031-2.051 10.552 13.805-35.532 12.489-9.069 17.305z"/><path fill="#3b5929" d="M261.446 163.765l-8.849 50.338 26.583 11.754zM143.457 223.962l34.418 29.297-1.149-16.398c0-.001-32.899-13.343-33.269-12.899M279.18 225.857l-44.601 29.794 6.042-18.636zM204.911 237.869l-4.268 4.126 4.102 3.606 4.121-3.353z"/><path fill="#d9e04d" d="M199.722 182.126l-12.712 7.572-2.922 12.478 8.739 12.028 12.084 19.576 4.635-22.363-2.555-20.345z"/><path fill="#e6e875" d="M188.511 168.328l11.211 13.798-11.502 11.06-2.429-7.14z"/><path fill="#d9e04d" d="M198.135 160.623l-9.622 7.705-2.468-9.247 2.731-13.078z"/><path fill="#e6e875" d="M234.436 143.191l-8.255 7.158-9.555 8.28 13.082 11.925 5.762-9.264zM216.142 182.817l-9.151 8.255-2.08 42.708 15.292-14.921 9.786-18.897-.582-8.986z"/><path fill="#d9e04d" d="M229.708 170.554l-13.566 12.263 9.761 9.762 7.655-7.147z"/><path fill="#3b5929" d="M165.363 198.207l8.799-17.015 14.058 11.992 16.691 40.596zM243.665 178.671l-17.762 13.908-20.992 41.201 50.586-36.172z"/><path fill="#4f7033" d="M188.776 146.003l-23.413 52.204 22.86-5.021zM234.436 143.191l-8.533 49.388 29.594 5.027z"/><path fill="#cfa19c" d="M236.215 102.04l4.678 17.899 2.173-7.79 1.425-5.119-5.046-4.99z"/><path fill="#5e5245" d="M262.789 93l-10.136 3.424-8.162 10.606 8.85 17.749z"/><path fill="#45382e" d="M254.574 87.794l-4.383.549-5.342 10.547-.358 8.14L262.789 93z"/><path fill="#5e5245" d="M251.074 74.301L262.789 93l-12.598-4.657-1.921-7.398z"/><path fill="#45382e" d="M251.628 65.534l-1.437 22.809-6.51-.482-4.655-5.752 4.521-10.821z"/><path fill="#5e5245" d="M235.808 58.78l-.688 10.933 3.906 12.396 12.602-16.575-5.501-4.846z"/><path fill="#45382e" d="M228.544 64.234l8.203-3.579 2.279 21.454.045 11.927-2.856 8.004-10.609-32.209z"/><path fill="#5e5245" d="M210.462 52.042l3.987 10.825 11.157 6.964 11.141-9.176-12.036-7.108z"/><path fill="#ffede8" d="M244.491 107.03l5.7-18.687-11.165-6.234-2.811 19.932z"/><path fill="#cfa19c" d="M242.309 89.849l-1.48 8.85 5.249-7.276z"/><path fill="#308c69" d="M238.082 103.167l5.292-3.058 1.075 6.921-4.383 1.686z"/><path fill="#217354" d="M238.082 103.167l6.367 3.863-4.724 3.959z"/><path fill="#308c69" d="M153.353 108.644l-2.037 6.839 7.158 1.984.482-7.758z"/><path fill="#217354" d="M157.369 111.681l-6.053 3.802 7.158 1.984.482-7.758z"/><path fill="#45382e" d="M147.455 69.679l-9.868 7.841-2.465 7.808 18.721 24.097-3.654-25.467z"/><path fill="#217354" d="M118.821 70.944l16.301 14.384 12.333-13.438-13.432-3.137z"/><path fill="#308c69" d="M148.682 39.987l-29.861 30.957 28.634.946 11.308-2.751 7.454-11.344-6.028-12.055z"/><path fill="#217354" d="M220.186 27.385l-71.504 12.602 17.535 17.808 19.169 1.89 25.076-7.643 10.001-13.974z"/><path fill="#308c69" d="M272.241 47.109l-52.055-19.724-9.724 24.657 41.166 13.492z"/><path fill="#ffede8" d="M225.606 69.829l-15.144-17.787-41.506 8.904-21.501 10.944 5.9 36.754 22.312 38.454 34.851-2.906 17.134-37.162z"/><path fill="#cfa19c" d="M147.455 71.89l63.007-19.848-44.245 5.753z"/><path fill="#edcfc9" d="M155.288 83.541l7.607-3.855 12.384 2.002 2.97 12.449-1.056 15.405-12.135-21.645zM183.616 80.874l-.83 13.135 5.426 14.757 7.506-22.093 12.733-9.735-12.878-.287z"/><path fill="#cfa19c" d="M177.193 109.542l6.23 4.041 4.789-4.817-5.588-1.331z"/><path fill="#fff5f2" d="M175.279 81.688l2.97 12.449-1.056 15.405 11.019-.776-5.426-14.757.83-13.135z"/><path fill="#5e5245" d="M163.487 78.05l-8.199 5.491 19.991-1.853zM195.467 73.491l-11.851 7.383 24.835-3.936z"/><path fill="#99c266" d="M172.188 123.469l12.236-.505 14.687-2.704-12.994 9.254z"/><path fill="#6e874d" d="M179.108 121.697l-6.92 1.772 12.891.732 14.032-3.941-9.489-.252-5.755-1.159z"/><path opacity=".149" fill="#080a08" d="M168.087 334.423l37.894 2.434-37.922 5.66zM205.746 318.204l43.331-8.744-78.797 2.941z"/><path fill="#217354" d="M173.806 277.762l-2.728 5.517 2.956 5.099 69.374-1.371 1.819-5.871-2.075-4.567-23.417.404-11.654 2.6-11.655-2.202z"/><path fill="#70c4a3" d="M173.806 277.762l.228 10.616-3.778.11-.2-10.633zM243.152 276.569l.256 10.438 3.805-.11-.382-10.42zM196.426 277.371l3.131 3.365 16.984-.43 3.194-3.333z"/><path d="M166.087 87.859c2.411.128 4.258 2.189 4.128 4.6-.13 2.413-2.189 4.26-4.602 4.13-2.411-.13-4.26-2.189-4.128-4.602.13-2.411 2.191-4.26 4.602-4.128M196.277 83.725c2.411.13 4.26 2.191 4.13 4.602-.13 2.411-2.191 4.26-4.602 4.13-2.413-.13-4.26-2.191-4.13-4.602.13-2.413 2.191-4.26 4.602-4.13" fill="#2b2b2b"/></g></svg>