<svg xmlns="http://www.w3.org/2000/svg" viewBox="0 0 400 400"><path fill="#2b2c2b" fill-opacity=".102" d="M136.679 386.783l73-7.697 69.878 6.854-72.163 12.387z"/><path fill="#ffeee9" d="M198.615 349.74l-2.044 22.129-12.266 5.771-2.407-11.422-3.366-20.324 1.322-2.047 17.319 2.644z"/><path fill="#cea39f" d="M199.82 338.435l-1.205 11.305-20.083-3.846-1.445-8.062z"/><path fill="#bfdb8e" d="M197.773 359.363l-1.202 12.506-14.673-5.651-1.203-6.855z"/><path fill="#54b08b" d="M164.219 381.851l17.679-15.633 14.673 5.651 1.202 9.982-3.368 2.647-25.375-.242z"/><path fill="#35785d" d="M197.773 381.851v4.452h-33.914l.36-4.452z"/><path fill="#ffeee9" d="M215.212 347.694l-.961 2.406 4.447 23.573 9.863 3.007 4.811-8.057.959-21.89-1.8-1.803z"/><path fill="#cea39f" d="M211.846 337.474l2.405 12.626 20.08-3.367.242-10.462z"/><path fill="#bfdb8e" d="M216.299 360.203l2.399 13.47 14.674.358.362-13.828z"/><path fill="#54b08b" d="M236.02 385.338l-2.648-11.307-15.033-2.764-9.982 13.59 1.806 4.089 21.886-.601z"/><path fill="#35785d" d="M208.357 384.857v5.893h27.9l-.237-5.412z"/><path fill="#446125" d="M169.27 326.41l-1.203 16.113 80.578 1.566-1.445-19.124z"/><path fill="#738d57" d="M161.815 314.381l-1.443 19.843h97.533l-5.651-50.628z"/><path fill="#687f4e" d="M161.815 314.381l-.601 8.42 79.618-1.445 6.008-12.267-56.283-4.205z"/><path fill="#99c26d" d="M181.537 230.557l-5.292-32.951 34.037-2.647 31.509 2.405-10.826 29.345z"/><path fill="#b8c745" d="M245.037 269.762l23.329-24.533-17.557-11.303-12.025 1.441.239 12.029z"/><path fill="#ffeee9" d="M137.641 71.206l3.007 30.79 9.02 16.355 2.044 32.11 15.755 27.182 48.59-3.608 5.048-26.339 2.526-66.747-38.486-25.135z"/><path fill="#efd0cb" d="M151.351 119.433l15.755 8.056 11.426 15.036 6.013 1.683 5.652-2.046 13.348-17.078 15.153-7.694-11.782-4.69-12.027-1.323-7.699 8.657-3.366 3.367-3.368-2.644-5.292-8.057-15.393.719z"/><path fill="#e2d086" d="M173.842 98.629l-24.535 12.388-.961-15.395 11.425-15.754 25.014-7.338z"/><path fill="#c1b274" d="M147.744 70.245l-6.375 19.003 7.336 11.423 36.08-28.141z"/><path fill="#b8c745" d="M153.997 267.961l-3.606-29.344 13.468-8.3 8.419 7.214-3.609 19.726z"/><path fill="#e2d086" d="M189.836 97.305l-5.051-24.775 26.459 8.056 11.787 15.996-.364 9.744z"/><path fill="#c1b274" d="M230.006 68.562l3.007 12.387-9.982 15.633-38.246-24.052z"/><path fill="#5a753d" d="M176.245 197.606l-6.373 27.542 2.406 12.383h12.628l3.007-32.11-1.564-13.707zM233.734 185.097l-4.452 23.933-5.17 26.337h14.672l.602-20.085 2.405-21.527z"/><path fill="#446125" d="M164.101 36.932l2.884 24.776 17.8 10.822 30.188-17.079 1.563-18.762z"/><path fill="#738d56" d="M120.443 65.797l43.658-28.865 20.684 35.598-36.801 16.355-17.078-7.936z"/><path fill="#efd0cb" d="M233.734 185.097l9.383-35.96-5.177-8.537 5.774-13.591-21.047-20.683-4.206 45.338-10.825 24.054-2.043 25.255 18.155-1.804z"/><path fill="#446125" d="M123.209 106.326l-2.766-40.529 27.541 23.088-6.975 10.103z"/><path fill="#738d56" d="M149.668 118.351l-26.459-12.025 24.775-17.441zM223.631 83.234L184.785 72.53l31.751-36.078 54.6 35.117L253.7 89.608z"/><path fill="#446125" d="M246.118 126.771l-15.75-17.078-6.737-26.459 47.505-11.665-5.652 45.821-14.675 6.975-1.324 4.57z"/><path fill="#a09160" d="M230.723 141.444l-8.056-35.118.964-23.092 22.487 43.537z"/><path fill="#738d57" d="M174.082 218.653l65.304-3.371 8.056 14.435-8.658 5.65.239 12.029-68.79.239 2.045-10.104z"/><path fill="#72c9a6" d="M146.902 288.645l10.463-29.584 22.73-9.021 38.002-.839 12.029 5.651 6.855 3.609 3.006 8.415-6.857 19.727-44.016 12.868z"/><path fill="#35785d" d="M157.365 259.061l3.849-11.665 23.091-3.006 33.549-1.567 21.169 1.203.363 10.224-2.405 4.211-6.855-3.609-5.411-4.812-6.618 3.25-39.807 2.163-8.418-2.163-3.608 3.967z"/><path fill="#54b08b" d="M161.815 314.381l-14.913-25.736 86.228-2.042 6.498 9.619-2.647 15.273z"/><path fill="#3f8f6f" d="M246.84 309.089l-9.859 2.406-3.851-24.892 9.503-6.616 9.621 3.609z"/><path fill="#54b08b" d="M239.023 244.026l13.231 39.57-8.42 1.202-10.704 1.805z"/><path fill="#cea39f" d="M205.593 200.973l-12.749-3.249 3.727-12.025-5.772-9.862 40.047-2.885-13.83 21.527z"/><path fill="#e8f078" d="M186.349 191.714l10.222-6.015 9.022 15.274-17.68 4.448zM229.282 209.03l-23.689-8.057 28.141-15.876zM176.245 197.606l-26.456 41.011 22.489-1.086.962-8.779z"/><path fill="#ffeee9" d="M161.214 247.396l3.606-9.623 14.915-.242 1.802 7.096-8.658 6.378z"/><path fill="#efd0cb" d="M166.264 257.257l-5.05-9.861 12.868-1.804 7.455-.965-3.247 10.826z"/><path fill="#ffeee9" d="M217.854 242.823l4.693-7.693 16.237.237.239 8.659-14.911 3.37z"/><path fill="#efd0cb" d="M218.097 253.29l-.243-10.467 21.169 1.203-8.897 10.826z"/><path fill="#c1b274" d="M147.022 117.027l-10.101 17.801 3.727 6.014-3.007 9.381 3.97 6.975-3.97 9.74 5.413 17.68h4.329l5.292-19.004-3.007-47.263z"/><path d="M136.921 134.828l3.967 6.374 10.223.96-.48-7.936-13.352.602h-.358zm.72 15.395l3.971 6.975 10.462.961-.48-7.698-13.711-.601-.36.363h.118zm0 17.074l5.413 17.8 2.045 2.048 2.284-2.048 5.411-19.362-15.032 1.683-.121-.121z" fill="#a09160"/><path fill="#c1b274" d="M258.147 137.472l-3.73 9.022 5.414 6.014-3.726 9.38 4.085 6.011-5.049 5.776 3.367 6.011-7.093 15.035h-4.333l-3.368-14.793 2.404-6.016-3.001-4.69 2.282-5.291-4.567-5.894-1.446-8.9.719-7.693 6.013-14.673 4.691-2.406z"/><path d="M258.147 137.472l-3.73 9.021-11.665 3.006-3.007-7.697 18.402-4.33zm-2.042 24.416l-10.706 2.043-4.69-5.894 19-5.529-3.727 9.38h.123zm3.963 6.011l-5.05 5.655-9.138.601-2.887-5.053 17.074-1.32v.117zm-1.678 11.665l-6.975 15.036-2.048 2.043-2.285-2.043-3.368-14.672 14.676-.364z" fill="#a09160"/><path fill="#35785d" d="M252.496 200.012l.962-3.608-2.043-1.683h-4.333l-1.683 2.284 1.084 3.367 2.642 1.081z"/><path fill="#54b08b" d="M262.116 189.308l-10.701 5.413 1.081 5.291 9.98 1.083z"/><path fill="#e8f078" d="M268.366 245.229l-21.883-44.857-6.855-8.9-.605 30.426-.239 13.469 11.428 3.851z"/><path fill="#54b08b" d="M247.082 194.721l-8.657-4.574 1.083 12.266 6.975-2.041z"/><path fill="#35785d" d="M239.266 214.803l7.217-14.431 6.013-.36-6.497 20.203z"/><path fill="#54b08b" d="M252.496 200.012l14.31 24.651-5.657 5.654-11.179-22.612-3.487-7.333zM142.692 187.984l-1.683-1.683 2.045-1.683h4.329l2.645 2.405-3.006 2.042-1.684 3.007z"/><path fill="#35785d" d="M131.988 179.326l11.066 5.292-.362 3.366-10.704 3.007zM147.383 184.618l11.064-4.332.241 13.712-11.666-4.933z"/><path fill="#54b08b" d="M142.692 187.984l-11.063 31.508 7.695 3.972 7.698-34.399z"/><path fill="#35785d" d="M157.004 209.151l-9.982-20.086-4.33-1.081 7.336 28.501z"/><path fill="#c1b274" d="M151.351 119.433l23.813-6.733-15.755-2.047zM194.889 111.377l15.032-3.367 8.777 9.38z"/><path fill="#fff5f3" d="M180.456 120.757l-1.924 21.768 11.665-.363-3.007-22.128z"/><path fill="#cea39f" d="M185.145 146.494l-6.613-3.969 11.665-.363z"/><path fill="#446125" d="M173.119 158.518l12.388-5.651 13.348 4.691-14.07 2.285z"/><path fill="#738d56" d="M185.507 162.97l-12.388-4.452 25.736-.96z"/><path fill="#cea39f" d="M230.368 148.536l10.464 9.501 2.285-8.9z"/><path fill="#ffeee9" d="M231.689 124.123l-1.321 24.413 12.749.601 3.001-22.366z"/><path fill="#cea39f" d="M234.094 137.835l.237-9.38 7.46.601z"/><path d="M168.669 123.764c2.059 0 3.728 1.667 3.728 3.725 0 2.059-1.669 3.73-3.728 3.73s-3.728-1.672-3.728-3.73 1.669-3.725 3.728-3.725zM202.104 121.358c2.06 0 3.726 1.667 3.726 3.726 0 2.063-1.666 3.73-3.726 3.73-2.059 0-3.728-1.667-3.728-3.73 0-2.059 1.67-3.726 3.728-3.726z" fill="#2b2c2b"/></svg>