<svg xmlns="http://www.w3.org/2000/svg" viewBox="0 0 400 400"><path fill="#2c2b2b" fill-opacity=".102" d="M125.271 384.697l79.405 16.174 72.957-12.889-70.648-8.635z"/><path fill="#2f4425" d="M178.777 378.13l-15.566 5.232.123 3.404 42.68.486 1.82-7.783-28.697-1.339z"/><path d="M207.352 384.089c-.612-.118-8.144 5.596-8.144 5.596l.359 4.012 37.938-.241.123-3.894-30.275-5.591v.118z" fill="#3e542d"/><path d="M267.911 291.431l-5.11 6.808 6.686 39.034 10.456 1.216s-.603-47.425 0-48.032c.612-.608-12.031 1.098-12.031 1.098v-.124z" fill="#686b6d"/><path fill="#464544" d="M269.977 282.31l-3.772 3.403-3.281 12.525 9.607.609 11.55-16.537z"/><path fill="#393939" d="M281.403 290.456l-5.109-4.62-3.763 13.011 7.411 39.523 7.053-10.093-2.547-19.337 4.498-5.228-1.339-13.497z"/><path fill="#eecec9" d="M276.906 267.352l-10.946-1.58.245 19.941 10.089.123zM280.922 276.836l-4.628 9 3.894 18.121 5.109-3.408 2.31-10.334 7.542-13.134z"/><path fill="#feeee9" d="M273.984 258.356l-8.024 7.416 10.334 20.064 18.855-8.755-8.635-17.267-7.42-.849-1.216.725z"/><path fill="#eaeceb" d="M267.911 246.316l-4.628 12.889 2.677 6.567 20.554-5.958-1.951-8.878z"/><path fill="#507033" d="M252.582 200.961l-3.282 31.006 13.983 27.238 21.28-8.269-14.228-47.546z"/><path fill="#3a592a" d="M234.828 177.734l18.97-6.326 16.537 31.982-21.035 28.577-9.73-14.591zM137.793 225.523l16.66 8.877 17.876-30.52s-33.557-19.7-33.557-17.876-12.04 27.725-12.04 25.9c.001-1.826 11.061 13.619 11.061 13.619z"/><path fill="#507033" d="M114.448 213.364l-1.216 6.322 20.308 30.887 20.913-16.174-24.561-29.303z"/><path d="M109.951 201.569c-.49-.123-2.555 8.509-2.555 8.509l5.836 9.73 13.624-11.795-16.905-6.444z" fill="#eaeceb"/><path fill="#000001" fill-opacity=".149" d="M134.267 202.781l-.122 7.42-20.668 9.848-6.204-9.971z"/><path fill="#393939" d="M159.93 176.273l-.245-.241v15.077l-46.576-7.539-5.836 26.508 55.326.245z"/><path fill="#eaeceb" d="M117.125 197.92l4.253-.122 8.759-.245-.245 9.363-13.616-.241z"/><path fill="#535151" d="M159.685 176.032l-4.987-5.718-47.302-.24-.123 13.252 5.11 6.811-.245.972h47.547z"/><path fill="#eaeceb" d="M111.648 185.518l3.771-8.151-.122-3.644 32.838.118.237 14.835-34.169.368z"/><path d="M191.911 347.974l-5.355 16.052-23.345 19.215h47.545s4.008-24.807 4.497-25.537c.491-.853-23.342-9.73-23.342-9.73z" fill="#3a592a"/><path fill="#507033" d="M213.434 355.879l-4.743 9.485-9.483 24.321h38.42l-3.159-24.077z"/><path fill="#207455" d="M182.671 320.249l-8.032 7.661 11.918 36.115 22.134 1.339 3.527-46.209zM232.036 341.406l5.714-3.036 3.526-23.835-20.308 6.931 1.461 20.549z"/><path fill="#308b69" d="M209.907 301.888l-6.448 26.753 5.232 36.723 25.778.244 3.281-27.238-12.521-9.366 8.505-19.456z"/><path fill="#308b69" d="M208.079 306.752l-4.62 21.889-28.82-.731-10.211-53.869 33.924 14.958z"/><path fill="#46af85" d="M204.798 287.905l-5.475 12.035 4.136 28.701 21.77.363 10.457-31.006-7.298-23.35z"/><path d="M164.428 274.041l34.895 25.899 40.133-28.695s-9.853-26.875-10.823-26.753c-.972.122-57.275 16.415-57.275 16.415l-6.807 13.134h-.123z" fill="#207455"/><path d="M167.464 273.8l21.28-.245v-8.514l10.579-.607 3.524 8.999 25.786-.241-1.339-16.419-59.952 1.339c0-.001.244 15.688.122 15.688z" fill="#393939"/><path fill="#808181" d="M188.744 273.678l13.988-.245 5.102-16.174-23.833-.85z"/><path fill="#3a592a" d="M235.93 234.763l-13.378 12.647 2.677 81.594 29.181-.727-4.987-66.884zM160.412 237.076l-6.808 26.386-2.8 64.207 23.835.241-.604-80.378z"/><path d="M165.766 233.183l8.514 32.712 20.545.122 13.98-61.288s-38.297-7.298-40.126-6.808c-1.82.486-2.914 35.385-2.914 35.385v-.123z" fill="#308b69"/><path d="M205.279 207.16c.857.608-11.425 15.081-11.425 15.081l.849 43.775 28.453-.245 10.824-49.857s-3.037-28.573-2.188-28.455c.85.122-26.512 19.578-26.512 19.578v.123z" fill="#207455"/><path fill="#dddddc" d="M165.521 175.665l28.333 46.453 37.815-44.02-4.742-21.28-37.693-5.229-18.725 8.755z"/><path fill="#bfbdbd" d="M169.17 164.601l15.077 12.766 9.484-6.93 7.54 2.187 7.902 6.327 17.509-16.905.245-5.228-49.611 2.432-6.807 1.094z"/><path fill="#507033" d="M193.127 172.384l-1.583 7.293-8.147 25.419 10.457 17.022 16.291-19.215-9.486-23.226z"/><path fill="#6fc5a3" d="M193.854 222.118l-23.345-61.774-9.485 20.672 7.297 22.01z"/><path fill="#6fc5a3" d="M234.828 177.734l-7.901-20.916-33.073 65.3 37.448-28.214z"/><path fill="#3a592a" d="M183.643 162.776l7.901 16.901h9.115l9.126-19.088-18.119-7.297z"/><path fill="#efd0cb" d="M228.266 98.206l4.619 18.848-7.901 33.442-4.988 13.011-23.343-1.094-4.505-11.917 11.556-106.89 25.9-.607z"/><path fill="#cea39f" d="M170.386 140.158l3.404 16.782 11.795 12.158 11.068-6.685 20.185-18.852h-12.04l-9.116-4.134z"/><path fill="#cea19c" d="M227.898 104.896l-4.008 3.158 8.995 9 1.706-7.416z"/><path fill="#372613" d="M233.375 28.044l19.329 16.779-7.901 26.267-10.947 1.702-11.549-2.918-7.175-18.121z"/><path fill="#2e200f" d="M244.803 71.09l-3.772 11.431-7.778 7.78-11.673-1.824.727-18.603z"/><path fill="#43301d" d="M221.335 18.07l19.452 1.702 11.917 25.051-30.397 25.051-7.175-18.121-9.118-30.643z"/><path fill="#2e200f" d="M200.904 13.936l12.04-5.469 27.843 11.305-21.28 12.407-16.537-.731-19.45-12.888 11.55-7.42z"/><path fill="#634f41" d="M150.445 9.315l8.873-8.024 31.858-.607 9.728 13.252-5.344 2.31-6.204 2.918-30.887 3.649z"/><path fill="#6d5948" d="M142.903 24.396l-23.957-1.461 40.372-21.644-1.943 14.228z"/><path fill="#554537" d="M157.498 35.946l-3.894-10.823 3.771-9.604 31.981 3.645 6.563 7.056.122 10.701-3.648 2.674z"/><path fill="#372613" d="M219.507 32.179l-30.151-13.015 3.526 15.203-2.187 5.958 24.437 11.428z"/><path fill="#2e200f" d="M124.904 31.326l-5.958-8.391 38.429-7.416 4.376 13.619 9.239 12.036-20.79 5.473z"/><path fill="#43301d" d="M157.13 51.998l-28.332 10.823-13.011-7.052 3.159-32.834 21.28 12.162z"/><path fill="#2e200f" d="M150.567 57.593l-20.675 17.509-14.105-19.333 12.284-2.433z"/><path fill="#ffeee9" d="M128.071 53.336l5.959 73.08 19.574 18.484 51.194-1.339 8.023-29.425 2.311-62.383-22.127-17.264-31.254-5.351-19.452 7.902z"/><path fill="#cea39f" d="M161.751 29.138l-21.525 5.959-12.155 18.239z"/><path fill="#efd0cb" d="M145.703 70.482l11.182 6.808 4.384 6.934 3.036 4.497 3.159-4.497 7.42-6.567 5.232-4.502 12.032-2.065 11.556 4.62-15.442 9.363-17.394 23.834-6.318-6.811-7.909 1.824-8.383-17.994-15.689-11.31z"/><path fill="#cea39f" d="M162.24 104.773l-6.326 3.89 7.053 5.232 7.901-4.988z"/><path fill="#554537" d="M174.517 72.429l16.904-3.286 12.283 6.567-12.528-2.188-16.292 4.135zM157.498 72.792l-13.746-4.134-11.183 5.958 11.183-2.31 13.133 4.984z"/><path fill="#fef4f2" d="M161.269 84.224l-3.412 12.766-1.943 11.673 14.954.244-3.404-11.917V84.224z"/><path fill="#cea39f" d="M153.359 124.474l23.835-.486 1.094 3.036-25.411.49z"/><path fill="#ffeee9" d="M227.049 81.914l13.982.607-6.44 27.117-10.701-1.584z"/><path fill="#cea19c" d="M229.236 98.206l1.706-9.729 5.837.608z"/><path fill="#eaeceb" d="M225.588 147.088l-28.935 15.325 12.765 10.819 17.509-16.414zM196.653 162.413l-11.795 9.971-14.349-12.04 2.065-7.905z"/><path fill="#507033" d="M174.157 265.895v-18.363l-5.232-45.599 1.584-41.589-15.811 9.97-1.094 93.148zM223.155 265.772l-.603-18.362 5.836-49.126-.122-2.674-1.339-38.792 26.871 14.59-4.498 60.559.123 29.426z"/><path fill="#6fc5a3" d="M189.724 231.726l4.13-6.081 3.894 5.835-3.772 5.837z"/><path fill="#feeee9" d="M107.273 183.326l8.146-5.959 5.959 20.431-14.105 12.28z"/><path d="M120.529 176.151l.367 10.215 3.037-.122-.123-3.767 4.016-.122.122-2.188-4.261.241-.123-1.702 5.11.122.123-2.796-8.269.241v-.122zm9.363 10.701l-.604-11.064 7.657.73-1.583 3.649 3.167 2.673-8.636 3.894v.118zm1.943-9.118l.122 1.457 2.188-1.335-2.31-.122zm.489 4.375l.245 1.824 2.433-1.216-2.678-.608zm6.448-5.836v10.093l3.037.367.49-10.46-3.412.122-.115-.122zM139.376 196.096l-3.281 3.767 7.657 7.906 8.032-8.392-4.016-3.526z" fill="#535151"/><path fill="#699b47" d="M161.269 193.296l12.888 54.236-3.648-87.188zM237.023 195.974l-14.471 51.436 4.375-90.592z"/><path d="M150.323 81.061c2.212 0 4.008 1.796 4.008 4.012 0 2.216-1.796 4.012-4.008 4.012-2.22 0-4.016-1.796-4.016-4.012 0-2.217 1.795-4.012 4.016-4.012zM188.262 81.061c2.212 0 4.008 1.796 4.008 4.012 0 2.216-1.796 4.012-4.008 4.012-2.22 0-4.016-1.796-4.016-4.012.001-2.217 1.796-4.012 4.016-4.012z" fill="#2b2b2b"/><path fill="#6fc5a3" d="M190.328 248.382l3.893-5.955 4.131 5.714-3.886 5.714z"/></svg>