<svg xmlns="http://www.w3.org/2000/svg" viewBox="0 0 400 400"><path fill-rule="evenodd" clip-rule="evenodd" fill="#fef2f0" d="M104.745 135.896l9.832-7.677 16.191 13.161-8.673 10.967-9.444-1.737z"/><path fill-rule="evenodd" clip-rule="evenodd" fill="#f2d6d2" d="M116.12 173.093l-3.47-22.483 18.117-9.23-.288 9.597-6.246 18.978-1.173 4.234z"/><path fill-rule="evenodd" clip-rule="evenodd" fill="#fef2f0" d="M136.642 142.665l-13.301 17 .892 10.289 5.181.26 1.933-3.01 8.185-22.893z"/><path fill-rule="evenodd" clip-rule="evenodd" fill="#6c993a" d="M116.12 173.093l15.227-5.891 6.274 9.613-7.625 7.127-8.992-.373z"/><path fill-rule="evenodd" clip-rule="evenodd" fill="#738942" d="M152.743 198.769l-15.123-21.954-16.617 6.752 19.507 40.052 9.715-4.26 5.989-10.484z"/><path fill-rule="evenodd" clip-rule="evenodd" fill="#53702a" d="M140.509 223.619l12.234-24.85 10.325-6.198 24.372 7.356-6.349 17.034z"/><path fill-rule="evenodd" clip-rule="evenodd" fill="#33302d" d="M292.099 386.176l-68.926 13.347-71.569-12.173 30.75-6.42 46.95-9.448 11.39 2.334z" opacity=".1"/><path fill="#738942" d="M175.329 192.423L170.167 219l14.478 35.018 51.182-6.061 4.713-26.18-2.982-16.597-38.801.021-3.672-26.101z"/><path fill="#f2d6d2" d="M195.085 179.1l26.767-10.354 19.446-81.062-27.074-34.444-7.524 20.775-24.961 73.747 27.184 6.464z"/><path fill="#60833a" d="M175.33 192.423L170.167 219l23.754 7.576.584-23.863z"/><path fill="#d4a8a2" d="M214.983 147.762L195.085 179.1l-13.346-31.338z"/><path fill="#77624f" d="M143.679 116.17L120.67 61.42l18.856-39.059L191.772.477l57.606 21.548 31.566 61.281-16.162 55.134 12.123 27.732-14.142 26.65-44.578 21.858 11.916-29.014-8.249-16.92 3.643-30.306L245 106l-3.702-18.316-31.979-20.899-31.408-28.557-31.818 9.555-6.567 18.688z"/><path fill="#405b25" d="M193.921 226.576l27.931-57.83 8.249 16.92-6.098 26.16z"/><path fill="#77624f" d="M151.117 142.23l-9.571 23.942 24.325 29.948 28.634 6.593-9.186-16.205 9.766-7.408-13.346-31.338-18.184-1.737z"/><path fill="#fef2f0" d="M146.093 47.783l-6.567 18.688 4.153 49.699 17.108 31.592h26.351l17.062-21.428L214.226 71l-36.315-32.772z"/><path fill="#937e6f" d="M139.526 22.361l6.567 25.422 31.818-9.555L191.772.477z"/><path fill="#d4a8a2" d="M225.495 104.437l9.193 10.796 2.155-8.705z"/><path fill="#77624f" d="M226.979 81.959l-17.66-15.174-20.314-23.704 91.939 40.225-38.814 1.43z"/><path fill="#5f4937" d="M280.944 83.306l-55.449 55.134h39.287z"/><path fill="#937e6f" d="M225.495 138.44l51.41 27.732-12.123-27.732zM221.852 168.746l55.053-2.574-46.804 19.494z"/><path fill-rule="evenodd" clip-rule="evenodd" fill="#f2d6d2" d="M143.638 77.625l20.154 23.476 1.491-3.238.167-14.238-2.23-7.065-1.239-1.397-11.972-2.189zM176.658 75.125l11.392-1.127 11.583 3.203L173.7 106l-3.75-8.137.063-12.363 4.687-8.94z"/><path fill-rule="evenodd" clip-rule="evenodd" fill="#fef8f8" d="M165.283 97.863l.167-14.238-2.23-7.065h11.48l-4.687 8.94-.063 12.363L173.7 106h-12.167z"/><path d="M187.548 83.735c0 2.157-1.748 3.906-3.906 3.906-2.157 0-3.906-1.749-3.906-3.906s1.749-3.906 3.906-3.906c2.158 0 3.906 1.749 3.906 3.906zM159.656 83.735c0 2.157-1.75 3.906-3.906 3.906-2.157 0-3.906-1.749-3.906-3.906s1.749-3.906 3.906-3.906c2.156 0 3.906 1.749 3.906 3.906z" fill-rule="evenodd" clip-rule="evenodd" fill="#33302d"/><path fill-rule="evenodd" clip-rule="evenodd" fill="#f2d6d2" d="M195.085 179.1l-1.164 47.476 27.931-57.83z"/><path fill="#937e6f" d="M141.546 166.172l19.241-18.41-8.965-16.555z"/><path fill="#6c993a" d="M170.167 219l23.754 7.576-9.276 27.442z"/><path fill="#54702a" d="M194.505 202.713l.58-23.613-9.766 7.408z"/><path fill="#53702a" d="M262.763 192.822l-25.25 12.379 21.209 28.278 20.203-6.903z"/><path fill="#738942" d="M274.251 252.67l4.674-26.094-20.203 6.903v20.539l15.529-1.348z"/><path fill="#6c993a" d="M274.384 251.934l-15.662 2.084v8.754l14.142-2.358z"/><path fill="#47aa7e" d="M247.274 272.537l45.12-5.387 2.861 30.135-44.11 10.606-8.98-8.092z"/><path fill="#6c993a" d="M235.827 247.957l11.447 24.58-9.716 51.852h-52.576l-12.459-41.516 12.122-28.855z"/><path fill="#f2d6d2" d="M258.722 262.772l-2.971 8.751 6.453-.769z"/><path fill="#2d8862" d="M247.274 272.537l-6.734 4.028 1.625 23.234 8.98 8.092z"/><path fill="#7ac3a1" d="M253.04 279.986l27.904-3.074 11.45-9.762-45.12 5.387z"/><path fill="#fef2f0" d="M258.722 262.772l6.904 15.826 15.318-1.686-8.08-16.498z"/><path fill="#f2d6d2" d="M280.944 276.912l-3.367 10.608-12.627 4.545.676-13.467z"/><path fill="#647640" d="M235.827 247.957l11.447-29.742-9.761-13.014z"/><path fill="#47aa7e" d="M202.976 267.906l39.265-6.177-6.414-13.772-32.853 3.891h.002z"/><path fill="#7ac3a1" d="M192.811 269.506l10.165-1.6v-16.058h-.002l-18.329 2.17z"/><path fill="#738942" d="M192.811 269.506l47.729 7.059 6.734-4.028-5.033-10.808z"/><path fill="#53702a" d="M192.811 269.506l44.747 54.883h-52.576l-12.459-41.516 1.798-4.275z"/><path fill="#f2d6d2" d="M184.982 324.389l13.806 44.445-12.459 14.481 12.459-2.022 11.111-13.047 1.094-43.857z"/><path fill="#d4aba5" d="M184.982 324.389l25.591 16.838-4.377-16.838z"/><path fill="#47aa7e" d="M186.329 383.315l-7.154 8.74h16.162l11.363-13.203 5.557 13.203h4.293l-6.651-23.809-11.912 13.176z"/><path fill="#fef2f0" d="M206.196 324.389l-1.154 5.388 43.326 29.629-1.094 20.744 8.477-9.632v-20.202l-18.193-25.927z"/><path fill="#47aa7e" d="M247.274 380.15v10.571l12.26-10.571 2.67-20.49 10.744 10.858 2.694-4.545-19.891-15.657v20.202z"/><path fill="#d4aba5" d="M205.042 329.777l5.531 11.45.188-7.537z"/><path fill-rule="evenodd" clip-rule="evenodd" fill="#d4a8a2" d="M194.165 216.559l3.527-6.483 1.065 6.483-4.836 10.017z"/><path fill="#937e6f" d="M177.911 38.228l71.467-16.203 31.566 61.281z"/><path fill="#5f4937" d="M176.658 75.125l11.392-1.127 11.583 3.203.609-1.076L188.325 71l-10.958 1.417zM161.981 75.163l-10.968-.85-7.375 3.312-.313-.562 6.75-5.625 11.318 1.054z"/><path fill="#5f4937" d="M146.093 47.783l-15.709 19.002 13.295 49.385-4.153-49.699zM214.226 71l11.437 30.896 1.316-19.937zM141.546 166.172l53.539 12.928-13.346-31.338z"/><path fill="#937e6f" d="M185.319 186.508l-43.773-20.336 53.539 12.928z"/><path fill="#fef2f0" d="M242.13 84.736l-15.151-2.777-1.484 22.476 11.281 2.091z"/><path fill="#d4a8a2" d="M238.61 86.82l-9.595-1.648-.774 12.248z"/><path fill="#937e6f" d="M280.944 83.306l-38.814 1.43-16.635 53.704z"/><path fill-rule="evenodd" clip-rule="evenodd" fill="#fff" d="M156.388 118.188l13.562-.407 16.438.203.75 2.204-6.625 7.062-20.375-.562z"/><path fill-rule="evenodd" clip-rule="evenodd" fill="#5e7736" d="M150.388 116.17l1.455 1.218L168.315 121l22.885-2.625 2.75-2.205-3.187.705-10.938-.312-11.708-2-7.33 2z"/><path fill-rule="evenodd" clip-rule="evenodd" fill="#749c46" d="M186.852 118.874l-6.569 6.543h-19.496l-3.612-6.859-5.332-1.17 8.357 12.279h20.583l10.417-11.292z"/><path fill-rule="evenodd" clip-rule="evenodd" fill="#d4aba5" d="M161.533 106l6.084 6.623L173.7 106z"/><path fill-rule="evenodd" clip-rule="evenodd" fill="#f2d6d2" d="M202.033 110.873l-9 21.294 7.775-10.646z"/></svg>