<svg xmlns="http://www.w3.org/2000/svg" viewBox="0 0 400 400"><g fill-rule="evenodd" clip-rule="evenodd"><path opacity=".1" fill="#34302d" d="M317.895 387.484L225.368 400l-113.66-12.364 110.051-8.924z"/><path fill="#556837" d="M252.501 379.318l-15.089 5.444 1.353 7.713 34.544-.302 1.353-7.561z"/><path fill="#749c46" d="M251.317 356.33l-5.578 10.888-8.327 17.544 37.25-.134-4.408-17.258z"/><path fill="#556837" d="M160.449 373.419l-16.99 5.673.169 8.241 34.149 1.06 7.609-4.16 1.858 4.385 10.228-.225.507-8.168-15.891-6.125z"/><path fill="#749c46" d="M179.384 351.339l-7.523 8.015-28.402 19.738 54.52 1.133-3.971-18.148z"/><path fill="#377759" d="M234.243 317.008l-3.889 19.206 15.385 31.004 24.515.152-3.044-37.204z"/><path d="M220.38 279.652l-5.409 22.686 15.384 33.877 36.855-6.049-2.984-38.317 4.153-16.105s-17.768-9.197-19.089-8.643c-1.322.552-28.91 12.551-28.91 12.551z" fill="#56ad86"/><path fill="#377759" d="M183.525 308.387l-13.524 15.427 1.86 35.54 22.147 2.723 10.142-29.946z"/><path d="M184.709 269.518l-16.433 7.098 1.725 47.198 34.149 8.317 10.82-29.794-.846-21.323c.001 0-28.653-11.717-29.415-11.496z" fill="#56ad86"/><path d="M184.709 269.518l9.638 13.534 20.624 19.285 33.591-33.552s-20.907-11.186-22.264-11.064c-1.359.124-41.589 11.797-41.589 11.797z" fill="#377759"/><path fill="#fef2f0" d="M105.59 201.536l-10.144 2.268-13.341-10.624 5.5-16.125 17.14 3.761z"/><path fill="#f3d8d4" d="M120.467 185.505l-15.722-4.689-9.299 22.988 15.892 2.572 7.453-4.109z"/><path fill="#fef2f0" d="M128.582 210.761l-1.164-13.611-6.105-26.731-7.27 1.323v22.438l4.748 8.087z"/><path fill="#5e7736" d="M142.952 219.912l24.345 11.948 6.086-4.163 9.129-13.532-9.298-43.787z"/><path fill="#74716f" d="M225.368 261.653l-11.58 6.426-11.165 8.275-16.139-6.535 2.036-44.395 11.321 4.542 11.72-3.321 10.39 4.684z"/><path fill="#888584" d="M188.52 225.424l1.771-38.621 26.962 2.86 4.698 41.666-7.136.307-14.974-1.67z"/><path d="M265.857 262.181l-17.296 6.604-21.926 8.518-12.848-9.226 1.027-36.442 10.299-6.661s7.139-.732 14.498-7.772c1.077 4.67 1.816 8 1.816 8l24.43 36.979z" fill="#646465"/><path d="M214.815 231.636l.831-19.063.932-11.72s13.474-13.253 15.044-13.006c1.102.173 5.472 18.431 7.99 29.355-7.359 7.04-10.953 13.598-10.953 13.598l-13.844.836z" fill="#74716f"/><path fill="#496427" d="M265.012 281.54l-.786 10.308 28.512-11.67-14.201-21.929z"/><path fill="#fef2f0" d="M265.689 266.416l-17.127 2.37 15.664 23.062 5.52-11.367z"/><path fill="#5e7736" d="M241.682 220.892l-13.023 9.908 19.903 37.986 21.692-13.41 10.48-30.4z"/><path fill="#496427" d="M276.89 236.13l3.844-11.154-22.625-2.366 2.565 24.15z"/><path fill="#749c46" d="M283.102 220.892l-13.779 7.562-20.761 40.332 21.184 11.695 34.489-45.069z"/><path fill="#5e7736" d="M181.836 220.06l-8.043 7.031-5.517 49.525 26.071 6.436 5.494-53.086z"/><path fill="#749c46" d="M245.233 166.446l4.959-4.056 22.851 5.417-3.72 60.647-40.664 2.346 12.77-40.458z"/><path opacity=".2" fill="#33302d" d="M270.641 206.983l-1.318 21.471-10.529.608-1.558-14.674z"/><path fill="#749c46" d="M193.67 200.323l6.171 29.643-26.048-2.875-.579-56.713 23.967-10.09z"/><path fill="#f0f2f2" d="M206.387 198.786l9.259 13.788 8.963-11.118 6-12.476 17.103-24.562-6.995-13.125-40.961 2.298-14.539 37.809 17.118-3.336z"/><path fill="#d5d3d3" d="M199.599 188.68l6.788 10.106 6.346-9.603 11.876 12.273 10.057-12.476 5.166-9.724-47.346-6.761-5.828 15.157 2.863 3.681 10.066-.16z"/><path d="M199.756 153.591l.085 76.375-21.048-34.331s19.087-44.647 19.104-45.523c.016-.875 1.859 3.479 1.859 3.479z" fill="#a3c25f"/><path fill="#dfdf3a" d="M215.393 173.78l-6.931 5.596-13.546-2.268 4.784-11.043 13.072 3.746z"/><path fill="#bdc30f" d="M215.31 178.545l-3.043 2.949-12.721 18.982-10.188-15.05 23.162-9.773z"/><path fill="#d4aba5" d="M183.695 144.716l29.077 27.429 25.206-20.253-3.566-8.36z"/><path d="M255.883 153.506l-3.753-17.487s-17.844 14.448-16.872 13.768c.973-.68 5.459 1.658 5.459 1.658l15.166 2.061z" fill="#a2662a"/><path fill="#84511d" d="M255.545 130.176l3.985 10.1-18.813 11.17L222.67 129.7l30.001-2.059z"/><path fill="#a2662a" d="M255.038 106.171l.844 12.552 3.648 21.553-19.641-14.208 2.624-20.221z"/><path fill="#84511d" d="M256.728 91.674l10.438 20.708-11.284 6.341-8.284-7.862-7.056-14.807z"/><path d="M221.394 67.837c.77-.979 4.151 46.309 4.151 46.309l8.904-10.64 3.345-38.035-16.4 2.366z" fill="#f2d6d2"/><path d="M242.019 90.999l-8.907 55.767-24.945.018 8.355-34.837 9.595-10.52s9.669-28.733 9.142-30.206c-.528-1.474 9.157 8.568 9.157 8.568l-2.397 11.21z" fill="#b6763e"/><path fill="#f2d6d2" d="M245.147 104.015l2.451 6.846-6.881 40.585-27.945 20.699 20.339-25.38.666-13.296 1.734-34.527z"/><path fill="#d4a8a2" d="M242.442 93.618l-6.931 5.324 12.087 11.919 1.521-9.298z"/><path fill="#fef2f0" d="M246.88 79.627l-9.805.634-1.564 18.681 13.608 2.621 2.79-16.314z"/><path fill="#d4aba5" d="M242.104 82.799l-1.503 13.053 8.814-8.742z"/><path fill="#a2662a" d="M254.148 75.021l4.82 8.706 8.198 28.655-30.091-32.121z"/><path fill="#84511d" d="M244.006 55.071l-15.385 16.861 8.454 8.329 21.639 4.227 8.832-26.501z"/><path fill="#a2662a" d="M240.327 22.823l10.82.507 16.399 34.657-38.925 13.945 2.07-28.822z"/><path fill="#b6763e" d="M198.908 8.284L229.34 0l21.807 23.33-22.526 48.602-37.32-29.33-13.863-17.074z"/><path fill="#d2965d" d="M173.55 8.623l8.96-1.861L229.34 0l-43.49 28.147-10.61 5.665-19.441-1.691z"/><path fill="#b6763e" d="M148.022 31.444l-1.776-6.931 22.57-21.301 13.694 3.55-20.667 21.808z"/><path fill="#a2662a" d="M143.881 54.014l-7.27-5.833 9.635-23.668 15.597 4.057.971 3.804-13.798 22.994z"/><path fill="#84511d" d="M152.165 89.6l-15.554-41.419 12.383 2.704 2.156 2.03z"/><path fill="#fef2f0" d="M161.843 28.57l-12.849 22.315 1 54.109 1.071 15.882 21.978 20.456 35.333.169 13.863-9.467-1.816-22.643 5.693-7.966 2.505-29.493-11.646-11.921-29.758-27.301z"/><path fill="#f2d6d2" d="M216.975 60.011L185.85 28.147l-24.007.423 23.647 6.876zM161.631 59.466l-8.809 3.893 25.09 24.446 3.796-1.035 5.871 8.308 26.207-33.837-11.707-3.634-13.821 6.845-3.846 5.353-3.043 5.976-3.457-5.806-3.77-5.227-3.423-2.661z"/><path fill="#d2965d" d="M149.994 104.994l.317 20.407 19.986 20.747 37.869.635 14.986-11.598 2.964-33.76-13.85 6.772-24.687-13.119-13 .016-19.722 11.363z"/><path fill="#fef2f0" d="M180.677 105.832l15.722 6.931-2.584 2.321 2.268.861-1.121 11.303-10.927-4.049-5.109.054-8.563 3.572-2.306-11.286 3.164-.823-3.773-2.147z"/><path fill="#9f5d19" d="M180.246 91.418l-5.667 3.676 6.366 6.213 6.634-6.229z"/><path fill="#fef8f8" d="M177.912 69.975v17.83l-3.333 7.289 13-.016-3.083-7.273-.084-18z"/><path fill="#b6763e" d="M152.062 61.753l9.424-4.1 12.825 3.588-.169 3.507-12.486-3.629-8.834 2.24zM187.412 60.48l15.216-3.974 11.199 2.874-.041 1.861-10.102-1.057-15.426 4.268z"/><path fill="#d4aba5" d="M167.448 112.569l28.951.194-.316 3.182-28.026-.406z"/><path fill="#a3c25f" d="M228.659 230.8l.208-1.053 11.85-78.454 9.756 11.372 4.903 33.726z"/><path fill="#bdc30f" d="M216.999 174.537l3.466-1.058 17.919-7.364 4.312 11.296-7.026 5.842-9.881.207-10.479-4.915z"/><path fill="#dfdf3a" d="M217.423 180.132l1.689 5.747 13.752 16.542 9.325-18.053z"/><path fill="#ede86d" d="M212.267 181.494l6.845 4.385 1.353-12.4-7.693-3.668z"/><path fill="#5e7736" d="M257.236 214.388l12.087 14.066 34.912 6.958-31.192-67.605z"/><path fill="#ccc9ca" d="M211.386 253.97l3.728-5.022 3.817 5.174-4.505 4.762zM211.561 226.645l3.254 4.991 3.664-4.993-3.194-5.793z"/><path fill="#749c46" d="M111.338 206.376l28.572 43.331 27.387-17.847-39.879-34.71z"/><path d="M205.515 72.12c0 2.371-1.922 4.293-4.294 4.293-2.371 0-4.293-1.922-4.293-4.293 0-2.371 1.922-4.293 4.293-4.293 2.372-.001 4.294 1.922 4.294 4.293zM168.463 72.948c0 2.371-1.922 4.293-4.293 4.293-2.371 0-4.293-1.922-4.293-4.293 0-2.371 1.922-4.294 4.293-4.294 2.371.001 4.293 1.923 4.293 4.294z" fill="#33302d"/><path fill="#f2d6d2" d="M150.316 95.411l8.58 20.872.981-12.897zM223.412 87.805l-6.947 30.918-4.199-10.526z"/><path fill="#b6763e" d="M154.857 106.457l4.039 9.826.981-12.897zM219.641 104.591l-7.375 3.606 4.099 12.733z"/></g></svg>