<svg xmlns="http://www.w3.org/2000/svg" viewBox="0 0 400 400"><path fill-rule="evenodd" clip-rule="evenodd" fill="#504c4a" d="M214.377 67.07l5.456-1.244 6.598 10.195-3.963 82.017-14.493 5.027z"/><path fill-rule="evenodd" clip-rule="evenodd" fill="#33302d" d="M208.002 91.385l-9.421 64.002 16.017 3.101 5.257-92.713-7.234 15.814.804 3.555z"/><path fill-rule="evenodd" clip-rule="evenodd" fill="#987758" d="M153.238 7.793l-19.384-8.839-16.07 20.219-4.597 26.807 38.879-1.699z"/><path opacity=".1" fill-rule="evenodd" clip-rule="evenodd" fill="#34302d" d="M72.658 382.831L186.9 401.046l98.146-15.938-99.679-11.148z"/><path fill-rule="evenodd" clip-rule="evenodd" fill="#3d8d69" d="M157.601 367.472l-6.467 1.918-6.513 15.408 21.76-.681 4.915-5.644-1.489-15.459z"/><path fill-rule="evenodd" clip-rule="evenodd" fill="#377759" d="M161.036 346.128l8.509 4.229 10.148 8.055-6.011 13.893-3.666.776-3.96-7.018z"/><path fill-rule="evenodd" clip-rule="evenodd" fill="#edd8c7" d="M157.913 348.814l-.773 6.367-6.006 14.209 2.592 8.265 16.137-11.919-.318-15.379z"/><path fill-rule="evenodd" clip-rule="evenodd" fill="#56ad86" d="M176.18 374.989l-6.164-1.908-14.133 19.359 32.007.135 5.657-13.42z"/><path fill-rule="evenodd" clip-rule="evenodd" fill="#377759" d="M186.172 373.11l6.636-7.047 6.657 13.126-11.575 13.386 1.599-8.621.467-2.516z"/><path fill-rule="evenodd" clip-rule="evenodd" fill="#edd8c7" d="M184.455 353.243l-4.762 5.169-9.677 14.669.393 11.32 19.547-2.963-.941 5.071 3.793-20.446-8.87-12.26z"/><path fill-rule="evenodd" clip-rule="evenodd" fill="#d8b99d" d="M138.396 319.862l-19.34 8.693 38.084 26.626 12.405-4.824-19.934-27.513z"/><path fill-rule="evenodd" clip-rule="evenodd" fill="#edd8c7" d="M143.314 296.605l-15.002 7.092-9.256 24.858 30.555-5.711 5.901-8.432z"/><path fill-rule="evenodd" clip-rule="evenodd" fill="#af9174" d="M155.512 314.412l6.338-9.059-10.835-4.298-22.703 2.642z"/><path fill-rule="evenodd" clip-rule="evenodd" fill="#d8b99d" d="M187.388 325.229l-8.957 5.045 1.262 28.138 13.115 7.651 9.436-31.32z"/><path fill-rule="evenodd" clip-rule="evenodd" fill="#edd8c7" d="M210.244 307.743l-8 27-23.813-4.469-.443-10.278 16.361-19.542z"/><path fill-rule="evenodd" clip-rule="evenodd" fill="#af9174" d="M207.535 296.362l2.709 11.381-32.256 12.253-.616-13.876z"/><path fill-rule="evenodd" clip-rule="evenodd" fill="#496427" d="M223.306 265.649l-13.062 42.094-81.932-4.046 72.849-42.777 19.474-9.117z"/><path d="M220.38 250.612l2.926 15.037-94.995 38.048s11.667-14.746 31.975-31.005l60.094-22.08z" opacity=".2" fill-rule="evenodd" clip-rule="evenodd" fill="#33302d"/><path fill-rule="evenodd" clip-rule="evenodd" fill="#ccae8f" d="M249.004 226.537l33.171-24.083-10.004-7.523-33.216 10.74-13.743 4.562z"/><path fill-rule="evenodd" clip-rule="evenodd" fill="#edd8c7" d="M210.353 162.744l4.554-9.708 7.613 1.478 22.054 42.834-29.128 17.369-4.953-52.832z"/><path fill-rule="evenodd" clip-rule="evenodd" fill="#d8b99d" d="M112.414 204.796l-10.611 4.555 13.315 35.265 18.938.197-6.871-27.168z"/><path fill-rule="evenodd" clip-rule="evenodd" fill="#edd8c7" d="M145.701 171.131l-2.395-12.909-41.503 51.129 25.382 8.294 14.979-11.386z"/><path fill-rule="evenodd" clip-rule="evenodd" fill="#56ad86" d="M292.403 187.869l6.729 22.62 16.266-9.15-7.806-12.354 6.57-3.42 7.726 12.382 18.125-6.732-22.678-15.369-12.898-.081z"/><path d="M212.585 92.92l.018 7.663-10.255 49.389-18.79 32.121-11.264-17.299s-.831-25.261-6.075-23.653l2.99-36.986 31.831-89.042 12.897 27.878-1.352 49.929z" fill-rule="evenodd" clip-rule="evenodd" fill="#d8b89c"/><path d="M202.348 149.972l-.874 48.18-38.627 25.428-16.278-24.739 8.325-45.09 10.791-4.008.875-9.306c4.767-1.257 5.734 24.357 5.734 24.357l30.054-14.822z" fill-rule="evenodd" clip-rule="evenodd" fill="#edd8c7"/><path fill-rule="evenodd" clip-rule="evenodd" fill="#d8b99d" d="M156.166 207.907l13.302-14.09 17.442 23.027-29.549 6.898z"/><path fill-rule="evenodd" clip-rule="evenodd" fill="#af9174" d="M155.171 134.305l17.123 30.489 23.278-26.364h-23.641l-7.237-6.833zM206.958 88.028l-5.505 1.493 11.151 11.062 1.981-9.543z"/><path fill-rule="evenodd" clip-rule="evenodd" fill="#edd8c7" d="M212.649 61.159l-8.595 4.827-2.601 23.535 13.132 1.519 5.349-25.76z"/><path d="M133.854-1.046l1.417.044 65.552 2.03-3.103 20.946-16.427-1.371s-4.583 12.889-8.865 24.276l-50.726-1.492 10.889-23.344 1.263-21.089z" fill-rule="evenodd" clip-rule="evenodd" fill="#bf9d7c"/><path d="M200.824 1.028l23.696 35.08-4.665 29.667-15.646-1.188-7.056-18.98-24.724-.728c4.282-11.388 8.865-24.276 8.865-24.276l19.53-19.575z" fill-rule="evenodd" clip-rule="evenodd" fill="#987758"/><path fill-rule="evenodd" clip-rule="evenodd" fill="#33302d" d="M220.544 61.395l-.218 1.398-.471 2.982-15.801.211-3.926-12.379 15.338-4.342 8.31-8.417-2.467 15.688z"/><path fill-rule="evenodd" clip-rule="evenodd" fill="#edd8c7" d="M113.187 45.98l6.369 62.09 23 30.36h29.375l19.417-26.048 5.806-66.775-2.002-3.156-2.048-3.229-5.296-8.348-6.514-10.271-48.701-.559z"/><path fill-rule="evenodd" clip-rule="evenodd" fill="#d8b99d" d="M126.349 55.654l-7.739 4.265 13.84 12.709 12.169 19.398 7.573-9.315 6.742 9.001 13.889-20.338 12.605-15.001-8.232-3.145-17.345 8.577-5.117 6.582-1.609 3.033-4.175-2.939-5.877-6.064-1.889-2.378z"/><path fill-rule="evenodd" clip-rule="evenodd" fill="#fff" d="M153.362 105.773l17.732 2.353-10.902 10.866-14.034-.919-9.691-9.497z"/><path fill-rule="evenodd" clip-rule="evenodd" fill="#749c46" d="M173.243 108.257l-13.365 13.2-12.697.083-12.614-12.949 2.423-.33 10.212 7.975 11.861-.043 11.132-8.123z"/><path fill-rule="evenodd" clip-rule="evenodd" fill="#af9174" d="M155.06 87.608l-10.441 4.418 7.729 5.675 6.586-5.989z"/><path fill-rule="evenodd" clip-rule="evenodd" fill="#f0e5de" d="M148.95 68.481l-.769 13.819-3.562 9.726 14.315-.314-3.763-9.412-.437-13.913z"/><path fill-rule="evenodd" clip-rule="evenodd" fill="#403d3b" d="M142.95 57.259l-17.324-2.866-7.464 4.759.448.767 7.1-3.035 2.413 1.366 14.95 4.167zM159.784 56.926l16.611-5.562 9.468 4.218-.435.791-9.061-1.98-2.08 1.709-14.436 5.703z"/><path fill-rule="evenodd" clip-rule="evenodd" fill="#496427" d="M134.567 108.591l-1.438-1.441 14.935-2.813 4.303 1.436 4.833-1.602 17.667 2.553-1.624 1.533-20.714.179z"/><path fill-rule="evenodd" clip-rule="evenodd" fill="#af9174" d="M214.888 70.302l-6.437-.559-.914 12.557z"/><path fill-rule="evenodd" clip-rule="evenodd" fill="#c0c72b" d="M211.039 82.318l-3.36 3.471 3.472 2.912 3.023-3.583z"/><path fill-rule="evenodd" clip-rule="evenodd" fill="#496427" d="M133.525 195.998l14.622 40.027 67.287-26.595.278-6.838-25.295-9.277-24.354 17.254-16.825-14.721z"/><path d="M143.306 158.222l-9.781 37.775 32.538 14.571-11.168-56.818-11.589 4.472zm72.406 44.37l-49.65 7.977 36.286-60.597 12.559 3.064.805 49.556z" fill-rule="evenodd" clip-rule="evenodd" fill="#749c46"/><path d="M215.712 202.592l-17.564 7.338 1.318 2.025-.091 3.087L94.106 263.02l-7.554-6.471-16.621 6.943-9.945 37.015 39.112 18.673 24.143-32.973 93.403-53.6 10.204-5.015-11.136-25zm-133.107 77.26l15.396 4.228-4.369 13.499-15.812-4.716 4.785-13.011z" fill-rule="evenodd" clip-rule="evenodd" fill="#56ad86"/><path fill-rule="evenodd" clip-rule="evenodd" fill="#377759" d="M99.098 319.18l136.235-71.927-8.485-19.66-10.204 5.015L114.257 277.2l-7.244 7.056z"/><path fill-rule="evenodd" clip-rule="evenodd" fill="#80c5a4" d="M318.583 158.363l-102.871 44.229 8.034 18.286 40.824-19.587 15.203-12.719 6.667 2.172 30.895-14.898 7.567-4.391z"/><path fill-rule="evenodd" clip-rule="evenodd" fill="#56ad86" d="M272.616 187.099l-10.673-4.384-6.291 22.771 5.631-2.649z"/><path d="M107.013 284.256l7.888-3.717s2.29-3.199 3.002-3.551c.312-.154 1.342-.228 2.399-.263l13.313-15.298-36.527-9.28-10.536 4.401 20.461 27.708z" fill-rule="evenodd" clip-rule="evenodd" fill="#f0f2f2"/><path d="M97.088 252.148l20.227 25.347.011-.012.011-.012.011-.012.011-.011.002-.002.009-.011.01-.011.011-.011.011-.011.011-.011.001-.002.009-.009.011-.011.01-.011.01-.01.011-.011v-.002l.009-.009.011-.01.01-.011.01-.01.011-.009.001-.001.009-.009.009-.01.01-.01.01-.009.01-.01h.001l.009-.009.01-.009.01-.009.01-.009.009-.008v-.002l.009-.008.009-.007.009-.009.009-.009.009-.007.009-.008.009-.008.009-.007.009-.009.008-.007.009-.007.008-.007.018-.014.008-.006.001-.001.008-.006.017-.013.008-.006.008-.005v-.001l.008-.006.023-.015.007-.006h.001l.007-.004.029-.019c.012-.006.024-.013.035-.018.711-.352 5.142-.286 5.142-.286h.001l4.576-2.156 1.772-1.369-3.551-4.092s.82-11.571-.587-10.945c-1.406.627-17.664-10.38-17.664-10.38l-10.499 4.398z" fill-rule="evenodd" clip-rule="evenodd" fill="#d6d4d3"/><path fill-rule="evenodd" clip-rule="evenodd" fill="#edd8c7" d="M261.943 194.842v-12.127l17.572-4.289 12.888 9.443-13.722 5.257z"/><path fill-rule="evenodd" clip-rule="evenodd" fill="#e5e4e4" d="M126.297 262.125l9.674-1.382 3.714 8.12-6.656 3.137-2.189.059-1.447 1.118-21.802-25.417 7.527-3.144z"/><path fill-rule="evenodd" clip-rule="evenodd" fill="#56ad86" d="M128.506 266.742l4.523 5.258-5.408 2.546-6.511-7.986z"/><path d="M127.545 253.994l12.14 14.869 7.513-3.538 2.17-4.071.938.164-.604-6.042-9.882-10.489s-11.763 4.124-12.17 3.578c-.408-.548-.105 5.529-.105 5.529z" fill-rule="evenodd" clip-rule="evenodd" fill="#f0f2f2"/><path fill-rule="evenodd" clip-rule="evenodd" fill="#d6d4d3" d="M135.451 244.177l13.609 17.655.308-.579 4.72.825 3.79-1.786 1.995-3.911 1.187.035-.748-4.781-10.458-14.022-6.153-4.938-11.5 4.804z"/><path fill-rule="evenodd" clip-rule="evenodd" fill="#56ad86" d="M143.069 249.319l-7.723 3.844 10.564 10.251 1.288 1.911 6.89-3.247z"/><path fill-rule="evenodd" clip-rule="evenodd" fill="#e5e4e4" d="M163.24 231.511l-8.705-3.361-10.834 4.525 16.172 23.706 5.95.168 4.828-2.274 1.355-3.704.672.095z"/><path d="M178.412 227.565c-.258-.372-12.516-3.985-12.516-3.985l-11.361 4.57 17.472 22.421 5.016.703.001-.002 7.456-3.512-1.282-10.843-4.786-9.352z" fill-rule="evenodd" clip-rule="evenodd" fill="#f0f2f2"/><path fill-rule="evenodd" clip-rule="evenodd" fill="#d6d4d3" d="M186.023 223.851l-9.745-4.785-10.382 4.514 18.583 24.18 7.243-3.412-.329-3.261 2.582.207z"/><path d="M200.776 222.443l-13.866-7.726-10.632 4.349 17.146 22.183 4.171.333 5.052-2.379c0-.005.733-3.601 1.333-3.89.096-.045.27-.047.497-.017l-3.701-12.853z" fill-rule="evenodd" clip-rule="evenodd" fill="#e5e4e4"/><path fill-rule="evenodd" clip-rule="evenodd" fill="#d8b99d" d="M132.957 246.757l-.756-9.278 12.614 7.733-.936 2.845-10.61.896zM120.682 257.003l-4.656 7.001 9.681 8.195 20.203-8.785-7.18-11.611z"/><path fill-rule="evenodd" clip-rule="evenodd" fill="#edd8c7" d="M116.026 264.004l-.908-19.388 17.083-7.137 6.529 14.324z"/><path fill-rule="evenodd" clip-rule="evenodd" fill="#d8b99d" d="M261.943 194.842l30.46-6.973-10.228 14.585-20.892.383z"/><path d="M186.91 214.717l16.681 21.154c.13-.289.263-.497.389-.559.602-.289 4.397 1.189 4.397 1.189l8.268-3.895-18.496-22.678-11.239 4.789z" fill-rule="evenodd" clip-rule="evenodd" fill="#f0f2f2"/><path fill-rule="evenodd" clip-rule="evenodd" fill="#56ad86" d="M199.631 226.409l8.745 10.094-5.73 2.7-8.216-10.761zM183.612 232.833l5.447-2.323 8.535 11.071-5.872 2.767s-8.051-11.541-8.11-11.515zM166.552 240.233l-4.473 1.951 8.572 12.091 6.371-3.001zM149.909 246.576l4.947-2.256 10.968 12.229-7.946 3.743zM105.882 268.003l6.137-2.928 11.025 11.628-8.143 3.837z"/><path fill-rule="evenodd" clip-rule="evenodd" fill="#f0f2f2" d="M185.06 251.988l5.645 8.117-14.356 7.196-6.212-8.006zM164.125 264.004l1.771 3.154-4.343 2.276-2.523-2.806zM157.184 267.372l2.054 3.161-4.343 2.277-2.522-2.806zM150.449 270.726l2.47 3.11-5.084 2.582-2.198-3.059z"/><path fill-rule="evenodd" clip-rule="evenodd" fill="#3c3835" d="M212.671 18.568l-18.412 2.136-11.72 1.862-1.245-1.963-16.167-.186 6.356-6.859 23.405-6.373 6.153 7.928z"/><path fill-rule="evenodd" clip-rule="evenodd" fill="#33302d" d="M209.938 14.52l4.496 6.657-9.859 6.461-16.396 3.82-6.885-10.855 13.594-13.418 11.59 2.213z"/><path fill-rule="evenodd" clip-rule="evenodd" fill="#363230" d="M152.837 20.276l5.164-12.654 22.948-7.21 19.875.616 2.957 4.378-6.105-1.224-29.506 6.919-8.14 9.258z"/><path fill-rule="evenodd" clip-rule="evenodd" fill="#33302d" d="M200.824 1.028l2.957 4.378-5.989-1.2zM191.028 35.95l15.939-4.733 9.611-6.868 7.942 11.759-10.656 9.637-14.885 4.771z"/><path fill-rule="evenodd" clip-rule="evenodd" fill="#363230" d="M152.432-.47l-6.368 4.991-.956 15.666 8.063.093 7.995-12.624L180.949.412zM133.854-1.046l-4.094 5.152.399 7.979 2.434 7.959 3.476.039 5.075.059 1.2-15.433 4.898-5.34z"/><path fill-rule="evenodd" clip-rule="evenodd" fill="#33302d" d="M133.854-1.046l-8.035 10.11-.168 8.223 4.087 6.573 2.855-3.816zM117.784 19.173l4.684-5.892-.236 5.46 5.677 7.562-7.467 9.982-3.432-.303-1.342-4.467zM114.919 35.879l.714 2.327 2.887.647-5.333 7.127zM174.793 69.724c0 2.396-1.942 4.338-4.338 4.338s-4.338-1.942-4.338-4.338 1.942-4.339 4.338-4.339 4.338 1.943 4.338 4.339zM139.227 69.724c0 2.396-1.942 4.338-4.338 4.338s-4.338-1.942-4.338-4.338 1.942-4.339 4.338-4.339 4.338 1.943 4.338 4.339z"/><path fill="none" d="M215.712 202.592l19.621 44.661M223.306 265.649l-30.498 100.414"/><path fill-rule="evenodd" clip-rule="evenodd" fill="#d8b89c" d="M137.556 96.68l-6.973 12.5v-7.997zM169.306 97.555l8.625 11.625v-7.997z"/><path fill="none" d="M219.934 65.28l-17.586 84.692"/></svg>