<svg xmlns="http://www.w3.org/2000/svg" viewBox="0 0 400 400"><path opacity=".1" fill-rule="evenodd" clip-rule="evenodd" fill="#2a2b2a" d="M254.707 385.495l-74.959-10.251-72.333 14.9L176.35 400z"/><path fill-rule="evenodd" clip-rule="evenodd" fill="#507033" d="M132.667 353.859l17.756 19.722 47.215 1.663-37.32-17.109z"/><g fill-rule="evenodd" clip-rule="evenodd"><path fill="#308b69" d="M178.484 363.404l-5.868 23.719h-2.968l-1.059-11.879-8.441 11.879h-20.569l3.355-4.187 10.957-3.944 17.933-18.953z"/><path fill="#edcdc8" d="M171.824 360.039l-15.376 22.037-13.516.859 19.861-24.8z"/></g><path fill="#6a9a47" d="M149.906 258.739l10.751 71.711 68.194-58.692-50.467-18.832z"/><path fill="#6e874a" d="M232.922 203.816l-19.509-3.686-31.467 7.425-21.289-9.273-11.62 1.973 16.878 28.498-16.009 29.986 78.945 13.019-17.812-38.934z"/><g fill-rule="evenodd" clip-rule="evenodd"><path fill="#edcdc8" d="M170.072 136.56l16.03 31.379 32.061-15.69 14.759-57.084-25.771-39.117z"/><path fill="#fdede9" d="M197.426 43.575l-30.831-9.733-22.986 11.705-9.076 17.557.593 50.137 19.679 23.319h39.507l12.087-21.718 3.071-51.738z"/><path fill="#cda09c" d="M207.985 136.56l-21.883 31.379-16.03-31.379z"/><path fill="#fff7ae" d="M156.077 167.939L117.4 144.732l15.267-22.086-14.419-56.997 10.179-41.561 23.533-11.975 47.119-4.14 24.005 6.616 28.158 33.757 5.598 40.204-13.74 26.292 23.41 37.407-30.534 15.69-17.813-15.69 14.759-57.084-12.723-34.381-22.773-17.209-30.831-9.733-20.017 6.701-17.473 19.508 9.481 36.238-1.204 16.016 17.423 24.255h15.267l9.814 19.21z"/><path fill="#fff5f3" d="M165.102 75.961h4.612l-.137 13.995 1.018 6.065h-7.973l2.035-6.065z"/><path fill="#cda09c" d="M162.622 96.021l3.986 4.537 3.987-4.537z"/><path fill="#446125" d="M154.479 106.495l2.375 2.375 23.41 1.358 3.393-1.867h-3.733l-12.552-4.071-9.331 2.969z"/><path fill="#6a9a47" d="M156.854 108.87l6.913 8.397h8.905l7.592-7.039z"/><path fill="#fff" d="M160.342 109.072l4.188 3.997h9.033l3.68-3.016z"/><path fill="#edcdc8" d="M169.915 75.961l4.157-4.75 17.43-2.545 6.81 2.8-18.048 10.941-9.669 13.614-1.018-6.065z"/><path fill="#a09160" d="M173.579 71.774l2.274-4.125 14.931-1.671 7.528 5.488-6.81-2.8z"/><path fill="#edcdc8" d="M164.657 75.961l-2.035-3.732-11.96-4.58-7.506 1.017 21.501 21.29z"/><path fill="#a09160" d="M162.622 72.229l-.764-4.58-9.797-2.545-8.905 3.562 7.506-1.017z"/><path d="M187.24 79.248c0 1.979-1.604 3.583-3.583 3.583s-3.583-1.604-3.583-3.583 1.604-3.583 3.583-3.583 3.583 1.604 3.583 3.583zM157.49 79.248c0 1.979-1.604 3.583-3.584 3.583-1.979 0-3.583-1.604-3.583-3.583s1.604-3.583 3.583-3.583c1.98 0 3.584 1.604 3.584 3.583z" fill="#2b2b2b"/><path fill="#edcdc8" d="M182.384 103.188l3.563 9.881 3.222-3.435zM156.854 100.558l-5.258 10.009-2.375-3.308z"/><path fill="#6fc4a2" d="M228.404 86.668l-8.205 14.52 7.902 12.622 4.821-18.645z"/><path fill="#a09160" d="M138.586 96.289l-2.919-32.311 7.942-18.431 22.986-11.705-15.098-3.817-33.249 35.624z"/><path fill="#e2d086" d="M166.595 33.842L151.96 12.113l-8.452 15.857z"/><path fill="#fff7ae" d="M128.427 24.088l15.081 3.882 8.452-15.857z"/><path fill="#c1b274" d="M128.427 24.088l23.07 5.937-33.249 35.624zM138.586 96.289l-5.919 26.357 22.138 13.914-15.295-26.795z"/><path fill="#a09160" d="M170.072 136.56l-13.995 31.379 23.809-12.169z"/><path fill="#c1b274" d="M156.077 167.939l-1.272-31.379-37.405 8.172zM166.595 33.842l32.484-25.869 29.772 31.383-19.381 23.748-4.538-23.748z"/><path fill="#e2d086" d="M228.851 39.356l4.071 55.809-7.605-10.396-4.606-2.994-3.73-8.11-7.511-10.561zM151.96 12.113l47.119-4.14L174.228 0z"/><path fill="#a09160" d="M243.1 114.842l-10.178-19.677 23.918-6.615z"/><path fill="#c1b274" d="M228.851 39.356l22.391 8.99 5.598 40.204-23.918 6.615zM266.51 152.249h-48.347l17.813 15.69z"/><path fill="#e2d086" d="M218.163 152.249l33.857-23.154 14.49 23.154z"/><path fill="#a09160" d="M166.595 33.842l30.831 9.733 12.044 19.529-1.824-27.989z"/></g><path fill="#fdede9" d="M235.976 167.939l-17.813-15.69-32.061 15.69-6.216-12.169-23.809 12.169 25.869 39.616z"/><path fill="#96c066" d="M156.077 167.939l-7.04 32.316 32.909 7.3z"/><path fill="#6a9a47" d="M181.946 207.555l50.976-3.739 5.089-15.012-2.035-20.865z"/><path fill="#edcdc8" d="M181.946 207.555l1.951-14.849-5.673 9.15z"/><path fill="#6a9a47" d="M197.638 375.244l28.923-63.706-93.894 42.321z"/><path fill="#95c066" d="M160.657 330.45l-27.99 23.409 93.894-42.321 2.29-39.78z"/><path fill="#6e874a" d="M197.638 375.244l44.699-17.821-15.776-45.885z"/><path fill="#46ae85" d="M165.915 228.753l45.124 4.071 5.915-7.84-56.441-5.352z"/><path fill="#6fc4a2" d="M175.767 221.078l2.457 8.785 6.88.621 4.274-8.115z"/><path fill="#6a9a47" d="M156.077 167.939l-7.04 32.316-14.504-11.111z"/><path fill="#ffeee9" d="M156.077 218.829l-5.216 7.4-9.933 32.51h8.978l16.009-29.986z"/><path fill="#edcdc8" d="M140.928 258.739l2.52 14.524h4.409l2.049-14.524zM150.861 226.229l15.054 2.524-16.878-28.498z"/><path fill="#ffeee9" d="M240.428 221.078l-7.506 16.072 21.978 21.311 7.429-5.045-12.952-24.295z"/><path fill="#efd0cb" d="M249.377 197.54l-16.455 6.276v33.334l16.455-8.029z"/><path fill="#cea39f" d="M249.377 197.54l-16.455 11.79v-5.514l4.58-5.534z"/><path fill="#efd0cb" d="M273.205 263.305l13.296 8.453 6.084-2.341-11.147-14.625-8.233 8.513z"/><path fill="#ffeee9" d="M254.9 258.461l18.305 4.844 8.233-8.513-19.109-1.376z"/><path fill="#edcdc8" d="M262.329 253.416l8.289 12.929-4.193 1.617-11.525-9.501z"/><path fill="#96c066" d="M232.922 203.816l23.918-9.074-20.864-26.803z"/><path fill-rule="evenodd" clip-rule="evenodd" fill="#e2d086" d="M156.077 167.939l13.995-31.379h-15.267z"/><path fill-rule="evenodd" clip-rule="evenodd" fill="#c1b274" d="M216.981 73.665v16.22h4.618l3.718-5.116z"/><path fill="#96c066" d="M211.039 232.824l-45.124-4.071-16.009 29.986 78.945 13.019z"/><path fill="#46ae85" d="M178.224 229.863l4.349 34.263 13.453 2.219-10.922-35.861z"/><path fill="#308b69" d="M178.224 229.863l-28.318 28.876 10.607 1.749 18.892-21.324z"/><path fill-rule="evenodd" clip-rule="evenodd" fill="#35785d" d="M218.152 367.065l3.912 11.364-6.615 15.465.679-15.465z"/><path fill-rule="evenodd" clip-rule="evenodd" fill="#308b69" d="M197.638 375.244l-8.26 18.65h26.071l2.703-26.829z"/><path fill-rule="evenodd" clip-rule="evenodd" fill="#edcdc8" d="M200.07 374.274l-3.96 13.348h14.929l1.673-18.387z"/><path fill="#ffeee9" d="M140.928 258.739l-13.511 13.019 15.472-1.675z"/><path fill="#edcdc8" d="M127.417 271.758V283l11.275-5.088 4.197-7.829z"/></svg>