<svg xmlns="http://www.w3.org/2000/svg" viewBox="0 0 400 400"><g fill-rule="evenodd" clip-rule="evenodd"><path fill="#36785c" d="M135.363 342.064l2.327 7.208 110.667-11.903 34.59 16.668h6.133l-26.746-98.581-8.353-17.604-35.945-16.715-47.739 8.053z"/><path fill="#408f70" d="M287.635 376.026L253.46 248.261l-5.103-19.071 13.977 1.821 3.77 21.505 36.402 96.756z"/><path fill="#54b08a" d="M171.838 226.156l-4.283 8.438-40.859 110.597 8.667 28.352z"/><path opacity=".1" fill="#2b2b2b" d="M207.94 373.868l-95.198 11.598L258.62 400l29.173-18.293z"/><path fill="#edcfcc" d="M142.581 383.022l-7.218-9.479 17.763 1.173.829 1.885z"/><path fill="#faeded" d="M142.581 383.022h31.688l2.959-3.419-9.301-17.597z"/><path fill="#ab998c" d="M170.775 372.517l-8.836 4.451-9.368-2.228 14.851-12.314 5.716 2.969"/><path fill="#edcfcc" d="M174.269 383.022h12.264v-49.171l-12.264-8.796-17.126 6.45z"/><path fill="#738c57" d="M157.143 331.505l14.695-46.143 27.382 7.041 3.415 9.248 3.461 5.998-19.563 26.202z"/><path fill="#faeded" d="M236.854 372.517l-5.075 23.516 14.38-1.571 13.361.895-5.754-23.745-8.117-2.96z"/><path fill="#ab998c" d="M233.58 387.682l9.337 1.698 14.742-1.698-3.893-16.07-10.144-2.96-6.768 3.865z"/><path fill="#8c7d73" d="M244.444 372.517l-9.708 9.826 9.708-3.327 12.087 4.006-2.765-11.41-5.409-.704"/><path fill="#edcfcc" d="M231.779 396.033l27.741-.676-16.603-5.977zM236.854 372.517l16.912-.905-5.409-34.243-18.903-11.337-9.871 14.432z"/><path fill="#5c753d" d="M202.635 301.647l16.948 38.817 28.774-3.095-7.272-55.916-33.62 10.168z"/><path fill="#45612e" d="M171.838 285.362l30.797 16.285 38.45-20.194-26.217-7.232-9.729 8.6-8.246-3.127-8.247 4.105-8.879-2.346z"/><path fill="#709c52" d="M241.085 281.453l2.537-30.891-39.33-10.166-13.53 7.017-4.229 8.043 6.554 2.928 1.692 9.773-3.382 4.496 5.074 1.568.422 5.473 8.246 3.127z"/><path fill="#99c26e" d="M171.838 285.362l-6.025-40.079 6.976-3.518 19.309 4.956.989 11.663 1.692 9.773 1.692 6.064.422 5.473-8.247 4.105z"/><path fill="#45612e" d="M196.471 274.221l-7.825 9.578 16.493-.978z"/><path fill="#d9e057" d="M193.087 258.384l-3.384 6.255 5.076 3.518 4.018-4.593z"/><path fill="#99c26e" d="M161.161 199.141l-17.551-4.691h-10.358v23.851l34.303 16.293 6.081-5.538 1.293-18.281-3.197-6.941z"/><path fill="#9ecf7d" d="M192.098 246.721l-26.285-1.438-4.652-46.142 14.165 6.451 18.924 21.509 2.643 3.323-4.439 3.518v7.823l1.796 1.369z"/><path fill="#709c52" d="M248.985 202.143l32.061 33.168-6.345 14.078-8.597 3.127-21.549-10.393-.933-14.925z"/><path fill="#99c26e" d="M243.622 250.565l-51.524-3.844.354-12.779 1.798-6.841 43.874-24.442 10.861-.516z"/><path fill="#54b08a" d="M161.161 199.143l33.089 27.958.953-6.65-3.105-5.277-2.894-17.467-11.498-3.259z"/><path fill="#408f70" d="M248.985 202.143l-54.735 24.958-2.152-11.927 12.34-14.392 19.095-8.889 6.769 3.923z"/><path fill="#d9e057" d="M192.098 215.174l-2.395 3.519 4.547 8.408 4.547-7.43zM192.454 233.942l-3.808 3.127 3.808 4.696 4.439-3.913z"/><path fill="#99c26e" d="M266.104 252.516l14.942-17.205 14.379 29.718-3.384 11.147-10.572-4.891z"/><path fill="#9c9ea1" d="M303.565 272.01l-3.278 4.166 4.651 5.427 10.665-5.5-4.158-8.068z"/><path fill="#cca39e" d="M292.892 295.119l-3.812.281-8.246-10.95 1.075-1.12 4.483-4.382 5.291 1.951 2.752 8.573z"/><path fill="#fcede8" d="M281.469 271.285l.44 12.045 6.858-.252 11.345.86 3.453-11.928-8.14-6.981z"/><path fill="#edcfc9" d="M288.767 283.078l4.125 12.041 13.976-8.062-3.303-15.047z"/><path fill="#dededb" d="M277.715 284.988l-43.61 19.144-33.981 21.9 48.258-7.913 35.417-25.475-.852-5.612z"/><path fill="#ededeb" d="M280.378 286.026l-2.663-1.038-45.936 17.775-31.655 23.269 80.641-37.208z"/><path fill="#c2c2c2" d="M297.75 300.809l-3.315 6.992-24.206-29.992 4.476-2.432z"/><path fill="#9ecf7d" d="M133.252 218.301l-17.761-35.583 6.343-9.189 8.245 1.172 13.531 19.749z"/><path fill="#cca39e" d="M115.491 182.718l2.325-6.353-2.325-2.836-8.882-3.519-8.458 4.691z"/><path fill="#fcede8" d="M115.491 173.529l-17.34 1.172-1.056-21.898 14.8 6.061 5.921 2.934z"/><path d="M107.955 152.418l-.385 2.421-3.561-.411-2.739-3.35 2.417-2.309 4.268.967v2.682zm-7.476-9.195l-6.345 6.062 7.19 8.798 9.354 1.082 1.008-6.361v-7.037l-11.207-2.544z" fill="#e6e87a"/><path fill="#edcfc9" d="M130.079 174.701l-6.13-12.12-12.263-9.778-3.385 3.13 7.19 9.775V182.718z"/><path fill="#e6e87a" d="M84.397 158.966l7.894-3.056h-7.894zM87.087 140.421l6.404 4.017-2.456-6.655zM105.976 132.861l.77 7.853 3.542-7.853zM122.89 140.421l-7.399 2.802 5.654-5.017z"/><path fill="#8c7d73" d="M233.58 387.682l10.637-2.851 13.442 2.851-14.742 1.698zM152.571 374.74l9.368 2.228-5.29-5.607-4.078 3.379zm7.446-6.174l7.405-6.141-1.116 12.339-6.289-6.198z"/><path fill="#45382e" d="M264.969 180.125l-2.937-18.359-12.587-2.297-6.886 3.826-5.987 5.952-2.239 21.098z"/><path fill="#73665c" d="M262.032 161.766l10.935-10.944v-31.133l-20.871 2.124-10.604 22.951 2.651 9.479z"/><path fill="#45382e" d="M241.492 144.764l-7.647-7.9.545-26.439 15.292-17.343 26.265 9.86-2.98 16.747zM143.772 146.733l-6.985-41.797 15.486-17.712 1.367 11.298 2.095 14.959-7.383 26.397z"/><path fill="#73665c" d="M234.39 110.425l-20.915 3.227L190 97.504V65.881l25.747-6.12 33.935 1.702 26.265 41.479z"/><path fill="#5e5245" d="M153.64 98.522l-16.853 6.414 14.499-25.794 12.85 1.36 5.642 5.101-8.817 14.279z"/><path fill="#8f7d73" d="M190 65.881l59.682-4.418L208.931 55l-20.822 5.442-6.153 2.719z"/><path fill="#5e5245" d="M208.931 55L190 65.881l-13.44 11.901-12.424 2.72-5.561 2.04-7.289-3.4 14.89-19.381z"/><path fill="#edcfc9" d="M234.333 190.345l9.81-23.923-2.651-21.658-7.163-9.227.061-25.112-41.553 24.309-4.903 53.398 4.164 27.042 39.531-18.906z"/><path fill="#cca39e" d="M175.424 182.677l18.724 7.051 14.616 4.526-16.666 20.92-16.971-19.993z"/><path fill="#fcede8" d="M234.39 110.425l-64.612-24.822-16.138 12.919-9.868 48.211 8.819 32.313 41.557 10.682 19.75-16.822z"/><path fill="#edcfc9" d="M177.855 128.526l-2.496-9.516-8.768-3.943-4.799-.804-8.601-.745 12.02 13.196 6.927 16.48 5.913 3.525 3.758 2.781 17.317-14.865 20.441-4.677-10.013-2.759-14.007-3.769-11.264 6.448-4.634 2.731z"/><path fill="#cca39e" d="M169.967 147.09l4.4 5.923 7.442-3.513-3.758-2.781z"/><path fill="#73665c" d="M175.359 119.01l2.557-5.101-18.722-1.798-5.391-1.034-.612 2.441 5.523 2.533zM197.756 118.598l-2.209 4.832 15.326 4.883 8.694 1.645 1.41-2.725z"/><path fill="#fff5f2" d="M177.855 128.526l-3.862 11.339-4.026 7.225 11.842 2.41-.049-7.25 2.523-12.372z"/><path fill="#cca39e" d="M183.703 167.422l-17.452-5.544.674-3.359 17.763 5.395z"/><path fill="#5e5245" d="M241.492 144.764l-3.742 37.255 24.282-20.253z"/><path fill="#8f7d73" d="M190 65.881l-38.714 13.261 29.332 27.74 20.767 4.967.7-13.836z"/><path d="M166.04 121.18c2.398 0 4.345 1.946 4.345 4.347 0 2.398-1.947 4.345-4.345 4.345s-4.345-1.946-4.345-4.345c-.001-2.401 1.946-4.347 4.345-4.347" fill="#2b2b2b"/><path fill="#fcede8" d="M232.109 160.648l7.51 2.745 1.873-18.629z"/><path fill="#cca39e" d="M238.434 175.198l-6.325-14.55 7.51 2.745z"/><path fill="#5e5245" d="M234.39 110.425l-7.232 47.617 4.951 2.606 9.383-15.884z"/><path fill="#45382e" d="M225.183 127.154l9.207-16.729-17.966-17.57-14.339 5.158z"/><path fill="#5e5245" d="M225.586 63.246l8.804 47.179-32.305-12.412L190 65.881z"/><path d="M198.147 129.194c2.399 0 4.345 1.946 4.345 4.347 0 2.399-1.946 4.345-4.345 4.345-2.4 0-4.345-1.946-4.345-4.345 0-2.4 1.945-4.347 4.345-4.347" fill="#2b2b2b"/></g></svg>