<svg xmlns="http://www.w3.org/2000/svg" viewBox="0 0 400 400"><path fill="#35785d" d="M203.549 307.769l4.004 32.35-14.522 2.725-22.56-15.508-24.483-57.886 17-18.697z"/><path fill="#306d53" d="M170.471 327.336l33.931 11.885 6.637 10.033v19.036h-14.991l-12.042-8.953z"/><path opacity=".1" fill="#2b2b2b" d="M107.26 383.102l103.779-11.71 81.246 13.772L203.24 400z"/><path fill="#686868" d="M184.006 359.337l-22.945 18.253 23.891 3.102 24.799-3.102 1.288-9.3z"/><path fill="#4f5253" d="M161.061 377.59h48.691v6.889h-48.691z"/><path fill="#cea39f" d="M119.615 169.036l2.318-22.569-15.231 3.111 2.583 13.175z"/><path fill="#5a753d" d="M161.962 148.258l-36.166 47.047 19.064 21.267 12.968-32.666z"/><path fill="#54b08b" d="M198.126 311.73l6.276 27.491 21.176 13.365 19.123-1.289 11.14-63.099.447-5.4-23.39-9.146z"/><path fill="#3f8f6f" d="M159.423 265.581l38.703 46.149 20.397-16.637 8.684-13.382-8.071-19.923-60.281-5.869z"/><path fill="#dbdbdb" d="M184.952 140.509v28.587l12.14 33.709 24.799-25.228 16.789-31.902z"/><path fill="#4f5253" d="M194.574 154.458l6.907 15.241-9.548 11.882 5.159 21.224 14.724-16.248-6.822-16.555 10.925-9.326-6.426-14.486z"/><path fill="#fff" d="M183.252 139.925l4.283 23.317 20.924-14.984 13.473 25.512 19.065-28.292-33.935-4.969z"/><path fill="#ffeee9" d="M158.823 21.099l-22.213 87.176 46.642 28.316 25.265 8.329 26.923-2.776 34.43-59.133-13.882-14.437-9.991-49.974-56.082-3.054-10.549-3.945z"/><path fill="#efd0cb" d="M245.997 18.6L202.57 126.32l-65.96-18.045 49.976 28.316 21.931 11.663 32.48-2.776 11.476-21.517.551-9.925 7.026-4.281 14.265-26.744-13.881-14.437z"/><path fill="#efd0cb" d="M209.906 55.525l-35.398 21.1-15.964-34.704 9.994-4.999 9.289 6.157 3.483 2.59 5.83-.139 12.494-.556z"/><path fill="#fff5f3" d="M187.14 45.53l-8.144 13.973-4.488 17.122-9.62-2.406 5.137-17.446 7.802-13.694z"/><path fill="#cea39f" d="M174.508 76.625l-5.507 3.794-4.113-6.2z"/><path fill="#efd0cb" d="M197.411 105.501l-.319-20.631-22.584-8.245 15.967 10.986zM185.057 122.851l2.498-9.717-26.375 6.802-14.16-16.658-1.804 8.884 21.17 11.799z"/><path fill="#cea39f" d="M192.174 91.882l-24.608-.818-12.077-6.525-1.388 5.831 12.285 5.205h27.208z"/><circle cx="194.681" cy="55.989" r="3.193" fill="#2b2b2b"/><circle cx="165.998" cy="47.151" r="3.193" fill="#2b2b2b"/><path fill="#8f8f8f" d="M209.906 55.525l-4.859-11.382-15.131-4.998-2.776 6.385 11.383.555zM177.827 43.079l2.65-6.294-12.98-3.332-8.953 8.468 9.994-2.776z"/><path fill="#adadad" d="M189.776 19.71l25.126-3.331 21.226-3.218-10.312-5.682L203.24.831l-9.646 9.44z"/><path fill="#cececd" d="M189.776 19.71l-10.41-8.109L203.24.831zM214.902 16.379l10.914-8.9 27.399 8.067-1.943 4.164-5.275-1.11z"/><path fill="#a3a3a3" d="M245.997 18.6v22.256l3.054 14.669-3.054 11.383-6.941 19.434 10.273 1.492 8.606-13.615 16.38 8.792 1.258-11.923-5.703-6.956 6.888-4.28 2.003-18.995-25.546-25.311z"/><path fill="#c4c4c4" d="M245.997 40.857l30.761 18.995-1.185 11.236-29.576-4.18z"/><path fill="#cea39f" d="M260.051 109.755l-14.054-5.644 6.476 19.85zM253.024 98.003l7.027-14.576 6.768 3.193zM202.57 126.32l5.947 21.934-25.265-8.329-46.642-31.65z"/><path fill="#737373" d="M183.252 139.925L152.655 259.36l31.77 14.815 12.667-41.663v-31.775z"/><path fill="#636363" d="M184.425 274.175l12.667-73.438 43.905-55.259-16.006 128.713z"/><path fill="#709d53" d="M240.997 145.478l34.058 18.278-26.47 108.367-15.687 1.529-6.341 20.626-29.465 2.988 13.003-48.407 22.129-54.665z"/><path fill="#99c26d" d="M240.997 145.478l8.873 42.191-32.068 32.444z"/><path fill="#35785d" d="M203.611 244.669l33.866-61.506 67.168 49.468-33.672 55.567z"/><path fill="#cecece" d="M237.855 188.423l-3.389-1.924 2.27-7.617 62.987 42.139 4.922 11.61z"/><path fill="#fff" d="M236.736 178.882l-32.792 53.907-.333 11.88 34.244-56.246z"/><path fill="#b8c745" d="M244.829 238.743l-3.694-.333-2.077-9.509 3.515 3.898 3.91-.19-.647-2.998-2.502-1.541 5.087-1.054 3.951 1.35 2.68-8.016 2.563 4.575 12.022-7.582-3.228 10.191 4.57 1.347-5.639 5.813 7.285 1.758-7.694 1.744 3.087 1.756-.298 4.726 1.311 3.454-3.913-3.036-.786-2.216-2.028 1.109 1.332 3.515 1.957.628-2.828 1.658-3.217-1.981-1.703 1.842-.809 5.845-3.187-5.029-2.043 6.726-2.206-5.097-8.327 1.839 3.427-6.037-5.035-3.033 5.44-2.422z"/><path fill="#e8f078" d="M262.534 226.829l-1.257 15.218-13.114 7.448.75-15.063z"/><path fill="#5a753d" d="M258.567 234.514l.254 6.02-4.743 2.557-2.708-7.146z"/><path fill="none" stroke="#b8c745" stroke-miterlimit="10" d="M219.61 237.401l19.961-32.391M226.557 236.199l14.794-24.088"/><path fill="#709d53" d="M144.86 216.572l-25.245-47.536h-12.913l-7.064 6.629 11.344 54.13z"/><path fill="#efd0cb" d="M154.101 90.37l-17.491 17.905 2.499-15.27z"/><path fill="#3f8f6f" d="M155.489 84.539l-18.994 5.465-8.914 23.419-4.864 20.213 7.234-.074 6.064-17.547 5.471-20.877 12.615-4.768z"/><path fill="#99c26d" d="M127.581 113.423l-8.747 22.98 11.117 2.756 6.064-23.144z"/><path fill="#54b08b" d="M126.848 139.159l-12.398-16.575-7.748-1.162-9.816 4.132v21.699l16.532 6.974z"/><path fill="#3f8f6f" d="M116.518 121.55l-8.525 2.066v4.263l5.425 26.348 16.533-15.068z"/><path fill="#636363" d="M116.518 121.55l-8.525 6.329-11.107-2.325 9.816-6.2z"/><path fill="#efd0cb" d="M119.615 169.036l-5.164-6.283-12.657-8.526-12.658-1.193 10.502 22.631z"/><path fill="#ffeee9" d="M96.886 131.754l-7.75 21.28 25.315 9.719-1.033-8.526z"/><path opacity=".2" fill="#2b2b2b" d="M183.252 139.925l-10.689 141.324-12.666 21.087-3.856-9.117 1.787-61.661z"/><path fill="#709d53" d="M183.252 139.925l-13.709 39.846-1.082 44.779-12.42 68.669-26.634-14.916 32.555-130.045z"/><path fill="#99c26d" d="M183.252 139.925l-27.676 33.845 8.452 6.692-9.988 10.677 14.422 33.411z"/><path opacity=".2" fill="#2b2b2b" d="M197.092 297.266l1.034 14.464 33.303-13.908 1.469-24.17-6.341 20.626zM232.898 273.652l-25.957-13.051 3.154-11.742 30.426 19.662zM260.15 281.204l2.384-17.292 36.341-35.101-4.449 20.684-23.453 38.703z"/><path fill="#5a753d" d="M249.87 187.669l12.664 39.16 15.906 3.962 20.435-1.98-23.82-65.055z"/><path fill="#709d53" d="M262.534 226.829l-19.141 37.083 8.271 11.792 11.983-1.529 35.228-45.364z"/><path fill="#efd0cb" d="M243.393 263.912l-10.495 9.74 22.943 14.546 7.806-14.023z"/><path fill="#3f8f6f" d="M204.402 339.221l40.299 12.076-3.851 24.591-15.272.285-14.539-7.883z"/><path fill="#7f7f7f" d="M211.039 368.29l-7.49 16.188 16.276 2.068 22.051-2.068-1.026-8.59z"/><path fill="#686868" d="M203.549 384.478h38.327v7.577h-38.327z"/><path fill="#efd0cb" d="M194.681 64.6l9.56 4.733-9.646 1.755zM164.209 54.237l-10.17 1.288 4.816 5.808zM164.888 74.219l-9.399 10.32 1.841-8.915z"/></svg>