<svg xmlns="http://www.w3.org/2000/svg" viewBox="0 0 400 400"><path fill="#5f5044" d="M146.919 129.731l23.477 39.324-5.69 11.257-48.432-48.214z"/><path fill="#54463e" d="M170.396 169.055l-54.122-36.957 50.185 61.484z"/><path fill="#feeee9" d="M245.871 162.148l36.445 48.813-8.246 18.01-8.263 3.214-10.425-15.652-15.483-9.816-5.445-18.57z"/><path fill="#4fa9aa" d="M170.396 169.055l-13.4 37.662 47.753 7.428 35.15-7.428 5.972-44.569z"/><path fill="#feeee9" d="M170.396 169.055l20.518 37.662 30.925-25.428.5-38.339-35.505 8.286z"/><path fill="#efd0cb" d="M170.396 169.055l22.619 5.159 3.16-10.945-11.796-10.297z"/><path fill="#46382d" d="M146.919 129.731l23.477 39.324 13.983-10.431-5.936-31.567z"/><path fill="#46382d" d="M147.478 58.81l-27.493 27.828-3.711 45.46 30.645-2.367zM225.493 37.145l32.834 44.294 1.953 52.074-10.64 20.935-29.302 4.979-16.758-53.388z"/><path fill="#423226" d="M235.069 91.936l10.211-15.304L230.633 31.7l-8.294 8.437z"/><path fill="#66574d" d="M254.709 104.899l-15.47 28.045-18.901 26.483 28.255-5.748 14.208-12.908-3.89-29.901z"/><path fill="#46382d" d="M262.801 140.771l-16.93 21.377-12.766 3.049-12.767-5.77z"/><path fill="#54463e" d="M218.389 38.448l17.733-3.217 14.85 16.381 15.752 22.96-3.923 66.199-20.231-63.06-11.389-21.878zM140.23 55.833l-4.028 16.934-19.928 59.331-1.559-52.327z"/><path fill="#74cfe4" d="M132.262 109.595l14.231 8.356-4.696-15.444h-8.601zM245.28 96.645l-11.84 11.636.369-15.586 7.184-.759z"/><path fill="#efd0cb" d="M141.797 102.507l-9.535 7.088-1.571-17.689 9.922-4.428z"/><path fill="#5f5044" d="M245.871 162.148l-24.032 19.141-1.501-21.862z"/><path fill="#efd0cb" d="M233.809 92.695l11.471 3.95-2.71-18.934-11.024-1.079z"/><path opacity=".1" fill="#2b2b2b" d="M107.089 383.822l101.744-16.269 91.883 16.979L207.342 400z"/><path fill="#efd0cb" d="M166.988 220.634l-9.585 35.819 5.178 5.896 7.259 1.139 10.075-20.305z"/><path fill="#5ec0d9" d="M157.403 256.453l12.437 7.035-2.166 4.366-10.271-2.277-1.306-4.246z"/><path fill="#feeee9" d="M167.674 267.854l-2.372 8.125-5.396 2.361-5.406-2.361-4.182-2.678-19.212 2.141-3.161-2.524 28.152-11.587z"/><path fill="#efd0cb" d="M165.302 275.979l-9.205 11.961-2.574-1.442.977-10.519z"/><path fill="#5ec0d9" d="M167.14 366.941l-19.882 18.048h28.973l14.995-8.169z"/><path fill="#318fa6" d="M255.401 367.471l-4.04 23.877h-5.269l-2.108-9.747 1.756-17.667z"/><path fill="#5ec0d9" d="M224.326 378.516l-6.557 12.832h21.297l10.89-21.582z"/><path fill="#cea39f" d="M172.013 140.136l21.002 34.078 27.323-14.787L218 132.098l-34.003 2.654z"/><path fill="#feeee9" d="M136.202 72.767l10.717 56.964 26.687 13.219 37.024-4.181 25.083-20.818-4.532-62.118-47.326-35.913z"/><path fill="#cea39f" d="M231.181 55.833l-37.734-22.76-6.235 12.95-51.01 26.744-1.018-7.516 48.499-41.646 38.656 16.532z"/><path fill="#66574d" d="M184.379 8.743L218 5.604l32.972 46.008-70.797-28.007z"/><path fill="#66574d" d="M184.379 8.743l-1.47 31.394-68.194 39.634v-14.52l42.022-56.195z"/><path fill="#efd0cb" d="M215.845 63.093l-23.153 30.78-11.716 1.202-27.67-23.937 9.548-6.671 13.251-1.374 4.07 1.962 7.546-.588 3.193-2.649 13.835-1.472z"/><path fill="#fff5f3" d="M187.721 64.467l.855 16.968 4.116 12.438-11.716 1.202 1.933-13.048-2.734-16.972z"/><path fill="#594a43" d="M215.845 63.093l-10.219-7.26-14.712 5.985 13.835-1.472zM176.105 63.093l-15.491-2.747-7.308 10.792 9.548-6.671z"/><ellipse cx="206.284" cy="75.773" rx="4.818" ry="4.851" fill="#2b2b2b"/><ellipse cx="164.706" cy="80.409" rx="4.818" ry="4.851" fill="#2b2b2b"/><path fill="#cea39f" d="M192.692 93.873l-4.971 6.877-6.745-5.675z"/><path fill="#4fa9aa" d="M218.389 105.131l-18.123 19.16-19.29 1.785-22.214-14.912z"/><path fill="#1e7678" d="M158.762 111.164l28.959-7.652 30.668 1.619-29.813 5.098z"/><path fill="#fff" d="M167.857 110.879l41.776-4.251-10.616 13.783-18.041 1.741z"/><path fill="#efd0cb" d="M174.156 96.645l-15.394 9.983 6.09-9.316zM202.291 92.695l11.373 1.178 3.335 8.055z"/><path fill="#1e7678" d="M156.996 206.717l24.941 43.507 25.831 2.123 28.583-16.979 3.548-28.651z"/><path fill="#4fa9aa" d="M181.937 250.224l-9.001 53.949 33.46 15.386h32.986l3.686-8.92.695-12.663 14.754-23.345-22.166-39.263z"/><path fill="#359496" d="M172.936 304.173l46.809 31.304 35.656 31.994-56.65 23.877-18.877-43.508z"/><path fill="#1e7678" d="M172.936 304.173l66.446 15.386 16.019 47.912z"/><path fill="#359496" d="M218.167 287.011l24.901 23.628 15.449-36.008z"/><path fill="#efd0cb" d="M255.382 216.533l18.688 12.438-11.25 26.377-8.639 2.415-5.263-7.013z"/><path fill="#1e7678" d="M198.751 391.348l-31.611-24.407 5.796-62.768z"/><path fill="#5ec0d9" d="M248.918 250.75l13.902 4.598-1.888 4.427-12.987-3.872z"/><path fill="#efd0cb" d="M247.945 255.903l-6.673 1.571-4.381 3.281 8.98 5.794z"/><path fill="#74cfe4" d="M224.481 265.279l23.522 1.128 27.99 13.353-6.234 22.107-51.592-14.856z"/><path fill="#3aa0ba" d="M224.481 265.279l51.512 14.481 1.845-6.544-51.141-15.564z"/><path opacity=".2" fill="#2b2b2b" d="M236.891 260.755l3.008 8.859-2.107 19.873 13.367 2.293 2.023-4.713-9.328-24.193z"/><path fill="#feeee9" d="M247.945 255.903l-8.046 13.711 10.027 5.637h10.027l.979-15.476z"/><path fill="#efd0cb" d="M239.899 269.614l3.125 17.453h10.158l6.771-11.816z"/><path fill="#8e7e73" d="M218 5.604l-34.317 18.001.696-14.862zM184.379 8.743l-69.664 56.508L156.424.502z"/></svg>