<svg xmlns="http://www.w3.org/2000/svg" viewBox="0 0 400 400"><g fill-rule="evenodd" clip-rule="evenodd"><path fill="#9ea1a3" d="M95.568 354.654l-19.004-2.233 21.242-17.892 29.073 2.234 12.301-6.705 24.595-14.536 14.538-26.838 45.848 24.601 67.089 45.841-46.968 1.119-127.468-2.234z"/><path fill="#8c9191" d="M95.568 354.654l-19.004-2.233 21.242-17.892 29.073 2.234zM234.219 318.871l57.031 40.255-70.446-34.664z"/><path fill="#ededeb" d="M116.814 284.212l-41.369 26.835 7.826 7.824-13.417 13.42 31.305-1.119 22.365-24.597 3.355-16.772z"/><path fill="#c4c4c4" d="M125.76 297.632l1.119-7.829-4.474-2.235-6.708 4.472 5.591 7.825z"/><path fill="#dededb" d="M69.854 332.291l-3.355 12.301 10.065 7.829 50.315-15.658 5.591-19.01-8.946-11.178-30.192 11.178z"/><path fill="#c4c4c4" d="M75.445 311.047l-4.472 16.772-1.119 4.472 23.478-14.538v-8.939zM310.252 283.093L331.5 298.75l-6.708 20.121-17.892 22.368-14.539-3.357z"/><path fill="#ededeb" d="M200.678 264.082l25.712 4.477 43.612-8.949 17.891 20.13 22.359 3.353 8.949 21.248-7.829 13.412-73.8 2.237-46.96-32.422-1.117-17.895z"/><path fill="#dededb" d="M311.372 317.753l-4.472 23.486-118.524-23.486-3.353-17.888 6.708-5.591-1.119-6.706 24.601 5.587z"/><path fill="#73cccc" d="M281.184 289.803l-5.591 6.71 1.118 3.352 6.71 4.476 8.94 1.115 7.829-3.353 1.119-6.709-3.353-5.591-7.825-2.235z"/><path fill="#ebebeb" d="M282.302 292.04l6.71-2.237 5.587 1.119 4.472 4.472v2.238l-3.353 4.471-8.939 1.119-3.358-2.238-3.356-5.59z"/><path fill="#8ce0db" d="M284.537 292.04l4.475-1.118 4.468 1.118 3.357 3.354v3.356l-2.238 2.234-4.468 1.119-4.471-1.119-2.239-5.59z"/><path fill="#ebebeb" d="M285.66 294.274l4.471-2.234 3.349 2.234 2.238 3.358-1.119 2.233h-4.468l-3.352-2.233z"/><path fill="#73cccc" d="M289.012 295.394l2.238-1.12 2.23 1.12-1.119 2.238-1.111 1.118-2.238-1.118-1.119-1.119zM287.893 284.212l1.119-1.119 1.119 1.119v2.238h-2.238l-1.114-1.119zM293.48 284.212h3.357l-1.119 2.238h-2.238v-1.119zM299.071 286.45h1.119l1.119 1.118v1.116l-1.119 1.119-1.119-1.119-1.115-1.116zM273.359 302.103h2.234v2.238h-2.234v-1.119zM278.95 305.456h1.115l1.119 1.119v1.119h-2.234l-1.119-1.119zM285.66 307.694l1.119-1.119 1.114 1.119v1.12l-1.114 1.118-1.119-1.118zM292.361 307.694l2.238-1.119 1.119 1.119-1.119 1.12v1.118l-2.238-1.118z"/><path fill="#dededb" d="M202.913 269.673l7.828 2.238-2.238 6.71-7.825-2.238zM216.331 273.03l7.83 1.116-2.239 7.828-8.947-2.234z"/><path fill="#c4c4c4" d="M231.985 276.383H240.929l-4.471 7.829-7.83-2.238zM245.401 278.621l7.829 1.119-3.354 7.828-7.828-2.237zM258.821 280.854l7.828 2.239-3.356 7.829-7.826-2.238z"/><path fill="#dededb" d="M285.66 208.179l-59.27 60.38 46.969 7.824 34.66-40.25 7.828-15.658-22.367-1.115z"/><path fill="#cfcfcc" d="M273.359 276.383l14.534 3.357 20.126-43.607h-12.301z"/><path d="M95.568 354.654l49.699 9.904 26.336 5.753 22.363-1.119 25.718-1.118 71.565-8.948-70.446-20.125c-1.136-.232-43.976-5.745-45.844-5.591l-79.391 21.244z" fill="#c4c4c4"/><path opacity=".102" fill="#2b2b2b" d="M93.332 390.433l78.272-20.122 20.281-1.016 83.708 15.552L198.44 400.5z"/><path fill="#175e61" d="M136.942 249.548l-10.063 17.891 23.482 22.364 27.952 10.062 24.6-14.534 7.828-19.011 1.119-21.244z"/><path fill="#1c7578" d="M139.18 330.058l-12.301-62.619 51.434 32.426-3.353 33.545-19.008 32.43z"/><path fill="#175e61" d="M145.267 364.559l-6.087-34.501 35.78 3.352-3.356 36.901-15.652 5.591z"/><path fill="#1c7578" d="M178.313 299.865l24.6-23.482 10.062-14.534 10.067 25.719-2.238 51.433-16.772 19.01-19.19-23.579z"/><path fill="#175e61" d="M196.205 374.783l-4.798-5.591-6.565-34.76 35.962 4.569-1.119 35.782-5.587 6.71z"/><path fill="#1a6b6b" d="M218.57 277.502l4.472 10.066-1.12 14.535-14.534-5.59-4.475-7.829v-12.301z"/><path fill="#8ce0db" d="M219.685 375.341l-28.278-6.149-8.606 19.666 12.297 3.691 24.587-3.691z"/><path fill="#1c7578" d="M182.801 388.858h36.884v5.161h-36.884z"/><path fill="#8ce0db" d="M171.604 370.311l1.118 15.65-34.661 2.238-19.566-2.238 26.772-21.402z"/><path fill="#1c7578" d="M118.495 385.961h54.228v4.472h-54.228z"/><path fill="#f0d1cc" d="M223.644 105.146l-7.934 39.79-3.174 8.801-40.932 19.78-6.128-33.685 15.226-44.296 15.97-46.706 19.445-1.354 3.027 22.588z"/><path fill="#cfa39e" d="M146.557 138.533l10.113 32.884 6.326 5.06 6.323 8.852 2.529-6.323 15.411-17.792 10.478-21.36h-8.861z"/><path fill="#4fa8ab" d="M103.395 165.688l23.81-4.643 7.501 24.768-8.746 16.38-53.87-17.499 10.063-16.768z"/><path fill="#cfcfcc" d="M157.067 161.216l14.537 12.301 15.655-12.301h15.654l4.475 95.038-4.475 21.248-9.156 7.621-23.273-25.513-20.123 12.301-5.591-6.71 3.356-92.804z"/><path fill="#4f5254" d="M152.597 170.16l8.942 7.828 7.829 1.119h12.3l19.01-8.947-7.826-5.589-13.42 8.946h-15.657l-6.708-12.301z"/><path fill="#707073" d="M174.96 191.404l7.827-12.299-3.357-5.588h-15.655l-2.236 4.471 3.355 12.297 4.474 6.71z"/><path fill="#4f5254" d="M158.184 239.489l6.71-49.204 10.066 1.119 10.063 48.085-14.537 12.293z"/><path fill="#369496" d="M220.799 155.971l14.682 8.791 2.091 65.78-25.712 17.891-15.655-10.067 1.117-22.363 7.882-37.313z"/><path fill="#308587" d="M236.458 250.663l-1.12 27.958-32.425-2.238-6.708-38.017 31.304-7.824z"/><path fill="#4fa8ab" d="M217.451 177.988l3.348-22.017-21.242 19.781-2.235 40.251 20.129-27.954-7.828-6.706z"/><path fill="#369496" d="M127.205 161.045l13.093-2.067 15.654 59.263 2.232 21.248-21.242 20.121-7.827-23.477-3.155-33.94z"/><path fill="#308587" d="M158.184 239.489l-7.823 43.604-33.547-6.71 12.301-40.25z"/><path fill="#4fa8ab" d="M135.825 177.988l4.471-19.01 11.184 19.01 4.472 40.253-19.01-24.601 7.828-8.946z"/><path fill="#b39494" d="M136.942 216.003l5.593-3.353 4.471 3.353-4.471 3.357z"/><path fill="#73cccc" d="M77.359 133.646l-5.269 51.048 30.955 10.057-1.599-40.049-10.201-18.368-3.65-4.236z"/><path fill="#66b8b8" d="M77.357 133.646l6.474 16.905 18.097 15.672-.482-11.521-12.142-21.859-4.342-5.044z"/><path fill="#4fa8ab" d="M136.942 226.07v-10.067l5.593 3.357z"/><path fill="#b39494" d="M206.269 218.241l-3.356 6.71 4.475 2.234 5.046 1.111 2.779-4.464 3.357-6.71-4.472-3.352-3.357 4.471z"/><path fill="#cfa39e" d="M107.714 128.935l4.429 6.372-10.697 19.395.075-18.679z"/><path fill="#4fa8ab" d="M210.741 233.895l-3.353-6.71 7.825-3.353 2.238 3.353z"/><path fill="#1c7578" d="M98.274 48.212L92.02 93.984l2.923 3.805 5.044-4.342 4.673-45.425z"/><path fill="#5ebfd9" d="M92.02 93.984L81.341 133.38l11.155 7.253 4.773-8.327 9.55-16.648 1.135-22.746z"/><path fill="#1c7578" d="M83.831 150.551l-2.49-17.171 15.928-1.074 4.252 3.717-.075 18.679z"/><path fill="#3ba1ba" d="M113.102 109.898l-11.656 44.804-4.177-22.396 10.685-39.394z"/><path fill="#ffede8" d="M89.902 102.13l13.656 6.989-4.533 16.715-17.682 7.546.431-13.369z"/><path fill="#f0d1cc" d="M77.433 114.97l12.469-12.84-4.238 16.286-4.321 14.964-3.986.268z"/><path fill="#ededeb" d="M140.298 158.978l11.182 19.01 5.587-16.772-7.005-11.285zM187.259 161.214l12.3 14.538 21.24-19.781-5.089-11.035z"/><path d="M103.954 139.357l-2.789-8.646 4.238-16.293 3.207 4.614-4.656 20.325zm3.298-37.062l3.281 9.11-.968 5.4c-1.507-2.566-3.013-5.133-4.431-6.37l2.118-8.14z" fill="#5ebfd9"/><path fill="#4fa8ab" d="M219.685 261.849l8.943-35.779 33.932 5.64-24.988 44.673h-12.296z"/><path fill="#ffede8" d="M237.572 276.383l-8.944 14.539-15.653-2.238-5.587-8.944 1.115-7.829 12.301-11.182z"/><path fill="#cfa39e" d="M209.623 266.32l11.181-5.591-13.416 19.011-4.475-3.357z"/><path fill="#f0d1cc" d="M228.628 290.922l-13.415 4.472-12.3-6.71 4.475-8.944z"/><path fill="#73cccc" d="M235.481 164.762l27.079 66.948-35.051-1.168z"/><path fill="#175e61" d="M150.361 283.093l-19.01 5.591-2.236-10.063z"/><path fill="#ffede8" d="M111.846 56.042l2.389 46.627 22.066 28.675 37.646-4.521 21.712-26.876v-6.653l1.74-35.583-3.072-37.586h-78.491z"/><path fill="#382e26" d="M112.029 61.511l2.476-33.402 2.124-5.485-6.113-3.829z"/><path fill="#e6d6d1" d="M129.007 139.854h49.135l17.517-39.907-81.422 2.722z"/><path fill="#45382e" d="M114.505 28.107l-3.989-9.312 74.499-10.643 25.279 3.992-15.967 11.973-5.321 2.661z"/><path fill="#382e26" d="M197.399 57.711l-8.393-16.302V26.778l9.312-10.644 9.314 23.942z"/><path fill="#382e26" d="M234.24 25.448l-7.98 27.933-28.861 4.33.919-22.955V16.134l22.616-2.659z"/><path fill="#45382e" d="M207.632 1.5l26.608 23.948-18.624-5.323-17.298-3.991-5.322-13.304z"/><path fill="#382e26" d="M110.516 18.795l22.615-9.312L207.632 1.5l-9.314 14.634z"/><path fill="#45382e" d="M133.131 2.83l-22.615 15.965L207.632 1.5z"/><path fill="#cfa39e" d="M210.025 92.646l13.619 12.5 1.97-9.87z"/><path fill="#d6bab8" d="M178.142 139.854h19.595l12.292-47.208-6.812-3.862-7.751 11.171z"/><path fill="#cfa39e" d="M136.659 111.926l1.281 2.564 23.078-1.005v-2.564z"/><path fill="#f0d1cc" d="M135.214 62.109l7.693 5.127 2.563 3.846 5.129-5.127 4.914-3.935 18.298-2.641 6.268 5.294-12.819 5.129-14.879 23.85-5.629.507-5.635-5.774-12.313-21.149-12.82-3.847 2.798-3.206 6.177-.639z"/><path fill="#45382e" d="M115.984 59.544v3.847l4.488-1.922 14.742.64V56.98l-14.764.363zM157.006 56.98l-1.493 5.04 19.934.399 4.632 2.254 1.282-3.845-5.613-2.669z"/><path fill="#fff5f2" d="M142.907 65.955l-2.216 27.773 11.69-.076-1.782-27.697z"/><path fill="#cfa39e" d="M146.726 99.949l-6.035-6.221 11.69-.076z"/><path fill="#f0d1cc" d="M189.053 71.082l-11.539 12.821 6.41-1.284-8.974 11.54 10.256-6.411 1.282 5.129 7.692-14.103-5.127 2.563 3.845-11.535zM126.24 82.619l-8.974 16.667 3.847-3.845v3.845l7.691-10.256-3.845-1.282z"/><path d="M133.857 68.518c0-2.124-1.721-3.845-3.845-3.845s-3.845 1.721-3.845 3.845 1.721 3.845 3.845 3.845 3.845-1.721 3.845-3.845M168.232 68.518c0-2.124-1.723-3.845-3.845-3.845-2.124 0-3.847 1.721-3.847 3.845s1.723 3.845 3.847 3.845c2.122 0 3.845-1.721 3.845-3.845" fill="#2b2b2b"/><path fill="#45382e" d="M204.971 72.007l-1.75 16.777 6.808 3.862 3.292-29.216-5.689-.737z"/><path fill="#45382e" d="M197.399 57.711l7.572 14.296 8.35-8.577 10.274 5.918 7.984-3.992 2.661-39.908z"/><path fill="#ffede8" d="M213.321 63.43l18.258 1.926-5.965 29.92-15.585-2.63z"/><path fill="#cfa39e" d="M216.173 81.633l1.14-11.727 7.804.671z"/><path fill="#f0d1cc" d="M147.13 49.125l-3.477 6.397 4.456 6.494z"/></g></svg>