<svg xmlns="http://www.w3.org/2000/svg" viewBox="-106.937 -76.4 400 400"><path fill="#3aa0ba" d="M72.434 151.777l13.315-29.161 4.595.657 3.469 44.163 17.441 25.693 3.469 9.751-15.191-.937z"/><path fill="#318fa6" d="M-9.705 216.476l6.564-31.036 26.161-24.473 4.5 4.032 3.282 10.595-23.348 54.384z"/><path fill="#2b2b2b" fill-opacity=".102" d="M-56.494 305.085l103.705 17.16 81.389-12.846-10.783-10.503-14.533-3.094-46.32-5.25z"/><path fill="#46382d" d="M35.584 88.766l-3.751-3.376-1.874-5.438 3.563-13.503 4.126-4.126 4.688 4.126 8.345 16.598-3.188 3.657zM84.53 54.823L70.653 75.17l1.969 7.221 6 8.72 15.285.842 3-4.031-.373-21.942-4.315-11.438z"/><path fill="#5e5044" d="M100.846 101.05l-7.314-8.439-1.313-38.069 6.658 1.125 18.378 34.224.187 12.752-4.594 2.064zM25.269 62.698l-10.407 4.501L4.453 81.171v8.345l6.377 2.437 16.223-1.687 4.78-4.876 5.815-23.067-3.657-2.718-8.439-.375z"/><path fill="#72cbcc" d="M53.493 299.085l7.97 17.534 3.19-17.066-4.221-17.441z"/><path fill="#c6a5a1" d="M4.453 89.516l2.439 30.661 5.72-2.906 12.565-28.13-2.064-2.437z"/><path fill="#a0847d" d="M6.892 120.177l5.345 3.657 13.502 33.101-1.125 8.064-5.439-.375-7.97-12.941-2.344-7.594z"/><path fill="#5ec0d9" d="M113.692 3.064l1.594-10.783 13.127 2.437 8.72 3.564.469 4.875-8.345 41.54-2.813-.189z"/><path fill="#318fa6" d="M110.503 124.21l1.126 6.844 53.916-24.94-10.127-5.721-25.786-.937-12.19 3.187-3.844 4.502z"/><path fill="#c6a5a1" d="M85.749 122.616l.376 7.126.936 39.945 6.846-2.157 10.971-10.033 2.343-4.407 10.221-50.447-14.158-6.375-5.533.468z"/><path fill="#318fa6" d="M168.263 303.117l-39.663 6.282-4.969-10.689 3.188-35.82 4.97-3.844zM101.314 196.691l13.128 6.002-1.594 9.188-33.851 64.512-5.155 3.563-.845-5.908 24.285-76.512z"/><path fill="#3aa0ba" d="M128.6 309.399l-54.758-29.443 40.6-77.263 6.001 13.127 14.347-3.281zM-2.672 277.612l5.532 11.533 4.782 1.219 52.79-8.252 3.001-4.125-.187-6.096-32.819-29.816-4.032.186z"/><path fill="#318fa6" d="M27.99 240.294l.655 3.937 31.506 27.942 3.095-2.999-.938-67.231-5.252 3.093z"/><path fill="#3aa0ba" d="M-20.676 200.723l4.783 75.482 4.593-1.124 21.38-47.164-3.563-3.19-12.377-10.97-5.532-9.565z"/><path fill="#8ce0dc" d="M92.688 315.024l-31.225 1.595 6.471-14.722 11.814-5.157z"/><path fill="#e2c8c5" d="M60.432 282.112l1.031 34.507 18.285-19.879-5.906-16.784-1.876-2.344-8.533.375z"/><path fill="#c6a5a1" d="M87.906 237.386l-11.158 33.663-3.751 2.999-9.658.188-3.188-2.063-.656-32.537 3.282-4.125 22.128-1.314z"/><path fill="#8ce0dc" d="M60.151 272.173l16.597-1.124-2.906 8.907-13.41 2.156z"/><path fill="#e2c8c5" d="M59.495 239.636l28.411-2.25 13.408-40.695-20.533-38.819-7.503 8.439-13.408 32.35z"/><path fill="#8ce0dc" d="M-36.24 308.461l25.973 2.251-4.782-13.597-8.345-3.563zM-1.266 300.491l3.751 9.376 5.157-19.503-4.782-1.219z"/><path fill="#72cbcc" d="M-10.267 310.712l.75-19.597L.515 277.987l7.127 12.377z"/><path fill="#c6a5a1" d="M6.704 270.58l21.941-26.349.375-5.157-17.815-14.439-4.688.092-18.192 41.821 6.19 5.063z"/><path fill="#e2c8c5" d="M-23.394 293.552l13.127 17.16L.515 277.987l-7.219-3.939-9.189 2.157z"/><path fill="#8ce0dc" d="M-15.893 276.205l16.408 1.782 6.189-7.407-18.379-4.032z"/><path fill="#e2c8c5" d="M6.517 224.727l22.128 19.504 31.131-37.319-.375-2.438-27.849-23.722-6.938 2.342z"/><path fill="#5ec0d9" d="M118.006 226.227l-10.41-10.595 6.846-12.939 6.001 13.127z"/><path fill="#73cfe5" d="M134.79 212.539l-16.784 13.688-3.564-23.534 1.781-13.972 6.565-2.063z"/><path fill="#e2c8c5" d="M116.88 192.284l-4.22-25.973-5.439-13.221-20.16 16.597 27.381 33.006z"/><path fill="#5ec0d9" d="M107.221 153.09l7.221 49.603 8.346-16.035zM-.235 187.127l5.721 16.315-9.564 11.909-1.407-16.222z"/><path fill="#73cfe5" d="M-5.579 171.937l-15.097 28.786 16.598 14.628L.61 189.564l-3.751-11.627z"/><path fill="#ceb0ac" d="M8.861 144.089l15.753 20.91L.61 189.564l-1.314-11.157 4.782-20.347z"/><path fill="#5ec0d9" d="M8.861 144.089L.61 189.564l-6.189-17.627z"/><path fill="#e2c8c5" d="M90.907 102.643l-35.444 22.223-10.314 3.563-6.376-5.813-14.816-23.16 3.657-10.69 4.219-3.376 14.441-2.249 26.348-.75 21.285 9.562 1.406 4.315z"/><path fill="#c6a5a1" d="M48.055 114.458l-6.658 7.689-.467 4.219 4.219 2.063zM28.365 174.561l-15.003-37.974 3.938-3.188 12.659 1.125 15.19-6.095 9.939 8.908 21.942 2.814 2.156 4.031-2.72 5.532-3.469 5.532-38.631 19.129z"/><path fill="#a0847d" d="M41.491 153.653l3.376 7.22.657-4.782z"/><path fill="#72cbcc" d="M13.362 136.587l16.409 1.875 15.378-10.033 7.782 12.753 26.255 3 7.033-13.97-5.627-2.815-27.941-2.812-7.502 3.844-6.376-5.813-27.098-3.189-4.783.75z"/><path fill="#8ce0dc" d="M27.145 98.705l4.688-13.315-8.72 1.314-16.221 33.473 38.35 8.252 40.977 1.783 17.065-33.944-9.377-4.315-4.595 7.972-44.07 28.504z"/><path fill="#5ec0d9" d="M144.447 70.387l-27.005 32.256 48.103 3.471.751-10.785-11.629-18.096z"/><path fill="#73cfe5" d="M141.823 39.445l-12.566 5.252 15.19 25.69 8.533-3.468 13.971-15.94.937-8.721-7.313-4.033z"/><path fill="#3aa0ba" d="M165.545 106.114l25.691-24.006-8.345-7.97-29.911-7.219-8.533 3.468z"/><path fill="#5ec0d9" d="M191.236 82.108v-9.563l-14.345-28.318-9.003-1.969-23.441 28.129z"/><path fill="#5ec0d9" d="M150.168 11.971l-20.911 32.726 38.631-2.439-1.312-12.377-7.595-13.128z"/><path fill="#73cfe5" d="M167.702 7.189l-17.534 4.782 17.72 30.287 9.003 1.969 26.723-15.94 7.126-10.314-9.564-8.345z"/><path fill="#3aa0ba" d="M191.236 82.108l-23.348-39.85 42.852-24.285z"/><path fill="#5ec0d9" d="M195.643-9.126l13.129 11.533 1.968 15.566-60.572-6.002z"/><path fill="#73cfe5" d="M242.621.814l-46.978-9.94 15.097 27.099zM142.573-22.722L115.286-7.719l22.41 10.501z"/><path fill="#8ce0dc" d="M24.614 183.094l5.345-4.406 44.258-18.66 6.564-2.156-21.005 49.04z"/><path fill="#72cbcc" d="M76.466 149.714l-48.101 24.847-3.751 8.533 56.167-25.222z"/><path fill="#46382d" d="M1.079 34.007l-8.533 9.283-7.97 15.94L4.453 89.516l20.816-26.818-6.094-7.875-11.44-18.472z"/><path fill="#5e5044" d="M-15.143-18.221l-.281 77.451L4.453 89.516 1.079 34.007l2.907-4.688L.704-24.598l-3.376-3.844-7.22.375z"/><path fill="#a0847d" d="M39.522 58.855l-1.874 3.468 13.877 31.976 11.814-11.627L77.405 57.26z"/><path fill="#c6a5a1" d="M44.492 62.042l26.161-.843-19.128 33.1 21.097-11.908 15.284-21.849 2.062-10.032L73.654 9.345l-7.595-1.031.656 21.472-21.566 22.411z"/><path fill="#a0847d" d="M71.403 18.159l7.502 3.001 13.596 22.973-.282 10.409-4.313 6z"/><path fill="#e2c8c5" d="M25.269 62.698l19.223-.656 26.911-29.536V7.471L41.491-48.132l-6.469-.658-6.471-.937-30.098 16.128-1.125 5.157 3.751 62.449z"/><path fill="#c6a5a1" d="M-2.391-28.067L35.022-48.79l-3.189-5.813-4.78-.281-28.6 21.285z"/><path fill="#74665b" d="M-15.143-18.221l46.976-36.382 2.251-6.939-7.22-2.062-41.913 15.283z"/><path fill="#c6a5a1" d="M3.516-1.812L8.861-5.75l13.784 4.219 4.688 7.502.375 8.251-3.656 8.814-10.221-16.69z"/><path fill="#46382d" d="M3.516-1.812l4.97-5.813 14.346 6.188L8.674-4.532z"/><path fill="#c6a5a1" d="M32.772 5.313l-1.22 8.909 4.313 8.814L46.274 4.282l12.19-9.845L50.4-8.47 36.99-2z"/><path d="M45.574 1.52c2.067-.064 3.798 1.559 3.862 3.625.066 2.069-1.557 3.798-3.625 3.864-2.067.066-3.796-1.557-3.862-3.625-.066-2.069 1.556-3.798 3.625-3.864z" fill="#2b2b2b"/><path fill="#46382d" d="M50.025-10.345l8.439 4.782-8.347-1.593L36.99-2z"/><path d="M13.68 2.645c2.068-.064 3.798 1.559 3.864 3.627.066 2.067-1.557 3.797-3.626 3.863-2.068.066-3.798-1.557-3.864-3.626-.065-2.068 1.56-3.798 3.626-3.864z" fill="#2b2b2b"/><path fill="#a0847d" d="M30.052 27.443l-6-4.407 5.157-2.531 6.656 2.531z"/><path fill="#efdddc" d="M27.333 5.971l5.439-.658 3.093 17.723H24.052z"/><path fill="#72cbcc" d="M26.583 44.697l-6.094-6.939 2.999-1.407 16.034-.188 4.032.562-6.939 7.408z"/><path fill="#74665b" d="M105.254-45.133l24.003 89.83-16.409-22.505-54.572-88.891v-8.345z"/><path fill="#46382d" d="M39.054-60.228l-12.19-3.376 90.578 166.247 11.815-57.946-16.409-22.505z"/><path fill="#5e5044" d="M26.864-63.604L129.257 44.697 58.276-75.044z"/><path fill="#50a9aa" d="M20.489 37.758l4.875-5.814 4.313 1.124 4.97-1.593 8.907 5.25z"/></svg>