<svg xmlns="http://www.w3.org/2000/svg" viewBox="-142.401 -47.997 400 400"><path fill="#2c2b2b" fill-opacity=".102" d="M-15.445 336.281l76.628 14.336 71.683-11.122-71.189-8.653z"/><path fill="#1a8ba4" d="M53.52 324.167l4.449.743-3.708 12.358-5.19.496-4.203-6.922z"/><path fill="#279db8" d="M30.285 326.64l-7.416-.247-14.831 10.381 28.673 3.708 21.258-15.572-6.427-9.393z"/><path fill="#6dcacb" d="M42.643 303.652l-5.932 12.358-13.842 10.383 12.36 5.191 16.313-16.067z"/><path fill="#1e9193" d="M36.464 269.788l-8.156 10.133 8.403 36.089 14.831-.493 3.461-22.495z"/><path fill="#007072" d="M24.6 275.225l3.708 4.696 26.695 13.101 3.709-20.516z"/><path fill="#1a8ba4" d="M94.8 326.887l3.707 2.225-2.471 11.617-5.933-.494-1.729-2.471z"/><path fill="#279db8" d="M86.396 320.707l6.427-2.471 5.684 10.876-10.133 8.652-2.967-7.664z"/><path fill="#279db8" d="M82.687 323.179l6.921 9.146 8.899-3.213-11.863 15.819H55.251l10.381-12.358z"/><path fill="#6dcacb" d="M82.935 313.293l-7.663 5.685-9.64 13.595 20.764 1.482 6.427-15.819z"/><path fill="#1e9193" d="M77.003 272.259l-6.18 21.258 3.955 26.201 18.045-1.482 5.192-35.842z"/><path fill="#007072" d="M77.003 272.259l-7.91 9.147 1.73 12.111 27.192-11.123z"/><path fill="#279db8" d="M34.24 194.15l-13.348 4.943-2.967 19.033 21.753 35.348 66.987 29.167 2.967-60.559-4.697-20.023-23.235-4.203z"/><path fill="#1a8ba4" d="M17.925 218.126l1.483 61.302 87.257 3.213z"/><path d="M39.678 177.093l-17.056 11.123-1.73 10.877 84.043 2.966-2.721-10.877c-25.705-3.213-36.334-8.65-62.536-14.089z" fill="#8fd4d5"/><path fill="#279db8" d="M38.936 186.486l14.831 2.72 48.447 1.976 1.238-20.268-20.765-30.899-32.134-12.112z"/><path fill="#279db8" d="M107.159 129.386l2.719-16.314-23.234-11.864-14.09 2.223-11.619 13.843-3.213 41.034 41.279.494z"/><path fill="#6dcacb" d="M53.025 169.678l.742 19.528h-7.416l-9.393-9.148 9.147-9.392z"/><path d="M41.902 176.352l21.009-3.213-8.65-40.787-9.393-12.111s-7.415 10.382-6.18 10.629c1.483.494 3.214 45.482 3.214 45.482z" fill="#8fd4d5"/><path d="M10.263 165.969l4.696-.495 7.663 22.742 23.729.989-.247-19.527-6.18-10.383 3.213-32.134s-5.19-22.247-4.202-22.494c.989-.247-21.752 15.078-21.752 15.078l-6.92 46.224z" fill="#279db8"/><path fill="#60bcbd" d="M30.779 167.453l15.326 2.225-.989-42.516-1.73-6.921-2.226 23.482z"/><path fill="#1a8ba4" d="M16.442 124.443l3.214 30.404 2.966 33.369-29.415-13.842 15.325-33.865z"/><path fill="#60bcbd" d="M43.138 96.757l-6.18 9.147.743 11.618v2.965l11.37-.493 14.83-18.293z"/><path fill="#dddddc" d="M29.79 123.207l1.731-5.192 6.18-.493 4.448 3.707-.989 2.225-9.887.741zM31.767 131.364l2.719-.741 10.629 2.225s-.495 6.92-.495 6.674c0-.248-6.179 0-6.179 0l-5.933-4.697-2.967 1.236 2.226-4.697z"/><path fill="#eecec9" d="M11.004 123.948l.247-7.415 20.27 1.482 2.965 12.608-7.415 15.572zM70.575 152.869l-3.213-9.888-1.236-1.978-20.763 2.72 14.583 15.82z"/><path fill="#8fd4d5" d="M86.644 101.208l-8.901-8.406h-4.695l-8.406 3.708-11.617 14.831-.741 4.698 11.865 6.178z"/><path fill="#eecec9" d="M73.542 135.319l4.201 6.921 5.192 3.214 5.439-5.687-12.113-8.403z"/><path fill="#007c92" d="M102.214 155.094l-2.717-4.203 10.381-37.819 16.068 62.291-15.08 2.472z"/><path fill="#feeee9" d="M98.755 161.273l-2.225-7.169-8.156-14.337-21.012 3.214-7.416 16.562 23.977 1.73z"/><path d="M99.991 33.726l-.742-7.663 18.787 6.18-11.371-40.786-6.674 2.967s-5.934 26.202-5.934 25.707c-.247-.248 5.934 13.595 5.934 13.595z" fill="#e1ce7f"/><path fill="#d5c377" d="M101.228 33.726h3.46l13.348-1.483L97.024 18.4z"/><path fill="#e1ce7f" d="M86.147 23.097L97.024 18.4l7.664 15.326 2.717 21.999-14.09-11.618-11.615-7.91z"/><path fill="#d5c377" d="M77.743-36.969l12.854-.742 16.068 29.168L97.024 18.4l-8.898-5.439-22-36.83z"/><path fill="#ffeea3" d="M43.879-42.902l11.618.494 9.145-2.224 25.955 6.921-19.28 12.112-5.685 3.708-32.381-8.651z"/><path fill="#f6e393" d="M7.296-27.577l-5.19-6.426 29.908-11.371 15.821-1.236 7.662 4.202-17.55 11.124-20.516 1.73z"/><path fill="#c1b170" d="M85.407 14.692L97.024 18.4l-3.461 12.359-14.83 10.629-12.607-6.179 2.225-19.281 3.707-10.135z"/><path fill="#e1ce7f" d="M55.251-20.655l16.066-4.944L97.024 18.4l-24.259-6.473-20.234-6.875z"/><path fill="#f6e393" d="M28.554-25.846l9.393-5.438 33.37 5.685L60.688-7.307 51.79-4.34 21.386-9.779l-1.978-7.169z"/><path fill="#f6e393" d="M48.082-21.396l3.213-7.664 10.63 1.978-4.945 14.336-.741 4.698-3.214-.495z"/><path d="M50.059-4.093c0-.742 2.966-4.45 2.966-4.45l-1.73-20.517-7.909-1.235s-.743 13.596-1.236 13.596c-.742 0 3.214 10.134 3.955 9.887.741-.248 3.954 2.719 3.954 2.719zM41.16-24.116l-.246-.741-2.967-6.427-15.325 17.056 15.325 7.415 3.708-3.955z" fill="#f6e393"/><path fill="#f6e393" d="M43.632-10.026l.495-5.932-.741-14.337-5.439-.989-2.225 9.64 1.236 13.348z"/><path d="M7.296-27.577l10.134-1.978 20.517-1.729-15.325 17.056L15.7-7.307S-8.03 4.557-9.265 3.816c-1.236-.741-1.236-11.123-1.236-11.123l17.797-20.27z" fill="#d5c377"/><path fill="#ead990" d="M-10.007 1.097l-7.662-9.393L2.106-34.003l15.325 4.449L-8.523-3.847z"/><path fill="#9d8d56" d="M79.722 84.646l19.279-18.54-11.617-27.189-8.158 33.123z"/><path fill="#b9a46a" d="M99.001 66.106l-5.438-35.347-6.179 8.158 1.236 11.865z"/><path d="M46.351 117.522h-8.65l5.19 21.751 12.853-.493s-.494-22.741-.494-22.494c.001.494-8.899 1.236-8.899 1.236z" fill="#eaeceb"/><path fill="#dddddc" d="M65.386 138.78l3.459-21.011-7.416.246-7.909-.741-.495 2.72.742 20.268z"/><path fill="#cea19c" d="M52.284 116.039L28.801 87.365l39.055.742z"/><path fill="#eecec9" d="M85.159 52.264l1.237 6.428-8.653 34.11-25.459 23.237 11.371-26.203H44.868l.989-8.157 19.775-13.595 3.707-38.807 3.426-17.35 4.484 12.406-1.484 10.134 7.418 2.224z"/><path fill="#cea19c" d="M85.159 43.119l-7.416 2.966 8.653 12.607 2.224-7.91z"/><path fill="#e1ce7f" d="M-9.265 9.501l-8.404-17.797 9.146 4.449 1.73 10.135z"/><path fill="#efdd8e" d="M.622-1.375l-9.145-2.472-4.697 14.337 9.146 23.236 2.224-1.483z"/><path fill="#feeee9" d="M-2.838 17.659l-1.236 16.067 1.977 33.616 21.753 22.742 25.212-.248 22.74-20.022 5.157-57.887L60.688-7.307 29.049-9.038l-7.416-4.449-2.472 2.719L8.285-5.824.127.355z"/><path fill="#eecec9" d="M10.263 12.961l-2.967.496-6.674 1.73 11.865 14.09 4.202 22.493 7.911-4.944 3.213 4.944 13.101-22.246L56.98 16.423l-7.662-1.731-9.888 1.236-5.932 2.226-4.449 5.684-2.967 3.955-2.718-4.45-2.72-5.932-3.955-1.978z"/><path fill="#c1b170" d="M8.038 11.232L.622 15.187l5.933-.248 14.089 2.472 1.483-2.224zM56.98 16.423l-7.415-5.191-16.314 4.449.247 2.473 15.82-2.226z"/><path fill="#6dcacb" d="M16.689 63.388l-2.718 1.236 4.696 6.426 10.134.494 11.124-8.156-18.292 1.731z"/><path fill="#cea19c" d="M20.644 48.31l-3.955 3.46 5.191 3.955 5.933-3.955z"/><path fill="#fef4f2" d="M23.364 23.343l-6.428 20.764-.247 7.663h11.124l-.248-8.404 1.484-19.528z"/><path fill="#eecec9" d="M3.094 58.938l11.37-6.674-3.954 5.686zM49.812 61.164L35.97 52.758l4.944 7.416z"/><path fill="#1e9193" d="M11.004 63.388l8.157-.742 3.461 1.73 4.696-1.235 12.607.247-17.798 4.449z"/><path d="M7.54 27.431c.061-1.855 1.631-3.324 3.508-3.281 1.878.042 3.35 1.578 3.289 3.432-.061 1.855-1.632 3.324-3.51 3.281-1.876-.042-3.348-1.578-3.287-3.432zM37.483 28.714c.061-1.855 1.632-3.324 3.508-3.281 1.878.042 3.35 1.578 3.289 3.432-.061 1.855-1.632 3.324-3.51 3.281-1.877-.042-3.349-1.579-3.287-3.432z" fill="#2b2b2b"/><path d="M37.546 28.714c.06-1.82 1.601-3.26 3.443-3.22 1.841.041 3.286 1.549 3.226 3.368-.06 1.819-1.602 3.26-3.443 3.22-1.841-.041-3.285-1.549-3.226-3.368z" fill="#2b2b2b"/><path fill="#feeee9" d="M93.563 30.759l.743 13.596-4.45 2.225-1.236 4.202-10.877-4.697 2.473-14.584 7.416-3.461z"/><path fill="#cea19c" d="M90.103 33.973l-4.45-1.73-1.976 7.663z"/><path fill="#70cde3" d="M86.89 45.588l-5.372 2.127 2.658 6.268 4.444-3.201z"/><path fill="#a0a1a0" d="M37.701 117.522l15.324 2.472 15.82-2.225-16.561-1.73z"/><path fill="#cdcccb" d="M32.509 134.824l41.033.495-6.18 7.662-26.202.742z"/><path fill="#1a8ba4" d="M83.923 161.273l4.451-21.506 37.572 35.596-23.732 15.819z"/><path fill="#feeee9" d="M11.251 116.533l15.82 29.662-7.415 8.652-11.124-14.338z"/><path fill="#c1b170" d="M107.405 55.725L93.563 30.759l-2.72 11.37-.987 4.451z"/><path fill="#e1ce7f" d="M21.633-13.487L32.014 4.804l33.372 8.653-4.698-20.764zM-8.523-3.847L21.386 9.501l.247-22.988z"/><path fill="#d5c377" d="M72.765 11.927l13.382 16.855 14.338 14.337L97.024 18.4z"/><path fill="#efd0cb" d="M47.094 31.254l9.392 1.483-4.944 2.225zM-2.097 29.771l8.158-.494-4.203 3.213z"/></svg>