<svg xmlns="http://www.w3.org/2000/svg" viewBox="0 0 400 400"><path fill="#2b2b2b" fill-opacity=".102" d="M126.732 384.635l64.517 14.912 75.214-13.288-74.57-10.379z"/><path fill="#00787b" d="M281.05 288.022l11.346-6.484 32.422-30.802-22.694-11.669-38.901 40.851z"/><path d="M267.757 319.47l24.966-.325-.326-37.606-32.096-13.944s-13.939 20.106-15.56 18.16c-1.624-1.946 23.016 33.715 23.016 33.715z" fill="#00666a"/><path fill="#005557" d="M238.583 330.166l21.718-1.62 32.422-9.401-50.9-44.738-21.4 28.205z"/><path fill="#00787b" d="M213.293 342.49l11.998 14.586 35.01-28.53-23.988-25.934-12.321-27.884-24.965 12.646z"/><path fill="#00666a" d="M204.863 302.612l8.43 10.697 11.998 43.767-18.808 6.162z"/><path d="M168.877 350.915l-7.782 5.188-23.993 16.537s29.182-71.327 27.562-71.001c-1.624 0 14.261 8.755 13.292 6.809-.977-1.945.321 42.792.321 42.792l-9.4-.325z" fill="#00787b"/><path fill="#005557" d="M185.413 355.131l-24.64.972 3.566-42.144 21.074 14.913zM176.659 271.163l12.32 10.049 18.803-14.912-15.564-23.667-22.694 16.536z"/><path fill="#e6cab0" d="M230.476 272.783l-12.967 48.633-20.749 16.857-16.858-18.477 4.534-38.584 7.457-19.776 29.507-8.103z"/><path fill="#c4ac98" d="M217.509 321.416l-4.542 17.509-13.614 10.695-8.755-16.21-2.592-22.369z"/><path fill="#219fa1" d="M212.967 338.925l-6.484 24.313-7.777 6.159-11.026-10.701 2.918-25.286z"/><path fill="#005557" d="M166.61 264.354l17.826 16.858 13.293-10.049 23.671-17.83-6.488-14.912-46.035-.326z"/><path fill="#d2b298" d="M162.719 312.986l3.891-48.632 17.826 16.858 3.57 29.829-6.484 5.832z"/><path fill="#b49a85" d="M176.98 339.894l-14.261-26.908 25.287-1.945 2.592 22.369-6.483 12.319z"/><path fill="#1e9193" d="M185.413 355.131l-8.433-15.237 13.618-6.484 1.946 19.775-.326 6.163z"/><path fill="#036769" d="M178.926 372.315l6.487-17.184 7.131-1.946.973 7.457-1.299 13.944-9.727 3.239z"/><path fill="#007072" d="M170.501 381.391l8.425-9.076 13.292 2.271-1.294 6.483-10.379 2.593z"/><path fill="#005557" d="M170.501 385.607v-4.216l20.423-.322v4.864zM207.456 394.684l-2.914-11.348-4.216-9.401 6.157-10.697 4.217 7.131-.326 23.992z"/><path fill="#008688" d="M179.577 389.824l13.94-29.182 12.966 2.596-2.592 26.26-10.053 3.566z"/><path fill="#186d6e" d="M179.577 395.981h24.314v-6.483l-24.314.326z"/><path fill="#6dcacb" d="M222.047 258.192l-23.341-14.26-10.379 4.538 47.986 54.142 7.456-26.585z"/><path fill="#1e9193" d="M249.604 264.354l-3.243-3.89-27.232-16.532-18.156.325-6.158 4.213 43.118 38.904z"/><path fill="#8fd4d5" d="M304.069 251.061l-67.756 51.551 1.62-15.238 57.385-50.577 14.262 2.27z"/><path fill="#6dcacb" d="M309.58 239.067l15.238 11.669-20.749.325v-10.695z"/><path d="M296.939 230.314l11.021-4.217-4.863-13.614-22.047 4.864s11.998 13.618 12.645 14.912c.647 1.294 2.918-2.271 2.918-2.271l.326.326z" fill="#a58b74"/><path fill="#1e9193" d="M297.265 236.476l10.695-10.054 16.858 24.314-20.749-10.37z"/><path fill="#2c7576" d="M307.96 226.422l-13.939 2.271-5.836-.651.321 3.244-42.145 29.178-8.428 26.91 66.136-47.008z"/><path fill="#d2b298" d="M272.946 222.206l2.918 7.46 20.749 4.213.326-5.837-15.889-10.37z"/><path fill="#e8d1be" d="M275.864 229.666l27.233-16.862-21.071 1.624-6.162 5.511z"/><path fill="#43a7a8" d="M240.529 198.864l9.075 2.918 32.422 12.646-6.162 15.238-40.524-7.135z"/><path fill="#1e9193" d="M167.253 239.067l-3.887 3.566-10.7 21.721 9.076 8.429 10.7 1.299 14.591-30.477z"/><path fill="#2c7576" d="M152.666 264.354l6.809 37.607 12.967-27.879z"/><path d="M140.025 379.771l48.302-131.301.651-8.755s-3.565 0-4.216 1.945c-.326 1.62-59.328 127.736-59.328 127.736l14.265 10.374h.326z" fill="#8fd4d5"/><path fill="#007489" d="M195.784 232.91l-.969 15.56 24.314-4.538-.325-7.135zM168.877 231.611l-4.864 3.244-.647 7.778 18.482 5.837-.977-14.266z"/><path fill="#279db8" d="M178.278 230.639l7.457 10.375 2.592 7.456h6.488l8.103-9.403z"/><path fill="#56bfda" d="M178.278 230.639l-2.918 8.428 6.488 9.403h6.479l-.321-9.728z"/><path fill="#372613" d="M235.34 222.531l-16.536 14.266 1.619-43.443zM147.807 122.353l7.778 42.796h24.96l1.303-29.178z"/><path fill="#493a2a" d="M143.915 124.948l-5.514 51.871 22.047-6.159 3.565-11.671-8.107-18.803.977-14.266-6.488-6.485z"/><path fill="#372613" d="M242.796 126.244l6.483 25.936.325 49.602-36.637-34.364 5.837-48.954z"/><path fill="#1e9193" d="M165.633 172.931l-1.62-13.942-42.47 29.178 11.669 19.126 17.183-4.212zM215.238 181.359l9.076-22.694 25.29 43.117-14.264 20.749-10.7-12.315z"/><path fill="#e8d1be" d="M214.266 201.136l-25.939 36.307-14.912-40.524-3.24-20.1-.325-17.83 11.021-.324 4.216 3.889 27.555-5.187 6.487.649z"/><path fill="#d2b298" d="M168.229 222.206l21.075-13.293 21.07 18.482-22.368 11.347z"/><path fill="#007072" d="M212.967 200.163L196.76 215.4l-8.754 23.342 14.912.325 15.886-2.27 5.836-26.581zM163.688 185.898l-13.293 17.183 13.618 31.774 11.347 4.212 12.646-.325-5.837-25.287z"/><path fill="#6dcacb" d="M219.129 158.016l5.185.649.326 51.551-27.88 5.184zM169.85 158.989h-5.837l-13.618 44.092 31.774 10.374-7.781-33.394z"/><path fill="#372613" d="M132.243 43.249l-12.324 33.068 13.293 35.987 10.703 12.644 12.968.972-12.324-85.589z"/><path d="M133.212 112.304l10.704 12.644 12.967.973-3.244-23.018h-13.614l-6.813 9.726v-.325z" fill="#493a2a"/><path fill="#d2b298" d="M231.77 121.706l-7.456 3.242-10.048 32.419-25.287 19.452-7.457-28.528 23.989-94.02 12.966-11.022 13.619 39.552z"/><path fill="#a58b74" d="M188.327 142.129l17.835 1.298-17.183 33.392-23.346-37.444z"/><path fill="#493a2a" d="M233.068 81.179l-8.103 10.051-.651 33.718 24.965 27.232 15.239-45.712z"/><path fill="#554537" d="M227.558 47.138l32.095 1.622 4.865 57.708-39.553-15.238-8.433-37.607z"/><path fill="#7d6f62" d="M174.713 13.746l22.047-6.809 19.129-2.918 5.185 18.805-11.673 16.858-46.682-11.997z"/><path fill="#6e5f51" d="M215.889 4.019l43.764 44.741-43.121 4.863-19.125-9.078 6.484-15.562z"/><path fill="#625144" d="M139.699 38.385l-7.456-12.968L176.012.453l20.748 6.484-22.372 18.156z"/><path fill="#554537" d="M119.919 76.317l20.753-28.854 30.15-.649 3.566-21.721-42.145.324z"/><path fill="#e8d1be" d="M140.672 57.838l-.647 45.064 15.881 37.284 32.421 1.943 23.993-39.876 4.212-48.63-42.144-28.53-24.962 18.803z"/><path fill="#a58b74" d="M140.672 47.463v10.375l33.716-32.745z"/><path fill="#d2b298" d="M145.536 67.239l-3.244 3.566 11.672 11.673 9.402 14.263 5.511-6.807 4.212 7.456 14.591-14.912 17.183-9.728-8.428-5.511-19.776 7.133-4.864 3.242-2.918 2.595-2.267-2.595-5.515-3.568-10.7-7.779z"/><path fill="#279db8" d="M159.154 111.331l-4.868-.325-2.914-1.296 9.076 15.887 19.454.323 11.991-15.561-6.806 1.62z"/><path fill="#007489" d="M159.797 113.924l-4.86-1.62-3.891-2.594 5.185.649 11.673-2.595 16.532 2.918 7.457-.323-4.213 2.592z"/><path fill="#c3a389" d="M169.85 93.175l-6.484 3.566 4.863 5.836 4.86-5.187z"/><path fill="#554537" d="M176.012 70.481l19.772-5.511 9.079 7.78-8.754-4.214-19.45 5.836zM163.366 70.481l-14.591-6.483-6.483 6.807 6.483-2.916 12.32 6.157z"/><path fill="#ecded7" d="M166.61 77.614l-3.244 19.127 9.723.649-1.294-19.776z"/><path fill="#fff" d="M154.937 112.304l32.743.647-4.864 4.215-13.618 3.242-11.346-4.215z"/><path fill="#705e5a" d="M182.816 117.166l-6.157 5.836-14.265-.649-4.542-6.16z"/><path d="M153.317 77.938c2.149 0 3.891 1.742 3.891 3.891s-1.742 3.891-3.891 3.891-3.891-1.742-3.891-3.891c0-2.15 1.743-3.891 3.891-3.891zM187.68 78.586c2.149 0 3.891 1.742 3.891 3.891 0 2.147-1.742 3.889-3.891 3.889s-3.891-1.742-3.891-3.889c0-2.148 1.742-3.891 3.891-3.891z" fill="#2b2b2b"/><path fill="#444648" d="M111.82 130.782l-3.57-8.103 12.972-2.919 10.695 13.293-4.538 12.32z"/><path fill="#cdcccb" d="M104.685 134.349l-.647-7.132 4.212-4.538 19.129 22.694-4.863 4.861z"/><path fill="#444648" d="M100.473 135.645l2.589-3.241.976-5.187 18.478 23.017-9.076 1.299h-8.108z"/><path fill="#d2b298" d="M96.582 141.806l.321-4.538-1.619-9.079 5.51-1.296 2.268 5.511-.648 7.133-2.592 6.159-4.538-1.296z"/><path fill="#279db8" d="M84.584 156.72l-1.294-.649-8.108 8.105 9.076 10.374 10.053-8.428 10.696-3.892 6.813-6.809 2.267-4.214-11.347-13.616-2.918 8.429-4.538-.324z"/><path fill="#007489" d="M87.18 154.774l-3.89 1.297 9.401 8.428 9.402-11.347.647-15.884-7.456 7.132z"/><path fill="#e8d1be" d="M109.874 172.931l2.268-8.432 2.918-21.721-5.837 2.595-3.891 11.347-11.021 9.402 5.185 4.214zM83.29 156.071l9.723 4.214 9.08-7.133-5.19-15.884z"/><path fill="#43a7a8" d="M112.142 164.499l21.07 42.794-22.043 5.189-11.673-42.146z"/><path fill="#554537" d="M203.891 28.983l-29.503-3.89 42.144 28.53z"/></svg>