<svg xmlns="http://www.w3.org/2000/svg" viewBox="-141.258 -48.52 400 400"><path fill="#7c4e25" d="M-18.499 1.888l12.537-6.796 4.408 7.163-2.663 12.537z"/><path fill="#1c7678" d="M10.202 144.751L-2.656 170.56l17.221 9.367 6.981-1.238-1.883-17.223z"/><path fill="#9b6534" d="M-4.217 14.792L-18.499 1.888l3.307-25.441 36.875-24.155h40.319l45.831 20.297-3.902 25.487 3.902 25.487z"/><path fill-opacity=".102" d="M-17.764 334.318l76.139-15.063 67.965 19.793-74.257 11.619z"/><path fill="#165e60" d="M36.149 335.052H-.681v-4.086l21.583-4.043 15.292 4.043z"/><path fill="#1c7678" d="M9.514 321.505l-10.195 9.461h36.875V328.9l-15.981-8.863z"/><path fill="#165e60" d="M105.583 342.308H76.515l.092-4.867 12.95-3.123 16.117 3.123z"/><path fill="#1c7678" d="M79.498 326.511l-2.891 10.93h29.067l-4.912-16.117-10.151-3.813z"/><path fill-opacity=".2" d="M102.276 326.236l-1.514-4.912-21.264 5.187z"/><path fill="#369496" d="M9.514 321.505L51.9 333.308l31.273-21.721 26.358 7.578-3.857-103.556-16.347-36.553-53.362 14.787-14.282 38.989z"/><path fill="#8ce0dc" d="M21.821 208.353l-4.914 26.957-7.393 86.195 26.175-126.24z"/><path fill="#50a9aa" d="M113.803 112.468l-27.278-9.23-42.799.919-15.568 1.745-17.956 38.849L51.9 158.39l45.646-1.744 2.02-5.511 7.809-10.425z"/><path fill="#369496" d="M51.9 186.54l37.427-7.484 8.219-22.41-87.344-11.895 11.481 34.305z"/><path fill="#ffeee9" d="M43.909 97.452l-9.092 18.093L51.9 154.9l37.427-40.089 2.846-8.037-5.28-12.858z"/><path fill="#efd0cb" d="M72.439.005L59.982 46.754 57.066 82.71l-3.972 28.427 33.799-17.221 13.501-28.61 7.439-41.743z"/><path fill="#ffeee9" d="M-5.732-6.424l2.933 65.162L18.147 82.71h38.919l13.909-17.404L72.439.005 28.434-19.834z"/><path fill="#cea39f" d="M67.055 82.71H34.036l19.058 28.427 25.533-28.702z"/><path fill="#fff5f3" d="M21.683 24.941h6.981l1.606 23.558H17.412z"/><path fill="#cea39f" d="M17.412 48.499l6.43 5.694 6.428-5.694z"/><path fill="#efd0cb" d="M33.393 18.925l-4.729 6.016 1.423 20.71 12.215-16.899 21.63-9.965-10.562-4.225z"/><path d="M41.43 25.492c1.826 0 3.307 1.459 3.307 3.26 0 1.8-1.48 3.26-3.307 3.26-1.826 0-3.307-1.46-3.307-3.26 0-1.8 1.48-3.26 3.307-3.26z" fill="#2b2b2b"/><path fill="#efd0cb" d="M19.525 19.798l2.158 5.143-3.398 18.828-7.669-15.017-11.848-12.444 6.934-2.664z"/><path d="M10.616 25.492c1.826 0 3.307 1.459 3.307 3.26 0 1.8-1.481 3.26-3.307 3.26-1.826 0-3.307-1.46-3.307-3.26 0-1.8 1.481-3.26 3.307-3.26z" fill="#2b2b2b"/><path fill="#369496" d="M17.78 60.76l4.684 4.546h9.276l6.935-5.143-12.216 1.194z"/><path fill="#165e60" d="M17.78 60.76l8.128 2.434 12.767-3.031-5.97-.78-6.981 1.101-4.546-1.101z"/><path fill="#50a9aa" d="M51.9 333.308l57.631-14.143L88.5 235.22l-23.788-40.367-12.812-2.342z"/><path fill="#cea39f" d="M86.893 44.366l12.077 8.908 1.424-4.775z"/><path fill="#1c7678" d="M16.861 235.357l18.828-40.092-9.276-3.719-11.802-.414zM64.712 194.853L88.5 235.22l-3.903-44.867z"/><path fill="#7c4e25" d="M106.641 27.421l12.719 40.044-13.961 31.732-18.506-5.281z"/><path fill="#9b6534" d="M34.036 82.71H18.147l10.011 23.192 15.751-8.45z"/><path fill="#ffeee9" d="M75.182 178.505l-10.47 3.26-5.189 5.557 5.189 7.531 14.696-.369 1.744-7.621z"/><path fill="#efd0cb" d="M20.305 195.173l-3.673-7.484 4.959-9.414 13.272 4.041 3.352 5.512-2.526 7.437z"/><path fill="#9b6534" d="M119.36 67.465L86.893 93.916l7.485 10.93 19.425 7.622z"/><path fill="#7c4e25" d="M34.036 82.71l-5.878 23.192 8.817-2.342 6.934-6.108z"/><path fill-opacity=".2" d="M88.5 235.22l17.45-11.939-.276-7.672z"/><path fill="#369496" d="M113.803 112.468l22.18 68.561-25.165-.457-5.419-11.528-5.74-18.093z"/><path fill="#af7546" d="M52.083-27.089l-11.985-6.934-14.511 7.255L-5.732-6.424l25.349-9.965L72.439.005z"/><path fill="#9b6534" d="M77.523.74l10.792 38.299 18.326-11.618-5.926-17.91z"/><path fill="#165e60" d="M42.532 100.207l7.118 23.742 1.837 2.02 3.076-1.423L87.168 96.35l-.275-2.434-.046.046-32.467 28.104-3.536-.505-6.935-24.063z"/><path fill="#50a9aa" d="M53.002 124.316l-1.837-.184-.321-2.571 3.536.459z"/><path fill="#7c4e25" d="M86.847 93.962l2.48 20.849-5.374 40.089 21.492-19.654 8.358-22.778z"/><path fill="#af7546" d="M89.327 114.811l24.476-2.343-26.956-18.506zM43.909 97.498l-9.092 18.047-5.786 31.778-9.185-23.374 8.312-18.047z"/><path fill="#9b6534" d="M19.846 123.949l14.971-8.404-6.659-9.643z"/><path fill="#cc9262" d="M21.683-47.708l3.904 20.94 26.496-.321 9.919-20.619z"/><path fill="#7c4e25" d="M106.641 27.421L72.439.005l35.394-27.416 14.099 39.723z"/><path fill="#af7546" d="M-15.192-23.553l9.46 17.129-12.767 8.312z"/><path fill="#318fa6" d="M47.721 137.542l-1.47-7.118 3.399-6.475 4.913.597 1.47 7.072-3.398 6.521z"/><path fill="#2b2b2b" fill-opacity=".149" d="M46.251 130.424l9.782 1.194-3.398 6.521-4.914-.597z"/><path fill="#72cbcc" d="M105.399 169.044l-30.217 9.461L88.5 235.22l47.483-54.191z"/><path fill="#cea39f" d="M59.523 187.322l5.189 3.26v4.271L51.9 192.511z"/><path fill="#efd0cb" d="M64.712 190.582v-8.817L51.9 173.546l-6.108 9.551 6.108 9.414z"/><path fill="#ffeee9" d="M34.863 182.316l.826 12.949 16.211-2.754v-18.965z"/><path fill="#72cbcc" d="M21.591 178.275l-4.684 57.035-19.563-64.75z"/><path fill="#ffeee9" d="M92.495 23.196l-5.602 21.17 13.501 4.133 6.247-21.078z"/><path fill="#cea39f" d="M93.139 37.248l2.57-8.726 7.118 2.205z"/><path fill="#7c4e25" d="M36.608 14.838l-3.215 4.087 19.334-3.077 11.205 2.939-10.425-5.51zM19.525 19.798l-1.791-4.363-12.399-3.123-6.567 3.996 6.842-1.791z"/></svg>