<svg xmlns="http://www.w3.org/2000/svg" viewBox="-138.148 -78.521 400 400"><path fill="#efd0cb" d="M114.426 204.49l11.572-17.104 3.018 6.036-2.012 7.044-9.559 6.541zM128.514 221.596l8.049.503 8.553-15.597-12.074-6.036-6.038 4.527z"/><path fill="#ffeee9" d="M140.085 188.392l5.031 18.11-18.112-1.509-1.006-17.607 8.552-2.014z"/><path fill="#2b2b2b" fill-opacity=".102" d="M-11.348 305.111l87.036 15.596 87.54-14.086-88.548-16.099z"/><path fill="#5e5044" d="M18.837-50.079L6.259 43.497l7.547-1.006 11.572-19.118 10.564-66.408z"/><path fill="#318fa6" d="M111.409 309.639h31.695l-14.088-17.608-11.571 6.541z"/><path fill="#27788c" d="M102.352 290.019l9.057 19.62 4.024-18.111-5.534-14.087z"/><path fill="#ffeee9" d="M124.489 271.906l4.527 20.125-17.607 17.608-1.51-32.198 7.546-8.553z"/><path fill="#318fa6" d="M9.279 301.589l25.657 2.013-4.025-11.069-7.044-3.521zM48.018 283.478l-3.522 9.558 4.025 10.064 4.528-18.113z"/><path fill="#ffeee9" d="M32.422 272.912l-8.555 16.1 11.069 14.59 7.044-11.069 5.03-10.563.503-8.555-7.042-4.527z"/><path fill="#efd0cb" d="M25.881 227.634l6.541 45.278 15.091.503 8.554-38.234-1.51-4.025-25.154-6.542zM85.75 229.143l-4.025 6.038 28.174 42.26 15.093-2.515-10.064-44.777-7.545-5.032z"/><path fill="#cea39f" d="M56.067 235.181l-30.186-7.547 3.522-3.02 23.646.503 4.527 3.523zM82.227 224.614l-4.527 4.529 4.025 6.038 33.203-5.032-7.545-5.032z"/><path fill="#369496" d="M34.936 98.839L31.414 92.3l-7.042 37.229 2.514 12.074 8.05 9.055 3.522-3.017z"/><path fill="#46382d" d="M43.993 44.505l-3.522 4.527 2.515 17.608 11.068 6.541 13.583-7.546L56.57 46.013z"/><path fill="#369496" d="M11.29 148.647l10.063 14.086V146.13z"/><path fill="#50a9aa" d="M106.88 118.46l7.546 16.099 16.1 3.522 11.068-4.025-14.085-55.844-7.045 5.535z"/><path fill="#8ce0dc" d="M31.414 92.3l3.522 6.539 21.634 4.025 55.342-5.534 10.061-5.03-6.037-14.591-15.595-14.088-8.05-.503-30.187 2.517-8.05 7.546-13.583 3.522z"/><path fill="#72cbcc" d="M31.414 92.3l2.013 37.229 7.547 4.024 44.776 2.014 20.124-2.517 16.099-40.75-65.403 6.036z"/><path d="M56.067 130.534l.503-32.199 9.559-27.168 8.05-2.514-9.056 28.677-.503 33.707-8.553-.503zm71.442-52.322L121.973 92.3l12.074 12.074-6.538-26.162z" fill="#2b2b2b" fill-opacity=".149"/><path fill="#369496" d="M116.942 148.144l-6.541 4.024 10.566 7.547h20.627l10.566-8.05-5.535-3.521z"/><path fill="#165e60" d="M26.384 183.864l-5.534 8.552 5.031 35.218 89.047 2.515-17.104-75.969-13.583-.503z"/><path fill="#1c7678" d="M38.458 147.641l54.336 2.515 5.03 4.024-76.974 38.236 14.086-41.758z"/><path fill="#ffeee9" d="M-10.846 134.559l3.522-6.539 22.639 1.006 3.019 4.024-2.516 12.577-4.528 3.02-17.608-4.529z"/><path fill="#cea39f" d="M11.29 148.647l4.025-19.621 3.019 4.024 2.516 11.571-1.51 6.037z"/><path fill="#165e60" d="M33.427 129.529l1.509 21.129 62.888 3.522 8.05-21.13z"/><path fill="#efd0cb" d="M-39.524 145.627l3.019 8.05 17.61 1.006.503-13.583-6.541-3.522z"/><path fill="#ffeee9" d="M-6.318 144.118l-12.577 10.565-6.038-17.105 5.03-2.516h7.547z"/><path fill="#73cfe5" d="M40.471 133.553l-5.032 6.541 5.032 5.533 5.031-6.036zM85.75 135.567l-5.031 5.533 5.031 6.541 6.038-6.038z"/><path fill="#ffeee9" d="M123.483 153.677l-2.516 6.038 4.025 21.633 7.547 3.521 8.05-3.521 1.507-29.683-5.03-3.521z"/><path fill="#cea39f" d="M120.967 159.715l21.129-8.05-5.03-3.521h-14.591l-2.513 4.024z"/><path fill="#5ec0d9" d="M124.992 181.348h9.558l2.013 3.521-2.013 3.02-8.552-.503z"/><path fill="#73cfe5" d="M134.55 181.348v6.541l5.535.503.504-7.044z"/><path fill="#72cbcc" d="M110.401 152.168l41.759-.503-10.566-17.609-27.168.503z"/><path fill="#46382d" d="M6.259 43.497L31.414 92.3l9.057-15.597 6.539-26.665-19.118-31.695-6.036-1.509z"/><path fill="#72cbcc" d="M25.378 122.485l-10.063 6.541 6.038 33.707 13.583-12.075z"/><path fill="#cea39f" d="M53.049 51.044l5.533-2.514 27.671 3.522L74.68 65.635l-8.551 5.533z"/><path fill="#efd0cb" d="M66.129 52.554l14.087 2.012-14.087 16.602 26.162-8.05 6.036-2.011 12.577-28.174-2.011-60.374-10.566 5.033-8.049 43.267L58.582 48.53z"/><path fill="#cea39f" d="M110.401 18.845l-5.03-6.036 7.044-1.007z"/><path fill="#ffeee9" d="M107.383 1.74l-2.012 11.069 6.541.503 1.006-5.032zM30.408-39.011l5.534 1.006 18.112 13.08 39.746-.503 10.062 3.02L93.297 32.43 66.129 52.554l-25.658-3.522-18.615-32.198z"/><path fill="#efd0cb" d="M43.993-7.315l-9.057-9.56 8.05-2.514 11.068 8.049 1.509 6.037-1.006 9.558-5.03 7.547zM58.582 4.76l3.522-9.058 4.025-5.03 15.092-3.019 8.051 5.535-15.094 5.03-14.086 15.094z"/><path fill="#cea39f" d="M54.054 17.84l-4.527-6.038 6.54-2.515 4.025 4.025z"/><path fill="#fff5f3" d="M55.563-5.303l6.541 1.005-2.012 17.61-10.565-1.51z"/><path d="M43.488-11.34c1.946 0 3.522 1.576 3.522 3.52 0 1.946-1.576 3.522-3.522 3.522-1.944 0-3.522-1.576-3.522-3.522.001-1.944 1.578-3.52 3.522-3.52zM74.178-5.303c1.945 0 3.521 1.578 3.521 3.522 0 1.944-1.576 3.522-3.521 3.522-1.945 0-3.521-1.578-3.521-3.522 0-1.945 1.576-3.522 3.521-3.522z" fill="#2b2b2b"/><path fill="#72cbcc" d="M38.458 20.356l8.05 10.061 13.08 2.013 14.087-6.541-19.118-4.527z"/><path fill="#fff" d="M48.018 27.398l-3.522-4.528 10.061-1.508 11.572 4.527-7.044 3.019z"/><path fill="#50a9aa" d="M54.557 19.851l-16.099.505 6.038 2.514 9.558.503 12.075 2.516h7.546z"/><path fill="#5e5044" d="M65.123-20.9l-13.585.503.505-14.589L63.11-70.203l5.031 37.229z"/><path fill="#8e7e73" d="M62.606-63.161l-10.06 26.665-9.56 8.049-12.578-10.564 1.006-6.541 28.678-21.129z"/><path fill="#5e5044" d="M67.134-67.186l33.207 10.566 6.036 26.665-2.515 7.547L77.7-21.403l-9.559-11.571-5.535-30.187z"/><path fill="#74665b" d="M62.606-63.161L51.538-20.397l-8.552-8.05zM62.606-63.161L65.123-20.9l12.577-.503-8.049-22.64z"/><path fill="#5e5044" d="M110.401 18.845l-18.11 44.273L121.973 92.3l.502-22.641-2.513-24.651z"/><path fill="#46382d" d="M139.583 47.522L121.973 92.3 103.862-22.408l7.042 7.043 24.653 45.782z"/><path fill="#5e5044" d="M139.583 47.522l1.006-71.441-6.039-4.025-25.657.503-5.031 5.033z"/><path fill="#74665b" d="M140.589-23.919l-26.163-47.794-9.558 2.516-6.541 8.049.503 8.553 5.032 30.187z"/><path fill="#5e5044" d="M40.471 49.032l13.583 24.149L31.414 92.3z"/><path fill="#46382d" d="M34.936-16.875l7.547-3.522 11.068 5.535.503 3.522-12.074-6.541zM68.141-12.347l-2.012 3.019 16.098-2.012 7.045 4.528-7.045-7.044z"/><path fill="#27788c" d="M47.513 273.415l-12.577 30.187 18.113-18.615z"/><path fill="#8e7e73" d="M57.576-77.75v4.528l5.03 9.558L98.83-52.595l15.596-19.118z"/><path fill="#74665b" d="M18.837-50.079L57.576-77.75l5.03 14.589-32.198 24.15z"/><path fill="#efd0cb" d="M83.738 23.876l-1.007 5.535-9.558 7.547zM32.925 18.845l-1.511 4.528 4.528 7.547zM-28.958 125l-.503 3.02 23.143 16.098-1.006-16.098z"/></svg>