<svg xmlns="http://www.w3.org/2000/svg" viewBox="-128.187 -76.4 400 400"><path fill="#997c7c" d="M123.628 31.535l-21.793 24.462-.446 8.006 12.008 18.235 3.559-1.335 12.454-4.892 1.778-5.782 22.239-53.816-8.006-12.008L121.849-16.5z"/><path fill="#ababab" d="M123.628 20.861l-5.338 16.457-16.455 18.679-.446 8.006 27.131-9.784 11.565-49.37-2.67-4.892-2.668.444-2.67 12.455z"/><path fill="#8f8f8f" d="M121.403-38.737l2.669-4.447 14.231-4.892 12.9 4.447.889 26.685-12.007 21.793-16.013-14.232-3.558-7.117z"/><path fill="#7c6262" d="M66.253 64.003l13.343 12.452 3.558 8.006 5.338 22.683H99.61l8.006-22.683 9.34-3.558-15.567-16.9-29.798-3.558z"/><path fill="#73cfe5" d="M71.145 168.965l2.669 12.455 8.005 4.002 15.568-.445v-74.276l-3.558-7.561-4.002-21.793-6.673 3.114-9.34 14.677z"/><path fill="#5ec0d9" d="M93.829 103.14l-1.779 74.276 5.337 7.561 10.229-.444 5.781-4.004 4.448-11.564-3.557-66.713-6.672-17.791-5.781-2.668z"/><path fill="#165e60" d="M149.425 213.886l-3.56 15.567 2.669 5.782 23.127-21.349-8.449-6.226-7.561.889z"/><path fill="#2b2b2b" fill-opacity=".102" d="M-4.463 302.839l77.389 20.013 89.839-12.897-75.608-20.46z"/><path fill="#72cbcc" d="M36.455 132.496l4.892 6.226 13.343 1.334.889-41.808-3.558-5.78z"/><path fill="#369496" d="M50.242 135.609l-13.787-3.113-10.674 12.009-1.335 19.124 23.572 15.122 6.226-4.449.446-34.246zM171.661 213.886l-8.896-16.9-6.67 4.447-.444 7.116z"/><path fill="#1c7678" d="M106.281 305.952l9.786-3.113 19.123.444 6.227 2.669v7.116l-35.136.444zM10.215 293.499l12.008-2.669 24.016.444 8.451 2.225v7.115H10.215z"/><path fill="#165e60" d="M112.954 288.606l-6.673 17.346h35.136l-6.227-18.68-4.891-2.669h-12.454zM33.342 273.928l-23.127 19.571H54.69v-11.565l-3.559-6.226-12.453-4.448z"/><path fill="#3aa0ba" d="M43.57 208.549l-10.228 65.379 9.339 3.558 6.227-2.667 20.014-56.484-2.669-4.893-16.901-7.116z"/><path fill="#318fa6" d="M54.69 281.934l-12.009-4.448 23.572-64.044 26.687 8.449 1.334 6.671z"/><path fill="#27788c" d="M132.523 206.326l-13.343 76.942 3.114 4.893 12.896-.889 16.457-64.046v-5.782l-13.344-18.235z"/><path fill="none" d="M126.297 287.717l44.03-194.361"/><path fill="#318fa6" d="M137.86 202.768l-15.566 85.393-9.34.445-18.68-60.044 4.446-8.449 29.355-17.791z"/><path fill="#b29393" d="M151.647 223.226l-13.787-20.458 4.003-.89 11.118 3.557 2.67 3.114z"/><path fill="#27788c" d="M64.919 217l29.355 11.562 43.586-25.794-3.113-4.893-20.904-8.895-39.582 2.224-4.004 2.223-5.783 16.902z"/><path fill="#369496" d="M56.469 177.86l-8.451.891-4.448 29.798L64.919 217l8.451-22.683-3.558-7.561z"/><path fill="#6f7173" d="M69.812 186.756l3.114 7.561h40.471l4.448-8.006-4.448-5.782-39.583.891z"/><path fill="#858686" d="M83.6 181.42l13.787-1.781v16.012L83.6 194.317z"/><path fill="#ababab" d="M83.6 177.416v4.004l12.897-.447v13.344H83.6v4.003l17.345.444-.444-21.348z"/><path fill="#318fa6" d="M88.492 115.149l4.892 4.448 5.336-4.448-5.336-4.892zM87.602 140.501l5.338 4.892 5.336-4.448-5.336-5.336zM87.157 164.963l5.337 4.892 5.338-4.448-5.338-5.336z"/><path fill="#5ec0d9" d="M70.701 98.694l3.113-14.678 5.782-7.561 10.231 4.892-13.344 20.905z"/><path fill="#73cfe5" d="M101.835 81.793l9.784 23.572 14.678-8.451 8.45-16.011-3.559-10.674z"/><path fill="#997c7c" d="M-23.587 124.489l-4.448 3.113 4.002 21.349 16.901-5.337 2.669-9.784-.444-9.341z"/><path fill="#c4a7a7" d="M-44.047 120.487l.446 6.671 34.246.444 4.448-3.113-6.673-8.894z"/><path fill="#b29393" d="M-13.803 99.138l6.671 44.476 8.451-4.892 3.113-13.343-10.674-27.131z"/><path fill="#8ce0dc" d="M18.664 128.492l-14.232-3.113-11.564 18.235 12.453 8.006 11.564-8.896z"/><path fill="#50a9aa" d="M36.455 132.496l-17.791-4.004L5.321 151.62l19.125 12.009zM52.021 92.468l21.793-8.452-2.669 12.453-14.232 17.346 14.678 48.034 2.223 19.571-.444 12.897-25.352-15.566z"/><path fill="#8ce0dc" d="M51.131 113.37l22.683 68.05 2.669-79.168-2.669-18.236z"/><path fill="#7c6262" d="M153.427 16.413L140.085 4.849l7.558-5.781 5.338 4.446z"/><path fill="#b29393" d="M138.75-16.5l13.342-.444.889 20.458-12.896 1.335z"/><path fill="#7c6262" d="M144.53-11.162l.446 8.896 4.449-8.896z"/><path fill="#b29393" d="M123.628 20.861l-3.559 10.674-29.353 28.02-36.026.444-12.899-13.787-3.557-10.675.89-45.364.888-31.579 17.791-24.906 8.896-.444 10.229 9.784 23.127-11.564h9.786l15.121 16.456-.89 6.227z"/><path fill="#ababab" d="M104.058-66.756l20.014 23.572 27.131-.445-28.909-32.023-14.233 4.002zM56.913-70.76L40.012-41.406l21.793-23.127 1.781-4.003z"/><path fill="#cececd" d="M82.71-55.637l-17.791.444-8.006-15.567 65.381-4.892z"/><path fill="#997c7c" d="M41.347-8.939l11.564 5.783 8.006 19.569 6.671-8.895-.445-8.896-5.338-7.561-14.231-4.892zM80.041-9.383L73.814-.932v7.56l6.673 9.785 7.561-17.791 12.897-8.005-4.003-5.336zM48.464-25.84l20.014 4.892 28.019-5.336-27.575 3.558zM53.8-32.51l16.012 3.113 20.904-4.448-20.904 3.113z"/><path fill="#7c6262" d="M70.257 13.744l-9.34 2.669 8.449 5.337 11.121-5.337z"/><path fill="#c4a7a7" d="M67.143-1.378l6.671.446 6.673 17.345h-19.57z"/><path fill="#997c7c" d="M48.908 18.636l-4.003 12.009 12.008-15.122zM83.6 14.635l19.123 14.231-8.004-12.453zM65.809 49.771l12.897-.446-7.115-3.113zM52.911 31.09l4.892 2.669-.446-.889-4.002 2.667-.444-4.447zm35.137.89l5.336-1.779-.443 4.002-4.893-2.223z"/><path fill="#997c7c" d="M62.696 42.654l-5.783-9.34 31.135-1.334-4.004 10.23z"/><path d="M38.234 35.537l5.782 6.227 5.782-16.901 19.568-3.113 26.241 1.779 10.229 15.122 17.791-17.79v19.124l-22.238 24.018-48.478.89-15.122-17.347.445-12.009zm10.23 11.565l8.45 8.895 32.914-1.334 11.563-11.565-8.896-13.788-19.568-2.223-20.014 2.669-4.449 17.346z" fill="#cececd"/><path fill="#997c7c" d="M69.812 32.424l-.446-10.674 3.56 5.338z"/><path d="M54.69-4.935c1.965 0 3.558 1.593 3.558 3.558 0 1.965-1.593 3.559-3.558 3.559-1.966 0-3.559-1.594-3.559-3.559 0-1.966 1.593-3.558 3.559-3.558zM86.714-4.935c1.964 0 3.557 1.593 3.557 3.558 0 1.965-1.593 3.559-3.557 3.559-1.967 0-3.56-1.594-3.56-3.559 0-1.966 1.593-3.558 3.56-3.558z" fill="#2b2b2b"/><path fill="#ababab" d="M46.239-15.61l-7.115 5.783 2.223.888 6.227-3.557 14.231 3.557-.444-4.002zM80.487-13.831l-.446 4.448 16.456-3.558 4.448 3.558 2.223-1.335-5.781-5.336z"/><path fill="#7c6262" d="M57.358 32.87l12.899 5.336 17.791-6.226-8.452-3.558-10.23 4.002-6.67-3.113z"/><path fill="#50a9aa" d="M140.085 113.37l-7.117-20.458 1.779-12.009 23.127 8.896 1.778 13.787-8.449 53.816-30.244 34.692-7.562 2.223v-13.788l3.559-22.237z"/><path fill="#369496" d="M113.397 194.317l24.463 8.005 4.003-2.667 6.671-38.695-2.223-5.337z"/><path fill="#50a9aa" d="M162.765 196.986l-5.78 2.223-14.233-4.892-2.667-5.337 6.226-33.357 4.892-4.003 28.464.444 8.007 5.782z"/><path fill="#8ce0dc" d="M140.085 188.98l22.68 8.006-7.114 11.563-17.791-5.781z"/><path fill="#72cbcc" d="M157.874 89.799l29.8 68.047-41.363-2.223z"/><path fill="#8ce0dc" d="M111.619 105.365l23.128-24.462 9.34 30.689-30.69 68.937z"/></svg>