<svg xmlns="http://www.w3.org/2000/svg" viewBox="-125.259 -76.4 400 400"><path fill="#2b2b2b" fill-opacity=".102" d="M167.672 298.673L83.268 323.6l-123.323-16.181 109.767-19.68z"/><path fill="#454444" d="M105.572 297.798l8.746 4.373 17.931.438 11.37-4.811-10.058-20.992-4.373-3.499-17.057 4.374-2.622 3.935z"/><path fill="#1e7678" d="M135.31 195.901l-5.248-3.06-18.805 8.308-6.998 10.059 17.057 68.222 12.245-2.624z"/><path fill="#cda29e" d="M-4.194 132.928l-4.374-5.248 3.498-4.811L9.8 134.677l-7.436 1.311z"/><path fill="#369496" d="M25.543 96.631l-7.435 41.544 1.312 4.373 9.184 4.374h9.183l-9.183-46.794z"/><path fill="#cecdcc" d="M44.347 96.631l10.934-10.934 12.682-8.309h19.242l20.554 14.868 1.75 45.046-24.489 18.804-16.621 2.186-28.863-38.047z"/><path fill="#318ea5" d="M67.963 97.067l-5.249 18.368 9.185 37.61 6.122.436 6.121-37.172-1.748-6.122-6.997-14.431-3.498-.876z"/><path fill="#29788b" d="M67.963 77.388l-6.997 13.12 6.997 6.559 7.434-1.311 3.936-8.748z"/><path fill="#185e60" d="M121.316 279.43l-13.557-73.032-27.114 7.434 28.864 67.784z"/><path fill="#1c7678" d="M135.31 79.136l14.43 43.296v13.556l-9.183 20.992-5.247 3.936-3.935-5.684V88.32z"/><path fill="#165e60" d="M135.31 195.901V79.136l-19.68-5.684H88.516L85.02 92.256v26.677l-10.059 32.799-4.811 15.307 9.183 37.611 28.426 1.748z"/><path fill="#369496" d="M85.02 92.256l30.61-18.804-11.806 37.173h-5.249L86.767 99.692z"/><path fill="#cda29e" d="M168.545 108l11.808-6.997 5.249.874-5.684 10.059-6.999-.436z"/><path fill="#eecfca" d="M149.74 122.432L168.545 108l23.616 7.872-20.989 15.743-12.686-2.623z"/><path fill="#165e60" d="M135.31 160.916l29.738 7.434 6.124-36.735-21.432-9.183z"/><path fill="#fdede9" d="M171.172 131.615l19.239-3.498 4.812-15.307-25.803 9.184z"/><path fill="#1c7678" d="M74.961 151.732l28.863-41.107L85.02 92.256zM74.961 151.732L49.595 85.259 25.543 96.631 35.6 153.919l-10.057 24.053 31.487-.437 20.553-3.499z"/><path fill="#369496" d="M59.217 94.444L43.036 88.32l1.748 31.487 5.685-2.623 6.122-13.12z"/><path fill="#165e60" d="M74.961 151.732l-30.177-31.925 14.433-25.363z"/><path fill="#cea39f" d="M49.595 77.388L36.699 65.142l3.385-3.661 33.786-5.02 30.008 13.53-25.366 9.249-12.637-1.077-12.971 2.844z"/><path fill="#ebebea" d="M59.217 94.444l8.746-17.056H49.595L43.036 88.32z"/><path fill="#165e60" d="M33.851 145.173l3.061 11.807-5.684 11.809-5.249 3.06L.615 156.98 9.8 134.677z"/><path fill="#eecfca" d="M9.8 134.677l6.559 14.432L.615 156.98l-11.37-19.242 6.561-4.81z"/><path fill="#fdede9" d="M.615 156.98v-13.994l-22.304-18.368v15.307z"/><path fill="#8f8f8f" d="M25.979 171.849l6.998-14.869 5.684-1.748 1.313 5.684-6.123 12.245zM33.415 145.173l7.872-7.871 10.495 4.809-.875 10.934H39.974z"/><path fill="#6f7173" d="M32.977 156.98l.438-11.807 17.492 7.872-10.933 7.871z"/><path fill="#318fa6" d="M92.891 211.646l14.868-5.248-4.811-6.122-34.549-13.121-103.205 1.751-10.498 4.372 15.307 12.681 8.746 1.314 87.027-.439 21.429 5.248z"/><path fill="#3aa0ba" d="M69.712 203.336l23.179 8.31v94.024l-26.241 6.997-4.81-7.435-12.681-29.3 16.617-66.037z"/><path fill="#73cfe5" d="M-45.304 193.278l-.436-19.679 122.887-3.062.874 14.869-5.247 5.248z"/><path fill="#3aa0ba" d="M77.147 170.537l30.612 20.117v15.744l-34.985-15.744z"/><path fill="#5ec0d9" d="M-32.184 274.182l10.933-3.06 57.727.874 16.618 3.936 13.556 36.735-77.405-6.123z"/><path fill="#73cfe5" d="M-32.184 274.182l85.278 1.75 16.618-72.596-99.709 2.623z"/><path fill="#efd0cb" d="M104.972 67.45l8.563-33.504-2.986-11.582 4.397-4.977 1.549-13.034L101.468.437l8.818-15.926L94.64-37.89l-19.413-9.116-3.012 55.922-1.767 51.641L94.18 70.48l8.64 1.615z"/><path fill="#cecdcc" d="M7.484-60.681L-3.486-40.11l3.085 20.454 18.889-20.775z"/><path fill="#fdede9" d="M82.316 44.89L70.448 60.557l-29.753 4.049-2.067-1.494-1.929 2.03-15.074 1.788L9.454 50.092-.401-19.656l9.886-23.299 17.976.215 47.766-4.266z"/><path fill="#c3c3c3" d="M121.458-1.093l3.724-14.56-9.331-3.312-13.694 1.028-1.931 22.658 9.112 1.217.707-5.208z"/><path fill="#cecdcc" d="M125.182-15.653l3.433-14.574-9.991-4.302-26.275-2.239-5.053 2.641 14.861 16.19z"/><path fill="#c3c3c3" d="M128.615-30.227l-9.174-25.738-13.432-2.023-25.904 5.253-4.878 5.729 12.069 12.879z"/><path fill="#dcdcdb" d="M36.696-48.095l.79-14.418-30.002 1.832 2.001 17.726 17.531 5.445z"/><path fill="#cecdcc" d="M27.016-37.51l48.211-9.496 44.214-8.959-24.483-16.572-21.21 1.704-27 7.794-14.065 5.384z"/><path fill="#ebebea" d="M7.484-60.681L49.642-76.4l45.316 3.863-62.275 14.882z"/><path fill="#cda29e" d="M23.353 36.354l30.262-4.882-14.596 16.751zM28.676 25.396l7.547 4.153 4.876-5.727-7.184-3.247z"/><path fill="#ebebea" d="M67.963 77.388L85.02 92.256l30.61-18.804-9.621-10.059z"/><path fill="#fff" d="M28.943 37.708l18.674-2.798-8.698 9.354z"/><path fill="#545657" d="M105.572 297.798h38.047v7.872h-38.047z"/><path fill="#cda29e" d="M113.535 33.946l-12.903-12.95 15.038-1.791.688 3.131z"/><path fill="#fdede9" d="M116.358 22.336l5.1-23.429-17.004-2.165-3.822 24.254z"/><path fill="#cda29e" d="M108.595 15.09l1.837-11.254 7.844.668z"/><path fill="#efd0cb" d="M39.036 58.319l-2.337 6.823 3.996-.536zM17.37-6.731L8.719-3.079 20.538 7.584l8.138 17.812 4.6-12.776-2.705-9.447-3.763-7.343zM50.757-12.224L39.194-5.309l-2.885 8.093-1.179 8.678 5.969 12.36L49.78 4.371l11.36-14.832z"/><path d="M30.571 3.173c-.037.435-1.894 22.223-1.894 22.223L41.1 23.822 36.31 2.784l-5.739.389z" fill="#fff4f2"/><path fill="#8f8f8f" d="M26.808-4.17l-1.011-3.598-9.187-.344-7.891 5.033 8.103-2.382zM61.14-10.461l-11.58-3.182L40-9.63l-.806 4.321 11.414-5.172z"/><path d="M19.418 5.294c2.165.184 3.771 2.091 3.587 4.256-.185 2.167-2.091 3.772-4.255 3.587-2.167-.185-3.772-2.089-3.587-4.256.183-2.165 2.088-3.772 4.255-3.587zM50.402 2.229c2.164.185 3.772 2.091 3.587 4.257-.185 2.166-2.091 3.771-4.256 3.587-2.167-.185-3.772-2.089-3.587-4.256.185-2.165 2.09-3.772 4.256-3.588z" fill="#2b2b2b"/><path fill="#efd0cb" d="M10.63-15.206l20.268-.905 22.567-7.294-22.892 5.949zM14.748-22.315l14.964-.48 16.716-5.598-17.041 4.253z"/><path fill="#50a9aa" d="M71.025 162.666l5.683 3.936 4.811-5.25-5.685-4.372z"/><path fill="#fff" d="M105.338 125.85l-2.114 3.733-.09 1.504 1.552.658-1.532 1.091v1.685l16.817.61.026-1.685-.687-1.02.71-.483.028-1.837-.664-.546.688-1.024.024-1.595-.462-.94.505-.366v-1.47l-9.634-.074z"/><path fill="#28788c" d="M110.505 129.842l-7.281-.259.079-5.547 7.202.055z"/><path fill="#3a9fb9" d="M120.02 131.943l-16.886-.856.02 1.749 16.843.61zM110.505 128.284l9.567.252-.024 1.57-9.543-.264zM110.505 126.671l9.591.27.043-1.306-9.634-.29z"/><g fill-rule="evenodd" clip-rule="evenodd"><path fill="#3c9fb9" d="M6.185 268.235l-8.348-6.131 4.29-6.132 7.525-.384 4.022 6.39z"/><path fill="#318ea5" d="M-17.986 219.946l8.89 3.449 6.268 8.049-2.497 2.299 2.113 4.599h2.37l5.958-7.993-1.124-.822.126-2.3 2.04-1.15 4.633 1.918-.523 2.299 3.502 8.048 2.391-.383 2.997-4.216-2.636-2.299 5.56-7.666 10.961-5.365-6.626 12.647-.821 7.665-12.231 10.807 3.924 3.374.726 1.148-1.248 1.152-6.539-2.902-.141 3.906-3.712 2.127-4.248-2.365.473-3.098h-.001l-6.747 2.332-1.121-1.152.852-1.148 3.75-2.944-11.318-10.088-1.047-9.58z"/><path d="M20.252 216.113c-.981 0-1.82.773-1.872 1.726-.054.952.699 1.723 1.681 1.723.981 0 1.819-.77 1.873-1.723.052-.953-.699-1.726-1.682-1.726zm-12.024-6.61c1.556 0 2.746 1.223 2.663 2.729-.084 1.509-1.411 2.732-2.967 2.732-1.553 0-2.745-1.223-2.661-2.732.084-1.507 1.411-2.729 2.965-2.729zm-7.147 3.352c1.254 0 2.216.987 2.147 2.202-.066 1.219-1.139 2.206-2.392 2.206s-2.216-.987-2.148-2.206c.068-1.214 1.139-2.202 2.393-2.202zm-5.611 3.258c.98 0 1.734.773 1.681 1.726-.053.952-.891 1.723-1.872 1.723-.982 0-1.734-.77-1.683-1.723.054-.953.892-1.726 1.874-1.726zm19.533-3.258c-1.253 0-2.325.987-2.392 2.204-.067 1.217.894 2.204 2.148 2.204s2.326-.987 2.393-2.204c.067-1.216-.895-2.204-2.149-2.204zM1.621 229.527l.482-1.532 2.015-.768-.126 2.3zM-12.176 257.505l1.928.378 2.524-2.295 3.576-.382-.269-2.3-3.991.767zM-17.108 246.774l.407 6.899 5.465 1.148-.513-4.98zM-1.505 236.042l3.789 1.713 4.505-1.713 4 1.486 4.035-1.534-.517 12.705-7.988 7.06-8.081-6.774z" fill="#3c9fb9"/><path d="M11.945 250.784l-2.49 2.202.327-11.291h2.369l-.206 9.089zm-5.626 4.975l-1.764-1.477.7-12.586h2.369l-.202 13.087-1.103.976zm-3.826-3.207l-2.264-1.898.497-8.958h2.37l-.603 10.856z" fill="#5fbfd8"/><path fill="#3c9fb9" d="M24.536 257.505l-2.18.152-2.057-2.069-3.532-.382.522-2.3 3.907.767zM30.662 246.774l-1.173 6.899-5.593 1.148 1.068-4.98z"/></g></svg>