<svg xmlns="http://www.w3.org/2000/svg" viewBox="0 0 900 350"><style>.st0{fill:#a3a2a2}.st1{fill:#c4c4c3}.st2{fill:#cfcecd}.st3{fill:#dddddc}.st5{fill:#f2f2f2}.st6{fill:#d0cfce}.st7{fill:#f1f2f2}.st8{fill:#fff}.st10{fill:#3aa0ba}.st11{fill:#50c3da}.st13{fill:#c4c4c4}.st14{fill:#a1eeff}.st15{opacity:.1;fill:#2b2b2b}.st16{fill:#737474}.st18{fill:#28788c}.st19{fill:#318fa6}.st20{fill:#74cfe4}.st21{fill:#5ec0d9}.st22{fill:#2b2b2b}.st23{fill:#1e7678}.st24{fill:#fee6d6}.st25{fill:#eabea7}.st26{fill:#319798}.st27{fill:#f7cbb4}.st28{fill:#505353}.st29{fill:#fef3eb}.st30{fill:#c4947e}.st31{fill:#35a1ba}.st32{fill:#247a8f}.st33{fill:#484848}.st34{fill:#6f7173}.st35{fill:#2a2a2a}.st36{fill:#90d3d6}.st37{fill:#165d61}.st38{fill:#50a9aa}.st39{fill:#38a1bb}.st40{fill:#137677}.st41{fill:#fde6d6}.st44{fill:#474848}.st45{fill:#c1927d}.st46{fill:#737373}.st47{fill:#909090}.st48{fill:#e5e5e5}.st49{fill:#369496}.st50{fill:#73cbcc}.st51{fill:#185e60}.st52{fill:#359496}.st53{fill:#2b2c2b}.st54{fill:#494949}.st56{fill:#207778}.st58{fill:#ececeb}.st59{fill:#fcdac8}.st61{fill:#4f5253}.st67{fill:#f4cab3}.st68{fill:#c3927d}.st69{fill:#494749}</style><g id="building"><path class="st0" d="M110.5 99.3l-14.4-11-19.2 9.9 7.8 73.6 39.4-10.9z"/><path class="st1" d="M96.1 88.3l3.9 81.6 44.1 1.9 4.9-80.7z"/><path class="st2" d="M103.8 95.7h34.1l-1.1 61.6-32.1-.6z"/><path class="st1" d="M100.6 101.3h40.5v6.9l-39.9-1.2.3 7.4h38.1l-.4 7.6h-36.9l-.2 6.1h37.5l-.9 8.1h-36.1l-.1 6.6h36.7l-1.3 7.7H99.7z"/><path class="st1" d="M109.9 92.7l.6 66.6h3.7l-.7-66.7h5.7l.5 66.7 2.7-.6.8-65.3h5.3l-.5 65.8s2.5.4 2.5 0 1.1-67.6 1.1-67.6l-21.9-1.4v2.5z"/><path class="st0" d="M186.4 102.5l-18.5-27.9-32 8 5 88.4 35.5 3.5z"/><path class="st1" d="M169.5 176l-1.6-101.4 57.7 1.7-2.8 97.1zM90.4 133.7l-19.6-18.1L57.3 127l1 33.7 25.4 18z"/><path class="st2" d="M67.7 171.8l6.3-10.2-3.2-46h39.7v48.1zM176.4 85.6h41.7l-1.4 75.1-39.2-.8z"/><path class="st1" d="M172.5 92.4h49.4v8.4l-48.6-1.4.4 8.9h46.4l-.5 9.4h-44.9l-.4 7.4h45.8l-1 9.9H175l-.2 8h44.8l-1.5 9.4h-46.6z"/><path class="st1" d="M183.9 81.9l.8 81.3h4.6l-.9-81.3h7l.6 81.3 3.3-.7 1-79.6h6.5l-.6 80.3s3.1.5 3.1 0 1.4-82.5 1.4-82.5L184 79v2.9z"/><path class="st3" d="M76.1 123.8l30.4-.7v37.6l-28 1z"/><path class="st2" d="M73.8 127.5l33.6-1.5v4.9L75.1 132l.4 3.9 31.9-1.1v5.2l-31.3.9v4l31.3-.6v3.8l-30.5.4v4.5l30-.3.5 4.6-31.5.4-2.6-30.4z"/></g><g id="background"><path fill="#e6e8e8" d="M47.3 301.9l191.6 38.4 238.2 9.7 212.2-9.8L861.8 302l33.7-58.2-52.8-19.3-38.1 2-40.9-45.5-39.2 9.7-240.4 38.9-269.4 5.7h-14.9l-77.3-1.7-74.9-2.2L0 248.9z"/><path class="st5" d="M129.3 180.2l-18.8-16.5 519.3 3.7-7.3 43.7-398.9-23.3-35.9 11.8-57.6-9.9z"/><path class="st5" d="M0 182.6l47.6 48.8 27.7-19.5 40.5-17.4 12.7-8.2 4.9-3.6-31.7-19.5-43.4-2.5z"/><g id="_2178683808064_3_"><path class="st6" d="M118 25.2l33.7 11.6 34.3-6.3 34.8 8L254 21.7l-55.6.9-35.7-10.1z"/><path class="st7" d="M118 25.2l45.3-8.7 35.9 10.8 54.8-5.6-23.5-11.1-30.9 8L163.9 0z"/></g><g id="_2178683808064_2_"><path class="st6" d="M598.6 110.8l-32.2 9.6-32.8-5.2-33.2 6.6-31.7-13.8 53.1.6 34.1-8.3z"/><path class="st7" d="M598.6 110.8l-43.2-7.2-34.3 9-52.4-4.6 22.5-9.3 29.5 6.7 34-15.6z"/></g><g id="_2178683808704_1_"><path class="st6" d="M701.6 38.9l43.8 12.6 44.6-6.9 45 8.8 43.2-18.3-72.3.9-46.3-11z"/><path class="st7" d="M701.6 38.9l58.8-9.5L807 41.2l71.2-6.1-30.6-12.2-37.5 3.3-53-9.8z"/></g><path class="st8" d="M101.7 163.2l24.5 17.8-24.5 6.8 41.6 21.2 43.1-12.2-51.5-9.3 9.2-5.1-33.6-18.7z"/><path fill="#cbcccb" d="M114.7 225.3l8 9.2 61.9 17.2 56.6-3.4 21.4 5.9 76.7.7 45.3-11.6 31.2 4.2 51.9-2.7 28.5-2.9 5.5 4.9 33.7-1.8 23.6-3.3 6.1 4.9 36.3 2.4 24.4-21.7 3.2-13.7-35.2-12.9-35.5-5.7-39 4.6-15 2.1-28.5-4.2-27.8 1.6-1.9-2.9-41.3-6.1-12-.5-60.5-1.6-30.3-2.4-78 2.7-74.3 17.8z"/><path class="st10" d="M618.1 226l-4 1.6-22.1 4.1-27.6 2.9-24.9-7.6-36.7-.7-31.7-1.6-50.1-.5-63.1 4.1-21.4 1-65.9 12.6-79.7-5.1-55-8.9-6.6-1.1 30.4-14.6 72.6-14.6 60.2-4.3 60.8 4.1 85.7 7.7 34.9-1 41.5 4.8 42.1-5.6 28.9 3.5 22.7 8.7z"/><path class="st3" d="M223.6 187.8l-74.3 17.9 10.4 6.5 72.6-14.6zM190.9 236.8l-6.7 14.5 57.2-.2 20.8 2.7 8.4-11.9zM361.9 235.9l-22.1 19 47.8-3.8 27.8-4 2.6-8.6zM470.8 231.9l-3.1 12.9 33.9 1.9-5.8-13.5zM564.6 238.2l-29.3-4.4.1 11.2 29.7 1.6zM603.1 228.5l-17.3 8.1 15.6 12.4 35.1-19.2zM593.4 200.3l-7 6.5 22.7 8.7 19.5-2.3zM518.9 199.2l39-4.6-.4 8.7-38.6-4.1zM446.1 196.2l-7.1 8.9 34.9-1 1.5-7.1z"/><path class="st11" d="M614.4 227.6l-11.3.9-16.8 8.2-21.4 1.5-29.3-4.3-33.1-.7-31.7-1.6-52.7 4.3h-55.9l-25.1 2.8-66.2 3.2-79.7-5.1-55-8.9 29.1-12.1 38.1-7.7 36.8-3 46.4 6 50.1-1.4 50.5 1.4 51.6 1.7 73.7 4.8 45.7-7.7 47.1 8.6z"/><path fill="#2ba0b7" d="M169.8 233.3l26.5-10.5 24.6-4.8 21.1-3.5 46.3-9-2.8-7.5-3.8-.2-41.8 7.3-35.3-.3-5.2 1.9-1.4 7.4-4.4-4.1-27.8 5.6-4.3-.1-25.6 12.4z"/><path class="st13" d="M199.6 215.5l-3.1 2.1-2.6-2.3-1.7-22-22.4-4.4-9.9 4.7-1.2 8.5-5.5-2.1.6-8.1 16.7-7.2 26.3 3.7z"/><path class="st13" d="M164.6 205.3l30.3-7.4.6 3.4-30.6 7.3.6 4.8 29.9-5.5.7 4.1-31.8 6.1.3-12.8z"/><path class="st14" d="M557.2 215l26.9 2.5 9.2 7.8-4.9 4.2 1.4-3.7-7.3-5.5z"/><path class="st14" d="M538.8 215.4l35.2 5.7 6 5.6-8.1-3.9-32.5-5-19.6-.4z"/><path class="st2" d="M167.9 225.5l-.7-24.1-18.7-5.9-18.4 5.7 1.3 11.4 5-.4-.7-8 13.6-4.2 12 4.1-.2 21.5 4.2 2z"/><path class="st15" d="M895.3 244.4l-59.7-21.5-74.7 14.1-53.7 15.1-15.4 5.1 105.4 24.3 90.2-23.4z"/><path class="st16" d="M722.1 218.9l-1.7 35.1 7-3.7 8.4-16.5z"/><path fill="#8f8f8f" d="M856.7 217.1l14.8 27.8 10.7 2.3 5.8-20.4z"/><path class="st15" d="M354.1 293l52.8-9.4 58 10.4-61.8 14.3zM200.2 320l76.3-9.4 77.6 13.9-81.4 10.9zM583.4 317.6l-54.6 15.1-68.3-10.8 69.5-11.3zM755.9 317.9l-79.7 16.6-90.3-19.5 89.1-14.4zM39.9 284.9l62.8 5.5 51.8-13.1-56.2-2.9z"/></g><g id="cat"><path class="st18" d="M542.3 304.9c-.1.1-4.6 1-4.6 1l-3.5 9.8h10.9l1.5-6.7-4.3-4.1z"/><path class="st19" d="M537 299.1l.6 6.7 8.9 3.1 2.8-12.6z"/><path class="st18" d="M551.8 294l-14.2 11.8-10.8-.7-2.5-10.6 22.8-4.9z"/><path class="st19" d="M556.7 295.9l3.9 21.4 13.7-.8-4.9-12.2zM548.1 288.2l-13.9 7.3-7.4 9.6-10.8-16.9 36.7-20.7z"/><path class="st10" d="M541.6 272v6.6l-7.4 16.9 35.2 8.8-10.3-23.9z"/><path class="st18" d="M551.6 257.5l6.2-10.2-13.6-18z"/><path class="st10" d="M543.6 269.5l-7.3-9.1 21.5-13.1-5.1 14.4z"/><path class="st20" d="M521.5 280.4l-4.6-10 19.4-10 16.4 1.3 4.9 10.3 1.5 8.4-17.5-1.8z"/><path class="st21" d="M520.5 299.1l1.4-9.5 19.7-11-20.1-4.5-22.2 2.3 4 16 16.3 6.7"/><path class="st19" d="M505.3 296.7l-1.5 7.6-4.4 19.1-12.9-.5 5.9-18.6z"/><path class="st10" d="M505.3 296.7l-1.5 7.6h-11.4l4.2-13.3z"/><path class="st18" d="M518.7 300.7l-5.7 3.6h-9.2l-12-17.9 13.5-4.1 4.7 4 1.6 5z"/><path class="st19" d="M519.6 302.2l-6.6 1.9-12.5 24.2 14.6.4 1.9-3.4zM493.2 281.9l-1.4 4.5 8.5 3.9 9.7-4-6.7-7.7z"/><path class="st20" d="M487.8 273.5l-4.5 3.4 8.5 9.5 8.5-2.2 9.7 2.1 11.5-12.2z"/><path class="st19" d="M491.9 262.8h-9.7l1.1 14.1 13.3 3.5 3.8-2.3 4.4 2.3 16.7-6.3-1-13.7z"/><path class="st18" d="M508.9 255.9l.4-3.2 13.9-6.6-2.7 14.3zM496.6 256.8l-4.2-4.1-14-6.6 3.8 16.7z"/><path class="st10" d="M500.3 274.1l-1.7-1.7-16.4-9.6s9.9-10 10.2-10h16.9l11.2 7.7-18.6 11.5-1.6 2.1z"/><path class="st20" d="M498.6 272.4l-2 8 3.6 1.5 4.6-1.5-2.9-8.4z"/><path class="st18" d="M496.6 280.4h8.2l-4.5 3.8z"/><path class="st22" d="M496.1 273.5c0 1.6-1.3 2.9-2.9 2.9-1.6 0-2.9-1.3-2.9-2.9s1.3-2.9 2.9-2.9c1.6 0 2.9 1.3 2.9 2.9zM511 273.5c0 1.6-1.3 2.9-2.9 2.9s-2.9-1.3-2.9-2.9 1.3-2.9 2.9-2.9 2.9 1.3 2.9 2.9z"/><path class="st10" d="M511.6 291.3l1.4 13 4 21 9.8-20.2-4.9-15.5z"/></g><g id="blue_board"><g id="_2178676356528_1_"><path class="st23" d="M121.5 265.3l.8 15.7 12.6-1.1-4.6-15.4-8.8.8zm-53.8 2.4l.4 17.5 12.2-3-3.7-15.3-8.9.8z"/><path class="st11" d="M45.8 202.3l90.7-9.9 13.6 73-100.7 8.5z"/><path class="st23" d="M76.9 194.6l7.7-.7-.9-4.2 11.8-2.2.6 5.3 8.1-.8 1.8 10.7-27.9 3z"/><path class="st8" d="M116 238.5l-33.4 1.1-1.2 8.3 35.5-2.8zM107.4 228l-18.5.3-.5 7.6 19.7.8zM97.7 225.8l-1.6-8.5 4.2.7-.7 7.4zM97.7 211.1l-1.6 3.7 2.1 2.1 1.8-2.6zM81.4 250.6l35.8-2 .6 9.3-36.4 2.5z"/><path class="st11" d="M87.8 253.3l-1.4 2.1 1.2 2.3 2.8-2.3zM99.9 252.4l-2.1 2.3 2.5 2.3 1.9-2.3zM110.7 251.9l-2.2 2.3 2.8 2.2 1.1-2.5"/></g></g><g id="_x32__characters_and_the_table"><path class="st24" d="M803.8 148.7c.2-.2.5-2.3.8-2.7.3-.4 2.7-4.2 2.7-4.2l4.9 3.2-1.1 4-7.3-.3z"/><g id="_2178683810560_1_"><path class="st25" d="M799 149.9l-.9 4.1 5.4-.7 7.6-4.2-6.5-3.1z"/><path class="st24" d="M800.6 144.2l-1.6 5.6s1.4 2.5 1.6 2.5c.2 0 2.7-2.3 2.7-2.3l-1.4-5.5-1.3-.3z"/><path class="st26" d="M786.1 168.4l-8.5 12.2-14.2 1 4.1-11.7 10.4-1.9z"/><path class="st27" d="M760 115.2l9.1 29h6.8l3.7-7.6-5.1-25.7z"/><path class="st24" d="M798.9 104.3l-1.3 32.2-23.1.2v-25.8z"/><path class="st28" d="M783.6 111.9l2.8 2.8-9.6-.3zM790.4 114.5l1.6-2.8 5.3 2.2z"/><path class="st27" d="M776.8 114.4l6.1 3.6 4.7 6.2-1.2-9.5zM790.4 114.5l-.2 9.7 3-6.5 4.1-3.8z"/><path class="st29" d="M786.4 114.7l4-.2-.2 9.7-2.5.5z"/><path class="st30" d="M787.6 124.2l1 1.5 1.6-1.5z"/><path class="st8" d="M783.9 129.1l4.5 2.8 4.5-2.6-4.1-.4z"/><path class="st31" d="M781.8 128.1l6.8 5.4 5.6-5-5.6 2.9z"/><path class="st32" d="M783.8 129.1l8.8.2 1.6-.8-1.8.1-3.8-1.1-3.8 1-3-.4z"/><path class="st28" d="M798.9 104.3l5.4-1.4-18.3-4.3-21.4-1.7-7.5 12.1 7.9 3.9 6.2-1z"/><path class="st33" d="M760.8 117.6l-3.7-8.6 14.1 2.9-.9 8.6-2.6.8-.7-5.7-2.4 3.3zM754.8 133.8l9.4 11.2 4.9-.8-7.4-23.8z"/><path class="st34" d="M764.6 96.9l22.6-8.1 17.1 14.1z"/><path class="st35" d="M782.9 116.5c.8 0 1.5.7 1.5 1.5s-.7 1.5-1.5 1.5-1.5-.7-1.5-1.5.7-1.5 1.5-1.5zM793.2 116.2c.8 0 1.5.7 1.5 1.5s-.7 1.5-1.5 1.5-1.5-.7-1.5-1.5c0-.9.7-1.5 1.5-1.5z"/><path class="st30" d="M786 136.6h-15.7l5.6 7.6h4.2z"/><path class="st36" d="M769.1 144.2l-4.9.8-3.3 1.4 3.6 12.7 8.1 2.6 13.2-1.5v-13.5l-5.7-2.5z"/><path class="st8" d="M769.1 144.2l1.8 5.5 3.7-4.8 3.6 5 1.9-5.7z"/><path class="st37" d="M785.8 146.7l10.3 10.5-7 5.3-3.3-2.3zM760.9 146.4l3.6 12.7-3.7 4.1-2.9 1.1-5.8-1.6zM763.4 181.6l3 19.3 6 .2 2.3-1.3 3.2-.4 4.2.1 4.1-1.3-10.9-13.2z"/><path class="st26" d="M763.4 181.6l26.2 9.5-26.2-9.5z"/><path class="st38" d="M764.5 159.1l21.3-3.5.3 12.8-18.6 1.5z"/><path class="st27" d="M766.4 200.9l1.7 10.7 3.7-1.9 2.9-9.9-2.9 1.3z"/><path class="st39" d="M771.8 209.7l5.8 7.3h-10.5l1-5.7z"/><path class="st32" d="M767.1 217l.4 1.3h9.7l.4-1.3z"/><path class="st40" d="M763.4 181.6l22.8 16.6-.1-29.8z"/><path class="st32" d="M773.9 212.2h-3.4l-.4 1.4h4.8z"/><path class="st30" d="M766.4 200.9l7.5 1.6.8-2.7z"/><path class="st27" d="M777.9 199.4l1.7 10.6 3.9-1.9 1.9-7.2-1.7-1.5z"/><path class="st39" d="M783.5 208.1l5.7 7.3h-10.6l1-5.8z"/><path class="st32" d="M778.6 215.4l.5 1.2h9.6l.5-1.2zM785.4 210.6H782l-.3 1.3h4.7z"/><path class="st30" d="M777.9 199.4l7.5 1.5.8-2.7z"/><path class="st40" d="M760.8 163.2l4.3 6.7-1.7 7.3-11.3-14.5z"/><path class="st41" d="M762.9 124.4l5.1-1.2-1-7.6-6.2 2z"/><path class="st30" d="M765.9 120.4l-.5-2.9-2.1.6z"/><path class="st24" d="M833.3 162.4l-6.7-3.1.6-5.2 3.5-2.7 2.5 1.1 2.5 7.1z"/><path class="st33" d="M854.2 181.9l-2.7 31.9 1.3 3.6 8.1 2.4 7.4-16.1-1.7-10.3z"/><path fill="#101210" d="M860.9 219.8v2.4h-16.7v-2.4l12.1-.9z"/><path fill="#5c5c5c" d="M887 188.1l-.8 28.6-11-2-21-32.8 11.8-.4z"/><path class="st38" d="M887.5 142.1l-7.4 1.1-12.6 8.4-4.1 14.1 2.5 18.8 6.7 8.6 14.4-5v-7.3l3.1-21.2 1.5-14.7z"/><path class="st27" d="M872.3 138.8l-1.3-12.4 5.5-20.9 13.8 11.6-4.8 22.4-8.4 8.4-4-.1-5.6 3.8-.1-1.6-.9-2.8.6-3.6z"/><path class="st30" d="M877.5 138.1L867.4 150l-2.1-6.5-.2-.5-16.8-5.4z"/><path class="st24" d="M846.8 105.1l20.8-6.5 8.9 6.9-4.1 32.6-24.1-.5z"/><path class="st27" d="M860.4 112.5l8.9.4-5 3-4.8 8.2zM856.7 112.3l-7.7.4 3.7 2.8 3.3 8.5z"/><path class="st44" d="M869.1 110.3l.2 2.6-8.9-.4.2-2.6zM849 110.5l7.6-.5.1 2.3-7.7.4z"/><path class="st45" d="M859.5 124.1l-3.5-.1 2.2 1.7z"/><path class="st30" d="M866.6 128.1l-4.6 1.1-8.4-.3.8 1.4 8.4.6 3.4-1.2z"/><path class="st24" d="M886 113.5l4.3 3.6-1.5 7.3-5.4-2.2z"/><path class="st30" d="M888.4 117.7l-1.7-1.4-.8 3.1zM883.4 122.2l4.7 5.4.7-3.2z"/><path class="st29" d="M860.4 112.5l-3.7-.2-.7 11.7 3.5.1z"/><path class="st44" d="M884.2 119.6l-3.1-3.5 1-5.7-5.6-4.9 10.5-3.3 6.9 1.4-3.6 13.5-4.3-3.6z"/><path class="st44" d="M876.5 105.5l1.4-4.2-2.6-3.5-2.3-1.2-5.4 2z"/><path class="st46" d="M893.9 103.6L889 91.1l-10.7 3.6-3 3.1 1.2 7.7 6.8-.7z"/><path class="st47" d="M889 91.1l-11.6-.3-6.8 3.3-3 4.5 7.7-.8z"/><path class="st46" d="M867.6 98.6l-6.6-1.3-1.3-3 .5-3.4 9.2-8 8 7.9z"/><path class="st44" d="M867.6 98.6l-20.8 6.5 7.8-8.3 5.1-2.5z"/><path class="st47" d="M846.8 105.1l-.8-2.3.9-11.1 22.5-8.8-9.7 11.4z"/><path class="st46" d="M846.8 105.1l-1.6 2.8h-2.5l4.2-16.2z"/><path class="st44" d="M842.7 107.9l4.6 7-.5-9.8z"/><path class="st8" d="M885.5 139.5l2 2.6-9.3 13.7-5.1-8zM867.1 143.6l-.8 3.2-1.6.6-5.5 1.7 5.9-6.1z"/><path class="st48" d="M864.7 147.4l2.7 2.6-.3-6.4z"/><path class="st49" d="M878.2 155.8l-8.2-5.9 3.1-2.1zM867.4 150l-4.8.8-3.4-1.7 5.5-1.7z"/><path class="st50" d="M865.9 184.5l-6.2 5.8-5.5-8.4 2.5-33.7 8.4-5.2-5.9 6.1 8.2.9.1 1.6z"/><path class="st51" d="M856.7 148.2l-1.6 22.6-9.7-7.8z"/><path class="st52" d="M900 168l-21.9 2.9v8.7l16.6 2.2z"/><path class="st51" d="M891.6 144.9l-6 10.6.3 14.4L900 168z"/><path class="st53" d="M860.9 219.8h-16.7l7.3-6z"/><path class="st54" d="M875.2 214.7l-4.4-7 15.9-5-.6 22.1z"/><path fill="#3b3b3b" d="M868.3 203.7l-1.9 3.7-13.8-6.7 1.6-18.8z"/><path class="st54" d="M886.9 194.5l-9.6-3 9.7-3.4z"/><path class="st27" d="M878.1 179.6l-4.4 1.5-1-5.1 1-5.7 4.4.6z"/><path class="st24" d="M873.7 181.1l-2.2-1.7-2.7-1.1-.3-1.2-.6-5.3 5.8-1.5z"/><path class="st13" d="M876.1 163.6l-5.5 6.2-.8.2-.5-.3-4.4-6.1z"/><path class="st3" d="M876.1 163.6l-6-1-5.2 1 5.2.9z"/><path class="st56" d="M873.4 165.4l-3.5 3.6-2.6-3.6z"/><path class="st38" d="M873.4 165.4l-3.3-.5-2.8.5 2.8.5z"/><path class="st3" d="M870.6 169.8l.1 1.2-1.5.5.1-1.8z"/><path class="st13" d="M868.5 177.1l-2.3 2 5.3.3z"/><path class="st52" d="M855.1 170.8l-9.1 8-12.7-16.4 4.7-5.5z"/><path class="st27" d="M838 156.9l-1.8-9.3-2.7-.1-.4 9 2.6 3.1zM826.6 159.3l-3.3-3.5 2.6-8.4 4.8 4z"/><path class="st53" d="M864.4 115.3c.8 0 1.5.7 1.5 1.5s-.7 1.5-1.5 1.5-1.5-.7-1.5-1.5.7-1.5 1.5-1.5z"/><circle class="st53" cx="852.3" cy="116.8" r="1.6"/><path fill="#858686" d="M716.5 200.9l84.4 5.2 9.5 17.4-3.3 33.1-9.6 8.6-13.6-1.9.2-16.7-61.1-4.7-2.6 12.1-13.2-1.9z"/><path class="st10" d="M716.5 200.9l84.4 5.2 9.5 17.4-3.3 33.1-8.3-19.6-98.4-12.5z"/><path class="st21" d="M886.7 198.6l-90-13.2-80.2 15.5 83.3 14.6 42.8 11z"/><path class="st16" d="M799.8 215.5l86.9-16.9 8.6 45.8-13.1 2.8-3.9-8.7-64.9 8.2-.7 15.3-15.2 3.2z"/><path class="st19" d="M799.8 215.5l86.9-16.9 13.3 21.2L798.8 237z"/><path class="st2" d="M796 173.1l-.5 3.7 3.8-2-.3 11-2.7 3.1-1.5 3.2 1.9 2.6 6.7-8.3-2.5-16.5-4.9 3.2z"/><path class="st15" d="M746.8 200.9l52.7 9.1 60.4-9.7-59-8.6z"/><path class="st58" d="M796.7 197.8l-23.3 3.5-10.9-3.5-1.6 2.5 12.9 3.7 24.3-3.7z"/><path class="st2" d="M796.7 197.8l-23.3 3.5-10.9-3.5.3-31.5 33.9 1.6z"/><path class="st56" d="M773.4 201.3l23.3-3.5v-20.2l-15.6-1.1-18.5 1.9-.1 19.4z"/><path class="st58" d="M762.8 166.3l20 3.8 13.9-2.2-7.2-3.3-18.5.1z"/><path class="st38" d="M762.6 178.4l8.2 3.4 13.1-2 7.1.5 5.7-2.6-15.7-2.2z"/><path class="st50" d="M784.4 188.1l-1.7-.8.8-1.6 1.4.7zM774.3 186.9l2.5 1.2-1.4 2.4-2.4-1.5zM769.3 183.4l1.1 1.4-1.2.7-.7-.8zM781.5 193l-.1 1.7 2.8.6-.2-2.4zM776 196l-.7.9 1.2.7.7-.7z"/><path class="st3" d="M824.2 188.2l-.4 11.3 1.2 1.5 1.3-1.4-1.1-8.8-1-2.6z"/><path class="st13" d="M825.3 190.8l-7-8h14.1z"/><path class="st7" d="M832.4 182.8l-7.1 1.1-7-1.1 7.1-1.7z"/><path class="st3" d="M823.9 196.9l1.1 1.3 1.1-1.1 4 2.7-5.1 1.1-5.7-.9z"/><path class="st56" d="M825.4 189.3l-3.3-3.6 7.1-.3z"/><path class="st38" d="M822.1 185.7l3.6-.6 3.5.3-3.8 1z"/><g><path class="st3" d="M838.5 188.5l-.4 11.3 1.2 1.5 1.3-1.4-1.1-8.8-1-2.6z"/><path class="st13" d="M839.6 191.1l-7-8 15.2-.5z"/><path class="st7" d="M847.8 182.6l-8.2 1.6-7-1.1 7.6-2z"/><path class="st3" d="M838.2 198.1l1.3.8.9-.8 5.2 3.1-5.9 1.3-6-1.6z"/><path class="st56" d="M839.6 189.7l-3.2-3.7 7-.3z"/><path class="st38" d="M836.4 186l3.5-.6 3.5.3-3.7 1.1z"/></g><g><path class="st3" d="M811.3 193l-.4 11.3 1.3 1.5 1.3-1.4-1-8.8-1.2-2.6z"/><path class="st13" d="M812.4 195.6l-7.8-9 15.8.2z"/><path class="st7" d="M820.4 186.8l-8.1 1.9-7.7-2.1 8.1-1.5z"/><path class="st3" d="M811 201.7l1.1.8 1-.9 5 3.2-6.2 1.4-5.7-1.6z"/><path class="st56" d="M812.4 194.4l-3.2-3.6 7.1-.3z"/><path class="st38" d="M809.2 190.8l3.6-.6 3.5.3-3.8 1z"/></g><path class="st33" d="M804.3 102.9l-5.8 11.7.4-10.3z"/><path class="st40" d="M803.5 153.3l-4.5-3.4-9.9 12.6 5.8 3.3z"/></g></g><g id="character_3"><g id="_2178679396688_1_"><path class="st52" d="M428 188.5l-18.8 27.1-31.5 2.3 9.1-25.9 22.9-4.3z"/><path class="st40" d="M469.2 178.4l2-11.3-21.3-3.3-6.4 4.2-5 10.5z"/><path class="st25" d="M467.3 166.5l1.9 11.9 10 3.5 5.9-5.6-1-9.5z"/><path class="st59" d="M483.3 163.2l-1.1-4-14.9 7.3 1 6.2 7.8-.7zM479.2 181.9l4.9-15.1 12.1.4.3 8.7z"/><path class="st27" d="M370.1 70.8L390 135h15.2l8.3-16.7-11.3-57z"/><path class="st24" d="M456.3 46.6l-3 71.4-51.1.4V61.3z"/><path class="st28" d="M422.4 63.5l6.2 6.4-21.2-.9zM437.4 69.1l3.5-5.9 11.7 4.8z"/><path class="st27" d="M407.4 69l13.3 8.2 10.4 13.6-2.5-20.9zM437.4 69.1l-.6 21.6 6.8-14.4 9-8.3z"/><path class="st29" d="M428.6 69.9l8.8-.8-.6 21.6-5.6 1.2z"/><path class="st30" d="M431.1 90.8l2.3 3.4 3.4-3.5z"/><path class="st8" d="M423.1 101.8l9.8 6.1 9.2-6-8.4-.8z"/><path class="st31" d="M419 100l14.5 11.3 12.4-11.7-12.4 7.2z"/><path class="st32" d="M422.8 101.8l19.3.1 3.8-2.3-3.9.7-8.3-2.2-8.8 2.1-5.9-.2z"/><path fill="#505454" d="M456.3 46.6l11.9-3-40.4-9.6-47.7-3.7-14.7 27.8 10.4 6.6 19.1-1.3z"/><path class="st33" d="M365.4 58.1l29.5 5.3-2.1 19.1-5.6 1.8-1.5-12.5-14.1 4.1zM374.8 86l-18.9 20.5 23.5 30.4L390 135z"/><path class="st34" d="M380.1 30.3l50.2-17.9 37.9 31.2z"/><path class="st35" d="M420.7 73.8c1.9 0 3.4 1.5 3.4 3.4s-1.5 3.4-3.4 3.4-3.4-1.5-3.4-3.4 1.5-3.4 3.4-3.4z"/><ellipse transform="rotate(-80.781 443.57578386 76.29667034)" class="st35" cx="443.6" cy="76.3" rx="3.3" ry="3.3"/><path class="st30" d="M427.8 118.2h-35l12.4 16.8h9.3z"/><path class="st36" d="M390 135l-10.6 1.9-7.2 2.9 7.8 28.1 17.7 5.7 29.5-3.1v-29.8l-12.7-5.7z"/><path class="st8" d="M390 135l4 12.2 8.5-10.7 7.8 11 4.2-12.5z"/><path class="st51" d="M427.2 140.7l22.7 23.1-11.4 14.7-11.3-8zM372.2 139.8l7.8 28.1-8.2 9.1-6.3 2.6-12.9-3.6zM377.7 217.9l6.5 42.7 13.2.3 5.2-2.7 7.2-1 9.1.4 9.2-3.1-24.1-29.2z"/><path class="st38" d="M380 167.9l47.2-7.7.8 28.3-41.2 3.5z"/><path class="st27" d="M384.2 260.6l3.7 23.7 8.5-4.1 6.2-22-6.2 2.7z"/><path class="st39" d="M396.4 280.2l12.8 16h-23.5l2.2-12.6z"/><path class="st32" d="M385.7 296.2l.9 2.9h21.6l1-2.9z"/><path class="st40" d="M377.7 217.9l50.4 36.6-.1-66z"/><path class="st32" d="M400.9 285.8h-7.6l-.8 2.8h10.6z"/><path class="st30" d="M384.2 260.6l16.7 3.7 1.7-6.1z"/><path class="st27" d="M409.8 257.2l3.7 23.4 8.4-4.1 4.5-15.9-3.9-3.4z"/><path class="st39" d="M421.9 276.5l12.7 16.1h-23.3l2.2-12.6z"/><path class="st32" d="M411.3 292.6l.9 2.8h21.5l.9-2.8zM426.3 282.1h-7.5l-.8 2.9 10.6-.1z"/><path class="st30" d="M409.8 257.2l16.6 3.4 1.7-6.1z"/><path class="st40" d="M371.8 177l7.6 21.1-1.8 6-6.3.9-18.7-29z"/><path class="st25" d="M371.3 205l2.9 7.8 5.2-1.3 7.3-9.2-7.3-4.2z"/><path class="st59" d="M374.2 212.8l3.5 5 12.4-7.3-3.4-8.2z"/><path class="st41" d="M376.5 91.1l11.2-2.6-2-16.7-13.9 4.3z"/><path class="st30" d="M383 82.3l-.9-6.4-4.8 1.4z"/></g></g><g id="character_2"><g id="_2178676328496"><path class="st3" d="M353.3 197.4l-60.8-4.1 9.1-8.1 51.7 12.2z"/><path class="st24" d="M353.3 197.4l14-6.3-1.1-10.9-7.4-5.7-5.3 2.4-5 14.9z"/><path class="st34" d="M309.7 238.2l5.9 66.3-2.9 7.7-16.9 5-15.2-33.6 3.5-21.5z"/><path class="st18" d="M295.8 317.2v5h34.9v-5l-25.1-2zM242.2 322v5.1h34.3V322l-26.1-2z"/><path class="st34" d="M241.4 251.1l1.7 59.5 22.9-4.2 43.7-68.2-24.6-.8z"/><path class="st38" d="M240.4 155.1l15.6 2.4 26.2 17.5 8.7 29.4-5.4 39.3-13.9 18.1-30.2-10.7v-15.4l-6.3-44.1-3.1-30.7z"/><path class="st27" d="M272.2 148.4l2.5-25.9-11.2-43.4-29 24.2 10.1 46.6 17.5 17.5 8.5-.2 11.6 7.8.1-3.2 2-6-1.2-7.4z"/><path class="st24" d="M325.2 78.1l-43.4-13.3-18.3 14.3 8.5 67.7 50.2-.8z"/><path class="st27" d="M296.9 93.6l-18.6.8 10.6 6.4 9.9 17zM304.5 93.2l16.3.8-7.8 6-6.9 17.7z"/><path class="st33" d="M278.9 88.9l-.6 5.5 18.6-.8-.3-5.3zM320.8 89.5l-15.9-1.1-.4 4.8 16.3.8z"/><path class="st45" d="M298.8 117.8l7.3-.1-4.4 3.5z"/><path class="st30" d="M285 126.6l26.7-1.2-7.9 13.5h-10.2z"/><path class="st24" d="M243.8 95.6l-9.3 7.7 3.3 15.1 11.3-4.6z"/><path class="st30" d="M238.6 104.5l3.5-2.8 1.8 6.2zM249.1 113.8l-9.8 11.3-1.5-6.7z"/><path class="st29" d="M296.9 93.6l7.6-.4 1.6 24.5-7.3.1z"/><path class="st44" d="M247.4 108.3l6.5-7.2-2.3-11.9 11.9-10.1-21.8-7-14.6 3 7.4 28.2 9.3-7.7zM263.5 79.1l-3.1-8.8 5.5-7.5 4.8-2.4 11.1 4.4z"/><path class="st46" d="M227.1 75.1L237.5 49l22.1 7.6 6.3 6.2-2.4 16.3-14.1-1.5z"/><path class="st47" d="M237.5 49l24.2-.7 14 6.9 6.1 9.6-15.9-2z"/><path class="st46" d="M281.8 64.8l13.9-2.9 2.6-6.3-.9-7.1L278.2 32l-16.5 16.3z"/><path class="st44" d="M281.8 64.8l43.4 13.3-16.1-17.3-10.8-5.2z"/><path class="st47" d="M325.2 78.1l1.7-4.5-1.8-23.3L278.2 32l20.1 23.6z"/><path class="st46" d="M325.2 78.1l3.4 5.7 5.2.3-8.7-33.8z"/><path class="st44" d="M333.8 84.1l-9.4 14.5.8-20.5z"/><path class="st8" d="M244.6 149.9l-4.2 5.2 19.5 28.7 10.7-16.6zM283.1 158.4l1.6 6.7 3.3 1.3 11.3 3.5-12.2-12.7z"/><path class="st48" d="M288 166.4l-5.7 5.4.8-13.4z"/><path class="st49" d="M259.9 183.8l17.2-12.2-6.5-4.4zM282.3 171.8l10.2 1.6 6.8-3.5-11.3-3.5z"/><path class="st50" d="M285.5 243.7l13 12 11.2-17.5-5.1-70.2-17.5-10.8 12.2 12.7-17 1.9-.1 3.2z"/><path class="st51" d="M304.6 168l3.4 46.9 20.2-16.2z"/><path class="st52" d="M214.4 209.2l45.6 6.1.1 18-34.6 4.6z"/><path class="st51" d="M232 160.9l12.5 22.3-.6 30-29.5-4z"/><path class="st19" d="M243.1 309.7l-.9 12.3h34.3L266 306.4l-10.2-4.5zM295.8 317.2h34.9l-15.1-12.7z"/><path class="st61" d="M266 306.4l9.4-14.5-33.1-10.5.8 28.3zM280.6 283.6l3.9 7.7 28.7-14-3.5-39.1zM241.8 264.4l19.6-6.1-20-7.2z"/><path class="st27" d="M260.1 233.3l9.1 3.2 2.2-10.6-2.2-12-9.2 1.4z"/><path class="st24" d="M269.2 236.5l4.7-3.4 5.5-2.4.8-2.4 1.3-11.1-12.3-3.3z"/><path class="st13" d="M264.1 200.1l11.7 12.8 1.6.3 1-.4 9.1-12.7z"/><path class="st7" d="M264.1 200.1l12.8-2.1 10.6 2.1-10.6 1.9z"/><path class="st56" d="M270 203.7l7.2 7.6 5.5-7.6z"/><path class="st38" d="M270 203.7l6.9-1.1 5.8 1.1-5.8 1.1z"/><path class="st3" d="M275.8 212.9l-.2 2.7 3.2.8-.4-3.6z"/><path class="st13" d="M280.2 228.3l4.7 4-11 .8z"/><path class="st52" d="M308 214.9l18.9 16.8 26.4-34.3-9.6-11.2z"/><path class="st27" d="M343.7 186.2l3.7-19.4 5.6-.2.8 18.6-5.3 6.6zM367.3 191.1l7-7.4-5.4-17.4-10.1 8.2z"/><path class="st53" d="M288.6 99.4c1.7 0 3.1 1.4 3.1 3.1s-1.4 3.1-3.1 3.1-3.1-1.4-3.1-3.1 1.4-3.1 3.1-3.1zM313.9 99.3c1.8 0 3.2 1.4 3.2 3.2 0 1.8-1.4 3.2-3.2 3.2-1.8 0-3.2-1.4-3.2-3.2 0-1.8 1.4-3.2 3.2-3.2z"/><path fill="#484748" d="M271.6 261.8l18.7 6.7 8.2-12.8-13-12z"/><path class="st8" d="M288.2 128.1l20.7-1.1-2.4 4-15.4.9z"/><path class="st30" d="M261.5 146.9l20.7 28.1 12.2-28.6z"/></g></g><g id="character_1"><g id="_2178676363280_1_"><path class="st45" d="M518.3 169.1l-7.1-5.9-9.8 6.5 12.2 10.3z"/><path fill="#124b4d" d="M666.1 317.9v6.9h40.5l-.7-6.9-25.1-4.4z"/><path fill="#134b4e" d="M590.5 308.6v6.1h47.2l-.2-6.1-23-3.8z"/><path class="st3" d="M511.7 161.2l-.8 28.7 2.7 3.8 2.8-3.7-.5-27-4.2-1.8z"/><path class="st13" d="M511.6 167.1l-19.3-20.2 40 .8z"/><path class="st56" d="M511.8 163.9l-7.4-8.1 14.9.3z"/><path class="st38" d="M504.4 155.8l8-.3 6.9.6-7.4 2.2z"/><path class="st7" d="M532.3 147.7l-20 1.7-20-2.5 20-2.8z"/><path class="st13" d="M510.8 188.5l2.7 3.9 2.8-3.7 11.3 5.8-15.1 6.7-12-5.3z"/><path class="st25" d="M530.3 176.1l-16.7 19.7-10.5-8.5-1.7-17.6 28.9 6.4z"/><path class="st50" d="M651.9 196.7l-56.8-7.1-3.6 38.9 47.3 8.5 13.1-40.3z"/><path class="st18" d="M650 272.2l-20.5-15.9-30.4 6.2 6.4 27.9 10.3 11.6 21.7 6.6z"/><path class="st38" d="M654 111.9l-53.1 12.5-18.6 43.8 12.7 21.4 38.3 36.6 3.1-77.9z"/><path class="st56" d="M678.4 113.7l-13.5 25.7-28.5 8.9-3.5 87.1 63.1-12.5-1.4-49.7L703 158l-9.9-34.5z"/><path class="st45" d="M654.7 183.2l1.1 7.4 9.1.7 8-5.2-15.6-4.9z"/><path class="st3" d="M652.7 183.7l-.8 28.7 2.9 6.3 2.6-6.2-4.7-28.8z"/><path class="st13" d="M654.4 186.2L639.6 170l33.6-1.3z"/><path class="st7" d="M673.2 168.7l-18.2 4.1-15.4-2.8 15.4-7.1z"/><path class="st58" d="M651.9 212.4l2.5 3.8 2.9-3.6 9 6.1-11.7 5.8-13.2-6.8z"/><path class="st10" d="M640.5 254l2.8-18.2 52.7-12.9-1 40.4-23.6 11.7-21.4-2.8z"/><path class="st50" d="M621 116.5l-12.9-1.5-6.5 2.6 13.3 5.9-6.2 30.4 27.3 3.8z"/><path class="st38" d="M636 157.7l37.2-3.6 5.2-40.4-32.1 26.5z"/><path class="st18" d="M591.4 228.5l49.1 25.5 55.5-31.1z"/><path class="st50" d="M693.1 123.5l1.5 49.7 18.7 11.4 23.8 3-15.1-22.5z"/><path class="st38" d="M694.6 173.2l42.5 14.4-63.5 21.1-.7-22.6z"/><path class="st59" d="M673.6 208.7l-.7-22.6-17.1 4.5 1.5 22z"/><path class="st45" d="M655.8 190.6l1.5 22-15.4-9.2.4-17.7z"/><path class="st50" d="M600.9 124.4l-5.9 65.2-12.8-6.4-18.7-23.6z"/><path class="st38" d="M595 189.6l-31.5-30-27.4 9.3-.8 25z"/><path class="st45" d="M535.3 193.9l.8-25-11.9-5.7-5.5.4.6 12.2-5.7 20z"/><path class="st25" d="M536.1 168.9l-11.9-5.7-2 .1-2.2 7.4 15.9 5.2z"/><path class="st59" d="M524.2 163.2l-8.4-.2-4.9 8.8 8.4 4z"/><path fill="#1a5d60" d="M605.5 290.4l32 18.2h-47z"/><path class="st51" d="M694.2 297.4l-13.3.1-12.6 10-2.2 10.4h39.8z"/><path class="st56" d="M654.4 184.1l-7.5-8.5 16.5-.7z"/><path class="st38" d="M646.9 175.6l8.4-1.4 8.1.7-8.8 2.5z"/><path class="st19" d="M599.1 262.5l50.9 9.7-9.5-18.2-49.1-25.5zM650 272.2l45-8.9-.8 34.1-25.9 10.1z"/><path fill="#fde4d5" d="M634.2 26.4l-29.4 13.2-26.4-8.6 11.2 103.9 34.9-2.5 11.8 24.7 12.7-34.3 20.6-22.3 5.1-6.6 3.7-3.1v-30l-16.7-2.1-7.1 25.4L646 80l17.1-44.8z"/><path class="st67" d="M634.2 26.4l9.3 104.1-19 1.9 6.9 11.1 4.9 13.6 6.3-12.3 10.4-4.6 25.4-26.5V94.4l-9.6-8.6-9.5-3.6-6.4-3.5L663.7 32z"/><path class="st68" d="M665.6 76.5l1.1-8.9 7.6 1.3zM678.4 85l-19.1-2.8 19.1 12.2zM604.2 89.4l6 4.4 4.6-5.4z"/><path class="st67" d="M626.3 61.7l-8 4.1-3.5 22.6-3.8-17.2 1.2-12.5zM601.6 59.9l4.8 10.4-3 10-8-14.5-7.3-2.5z"/><path class="st68" d="M644 130.4l9 9.8-17 17.5-11.5-25.3z"/><path class="st69" d="M601.3 55.8l-13.6 3 .4 4.5 13.5-3.4zM611.8 54.6l14.8 2.6-.3 4.5-14.1-3z"/><path class="st68" d="M634.5 96.9l-42.4 4.1 19.5 9.5z"/><path class="st8" d="M623.8 100.5l-22.9 2.2 10.8 5.7z"/><path fill="#464647" d="M622.1 4.9l31.7 10-9.8 9.5-9.8 2-29.8 16.2 5.9-19z"/><path class="st46" d="M653.8 14.9l25.9 9-11.7 9.3-8.5 2.6-25.3-9.4z"/><path class="st69" d="M679.7 23.9l-1.3 37.9-16-.8-3.1 21.2-12.9-3.1 13.1-43.3z"/><path fill="#8d8d8d" d="M604.4 42.6l17.7-37.7-42.4 26.3z"/><path class="st22" d="M596.3 66.4c1.9.4 3 2.1 2.6 3.9-.4 1.9-2.1 3-4 2.6-1.9-.4-2.9-2.1-2.6-4 .4-1.8 2.1-2.9 4-2.5zM621 65c1.9.4 3 2.2 2.6 4-.4 1.8-2.2 3-4 2.6-1.8-.4-2.9-2.2-2.6-4 .5-1.9 2.2-3 4-2.6z"/><path fill="#fff1e8" d="M612.2 58.7l-10.6 1.2 2.6 29.5 10.6-1z"/></g></g></svg>