<svg xmlns="http://www.w3.org/2000/svg" viewBox="-152 -152 400 400"><path fill="#231f20" fill-opacity=".102" d="M159 230.652l-32.015-5.654-64.909-9.538-129.465 13.309 88.706 18.138z"/><path opacity=".4" fill="#9ca0a2" d="M41.049 230.652l27.975-15.192-.47-61.378 8.365-17.673-10.366-6.594-11.779-29.687L65.141 72.8l15.431-24.388 17.79-11.898 7.773-30.158 19.908-11.427 20.148 11.427 6.243 35.105 22.38 22.263 7.071 36.992 10.48 14.725 1.77 26.034 9.777 18.26 1.53 24.151-3.296-4.595-4.241-7.537-.475 15.074-6.591-8.597.113 5.184-1.766 9.071-4.711-20.261-7.307-9.782-3.06 5.066v13.434l-4.948-8.718.354-12.018 3.652-12.133-16.138-17.907-30.043 94.831-68.091 16.373z"/><path fill="#207778" d="M53.009 213.102l5.885 21.203-18.845 3.535-18.85-3.535 9.19-21.557 13.311-8.012zM7.062 212.748v14.368l-19.791 3.54-27.918-3.54 25.562-18.609 11.664-1.766z"/><path fill="#eed0ca" d="M-81.997 3.882l13.549-18.376-15.434-4.006-19.909 11.663 12.488 15.549 7.894-.47z"/><path fill="#207778" d="M77.508 22.377L66.553 40.402 69.024 72.8l13.907 15.431 16.137 4.125 10.837-13.201z"/><path fill="#359495" d="M102.015 126.278l7.89-47.123-26.974 9.076-2.712 32.276 9.778 11.073z"/><path fill="#fdeee9" d="M80.219 120.507l-8.718 9.543-2.825 9.424 12.956 11.308 13.666-3.178 6.717-21.326z"/><path fill="#eed0ca" d="M95.298 147.604l-8.954 10.366-17.79-3.888.122-14.608zM80.219 120.507l-13.666 9.308 2.123 9.659z"/><path fill="#195f61" d="M-68.448-14.494l9.778-4.359-2.003-3.182-4.595 1.061-2.945 3.651z"/><path fill="#359495" d="M-72.807-.712l-18.496 9.424 21.676 46.533 11.898-5.301 7.539-16.257z"/><path fill="#207778" d="M-53.605 27.442l-16.022 27.803 46.062-4.83 8.48-11.428-8.48-27.094zM-83.882-18.5l9.66-4.595 5.774 8.601 5.889-11.781 1.177-8.836-34.396-65.852-7.539 4.006 16.726 38.758-4.24 7.304 7.422 16.728-6.951 4.357z"/><path fill="#195f61" d="M-72.101-55.608l-13.782 6.007 9.54 21.088 14.961-6.598z"/><path fill="#fdeee9" d="M-83.409-34.167l-6.951 4.357-8.01-14.843 7.539-6.242zM-68.448-14.494l-16.611 8.481-5.419-9.189 16.256-7.893z"/><path fill="#207778" d="M-85.059-6.013L-97.546.349l-6.245-7.186 13.313-8.365z"/><path fill="#195f61" d="M-40.647 227.116H7.062v7.071h-47.709z"/><path fill="#318ea5" d="M7.062 127.927l-39.228-13.78 8.601 13.78 4.359 41.939 13.664 10.955 20.734-4.708 3.769-16.613 3.533-5.301-6.949-10.601z"/><path fill="#2b798c" d="M-15.085 208.507l22.147 4.241 8.13-36.635-34.398-6.247z"/><path fill="#3c9fb9" d="M66.553 129.815l-9.425-14.374-41.583 28.157 7.069 33.099 18.73 1.77 19.202-12.014z"/><path fill="#318ea5" d="M30.389 212.748l22.62.354 7.537-46.649-37.932 10.244z"/><path d="M10.833 141.475l-3.771-13.548 3.771 13.548z" fill="#3c9fb9"/><path fill="#2b798c" d="M-18.147 119.095l33.692 24.503 5.89-2.123 29.804-25.915-20.497-10.367-14.961-12.367-23.562 9.303z"/><path fill="#eed0ca" d="M-9.546-9.546L8.006 23.791 45.232 1.762l3.651-8.836 14.492-50.301-14.257-15.667-23.795-40.171-2.947 85.524L8.595-9.546z"/><path fill="#d6bab6" d="M35.807-61.144L32.98-50.425l-9.307 7.775-2.003 12.487L7.298-5.189h20.97l6.598-20.144 10.248-33.22z"/><path fill="#5f5145" d="M-59.426-104.544l-2.074-12.793 5.304-16.022 61.728-17.67 46.178 15.667 6.948 14.843-10.011 12.725-23.324-5.419-10.486-5.065-36.517 6.124-22.325-1.059z"/><path fill="#fdeee9" d="M-59.426-104.544l4.658 74.734 24.487 24.621h38.64l7.775-17.199 7.539-20.262 1.65-70.445-10.603-5.183-36.991 6.477-26.269-4.123z"/><path fill="#fff5f4" d="M-29.219-71.277h7.184l3.064 21.912h-11.898z"/><path fill="#cda29e" d="M-30.869-49.365l6.007 6.126 5.891-6.126z"/><path fill="#eed0ca" d="M12.128-79.758L-7.898-69.509l-11.543 16.611-2.594-18.379 3.77-9.07L.702-85.53zM-33.226-79.169l4.007 7.892-1.297 16.846-11.663-13.546-12.134-12.487 6.362-4.006z"/><path d="M-37.231-67.977c0 2.474-2.003 4.594-4.595 4.594-2.474 0-4.593-2.003-4.593-4.594 0-2.592 2.001-4.595 4.593-4.595 2.473 0 4.595 2.003 4.595 4.595zM-7.545-74.104c2.539 0 4.594 2.058 4.594 4.595 0 2.539-2.056 4.594-4.594 4.594-2.537 0-4.595-2.056-4.595-4.594 0-2.537 2.058-4.595 4.595-4.595z" fill="#2b2b2b"/><path fill="#46382d" d="M-56.196-133.359l8.481 17.435 26.035 3.77 47.003-1.059-26.271-15.316z"/><path fill="#362c24" d="M-51.722-112.624l29.687 2.709 1.414-12.017-35.575-11.427z"/><path fill="#74675b" d="M25.323-113.213l26.387-22.149 6.948 14.843z"/><path fill="#fff5f4" d="M42.522-50.425l17.67 4.36 6.361-21.794-17.435-5.183z"/><path fill="#cda29e" d="M48.294-54.784l13.429-9.307-9.896-2.709zM42.522-50.425l14.959 13.429 2.711-9.069z"/><path fill="#195f61" d="M21.199 241.371h37.695v-7.066H21.199z"/><path fill="#50a8aa" d="M77.508 22.377L45.232 1.762 22.376 75.624l24.976 3.889L69.024 72.8z"/><path fill="#359495" d="M66.553 129.815L69.024 72.8l-46.648 2.824-.941 65.851z"/><path fill="#50a8aa" d="M8.006 23.791l-31.571-11.898v58.902l13.428 8.718 18.143-3.182z"/><path fill="#359495" d="M-22.271 137.708L8.006 76.331l-31.571-5.536-28.274 45.706z"/><path fill="none" d="M66.553 129.815l-15.314 78.338"/><path fill="#195f61" d="M30.506 105.193l3.534-29.451-15.079-14.961-10.955 15.55-15.787 25.798z"/><path fill="#207778" d="M34.04 75.742l11.192-73.98L8.006 23.791v52.54l14.37-.707z"/><path fill="none" d="M-23.565 127.927l8.48 80.58"/><path fill="#93d4d5" d="M22.376 75.624l5.304 4.713 6.477-5.419 13.784-52.541-5.183-2.001-9.072 14.134z"/><path fill="#74cacb" d="M22.376 75.624l-.941 65.851 10.719-2.707 1.886-61.373.117-2.477z"/><path fill="#195f61" d="M37.457 20.493L68.083 5.297 45.232 1.762z"/><path fill="#74cacb" d="M33.686 34.51L71.972 2.586l-23.089-9.66-3.651 8.836 11.661 2.945-19.436 15.786z"/><path fill="#93d4d5" d="M-.477 74.918l2.945 6.008 5.538-4.595V34.51l-9.071-14.134.706 8.127z"/><path fill="#74cacb" d="M-.477 74.918l-1.53 3.183-26.859 54.891 6.595 4.716L8.006 76.331z"/><path fill="#195f61" d="M-17.676 11.893L5.06 27.442l2.946-3.651L-4.836-2.598z"/><path fill="#74cacb" d="M-4.836 3.294l-3.769-5.892-4.83-.47-10.13 14.961L8.006 34.51V23.791l-18.143-13.784z"/><path fill="#207778" d="M37.692 38.987l-3.535 2.945 2.121 4.006 3.18-3.535zM33.333 58.894l-3.535 2.947 2.121 4.006 3.3-3.535z"/><path fill="#195f61" d="M27.68 88.58l-2.71 3.776 3.18 3.294 2.239-4.241zM27.797 111.91l-2.709 3.65 3.18 3.417 2.121-4.242z"/><path fill="#eed0ca" d="M-90.36-29.81l6.478 11.31-19.909 11.663-5.653-12.487z"/><path fill="#fdeee9" d="M-81.997 3.882l9.19-4.594 4.359-13.782-12.96 6.596z"/><path d="M38.399-77.519l-2.474 16.493 9.189 2.474 4.122-14.49 17.435 5.183 1.883-11.898-11.896-3.533-18.141 5.772h-.118zm10.837 4.477v-.236h.117l-.117.236z" fill="#46382d"/><path fill="#74675b" d="M25.323-113.213l46.53 10.837-3.413 22.618-30.041 2.239L24.851-96.84z"/><path fill="#5f5145" d="M71.853-102.376L24.851-96.84l.472-16.373 33.335-7.306z"/><path fill="#46382d" d="M38.399-139.837L15.31-129.824l-71.506-3.535 22.147 15.198 12.014 8.246 47.358-3.298 26.387-22.149z"/><path d="M73.741 44.288l-30.63-4.357-.471 3.18 5.183.706-4.712 19.906 20.612 1.417 4.359-18.496 5.187.706.471-3.18v.118zM47.233 60.899l1.885-7.777 7.068 3.771 6.718-1.647-1.534 6.713-14.018-.941-.119-.119zM63.61 51.71l-7.07 1.77-6.714-3.535 1.295-5.539 13.666 2.003-1.299 5.418.122-.117zM-23.565 34.51v1.65l11.308 1.651-.236 3.415-11.072 2.944v3.181l10.836-2.707-.47 8.836-10.366-1.77V54.656l13.311 2.59 1.179-18.965 13.664 2.121.471-3.182-28.39-4.239z" fill="#93d4d5"/><path fill="#cda29e" d="M-30.869-31.576v3.063l25.092-2.238-.825-3.063z"/><path d="M23.673-42.65L4.824-24.271l-6.36-12.725-23.326-6.243-13.664 8.954-.588 7.657-16.418-15.432.764 12.25 24.487 24.503h38.64l14.726-13.899.588-23.562v.118zM-9.666-18.265l-13.193.471-8.01-4.83v-8.952l24.267-2.238L-3.54-23.33l-6.126 5.065z" fill="#eed0ca"/><path fill="#cda29e" d="M-15.202-5.189l-.589-12.958h-1.649l-2.239 12.958zM8.006 23.791l20.262-28.98h-43.47z"/><path fill="#46382d" d="M-18.265-80.347l2.239-4.359L.349-87.415l11.661 3.298.118 4.359L.112-83.291zM-33.226-79.169l-2.944-4.713-12.134-2.473-6.48 2.238.471 3.653 6.598-2.003z"/><path fill="none" d="M-151.5-151.5h399v399h-399z"/></svg>