<svg xmlns="http://www.w3.org/2000/svg" viewBox="0 0 400 400"><path fill="#e8d586" d="M131.633 100.171l-1.847 26.487 19.313 19.187 3.02-8.843-13.67-25.43z"/><path opacity=".1" fill="#33302d" d="M117.693 391.896l70.237-25.663 77.002 17.485 17.375 8.178L191.03 400z"/><path fill="#1a7578" d="M157.659 191.632l9.449 39.983-5.335 5.496-2.135 5.875-21.794-14.486 11.276-38.785 8.539-12.153zM240.279 217.978l5.974 18.324-6.736 11.525h39.097l-26.381-87.148-10.692 31.82z"/><path fill="#f3d9d4" d="M207.355 58.74l13.749 21.236v34.69l-20.928 49.244-9.673.494-9.673-27.402z"/><path fill="#fef3f1" d="M140.38 32.887l-12.213 18.217 2.584 39.886 3.826 20.335.499 6.067 17.043 19.61h34.949l18.183-17.851 1.513-56.227-14.151-30.037z"/><path fill="#d5aba6" d="M173.267 137.002l17.236 27.402v-7.101l13.339-20.291z"/><path fill="#a9965b" d="M170.916 69.886l-1.122 3.297 16.093-4.551 12.926 3.298-12.267-6.661zM158.306 73.634l-1.042-3.023-15.301-4.221-8.552 6.793 8.772-3.363z"/><path fill="#fff9f9" d="M161.221 79.053h5.012v18.598l2.77 5.276h-11.344l3.166-5.276z"/><path fill="#d5aba6" d="M157.659 102.927l5.672 5.408 5.672-5.408z"/><path fill="#2e8ea8" d="M151.988 119.151l3.414 3.826h17.379l5.587-3.826-15.037-.967z"/><path fill="#f3d9d4" d="M171.641 104.115l4.982 1.516 1.745 5.694zM153.439 104.115h2.769l-4.089 6.053zM198.813 71.93l-20.049 11.212-10.009 19.312-2.522-4.803V79.053l3.561-5.87 16.093-4.551zM158.306 73.634l2.915 5.419-.396 18.598-10.816-13.718-16.598-10.75 8.772-3.363z"/><path d="M182.721 83.142c0 2.185-1.772 3.957-3.957 3.957-2.186 0-3.958-1.772-3.958-3.957 0-2.186 1.771-3.957 3.958-3.957 2.185 0 3.957 1.771 3.957 3.957zM153.966 83.142c0 2.185-1.771 3.957-3.957 3.957-2.185 0-3.957-1.772-3.957-3.957 0-2.186 1.772-3.957 3.957-3.957 2.186 0 3.957 1.771 3.957 3.957z" fill="#33302d"/><path fill="#52a8ab" d="M161.634 215.654l7.857 22.911 25.233 13.478 41.417-14.07 16.092-77.294-35.03 23.061-24.59-2.777-16.092 1.523-5.219 15.126z"/><path fill="#339396" d="M249.859 313.79l-28.771 75.797.456 4.081L191.03 400l-25.791-6.59.44-3.823-15.309-20.539-3.131-50.721 17.307-62.161 30.178-4.123 30.984 4.123 18.084 65.898z"/><path fill="#fef3f1" d="M192.438 199.37l24.765-15.63-17.027-26.931-9.673.494-10.816 5.148-3.166 20.035z"/><path fill="#339396" d="M176.239 199.37l67.478 2.215-6.582 31.464-42.411-13.18-27.616 11.746-5.474-15.961z"/><path fill="#cab770" d="M129.786 19.969l8.663 24.174-13.633 11.959-5.408-18.067z"/><path fill="#e8d586" d="M169.003 16.492l-5.672 21.144-24.882 6.507-8.663-24.174 26.554-3.477zM216.18 22.599l21.53 20.418 18.041 15.723-3.518 14.443-45.469-10.259-18.152-19.907z"/><path fill="#e8d586" d="M217.203 87.099l42.417 8.222-7.387-22.138-45.469-10.259z"/><path fill="#cab770" d="M221.104 114.666l27.699 11.256 10.817-30.601-42.417-8.222z"/><path fill="#e8d586" d="M200.176 156.809l52.057 3.87-3.43-34.757-27.699-11.256z"/><path fill="#a9965b" d="M217.203 183.74h24.338l10.692-23.061-52.057-3.87z"/><path fill="#e8d586" d="M215.96 200.675l17.804.584 7.777-17.519h-24.338z"/><path fill="#a9965b" d="M228.315 216.605l5.449-15.346-17.804-.584zM158.583 0l10.42 16.492 54.739-13.854z"/><path fill="#cab770" d="M216.18 25.853l7.562-23.215 25.304 28.384 1.67 22.364zM129.786 19.969L158.583 0l10.42 16.492H156.34z"/><path fill="#e8d586" d="M169.003 16.492l54.739-13.854-7.562 23.215z"/><path fill="#cab770" d="M206.764 62.924l30.946-19.907 18.041 15.723-1.444 5.929-2.074 8.514z"/><path fill="#a9965b" d="M125.937 66.39l-4.815 13.586 13.455 31.349-2.108-24.278z"/><path fill="#e8d586" d="M121.122 79.976l11.347 7.071-1.749-23.442-5.904-7.503z"/><path fill="#a9965b" d="M138.449 44.143l-7.729 19.462-5.904-7.503zM249.046 31.022L237.71 43.017l13.975 12.179z"/><path fill="#52a8ab" d="M169.153 239.766L137.844 228.5l-6.257 21.52 10.265 17.395 5.387 50.139z"/><path fill="#6dc1dc" d="M167.108 231.615l27.616-11.746 42.411 13.18-.904 4.331-21.282 5.606-45.796-3.22z"/><path fill="#fef3f1" d="M195.779 233.049l-1.055 18.994 30.984 4.075-4.604-16.582z"/><path fill="#fef3f1" d="M195.779 233.049l-26.626 6.717-4.607 16.352 30.178-4.075z"/><path fill="#f3d9d4" d="M195.779 233.049l-12.227 3.084-1.058 17.76 12.23-1.85z"/><path fill="#d5aba6" d="M221.104 239.536v15.975l5.1.607z"/><path fill="#a9965b" d="M190.503 157.303l-13.982 25.183-5.012 4.761 4.73 12.123-14.605 16.284-12.514-25.939 9.375-5.975-3.782-15.041-10.463-15.759 17.384-11.519 5.742 9.282z"/><path fill="#e8d586" d="M144.25 152.94l46.253 4.363-17.236-20.301h-21.148zM154.713 168.699l21.808 13.787-.282 16.884-27.119-9.655z"/><path fill="#52a8ab" d="M246.253 236.302l32.361 11.525-34.822 73.42-22.688-81.711z"/><path fill="#339396" d="M131.587 250.02l32.959 6.098-17.307 61.436zM278.614 247.827l-52.906 8.291 18.084 65.129z"/><path fill="#2e8ea8" d="M190.991 187.247l-3.061-8.513 3.061-8.514h6.124l3.061 8.514-3.061 8.513z"/><path fill="#86cfe7" d="M192.167 183.977l-1.886-5.243 1.886-5.245h3.772l1.886 5.245-1.886 5.243z"/><path fill="#52a8ab" d="M190.503 157.303l.488 12.917-1.218 3.391-1.843-11.674z"/><path fill="#339396" d="M197.115 170.22l3.061-13.411 2.293 3.627-4.135 13.175z"/><path fill="#f3d9d4" d="M192.438 199.37l-1.447-12.123-3.923 6.427z"/><path fill="#6dc1dc" d="M182.494 253.914l-16.815 135.673-27.835-5.869 9.395-65.391 17.307-62.161zM264.932 383.718l-43.844 5.869-12.294-135.673 16.914 2.252 18.084 65.081 8.495-17.912z"/><path fill="#25768d" d="M243.792 321.247l-34.998-67.354 17.41 2.225zM147.239 317.554l35.255-63.661-17.948 2.225z"/><path fill="#86cfe7" d="M230.114 238.377l18.954 71.791-5.276 11.079-22.688-81.711zM161.773 237.111l-17.864 66.074 3.33 14.369 21.914-77.788z"/><path fill="#3b9fbc" d="M243.792 321.247l9.854-8.154-1.359-9.758z"/><path fill="#3b9fbc" d="M243.792 321.247l21.14 62.471-12.645-80.383z"/><path fill="#25768d" d="M150.669 119.151h29.018l-11.04-3.386-5.521 1.144-4.837-1.275z"/><path fill="#a9965b" d="M129.786 126.658l22.333 10.344-5.012 10.151z"/><path fill="#cab770" d="M169.003 16.492h20.752l26.425 9.361-27.568 17.164-25.281-5.381z"/></svg>