<svg xmlns="http://www.w3.org/2000/svg" viewBox="0 0 400 400"><g fill-rule="evenodd" clip-rule="evenodd"><path fill="#707073" d="M177.357 148.905l-10.732 4.439-4.502-9.527 2.233-5.304-.689-4.067-24.811-39.984 14.39 10.68 27.791 25.758 9.266 25.443z"/><path fill="#4f5254" d="M176.907 130.9l-38.051-36.438 24.811 39.984zM185.81 144.006l-7.241-5.157-1.212 10.054 12.946 7.44z"/><path fill="#ffede8" d="M199.026 150.977l-11.912 5.169-2.463 15.499 19.805 28.666 36.234-32.597 2.235-13.614-18.159-7.473z"/><path opacity=".102" fill="#2b2b2b" d="M195.755 372.632l120.155 13.244-62.129 8.256-55.975 6.367-115.717-14.762z"/><path fill="#26788c" d="M242.241 227.823l18.983 39.034-36.678 17.212-11.365.645-8.911-3.101-29.23-22.116 4.144-22.855 27.62-4.513 11.446 1.416z"/><path fill="#266678" d="M177.111 248.066l2.073-11.424 27.62-4.513 11.446 1.416 4.888-1.164-.481 31.653z"/><path fill="#363636" d="M178.569 138.849l10.59 16.41 11.925-4.15-14.051-20.63-10.126.421zM242.925 154.1l12.15-5.774-7.491-9.852-4.102 4.33z"/><path fill="#3ba1ba" d="M261.224 266.857l-8.594 44.41-14.27 6.58-20.329-2.299-4.85-30.834zM213.181 284.714l-15.221 30.368-23.325 2.735-7.959-12.19 8.364-46.13z"/><path fill="#308fa6" d="M218.035 315.548l7.323 43.973 9.262 4.431 8.671-4.431 9.339-48.254z"/><path fill="#2e8299" d="M197.96 315.082l-20.693 41.285-12.53 8.744-8.37-8.744 10.309-50.74z"/><path fill="#175e61" d="M244.357 364.818l3.019 5.298 6.405 16.599-16.838 5.054-20.552-5.054 5.473-16.599 3.328-4.305 3.178-2.461 14.123-.838z"/><path fill="#369496" d="M216.391 386.715h37.391v7.417h-37.391zM119.937 382.751h57.33v-7.031l-20.491-5.229-36.839 5.229z"/><path fill="#175e61" d="M174.814 361.205l2.453 4.839v9.671h-57.332l26.949-14.311 10.588-1.041z"/><path fill="#ffede8" d="M196.727 19.906l-33.717 5.411-9.715 33.543 6.014 55.188 17.598 16.852 10.126-.421 22.131 8.587 25.481-25.426-8.66-68.657z"/><path fill="#cfa39e" d="M183.097 26.162l-17.035 2.401-4.635 10.998 19.572 11.389zM187.033 130.479l17.036 35.467 23.475-39.428-15.389 2.913z"/><path fill="#f0d1cc" d="M204.069 165.946l23.024-17.682 12.206-31.414 9.005-10.319 4.984-35.146-15.315-18.787-11.988-7.615-.13 65.726-13.7 18.722 11.43-.629z"/><path fill="#ffede8" d="M245.469 96.128l1.094-24.743-11.113 24.743z"/><path fill="#73cccc" d="M264.389 161.454l13.209 31.215-17.388 28.169-18.644-24.634z"/><path fill="#4fa8ab" d="M179.788 177.767l-8.935 17.169 4.087 31.43 72.787-22.02 16.662-42.892-21.468-7.354-21.191 12.375-7.133 14.929-10.82 10.429z"/><path fill="#8ce0db" d="M176.315 160.197l-6.997 2.573-26.216 60.679 31.089-2.832 2.726-9.85z"/><path fill="#1c7578" d="M245.199 217.52l2.528-13.174-43.95-12.513-4.614 15.23 7.641 25.066 25.057.956z"/><path fill="#369496" d="M277.598 192.669l-47.726 36.607-3.74 6.658 10.563 6.383 52.669-21.834z"/><path fill="#4f5254" d="M269.987 41.118L233.191 1.499l-48.628 7.548-24.591-5.311-22.817 20.894 2.972 15.157-9.354 13.598 8.083 41.077 8.187-1.815 6.252-33.787 12.767-30.296 27.443-3.873 32.48 20.292 11.548 31.152 5.737 2.584 2.199 17.409-.217 4.834-15.601 26.952-2.558 20.35 15.832 5.836 7.812-26.186-6.823-11.081 19.845-9.525 14.054-22.247-12.204-25.957z"/><path fill="#f0d1cc" d="M229.868 229.276l-23.064 2.853 21.053 15.308 8.842-5.12z"/><path fill="#f0d1cc" d="M236.695 242.317l2.653 13.086-16.691 8.631-9.476-8.631 4.045-11.1z"/><path fill="#369496" d="M242.921 154.1l-23.657 5.047-8.2 25.662zM181.807 225.248l24.997 6.881-3.027-40.296-34.627 6.761z"/><path fill="#73cfe6" d="M200.288 199.011l-2.678 3.251 3.217 1.795 2.14-2.235zM200.288 210.185l-2.678 3.251 3.217 1.793 2.14-2.229z"/><path fill="#73cccc" d="M188.736 155.442l-19.418 7.328-.168 35.824 34.627-6.761z"/><path fill="#369496" d="M188.736 155.442l-13.515 11.721 25.396 17.025z"/><path fill="#4fa8ab" d="M143.102 223.449l31.565-13.236 32.137 21.916-13.593 9.639z"/><path fill="#fff5f2" d="M183.306 70.748h4.797l4.452 22.076-11.251-.006z"/><path fill="#cfa39e" d="M181.304 92.818l5.21 5.097 6.041-5.091z"/><path fill="#f0d1cc" d="M216.867 60.543l-14.427 9.869-10.903 17.369-3.434-17.033 3.91-7.847 14.486-5.329zM157.724 63.766l10.966 8.428 13.027 16.063 1.589-17.509-3.632-7.451-16.754-1.287z"/><path fill="#1c7578" d="M205.079 104.523l-10.315 9.181-11.458.733-11.145-8.6z"/><path fill="#fff" d="M202.483 104.895l-9.564 6.061-8.761.213-9.655-5.033 13.285-.514z"/><path fill="#4fa8ab" d="M172.161 105.837l15.704 1.158 17.214-2.472-14.197-1.498-3.137 1.713-2.582-1.45z"/><path fill="#363636" d="M153.295 58.86l-14.439 35.602 20.453 19.586z"/><path fill="#cfa39e" d="M235.45 96.128l5.287 12.635 4.515-7.801.217-4.834z"/><path fill="#707073" d="M188.496 18.488l26.202 32.462h-33.699l-22.787-32.462z"/><path fill="#363636" d="M188.496 18.488l44.695-16.989-51.887 4.472-21.332-2.235-1.76 14.752z"/><path fill="#474747" d="M235.45 96.128l11.113-24.743-20.578-26.402z"/><path fill="#707073" d="M225.985 44.983l44.002-3.865 7.826 43.943-31.25-13.676z"/><path fill="#363636" d="M245.252 100.962l-15.601 26.952h21.086l13.022-20.606z"/><path fill="#424242" d="M158.212 18.488l-4.917 40.372 12.475-29.606z"/><path fill="#707073" d="M153.295 58.86l-22.522-5.475 6.382-28.755 21.057-6.142z"/><path fill="#f0d1cc" d="M203.008 100.126l3.003 7.906 2.306-5.226zM172.501 100.944l-.549 8.394-3.655-4.196z"/><path fill="#308fa6" d="M245.469 96.128h-7.017l3.311-4.929h3.083z"/><path fill="#5ebfd9" d="M238.452 96.128l-.119 6.897h5.725l1.194-2.063.217-4.834z"/><path fill="#f0d1cc" d="M228.911 365.808h12.179l6.286 4.308-4.085-10.595h-17.933l-3.494 10.595zM146.884 361.404l7.438 4.64h22.945v-9.677h-20.902z"/><path fill="#ffede8" d="M206.804 232.129l29.895 10.188-10.238 5.697-13.28 7.389-19.97-13.635z"/><path fill="#f0d1cc" d="M203.777 191.833l4.581-4.415-3.036-11.354-3.671 10.624z"/><path fill="#2b2b2b" d="M192.013 62.901l1.699-3.835 13.426-2.777 9.729 4.254-10.161-1.103zM179.674 63.297l-2.797-3.084-13.829-1.109-5.324 4.662 5.196-1.756zM205.279 70.422c0-2.22-1.738-4.019-3.879-4.019-2.142 0-3.878 1.799-3.878 4.019 0 2.218 1.735 4.018 3.878 4.018 2.141 0 3.879-1.8 3.879-4.018M174.142 71.397c0-2.22-1.737-4.021-3.877-4.021-2.143 0-3.878 1.801-3.878 4.021 0 2.218 1.735 4.016 3.878 4.016 2.14 0 3.877-1.798 3.877-4.016"/><path fill="#424242" d="M152.105 142.182l14.52 11.162-2.277-14.878z"/><path d="M201.4 66.404c2.218 0 4.02 1.799 4.02 4.019s-1.802 4.02-4.02 4.02c-2.219 0-4.02-1.8-4.02-4.02 0-2.22 1.801-4.019 4.02-4.019M170.265 67.376c2.22 0 4.018 1.801 4.018 4.021 0 2.218-1.798 4.018-4.018 4.018s-4.02-1.8-4.02-4.018c0-2.22 1.8-4.021 4.02-4.021" fill="#2b2b2b"/></g></svg>