<svg xmlns="http://www.w3.org/2000/svg" viewBox="-127.232 -77.643 400 400"><path fill="#a09160" d="M52.45 54.634l-4.062-16.028 9.48.677 21.22 23.026 8.58-.903.901 11.287-21.67 15.351-7.677-12.642z"/><path fill="#e2d086" d="M25.813-.447l13.544-20.77 9.031-4.07 4.965 59.152-4.965 4.741z"/><path fill="none" d="M163.065 7.68l-37.924 61.401"/><path fill="#cea39f" d="M89.022 64.114l-3.614 3.161 3.161 5.418.904 8.579 7.676 4.514h4.064l18.961-24.38z"/><path fill="#efd0cb" d="M127.85 24.684L98.504 62.761v3.611l10.834-.903-12.189 20.317 12.189-3.16 13.996-8.578z"/><path fill="#ffeee9" d="M77.735 68.178l20.769-1.806 24.485-27.089L127.85.907l-2.709-9.482-15.803-6.32-41.537-.904-14.898-20.768-7.677 10.384-.786 13.921 3.948 50.868z"/><path fill="#cea39f" d="M43.653-27.537l.787 15.275 8.463-17.984-8.578 4.515z"/><path fill="#efd0cb" d="M73.672 10.388l-2.259-6.772L56.063.003l-6.32 4.063 11.738 5.871 10.836 20.767 3.611-8.578zM79.992 9.484l-.453 11.74 4.065 8.127L93.987 5.873l13.996-8.579-10.834-2.257L82.25 2.262z"/><path fill="#cea39f" d="M72.317 30.704l4.515-3.611 6.772 2.258-4.516 5.869z"/><path fill="#fff5f3" d="M73.672 10.388l6.32-.904 3.612 19.867-11.287 1.353z"/><path fill="#a09160" d="M49.29 4.519l7.224-5.871 14.899 4.968-14.899-2.259zM82.25 2.262l15.801-5.419 9.932.451-10.834-4.063z"/><path d="M62.054 7.345c2.123-.184 3.992 1.389 4.175 3.512.185 2.123-1.388 3.993-3.511 4.176-2.124.184-3.993-1.389-4.177-3.512-.182-2.124 1.391-3.993 3.513-4.176zM92.508 4.35c2.121-.185 3.992 1.389 4.176 3.512.184 2.123-1.389 3.992-3.514 4.176-2.121.184-3.99-1.39-4.174-3.512-.183-2.125 1.389-3.993 3.512-4.176z" fill="#2b2b2b"/><path fill="#fff7ae" d="M46.13-52.82L25.362.003l27.541-30.249 8.578-3.161 25.734-28.444 8.58-15.349z"/><path fill="#c1b274" d="M66.899-45.145L52.45-29.344 64.64-10.38l60.501 1.805-10.385-12.642-39.279-25.282z"/><path fill="#2b2b2b" fill-opacity=".102" d="M-7.145 310.626l71.335 11.289 127.318-20.317-89.394-14.9-72.238 13.091z"/><path fill="#5ec0d9" d="M66.899 88.044L52.45 114.23l.453 4.514 13.545 13.094 3.611-1.809.451-38.374z"/><path fill="#efd0cb" d="M149.52 150.801l-25.735-5.418-.451-4.516 8.127-8.128 4.065-1.803 12.189-2.261 3.16 12.643z"/><path fill="#73cfe5" d="M149.52 150.801l-4.063-18.513 9.03-4.06 5.869 4.06z"/><path fill="#5ec0d9" d="M123.334 112.875l1.354 4.967 4.967 2.71 22.576-3.613 3.158-3.613-13.545-33.86-6.318 6.771z"/><path fill="#165e60" d="M124.688 307.466l6.773-11.286 12.192-5.869 10.834 17.155z"/><path fill="#1c7678" d="M124.239 270.896l8.125-3.162 9.029 2.708 2.26 19.869-18.965 17.155-3.16-21.22z"/><path fill="#165e60" d="M116.563 286.698l7.676-15.802.449 36.57z"/><path fill="#165e60" d="M119.27 259.158l4.969 11.738 17.154-.454-1.354-11.284-4.966-2.708h-13.094z"/><path fill="#efd0cb" d="M99.858 206.332l-1.354 3.612 20.766 49.214h20.769l-5.869-53.276-6.32-3.16z"/><path fill="#ffeee9" d="M24.911 135.448l.902-8.127 17.157-8.577 4.965 3.162 4.064 10.833-.903 5.871-4.063 3.161-15.35 2.708z"/><path fill="#73cfe5" d="M52.45 114.23l12.644 12.19 1.354 5.418-9.481 7.223-5.871-.451-8.126-19.866z"/><path fill="#165e60" d="M77.282 306.111h-4.514l-3.612-9.931 5.418-12.642 6.321-.452zM39.808 304.758l20.769 1.353-1.805-12.188-6.773-4.517z"/><path fill="#1c7678" d="M59.675 269.54l-7.676 19.866 8.578 16.705 20.318-23.025-4.967-13.546-8.127-2.708z"/><path fill="#165e60" d="M58.321 260.06l1.354 9.48h16.253l1.354-10.834-3.161-2.711-12.64 1.355z"/><path fill="#efd0cb" d="M51.096 211.301l5.871.449 21.219-2.708 6.322 2.259-7.226 47.405-18.961 1.354z"/><path fill="#1c7678" d="M54.257 203.171l2.257 4.515 26.639-3.611 3.16-3.161 2.256-14.897-3.61-4.967-15.351-2.71z"/><path fill="#50a9aa" d="M51.096 208.14l.453 7.222 32.959-4.061 1.805-10.387-33.863 4.516z"/><path fill="#1c7678" d="M88.569 186.017l9.935 23.927 4.061-.45 13.545-5.87 16.707-9.482-3.162-29.796-7.676-4.968-24.379.452-12.641 21.22z"/><path fill="#50a9aa" d="M93.987 199.56l4.517 10.384 35.666-4.062-1.353-11.74z"/><path fill="#165e60" d="M91.731 147.189l4.064 13.543 4.965 3.161 28.895.453-5.87-18.963-2.707-4.065-10.384-2.708z"/><path fill="#369496" d="M38.003 210.848l13.546 4.514 21.67-32.958-3.611-4.064-11.287-4.063-22.123 32.959zM72.768 176.536l.451 5.868 15.35 3.613 12.191-22.124-6.32-4.063-6.772 1.355-6.773 3.161z"/><path fill="#50a9aa" d="M66.448 131.838l-1.354-5.418 4.965-2.257h9.48l4.065 2.708 6.318.902 1.356 5.419 9.482 30.701-13.092-2.708-4.967-1.355-4.966-19.865z"/><path fill="#8ce0dc" d="M3.239 159.83l9.03 42.44 25.734 8.578 22.123-31.153 13.093 2.709 14.449-21.219-6.773-23.027-15.801-11.738-13.998 12.19-35.216 2.708z"/><path fill="#72cbcc" d="M3.239 159.83l8.127 6.32-4.967 8.58z"/><path fill="#72cbcc" d="M10.011 191.885L6.399 174.73l9.934 5.869zM12.269 202.27l-2.258-10.385 7.675.904zM11.366 166.15l3.612-8.126-5.418-7.676z"/><path fill="#72cbcc" d="M16.333 180.599l2.707-6.322 4.064-5.418-11.738-2.709zM27.167 181.952l-7.674-.451-3.16-.902 1.353 12.19zM22.202 205.882l-4.516-13.093 13.545 4.063zM27.167 181.952l8.578-9.029-.901-2.258h-1.355l-9.031-.902zM20.847 155.766l2.257 13.093 10.835-9.481z"/><path fill="#72cbcc" d="M15.88 141.318l4.967 14.448 7.224-10.383zM42.067 183.758l-14.9-1.806 4.064 14.9zM46.581 199.108l-14.898-2.707 6.32 14.447z"/><path fill="#72cbcc" d="M42.067 183.758l12.19 4.515-7.676 10.835zM37.1 171.116l3.161 5.42 1.806 7.222 7.676-10.835zM33.939 159.378l3.161 11.738 6.772-10.384z"/><path fill="#72cbcc" d="M28.071 145.383l5.868 13.995 9.933-9.481zM27.619 140.416l4.064 4.063 5.87-4.966zM54.257 153.51l-10.835-2.709.45 9.931zM38.907 139.513l4.965 10.384 7.224-11.287zM55.612 165.698l-11.74-4.966 5.871 12.191zM60.126 179.695l-10.383-6.772 4.514 15.35zM51.096 138.61l9.03 5.418-5.869 8.577zM55.612 165.698l-1.355-13.093 10.837 3.161z"/><path fill="#72cbcc" d="M60.126 179.695l-4.514-13.997 11.738 1.807zM60.126 144.028l-2.258-11.289 12.191 5.871zM72.317 147.189l-12.191-3.161 4.968 11.738 2.256-.903z"/><path fill="#72cbcc" d="M67.35 167.505l9.932-10.385-10.383-3.61-1.805 2.256zM67.35 167.505l13.094 4.062-7.225 10.837zM72.768 131.838l-2.709 6.772-4.965-12.19zM80.895 138.158l-8.578 9.031-2.258-8.579zM83.604 147.64l-11.287-.451 4.965 8.577z"/><path fill="#72cbcc" d="M87.668 161.185l-10.386-4.065 3.162 14.901z"/><path fill="#165e60" d="M33.038 162.087l3.16 11.288 4.063 3.161 9.482-3.613 5.869-7.225-1.355-13.093-6.322-1.804-12.19 4.515z"/><path fill="#73cfe5" d="M92.182 127.773l-1.356 5.871 6.323.451 23.929-10.836 3.61-5.417 17.156-38.376-11.285 5.869z"/><path fill="#369496" d="M65.094 145.833l47.857-22.574 1.805 2.708-1.355 9.481-2.707 3.162-3.161 3.161-35.669 16.253h-4.063z"/><path fill="#72cbcc" d="M155.389 113.326l-4.061 5.418 3.159 9.484 1.355 2.708 4.514 1.352 3.16-16.704z"/><path fill="#8ce0dc" d="M124.688 117.842l30.701-4.516-.902 14.902-4.514 2.708-18.512 1.803z"/><path fill="#50a9aa" d="M160.356 132.288l-5.869-4.06-24.379 1.353-1.356 1.805 2.709 1.353 5.418-.451z"/><path fill="#1c7678" d="M67.801 158.024l2.709 2.258 39.281-18.061.903-3.611z"/><path fill="#369496" d="M34.391 162.087l1.807 11.288-3.16-2.71-1.807-8.578 4.514-8.125 8.127-4.065 4.063.904-11.737 5.869z"/><path d="M24.911 172.923l86.685-39.73.451.451-.902.902-85.783 39.731-.903-.452.452-.902zm-1.355-6.32l1.354-3.61 8.127-4.064 4.515 1.354 74.946-34.765.902.449-.902.904-88.491 40.634-.903-.452.452-.45zm.902 3.16l87.589-40.633.451.899-.902.906-87.138 39.729h-.451l.451-.901z" fill="#ececeb"/><path fill="#369496" d="M15.88 162.538l3.613 18.963 6.32-1.354-4.064-17.155-1.805-2.71z"/><path fill="#1c7678" d="M19.944 160.282l4.063 18.962-4.514 2.257 2.256 2.709 5.418-2.258-4.965-20.316z"/><path fill="#ffeee9" d="M112.951 123.259l-3.16 18.962 12.188-3.16 9.482-6.322-6.773-14.897z"/><path fill="#cea39f" d="M123.785 145.383l-13.994-3.162 21.67-9.482z"/><path fill="#73cfe5" d="M80.444 83.528l-13.545 4.516-1.805 38.376 18.51.451 4.064-2.257 10.383-32.507-.902-6.321-13.094 6.773zM100.309 88.946L89.022 126.42l24.832-24.38-9.934-13.996z"/><path fill="#27788c" d="M97.149 85.786l-13.545 41.085 5.418-.451 3.16-3.612 11.738-34.764z"/><path fill="#5ec0d9" d="M97.149 85.786l11.287 15.352 5.869-.905 13.545-12.641-4.065-15.802-4.515-.451z"/><path fill="#369496" d="M141.844 79.466l-8.125-.452-10.385 6.772-39.73 41.085 7.222 6.773z"/><path fill="#efd0cb" d="M40.712 139.513l-14.899-12.192.452 9.482 4.064 3.613 8.125 2.259z"/><path fill="#ffeee9" d="M25.813 127.321l-9.933 13.997-.902 16.706 9.933-4.966 6.772-8.579z"/><path fill="#efd0cb" d="M14.978 158.024l8.578 8.579 13.997-6.321-5.87-15.803z"/><path fill="#2b2b2b" fill-opacity=".149" d="M129.655 164.346l-19.864-22.125 13.994 3.162z"/><path fill="#318fa6" d="M-45.973 299.789h16.705l22.574 3.163 21.672-3.163h14.898v4.969l-37.021 5.868-38.828-5.868z"/><path fill="#5ec0d9" d="M-15.272 291.213l-30.701 8.576 38.828 5.871 37.021-5.871-28.443-8.576-7.675-2.708z"/><path fill="#3aa0ba" d="M-13.015 165.698l-2.257 125.515 8.578 1.806 8.127-1.806-6.321-125.965-2.709-4.063z"/><path fill="#8ce0dc" d="M-14.821 73.596l19.865-7.224 5.871 4.064-1.807 6.771-21.22 3.612z"/><path fill="#72cbcc" d="M24.911 56.439l-8.578 6.322-1.355 6.771 5.869 4.967 9.029 1.806 1.807-10.384z"/><path fill="#8ce0dc" d="M36.198 57.794l-11.287-1.355 4.965 19.866 9.031-5.418z"/><path fill="#5ec0d9" d="M9.108 77.207l2.258 6.773-24.381 81.718 8.127-.45 25.735-90.749-4.967-3.16z"/><path fill="#3aa0ba" d="M5.044 66.372l11.289-3.611 4.514 11.738-11.739 2.708z"/><path fill="#5ec0d9" d="M88.569 72.693l-8.125 10.835 1.355 17.158 15.35-14.9z"/><path fill="#72cbcc" d="M79.539 53.279l-5.418-9.933 6.323-2.708h14.447l-4.065 11.287z"/><path fill="#fff" d="M80.895 48.764l6.32-.451 4.967-7.675H80.444l-4.516 1.804z"/><path fill="#50a9aa" d="M74.121 43.346l5.418-4.965 15.352 2.257z"/><path fill="#ececeb" d="M41.616 133.192l-1.355 3.16 2.709 1.354 1.355-2.708z"/><path fill="#2b2b2b" fill-opacity=".149" d="M-13.015 165.698l6.321 127.321-8.578-1.806z"/><path fill="#c1b274" d="M48.388 38.606l18.511 49.438-24.027-21.672z"/><path fill="#e2d086" d="M131.01 78.562l31.606-57.79 4.964-16.253-8.127-7.225-27.992-8.126-12.687 2.067-2.466 82.361 7.026 12.19z"/><path fill="#a09160" d="M167.58 4.519l-44.246 81.267 36.573-12.19zM125.592-19.411l-6.818 10.646L167.58 4.519l-18.963-52.373-9.029 2.709z"/><path fill="#c1b274" d="M95.795-68.171V-77.2l52.822 29.346-29.843 39.089-9.98-12.903z"/><path fill="#e2d086" d="M95.795-77.2L66.899-45.145l51.875 36.38z"/></svg>