<svg xmlns="http://www.w3.org/2000/svg" viewBox="-118.071 -46.582 400 400"><path fill="#3aa0ba" d="M66.631 311.734l5.195 4.908 8.948-1.155 12.989-57.727 2.308-15.008-24.822-6.928-4.33 6.349-3.029 61.48z"/><path fill-opacity=".102" d="M5.007 332.805l91.498-13.132 91.353 14.865-94.384 17.317z"/><path fill="#474747" d="M145.429 341.032h-36.081v-5.195l21.072-7.65 15.009 7.65z"/><path fill="#595959" d="M145.429 335.837l-5.196-23.669-11.834-4.762-12.556 7.648-6.35 20.783z"/><path fill="#3aa0ba" d="M103.145 233.803l22.945 77.211 4.041 2.308 10.102-1.154 16.02-88.322-9.814-3.465z"/><path fill="#318fa6" d="M88.855 245.349l26.988 69.705 14.288-1.732-22.369-74.613-11.113-4.184z"/><path fill="#165e60" d="M57.827 103.339l-25.544 30.884 15.586 25.401 9.958-31.606z"/><path fill="#318fa6" d="M34.736 216.052l12.412.866 19.771 8.515 4.33 10.391-4.618 75.91-5.629 2.743-5.916-5.628z"/><path fill="#474747" d="M80.774 334.538H30.551v-5.053l25.112-4.039 25.111 4.039z"/><path fill="#595959" d="M80.774 315.487v13.998H30.551l24.535-20.636z"/><path fill="#369496" d="M19.439 119.648l28.43 32.327 2.454 18.76-27.853 1.734-20.782-40.987 6.494-8.948z"/><path fill="#165e60" d="M148.171 90.64l26.267 33.482-18.185 99.724-48.491 14.863-20.926-8.081-26.699-35.069L91.598 93.382z"/><path fill="#1c7678" d="M92.175 93.237l-34.348 10.102-9.958 48.636-13.133 64.077 36.513 19.772 11.69-2.453 3.32-17.319 2.887-53.109 5.917-69.706z"/><path fill="#cececd" d="M84.814 137.399l27.278 1.01 36.079-47.769-56.573 2.742-1.732 22.513z"/><path fill="#997c7c" d="M169.818-22.938l-20.059-1.3-13.999 2.31-14 96.26-19.916 13.854 10.969 8.804 12.267 2.02 23.091-8.37 14.575-31.318.578-17.75 13.423-12.411 4.905-26.844z"/><path fill="#7c6262" d="M85.248 85.589l6.927 7.648 1.731 13.71 12.122.866 19.052-8.803-17.751-9.958-8.803-7.649z"/><path fill="#b29393" d="M59.704-15.867l-8.226 71.149L69.806 83.28l37.523 5.772 19.484-7.36 18.183-97.848 24.822-6.782-44.594-22.082-46.326 7.072z"/><path fill="#c4a7a7" d="M85.68 15.306l9.814.865 1.299 24.679-11.113 5.195-7.792-8.081z"/><path fill="#7c6262" d="M96.793 40.85l-18.905-2.886 7.792 8.081z"/><path fill="#2b2b2b" d="M106.174 5.348l-2.309 4.041h16.308l6.64 4.617-6.208-8.226zM81.352 6.357V2.605L69.661-.425l-6.782 4.618 6.35-1.01z"/><path fill="#997c7c" d="M62.879 4.193L79.187 34.5l6.493-19.194-4.328-8.949-12.123-3.174zM96.649 35.943l30.164-21.937-6.64-4.617h-16.308l-8.371 6.782z"/><path fill="#7c6262" d="M69.229 51.962l6.206 16.308 19.916 2.165 12.122-13.421-20.783-6.927z"/><path fill="#fff" d="M78.609 64.374l-3.319-8.226 24.679 2.742-6.352 7.071z"/><path fill="#7c6262" d="M152.356 46.768l10.39 12.554 4.187-8.948-6.206-4.473z"/><path fill="#1c7678" d="M174.438 124.122l1.873 56.284-27.563 1.155-12.268-10.391zM148.171 90.64l-39.978 42.862-7.793 4.041-3.463 13.855.435 5.771L139.8 131.77z"/><path fill="#369496" d="M91.598 93.382l-5.628 15.153-3.319 31.895-9.381-10.247-4.331-16.453z"/><path fill="#b29393" d="M-10.436 113.586l7.361 8.515 10.102-1.299 6.927-7.216 1.588-16.452-23.379 6.639z"/><path fill="#3aa0ba" d="M42.097 91.65l-53.976-1.01-12.122-18.617L29.974 54.56z"/><path fill="#72cbcc" d="M87.126 200.176l-5.053 4.763 4.474 4.909 5.196-4.475z"/><path fill="#2b2b2b" d="M93.186 42.582l-7.506 3.463-4.762-4.907-13.133 7.072 1.732 4.475 37.812 4.617 3.319-3.897z"/><path fill="#997c7c" d="M63.89 52.54l.865-8.659-4.618 8.947 8.225 18.184zM115.699 50.664l1.587 8.515-7.505 14.864 11.834-13.566z"/><path fill="#318fa6" d="M-11.879 90.64l5.196 16.741 48.78-15.731-66.098-19.627 4.618 14.287z"/><path fill="#7c6262" d="M101.844 163.087l-4.907-11.689-4.185 9.38z"/><path fill="#454444" d="M77.888 148.8l-2.742 37.667 12.555 2.021 9.236-37.09-8.802-5.774z"/><path fill="#c4c4c4" d="M75.146 186.467l.721 6.495 8.37 1.298 3.464-5.772z"/><path fill="#6f7173" d="M77.888 148.8l-5.196-20.06 13.855-15.443h16.598l5.048 20.205-11.256 17.896z"/><path fill="#b29393" d="M102.565 174.199l-.721-11.112L77.888 148.8l-2.742 13.133.577 16.164 19.34 5.772z"/><path fill="#997c7c" d="M77.888 148.8l-5.34 1.876-1.732 16.452 4.907 10.969z"/><path fill="#369496" d="M111.369 165.252l-6.927 9.814-.577 14.577 34.637 22.657 37.809-31.894z"/><path fill="#997c7c" d="M-19.383 86.31l8.947 27.276L3.708 90.64-9.569 76.352z"/><path fill="#fff" d="M10.347 89.629l-.289-1.732-2.742-1.154-1.732 2.165.866.577 1.155-1.443 1.443.722.144.433-2.309 2.02.144 1.588 1.588-.145 2.021-.577-.289-1.01-1.876.577h-.433zM13.666 85.732l-1.876-.577-1.299 1.876.577 3.03 1.588 1.155 2.309-1.155.144-2.164-1.443-2.165zm.288 3.609l-1.298.577-.723-.433-.288-2.165.577-.866.722.289 1.01 1.443v1.155zM17.563 88.331l-1.298-3.897-.867-.433-1.01 1.01.866.721.288-.288 1.011 3.32-.722.288.434 1.01 2.452-1.154-.433-1.011zM20.594 85.155l-1.3.722-.288-.722.145-.866.433-.289 1.011.289.288-1.01-1.299-.434-1.443.722-.289 1.733 1.154 2.598 1.299.866 2.165-1.01-.145-2.164-1.731-.435zm.72 1.877l-.866.433-.577-.289-.144-.433 1.01-.433.577.145v.577z"/><path fill="#73cfe5" d="M126.522 98.433l3.464 11.689-9.669 10.392-14.72-7.938-12.123.721-7.649-4.618-1.731-8.514 8.081-6.928 8.514 9.237 4.185 2.02 5.484-.721z"/><path fill="#5ec0d9" d="M100.689 102.474l-2.885 8.514 2.165 4.185 5.628-2.597 4.761-8.803z"/><path fill="#8f8f8f" d="M85.825 108.679L72.692 128.74l35.501 4.762-2.596-20.926z"/><path fill="#27788c" d="M71.249 235.824l17.606 9.525 18.907-6.64-21.503-22.657z"/><path fill="none" d="M96.505 264.831l-7.65-19.482-2.308 20.782-.432 3.607 13.277 2.598z"/><path fill="#fff" d="M21.025 75.486l-1.731 1.3-3.029-2.022-2.022.867-3.896-2.598-2.309 4.185-2.165.145-1.876 3.175-2.02-.289-1.156 3.175 2.887 2.165 4.474-4.042 4.041-1.587 4.619-.433 5.194 1.443 1.588-3.319z"/><path fill="#997c7c" d="M96.649 35.943l13.132 9.525-12.988-4.618zM79.187 34.5l-11.834 5.772 10.535-2.308z"/><path fill="#b29393" d="M159.717 23.964l17.03 5.197-9.814 21.213-14.577-3.606z"/><path fill="#7c6262" d="M163.324 31.469l-2.164 8.371 8.515-6.927z"/><path d="M162.026 192.385l-5.773 31.461-17.751-11.546 23.524-19.915zm-77.932-92.22l15.008 7.072 8.517 1.587 22.368 1.298-9.669 10.392-14.721-7.938-19.772-3.897-1.731-8.514z" fill="#2b2b2b" fill-opacity=".149"/><path fill="#cececd" d="M1.688 131.482l-4.763-9.381 17.029-8.515 5.485 6.062zM111.369 165.252l-7.504 24.391-8.802-5.774 6.781-20.782z"/><path d="M72.692 15.017c1.992 0 3.607 1.615 3.607 3.607 0 1.993-1.615 3.608-3.607 3.608-1.992 0-3.608-1.615-3.608-3.608 0-1.992 1.616-3.607 3.608-3.607zM108.916 20.068c1.992 0 3.607 1.615 3.607 3.607s-1.615 3.608-3.607 3.608-3.606-1.616-3.606-3.608 1.614-3.607 3.606-3.607z" fill="#2b2b2b"/></svg>