<svg xmlns="http://www.w3.org/2000/svg" viewBox="0 0 400 400"><path fill="#2b2b2b" fill-opacity=".149" d="M186.049 372.258l-73.715 12.027 73.836 13.594 73.234-13.231z"/><path fill="#eecec9" d="M152.86 304.436l-8.778-4.69-5.053-22.601 3.729 1.799 8.9 16.839z"/><path fill="#feeee9" d="M139.029 277.145l13.831 27.291 3.367-3.729.359-14.546-2.523-4.327-11.906-6.256z"/><path fill="#007072" d="M155.625 214.125l-17.314 51.468 2.163 3.729 13.71 9.501 2.164-1.8 9.501-61.816z"/><path fill="#8fd4d5" d="M138.311 265.593l15.873 9.622 2.164 1.808.238 5.651-2.886 2.163-14.671-7.692z"/><path fill="#686b6d" d="M201.442 388.612h35.715l.242-5.771-5.295-3.245-24.894.242-5.889 3.124z"/><path fill="#4f5253" d="M207.089 362.878l-5.768 20.084 36.078-.121-8.419-21.044-2.768-2.761-15.273.355z"/><path fill="#686b6d" d="M129.29 379.232v4.578h45.216v-5.538l-5.171-1.8-31.626.121z"/><path fill="#4f5253" d="M150.455 360.359l-21.165 18.873 45.216-.96v-16.831l-2.405-3.366-13.227-.847z"/><path fill="#279db8" d="M154.184 275.215l-2.288 52.792 3.971 4.214 21.044.233 8.298-1.557 7.576-21.529-.242-6.732-32.829-27.776z"/><path fill="#1a8ba4" d="M174.506 361.441l10.703-30.544-33.313-2.89-1.441 32.352z"/><path fill="#279db8" d="M205.773 332.696l-7.337-2.042-5.651-21.286-.242-6.732 31.748-31.747 6.731-.485 3.367 2.171 6.013 14.062.485 6.982-6.377 35.953-3.73 3.73z"/><path fill="#1a8ba4" d="M198.436 330.654l36.074-1.082-5.53 32.225-21.891 1.081z"/><path fill="#007489" d="M154.184 275.215l3.605-3.842 70.465-3.487-4.084 9.493-31.385 31.989z"/><path fill="#43a7a8" d="M156.348 177.811l-.602 28.622 12.266-5.172 12.386-35.114z"/><path fill="#1e9193" d="M209.615 179.377l-19.477 17.674-1.926-2.523-14.066-15.272-4.209 9.138-14.191 18.039-1.562 68.782 69.986 2.164 6.852-6.975 5.772-3.124 3.366-11.543 3.487-25.734 3.488-26.216z"/><path fill="#43a7a8" d="M155.746 206.433l-.601 26.452 88.502-2.882 3.488-26.216z"/><path fill="#43a7a8" d="M234.268 162.3h-6.37l-12.632 20.802 2.648 4.21 29.221 16.475 2.647-.601 4.448-24.293-2.527-8.537z"/><path fill="#8fd4d5" d="M231.022 270.404l5.53 7.217 8.299 1.565 7.337-6.255-.364-5.651-2.405-11.422-9.259-.121z"/><path fill="#1e9193" d="M251.227 237.817l.234-7.337 13.109-22.723 5.772-.727 17.323 35.356-19.365 16.717-16.112 13.828-12.028-17.194z"/><path fill="#007072" d="M251.703 170.356l18.639 36.674-19.115 30.787-7.58-7.814z"/><path d="M187.974 199.097l-12.867-15.515 2.042-6.732 3.608-4.448 9.02 15.51 1.32 7.338s-3.124 3.487-3.124 3.604v.243z" fill="#8fd4d5"/><path fill="#6dcacb" d="M211.424 183.583l-23.45 15.514.481-9.981 1.323-5.533 12.867-7.576 6.97 3.37z"/><path fill="#cea19c" d="M155.504 137.77l2.648-3.73 52.787-3.007 22.731 6.494-6.256 20.806-4.326 5.529-32.709 20.443-9.742-16.955-1.082-8.299-5.651-14.428z"/><path fill="#279db8" d="M188.455 189.116l-3.488-5.771 3.968-6.854 5.053-2.889 3.967-.118 4.69 2.523 1.562 3.128z"/><path fill="#1a8ba4" d="M180.035 178.893l8.42 10.223.48-12.625-2.164-3.971-2.764-1.082-4.331 2.164z"/><path fill="#eecec9" d="M244.851 279.186l-4.085 14.433-16.596-16.24 6.852-6.975zM210.1 70.666l-3.011 4.331-4.565 46.899 1.324 9.618 1.32 4.088 13.827-.117-30.06 41.006 30.787-11.067 6.248-3.245 2.768-5.771 31.869-67.463L239.078 58.4l-15.99-13.948z"/><path fill="#cea19c" d="M236.673 101.211l9.138-.121 5.053 2.647.718 4.448-5.771 12.027z"/><path fill="#372613" d="M233.904 75.836l8.419-1.8 5.296 4.686-1.566 14.554-9.38 7.935-6.368-7.818z"/><path fill="#554537" d="M266.016 81.612l-5.409 7.333-6.974-.359-9.864-8.661 7.337-4.807 5.772-4.089 7.337 5.53z"/><path fill="#8b7a6e" d="M249.782 56.596l2.406 10.825 5.892 6.853 7.936 7.338-.243-11.184-3.729-7.697z"/><path fill="#372613" d="M243.769 57.319l8.895 2.526 5.416 14.429-14.311 5.651-6.014-10.099-3.487-10.344z"/><path fill="#554537" d="M233.307 67.659l5.174-6.494 5.288 18.76-9.865-4.089z"/><path fill="#372613" d="M233.904 75.836l4.577-14.671-9.145-.839-7.33 4.33z"/><path fill="#8b7a6e" d="M223.088 44.452l-3.487 3.846.121 14.312 2.284 2.046 16.475-3.491-4.092-9.497z"/><path fill="#372613" d="M265.773 70.428l4.092-14.07-5.65-8.9-8.177-4.689-4.093 10.941.719 6.135z"/><path fill="#554537" d="M238.481 61.165l14.183-1.32 3.608-12.629-12.988 1.926-20.196-4.69z"/><path fill="#372613" d="M235.35 34.471l-12.262 9.981 19.962 9.137 13.222-6.373 3.253-3.608-.605-14.187-12.149 7.697z"/><path fill="#554537" d="M269.865 56.358l-8.903-13.711-2.042-13.226-2.648 17.795z"/><path fill="#8b7a6e" d="M247.498 23.65l-2.042 7.333 1.315 10.224 12.149-11.786z"/><path fill="#554537" d="M223.088 44.452l3.366-9.739 9.743-7.818 8.056.843 3.245-4.088-.727 17.557-8.29-3.487z"/><path fill="#372613" d="M220.561 27.977l2.527 16.475 12.625-13.828.484-3.729-5.175-2.046-5.408.964z"/><path fill="#8b7a6e" d="M237.876 11.142l9.622 12.508-4.448 7.212-7.337-.238-10.099-4.811z"/><path fill="#554537" d="M209.979 23.888l3.487 9.258 9.622 11.306 2.526-18.639 10.938-2.405 1.324-12.266-13.706-1.925z"/><path fill="#372613" d="M210.455 8.377l-1.436 7.092 1.323 5.291 2.042 3.971 12.14-8.176-.354-7.338-8.541-4.327z"/><path fill="#6e5f51" d="M207.21 15.711l-8.294 6.736.48 4.928 4.811 4.811 18.881 12.266-10.704-19.721-.839-9.622z"/><path fill="#8b7a6e" d="M197.475 28.457l3.124-3.124 10.946-10.224-4.691-1.081-13.351 1.804-13.827 12.988 10.462.84z"/><path fill="#554537" d="M215.629 4.89l-4.084 10.219-14.672 2.164-13.952 10.704 1.804-9.74 4.331-7.696 13.109-5.291z"/><path fill="#8b7a6e" d="M190.86 2.122l11.305 3.128-2.406 4.209-11.426 3.968-6.494 2.284-4.447-3.366 3.967-5.655z"/><path fill="#372613" d="M223.088 44.452l-7.943 1.683-14.905-8.056-3.488-5.893-1.444-4.69 5.291-2.163z"/><path fill="#554537" d="M172.46 34.35l2.885 6.255 6.615 4.807 13.711-7.212 1.081-6.014 3.847-6.853-17.678 2.644-4.327-5.05-6.736-3.128-2.765 9.982z"/><path fill="#372613" d="M171.499 16.07l5.893-3.725 10.941 1.082-5.412 14.55-10.7-4.569z"/><path fill="#554537" d="M166.086 17.156l6.135 6.252 5.171-11.063L190.86 2.122l-15.03 5.412-6.135 2.046z"/><path fill="#8b7a6e" d="M155.984 18.718l-3.124 3.729 3.968 8.896 9.021-1.922 6.372-6.013-3.007-9.739-6.493-.844z"/><path fill="#372613" d="M161.275 9.58l-5.291 9.138 13.23-5.049 6.616-6.135z"/><path fill="#8b7a6e" d="M141.196 39.282l7.095-11.665 4.089 4.448-2.769 5.413-4.209 2.885z"/><path fill="#372613" d="M143.602 51.547l-2.406-12.265 8.415-1.804 1.804 3.245-3.725 9.262zM172.221 23.408l.239 10.942-2.285 4.33-11.422 5.413-9.142-6.615-2.764-11.306 6.013-3.725 6.373 6.131z"/><path fill="#554537" d="M159.233 28.578l-12.386-2.406 9.137-7.454z"/><path fill="#feeee9" d="M144.082 114.921l11.422 22.849 16.717-.723 2.406-1.804 2.522 1.562 28.019-1.203 14.433-23.566 3.487-67.584-26.336-12.266-14.428 6.854-9.864-4.69-11.544 5.654-11.305-2.526-6.009 14.069z"/><path fill="#eecec9" d="M173.303 126.706l-1.082 10.341 4.928-.242z"/><path fill="#cea19c" d="M158.273 112.036l.359 2.764 29.823-3.249-.481-3.003zM163.201 93.877l17.92-.484-9.864 10.344z"/><path fill="#eecec9" d="M147.69 65.855l4.807-2.644h13.71l2.285 2.042.843 4.573 5.05 1.082-5.651 15.874-5.533 7.095-4.448-21.407zM179.434 69.705l-5.049 1.203 1.562 15.511 5.174 6.974 8.657-20.08 16.471-8.54-4.807-1.804-16.354.485-3.128 1.683z"/><path fill="#372613" d="M151.177 60.685l-3.487 5.17 20.802-.602-1.562-4.69zM184.123 60.563l-2.163 4.574 24.289-.364-3.725-4.928z"/><path fill="#fef4f2" d="M169.335 69.826l10.099-.121-3.003 8.177 4.69 15.511-11.547 3.37-6.373-2.886 6.013-15.753z"/><path fill="#feeee9" d="M260.607 88.945l-9.025 19.24-14.909-6.974 7.096-21.286z"/><path fill="#cea19c" d="M246.658 87.02l8.177 3.608-11.785 6.736z"/><path fill="#70cde3" d="M186.771 172.52l-7.216-13.469-9.618 29.343z"/><path fill="#56bfda" d="M217.914 187.312l-22.845-12.988 35.115-22.368 4.084 10.344z"/><path d="M190.138 70.064c2.191 0 3.967 1.776 3.967 3.972 0 2.191-1.776 3.967-3.967 3.967-2.192 0-3.968-1.776-3.968-3.967 0-2.196 1.776-3.972 3.968-3.972zM158.991 69.943c2.191 0 3.972 1.78 3.972 3.972 0 2.191-1.78 3.967-3.972 3.967s-3.967-1.776-3.967-3.967c0-2.192 1.776-3.972 3.967-3.972z" fill="#2b2b2b"/></svg>