<svg xmlns="http://www.w3.org/2000/svg" viewBox="-173.836 -152.12 400 400"><path opacity=".1" fill-rule="evenodd" clip-rule="evenodd" fill="#2b2b2b" d="M-28.169 221.425l72.537-10.626 70.011 16.094-79.696 16.406z"/><path fill-rule="evenodd" clip-rule="evenodd" fill="#338fa6" d="M11.952 170.483l9.873 35.27.602 10.075 21.937-5.029 7.745-47.331-15.074-22.121L20.41 126.2z"/><path fill-rule="evenodd" clip-rule="evenodd" fill="#3ba1ba" d="M-.539 125.898l12.491 44.585L41.02 179.1l8.916-2.344 2.173-13.288-15.074-22.121L20.414 126.2z"/><path fill-rule="evenodd" clip-rule="evenodd" fill="#175e61" d="M37.6 225.665l-2.71-9.741 9.478-5.125 2.791 7.158-2.001 7.828z"/><path fill-rule="evenodd" clip-rule="evenodd" fill="#369496" d="M4.08 225.578l17.745-19.825 22.539 5.046-20.586 15.113z"/><path fill-rule="evenodd" clip-rule="evenodd" fill="#54adc2" d="M72.149 170.913l-5.887 39.782-12.463 8.314-9.435-8.21L41.02 179.1l16.023-26.936z"/><path fill-rule="evenodd" clip-rule="evenodd" fill="#5ebfd9" d="M66.059 120.31l12.647 6.313-6.557 44.29L41.02 179.1l-3.985-37.753z"/><path fill-rule="evenodd" clip-rule="evenodd" fill="#369496" d="M44.364 210.799l-1.442 25.254 27.549-.064-4.212-25.294z"/><path fill-rule="evenodd" clip-rule="evenodd" fill="#1c7578" d="M4.387 13.569L-26.487 51.26l21.563 17.402z"/><path fill-rule="evenodd" clip-rule="evenodd" fill="#369496" d="M4.387 13.569l15.581-7.023 44.086-4.405 16.657 13.355 5.388 26.007-4.862 15.904-19.208 11.526-50.356 3.715-23.38-24.379z"/><path fill-rule="evenodd" clip-rule="evenodd" fill="#4fa8ab" d="M5.36 99.592l-10.284-30.93-6.783-20.393 92.944 9.138-13.779 36.82-12.472 19.641-45.122-1.466z"/><path fill-rule="evenodd" clip-rule="evenodd" fill="#4fa8ab" d="M-61.78 38.011l37.382 47.934 19.474-17.283-40.678-35.537-4.628-2.949z"/><path fill-rule="evenodd" clip-rule="evenodd" fill="#ffede8" d="M19.968 6.546L6.723 26.247 5.671 49.945l21.957 19.754 25.41-14.987 14.747-27.94-3.731-24.631z"/><path fill-rule="evenodd" clip-rule="evenodd" fill="#4fa8ab" d="M-.635 26.722L19.968 6.546 5.671 49.945zM53.038 54.712l27.868-23.72L64.054 2.141z"/><path fill-rule="evenodd" clip-rule="evenodd" fill="#8ce0db" d="M30.869 106.782L5.671 49.945l22.634 13.551 24.733-8.784z"/><path fill-rule="evenodd" clip-rule="evenodd" fill="#308fa6" d="M53.229 135.623l2.75-22.879-25.11-5.962-14.852 6.927 2.926 20.36 18.092 7.278z"/><path fill-rule="evenodd" clip-rule="evenodd" fill="#1c7578" d="M5.36 99.592l-5.899 26.306 19.482 8.171 11.926-27.287zM53.229 135.623l-22.36-28.841 36.589-12.555 11.248 32.396z"/><path fill-rule="evenodd" clip-rule="evenodd" fill="#175e61" d="M66.506 110.991l7.632 2.479 4.568 13.153-12.564-6.895z"/><path fill-rule="evenodd" clip-rule="evenodd" fill="#f0d1cc" d="M29.182 53.524l-6.185 6.792 5.308 3.18 6.426-2.28z"/><path d="M27.84 31.481l-11.081-6.868L30.59 41.338l25.469-18.259-15.756 8.838-12.463-.436zm.462-1.712l12.006.227 20.578-11.798-.718 3.641L30.27 44.016 14.28 23.824l.765-2.33 13.257 8.275z" fill-rule="evenodd" clip-rule="evenodd" fill="#73cccc"/><path fill="#1c7578" d="M28.509 51.029l.618-5.409-2.467-.042-.439-.009.004-.403.016-.968.008-.411.442.006 2.639.046.295-2.593.048-.405.438.04 1.049.1.442.042-.048.406-.279 2.443 2.962.05.441.008-.007.405-.016.968-.004.411-.442-.008-3.137-.052-.638 5.558-.044.406-.438-.039-1.049-.095-.441-.048z"/><path fill-rule="evenodd" clip-rule="evenodd" fill="#e6e6e6" d="M-57.799-4.551l-1.419 20.868-15.804-6.507 4.875-14.281z"/><path fill-rule="evenodd" clip-rule="evenodd" fill="#cfcfcf" d="M-70.386 16.761l-14.237.568-4.249-21.678 18.729-.122z"/><path fill-rule="evenodd" clip-rule="evenodd" fill="#369496" d="M-58.433 4.78l-.785 11.537-11.806 14.223-8.497-8.258 9.27-17.369z"/><path fill-rule="evenodd" clip-rule="evenodd" fill="#308587" d="M-75.456 26.234l-4.727-4.592-4.44-4.313-2.4-12.224 16.772-.192-.223 19.28z"/><path fill-rule="evenodd" clip-rule="evenodd" fill="#e6e6e6" d="M-69.76 29.099l1.12 18.1 7.198 6.485-16.995.805 6.831-6.734-.733-18.493z"/><path fill-rule="evenodd" clip-rule="evenodd" fill="#f0d1cc" d="M-54.698 47.089l-14.221-4.347-2.559-12.828 8.744-9.361 10.961 7.311.399 14.572z"/><path fill-rule="evenodd" clip-rule="evenodd" fill="#ffede8" d="M-51.374 42.436l-7.178-7.958-.399-7.224-3.783-6.701 3.683-6.647 13.449 19.219zM-68.919 42.742l-12.288-7.712 1.681-12.748 12.679 2.674z"/><path fill-rule="evenodd" clip-rule="evenodd" fill="#f0d1cc" d="M67-90.986L36.967-1.061 30.402 27.06 64.054 2.139l12.428-28.165-2.14-12.687 2.837-9.161z"/><path fill-rule="evenodd" clip-rule="evenodd" fill="#ffede8" d="M-17.73-111.647l6.613 11.635-8.339 5.305-4.922 48.306L-6.175-3.423l43.142 2.362L58.2-39.449 67-90.986l-25.577-34.152z"/><path fill-rule="evenodd" clip-rule="evenodd" fill="#cfa39e" d="M-17.73-111.647l-4.221 14.945 2.495 1.995 68.081-15.363 1.571-3.354-8.773-11.714z"/><path fill-rule="evenodd" clip-rule="evenodd" fill="#e3d187" d="M67-90.986L41.223-117.76l14.389-7.378 22.707 14.968 3.073 14.971-5.396 7.136z"/><path fill-rule="evenodd" clip-rule="evenodd" fill="#ebe3a1" d="M69.001-43.974l-2.683-7.455L67-90.986l14.392-4.215 6.569 12.77-4.974 21.591z"/><path fill-rule="evenodd" clip-rule="evenodd" fill="#e3d187" d="M101.022-108.96l-15.796 4.605-3.834 9.156 1.467 31.561 5.456.526 11.164-7.846z"/><path fill-rule="evenodd" clip-rule="evenodd" fill="#ccbf91" d="M87.961-19.393l-5.477-9.551-1.693-8.495-1.113-15.256 7.733-11.925 12.068-6.338z"/><path fill-rule="evenodd" clip-rule="evenodd" fill="#e3d187" d="M98.826-12.618L80.791-37.439l-6.449-1.274 2.351 14.024 6.545 7.643 4.631 8.005z"/><path fill-rule="evenodd" clip-rule="evenodd" fill="#ebe3a1" d="M-7.618-143.571l-24.449 23.863 19.012.511 37.737-28.339z"/><path fill-rule="evenodd" clip-rule="evenodd" fill="#fff7ad" d="M82.919 3.144l-3.612-7.342 3.931-12.846 15.588 4.426z"/><path fill-rule="evenodd" clip-rule="evenodd" fill="#f5eda6" d="M55.612-125.138l25.501 15.325 19.909.853-31.328-31.412-45.012-7.166z"/><path fill-rule="evenodd" clip-rule="evenodd" fill="#fff7ad" d="M81.392-95.201l-12.308-14.291-13.472-15.644 45.414 16.176-10.936 7.662zM24.682-147.538l30.93 22.4-14.389 7.378-30.977 16.349-29-.16 18.33-25.042z"/><path fill-rule="evenodd" clip-rule="evenodd" fill="#f5eda6" d="M-11.56-127.956l36.242-19.582-43.436 45.967-13.002 13.068 3.547-27.02z"/><path fill-rule="evenodd" clip-rule="evenodd" fill="#e3d187" d="M-32.067-119.708l20.507-8.248-20.196 39.455z"/><path fill-rule="evenodd" clip-rule="evenodd" fill="#ccbf91" d="M-31.756-88.503l3.539 27.669 4.405 13.498 4.356-47.371.702-6.864z"/><path fill-rule="evenodd" clip-rule="evenodd" fill="#fff7ad" d="M-32.541-44.56l7.314 1.84 1.415-4.616-7.944-41.167z"/><path fill-rule="evenodd" clip-rule="evenodd" fill="#ebe3a1" d="M-38.404-30.132l5.863-14.428 8.729-2.776 5.058 12.594-2.248 7.793z"/><path fill-rule="evenodd" clip-rule="evenodd" fill="#ccbf91" d="M-38.404-30.132l15.194 13.257 9.243-4.945-4.787-12.922z"/><path fill-rule="evenodd" clip-rule="evenodd" fill="#ebe3a1" d="M-21.269-4.499l-17.135-25.633 24.437 8.312 7.788 18.397z"/><path fill-rule="evenodd" clip-rule="evenodd" fill="#cfa39e" d="M73.198-31.993l1.144-6.72-9.343-1.847z"/><path fill-rule="evenodd" clip-rule="evenodd" fill="#ccbf91" d="M64.054 2.139l18.865 1.005.159-10.23.16-9.958-9.376-19.843z"/><path fill-rule="evenodd" clip-rule="evenodd" fill="#cfa39e" d="M15.396-2.241L30.402 27.06l16.86-28.418-10.295.297z"/><path fill-rule="evenodd" clip-rule="evenodd" fill="#f0d1cc" d="M-16.61-86.221l14.058 14.747 7.625 23.126 6.241 4.087 6.92-3.075 16.142-21.453 21.332-9.457-8.016-5.383-16.6 4.806-12.659 5.82-4.536 2.495-2.475-3.122-7.8-8.201-12.213-6.748z"/><path fill-rule="evenodd" clip-rule="evenodd" fill="#c2b373" d="M-8.303-90.412l-8.307 4.191 8.036-.895 12.196 5.283 2.256-3.312zM29.717-82.842l1.375 4.02 16.206-2.913 8.41 3.489-7.091-7.049z"/><path fill-rule="evenodd" clip-rule="evenodd" fill="#fff5f2" d="M11.422-73.63L5.076-48.348l13.158 1.012.194-25.667z"/><path fill-rule="evenodd" clip-rule="evenodd" fill="#cfa39e" d="M11.41-41.867l-6.337-6.481 13.161 1.012z"/><path d="M33.535-71.386c2.384 0 4.316 1.963 4.316 4.385 0 2.419-1.933 4.382-4.316 4.382s-4.316-1.963-4.316-4.382c0-2.422 1.932-4.385 4.316-4.385" fill-rule="evenodd" clip-rule="evenodd" fill="#2b2b2b"/><path fill-rule="evenodd" clip-rule="evenodd" fill="#369496" d="M-6.757-34.651L7.56-36.172l3.077 2.738 4.233-2.172 14.6 4.229-19.949 2.172z"/><path fill-rule="evenodd" clip-rule="evenodd" fill="#73cccc" d="M-6.031-34.464l16.373 3.38 19.128-.293L9.493-20.741z"/><path fill-rule="evenodd" clip-rule="evenodd" fill="#ffede8" d="M74.369-66.577l-8.051 15.148-1.319 10.867 15.792 3.123 6.62-27.181z"/><path fill-rule="evenodd" clip-rule="evenodd" fill="#cfa39e" d="M70.261-46.401l2.287-13.686 9.601 1.45z"/><path d="M73.862-36.887l-8.753 7.953 3.33 13.998 9.659-11.469-4.236-10.482zm1.534-9.079L60.015-30.832l5.862 25.718 18.415-19.184-8.896-21.668z" fill-rule="evenodd" clip-rule="evenodd" fill="#8ce0db"/><path d="M-2.113-75.491c2.383 0 4.316 1.963 4.316 4.382 0 2.421-1.933 4.384-4.316 4.384-2.388 0-4.317-1.963-4.317-4.384 0-2.42 1.929-4.382 4.317-4.382" fill-rule="evenodd" clip-rule="evenodd" fill="#2b2b2b"/><path fill-rule="evenodd" clip-rule="evenodd" fill="#fff" d="M7.185-26.157l6.202.617 8.323-5.719-11.368.175-11.551-2.385z"/><path fill-rule="evenodd" clip-rule="evenodd" fill="#1c7578" d="M124.702 57.414L80.711 15.496l.522 41.911 21.846 10.641z"/><path fill-rule="evenodd" clip-rule="evenodd" fill="#4fa8ab" d="M78.882 94.418l11.546-32.532 34.274-4.479-38.647 47.063z"/><path fill-rule="evenodd" clip-rule="evenodd" fill="#ffede8" d="M67.458 94.227l11.424.191 7.173 10.052-11.917 9-7.632-2.479z"/><path fill-rule="evenodd" clip-rule="evenodd" fill="#f0d1cc" d="M54.157 108.225l13.301-13.998 6.68 19.243-7.996 6.258z"/></svg>