<svg xmlns="http://www.w3.org/2000/svg" viewBox="-152 -152 400 400"><path fill="#070908" fill-opacity=".149" d="M25.441 246.907l-90.709-12.602 115.683-9.19 99.778 14.726z"/><path fill="#745382" d="M6.827 95.298l4.477-5.066 13.193-27.328-9.187-10.841-5.185-.471-3.651 4.359-3.062 31.81z"/><path fill="#8c709d" d="M-7.545 50.533l-9.542 32.746L6.827 95.298l3.298-43.706-8.952-3.886z"/><path fill="#a282b7" d="M-5.896 44.523l-1.649 6.01 17.67 1.059 4.477-2.238-4.122-3.887-9.071-2.944z"/><path fill="#b2849b" d="M-5.66 32.154l-2.709 9.425 2.473 2.944L-.83 40.52l-1.177-9.543z"/><path fill="#eecec9" d="M3.176 4.942l-5.183 26.035L-.83 40.52l6.951-.118 9.189-18.967-5.891-12.84z"/><path fill="#feeee9" d="M20.375 8.124L3.176 4.942l7.304 16.493 3.651 2.474 10.131-.706 1.767-4.242z"/><path fill="#915976" d="M-17.323 105.193l4.124 14.254 5.771 1.531 3.418-3.296-1.65-15.082z"/><path fill="#b2849b" d="M-10.725 98.127l3.297 22.851 5.184-.706 5.891-6.949-1.885-6.953-1.533-9.306z"/><path fill="#6f4258" d="M45.467 20.023l7.777 7.537V11.304l-8.247-2.592-4.478 7.893z"/><path fill="#dddddc" d="M161.266-92.716l-15.075 18.024-8.369-1.06-26.387-44.885 2.476-8.481 3.065-4.476 11.421 1.061z"/><path fill="#eaeceb" d="M158.323-54.313l-21.207 17.67-10.245-6.243-24.385-56.31-1.535-18.965 2.006-8.953 10.954-2.004zM123.925-13.435L92.233-1.418l2.241-13.076 10.249-19.673 7.422-4.124z"/><path fill="#6f4258" d="M-19.206 120.507l15.785-2.825 2.002 4.238-8.6 17.672-4.595 2.354z"/><path fill="#9c9fa0" d="M-41.589 227.356l13.193-2.593 30.864.352 9.895 2.241v6.949h-53.952zM80.102 231.946l11.307-2.825 26.509.354 8.596 2.471v7.895H80.102z"/><path fill="#c2c1c2" d="M-14.731 204.266l-.118 3.652-4.713.471-2.473 2.119.237 4.712-5.892.24-13.899 11.896h53.952v-20.144l-5.065-4.716-15.903-1.178z"/><path d="M-14.849 204.266l-4.712 4.123 13.313 3.061 4.948-5.771-8.836-3.653-4.713 2.24zm-7.186 6.242l13.195 4.006-4.83 5.536-14.137-4.59 5.772-4.952z" fill="#9c9fa0"/><path fill="#c2c1c2" d="M80.102 231.946v-24.381l8.365-3.064 13.427-.235 4.358 2.946-1.529 3.183 6.359 2.707 2.354 2.942-1.882 2.594 6.948 3.648 8.012 9.66z"/><path d="M106.252 207.212l-11.072-2.829-15.313 3.064.235.118 7.066 6.596 24.032-1.059-4.83-5.89h-.118zm7.184 8.832l-23.91 1.299 4.947 6.125 24.15-1.182-5.065-6.242h-.122z" fill="#9c9fa0"/><path fill="#8c709d" d="M-22.859 159.618l4.359 23.797 4.477 10.484 5.418 7.419 7.422 4.36 13.546 1.534 6.245-36.403-5.536-9.186-24.974-8.365z"/><path fill="#a282b7" d="M42.876 152.434l-24.268 18.375-41.467-11.191 19.438-41.936 5.536-.121 41.467 27.92z"/><path fill="#8c709d" d="M112.73 171.754l-6.478 35.458-4.358-2.946-1.06-11.074-12.367 11.309-8.601 2.946-7.537-32.751 8.125-5.182 23.798-1.06z"/><path fill="#a282b7" d="M72.329 174.696l-29.453-22.262.706-6.953 35.931-25.327 6.949 25.327 18.731-2.119 4.36 2.472 3.177 25.92z"/><path fill="#594165" d="M-3.421 117.682l7.068-4.359 68.447 1.294 7.419 5.537-4.006 12.838-8.719 1.299-23.912 18.143-30.983-23.208-11.309-2.948z"/><path fill="#8c709d" d="M1.762 106.37l8.363-4.12 78.22 1.056 11.665 5.187-20.497 11.661-82.934-2.472z"/><path fill="#a282b7" d="M20.375 65.847l4.122-2.943h8.365l12.841 4.473 18.021-3.296L95.65 99.657l4.36 8.836-3.889 2.237-15.549.47-10.484-3.413-34.634-.707-2.356-4.48-5.183 4.359-26.153-.589z"/><path fill="#915976" d="M-8.134 127.691L6.474 138.18l5.419-8.954-15.314-11.544zM66.788 134.291l5.654 8.954 11.195-7.894-2.123-7.774-3.771-1.887z"/><path fill="#745382" d="M35.925 67.142l-8.01 39.817 7.539.121 6.713-37.345-2.591-2.829z"/><path fill="#a282b7" d="M51.592 22.967l48.065-8.012 5.536 2.121 2.472.944 16.966 6.359-1.064 9.896-23.204 40.408-32.28-16.495-16.844-28.625z"/><path fill="#eaeceb" d="M73.506 35.925l-.236 10.366h-3.888l-3.065-2.709-.235-7.657z"/><path fill="#8d678b" d="M91.292 50.062l3.652 3.295-2.118 10.837-7.424 2.829-17.319-8.835-1.883-3.296 3.417-4.242z"/><path fill="#eaeceb" d="M85.167 36.396L83.75 46.762l-7.773-.117.354-11.073z"/><path fill="#cdcccb" d="M71.618 30.506l-.588 13.429 3.535 1.532 2.943-1.179 1.299-13.664zM84.696 31.566l-1.887 12.957 3.064 2.475 3.418-2.001 2.593-12.49z"/><path fill="#d09eb5" d="M96.357 45.35l-30.04-1.768-1.295 1.297L66.2 54.892h4.83l23.914-1.535z"/><path fill="#915976" d="M10.48 45.467l-1.061-5.653-5.772-2.359-5.654-6.478-3.889 13.546z"/><path d="M20.375 65.847l15.549 1.295 1.06-2.825-6.596-15.198-15.904.118-4.359 2.238s10.368 14.254 10.25 14.254v.118z" fill="#9c9fa0"/><path fill="#9c9fa0" d="M37.337 36.867l-5.653-3.18-22.501.353-5.536 3.415 6.833 8.012L14.131 49h18.378l9.188 8.481 6.95-1.176 11.428-1.413-16.846-17.317z"/><path fill="#9c9fa0" d="M36.278 22.141l4.241-5.536 11.073 6.362-.353 6.596-8.01 8.012-5.892-.708-2.236-4.36z"/><path fill="#c2c1c2" d="M10.48 21.435l-6.833 16.02 33.69-.588 3.182-20.262z"/><path fill="#8b8a8a" d="M71.03 54.892L51.592 22.967l-14.255 13.9 12.96 16.377 9.778 1.648z"/><path fill="#9c9fa0" d="M22.376 19.55l1.886 3.77 4.241 3.651 4.359-3.651-6.009-7.068-2.827-1.06z"/><path fill="#c2c1c2" d="M2.35-23.095L22.376 19.55l4.477-3.298L6.709-25.333l-4.477-1.06z"/><path fill="#8b8a8a" d="M28.503 26.971l-6.127-7.421 1.768 7.068z"/><path fill="#feeee9" d="M57.717 32.981L58.894 49l1.181 5.892H71.03L61.487 32.39z"/><path fill="#eecec9" d="M71.03 54.892l.117 4.83-4.947 7.066-4.359 3.535-11.426 2.948-4.712-4.124-4.242-6.954.236-7.419L58.894 49z"/><path fill="#745382" d="M100.01 108.493L69.024 77.508l-.348-7.891 4.359-8.953 6.12-2.354 21.208 9.067 4.83 5.536-1.059 26.391z"/><path fill="#a282b7" d="M69.024 77.508L79.155 58.31l-8.125-3.418-9.189 15.431z"/><path fill="#8c709d" d="M100.01 108.493l.353-41.116 24.268-42.998 12.136 47.004z"/><path fill="#82536a" d="M83.166 151.37l9.303-6.595 5.423-8.479-4.482-16.142-3.413-6.007-19.909-6.36z"/><path fill="#6f4258" d="M116.619 134.291l-5.065-3.653-14.961 1.177-4.949 4.481-8.478 15.074 26.387-5.536z"/><path fill="#b2849b" d="M109.199 114.265l7.42 20.026-24.975 2.005-5.536-19.913 3.889-2.236 14.489-.946z"/><path fill="#6f4258" d="M100.01 108.493l9.189 5.772-23.091 2.118-16.02-8.596z"/><path fill="#cea39f" d="M34.746-12.964l8.954-6.007 45.826 4.004L78.571 9.89 51.592 22.967z"/><path fill="#eecec9" d="M51.592 22.967l46.884-8.247-4.473-9.778 32.747-70.21-19.791-4.594L89.997-92.48l-32.28 55.837 6.656 27.601 18.793 2.205z"/><path fill="#dddddc" d="M89.997-92.48l5.065-19.203 5.889-6.478 42.059 86.348-23.326 9.543-8.13-16.021-1.178-2.827-7.776-18.496-10.131-22.971z"/><path fill="#cea39f" d="M98.833-48.186l11.543 18.023 5.419-11.545-5.419-9.778z"/><path fill="#ffeee9" d="M126.75-65.268l-10.955 23.56-16.962-6.478 10.009-26.978z"/><path fill="#cea39f" d="M111.2-67.506l-4.355 12.369 13.074-8.363z"/><path fill="#eaeceb" d="M60.075-151.029l68.322 18.496-14.486 3.415-10.954 2.004z"/><path fill="#dddddc" d="M62.669-140.072l-2.594-10.957 53.836 21.911-12.96 10.957-12.371-1.414zM10.754-126.365l11.505-2.164 32.397-14.017 5.419-8.483-54.778 9.542-2.003 9.425z"/><path fill="#eaeceb" d="M-27.101-108.621l32.398-32.866 5.457 15.122-7.46 15.271-15.904 18.378-8.011 1.885z"/><path fill="#dddddc" d="M-32.519-77.284l43.273-49.081-2.395 17.274L-9.193-68.33l-7.069 5.418z"/><path fill="#eaeceb" d="M-3.657-36.878l-17.906-14.017 32.317-75.47 3.494 12.208L2.821-46.892z"/><path fill="#dddddc" d="M11.775-34.875l7.394 15.904-12.46-6.362-9.895-4.004-3.673-1.852 5.44-13.111 8.128-25.445z"/><path fill="#ffeee9" d="M-1.419-44.3l12.173-82.065 49.321-24.664 40.876 32.868-16.987 85.524L64.373-9.042l-43.645-4.393z"/><path fill="#eecec9" d="M30.271-118.987l15.079-4.83 19.08 6.715-19.433-4.241zM24.851-112.507l19.672-4.241 23.089 6.362-24.265-3.3z"/><path fill="#cea39f" d="M27.68-61.264l9.069 7.894 10.957-6.95-9.542-4.477z"/><path fill="#eecec9" d="M10.833-94.366l5.89-8.834 16.493 2.354 4.121 15.669.355 11.899L27.68-61.264 23.203-80.7zM52.773-100.491l-6.247 15.432-3.886 11.781 5.066 12.958 12.369-18.377 18.139-15.316-6.12-8.363z"/><path fill="#dddddc" d="M15.31-104.85l16.962-.47.944 4.474H17.311l-6.478 6.48-2.591-2.944zM73.741-104.379l-19.32-.588-1.648 4.476h18.374l7.067 6.478 3.064-2.473z"/><path fill="#fef4f2" d="M37.337-85.177l9.189.118 1.18 24.739-20.026-.944z"/><path d="M21.788-87.062c2.472 0 4.476 2.005 4.476 4.477 0 2.472-2.005 4.477-4.476 4.477s-4.477-2.005-4.477-4.477c0-2.472 2.005-4.477 4.477-4.477zM60.075-85.294c2.472 0 4.477 2.003 4.477 4.477 0 2.472-2.005 4.475-4.477 4.475s-4.478-2.003-4.478-4.475c.001-2.474 2.006-4.477 4.478-4.477z" fill="#2b2b2b"/><path fill="#cea39f" d="M23.438-30.163l31.336 2.592-8.483-18.848-15.667-.708z"/><path fill="#6f4258" d="M101.54 9.065l-1.883 5.89-48.065 8.012L96.004.467z"/><path fill="#8c709d" d="M101.54 9.065L51.592 22.967l56.073-4.947z"/><path fill="#fff" d="M30.859-40.765l15.432 1.177-2.121-4.004-11.661-.708z"/><path fill="#eecec9" d="M67.848-76.343l7.188.236 3.535 6.362zM7.18-71.63l2.827-5.772 6.716-.235z"/><path fill="#d09eb5" d="M-18.5 183.415l17.317 22.263-13.666-1.412zM100.245 188.716l-20.379 18.731 26.386-.235z"/><path fill="#c2c1c2" d="M34.393 45.35l.708 5.889-4.83 2.118-20.146-1.765.355-6.125z"/><path fill="#8b8a8a" d="M41.697 54.774l-7.304-9.424-7.893 7.772 7.657 4.482z"/><path fill="#feeee9" d="M50.415 73.271l-8.718-18.497L26.5 53.122l9.425 14.02z"/><path d="M61.841 70.323l38.169 38.17L20.375 66.2l15.549 1.063 14.49 6.12 11.427-3.06zm49.241 88.236l-27.916-7.188 26.387-5.536 1.529 12.607v.117z" fill="#070908" fill-opacity=".102"/><path fill="#eecec9" d="M14.131-50.425l13.666-10.839-8.954 2.711zM61.723-46.892L47.706-60.32l10.246 3.533z"/><path fill="#9c9fa0" d="M-3.186-29.337l5.536 6.242 4.359-2.238-1.532-7.304z"/><path fill="#c2c1c2" d="M-.359-33.696l-2.827 4.359h5.418l2.945-3.3z"/><path fill="none" d="M-151.5-151.5h399v399h-399z"/></svg>