<svg xmlns="http://www.w3.org/2000/svg" viewBox="-152 -152 400 400"><path fill="#f0d1cc" d="M127.691 30.742l53.958-15.667-33.103-17.084-9.778 1.415-11.426 9.895z"/><path fill="#8f75a1" d="M-75.87-15.202l-9.778-1.885 4.713-3.416 77.749-14.843-1.532 5.183-3.18 3.653z"/><path fill="#ffede8" d="M136.531-29.219l18.139 52.186 26.979-7.892-35.58-58.784-13.783 1.648z"/><path fill="#2b2b2b" fill-opacity=".102" d="M-54.784 232.774l115.919-15.667 118.745 12.838-88.353 16.962z"/><path fill="#f0d1cc" d="M129.578-75.517l-2.828 49.596-18.379 35.104-17.079 3.063-24.857-29.451 43.47-88.706z"/><path fill="#fff7ad" d="M83.515-151.029l48.536 14.019-3.061 22.147-49.007 5.419-22.737-20.144z"/><path fill="#c2b373" d="M29.209-93.304l-7.303-17.908 19.673-33.102 9.66 13.429-9.895 21.323z"/><path fill="#e3d187" d="M41.579-144.314l-6.833 24.974 19.675 9.778 2.825-20.026 26.269-21.441zM104.486-114.274l27.565-22.736 25.683 41.467-2.475 14.608-25.681 5.418L111.2-103.79l-10.955.708zM34.275-49.601l.826 47.003 24.385 24.975 11.544-11.19-8.012-28.274-8.955-9.541z"/><path fill="#a19161" d="M35.101-2.598l6.36 31.219 20.144-6.951 6.365-7.539.819-9.66z"/><path fill="#c2b373" d="M38.281 38.399l-.353-21.794 13.076-4.712 10.601 9.777.471 4.242-20.262 10.719z"/><path fill="#785c87" d="M123.219-29.928l-9.308-7.774.589-7.187 10.366-4.712 5.066 14.49 2.24 6.598-4.245-.471z"/><path fill="#594066" d="M110.259-36.878l3.535-2.828 1.766 1.769 12.367 8.953-3.532 4.594-10.836-5.185z"/><path fill="#c2b373" d="M136.531-29.219l2.237 28.625-5.889 7.657L98.711 5.65l11.548-42.528 12.96 8.483 4.708-.589 2.005-6.127z"/><path fill="#785c87" d="M102.957 69.024l15.667-10.366-22.385-24.265L65.728 29.8l-23.914 6.831 12.014 54.661z"/><path fill="#8f75a1" d="M129.461 25.441l-18.143-14.49-11.425-8.365-8.601 9.66-18.85-.942-2.001-7.069-8.836 17.435-19.791 14.961 76.81 22.027z"/><path fill="#785c87" d="M99.893 2.586l-8.601 9.66-18.85-.942-3.418-7.422-7.419 17.788-19.791 14.961 23.208-9.895 8.126-8.599h20.149l18.021-7.186zM124.042 42.05l3.649-11.308-1.765-12.605-9.543 4.948-13.783 9.542z"/><path fill="#594066" d="M53.828 91.292l64.796-32.634-11.073 32.634-19.555 6.713z"/><path fill="#a19161" d="M102.6 32.627l8.954-22.265 16.137 20.38z"/><path fill="#785c87" d="M-85.648-17.087l20.38 58.431 57.958-.354 21.676-8.718L2.821-11.904l-8.128-20.144z"/><path fill="#594066" d="M14.366 32.272l2.71-.353-20.262-67.265-.824 1.297-1.297 2.001z"/><path fill="#594066" d="M-60.909 48.648l-4.359-7.304 79.634-9.072 1.768-3.298 8.363 7.775-3.769 3.182L-.241 50.886l-22.147-6.363z"/><path fill="#f0d1cc" d="M35.101-2.598L24.97 26.501l7.775 9.306 12.134-8.247 6.125-15.667z"/><path fill="#f0d1cc" d="M41.814 36.631l-9.187-3.415-11.899 6.715.354 8.01 16.02 3.651z"/><path fill="#785c87" d="M44.879 27.56l-18.732 1.179-9.071 3.18 3.652 8.012 12.134-1.885 8.952-1.415z"/><path fill="#cfa39e" d="M-12.022 53.828l-9.658-9.422 29.095-3.062 13.313-1.413 16.374 11.661z"/><path fill="#8f75a1" d="M-37.938 18.373l-15.785-7.775 3.18-11.428 8.246 4.359 6.009-7.539 8.245 9.189z"/><path fill="#cfa39e" d="M63.018-17.087l33.103.355-4.829 28.978-20.38.235z"/><path fill="#e3d187" d="M99.893 2.586l27.798 28.156L138.768-.594z"/><path fill="#8f75a1" d="M15.31 25.912l1.766 6.007 27.803-4.359z"/><path fill="#ffede8" d="M51.239-16.852L28.974-51.957l.353-57.252 5.419-10.131 22.5-10.248 47.24 15.314 6.714 10.484-6.007 54.307-22.62 32.631z"/><path fill="#f0d1cc" d="M117.09-84.823l-4.709 8.363-10.723-5.654 1.299-8.599z"/><path d="M65.847-87.297h33.457l-2.476 12.252-30.863.118V-87.18l-.118-.117zM29.092-72.572v-4.242l22.735.471-.353-11.072H29.092v-3.416h73.743l1.534 5.772-3.182 13.075-37.935-.118V-87.18H53.95l-.828 14.843-24.148-.353.118.118zM120.507-43.356l16.024 14.137 9.538-14.49-10.718-21.324-13.196 8.837z" fill="#f0d1cc"/><path fill="#ffede8" d="M114.735-48.657l5.772 5.301 14.844-21.677-11.784-6.715z"/><path fill="#a687ba" d="M114.735-48.657l3.889 3.533-3.064 7.187-5.301 1.059z"/><path fill="#785c87" d="M130.52-75.752l10.367-8.6 11.19 4.712-6.478 21.441-6.243.941-4.005-7.775-7.539-4.241-.827-4.357z"/><path fill="#a687ba" d="M125.926-77.99l4.594 2.238-1.177 2.71-1.531 3.768-4.245-2.474-1.176-4.239z"/><path fill="#6d5678" d="M142.888-66.8l4.594-11.661-5.415-2.711-5.423 9.895z"/><path fill="#c2b373" d="M157.734-95.543l-2.357 37.815-6.125 5.653-6.364-14.725 4.594-11.661-5.415-2.711-5.423 9.895-10.718-6.713z"/><path fill="#a19161" d="M155.377-57.728l-9.308 14.019-6.713-13.549 3.532-9.542z"/><path fill="#fff5f2" d="M54.421-92.833l8.832 3.062 1.652 22.853-12.254.118z"/><path fill="#cfa39e" d="M58.545-61.499L52.651-66.8l10.724-.118z"/><path fill="#a687ba" d="M45.467-49.128l13.313-5.891 23.793 4.83-12.25 11.663-16.024.824z"/><path fill="#fff" d="M49.709-48.54l9.656-2.946 17.554 2.711-4.119 3.18-11.077 2.592-9.307-2.121z"/><path fill="#785c87" d="M52.416-45.124l20.384-.471-5.301 4.242L55.598-41z"/><path fill="#f0d1cc" d="M44.053-82.585L52.651-66.8l.593-8.128-4.715-7.304zM63.375-66.918l10.244-16.491-10.366-6.362z"/><path fill="#f0d1cc" d="M76.448-84.588l23.68-12.958-17.555-1.532-19.555 6.127 1.298 17.317z"/><path fill="#c2b373" d="M63.018-92.951l-.114-3.418 19.434-5.654 17.79 4.477-17.555-1.532z"/><path fill="#f0d1cc" d="M29.209-96.604l11.193-2.239 14.019 6.01-3.3 16.726z"/><path fill="#c2b373" d="M54.421-92.833v-3.3l-13.902-5.654-11.31 5.183 11.193-2.239z"/><path fill="#6f7173" d="M103.663-90.007l22.263 12.017-2.359 6.242-21.552-11.661-1.181-2.593z"/><path d="M26.853-89.889l24.738-.118-.235 12.605-22.147-.353-2.356-12.134zm38.994-.118h33.457l-2.476 12.252-30.863.118v-12.252l-.118-.118zm-42.644-3.297l80.46-.118-.828 3.415-.82 3.18-2.946 12.134H63.375v-15.079l-9.076-.118-1.055 14.961-26.744-.352-3.297-18.023z" fill="#8f8f8f"/><path fill="#f0d1cc" d="M116.74 165.743l-5.54 47.476-2.358 14.961-10.95.118.819-17.197-8.126-43.592z"/><path fill="#ffede8" d="M111.2 213.219l-3.3 14.255-9.895-.942.706-15.431z"/><path fill="#cfa39e" d="M115.441 177.525l-.117.236-22.263 3.418-2.476-13.67 7.071-.472z"/><path fill="#8f75a1" d="M25.794 219.933l2.709 10.366h7.304l.824-20.38z"/><path fill="#a687ba" d="M16.017 212.155l-24.151 18.144H21.67l14.961-20.38z"/><path fill="#f0d1cc" d="M63.018 163.507l-26.387 46.412-19.085 10.484-6.478-4.594 14.02-11.779 12.132-48.065z"/><path fill="#ffede8" d="M36.631 209.919l-19.085 10.484-6.478-4.594 14.02-11.779z"/><path fill="#cfa39e" d="M63.018 163.507l-5.89 10.248-20.733-14.49 8.719-.942z"/><path fill="#785c87" d="M53.828 91.292h53.723l13.545 32.515-38.052-16.02z"/><path fill="#8f75a1" d="M36.278 159.265l66.792-10.719 18.026-24.739-67.268-32.515z"/><path fill="#785c87" d="M36.278 159.265l79.399 18.375 5.419-53.833z"/><path fill="#f0d1cc" d="M-18.147 40.284l6.125 13.544-18.847 3.065-9.072-10.484 10.957-8.01z"/><path fill="#ffede8" d="M-23.095 30.506l4.948 9.778-21.794 6.125 1.768-13.193z"/><path fill="#a687ba" d="M89.408 240.665l9.303-29.564-.706 15.431 4.717.471 5.178.471 3.3-14.255 3.3 27.446z"/><path fill="#ffede8" d="M29.092-77.637l.117-9.66 19.556-1.768.944 11.663z"/><path fill="#f0d1cc" d="M51.475-87.297H29.209v-2.592l22.383-.118z"/><path fill="#f0d1cc" d="M49.589-77.402L35.925-89.889l15.667-.118-.236 12.605z"/><path fill="#ffede8" d="M65.847-89.889h33.457l-2.59 12.134-30.867.118z"/><path fill="#f0d1cc" d="M65.847-89.889h33.457l-.593 2.592H65.847z"/><path fill="#f0d1cc" d="M76.448-84.588l9.779-5.301h-20.38v12.252h1.176z"/><path d="M43.817-86.355c2.277 0 4.124 1.847 4.124 4.124 0 2.277-1.847 4.124-4.124 4.124-2.277 0-4.124-1.847-4.124-4.124 0-2.278 1.847-4.124 4.124-4.124zM75.036-86.355c2.276 0 4.119 1.847 4.119 4.124 0 2.277-1.843 4.124-4.119 4.124-2.277 0-4.124-1.847-4.124-4.124 0-2.278 1.847-4.124 4.124-4.124z" fill="#2b2b2b"/><path fill="#f0d1cc" d="M71.618-63.736L87.403-50.66l-5.536-10.839zM47.115-62.676l-7.066 14.372 1.648-11.899z"/><path fill="none" d="M-151.5-151.5h399v399h-399z"/></svg>