<svg xmlns="http://www.w3.org/2000/svg" viewBox="0 0 400 400"><path fill-rule="evenodd" clip-rule="evenodd" fill="#e5e4e4" d="M113.285 241.921l-7.277-6.482 12.026-26.639h25.715l-14.717 25.469-.743 5.572-4.754-1.858z"/><path fill-rule="evenodd" clip-rule="evenodd" fill="#f0f2f2" d="M113.285 241.921l-7.277-6.482-17.466-26.431 29.492-.208v31.296z"/><path fill-rule="evenodd" clip-rule="evenodd" fill="#7f5a87" d="M117.818 213.163h17.469l-11.863 21.255-5.39-.415-4.86-2.892z"/><path fill-rule="evenodd" clip-rule="evenodd" fill="#9776a1" d="M98.609 213.163h19.425v20.84l-6.905-.531z"/><path d="M193.999 232.371l-.096-8.624-25.086-2.725-27.654 41.897 30.692 9.849 10.844-6.29 12.807-33.114c.198-.256.065-.631-.251-.704l-1.256-.289z" fill-rule="evenodd" clip-rule="evenodd" fill="#7b4c61"/><path fill-rule="evenodd" clip-rule="evenodd" fill="#ba8ca1" d="M241.299 250.373l5.663 45.431 13.409 7.36 33.576-27.481z"/><path opacity=".1" fill-rule="evenodd" clip-rule="evenodd" fill="#34302d" d="M126.716 385.026L222.414 400l89.044-11.758-88.704-8.875z"/><path d="M244.727 382.379c.041-.404-10.594 4.099-10.594 4.099l.719 4.829h32.001l.406-4.474-22.532-4.454zM170.555 373.872l-15.835 7.483.25 5.122 44.801-1.066v-5.236z" fill-rule="evenodd" clip-rule="evenodd" fill="#5c3242"/><path fill-rule="evenodd" clip-rule="evenodd" fill="#7b4c61" d="M246.983 353.636l-7.918 14.267-4.931 18.574 33.126.356-6.313-22.307zM184.642 352.838l-7.317 8.692-22.605 19.825 45.051-1.18v-13.056z"/><path fill-rule="evenodd" clip-rule="evenodd" fill="#5d4063" d="M244.772 330.182l-15.495 20.108 9.788 17.613 21.882-3.377.494-19.648zM190.546 329.588l-15.004 14.039 1.783 17.903 22.446 5.589 6.781-18.077z"/><path fill-rule="evenodd" clip-rule="evenodd" fill="#7f5a87" d="M223.379 319.431l-7.948 5.943-8.879 23.668-31.01-5.415-2.081-28.207 27.93-17.382z"/><path fill-rule="evenodd" clip-rule="evenodd" fill="#7f5a87" d="M229.173 298.781l-16.046 11.514 2.304 15.079 13.846 24.916 32.164-5.412.639-25.447z"/><path fill-rule="evenodd" clip-rule="evenodd" fill="#5d4063" d="M192.032 310.815l8.171 9.21 15.228 5.349 14.782-4.755 6.388-19.758-39.062-.427z"/><path fill-rule="evenodd" clip-rule="evenodd" fill="#7b4c61" d="M238.087 298.038l22.284 5.126 1.709 16.267-31.867 1.188-8.171-16.192 16.783-6.219zM187.427 295.957l-9.526 2.825-4.44 16.638 26.742 4.605 6.685-15.451z"/><path fill-rule="evenodd" clip-rule="evenodd" fill="#4b4846" d="M188.021 281.621l-10.252 9.955.132 7.206 35.226 11.513.746-.114 6.577-22.325z"/><path fill-rule="evenodd" clip-rule="evenodd" fill="#403d3b" d="M213.873 310.181l46.498-7.017.296-7.578-40.217-7.73-6.432 8.473z"/><path fill-rule="evenodd" clip-rule="evenodd" fill="#7b4c61" d="M192.616 276.421l21.402 19.908 46.649-.743 1.413-28.525-53.42-20.947z"/><path fill-rule="evenodd" clip-rule="evenodd" fill="#9e627c" d="M193.503 242.4l-18.296 17.152 2.562 32.024 36.249 4.753-.855-24.216z"/><path fill-rule="evenodd" clip-rule="evenodd" fill="#7b4c61" d="M244.178 232.743l9.539-7.093 19.281-1.226 20.949 51.259-31.867-8.622z"/><path fill-rule="evenodd" clip-rule="evenodd" fill="#ba8ca1" d="M253.717 225.65l8.263-6.144 11.018 4.918-12.258 19.296z"/><path d="M112.393 244l-2.369 16.576 15.963 2.292s9.733.587 9.285-.446c-.448-1.033-9.508-22.878-9.508-22.878l-3.434-1.56-10.044 6.766.107-.75z" fill-rule="evenodd" clip-rule="evenodd" fill="#d4a8a2"/><path fill-rule="evenodd" clip-rule="evenodd" fill="#e5e4e4" d="M112.987 250.165l2.62 5.379 2.427 18.09 12.781.154-9.434-7.725-.08-14.116z"/><path fill-rule="evenodd" clip-rule="evenodd" fill="#f0f2f2" d="M112.987 250.165l2.62 5.379-.243 10.369-9.359 7.577 12.029.144v-22.386z"/><path fill-rule="evenodd" clip-rule="evenodd" fill="#fef2f0" d="M141.511 258.485l.648-10.848-16.339-17.511-4.681 4.116 6.308 19.808-1.46 8.818z"/><path fill-rule="evenodd" clip-rule="evenodd" fill="#ba8ca1" d="M171.855 272.768l-29.696-25.131-16.172 15.231 21.19 25.717z"/><path fill-rule="evenodd" clip-rule="evenodd" fill="#9e627c" d="M190.925 228.567l-9.42-11.657-12.689 4.112 12.591 18.983zM226.385 222.121l29.56-4.914 6.035 2.299.1 47.555-48.917 5.052-17.233-39.296z"/><path fill-rule="evenodd" clip-rule="evenodd" fill="#ba8ca1" d="M192.364 212.687l-10.859 4.223-6.298 42.642 37.956 12.561 1.98-40.991z"/><path fill-rule="evenodd" clip-rule="evenodd" fill="#9c8450" d="M239.939 193.577l8.055 11.838 24.58-12.969-17.936-23.461z"/><path d="M200.744 200.367c.231 1.483 14.399 30.755 14.399 30.755l40.802-13.915-7.951-11.792-47.25-5.048z" fill-rule="evenodd" clip-rule="evenodd" fill="#ba8ca1"/><path fill-rule="evenodd" clip-rule="evenodd" fill="#d8aac0" d="M194.613 203.768l-6.854 10.71 27.384 16.644-.24-11.616-11.841-19.552z"/><path fill-rule="evenodd" clip-rule="evenodd" fill="#d4a8a2" d="M240.392 196.346l-11.265 16.817-14.224 6.343-25.488-19.769 48.411-41.313z"/><path d="M254.404 161.938l.658 12.223-7.068 31.254-33.091 14.091 15.679-16.38h-16.731l-8.939-101.546s36.553-11.907 38.644-10.464c2.091 1.443 10.848 70.822 10.848 70.822z" fill-rule="evenodd" clip-rule="evenodd" fill="#f2d6d2"/><path d="M256.256 154.371l-7.023.879-9.927-2.298-1.644-47.688s3.803-15.592 5.893-14.149c2.092 1.444 12.701 63.256 12.701 63.256z" fill-rule="evenodd" clip-rule="evenodd" fill="#ccb772"/><path fill-rule="evenodd" clip-rule="evenodd" fill="#fef2f0" d="M155.816 90.268l-1.867 44.985 2.479 47.698 22.088 19.811 35.336.364 16.93-21.719 1.157-68.986-8.307-28.709z"/><path fill-rule="evenodd" clip-rule="evenodd" fill="#a99255" d="M250.94 160.774l4.122 13.387 17.512 18.285-2.657-20.797-3.051-14.017-12.208.34z"/><path d="M252.5 157.632c-.339.113-8.375 3.142-8.375 3.142l10.937 13.386 2.695-11.929-5.257-4.599z" fill-rule="evenodd" clip-rule="evenodd" fill="#d4a8a2"/><path fill-rule="evenodd" clip-rule="evenodd" fill="#fef2f0" d="M256.694 145.652l-11.248-1.978-1.322 17.1 13.633 1.458 3.118-13.416z"/><path fill-rule="evenodd" clip-rule="evenodd" fill="#d4a8a2" d="M250.477 144.695l-1.243 11.981 8.024-8.024z"/><path fill-rule="evenodd" clip-rule="evenodd" fill="#ccb772" d="M269.465 121.916l13.111 12.207-12.659 37.526-24.471-27.975z"/><path fill-rule="evenodd" clip-rule="evenodd" fill="#ead386" d="M250.702 93.207l-18.763 19.214 13.507 31.253 37.13-9.551-7.46-43.856z"/><path fill-rule="evenodd" clip-rule="evenodd" fill="#ccb772" d="M235.33 79.417l18.764.904 21.022 9.946-43.177 22.154z"/><path fill-rule="evenodd" clip-rule="evenodd" fill="#ead386" d="M208.881 91.624l7.234 4.521 15.824 16.276 22.155-32.1-18.696-22.471z"/><path fill-rule="evenodd" clip-rule="evenodd" fill="#a99255" d="M164.122 108.126l-10.173 27.127-13.789-27.579z"/><path fill-rule="evenodd" clip-rule="evenodd" fill="#ead386" d="M209.334 84.164l26.064-26.314-84.613 16.594-10.625 33.23z"/><path fill-rule="evenodd" clip-rule="evenodd" fill="#ccb772" d="M216.115 96.145l-54.628 19.009-21.327-7.48 14.044-8.637 81.194-41.187z"/><path fill-rule="evenodd" clip-rule="evenodd" fill="#fef2f0" d="M110.024 260.576l14.309-9.095-2.003-13.498-16.322-2.544z"/><path fill-rule="evenodd" clip-rule="evenodd" fill="#4b4949" d="M208.522 301.678l5.496-5.349 8.766 5.423-9.657 8.543z"/><path fill-rule="evenodd" clip-rule="evenodd" fill="#595552" d="M204.808 301.082l9.21-4.753-.891 13.966z"/><path fill="#d4aba5" d="M177.684 178.038l12.777-2.77 12.462.125 4.799-1.567 1.615 1.938-5.739 2.173-13.015-.12-12.562 2.488z"/><path fill="#f3d8d4" d="M190.803 183.833l-7.368 4.642 15.03-.429zM181.826 160.774l-11.561 13.387 4.357-9.903zM197.798 160.059l12.991 11.917-4.8-9.02zM190.613 137.209l-1.486-8.836 2.487 3.732z"/><path fill="#f3d8d4" d="M169.501 132.593l-8.357 4.417 12.057 7.465L183 159.341l6.415-4.97 6.84 4.511 9.339-16.134 13.066-7.495-11.093-3.111-11.101 2.213-4.87 6.678-1.226 6.155-3.43-5.871-5.114-6.446z"/><path fill="#d4aba5" d="M186.532 154.371l-3.532 4.97 6.879 5.603 6.376-6.062z"/><path fill="#fef9f9" d="M186.94 141.317L183 159.341l13.255-.459-4.659-17.849z"/><path fill="#a99255" d="M196.466 134.355l-.379-3.684 14.702-1.254 7.871 5.836-8.333-2.128zM181.826 134.871l.188-3.652-12.568-.97-8.302 6.761 8.709-2.978z"/><path d="M175.643 142.609c-.081 1.809-1.614 3.21-3.424 3.129-1.809-.081-3.21-1.614-3.129-3.424.081-1.809 1.614-3.21 3.424-3.129 1.809.082 3.21 1.615 3.129 3.424zM210.653 141.304c.013 1.811-1.445 3.29-3.257 3.303-1.811.013-3.29-1.445-3.302-3.257-.013-1.811 1.445-3.29 3.257-3.302s3.289 1.445 3.302 3.256z" fill="#33302d"/><path fill-rule="evenodd" clip-rule="evenodd" fill="#d4aba5" d="M172.47 152.953l-6.904 8.494-4.848 10.529 6.809-9.16z"/><path fill-rule="evenodd" clip-rule="evenodd" fill="#d4aba5" d="M166.594 156.892l2.721.702 2.264 3.18-3.107-1.433zM163.066 160.644l3.387.412 3.67 3.229-4.179-1.236zM161.453 164.944l2.669 1.073 1.543 2.527-2.457-1.076z"/></svg>