<svg xmlns="http://www.w3.org/2000/svg" viewBox="0 0 400 400"><path opacity=".1" fill-rule="evenodd" clip-rule="evenodd" fill="#2b2b2b" d="M83.003 380.639L202.714 400l104.294-19.2-108.059-18.198z"/><path fill-rule="evenodd" clip-rule="evenodd" fill="#594165" d="M153.248 280.5l53.674 50.24 43.941-53.489-46.066-2.423z"/><path fill-rule="evenodd" clip-rule="evenodd" fill="#785d88" d="M170.941 326.329l22.036 15.051h13.945l2.923-6.233-4.895-9.954-51.702-44.693z"/><path fill-rule="evenodd" clip-rule="evenodd" fill="#655075" d="M206.922 341.38l-35.981-15.051 11.127 28.887 7.839 11.055 19.798 9.288 1.805-21.835z"/><path fill-rule="evenodd" clip-rule="evenodd" fill="#594165" d="M182.068 355.216l-30.086 20.465 31.511 2.396 22.504-5.638z"/><path fill-rule="evenodd" clip-rule="evenodd" fill="#785d88" d="M151.982 375.681v5.937h31.289l15.806-4.926 3.637 4.926h6.767l.289-7.081-3.773-2.098z"/><path fill-rule="evenodd" clip-rule="evenodd" fill="#9075a0" d="M255.008 270.415l-50.058 54.778 1.972 16.187 20.204 9.737 22.056-6.257L263.667 300l-3.307-15.357z"/><path fill-rule="evenodd" clip-rule="evenodd" fill="#785d88" d="M249.182 344.86l-42.26-3.48 2.848 23.372 14.186 5.415 17.725-1.875z"/><path fill-rule="evenodd" clip-rule="evenodd" fill="#e2e2e2" d="M88.935 95.207L76.911 75.128l13.376-25.454h17.491l12.079 24.661-11.09 20.872-11.634 2.501z"/><path fill-rule="evenodd" clip-rule="evenodd" fill="#785d88" d="M102.74 96.076l.725-12.163 8.222-13.315-27.151.174 8.176 12.308 1.881 13.657 1.561.053-.606-14.395-5.182-8.457 15.451-.727-4.688 10.467-.288 13.115z"/><path fill-rule="evenodd" clip-rule="evenodd" fill="#96637c" d="M97.68 104.174l-7.576-1.996-1.169-6.971h19.832l-.989 4.491z"/><path fill-rule="evenodd" clip-rule="evenodd" fill="#734d60" d="M91.538 110.733l16.24-11.035-17.674 2.48z"/><path fill-rule="evenodd" clip-rule="evenodd" fill="#cea39f" d="M114.025 142.536l5.83-23.35-4.13-4.705-18.045 14.175z"/><path fill-rule="evenodd" clip-rule="evenodd" fill="#ffeee9" d="M84.458 107.4l23.32-7.702 7.947 14.783-14.63 15.425z"/><path fill-rule="evenodd" clip-rule="evenodd" fill="#594165" d="M168.098 149.253l-51.575 27.431 21.655 34.344 17.323-33.855zM280.138 159.931l29.983 74.167-42.684-2.101 4.865-51.721z"/><path fill-rule="evenodd" clip-rule="evenodd" fill="#785d88" d="M250.863 151.543l29.275 8.388-10.699 106.875-14.431 3.609-12.215 13.367-20.663 4.287-28.609-12.599-40.273 5.03-14.114-2.262-.956-67.21 29.92-61.775 14.057-5.467z"/><path fill-rule="evenodd" clip-rule="evenodd" fill="#96637c" d="M168.098 149.253l-9.057 46.743-1.096 31.212-4.697 53.292 28.072 8.699 11.657-9.948 9.994 12.905 19.159-4.087 10.299-53.972 13.532-35.914 4.902-46.64z"/><path fill-rule="evenodd" clip-rule="evenodd" fill="#c6c6c6" d="M168.098 149.253l28.952 65.483 53.813-63.193-51.22 12.493z"/><path fill-rule="evenodd" clip-rule="evenodd" fill="#d1d1d1" d="M157.945 17.93l-24.651 19.443 6.522 29.876 8.23-29.182z"/><path fill-rule="evenodd" clip-rule="evenodd" fill="#ffeee9" d="M157.945 17.93l-14.659 22.043-6.921 54.407 4.936 34.011 24.744 3.848 31.954 27.449 45.175-8.947 28.672-63.904L258.7 66.981l-20.197-43.203-56.705-12.151z"/><path fill-rule="evenodd" clip-rule="evenodd" fill="#efd0cb" d="M238.503 23.778l-16.739 91.63-16.814 23.16-14.677 3.968 7.726 17.152 15.938.065 42.207-24.512 6.096-17.521 2.592-9.718 1.503-2.678 8.513-23.491L258.7 66.981zM203.85 60.681l-29.702 21.686-26.102-30.237z"/><path fill-rule="evenodd" clip-rule="evenodd" fill="#cea39f" d="M174.148 82.367l-7.196 7.439-5.293-9.549z"/><path fill-rule="evenodd" clip-rule="evenodd" fill="#fff5f3" d="M179.119 56.891l-4.971 25.476-6.751.816-5.738-2.926 4.386-25.369z"/><path fill-rule="evenodd" clip-rule="evenodd" fill="#cea39f" d="M152 96l36.5 5.75 2.187 5.306-41.032-6.252z"/><path fill-rule="evenodd" clip-rule="evenodd" fill="#6d6d6d" d="M179.119 56.891l2.004-7.461 25.652 5.458-2.925 5.793zM166.045 54.888V46.73l-16.368-1.35-1.631 6.75z"/><path fill-rule="evenodd" clip-rule="evenodd" fill="#cea39f" d="M166.045 132.239l66.382 10.799-25.289 23.08-11.389-1.929z"/><path fill-rule="evenodd" clip-rule="evenodd" fill="#efd0cb" d="M179.119 56.891l-4.296-4.761-.113-12.376-4.191 11.814-4.474 3.32z"/><path fill-rule="evenodd" clip-rule="evenodd" fill="#cea39f" d="M266.335 105.325l-14.136-5.041 10.041 17.437zM258.6 94.658l3.499-9.627 7.55 2.427z"/><path fill-rule="evenodd" clip-rule="evenodd" fill="#e2e2e2" d="M206.775 5.22l4.251 14.981 30.631 8.985 12.543 3.818 12.447-5.401L224.782.6z"/><path fill-rule="evenodd" clip-rule="evenodd" fill="#bababa" d="M241.657 29.186l4.15 14.254 8.334 11.448-3.351 12.54-7.089 17.603 8.136 7.477 8.43-15.963 14.581 5.288 4.302-14.828-9.424-8.349 8.826-9.225-11.905-21.828z"/><path fill-rule="evenodd" clip-rule="evenodd" fill="#d1d1d1" d="M206.775 5.22l34.882 23.966-33.082 1.455-26.777-19.014z"/><path fill-rule="evenodd" clip-rule="evenodd" fill="#e2e2e2" d="M250.79 67.428l28.36-.424-.598-17.574-32.746-5.993zM256.144 135.241l-37.733 5.517-11.273 25.36 12.025-2.082 14.73-6.837 16.97-5.656zM166.045 132.239l33.598 31.797-11.244-3.02-8.745-6.347-11.556-5.416z"/><path fill-rule="evenodd" clip-rule="evenodd" fill="#9b9b9b" d="M201.104 169.554l-3.544 19.467-.51 25.715 4.054-25.298z"/><path fill-rule="evenodd" clip-rule="evenodd" fill="#757575" d="M207.138 166.118l-7.495-2.082-4.061 4.164 1.56 4.687 9.996 2.186 2.707-4.166z"/><path fill-rule="evenodd" clip-rule="evenodd" fill="#5b5b5b" d="M207.138 166.118l26.756-8.919-9.738 25.706-17.018-7.832zM197.142 172.887l-16.7 4.286-.788-22.504 19.989 9.367z"/><path fill-rule="evenodd" clip-rule="evenodd" fill="#d1a1b8" d="M197.05 214.736l-35.835-33.082 6.883-32.401zM250.863 151.543l-53.813 63.193 48.823-25.3z"/><path fill-rule="evenodd" clip-rule="evenodd" fill="#9075a0" d="M250.863 151.543l25.032 45.093-43.467 37.462zM157.945 227.208l-19.767-16.18 29.92-61.775z"/><path fill-rule="evenodd" clip-rule="evenodd" fill="#734d60" d="M197.05 214.736l-4.073 35.916v28.599l4.073-28.286zM209.375 223.45l-4.578 3.449 3.731 5.098 4.464-3.873zM207.403 243.357l-4.579 3.449 3.732 5.098 4.464-3.873zM205.431 263.264l-4.579 3.449 3.732 5.098 4.464-3.873z"/><path fill-rule="evenodd" clip-rule="evenodd" fill="#9075a0" d="M310.121 234.098L281.6 274.367l-16.656-2.541-4.599-12.886 11.957-31.216z"/><path fill-rule="evenodd" clip-rule="evenodd" fill="#e2e2e2" d="M260.345 258.94l-5.337 11.475 7.145 8.467 12.15 5.83 7.297-10.345z"/><path fill-rule="evenodd" clip-rule="evenodd" fill="#efd0cb" d="M255.008 270.415L263.667 300l10.636-15.288z"/><path fill-rule="evenodd" clip-rule="evenodd" fill="#785d88" d="M138.178 211.028l-19.713-57.879-14.473-8.912-10.719 13.936 6.176 47.963z"/><path fill-rule="evenodd" clip-rule="evenodd" fill="#e2e2e2" d="M114.025 142.536l-22.487 3.812 1.735 11.825 25.192-5.024z"/><path fill-rule="evenodd" clip-rule="evenodd" fill="#efd0cb" d="M114.025 142.536L84.458 107.4l-8.328 18.818 15.408 20.13z"/><path fill-rule="evenodd" clip-rule="evenodd" fill="#594165" d="M209.77 364.752l-10.127 20.636 22.645 3.122 19.71-2.186-.317-18.032z"/><path fill-rule="evenodd" clip-rule="evenodd" fill="#785d88" d="M199.643 385.388v6.871l42.355.624v-6.559z"/><path fill-rule="evenodd" clip-rule="evenodd" fill="#efd0cb" d="M174.148 82.367L189.25 91l5.25 23.5zM161.659 80.257l-12.411 6.745-1.998 17.498z"/><circle cx="188.546" cy="65.068" r="3.399" fill-rule="evenodd" clip-rule="evenodd" fill="#2b2b2b"/><circle cx="157.468" cy="60.681" r="3.399" fill-rule="evenodd" clip-rule="evenodd" fill="#2b2b2b"/></svg>