<svg xmlns="http://www.w3.org/2000/svg" viewBox="-152 -152 400 400"><path fill="none" d="M0 0h96v96H0z"/><path fill="#2b2b2b" fill-opacity=".149" d="M-18.936 234.874l102.83-9.269 99.638 10.852L81.624 247.5z"/><path fill="#915976" d="M90.278 218.834l-6.706 20.459 1.934 3.532 32.715 1.66 1.35-3.597-6.286-21.102-10.494-15.316z"/><path fill="#6f4258" d="M59.13 205.275l-13.413 6.706-24.718 19.768 1.581 3.223 24.555-1.018 19.914.794 1.643-3.357.741-16.089z"/><path fill="#5a394a" d="M20.999 231.749l.098 4.643 47.754-.098-.012-4.838z"/><path fill="#434848" d="M54.406 174.063l-15.719 4.142 7.03 33.776 23.716 3.321 5.545-30.55z"/><path fill="#383838" d="M108.593 156.069l12.98 23.442-8.288 40.275-23.007-.952-5.497-33.13z"/><path fill="#434848" d="M53.067 143.524l26.941 13.498 4.773 28.682 36.792-6.193 8.301-40.276-29.212-30.598-39.404 20.296z"/><path fill="#6c6d6d" d="M48.957 119.599l-21.718 3.532 11.448 55.074 36.291 6.547 5.03-27.73-11.69-38.55z"/><path fill="#383838" d="M80.008 157.022l15.495-6.515 21.944-24.296-47.095-17.172-17.122 32.345z"/><path fill="#6f4258" d="M83.572 239.293l35.999 1.595v5.355l-35.999-1.595z"/><path fill="#eecec9" d="M-30.657 19.269l-5.804 8.384-14.881-10.399 14.301-12.931z"/><path fill="#eecec9" d="M-23.563 18.142l6.725-.066-7.353-16.186-22.378-11.674-2.741 4.112 10.946 10.237z"/><path fill="#785c87" d="M53.791 39.956L36.543 11.562.557 42.084l-2.403 17.073 19.783 6.934 13.092-3.401 24.073-9.644-1.213-12.478zM134.488 21.348l-13.525-7.479L49.214 66.38l17.045 59.651 29.244 24.476 34.371-11.272 1.726-16.714 8.755-61.382z"/><path fill="#8f75a0" d="M49.118 12.046l-4.063-3.225-8.512 2.741-9.304 111.569 25.991 18.253 13.029-15.353-2.149-56.396z"/><path d="M106.705 24.605L64.11 69.635S52.855 18.85 51.923 18.529c-.935-.324 54.782 6.076 54.782 6.076z" fill="#fff"/><path fill="#a687b9" d="M56.713 18.237l7.397 51.398-23.73-36.404 4.675-24.41 10.901-3.513zM110.046 9.015l10.917 4.854-5.937 28.003L64.11 69.635 93.147 7.597z"/><path d="M88.907 34.214l3.255 8.626-1.611 3.772-22.343-15.171-21.395 1.548-.694-2.498s15.993-8.561 15.852-9.174c-.146-.629 26.937 12.913 26.937 12.913v-.016z" fill="#000002" fill-opacity=".102"/><path fill="#b2849b" d="M69.705 24.703l3.483 4.852L92.162 42.84 94.6 32.698 79.06 17.35l-15.38 1.565z"/><path d="M56.713 16.852l-7.692 6.464-2.917 7.159 16.266-3.676s10.303-9.723 10.449-9.076c.146.642-16.121-.887-16.121-.887l.015.016z" fill="#b2849b"/><path fill="#915976" d="M76.558 17.641l-27.554 5.691 8.015-20.797 18.509 7.56z"/><path fill="#915976" d="M70.06 19.946L94.6 32.698l6.238-23.15-30.404 3.933z"/><path fill="#eaeceb" d="M59.468-15.167L38.461-4.576l31.973 18.057zM71.256-4.576l-.822 18.057 50.529.388-2.661-12.85-39.921-8.433z"/><path fill="#cea19c" d="M45.121-31.808l25.313 45.289 12.203-17.54 35.665 5.078-45.838-36.631z"/><path d="M95.133-15.33l4.932 8.158 18.237 8.191 43.074-51.64s-33.292-50.722-34.18-52.834c-.883-2.112-34.18 59.927-34.18 59.927l2.116 28.182v.016z" fill="#eecec9"/><path fill="#cea19c" d="M134.858-37.773l-12.349-.806 10.702 16.075 6.612-2.515.712-8.996z"/><path fill="#808181" d="M147.013-26.082l14.64 13.315-43.351 13.786 12.492-21.493z"/><path fill="#8b8a8a" d="M154.996-62.94l19.975 16.864-13.318 33.309-30.859-7.707 10.917-18.815z"/><path fill="#9c9fa0" d="M165.425-85.802l6.221 16.655 3.325 23.071-33.26 6.787-11.287-5.932-5.046-27.537z"/><path d="M155.883-115.548l22.633 11.544-6.885 34.857-46.285-3.611S94.279-95.459 94.164-93.345c-.13 2.112 56.381-22.638 56.381-22.638l5.322.452.016-.017z" fill="#a8a8a9"/><path fill="#cdcccb" d="M98.84-139.069l45.064-12.431 34.627 47.496-68.648 10.836-41.675-29.039z"/><path fill="#eaeceb" d="M63.321-124.866l-20.862-6.885 35.971-15.316 65.474-4.433-57.817 25.021z"/><path fill="#9c9fa0" d="M51.777-125.527l-6.205 2.274-14.205 21.023 15.751 21.313 7.112-41.29z"/><path fill="#a8a8a9" d="M81.087-115.548l5-10.931-43.628-5.272 7.337 20.04z"/><path fill="#feeee9" d="M49.796-111.711L28.368-33.032l71.696 25.86 25.314-65.586-15.495-20.41-23.796-33.311z"/><path d="M86.087-89.848l-4.658 1.66-5.16 2.887-7.706 3.435L69.9-86.51l-1.001-4.677s-9.126-7.963-8.654-8.77c.464-.806-10.096 1.888-10.096 1.888l5.127 11.365 1.693 20.589 6.384-1.983 5.949 5.434 19.267-13.414 19.397-2.677-7.658-9.77-14.205-1.338-.016.015zm-48.175 44.95l-7.769 5.337-.969 3.546 13.174-3.048 24.196 6.159 15.935 15.816.382-2.725-14.315-21.748-30.634-3.337z" fill="#eecec9"/><path fill="#c4c4c3" d="M43.458-54.669l-2.659-2.773-10.64 17.864 13.413-3.112zM74.642-47.559l4.56.436 3.658 27.294-13.541-16.186z"/><path fill="#d6d7d6" d="M63.997-64.761l5.273 2.096 9.932 15.542-9.883 11.092-25.747-6.643-2.773-14.768 16.137-8.674z"/><path fill="#8b8a8a" d="M61.889-66.034l-4.953-.082 5.161 4.983 7.173-1.532z"/><path fill="#a8a8a9" d="M113.143-79.482l-7.484-16.057-24.149.887-.098 6.464 18.091 1.338 8.431 8.094zM68.884-91.187l3.885-4.578-9.578-10.06-13.814 3.127.74 4.645 8.997-.228z"/><path fill="#fef4f2" d="M76.253-85.301l-6.015-1.725-9.106 11.816-4.196 9.094 12.334 3.451 1.79-9.481z"/><path fill="#491333" d="M73.188 29.555l-10.819-2.74 8.065-13.334z"/><path d="M56.615-89.59c2.108 0 3.821 1.711 3.821 3.821 0 2.11-1.713 3.821-3.821 3.821-2.107 0-3.82-1.711-3.82-3.821 0-2.11 1.713-3.821 3.82-3.821zM87.182-79.836c2.112 0 3.825 1.711 3.825 3.821 0 2.112-1.713 3.821-3.825 3.821-2.107 0-3.816-1.709-3.816-3.821-.001-2.11 1.708-3.821 3.816-3.821z" fill="#2b2b2b"/><path fill="#feeee9" d="M137.499-32.034l-14.99-6.545 10.897-25.071 17.558 8.433z"/><path fill="#cea19c" d="M145.129-52.139l-9.754-4.561-5.757 12.156z"/><path fill="#8a6e9c" d="M-48.359 6.451l24.168-4.561 2.144 4.708-18.783 4.836-6.109.402z"/><path fill="#735382" d="M-66.353 27.718l17.994-21.267 7.529 4.983-14.333 23.7-9.674 1.564z"/><path fill="#a687b9" d="M-76.492 22.011l2.691-7.32 14.704-4.24 3.934 24.683-9.674 6.142-6.352-5.998z"/><path fill="#8b6f9d" d="M-87.536 15.867l7.158-3.853 9.029 9.127 6.512 20.135-9.527-2.869z"/><path fill="#b2849b" d="M-87.536 15.867l11.963-6.417 16.476 1.001-12.252 10.69z"/><path fill="#491333" d="M-82.281 15.432l7.756-3.628 9.19.904-6.724 4.868z"/><path fill="#feeee9" d="M-16.838 18.076L-38.364 4.565l-2.466 6.869 4.433 5.208-.064 11.011 12.593 4.128z"/><path fill="#8f75a0" d="M17.937 66.091L-13.551 76.41l-22.91-48.757 19.623-9.577z"/><path fill="#a17289" d="M98.388 61.606l-1.627 47.934 34.679 14.559 11.398-26.603-9.319-19.044z"/><path fill="#915976" d="M166.459 63.495l-32.94 14.957-2.079 45.647 33.326-11.544z"/><path fill="#dddddc" d="M107.982 57.835l-9.594 3.771 35.131 16.846 4.126-4.175-3.803-3.125z"/><path fill="#ebebea" d="M159.667 59.995l-25.825 11.157-.323 7.3 32.94-14.957z"/><path fill="#8f75a0" d="M134.488 21.348l17.864 43.612-18.51 6.192z"/><path fill="#feeee9" d="M165.86 80.857l-11.462 6.547-1.933 19.605 12.411 2.678 3.711-11.691z"/><path fill="#eecec9" d="M172.2 100.336l-6.34-19.479-.984 28.83z"/></svg>