<svg xmlns="http://www.w3.org/2000/svg" viewBox="0 0 400 400"><path fill-rule="evenodd" clip-rule="evenodd" fill="#77624f" d="M258.122 70.784l9.109 16.006-20.523 5.183-7.941-14.716 4.701-1.572z"/><path fill-rule="evenodd" clip-rule="evenodd" fill="#543b24" d="M249.853 98.848l7.98 20.926-24.004-1.856 6.844-28.513z"/><path d="M248.08 73.489l2.837 9.121 10.815 20.848-17.44.135s-6.766-17.252-8.45-17.337c-1.683-.083 12.238-12.767 12.238-12.767z" fill-rule="evenodd" clip-rule="evenodd" fill="#5f4937"/><path fill="#f3d8d4" d="M193.34 144.689l-5.305 12.712 47.074-9.686 8.36-43.648-18.348-58.353-34.162 31.478z"/><path fill="#d4aba5" d="M245.86 93.665l-2.391 10.402-12.573-13.397 14.964-8.059v11.054"/><path fill-rule="evenodd" clip-rule="evenodd" fill="#77624f" d="M234.997 21.663l21.458 4.434 8.126 26.83-6.459 17.857-25.252-15.073-9.93-24.472z"/><path fill-rule="evenodd" clip-rule="evenodd" fill="#937e6f" d="M214.426 14.924l19.154-4.078 22.875 15.251-21.281 14.186-42.56 4.257z"/><path fill-rule="evenodd" clip-rule="evenodd" fill="#3e2b17" d="M190.959 6.288l33.576-3.285 9.045 7.843-26.062 20.8-35.653 11.669z"/><path fill-rule="evenodd" clip-rule="evenodd" fill="#937e6f" d="M157.323 24.856l-19.33-2.928L170.876 0l53.659 3.003z"/><path fill-rule="evenodd" clip-rule="evenodd" fill="#77624f" d="M141.718 33.012l-3.725-11.084 86.542-18.925-36.532 20.256-29.083 29.615z"/><path fill-rule="evenodd" clip-rule="evenodd" fill="#5f4937" d="M162.289 45.781l-5.222-7.078 30.936-15.444 19.515 8.387 2.693 5.753-20.789 18.49z"/><path fill-rule="evenodd" clip-rule="evenodd" fill="#3e2b17" d="M138.704 63.691l-6.916 12.591 16.137.178 4.078-14.542z"/><path fill-rule="evenodd" clip-rule="evenodd" fill="#5f4937" d="M139.945 51.101l-10.463 15.251 16.785 2.197z"/><path fill-rule="evenodd" clip-rule="evenodd" fill="#77624f" d="M141.009 37.801l-9.4 7.802 14.773 30.84 24.876-23.569z"/><path fill-rule="evenodd" clip-rule="evenodd" fill="#937e6f" d="M162.289 45.781l-5.222-7.078-19.074-16.775-6.384 23.675 14.521 6.134z"/><path fill-rule="evenodd" clip-rule="evenodd" fill="#5f4937" d="M208.752 45.427l-1.234-13.781 27.656 8.637 22.948 30.501-13.412-.341-15.324-9.612-6.048-7.957z"/><path fill-rule="evenodd" clip-rule="evenodd" fill="#3e2b17" d="M252.999 86.623l-9.576-3.916-1.869-3.747-14.695-3.028-.397-18.948 31.66 13.8z"/><path fill="#d4aba5" d="M174.034 125.62l17.141 31.781h24.577l9.266-20.077-24.973.049z"/><path fill="#fef3f1" d="M146.949 115.381l20.981 21.006 32.115.986 20.302-21.477 2.991-63.022-15.82-21.228-50.451 7.057-10.937 13.034v7.386z"/><path fill-rule="evenodd" clip-rule="evenodd" fill="#fef3f1" d="M233.829 70.007l16.111 3.147-4.08 20.511-14.964-2.995z"/><path fill-rule="evenodd" clip-rule="evenodd" fill="#d4aba5" d="M237.623 75.407l-1.702 9.103 7.839-7.724z"/><path opacity=".1" fill="#33302d" d="M112.458 387.005l87.404-14.557 87.68 19.509-87.83 8.043z"/><path fill="#9e627c" d="M199.712 301.784l-8.741 29.284-20.297 5.525-14.239-10.552.34-47.593 15.97-22.302zM199.712 298.648l11.164 32.42 19.793 22.961 15.652-21.774 1.405-48.145-12.792-29.359z"/><path fill="#7b4c61" d="M199.712 301.784l-42.957-20.565v-16.543l20.266-21.428 71.476 24.183-.771 16.679z"/><path fill="#7f5a87" d="M161.017 161.102l-28.493 50.632 26.463 11.745 8.292-8.563z"/><path fill="#ae8dbd" d="M179.345 154.556l-3.385 19.676-16.973 40.684-1.988 41.23 13.905 8.003 29.255-3.588 17.019-5.57-12.894-99.673z"/><path fill="#ae8dbd" d="M179.345 154.556l-18.328 6.546-2.03 53.814 43.639-9.655 1.658-49.943z"/><path fill="#9776a1" d="M235.176 156.485l25.847 10.097-11.719 91.846-14.37 7.114-33.761-3.573 3.111-106.651 16.95 5.797z"/><path fill="#403d3b" d="M156.999 256.146l92.305 2.282-.807 9.003-91.742-2.755z"/><path fill="#9776a1" d="M238.023 154.115l23 12.467-7.095 51.562-49.285-11.422-.359-51.404 16.95 5.797z"/><path fill="#7b4c61" d="M210.876 331.068l35.445 1.187-.964 38.111-10.423 1.397-13.382-4.531zM156.435 326.041l34.536 5.027-10.768 40.695-12.241-1.334-11.789-9.459z"/><path fill="#605c5b" d="M221.552 367.232l-6.024 19.498 17.003 2.742 15.195-2.742-2.369-16.364z"/><path fill="#504b4a" d="M215.528 386.73h32.198v5.484h-32.198zM179.71 384.905h-11.636l-.754-3.922-13.408 3.922h-21.315v-5.484l23.803-3.011 23.31 3.011z"/><path fill="#605c5b" d="M156.173 360.97l-23.576 18.451h47.113l.493-7.658z"/><path fill="#7f5a87" d="M235.702 144.622l2.321 9.493-15.733 20.536-18.006-19.333-19.358 18.045-5.581-18.807 5.389-9.098 19.55 9.86z"/><path fill="#d8d6d5" d="M193.336 257.045v7.592l12.901.281v-7.555z"/><g><path fill="#9776a1" d="M167.636 191.679l-35.112 20.055 25.649 20.056 19.447-16.934-.709-17.856z"/><path fill="#d4aba5" d="M183.373 181.287l-15.737 10.392 12.693 20.846 15.632-13.611-.709-17.857z"/><path fill="#5d4063" d="M173.056 186.363l-16.976 4.691 22.177 29.983 9.137-13.691z"/><path fill="#fef3f1" d="M193.881 176.283l-6.792-13.951 17.195-7.014 12.894 13.845-9.474 12.594z"/><path fill="#f3d8d4" d="M183.373 181.287l3.716-18.955 20.615 19.425-11.743 17.157z"/></g><path fill="#f3d8d4" d="M170.524 65.012l3.822 3.097 3.558 2.24 3.426 4.481 1.713-4.481 4.744-2.24 5.403-3.624 13.045-1.12 5.535 2.899-10.937 8.566-10.411 19.634-12.387-8.17-7.511 8.17-9.356-18.976-9.488-8.96 7.643-3.163z"/><path fill="#d4aba5" d="M179.88 87.348l-9.356 7.116 9.949 5.798 9.949-5.798z"/><path fill="#fef9f9" d="M177.904 70.349h5.139l2.108 12.387 5.271 11.728h-19.898l5.771-11.478z"/><path d="M201.957 73.254c0 2.074-1.681 3.756-3.756 3.756-2.074 0-3.756-1.682-3.756-3.756s1.681-3.756 3.756-3.756c2.075 0 3.756 1.681 3.756 3.756z" fill="#33302d"/><circle cx="164.204" cy="74.105" r="3.756" fill="#33302d"/><path fill="#d4aba5" d="M164.99 107.246l5.534 2.24h23.922l6.387-3.558 1.124 2.504-7.511 3.953h-24.449l-5.793-3.228z"/><path fill="#f3d8d4" d="M166.703 98.681l-9.356 11.464.79-8.565zM198.988 98.681l9.883 11.464-1.582-9.883z"/><path fill="#5f4937" d="M187.787 68.109v-6.062l15.022-1.186 8.961 2.504v2.899l-9.356-1.779zM174.346 68.109v-6.193H159.85l-9.092 2.569.922 2.043 9.356-1.516z"/><path fill="#ae8dbd" d="M261.023 166.582l3.381 51.562-31.751 18.663-21.328-32.024 21.983-1.083z"/><path fill="#7f5a87" d="M233.948 202.844l-18.762-1.72-9.417 5.153 7.92 20.661 18.964 9.869z"/><path fill="#5d4063" d="M215.186 201.124l-11.499-1.304-8.502-2.276 7.196 22.993 11.308 6.401z"/><path fill="#fef3f1" d="M202.815 199.587l-13.721-10.289-1.022 26.545 14.309 4.694z"/><path fill="#f3d8d4" d="M175.287 189.628l13.807-.33-1.022 26.545-15.783-7.593z"/></svg>