<svg xmlns="http://www.w3.org/2000/svg" viewBox="-152 -150.385 400 400"><path fill="#2b2b2b" fill-opacity=".102" d="M-64.771 233.387l110.662-10.142 114.768 12.766-99.724 13.104z"/><path fill="#ffeee9" d="M-.494 164.551l3.533-57.782 40.572 33.621-23.02 29.859 7.864 14.019-12.081 28.72-17.096-3.193z"/><path fill="#efd0cb" d="M34.038 132.41l9.573 7.98-23.02 29.859-21.085-5.698-.113 36.126 20.741 3.535 8.321-19.944-7.864-14.019 10.257-36.127z"/><path fill="#ffeee9" d="M60.365 169.908L43.611 140.39l35.902-32.824 7.181 63.594 5.922 9.915-2.961 35.447-14.36.228-14.36-33.621z"/><path d="M60.365 169.908L43.611 140.39l8.205-7.52 4.218.911 4.331 36.127zm26.329 1.252l5.812 9.915-2.965 35.446-14.36.229-14.246-33.621-.569-13.107 26.329 1.253v-.115zM129.885 35.655l.456 20.513-39.547-6.04L79.74 36.679l5.926-22.794z" fill="#efd0cb"/><path fill="#ffeee9" d="M129.657 17.646l.684 38.522 30.884-7.182L142.65 7.732z"/><path fill="#cea39f" d="M129.657 17.646l.114 7.41 14.247-14.018-1.368-3.306z"/><path fill="#efd0cb" d="M121.564-22.014l.118 12.193 10.485 11.627 6.267-9.232-9.004-17.78z"/><path fill="#ffeee9" d="M121.682-9.821l17.093 2.395 5.243 18.35-14.361 6.722-11.281-11.053z"/><path fill="#efd0cb" d="M109.258-1.159l12.424-8.662 7.975 27.467-13.787 1.026zM-40.953 36.566l-6.837 10.029 10.371 12.079 30.542-6.838 5.7-6.152-3.534-29.29z"/><path fill="#ffeee9" d="M-43.117 23.345l5.698 35.329-27.808-2.506 3.874-35.899 4.445-4.331z"/><path fill="#cea39f" d="M-42.889 18.33l-.228 5.015h-18.577l.683-6.609z"/><path fill="#efd0cb" d="M-39.585-16.658l-.114 12.193-10.484 11.627-6.269-9.232 9.004-17.78z"/><path fill="#ffeee9" d="M-39.699-4.465L-56.794-2.07l-4.217 18.806 17.894 6.609 6.722-11.396z"/><path fill="#efd0cb" d="M-27.276 4.198l-12.423-8.663-3.418 27.81 10.712-3.762z"/><path fill="#ffeee9" d="M-4.711 16.394l16.07-9.004 53.793-5.47 20.514 11.965 5.128 36.243-13.108 38.978 1.827 18.46-35.902 32.824-24.502-20.286-16.07-13.335 1.823-16.98-11.739-37.953z"/><path fill="#efd0cb" d="M77.686 89.106l1.827 18.46-12.539 9.687-24.045 11.741-23.82-8.89-16.07-13.335 1.823-16.98 22.11 16.866 5.7 12.88 18.234-.797 6.613-12.083z"/><path fill="#e6d6d2" d="M30.734 111.1l9.346-9.573-2.166-36.013-28.948 1.139 27.352-9.119 3.418-22.449 5.586 21.767 28.037 10.826L45.436 65.4l2.279 36.582 11.853 11.4-17.324 10.598z"/><path fill="#96637c" d="M-4.711 16.394l23.82 103.71 11.739 14.018 12.763 6.268 12.536-6.608 10.827-16.529L85.666 13.885l-6.268-3.644-21.879 96.414-15.275 7.865-15.272-7.865-7.408-36.81L1.672 12.86z"/><path fill="#734d60" d="M19.109 120.104l11.739 14.018 12.763 6.268 12.423-6.608 10.94-16.529-24.73 6.727z"/><path fill="#c4c4c4" d="M23.326 196.464l-6.952 16.524-17.096-3.193.115-18.345z"/><path fill="#93637d" d="M-33.43 229.056l10.94-6.836 21.768-12.425 17.096 3.193-.456 15.385-20.515 5.243z"/><path fill="#734d60" d="M15.918 228.373l-.228 7.751-49.12.57v-7.638z"/><path fill="#a688ba" d="M-22.49 222.22l21.768-12.425 9.574 1.826z"/><path fill="#c4c4c4" d="M90.907 200.906l-1.252 15.616-14.36.228-7.182-16.87z"/><path fill="#93637d" d="M65.949 235.095l9.346-18.345 5.356 3.189 3.193.342 5.811-3.759 12.534 18.345.456 7.866-37.152.228z"/><path fill="#a688ba" d="M75.295 216.75l14.36-.228-6.495 11.965z"/><path fill="#734d60" d="M102.189 234.867l.456 7.866-37.152.228.456-7.866z"/><path fill="#ffeee9" d="M-23.972-103.73l3.306 64.391 34.418 19.375L44.98-42.641l5.584-37.611-5.128-32.368-40.232-10.826z"/><path fill="#e6d6d2" d="M-20.666-39.339L-9.611-7.995l14.246-.683 23.82 10.37 16.411-11.969 6.836-22.107-6.722-10.257-36.584-4.673z"/><path fill="#474747" d="M-31.835-108.061l-2.28 14.588 11.511 15.844-1.368-26.101z"/><path fill="#474747" d="M-37.761-119.115l5.926 11.054 19.944-8.658 18.122-15.276 1.708-8.886-4.101-9.004z"/><path fill="#4f5253" d="M-31.835-108.061l34.76-27.35-6.154 22.336-9.801 13.904-10.712.569z"/><path fill="#474747" d="M-1.064-105.779l6.382-9.688-2.393-19.944-9.116 20.741-6.839 15.499z"/><path fill="#6f7173" d="M9.535-105.21l-10.599-.569 3.989-29.632 9.117 4.673 11.74 16.41zM31.189-142.821l-27.351-7.064-.913 14.474 18.463 7.633 13.22-1.936 2.279-6.836z"/><path fill="#4f5253" d="M23.782-114.328l9.915-4.787.911-10.599-18.462-3.306-13.221-2.391z"/><path fill="#474747" d="M61.964-143.618l-30.775.797 3.419 13.107 19.149.228zM45.436-110.566l1.367-14.019-12.195-5.129-10.826 15.386z"/><path fill="#6f7173" d="M81.561-126.521l-19.597-17.097-27.356 13.904 10.828 19.148 22.45-.342z"/><path fill="#cea39f" d="M10.446 7.959L4.635-8.678l40.231-1.599 2.507-2.505 7.979 2.164L51.931 9.44l-13.22 24.161z"/><path fill="#efd0cb" d="M65.152 1.92l7.979-50.032-8.89-57.554-18.805-4.9-.456 67.925 6.836 32.136-13.105 44.106z"/><path fill="#3a3a3a" d="M58.768-59.055l-6.952 8.207-1.252-29.404 18.919-6.722 13.787 6.836.456 22.226z"/><path fill="#ffeee9" d="M59.91-76.945l16.865 1.252 5.357 18.806-9.346 8.775-14.702-1.483-2.392-2.506 3.076-6.954z"/><path fill="#cea39f" d="M71.646-39.453L58.084-49.595l14.702 1.483zM63.668-61.56l1.142-9.46 6.951.797z"/><path fill="#4f5253" d="M53.528-95.295l-8.092-15.271 36.125-15.955 8.778 27.35-16.87 9.118z"/><path fill="#474747" d="M50.564-80.252l2.964-15.043 36.811-3.876-7.069 19.033H67.775z"/><path fill="#4f5253" d="M70.736-33.068l18.122-21.2-5.588-25.87-6.495 4.445z"/><path fill="#d7bbb7" d="M58.084-49.595l-6.268 39.09-5.128.115-1.822.113.114-19.83v-12.534l13.788-16.414-.228 3.421z"/><path fill="#cea39f" d="M-4.711-34.894l32.366-2.961-5.128 8.09L.875-27.598z"/><path fill="#fff" d="M-1.519-33.637l2.28 3.53 19.487-1.822 3.078-4.103z"/><path fill="#efd0cb" d="M-20.666-82.529l12.765 8.203 9.459 20.741 6.267 2.281 6.497-3.647 7.977-18.464 12.195-11.738-11.623-1.708-9.005 3.644-4.103 3.762-3.305 3.079-4.445-2.965-4.786-3.188-9.687-2.737z"/><path fill="#4f5253" d="M-21.007-87.316l.341 4.787h17.893l-.114-4.787zM13.411-87.544l.455 4.327 20.628-1.936.114-5.469z"/><path fill="#efd0cb" d="M2.925-90.508l-.912 5.242 2.394 2.965zM7.142-91.42l.683 7.52 2.051-4.672z"/><path fill="#fff5f3" d="M2.013-79.341l-.455 25.756 12.764-1.366-3.876-25.187z"/><path fill="#cea39f" d="M8.396-47.314l-6.838-6.271 12.764-1.366z"/><path d="M-11.671-72.139c-.083-2.151 1.533-3.962 3.61-4.04 2.078-.083 3.829 1.598 3.913 3.749.082 2.152-1.533 3.962-3.611 4.045-2.076.078-3.828-1.602-3.912-3.754zM18.484-73.301c-.084-2.151 1.532-3.962 3.609-4.044 2.077-.079 3.829 1.598 3.913 3.75.084 2.152-1.534 3.962-3.609 4.044-2.077.082-3.83-1.599-3.913-3.75z" fill="#2b2b2b"/><path fill="#cea39f" d="M42.814 90.359l-1.937 2.506 2.963 1.939 2.165-3.079zM61.276 54.801l-1.936 2.506 2.961 1.939 2.168-3.078zM19.451 54.346l-1.825 2.506 2.965 1.935 2.164-3.074z"/></svg>