<svg xmlns="http://www.w3.org/2000/svg" viewBox="-152 -152 400 400"><path fill="#594165" d="M41.579 167.159l20.379.471 3.064-25.563-19.908-20.736-18.967 24.032zM8.477 13.543L-18.147 49 .112 63.018l8.718-5.537 7.187-10.836z"/><path fill="#6e485b" d="M6.902 115.912l20.069 12.015 17.435 4.716 18.141-4.123 30.865-16.025-52.539-24.499z"/><path fill="#2b2b2b" fill-opacity=".102" d="M-26.039 227.709l98.246-9.189 87.882 13.548-95.302 14.839z"/><path fill="#dddddc" d="M31.213 8.595l-1.886 20.026 13.784 6.715 16.375-6.597 1.531-20.733-14.491-5.185z"/><path fill="#fff" d="M33.804 22.612l15.314-11.897L36.984-1.771l-12.84 14.134zM59.957 22.141L49.118 10.715 73.27-2.833l2.707 15.669z"/><path fill="#875970" d="M58.541 167.551l-14.135-34.908 38.538-22.324 4.11 24.089-.475 35.576z"/><path fill="#d1a1b8" d="M19.903 16.017l5.42-2.592 17.906 19.32 8.127 28.39-11.072 38.051-21.558 16.932-3.181-.206-1.65-13.19z"/><path fill="#6e485b" d="M58.541 167.551l22.267 49.792 12.837 6.949 7.61-10.014-7.843-54.335-17.081 3.21z"/><path fill="#b3889d" d="M67.618 119.197L40.284 99.186l2.945-66.441 25.447-16.258 3.06-6.597 9.425 85.29z"/><path fill="#594165" d="M42.993 15.31l2.004 3.886-6.951 8.011 5.183 5.538 6.951-4.359-2.239-9.072 5.068-4.359-3.891-4.24z"/><path fill="#785d88" d="M36.984-1.771L24.733 20.964l3.653 36.164-9.66 58.99-10.249 3.212-.637-16.135.99-45.714-.353-43.938z"/><path fill="#a688ba" d="M16.958 19.785l11.428 37.343 8.598-58.899z"/><path fill="#785d88" d="M73.27-2.833l5.179 24.503-24.15 35.341 13.319 62.186 17.054 1.249 3.202-24.117 6.835-43.207 10.72-10.246-3.65-32.043z"/><path fill="#875970" d="M10.167 110.611l-6.285 35.223 10.955 16.845 14.961 14.376 14.59-9.425.018-34.987z"/><path fill="#6e485b" d="M22.724 206.54L10.25 161.91l34.138 5.72 3.671 48.649-15.905 2.123z"/><path fill="#a688ba" d="M1.173 224.88l21.551-18.34 25.335 9.739 1.059 7.541-26.387 2.948z"/><path fill="#594165" d="M49.118 223.82l.471 4.124-48.416 1.295v-4.359z"/><path fill="#a688ba" d="M77.037 234.54l3.771-17.197 20.447-3.065 5.59 20.145-15.553 4.358z"/><path fill="#594165" d="M77.037 240.194v-5.654l29.808-.117-.475 5.771zM-7.074 167.744L7.84 103.195l10.886 12.923-4.657 59.457z"/><path fill="#a688ba" d="M54.299 57.011l33.575-34.044-14.604-25.8z"/><path fill="#594165" d="M108.493 69.382l-13.784-16.26 7.07-42.289 29.687 43.117-5.54 19.791z"/><path fill="#785d88" d="M120.39 112.495l-11.897-43.113 22.973-15.432 8.008 56.426-8.247 8.954z"/><path fill="#ffeee9" d="M118.267 128.398l-1.527-6.828 3.65-9.075 19.084-2.119 4.712 14.138-12.959 6.359z"/><path fill="#efd0cb" d="M118.502 135.351l-.235-6.953 25.919-3.884-6.599 12.838z"/><path fill="#cea39f" d="M120.39 112.495l-6.831 11.195 4.708 4.708z"/><path fill="#785d88" d="M-21.798 76.802L.112 63.018-26.746 24.97l-9.895 1.531-6.127 5.889z"/><path fill="#594165" d="M42.522 49.354l-4.83 3.89 4.475 4.708 4.948-4.002zM41.697 68.789l-5.183 3.653 4.83 4.716 4.712-4.358zM80.926 181.292l-13.308-62.095 20.256-22.868 33.222 69.767z"/><path fill="#e6e6e6" d="M-64.209-30.516L-50.66 2.468l19.202-3.416-2.238-37.931z"/><path fill="#cfcfcf" d="M-43.474 1.173l4.712-.824h.118l-3.771-10.013z"/><path fill="#594165" d="M-49.248-26.275l7.186-1.767 2.003 17.435-6.597 2.591-3.651-3.651 2.239-4.241 2.238 5.889 1.648-2.238 1.061-1.06-1.297-11.19-2.827.824z"/><path fill="#ffeee9" d="M-51.131 11.54l.824-23.207 7.892 2.003-1.059 11.073-1.297 11.19z"/><path fill="#a688ba" d="M-58.906-29.575l-1.414 3.654 4.006 3.18 1.765-4.83z"/><path fill="#efd0cb" d="M-26.275 5.179L-38.526 6.71l-.118-6.361-4.83.824-2.003 11.308 18.849 1.885z"/><path fill="#cea39f" d="M-38.526 6.71l-.118-6.361-4.83.824-2.003 11.308z"/><path fill="#ffeee9" d="M-42.768 32.39l-8.128-7.657-.235-13.193 24.503 2.826 2.001 13.549z"/><path fill="#efd0cb" d="M73.27-2.833l31.099-68.444-28.392-33.455L42.758-9.901l6.36 20.616z"/><path fill="#ffeee9" d="M-.477-119.457l-4.6 78.222 16.734 30.039 39.818 1.767L69.852-34.53l6.361-81.394-45.942-19.318z"/><path fill="#efd0cb" d="M20.14-53.958l-6.009-16.258-2.827-13.075 14.255 6.242 2.356 5.301 4.239-5.183 10.839-2.709.236 12.722-10.131 12.723-6.833 2.591z"/><path fill="#446125" d="M-17.676-137.01l1.061 27.566L-2.48-85.412l2.003-34.045-6.715-15.785z"/><path fill="#709d53" d="M-5.542-151.029l-12.134 14.019 17.199 17.553 3.771-7.422-3.418-14.137z"/><path fill="#738d56" d="M14.131-116.277l1.414-20.615-15.669-4.124-.353 21.559z"/><path fill="#99c26d" d="M23.32-104.614l-9.189-11.663-14.255-24.739 32.278-9.307 7.422 16.022z"/><path fill="#a0cf7e" d="M81.749-148.32l-19.673 20.499-25.092 13.076-13.664 10.131 8.834-45.709z"/><path fill="#99c26d" d="M64.194-120.872l-27.21 6.127 44.765-33.575-2.594 22.736z"/><path fill="#738d56" d="M75.977-104.732l-11.783-16.14 17.555-27.448 19.556 13.431-3.536 19.082z"/><path fill="#99c26d" d="M130.991-142.075l-29.686 7.186-25.328 30.157 5.066 20.026 31.452-15.432 8.601-19.202z"/><path fill="#709d53" d="M145.128-122.167l-24.032 2.827-40.053 34.634 4.241 20.97 38.405-27.567z"/><path fill="#738d56" d="M128.99-83.762l-5.301-7.541-36.992 14.254 17.672 5.772 5.89 2.358z"/><path fill="#ffeee9" d="M86.697-77.049l-5.536 24.386 12.136 3.415 11.072-22.029z"/><path fill="#cea39f" d="M86.933-60.673L90.35-71.63l8.361 2.591zM81.161-52.663l8.13 11.428 4.006-8.013z"/><path fill="#446125" d="M128.99-83.762L89.291-41.235l15.078-30.042z"/><path fill="#cea39f" d="M28.386-10.49l20.732 21.205 2.827-1.65L59.84-9.901l-8.365.472z"/><path fill="#fff5f3" d="M25.559-77.049l-2.121 15.432-3.298 7.659 6.125 2.354 6.833-2.591-2.709-6.949 1.765-15.787z"/><path fill="#cea39f" d="M26.029-46.774l-5.889-7.184 6.125 2.354 6.833-2.591z"/><path fill="#9c9c9c" d="M25.559-77.049l-11.428 6.833-11.31-3.77-3.415-16.256L8.83-93.66l7.54 12.605z"/><path fill="#7e7e7e" d="M25.559-77.049l-11.428 6.833L-.594-90.242 8.83-93.66l13.429 11.899z"/><path fill="#9c9c9c" d="M32.154-76.931l11.075 10.013 16.728-2.709 9.895-14.961-8.6-7.775L51.004-79.64z"/><path fill="#7e7e7e" d="M32.154-76.931l11.075 10.013 26.623-17.67-8.365-5.889-21.085 10.013z"/><path fill="#dc0b09" d="M3.294-49.836l23.089 5.656 37.698-5.539-8.601 7.422-10.601 16.846-27.45-.235-8.717-17.67z"/><path d="M11.186-81.408c1.822 0 3.298 1.478 3.298 3.3 0 1.82-1.476 3.297-3.298 3.297-1.823 0-3.298-1.477-3.298-3.297.001-1.823 1.476-3.3 3.298-3.3z" fill="#2b2b2b"/><path fill="#fff" d="M12.01-43.592l15.196 3.063 25.21-2.827-10.837 14.49H21.317z"/><path d="M49.353-77.873c1.82 0 3.298 1.477 3.298 3.298 0 1.822-1.478 3.297-3.298 3.297s-3.298-1.475-3.298-3.297c.001-1.82 1.478-3.298 3.298-3.298z" fill="#2b2b2b"/><path fill="#446125" d="M40.402-80.464l-.944-3.888 23.446-8.717 6.948 8.481-8.365-3.533zM22.259-81.761l2.356-3.298L8.83-96.369l-9.424 6.127 9.071-1.061z"/><path fill="none" d="M-151.5-151.5h399v399h-399z"/></svg>