<svg xmlns="http://www.w3.org/2000/svg" viewBox="-152 -152 400 400"><path fill="none" d="M0 0h96v96H0z"/><path fill="#765c89" d="M-31.164-116.361l-11.604 20.213 27.324-1.124L.277-104.01l-6.363-5.988z"/><path fill-opacity=".102" d="M-42.768 227.991l107.422-13.098 95.823 16.093-104.056 16.469z"/><path fill="#775d87" d="M-1.595-142.187l-2.994 20.21L8.137-100.64l54.271-2.996 10.856-25.451-8.61-22.458z"/><path fill="#594165" d="M-4.589-121.977L-7.21-104.01l8.983 4.117 60.635-3.743 7.489-11.228-6.366-16.468z"/><path fill="#a688ba" d="M108.825-122.349l-44.171-29.196-1.123 20.213 39.677 29.568z"/><path fill="#785d88" d="M63.531-131.332l-1.123 27.696-.749 3.743 41.549-1.871 2.247-7.485z"/><path fill="#efd0cb" d="M74.387 7.157l16.846-64.38L80-81.178 68.025-100.64 59.791-6.692 25.354-8.939l13.849 36.307 13.103 6.363 13.472-6.363z"/><path fill="#cea39f" d="M39.203 27.368L72.144-5.569 59.791-6.692 25.354-8.939z"/><path fill="#a488bb" d="M62.408-103.636l-69.618-.374-35.558 7.862 36.307 3.742 37.43.374z"/><path fill="#ffeee9" d="M-8.706-11.184l2.245-81.222 32.564-5.615 36.305-5.615 5.617 2.996-8.234 93.948z"/><path d="M-7.585-50.859l.375-7.862 25.079 3.745-25.454 4.117zm71.491-2.246l-.375 3.743-34.06-5.988 34.435 1.871v.374z" fill="#efd0cb"/><path fill="#e2d086" d="M1.399-37.01l-1.871 26.2L30.595 4.538 52.68-7.067v-30.317l-22.834-4.492-7.111 4.492-6.738-4.866z"/><path fill="#ffe6d6" d="M7.388-32.893l38.179.749v18.341H34.712l-4.492-7.862-4.866-.374-4.866 8.236-12.351-.749z"/><path fill="#cea39f" d="M13.377-22.786l-2.621-10.107 34.811.749-5.615 11.228z"/><path fill="#fff" d="M13.752-28.401l.749 4.117 23.954.374 2.246-4.865z"/><path fill="#fff5f3" d="M18.99-73.316l-1.495 24.702h11.976v-6.362l1.124-17.968z"/><path fill="#cea39f" d="M22.735-43.748l-5.24-4.866h11.976z"/><path fill="#474747" d="M17.869-54.976l-34.436-.749 1.123-29.57 35.183 1.123zM30.969-83.423l-1.498 28.447 34.435 2.245 2.621-30.317z"/><path fill="#ffeee9" d="M12.628-59.842l-23.206-.749.749-19.464 20.96 3.743z"/><path fill="#efd0cb" d="M-9.829-80.055l23.581.749-1.124 19.464L4.02-71.446z"/><path fill="#ffeee9" d="M43.695-74.44l-8.609 15.347 23.956 1.496 1.868-20.586z"/><path fill="#efd0cb" d="M36.21-78.557l-1.124 19.464 16.845-12.353 8.979-6.737z"/><path fill="#594164" d="M123.796-111.87l-61.388 8.234 5.617 2.996L80-81.178l14.6 10.855 37.8-17.966z"/><path fill="#c1b274" d="M71.395-57.223l-4.868-25.825 1.498-17.592 17.217 9.73 12.724 7.487-6.733 26.2-14.225-8.234-1.123 8.983z"/><path fill="#e2d086" d="M39.952-91.657v8.234l26.575.375.749-8.609zM-6.461-92.406l26.949.749-.749 7.485-26.2-.749z"/><path fill="#474747" d="M19.739-80.429h11.23l2.619 4.492-2.993 2.993-11.605-.372-4.489-4.118z"/><path fill="#6d5680" d="M15.622 204.782l-1.121-39.298L38.08 146.02l8.983 26.575-8.983 34.434-2.245 6.741-9.732-1.872z"/><path fill="#9075a0" d="M14.501 165.484l-.749-20.961 9.357-13.103-11.229-25.073 27.323-3.744 16.094 5.987 10.855 7.11-11.225 27.328-7.864 29.567z"/><path d="M13.752 144.523l-.749-19.086c2.245 0 3.743.749 3.743.749l10.106 13.847-13.1 4.49z" fill="#6d5680"/><path fill="#4f5253" d="M22.36 80.892l-.748-41.92 11.976-5.99 13.1-7.484 14.222 2.619-4.864 79.728-38.926-2.247z"/><path fill="#474a4b" d="M22.36 80.892l-.748-41.92 11.976-5.99 2.247-1.87-2.621 66.622-13.849-2.247z"/><path fill="#b3879c" d="M8.137 18.759l23.956-9.732-2.622 35.933-10.853 14.596 6.736 23.957-3.368 6.736-11.23 1.124-4.491-1.494-5.241-25.081z"/><path fill="#724b5e" d="M-4.214 78.645L8.137 18.759l2.619 72.614-4.491-1.494-9.358-4.119z"/><path fill="#95627c" d="M111.068 35.23L73.264 19.882l-18.337 26.95 1.119 61.013 57.268-17.966z"/><path fill="#594164" d="M25.354 83.513l4.117-38.553-18.715 14.221z"/><path fill="#9075a0" d="M36.584 21.006l5.613 7.485-8.609 4.491-4.865 19.092-14.971-18.717 18.341-24.33z"/><path fill="#6f7173" d="M33.588 32.982l25.454-.749 9.357-4.491-4.119-6.736H36.584z"/><path fill="#646668" d="M33.588 32.982l2.247-.374.749-11.602z"/><path fill="#efd0cb" d="M-4.214 78.645l-13.102 3.745-6.737 11.604 19.09 5.612 15.719-8.233z"/><path fill="#9075a0" d="M50.059 51.325L86.74 33.357l2.246-18.34L75.885 1.542 64.28 21.006 62.782 24l-3.74 8.233z"/><path fill="#594164" d="M74.762 58.436l-16.469-11.23-8.234 4.119 5.987 56.52z"/><path fill="#724b5e" d="M53.804 87.258l32.187-13.103 24.702 1.498 6.737 29.197-8.979.374-11.234 18.715-38.55-7.115-3.37-8.979z"/><path fill="#efd0cb" d="M40.701 91.747l13.103-4.489 1.493 20.587-14.596.745-6.738-8.609z"/><path fill="#594164" d="M54.927 143.028l-41.924-22.834 13.849-5.243 12.351-6.361 16.843-.745 50.158-2.621-3.37 17.217z"/><path fill="#b3879c" d="M92.727 37.1l-6.736 37.055 31.439 30.695 2.247-83.844-20.213 1.498z"/><path fill="#724b5e" d="M86.74 33.357l5.987 3.743 15.349-9.358 11.601-6.736L75.885 1.542z"/><path fill="#474747" d="M-12.823 89.13l32.562 3.366.375 8.235-17.967 4.493-11.602.749-22.457-8.613z"/><path fill="#6f7173" d="M-32.287 107.471l.375-10.111 34.059 7.864 5.241 4.489L5.89 115.7z"/><path fill="#ccc" d="M-19.561 104.101l-40.424 7.11.375 2.243 40.798-6.732 1.123-1.872z"/><path d="M-60.359 116.449c2.247 0 4.117-1.872 4.492-4.115 0-2.246-1.873-4.119-4.117-4.119-2.247 0-4.117 1.873-4.492 4.119-.001 2.243 1.872 4.115 4.117 4.115z" fill="#474747"/><path fill="#b3879c" d="M5.516 115.7l21.336-3.74 2.619 2.617-2.619 25.455-22.832-9.357z"/><path fill="#96637c" d="M15.622 204.782l22.458 2.621-.374 16.469-23.58 2.621-23.206-2.621z"/><path fill="#734d60" d="M37.706 223.872v4.868l-46.786-.375v-4.493z"/><path fill="#96637c" d="M63.157 231.735l18.715 2.622 18.715-2.996-9.354-19.463-3.37-4.869-17.217 2.247-2.621 4.868z"/><path fill="#734d60" d="M63.157 231.735l.374 5.24 37.431-.375-.375-5.239z"/><path fill="#6d5680" d="M66.152 168.102l-5.242 7.489 7.115 38.553 23.208-2.246 6.359-46.414z"/><path fill="#9075a0" d="M54.927 143.028l5.983 32.563 36.682-10.107 3.37-24.703-25.826-9.731z"/><path fill="#6d5680" d="M100.962 140.781l1.872-14.595-18.715 3.366-22.46 9.357z"/><path fill="#95627c" d="M113.314 126.556l-51.655 12.353-3.366-16.094 12.353-11.229 39.673.748z"/><path fill="#865870" d="M58.293 122.815l-2.996-14.97 53.154-2.621 1.868 7.11z"/><path fill="#ffeee9" d="M-9.455 89.504l-7.861-7.114-6.737 11.604 6.364.374z"/><path fill="#cea39f" d="M10.756 91.373l2.996 4.489 26.949-4.115-15.347-8.234z"/><path fill="#efd0cb" d="M2.147 105.224l11.605-9.362 13.1 6.366 2.619 12.349L5.89 115.7z"/><path fill="#ffeee9" d="M29.471 85.385L13.752 95.862l15.719 18.715 11.23-5.987V91.747z"/><path d="M48.186-72.944c2.482 0 4.493 1.844 4.493 4.119 0 2.273-2.011 4.117-4.493 4.117-2.481 0-4.492-1.844-4.492-4.117.001-2.275 2.012-4.119 4.492-4.119zM4.394-73.691c2.481 0 4.491 1.842 4.491 4.117 0 2.273-2.01 4.117-4.491 4.117s-4.492-1.844-4.492-4.117c.001-2.275 2.012-4.117 4.492-4.117z" fill="#2b2b2b"/><path fill="#ffeee9" d="M77.757-72.195l-2.995 23.581 13.476 2.247 5.613-21.337z"/><path fill="#cea39f" d="M79.251-56.848l1.872-10.107 7.863 1.873zM74.762-48.614l10.854 13.1 2.622-10.853z"/></svg>