<svg xmlns="http://www.w3.org/2000/svg" viewBox="-152 -152 400 400"><path fill="#000002" fill-opacity=".102" d="M-60.438 235.486l98.602-8.248 102.134 9.66-100.014 10.009z"/><path fill="#75451c" d="M89.644 21.199L64.081 40.99l2.59-22.382z"/><path d="M42.993 219.697l-33.692-20.38s-5.418-37.345-4.477-38.404c.943-1.06 21.087-1.413 21.087-1.413l17.082 60.197zM50.769 168.69l53.954 64.791-61.141 5.889-1.297-14.607 6.009-21.204z" fill="#3b2945"/><path fill="#2b2b2b" d="M10.951 214.161l6.595-.824-5.3 23.561-5.184.588-2.827-16.255z"/><path fill="#444648" d="M7.533 204.736l5.774 2.354 4.239 6.247-27.683 25.444-10.131-1.058 9.425-17.555z"/><path d="M-3.657 141.597l-7.068 4.595 9.071 55.362-9.189 18.735 6.951 2.943 17.082-16.02-3.889-7.659 4.712-32.629s-18.141-24.856-17.67-25.092v-.235z" fill="#eecec9"/><path d="M-5.189 142.538l-5.536 3.531 2.003 12.254 22.735 8.365S5.885 155.612.702 148.074l-5.891-5.536z" fill="#cea19c"/><path fill="#593f68" d="M17.311 143.716l-3.298 22.973-24.738-20.62 14.96-17.907z"/><path fill="#60496e" d="M58.78 178.231l-6.364 25.564 1.883 8.36-5.416 6.129-5.301 21.086-14.726-36.282-8.01-19.438-6.833-16.961 44.061-57.373 17.315 1.414-7.89 32.28z"/><path fill="#664a75" d="M7.298 148.074l6.715 18.615 61.376-55.959-18.614-38.758-3.06-11.544-45.12 19.32-11.31 40.171v10.954l7.539 10.249z"/><path d="M4.353 32.272l-1.65 21.792 5.892 25.803 6.833-1.182 7.893-1.29 18.141 2.942 15.314-8.365 12.96-32.514 14.961-15.079-19.674 9.189-3.888-4.83-.942-1.179c-16.14.12-29.921.473-45.826-.706L7.769 32.39l-3.416-.118z" fill="#8d65a2"/><path fill="#a175b9" d="M81.632 32.272l-11.78 7.186-5.658-.588-3.413-.471-49.713-5.418-7.539 3.062-6.009-4.477L1.997 14.72l27.33-16.964L62.311-.477 87.525.938z"/><path fill="#745382" d="M14.602 6.945L26.853-.712l20.262-.589 15.789-.117 18.845 12.016-4.712 11.308-33.808 4.123-1.297-8.953L54.299 6.592l-23.91 2.591-18.849 9.072-10.367 5.418z"/><path fill="#eecec9" d="M-20.503 20.729l6.598 9.189 11.425 1.648 13.666-25.21-32.042 4.948-3.534 2.827z"/><path fill="#feeee9" d="M-31.813-16.262l2.476 5.066 15.432 41.114-24.151-3.535-5.654-42.88z"/><path fill="#eecec9" d="M145.599 2.468l10.723.471v-7.302l-.828-1.414.828-3.298.113-4.83-14.132.47-3.417 6.243z"/><path fill="#6f4258" d="M155.377-7.074l.945-2.001-4.245-2.357-1.53 4.122 4.241 1.65z"/><path fill="#cea19c" d="M133.463.467l-9.656 2.472 3.299-12.368 4.121-.59z"/><path fill="#feeee9" d="M126.75 10.48l7.423.118 22.149-7.659-17.436-10.131-15.079 10.131zM85.755 10.362l30.75 15.432-17.083 15.903-29.57-2.239 8.126-19.908z"/><path fill="#eecec9" d="M123.807 2.939L99.422 41.697l21.791 2.238 12.96-33.337z"/><path fill="#915976" d="M155.141-4.481l1.181.118v-4.712l-2.829 1.53-1.888 2.474z"/><path d="M152.669-6.366l.942.471 2.824 1.532-4.358 2.354s-1.295-3.415-1.178-3.533c.122-.118 1.77-.824 1.77-.824z" fill="#b2849b"/><path fill="#6f4258" d="M151.842-5.777l.235.706v3.062l-4.359-2.354 2.358-2.593z"/><path fill="#915976" d="M151.135-8.84l1.063 1.884-1.651 1.061-2.829 1.532v-4.712z"/><path fill="#b2849b" d="M152.198-6.956l-.121-1.413v-3.063l-4.359 2.357 2.829 1.53z"/><path fill="#d09eb5" d="M152.077-8.369l-.82.353-.71.471v1.65l.71.353.82.471.706-.471.71-.353v-1.65l-.71-.471z"/><path fill="#eecec9" d="M102.722 18.961l-25.685 2.945 5.536-13.194z"/><path fill="#bca0d2" d="M43.229 26.029L29.562 27.68l.827-18.497 23.91-2.591z"/><path fill="none" d="M56.069 37.928L37.22 25.559l-7.658 2.121-.353 7.303z"/><path fill="#bd9ed2" d="M77.037 21.906L56.069 37.928l-12.84-11.899zM29.562 27.68L11.54 18.255l-.472 14.726 12.017 5.653 6.124-3.651z"/><path fill="#a286ba" d="M2.703 54.064l8.365-21.083-8.009-.827-5.539-.588zM29.445 52.887L11.068 32.981l18.141 2.002zM56.069 37.928L29.445 52.887l27.33 19.085zM2.703 54.064l26.742-1.177-6.125 24.508z"/><path fill="#8d74a1" d="M1.879 103.428L23.32 77.395l1.059 28.74z"/><path fill="#765b88" d="M56.775 71.972L23.32 77.395l27.684 20.732z"/><path fill="#8d74a1" d="M39.223 122.861l-14.844-16.726 26.625-8.008z"/><path fill="#745a87" d="M62.547 122.391l-23.324.47 4.124 17.084z"/><path fill="#8d74a1" d="M75.389 110.73L51.004 98.127l11.543 24.264z"/><path fill="#745a87" d="M4.824 141.122l-3.18 15.314 12.369 10.253zM-10.725 146.069l15.549-4.947-4.83-13.431-2.709-7.772z"/><path fill="#745a87" d="M24.379 106.135l-27.094 13.784 41.938 2.942z"/><path fill="#765b87" d="M4.824 141.122l34.399-18.261-11.073 30.986z"/><path fill="#765b87" d="M39.34 176.227l-25.327-9.538 14.137-12.842z"/><path fill="#765b87" d="M56.305 150.782l-28.155 3.065 15.197-13.902zM62.547 122.391l-6.242 28.391 10.601-5.301z"/><path fill="#765b88" d="M39.34 176.227l16.965-25.445 2.475 27.449z"/><path fill="#6d527d" d="M23.909 189.657l15.431-13.43 1.179 21.325zM33.216 213.808l7.303-16.256 8.364 20.732zM58.78 178.231l-18.261 19.321 11.897 6.243z"/><path fill="#564463" d="M70.323 192.251l-17.907 11.544 27.567.117z"/><path fill="#564463" d="M69.26 221.815l-16.844-18.02-3.533 14.489zM43.582 239.37l25.678-17.555 8.37 14.255zM79.983 203.912L69.26 221.815l20.502-6.242z"/><path fill="#35253e" d="M104.723 233.481L69.26 221.815l20.502-6.242z"/><path fill="#995e26" d="M70.323-14.849L63.018-1.654 43.229 26.029l42.526-15.667z"/><path fill="#995e26" d="M114.029-40.412l5.89 28.272-17.197 31.101-16.967-8.599-39.464-62.907 33.396-41.232z"/><path fill="#75451c" d="M6.003-33.932l-10.602 2.237-3.417 8.718L8.477 6.71l6.36 1.649L31.33 3.176l-4.594-30.865-16.964-6.715v5.656l-.118-.118z"/><path d="M10.951-38.644L31.213 3.294l31.569-4.712s-1.412-33.104.593-33.104c1.883 0-52.424-4.122-52.424-4.122z" fill="#cea19c"/><path fill="#eecec9" d="M75.507-5.66L63.018-1.654 49.709.471l3.735-8.84-24.862-8.128 49.129-63.615-4.146 58.313z"/><path fill="#75451c" d="M69.852-19.605L63.018-1.654l22.737 12.016-8.044-90.474z"/><path fill="#ad7038" d="M118.389-66.8l1.412 10.839.118 43.821-42.208-67.972z"/><path fill="#75451c" d="M120.86-88.356l10.013 10.954-11.072 21.441-42.09-24.151z"/><path fill="#995e26" d="M87.289-128.882l35.102 1.061 8.482 50.419-53.162-2.71-34.6-24.502z"/><path fill="#ad7038" d="M65.611-146.788l15.315-2.709 41.465 21.676-61.61 26.269-23.797-35.811z"/><path fill="#ca8d58" d="M45.938-123.699l.471-7.422 34.517-18.376-37.579-1.532-50.302 24.503z"/><path fill="#75451c" d="M15.663-111.212l-14.607 3.888-8.011-19.202 53.364-4.595z"/><path d="M-4.599-84.47l-.708-3.651-1.648-38.405 12.132 15.549 4.006 34.752s-14.019-.589-13.075-1.06c.941-.588-.707-7.185-.707-7.185z" fill="#ad7038"/><path fill="#75451c" d="M-4.718-80.582l-13.9 11.19 7.539 29.804 7.54 11.781 8.01-38.522z"/><path fill="#ca8d58" d="M4.471-77.519l-9.778-10.602-13.311 18.729 23.089 3.063z"/><path fill="#feeee9" d="M5.177-110.977L-8.781-65.15l5.242 37.343 32.121 11.31 31.551-20.026 17.578-43.589-31.302-51.009z"/><path d="M26.5-51.248c.118-.356 10.837 1.648 10.837 1.648L14.72-37.584 5.06-57.022s10.721 2.238 11.074 2.356c.353.117 10.367 3.297 10.367 3.297v.121z" fill="#8c709d"/><path fill="#fff" d="M15.545-42.65L6.827-56.079l13.076 2.945 14.843 2.945z"/><path fill="#eecec9" d="M63.488-89.183l2.005 3.181L47.47-79.64 25.676-65.15l-4.006-6.48-5.3 3.535-1.768-21.676-5.065-13.193 6.597-2.829L28.15-95.308l.353 4.123.942 4.476 4.006-2.474 6.951-2.709 17.315-1.768z"/><path fill="#cea19c" d="M22.967-69.98l2.709 4.83-5.656 3.298-3.65-6.243z"/><path fill="#75451c" d="M67.499-86.827l-8.37-8.362-20.024.117-1.059 4.122 20.141-.706 7.306 5.654zM30.389-98.252l-14.137-8.836-7.304 2.003.589 2.121 5.773-.826 12.84 8.482z"/><path fill="#fef4f2" d="M33.451-89.183l-4.948-2.002-12.133 23.09 9.306 2.945z"/><path fill="#745382" d="M37.337-49.483l-19.318-5.89L5.06-56.905l11.898 5.183z"/><path fill="#995e26" d="M31.33 3.176L2.115 23.085 8.477 6.71z"/><path d="M34.878-62.776c.883.177 1.459 1.033 1.287 1.912-.171.879-1.027 1.449-1.91 1.272-.885-.176-1.461-1.033-1.289-1.912.171-.88 1.027-1.448 1.912-1.272z" fill="#cea19c"/><path fill="none" d="M31.801 29.681L12.01 19.314l20.852-9.895z"/><path d="M16.37-93.777c2.212 0 4.006 1.794 4.006 4.006s-1.794 4.006-4.006 4.006-4.006-1.794-4.006-4.006c-.001-2.212 1.793-4.006 4.006-4.006zM45.703-84.117c2.212 0 4.006 1.794 4.006 4.006s-1.794 4.004-4.006 4.004-4.006-1.792-4.006-4.004c0-2.212 1.794-4.006 4.006-4.006z" fill="#2b2b2b"/><path fill="#cea19c" d="M-29.337-11.196l-14.373-5.301 10.367-6.362 11.663-.589z"/><path d="M-11.079-34.167l5.065-2.356 2.474 8.717-4.477 4.83-6.007-5.771c.001-.001 3.181-5.302 2.945-5.42z" fill="#373736"/><path fill="#484848" d="M-19.679-36.878l3.182-2.237 5.418-.473 5.066 3.065-3.533 4.122z"/><path fill="#686b6d" d="M-13.67-33.461l4.124 1.06 1.53 9.424-4.713 2.592-3.533-11.546z"/><path fill="#797b7d" d="M-22.035-34.404l-.118-2.592 5.656-2.119 6.951 6.714-4.595 1.414z"/><path d="M-17.323-28.278l3.182-2.709-8.012-6.009-2.592 3.888s2.239 5.89 2.003 5.537c-.236-.235 5.536-.824 5.536-.824l-.117.117z" fill="#373736"/><path fill="#484848" d="M-24.39-26.748l2.71 3.3 8.951 3.063-1.412-10.602-5.891 1.059zM-42.062-30.281l-6.713 4.36-7.304 1.885 3.062 8.363 26.742-10.72 6.243-3.535-4.713-3.062z"/><path fill="#373736" d="M-53.017-15.673l.825 2.003 30.512-9.778 1.648-6.48-29.098 8.601z"/><path fill="#feeee9" d="M-35.346-41.118l10.601 8.128-12.84 11.545-6.478-5.891-4.712 1.415z"/><path fill="#686b6d" d="M-49.13-21.327l-6.949-2.709-2.12 6.124 6.007 4.242z"/><path fill="none" d="M-151.5-151.5h399v399h-399z"/></svg>