<svg xmlns="http://www.w3.org/2000/svg" viewBox="0 0 400 400"><g fill-rule="evenodd" clip-rule="evenodd"><path opacity=".102" fill="#2b2b2b" d="M120.014 383.158l142.007-12.122 75.833 15.349-56.262 14.115z"/><path fill="#f0d1cc" d="M221.054 39.533l-7.044 85.454 15.726 66.288 22.572-13.702 12.796-37.507 1.071-40.621 6.633-11.159V77.8l-22.926 4.376-4.467-5.509-6.89-15.381-8.646-7.572z"/><path fill="#cfa39e" d="M191.341 144.345l28.276-17.81 4.928 15.253 19.685-4.423-2.873 27.832-8.019 9.023-15.906 1.597-11.466-19.902z"/><path fill="#734d61" d="M290.337 191.747l18.27 5.023 5.611-41.878-23.287-6.81-9.668 21.731zM192.886 260.916l-2.725 18.53 47.632 15.552 36.931-2.188 14.505-19.328-4.626-14.27z"/><path fill="#2b2b2b" d="M284.058 263.256h-89.813v-6.177l12.974-2.766 62.415-.855 14.424 3.621z"/><path fill="#785c87" d="M235.515 255.691h-34.276l-9.802-81.471 14.529-18.305 9.602 10.669 6.617.179 11.153 7.457 5.696 42.763z"/><path fill="#594066" d="M233.334 174.22l2.181 81.471H284.2l-8.63-106.213-9.859-9.825-10.921 16.087-13.428 9.457z"/><path fill="#785c87" d="M265.711 139.651l-24.349 25.546 14.6 21.242 8.545-21.38z"/><path fill="#8f75a1" d="M222.185 166.763l-16.219-10.848 2.567 24.262 5.045 4.067z"/><path fill="#734d61" d="M181.047 171.471l16.424 47.535-5.532 18.514-10.892 15.202-14.415-17.412 2.196-28.597z"/><path fill="#543042" d="M226.551 282.103l-36.388-2.657-9.116-107.975 24.919-15.556 2.563 32.967 16.557 38.184zM289.233 273.482l1.698-125.4-25.22-8.429-6.942 39.763-15.543 47.036 4.467 54.012z"/><path fill="#734d61" d="M243.222 226.452l28.662-44.902-6.173-41.899zM225.086 227.066l-19.12-71.151-8.497 35.105z"/><path fill="#543042" d="M308.607 196.77l36.348-16.032-46.236-67.724-14.677 5.609-.558 8.938zM168.828 206.713l-45.509-11.041-6.473 7.249 2.683 15.27 61.518 34.531z"/><path fill="#a3a3a3" d="M85.718 180.736l4.309 5.286 27.93 7.556 1.662-6.765-53.669-26.811-10.005 1.852-2.9 6.152z"/><path fill="#f0d1cc" d="M121.224 219.144l2.095-23.475-26.713-10.418-5.399 4.988 1.754 4.344.65 9.408.34 6.254 15.229 6.632z"/><path fill="#fcede8" d="M96.606 185.251l-3.645 9.332-2.991 1.803-2.611-3.854-5.975-2.7 4.334-9.096z"/><path fill="#8f8f8f" d="M109.18 216.877l2.881-15.047-7.465-2.563-7.935 10.005.049 5.872-1.233 6.632 12.055 3.569z"/><path fill="#cfa39e" d="M104.596 199.267l-1.569 17.895-15.497-4.134-.171-20.496 5.602 2.051z"/><path fill="#a3a3a3" d="M59.509 154.371l2.35-4.246 2.877 1.648 1.109 4.917-1.518 3.019-4.315-2.3z"/><path fill="#cfcfcc" d="M119.619 186.813l-63.674-24.959 3.564-7.483 56.865 20.819 4.075 8.331z"/><path fill="#96637d" d="M171.745 319.087l17.56-49.788 48.488 25.699-32.234 34.136-17.392 10.628z"/><path fill="#734d61" d="M170.778 355.802l.967-36.715 33.814 10.047-13.911 31.302-14.216 9.083z"/><path fill="#594066" d="M138.987 383.048l.873-6.376 41.034-10.823 10.366 10.823v6.376h-12.175l.098-5.123-13.354 5.221z"/><path fill="#785c87" d="M139.86 376.672l30.918-20.87 20.87 4.634-.388 16.236z"/><path fill="#96637d" d="M262.777 332.323l-24.605-37.487 51.061-21.354 8.521 50.533-6.498 14.22z"/><path fill="#734d61" d="M286.544 363.826l-23.767-31.503 34.977-8.308 9.273 41.74-11.531 11.739z"/><path fill="#594066" d="M309.929 392.81h-36.715v-6.665l22.282-8.651 14.237 8.748z"/><path fill="#785c87" d="M273.214 386.145l13.33-22.319 20.483 1.929 2.706 20.487z"/><path fill="#c2b373" d="M144.373 76.767l-8.777-9.312 3.088-8.427 2.427 4.98 3.262-.626z"/><path fill="#e3d187" d="M135.596 67.455l5.515-3.447 16.844-15.834-9.485-11.194 1.589-5.339-2.665-3.79-8.427 10.814z"/><path fill="#c2b373" d="M148.47 36.978l-1.076-14.114 8.003-14.256 15.87 20.928-2.576 8.939-9.361 3.699z"/><path fill="#e3d187" d="M155.397 8.608l13.294 29.867 24.626-1.076 3.418-11.281L185.03 14.79z"/><path fill="#fff7ad" d="M155.397 8.608l41.338 17.51 9.079-9.504L211.125 1.5l-29.663 8.156z"/><path fill="#e3d187" d="M211.125 1.5l-14.39 24.618 20.876-8.802 7.447-11.094z"/><path fill="#fff7ad" d="M221.054 39.533l-15.52-5.503-8.799-7.912 28.323-19.896 24.544 4.958-2.999 10.392z"/><path fill="#e3d187" d="M229.879 53.714l-8.825-14.181 28.548-28.353 17.163 18.356-1.916 9.407z"/><path fill="#c2b373" d="M270.317 46.261l-4.256 2.95-36.182 4.503 36.886-24.178z"/><path fill="#a19161" d="M268.311 80.938l2.006-34.677-40.438 7.453 8.646 7.572 11.357 20.89 5.51 1.99z"/><path fill="#cfa39e" d="M255.392 95.165l10.702 7.373.687-11.271-5.119-2.46"/><path fill="#cfa39e" d="M283.484 127.561l-17.39-25.025 7.552-9.039 5.981-4.766-.395-5.781 7.866-3.964 11.621 34.028z"/><path fill="#ffede8" d="M231.523 85.765l-6.978 56.023-43.567 9.338-30.659-42.137-9.328-45.56 7.479-26.451 20.223 1.499 28.042-12.359 24.319 13.415z"/><path fill="#f0d1cc" d="M170.073 77.597l6.219 1.542 4.724 2.476 2.541 3.583 4.102-4.509 3.739-4.242 3.406-3.806 17.578-4.928 6.368 1.736-18.233 13.614-7.912 22.089-4.498 3.138-6.175-.751-10.824-16.61-17.364-7.703 4.844-3.743z"/><path fill="#a687ba" d="M228.642 108.9l-.541 4.358 14.379-7.77v-4.149l-3.299-1.184z"/><path fill="#8f75a1" d="M253.911 81.377l-14.726 18.778 3.295 5.333 14.1-15.678v-6.872z"/><path fill="#785c87" d="M248.251 69.874l2.201 16.609 4.94 8.682 6.258-6.995 1.595-22.3z"/><path fill="#594066" d="M263.245 65.87l-7.853 29.295 11.389-3.898 1.754-2.904 1.655-9.318z"/><path fill="#f0d1cc" d="M266.094 102.538l.687-11.271 1.798-6.442 6.735-1.438 4.313 5.344z"/><path fill="#fcede8" d="M260.34 76.71l26.758 2.276-7.471 9.745-20.581-7.193z"/><path fill="#a19161" d="M176.292 79.139l-.71-4.385-17.521 3.055-4.317 5.417 4.699-1.782zM189.748 71.699l1.65 4.746 21.228-6.801 6.124-.193-6.876-3.88z"/><path fill="#fff5f2" d="M187.659 80.689l-6.643.926.916 25.924 10.673-2.387z"/><path fill="#cfa39e" d="M210.071 116.468l-.516 3.343-11.245 1.611-5.048 2.981-4.633.366-6.941 2.562-1.262-2.593 7.062-3.08 5.011-.234 4.614-2.976z"/><path d="M170.783 83.509c2.476 0 4.484 2.008 4.484 4.484s-2.008 4.482-4.484 4.482-4.484-2.006-4.484-4.482c-.001-2.476 2.008-4.484 4.484-4.484M201.436 77.353c2.474 0 4.484 2.008 4.484 4.484s-2.011 4.484-4.484 4.484c-2.476 0-4.484-2.008-4.484-4.484.001-2.476 2.008-4.484 4.484-4.484" fill="#2b2b2b"/><path fill="#c2b373" d="M238.525 61.284l4.757 19.894 6.6.998-1.631-12.302z"/><path fill="#cfa39e" d="M188.493 112.179l-6.561-4.64 10.673-2.387z"/><path fill="#f0d1cc" d="M161.65 58.326l14.693-1.31 14.348-7.53zM163.446 64.72l14.696-1.31 14.347-7.53z"/></g></svg>