<svg xmlns="http://www.w3.org/2000/svg" viewBox="0 0 400 400"><g fill-rule="evenodd" clip-rule="evenodd"><path opacity=".1" fill="#2b2b2b" d="M216.832 369.528l114.107 8.973-34.419 12.825-67.749 9.054-103.37-16.284z"/><path fill="#785c87" d="M236.444 327.731l-3.556 41.797-12.337 8.517-7.381-11.946-6.426-34.518 12.378-22.648zM171.434 356.748l-5.813-35.99 22.796-8.261 7.968 18.266-5.784 33.24-10.368 4.614z"/><path fill="#8f75a1" d="M208.417 281.694l32.69-8.821-4.663 54.858-29.7 3.85-5.428-29.175z"/><path fill="#b3879e" d="M145.542 381.976l-.221-4.155 26.113-21.073 19.167 7.255 1.007 16.068z"/><path fill="#734d61" d="M145.542 381.976l-.221-4.155 46.024-1.945.263 4.195z"/><path fill="#b3879e" d="M213.17 366.103l19.718 3.425 4.533 16.806-17.993 4.19-15.662-4.487z"/><path fill="#734d61" d="M237.567 391.432l-33.748.22-.053-5.615 33.655.297z"/><path fill="#8f75a1" d="M165.621 320.758l-8.889-54.664 31.853-5.595 12.731 41.907-4.931 28.357z"/><path fill="#594066" d="M172.382 258.367l-10.897 7.727h-4.753l44.584 36.312 42.729-32.523-14.966-10.633z"/><path fill="#734d61" d="M122.361 223.797l33.507-15.043 5.31-19.127-10.466-20.274-18.329 22.185-12.461 4.341z"/><path fill="#6b6b6b" d="M249.453 151.684l21.875-20.893-22.339-7.045-8.419 6.072z"/><path fill="#4f5254" d="M229.254 135.539l20.199 16.145 1.241-64.46-7.01 4.106-19.61 28.715z"/><path fill="#6b6b6b" d="M241.812 108.586l23.112-18.184-8.619-25.336-4.903-5.542-24.74 13.279z"/><path fill="#edcfc9" d="M184.924 160.09l30.378 8.364 10.868-22.26 11.149-26.808-4.435-68.911-25.936 8.954-17.704 80.924z"/><path fill="#cca39e" d="M229.152 104.981l8.13 14.494 4.53-10.889z"/><path fill="#4f5254" d="M223.851 98.719l21.305 1.823 9.265-22.278-6.412-8.27-29.855-14.435-11.206 3.87 16.903 24.007z"/><path fill="#fcede8" d="M233.962 81.049l-4.806 23.932 12.656 3.605 8.882-21.362z"/><path fill="#cca39e" d="M169.328 152.521l-2.775-10.606 22.691-1.562 16.935-1.092-14.301 22.031-18.813 1.795z"/><path fill="#fcede8" d="M122.534 64.132l4.01 43.897 20.882 35.203 42.286-2.911 17.236-41.038V59.429l-30.88-32.422-29.334-4.631z"/><path fill="#cca39e" d="M206.948 59.429l-30.88-32.422-29.334-4.631-24.2 41.756z"/><path fill="#edcfc9" d="M159.79 103.193l5.65-3.573 11.267-19.43 16.789-8.571-19.198-3.733-5.804 3.082-5.89 7.219-3.422 4.289-2.786-3.767-2.616-5.263-8.372-3.654-14.689 4.216 13.208 9.678 10.59 16.803z"/><path fill="#94637d" d="M109.991 57.268l31.187-11.117 5.052-3.627 60.718 16.905 11.759-22.191L202.932 1.38h-66.079L120.29 40.052l-10.299-.385z"/><path fill="#734d61" d="M122.534 64.132l18.644-17.981-31.187-6.484-22.387 19.762z"/><path fill="#b3879e" d="M109.991 39.667l39.214-2.779 57.743 22.541z"/><path fill="#dbdbdb" d="M202.932 1.38l47.241 23.157 13.277 33.396-25.626-7.458z"/><path fill="#c2c2c2" d="M202.932 1.38l60.518 56.553-9.029 20.331-47.473-18.835z"/><path fill="#cca39e" d="M237.262 86.819l-2.714 10.793 11.431-7.88z"/><path fill="#4f5254" d="M130.719 74.008l15.057-2.016 8.002 1.454v-3.977l-6.929-2.48-17.129 4.541z"/><path fill="#fff5f2" d="M162.604 78.187l-6.208.522.11 13.862-1.989 7.918 10.923-.869-2.734-8.105z"/><path fill="#cca39e" d="M165.44 99.62l-10.923.869 6.396 6.942z"/><path fill="#c2c2c2" d="M149.837 261.992l24.062 3.854 17.979-.078 3.028-38.016-3.028-66.46-26.448 10.071 2.924 68.538z"/><path fill="#a1a1a1" d="M191.878 265.768l27.281.004 27.153 3.366-20.39-32.032 6.746-68.343-40.79-7.471z"/><path fill="#4a4747" d="M222.117 254.196H152.9l10.913-13.968h58.304z"/><path fill="#94637d" d="M173.867 280.047l.146-65.809-5.688-31.341-13.615-15.432-3.998 1.888 8.606 65.78-9.481 26.859z"/><path fill="#b3879e" d="M154.71 167.465l19.303 46.777v-35.408l-6.96-17.542z"/><path fill="#e3e6e3" d="M169.328 152.521l-2.275 8.771 6.96 17.542 17.865-17.542z"/><path fill="#94637d" d="M232.994 211.724l12.121 24.447 15.483-10.12-3.561-20.288-10.725-38.298z"/><path fill="#734d61" d="M223.659 285.401L213.3 240.228l-2.405-25.99 19.136-39.056 16.281-7.717-13.318 67.668 13.318 34.005z"/><path fill="#b3879e" d="M210.895 214.242v-35.408l20.471-19.491 14.946 8.122-15.007 19.818z"/><path fill="#c2c2c2" d="M210.895 178.834l-19.017-17.542 33.116-12.689 6.372 10.74z"/><path fill="#734d61" d="M245.115 236.171l45.532-1.966 6.528-11.369-6.528-9.281-33.61-7.792z"/><path fill="#edcfc9" d="M315.676 218.458l4.131 4.31 4.28 9.878-2.999 8.354-19.137-7.186-7.771-7.951 7.324-1.598z"/><path fill="#e3e6e3" d="M290.647 234.205l11.304-.391-.842-17.83-10.462-2.429z"/><path fill="#fcede8" d="M319.807 222.768l13.086 4.589 4.019 8.915L321.088 241z"/><path fill="#94637d" d="M122.361 223.797l-30.792-38.125 3.536-11.076 11.084-2.549 26.194 19.491z"/><path fill="#edcfc9" d="M85.713 178.421l-11.502-9.847.109-16.993-10.252-7.969 4.989-6.182 14.254 6.532L90 148.998l5.605 21.25z"/><path fill="#707373" d="M62.86 161.292l8.285 9.583 30.696-23.064-2.449-9.578-7.785-1.304z"/><path fill="#4f5254" d="M96.073 118.328l-3.328 2.523-1.138 16.078 10.234 10.882 13.643-.323 1.972-1.715zM111.261 116.141l-10.801-1.136-2.96 2.242 22.462 26.345 2.993-2.602v-13.155z"/><path fill="#6b6b6b" d="M100.46 115.005l-7.715 5.846 22.739 26.637 7.471-6.498z"/><path fill="#fcede8" d="M91.736 173.446l-7.63-5.828 1.296-7.455-7.725-5.916 1.612-6.877 18.89 6.417 1.296 13.265z"/><path fill="#e3e6e3" d="M106.189 172.047l-6.712-4.995-13.764 11.369 5.856 7.253z"/><path d="M145.152 76.506c2.396 0 4.339 1.943 4.339 4.341 0 2.397-1.943 4.34-4.339 4.34-2.397 0-4.34-1.943-4.34-4.34 0-2.398 1.943-4.341 4.34-4.341M176.707 75.544c2.396 0 4.34 1.943 4.34 4.339 0 2.399-1.943 4.342-4.34 4.342s-4.34-1.943-4.34-4.342c0-2.396 1.944-4.339 4.34-4.339" fill="#2b2b2b"/><path fill="#4f5254" d="M193.496 71.619l-17.537-2.301-7.465 1.65V66.58l7.411-2.407 18.506 5.17z"/><path fill="#9ea1a3" d="M267.527 302.313l-13.683 81.364 12.597 3.373 6.149-35.108 1.46-48.462z"/><path fill="#737373" d="M275.137 382.773l-8.696 4.277 7.609-83.57h3.626l-1.604 50.143z"/><path fill="#9ea1a3" d="M284.923 303.48l-.875 51.506-5.741 6.425 5.456 10.099-.289 17.094 13.046 2.722 2.501-36.845-6.127-51.387z"/><path fill="#cfcfcc" d="M304.568 388.604l-8.048 2.722-3.626-88.232 7.389-.192zM313.19 301.926l.63 43.958 4.725 37.235 12.394-4.618-10.864-79.293z"/><path fill="#9ea1a3" d="M306.668 302.316l2.445 79 9.432 1.803-5.355-81.193z"/><path fill="#8f8f8f" d="M303.233 368.023l14.059-4.57-.777-11.665-9.738.785-4.081 3.613z"/><path fill="#7d8082" d="M302.749 352.264l5.42-1.449 8.346.973-13.819 4.398z"/><path fill="#8f8f8f" d="M269.163 357.139l11.942-.9 2.866 3.215-.208 12.056-15.576-3.633z"/><path fill="#7d8082" d="M269.163 357.139l6.909-3.516 7.972 1.363-.073 4.468z"/><path fill="#8c9191" d="M254.918 294.15v13.216l48.975 5.441 6.978-9.542-7.369-6.393-8.13-5.29z"/><path fill="#bababa" d="M329.544 291.041l-24.585-.443-1.457 6.274.391 15.935 27.595-8.94z"/><path fill="#c7c7c7" d="M291.258 286.768l-36.34 7.382 48.584 2.722 26.042-5.831z"/><path fill="#d1a1b8" d="M302.696 266.354l-2.974 5.559 2.974 11.719v7.812l-7.308 2.32-4.175-16.2 4.086-13.561z"/><path fill="#b3879e" d="M287.233 273.256l-2.485-5.371 10.449-.997.191 26.876-9.83-1.465v-8.667z"/><path fill="#8f75a1" d="M284.748 260.313v7.572l10.461.785 2.263-5.77-2.084-3.564-2.722-2.096z"/><path fill="#a687ba" d="M302.871 259.092l-3.971-2.304-3.512 2.548-.179 9.334 7.487-2.316z"/><path fill="#b3879e" d="M290.184 251.645l-5.436 8.668 10.64-.977 1.962-3.573-2.89-5.697z"/><path fill="#d1a1b8" d="M298.623 251.278l4.248 7.814-7.483.244-1.107-9.2z"/><path fill="#8c9191" d="M289.895 247.25l.024.362.265 4.033 4.679-.147 3.76-.22.118-4.333z"/><path d="M186.967 188.936c1.536 0 2.779 1.245 2.779 2.779 0 1.534-1.243 2.777-2.779 2.777-1.534 0-2.777-1.243-2.777-2.777s1.243-2.779 2.777-2.779M186.967 214.873c1.536 0 2.779 1.245 2.779 2.779 0 1.534-1.243 2.779-2.779 2.779-1.534 0-2.777-1.245-2.777-2.779 0-1.534 1.243-2.779 2.777-2.779" fill="#734d61"/><path fill="#edcfc9" d="M177.818 102.595l12.231 4.197 1.762 10.136 2.818-14.089z"/><path fill="#fcede8" d="M301.504 224.265l10.661-.212 3.511-5.595 11.125-5.647-.358-5.835-14.644 1.041-10.69 7.963z"/><path fill="#94637d" d="M147.284 116.556l13.265-4.22 25.751.293-14.681 14.13-17.395.065z"/><path fill="#fff" d="M150.248 118.265l2.625 3.887 19.434-.388 6.317-7.192z"/></g></svg>