<svg xmlns="http://www.w3.org/2000/svg" viewBox="-342 -133 900 350"><path fill="#C4C4C3" d="M-342 139.454l266.742-64.16 55.987-117.375-50.486-60.983L-329.271-133zM558 136.242L291.236 75.294l-21.138-89.47 15.636-88.888L545.259-133z"/><path fill="#CFCECD" d="M-69.757-103.064h355.491l2.401 77.552 3.101 100.806H-75.258z"/><path fill="#FFF" d="M-224.786-90.352c20.463.289 40.135.553 58.989.817 18.158.24 35.618.505 52.431.721-.265 10.949-.504 21.903-.745 32.809-.24 10.88-.504 21.761-.745 32.617-16.669.936-33.984 1.896-51.951 2.905-18.685 1.058-38.165 2.136-58.435 3.288.071-12.101.145-24.255.216-36.434.072-12.199.169-24.451.24-36.723z"/><path fill="#C4C4C3" d="M-156.865-58.598l-3.087-5.463v-5.919l-12.522-2.048-24.704-18.211 54.556 2.504-5.202 10.243 11.873 6.374-5.305 8.65z"/><path fill="#B3889D" d="M-119.284-30.428l3.605-14.512-111.374 1.939-3.28 25.653 108.909-7.361z"/><path fill="#96637C" d="M-145.739-56.549l-5.305-7.512h-8.908l-6.612 20.037 12.171 6.596z"/><path fill="#734D61" d="M-151.044-64.061l-3.349 26.633 13.137-6.146v-18.894z"/><path fill="#96637C" d="M-232.805-20.612l43.968-22.962v12.292l17.306-12.292 1.141 9.105 29.134-9.105v11.382l25.577-12.748 1.189 22.308-102.363 3.187z"/><g fill="#734D61"><path d="M-200.298-24.709l11.182-.512v-2.561l-11.078.778zM-181.348-28.209h11.609v2.476h-11.609zM-161.629-29.489h12.292v2.518h-12.292zM-140.459-30.001v3.03l11.695-.469v-2.988z"/></g><path fill="#9CA0A1" d="M-147.824-77.492l6.568 15.024-31.218-9.56z"/><path fill="#A2A3A4" d="M-224.74-98l111.374 9.186-3.363 7.373-6.099 1.176-48.253-1.127-53.751-1.225z"/><path fill="#B3B4B5" d="M-113.366-88.814l-.744 32.833-.745 32.593-8.549.479.287-28.58.289-28.776z"/><path fill="#737474" d="M-227.913-33.743l-10.566 23.205 128.334-3.734-2.421-11.221-5.819 2.303-107.616 1.288z"/><path fill="#858686" d="M-224.613-98.667v4.167l1.079 75.119-11.952 9.411-3.262-99.53zM-125-92.5l9.096 5.979-2.481 63.331 8.24 7.83 1.721-80.221z"/><path fill="#8F8F8F" d="M-238.748-109.5l130.324 13.919-7.48 9.06-108.709-7.979z"/><g fill="#2B2B2B"><path opacity=".1" d="M-272.413 114.432l35.732-75.966-23.356-32.396-67.762 7.977-5.83 126.562 37.479 26.946 135.842-8.312 34.429-36.208zM-151.943 187.471l116.025 29.345 153.251-43.095L9.558 151.076zM554.004 168.419l-59.689-10.066-64.366 15.185 64.966 18.531zM112.468 89.712l51.935-10.486 59.592 12.532 18.967-6.597 46.146 15.044-51.776 13.295-40.663-7.948L159 107.319zM141.5 190.921l119.625-13.56L345.243 193 229.02 217zM318.698 152.988l68.579-9.684 54.777 12.338-65.084 9.858z"/></g><g><path fill="#9DA1A2" d="M448.305 127.96l13.448 51.567 25.318 7.181 22.6-40.18-7.928-18.876z"/><path fill="#B0B3B3" d="M527.37 129.21l-8.74 46.26-31.559 11.238-.311-48.73z"/><path fill="#4F5253" d="M488.007 117.971l39.363 11.239-40.61 8.768-38.455-10.018z"/><path fill="#96637C" d="M437.688 106.106l21.885-19.694 12.801 11.865-5.957 5.521-7.28-2.543z"/><path fill="#875970" d="M472.374 98.277l-13.237 2.978 17.2 34.01 10.423 2.713-6.533-18.037-1.922-17.342z"/><path fill="#96637C" d="M484.214 84.972L482.7 98.253l-4.346 7.951 1.873 13.737 6.533 18.037 5.811-23.034-.244-36.865z"/><path fill="#875970" d="M497.878 135.574l.356-96.449-5.907 38.954-1.008 10.734-1.629 17.676-2.93 31.489z"/><path fill="#B3879C" d="M507.97 97.773l-15.643-19.694-8.113 6.893zM520.77 97.773l-13.717 35.81-9.175 1.991.049-14.771 18.783-32.088z"/><path fill="#96637C" d="M535.13 104.328l-18.42-15.613-5.307 9.058z"/><path fill="#B3879C" d="M474.026 69.814l8.674 28.439-1.057 9.196-1.416 12.492-7.853-21.664-6.153-22.843z"/><path fill="#96637C" d="M448.26 79.637l25.766-9.823 3.555 11.675z"/></g><g><path fill="#724B5E" d="M-273.129 47.731l-1.084-13.784 11.228 3.292 1.8 7.547-1.391 7.158z"/><path fill="#858686" d="M-300.905 35.603v81.548l10.473 3.496 2.147-74.593-3.231-11.74-9.329-9.508z"/><path fill="#8F8F8F" d="M-317.042-7.981l16.137 43.584 9.368-1.289-3.477-29.9-13.519-15.465z"/><path fill="#9CA0A1" d="M-258.608-15.407l-49.925 4.356 17.017 45.365 3.6 2.457 2.658-3.805 38.8-8.326z"/><path fill="#6F7173" d="M-284.766 114.531l-.492-81.565-3.805.818-2.474.53 1.105 86.333z"/><path fill="#A3A2A2" d="M-310.027 143.414l-2.883-68.866 53.709.797 47.117 12.939-.646 28.233-4.286 44.868z"/><path fill="#8F8F8F" d="M-125.879 123.035l-91.137 38.35-1.892-60.918 91.12-49.933z"/><path fill="#C4C4C3" d="M-322.767 91.848l1.451-31.619 6.441-.775 89.137 7.668 6.83 9.695 6.403 6.32-6.403 17.33z"/><path fill="#DDDDDC" d="M-321.316 60.229l99.587-25.586 14.889-3.763 87.786 4.089-99.854 41.848z"/><path opacity=".1" fill="#2B2B2B" d="M-248.565 53.849l-27.739 11.01 39.54 7.457 11.397-3.721 4.583 1.775 15.349-10.916z"/><path fill="#CECECD" d="M-246.723 41.064l24.994-6.421 4.581-1.147c1.289 3.333 2.597 6.975 2.597 6.975l-31.988 3.416s-.083-1.146-.165-2.803l-.019-.02z"/><path fill="#A3A2A2" d="M-117.516 66.147l-1.538-31.178-99.854 41.848v23.65z"/><path fill="#734C5F" d="M-228.091 36.421l-.205-7.914-4.499-9.633 5.972-11.414 7.629 3.846 1.35 6.729 5.727 9.817-2.455 12.599z"/><path fill="#FDFDFD" d="M-250.999 1.098l16.527 16.65 5.809-14.377z"/><path fill="#734C5F" d="M-250.999 1.098l16.527 16.65-11.986 6.892-14.399 6.136-2.945-10.901-3.334-9.9z"/><path fill="#542F42" d="M-236.681 38.466l8.59-2.045-.429-16.813-9.225 8.715z"/><path fill="#95627C" d="M-274.213 33.947l7.077-23.972 17.896 15.053-.307 10.533-14.255 9.88z"/><path fill="#ECECEB" d="M-259.426 62.704l20.371-10.329 32.604 4.767-14.625 13.497z"/><path fill="#A3A2A2" d="M-224.061 57.243l10.123 1.473-10.185 8.773-10.226-2.107zM-227.865 56.65l-9.901 7.609-1.881-.408 10.083-7.53zM-231.712 55.77l-9.879 7.609-1.882-.409 10.065-7.546zM-235.577 54.81l-5.584 4.293-1.882-.408 5.77-4.235z"/><path fill="#F4F4F4" d="M-272.413 57.724l22.171-7.21 30.72 11.885-17.242 9.917z"/><path fill="#A3A2A2" d="M-236.702 58.594l9.531 3.68-11.863 6.321-9.531-4.336zM-240.281 57.18l-11.331 5.219-1.759-.821 11.515-5.111zM-243.819 55.466l-11.352 5.214-1.739-.817 11.495-5.094zM-247.398 53.664l-6.402 2.944-1.74-.817 6.567-2.824z"/><g><path opacity=".1" fill="#2B2B2B" d="M-184.993 38.027l30.92 2.424-26.975 15.57-29.243-6.551z"/><path fill="#F4F4F4" d="M-181.375 34.024l29.432 4.442-27.428 15.383-27.768-8.837z"/><path fill="#95627C" d="M-190.089 43.334c.45-.326.083-1.022 1.022-1.698.676-.488 2.72-.98 3.049-1.226 1.594-1.144 1.492-1.064 3.087-2.208 3.027-.655 6.096-1.31 9.164-1.986-.204 1.372-.39 2.741-.594 4.114-1.534 1.101-3.087 2.186-4.623 3.271-.634.45-1.185 2.311-1.819 2.762-.88.634-1.84-.142-2.72.471-1.187-.634-3.008-.329-4.172-.963-1.003-.531-1.412-2.024-2.415-2.557l.021.02z"/><path fill="#734D61" d="M-191.869 45.074c.595-.572 1.187-1.164 1.78-1.74 2.19 1.168 4.376 2.332 6.587 3.521-.88.53-1.739 1.063-2.599 1.593-1.923-1.126-3.844-2.248-5.768-3.374z"/><path fill="#B3879C" d="M-195.775 44.009c1.882-.224 3.784-.45 5.686-.675.777-.55 1.556-1.102 2.332-1.657.572-.409 1.166-.838 1.758-1.248-1.492.083-2.964.163-4.458.267-1.779 1.127-3.559 2.228-5.319 3.334v-.021zM-183.829 51.273c.102-1.473.223-2.966.346-4.439 1.514-1.084 3.027-2.148 4.562-3.232-.123 1.41-.267 2.803-.388 4.214-1.514 1.164-3.008 2.332-4.501 3.475l-.019-.018z"/><path fill="#ECECEB" d="M-183.829 41.023c.757-.53 1.512-1.064 2.27-1.594 1.064.042 2.128.063 3.21.101.021.635.062 1.268.083 1.902-.941.513-1.882 1.023-2.824 1.535-.857-.1-1.717-.205-2.576-.304-.06-.555-.123-1.106-.162-1.66v.02z"/></g><g><path fill-rule="evenodd" clip-rule="evenodd" fill="#FFE6D6" d="M-207.897-50.074l6.805-4.479 6.394.36-3.169 50.892-17.055.113-19.411-3.406-1.093-35.392 2.001-16.06 13.619 1.668z"/><path fill-rule="evenodd" clip-rule="evenodd" fill="#F5CAB3" d="M-223.391-1.582l25.524-1.719-36.713-2.295 1.668-37.372-.513-15.078-10.192 7.631.381 7.973L-240.049-32l-2.612.051-2.031 2.308-2.374-2.793-1.081-5.628-3.577 3.338-3.582.983 3.718 4.997.959 5.202.622 3.276-.763 6.075-.229 15.289 29.564 5.831z"/><path fill-rule="evenodd" clip-rule="evenodd" fill="#474747" d="M-195.619-39.399l6.479-16.373-9.026-.738z"/><path fill-rule="evenodd" clip-rule="evenodd" fill="#F5CAB3" d="M-228.217-44.024l9.309 8.182 3.52 12.338 1.745-10.236-.354-5.846zM-206.269-42.474l-2.512 3.439-1.22 3.911.803 5.356 12.403-12.209-3.014-5.729z"/><path fill-rule="evenodd" clip-rule="evenodd" fill="#474747" d="M-213.997-39.586l-12.534-7.527-1.686 3.089 11.054 6.793zM-207.319-44.948l7.51-2.758 3.014 5.729-2.908 1.311-2.053-4.014-4.513 2.206z"/><path fill-rule="evenodd" clip-rule="evenodd" fill="#FFF1E8" d="M-208.781-39.035l-.697 15.515-2.755 1.014-3.155-.998 1.391-16.082z"/><path fill-rule="evenodd" clip-rule="evenodd" fill="#C4937D" d="M-206.217-12.834l-10.719-1.9-7.584-4.528 2.154-2.929-5.224 1.766-.226 5.944 2.335-2.653 7.993 4.629z"/><path fill-rule="evenodd" clip-rule="evenodd" fill="#FFE6D6" d="M-244.692-29.641l.53 3.084-6.467 3.015-4.677-10.199 7.159-4.321z"/><path fill-rule="evenodd" clip-rule="evenodd" fill="#737373" d="M-207.897-50.074l18.757-5.698-14.684-15.257-4.153 11.013z"/><path fill-rule="evenodd" clip-rule="evenodd" fill="#8F8F8F" d="M-207.897-50.074l4.073-20.955-49.435 5.866 9.019 5.391 10.815 1.726z"/><path fill-rule="evenodd" clip-rule="evenodd" fill="#737373" d="M-253.259-65.163l-8.275 26.007 9.539-4.71 8.378-6.549 10.192-7.631z"/><path fill-rule="evenodd" clip-rule="evenodd" fill="#474747" d="M-243.617-50.415L-240.049-32l-4.643 2.359-3.455-8.421-7.159 4.321-6.228-5.415z"/><path fill-rule="evenodd" clip-rule="evenodd" fill="#C4937D" d="M-252.261-32.619l2.603-1.572 1.534 4.994zM-250.629-23.542l4.6-2.185-4.745 11.827zM-209.478-23.52l-3.424 3.399-2.486-3.383z"/><path fill="#2B2B2B" d="M-201.12-35.504c-.288 1.165-1.466 1.876-2.632 1.588-1.165-.288-1.876-1.466-1.588-2.632.288-1.165 1.466-1.876 2.632-1.588 1.165.289 1.876 1.467 1.588 2.632zM-218.908-35.842c-.288 1.165-1.466 1.876-2.632 1.588-1.165-.288-1.876-1.466-1.588-2.632.288-1.165 1.466-1.877 2.632-1.588 1.164.289 1.876 1.467 1.588 2.632z"/><path fill-rule="evenodd" clip-rule="evenodd" fill="#C4937D" d="M-240.55-7.306l42.683 4.005-21.977 3.795-1.591 6.435z"/></g><path fill="#B3889D" d="M-241.447 49.47l-22.355-4.029 14.562-20.413 11.086-10.981 10.881 2.657z"/><path fill="#FFE6D6" d="M-228.091 1.972l-10.063 12.075 10.881 2.657 3.948-2.636 7.138.204 4.827-8.202z"/><path fill="#F4CAB3" d="M-208.435 16.07l-2.925-10-6.239 4.172-5.726 3.826 5.481 3.967z"/><path fill="#95627C" d="M-214.572 40.451l-3.272-22.416 9.409-1.965 9.919 19.554z"/></g><g><path fill="#9075A0" d="M146 27.419L142.167 88.5l23.5 1.212-7.5-62.213z"/><path opacity=".1" fill="#2B2B2B" d="M145.085 42l15.588 6.292-2.506-20.793-12.167-.08z"/><path fill="#A588B9" d="M103.25-87l101.157 5.168 1.938 117.486-101.936-5.648z"/><path fill="#ECECEB" d="M115.362-69.772l.791 88.037h79.309l1.207-88.343z"/><path fill="#9075A0" d="M103.25-87l12.112 17.228 81.307-.306 7.738-11.754zM104.409 30.006l11.744-11.741h79.309l10.883 18.468z"/><path fill="#737373" d="M120.878-48.532l.907 51.137L166.75 2l.259-3.233L123.078.285l.233-48.817z"/><path fill="#95627C" d="M126-33.584h6.917v30.833H126zM137.583-2.75v-21.084h7.834l-.75 20.392zM148.75-3.279l.5-13.388 7.5.417-.734 12.808zM129.75-46.375L140-39.063l7.25-.812 9.5 8.806 1.375-2.119 4.25 7.515-8.5-.64 1.178-2.474-8.99-8.213-6.875.447-10.75-8.76z"/><g><path fill="#C3937C" d="M172.137 1.702l11.651 2.819 4.102-2.113.207-8.57-10.252-4.917-2.689 1.861z"/><path fill="#F4CAB3" d="M165.152-14.085l12.693 3.006 6.089 2.843-2.004 4.165-16.948-6.141z"/><path fill="#FFE6D6" d="M175.477-2.182l8.457-6.054 4.163 2.074-2.219 6.066-9.37 1.448z"/><path fill-rule="evenodd" clip-rule="evenodd" fill="#FFE6D6" d="M311.889-15.718l-.572 1.564 2.144-10.834 9.456 5.504-.496 11.256-12.767-1.377z"/><path fill-rule="evenodd" clip-rule="evenodd" fill="#F5CAB3" d="M308.992-12.49l2.325-1.664 11.104 5.926-6.998 10.614-9.907-.185 3.476-6.995z"/><path fill-rule="evenodd" clip-rule="evenodd" fill="#FFE6D6" d="M308.33 2.201l-1.231-7.515-.756-4.403 1.614-9.767 3.187.331.173 4.999 2.475 7.789z"/><path fill-rule="evenodd" clip-rule="evenodd" fill="#795D88" d="M239.99 69.515l-7.186 9.711-10.008-2.51-7.297-5.914 7.97-30.52 13.863 21.15z"/><path fill-rule="evenodd" clip-rule="evenodd" fill="#594265" d="M232.804 79.226l-8.809 12.532-10.896-2.594-1.763-2.76 4.163-15.602z"/><path fill-rule="evenodd" clip-rule="evenodd" fill="#9075A0" d="M262.174 40.723l-38.705-.441 13.863 21.15 11.984-5.563z"/><path fill-rule="evenodd" clip-rule="evenodd" fill="#A588B9" d="M237.332 61.432l3.644 15.284 10.075 4.165 10.074-3.668 5.099-36.931-3.298-.185z"/><path fill-rule="evenodd" clip-rule="evenodd" fill="#795D88" d="M240.976 76.716l3.238 13.764 6.049 3.127 7.916-.534 2.946-15.86z"/><path fill-rule="evenodd" clip-rule="evenodd" fill="#96637C" d="M244.214 90.48l-4.42 10.323 9.157.994 9.471-.994-.243-7.73zM211.336 86.404l-12.62 11.886 14.645.994 10.397-.994.237-6.532z"/><path fill-rule="evenodd" clip-rule="evenodd" fill="#543042" d="M258.4223 104.0495h-18.628v-3.247h18.628zM223.7584 101.5384h-25.042v-3.247h25.042z"/><path fill-rule="evenodd" clip-rule="evenodd" fill="#FEFEFE" d="M265.511-13.538L242.826 9.929l-6.323-24.511 14.996-2.368z"/><path fill-rule="evenodd" clip-rule="evenodd" fill="#FFE6D6" d="M237.023-71.224l-5.347-5.782-6.085-1.146-8.834 48.5 15.981 4.063 19.226 1.214 9.019-32.871 1.849-15.536-13.169-1.595z"/><path fill-rule="evenodd" clip-rule="evenodd" fill="#F5CAB3" d="M240.314-22.117l-23.557-7.535 34.989 6.364 7.106-35.463 3.98-14.031 7.795 9.526-2.208 7.395-5.414 9.061 2.44.653 1.371 2.638 2.877-2.071 2.319-5.031 2.583 3.962 3.134 1.754-4.649 3.828-2.107 4.659-1.344 2.93-.694 5.879-3.332 14.403-29.1-1.386z"/><path fill-rule="evenodd" clip-rule="evenodd" fill="#474747" d="M223.023-64.054l-2.283-16.869 8.643 1.401z"/><path fill-rule="evenodd" clip-rule="evenodd" fill="#B3889D" d="M221.04-9.532L204.654.991l-8.395.702 10.086 16.276 20.754-4.931.215-9.617z"/><path fill-rule="evenodd" clip-rule="evenodd" fill="#96637C" d="M188.097-6.162l-4.309 10.683 22.557 13.448L204.654.991z"/><path fill-rule="evenodd" clip-rule="evenodd" fill="#F5CAB3" d="M254.691-60.831l-10.635 5.52-6.167 10.762.737-10.012 1.688-5.404zM235.987-63.256l-.696 2.598.238 3.953-1.997 4.842-8.807-14.337 1.413-2.078z"/><path fill-rule="evenodd" clip-rule="evenodd" fill="#474747" d="M240.314-59.965l13.511-4.157.866 3.291-11.952 3.811zM235.987-63.256l-8.07-7.257-1.779 2.235 7.188 7.447z"/><path fill-rule="evenodd" clip-rule="evenodd" fill="#FFF1E8" d="M235.291-60.658l-2.945 14.724 2.351 1.59 3.192-.205 2.425-15.416z"/><path fill-rule="evenodd" clip-rule="evenodd" fill="#FFE6D6" d="M266.816-43.509l-1.213 2.771 5.37 4.33 6.756-8.487-5.717-5.716z"/><path fill-rule="evenodd" clip-rule="evenodd" fill="#737373" d="M237.023-71.224l-16.283-9.699 17.322-10.913 1.343 11.3z"/><path fill-rule="evenodd" clip-rule="evenodd" fill="#8F8F8F" d="M237.023-71.224l1.039-20.612 45.036 16.975-9.715 2.967-10.551-.888z"/><path fill-rule="evenodd" clip-rule="evenodd" fill="#737373" d="M283.098-74.861l1.733 26.329-7.86-6.634-6.344-8.09-7.795-9.526z"/><path fill-rule="evenodd" clip-rule="evenodd" fill="#474747" d="M270.627-63.256L263.005-46.8l3.811 3.291 5.196-7.102 5.717 5.716 7.102-3.637z"/><path fill-rule="evenodd" clip-rule="evenodd" fill="#C4937D" d="M274.611-44.549l-2.079-2.078-2.598 4.33zM270.973-36.408l-3.81-3.117 1.709 12.2zM232.346-45.934l2.425 3.984 3.118-2.599z"/><path fill-rule="evenodd" clip-rule="evenodd" fill="#96637C" d="M265.511-13.538L244.126 2.386l12.303 9.776 15.149 9.333 5.146-11.749L280.222-5.5zM236.503-14.582l-15.463 5.05 4.715 15.682 8.693 1.858 9.678-5.622z"/><path fill-rule="evenodd" clip-rule="evenodd" fill="#734C5F" d="M271.578 21.495l-5.354 18.787-4.05.441-22.276 2.282-.104-22.079 4.332-18.54z"/><path fill-rule="evenodd" clip-rule="evenodd" fill="#543042" d="M244.126 2.386L225.755 6.15l-2.286 34.132 16.429 2.723z"/><circle fill="#2B2B2B" cx="229.383" cy="-59.121" r="2.101"/><circle fill="#2B2B2B" cx="246.157" cy="-55.311" r="2.101"/><path fill-rule="evenodd" clip-rule="evenodd" fill="#C4937D" d="M257.746-23.508l-40.989-6.144 19.746 8.661v6.409z"/><path fill-rule="evenodd" clip-rule="evenodd" fill="#B3889D" d="M280.222-5.5l17.84 15.429v14.097l-26.484-2.531z"/><path fill-rule="evenodd" clip-rule="evenodd" fill="#C4937D" d="M228.703-40.282l11.697 1.073.843 7.493-13.657-2.234z"/><path fill-rule="evenodd" clip-rule="evenodd" fill="#FFF" d="M229.748-39.067l9.26.896.248 2.172-9.873-.993z"/><path fill-rule="evenodd" clip-rule="evenodd" fill="#96637C" d="M307.167-4.899L292.905 5.469l5.157 18.557 17.361-21.64z"/></g><g><path fill="#ECECEB" d="M302.158-122.979l-8.172 19.915 8.172 25.892-8.172 13.118 16.578-9.284 30.431 13.879 36.33-8.095 20.702-48.463L365.543-133z"/><path fill="#9E9E9E" d="M318.642-85.226l35.949 1.562 1.562-35.506-10.552-.223v18.21l-8.997-5.847-.969 6.913-8.598-7.409-.57 7.409-10.679-6.741c.872 7.237 1.84 14.423 2.805 21.632h.049zM363.735-116.816l-1.286 17.418 6.44.298 3.393-17.716z"/><path fill="#A3A3A3" d="M360.686-95.78l4.192-2.431 4.011 3.224-2.081 4.534-4.189 1.116z"/></g><path fill="#C4C4C3" d="M167.009-59.253h19.074v2.233h-19.074zM167.009-51.264h19.074v2.732l-19.074-.385zM167.009-42.584l19.074.634v2.116l-19.074-.833z"/></g><g><path fill-rule="evenodd" clip-rule="evenodd" fill="#FFE6D6" d="M-23.537 23.074l-6.816-4.429-9.659 13.233 6.912 7.579 7.291-4.347z"/><path fill-rule="evenodd" clip-rule="evenodd" fill="#F5CAB3" d="M-2.091 23.074l-11.734-6.059-16.528 1.63 4.544 16.465 11.092-2.93z"/><path fill-rule="evenodd" clip-rule="evenodd" fill="#FFE6D6" d="M-4.836 25.056l-8.989-8.041-12.084 5.344 2.372 4.707 4.572-1.854 5.989 3.921z"/><path fill-rule="evenodd" clip-rule="evenodd" fill="#96637C" d="M13.218 36.794l-27.935-4.614.892-15.165 34.658-1.118 6.322 17.301z"/><path fill-rule="evenodd" clip-rule="evenodd" fill="#B3889D" d="M43.292 30.883l2.304-23.212-28.325 14.394-4.053 14.729 26.593 17.589z"/><path fill-rule="evenodd" clip-rule="evenodd" fill="#795D88" d="M56.996 131.464l-18.94 4.853-3.382-15.089 17.432-28.465 22.265 28.465z"/><path fill-rule="evenodd" clip-rule="evenodd" fill="#594265" d="M56.996 131.464l-4.501 18.281-13.857-3.491-2.241-3.715-1.723-21.311z"/><path fill-rule="evenodd" clip-rule="evenodd" fill="#9075A0" d="M101.856 97.345l-49.75-4.582 17.631 28.465 15.24-7.486z"/><path fill-rule="evenodd" clip-rule="evenodd" fill="#A588B9" d="M69.737 121.228l-1.895 15.089 19.341 11.086 7.598-9.529 7.075-40.529z"/><path fill-rule="evenodd" clip-rule="evenodd" fill="#795D88" d="M67.842 136.317l6.46 21.461 7.693 4.208 10.067-.719 2.719-23.393z"/><path fill-rule="evenodd" clip-rule="evenodd" fill="#96637C" d="M74.302 157.778l-5.62 13.892 11.645 1.338 12.045-1.338-.31-10.403zM36.397 142.539l-16.05 15.998 18.624 1.337 13.223-1.337.301-8.792z"/><path fill-rule="evenodd" clip-rule="evenodd" fill="#543042" d="M68.682 175.908h23.69v-4.37l-23.69.132zM52.1942 162.9067h-31.847v-4.371h31.847z"/><path fill-rule="evenodd" clip-rule="evenodd" fill="#FEFEFE" d="M79.526 26.675L62.758 62.689 46.187 36.794l16.121-8.596z"/><path fill-rule="evenodd" clip-rule="evenodd" fill="#FFE6D6" d="M25.073-28.952l-8.288-4.604-7.349 1.05 8.553 59.572 19.704-1.538 22.297-6.103-2.353-41.559-3.854-18.7-15.565 3.297z"/><path fill-rule="evenodd" clip-rule="evenodd" fill="#F5CAB3" d="M47.627 26.587l-29.638.479 42.171-6.299-5.52-43.809-.857-17.792 12.502 7.981.326 9.418-2.676 12.599 3.021-.196 2.568 2.516 2.472-3.519.707-6.727 4.451 3.576 4.231.806-3.813 6.244-.606 6.215-.404 3.915 1.465 7.074 1.735 17.967-33.575 9.759z"/><path fill-rule="evenodd" clip-rule="evenodd" fill="#474747" d="M11.923-15.189L2.866-33.818l10.352-1.754z"/><path fill-rule="evenodd" clip-rule="evenodd" fill="#F5CAB3" d="M49.118-23.825l-9.962 10.54-2.879 14.862-2.999-11.873-.154-6.913zM26.949-19.327l.206 3.278 1.785 4.481-.412 6.382-13.705-13.238 2.567-3.289z"/><path fill-rule="evenodd" clip-rule="evenodd" fill="#474747" d="M33.124-17.209l13.749-10.086 2.245 3.47-12.111 9.077zM26.949-19.327l-5.985-5.433-8.461 3.625 2.32 2.711 5.896-2.044 3.205 3.861z"/><path fill-rule="evenodd" clip-rule="evenodd" fill="#FFF1E8" d="M27.155-16.049l2.297 18.187 3.279.922 3.546-1.483-3.153-18.786z"/><path fill-rule="evenodd" clip-rule="evenodd" fill="#FFE6D6" d="M69.524-8.516l-.315 3.681 7.757 2.914 4.419-12.459-8.682-4.382z"/><path fill-rule="evenodd" clip-rule="evenodd" fill="#737373" d="M25.073-28.952L2.866-33.818 18.354-53.21l5.856 12.552z"/><path fill-rule="evenodd" clip-rule="evenodd" fill="#8F8F8F" d="M25.073-28.952L18.354-53.21 76-51.152l-9.896 7.227-12.321 3.091z"/><path fill-rule="evenodd" clip-rule="evenodd" fill="#737373" d="M76-51.152l12.055 29.79-11.467-4.607-10.303-6.884-12.502-7.981z"/><path fill-rule="evenodd" clip-rule="evenodd" fill="#474747" d="M66.285-32.853l-2.35 22.017 5.589 2.32 3.179-10.246 8.682 4.382 6.67-6.982z"/><path fill-rule="evenodd" clip-rule="evenodd" fill="#C4937D" d="M77.977-12.762l-3.157-1.594-1.291 6.026zM76.966-1.921l-5.522-2.12L78.06 9.41zM29.452 2.138l4.281 3.664 2.544-4.225z"/><path fill-rule="evenodd" clip-rule="evenodd" fill="#96637C" d="M79.526 26.675L61.345 53.452l17.716 6.509 24.369 2.728-11.676-9.237V35.11zM47.627 26.587l-7.423 2.474-.393 25.322 12.698 9.354 8.836-10.285z"/><path fill-rule="evenodd" clip-rule="evenodd" fill="#734C5F" d="M103.43 62.689l-1.574 34.656-32.57-1.527-5.756-19.221-2.185-23.145z"/><path fill-rule="evenodd" clip-rule="evenodd" fill="#543042" d="M61.345 53.452l-21.534.931 12.295 38.38 17.18 3.055z"/><path fill="#2B2B2B" d="M18.649-11.144c.445 1.343 1.873 2.064 3.191 1.611s2.026-1.909 1.581-3.252c-.445-1.343-1.874-2.064-3.192-1.611-1.317.453-2.025 1.909-1.58 3.252zM39.156-13.285c.445 1.343 1.874 2.064 3.191 1.611 1.318-.453 2.026-1.909 1.581-3.252-.445-1.343-1.874-2.064-3.191-1.611-1.318.453-2.026 1.909-1.581 3.252z"/><path fill-rule="evenodd" clip-rule="evenodd" fill="#C4937D" d="M66.888 18.171l-48.899 8.895 22.215 1.995 11.775 6.049zM28.94 11.182l16.102-5.026V8.29l-15.319 4.794z"/><g><path fill="#795D88" d="M37.907 128.557v53.281l-55.02 18.052-8.264-27.535 7.342-30.41z"/><path fill="#9075A0" d="M-66.01 141.642l47.975.303.922 57.945h-50.74l-11.026-31.533z"/><path fill="#795D88" d="M-117.045 131.374l51.035 10.268-1.843 58.248-48.894-12.782z"/><path fill="#734D61" d="M46.08 120.648v17.146l-63.878 18.508.09-21.932z"/><path fill="#96637C" d="M-65.683 134.067l47.975.303-.09 21.932h-48.686z"/><path fill="#734D61" d="M-124.09 127.315l-.594 14.024 58.2 14.963.801-22.235z"/><path fill="#B3889D" d="M4.11 106.537l41.97 14.111-64.115 21.297-47.975-.303-58.08-14.327 51.66-21.475z"/><path fill="#F4F2F5" d="M28.211 114.653l1.76-43.863L2.592 39.799l-17.309-7.619-25.295-.302-34.141 7.579-17.182 18.581-13.339 24.173 2.185 41.04 69.355 5.757z"/><path fill="#BCBCBC" d="M28.211 120.197v-5.544L4.11 106.537l-76.54-.697-30.488 12.661.433 5.085 18.404 7.393 34.183 6.116 31.497-2.518 27.715-6.02z"/><path fill="#CBCECE" d="M-102.485 123.586l18.404 7.393 34.183 6.116 31.497-2.518 27.715-6.02 18.897-8.36-22.288-7.451-51.095-2.669-28.684 2.94z"/><path fill="#FFF" d="M-56.913 44.983l-21.908 4.245-17.982 31.62-1.04 26.048 6.508-23.929 16.17-30.014z"/><path opacity=".1" fill="#2B2B2B" d="M-66.484 116.371l79.04 2.265-26.412 14.222-64.449-5.543z"/><path fill="#B3889D" d="M-58.594 73.486l-7.264-7.508 10.24-1.533 12.766.842z"/><path fill="#734D61" d="M-59.215 76.631l5.463-8.961 10.9-2.383 9.353 27.476-26.162 6.372z"/><path fill="#A588B9" d="M-32.363 87.131l-7.419 2.941-11.891 3.082 15.568 12.539z"/><path fill="#A588B9" d="M-12.265 88.165l-12.692-5.469-19.917 5.091 10.596 20.055z"/><path fill="#B39BC6" d="M-7.548 103.962l6.817-13.89-9.962-5.683-18.785 4.702 15.622 20.301z"/><path fill="#795D88" d="M-19.743 106.387l4.593-10.629 14.419-5.686 3.323 30.576-17.979 8.064z"/><path fill="#96637C" d="M-50.61 100.391l-3.142-32.721-12.106-1.692-1.962 20.994z"/><path fill="#9075A0" d="M-15.387 128.712l.237-32.954-14.328-6.667-.266 7.451-15.13-8.755v7.971l-22.946-8.786v36.614z"/><path fill="#96637C" d="M-23.948 103.932l.144 8.377-37.716.531-.236-12.906z"/><path fill="#734D61" d="M-23.893 107.143l.356 9.022-37.983-3.325-.176-9.545z"/><path fill="#B3879C" d="M-51.978 9.571l-2.774-8.411-2.758 1.08-.315-13.398-6.496-.348-2.11-8.407-2.608 13.05 5.846 1.556-.463 16.83 7.607-4.989zM-59.454 22.968l-4.255-9.751-4.684 2.239-4.716-12.911-4.703 4.173-5.015-8.224.149 13.581 7.791-2.139 3.737 13.216 6.015-3.929z"/><path fill="#95627C" d="M-60.601-30.89l-1.869-8.651-9.28-1.959-5.413 6.885 4.773 12.077 9.809-1.048 1.98-7.283v-.021zm-4.219-5.619l-5.609-1.69-3.737 5.171 1.868 8.759 6.255-.797 2.85-6.25-1.627-5.171v-.022zM-59.176-43.86v2.239l4.867-2.156 1.055 1.79-3.978 4.747-.574 2.583 7.883.898-.239-3.585-4.887.183 4.071-5.171-2.683-4.481zM-85.769-3.299l-1.869-8.652-8.531-2.139-6.164 7.065 4.411 11.816 8.008.053 4.145-8.124v-.019zm-4.22-5.62l-5.606-1.691-3.739 5.171 1.868 8.759 6.255-.797 2.85-6.251-1.629-5.171v-.02zM-86.213-18.692v2.218l4.868-2.139 1.053 1.794-3.979 4.722-.573 2.588 7.883.897-.258-3.564-4.868.184 4.071-5.193-2.682-4.46z"/></g><g fill-rule="evenodd" clip-rule="evenodd"><path fill="#F5CAB3" d="M25.325 82.252v7.82L9.436 84.389 6.219 72.962l13.695-2.888zM29.407 77.672l4.607-8.548-11.086-7.939-2.388 2.552z"/><path fill="#FFE6D6" d="M42.439 73.451l-8.425-4.327-14.1.95 5.411 19.998 15.13-5.683z"/><path fill="#96637C" d="M34.014 69.124l28.744-6.435 16.768 4.297-5.997 15.266-33.074 2.137z"/><path fill="#B3889D" d="M91.754 35.11L62.758 62.689l10.771 19.563 29.901-19.563z"/></g></g><g><path fill-rule="evenodd" clip-rule="evenodd" fill="#FFE6D6" d="M331.943 47.578l-7.768.26-5.477-14.345 9.174-5.189 10.855 12.232z"/><path fill-rule="evenodd" clip-rule="evenodd" fill="#F5CAB3" d="M335.621 37.035l-11.446 10.803 13.421 6.629L350.357 49l-11.242-8.271z"/><path fill-rule="evenodd" clip-rule="evenodd" fill="#FFE6D6" d="M350.099 51.677l-6.159-9.739-2.628-6.951-5.928-5.463-1.987 1.788 2.224 5.723.441 6.344 11.711 11.088z"/><path fill-rule="evenodd" clip-rule="evenodd" fill="#795D88" d="M394.584 116.815l-8.479 11.459-11.808-2.962-8.61-6.978 9.403-36.011 16.358 24.955z"/><path fill-rule="evenodd" clip-rule="evenodd" fill="#594265" d="M386.105 128.274l-10.394 14.786-12.856-3.061-2.08-3.256 4.912-18.409z"/><path fill-rule="evenodd" clip-rule="evenodd" fill="#9075A0" d="M420.759 82.844l-45.669-.521 16.358 24.955 14.14-6.563z"/><path fill-rule="evenodd" clip-rule="evenodd" fill="#A588B9" d="M391.448 107.278l4.3 18.034 11.887 4.914 11.887-4.328 4.929-24.008.962-9.751-4.654-9.295z"/><path fill-rule="evenodd" clip-rule="evenodd" fill="#795D88" d="M395.748 125.312l3.819 16.241 7.137 3.688 9.341-.63 3.477-18.713z"/><path fill-rule="evenodd" clip-rule="evenodd" fill="#96637C" d="M399.567 141.553l-5.214 12.179 10.804 1.172 11.175-1.172-.287-9.121zM360.775 136.743l-14.891 14.025 17.28 1.172 12.268-1.172.279-7.708z"/><path fill-rule="evenodd" clip-rule="evenodd" fill="#543042" d="M416.3319 157.563h-21.979v-3.832h21.979zM375.4326 154.599h-29.548v-3.832h29.548z"/><path fill-rule="evenodd" clip-rule="evenodd" fill="#FEFEFE" d="M424.696 18.82L397.93 46.51l-7.46-28.922 17.694-2.793z"/><path fill-rule="evenodd" clip-rule="evenodd" fill="#FFE6D6" d="M391.083-49.243l-6.309-6.823-7.18-1.352L367.171-.192l18.856 4.794 22.428 1.541 10.899-38.894 2.181-18.331-15.538-1.882z"/><path fill-rule="evenodd" clip-rule="evenodd" fill="#F5CAB3" d="M394.966 8.698l-27.795-8.89 41.284 7.508 8.384-41.842 4.696-16.556 9.198 11.24-2.605 8.725-6.388 10.691 2.878.771 1.618 3.112 3.394-2.443 2.737-5.936 3.048 4.675 3.697 2.069-5.485 4.517-2.486 5.497-1.586 3.458-.818 6.936-3.932 16.994-34.335-1.636z"/><path fill-rule="evenodd" clip-rule="evenodd" fill="#474747" d="M374.564-40.783l-2.693-19.905 10.198 1.653z"/><path fill-rule="evenodd" clip-rule="evenodd" fill="#B3889D" d="M372.225 23.548l-14.304 26.154 2.737 18.792 18.493-8.337.477-21.326z"/><path fill-rule="evenodd" clip-rule="evenodd" fill="#96637C" d="M359.667 46.51l-15.727-4.572-6.344 12.529 23.062 14.027z"/><path fill-rule="evenodd" clip-rule="evenodd" fill="#F5CAB3" d="M410.16-36.874l-10.779 6.406-7.276 12.699.869-11.813 1.992-6.377 4.415-2.557 6.897-4.168zM387.2-41.272l1.839 4.496.281 4.664-2.355 5.712-10.393-16.916 4.905-5.519z"/><path fill-rule="evenodd" clip-rule="evenodd" fill="#474747" d="M399.381-38.516l7.091-2.552 3.688 4.194 2.418-1.836-5.04-6.461-9.885 3.65zM389.039-43.725l-7.562-5.11-4.905 5.519 2.862 2.248 3.372-3.883 4.394 3.679z"/><path fill-rule="evenodd" clip-rule="evenodd" fill="#FFF1E8" d="M389.039-36.776l-3.474 17.372 2.773 1.877 3.767-.242 2.861-18.19z"/><path fill-rule="evenodd" clip-rule="evenodd" fill="#FFE6D6" d="M426.236-16.543l-1.431 3.27 6.336 5.109 7.971-10.014-6.745-6.744z"/><path fill-rule="evenodd" clip-rule="evenodd" fill="#737373" d="M391.083-49.243l-19.212-11.445 20.438-12.876 1.585 13.333z"/><path fill-rule="evenodd" clip-rule="evenodd" fill="#8F8F8F" d="M391.083-49.243l1.226-24.321 53.139 20.029-11.464 3.502-12.449-1.049z"/><path fill-rule="evenodd" clip-rule="evenodd" fill="#737373" d="M445.448-53.535l2.044 31.066-9.274-7.827-7.485-9.546-9.198-11.24z"/><path fill-rule="evenodd" clip-rule="evenodd" fill="#474747" d="M430.733-39.842l-8.993 19.416 4.496 3.883 6.131-8.379 6.745 6.744 8.38-4.291z"/><path fill-rule="evenodd" clip-rule="evenodd" fill="#C4937D" d="M435.433-17.769l-2.452-2.453-3.066 5.11zM431.141-8.164l-4.496-3.678 2.017 14.395zM385.565-19.404l2.861 4.701 3.679-3.066z"/><path fill-rule="evenodd" clip-rule="evenodd" fill="#96637C" d="M424.696 18.82l-25.231 18.79 14.516 11.535 17.873 11.012 6.072-13.863 4.128-17.99zM390.47 17.588l-18.245 5.96 5.563 18.502 10.257 2.193 11.42-6.633z"/><path fill-rule="evenodd" clip-rule="evenodd" fill="#734C5F" d="M431.854 60.157l-4.965 17.424-6.13 5.263-26.284 2.692-.122-26.052 5.112-21.874z"/><path fill-rule="evenodd" clip-rule="evenodd" fill="#543042" d="M399.465 37.61l-21.677 4.44-2.698 40.273 19.385 3.213z"/><path fill="#2B2B2B" d="M379.59-34.963c0 1.369 1.11 2.479 2.479 2.479s2.479-1.11 2.479-2.479-1.11-2.479-2.479-2.479-2.479 1.109-2.479 2.479zM399.381-30.468c0 1.369 1.11 2.479 2.479 2.479s2.479-1.11 2.479-2.479-1.11-2.479-2.479-2.479-2.479 1.11-2.479 2.479z"/><path fill-rule="evenodd" clip-rule="evenodd" fill="#C4937D" d="M415.534 7.057L367.171-.192l23.299 10.218v7.562z"/><path fill-rule="evenodd" clip-rule="evenodd" fill="#96637C" d="M435.806 62.6l-15.047 20.244 9.307 11.138 15.46-13.353z"/><path fill-rule="evenodd" clip-rule="evenodd" fill="#FFE6D6" d="M424.451 101.89l5.615-7.908-9.307-11.138z"/><path fill-rule="evenodd" clip-rule="evenodd" fill="#B3889D" d="M442.054 28.304l13.456 43.773-9.984 8.552-13.672-20.472z"/><path fill-rule="evenodd" clip-rule="evenodd" fill="#C4937D" d="M378.833-12.996l20.548 2.225-6.187 8.34-10.79-1.227z"/><path fill-rule="evenodd" clip-rule="evenodd" fill="#FFF" d="M382.069-10.64l13.322 1.231-3.287 4.911-8.213-1.034z"/><g><path fill="#A2A3A4" d="M522.535-55.98C524.167-55.98 545.5-89 545.5-89l-24.523-41.199-76.435 8.817-21.996 42.971 22.902 24.876s75.454-2.445 77.087-2.445z"/><path fill="#B3879C" d="M441.922-76.024l4.056-4.29 7.698-1.633-1.325 4.828-4.275 1.095z"/><path fill="#916E7E" d="M453.768-65.76l-.129-5.293 2.189-4.847 4.092-.359.183 5.601z"/><path fill="#8F8F8F" d="M444.866-70.98l.486-2.478 2.907-2.35 5.38 4.755-1.344 2.763-3.963 2.906-.183-1.668-4.093 2.979-4.073-.18 1.35-3.733 3.749-1.146.988-2.174z"/><path fill="#ECECEB" d="M452.278-74.839l-3.339 1.794-2.386 4.935 2.189-.879 2.136-.86 3.017-4.056z"/><path fill="#865870" d="M448.076-76.024l2.426-2.567 4.718.646 1.24 4.091-2.821 2.801-2.888-1.688z"/><path fill="#734D61" d="M455.366-77.478l1.094 3.624-2.821 2.801-2.888-1.67z"/><path fill="#95627C" d="M450.502-78.591l8.775-10.768 6.46 1.848 1.741 6.051-11.018 7.606z"/><path fill="#865870" d="M465.429-87.598l.308.087 1.741 6.051-11.018 7.606-2.602-2.064 8.918-9.169z"/><path fill="#4F5253" d="M455.488-80.977l1.025-2.888 4.004-.845 2.24 2.405-1.328 3.356-3.05 1.526-2.672-1.489z"/><path fill="#474A4B" d="M461.446-83.722l1.311 1.417-1.328 3.356-3.05 1.526-1.992-1.113z"/><path fill="#ECECEB" d="M457.573-83.184l-1.222 2.226.162 1.218 2.046 1.329 2.206-1.311.718-2.474-1.435-1.49z"/><path fill="#D4D4D4" d="M457.16-79.326l1.399.915 2.206-1.311.718-2.474-.755-.773z"/><path fill="#B3879C" d="M468.302-91.566l-9.025 2.207 3.499 4.272 4.702 3.627 2.332-9.045z"/><path fill="#A17A8C" d="M462.776-85.087l4.702 3.627 2.332-9.045-.753-.523z"/><path fill="#734D61" d="M473.292-95.029l-4.99 3.463 1.508 1.061z"/><path fill="#FFF" d="M474.709-96.57l6.713-7.54 6.116-1.38-.088-2.801 9.008 4.378-7.859 4.92-.666-4.29-5.186 1.31z"/><path fill="#ECECEB" d="M499.007-105.849l9.637-6.12 11.307.593 5.885 6.299 1.541 6.871-5.666 12.383-5.619 3.463-9.099-.967-5.045-3.268-4.846-6.801.667-8.507z"/><path fill="#CECECD" d="M501.323-103.894l5.04-4.001 4.344-.073-.394 3.572-5.974 3.247-2.804-1.076z"/><path fill="#9DA1A2" d="M501.323-103.894l5.04-4.001 4.344-.073-.16 1.438-3.177.18-5.707 4.18-.128-.055z"/><path fill="#CECECD" d="M498.435-94.293l.699-3.858 2.529-.824-.055 3.335-1.596 2.946z"/><path fill="#9DA1A2" d="M498.435-94.293l.699-3.858 2.529-.824-.037 1.739-1.525.359-.842 3.429z"/><path fill="#CECECD" d="M503.007-92.104l.145 1.453 2.658.377 3.55-1.505-.5-4.542-2.961-.502-2.892 1.794z"/><path fill="#9DA1A2" d="M503.007-92.104l.145 1.453.718.109v-3.876l2.548-1.31 2.566.556-.124-1.149-2.961-.502-2.892 1.794z"/><path fill="#C9C9C9" d="M513.292-91.566l6.46 1.761 5.887-3.017 5.241 2.782 4.737-2.566 6.013.377-6.536-2.691-4.232 2.889-4.579-3.788-7.157 3.949zM476.612-89.465l6.171-.575 4.864 3.986 5.996-3.125 12.939 2.1-8.652-5.15-8.397 3.104-4.378-2.262z"/><path fill="#ECECEB" d="M527.219-76.329l1.704-.647v2.818l-2.64.18zM518.801-76.723l.611-.235v1.007l-.934.07zM487.361-76.599l1.686-.626v1.954l-1.436.055zM486.407-68.722l.864-.322v1.402l-1.325.088zM455.724-101.669l.84-.322v1.398l-1.308.091zM524.742-118.177l.861-.322v1.416l-1.327.088z"/></g><path fill="#A2A3A4" d="M450.224-32.484l20.573-24.266 20.8-1z"/></g><g><path fill="#858686" d="M205.124 193.139l-16.569-15.778 64.269-31.829 34.461 14.835-44.012 35.245-30.868 3.42z"/><path fill="#C4C4C3" d="M224.68 199.032l-7.621 5.449-28.504-15.812v-11.308l28.504 15.778z"/><path fill="#96637C" d="M284.319 124.157l-32.056-3.611-59.602 19.671 25.86 46.906 65.101-34.135z"/><path fill="#B3889D" d="M284.319 124.157l-28.58-13.724-63.078 29.784 18.249 28.726 18.11-15.955 51.247-23.278z"/><path fill="#5E384D" d="M310.26 113.247l-31.393 2.741 1.4 13.722 3.355 23.278z"/><path fill="#734D61" d="M310.26 113.247l-54.521-2.814 24.528 19.277zM192.661 140.217l-1.166 31.078 27.026 15.828 10.499-34.135z"/><path fill="#8F8F8F" d="M253.804 155.35l-9.242-3.657-6.642-2.748-1.848 28.975 7.201 2.985 6.75-8.596z"/><path fill="#C4C4C3" d="M256.409 146.637l-6.695-3.049-11.794 5.357 6.642 2.748 3.501 24.557 1.96-3.941z"/><path fill="#A3A2A2" d="M256.409 146.637l2.544 27.879-15.68 7.706 1.289-30.529z"/><path fill="#A3A2A2" d="M287.285 160.367l-70.226 32.772v11.342l89.163-13.56z"/><path fill="#543042" d="M205.837 160.958l-8.928 7.985 18.083 8.418 4.169-17.702z"/><path fill="#5E384D" d="M198.1 148.778l-1.191 20.165 22.252-9.284 1.085-4.372z"/><path fill="#96637C" d="M267 125.125l5.375 3.25-11.25 4.742-5.386-2.992zM251.778 132l5.722 3-6.449 2.375-6.113-2.688z"/></g></svg>