<svg xmlns="http://www.w3.org/2000/svg" viewBox="0 0 400 400"><path opacity=".1" fill="#2b2b2b" d="M85.329 384.773l103.681-15.216 110.998 17.502L197.214 400z"/><path fill="#9075a0" d="M189.127 302.136l31.274 63.266 11.861 8.734 16.642-3.802-2.326-96.208zM189.127 302.136l-34.316 64.078-14.548.036-9.665-8.429 11.554-80.524 35.793-17.255z"/><path fill="#594165" d="M234.302 273.069l7.73 96.076-5.155 1.223-15.455-91.31zM230.371 369.243l-21.3-84.519-7.48 3.494 18.81 77.184zM154.811 366.214l38.138-104.769-9.957-2.828-37.48 108.28zM166.006 258.626l-23.87 103.194-6.391 1.324 19.798-107.422z"/><path opacity=".7" fill="#594165" d="M246.578 274.126l-51.435 38.66-6.016-10.65-23.121 7.923-23.854-32.762 32.825-20.635z"/><path fill="#734d60" d="M262.856 160.379l7.235 8.11 1.794 14.563 20.852 19.751-1.056 22.795-16.435 6.57-25.676-26.443z"/><path fill="#96637c" d="M307.485 216.834l-14.748-14.031-4.823 20.52-1.259 10.054 6.082 6.709z"/><path fill="#74665b" d="M152.323 22.635l6.774-13.636 24.562-2.073-3.919 5.682-17.89 13.536-6.843 5.013z"/><path fill="#9e8d82" d="M158.007 29.931l-5.684-7.296-14.783 8.427 11.263 10.122z"/><path fill="#74665b" d="M147.98 37.677l6.35 27.07-14.363-4.011-2.427-29.674z"/><path fill="#8e7e73" d="M151.577 58.564l-13.954 28.532-10.69-4.467 13.034-21.893z"/><path fill="#74665b" d="M136.624 82.629l6.848 24.898-9.519-1.672-7.02-23.226z"/><path fill="#9e8d82" d="M141.639 105.031l-2.384 21.873-18.338-3.334 13.036-17.715z"/><path fill="#5e5044" d="M136.624 123.57l24.056 24.565-17.208 1.288-22.555-25.853z"/><path fill="#8e7e73" d="M154.33 146.005l7.604 16.616-11.603 13.088-6.859-26.286z"/><path fill="#74665b" d="M136.624 123.57l17.706 22.435h15.207l-8.857-20.764-6.35-12.366z"/><path fill="#5e5044" d="M154.33 146.005l4.386 16.616 9.773-.373 1.048-9.266-3.843-10.027z"/><path fill="#5e5044" d="M165.694 142.955l20.646 3.05-9.533-20.43-16.127-.334z"/><path fill="#46382d" d="M165.694 142.955l2.795 19.293 20.057-9.266-4.47-14.137z"/><path fill="#8e7e73" d="M141.639 105.031l-5.015 18.539 17.706-3.676-2.753-20.555z"/><path fill="#5e5044" d="M136.624 82.629l5.015 22.402 8.68-1.055-2-24.35z"/><path fill="#74665b" d="M151.577 58.564l-14.953 24.065 9.016.834 8.69-12.45z"/><path fill="#5e5044" d="M147.98 37.677l3.597 20.887 9.103-17.38V29.931z"/><path fill="#ffeee9" d="M183.284 151.124l-2.534 56.916 32.069-42.692 11.372-23.73z"/><path fill="#b3889d" d="M183.284 151.124l-24.568 11.497-16.564 114.676 27.631 20.608 3.932-31.225 8.076-3.536 1.793-58.506-.592-18.475-5.227-14.456z"/><path fill="#96637c" d="M183.584 204.638l12.776-17.01 17.006-11.858 17.005-20.56 32.485 5.169-13.286 45.346-1.213 34.361-.147 2.808-2.338 12.137.997 13.52-.291 5.575-57.451 28.01-15.412-35.456zM173.715 178.171l-16.356 12.58-.565 11.71 26.198-16.298z"/><path fill="#734d60" d="M216.008 209.43l33.562-3.705 9.967-34.018-29.166-16.497-34.011 32.418 15.61 33.25z"/><path fill="#d1a1b8" d="M183.284 151.124l-25.925 39.627 25.633-4.588z"/><path fill="#b3889d" d="M196.36 187.628l19.648 21.802 17.24-36.379-2.877-17.841-18.401 11.637z"/><path fill="#734d61" d="M158.716 162.621l-29.989 45.789 27.24 11.207z"/><path fill="#ffeee9" d="M157.672 32.996L145.64 83.463l6.685 46.791 22.393 6.016 15.708 16.712 27.741-13.369 16.042-27.741 2.34-36.43-6.694-28.529-4.001-10.575-30.749-20.722-19.719-.668z"/><path fill="#efd0cb" d="M229.854 46.91l-30.237 96.212-24.899-6.852 15.207 20.388 27.821-11.212 20.808-29.563 1.337-42.446zM207.304 60.736l5.515 1.197-4.864 7.159-5.059-5.154-25.505 18.523-16.151-26.455-9.663 2.558v-7.253l17.793-2.607 7.353 4.345 7.353 1.671 4.346-5.515 12.031-.501z"/><path fill="#efd0cb" d="M212.819 88.477l-11.029 3.676v18.048l5.514-14.706zM145.64 83.463l5.803 3.89-3.169 14.546z"/><path fill="#fff5f3" d="M184.076 54.72l-6.685 27.741-7.854-1.839 7.186-27.573z"/><path fill="#cea39f" d="M177.391 82.461l-4.81 4.224-3.044-6.063zM158.007 92.942l36.931 4.01-13.87 17.046-20.388-4.345zM161.934 66.472l10.647 2.118-1.03 4.305-13.228-2.454-8.22-5.694.956-4.011zM180.551 69.35l11.308 2.736 21.229-1.073 23.461 10.198-2.177 6.125-14.8-7.71-33.232-3.664zM172.967 17.413l24.809-4.302 31.211 25.901 7.562 36.43-18.38-26.738-12.734-7.52.365-6.267-8.688-20.304-13.036 1.602-10.612 18.118-15.792-1.337z"/><path fill="#fff" d="M160.68 95.783l1.003 6.183 22.393 4.188 5.849-7.029z"/><circle cx="194.306" cy="64.341" r="3.844" fill="#2b2b2b"/><circle cx="164.57" cy="58.189" r="3.844" fill="#2b2b2b"/><path fill="#cea39f" d="M174.718 136.27l43.028 9.176L188.404 160zM227.358 90.565l14.046 27.597-12.417 7.079z"/><path fill="#5e5044" d="M188.422 49.205l3.671-4.07 11.791 4.405 3.42 11.196-8.355-9.024zM176.723 53.049l.668-3.927-12.821-2.351-6.563 3.938 10.193-1.086z"/><path opacity=".2" fill="#2b2b2b" d="M147.418 241.12l-1.469 9.892 30.037 1.392 1.959-12.318-17.558-.765z"/><path fill="#b3889d" d="M176.723 53.049l7.353 1.671-1.047 4.345-7.455-1.705z"/><path d="M197.111 54.72h-13.035l-3.525 14.63 9.059 4.237 21.714-.757 4.118-4.239-1.14-7.687-17.191-6.184zm10.844 14.372l-16.47 1.684-6.551-3.743 2.433-8.422 8.865-.047 13.22 4.165-1.497 6.363zM168.2 49.623l-18.178-.084-2.751 9.83 14.662 8.386 10.647.836 4.142-15.541-8.522-3.427zm1.386 14.79l-5.989.374-12.02-6.223 1.315-5.515 13.887-.427 4.866 2.62-2.059 9.171z" fill="#96637c"/><path fill="#734d60" d="M214.302 60.903l22.247 14.539v5.769l-25.225-8.381z"/><path fill="#8e7e73" d="M207.304 5.255l18.559-2.339 19.292 11.899-5.264 17.094z"/><path fill="#74665b" d="M245.155 14.815l7.81 15.339.304 7.523-8.506 2.672-6.2-15.206z"/><path fill="#8e7e73" d="M252.965 30.154l-7.81 7.019 4.437 16.65 16.715-10.579z"/><path fill="#74665b" d="M266.307 43.244l2.338 31.279-19.053 6.099 2.34-31.082z"/><path fill="#46382d" d="M268.645 74.523l-7.018 17.296-15.711 6.016 7.353-23.312z"/><path fill="#5e5044" d="M261.627 91.819l14.28 26.073-19.266 1.272-7.049-26.835z"/><path fill="#46382d" d="M275.907 117.892l-9.786 22.602-24.717 7.641 17.212-33.505z"/><path fill="#8e7e73" d="M266.121 140.494l-3.265 19.885-20.036 5.637 3.457-23.061z"/><path fill="#74665b" d="M207.304 5.255l31.259 19.888-5.315 13.869-21.671-12.295-13.801-15.613z"/><path fill="#5e5044" d="M232.371 31.157l6.192-6.014 13.369 24.397 1.337 24.983-13.573 5.103z"/><path fill="#74665b" d="M253.269 74.523l-3.677 17.806-13.336 2.749 8.899-20.555z"/><path fill="#46382d" d="M249.592 92.329l9.024 22.301-16.517 8.94-2.814-30.889z"/><path fill="#5e5044" d="M258.616 114.63l-12.339 28.325-23.814 16.392 22.692-41.96z"/><path fill="#74665b" d="M246.277 142.955l-3.457 23.061-9.572 7.035L224.191 160l4.388-9.917z"/><path fill="#8e7e73" d="M201.79 11.104l5.514-5.849L188.52.417l-6.22 6.615 2.952 5.2z"/><path fill="#5e5044" d="M201.79 11.104L182.3 7.033l-11.011 14.266 23.816-5.683 4.688 1.205z"/><path fill="#8e7e73" d="M182.3 7.033l-29.977 15.602-4.343 15.042 21.557-8.692zM195.105 15.616l6.685-4.512 13.034 14.037 17.547 6.016-3.384 7.855-7.645 2.172-15.542-6.267z"/><path fill="#74665b" d="M232.371 31.157l12.784 43.366-5.459 5.103-3.147-4.184-15.207-34.258z"/><path fill="#8e7e73" d="M245.155 74.523l-5.87 18.158-6.037 2.397-5.89-4.513 9.191-15.123z"/><path fill="#5e5044" d="M239.285 92.681l5.87 24.706-8.606 1.777-1.671-4.534-7.52-24.065z"/><path fill="#8e7e73" d="M234.878 114.63l-14.62 17.377-8.288 34.84 21.278 6.204-4.669-22.968 16.576-32.696z"/><path fill="#d1a1b8" d="M208.023 267.294l3.347-9.688 2.64 9.688 8.809-1.585-5.636 6.693 4.755 7.398-9.863-3.486-10.04 3.486 4.58-6.517-7.211-4.58zM153.516 265.478l-3.467-8.63 8.314 3.172 6.72-4.228-3.581 8.279 9.341 4.075-10.228 2.09-1.812 10.04-3.427-9.336-7.958-.001zM248.126 242.89l-5.878 7.869-10.14-2.992 5.583 7.396-5.583 8.63 10.175-3.911 4.551 8.667z"/><path fill="#96637c" d="M128.727 208.41l27.387 8.154 19.333 11.557-20.304 12.732-19.189.662-2.13-9.754.257-5.18-2.633-5.703z"/><path fill="#cea39f" d="M307.485 216.834l-19.571 6.489-5.34 5.119-4.726 9.604 18.539 5.657z"/><path opacity=".3" fill="#2b2b2b" d="M177.945 239.321l-1.959 13.083 14.142 1.317 23.882 13.573 21.598-14.89h12.105l.644-12.318-14.33-11.644-43.602 8.39z"/><path fill="#ffeee9" d="M156.114 216.564l-.971 24.289 22.802-.767 5.639-6.202-2.959-10.643z"/><path fill="#efd0cb" d="M180.625 223.241l17.067 5.432 2.809 13.037-7.162 5.65-15.394-7.274z"/><path fill="#cea39f" d="M197.692 228.673l23.73 5.319-10.627 10.505-17.456 2.863z"/><path fill="#cea39f" d="M180.625 223.241l21.783-7.427 3.263 3.803-7.979 9.056z"/><path fill="#74665b" d="M172.581 86.685l14.599 5.134-13.67-.251zM172.581 86.685l-3.044 4.492-10.407-3.183zM228.579 150.083l-16.609 16.764 21.278 6.204z"/><g><path fill="#636363" d="M216.008 209.43l37.805 1.724-5.456 28.932-43.782-9.906z"/><path fill="#474747" d="M249.215 215.777l8.687-7.764 17.833-6.343 6.839 17.413-34.217 21.003z"/><path fill="#f4d75d" d="M216.008 209.43l25.254-13.46 34.473 5.7-5.644 6.343-4.581-.904-16.295 8.668z"/><path fill="#e2a942" d="M225.653 204.29l20.925 3.723 3.46-18.284-24.646-2.13z"/><path fill="#bc8f2d" d="M247.299 190.751l4.231-3.152 10.863-2.484.463 14.426-16.278 8.472z"/><path fill="#f4d75d" d="M225.392 187.599l15.95-4.547 21.051 2.063-15.094 5.636z"/><path fill="#858686" d="M219.991 217.524l18.881 3.354-1.424 8.245-19.162-3.814z"/><path fill="#e2a942" d="M257.608 186.902l9.76-15.195 7.03 1.959-2.513 9.386-9.577 10.165z"/><path fill="#bc8f2d" d="M266.221 173.492l1.147-1.785h15.206l-10.689 11.345z"/><path fill="#e5c828" d="M282.574 171.707l-19.718-11.328-5.248 3.928 1.929 7.4 18.429 4.891z"/><path fill="#b58b00" d="M261.316 165.637l-11.278-10.17-21.459-5.384 2.617 24.013 28.341-2.389z"/><path fill="#e2a942" d="M228.579 150.083l21.459-15.761 12.818 26.057-1.54 5.258z"/></g><path fill="#ffeee9" d="M275.735 201.67l12.179 21.653-10.066 14.723-5.508-14.723z"/><path fill="#cea39f" d="M275.735 201.67l-10.27 5.355-5.006 25.632 17.389 5.389z"/><path fill="#d1a1b8" d="M137.187 222.402l.369-8.789-6.108 7.265 2.376 10.884 8.415 5.74-4.296-9.439 8.006-2.835z"/><path fill="#96637c" d="M220.401 365.402l-8.431 20.714 18.699 1.407 18.699-1.407-.464-15.782z"/><path fill="#d1a1b8" d="M211.97 386.116l19.374-10.219 18.024 10.219.202 5.986h-37.6z"/><path fill="#96637c" d="M154.811 366.214v11.226l-42.775 1.796 3.171-10.946 15.391-10.469z"/><path fill="#d1a1b8" d="M115.207 368.29l11.517 9.15h28.087v7.258H101.82v-7.258z"/></svg>