<svg xmlns="http://www.w3.org/2000/svg" viewBox="-152 -152 400 400"><path fill="#2b2b2b" fill-opacity=".102" d="M-15.085 236.541l75.984 10.366 71.387-10.366-72.564-8.832z"/><path fill="#56595a" d="M48.529 217.932l-3.415 3.535-13.195 12.132 30.75.824 7.183-8.126zM81.278 210.865l3.654 2.118 4.594 13.314-9.189 14.368-2.594-12.015z"/><path fill="#6d6e6e" d="M69.852 226.297l-10.366 1.412-9.897 13.549 30.748-.593z"/><path fill="#444648" d="M56.893 198.965l6.717.706 8.597 9.542-6.36 14.961-6.361 3.535-4.241-10.366z"/><path fill="#efd0cb" d="M69.617 173.755l-5.536 4.595 8.126 30.863 3.417 10.366 9.308-6.596 6.595-36.399z"/><path fill="#ffeee9" d="M72.207 209.213l-12.721 18.496 20.851 12.956 4.595-27.682z"/><path fill="#efd0cb" d="M28.621 164.213l-4.242 7.306 26.625 29.093 5.065 8.719 7.541-9.66-14.963-34.517z"/><path fill="#ffeee9" d="M51.004 200.612l-5.89 20.855 14.372 6.242 4.124-28.038z"/><path fill="#cea39f" d="M20.964 150.312l-10.719 4.594 14.134 16.613 24.268-6.365zM82.338 163.272l9.189 13.312-27.446 1.766-3.889-17.437z"/><path fill="#915976" d="M45.82 111.789l-21.087 16.373-14.488 26.744 81.282 21.678 14.137-60.672z"/><path fill="#b2849b" d="M88.231 95.886l15.075 12.25 2.358 7.776-80.931 12.25L41.461 93.41l16.142-10.131 23.086 1.417z"/><path d="M93.297 97.064c-.235.471 7.772 3.417 7.772 3.417l2.236 7.655-19.904 4.83 9.773-15.902h.123z" fill="#915976"/><path fill="#efd0cb" d="M77.63 93.297l-7.307-2.712-5.301 14.49 10.485 10.014 7.894-2.001 1.766-7.777z"/><path fill="#ffeee9" d="M67.734 86.344l15.667 26.744 17.668-12.607.354-8.836-6.125-3.414z"/><path d="M-30.634-11.549l5.889 8.481-8.716 11.545s-4.477-5.656-4.477-5.183c0 .471 3.771-15.433 3.771-15.433l3.533.473v.117z" fill="#8c709d"/><path fill="#feeee9" d="M-39.588-17.676l-1.059 1.179-4.359 20.026 6.715 2.474 2.474-2.121 3.416-14.725-.354-1.414z"/><path d="M-32.872-24.862l-7.422 5.183s5.301 5.656 4.948 6.127c-.353.471 7.304-.471 7.304-.471l1.06-6.127-5.89-4.712z" fill="#feeee9"/><path d="M-42.179-48.775l-6.243 4.83 8.952 12.958-7.422 6.48 6.245 8.01 8.246 5.654 6.126 8.01-6.951 9.307L-35.817 4l-9.189-.471 10.602 11.426s9.542-2.71 9.66-3.298c.118-.589 8.836-24.974 8.836-24.974l-26.389-35.34.118-.118zm5.065 22.265l7.304 8.01-4.239 3.651-7.422-8.128 4.357-3.533z" fill="#7e608b"/><path fill="#8c709d" d="M-16.262-4.01l4.83 2.001 5.536-6.242-34.163-46.533-6.95 4.948 25.682 34.752 1.886 8.953z"/><path fill="#efd0cb" d="M-20.974 18.255l4.242-3.535 5.3-16.729-7.539-2.827-3.417 4.242-11.899 15.431 8.601 5.303z"/><path fill="#feeee9" d="M-11.432-2.009l-9.895-13.075-4.124 3.299 3.063 11.191z"/><path fill="#915976" d="M26.383 50.415L4.118 54.774l-17.435-17.907 39.582-19.909 9.189 21.559zM95.062 44.761l5.301 13.784-5.065 29.686-53.837 5.179-15.078-42.995 6.715-7.186zM120.036 75.624l-3.182-1.412-16.491-15.667-2.943-8.365 4.944-31.337 7.189-7.421 21.674 43.588-3.178 16.138z"/><path fill="#b2849b" d="M56.775 7.298l-6.949-2.119-23.561 11.779.118 33.457 73.98 8.13 9.19-47.123-24.857-6.48z"/><path fill="#ffeee9" d="M54.421 7.651l-4.595-2.472-3.3 1.413-3.415 17.199 11.188 16.964 22.385-13.431 8.012-22.382z"/><path fill="#efd0cb" d="M95.298 88.231l35.929-33.221 13.195 25.916-45.354 20.968z"/><path fill="#ffeee9" d="M-21.798 60.781l25.916-6.007-20.85-40.054-17.555.117z"/><path fill="#3f3f3f" d="M34.983-120.399l-5.538 19.2L4-108.621l3.651-17.669z"/><path d="M90.35-45.477l2.354 4.713-6.477 36.283-5.772 4.24 4.124 5.183-26.74 17.789-24.977-39.228 25.09-7.186c3.535-20.379 14.142-81.049 13.549-82.581-.706-1.883 18.496 26.506 18.496 26.506l.353 34.281z" fill="#efd0cb"/><path fill="#cea39f" d="M38.634-4.599l19.205 27.33L73.27-3.539l-25.564-.706-4.713-12.017zM91.174-58.199l-11.426 7.068 13.078 10.249 1.529-8.246z"/><path fill="#393939" d="M78.571-94.248l-4.359 6.833 7.42 13.666 8.6 3.769 4.123 20.852 23.441-37.346-29.565-13.899z"/><path d="M90.232-125.82l22.498 9.66 5.065 29.686-18.962 14.255-17.201-1.53-7.42-13.666s-16.26-23.915-16.73-22.382c-.354 1.532 32.75-16.023 32.75-16.023z" fill="#444648"/><path fill="#4f5153" d="M71.501-132.298l4.595-3.417 36.634 19.555-38.518 28.745-8.484-20.85z"/><path fill="#56595a" d="M76.096-135.715l12.371-9.07 24.263 28.625-41.7-8.01zM58.894-143.607l-4.944-3.298-13.666-4.124-29.333 5.654 20.968 20.028z"/><path fill="#5e5f61" d="M38.752-137.481l18.851-5.301 30.864-2.003-20.497 12.134 3.06 8.481-5.302 15.905-22.146 3.651-14.02-6.127v-10.837z"/><path fill="#6d6e6e" d="M38.752-137.481l15.198-9.424 34.517 2.12L71.03-124.17z"/><path fill="#56595a" d="M-5.66-119.222l16.611-26.153 26.386 10.957-11.543 11.78-9.777 4.713z"/><path fill="#4e5052" d="M38.752-137.481l-2.71 6.831-6.48 19.909-13.545-7.184z"/><path fill="#ffeee9" d="M2.703-108.503l-9.069 21.441L.349-31.34 22.023-5.424l25.683 1.179 22.617-12.96 3.889-70.21-8.484-20.85-36.166-2.476z"/><path fill="#efd0cb" d="M9.419-73.749l6.479 2.472 5.537 4.712 1.885 4.242 2.827-4.36 6.125-5.183 2.356-1.765 12.37-3.771 12.606.471-15.787 10.719-14.136 23.091-4.475-8.718-6.598 8.718L7.415-64.797-3.304-75.046.937-76.46z"/><path d="M17.429-28.748l8.365-2.947s15.667 2.829 15.432 2.358c-.235-.473-7.892 7.184-7.892 7.184l-9.425-.588-6.598-6.007h.118z" fill="#fff"/><path fill="#a282b7" d="M18.843-29.81l-1.177.473 6.007 4.475 9.189.235 8.011-5.065-1.768-.589 5.892-.942-9.543 10.131-11.663.118-9.543-9.895z"/><path fill="#cea39f" d="M22.967-49.601l-4.359 6.48 6.833 4.477 4.24-4.477z"/><path fill="#4f5051" d="M16.605-73.042L3.294-78.108l-6.598 3.062 6.245-.353 12.957 4.122zM31.566-73.514l15.196-5.301 12.724 1.766-11.898 1.179-15.434 4.004s-.471-1.648-.588-1.53v-.118z"/><path fill="#fef4f2" d="M21.435-66.565l-2.827 23.444h11.073l-3.534-23.562z"/><path fill="#7e608b" d="M14.248-30.869l11.193-2.71 19.556 2.356-4.124 1.531-23.207.355z"/><path fill="#efd0cb" d="M63.375-46.774L51.827-34.049l9.072-1.886zM1.173-42.532l7.775 5.536-5.301 2.356z"/><path fill="#ffeee9" d="M81.632-73.749l17.201 1.53-4.478 23.091-14.607-2.003z"/><path fill="#cea19c" d="M93.41-67.153l-6.948-.706-1.413 12.133z"/><path fill="#6d6e6e" d="M7.889-108.974l8.128-8.951-5.066-27.45-28.038 24.503 11.663 9.542z"/><path fill="#656565" d="M-17.087-120.872l-4.476 22.973 11.309 3.298 17.905.235.238-14.608z"/><path fill="#656565" d="M-21.563-97.899l15.197 10.837 14.017-7.304z"/><path fill="#56595a" d="M73.506-4.716l12.838.235-1.648 9.423-16.613.473-1.648-2.239z"/><path fill="#4e5052" d="M45.585 5.179l-6.951-9.778 34.872-.117-5.423 10.131z"/><path fill="#8b8a8a" d="M53.244-4.716L48.412.467l5.067 4.83L58.074.349z"/><path d="M39.042-65.786c-.081-2.062 1.47-3.797 3.46-3.874 1.991-.077 3.669 1.532 3.748 3.594.082 2.064-1.467 3.799-3.458 3.876-1.99.078-3.671-1.532-3.75-3.596zM5.197-65.909c-.079-2.062 1.47-3.797 3.46-3.874 1.991-.077 3.669 1.532 3.75 3.594.079 2.064-1.47 3.799-3.46 3.876-1.99.077-3.668-1.532-3.75-3.596z" fill="#2b2b2b"/><path fill="none" d="M-151.5-151.5h399v399h-399z"/></svg>