<svg xmlns="http://www.w3.org/2000/svg" viewBox="-152 -152 400 400"><path fill="#46382c" d="M118.624 23.32l.117 31.219 3.885 5.301 4.48-4.006 1.291-34.281-5.414-4.948z"/><path fill="#070908" fill-opacity=".149" d="M27.206 246.907l-73.271-12.719 100.839-4.478 82.228 12.367z"/><path fill="#2b2b2b" d="M68.083 36.16l34.639 5.419.706-41.702-12.725-59.844-4.83 1.179L88.467-18.5l-4.482 2.003z"/><path fill="#d09eb5" d="M92.119 27.915l-3.888 3.651-3.535-3.18-4.713-13.431 4.713-7.775 3.884-4.121 4.011 4.121z"/><path fill="#554537" d="M109.199 43.111l-6.477-1.532-3.889-2.709-4.952-40.641 24.15-3.536-.82 16.375z"/><path fill="#4e4034" d="M115.56-3.186l2.358-4.83 4.123 2.474 6.356 27.095-9.773 1.767z"/><path fill="#552540" d="M-1.654 152.434l-16.611-7.659 5.655-5.654 11.898-4.124z"/><path fill="#c2c1c2" d="M145.128-34.875l-3.182 5.656 14.96 76.334 3.889 2.121 2.119-2.591-6.479-70.093z"/><path fill="#d09eb5" d="M137.002 189.893l-30.157 25.21.349-14.02 4.006-12.602-9.421-20.501 2.473-4.945z"/><path fill="#915976" d="M92.119 62.193l1.884 15.315 7.42 10.601 5.422-1.882 13.309-23.68-1.413-8.008-9.777-11.663-3.535 1.294-.825-6.595-4.947-6.009-3.653 4.712z"/><path fill="#feeee9" d="M-51.366 32.39l1.53 4.947 27.212-1.294-9.895-10.955z"/><path fill="#552540" d="M-27.101 57.128l-3.533 33.457 7.539-2.476 12.958-14.132-11.19-15.432z"/><path fill="#6f4258" d="M-1.183 56.422l-3.888 4.242-.706 18.378-7.658 7.891 1.65 4.241 16.374 3.889 8.128-6.596-2.472-24.979-4.242-3.177z"/><path fill="#915976" d="M19.314 32.981L6.003 60.311l2.592 26.151v9.542l4.241-4.712 8.717-52.54z"/><path fill="#cea19c" d="M-29.575 48.059l2.474 9.069 12.016 17.202 4.948-.353 1.415-17.555-2.357-5.889z"/><path fill="#8b8a8a" d="M-39.353 34.748l23.798 1.883-.707 9.66-4.006 7.895-9.307-6.127-8.598-2.474-5.066-6.833z"/><path fill="#c2c1c2" d="M-11.079 50.533l-4.476-13.902-4.713 17.555z"/><path fill="#6d6e6e" d="M-42.179 51.356l3.653-2.12-.353 3.415-2.592 10.253-7.539 2.472-6.716-3.183-2.238-2.588 3.886-.24 5.421 2.122 4.357-1.176-2.592-6.718z"/><path fill="#6d6e6e" d="M-58.082 39.223l18.729-4.475-1.294 7.655 1.885 8.836-8.13 2.354-9.304-6.948z"/><path d="M-53.017 44.17l.942 2.945-28.39 48.183-4.006 2.472-2.356-2.707c8.483-16.613 17.082-33.222 25.565-49.948l8.245-1.179v.234z" fill="#9c9fa0"/><path fill="#eecec9" d="M-52.663 56.422l8.363 3.889 2.121-8.955-5.772-2.12-4.477 1.885z"/><path fill="#c2c1c2" d="M-67.389 38.046l-2.473 4.712 3.062.824 1.414-2.474 5.655 1.415-1.413 2.827 4.71 4.359 3.417-5.539-5.065-4.947z"/><path fill="#eecec9" d="M-40.647 42.403l-1.532 8.953 15.078 5.772 1.533-12.958z"/><path fill="#6f4258" d="M111.082 122.512l-2.589 4.238-6.478 4.358-30.868-17.079-6.595-8.13-1.648-28.269 2.589-2.829 8.597 2.829 13.671 13.662 3.296 10.248z"/><path fill="#552540" d="M108.258 141.711l-4.006-1.766-3.536-6.831.235-4.007 10.131-6.595z"/><path fill="#6d6e6e" d="M162.914 80.102l-4.002 1.886-.235 12.956 6.831 1.06 3.77-5.654-3.418-6.6z"/><path fill="#552540" d="M150.076 80.337l-5.89 26.269-5.3-5.89-7.185-21.674 16.845-2.476z"/><path fill="#cea19c" d="M137.822 73.977l-.47 7.772 14.49-1.647 2.828-6.125-9.424-3.654z"/><path fill="#feeee9" d="M69.024 27.56l-27.68 1.532-2.945 4.242.706 14.017 6.951 7.188-4.006 9.071 3.535 4.708h5.065l5.066-1.53 14.372-34.869z"/><path fill="#eecec9" d="M35.689 83.401h-2.944l-2.947 2.472 4.124 20.497 4.83-.118 4.712-12.484z"/><path fill="#8b8a8a" d="M77.63 237.252l4.708-1.766 19.441-.236 5.415 2.002v4.825H77.63zM-28.631 229.357l6.833-1.765 31.805-.236 4.713 2.001v4.831h-43.351z"/><path fill="#5e5e5f" d="M-5.777 213.337l-22.854 16.02H14.72v-10.955l-2.357-4.712-12.014-4.006zM80.572 221.58l-2.942 15.672h29.564l-9.425-19.203-6.006-2.946-8.013 1.769z"/><path fill="#6d6e6e" d="M-6.013 200.377l.236 12.96 20.497 5.065 5.773-15.906-2.947-3.179-19.79-1.53zM72.207 204.03l8.365 17.55 17.197-3.531.942-16.373-4.119-3.535-18.379 2.593z"/><path fill="#745382" d="M-5.777 171.161L4 172.225l18.967 7.301 6.714-1.176 9.895-23.327-2.239-5.418-29.331-16.138-12.251 2.236zM41.697 148.898l-2.121 6.125 17.905 25.209 6.129 1.417 18.378-7.894v-32.158l-9.659-17.201-3.418 2.475z"/><path fill="#8b8a8a" d="M103.541 200.734l-15.432 2.825-6.121-3.653-7.423-22.973 2.354-5.414 5.069-.71 17.669 7.894 6.124 18.021z"/><path fill="#915976" d="M106.845 215.103l-9.189-34.16 4.123-4.359 6.714 3.648 5.89 8.249zM135.586 151.018l-11.897.352-8.954 7.659 28.388 19.791z"/><path fill="#d09eb5" d="M108.258 141.711l27.328 9.307-31.334 12.017-1.766-15.902z"/><path fill="#915976" d="M79.277 122.276l6.713 11.191 10.367 24.032 7.895 5.536 4.006-21.324-15.789-26.976-4.595.119-6.478 2.942z"/><path fill="#b2849b" d="M70.206 107.08l22.263 7.655-13.192 7.541-3.535-.706-4.241-3.303z"/><path fill="#4e325e" d="M70.795 129.696l-31.219 25.327-31.334-18.849 3.062-3.06 54.307-5.301z"/><path fill="#8b8a8a" d="M7.415 112.853l-3.533 6.477-1.414 13.313 3.418 3.653 11.543-.593 5.538-10.955-6.48-12.367zM43.464 110.73l-5.065 12.96 8.481 9.895 23.561-3.889 1.888-3.06-9.311-17.437z"/><path fill="#d09eb5" d="M20.493 53.122l-5.42 16.613-6.478 26.269-3.653 14.372 28.98-4.006 2.473-2.472-3.65-20.497-5.065-8.6 2.473-9.778zM69.024 27.56l-2.471 5.067-13.544 35.927-13.078 7.659.588 18.143-4.124 9.542 2.357 2.354 24.266 2.947 7.188-2.119-5.536-7.541 3.413-8.012-2.59-16.726 4.595-4.83 2.825-35.931z"/><path fill="#745382" d="M7.769 107.787l-2.472 3.295 1.883 5.773 6.951-.707 32.513-2.947 14.491-1.055 6.835-1.064 2.236-4.002-33.811-3.182-15.667 2.119z"/><path fill="#8b8a8a" d="M68.083 91.527l2.123 15.553L43.7 96.828l4.241-5.889 7.069-4.949zM32.745 83.401l2.474-7.894 12.251-.706 4.833 8.365-4.597 8.008-7.187 3.182z"/><path fill="#c2c1c2" d="M55.01 85.99l-2.707-2.824-11.784 11.19 3.181 2.472z"/><path fill="#6f4258" d="M8.595 86.462l4.83-2.119 5.065-8.601 3.886-16.491 3.889-2.005 2.709-9.305-.235-12.722-3.651-3.3-5.774 1.062z"/><path fill="#8b8a8a" d="M25.088 31.919L25.441 49l8.952 3.773 9.189-7.07-1.65-16.729z"/><path fill="#dddddc" d="M23.909 75.036l8.836 8.365 7.186-7.188 9.305 1.652 3.773-9.311-6.953-8.597 1.532-10.248-4.006-4.006-9.307 3.651-8.834-2.828-3.065 12.725 3.771 6.478z"/><path fill="#8b8a8a" d="M26.147 54.539l3.298 20.968 15.552-4.477-3.653-19.791-4.949 1.06-1.767 2.475-2.591-1.417z"/><path fill="#c2c1c2" d="M32.627 58.78l-.59-5.423 4.358-1.058 1.18 5.775z"/><path fill="#6f4258" d="M99.657 31.566L69.024 27.56l-2.471 5.067-1.06 42.174 25.564 26.739 2.946-24.032zM135.468 57.011l-16.727-2.472-17.318 33.57 25.213 10.131 3.884-4.002-3.535-14.49 8.247-15.078z"/><path fill="#915976" d="M144.186 106.606l-6.834-24.857-5.772-4.591-9.774 3.061 5.885 22.851z"/><path fill="#b2849b" d="M121.806 80.219l15.546 1.53 7.894-11.426 1.529-8.836-2.824-3.299-8.483-1.177z"/><path fill="#feeee9" d="M152.198 57.604l-2.594-1.182-5.653 1.766.117 14.96 6.596 1.064 4.359-9.896z"/><path fill="#eecec9" d="M152.198 57.604l-2.122 22.733 15.784 3.413 4.36-8.126-1.884-22.144h-9.307z"/><path fill="#cea19c" d="M174.108 78.336l-8.248 5.414-2.118-26.975 4.594-3.295 8.361 6.477 1.064 13.314z"/><path fill="#8b8a8a" d="M143.951 58.188l27.916-1.883 4.83 3.652 3.535-4.241-17.318-9.071-6.008.47z"/><path fill="#9c9fa0" d="M180.232 55.716l-8.365.589 2.594 31.804 3.3 1.064 4.944-2.24z"/><path fill="#8b8a8a" d="M158.677 94.944l15.784-6.835 8.244-1.176-16.487 15.196z"/><path fill="#9c9fa0" d="M-5.777 171.161l-3.889 27.45 10.368 4.948 3.18-5.301 3.416-24.032-2.945-6.007z"/><path fill="#8b8a8a" d="M29.681 178.35L4.353 168.219l-3.651 35.34 28.39-.588z"/><path fill="#9c9fa0" d="M57.481 180.232l7.541 24.034 23.087-.707-11.19-32.04z"/><path fill="#dddddc" d="M20.728 106.017l-4.241 9.895 3.416 9.072-2.474 10.719 7.894 8.013 6.831-5.423 8.601 3.889 6.125-8.597-5.419-9.895 2.239-10.253-7.305-9.539-7.186 6.361z"/><path fill="#8b8a8a" d="M21.906 116.501l14.725-1.412 2.474 19.084-15.432 1.059-.706-7.655 1.295-2.24-1.768-2.354z"/><path fill="#c2c1c2" d="M27.442 122.391l-4.948.592.473 4.594 5.183-.121z"/><path fill="#b2849b" d="M77.978 144.187l2.005-7.185 6.007-3.535 6.836 1.059 21.557 53.955-37.464-16.962z"/><path fill="#d09eb5" d="M70.206 107.08l-9.071 5.066 16.843 32.041 14.848-9.661z"/><path fill="#915976" d="M-30.634 90.585l15.432-15.784 5.065-.824 7.186 4.002 1.062 3.653-14.373 14.018z"/><path fill="#b2849b" d="M-11.079 50.533l-4.123 24.268 13.313 6.831.706-25.21z"/><path fill="#6f4258" d="M18.49 75.742L8.242 136.174l-26.977 8.719 27.33-58.431z"/><path fill="#554537" d="M1.409 38.046l-3.416 14.605 8.246-.235z"/><path fill="#a282b7" d="M.112 28.856l-3.769 5.419 5.066 3.771 3.888-4.83z"/><path fill="#d09eb5" d="M3.412 24.262l-3.3 4.594-4.593-2.708-1.532-18.615 3.886-4.947 4.922 4.785-.092 7.821z"/><path fill="#a282b7" d="M-3.657-7.192l-4.124 5.421 5.654 4.357 3.536-5.419z"/><path fill="#46382c" d="M-6.131-67.624l-2.591 27.918.941 29.216 4.124 3.298 4.359-4.004 2.71-6.598L.82-59.261z"/><path fill="#cea19c" d="M30.389 17.193l5.065 13.431 8.128 15.079 22.971-13.076 4.006-3.535 4.948-22.147-14.843 6.951-26.507-1.533z"/><path fill="#eecec9" d="M72.913-57.14l-7.066 6.48L56.54 9.654l4.477 4.124 10.366 2.12-4.83 16.729 7.659-4.359 8.013-17.081-4.595-63.968z"/><path fill="#feeee9" d="M3.412-64.68l-6.598 3.771-.471 53.717L4.725 6.886l3.281 4.301 45.822 2.356 5.82-3.745 8.435-15.34 4.83-51.598-10.131-5.419z"/><path fill="#46382c" d="M21.317 12.363l-5.065 3.771 6.007 16.373 5.656-15.431z"/><path fill="#46382c" d="M34.157 12.363l7.187 5.657-6.125 12.133-7.304-13.077z"/><path fill="#554537" d="M4.725 6.886L60.996 9.87l3.434 2.258-10.777 7.032-44.682-3.51z"/><path fill="#46382c" d="M77.63-5.542L59.648 9.798l-5.995 9.362 16.435 1.183z"/><path fill="#554537" d="M20.493 52.416l-2.709-11.543 4.475-8.366 3.064 8.013zM31.33 38.046l3.889-7.893 4.239 8.011-5.183 11.19z"/><path fill="#eecec9" d="M2.468-47.127l9.66 5.774 6.127 20.026 5.183-11.899-1.297-7.421-.353-3.415-9.189-7.069zM30.389-40.529l-2.356 6.715 5.065 12.487 10.249-18.379 13.781-6.95-10.955-3.651-14.489 6.362z"/><path fill="#46382c" d="M11.304-52.545l-8.836 5.418 8.6-1.883 10.72 4.948-.706-4.478zM33.216-48.54l-1.65 4.948 16.728-4.948 9.309 2.001-9.662-6.006z"/><path fill="#cea19c" d="M26.147-15.673l-7.892-5.654 6.951-2.944 7.892 2.944z"/><path fill="#fef4f2" d="M22.141-40.647l8.248.118 2.709 19.202H18.255z"/><path fill="#cea19c" d="M19.079-.948h14.843l3.77-4.123-1.061-2.121-2.238.708-2.356 2.474H19.079z"/><path fill="#554537" d="M11.304-6.837l.589 5.301 14.725-8.483 18.967 8.483.353-5.656-19.791-8.481zM-8.134 69.382l-3.18 7.302 6.596 3.418 1.885-8.248-2.827-3.178zM-16.97 29.681l-.942 6.715 4.007 5.065 3.062-11.543-2.827-1.885z"/><path fill="#46382c" d="M-9.311 25.323l-1.532 4.595 2.709 39.464 5.301 2.472-1.648-45.706z"/><path fill="#554537" d="M-12.729-19.56l8.248 45.708-6.362 3.77-2.827-1.885-2.709-26.624zM-18.5-20.268l2.121 21.677-.591 28.272-10.248-40.642-2.827-16.493 5.891 4.006z"/><path fill="#46382c" d="M-17.44-22.388l-4.123 3.77 4.593 48.299 6.127.237-1.886-49.478z"/><path fill="#46382c" d="M-34.876-28.395l5.066-1.06 2.12 6.478 10.72 52.658z"/><path fill="#554537" d="M-5.189-88.592l-5.183 2.709-24.504 57.488 7.186 5.418 11.193-22.735 14.135-39.582z"/><path fill="#46382c" d="M-27.69-22.977l6.127 4.359 11.073-24.503 6.127-42.291zM88.109-56.787l6.483 24.386-1.653 20.261-3.648 4.359-4.595-1.648-4.359-4.83-2.707-38.522.706-6.007 5.414-2.121z"/><path fill="#554537" d="M76.566-60.32l-3.653 3.18L77.63-5.542l3.413.471 3.653-4.358-4.713-47.711z"/><path fill="#46382c" d="M84.696 28.386V-9.429L77.63-5.542l1.29 32.278 3.305 1.885z"/><path fill="#554537" d="M77.158 56.775l7.655-28.272-5.893-1.767-6.242 31.452 3.181 3.418z"/><path fill="#46382c" d="M73.148 69.024l-.47-10.836 4.48-1.413 3.65 10.602z"/><path fill="#a282b7" d="M88.58 3.059l-4.002-5.774 4.713-5.066 4.59 6.01zM87.761 41.697l-3.776-4.83 4.246-5.301 4.83 6.48z"/><path fill="#46382c" d="M87.761 41.697l.819 11.076 6.718-1.298z"/><path fill="#554537" d="M91.884-61.499l-3.775 4.712 4.83 44.647.942 10.369 10.253 4.83 6.36-3.182-5.771-32.043-6.483-25.916z"/><path fill="#46382c" d="M100.01-59.85l-3.653 3.416 9.424 54.663 9.779-1.415 2.236-3.18-6.007-27.448-6.243-24.15z"/><path fill="#554537" d="M107.194-59.85l-3.296 3.771L115.56-3.186l6.481-2.356-3.064-32.042-5.183-19.909z"/><path fill="#46382c" d="M113.323-58.788l-1.534 3.062 10.252 50.184 5.065-14.137-10.723-35.811z"/><path fill="#554537" d="M99.185 59.722l5.419-22.147 4.36 5.301-5.772 17.435-1.652 2.593z"/><path fill="#46382c" d="M95.062 68.44l4.123-8.718 4.007.589-1.413 11.19zM105.31-3.657l-1.647 11.781.706 30.04 11.191-41.35z"/><path fill="#554537" d="M105.31-3.657l-7.541 2.474 6.835 38.758z"/><path fill="#552540" d="M153.847-81.644l-39.582 14.726-9.072-7.539 9.66-17.788 23.205 3.653z"/><path fill="#a282b7" d="M70.441-96.133l36.283 3.182 4.123 8.128 5.536 29.333-119.569-5.419-2.945-6.715 4.948-17.553 14.255-7.068 6.242 1.177 5.065 9.543z"/><path fill="#554537" d="M.349-88.592l-4.712 3.18-17.2 66.794 8.834-.942L3.412-84.823z"/><path fill="#6f4258" d="M-25.804-126.644l-16.14 27.213 31.572 13.548 1.061-11.31-8.836-21.794z"/><path fill="#915976" d="M9.772-144.314l-35.576 17.67 15.432 40.761 27.565 2.121 2.121-7.306-11.545-12.487 11.192-19.318.353-11.31z"/><path fill="#d09eb5" d="M46.409-149.379l-27.095 15.196-1.059 29.333 8.716-1.179 4.595-14.017 28.156-24.974z"/><path fill="#915976" d="M134.173-116.277l19.674 34.633-43-3.179-4.123-8.128 20.732-21.088z"/><path fill="#6f4258" d="M69.382-89.065l-3.535-2.827 5.536-49.359 6.718-9.778 56.072 34.752-23.326 31.454z"/><path fill="#915976" d="M31.095-135.833l47.006-15.196-8.719 61.964-9.66-2.238-28.156-28.743z"/><path fill="#552540" d="M1.879-102.729l17.435-31.454 5.065 18.376-6.124 10.957z"/><path fill="#6f4258" d="M31.095-135.833l38.287 46.768-48.065 14.019-19.438-27.683 22.5-13.078z"/><path fill="#8b8a8a" d="M-84.47 98.005l31.453-53.835 5.066 5.066-32.042 49.475z"/><path fill="#070908" fill-opacity=".149" d="M11.186 73.619l7.304 2.123-9.895 10.72-4.006 8.601-16.374-3.889 9.896-9.542 10.484 4.83zM69.382-89.065l47.001 33.575-5.536-29.333zM70.441 129.696l7.537 14.491-1.059 27.332 23.68 20.375-2.943-10.951-20.737-9.424zM-4.954 150.899l13.196-14.725-12.605 4.124zM94.003 77.508l-28.51-2.707 25.564 26.739 2.946-24.032 27.803 2.711 4.83 18.021-25.213-10.131z"/><path fill="#dddddc" d="M141.946-29.219l14.489 5.771-19.791-32.395z"/><path d="M11.893-42.886c1.952 0 3.535 1.688 3.535 3.771 0 2.08-1.583 3.769-3.535 3.769-1.952 0-3.533-1.689-3.533-3.769-.001-2.082 1.58-3.771 3.533-3.771zM43.347-42.061c1.952 0 3.533 1.688 3.533 3.77s-1.581 3.769-3.533 3.769c-1.953 0-3.533-1.687-3.533-3.769s1.58-3.77 3.533-3.77z" fill="#2b2b2b"/><path fill="none" d="M-151.5-151.5h399v399h-399z"/></svg>