<svg xmlns="http://www.w3.org/2000/svg" viewBox="0 0 400 400"><g fill-rule="evenodd" clip-rule="evenodd"><path opacity=".1" fill="#33302d" d="M214.4 400.106l79.986-10.095-157.289-18.378-67.425 10.098z"/><path fill="#8a8785" d="M85.669 310.977l-1.941 3.881 4.502 62.654 2.873 3.059 5.695-.91-1.462-64.848-3.843-3.836z"/><path fill="#b2aeae" d="M161.969 310.012l-4.337 4.388 6.779 55.739 7.242-3.235-1.337-56.317-3.384-1.556zM83.536 379.654l-11.069-80.327 17.086.39 41.92 5.731.391 72.449-3.097 7.234-7.756-.94-4.667-66.614-29.51-3.883 4.269 66.877z"/><path fill="#948f8e" d="M134.205 303.211l-5.463 4.477.025 77.443 7.465-2.084 4.962-65.47 25.525-4.934 2.351 53.466 2.583.795 4.753-5.206.899-61.205-11.758-1.365z"/><path fill="#d6d4d3" d="M72.467 299.327l56.275 8.361 48.563-7.195-12.181-4.393-72.66.316z"/><path fill="#784e7f" d="M96.758 254.227l1.164 3.494 4.764-2.15.503-1.015-.437-.942z"/><path fill="#926e9d" d="M116.299 255.224l-13.547-1.61-.066 1.957 10.848 1.896 3.562-.804z"/><path fill="#f0f2f2" d="M125.857 230.407l-2.119 24.889-.712 4.233 9.037-.026 17.12-4.097.987-2.085 7.369-23.194z"/><path fill="#926e9d" d="M125.68 257.451l-1.941-2.155-3.512 1.32-4.272 3.883 8.557.645z"/><path fill="#784e7f" d="M121.328 261.012l4.352-3.561 11.035-.02.014 1.32-4.028 2.733z"/><path fill="#ac86ba" d="M116.299 255.224l-12.964 10.522 1.678 2.736 28.017.302 15.462-6.599 2.127-5.337-2.6-1.545-6.652.055-9.304 4.145-13.018.04 5.23-4.245z"/><path fill="#926e9d" d="M101.548 272.87l1.789-7.124 30.331.194 2.542 2.139-1.204 6.419-4.823 2.829-27.19-2.263z"/><path fill="#784e7f" d="M147.255 259.378l-13.587 6.562-2.012 8.984 2.933 2.473 18.637-2.43 1.701-3.002-1.026-8.744z"/><path fill="#926e9d" d="M122.421 293.299l-3.837-3.327 7.9-12.964 5.172-2.084 23.271-2.959 7.454 13-3.078 3.372z"/><path fill="#ac86ba" d="M91.91 286.879l9.638-14.011 30.108 2.056-9.477 15.465-2.986 1.998-25.119-2.43z"/><path fill="#926e9d" d="M91.91 286.879l30.269 3.51 3.237 3.183.486 4.984-2.787 3.061-30.651-5.201z"/><path fill="#784e7f" d="M162.759 285.026l-40.58 5.363.936 11.228 42.009-5.517 1.503-5.897z"/><path d="M129.339 250.172l16.91.291-.263 1.292-16.727-.288.08-1.295zm.186-3.02l17.339.288-.263 1.293-17.156-.285.08-1.296zm.39-6.312l18.232.304-.163 1.239-18.149-.247.08-1.296zm.213-3.445l14.058.22 1.179.705-.312.689-15.005-.318.08-1.296zm-.399 6.463l17.803.309-.263 1.292-17.62-.305.08-1.296z" fill="#d6d4d3"/><path d="M102.993 275.064l-1.394 2.136 2.348.204 1.448-2.14-2.402-.2zm2.719 2.491l2.434.211 1.458-2.154-2.44-.201-1.452 2.144zm4.197.363l2.435.211 1.469-2.17-2.44-.201-1.464 2.16zm4.198.364l2.435.209 1.48-2.185-2.44-.201-1.475 2.177zm4.198.363l2.434.211 1.49-2.201-2.44-.2-1.484 2.19zm4.198.364l2.616.226 1.365-2.229-2.487-.204-1.494 2.207zm-21.866-.335l-1.582 2.424 2.26.194 1.637-2.417-2.315-.201zm2.441 2.771l2.434.21 1.637-2.417-2.434-.211-1.637 2.418zm4.197.364l2.434.211 1.637-2.419-2.434-.211-1.637 2.419zm4.199.362l2.434.211 1.637-2.417-2.434-.211-1.637 2.417zm4.198.364l2.434.211 1.637-2.418-2.434-.211-1.637 2.418zm4.198.362l2.854.248 1.49-2.432-2.707-.234-1.637 2.418zm-21.778-.326l-1.312 2.007 2.146.24 1.392-2.054-2.226-.193zm2.57 2.442l2.396.268 1.458-2.154-2.434-.209-1.42 2.095zm4.131.464l6.526.73 1.592-2.353-6.632-.574-1.486 2.197zm8.262.924l2.395.268 1.66-2.453-2.434-.211-1.621 2.396zm4.129.463l3.052.341 1.581-2.579-2.944-.256-1.689 2.494z" fill="#784e7f"/><path fill="#d4a8a2" d="M194.288 136.905l-2.585 4.365 8.531 14.785 3.673 6.401 9.781 6.908 11.536.334 18.334-8.313 4.452-24.027z"/><path fill="#f2d6d2" d="M248.834 159.185l2.743-5.849 20.728-43.403-3.666-30.414-21.108-12.481-4.797 3.629-4.875 50.773-23.61 15.634-1.735 5.275 28.621 15.647z"/><path fill="#784e7f" d="M277.69 231.491l25.663 25.13-.436-8.543-19.454-38.472zM289.599 181.802l5.559-2.235 35.171 53.757-6.09-.776-32.014-29.17-6.711-12.766z"/><path fill="#926e9d" d="M330.329 233.324l-27.392-24.539-4.677.093-8.831 9.691-.091 9.813 14.015 28.239z"/><path fill="#ac86ba" d="M257.233 161.103l-.436 6.212-6.687 11.651-7.67-12.427-1.305-8.543 10.442-4.66z"/><path fill="#926e9d" d="M273.177 168.865l-15.944-7.762-6.962 12.814-.436 13.589 5.879 9.625 20.11-22.87z"/><path fill="#4b4949" d="M154.442 386.76h42.347v-7.999l-5.775-3.033-26.785.036-9.787 2.997z"/><path fill="#646060" d="M174.381 361.517l-19.939 17.244h42.347v-15.549l-3.273-3.818-10.779-.848z"/><path fill="#4b4949" d="M248.059 391.518h34.41v-7.999l-4.692-3.034-23.642-.435-6.076 3.469z"/><path fill="#646060" d="M251.577 367.046l-3.518 16.473h34.41l-7.833-17.32-6.522-4.606-9.446.425z"/><path fill="#b9879e" d="M185.441 289.832l-4.133 65.997 3.899 6.506 11.581.877 20.037-54.768-4.198-10.334-20.926-13.964zM235.024 287.25l-3.674 7.753 26.318 68.225 6.893 3.34 10.075-.369 1.729-76.229-5.21-3.451z"/><path fill="#985674" d="M162.382 284.965l4.35-3.106 24.969 2.287-6.494 78.189-10.827-.818zM235.024 287.25l29.537 79.318-12.984.478-36.985-62.365 1.564-6.351z"/><path fill="#764056" d="M209.482 271.419l-17.781 12.727-.511 5.45 25.635 18.848 19.959-16.466-1.76-4.728z"/><path d="M271.989 155.95l1.189 12.915 2.646 5.396 13.775 7.541 5.559-2.235 8.898-6.864-4.566-6.497-19.808-10.539c-.001 0-7.667.562-7.693.283z" fill="#c49212"/><path fill="#e5a91f" d="M271.989 155.95l32.066 16.752 5.844-13.331-21.218-7.737z"/><path fill="#e7c800" d="M281.825 142.837l-9.836 13.113 37.91 3.421-13.786-12.399z"/><path fill="#e5a91f" d="M298.125 141.821l-16.3 1.016 28.074 16.534-6.35-13.043-1.473-3.701z"/><path fill="#c49212" d="M297.556 134.594l.569 7.227 5.424 4.507 6.471-3.623-3.758-6.95z"/><path fill="#e7c800" d="M302.297 126.91l-4.741 7.684 12.464 8.111 6.21-8.003-4.621-8.98z"/><path fill="#e5a91f" d="M270.263 176.682l2.914-7.817 21.981 10.702-6.268 10.24z"/><path fill="#f0f2f2" d="M302.937 208.785l-8.721-8.465-10.753 9.286-.09 6.752 5.73 11.547z"/><path fill="#926e9d" d="M143.907 237.692l19.783 22.754 5.613-4.64 1.417-25.594-5.157-4.88-12.101 4.303z"/><path fill="#784e7f" d="M168.473 170.81l-24.566 66.882 26.813-7.48 1.389-53.768z"/><path fill="#ac86ba" d="M194.621 163.392l-26.148 7.418-6.091 114.155 28.808 4.631 24.709-17.83.89-40.914-37.004-40.628 13.924-18.637z"/><path fill="#926e9d" d="M230.319 216.051l-19.084 19.614-2.006 40.912 27.555 15.401 39.581-2.008 1.325-58.479-37.842-20.614z"/><path fill="#512f5a" d="M205.337 245.848l5.144 5.198 5.34-4.643-4.864-5.064zM204.276 265.85l5.206 5.567 5.327-4.553-4.851-5.152z"/><path fill="#e5e4e4" d="M191.098 183.623l19.579-9.706 12.618.776 17.84 12.813-14.359 28.345-15.541 19.814-11-20.201z"/><path fill="#f0f2f2" d="M210.677 173.917l-4.452 52.546 5.01 9.202 6.959-8.871 4.759-52.122z"/><path fill="#926e9d" d="M173.694 189.836l14.359-17.861 9.353 5.437-.652 7.764 14.481 50.489z"/><path fill="#ac86ba" d="M238.524 178.963l-2.61 8.932-24.679 47.77 28.613-24.788 12.164-3.956 7.61-9.23-6.629-12.167-2.722-11.607z"/><path fill="#764056" d="M188.053 171.975l8.701 13.201 13.614-7.599 3.354-5.99-11.747-3.107zM220.102 171.563l2.531 6.619 13.281 9.713 14.357-13.978-15.663-5.048z"/><path fill="#985674" d="M200.235 156.055l-12.182 15.92 25.669-.388-1.739-6.602zM220.102 171.563l4.064-6.189 16.969-7.378 9.136 15.921z"/><path fill="#b9879e" d="M211.983 164.985l-1.615 12.592 12.265.605 1.533-12.808z"/><path fill="#d4a8a2" d="M260.961 96.527l11.344 13.406 6.403-13.406-9.1-3.225z"/><path fill="#646060" d="M245.612 40.27l-1.919 22.684 3.838 4.084 14.526 19.167 19.141-15.731 3.706-38.786-12.43-1.852-18.708 3.176z"/><path d="M263.36 71.121s-2.16 26.002-2.398 25.407c-.236-.597 17.747 0 17.747 0l2.489-26.054-17.838.647z" fill="#fef2f0"/><path fill="#d4a8a2" d="M268.963 77.03l-1.406 10.793 8.085-10.817z"/><path fill="#74716f" d="M159.75 36.188l9.594 2.268 11.991-7.259.96-14.065-11.992-4.536z"/><path fill="#646060" d="M188.051-.106l-17.748 12.702 11.032 18.601 9.115-1.815 4.317-18.147zM215.872 12.596L231.221-.106l26.383 6.804-7.674 13.611-19.187 10.434-20.627-.454z"/><path fill="#74716f" d="M192.848 33.919l-2.398-4.537-2.399-29.488h43.17l-21.105 30.395-7.196 3.176zM245.612 40.27l-14.869-9.527 6.234-9.074 20.627-14.971 27.3 24.99z"/><path fill="#fef2f0" d="M158.311 125.109l19.188 15.425 35.015 1.815 30.22-17.694 8.093-85.584-13.85-17.402-26.861 8.62-19.666-.907-13.73-5.968-16.97 12.774z"/><path fill="#f2d6d2" d="M169.824 124.201l4.03 13.403 3.645 2.93zM219.23 125.563l-6.716 16.786 3.302-1.933zM168.529 74.834l2.973-4.216 12.882.42 4.952 2.39 2.546 4.416-.565 11.046-7.43 9.839-3.964-17.804zM208.657 71.554l-5.451 1.406-3.722 5.104-2.222 9.889 3.963 10.308 13.376-16.867 13.44-4.237-2.48-5.603z"/><path fill="#f2d6d2" d="M174.474 113.723l4.459-9.371 4.954-5.623-8.422 4.218z"/><path fill="#d4a8a2" d="M181.41 114.245l-.991 2.811 14.614 2.577 19.796-6.482.763-1.717-.991-1.406-19.816 6.559z"/><path fill="#f2d6d2" d="M218.403 107.555l-17.178-9.294 13.376 11.767.991 12.598z"/><path fill="#d4a8a2" d="M193.46 106.039l-9.573-7.31 8.421-2.811 8.917 2.343z"/><path fill="#fef8f8" d="M191.882 77.844l7.602.22 1.741 20.197-17.338.468z"/><path fill="#403d3b" d="M170.511 69.211l-4.459 4.217 2.477 1.406 3.468-2.577 17.339 1.171-1.982-3.747zM205.188 69.211l-1.982 3.749 22.044.703 2.791 3.494 3.402-1.21-5.327-6.274z"/><path d="M179.474 76.969c1.915.023 3.448 1.509 3.424 3.32-.025 1.812-1.597 3.262-3.511 3.238-1.916-.023-3.449-1.51-3.424-3.321.024-1.81 1.596-3.26 3.511-3.237zM214.317 77.386c1.914.023 3.447 1.51 3.423 3.321-.022 1.811-1.596 3.261-3.511 3.238-1.916-.023-3.447-1.509-3.425-3.321.025-1.811 1.598-3.261 3.513-3.238z" fill="#33302d"/><path fill="#f2d6d2" d="M198.749 59.372l-2.478 12.417 3.213 6.275-6.185-5.338zM294.216 200.32l-10.843 16.038-3.985-1.359-5.576-8.265-1.412-7.212-2.114-6.968 4.11-8.318 8.612-6.042zM252.993 185.524l9.478-5.147 1.724 10.235-5.155 7.983-2.243 2.89-1.083-4.354z"/><path fill="#fef2f0" d="M263.325 175.857l19.683 2.337-10.608 21.328-6.466 2.74-6.894-3.667z"/><path fill="#e7c800" d="M239.848 210.877l15.866-13.746 16.686 2.391 1.411 7.214-9.153 6.129-7.425 1.821-10.877-.388z"/><path fill="#e5a91f" d="M264.969 219.336l-.311-6.471 7.742-13.343 10.973 16.836-5.683 15.133-7.05-4.433z"/><path fill="#c49212" d="M253.752 228.665l-13.904-17.788 24.81 1.988 13.032 18.626z"/><path fill="#f2d6d2" d="M181.657 49.296l15.558 1.405 27.485-2.342-26.966 3.748z"/><path opacity=".1" fill="#33302d" d="M277.077 258.506l.613-27.015-23.938-2.826z"/><path d="M150.524 263.221c-1.865 0-3.378-2.307-3.378-5.151 0-2.846 1.513-5.152 3.378-5.152h3.377v10.303h-3.377z" fill="#926e9d"/><path d="M153.902 263.221c1.86 0 3.377-2.315 3.377-5.151 0-2.839-1.517-5.154-3.377-5.154-1.861 0-3.378 2.316-3.378 5.154 0 2.836 1.517 5.151 3.378 5.151z" fill="#ac86ba"/></g></svg>