<svg xmlns="http://www.w3.org/2000/svg" viewBox="-90.897 -48.44 400 400"><path fill="#9da1a2" d="M-3.008 295.14l-20.511-2.247 23.041-19.39 31.468 2.25 13.207-7.587 26.693-15.453 15.735-28.943 49.734 26.693 72.773 49.453-50.857 1.407-138.242-2.53z"/><path fill="#8d9192" d="M-3.008 295.14l-20.511-2.247 23.041-19.39 31.468 2.25zM147.317 256.367l61.815 43.549-78.394-38.212z"/><path fill="#eaeceb" d="M20.033 218.994l-44.958 28.942 8.712 8.431-14.611 14.609 33.998-1.123 24.165-26.693 1.966-9.553-3.091-11.24z"/><path fill="#c4c4c4" d="M29.305 233.607l1.685-8.711-4.776-2.529-7.305 5.056 5.901 8.43z"/><path fill="#dddddc" d="M-30.824 270.976l-3.654 13.207 10.959 8.71 54.509-17.14 5.902-20.512-9.553-12.081-32.875 12.081z"/><path fill="#c4c4c4" d="M-24.643 247.936l-5.058 18.264-1.123 4.776 25.288-15.735v-9.834zM229.644 217.59l23.039 17.14-7.305 21.637-19.389 24.163-15.732-3.373z"/><path fill="#eaeceb" d="M111.07 197.078l19.107 3.091 19.388-.843 36.526-7.025 19.389 21.635 24.164 3.654 9.834 23.04-8.711 14.611-20.231.562-109.862-28.94-1.967-23.884z"/><path d="M193.116 229.954l3.652 8.71 12.363 3.653 8.709-2.811 2.531-5.62-3.092-7.586-8.43-3.653-8.148-.28-7.585 7.587zm7.868-4.497l8.148-.561 7.307 3.371 1.402 5.057-1.684 3.936-7.025 1.967-9.553-3.653-2.529-5.899 3.934-4.218z" fill="#ccad14"/><path d="M202.388 226.863l-1.404 5.338 8.148 7.025 5.338-3.373.281-5.619-5.619-5.338-6.744 1.967zm2.248 1.967l4.215-1.406 3.373 3.373-.281 4.214-2.25 1.123-5.617-4.776.56-2.528z" fill="#e5c727"/><path fill="#ccad14" d="M208.009 229.673l-.844 1.404 1.123 1.966 2.248-.842-.56-2.247z"/><path fill="#e5c727" d="M208.288 243.72l-1.404 2.25 1.967 2.81 3.092-1.126-.563-3.37zM196.488 240.067l-3.09.283-1.125 2.247 2.248 2.529 2.529-1.966zM192.835 233.886l-1.967-1.403-3.089 1.683.841 2.25 2.811.281zM202.669 242.877l-2.529 1.407v2.529l3.092 1.403 1.404-2.809zM209.413 220.68l.844-2.247-1.406-1.967-3.09 1.124.561 3.37zM220.933 226.581l3.09-.281.843-2.247-1.966-2.529-2.811 1.966zM215.032 222.086l2.53-1.126v-2.527l-3.092-1.406-1.404 2.81zM199.298 221.244l1.123-2.25-1.685-2.247-3.09 1.124.842 3.373zM191.991 227.987l1.125-1.967-1.685-2.25-2.811 1.126.561 3.371zM226.271 235.291l1.125-2.248-1.686-1.966-3.092.843.844 3.653zM215.314 243.16l-1.123 2.247 1.966 2.809 2.809-1.123-.561-3.373zM221.214 243.72l3.092-.28 1.123-2.247-2.248-2.529-2.529 1.966z"/><path fill="#dddddc" d="M230.767 255.241l-4.778 25.289-128.406-25.289-3.653-19.388 7.305-6.18-1.123-7.306 26.693 6.18zM113.318 202.979l8.429 2.528-2.248 7.306-8.429-2.528z"/><path fill="#c4c4c4" d="M166.423 213.375l8.43 1.405-3.653 8.43-8.429-2.53zM180.753 215.903l8.711 2.53-3.654 8.43-8.709-2.53z"/><path fill="#dddddc" d="M202.95 136.386l-50.576 51.42-3.933 12.082 12.363 5.058 28.941 5.339 37.651-43.552 8.429-16.859-24.445-1.405z"/><path fill="#cececd" d="M189.745 210.285l15.735 3.651 21.916-47.203h-13.489z"/><path fill="#c4c4c4" d="M-3.008 295.14l54.23 12.644 20.23 2.249 40.461 1.124h19.108l78.111-11.241L79.32 271.537z"/><path fill="#5d4f44" d="M50.66 75.133l-2.529 3.371-2.529 13.769 13.487 13.206 10.958.843 11.52-8.148z"/><path fill="#ffede8" d="M53.75 152.403l-13.206 4.776-6.743 46.924 4.496 3.09 7.305-3.09 14.048-24.446z"/><path fill="#ffede8" d="M45.321 229.673l-3.372.841-10.959-5.618 2.811-20.793h11.801z"/><path fill="#eed0cb" d="M30.99 224.896h11.24l3.091 4.777-1.686 9.833z"/><path fill="#eed0cb" d="M45.884 223.21l-3.654 1.686-8.429-20.793h11.801z"/><path fill="#dddddc" d="M75.948 254.96l.842 13.487 17.702-7.304 1.967-6.183-7.305-28.097-7.306.28z"/><path fill="#eaeceb" d="M78.195 244.284l11.24-1.407 2.81-4.494-3.091-11.52-7.306.28z"/><path fill="#4d3f33" d="M81.567 98.174l-29.362-19.79 16.437-5.218z"/><path fill="#eed0cb" d="M59.089 105.479l3.653 3.372 1.123 12.924-12.643 16.579 5.057 25.287-15.735-6.462 6.181-18.825z"/><path fill="#ffede8" d="M59.089 105.479l.843 16.296h3.933l10.397-17.701-1.687-3.091z"/><path fill="#2b2b2b" fill-opacity=".149" d="M2.893 337.85l81.765 13.206 80.64-15.173-25.85-4.497-56.194-10.116-63.502 12.927z"/><path fill="#ffede8" d="M131.3 160.269l5.34 35.686 3.09 3.09 7.867 1.405 3.934-2.247 3.091-43.553-8.429-7.305z"/><path fill="#8d7e73" d="M150.126 149.312l4.496 5.338 17.701-30.345-10.115-1.406-14.33 5.339-.843 7.025z"/><path fill="#5d4f44" d="M141.135 109.412l5.9 25.851 25.288-10.958-11.801-13.488-15.453-8.148z"/><path fill="#8d7e73" d="M168.39 108.289l3.933 16.016-27.254-21.355 11.239-1.405z"/><path fill="#5d4f44" d="M175.134 79.91l-6.744 28.379-23.321-5.339 4.776-6.743 17.701-14.331z"/><path fill="#74665a" d="M149.565 72.885l-7.025 7.305 2.529 22.76 30.065-23.04-7.588-7.025-9.271-2.248z"/><path fill="#8d7e73" d="M163.331 57.431l11.803 22.479-25.569-7.025-9.835-3.653-6.743-16.577-1.124-6.744 11.8.281 12.645 4.496z"/><path fill="#4d3f33" d="M110.788 91.992l3.654 3.653 17.983-5.62 10.115-9.835 7.025-7.305-17.702-26.974-8.149 6.463z"/><path fill="#5d4f44" d="M149.565 72.885l-4.496 30.065-5.339 1.124-19.95-10.677-2.529-6.463z"/><path fill="#ffede8" d="M74.262 104.074l-11.24 20.231 35.685-.844 24.165-28.097.842-4.496-6.181-3.934-35.966 11.24z"/><path fill="#5d4f44" d="M138.887 37.482l-7.024 8.429 31.468 11.52 4.215-23.602-7.586-3.934z"/><path fill="#74665a" d="M134.672 26.805l-4.495 12.924 1.686 6.182 35.683-12.082-7.866-6.463-13.206-5.057-7.026 1.124z"/><path fill="#8d7e73" d="M145.35 4.607l-5.058 2.81-.844 9.272v6.744l28.098 10.396z"/><path fill="#5d4f44" d="M107.417-12.533l7.867-5.057 10.678 3.652 14.892 11.239 4.496 7.306-5.902 18.826-12.082-6.182-11.519-13.768z"/><path fill="#74665a" d="M117.533-25.177l-2.249 7.587L145.35 4.607 133.548-29.11l-8.43-.281z"/><path fill="#8d7e73" d="M103.484-47.655l-3.091 7.587 5.901 19.106 8.99 3.372 18.264-11.52z"/><path fill="#74665a" d="M95.897-44.845L78.477-29.11l-3.092 6.181 9.273 4.777 20.23 3.933 10.396-3.371-11.8-30.065zM27.619-26.02l9.553 2.811 22.478 1.404 15.735-1.124 1.405-7.586-6.181-14.892-4.496-2.529z"/><path fill="#8d7e73" d="M31.272-12.813l2.394 2.094 36.943-6.871 4.776-5.339-47.766-3.091z"/><path fill="#74665a" d="M21.437 13.037l7.587-1.406L39.42-9.442l-5.754-1.277-6.047-15.301z"/><path fill="#8d7e73" d="M35.466 31.248l-10.937 2.019-9.554-7.867 20.792-40.18 3.653 5.338-3.371 35.966z"/><path fill="#74665a" d="M27.339 54.06L14.975 25.4l20.491 5.848-1.384 13.258z"/><path fill="#5d4f44" d="M48.131 78.504l-14.33-8.99-6.462-15.454 8.127-22.812 1.987.895 14.752 46.241z"/><path fill="#8d7e73" d="M32.115 82.438L27.339 54.06l24.866 24.324-7.727 4.336-4.776 2.247z"/><path fill="#74665a" d="M59.089 105.479L32.115 82.438l20.09-4.054z"/><path fill="#656566" d="M27.057 325.767l11.24-3.371 26.13-.282 8.148 3.653.563 8.43H27.619zM105.17 331.386l6.462-3.373 21.355.283 6.461 3.09v9.274H105.17z"/><path fill="#4e5152" d="M111.913 311.157l-6.743 20.229h34.278l-8.427-20.229-5.059-2.811h-9.834zM51.222 307.784l-24.165 17.983h45.518l-1.123-15.734-4.215-4.496-10.115-1.123z"/><path fill="#9e7700" d="M41.107 214.78l5.618 51.42 5.62 3.653 21.635 3.09 5.34-1.406 7.585-36.246-4.495-4.777-32.313-15.734z"/><path fill="#9e7700" d="M115.566 214.217l-28.941 15.456-1.123 5.618 12.361 35.406 7.587 2.806 17.983-3.65 7.305-2.81-.561-55.635z"/><path fill="#846300" d="M46.725 266.2l32.595 5.337-7.868 38.496-20.23-2.249zM97.863 270.697l32.875-3.654.283 44.114h-19.108z"/><path fill="#755700" d="M41.107 214.78l45.236 23.04 43.834-26.412-10.115-3.652-71.931 1.966z"/><path fill="#ccad14" d="M41.107 214.78l89.07-3.372-21.355-31.189-5.057 1.124-52.825 23.883z"/><path fill="#e5c727" d="M54.874 179.657L41.107 214.78l67.715-34.561-4.495-2.529-44.677-.28z"/><path fill="#ccad14" d="M46.725 138.354l8.149 41.303 53.948.282 19.668-34.561-7.867-11.52-64.344.561z"/><path fill="#e5c727" d="M59.932 121.775l-13.207 16.579 75.022-1.687-1.685-13.487-5.62-3.091-7.025-2.809-8.71 3.372-29.222.843-3.372-2.53z"/><path fill="#eed0cb" d="M134.111 225.176l-3.653-.843 6.462-23.041 2.248 1.967 1.405 9.554-1.686 4.497zM136.64 221.244v17.42l12.082-4.498 5.057-16.856-3.09-1.126-8.711 2.529z"/><path fill="#ffede8" d="M136.92 201.292l-.28 19.952 17.139-3.934-1.124-8.15-7.305-5.901z"/><path fill="#d7b1ad" d="M152.655 209.16l-15.735-7.868 8.71-.842 6.182 3.09z"/><path fill="#e2a942" d="M130.177 200.169l30.908 4.777.842-5.34-31.189-4.495z"/><path fill="#eed0cb" d="M114.442 120.089l16.858 40.18 23.322-5.619-9.553-51.7-7.306.281-19.388 9.272z"/><path fill="#ffede8" d="M125.4 95.082l5.338-.281 14.331 8.149-30.627 17.139-3.933-2.528z"/><path fill="#cea39f" d="M66.957 77.943l21.073 29.502 17.42-12.081 5.62-8.711 1.406-18.263-10.116 3.933-30.347.843z"/><path fill="#eed0cb" d="M87.608 77.337l19.528-.426-1.686 18.453 12.083-8.43 14.33-41.023-6.182-5.057L115.003.111l-7.586-12.644-5.618 5.058-16.157 74.372z"/><path fill="#ffede8" d="M52.205 78.384l35.403-1.047 17.421-24.401 2.107-61.535-31.751-14.33-41.719 12.21 2.633 61.395z"/><path fill="#cea39f" d="M61.337 41.135l-6.463 2.247 7.025 5.901 6.463-6.463zM118.937 44.787l8.429 13.487 4.497-12.363-6.182-5.057z"/><path fill="#4d3f33" d="M115.284-17.59l-4.214 8.711-.561 9.552 9.553 37.09 6.462-11.239 12.924-3.091z"/><path fill="#ffede8" d="M122.59 20.623l-3.653 24.164 12.926 1.124 7.585-22.478z"/><path fill="#cea39f" d="M126.524 26.524l-1.967 9.553 8.71-8.148z"/><path fill="#eed0cb" d="M45.321 10.508l-7.868 2.529 11.52 7.024 5.901 23.321 5.34-14.33-.844-7.586-2.248-7.025zM81.287 9.665l-12.925 4.776-3.372 6.744-1.405 6.181 4.777 15.454 10.395-23.321 11.521-7.868z"/><path fill="#46382d" d="M37.453 13.037l7.868-1.125 11.801 2.529-.843-3.371-11.52-1.686zM70.047 10.789l-1.685 3.652 12.643-3.652 9.273.842-8.711-3.371z"/><path fill="#fff4f2" d="M59.37 21.466l5.62-.281 3.372 21.635-13.488.562z"/><path fill="#e5c727" d="M51.502 56.588l12.363 6.182 17.14-7.586-18.263 1.404z"/><path fill="#b58a00" d="M51.502 56.588l11.24.843 18.263-2.247-18.263-2.248z"/><path d="M48.412 17.813c1.863 0 3.372 1.51 3.372 3.372 0 1.863-1.509 3.372-3.372 3.372s-3.372-1.509-3.372-3.372c0-1.862 1.509-3.372 3.372-3.372zM79.32 17.532c2.017 0 3.652 1.635 3.652 3.652 0 2.018-1.635 3.653-3.652 3.653-2.018 0-3.653-1.635-3.653-3.653 0-2.017 1.635-3.652 3.653-3.652z" fill="#2b2b2b"/><path fill="#f3d75c" d="M72.575 100.983l-12.643 20.792 9.553-.28 12.082-23.321zM130.738 94.801l-16.296 25.288-15.735.563 25.007-29.784z"/><path fill="#ccad14" d="M108.822 179.939l12.644-43.272 5.058 12.363z"/><path d="M166.142 228.83c4.496 2.247 7.586 6.743 7.586 12.363 0 7.304-5.9 13.487-13.486 13.487-7.305 0-13.486-6.184-13.486-13.487 0-5.34 3.09-9.836 7.305-12.083l1.405-6.18h9.273l1.403 5.9-3.934 3.653c-.562 0-1.404-.282-1.967-.282-4.776 0-8.71 3.933-8.71 8.992 0 4.777 3.934 8.71 8.71 8.71 5.057 0 8.992-3.933 8.992-8.71 0-4.216-3.092-7.869-7.025-8.71l3.934-3.653z" fill="#e2a942"/><path d="M159.96 204.665c1.686 0 2.811 1.125 2.811 2.528 0 1.123-.844 2.248-1.686 2.529l-.844-1.406c.563-.28.844-.56.844-1.123 0-.562-.564-.844-1.125-.844-.563 0-.842.282-.842.844 0 .843.561 1.123 1.123 1.123l-1.123 1.406v1.686l.842 1.405c.561 0 1.125.28 1.125.843 0 .28-.281 1.124-1.125 1.124l.561.563.564.842c.842-.281 1.686-1.404 1.686-2.528 0-1.123-.844-1.967-1.686-2.248l-1.125 1.405c-.563 0-.842.28-.842.843 0 .562.279 1.124.842 1.124v.281l-.842 1.123v1.687l.842 1.406s-.842 0-.842 1.123c0 .561.279.844.842.844.561 0 1.125-.283 1.125-.844 0-.563 0-.843-1.125-1.123v-.844h.561l.564-.563c.842.282 1.686 1.406 1.686 2.529 0 1.403-1.124 2.53-2.811 2.53-1.404 0-2.528-1.127-2.528-2.53 0-1.123.562-2.247 1.687-2.529v-1.687c-1.125-.281-1.687-1.404-1.687-2.528 0-1.123.562-1.967 1.687-2.248v-1.686c-1.125-.281-1.687-1.406-1.687-2.529 0-1.403 1.124-2.528 2.528-2.528z" fill="#f1bc68"/><path fill="#bb8e2c" d="M159.118 225.176v3.654l1.967.28v-3.934z"/><path fill="#8d7e73" d="M75.385-22.929L104.607-5.79l6.745-3.371 3.932-8.429z"/><path fill="#74665a" d="M98.988 29.333l5.619-35.123 10.677-11.8-4.496 42.709-5.338 7.305zM111.352 68.67l6.181-18.545-6.463-13.486-1.686 1.124-.281 10.396 1.967 6.181z"/><path fill="#8d7e73" d="M111.07 54.34L98.988 29.333l11.8-4.214zM66.113-47.936l9.272 25.007 28.099-24.726z"/><path d="M159.96 208.316l-.842.283v3.653l.842.562 1.125-.562v-2.53l.279-1.123-1.404-.283zm0 6.464l-.842.281v2.81l-.281.843 1.123.564 1.686-.283-.561-1.123v-2.81l-1.125-.282z" fill="#f1bc68"/></svg>