<svg xmlns="http://www.w3.org/2000/svg" viewBox="-95.08 -51.119 400 400"><path fill="#2b2b2b" fill-opacity=".102" d="M17.813 324.507l124.702-17.079 103.078 15.483-107.87 25.552z"/><path fill="#ffeee9" d="M63.394-1.804l-3.195 59.832 10.32 34.892 74.331 1.597L165.613.53l-42.264-12.408z"/><path fill="#efd0cb" d="M142.515 4.462L133.792 74l6.267 3.439 8.721-12.777 6.511-46.317zM66.587 33.087l11.919 4.67 8.845 17.077 4.792 2.334 5.529-2.334 13.635-15.48 15.237-2.334-6.39-5.407-17.691 3.072-6.389 3.072-3.194 4.668-1.597-4.668-3.932-4.67-13.638-3.807z"/><path d="M109.589 37.633c1.718 0 3.071 1.229 3.071 2.95 0 1.597-1.354 2.948-3.071 2.948-1.721 0-3.072-1.352-3.072-2.948 0-1.722 1.351-2.95 3.072-2.95z" fill="#2b2b2b"/><path fill="#e6d6d2" d="M67.324 81.985l3.195 10.935 26.416.737 15.97 10.934 20.028-8.846 4.422-17.323L133.792 74l-12.042 8.845-9.581-17.937-20.886-6.143-17.57 6.143z"/><path fill="#cfc1bd" d="M144.85 65.399L133.792 74l-2.457 20.517h7.126l5.896-11.18z"/><path fill="#868686" d="M142.515 4.462L62.534 1.268l6.388-24.081 22.361-5.406 40.788-1.474z"/><path fill="#737373" d="M58.603-18.881l18.305 3.932 14.375-13.27.86-6.142-14.375-8.6-18.429 10.074z"/><path fill="#4f5253" d="M50.616-16.547L62.534 1.268l14.374-16.217-9.584-10.075-7.985-7.863zM89.685-42.961l-1.597 17.937 44.845.737-.862-17.077-17.568-4.669z"/><path fill="#a3a3a3" d="M113.767-50.701l-24.082 7.74 42.386 1.597 1.597-3.072z"/><path fill="#737373" d="M113.767-25.024l10.318-17.201 8.848 9.338-.862 11.672-1.597 7.003-9.582 6.265z"/><path fill="#f4d75d" d="M188.095 7.532l-25.676-31.819-11.183 20.149 6.39 14.005 24.08 20.15z"/><path fill="#4f5253" d="M142.515 4.462L120.892-7.947l11.179-13.268h10.444l4.791 7.003 3.195 5.404z"/><path fill="#858686" d="M163.277-11.878l-11.178 8.477-1.598 6.265-7.986 1.598 4.791-18.674 7.126-8.601 7.987-1.474z"/><path fill="#9e7700" d="M140.059-49.104l-15.974 6.879 7.986 21.01 15.235 7.003 15.113-10.075-.741-14.743z"/><path fill="#f4d75d" d="M141.654-42.961l12.778 6.265 1.596 10.075-9.583 6.143-10.319-3.809-3.193-14.006z"/><path fill="#9da1a2" d="M152.099-3.401l29.607 33.418 3.192 7.74-7.247 4.668-18.427-14.006-3.933-10.074-12.776-13.883z"/><path fill="#f4d75d" d="M120.154 115.403l12.408-1.966 29.116-18.183 15.973-52.829-17.57-18.551-21.62 70.643-14.867 6.634z"/><path fill="#4f5253" d="M204.804 36.282l-23.098-6.265-4.055 12.408 23.959 4.669z"/><path fill="#ccad14" d="M138.461 94.517l16.83-76.172 4.79 5.529-15.231 70.643-4.791 1.474z"/><path fill="#9e7700" d="M83.543 102.38l-54.55 11.549 1.597 27.888 27.643 2.95 24.327 5.527 4.422-3.562 2.457-40.174z"/><path fill="#cea39f" d="M96.935 93.657l2.333 5.406-2.333 14.005 10.442 14.252 27.275-26.046 3.809-6.757z"/><path fill="#b58b00" d="M83.543 102.38l15.725-3.317 8.846 22.605 20.026 124.209-27.275-6.265-18.305-31.821v-54.302z"/><path fill="#a37d00" d="M115.364 168.231l-1.845 35.017-30.959-2.458v-26.415z"/><path fill="#bc9700" d="M80.961 261.357l1.599-53.566 39.19 31.821 6.39 6.265-12.776 29.486-6.636 2.335-23.956-8.478z"/><path fill="#b58b00" d="M80.348 295.758l.613-34.401 34.403 14.006-11.058 24.08-12.409 3.197z"/><path fill="#ccad14" d="M144.111 103.731l30.346 10.934 6.388 41.159-3.194 51.967-18.427 34.894-31.084 3.192-14.621-42.629-7.618-45.46 2.213-36.12 9.214-6.879 8.357-2.089z"/><path fill="#bc9700" d="M138.461 277.698l-10.321-31.821 49.511-38.086-2.458 55.165-5.526 8.599-24.205 9.092z"/><path fill="#b58b00" d="M148.41 308.291l-9.949-30.593 36.732-14.742-2.578 44.35-12.9 7.619z"/><path fill="#b89c12" d="M113.519 203.248l-5.405-15.604v-18.673l72.731-13.147-35.137 50.371z"/><path fill="#e5c828" d="M151.236 116.141l-7.125-12.41 17.567-8.477 21.627 18.675-15.852 12.777z"/><path fill="#f4d75d" d="M115.364 157.298l35.872-41.157 32.069-2.212-2.46 41.895-43.122 36.488-20.762-13.269z"/><path fill="#e5c828" d="M61.796 159.631l53.568-2.333 22.359 35.014-79.12-10.936-2.458-12.405z"/><path fill="#a3a3a3" d="M-16.587 165.896l35.138-1.842 22.114 2.335 2.948-12.162 14.62-9.46-29.24-14.622z"/><path fill="#c4c4c4" d="M-35.753 120.81l19.166 45.086 42.386-17.077 11.18-31.82L24.201 92.92l-27.152 7.003z"/><path fill="#dddddc" d="M58.233 144.767l-32.434 4.052-18.551-45.088 20.886-10.074 25.676 3.195z"/><path fill="#dddddc" d="M-12.532 92.183l-23.221 28.627 44.721-17.817 8.845-21.008-14.374 1.598z"/><path fill="#efd0cb" d="M-18.184 72.771l5.652 19.412 15.971-.861V73.509L-8.97 64.171z"/><path fill="#ffeee9" d="M17.813 81.985L2.21 91.445-8.97 64.171l6.019-7.003 9.584 4.669 6.389-.737z"/><path fill="#ececeb" d="M53.81 96.852L17.813 81.985 2.21 91.445l5.038 12.286zM-16.587 52.499l4.792 4.669 2.825 7.003 15.603-2.334-4.054-10.074.86-7.741-10.444 3.809z"/><path fill="#c4c4c4" d="M-19.782 50.165l3.195 4.669 3.194-1.475L.982 47.094l4.054-1.598-4.791-6.88-13.638 3.809z"/><path fill="#9da1a2" d="M-19.782 55.693v-5.528l3.195 1.598 3.194 1.596 1.598 3.809z"/><path fill="#dddddc" d="M2.579 51.763l6.389-8.478-8.723-4.669.737 8.478zM-28.505 9.867l-4.791 9.338 6.389 6.143 7.986-1.474 2.334-11.672zM-8.601 17.608l-2.335 5.406 3.931 3.931 6.389-5.405-3.194-3.932z"/><path fill="#8f8f8f" d="M53.81 315.908l11.181-8.48 7.003-.858 8.109-10.812 24.203 3.685v15.604l-23.22 5.527z"/><path fill="#6f7173" d="M53.81 324.507v-8.599l50.496-.861v8.599z"/><path fill="#f4d75d" d="M74.574 311.976l-9.583-4.548 15.112-11.67z"/><path fill="#8f8f8f" d="M148.41 308.291l-7.492 22.359 17.69 2.086 18.307-2.824-4.3-22.606-9.338.369-3.316 4.792-2.459-4.547z"/><path fill="#f4d75d" d="M152.834 322.172h13.639l-3.196-14.497-5.775.245z"/><path fill="#6f7173" d="M140.918 339.252v-8.602l35.997-.738.736 8.479z"/><path fill="#fff5f3" d="M91.283 37.757l-3.932 17.077h10.321l-1.598-17.077z"/><path fill="#cea39f" d="M91.283 58.765l-3.932-3.931h10.321zM77.768 68.103l31.944 1.474v2.334l-31.944-2.334z"/><path fill="#c1b274" d="M102.463 30.017v4.668h18.429l5.652 2.335-4.055-7.003zM88.088 30.017l-.737 3.07-15.971-1.474-4.793 1.474 3.932-5.405z"/><path fill="#efd0cb" d="M95.337 26.208l-3.194 3.809 1.596 3.93-4.054-3.93zM98.531 26.945l-2.457 3.072.861 3.93 2.333-3.93z"/><path d="M78.628 35.299c1.598 0 2.949 1.23 2.949 2.826 0 1.72-1.351 2.948-2.949 2.948-1.72 0-3.071-1.229-3.071-2.948 0-1.597 1.351-2.826 3.071-2.826z" fill="#2b2b2b"/><path fill="#efd0cb" d="M35.382 171.302l23.221 10.074 3.193-21.745-24.202-1.598-8.601 5.531z"/><path fill="#ffeee9" d="M18.551 164.054l16.831 7.248 2.089-13.145-18.183.369zM43.613 154.227l-6.142 3.93 22.728 13.885 1.597-12.411z"/><path fill="#b58b00" d="M144.85 94.517L125.685 112.7l-17.571 8.968 30.347-27.151z"/></svg>