<svg xmlns="http://www.w3.org/2000/svg" viewBox="0 0 400 400"><path fill="#ccad14" d="M125.465 178.846l31.902 8.118 7.309 2.321 1.043 11.486-15.197 10.092-21.344-11.715z"/><path fill="#efd0cb" d="M123.493 173.742l5.685.58 2.552 6.148-4.641 9.049z"/><path fill="#f4d75d" d="M178.597 158.892l-11.832 26.332-1.046 15.547 22.042 1.854 14.733-5.915 3.364-38.052-15.196-4.524-4.525 1.74z"/><path fill="#922320" d="M207.365 183.717l3.715-9.975 4.641-12.3-9.863-2.784-4.637 9.282-9.863 3.014 2.205 6.381-4.988 2.785 1.158 2.67-1.158 3.945 4.756 3.364 4.175-5.455z"/><path fill="#4f5253" d="M195.417 197.637l2.553 1.511 4.641-2.438 6.265-6.381-1.511-6.612.467-10.092-7.658 10.902z"/><path fill="#731b18" d="M207.365 183.717l7.313-6.962 1.507-6.958-1.507-5.571 1.043-2.784-6.612-1.854-8.935 24.939z"/><path fill="#e5c828" d="M202.494 196.71l33.645-11.603 9.049-11.833-13.11-14.499-17.4 5.451 1.043 6.381-.698 4.408-5.684 3.364-1.974 5.338zM202.611 196.71l9.395 15.544-9.049 12.065-52.435-13.456-1.506-8.238 33.409-3.828 8.353 2.667z"/><path fill="#474747" d="M202.957 224.319l6.499 4.525-6.265 6.499-15.894 2.55-15.893-13.919-19.838-7.079-1.044-6.032z"/><path fill="#f4d75d" d="M258.177 166.083l-12.989 7.191-42.694 23.436.463 27.609 6.962 2.087 54.986-43.269z"/><path fill="#4f5253" d="M202.957 224.319l.234 11.024 25.519-5.685 33.064-27.033 7.196-10.093-4.065-9.395z"/><path fill="#922320" d="M179.409 202.278l3.016-3.481 20.186-2.087-9.166 5.915-.695 4.061 5.452 1.857-.232 8.005-7.54-5.105-.697-5.22-4.756 1.276zM185.208 180.12l-2.783 6.035-3.133-3.365z"/><path fill="#e5c828" d="M178.597 158.892l-21.23 28.072 8.352 13.807 5.221-16.59z"/><path fill="#9e7700" d="M117.46 158.194l6.033 15.548-.812 11.019 8.584 9.395 15.198 39.676-10.789 4.407-3.944-10.902 2.318-10.905-9.627-8.816-16.939-45.243z"/><path fill="#ffeee9" d="M123.493 173.742l-11.833-.117 1.392 14.266 8.469 12.417 9.744-6.152z"/><path fill="#efd0cb" d="M104.118 182.094l7.542-8.469 9.861 26.683-10.441.926zM124.421 207.616l8.121-10.209 9.743 12.179.581 14.85-11.136 2.901z"/><path fill="#ffeee9" d="M149.016 202.625l-16.474-5.218 4.756 12.759 5.568 14.27 8.7-7.541z"/><path fill="#ececeb" d="M117.46 158.194L60.035 21.42l-2.667 21.115 50.114 119.838z"/><path fill="#cececd" d="M57.948 38.127l-.58 4.408 50.114 119.838 3.133-1.278z"/><path fill="#ccad14" d="M245.764 236.152l10.676-35.381-53.249 34.572-4.176 6.261 4.176 6.732 21.112 4.637 11.485-7.075z"/><path fill="#474747" d="M245.534 245.201l23.436-52.669-12.53 8.239-20.652 45.127 4.759 5.452z"/><path fill="#b58b00" d="M171.404 223.974l6.381 22.387 13.573 8.236 5.8-6.729 3.713-5.104-4.408-9.743z"/><path fill="#4f5253" d="M201.221 251.93l1.97-3.594v-12.993l-6.728-2.322.695 14.847z"/><path fill="#f4d75d" d="M235.672 257.385l5.221-7.893-4.871-3.594-32.831 2.438.347 12.062 20.648 6.612z"/><path fill="#e5c828" d="M203.538 260.398l-.347-12.062-25.406-1.975v10.443l13.92 11.253z"/><path fill="#4f5253" d="M244.954 256.337l.58-11.136-9.512.697-.35 11.487 6.382 4.987z"/><path fill="#f4d75d" d="M177.785 256.804l-33.179 55.449 33.179 5.338 24.48-23.899z"/><path fill="#ccad14" d="M155.51 294.043l-10.904 18.21 21.113 15.894 12.066-10.556 15.778-9.395z"/><path fill="#b58b00" d="M151.566 300.537l-3.364 5.685 39.675 9.166 2.436-3.018z"/><path fill="#3a3a3a" d="M182.31 321.189l2.784-2.437 19.258-23.666-2.438-3.364-2.087-3.134-22.042 29.003z"/><path fill="#f4d75d" d="M240.313 272.348l15.66 50.694-24.592 11.253-27.029-39.209z"/><path fill="#2b2c2b" fill-opacity=".102" d="M115.488 378.266l109.048-12.301 120.417 14.734-58.93 18.794z"/><path fill="#ccad14" d="M259.805 301.117l-3.832 21.925-1.16 11.486-23.432-.233-10.209-14.734z"/><path fill="#b58b00" d="M261.892 307.615l2.32 6.495-35.845 16.011-3.251-4.758z"/><path fill="#474747" d="M248.552 267.126l17.167 51.626-.814 8.698-8.932-4.408-15.66-50.694.117-7.772z"/><path fill="#b58b00" d="M169.78 270.261l34.454 24.942 44.318-28.077-12.88-9.741-32.134 3.013-25.753-3.594z"/><path fill="#3a3a3a" d="M240.313 272.348l4.757-3.018 3.482-2.204-3.598-10.789-9.282 1.048z"/><path fill="#e5c828" d="M157.484 354.249l-12.878-41.996 18.909 2.9 14.27 2.438 3.596 23.086-3.944 17.751-12.645 6.611z"/><path fill="#474747" d="M177.785 317.591l7.309 1.161.114 41.299-3.944 3.944-3.827-5.567z"/><path fill="#b58b00" d="M136.486 372.81l20.998-18.561 27.724 5.802v12.529l-30.741 4.175z"/><path fill="#755800" d="M185.208 372.58v6.729h-48.49l-.232-6.499z"/><path fill="#e5c828" d="M261.892 367.009l-30.511-32.714 24.592-11.253 8.932 4.408 18.565 41.996-4.875 10.907z"/><path fill="#3a3a3a" d="M255.973 323.042l9.746-4.29 26.682 51.737-4.524 6.266-5.801-9.513z"/><path fill="#b58b00" d="M256.323 386.617l5.569-19.608 30.509 3.48 4.408 16.475-19.374 5.221z"/><path fill="#755800" d="M296.809 386.964v7.191h-40.486v-7.538z"/><path fill="#4f5253" d="M165.719 200.771l-34.454-6.615 1.277 3.251 16.474 5.218z"/><path fill="#ffeee9" d="M166.879 38.127l-2.899 51.275 14.849 38.863h49.651l5.915-36.776 10.442-45.473-16.703-29.93-53.249 1.043z"/><path fill="#fff7ae" d="M166.416 25.715l-.231 25.172 16.356-23.436 1.509-6.031 3.479-4.524-.115-3.248z"/><path fill="#efd0cb" d="M244.837 46.016l-2.783 84.916-6.729 20.998-17.751 1.857.931-25.522 15.89-36.776z"/><path fill="#f5eda6" d="M190.545 4.716l7.425 2.087 3.597 9.746-12.992 6.031-4.525-1.16-17.634 4.875z"/><path fill="#fff7ae" d="M203.884 2.162l-13.339 2.554 11.022 11.833 6.612-5.685z"/><path fill="#f5eda6" d="M228.134 16.086l-6.729-9.049-17.521-4.875-2.317 14.387 11.483-.117 12.997 3.598z"/><path fill="#fff7ae" d="M249.479 7.15l-45.595-4.988 24.25 13.924h12.646z"/><path fill="#f5eda6" d="M244.837 46.016l11.136-18.912-6.494-19.954-21.345 8.936z"/><path fill="#f6e095" d="M270.823 36.27l-9.858 13.92-16.128-4.174 4.642-38.866z"/><path fill="#f5eda6" d="M245.188 173.274l8.118-60.787-8.469-66.471-2.667 11.365-7.775 103.948z"/><path fill="#f6e095" d="M292.519 147.176l-47.331 26.098-.351-127.258 31.554 53.479z"/><path fill="#f5eda6" d="M270.823 36.27l21.696 110.906-47.682-101.16zM166.416 25.715l-22.622 105.567 20.302-41.996 2.437-44.664z"/><path fill="#f6e095" d="M164.907 164.46l-21.113-33.178 20.186-41.88 14.849 38.863z"/><path fill="#f5eda6" d="M186.137 155.874l-21.23 8.586 13.922-36.195z"/><path fill="#f6e095" d="M210.153 128.265l-24.016 27.609-7.308-27.609z"/><path fill="#cea39f" d="M233.234 128.381l-7.304-.116h-38.169l6.962 24.362 22.851 1.16z"/><path fill="#efd0cb" d="M194.837 92.883l-5.916-3.017-9.395-19.605-10.906-10.789 7.888-1.741 14.037 4.408 2.554 4.871 2.667 3.715 2.552-3.715 5.683-3.364 16.937-4.988 9.516 3.018-14.387 9.629-15.66 18.677z"/><path fill="#dbbf82" d="M168.62 59.589l6.961-4.992 14.964 7.542zM230.454 61.676l-8.819-5.338-17.634 7.308z"/><path fill="#fff5f3" d="M193.099 67.01l-.465 12.183-3.713 10.673 5.916 3.017 5.57-2.901-2.437-10.325.348-12.647z"/><path fill="#cea39f" d="M194.837 96.014l-5.916-6.148 6.148 1.974 5.338-1.858z"/><path fill="#9e7700" d="M182.076 105.643l12.993-4.178 14.967 4.411-13.922 2.901z"/><path fill="#bf8f00" d="M194.954 110.63l-12.878-4.987 27.96.233z"/><path fill="#f4d75d" d="M236.022 143.578l-16.704 6.962-4.64 13.686 19.717-2.897z"/><path fill="#e5c828" d="M192.285 143.924l-6.148 11.95 28.541 8.352 9.165-7.655-4.525-6.031z"/><path fill="#922320" d="M214.678 164.226l-5.339 14.153 5.798-.113 4.295-7.659z"/><path fill="#f6e095" d="M242.17 57.381l-21.115-13.802-9.742-27.147 16.821-.346 16.703 29.93zM201.567 16.549L184.05 21.42l-17.865 29.467z"/><path fill="#dbbf82" d="M189.153 28.499L213.4 22l-2.087-5.568-9.746.117z"/><path d="M180.338 65.62c2.24 0 4.059 1.818 4.059 4.061s-1.818 4.061-4.059 4.061c-2.243 0-4.061-1.818-4.061-4.061-.001-2.243 1.818-4.061 4.061-4.061zM216.067 67.59c2.243 0 4.061 1.818 4.061 4.061s-1.817 4.061-4.061 4.061c-2.243 0-4.062-1.818-4.062-4.061.001-2.242 1.819-4.061 4.062-4.061z" fill="#2b2b2b"/></svg>