<svg xmlns="http://www.w3.org/2000/svg" viewBox="220.944 97.638 400 400"><path fill="#e5c828" d="M309.85 254.199l3.901-7.803 10.753-5.995 3.236 17.985-9.231 16.937z"/><path fill="#9da1a2" d="M266.459 443.463l36.635-13.418 131.695-56.521 53.858 28.927 78.884 53.952-55.19 1.24-149.775-2.572-96.583-3.52z"/><path fill="#8d9192" d="M265.983 451.551l-21.981-3.044 24.931-21.03 34.161 2.568zM567.531 456.403l-98.201-35.491-29.021-21.601 36.444 5.899 65.182 33.591z"/><path fill="#ececeb" d="M291.295 368.292l-48.625 31.59 9.231 9.136-15.796 15.795 36.825-1.333 26.262-28.925 3.902-19.699z"/><path fill="#c4c4c4" d="M301.762 384.087l1.332-9.231-5.234-2.568-7.897 5.233 6.565 9.23z"/><path fill="#dddddc" d="M236.105 424.813l-3.997 14.463 11.894 9.231 59.092-18.462 6.566-22.359-10.468-13.131-35.492 13.131z"/><path fill="#c4c4c4" d="M242.67 399.882l-5.233 19.698-1.332 5.233 27.595-17.127v-10.467zM588.466 384.183l21.314 22.455-11.893 21.982-25.312 22.172-16.082-6.853z"/><path fill="#ececeb" d="M465.524 339.648l28.832 10.468 52.336-1.332 16.557 26.929 25.217 8.47 5.899 26.451-11.799 13.892-85.831-12.558-47.672-47.197 2.378-20.936z"/><path fill="#dddddc" d="M582.566 424.526l-9.991 26.266-132.266-51.481-.286-21.409 8.945-5.139.095-7.992 27.309 11.512z"/><path fill="#e5c828" d="M553.448 385.989l-7.898 6.568.572 4.186 6.851 6.565 10.181 3.046 9.706-2.189 2.664-7.612-2.759-7.138-8.564-4.187z"/><path fill="#ebebea" d="M554.21 388.845l8.278-1.237 6.186 2.473 4.281 6.089-.476 2.571-4.756 4.471-10.564-.57-3.425-3.235-2.759-7.137z"/><path fill="#f4d75d" d="M556.874 389.224l5.328-.379 4.948 2.284 3.236 4.566-.761 3.808-2.949 2.187-5.425.381-4.948-2.189-1.427-6.946z"/><path fill="#ebebea" d="M557.636 392.079l5.709-1.712 3.331 3.33 1.902 4.378-1.713 2.282-5.137-.854-3.426-3.333z"/><path fill="#e5c828" d="M561.347 394.077l2.758-.854 2.379 1.806-1.713 2.285-1.522 1.045-2.379-1.712-1.047-1.522zM562.298 380.85l1.522-1.045 1.047 1.522-.381 2.569-1.332-.191-1.332-.188-1.046-1.524zM568.768 382.089l2.57.38 1.331.286-1.808 2.378-1.236-.284-1.332-.192.285-1.332zM574.763 385.799l1.332.19 1.047 1.524-.19 1.332-1.523 1.045-1.141-1.521-1.047-1.522zM541.839 398.646l1.238.191 1.332.188-.476 2.665-1.237-.285-1.332-.191.19-1.332zM547.643 403.595l1.238.283 1.047 1.523-.192 1.237-1.331-.189-1.237-.191-1.046-1.523zM554.876 407.59l1.521-1.048 1.143 1.523-.285 1.332-1.524 1.048-1.045-1.523zM562.679 409.018l2.759-.857 1.142 1.523-1.523 1.045-.286 1.332-2.378-1.807z"/><path fill="#dddddc" d="M466.951 346.595l8.566 4.187-3.902 7.325-8.659-4.186zM481.796 353.255l8.85 2.854-4.187 8.662-9.897-4.474z"/><path fill="#c4c4c4" d="M499.209 360.297l6.472 1.236 3.9.666-6.755 8.091-8.659-4.187zM514.34 365.721l8.754 2.854-5.424 8.374-8.659-4.186zM529.374 371.051l8.564 4.187-5.519 8.371-8.564-4.184z"/><path fill="#dddddc" d="M575.335 292.45l-80.979 57.666 52.717 18.746 48.434-39.49 12.275-16.464-25.692-5.898z"/><path fill="#cececd" d="M547.073 368.862l16.176 6.851 32.258-46.341-14.273-2.475z"/><path fill="#c4c4c4" d="M265.983 451.551l91.349 9.135 15.511 5.997 19.412-4.474 41.868 1.902 12.562 5.14 12.179-6.472 108.667-6.376-100.199-19.411-36.444-10.847-27.786 11.229-10.372-.382h-64.039z"/><path fill="#ffeee9" d="M351.441 129.327l-8.633 10.901.727 64.299 89.446-3.806 6.185-4.948-5.138-74.412-52.811.476z"/><path fill="#e6d6d2" d="M343.345 189.968l.285 25.978 14.749 5.804 49.195-2.664 7.327-3.425 5.329 2.759 19.507-18.722-.856-7.922-8.849-5.518h-.572l.381.285-4.188 7.042-8.848 5.613-7.138-12.085-44.627 1.904-8.944 12.751z"/><path fill="#efd0cb" d="M376.269 160.375l-8.85-4.853-11.419-2.76-8.849 4.378 14.274 8.183 12.37 16.557 6.661 2.665 6.661-3.046 18.174-17.508 14.178-5.614-10.657-5.9-12.561 1.618-11.038 6.185-4.472 3.426z"/><path fill="#5e5044" d="M377.981 130.687l-25.453-1.304-9.849-.505 7.993-14.368 20.459-7.327 9.039 4.949z"/><path fill="#3f3229" d="M413.855 99.38l-10.562 18.936-25.312 12.371-6.85-23.504z"/><path fill="#5e5044" d="M427.804 124.915l1.181-11.357-15.13-14.178-35.874 31.307zM433.118 159.328l-5.978-34.336 11.837.937 7.612 11.514-7.042 11.894z"/><path fill="#46382d" d="M458.578 121.647l-7.422 15.32-9.135 1.047-14.881-13.022-7.766-12.671 20.269 1.618z"/><path fill="#3f3229" d="M465.334 117.079l-3.331 11.419-8.183-3.616-16.841-6.09-17.605-6.471-5.519-12.941z"/><path fill="#46382d" d="M425.653 193.585l7.465-34.257 8.903-21.314 4.853 15.32-.762 15.225-4.186 9.801z"/><path fill="#5e5044" d="M458.007 171.223l-6.28 3.806-9.04-6.566-.666-30.449 11.799-13.132 9.517 30.735z"/><path fill="#46382d" d="M466.096 165.989l-2.284 5.9-8.564-3.14 3.901-13.132-5.329-30.735 11.514-7.803 3.426 39.109z"/><path fill="#5e5044" d="M440.784 197.866l-9.282.459-5.849-4.74 17.034-25.122 15.32 14.94 4.377 16.937-12.37 4.377z"/><path fill="#46382d" d="M478.942 197.391l-12.656 4.947-7.803-4.091-8.849-16.748-6.947-13.036 12.561.286 13.131 11.418z"/><path fill="#5e5044" d="M484.461 200.055l-7.899.761-3.235-6.09-18.079-25.977 10.848-2.76z"/><path fill="#46382d" d="M466.856 217.088l-.57-14.75 7.041-7.612 11.134 5.329-5.138 10.372z"/><path fill="#5e5044" d="M443.925 213.948l18.365 4.853 6.946-5.804 4.091-18.271-14.844 3.521-8.469 6.47z"/><path fill="#46382d" d="M441.641 197.772l-1.904 9.8 8.184 4.187 10.562-13.512z"/><path fill="#3f3229" d="M426.78 223.225l-2.367-5.566 2.771-7.556-1.531-16.518 15.988 4.187 6.28 13.987-5.424 9.991zM333.924 125.453l4.568 7.612 12.949-3.738 6.844-12.343 12.846-9.801-18.556-1.238z"/><path fill="#5e5044" d="M332.878 142.01l1.046-16.557 17.517 3.874-8.633 12.683-9.55 7.422z"/><path fill="#3f3229" d="M323.553 151.811l9.325-9.801h9.93l-2.794 12.941-13.225 4.377z"/><path fill="#5e5044" d="M321.649 171.223l1.904-19.412 7.421 5.044 6.09 8.564-1.142 14.082-6.185-3.045zM342.964 157.901l-4.282 4.853-7.708-5.899 12.18-15.355z"/><path fill="#3f3229" d="M343.154 172.65l-3.806 3.711-7.421-2.283-.953-17.223 11.99 1.046z"/><path fill="#5e5044" d="M343.345 189.968l-9.516-9.705-1.902-6.185 11.227-1.617z"/><path fill="#3f3229" d="M329.261 186.639l-7.612-15.416 10.278 2.855 11.418 15.89-11.895 3.33z"/><path fill="#5e5044" d="M318.129 200.531l11.132-13.892 14.084 3.329-3.902 11.038-8.374 11.229-6.85-3.616z"/><path fill="#3f3229" d="M343.535 204.527l-4.568 4.568-9.515-2.57 13.893-16.557z"/><path fill="#5e5044" d="M331.927 221.75l-2.285-6.374-.19-8.851 14.083-1.998.095 11.419-2.95 4.853z"/><path fill="#3f3229" d="M319.651 221.845l11.229 2.283 2.187-4.852-1.998-7.041-1.617-5.71-11.323-5.994z"/><path fill="#f4d75d" d="M358.379 221.75l-9.325 11.799-5.804-3.234-8.374-1.143-.952 5.996-9.42 5.233-4.377 25.312-10.943 22.076 10.658 20.839 15.225 5.232 136.738 3.713 9.325-66.229-3.426-21.886-19.411-6.661-31.513.428z"/><path fill="#baaeaa" d="M371.701 234.787l-13.322-13.037 3.236-2.76 6.28 2.19 39.679-2.094 8.374-3.996 4.282 3.33.096 6.47-11.038 9.421z"/><path fill="#cfc1bd" d="M426.78 223.225l-17.492 11.086 10.942-15.891 6.954-8.317z"/><path fill="#cfc1bd" d="M419.088 205.289l1.142 13.131-6.946.381-5.71.285zM359.712 210.142l8.183 11.038-9.516.57z"/><path fill="#cea39f" d="M367.038 197.2l-.094 2.474 16.366 2.094 21.6-5.995.191-3.235-22.267 6.566z"/><path fill="#fff5f3" d="M376.269 160.375l-2.474 21.505 13.322-.381-1.904-21.219z"/><path fill="#cea39f" d="M380.741 187.494l-6.946-5.614 13.322-.381z"/><path fill="#3f3229" d="M396.917 149.337l-.666 4.758 23.218 4.282-1.713-9.326zM366.372 149.432l1.047 6.09-20.268 1.618 1.142-7.232z"/><path d="M406.053 161.041c2.154 0 3.901 1.79 3.901 3.997s-1.748 3.996-3.901 3.996c-2.156 0-3.902-1.789-3.902-3.996s1.746-3.997 3.902-3.997z" fill="#2b2b2b"/><path fill="#2b2b2b" fill-opacity=".102" d="M302.143 483.523l122.37-10.56 114.471 8.562-116.47 14.371z"/><path d="M360.092 162.087c2.155 0 3.901 1.79 3.901 3.997s-1.746 3.996-3.901 3.996c-2.154 0-3.9-1.789-3.9-3.996-.001-2.207 1.746-3.997 3.9-3.997z" fill="#2b2b2b"/><path fill="#e5c828" d="M318.034 390.556l-14.179-61.566-3.806-29.401 22.933 4.948 141.115 1.998.381 30.449-16.557 4.283 6.661 19.03-11.704 29.975z"/><path fill="#474747" d="M393.207 417.771l-44.534 3.903-30.639-31.118 116.279-4.757 20.269-25.502 20.458-1.808 10.849 22.172-34.733 33.305z"/><path fill="#4f5253" d="M328.691 436.992l-10.657-46.436 75.173 27.215-.477 19.221-17.318 6.567-36.254-6.567z"/><path fill="#4f5253" d="M402.912 436.992h7.042l39.68 4.853 17.698-4.853 18.557-56.331-92.682 37.11z"/><path fill="#ffeee9" d="M357.332 460.686l-9.895-12.941 15.89-8.66 29.309 2.667-.381 20.457z"/><path fill="#cea39f" d="M347.437 447.745l-8.279-10.753h53.572l-.094 4.76z"/><path fill="#dddddc" d="M357.332 460.686l-5.899-7.708 41.012-1.807-.19 11.038z"/><path fill="#b58b00" d="M339.158 475.815l9.135-7.612 15.226-7.23 28.736 1.236.19 13.702-27.975 4.853z"/><path fill="#755800" d="M339.063 482.952l.095-7.137 53.287.096-.285 7.328z"/><path fill="#f4d75d" d="M348.293 468.203l6.375 2.476 8.851-9.706-6.187-.287z"/><path fill="#ffeee9" d="M434.123 464.111l-15.415-17.127 21.41-5.805 25.406 1.427-6.66 20.173z"/><path fill="#cea39f" d="M418.708 446.984l-8.754-9.992h57.378l-1.808 5.614z"/><path fill="#dddddc" d="M434.123 464.111l-10.943-12.178 39.491-.762-3.807 11.608z"/><path fill="#b58b00" d="M427.177 480.479l6.946-16.368 9.23-.474 5.138 5.71 2.57-6.09 7.803-.478 10.085 17.414z"/><path fill="#755800" d="M427.177 489.328v-8.849l41.772-.286v8.09z"/><path fill="#f4d75d" d="M443.353 463.637l-.19 11.799 10.562-.762-2.664-11.417z"/><path fill="#e5c828" d="M529.374 307.867l-25.787-39.109-12.561-33.971-13.322-5.329-22.646-14.178 22.646 14.178-13.607 77.077 30.451 14.655z"/><path fill="#ffeee9" d="M485.889 380.661l43.485-72.794-65.277-1.332-4.948 28.069-17.603-5.709 13.036 31.402z"/><path fill="#5e5044" d="M477.704 229.458l5.995-1.903-3.235-9.896 3.997-17.604-15.225 12.942-4.758 8.278 5.329 9.706z"/><path fill="#dddddc" d="M304.902 211.569l5.139 44.343-24.265 8.373-21.601-37.302z"/><path d="M280.542 231.836l-2.855.572-2.855 7.707.572 2.189 4.568-1.332.57 3.045 2.855-.666-2.855-11.515zm-2.95 7.328l1.427-3.33.572 2.854-1.999.476zM291.58 229.934l-3.711-1.619 2.283-1.998-1.236-3.425-5.71.477-.666 4.757 3.521 1.046-2.664 2.283 1.713 4.949 5.994-1.713.476-4.757zm-6.661-3.236l.285-1.998 1.808-.095.477 1.617-2.57.476zm1.904 7.137l-.477-2.379 2.855-.57v2.474l-2.378.475zM295.862 232.693l-1.903.096-1.428 1.713 1.428.189-.286 7.423h2.379zM298.146 232.789l-.381 4.377 2.855.951-.096 2.094-3.044-.286.191 2.379 4.947.095.857-5.71-3.426-.666-.191-1.617 3.331.096-.19-2.094z" fill="#ababab"/><path fill="#46382d" d="M454.391 233.93l-7.706-9.61 1.236-12.561 21.315 1.238.571 17.984z"/><path fill="#5e5044" d="M437.645 237.07l-9.326 1.618-1.539-15.463 21.141-11.466 6.47 22.171z"/><path fill="#9e7700" d="M415.092 305.773l11.688-82.548 10.865 13.845-.381 69.083-7.042 10.088z"/><path fill="#856400" d="M454.582 360.297l-39.49-54.524 22.172.38 21.885 28.451zM308.518 349.259l33.399-44.438-2.378-13.036-16.557 12.752-19.127 24.453z"/><path fill="#9e7700" d="M343.44 230.028l-20.458 74.509 18.935.284 16.462-83.071-10.847 3.425z"/><path fill="#3f3229" d="M333.067 219.276l1.809 9.896 8.564.856 5.424-2.949 9.515-5.329-14.749-5.804z"/><path fill="#5e5044" d="M319.651 221.845l13.893 13.608 9.896-5.425-10.373-10.752z"/><path fill="#efd0cb" d="M278.83 266.76l-1.904 56.998 26.929 5.232 19.127-24.453-9.706-29.88z"/><path fill="#ffeee9" d="M299.288 245.349L278.83 266.76l13.512 27.309 24.55-9.135z"/><path fill="#efd0cb" d="M313.751 246.396l-14.463-1.047 17.604 39.585 3.235-19.221z"/><path fill="#856400" d="M503.587 268.758l1.713-44.438-24.836-6.661-2.76 11.799z"/><path fill="#e5c828" d="M546.312 384.561l1.522-1.14 1.047 1.523-.381 2.664-1.332-.287-1.332-.19-1.046-1.521zM541.649 389.511l1.237.19 1.332.284-.475 2.572-1.332-.287-1.238-.191.191-1.332zM553.543 380.757l1.237.284 1.332.191-.475 2.569-1.332-.192-1.237-.284.19-1.236zM570.195 407.874l2.76-.854 1.142 1.523-1.522 1.045-.286 1.332-2.283-1.807zM576.571 403.308l1.523-1.141 1.047 1.523-.191 1.332-1.522 1.045-1.142-1.523zM578.76 394.268l1.237.191 1.331.284-.474 2.571-1.333-.287-1.237-.191.191-1.332z"/><path d="M292.342 294.069l27.5.762-3.235-9.801-24.265 9.039zm185.362-64.611l25.883 39.3 1.713-44.438-27.596 5.138z" fill="#2b2b2b" fill-opacity=".102"/></svg>