<svg xmlns="http://www.w3.org/2000/svg" viewBox="-101.204 -48.819 400 400"><path fill="#2b2b2b" fill-opacity=".149" d="M19.127 332.157l82.62 17.704 75.079-22.951-82.62-14.752z"/><path fill="#ececeb" d="M67.977 285.273l12.131-3.933 5.574 5.245-5.901 24.917-15.082 1.966v-15.737z"/><path fill="#454444" d="M85.682 286.585l-8.525 20.982-12.458 5.901v6.886l-4.263 4.59 3.607 1.966h15.738l12.785-26.883.656-6.229z"/><path fill="#545657" d="M60.436 324.944v4.589h18.361l18.032-32.129-3.607-3.606-18.032 31.146z"/><path fill="#9e7700" d="M143.712 197.735l21.639-25.244 3.279 30.489zM45.028 207.244l41.637-7.213-40.981 61.965-28.196-3.606 16.393-26.884 2.95-10.492z"/><path fill="#755800" d="M17.488 258.39l47.211 39.341 14.426-14.752-.984-4.591-22.95-20.982-8.852-1.639z"/><path fill="#dddddc" d="M5.685 82.331l-10.492 8.524-7.212 11.147 7.54 7.213 13.77-24.589z"/><path fill="#e3c521" d="M11.258 134.788l28.524-12.131 5.902 5.573 1.311 20.983-4.918 5.902-21.31 4.261L8.636 162z"/><path fill="#454444" d="M144.695 23.317L119.122 6.924l-9.179 8.197v19.343l14.426-3.934zM134.859 53.152l9.836-29.835-20.982 11.147-20.655 22.95 18.359.328z"/><path fill="#373737" d="M111.255 31.186l-3.935 9.18 1.639 14.753 35.736-31.802zM134.859 53.152l-25.9 1.967-6.557 15.736 2.95 23.935 15.083-8.853 10.818-20.654z"/><path fill="#454444" d="M139.777 84.954l2.294-5.574V64.299l-7.212-11.147-29.507 41.638 10.165.655z"/><path fill="#373737" d="M151.253 61.676l-16.394-8.524 7.212 26.228z"/><path fill="#dddddc" d="M226.66 51.84l-19.672 4.263-1.311 15.081 22.95-14.754z"/><path fill="#ececeb" d="M109.615 294.125l10.82-8.852 5.573 5.574-6.557 26.556-15.737 1.967v-16.392z"/><path fill="#b58b00" d="M95.846 196.753l20.981-3.279 13.772 20.327-34.753 37.048-23.934 9.836-25.573-4.918 32.458-50.818z"/><path fill="#856400" d="M95.846 250.849l24.589 34.424-16.721 17.705-57.375-47.211z"/><path fill="#454444" d="M126.008 290.847l-9.181 22.294-13.113 6.229v7.213l-4.262 5.245 3.606 1.641 16.721.327 13.115-28.524 1.31-6.229z"/><path fill="#dddddc" d="M58.47 114.461l18.687 2.294 28.195-21.965 2.952 4.589-10.82 87.865-8.852 11.803-15.409 4.918-14.098-3.278-3.278-8.525-.656-73.439z"/><path fill="#856400" d="M76.174 201.671l-28.524 7.868 22.295 8.852 37.704-18.032z"/><path fill="#cdcccb" d="M47.65 209.539l59.999-9.18-1.312-8.524-17.705-2.295-29.507 1.311-11.147 11.475z"/><path fill="#ccad2d" d="M39.782 122.657l2.295 32.458 9.18 11.474 7.541-14.752-.328-37.376z"/><path fill="#e3c521" d="M42.077 155.115l16.721-3.278.327 39.342-7.541 7.541-6.556-2.951z"/><path fill="#ccad2d" d="M132.237 118.395l-7.868 13.442-18.688 11.475-8.525-2.623 8.196-45.899 26.229-11.148 7.869 15.409z"/><path fill="#e3c521" d="M132.237 118.395l-35.081 22.294-8.524 48.851 15.41 1.968 29.18-14.427z"/><path fill="#e2c6c3" d="M193.546 79.052l-3.935-11.803-12.458-2.95-14.097 5.901-2.295 12.458 9.836 11.148z"/><path fill="#e3c521" d="M131.581 83.642l.656 34.753 18.032-11.803 1.312-16.392-9.51-10.82z"/><path fill="#b2882e" d="M170.597 93.806L163.056 70.2l-20.985 9.18 8.198 27.212z"/><path fill="#c2c1c2" d="M177.153 64.299l16.393 14.753 12.131-7.868-4.589-12.131-14.099.984z"/><path fill="#cdcccb" d="M191.252 36.759l-4.263 23.278 18.688 11.147 7.541-20.983-5.901-16.065z"/><path fill="#dddddc" d="M222.069 26.923l-8.851 23.278-21.966-13.442 16.72-13.77z"/><path fill="#e2c6c3" d="M-18.577 121.018l6.23-4.918 13.114 1.312 10.491 17.376-7.212 7.868-15.082 1.967z"/><path fill="#b2882e" d="M26.012 158.394l-14.754-23.606-22.294 9.835 6.229 20z"/><path fill="#c2c1c2" d="M.767 117.412l-5.246-8.197-13.114-7.868-4.59 8.196 3.606 11.475z"/><path fill="#cdcccb" d="M-22.183 109.543l17.704-.328-.328-18.36-9.508-9.835-16.72.983z"/><path fill="#9e7f79" d="M80.764 126.919l-33.769-19.016 2.623-4.262 37.703-4.59 5.245 3.934z"/><path fill="#c3a39f" d="M105.352 94.79l-24.588 32.129 6.885-24.589-12.459 1.967 5.245-14.425-6.228-55.408 6.557-2.951 21.309 18.36 6.231 12.459z"/><path fill="#e2c6c3" d="M14.209 67.577l3.279 25.573 14.097 16.393 43.605-5.246 8.197-19.671-3.279-29.179-7.213.656-52.128 4.262z"/><path fill="#c3a39f" d="M14.209 67.577l20.983 1.312 2.295-6.886zM46.339 61.348l3.934 9.18 23.278-9.18z"/><path fill="#373737" d="M80.108 55.447l-6.557 5.901-24.589 2.623-8.196-3.606-5.247 4.918-21.31 2.294 12.786-8.852 45.244-21.31 5.902 1.311z"/><path fill="#9e7f79" d="M35.192 72.167l7.213-2.622 7.868.983-6.557 6.557z"/><path fill="#eedcda" d="M40.766 55.774l-5.247 9.509-.327 6.884 15.081-1.639-1.639-6.557z"/><path fill="#9e7f79" d="M34.208 86.593l34.753-13.114-19.343 18.687z"/><path fill="#fff" d="M42.077 86.593l18.032-7.869-10.819 9.508z"/><path fill="#2b2b2b" d="M96.829 50.529L78.141 38.726l3.934-25.245 15.081-12.13 3.28 6.557.655 31.146z"/><path fill="#454444" d="M123.058-5.862L110.927 5.94 94.862 9.547l5.901-25.245z"/><path fill="#444648" d="M111.255 27.907l4.262-12.786-2.295-7.869-18.36-.983z"/><path fill="#373737" d="M123.058-5.862L94.862 9.547l1.311 24.917 7.541 1.967 7.869-5.245z"/><path fill="#9e7f79" d="M96.829 56.103l11.475 6.229.655-7.213-4.589-2.623z"/><path fill="#e2c6c3" d="M96.173 34.464l.656 21.639 12.13-.984 2.296-23.933z"/><path fill="#9e7f79" d="M101.091 39.054l.328 9.836 5.246-11.475z"/><path fill="#e3a733" d="M8.636 16.759L-4.151 35.775l5.246 37.704 7.541-9.836 15.081-24.917-3.607-13.114z"/><path fill="#897a2f" d="M21.094 35.448L1.095 73.479l77.046-34.753-1.64-9.836-10.163-16.72-4.918-9.508-36.392 24.261z"/><path fill="#aa8e30" d="M-2.184.04l23.278 35.408 39.671-24.261.655-8.525-17.048-22.95-4.918-6.229-17.376 6.885-13.77 9.507z"/><path fill="#aa8e30" d="M80.108-26.845L63.715-1.272l-2.95 12.459 17.376 27.539 41.638-72.456-26.229.655z"/><path fill="#e3a733" d="M72.567-37.008l1.968 13.769h8.196l37.048-10.491L90.6-46.516z"/><path fill="#897a2f" d="M36.831-22.255L52.24-36.681l15.409-6.885 15.082 20.327-21.966 34.426z"/><path fill="#e3a733" d="M12.57-25.533L-2.184.04l39.015-22.295 14.426-17.376V-47.5z"/><path fill="#b88a2d" d="M67.649-43.566L51.257-47.5 36.831-22.255z"/><path fill="#dddddc" d="M-31.035 82.003l26.228 8.852 5.902-17.376-9.508-3.934z"/><path fill="#bb8d2d" d="M26.995 201.344l6.886 30.162 25.244-40.655zM146.007 222.652L88.632 189.54l44.59-21.967 32.129 4.918z"/><path d="M39.782 122.657l40.982 4.262-22.294-12.458-18.688 8.196zm63.932 180.321l22.294-12.131-5.573-5.573-16.721 17.704zm-39.015-5.247l20.655-9.835-6.229-4.918-14.426 14.753zM15.192 26.595L53.88 1.678l23.605-32.129 5.246 7.212-21.966 34.426-39.671 24.261-5.902-8.853zm92.457 173.764l22.949 13.441-13.442 14.099-9.507-27.54z" fill="#2b2b2b" fill-opacity=".102"/><path fill="#545657" d="M99.452 331.828v5.247h19.67l19.344-33.768-4.262-4.264-19.016 32.785z"/></svg>