<svg xmlns="http://www.w3.org/2000/svg" viewBox="-152 -152 400 400"><path fill="#BF8F00" d="M25.327 26.237l15.42-8.162s20.854 2.719 24.482 1.815c3.629-.905 13.602-.905 13.602-.905l-6.349 35.364-12.695 18.134-24.483 2.724-9.067-32.649-.909-15.416v-.905z"/><path fill="#E4C723" d="M94.246-6.408l-9.972-14.511-2.723 12.696v5.443L85.179.844z"/><path fill="#FFF6AF" d="M-1.875-142.432l32.646-8.162 58.942 8.162-7.253 6.348-18.139 3.628-38.084 6.348z"/><path fill="#E1CF85" d="M-1.875-142.432h92.497L50.72-123.388l-45.342-5.443-7.253-13.601z"/><path fill="#C0B174" d="M106.037-106.158l-16.324-36.274-25.392 9.976 3.628 27.203 2.72 7.257z"/><path fill="#9E8F60" d="M77.017-104.344l29.02-1.814-6.347 26.297-12.697 11.787-14.51-.905z"/><path fill="#EECFCA" d="M82.46-3.689l17.23-76.172-14.511-.909-1.814 10.882-6.348-.906v-33.55l-12.696-28.112-57.128 50.78 3.629 73.453 30.83 17.23h28.112z"/><path fill="#CDA29E" d="M60.697-9.128h8.162L47.095 6.287 18.984-.06l-3.629-13.606 22.669-3.624 22.673 8.162z"/><path fill="#F3D65C" d="M53.439 39.838l14.51-29.926h20.859L66.135 36.213l-6.348 5.439z"/><path fill="#E4C723" d="M49.815 66.135l3.624-26.297 12.696-3.625-2.72 10.882z"/><path fill="#F3D65C" d="M35.304 41.652l10.882-5.439 3.629 30.831-9.068-5.442z"/><path fill="#E4C723" d="M21.703 7.193L35.304.844l10.882 35.369L39.838 48z"/><path fill="#755924" d="M14.446 77.926l.909-9.977-4.533-38.993-7.258-14.51C-1.875 32.585-8.223 51.63-13.666 69.764l28.112 8.162z"/><path fill="#836528" d="M-8.223 53.439l22.669 24.487-37.179 13.602-.905-3.629 1.814-19.95 7.253-9.067z"/><path fill="#CBAD2D" d="M-46.311 67.949l9.072-2.719 19.04 2.719-.905 7.257-7.254 3.625 5.439 4.534-3.629 17.23h-17.229l-.905-7.253 2.719-2.72-3.625-17.229-1.814-1.815z"/><path fill="#F3D65C" d="M-46.311 58.882l3.629-4.534h20.858l3.625 4.534-27.203 1.815z"/><path fill="#E4C723" d="M-49.031 67.949h34.46v-9.067h-34.46z"/><path fill="#EECFCA" d="M-35.429 71.578h-9.973l2.72 21.764 9.067-2.72zM-19.104 75.206h-10.882v6.345l9.067 1.814z"/><path fill="#2B2B2B" fill-opacity=".102" d="M54.348 223.922l92.497 9.068-61.666 13.605-136.023-13.605z"/><path fill="#AB913B" d="M75.206 216.669l-6.347 19.044 18.134 2.72 18.135-2.72-7.253-19.044-1.814-3.629-19.044-.904zM3.564 209.416l-23.574 18.135 28.112 2.72 19.949-2.72v-19.044l-3.628-1.814z"/><path fill="#CBAD2D" d="M3.564 209.416h24.487l23.578-57.133-42.622 13.602z"/><path fill="#E5C828" d="M51.629 152.283l10.882 29.022 13.601 13.601 20.858-26.297v-29.926l-18.139 2.72z"/><path fill="#CBAD2D" d="M75.206 216.669h22.669l-.905-48.06-34.459 12.696z"/><path fill="#E5C828" d="M33.49 137.774l-21.764 3.629-2.719 24.482 30.831 15.42 11.791-29.022z"/><path fill="#A58C25" d="M25.327 138.683l15.42 10.882 10.882 2.718 9.973-2.718 31.74-15.416-12.696-31.741-28.113-12.695z"/><path fill="#836528" d="M49.815 98.781l11.787 50.784 35.368-10.882-.909-51.69-36.274 6.349z"/><path fill="#9C782C" d="M31.676 89.713l-14.507 5.443-5.443 47.156 29.021 7.253 5.439-26.297 3.629-24.487z"/><path fill="#836528" d="M49.815 98.781l-32.646-3.625-12.696-80.71L25.327.844l1.815 31.741 22.673 34.459 2.718 10.882z"/><path fill="#9C782C" d="M18.984 5.378L9.912 19.889l39.903 47.155L28.956 9.912z"/><path fill="#836528" d="M135.054 82.46l-27.202-66.2-6.348.909-9.072 48.966 6.349 3.629v2.719l19.043 14.51z"/><path fill="#755924" d="M82.46.844l9.068 5.443 16.324 9.973-11.791 73.453-46.246 9.068V67.044l26.297-39.902z"/><path fill="#836528" d="M49.815 67.044l44.431-48.06-5.438-20.859-5.443-.905z"/><path fill="#9C782C" d="M82.46 92.437l18.135 15.415 34.459-25.392-36.273-12.696z"/><path fill="#BC8F2D" d="M86.088 87.899l-3.628 4.538 13.601 19.04 4.534-3.625z"/><path fill="#F3D65C" d="M9.912-9.128l5.443 28.112 44.432 9.067L27.142 6.287z"/><path fill="#E4C723" d="M27.142 15.355l14.51-4.533L48 7.193 5.378-15.476z"/><path fill="#E1CF85" d="M-18.199-95.277l-10.882-32.645h7.257l6.348 8.159z"/><path fill="#FFF6AF" d="M1.754-140.618l-30.835 12.696 9.977 5.439 7.253 4.534 13.605-13.602z"/><path fill="#E4C723" d="M27.142 15.355l32.645 12.696L91.528 6.287l-42.622 4.535z"/><path fill="#F3D65C" d="M27.142 15.355l64.386-9.068 2.718-12.695L48 7.193z"/><path fill="#C0B174" d="M30.771-126.108l-32.646-16.324-3.628 11.787 4.534 6.347 3.628 4.535z"/><path fill="#FDEDE9" d="M64.321-132.456L60.697-9.128H-3.689l-12.696-36.274-2.719-77.081 13.601-8.162 4.534 6.347 31.74-1.81 13.601-8.162z"/><path fill="#EECFCA" d="M17.169-43.588l9.973-29.926 22.673-15.415-13.602-4.534c0-.909-15.419 6.348-15.419 6.348l-1.81 2.719-6.348 6.348-6.348-6.348-3.628-6.348c-.905 0-9.067-.909-9.067-.909l-8.163 3.628 11.787 13.601 8.162 29.926 6.348-4.534m5.442 4.535z"/><path fill="#C0B174" d="M18.984-89.838l19.04-5.439 11.791 7.253-13.602-2.719-17.229 7.253zM6.287-88.928l-12.695-3.629-7.258 6.348 9.072-1.815L6.287-83.49z"/><path fill="#CDA29E" d="M81.551-50.844l9.977 9.067 1.814-9.067zM6.287-43.588l5.439 5.439 5.443-5.439-8.162-1.814z"/><path fill="#FFF4F2" d="M6.287-83.49v39.902h10.882l1.815-39.902z"/><path fill="#CDA29E" d="M6.287-31.801l16.321.91 9.977-6.348.905 1.81-9.973 8.162-17.23-2.719z"/><path fill="#2B2B2B" d="M-1.875-76.233c2.001 0 3.628 1.624 3.628 3.625 0 2.005-1.627 3.629-3.628 3.629-2.005 0-3.628-1.624-3.628-3.629 0-2.001 1.623-3.625 3.628-3.625zM28.051-76.233c2.001 0 3.625 1.624 3.625 3.625 0 2.005-1.623 3.629-3.625 3.629-2.005 0-3.628-1.624-3.628-3.629 0-2.001 1.623-3.625 3.628-3.625z"/><path fill="#FDEDE9" d="M93.342-50.844l6.348-29.017-14.511-.909-3.628 29.926z"/><path fill="#CDA29E" d="M87.899-74.423h7.257l-9.068 11.791z"/><path fill="#EECFCA" d="M-2.784-106.158l15.42.905 26.297-1.815-25.392 5.443h-.905zM4.473-110.692h9.068l17.23-1.815-17.23 4.534zM24.423-46.311l10.881.909 8.163 10.882z"/><path fill="#FDEDE9" d="M-50.844 76.112l5.442-4.534 2.72 21.764-7.253-3.629z"/><path fill="#755924" d="M-20.01 232.085v-4.534h48.061v4.534zM68.859 240.247v-4.534h36.269v4.534z"/><path fill="none" d="M-151.5-151.5h399v399h-399z"/></svg>