<svg xmlns="http://www.w3.org/2000/svg" viewBox="0 0 400 400"><path fill="#897a30" d="M100.898 119.124l8.407 5.089 3.343 9.098-55.041 42.563-11.368-14.354z"/><path d="M111.2 95.874l-3.093 17.333-7.208 5.917 11.75 14.187 6.125-3.907 16 1.969-1.094-6.848-15.844-23.351-6.636-5.3zm4.407 22l3.747-9.72 8.413 12.669-12.16-2.949z" fill="#aa8e30"/><path fill="#dcdcda" d="M138.849 119.435l42.404-32.572-.955 5.93-39.505 29.57zM130.02 106.368l42.404-32.571-.955 5.93-39.505 29.569z"/><path d="M170.266 28.993l-7.092 1.221-7.092-1.339-41.892 29.898 2.49 17.565-5.48 19.536 23.574 35.5 14.692.306 16.808 5.861 24.97-11.585-20.978-96.963zm-5.257 98.111l-13.788.86-10.428-5.601-19.348-29.136-1.391-15.867 3.729-13.148 35.462-25.311 4.517-2.271 5.174 1.064 10.841 82.557-14.768 6.853z" fill="#b38a2e"/><path fill="#dcdcda" d="M121.445 93.227l44.262-34.382-.919 6.012-41.584 31.017z"/><path fill="#dcdcda" d="M126.832 62.036l42.515 63.055-4.338 2.013-41.225-62.893zM139.886 52.719l22.439 28.269-.649 4.246-25.07-30.174zM152.701 43.573l13.006 15.272-.919 6.012-15.069-19.156z"/><path fill="#ccaf2c" d="M114.19 58.773l9.594 5.438-2.339 29.016-10.245 2.647zM134.773 131.374l6.02-9.011 24.216 4.741 1.264 10.437zM156.082 28.874l3.165 10.027 9.69-1.207 1.329-8.701z"/><path fill="#cea39f" d="M83.133 173.142l-10.514-8.877 17.347-16.78.621 1.692 8.5 11.808-4.871 8.282z"/><path fill="#eecfcb" d="M60.084 150.75l12.535 13.515L85.63 152.9l2.093-13.924-4.557-6.098zM99.087 160.985l-1.4-16.104-6.477-9.072-2.251 7.441-.667 7.604-2.926 10.714 3.394 7.245z"/><path fill="#feeee8" d="M60.084 150.75l2.132-9.171 13.91-9.391 7.04.69zM97.687 144.881l-14.352 9.696-4.224-7.78 12.099-10.988z"/><path fill="#b38a2e" d="M288.87 318.794l-6.618 53.108-6.538-.457 1.201-29.667 5.377-23.666z"/><path fill="#cbad2d" d="M266.959 318.112h15.333l-6.578 53.333-22.755-40.195z"/><path fill="#efd0cb" d="M252.959 331.25L216.709 311l-11.731-14.021V285l30.404 3.177 31.577 29.935z"/><path fill="#cea4a0" d="M204.978 285v11.979L216.709 311l18.673-22.823z"/><path opacity=".1" fill="#2b2c2b" d="M124.751 390.588l103.723-13.69 89.319 10.037L225.322 400z"/><path fill="#feeee8" d="M157.959 151.25l-42.375 31.25 16.959 20.709 20.416-10.834zM154.441 23.29l-5.989 9.829L138.236 100l11.096 24.018 31.534 9.513L199.478 125l31.417-72.151 10.218-11.627z"/><path fill="#eecfcb" d="M181.301 160.534l45.158-15.226 12.738-23.245 1.916-80.841-10.218 11.627L199.478 125l-18.612 8.531z"/><path fill="#cea39f" d="M169.429 130.081l11.872 30.453 26.341-18.504z"/><path fill="#c0b275" d="M182.011 57.076l19.686 3.964 5.762 2.973-4.177-5.88-18.281-3.834z"/><path fill="#fef4f3" d="M171.177 59.433l5.945 1.343-4.756 21.932-9.381-2.202z"/><path fill="#cea39f" d="M162.985 80.506l2.774 6.43 6.607-4.228z"/><path fill="#bb8e2d" d="M149.787 94.259l3.856 1.72 7.695-1.446 5.787 1.892 5.343 5.075 5.315 1.687-4.596-3.508-5.261-6.99-3.115.28-2.344-1.729-8.698 2.88z"/><path fill="#cbad2d" d="M153.643 95.979l18.825 5.521 5.315 1.687-12.195 1.361-10.389-2.901-5.412-7.388z"/><path fill="#c0b275" d="M168.798 54.038l-.276-4.227-13.2-5.375-6.078 1.674 5.681.793z"/><path fill="#eecfcb" d="M207.459 64.013l-21.133 7.057-13.96 11.638 4.756-21.932 4.889-3.7 19.686 3.964zM149.244 46.11l15.409 30.105 6.524-16.782-2.379-5.395-13.873-7.135z"/><path fill="#e1c322" d="M154.441 23.29l76.454 29.559 9.189 28.901 16.179 9.168-15.15-49.696-77.511-30.105z"/><path fill="#e1cf86" d="M163.602 11.117L186.592 0l59.806 11.117 14.446 18.831 9.864 29.485-14.445 31.485-15.15-49.696z"/><path fill="#feeee8" d="M240.084 81.75l-8.875 20.708 14.573 7.586 10.481-19.126z"/><path fill="#a09060" d="M234.313 95.216l.38-31.203 5.391 17.737z"/><path fill="#cea39f" d="M249.392 90.813l-11.252 7.898 4.994-10.98zM231.209 102.458l7.988 19.605 6.585-12.019z"/><path d="M190.8 70.669c0 2.324-1.885 4.208-4.208 4.208-2.325 0-4.209-1.884-4.209-4.208 0-2.325 1.883-4.209 4.209-4.209 2.323 0 4.208 1.884 4.208 4.209z" fill="#2b2c2b"/><circle cx="159.021" cy="63.053" r="4.208" fill="#2b2c2b"/><path fill="#fff" d="M153.643 95.979l18.825 5.521-5.343-5.075-5.787-1.892z"/><path fill="#fff7af" d="M248.335 34.88l12.509-4.932-14.446-18.831z"/><path fill="#a09060" d="M270.708 59.433h-12.331l-2.114 31.485z"/><path fill="#e1cf86" d="M260.844 29.948l9.864 29.485h-12.331L248.335 34.88z"/><path fill="#c0b275" d="M248.335 34.88l-7.222 6.342 15.15 49.696 2.114-31.485z"/><path fill="#a09060" d="M210.989 15.326l-21.91 5.686 52.034 20.21z"/><path fill="#fff7af" d="M186.592 0l-9.47 4.579 11.957 16.433z"/><path fill="#a09060" d="M189.079 21.012L177.122 4.579l-13.52 6.538z"/><g fill="#c0b275"><path d="M205.352 3.487L186.592 0l2.487 21.012 16.273-17.525z"/><path d="M225.893 7.305l-20.541-3.818-16.273 17.525 21.91-5.686z"/></g><path fill="#fff7af" d="M248.335 34.88l-37.346-19.554 30.124 25.896z"/><path fill="#c0b275" d="M246.398 11.117l-16.735 13.987 18.672 9.776 12.509-4.932z"/><path fill="#a09060" d="M256.263 90.918l7.222 4.298-3.769 7.047-13.934 7.781z"/><path fill="#c0b275" d="M256.309 90.918l7.176 4.298 3.246-8.112-2.837-12.819z"/><path fill="#cbad2d" d="M240.084 81.75l16.179 9.168-15.15-49.696-10.218 11.627z"/><path fill="#e1c322" d="M226.459 144.787l14.654 7.597-3.554 42.949L235.382 234h-65.328l-22.845-38.625 10.75-44.125 15.222-11.544 8.12 18.891z"/><path fill="#eecfcb" d="M111.307 172.513l29.005 26.573-25.238 14.008-22.238-27.358-2.835-13.861zM170.792 277.207l-16.333 30.995 14 44.024 20.207 4.616-1.874-44.379 30.333-25.918 6.334-25.208-22 15.87z"/><path fill="#b38a2e" d="M193.98 383.821l-49.758 7.831-1.054-6.921 25.406-7.065 24.212-.768z"/><path fill="#cbad2d" d="M188.709 356.329l4.077 20.592-49.618 7.81 25.333-33.018zM235.382 234l2.177-38.667-90.35.042L170.054 234z"/><path fill="#feeee8" d="M213.209 176.75l13.25-31.963-45.158 13.81-8.12-18.891-9.667 34.794zM201.459 277.207h-30.667l-16.333 30.995 32.333 4.261 35.932-30.593.735-20.533z"/><path fill="#eecfcb" d="M245.165 189.486l24.127 20.014 34.903-8.261 9.931-11.753-10.468-10.413-28.866 3.427-27-12.167z"/><path fill="#feeee8" d="M241.113 152.384l-3.554 42.949 31.733 14.167 5.5-27z"/><path fill="#a09060" d="M245.782 110.044l7.153-3.994V125l-11.822 27.384-14.654-7.597z"/><path fill="#c0b275" d="M245.782 110.044l-6.684 12.019L252.935 125v-18.95zM252.935 125l-26.476 19.787 14.654 7.597z"/><path fill="#eecfcb" d="M319.292 197.667l16.197 1.397 2.845-12.189-.833-10.5-19.75 1-3.625 12.699z"/><path fill="#feeee8" d="M317.959 177.375l11.636-14.867 7.198 2.492-10.919 21.686-7.241.949z"/><path fill="#cbad2d" d="M319.292 197.667l-1.333-20.292-14.301 1.698.537 22.166zM92.836 185.736l18.471-13.223-12.187-11.632-15.954 12.157z"/><path fill="#cea4a0" d="M190.459 285l26.625-6 6.375-17.663z"/><path fill="#846528" d="M180.866 244l-10.074 33.207L190.459 285l19.996-14.339 1.67 20.156L235.969 275l10.66-16.412L235.382 234z"/><path fill="#765a24" d="M235.382 234l-64.59 43.207-.738-43.207z"/><path fill="#feeee8" d="M337.501 176.375L352.126 179l-.864 14.135-15.773 5.929z"/><path fill="#765a24" d="M235.382 234l-23.257 56.817 34.5-3.917.004-28.312z"/></svg>