<svg xmlns="http://www.w3.org/2000/svg" viewBox="0 0 400 400"><path opacity=".1" fill="#2b2c2b" d="M90.133 392.31l81.586-17.394 67.055 15.568-72.92 9.516z"/><path fill="#feeee9" d="M155.065 159.929l-5.619 2.253-20.943 24.858 10.727 39.511-5.756 15.96 18.447 2.748 2.878 4.448 2.747-4.448 25.381-2.748.916-11.12 20.54-36.764 3.905-23.177-8.353-7.871-2.954-5.412z"/><path fill="#e2c521" d="M140.106 173.757l17.44 14.591-17.44 16.048-8.548-6.106-3.055-11.25zM157.546 188.348l34.015-14.591 12.822 20.87-5.585 9.996-16.264 3.349z"/><path fill="#f5d852" d="M157.546 188.348l34.974 27.513-4.562 8.162-30.412-23.115-20.553 17.402-2.288-8.425z"/><path fill="#efb856" d="M150.415 195.072l7.131 5.836 7.997-6.281-7.997-6.279z"/><path fill="#efb856" d="M157.546 200.908l-3.14 5.28 2.487 5.448 3.138-5.448z"/><path fill="#eecfca" d="M157.546 188.348l1.832-12.385-6.32 8.63z"/><path fill="#cdad2c" d="M195.083 163.579l-3.522 10.178 3.418 5.565 6.767-9.317z"/><path fill="#eecfca" d="M150.22 162.182l-38.463-1.046-19.101 15.874 35.847 10.03 11.147-12.759zM45.82 125.29l27.211 12.296 7.066-14.221z"/><path fill="#feeee9" d="M80.097 123.365l-7.066 14.221 19.625 39.424 19.101-15.874z"/><path fill="#cdad2c" d="M128.503 187.04l29.043 1.308-25.988 9.942z"/><path fill="#ae9431" d="M157.546 188.348l-17.259 16.275-8.729-6.333z"/><path fill="#cdad2c" d="M204.383 194.627l-46.837-6.279 41.252 16.275z"/><path fill="#ae9431" d="M198.798 204.623l-16.207 3.427-25.045-19.702z"/><path fill="#efba60" d="M119.999 115.207L45.82 125.29l-13.606 7.326 1.308 15.569 16.877 12.951-6.672 32.837-15.045 7.982-4.449-3.665 10.075-9.942-1.309-18.315-17.139-10.205-4.71-36.463 27.081-36.408 38.203 6.541 30.3-15.24-.947 21.382z"/><path fill="#e3a832" d="M119.999 115.207L105.787 99.64l.947-21.382-30.3 15.24 3.663 29.867z"/><path fill="#efba60" d="M233.227 130.438l45.205-1.748 35.059-5.232 28.522 6.98 2.355 19.185-15.96 20.671-17.01 2.617-20.932-2.617-14.391 22.241 10.206 10.728 21.979-2.879 10.466-12.036h32.967l37.157-34.8-8.897-58.872-59.134-19.886-42.387 16.049-45.943-9.129 1.279 10.529 9.206 11.913z"/><path fill="#e3a832" d="M38.231 86.957l7.589 38.333-13.606 7.326-21.064-9.251zM15.86 159.828l17.662-11.643 16.877 12.951-17.4 8.897zM34.308 188.348l9.419 5.625-15.045 7.982-4.449-3.665zM278.432 90.839l15.091 35.599 20.055-3.503 2.139-13.083 5.102-35.062zM342.013 130.438l37.94-35.762 8.897 58.872-44.482-3.925zM328.408 170.294l23.285 18.054h-32.967l-7.328-15.437zM290.466 170.294l10.641 14.216-14.826 18.753-10.206-10.728z"/><path fill="#b88b2d" d="M318.726 188.348l-17.619-3.838-14.826 18.753 21.979-2.879z"/><path fill="#cb962e" d="M318.726 188.348l25.545-5.755 7.422 5.755z"/><path fill="#e1af56" d="M388.85 153.548l-44.579 29.045 7.422 5.755z"/><path fill="#cb962e" d="M344.368 149.623l14.482-35.056-16.837 15.871z"/><path fill="#e1af56" d="M315.717 109.852l43.133 4.715-16.837 15.871-28.435-7.503z"/><path fill="#b6872d" d="M192.52 249.707l-9.593-7.196-25.381 2.748-2.747 4.448-2.878-4.448-17.216-.589-8.034 5.69v18.97l29.829.915 32.729 19.783 6.693-5.915z"/><path fill="#cb962e" d="M285.992 108.674h16.642l-9.111 17.764z"/><path fill="#e1af56" d="M242.974 104.152l43.018 4.522 7.531 17.764-15.091 2.252-47.235 1.748z"/><path fill="#cb962e" d="M105.787 99.64l-27.594 8.207 1.904 15.518 41.038-3.078v-7.674z"/><path fill="#e1af56" d="M54.279 111.422l23.914-3.575 1.904 15.518-17.139 1.008z"/><path fill="#cb962e" d="M43.116 113.341l-10.902 19.275 13.606-7.326zM15.86 159.828l23.157 7.127-6.018 3.078z"/><path fill="#d9a856" d="M34.308 188.348l4.709-21.393-6.018 3.078z"/><path fill="#cc9d49" d="M123.4 241.202l5.888-.916 4.186 2.225-6.803 7.849z"/><path fill="#795923" d="M126.671 250.36l28.128-.653 1.701 20.538z"/><path fill="#946e2b" d="M192.52 249.707h-37.721l1.701 20.538z"/><path fill="#cc9d49" d="M182.927 242.511l9.593 7.196 1.834-10.075h-5.714z"/><path fill="#efb856" d="M183.843 231.391l-.916 11.12 11.427-2.879zM123.4 241.202l15.83-14.651-5.756 15.96z"/><path fill="#946e2b" d="M122.086 272.078l34.414-1.833-29.829-19.885z"/><path fill="#eecfca" d="M156.5 270.245l-22.555 42.969-11.859-41.136z"/><path fill="#cfa29c" d="M135.611 318.639l11.417 4.777 6.368 17.565-4.646 2.103-5.202-2.875z"/><path fill="#eecfca" d="M165.858 310.297l-21.662 19.126 9.2 11.558 18.842-12.486z"/><path fill="#523c1c" d="M141.063 390.092l10.902-6.893 10.204-6.666 6.28 2.5-1.832 13.333h-4.186v-8.559l-7.414 8.559h-14.041zM169.844 387.252l7.588-9.582 2.18-11.136h9.246l3.576 13.635-3.14 1.668-4.448-7.954-1.658 10.983-13.692 5.607z"/><path fill="#f5d852" d="M126.671 250.36l-14.914 70.649-17.008-25.906z"/><path fill="#cdad2c" d="M126.671 250.36l-24.793 55.602-7.129-10.859z"/><path fill="#f5d852" d="M192.52 249.707l28.608 51.675-21.193 24.858z"/><path fill="#cdad2c" d="M192.52 249.707l19.518 62.338 9.09-10.663z"/><path fill="#eecfca" d="M154.799 227.073v8.373l2.747-4.186z"/><path fill="#feeeea" d="M45.82 125.29l-2.704-11.949 11.163-1.919 8.679 12.905z"/><path fill="#6c5422" d="M296.225 190.686l6.279 1.238 5.674-5.874-7.071-1.54z"/><path fill="#feeee9" d="M247.73 162.357l13.432 20.758 27.081-43.435-9.811-10.99z"/><path fill="#eecfca" d="M225.402 161.834l-19.786 11.4-1.233 21.393 56.779-11.512-13.432-20.758z"/><path fill="#feeee9" d="M315.717 109.852l-13.083-1.178-9.551 17.923 20.408-3.139z"/><path fill="#eecfca" d="M293.083 126.597l-14.651 2.093 9.811 10.99 25.248-16.222z"/><path fill="#feeee9" d="M156.5 270.245l32.729 19.783-45.033 39.395-8.585-10.784-1.666-5.425z"/><path fill="#946e2b" d="M126.671 250.36l6.803-7.849 18.447 2.748 2.878 4.448z"/><path fill="#cc9d49" d="M150.415 195.072l15.128-.434-7.997 6.27zM154.406 206.188h5.625l-3.138 5.448z"/><path fill="#feeee9" d="M118.483 49.267l2.652 63.346 21.981 30.26h29.559l22.099-24.16 5.188-69.446-46.614-17.811z"/><path fill="#eed0cb" d="M161.297 167.885l35.684-9.718 29.984-75.883-27.003-33.017-5.188 69.446-22.099 24.16z"/><path fill="#cea4a0" d="M148.801 142.873l12.496 25.012 24.264-25.012z"/><path fill="#e3d187" d="M155.165 161.136l-7.964 4.164-7.095 8.457-7.968 9.122-4.94-13.359 10.044-12.625-16.107-14.022v-30.26l21.981 30.26h5.685z"/><path fill="#e3d187" d="M121.135 112.613L105.787 99.64l.947-21.382-.947-45.666L145.2 3.411l12.127 7.01L175.707 0l56.089 28.044 7.41 61.119 14.102 16.076-22.271 45.971-1.325 18.382-19.328 19.895-4.768-16.253-15.74-13.132 4.255-17.229L214.5 99.244l12.891-22.312-27.429-27.665-46.614-17.811-34.865 17.811z"/><path fill="#c2b375" d="M105.787 32.592l12.696 16.675 1.516 36.002-13.265-7.011zM119.999 85.269L105.787 99.64l15.348 12.973zM148.801 142.873l-11.559 14.022-16.107-14.022zM127.198 169.52l20.003-4.22 10.345-5.475-10.152-4.446-10.152 1.516z"/><path fill="#a09161" d="M196.981 158.167l8.635 15.067-15.74-13.132zM157.546 159.825l-20.304-2.93 11.559-14.022z"/><path fill="#c2b375" d="M231.037 151.21l-34.056 6.957 8.635 15.067 24.096-3.642zM253.308 105.239l-59.177 37.634 36.906 8.337zM239.206 89.163l-11.815-12.231 4.405-48.888zM199.962 49.267l31.834-21.223L175.707 0l-18.38 10.421-3.979 21.035z"/><path fill="#a09161" d="M199.962 49.267l3.871 41.067 3.358 1.238 2.861-14.64h17.339zM166.285 70.154l2.229-2.774 12.13-1.935 10.387 5.161-10.581-2.581zM144.534 69.775l-1.463-2.843-11.114-2.624-7.208 3.847 6.925-1.113z"/><path fill="#fff5f3" d="M152.375 76.542h5.792l-1 13.542 4.613 8.911-13.396-.064 4.449-8.597z"/><path fill="#cea4a0" d="M148.384 98.865l6.787 5.07 6.609-4.94z"/><path fill="#eed0cb" d="M166.285 70.154l-8.118 6.388-1 13.542 4.613 8.911 13.803-21.12 15.448-7.269-10.581-2.581zM144.534 69.775l7.841 6.767.458 13.792-4.449 8.597-11.134-19.847-12.501-10.929 6.925-1.113z"/><path fill="#fff" d="M142.319 112.255l13.201-1.329 10.281 1.279 8.621.426-6.821 7.012h-19.802z"/><path fill="#ccad2c" d="M142.319 112.255l6.775 6.086 17.32.07 6.423-5.877 2.147.396-7.928 9.269h-19.245l-8.524-11.273z"/><path fill="#eed0cb" d="M161.78 98.995l13.803 9.581-3.166-6.826zM147.75 99.781l-8.463 7.64 2.296-6.504z"/><path fill="#cea4a0" d="M205.692 99.244l4.452 9.332 4.356-6.826v-2.506z"/><path fill="#c2b375" d="M222.344 99.231l-7.84.006-.004.007-4.356 9.332z"/><path fill="#ceae2e" d="M147.201 165.3l-3.207 11.71-3.888-3.253z"/><path d="M179.727 77.438c0 2.288-1.854 4.142-4.143 4.142s-4.144-1.854-4.144-4.142c0-2.288 1.855-4.142 4.144-4.142s4.143 1.854 4.143 4.142zM143.631 77.11c0 2.288-1.854 4.142-4.142 4.142-2.288 0-4.144-1.854-4.144-4.142 0-2.288 1.855-4.142 4.144-4.142 2.288.001 4.142 1.855 4.142 4.142z" fill="#2b2c2b"/><path fill="#9d792c" d="M139.287 110.926l3.032 1.329 30.26.666 2.405.009.963-1.288-3.797.257-7.313-1.73-15.571-.367-5.354 1.363z"/><g><path fill="#765a24" d="M182.316 356.988l-10.078-28.493-18.842 12.486 12.785 15.175 6.105 8.56-2.442 22.536 10.466-4.999 1.962-11.705 6.586-4.014z"/><path fill="#795923" d="M143.548 340.209l11.12 31.248-13.605 18.635h11.905l9.027-10.794 6.454-.265-2.268-8.484v-14.393l-12.785-15.175z"/><path fill="#634822" d="M143.548 340.209l11.12 31.248-13.605 18.635h11.905l9.027-10.794 6.454-.265-2.268-8.484v-14.393l-12.785-15.175z"/></g><path fill="#feeee9" d="M227.391 76.932h-17.339l-4.36 22.312 16.652-.013z"/><path fill="#cea4a0" d="M211.565 92.666L215 80.416h8.25z"/></svg>