<svg xmlns="http://www.w3.org/2000/svg" viewBox="-105.939 -39.625 400 400"><path fill="#a09160" stroke="#0ff" stroke-width="1.6875" d="M51.17 127.652l-1.271-13.98 13.662-11.914 9.055 8.42-1.272 11.596z"/><path fill="#c1b274" d="M22.895 104.777l28.275 22.875 12.391-25.894-7.784-2.859-24.463 2.065z"/><path fill="#e2d086" d="M28.931 75.071l-10.166-2.064 1.747 19.061 2.383 12.709 18.744-1.589L40.05 89.21z"/><path fill="#2b2b2b" fill-opacity=".102" d="M77.54 359.416L.973 343.213l76.567-12.072 77.679 13.025z"/><path fill="#c1b274" d="M18.765 73.007l11.119 6.512L13.522 4.7 1.768 21.856l-5.56 18.109zM104.545 100.488l7.941-14.614 23.034 29.387-3.971 6.354H117.57l-11.119-11.755z"/><path fill="#e2d086" d="M146.641 149.097l25.257-54.645-25.101 1.747-15.248 25.416 6.672 19.698z"/><path fill="#efd0cb" d="M36.079 179.438l8.261-5.561 6.672-11.119 2.224-24.463-2.066-10.643-23.351 28.275-5.401 17.473z"/><path fill="#ffeee9" d="M69.597 116.69l-2.541 1.271-2.224 2.542-3.177.794-10.485 6.355 4.289 21.286 18.268 17.314 47.179-27.322 10.643-17.315-18.108-8.578-2.382 1.747-2.067-3.812-2.541-1.112z"/><path fill="#b58b00" d="M54.666 295.082l.793-17.156 34.471 6.195 4.131 10.164z"/><path fill="#efd0cb" d="M125.195 337.813l6.354-3.653 8.101 13.024h-20.808z"/><path fill="#ffeee9" d="M130.279 307.947l-10.961-1.111-.953 11.121 6.83 19.856 14.455 9.371 2.225-35.264z"/><path fill="#efd0cb" d="M123.924 292.223l6.355 15.724-11.914 10.01L83.1 285.074l16.045-3.496z"/><path fill="#ffeee9" d="M32.426 320.338L13.84 336.066l12.391 5.717h25.257l-2.383-14.931-6.83-8.102z"/><path fill="#efd0cb" d="M8.122 328.916l18.109 12.867-15.091-.158zM33.22 295.398l.477 20.653 6.195 4.129 9.531 2.064 12.55-40.824-16.681-1.904z"/><path fill="#e5c828" d="M42.116 258.229l-10.008-5.084 1.112 42.253 28.753-13.978-10.803-13.662z"/><path fill="#ccad14" d="M53.394 250.443l-21.286 2.702 29.865 28.275 61.951 10.803-10.643-26.53-10.801-1.906z"/><path fill="#e5c828" d="M44.658 243.297l-12.55 9.848 81.173 12.548 11.596-36.218-12.865-3.811z"/><path fill="#f4d75d" d="M56.73 210.572l-24.622 42.573 92.769-23.67-18.426-35.422-9.849-.319-35.9 11.914z"/><path fill="#e5c828" d="M44.34 173.877l12.39 36.695 19.222-6.353 4.447-11.279-6.989-15.567-23.034-11.121z"/><path fill="#ccad14" d="M124.561 161.963H98.508l-24.94 17.633.159 3.496 2.225 21.127 30.499-10.166z"/><path fill="#efd0cb" d="M143.305 177.531l-18.744-15.568-.793-19.697 7.781-20.651 23.033 32.406 1.906 16.52z"/><path fill="#f4d75d" d="M51.17 127.652l-6.83 46.225 29.387 6.99 50.834-18.904 6.988-40.348-58.457 40.348z"/><path fill="#2b2b2b" fill-opacity=".102" d="M73.092 161.963l.476 15.25 3.336 2.543 47.657-17.793 6.988-40.348z"/><path fill="#bf8f00" d="M62.925 127.493l4.131-9.532-5.401 3.336-2.542 5.243.795 3.336z"/><path fill="#856400" d="M57.207 131.782l2.701-1.906 2.223 2.858-3.177 2.225z"/><path fill="#b58b00" d="M57.048 136.707l1.906-1.748 2.065 2.065.636 17.791-1.907 1.271-2.064-.953z"/><path fill="#856400" d="M57.207 159.104l2.541-3.018 3.336 2.224-2.859 2.858z"/><path fill="#bf8f00" d="M59.43 165.141l.795-3.973 3.336 2.225 7.148 12.709-.159 3.812-3.494-1.111z"/><path fill="#856400" d="M73.568 177.213l-3.018 2.701 3.177 3.178 3.177-3.336z"/><path fill="#bf8f00" d="M77.858 175.148l-.954 4.608 4.449-1.748 13.502-14.297.317-4.448-3.971 1.589z"/><path fill="#856400" d="M92.79 154.338l2.382 4.925 4.447-2.859-2.223-3.813z"/><path fill="#b58b00" d="M96.443 148.938l.953 3.653 3.813-1.588 6.672-17.633-1.272-3.494-3.175 1.747z"/><path fill="#856400" d="M104.863 125.904l1.746 3.972 3.813-1.748-2.065-3.812z"/><path fill="#bf8f00" d="M108.992 110.972l-2.222 9.531 1.587 3.813 3.02-3.178 2.064-8.101z"/><path fill="#e5c828" d="M33.697 316.051l-1.271 4.287 10.167 2.543h1.906l-.795-4.291z"/><path fill="#ffeee9" d="M170.469 176.895l-27.164.636 24.939-52.103 11.279.794.477 10.961z"/><path fill="#efd0cb" d="M191.119 109.066l-5.402 2.859-10.324 16.68 4.607 8.578 16.996-6.196 1.59-17.632z"/><path fill="#ffeee9" d="M210.816 99.058l-19.697 10.008 5.877 21.921 13.186-14.614zM169.832 121.933l3.971 5.401 3.972 2.223 6.832-6.353 2.381-25.735-4.765-1.429z"/><path fill="#ccad14" d="M175.074 132.258l4.131 8.419 3.496-1.429-4.765-9.691-2.702.16z"/><path fill="#ffeee9" d="M16.699 124.793l19.38 54.645H9.075l-5.084-44.479 4.131-9.531z"/><path fill="#efd0cb" d="M85.324 27.257l.476 36.218-20.651 37.172 21.604 2.859-13.026 18.268-.317 5.878 33.041-17.792 6.674-18.903 3.492-33.041z"/><path fill="#cea39f" d="M105.34 55.374l-3.973 4.924 13.026 7.625.158-9.054z"/><path fill="#ffeee9" d="M100.732 46.955l.635 13.343 9.055.636z"/><path fill="#b58b00" d="M67.056 117.961l8.101 20.651 33.835-27.64-2.541-1.112-30.499 24.94-2.542-7.148.953-6.672-4.925-4.448z"/><path d="M67.374 148.461l1.27-6.195 6.513-3.654 6.514 3.971-.954 6.195-7.466 4.29-5.877-4.607zm2.541-.953l.636-3.813 4.448-2.224 3.813 2.224-.635 4.13-4.766 2.224-3.496-2.541z" fill="#e5c828"/><path fill="#cea39f" d="M67.691 97.469l-4.13 4.289 9.849 25.894 19.38-28.275-17.474 1.27z"/><path fill="#ffeee9" d="M14.317 10.26l-4.29 6.672 8.738 56.075 13.819 18.426 1.748 7.466 7.307 4.289 33.677-2.541 16.997-34.154-2.224-29.705L76.428 9.466 36.556-4.672z"/><path fill="#e2d086" d="M55.459-38.666l-.317 20.809L37.827 3.111-3.792 39.965 13.046-14.68z"/><path fill="#fff7ae" d="M100.732-25.005L55.459-38.666 37.827 3.111l40.031 9.214 23.669-26.687z"/><path fill="#e2d086" d="M122.494 11.69l-21.762-36.695-22.874 37.33 12.39 26.369 23.828-7.942z"/><path fill="#efd0cb" d="M17.494 39.806l6.513-4.447 13.344 2.859 3.177 5.083 3.494 10.961-2.542 8.101-12.549-16.997zM49.582 36.153l-3.972 6.513-1.588 11.596 5.719 9.849 9.213-20.81 15.409-10.167L63.72 29.64z"/><path fill="#a09160" d="M35.603 35.359l1.748 2.859-13.503-1.747-6.354 3.335 5.56-5.401zM51.17 32.499l-1.588 3.654 14.773-5.242 10.008 2.223-10.167-4.765z"/><path fill="#cea39f" d="M46.722 69.512l3.019-5.401-5.401-3.336-2.701 4.447z"/><path fill="#fff5f3" d="M40.528 43.301l1.111 21.921 8.102-1.111-4.131-21.445z"/><path d="M29.249 42.189c2.105 0 3.812 1.707 3.812 3.813 0 2.105-1.707 3.813-3.812 3.813-2.106 0-3.812-1.708-3.812-3.813 0-2.106 1.706-3.813 3.812-3.813zM60.86 38.377c2.105 0 3.812 1.707 3.812 3.812 0 2.105-1.707 3.813-3.812 3.813-2.106 0-3.813-1.708-3.813-3.813.001-2.105 1.707-3.812 3.813-3.812z" fill="#2b2b2b"/><path fill="#ccad14" d="M42.593 322.881l1.111-4.291 7.466 4.767-1.905 3.655z"/><path fill="#e5c828" d="M169.832 121.933l-1.588 3.495 6.83 6.83 2.862-2.701zM37.033 76.66l8.895 9.214 10.802-1.431 10.007-11.754-18.426 2.382z"/><path fill="#fff" d="M40.845 76.024l5.877 6.354 8.42-1.111 7.148-8.26-13.979 2.064z"/><path fill="#ccad14" d="M47.676 73.324L37.033 76.66h12.072l17.632-3.971z"/><path fill="#efd0cb" d="M81.67 66.493l-6.195 4.925-.159 7.783z"/><path fill="#fff7ae" d="M110.422 60.934l-20.174-22.24 32.246-27.004 24.942 20.015-16.998 19.697z"/><path fill="#e2d086" d="M148.707 63.158l-1.271-31.453-37.014 29.229 2.703 30.023 24.777-9.055z"/><path fill="#fff7ae" d="M131.549 121.615l-18.424-30.658 35.582-27.799 23.191 31.294z"/><path fill="#cea39f" d="M-1.568 129.398l5.559 5.561 6.513-4.766-2.7-11.279z"/><path fill="#858686" d="M-15.389 125.11l27.323-19.698 3.813-10.643 10.166 9.69 5.401 14.138H17.017l-26.846 15.726-7.149-3.336z"/><path fill="#ffeee9" d="M6.533 124.793l-16.521-3.655L.655 101.6l4.13 1.271 8.579 9.531z"/><path fill="#cececd" d="M-15.389 125.11l5.56 9.213-6.671 4.131-6.196-8.261z"/><path fill="#efd0cb" d="M17.335 107.001l-12.55-4.13-1.746 5.559 6.512 3.018-3.018 13.345 3.971 5.4 6.354-4.924z"/><path fill="#ababab" d="M32.584 91.433l-12.548.635 5.877 12.391 10.008 10.961 5.718-12.232z"/><path fill="#cececd" d="M20.036 92.068l-4.289 2.701 15.567 23.828 4.607-3.177z"/></svg>