<svg xmlns="http://www.w3.org/2000/svg" viewBox="391.89 1016.969 900 350"><g fill-rule="evenodd" clip-rule="evenodd"><path fill="#DDDDDC" d="M1190.137 1027.975l-42.164 9.965 40.42 22.529 35.33-6.716 19.483 4.333 42.601-16.68-47.69-15.164-31.114 9.532z"/><path fill="#ECECEB" d="M1285.807 1041.406l-44.782-22.096-23.117 10.181-22.1-10.397-47.835 18.846 56.413 4.765 28.206-9.098z"/><path fill="#DDDDDC" d="M435.806 1076.594l-36.403 7.075 34.897 15.994 30.504-4.767 16.82 3.076 36.78-11.842-41.173-10.766-26.863 6.767z"/><path fill="#ECECEB" d="M518.404 1086.13l-38.662-15.688-19.959 7.229-19.081-7.383-41.299 13.381 48.705 3.383 24.353-6.459z"/></g><path fill="#5E5E5E" d="M743.322 1279.291l43.707-42.705-25.725-96.648-47.7-46.951-11.611-16.859-158.212 37.711s-22.228 52.32-24.228 47.575c-2.121-4.745 0 58.692 0 58.692l27.847 50.071 20.491 10.793 175.561-1.803-.13.124z"/><path fill="#686868" d="M591.39 1114.469l29 35-4 74.5 27 18.5 15.056-7.454 71.444 4.954-22.5-120.5z"/><path fill="#A0A0A0" d="M814.223 1272.969l-49.183-52.027-208.15-.723-8.667 76.75z"/><path fill="#5E5E5E" d="M1064.118 1283.786l-47.576-26.095-36.838-30.596 20.607-75.296 58.313-39.333 76.923 26.221 27.842 53.946 49.326 70.301-71.176 30.592z"/><path fill="#686868" d="M1068.557 1132.135l-35.667 33.834-4 73.666-47.333-8 .666-63 67.667-45.333z"/><path fill="#A0A0A0" d="M994.223 1261.302l-4.958-35.333 40.875-3.125 123.75 4.625 18 31.833-27.667 30z"/><path fill="#BA8B01" d="M1227.075 1160.166l-9.865-.624 8.866 6.242 1.997-2.246z"/><path fill="#C6AA00" d="M1213.588 1236.211l15.736-88.409 14.735-1.871 13.112 6.741 5.743 16.36-44.955 80.915z"/><path fill="#BA8B01" d="M1213.713 1235.836l4.247-23.6 23.85-73.55 1.626-1.248-2.375 12.863-27.348 85.659v-.124zm10.367 3.373l-5.996 10.738-1.872-5.992 25.597-81.044 13.611-6.866-31.34 83.164z"/><path fill="#E0C60A" d="M1229.324 1147.802l13.986-10.488 16.605 8.367 2.999 23.351-7.619-12.988-13.611 6.866-.624-12.733z"/><path fill="#BA8B01" d="M1197.357 1178.896l9.615 52.321 11.611-1.872-2.246-56.317-3.622-3.747z"/><path fill="#C6AA00" d="M1210.469 1230.717l2.995-.498-2.122-60.189-5.743 3.622z"/><path fill="#E0C60A" d="M1197.357 1178.896l18.98-5.868-.25-5.871-9.739-3.993z"/><path fill="#BA8B01" d="M1239.937 1196.753l19.105 8.119 6.991 8.736-2.87-8.865 17.109-11.238-4.121-7.364-34.592 6.617z"/><path fill="#E0C60A" d="M1243.185 1188.137l-1.626 4.621 23.351 3.497 11.241-10.114-11.241-2.624-13.237 5.618z"/><path fill="#6F7173" d="M980.578 1278.417l-195.046-12.608-66.417-37.644-35.725-136.196 105.885-38.569 97.775-3.372 104.519 32.965 18.855 57.818-10.113 10.988-5.421 22.17-8.333 55.333z"/><path fill="#DDDDDC" d="M763.557 1280.969l21.333-20.667 56.667-38 138.583 2.792 149.75 38.875 14.768 36.801-119.768 33.532-154-36.667zM535.89 1309.969l25.25-41.25 86.75-20.417 90 9.667 2.667 23.666-53.167 46.834-105.867 2.794z"/><path fill="#CFCECD" d="M652.557 1251.635l25.916-10.583 86.567-20.11 70.183 24.693-94.666 36z"/><path fill="#858686" d="M464.113 1180.269l42.955-1.373 24.349-28.345 15.732-2.375 15.362-27.597 29.843-8.862-17.483-17.483-6.991-12.364-42.705 14.36z"/><path fill="#707070" d="M565.381 1082.619l-36.588 12.364-.125.125-.749 16.36-6.117 24.224 16.735-17.982.249-11.615z"/><path fill="#DDDDDC" d="M648.223 1026.302l-83.84 44.082-5.494 5.245-6.616 9.739 2.495 6.616 33.34 3.747 119.628-11.112 108.762-24.353 42.954-8.114-25.97-14.858-54.695 3.368z"/><path fill="#BFBFBF" d="M558.64 1075.878l-26.724 16.231-3.248 2.999 11.241-3.748 6.491-.373 8.368.997 15.233-13.361.249-2.994-2.12-3.373z"/><path fill="#8F8F8F" d="M635.683 1117.835l-39.582-10.738-21.23-12.863 241.627-33.968-17.608 34.343z"/><path fill="#858686" d="M534.519 1185.263l30.704-36.628 9.778-15.317-25.137-12.739-16.54 28.35z"/><path fill="#6C6D6D" d="M522.766 1150.551l-5.439 20.976 17.192 13.736 15.345-64.684z"/><path fill="#C4C4C3" d="M635.683 1117.835l-70.46 30.8-15.25-28.679 24.898-25.722z"/><path fill="#9DA1A2" d="M464.113 1180.269l8.271 18.231 18.715-2.12 25.575 8.74 17.845-19.857-11.753-34.712z"/><path fill="#6F7173" d="M509.491 1228.847l-14.475-10.618-3.917-21.849 43.42-11.117 11.427 34.967z"/><path fill="#8F8F8F" d="M467.592 1309.262l4.574-75.047 18.933-37.835 16.431 23.85 4.679 59.565-11.314 28.095z"/><path fill="#858686" d="M430.769 1289.659l37.336 19.603 22.994-112.882-26.986-16.361-8.741 28.72-25.851 23.725 7.12 38.214z"/><path fill="#9DA1A2" d="M1033.14 1058.719l-72.25 29.25-88.699-21.706-12.739-14.111-80.665-11.49 150.436-14.027z"/><path fill="#858584" d="M1160.769 1124.326l-21.605-6.741-22.223-18.98 24.473-36.214z"/><path fill="#8F8F8F" d="M928.383 1102.348l11.865-24.599-9.117-11.736-71.679-13.861-42.954 8.114 39.461 36.588z"/><path fill="#DDDDDC" d="M975.584 1065.14l-2.87 20.478-44.331 16.73 2.748-36.335z"/><path fill="#9DA1A2" d="M1001.184 1093.86l7.24-17.358-32.84-11.362-47.201 37.208 61.84 8.954 9.335-3.706z"/><path fill="#858686" d="M994.39 1173.302l-4.167-62 10.961-17.442 12.359 29.094-1.486 26.515z"/><path fill="#DDDDDC" d="M1128.802 1099.104l-127.618-5.244-25.6-28.72 86.662-27.846 79.168 25.097z"/><path fill="#818181" d="M1145.037 1141.934l-25.976-4.495-24.598-12.738-33.091.877-41.649-14.109-18.539-17.609 127.618 5.244 20.73 36.838z"/><path fill="#C4C4C3" d="M1123.932 1150.551l-111.875-1.082-10.5-55.334 51.947 16.58 39.712 13.487 22.098 11.989z"/><path fill="#9DA1A2" d="M1145.037 1141.934l-21.105 8.617-30.716-26.349z"/><path fill="#858686" d="M1163.014 1260.56l-14.817-41.707-24.265-68.302 21.105-8.617 10.862 40.834z"/><path fill="#C4C4C3" d="M1198.479 1288.905l-35.465-28.345-17.977-118.626 55.314 106.641z"/><path fill="#9DA1A2" d="M1263.557 1303.969l-52.667 17.916-22.649-20.241-10.601-29.675-32.603-130.035-16.235-42.83 31.967 25.222 65.307 111.137 45.954 16.61z"/><path fill="#858686" d="M1236.814 1253.694l54.82-2.499.131 16.524-28.208 36.25-24.119-45.78z"/><path fill="#9DA1A2" d="M1266.661 1235.712l24.973 15.483-54.82 2.499 7.743-12.613z"/><path fill="#8F8F8F" d="M1226.076 1235.463l40.585.249-29.847 17.982z"/><path fill="#6F7173" d="M422.281 1212.111l8.363 11.363 21.105-2.496 3.623-12.239z"/><path fill="#858686" d="M415.161 1234.589l7.12-22.478 29.468 8.867-15.482 15.608z"/><path fill="#9DA1A2" d="M392.808 1243.955l22.353-9.366 36.588-13.611-8.616 28.095-23.351 5.744z"/><path fill="#6F7173" d="M393.307 1262.686l-.499-18.731 28.974 2.998 21.351 2.12-6.492 21.605z"/><path fill="#F4D75C" d="M568.13 1072.256l-3.872-1.996-5.494 4.62.374 5.119z"/><path fill="#B38C2E" d="M570.25 1075.629l-2.12-3.373-2.874 2.499 3.248 2.495zM566.758 1078.373l-2.126-3.119-2.495 2.121 2.994 2.499zM563.385 1081.496l-1.876-3.622-2.371 2.125 2.625 2.745zM546.4 1090.987l-3.746-1.997-5.494 4.621.374 5.119z"/><path fill="#F4D75C" d="M548.651 1094.359l-2.251-3.372-2.744 2.499 3.244 2.495zM545.028 1097.228l-2.125-3.243-2.37 2.12 2.998 2.5zM541.656 1100.227l-1.747-3.498-2.375 2.001 2.5 2.744zM558.764 1074.88l-8.616-2.5-12.863 7.245-14.859 20.477 5.868 3.123 4.495-7.743 4.371-1.871 5.494-4.621 16.484-8.991z"/><path fill="#B38C2E" d="M558.764 1074.88l-8.616-2.5-12.863 7.245 5.369 9.365 16.484-8.991zM532.415 1111.967l.374-16.485-10.363 4.62.998 10.863 3.747 3.372z"/><path fill="#F4D75C" d="M528.419 1122.205l3.996-10.238-8.991-1.002 1.003 9.365.997 3.996z"/><path fill="#B38C2E" d="M521.802 1135.692l6.617-13.487-3.992-1.875z"/><path fill="#CCAD14" d="M555.517 1065.016v8.862l-.125 8.242-17.359-4.62.379-6.492 13.233-7.494z"/><path fill="#F4D75C" d="M545.028 1067.261l10.489 6.617-.125 8.242-8.742-2.37z"/><path fill="#DDDDDC" d="M555.069 1059.578c-2.435-.822-5.076.486-5.898 2.921-.822 2.439.486 5.081 2.921 5.903 2.439.821 5.081-.486 5.903-2.921.821-2.44-.487-5.081-2.926-5.903zM538.063 1068.517c-2.439-.821-5.08.486-5.902 2.926-.822 2.435.486 5.076 2.925 5.898 2.435.826 5.076-.486 5.898-2.921.827-2.44-.486-5.081-2.921-5.903z"/><path fill="#737474" d="M556.514 1063.514l-4.116-1.497-.504 4.62 1.626-3.372zM539.535 1072.755l-3.997-1.497-.499 4.62 1.622-3.373z"/><path fill="#2B2B2B" fill-opacity=".102" d="M434.565 1316.991c.749-.125 31.094-6.621 31.094-6.621l28.595 11.117-33.59 11.236-26.1-15.857v.125z"/><g><path fill="#BA8D00" d="M446.929 1319.237l-10.238-53.194-5.872-5.248 5.123.753-.125-4.62 17.354-.374 5.119 42.331-2.869 24.224-4.371.623z"/><path fill="#C6AA00" d="M441.81 1256.803h3.622l5.618 66.929-4.121-4.495zM464.038 1254.553l-10.867 2.001 2.25 66.555 3.747-3.124z"/><path fill="#DEC708" d="M448.925 1245.313l-13.108 11.615 17.479 3.747 10.742-6.122z"/><path fill="#BA8D00" d="M444.554 1290.143l-13.611.125-6.367-7.993 2.874-7.619 7.365 9.993 9.24.125z"/><path fill="#DEC708" d="M435.563 1281.526l-8.113-6.87 5.493 11.74 11.362.124-.374-4.12z"/><path fill="#BA8D00" d="M462.661 1272.036l7.619 1.622-7.868 2.499zM465.784 1320.984l1.623-27.094 24.228 4.87-11.99 23.102-7.992 1.745z"/><path fill="#C6AA00" d="M473.403 1295.137l8.737 1.622-10.487 26.848-2.995-1.247z"/><path fill="#DEC708" d="M481.517 1288.267l-14.11 5.623 5.497 4.495 18.731.375z"/></g><path fill="#818181" d="M810.755 1145.557l-175.072-27.722 77.796-24.849 56.816 5.619 73.924.249 84.164 3.494 61.84 8.954-149.002 31.131z"/><path fill="#9DA1A2" d="M816.498 1060.266l111.885 42.082-81.28 8.56-76.683 13.418-56.941-31.34 80.167-25.476z"/><path fill="#C4C4C3" d="M740.557 1281.635l30.234 20.719 30.349-4.135 22.5 3.75 44.25-5 19.25-2.25 17.097-24.106-6.014-16.978-12.561.259-47.905-27.779z"/><path fill="#CFCECD" d="M815.64 1298.469l-27.25 23.5-2 11-14.225 8.191-19.775 17.809-195.59-14.344 24.723-13.362 159.034-49.628z"/><path fill="#DDDDDC" d="M868.223 1367.302l-115.833-8.333 62-61.5 53.5-.5 21.75 7.5 30 59z"/><path fill="#CFCECD" d="M867.89 1296.969l51.75 66.5 40.25-53.167-1.607-37.276-46.06-7.391-7.986 4.978z"/><path fill="#C4C4C3" d="M958.283 1273.026l-38.643 90.443 229.25-10-19-21-16 7.833z"/><path fill="#CFCECD" d="M958.283 1273.026l10.94-13.391 20.815 4.663 87.852.337 88.667 34.334-41.334 34.666-11.333 6.667z"/><path fill="#C4C4C3" d="M977.557 1222.635l84.202 23.992 5.798 16.008-28.334 2-49.185-.337-23.481-19.329z"/><g><path fill="#2B2B2B" fill-opacity=".102" d="M1024.769 1265.041l-93.546 19.928-64.877-25.317 24.544-9.017 73.146-1.379 33.801 8.355z"/><path fill="#6F7173" d="M958.283 1273.026l31.755-8.728-2.227-15.419-28.97 6.5-3.348 9.104z"/><path fill="#9DA1A2" d="M904.237 1270.613l54.046 2.413.558-17.647-52.563-2.784-4.646 6.873z"/><path fill="#737373" d="M885.662 1253.894l18.575 16.719 2.041-18.018-13.187-8.913z"/><path fill="#8F8F8F" d="M987.811 1248.879l-29.156 11.701-52.933-2.969-12.631-13.929 16.718-5.758 63.517 1.299z"/><path fill="#CCAC13" d="M921.692 1151.931l24.333 2.048 25.624 1.113.75-3.531-.186-5.567-25.632 2.597z"/><path fill="#E4C82D" d="M972.213 1145.994l-25.632-2.048-26.56-.556v3.531l1.671 5.01z"/><path fill="#755700" d="M945.467 1138.002l-4.459 6.501 10.404.563zM972.213 1145.994l3.34 2.597 2.968 4.275-7.242 6.122-.372-2.597.742-1.299z"/><path fill="#CCAC13" d="M972.213 1145.994l.741-4.089 2.599-4.646 2.412 8.92.556 6.687z"/><path fill="#BF8E00" d="M975.553 1137.259l10.032 12.26-7.064 3.347z"/><path fill="#856400" d="M972.213 1145.994l3.34-8.735 2.041-4.824-12.625 6.687-1.861 6.5z"/><path fill="#BF8E00" d="M973.512 1134.848l-8.171-10.398-3.346 4.083-2.041 3.531 2.597 4.454 2.976 2.975z"/><path fill="#CCAC13" d="M965.527 1139.493l-5.573-7.429-4.089 4.825-4.453 8.177 11.696.556z"/><path fill="#CCAC13" d="M965.341 1124.45l-17.09 2.784 7.614 3.525 4.089 1.305z"/><path fill="#BF8E00" d="M959.954 1132.064l-11.703-4.83.556 6.686 2.605 11.146z"/><path fill="#755700" d="M914.448 1152.68l8.549 5.195-.378-3.711-.927-2.233-3.34-.37z"/><path fill="#CCAC13" d="M951.412 1145.066l-5.759-6.316-3.718-3.16-1.854-2.969 2.598-3.717 2.788-2.784 2.041-2.604.743 3.718z"/><path fill="#BF8E00" d="M940.081 1132.621l-3.532-2.604-2.969-4.454.556-4.459 11.331 5.016z"/><path fill="#856400" d="M940.081 1132.621l-6.501-7.058-5.758 4.083.927 6.129 2.233 8.171 6.315-6.687zM915.933 1143.204l-5.195 10.032 10.954-1.305-1.671-8.541-1.669-.557z"/><path fill="#BF8E00" d="M927.822 1129.646l-5.017 2.789-2.412 2.784 3.717 3.346 6.872 5.381z"/><path fill="#CCAC13" d="M927.822 1129.646l-14.115-.186 6.686 5.759zM920.393 1135.219l-10.398 7.799 10.026.372 10.961.556z"/><path fill="#BF8E00" d="M940.081 1132.621l-9.099 11.325 3.154 8.734 6.872-8.177 4.645-5.753z"/><path fill="#FFE6D6" d="M971.649 1155.092l-3.154 34.729-15.97.186-2.975 2.784-2.784 3.902-7.613 2.227-6.872 3.532-3.346-19.317-2.97-10.959-2.041-9.841.372-4.274-2.604-6.13z"/><path fill="#C3937C" d="M931.724 1168.836l-1.113-5.017-3.532.743z"/><path fill="#F5CAB3" d="M941.38 1153.051l1.299 37.142 9.846-.186-5.759 6.686-7.799 6.502-8.542-10.034-4.46-20.985 9.099-1.856-.928-5.574 4.831-.927-2.047-10.953z"/><path fill="#F4CAB3" d="M947.324 1160.479l4.273 1.299 2.783 8.542.372-13.187zM960.882 1157.319l-.372 10.218 3.34-5.759 4.459-.927z"/><path fill="#856400" d="M954.752 1157.133l-7.8.186.372 3.16zM960.882 1157.319l7.799.371-.372 3.161z"/><path fill="#FFF1E8" d="M960.882 1157.319l-6.13-.186-.372 13.187 6.13.185z"/><path fill="#C4937D" d="M960.51 1170.505l-3.16 2.976-2.97-3.161z"/><path fill="#755800" d="M950.478 1177.377l6.686-1.855 5.944 2.412-5.944 1.861z"/><path fill="#B58A00" d="M964.969 1177.377l-7.991 2.041-8.727-2.783 8.541 5.573z"/><path fill="#755700" d="M935.807 1170.134l2.047 9.841-9.848 2.047-2.041-9.846 9.842-2.042zm-7.243 3.903l1.113 5.382 5.387-1.113-1.113-5.381-5.387 1.112z"/><path fill="#B58A00" d="M931.168 1166.794l-2.233.557 1.49 7.428 2.412-.371z"/><path fill="#856400" d="M936.92 1152.866l2.047 10.953-4.831.927-.927-4.267-9.285 1.856-2.232-10.404z"/><path fill="#C3937C" d="M952.525 1190.007l-13.372.186 7.613 6.5 4.09-3.532z"/><path fill="#464646" d="M950.856 1193.161l10.212 3.532 7.985 15.414-1.663 1.737-6.938 7.062-38.145 1.396-6.042-9.646-1.75-1.187 7.918-14.96 7.992-3.348 8.542 10.034z"/><path fill="#856400" d="M961.252 1242.193l-6.5 11.331h-28.415l-6.5-10.584 2.041-26.559 3.346-3.902 3.34-1.857 26.002-1.299 3.162 1.485 3.34 4.459z"/><path fill="#BF8E00" d="M961.068 1196.693l-.053 22.151-6.449-9.521.743-14.671zM927.45 1194.466l1.114 16.156-6.799 6.034.668-20.147z"/><path fill="#9E7700" d="M933.023 1233.093h17.641v-17.826h-17.641z"/><path fill="#FFE6D6" d="M930.982 1239.223l9.47 1.113v9.662l-1.299 1.855-1.113.558-8.363-8.913z"/><path fill="#F4CAB3" d="M940.452 1240.336l-3.156-.37 3.156 3.16v-2.79zm0 3.162l-1.113 5.758-1.857 2.041-2.047 2.412 4.831 4.459v-14.671h.186z"/><path fill="#C3937C" d="M940.452 1248.507l-1.671 7.991 1.671 1.671zM929.677 1243.498l.192-2.42 1.113-1.855 4.639.557-4.453 5.201z"/><path fill="#BF8E00" d="M903.123 1246.836l1.3-18.387 16.341 2.789-2.412 9.47-3.718 9.29z"/><path fill="#E4C82D" d="M920.764 1231.238l6.129 2.412-5.387 8.357-6.872 7.991z"/><path fill="#CCAC13" d="M926.893 1233.65l-12.259 16.348 11.703 3.526 1.113-9.842z"/><path fill="#E4C82D" d="M926.893 1233.65l5.202 2.233-5.758 17.641z"/><path fill="#2B2B2B" d="M967.939 1164.191l-5.574-.186.186 1.484 5.388-.371zM946.025 1163.633h6.128l-.184 1.485-5.944-.372z"/><path fill="#FFE6D6" d="M909.525 1225.218l6.74-12.562 5.5 4-.625 9.396-3.53 4.63-5.574-4.089z"/><path fill="#F4CAB3" d="M912.327 1220.406l-14.66 1.069.556 7.244 19.387 1.963z"/><path fill="#F4CAB3" d="M890.61 1220.176l7.613 7.243-.556-5.944-2.976-8.355h-2.596v4.088z"/><path fill="#FFE6D6" d="M886.892 1222.41l11.331 6.309-.556-7.244-4.645-2.041 1.669-2.412-2.596-3.902-8.171 4.644zM973.835 1223.926l-5.82-10.645-7 5.563v5.187l4.326 6.651 5.566-4.089z"/><path fill="#F4CAB3" d="M970.827 1219.281l15.306 2.493-.743 5.945-20.049 2.777z"/><path fill="#F4CAB3" d="M993.189 1220.475l-7.799 7.244.743-5.945 2.968-8.355h2.605v4.088z"/><path fill="#FFE6D6" d="M995.515 1222.844l-10.125 4.875.743-5.945 4.638-2.04-1.856-2.413 2.791-3.902 6.785 4.778zM950.106 1239.223l-9.654 1.113v9.662l1.483 1.855 1.114.558 8.363-8.913z"/><path fill="#F4CAB3" d="M940.452 1240.336l3.154-.37-3.154 3.16v-2.79zm0 3.162l1.113 5.758 1.855 2.041 2.047 2.412-4.831 4.459v-14.671h-.184z"/><path fill="#C3937C" d="M940.452 1248.507l1.855 7.991-1.855 1.671zM951.412 1243.498l-.186-2.42-1.12-1.855-4.639.557 4.454 5.201z"/><path fill="#BF8E00" d="M981.683 1245.909l-2.227-17.269-14.115 1.856-5.017.742 2.413 9.47 3.717 9.29z"/><path fill="#E4C82D" d="M960.324 1231.238l-6.128 2.412 5.387 8.357 6.871 7.991z"/><path fill="#CCAC13" d="M954.196 1233.65l12.258 16.348-11.702 3.526-1.114-9.842z"/><path fill="#E4C82D" d="M954.196 1233.65l-5.203 2.233 5.759 17.641z"/></g><g><path fill="#6F7173" d="M1128.057 1255.135l-1.334 24-18.042 15.058-12.708-1.808 7.917-32.583z"/><path fill="#8F8F8F" d="M1134.39 1269.969l-12.25 3.25-18.583 20.25 28.833 5 7.333-20.834z"/><path fill="#DDDDDC" d="M1104.89 1248.594l17.875 5.125 8.625-19.25-16.257-7.598z"/><path fill="#8F8F8F" d="M1100.39 1236.969l14.875 9.25 16.125-11.75 12.5 38-11.467-.169-10.2.752z"/><path fill="#DDDDDC" d="M1139.39 1259.969l16 14.25-21.75 4.5-11.5-5.5z"/><path fill="#F5CAB3" d="M1051.89 1222.719l-10.667 10.416-11-10.166 5.667-12z"/><g fill-rule="evenodd" clip-rule="evenodd"><path fill="#CBAD2D" d="M1124.509 1183.161l-29.44-7.137-30.659-8.998.421-4.416 2.502-6.458 29.162 13.219z"/><path fill="#E4C729" d="M1067.333 1156.152l31.12 7.711 31.434 10.062-1.341 4.038-4.037 5.198z"/><path fill="#755924" d="M1101.891 1157.341l2.841 9.437-12.448-3.537zM1067.333 1156.152l-4.978 1.664-5.428 3.949 6.329 9.999 1.395-2.849-.241-1.889z"/><path fill="#CBAD2D" d="M1067.333 1156.152l.64-5.083-1.224-6.609-6.358 9.463-3.464 7.842z"/><path fill="#BC8F2D" d="M1066.749 1144.46l-17.607 10.958 7.785 6.347z"/><path fill="#836528" d="M1067.333 1156.152l-.584-11.692-.351-6.431 12.108 12.723-.296 8.49z"/><path fill="#BC8F2D" d="M1070.212 1142.394l13.724-9.042 2.377 6.201.897 4.907-4.861 4.215-4.609 2.332z"/><path fill="#CBAD2D" d="M1077.74 1151.007l9.47-6.547 2.957 7.383 2.117 11.398-14.074-3.999z"/><path fill="#CBAD2D" d="M1083.936 1133.352l19.176 10.172-10.483 1.143-5.419-.207z"/><path fill="#BC8F2D" d="M1087.21 1144.46l15.902-.936-3.369 7.598-7.459 12.119z"/><path fill="#755924" d="M1132.703 1187.052l-12.07 2.671 1.889-4.239 1.987-2.323 4.005.967z"/><path fill="#CBAD2D" d="M1092.284 1163.241l9.097-5.006 5.678-2.429 3.419-2.577-1.434-5.556-2.291-4.432-1.42-3.809-2.221 4.092z"/><path fill="#BC8F2D" d="M1110.478 1153.229l5.237-1.663 5.228-4.125 1.107-5.436-15.297 1.236z"/><path fill="#836528" d="M1110.478 1153.229l10.465-5.788 4.326 5.667-2.593 8.204-5.921 8.882-4.862-10.598zM1134.669 1175.347l2.376 13.766-12.536-5.952 5.378-9.236 2.286-.125z"/><path fill="#BC8F2D" d="M1125.269 1153.108l5.679 6.762 1.687 4.057-5.653 2.486-10.227 3.781z"/><path fill="#CBAD2D" d="M1125.269 1153.108l17.655 6.961-10.289 3.858zM1132.635 1163.927l9.237 13.563-11.985-3.565-13.132-3.731z"/><path fill="#BC8F2D" d="M1110.478 1153.229l6.277 16.965-7.114 8.976-4.909-12.392-3.351-8.543z"/><path fill="#FFE6D6" d="M1064.41 1167.026l-10.289 42.209 18.708 6.665 2.475 4.439 1.734 5.733 8.046 5.582 6.686 6.929 11.65-21.502 7.933-11.667 6.342-10.718 1.341-5.276 5.473-6.259z"/><path fill="#C4937D" d="M1106.039 1199.135l3.186-5.359 5.177 2.679-4.492 2.117z"/><path fill="#F5CAB3" d="M1100.708 1176.771l-16.289 43.164-6.679-.031-2.877 14.883 16.907 3.796 10.193-17.265 1.149-3.668 1.88-1.463 6.361-10.773-9.833-5.842 3.229-6.121-5.379-3.157 6.895-12.031zM1090.944 1183.082l-5.668-.288-6.601 9.137 1.253-10.474 3.63-5.313zM1076.048 1173.96l-4.74 15.749-.098-11.372-5.214-3.094z"/><path fill="#836528" d="M1083.558 1176.144l8.953 3.357-1.567 3.581zM1076.048 1173.96l-9.219-2.536-.833 3.819z"/><path fill="#755924" d="M1080.406 1201.784l-7.25-4.914-7.772.524 6.217 4.654z"/><path fill="#B28B2E" d="M1063.241 1196.023l8.615 5.514 11.496.332-12.277 3.04z"/><path fill="#836528" d="M1106.265 1178.263l-6.895 12.031 5.379 3.157 2.806-4.56 10.14 5.805 6.814-11.535z"/><path fill="#C4937D" d="M1072.829 1215.9l15.784 5.495-8.313 11.385zM1101.577 1202.87l2.407 9.454 4.997-5.509zM1094.208 1209.78l7.756 11.538 3-5.148-3.583-3.846z"/><path fill="#755924" d="M1100.597 1199.024l10.756 6.39-6.389 10.756-10.756-6.39 6.389-10.756zm.98 3.846l-3.524 5.931 5.931 3.523 3.523-5.931-5.93-3.523z"/><path fill="#B28B2E" d="M1102.4031997 1205.2794359l4.8975504-8.2428036 2.613488 1.552832-4.8975504 8.2428036z"/><path fill="#FFF1E8" d="M1076.048 1173.96l7.51 2.184-4.883 15.787-7.367-2.222z"/><path fill="#C4937D" d="M1071.308 1189.709l2.573 4.794 4.794-2.572z"/><path fill="#2B2B2B" d="M1082.487 1187.446c0 1.271 1.031 2.302 2.302 2.302s2.302-1.031 2.302-2.302c0-1.272-1.031-2.302-2.302-2.302s-2.302 1.031-2.302 2.302zM1066.938 1182.298c0 1.272 1.031 2.302 2.302 2.302 1.272 0 2.302-1.031 2.302-2.302s-1.031-2.302-2.302-2.302c-1.272 0-2.302 1.031-2.302 2.302z"/></g><path fill="#FFE6D6" d="M1051.89 1219.969l-7.75-11.25 3.5 12.25-6.417 12.166 27.647 13.492z"/><path fill="#484848" d="M1061.723 1220.469l-10.833-1.834 1.625 7.146 2.062 17.938 7.182 2.908 9.466 3.118z"/><path fill-rule="evenodd" clip-rule="evenodd" fill="#FFE6D6" d="M1098.419 1224.123l19.908 26.471 1.25 11.125-10.27 3-3.29-1.379-7.598-16.999z"/><path fill-rule="evenodd" clip-rule="evenodd" fill="#484848" d="M1115.133 1226.871l3.194 23.723-9.924 1.265"/><path opacity=".1" fill="#2A2B2A" d="M1056.754 1285.8l74.82 12.094 17.757 2.871-67.088 15.25-97.276-14.017 45.684-10.047 16.081-7.771 10.022 1.62"/><path fill-rule="evenodd" clip-rule="evenodd" fill="#484848" d="M1102.099 1220.904l-22.481 12.248 8.31 20.06 20.62-2.613-4.514-28.809z"/><path fill-rule="evenodd" clip-rule="evenodd" fill="#484848" d="M1074.474 1219.616l-3.249 1.009-9.466 26.002 19.309 8.095 10.016-.657z"/><path fill-rule="evenodd" clip-rule="evenodd" fill="#BC8F2D" d="M1115.133 1226.871l-11.099-5.081-9.706 32.412 14.075-2.343zM1061.759 1246.627l8.894 4.455.572-30.457-9.502-.156.036 26.158"/><path fill-rule="evenodd" clip-rule="evenodd" fill="#836528" d="M1108.403 1251.859l-.67 20.302-22.41 10.207-23.564-22.503v-13.238l9.128-8.015 27.003 3.695z"/><path fill-rule="evenodd" clip-rule="evenodd" fill="#765924" d="M1107.733 1272.161l-11.381-2.321-14.109 3.53-10.292-10.566-10.192-2.939-.929 13.869 45.71 5.192z"/><path fill-rule="evenodd" clip-rule="evenodd" fill="#9C782C" d="M1090.267 1248.556l-17.979-2.586-.337 16.834 17.573.623z"/><path fill="#9C782C" d="M1045.153 1253.761l16.606 6.104 18.288 15.702-12.146 14.995-7.671-.778-7.735-8.148-17.03-9.248z"/><path fill="#9C782C" d="M1071.643 1280.68l-1.436-1.595 1.316.802-.12-.802 2.005-4.587.91-5.799 1.276.798 1.188-2.716 9.696 6.812 9.874-3.753 10.188 9.086-4.9 22.709-15.695-.965-8.713-13.779-4.944-1.931z"/><g fill-rule="evenodd" clip-rule="evenodd"><path fill="#FFE6D6" d="M1040.553 1291.661l-.766 7.671h-11.329l-3.745-1.836-3.199-3.098 10.018-10.075 4.887-.166z"/><path fill="#F5CAB3" d="M1039.787 1299.332l.599-5.995-6.629 5.995-14.294-7.28-9.278 7.28z"/><path fill="#C4937D" d="M1034.05 1281.791l3.997.389 3.272 1.81-.766 7.671-9.021-7.338z"/></g><g fill-rule="evenodd" clip-rule="evenodd"><path fill="#FFE6D6" d="M1080.907 1294.286l5.038 6.384 1.707 10.129h-8.986l-4.179-3.631-4.44-5.351 3.432-5.944z"/><path fill="#F5CAB3" d="M1070.489 1301.352l-9.062 9.447h26.225l-1.157-6.863-4.744 6.863z"/><path fill="#C4937D" d="M1084.664 1293.069l-3.227-1.994-5.247.102-2.711 4.696 12.466 4.797z"/></g><path fill="#BC8F2D" d="M1071.951 1262.804l24.401 7.036-3.361 28.012-27.33-2.87z"/><path fill="#E4C729" d="M1068.127 1282.368l26.201 4.336-1.337 11.148-27.33-2.87z"/><path fill="#CBAD2D" d="M1067.095 1287.645l27.233-.941-1.337 11.148z"/><path fill="#BC8F2D" d="M1045.153 1253.761l11.004 31.942-5.422 6.21-22.876-7.548z"/><path fill="#E4C729" d="M1036.866 1268.426l19.291 17.277-5.422 6.21-22.876-7.548z"/><path fill="#CBAD2D" d="M1033.126 1275.045l23.031 10.658-5.422 6.21z"/><path fill="#ECECEB" d="M1019.723 1191.969l-2-10.167 8.5-1 5.834 4.167 19.833 2.666 2.667 3.667-31.834 6.167z"/><path fill="#E2A940" d="M1025.39 1204.469l5.167-15.667 24 2.5-2 34.667-22.334-3z"/><path fill="#BB8F2D" d="M1017.723 1181.802l12.834 7-.334 34.167-13-7.5z"/><path fill="#ECECEB" d="M1019.682 1196.291l-2.125-4.031-2.844 9.688 2.562 9.125z"/><path fill="#F5CAB3" d="M1022.182 1196.26l-4.625-4-.282 18.813 4.782-6.938z"/><path fill-rule="evenodd" clip-rule="evenodd" fill="#F5CAB3" d="M1084.557 1261.135l-4.334-3.75-8.272 5.419 8.606 2.456z"/><path fill-rule="evenodd" clip-rule="evenodd" fill="#FFE6D6" d="M1094.223 1265.635l-4.541-5.479-9.459-2.771.334 7.875 9.503 2.773z"/><path fill="#F5CAB3" d="M1089.682 1260.156l29.895 1.563-11.812 11.25-17.705-4.936z"/></g><g><g fill-rule="evenodd" clip-rule="evenodd"><path fill="#F5CAB3" d="M864.646 1145.872l2.406-6.229 5.804-10.475 12.846 4.113-2.796 15.705-17.835-.425z"/><path fill="#C4937D" d="M871.582 1166.255l3.586-2.548 7.738-14.721-16.703-5.945-1.698 20.666z"/><path fill="#FFE6D6" d="M864.976 1161.914l-.66-6.417-3.303-7.738 4.564-12.04 3.188 1-1.429 7.737 4.529 8.493-4.529 11.891z"/><path fill="#F5CAB3" d="M733.71 1157.526l-6.086-.849-6.512-14.085 11.778-6.123 10.87 12.493-.141 7.856z"/><path fill="#C4937D" d="M742.133 1170.549l-5.969-2.171-8.54-11.702 16.137-7.219s3.539 10.404 3.468 10.687c-.071.284-5.096 10.405-5.096 10.405z"/><path fill="#FFE6D6" d="M748.149 1181.024l-.095-18.024 1.038-11.136-6.605-8.776-2.831 2.265 2.925 7.172-2.642 6.7z"/><path fill="#C4937D" d="M858.654 1186.969l1.51 16.514-23.404 18.78 8.871-33.973 2.831-6.606zM772.59 1213.392l-15.854-7.361 1.51-19.439 5.379-4.624z"/><path opacity=".1" d="M884.168 1340.721l-75.528-10.752-71.194 9.624 68.944 11.126z"/><path fill="#FFE6D6" d="M829.139 1332.749l.72 7.209h10.646l3.519-1.725 3.005-2.912-9.413-9.466-4.593-.157z"/><path fill="#F5CAB3" d="M829.859 1339.958l-.563-5.634 6.229 5.634 15.282-7.727 6.868 7.727z"/><path fill="#FFE6D6" d="M790.404 1325.698l4.717 5.978 1.598 9.484h-8.414l-3.913-3.4-4.157-5.011 3.214-5.565z"/><path fill="#F5CAB3" d="M780.649 1332.314l-8.484 8.846h24.554l-1.083-6.426-4.442 6.426z"/><path fill="#C4937D" d="M835.25 1323.475l-3.755.365-3.076 1.701.72 7.208 8.477-6.894zM793.922 1324.558l-3.022-1.866-4.913.095-2.538 4.397 11.672 4.492z"/><path fill="#BF8F00" d="M838.015 1267.926l-15.781 6.376-15.47 8.735 9.701 26.013 14.977-3.159 14.557-5.598z"/><path fill="#E5C82E" d="M816.465 1309.05l3.435 9.788 13.373-8.179 12.726-10.366z"/><path fill="#CCAD14" d="M819.9 1318.838l26.099-18.545 5.152 18.373-15.582 1.528z"/><path fill="#E5C82E" d="M819.9 1318.838l3.434 8.242 27.817-8.414z"/><path fill="#BF8F00" d="M806.764 1283.037l-2.146 25.155-15.503-1.715-18.324-4.123 2.662-33.054 19.624 6.745z"/><path fill="#E5C82E" d="M770.791 1302.354l17.22 9.971 15.748 6.513.859-10.646z"/><path fill="#CCAD14" d="M770.791 1302.354l-1.717 16.655 18.931.868 15.754-1.039z"/><path fill="#E5C82E" d="M803.759 1318.838l-34.685.171 33.827 7.555z"/><path fill="#474747" d="M821.882 1191.555l7.039 2.355 3.9 3.717 4.505-8.582 11.136-7.361 2.453 36.804-13.158 7.627-61.392-1.116-11.325-4.057-1.415-38.974 12.74 7.926 6.355 6.184 2.642-2.693 7.874-3.369 12.155 8.741z"/><path fill="#856400" d="M838.015 1267.926l-31.251 15.111-33.311-13.737 2.912-44.301 5.447-3.232 5.206-2.949 40.694-2.232 4.809 2.546 5.236 6.983z"/><path fill="#BF8F00" d="M837.326 1189.045l.431 37.07-10.045-9.529 1.206-22.676zM785.362 1193.385l1.656 25.433-10.653 6.181v-35.105z"/><path fill="#9E7700" d="M793.543 1226.539h27.468v27.994h-27.468z"/><path fill="#CCAD14" d="M762.351 1137.741l36.919-8.951 38.449-11.283-.528-5.539-3.138-8.098-36.571 16.577z"/><path fill="#E5C82E" d="M834.053 1103.87l-39.027 9.67-39.421 12.618 1.682 5.064 5.064 6.519z"/><path fill="#755800" d="M790.714 1105.361l-3.563 11.834 15.612-4.435zM834.053 1103.87l6.243 2.086 6.807 4.952-7.936 12.54-1.75-3.572.302-2.369z"/><path fill="#CCAD14" d="M834.053 1103.87l-.803-6.375 1.536-8.288 7.973 11.867 4.344 9.834z"/><path fill="#BF8F00" d="M834.786 1089.207l20.968 13.05-8.651 8.651z"/><path fill="#856400" d="M834.053 1103.87l.733-14.663.44-8.065-15.184 15.956.37 10.647z"/><path fill="#BF8F00" d="M830.443 1086.616l-17.212-11.339-2.979 7.777-1.126 6.153 6.096 5.286 5.781 2.925z"/><path fill="#CCAD14" d="M821.003 1097.418l-11.877-8.211-3.709 9.258-2.654 14.295 17.649-5.015zM813.231 1075.277l-24.047 12.757 13.147 1.432 6.795-.259z"/><path fill="#BF8F00" d="M809.126 1089.207l-19.942-1.173 4.225 9.528 9.354 15.198z"/><path fill="#755800" d="M752.074 1142.62l15.137 3.35-2.368-5.316-2.492-2.913-5.024 1.213z"/><path fill="#CCAD14" d="M802.763 1112.76l-11.408-6.278-7.121-3.046-4.288-3.232 1.798-6.968 2.873-5.558 1.781-4.776 2.786 5.132z"/><path fill="#BF8F00" d="M779.946 1100.204l-6.568-2.085-6.555-5.173-1.389-6.818 19.183 1.55z"/><path fill="#856400" d="M779.946 1100.204l-13.123-7.258-6.598 8.798 4.424 8.596 7.425 11.139 6.098-13.29zM749.609 1127.942l-2.98 17.263 15.722-7.464-6.746-11.583-2.866-.156z"/><path fill="#BF8F00" d="M760.225 1101.744l-5.949 6.789-2.761 6.186 5.25 6.5 15.309.26z"/><path fill="#CCAD14" d="M760.225 1101.744l-20.96 5.6 12.25 7.375zM751.515 1114.719l-10.939 15.911 15.029-4.472 16.469-4.679z"/><path fill="#BF8F00" d="M779.946 1100.204l-7.872 21.275 8.922 11.257 6.155-15.541 4.204-10.713z"/><path fill="#FFE6D6" d="M837.719 1117.507l12.903 52.933-23.461 8.358-3.104 5.567-2.175 7.19-10.09 7-8.385 8.689-14.61-26.964-9.948-14.633-7.953-13.44-1.681-6.617-6.864-7.849z"/><path fill="#C4937D" d="M785.513 1157.774l-3.996-6.722-6.491 3.361 5.633 2.655z"/><path fill="#F5CAB3" d="M792.198 1129.728l20.428 54.13 8.377-.039.879 7.736-18.475 15.689-12.783-21.651-1.44-4.6-2.358-1.835-7.977-13.511 12.332-7.325-4.05-7.677 6.745-3.959-8.646-15.087zM804.443 1137.641l7.176-.046 8.211 11.144-1.572-13.136-4.552-6.662zM823.124 1126.203l3.263 17.387 3.414-12.154 5.929-3.625z"/><path fill="#856400" d="M813.706 1128.941l-11.227 4.21 1.964 4.49zM823.124 1126.203l11.561-3.181 1.045 4.789zM785.23 1131.599l8.646 15.087-6.745 3.959-3.519-5.719-12.716 7.281-8.545-14.466z"/><path fill="#C4937D" d="M827.161 1178.798l-19.795 6.892 14.516 5.865zM791.109 1162.457l-3.02 11.857-6.266-6.909zM800.351 1171.123l-9.727 14.469-3.763-6.456 4.494-4.822z"/><path fill="#755800" d="M792.338 1157.634l8.013 13.489-13.489 8.013-8.013-13.489 13.489-8.013zm-8.666 9.242l4.418 7.438 7.438-4.419-4.419-7.438-7.437 4.419z"/><path fill="#B58B00" d="M780.6614922 1157.0630951l3.2780361-1.9476804 6.1418592 10.3370328-3.2780361 1.9476804z"/><path fill="#FFF1E8" d="M823.124 1126.203l-9.418 2.738 6.124 19.798 9.238-2.786z"/><path fill="#C4937D" d="M829.068 1145.953l-3.227 6.011-6.011-3.225z"/><path fill="#2B2B2B" d="M815.049 1143.115c0 1.595-1.293 2.887-2.888 2.887s-2.887-1.293-2.887-2.887c0-1.595 1.293-2.887 2.887-2.887 1.596-.001 2.888 1.292 2.888 2.887z"/><circle fill="#2B2B2B" cx="831.662" cy="1136.659" r="2.887"/><path fill="#755800" d="M818.358 1163.047l8.352 3.869 6.795-1.557 2.595-9.012z"/><path fill="#FFF" d="M838.012 1154.515l-22.158 6.947 4.115 2.356 15.848-4.389z"/><path fill="#755800" d="M813.961 1161.503l13.428-6.145 11.644-1.575-1.271 3.11-.91-1.04-8.515 3.636-10.747 2.062-.405.824z"/><path fill="#B58B00" d="M839.033 1153.783l-2.181 2.07-4.102 7.566-6.605 2.093-8.555-3.961-3.629-.048 12.219 7.454 8.614-2.931z"/><path fill="#F5CAB3" d="M735.598 1167.718l21.138 38.313 6.889-24.063L748.054 1163zM864.316 1155.497l-15.854 26.187 11.702 21.799 15.004-39.776z"/></g></g><g><path opacity=".1" fill-rule="evenodd" clip-rule="evenodd" d="M587.557 1275.969l45.666-5.334.334 8.334 29.666-2.334 58.165 7.037-55.498 10.13-41.5-7.5-60.5 2.167z"/><path fill="#BF8E00" d="M581.314 1285.991l-8.382-2.022 4.037-43.593 2.873-.499 7.369-.374 4.341 30.133z"/><path fill="#E4C82D" d="M595.128 1283.381l-13.814 2.61 3.858-46.31 7.665-.44z"/><path fill="#BF8E00" d="M611.768 1278.547l-9.573-39.793 6.367-.249 10.617 21.226-.263 19.817z"/><path fill="#E4C82D" d="M628.299 1277.434l-9.383 2.114-10.354-41.043 8.741-.374z"/><path fill="#9B9FA0" d="M553.742 1166.033l16.859 70.802 8.492-2.121-7.992-45.329-12.738-28.97z"/><path fill="#BF8E00" d="M576.594 1163.538l-1.747-11.864 3.748-3.623 5.618 4.746 1.871 12.364z"/><path fill="#E4C82D" d="M591.333 1148.929l-12.738-.878 5.119 16.735 10.488-.374z"/><path fill="#ECECEB" d="M618.052 1181.142l-31.464-13.861-24.479 6.496 2.375 8.867 7.116 9.614-2.371 7.116 9.864 35.34 52.071-.624-10.862-43.583-3.373-2.245 2.25-2.375z"/><path fill="#C7C7C6" d="M612.432 1158.719l-54.069 1.696 3.746 13.362h17.359l18.107 9.24h8.616l2.246-1.626 9.615-.249z"/><path fill="#F4D75D" d="M612.432 1158.719l-16.25.375-2.853 6.939 1.372 7.37 7.244 4.745 7.864.125 6.746-3.248z"/><path fill="#C7C7C6" d="M564.734 1183.267l4.495 16.107 17.733-.25 4.117-6.366 13.861.498 3.248-2.374 12.114-.375-1.123-4.62-12.488.504-4.496 2.994-10.987-.25-5.997-6.367-7.864.125-2.749 2.121-6.616.125z"/><path fill="#F4D75D" d="M625.795 1212.486l-3.372-13.487-10.738 1.252.499 2.371-7.369.623.25 1.875 4.744.125 1.377 3.369 4.495.125 4.621 3.997z"/><path fill="#856400" d="M576.344 1225.099l2.749 9.615 51.448-.624.249-1.501-28.72-23.097-15.986 1.497z"/><path fill="#8F8F8F" d="M570.227 1235.213l8.243-2.499 3.622 3.122-2.25 4.746-8.492 1.501z"/><path fill="#ECECEB" d="M633.982 1229.99l-55.512 2.724 1.372 7.868 53.964-2.575z"/><path fill="#F4D75D" d="M597.699 1204.618l7.49 7.368-4.87-.747-3.243 4.744-4.246-3.747-7.12 7.245-1.622-5.623 3.123-8.738z"/><g fill-rule="evenodd" clip-rule="evenodd"><path fill="#FFE6D6" d="M657.057 1278.87l-.505 5.057h-7.469l-2.469-1.21-2.109-2.042 6.604-6.642 3.222-.11z"/><path fill="#F5CAB3" d="M656.552 1283.927l.394-3.952-4.37 3.952-10.721-5.421-4.819 5.421z"/><path fill="#FFE6D6" d="M684.233 1273.923l-3.31 4.194-1.121 6.654h5.903l2.746-2.386 2.916-3.515-2.254-3.905z"/><path fill="#F5CAB3" d="M691.077 1278.564l5.952 6.207h-17.227l.76-4.509 3.116 4.509z"/><path fill="#C4937D" d="M652.769 1272.364l2.635.256 2.158 1.193-.505 5.057-5.948-4.837zM681.765 1273.124l2.12-1.31 3.446.067 1.782 3.084-8.189 3.152z"/><path fill="#BF8F00" d="M650.829 1233.391l11.072 4.473 10.854 6.128-6.807 18.251-10.507-2.216-10.213-3.928z"/><path fill="#E5C82E" d="M665.948 1262.243l-2.409 6.867-9.383-5.739-8.928-7.272z"/><path fill="#CCAD14" d="M663.539 1269.11l-18.311-13.011-3.614 12.89 10.931 1.072z"/><path fill="#E5C82E" d="M663.539 1269.11l-2.409 5.782-19.516-5.903z"/><path fill="#BF8F00" d="M672.755 1243.992l1.506 17.649 10.876-1.203 12.856-2.893-1.867-23.19-13.768 4.732z"/><path fill="#E5C82E" d="M697.993 1257.545l-12.081 6.995-11.049 4.57-.602-7.469z"/><path fill="#CCAD14" d="M697.993 1257.545l1.205 11.685-13.282.609-11.053-.729z"/><path fill="#E5C82E" d="M674.863 1269.11l24.335.12-23.733 5.301z"/><path fill="#474747" d="M662.148 1179.809l-4.938 1.653-2.736 2.607-3.584-.492-6.746 6.867 1.937 6.297 4.929 7.316 42.887 1.084 5.132-4.328 3.903-5.31-9.638-12.046-3.67-.474-1.854-1.89-5.524-2.363-8.528 6.133z"/><path fill="#856400" d="M650.829 1233.391l21.926 10.601 23.371-9.637-2.229-29.214-3.636-4.135-3.652-2.069-28.552-1.566-3.373 1.786-3.674 4.9z"/><path fill="#E5C82E" d="M710.642 1194.54l23.371 3.493 7.469 19.998-10.601 16.745-21.323 7.469-21.143-4.711 1.988-19.985 15.059-2.891z"/><path fill="#F5CAB3" d="M716.063 1204.78l2.564 2.508 3.7 2.311-5.18 8.191-5.782-4.819 3.055-4.598z"/><path fill="#C4937D" d="M713.189 1214.492l1.91-5.737 7.228.844-6.264-4.819-4.698 8.191z"/><path fill="#FFE6D6" d="M715.099 1208.755l7.228.844 2.048 7.736-2.255 1.241z"/><path fill="#474747" d="M726.4672708 1205.2439064l4.5235953-1.6611093 1.6611093 4.5235953-4.5235953 1.6611093z"/><path fill="#802D00" d="M729.2862373 1213.2066861l4.5235953-1.6606274 1.6606274 4.5235953-4.5235953 1.6606274z"/><path fill="#A84000" d="M726.5195526 1222.1221673l4.5235953-1.6615912 1.6615912 4.5235953-4.5235953 1.6615912z"/><path fill="#CC4E00" d="M719.1259415 1228.1247663l4.5235953-1.6611093 1.6611093 4.5235953-4.5235953 1.6611093z"/><path fill="#ED8600" d="M710.9732226 1231.1656138l4.5235953-1.6615912 1.6615912 4.5235953-4.5235953 1.6615912z"/><path fill="#FF9B01" d="M701.6301556 1231.409583l4.5235953-1.6611093 1.6611093 4.5235953-4.5235953 1.6611093z"/><path fill="#FFD557" d="M693.4843633 1226.6582081l4.5235953-1.6611093 1.6611093 4.5235953-4.5235953 1.6611093z"/><path fill="#FFE6D6" d="M693.897 1205.141l11.565 9.517 3.194-12.406-5.724-6.749zM634.747 1198.455l9.397-8.011 6.866 13.613-6.927 2.349-6.333-2.21z"/><path fill="#BF8F00" d="M650.89 1183.577l.12 20.48 7.047-6.686-.845-15.909zM687.771 1181.093l-1.162 17.844 7.288 6.204-.603-21.684z"/><path fill="#9E7700" d="M662.759 1204.354h19.271v19.641h-19.271zM650.945 1214.719l2.173-1.567 2.169 3.976-2.891-.482-1.485 3.495z"/><path fill="#CCAD14" d="M663.599 1226.404l3.132 2.529-.482 2.53-4.096 3.012-1.566-6.385zM682.031 1221.946l-5.06-1.686.482-4.096-2.41-.964 1.446-3.975 1.325.482-.12 1.927 3.132-.241 1.205 3.012.449 2.47z"/><path fill="#9E7700" d="M672.152 1227.729l3.132-.843-.722 3.373-2.289-.362z"/><path fill="#B58B00" d="M682.031 1216.405l4.095.602-1.927 4.939h-2.168z"/><path fill="#C4937D" d="M715.099 1208.755l2.048 9.035 2.086-3.298z"/><path fill="#CCAE2D" d="M719.233 1214.492l2.887 4.084-4.973-.786z"/><path fill="#F5CAB3" d="M644.083 1206.406l-16.768-14.474-5.567-.317.942 6.555 9.415 12.103z"/><path fill="#C4937D" d="M627.315 1191.932l-4.625 6.238-4.241-1.483 3.374-8.733z"/><path fill="#F5CAB3" d="M614.67 1185.474l-5.276 7.588 1.176 1.641 7.448-3.088 5.706-6.752z"/><path fill="#858686" d="M642.132 1171.091l-22.006 23.783-2.432-1.911-1.364-2.569z"/><path fill="#BF8F00" d="M611.477 1201.01l-.667 3.572-6.023.843 1.325-3.132 2.685-.656 1.604-1.221z"/><path fill="#856400" d="M610.57 1194.703l-1.773 6.934 6.471-1.513-2.124-3.16z"/><path fill="#8F8F8F" d="M622.968 1191.803l-7.7 8.321-4.698-5.421 5.76-4.309z"/><path fill="#FFE6D6" d="M624.667 1195.503l-1.699-3.7-5.329.63-1.309-2.039 7.394-5.531 3.591 7.069z"/><path fill="#CCAD14" d="M703.915 1142.055l-25.903-6.281-26.975-7.916.371-3.886 2.201-5.682 25.658 11.631z"/><path fill="#E5C82E" d="M653.609 1118.29l27.381 6.785 27.657 8.852-1.18 3.553-3.552 4.575z"/><path fill="#755800" d="M684.015 1119.336l2.5 8.303-10.953-3.112zM653.609 1118.29l-4.38 1.464-4.776 3.474 5.568 8.798 1.228-2.506-.212-1.662z"/><path fill="#CCAD14" d="M653.609 1118.29l.563-4.472-1.077-5.815-5.594 8.326-3.048 6.899z"/><path fill="#BF8F00" d="M653.095 1108.003l-17.412 9.832 8.77 5.393z"/><path fill="#856400" d="M653.609 1118.29l-.514-10.287-.309-5.658 10.653 11.194-.26 7.47z"/><path fill="#BF8F00" d="M656.142 1106.185l12.075-7.955 2.091 5.456.79 4.317-4.277 3.709-4.056 2.052z"/><path fill="#CCAD14" d="M662.765 1113.764l8.333-5.761 2.602 6.496 1.862 10.028-12.383-3.518z"/><path fill="#CCAD14" d="M668.217 1098.23l16.872 8.95-9.224 1.005-4.767-.182z"/><path fill="#BF8F00" d="M671.098 1108.003l13.991-.823-2.964 6.685-6.563 10.662z"/><path fill="#755800" d="M711.124 1145.477l-10.619 2.35 1.661-3.729 1.749-2.043 3.524.85z"/><path fill="#CCAD14" d="M675.562 1124.527l8.004-4.404 4.996-2.137 3.008-2.268-1.262-4.888-2.016-3.9-1.249-3.351-1.954 3.601z"/><path fill="#BF8F00" d="M691.57 1115.718l4.608-1.463 4.599-3.629.974-4.783-13.459 1.087z"/><path fill="#856400" d="M691.57 1115.718l9.207-5.092 4.629 6.173-3.104 6.031-5.209 7.815-4.278-9.324zM712.854 1135.179l2.091 12.112-11.03-5.236 4.732-8.128 2.011-.109z"/><path fill="#BF8F00" d="M705.406 1116.799l4.174 4.763 1.485 3.57-4.974 2.187-8.998 3.326z"/><path fill="#CCAD14" d="M705.406 1116.799l14.712 4.937-9.053 3.396zM711.065 1125.132l8.127 11.933-10.545-3.138-11.554-3.282z"/><path fill="#BF8F00" d="M691.57 1115.718l5.523 14.927-6.259 7.898-4.319-10.904-2.949-7.516z"/><path fill="#FFE6D6" d="M651.037 1127.858l-9.053 37.137 16.46 5.864 2.178 3.906 1.526 5.044 7.079 4.912 5.883 6.096 10.25-18.918 6.98-10.266 5.579-9.43 1.18-4.642 4.816-5.506z"/><path fill="#C4937D" d="M687.665 1156.109l2.803-4.716 4.554 2.358-3.952 1.863z"/><path fill="#F5CAB3" d="M682.974 1136.432l-14.332 37.978-5.877-.028-.617 5.427 12.962 11.008 8.968-15.191 1.011-3.227 1.654-1.287 5.597-9.479-8.652-5.14 2.841-5.386-4.732-2.777 6.066-10.585zM674.383 1141.984l-5.034-.033-5.761 7.819 1.103-9.216 3.193-4.674zM661.277 1133.959l-2.29 12.199-2.395-8.527-4.159-2.544z"/><path fill="#856400" d="M667.884 1135.88l7.877 2.954-1.378 3.15zM661.277 1133.959l-8.111-2.232-.733 3.36z"/><path fill="#755800" d="M665.111 1158.44l-6.379-4.324-6.838.461 5.47 4.094z"/><path fill="#B58B00" d="M650.009 1153.371l7.58 4.851 10.114.292-10.802 2.675z"/><path fill="#856400" d="M687.863 1137.745l-6.066 10.585 4.732 2.777 2.469-4.012 8.921 5.108 5.996-10.148z"/><path fill="#C4937D" d="M658.444 1170.859l13.888 4.835-10.184 4.115zM683.738 1159.395l2.119 8.318 4.396-4.847zM677.254 1165.475l6.824 10.151 2.64-4.529-3.152-3.384z"/><path fill="#755800" d="M682.876 1156.011l9.464 5.622-5.622 9.464-9.464-5.622 5.622-9.464zm.862 3.384l-3.1 5.218 5.218 3.1 3.1-5.218-5.218-3.1z"/><path fill="#B58B00" d="M684.4617927 1161.5279496l4.3091088-7.2524292 2.2996975 1.36639-4.3091088 7.2524292z"/><path fill="#FFF1E8" d="M661.277 1133.959l6.607 1.921-4.296 13.89-6.481-1.955z"/><path fill="#C4937D" d="M657.107 1147.815l2.263 4.218 4.218-2.263z"/><circle fill="#2B2B2B" cx="668.968" cy="1145.824" r="2.026"/><path fill="#2B2B2B" d="M653.261 1141.295c0 1.119.907 2.026 2.026 2.026 1.119 0 2.026-.907 2.026-2.026 0-1.119-.907-2.026-2.026-2.026-1.119 0-2.026.907-2.026 2.026z"/></g></g><g><path fill="#9DA1A2" d="M522.766 1238.211l-15.236-17.981 49.36.072-10.291 25.773z"/><path fill="#6F7173" d="M523.636 1339.354l-22.741-31.464 6.635-87.66 15.236 17.981 23.942 49.322z"/><path fill="#8F8F8F" d="M556.826 1323.623l-33.19 15.731-.87-101.143 34.124-17.909 16.167 72-.777 14.71z"/><path fill="#6F7173" d="M523.636 1339.354l33.164 5.271 7.615-21.854-8.613-24.473-19.579-2.663z"/><path fill="#8F8F8F" d="M581.523 1331.263l-24.723 13.362-.998-46.327 2.121-8.367 15.134 2.371z"/><path fill="#DDDDDC" d="M550.39 1289.302l22.667 3-17.255 5.996-19.579-2.663z"/><path fill="#6F7173" d="M1148.89 1353.469l14.124-48.452-10.862-21.98-3.123-11.236-19.639 5.168-15.5 63.333z"/><path fill="#7C7C7C" d="M1211.39 1321.969l-62.5 31.5 3.262-70.432 2.374-10.737 11.113.873 12.001-1.204z"/><path fill="#8F8F8F" d="M1129.39 1276.969l33.624-16.409 14.626 11.409-25.488 11.068z"/></g><g><path opacity=".1" fill="#2B2B2B" d="M926.706 1348.243l11.301-3.813 11.246 4.248-10.266 3.186z"/><path fill="#846528" d="M937.49 1349.55l-2.015-16.883 5.391-.327-2.233 17.536z"/><path fill="#BB8F2D" d="M925.182 1331.523l14.867 7.842 12.091-8.332-15.685-6.699z"/><path fill="#ECECEB" d="M937.925 1328.909l-3.512 1.961 4.329 2.695 2.043-2.45z"/><path opacity=".1" fill="#2B2B2B" d="M902.693 1305.522l5.502-1.856 5.475 2.068-4.998 1.551z"/><path fill="#846528" d="M907.943 1306.158l-.981-8.219 2.625-.159-1.087 8.538z"/><path fill="#BB8F2D" d="M901.95 1297.382l7.239 3.818 5.886-4.057-5.568-2.545z"/><path fill="#ECECEB" d="M909.189 1296.447l-1.71.955 2.108 1.312.994-1.193z"/><g><path opacity=".1" fill="#2B2B2B" d="M957.959 1324.56l7.272-2.453 7.237 2.733-6.606 2.051z"/><path fill="#846528" d="M964.898 1325.401l-1.296-10.864 3.469-.211-1.437 11.285z"/><path fill="#BB8F2D" d="M956.978 1313.801l7.184 5.327 10.164-5.643-8.972-4.24z"/><path fill="#ECECEB" d="M965.179 1312.119l-2.261 1.261 2.786 1.735 2.033-1.525z"/></g><g><path opacity=".1" fill="#2B2B2B" d="M724.119 1341.586l7.523-2.538 7.488 2.828-6.835 2.121z"/><path fill="#846528" d="M731.298 1342.456l-1.342-11.24 3.59-.217-1.487 11.675z"/><path fill="#BB8F2D" d="M723.104 1330.455l7.65 5.729 10.297-6.055-10.442-4.46z"/><path fill="#ECECEB" d="M731.588 1328.715l-2.339 1.305 1.577 2.248 2.665-2.085z"/></g><g><path opacity=".1" fill="#2B2B2B" d="M738.26 1297.8l5.704-1.925 5.677 2.145-5.182 1.608z"/><path fill="#846528" d="M743.703 1298.459l-1.018-8.521 2.722-.165-1.127 8.852z"/><path fill="#BB8F2D" d="M737.49 1289.36l7.505 3.959 6.102-4.206-6.212-2.089z"/><path fill="#ECECEB" d="M744.802 1288.865l-2.598.743 2.186 1.361 1.8-1.238z"/></g><g><path opacity=".1" fill="#2B2B2B" d="M1009.055 1346.744l11.6-3.914 11.544 4.361-10.538 3.27z"/><path fill="#846528" d="M1020.124 1348.085l-2.068-17.33 5.534-.335-2.292 18.001z"/><path fill="#BB8F2D" d="M1007.49 1329.581l15.262 8.05 12.41-8.553-12.634-4.249z"/><path fill="#ECECEB" d="M1022.36 1328.575l-5.283 1.509 4.445 2.768 3.661-2.516z"/></g><g><path opacity=".1" fill="#2B2B2B" d="M690.609 1310.379l7.669-2.588 7.633 2.883-6.968 2.163z"/><path fill="#846528" d="M697.927 1311.266l-1.368-11.458 3.66-.222-1.516 11.902z"/><path fill="#BB8F2D" d="M689.573 1299.031l7.763 7.319 10.534-7.651-9.038-2.883z"/><path fill="#ECECEB" d="M699.276 1298.311l-3.216 2.106 1.83 2.218 3.326-2.827z"/></g><g><path opacity=".1" fill="#2B2B2B" d="M656.644 1337.816l11.024-3.719 10.971 4.144-10.015 3.108z"/><path fill="#846528" d="M667.163 1339.092l-1.966-16.47 5.26-.319-2.178 17.107z"/><path fill="#BB8F2D" d="M655.156 1321.506l10.891 7.65 15.407-8.128-10.36-7.491z"/><path fill="#ECECEB" d="M669.022 1318.478l-3.426 1.912 2.417 3.082 3.799-2.842z"/></g></g></svg>