<svg xmlns="http://www.w3.org/2000/svg" viewBox="0 0 400 400"><path opacity=".1" fill="#2b2c2b" d="M99.5 386.001l87.779-9.841 91.473 7.822L187.279 400z"/><path fill="#755a24" d="M232.992 363.333l5.258 10.833-1.791 18.154h-3.467l-3.033-14.494zM166.492 360l4.362 8.666-6.233 17.335h-3.743l-4.212-12.668z"/><path fill="#feeeea" d="M207.666 195L220 162.667l-25.773-11.062h-21.454l-7.576 2.037L157.666 180z"/><path fill="#efd0cb" d="M191.397 57.224l35.937 15.442-14.879 51.668-18.228 27.271-15.727 8.478v-30.75z"/><path fill="#feeeea" d="M157.5 29h-23L117 48v42.25l23 39.083h38.5l12.897-30.609v-41.5z"/><path fill="#cea4a0" d="M160 129.333l18.5 30.75 19.834-30.75z"/><path fill="#74665b" d="M103.333 63l3.879-16.5 13.643-30L145.333 0l69.001 9 35.332 36.667-5 30.333v25.5l5 22.834L220 162.667l-25.773-11.062 18.228-27.271L220 112.609l-4.714-9.385L200 60.921l-8.603-3.697L157.5 29h-23L117 48v42.25z"/><path fill="#efd0cb" d="M220 162.667l15.334 21-1.682 34.667-9.711 28.364-11.968-20.073L207.666 195z"/><path fill="#ccae2c" d="M142 195l15.387 30 54.586 1.625L207.666 195z"/><path fill="#e5c824" d="M157.666 180l7.531-26.358-7.531 2.025L142 195h65.666z"/><path fill="#f4d85d" d="M148.953 177.542l8.713 2.458 7.531-26.358-7.531 2.025z"/><path fill="#efd0cb" d="M170.43 183.829l5.834-5.329 1.402 7.5zM146.06 202.916L142 195l15.666-39.333-12.5 3.546-20.833 55.121z"/><path fill="#feeeea" d="M210.272 65.354l-4.257 23.632 12.363 3.148 5.971-20.731z"/><path fill="#cea4a0" d="M206.015 88.986l9.271 14.238 3.092-11.09zM220.47 72.986l-7.205 11.25 1.351-12.75z"/><path fill="#47392e" d="M207.079 83.077L200 60.921l10.272 4.433z"/><path fill="#856628" d="M148.953 360l-25.287 26.001H151L166.492 360z"/><path fill="#e5c824" d="M232.992 294.979l-21.019-68.354-54.898-2.232L142 262.667 145.023 305h32.946z"/><path fill="#feeeea" d="M166.492 360l11.477-55h-32.946l3.93 55zM216.32 363.333h16.672v-68.354l-33.344 8.596z"/><path fill="#ccae2c" d="M142 262.667l69.973-36.042-66.893 75.945z"/><path fill="#efd0cb" d="M145.023 305l31.211 8.313 1.735-8.313zM202.02 313.313l30.972-14.563v-3.771l-33.344 8.596z"/><path fill="#feeeea" d="M162.75 235.5l-16.69-32.584-21.727 11.418 25.891 27.454z"/><path fill="#efd0cb" d="M162.75 235.5L178 248l4.166 17.167-20.67-3.39-11.272-19.989z"/><path fill="#feeeea" d="M182.166 265.167L178 248l-16.504 13.777 12.225 8.276zM217.334 266l14.166-3.333 2.152-44.333-21.679 8.291z"/><path fill="#464849" d="M169 305l43.469-12.474 12.531-.693 7.992-5.196 22.258-6.387-1.75 8.75-76.514 20.709z"/><path fill="#dddddc" d="M126.778 299.96l1.283-2.595L286 252.167l.459 1.439z"/><path fill="#bd902d" d="M154.181 308.723l3.657-3.309 3.658 1.471v2.502l-5.246 1.53zM260.938 278.438l3.193-2.982 4.121.657v2.502l-5.246 2.017z"/><path fill="#856628" d="M253.5 289l1.75-11.958 28.582-14.375 2.168-10.5 14.5-3.501-1.168 5.834-8 1.666-3 13.5zM176.986 309.709L169 301.25l-33.559 3.893-7.38-7.778-14.165 4.676 4.069 4.341 7.676-2.806 9.67 9.886z"/><path fill="#efd0cb" d="M217.334 266l-4.865 26.526L226 291.333l9.334-5.368-3.834-23.298z"/><path fill="#feeeea" d="M212.469 292.526l6.224 12.947 5.045-2.372.012-4.851 9.242-3.271 2.342-9.014z"/><path fill="#856628" d="M232.992 335.001v5.666l13.696 6.208-4.625-14-6.313-.75z"/><path fill="#ccae2c" d="M232.992 335.001l-49.054-61.095 3.123-2.5 48.689 60.719z"/><path fill="#856628" d="M173.721 270.053l10.611 4.114 3.164-2.058-.996-12.108-7.194-6.62 2.86 11.786z"/><path fill="#ac923c" d="M246.688 346.875l-12.221-13.412 1.283-1.338 6.313.75z"/><path fill="#74665b" d="M103.555 62.012L117 75l-9.788-28.5z"/><path fill="#47392e" d="M134.5 29l-27.288 17.5L117 75V48z"/><path fill="#74665b" d="M244.666 76L216.25 55.333l33.416-9.666z"/><path fill="#5f5145" d="M244.666 101.5l-29.38 1.724-2.831 21.11h37.211zM232.658 146.31l-38.431 5.295L220 162.667z"/><path fill="#47392e" d="M242.674 133.37l-1.19 26.765-6.15 23.532-15.334-21z"/><path fill="#8f7f74" d="M214.334 9L184 29l29.258 23 36.408-6.333z"/><path fill="#74665b" d="M184 29h-26.5L145.333 0l69.001 9z"/><path fill="#8f7f74" d="M134.5 29l-13.645-12.5-13.643 30z"/><path fill="#5f5145" d="M213.258 52l-21.861 5.224 35.937 15.442L244.666 76zM120.855 16.5L134.5 29h23L145.333 0zM157.5 29H184l7.397 28.224z"/><path fill="#fff5f3" d="M144.195 69.514h6.362l2.069 22.07h-10.667z"/><path fill="#cea4a0" d="M141.959 91.584l5.682 4.839 4.985-4.839z"/><path fill="#efd0cb" d="M150.557 69.514l3.152-5.963 15.625-2.634 10.166 1.666-16.752 11.084-10.122 17.917zM142.613 85.128L134.5 73.667l-12.875-9.927 6.708-1.98 12.681 1.393 3.181 6.361z"/><path fill="#47392e" d="M153.709 63.551l1-2.143 15-2.363 9.791 3.538-10.166-1.666zM141.014 63.153l-.545-1.745-12.01-1.565-6.834 3.897 6.708-1.98z"/><path d="M166.771 73.667c0 1.968-1.596 3.563-3.564 3.563s-3.563-1.595-3.563-3.563 1.596-3.564 3.563-3.564 3.564 1.596 3.564 3.564zM138.063 73.667c0 1.968-1.596 3.563-3.563 3.563-1.969 0-3.564-1.595-3.564-3.563s1.596-3.564 3.564-3.564 3.563 1.596 3.563 3.564z" fill="#2b2c2b"/><path fill="#bd902d" d="M137.416 105.116l11.807 4.981 13.985-5.617z"/><path fill="#ccae2c" d="M253.5 289l2.646 2.559 8.004-4.302.116-4.234z"/><path fill="#efd0cb" d="M145.441 312.55l30.004 4.543.789-3.78-11.513-2.499z"/><path fill="#ccae2c" d="M176.986 309.709l-.752 3.604-9.04.937-2.473-3.436z"/><path fill="#5f5145" d="M241.484 160.135l-8.826-13.825 10.016-12.94z"/><path fill="#755a24" d="M165.172 153.729l11.814 13.092 25.93-11.154-8.689-4.062-15.727 8.478-5.102-8.478z"/><path fill="#bd902d" d="M176.986 166.821l-5.154 6.481 4.432 5.198 4.736-5.198z"/><path d="M160.053 103.645l-8.105-2.145-3.217 1.347-2.98-1.155-5.273 2.167h-.001c-.485.199-5.014-1.012-5.014-1.012l1.954 2.269 25.792-.636 3.376-2.137-6.532 1.302z" fill="#755a24"/><path fill="#efd0cb" d="M171.832 99.75l15.918-9.5-10.828 12.066z"/><path fill="#856628" d="M216.32 363.333l-8.654 28.987h25.326v-28.987z"/><path fill="#74665b" d="M112.527 81.334l-4.431 30.208 23.223 19.141-7.272 31.984 39.742 20.058 9.609-31.12L160 129.333h-20z"/><path fill="#8f7f74" d="M108.096 111.542l12.759-15.658-8.328-14.55z"/><path fill="#5f5145" d="M140 129.333l-31.904-17.791 12.759-15.658z"/><path fill="#47392e" d="M131.319 130.683l8.681-1.35-31.904-17.791zM173.398 151.605l-19.217-9.105L160 129.333z"/><path fill="#8f7f74" d="M154.181 142.5l-30.134 20.167 7.272-31.984z"/><path fill="#5f5145" d="M131.319 130.683l22.862 11.817L160 129.333h-20zM154.181 142.5l9.608 40.225 9.609-31.12z"/><path fill="#74665b" d="M124.047 162.667l39.742 20.058-9.608-40.225z"/><path fill="#5f5145" d="M163.789 182.725l-6.714 7.008-13.782 4.725 6.931-10.791-9.538-12.602z"/><path fill="#74665b" d="M140.686 171.065l16.389 18.668L142 195z"/><path fill="#efd0cb" d="M163.997 98.724l3.961 5.756 2.375-1.815zM137.561 99.209l-3.541 6.116-1.5-1.808z"/></svg>