<svg xmlns="http://www.w3.org/2000/svg" viewBox="0 0 400 400"><g fill-rule="evenodd" clip-rule="evenodd"><path fill="#edcfc9" d="M292.071 153.537l-6.254-8.869-6.103 12.47 14.393 3.048z"/><path fill="#ffede8" d="M294.834 175.424l-2.909-4.71-6.108-26.046 30.685 3.325-8.582 31.034z"/><path fill="#e3c421" d="M288.873 180.413l-.289-4.295 3.341-5.404 15.995 8.313-2.616 6.651z"/><path fill="#ccad2e" d="M286.546 193.297l-1.6-10.807 3.638-6.372 16.72 9.56-2.62 7.481z"/><path fill="#edcfc9" d="M236.383 189.694l5.851-27.987 9.298 7.235 5.831-3.166 4.252 10.643 21.427 15.769-1.147 13.994-12.362 6.095-26.472-4.33z"/><path fill="#ffede8" d="M284.946 182.49l-15.409 29.787 25.387 4.151 7.76-23.269z"/><path opacity=".1" fill="#2b2b2b" d="M121.004 383.684l82.733-11.373 66.989 10.605-24.085 17.464z"/><path fill="#a3945e" d="M167.871 132.787l6.675-2.749 10.752 4.781 6.519 8.732-.061 8.468-6.573 9.007-12.804-1.852-7.861-11.232z"/><path fill="#bfb073" d="M172.072 9.201l2.22 5.572 47.255 5.102 21.794-3.68L220.782 1.38z"/><path fill="#7d5e26" d="M185.526 156.298l-9.505 3.377-13.749 13.711 2.026 17.47 40.684 14.744 38.079 2.347-2.479-44.62-14.05-7.2-.005-.006-36.962-1.469z"/><path fill="#bfb073" d="M160.203 36.705l-2.171 34.3-9.107 33.148-7.33-45.074 9.328-19.045 8.173-7.331z"/><path fill="#ffede8" d="M171.368 40.955l-15.077 14.35-7.366 48.848 14.006 34.762 4.512 6.638 5.309-5.1 20.408 3.2 24.986-22.166 10.409-45.854 12.003-18.831 16.385-25.859-41.947-3.743-33.077-12.743-10.42 13.731z"/><path fill="#cca39e" d="M157.839 47.939l-1.548 7.366 42.84-8.765 20.004-17.519-4.879-2.106-32.337-12.458-10.42 13.731z"/><path fill="#edcfc9" d="M239.988 94.684l-.672 28.469-12.344 33.199-22.726 22.714-13.564-5.202-1.117-19.212 3.931-11.294 24.65-21.873 15.209-66.984 3.26 29.614z"/><path fill="#bfb073" d="M228.555 75.633l4.764 23.839 9.534-5.939 1.213-4.968 5.35-11.141-3.638-21.56-10.396-10.297z"/><path fill="#e0cf80" d="M169.94 23.825l-.502 9.179-9.235 3.705-18.608 22.37 9.491-27.871 14.824-7.721z"/><path fill="#c2b070" d="M235.814 167.565l-8.842-11.218 10.156-60.509 11.148-25.177 11.418 23.684 8.908 23.329-6.975 38.217-10.095 13.051-5.237 2.326z"/><path fill="#fff7ad" d="M244.757 19.971l16.691.084 11.922 47.396-4.768 50.223-33.22-72.107-16.247-16.546z"/><path fill="#e0cf80" d="M224.525 19.373l18.816-3.178 18.107 3.86-42.313 8.966zM163.228 165.203l12.795-5.502-3.271-19.248-9.821-1.538-3.273 20.103z"/><path fill="#fff7ad" d="M172.072 9.201l-11.869 27.508 4.323 4.938 31.946-5.084 22.663-7.542 24.206-12.826z"/><path fill="#decf7d" d="M160.203 36.705l-.002.004-2.362 11.23 22.89-.781 38.406-18.137z"/><path fill="#cca39e" d="M185.018 142.375l10.48 28.294 27.527-23.897z"/><path fill="#a68c26" d="M173.305 319.643l2.568 37.96L190.24 368.3l8.055-5.709 3.814-30.095-4.137-18.876-9.303.789zM174.335 250.44l-4.043 24.663 17.179 15.902 20.604 5.399 19.116-1.196 20.553-18.095-12.993-26.635-4.605-4.192-52.434.757z"/><path fill="#e3c421" d="M247.613 277.113l-40.914 19.291 8.908 37.797 16.67 10.404 11.646-9.931z"/><path fill="#a68c26" d="M215.607 334.201l7.446 31.633 10.323 8.732 9.859-8.92.688-30.972z"/><path fill="#6b5421" d="M164.3 190.856l78.761 17.091-12.407 34.119-1.139 4.228-51.803.749-2.008-4.977-1.538-7.14 8.593-14.738-12.139-1.717z"/><path fill="#e3c421" d="M206.699 296.404l-36.407-21.301 3.013 44.54 28.772 13.097z"/><path fill="#454547" d="M234.751 250.478l-60.416-.038 1.369-8.37 54.946-.004zM198.295 362.591l-22.424-4.988-27.027 21.251 2.425 3.769 44.086 1.045 2.555-4.081zM223.053 365.834l20.182-.188 5.453 22.47-2.035 3.927-29.541-.24-1.717-3.679z"/><path fill="#b3872e" d="M215.395 388.124l33.296-.008-.191 6.73-32.946-.224zM197.546 385.439l.364-5.852-49.064-.733-.006 5.616z"/><path fill="#545759" d="M137.988 113.803l3.139 5.885 6.689-7.881-6.227-18.557-10.455-.787-1.742 8.5z"/><path fill="#6e6e6e" d="M125.061 103.217l-.521-8.294 6.594-2.46 9.993 27.225-6.817 2.354z"/><path fill="#545759" d="M118.882 108.564l-2.328-7.646 5.484-2.441 2.502-3.554 5.829 15.415 3.941 11.704-3.406-.83-12.523-6.469z"/><path d="M110.546 108.899l3.353-8.787 1.957-11.56 7.426-.207-1.245 10.132-1.972 4.59s-3.908 6.411-4.543 6.472c-.634.059-4.976-.64-4.976-.64" fill="#edcfc9"/><path fill="#99732b" d="M113.964 127.218h-.441l-14.988-.034-11.114 4.968-5.6-9.896 13.009-6.527 5.534.684 19.702-13.346 5.43 12.815z"/><path d="M120.066 103.067c.004.22-1.813 14.05-2.197 14.382-.384.33-17.299 6.059-17.299 6.059l-5.739-7.778 19.67-9.869 5.565-2.794z" fill="#6e572b"/><path fill="#ffede8" d="M123.152 137.657l3.931-7.14 7.642-18.61-4.682-2.429-15.843 12.573-5.912 5.155 3.587 8.655z"/><path fill="#edcfc9" d="M114.2 122.051l-15.665 5.133 6.761 7.629 6.579 1.048 3.247-2.985z"/><path fill="#e3c421" d="M111.317 145.98l-4.911-2.952-1.11-8.213 21.787-4.297 1.333 7.827z"/><path fill="#ccad2e" d="M112.787 156.225l-5.073-5.231-1.308-7.966 22.01-4.683 1.056 6.938z"/><path fill="#edcfc9" d="M176.021 159.675L164.3 190.858l-26.172-5.68-12.998-12.922 7.243-14.337z"/><path fill="#ffede8" d="M107.714 150.994l3.097 28.259 27.317 5.925-8.656-39.895zM113.899 100.113l1.605 15.405-13.537 5.989-7.137-5.778z"/><path fill="#edcfc9" d="M164.591 66.567l-4.887 3.189 7.756 9.796 8.437 11.411 6.712 3.614 1.654 5.986 15.255-15.965 11.409-8.513-4.688-4.397-15.976 1.492-4.167 1.253-4.221 6.026-2.996-6.997-2.081-2.201z"/><path fill="#cfa19c" d="M180.822 93.808l-8.667 5.358 4.159 6.918 7.239-5.444z"/><path fill="#bfb06e" d="M159.67 68.069l5.397-2.97 12.24 2.797-.509 3.365-12.494-3.129-4.6 1.624zM190.297 69.66l17.851.374 3.385 5.394-.606.657-4.923-2.913-15.741.008z"/><path fill="#fff5f2" d="M178.879 73.462l-.005 8.035-6.719 17.669 11.398 1.474-.021-18.576 2.564-7.631z"/><path d="M167.452 75.469c2.397.398 3.994 2.62 3.563 4.962-.429 2.344-2.72 3.919-5.117 3.52-2.399-.399-3.992-2.621-3.564-4.964.43-2.342 2.721-3.917 5.118-3.518M200.019 80.394c2.4.401 3.995 2.623 3.568 4.964-.432 2.344-2.723 3.92-5.121 3.52-2.398-.398-3.994-2.62-3.564-4.964.429-2.344 2.722-3.919 5.117-3.52" fill="#2b2b2b"/><path fill="#b3872e" d="M164.298 112.564l5.782 11.532 10.738 1.765 9.197-10.372-4.788-.801-16.321-2.187z"/><path fill="#fff" d="M168.559 113.221l1.658 4.864 11.442 2.092 3.308-4.277-8.773-2.425z"/><path fill="#7d5e26" d="M164.298 112.564l4.261.657 8.571 1.4 7.837 1.279 5.048-.411-9.941-3.863-3.455 1.155-2.764-1.682z"/><path fill="#b3872e" d="M176.021 159.675l.157 23.8 19.32-12.804-5.933-16.019zM210.365 191.051l-9.435-18.471 25.802-16.081 1.196 5.929 1.086 6.878z"/><path fill="#ccad2e" d="M190.908 198.302l1.65 14.007 10.178-5.647-4.921-18.915z"/><path fill="#e3c421" d="M195.882 180.779l-5.245 4.504-20.017 33.188 3.546 16.455 15.505-9.131 8.142-38.048z"/><path fill="#ccad2e" d="M204.913 180.382l-3.983-7.802-5.432-1.909-7.38 4.892 2.517 9.72 7.18 2.464z"/><path fill="#696b6e" d="M191.347 246.16l4.801-4.09 4.562 4.111-4.435 4.207z"/><path fill="#b3872e" d="M187.372 363.01l1.155 5.603 5.953.671-5.234 2.772 1.179 5.598-4.392-3.889-5.222 2.787 2.52-5.176-4.409-3.874 5.949.692zM245.506 374.989l-5.465 2.755 2.755-4.976-3.992-3.724 5.408.635z"/><path fill="#fff7ad" d="M223.293 185.798l3.435-29.297 10.469-.423 14.335 12.864-9.713 16.695z"/><path fill="#e0cf80" d="M243.061 207.947l-19.768-22.149 28.239-16.856zM268.602 117.674l-31.743-84.495-17.724-4.158z"/><path fill="#e0cf80" d="M251.532 168.942L237.9 61.213l-11.157 95.361z"/><path fill="#e0cf80" d="M268.602 117.674l-6.987 58.745-10.083-7.477zM268.602 117.674l-7.154-97.619 21.407 50.883z"/></g></svg>