<svg xmlns="http://www.w3.org/2000/svg" viewBox="-91.256 -47.997 400 400"><path fill="#eed0cb" d="M58.215 130.444l-6.916 13.127-3.104.212-6.916-2.753 11.079-26.393z"/><path fill="#ffede8" d="M41.279 141.03l-14.044 32.958 3.458.282 12.703-1.129 2.187-1.343 11.151-8.679-7.339-21.736z"/><path fill="#9da1a2" d="M-2.828 290.5l-20.466-2.47 22.865-19.268 31.404 2.4 39.803-22.864 15.666-29.004 49.4 26.535 72.406 49.47-50.671 1.199-137.472-2.4z"/><path fill="#8d9192" d="M-2.828 290.5l-20.466-2.47 22.865-19.268 31.404 2.4zM146.711 251.896l61.539 43.403-82.638-39.026z"/><path fill="#eaeceb" d="M20.107 214.496l-44.601 28.933 8.398 8.467-14.467 14.469 33.803-1.201 24.066-26.535 1.906-9.386-2.965-11.291z"/><path fill="#c4c4c4" d="M29.212 229.243l1.763-8.681-4.728-2.61-7.34 5.01 5.999 8.398z"/><path fill="#dddddc" d="M-30.563 266.365l-3.598 13.267 10.867 8.398 54.269-16.868 5.998-20.464-9.667-12.069-32.533 12.069z"/><path fill="#c4c4c4" d="M-24.494 243.429l-4.869 18.067-1.2 4.869 25.336-15.667v-9.669zM228.715 213.294l22.936 16.868-7.268 21.734-19.268 24.135-15.666-3.668z"/><path fill="#eaeceb" d="M110.508 192.758l27.734 4.87 47.071-9.668 19.265 21.736 24.137 3.598 9.668 22.935-8.469 14.469-20.181.564-109.316-28.865-1.905-23.568z"/><path d="M192.371 225.644l3.598 8.54 12.281 3.67 8.678-2.683 2.541-5.646-3.104-7.62-8.469-3.74-7.904-.282-7.621 7.761zm7.692-4.727l8.045-.564 7.34 3.529 1.623 5.151-1.904 3.811-6.775 1.832-9.668-3.599-2.541-5.856 3.88-4.304z" fill="#ccad14"/><path d="M201.405 222.539l-1.271 5.293 8.258 6.845 5.293-3.386.211-5.434-5.787-5.505-6.704 2.187zm2.398 1.835l4.305-1.48 3.176 3.457-.07 4.094-2.469 1.27-5.436-4.658.494-2.683z" fill="#e5c727"/><path fill="#ccad14" d="M207.049 225.221l-.846 1.484 1.34 1.904 2.047-.777-.424-2.329z"/><path fill="#e5c727" d="M207.262 239.266l-1.131 2.256 1.906 2.754 2.963-1.06-.564-3.458zM195.617 235.665l-2.964.141-1.129 2.259 2.187 2.472 2.611-1.908zM192.018 229.597l-1.906-1.694-3.174 1.835 1.058 2.259 2.61.351zM201.828 238.488l-2.611 1.27v2.541l3.105 1.34 1.481-2.82zM208.461 216.399l.918-2.187-1.553-2.187-2.964 1.059.634 3.457zM219.963 222.045l2.965-.14 1.059-2.328-2.118-2.4-2.611 1.905zM214.108 217.811l2.611-1.27V214l-3.106-1.269-1.482 2.753zM198.51 216.894l.988-2.258-1.552-2.117-2.963.988.564 3.456zM191.313 223.74l.916-2.259-1.483-2.117-3.033 1.057.635 3.388zM225.397 230.937l.918-2.259-1.553-2.115-2.963.985.635 3.46zM214.389 238.77l-1.199 2.259 1.976 2.752 2.963-1.058-.635-3.457zM220.317 239.194l2.964-.142 1.057-2.399-2.115-2.328-2.611 1.904z"/><path fill="#dddddc" d="M229.914 250.698l-4.799 25.333-127.874-25.333-3.599-19.338 7.269-5.998-1.2-7.269 26.535 6.071zM112.978 198.829l8.398 2.399-2.399 7.269-8.469-2.47z"/><path fill="#c4c4c4" d="M143.395 204.827l9.881 2.468-4.165 7.201-8.75-1.342zM158.78 208.497l8.468 1.199-3.67 8.397-8.398-2.399zM173.246 210.895l8.469 2.399-3.67 8.469-8.398-2.469z"/><path fill="#dddddc" d="M202.18 132.491l-63.938 65.137 50.672 8.399 37.401-43.402 8.398-16.866-24.064-1.2z"/><path fill="#cececd" d="M188.914 206.027l15.664 3.669 21.737-47.071h-13.268z"/><path fill="#c4c4c4" d="M-2.828 290.5l60.549 14.606 39.238.706 111.291-10.513-127.099-26.678z"/><path fill="#9e7700" d="M55.181 158.531l6.21-3.105 51.658 1.836 8.327 4.234 3.529 17.148.847 7.199-5.646 8.539-45.236 11.786-33.168-18.42-4.517-7.128 8.398-8.822z"/><path fill="#2b2b2b" fill-opacity=".149" d="M15.097 337.852l67.466 13.901 66.618-14.111-64.924-12-51.588 8.894z"/><path fill="#eed0cb" d="M131.821 156.062l2.822 4.376 15.385 4.234 7.339-2.33-6.704-40.436-4.375-5.082-18.067-5.151-4.445 21.877z"/><path fill="#cea39f" d="M150.663 121.906l-18.771-5.999 2.822-4.234 10.657-3.881 3.245 2.751z"/><path fill="#aa925b" d="M123.141 56.628l3.317-2.682 5.575 8.327-.423 40.085-2.612 1.481-18.701-8.538zM62.238 89.02l.847 7.41 6.846 5.01 14.749-1.482-.706-8.327-5.294-10.797-12.137.423z"/><path fill="#ffede8" d="M83.41 97.135l-10.092 3.176-1.412 2.047-1.975-.918-11.857 3.741-1.34 3.952 5.575 25.687 55.963-2.822 12.42-18.491 2.894-5.927-1.976-5.928-3.742-1.694-2.398.212-.636-1.552-10.797-4.941-23.782 9.598z"/><path fill="#ecdcb6" d="M69.86 113.79l-5.434 16.513-3.952-3.881-3.387-15.596 2.187-5.998zM114.46 111.814l2.329 17.572 6.422-4.728 5.646-17.361-.989-7.339-7.338 4.305z"/><path fill="#be8e00" d="M64.426 130.303l-2.117 2.259-4.235.353-3.246-2.471-2.47-15.807 6.28-.212 4.306 8.469zM118.272 131.998l-1.623-2.329 3.81-10.092 6.774-7.057 4.8 2.823-3.529 13.761-2.892 2.823z"/><path fill="#755700" d="M32.669 329.526l10.586-1.694 29.074-.141L76 329.526v5.01H32.669zM93.007 337.36l5.082-1.836 21.03.069 4.586 1.767-.211 5.716H92.865z"/><path fill="#ffede8" d="M59.909 313.577l-12.773 7.479-.988 2.472-3.316.069-10.163 5.929h15.526l2.046-1.625 4.093 1.625H76v-13.408l-2.894-2.965-7.764-.988zM103.522 317.245l-4.164 2.189-1.693 4.797.424 3.247-2.188 1.624-2.894 8.258h30.698l-4.304-8.822-2.682-1.835.141-3.317-2.118-4.235-3.457-1.835zM84.61 241.24l6.845 35.851 6.351 3.67 16.16.142 8.116-3.671 4.447-26.252-4.165-6.422-32.533-7.692zM46.642 239.476l6.21 36.485 3.811 3.812 18.56.848 5.01-3.812 2.4-22.3-4.516-7.268-24.63-10.164z"/><path fill="#cea39f" d="M112.062 247.802l14.467 3.178 1.411-8.187-8.61-1.413zM82.845 254.579l-20.96-8.681 12.844-7.48 9.528 2.822z"/><path fill="#846300" d="M43.326 219.787l-6 15.737 24.559 10.374 4.164-3.812 1.835-12.066-3.247-3.88-2.187-4.166-9.88-3.598z"/><path fill="#9e7700" d="M70.354 223.668l-5.788 2.331-2.681 19.899 22.372-4.658 5.504-4.374.353-7.199z"/><path fill="#755700" d="M113.966 222.751l4.588 19.266-6.492 5.785-27.805-6.562.917-8.679 4.657-6.775 21.737-10.161zM144.524 228.819l-12.068-20.535-7.198 2.188-1.059 4.306-.14 5.856 4.162 9.597 4.307 3.739z"/><path fill="#846300" d="M135.279 240.395l-23.217 7.407 1.904-25.051 3.671-7.904 6.562-.069z"/><path fill="#755700" d="M33.939 209.414l9.387 10.373 41.848 12.774 2.54-3.67-8.963-22.794-5.151-3.175-12.279-1.625-18.631 3.882z"/><path fill="#846300" d="M73.6 202.922l11.574 29.639 28.792-9.81 7.41-20.111 3.106-10.939-3.177-1.342z"/><path fill="#eed0cb" d="M93.007 218.516l-2.399-11.503 16.372-1.974 5.152 2.256 3.245 8.822-1.411 6.634zM118.836 198.405l-17.078-2.893-1.765 2.751 12.775 5.999 6.209-2.965z"/><path fill="#ffede8" d="M113.966 222.751l-6.986-17.712 11.856-6.634 5.998.494 7.694 5.01-.072 4.375zM131.821 156.062l-10.516 34.297 1.342 3.601 12.56 5.925 3.035-2.257 19.125-35.286z"/><path fill="#bb8e2c" d="M129.422 193.818l-8.117-3.459-2.469 8.046 6.422 4.658 4.022-.777 2.118-4.658z"/><path fill="#a07f20" d="M129.422 193.818l-4.164 9.245 7.198 5.221 5.786-10.656z"/><path fill="#846300" d="M121.376 161.496l-1.411-8.186-9.88-15.102-53.492.07-9.104 3.035 7.692 17.218 15.808-.916 8.044-1.695 10.446.777z"/><path fill="#9e7700" d="M54.828 130.444l-7.339 10.869 29.146 5.857 32.674-4.799 6.775 2.4 9.88-9.598 2.54-6.069-64.078 1.199z"/><path fill="#755700" d="M121.376 161.496l5.364-25.476 1.764-6.916-19.195 13.267z"/><path fill="#c2c3c3" d="M69.931 101.44l7.41 37.544 3.175 1.623-7.198-40.296z"/><path fill="#c2c3c3" d="M127.868 99.958l-43.964 38.744-3.388 1.905-.353-1.764 44.671-40.225z"/><path d="M69.789 139.337l20.113-.918-5.716 6.139-.847.917-6.351.283-.988-.846-6.211-5.575zm7.975 2.54l2.186 2.894 2.189-3.105-4.375.211zM89.761 161.144l-6.493.846-3.035-4.799-2.61 4.799-6-.635 3.247-5.223 10.444-.494z" fill="#f1bc68"/><path d="M70.636 145.194l18.63-.918.212 12.421-18.489.918-.353-12.421zm3.528 4.093l3.812-.141.212 3.741-4.023.069v-3.669zm7.481-.353l3.598-.141.283 3.88-3.599.072-.282-3.811z" fill="#dba43e"/><path fill="#f9efd7" d="M39.091 104.263l23.853 18.631-3.67-18.066-4.234-2.47-10.868-.706z"/><path fill="#ecdcb6" d="M45.018 85.068l-5.927 20.113 12.208-1.906 12.21-6.493-9.387-10.162z"/><path fill="#bea77c" d="M39.091 104.263l20.183.565 4.235-8.328z"/><path fill="#f9efd7" d="M45.583 64.179l-3.528 5.222.494 7.975 2.469 7.692 18.491 11.714-2.612-12.843-9.598-15.103z"/><path fill="#bea77c" d="M63.509 96.782L45.583 64.179l7.834 1.976L67.813 77.94l1.835 5.857z"/><path fill="#ecdcb6" d="M29.494 62.344l5.716-2.752 5.645.776 4.728 3.811-.565 20.889z"/><path fill="#f9efd7" d="M34.504 38.773l-5.01 23.571 16.089 1.835-1.623-11.644-6.987-15.455z"/><path fill="#bea77c" d="M41.985 8.004l-4.659-1.623-2.752 4.658-1.199 15.525 1.129 12.209 11.079 25.406 3.318-5.505z"/><path fill="#ecdcb6" d="M24.341 11.745l10.163 27.028 2.822-32.392-5.575-.494z"/><path fill="#f9efd7" d="M148.616 110.543l-28.157 9.034 7.409-19.619 6.916-.212 7.833 3.105z"/><path fill="#ecdcb6" d="M145.865 77.87l-14.044 4.445-3.953 18.207 20.748 10.021z"/><path fill="#f9efd7" d="M125.893 55.781l1.975 44.741 17.997-22.652-1.201-9.245-12.914-12.138z"/><path fill="#ecdcb6" d="M154.615 59.38l-8.679-7.481-10.375.848-9.668 3.034 19.972 22.089z"/><path fill="#f9efd7" d="M137.467 34.68l-6.14 12.703-5.434 8.398 28.722 3.599-9.597-21.736z"/><path fill="#ecdcb6" d="M136.619 21.413l-4.091 4.234-7.129 23.712.494 6.422 19.125-18.137 1.342-12.703-2.754-4.305z"/><path fill="#f9efd7" d="M148.758 6.875l-3.74 30.769-8.399-16.231 4.164-9.809 3.53-3.811z"/><path fill="#cea39f" d="M76.776 83.374l6.634 14.044 6.21 12.561 16.371-10.938 4.588-7.48 4.304-19.76-22.088 6.139-12.209.353z"/><path fill="#eed0cb" d="M109.873 56.063L87.149 78.152l.635 4.657 22.795-5.363-4.588 21.595 8.046-5.364 12.139-38.814 1.198-5.857-3.104-5.857-4.024-26.958-6.068-8.822-2.61 4.235z"/><path fill="#bea77c" d="M121.658 46.466l-7.48-39.097 5.223-1.2 15.171 8.963 2.047 6.281-1.34 4.305-7.833 1.764-.565 12.35z"/><path fill="#cea39f" d="M121.658 46.466l4.235 9.315 3.246-10.374-.776-2.47-4.093.212z"/><path fill="#ffede8" d="M123.211 25.789l-1.553 20.677 7.481-1.059 6.14-19.689z"/><path fill="#cea39f" d="M126.74 30.234l4.164-.141-4.798 7.833z"/><path fill="#ffede8" d="M39.02 18.308l6.563 45.871 24.065 19.618 18.136-.988 26.253-25.546.141-49.894-.141-6.775-29.71-21.1-6.633 1.976-16.726-6.211-6.14 19.055-14.044 16.301z"/><path fill="#d3aba7" d="M56.522-1.664l-13.408.988-5.788 7.057 1.694 11.927zM85.949-14.296l19.267 16.09-5.929-20.395z"/><path fill="#e5c727" d="M61.532 60.509l12.491 5.858 14.679-6.987-15.879 1.553z"/><path fill="#b58a00" d="M61.532 60.509l11.221 1.411 15.949-2.54-15.596-1.341z"/><path fill="#cea39f" d="M64.919 47.876l7.269 5.364 6.492-5.999-7.268-2.258z"/><path fill="#eed0cb" d="M53.064 17.955l-7.693 3.246 11.363 7.693 8.185 18.982 6.493-19.124-5.152-6.845zM78.047 21.766l-5.718 7.057 6.351 18.418 8.61-18.63 14.821-9.385-13.268-1.977z"/><path fill="#fff4f2" d="M69.507 28.894l-4.588 18.982 13.761-.635-4.586-18.63 3.953-6.845-11.787.141z"/><path fill="#aa925b" d="M45.371 21.201l7.905-4.446 11.15 1.623 1.834 3.529-12.843-2.47zM80.233 17.672l-2.186 4.094 12.773-3.317 11.291.777-11.362-3.6z"/><path d="M56.28 26.743c1.909-.012 3.473 1.413 3.494 3.184.021 1.77-1.508 3.216-3.417 3.228-1.908.012-3.473-1.413-3.495-3.183-.021-1.771 1.508-3.217 3.418-3.229zM88.388 26.106c1.907-.032 3.498 1.377 3.553 3.147.055 1.77-1.447 3.23-3.356 3.263-1.908.032-3.499-1.377-3.553-3.147-.055-1.771 1.447-3.232 3.356-3.263z" fill="#2b2b2b"/><path fill="#ecdcb6" d="M37.538-25.728L24.341 11.745 39.161.03l21.807-24.771 3.105-3.458-4.658-5.998-11.22 2.823z"/><path fill="#f9efd7" d="M66.825-45.489L37.538-25.728l26.535-2.471 5.293-6.563 2.751-5.363z"/><path fill="#ecdcb6" d="M86.797-39.842l-19.972-5.647-2.752 17.29 3.74 8.469 8.892 5.999 7.763-13.55 3.316-9.456z"/><path fill="#f9efd7" d="M97.453-47.747l-10.656 7.905-10.092 26.111 17.007-11.292 4.024-14.325z"/><path fill="#bea77c" d="M60.968-24.741l.564 5.576 15.173 5.434-12.632-14.468zM97.453-15.002l-20.748 1.271L92.02-26.575l4.586 1.552 3.317 5.152z"/><path fill="#ecdcb6" d="M97.453-47.747L92.02-26.575l4.586 1.552 24.558-2.47.989-8.257z"/><path fill="#f9efd7" d="M105.216 1.794L92.02-26.575l30.133-9.175.988 6.211-9.669 21.453z"/><path fill="#ecdcb6" d="M134.856-17.331l-4.869 7.975-15.245 9.88-9.526 1.27 16.937-37.544z"/><path fill="#f9efd7" d="M136.619 21.413L105.216 1.794l29.64-19.125 6.562 12.068-1.057 20.395z"/><path fill="#ecdcb6" d="M148.758 6.875l-13.902-24.206 1.763 38.744z"/><path fill="#f9efd7" d="M24.341 11.745l12.985-5.364 19.196-8.045 7.551-26.535z"/><path fill="#ccad14" d="M95.901 329.102l4.516 4.163h4.305l.212-2.681-7.269-6.353z"/><path fill="#be8e00" d="M116.86 323.386l-16.443 9.879 4.658 4.095 14.326-8.822zM42.832 323.597l5.363 5.929h6.139l-7.198-8.47z"/><path fill="#535353" fill-opacity=".149" d="M124.905 178.644l-3.6 11.715-19.547 5.153 19.618-34.016z"/><path fill="#846300" d="M33.939 209.414l39.661-6.492-17.431-10.657-5.364.493-1.763 3.53-17.079.282z"/><path fill="#ffede8" d="M53.487 176.316l-14.961-1.13-2.469 4.305 6.916 1.765 10.373-1.201z"/><path fill="#eed0cb" d="M38.526 175.186l4.447 6.07.07 10.657-10.798 6.844-8.045-18.702 6.281-4.869zM52.852 275.961l27.381.848L76 316.118 59.274 314zM91.455 277.091l30.627.141-7.34 41.919-15.243.211z"/><path fill="#ffede8" d="M56.169 192.265l-13.196-11.009-10.728 17.501 18.56 3.036z"/><path fill="#f1bc68" d="M22.155 175.61l14.677-4.728 3.247 1.905-1.553 2.399-14.326 4.869z"/><path fill="#e2a942" d="M36.832 170.882l1.694 4.304 6.069.494.988-3.882z"/></svg>