<svg xmlns="http://www.w3.org/2000/svg" viewBox="0 0 400 400"><path fill-rule="evenodd" clip-rule="evenodd" fill="#856300" d="M132.967 252.002l3.211 4.058 7.397-1.999.615-5.044-6.887-5.795z"/><path fill-rule="evenodd" clip-rule="evenodd" fill="#45382e" d="M160.187 139.288l9.933 27.713 37.76 6.924-16.209-43.419z"/><path fill-rule="evenodd" clip-rule="evenodd" fill="#f0d1cc" d="M140.172 231.898l35.933-22.669 14.496 23.605-43.369 10.388z"/><path opacity=".102" fill-rule="evenodd" clip-rule="evenodd" fill="#2b2b2b" d="M134.284 393.072l77.14-9.184 73.328 7.65-87.339 8.842z"/><path fill-rule="evenodd" clip-rule="evenodd" fill="#ffede8" d="M213.968 326.088l-9.957-21.445-.993-7.514 35.067-3.553 2.783 9.11-.57 10.397z"/><path fill-rule="evenodd" clip-rule="evenodd" fill="#cfa39e" d="M204.011 304.643l19.922-13.826 14.152 2.759 2.783 9.11-32.915 10.454z"/><path fill-rule="evenodd" clip-rule="evenodd" fill="#f0d1cc" d="M233.291 337.989l-19.323-11.901 26.326-13.005 7.996 8.626.284 12.436zM178.431 313.051L167.648 325.6l1.713 16.239 14.807 8.74 8.932-10.534 3.912-14.385z"/><path fill-rule="evenodd" clip-rule="evenodd" fill="#e6e6e8" d="M169.361 341.839l1.831 17.354 10.526 4.049 6.623-5.709 4.759-17.488z"/><path fill-rule="evenodd" clip-rule="evenodd" fill="#ffede8" d="M169.627 307.857l-1.979 17.743 29.364.06 3.787-11.37-12.643-8.948z"/><path fill-rule="evenodd" clip-rule="evenodd" fill="#cfa39e" d="M169.627 307.857l31.172 6.433 3.212-9.647-19.693-8.41-13.773 2.031z"/><path fill-rule="evenodd" clip-rule="evenodd" fill="#7a5c00" d="M121.745 224.691l10.124 27.762 12.321-3.436-3.008-10.365-4.664-10.68-2.36-6.714-7.612-1.547z"/><path fill-rule="evenodd" clip-rule="evenodd" fill="#cfa39e" d="M116.127 226.674l9.25 27.639 12.792-3.664-3.971-13.366-3.393-5.557-2.36-6.714-3.803-1.122z"/><path fill-rule="evenodd" clip-rule="evenodd" fill="#4f5254" d="M112.913 218.324l8.832 6.367 12.413-3.433 2.213-11.499-12.384 1.818z"/><path fill-rule="evenodd" clip-rule="evenodd" fill="#8f8f8f" d="M111.406 214.255l1.729 4.073 23.236-8.569-1.273-4.472-14.401 1.383z"/><path fill-rule="evenodd" clip-rule="evenodd" fill="#4f5254" d="M112.177 205.718l-.771 8.537 23.692-8.968-7.971-5.287z"/><path fill-rule="evenodd" clip-rule="evenodd" fill="#e3c724" d="M187.612 163.054l-17.492 3.947-10.509 42.619 37.69 17.054 36.833-9.705 10.787-31.965-16.04-16.924-5.559-3.13z"/><path fill-rule="evenodd" clip-rule="evenodd" fill="#e6c729" d="M229.056 221.681l5.078-4.712 10.787-31.965-12.586-16.536-1.306 29.911-4.716 17.816z"/><path fill-rule="evenodd" clip-rule="evenodd" fill="#ccad2e" d="M177.208 246.949l-17.597-37.329 74.523 7.349-.445 37.015-52.787 2.023z"/><path fill-rule="evenodd" clip-rule="evenodd" fill="#ccad2e" d="M226.313 216.195l7.821.774 3.474 4.744 1.246 11.841-3.24 6.67-4.931-5.787z"/><path fill-rule="evenodd" clip-rule="evenodd" fill="#856300" d="M227.875 254.204l15.39 4.806-2.397 43.676-36.861 1.957-23.642-15.229-3.157-42.465 37.87.477z"/><path fill-rule="evenodd" clip-rule="evenodd" fill="#7a5c00" d="M204.007 304.643l-42.058-8.015 15.261-49.679 26.801 57.694z"/><path fill-rule="evenodd" clip-rule="evenodd" fill="#785900" d="M234.191 244.817l9.07 14.193-42.473 5.298-.647-17.07 22.156-4.915z"/><path fill-rule="evenodd" clip-rule="evenodd" fill="#f0d1cc" d="M192.507 179.601l23.307-4.372 11.679-11.605 14.632-8.193-2.315-75.997-13.607-37.979-19.889 60.381z"/><path fill-rule="evenodd" clip-rule="evenodd" fill="#ffede8" d="M190.495 161.807l-2.883 1.247-5.061 20.089 37.492.724 8.838-15.787-2.308-7.41-31.933 15.203zM139.946 50.473l.173 65.657 14.929 30.654 42.784 1.897 15.175-31.576 21.078-78.748-33.338-5.957-43.638-1.363z"/><path fill-rule="evenodd" clip-rule="evenodd" fill="#8f7d73" d="M155.951 43.105l-5.403 14.181-10.559 9.302-4.344 7.391-2.143-8.747 9.471-33.436 12.242-2.147z"/><path fill-rule="evenodd" clip-rule="evenodd" fill="#73665c" d="M140.001 71.162l.063 23.651-11.418-25.611z"/><path fill-rule="evenodd" clip-rule="evenodd" fill="#8f7d73" d="M228.783 44.414l-6.563 6.563-11.61 7.369-25.872-11.005-23.845-11.509-.706-5.857 7.27-6.506 34.323-7.071 24.737 10.599z"/><path fill-rule="evenodd" clip-rule="evenodd" fill="#73665c" d="M237.759 28.774l-3.516 11.261-32.463-23.637 27.003 28.016 16.219 34.363 12.761-18.352z"/><path fill-rule="evenodd" clip-rule="evenodd" fill="#8f7d73" d="M258.133 126.327l-23.035-26.641-6.315-55.272 28.98 16.011z"/><path fill-rule="evenodd" clip-rule="evenodd" fill="#73665c" d="M213.007 117.105l29.155 11.857 15.971-2.635-29.35-81.913-6.563 6.563-5.957 20.669z"/><path fill-rule="evenodd" clip-rule="evenodd" fill="#63574d" d="M206.7 49.15l.415 9.497 9.148 12.999 12.52-27.232z"/><path fill-rule="evenodd" clip-rule="evenodd" fill="#cfa39e" d="M194.64 175.873l-15.312-27.921 18.506.729 14.168.878z"/><path fill-rule="evenodd" clip-rule="evenodd" fill="#45382e" d="M236.953 203.09l17.7-38.615 3.48-38.15-45.126-9.22 11.934 38.328.676 40.175z"/><path fill-rule="evenodd" clip-rule="evenodd" fill="#856300" d="M254.576 235.576l-21.324-10.885.882-7.722 2.819-13.879 3.467-4.533 15.125-.064 2.954 11.863z"/><path fill-rule="evenodd" clip-rule="evenodd" fill="#856300" d="M236.953 203.09l12.545-27.802 9.001 35.068-24.365 6.613z"/><path fill-rule="evenodd" clip-rule="evenodd" fill="#ffede8" d="M212.156 236.5l23.776-13.875 22.567-12.269 6.632 26.636-43.091 10.902-6.962-2.027z"/><path fill-rule="evenodd" clip-rule="evenodd" fill="#f0d1cc" d="M195.404 238.652l11.386-2.156 7.719-1.371 10.436 12.036-14.953 8.614-14.923-.219z"/><path fill-rule="evenodd" clip-rule="evenodd" fill="#ffede8" d="M185.635 255.295l9.769-16.643 14.588 17.123-9.204 8.533z"/><path fill-rule="evenodd" clip-rule="evenodd" fill="#cfa39e" d="M202.79 233.664l11.719 1.461-19.105 3.527z"/><path fill-rule="evenodd" clip-rule="evenodd" fill="#f0d1cc" d="M170.995 109.361l-4.32-2.5-9.997-20.905-9.009-11.366 6.59-2.727 11.59 7.725 3.089 2.735 3.139 2.882 3.784-2.982 7.249-1.833 17.291-4.814 7.479 5.947-17.204 6.012-15.138 19.102z"/><path fill-rule="evenodd" clip-rule="evenodd" fill="#fff5f2" d="M168.936 82.323l.5 14.317-2.761 10.221 8.865-.224-1.272-9.855 1.595-14.559z"/><path fill-rule="evenodd" clip-rule="evenodd" fill="#cfa39e" d="M170.995 111.864l-4.318-5.003 8.861-.224z"/><path fill-rule="evenodd" clip-rule="evenodd" fill="#785900" d="M156.169 120.474l11.684-5.21 2.918 2.899 3.466-2.944 17.434 5.469-11.594 7.403-14.531.02z"/><path fill-rule="evenodd" clip-rule="evenodd" fill="#9e7800" d="M191.671 120.688l-11.594 8.589-14.531.021-9.377-8.824 5.231.413 11.69 2.464 11.692-1.931z"/><path fill-rule="evenodd" clip-rule="evenodd" fill="#fff" d="M161.4 120.885l23.382.535-6.227 4.393-12.498-.304z"/><path fill-rule="evenodd" clip-rule="evenodd" fill="#5e4f45" d="M236.953 203.09l21.644-23.792 12.329-14.23-12.793-38.743z"/><path fill-rule="evenodd" clip-rule="evenodd" fill="#45382e" d="M147.669 74.59l5.001-4.773 14.709 5.489-1.53 4.284-12.788-6.408zM183.019 75.426l.091 4.962 17.149-2.558 7.621 3.693-6.136-7.867z"/><path fill-rule="evenodd" clip-rule="evenodd" fill="#cfa39e" d="M147.232 243.222l-3.042 5.795-7.188-22.343 10.059.968z"/><path d="M189.096 83.289c2.346 0 4.246 1.9 4.246 4.246s-1.9 4.248-4.246 4.248c-2.346 0-4.248-1.902-4.248-4.248s1.902-4.246 4.248-4.246M158.399 81.708c2.346 0 4.246 1.902 4.246 4.246 0 2.346-1.9 4.248-4.246 4.248s-4.248-1.902-4.248-4.248c0-2.343 1.902-4.246 4.248-4.246" fill-rule="evenodd" clip-rule="evenodd" fill="#2b2b2b"/><path fill-rule="evenodd" clip-rule="evenodd" fill="#5e4f45" d="M220.043 183.867l4.72-29.01 12.19 48.237-12.524 3.076z"/><path fill-rule="evenodd" clip-rule="evenodd" fill="#45382e" d="M203.396 213.938l16.647-30.071 16.91 19.227z"/><path fill-rule="evenodd" clip-rule="evenodd" fill="#e6e6e8" d="M233.291 337.989l16.37 10.083 10.771-5.692-.623-8.235-11.519-12.436z"/><path fill-rule="evenodd" clip-rule="evenodd" fill="#cfb524" d="M260.24 382.903l.949-16.813-5.201-26.7 3.817-5.245 12.345 8.06 4.748 5.888-3.307 3.231 2.804 17.733-12.981 15.576z"/><path fill-rule="evenodd" clip-rule="evenodd" fill="#856300" d="M275.552 363.714l.843 5.343-12.981 15.576-3.174-1.73z"/><path fill-rule="evenodd" clip-rule="evenodd" fill="#e6e6e8" d="M261.189 366.09l-11.528-18.018 6.327-8.682 11.023 17.435z"/><path fill-rule="evenodd" clip-rule="evenodd" fill="#856300" d="M273.591 351.324l10.274 4.557 2.787-3.531-14.502-10.145z"/><path fill-rule="evenodd" clip-rule="evenodd" fill="#6b5e54" d="M167.457 23.466l-24.484 8.328 17.92 4.038z"/><path fill-rule="evenodd" clip-rule="evenodd" fill="#f5d65c" d="M144.178 12.895l-10.1 4.736-1.294 14.187 7.567 4.958 8.809-1.426 3.103-6.714 5.654-5.369-5.848-5.953z"/><path fill-rule="evenodd" clip-rule="evenodd" fill="#e6c729" d="M160.893 35.832l-8.702-.939.072-6.257-.194-11.322.379-9.119 12.4 1.386 12.12 2.993-.952 9.131 4.791 8.058-8.067 4.279z"/><path fill-rule="evenodd" clip-rule="evenodd" fill="#dbc254" d="M154.439 1.38l-8.536 2.136-1.725 9.379 7.891 4.419 12.779-7.733z"/><path fill-rule="evenodd" clip-rule="evenodd" fill="#f5d65c" d="M182.213 8.324L176.65 2.46l-11.802 7.121 11.168 12.124 5.66 3.757 2.944-5.529 5.592-4.8z"/><path fill-rule="evenodd" clip-rule="evenodd" fill="#e6c729" d="M198.312 9.585l3.468 6.813 1.294 7.828-5.393 3.35-8.13-.161-6.482-.069 1.181-7.336-2.037-11.686z"/><path fill-rule="evenodd" clip-rule="evenodd" fill="#dbc254" d="M172.74 34.042l5.333 5.237 10.768-2.236.71-9.628-2.685-3.749-2.616-3.656-8.234 1.695z"/><path fill-rule="evenodd" clip-rule="evenodd" fill="#f5d65c" d="M215.692 18.608l-13.912-2.21-4.099 11.178 7.733 9.394 12.053-4.297 3.211-8.177z"/><path fill-rule="evenodd" clip-rule="evenodd" fill="#73665c" d="M160.893 35.832l-4.944 7.273 26.262 10.92 34.052 17.623L206.7 49.15z"/><path fill-rule="evenodd" clip-rule="evenodd" fill="#e6c729" d="M228.783 44.414l-11.316-11.741 4.227-6.149 4.823.473 11.242 1.777-1.534 12.704z"/><path fill-rule="evenodd" clip-rule="evenodd" fill="#dbc254" d="M225.434 18.008l-9.742.6.708 5.605 1.067 8.46 6.811-4.271 2.239-1.405zM146.389 45.832l-6.038-9.056 11.912-8.14 8.63 7.196-4.942 7.273z"/><path fill-rule="evenodd" clip-rule="evenodd" fill="#e6c729" d="M130.953 49.917l-4.044-9.36 5.908-8.993 14.256.867 5.882 11.529-11.115 9.454-5.867.175z"/><path fill-rule="evenodd" clip-rule="evenodd" fill="#b58c00" d="M140.859 36.607l-3.629 5.363 2.999 4.106 6.469-1.738v-5.68z"/><path fill-rule="evenodd" clip-rule="evenodd" fill="#f5d65c" d="M117.835 35.033l14.982-3.469-1.864 18.353-1.245 6.11-4.065.333-7.967-6.968z"/><path fill-rule="evenodd" clip-rule="evenodd" fill="#b58c00" d="M124.935 39.45l-2.681 3.631.073 3.831 3.556 1.06 2.997-6.313z"/><path fill-rule="evenodd" clip-rule="evenodd" fill="#dbc254" d="M128.646 69.202l11.355 1.96 10.545-13.876-3.658-8.163-15.935.794-5.31 6.443 1.146 5.772z"/><path fill-rule="evenodd" clip-rule="evenodd" fill="#b58c00" d="M133.242 56.21l-2.354 3.343 2.981 4.217 5.845-1.894-1.034-5.917zM143.557 20.895l-5.361.926-.738 4.207 4.819 2.905 3.439-3.31zM164.025 18.571l-5.549 3.347.997 4.983 6.602 1.141 2.386-5.155zM174.866 8.865l-2.594 3.837 2.143 2.932 4.626-1.241v-4.061zM191.311 13.774l-3.086 4.561 2.549 3.49 5.501-1.477v-4.83zM206.436 20.683l-3.63 5.365 2.999 4.104 6.47-1.735v-5.683zM233.015 32.668l-4.956-2.829-3.407 2.907 1.957 5.57 4.994-.38zM180.223 26.791l-3.032 4.48 2.505 3.426 5.404-1.448v-4.745zM153.412 6.02l-4.549 2.346.525 3.982 5.145 1.247 2.151-3.941zM224.209 23.312l-3.027-1.73-2.079 1.777 1.196 3.401 3.048-.232zM155.109 33.788l-2.918 1.105 2.033 4.074 2.861-1.936z"/><path fill-rule="evenodd" clip-rule="evenodd" fill="#cfb524" d="M152.169 390.236l13.202-10.458 16.512-21.618 6.458-.627 2.169 14.579-1.25 7.463-4.612-.326-11.399 13.868-20.266.639z"/><path fill-rule="evenodd" clip-rule="evenodd" fill="#856300" d="M176.685 388.938l-3.436 4.179-20.266.639-.814-3.52z"/><path fill-rule="evenodd" clip-rule="evenodd" fill="#e6e6e8" d="M165.371 379.778l5.821-20.585 10.691-1.033-5.717 19.816z"/><path fill-rule="evenodd" clip-rule="evenodd" fill="#856300" d="M184.648 379.249l3.414 10.706 4.494-.265-2.046-17.578z"/><path fill-rule="evenodd" clip-rule="evenodd" fill="#ffede8" d="M121.745 224.691l12.505-3.911 12.811 6.862.201 7.483-6.829 2.158-7.681-5.92 1.446 5.92-6.946 1.824z"/></svg>