<svg xmlns="http://www.w3.org/2000/svg" viewBox="-130.88 -49.003 400 400"><path fill="#46382d" d="M35.389 101.021L9.261 89.548l6.359-27.65 37.602 13.411 1.106 21.98z"/><path fill="#2b2b2b" fill-opacity=".149" d="M-21.568 336.729l91.242-14.515 91.102 14.515-91.241 14.515z"/><path fill="#9e7700" d="M41.471 321.108l-1.521 6.22 4.978 8.709 4.7-18.662h-4.01z"/><path fill="#b58b00" d="M3.731 334.378l27.925 1.659 17.972-18.662-3.595-11.198-16.451 18.939-11.198-3.179z"/><path fill="#efd0cb" d="M27.094 305.486l-8.71 16.451 13.272 14.1 14.377-29.86-4.976-3.871h-7.466z"/><path fill="#b58b00" d="M91.931 307.836l-4.563 16.174 8.02 15.069 29.999-1.105-10.509-16.037-13.685 6.221z"/><path fill="#efd0cb" d="M95.388 304.657l-3.457 3.179 3.457 31.243 19.49-17.142-4.147-14.93-3.179-2.35z"/><path fill="#cececd" d="M-7.468 162.126l13.825-.691 17.004-24.193-1.106-29.446zM-13.826 229.589l22.672-57.924 15.621-4.286 10.507 30.967-23.501 46.45z"/><path fill="#856400" d="M52.116 231.663l-25.299 9.539-10.645-31.244 1.521-11.197 20.599-9.4 43.409 10.368 13.409 13.134-19.63 26.818z"/><path fill="#8c6b00" d="M110.731 307.007l-18.8.829-19.078-36.358 14.378-21.704 15.344 2.903z"/><path fill="#9a7500" d="M100.777 241.893l1.798 10.784-29.722 18.801-20.737-39.815 34.7-21.29 11.473 9.539z"/><path fill="#ffeee9" d="M52.945 91.898l-17.142 15.898 8.986 37.049 45.205-27.511 6.222-16.727-5.392-10.091z"/><path fill="#e2e2e1" d="M17.831 142.634l4.424-34.838 30.69-15.898-11.751 21.013-4.285 15.76-13.548 21.013z"/><path fill="#cececd" d="M100.777 241.893l-19.076-42.164-13.549-12.857-.967-18.524 25.99 12.579 10.369-17.28 36.081 58.615z"/><path fill="#cececd" d="M105.341 112.22l-13.549 10.091L86.4 139.04v15.897l-2.764 12.995 10.783 18.11 27.096-65.113z"/><path fill="#e2e2e1" d="M87.231 112.911l-18.94 21.705 3.595 17.418 10.782-3.594 3.732-9.4 18.941-26.82z"/><path fill="#f4d75d" d="M24.053 144.015l17.141-31.104 10.922 15.898 35.115-15.898-7.05 17.973-33.456 27.649z"/><path fill="#e2e2e1" d="M44.789 168.762l-6.774 7.879-17.557 1.798-27.926-16.313 17.696-13.409 13.133.967z"/><path fill="#e5c828" d="M17.693 198.761l64.008.968-9.815-21.566-8.019-16.452-19.078 7.051-24.331 9.677z"/><path fill="#8c6b00" d="M46.033 306.177l-18.939-.691-10.646-41.473 13.964-6.222 18.662 11.336z"/><path fill="#9a7500" d="M16.172 209.958l-4.699 34.838 4.975 19.217 32.626 5.392 3.042-37.742z"/><path fill="#e2e2e1" d="M86.4 154.937l-3.456-7.05-11.058 4.147-22.535-3.594-9.677 6.913 5.115 13.409 49.63 17.28z"/><path fill="#ffeee9" d="M106.031 142.219L86.4 139.04l-3.732 9.4 3.732 6.497h15.207z"/><path fill="#efd0cb" d="M71.886 152.034L86.4 139.04V154.937z"/><path fill="#bc9700" d="M51.425 133.233l14.239-.692 12.442 3.595-6.22 15.898-22.535-3.594z"/><path fill="#e5c828" d="M55.71 138.348l-.967 1.382h1.797l-2.627 6.497 2.627.692 3.456-9.538zM62.899 138.348l-.967 1.382 5.806.138-1.521 1.936h-3.18l-.276 1.383 2.903.138-.139 2.626-4.976-.967-1.244 1.935 8.986 1.659v-4.563l2.765-4.285-2.765-2.212z"/><path fill="#856400" d="M52.116 128.809l-.691 4.424 26.681 2.903 2.075-5.252z"/><path fill="#5e5044" d="M-2.905 38.812L9.261 89.548l6.911-19.631L6.081 36.323l-4.562-3.594z"/><path fill="#46382d" d="M89.994 91.345l18.94-24.331 6.36-22.811-1.937-30.413-11.473-.967-10.092 13.685-8.018 25.575z"/><path fill="#efd0cb" d="M89.994 91.345l-30.689 21.704.83-113.913 4.147-3.318 4.009 3.594 23.087 39.814z"/><path fill="#cea39f" d="M91.655 30.656l-.498 15.389-12.636-14.698 7.879-3.871z"/><path fill="#46382d" d="M-22.536 15.172l30.69 37.049-2.073-15.898-12.996-17.556-5.114-9.401z"/><path fill="#5e5044" d="M-4.702-31.278l-17.834 46.45 15.621 3.595L9.951 2.73l4.286-23.225 10.784-6.222L9.675-30.31z"/><path fill="#5e5044" d="M45.618-49.25l-26.265 9.4-7.88 8.572 2.764 10.783 5.806 17.142 14.931 1.797 17.142-23.363z"/><path fill="#ffeee9" d="M78.521 31.347l-.415-22.396 14.377-.83-.828 22.535z"/><path fill="#cea39f" d="M88.157 15.379l3.635 5.023-7.271 5.968-.307-10.991z"/><path fill="#e5c828" d="M91.655 30.656l-4.51 6.105-5.368-5.414 4.845-4.839z"/><path fill="#46382d" d="M91.792-34.873L45.618-49.25 34.974-1.556l13.41 6.498L60.135-.864l8.156.276 20.737-8.985z"/><path fill="#cea39f" d="M59.305 113.049l21.567-44.238-18.111 7.88-9.539-1.382-3.733 6.359z"/><path fill="#46382d" d="M145.847 94.11l-25.299 35.114-15.207-36.082 6.221-55.022z"/><path fill="#5e5044" d="M87.231 112.911l2.763-21.566 25.3-47.142 5.254 85.021z"/><path fill="#46382d" d="M78.521 31.347L68.291-.588l11.612 6.497zM-4.702-31.278l18.939 10.783 5.116-19.355z"/><path fill="#efd0cb" d="M10.228 148.717l7.603-6.083 6.222 1.381 5.529 8.019-7.327 3.594z"/><path fill="#ffeee9" d="M44.789 168.762l-22.534-13.134 1.798-11.613 25.298 4.425z"/><path d="M86.539 210.512l-14.653-32.349-27.097-9.401-25.16 10.092 34.146 5.391 32.764 26.267zm23.641-35.944l-15.761 11.475 9.262-22.119 6.499 10.644zM86.4 154.937l-14.515-2.902 16.313 9.815 13.409-6.913H86.4z" fill="#2b2b2b" fill-opacity=".102"/><path fill="#ffeee9" d="M60.135-.864l16.173 56.403-13.547 21.152-22.119 8.295-24.47-15.069-23.087-51.15 21.152-39.262L34.974-1.556z"/><path fill="#efd0cb" d="M13.546 58.304l7.051 9.401-3.595-9.676zM68.291 36.461l-4.424 3.733 3.041 12.442z"/><path fill="#e5c828" d="M30.135 62.728l14.101.968 12.028-10.23z"/><path fill="#b58b00" d="M40.504 55.678l-10.369 7.05 12.304-3.042 13.825-6.22z"/><path fill="#cea39f" d="M36.079 44.203l-4.009 3.18 6.498 3.733 2.626-7.189z"/><path d="M1.795 29.688l4.424-6.36 13.548-.276 6.221 2.35 5.807 10.368-.967 7.328s-13.963-11.06-14.24-11.613c-.14-.415-14.793-1.797-14.793-1.797zM31.38 23.467l1.934 9.262 7.88 11.198 5.117-21.289L55.02 9.366l-8.019-.553-13.271 9.538z" fill="#efd0cb"/><path fill="#fff5f3" d="M25.987 25.402l5.393-1.935 9.814 20.46-9.124 3.456z"/><path fill="#46382d" d="M5.251 22.085l-3.456 7.603 5.392-5.115 12.58-1.521-2.626-1.659zM35.526 14.618l-1.796 3.733 12.857-7.879 8.433-1.106-8.987-1.798z"/><path d="M14.587 28.739c1.987-.737 4.196.277 4.933 2.264.737 1.988-.276 4.197-2.264 4.934-1.987.737-4.196-.277-4.934-2.265-.736-1.988.278-4.196 2.265-4.933zM44.491 17.652c1.987-.737 4.196.277 4.933 2.265.737 1.987-.276 4.196-2.265 4.933-1.987.737-4.195-.277-4.933-2.265-.736-1.988.278-4.197 2.265-4.933z" fill="#2b2b2b"/><path fill="#5e5044" d="M113.357 13.79L91.792-34.873 68.291-.588l23.501 27.096z"/></svg>