<svg xmlns="http://www.w3.org/2000/svg" viewBox="-136.544 -42.463 400 400"><path fill="#8e7e73" d="M6.762 7.534l-9.071.443-9.735 13.054 8.518 68.696 14.602-7.081 3.54-18.584z"/><path fill="#5e5044" d="M-3.526 89.727l34.293 30.199 7.854 7.301 12.169-5.531-3.651-24.779-3.43-9.514L9.528 66.606zM78.556 86.518l2.765 18.363 6.084 13.829 9.956-4.205 7.412-19.137-7.743-26.66z"/><path fill="#cea39f" d="M77.56 185.746l-7.413 2.102-3.095 6.416 9.179 6.084 5.532-5.53z"/><path fill="#efd0cb" d="M95.702 137.073l16.815-17.036 12.279 57.191-12.169 4.314-13.054-10.398-6.194-12.28z"/><path fill="#ffeee9" d="M49.904 111.518l-19.137 8.408 2.986 14.27 9.846 10.067 49.78 14.601 19.138-38.827-31.085-15.267-20.355 8.85z"/><path fill="#efd0cb" d="M50.347 136.187l-6.748 8.076 7.191 2.101z"/><path fill="#2b2b2b" fill-opacity=".102" d="M59.75 356.324l-74.67-15.818 74.67-14.823 68.475 13.938z"/><path fill="#efd0cb" d="M-16.579 167.825l20.022-20.243 15.377-8.519.774 24.006-9.071 6.968-14.492 2.988z"/><path fill="#27788c" d="M113.513 281.213l3.76-25.111 12.501-7.855 13.717 8.186-16.482 27.324-8.629 2.323z"/><path fill="#3aa0ba" d="M143.491 256.433l-13.166-.11-10.176-27.213 6.86-20.908z"/><path fill="#856400" d="M64.396 326.679l-10.178 16.04h31.307l-8.407-13.828zM33.753 324.909l12.722.885 7.743 16.925H25.789z"/><path fill="#755800" d="M28.886 310.638l-6.969 15.156 3.872 16.925 6.194-19.691zM78.003 301.236l-1.217 17.256 8.739 24.227 3.429-25.002z"/><path fill="#efd0cb" d="M35.855 306.435l-6.969 4.203-3.097 32.081 20.686-16.925-3.65-15.709zM69.595 301.899l-3.651 7.523-1.548 17.257 21.129 16.04-7.522-41.483z"/><path fill="#ffeee9" d="M16.386 268.27l12.5 42.368 15.155 4.536.664-29.758-3.982-12.942-13.054-9.847z"/><path fill="#efd0cb" d="M16.386 268.27l28.319 17.146-11.173-21.793z"/><path fill="#ffeee9" d="M66.498 265.726l11.505 35.51-12.391 12.057-34.292-45.798 14.602-7.19z"/><path fill="#b58b00" d="M31.32 267.495l35.178-1.769 13.495-30.532-.441-27.876-3.321-6.97-18.472 3.871-26.66 56.971z"/><path fill="#ccad14" d="M70.147 187.848l-8.185-1.439-36.948 8.74-5.752 5.199-13.054 33.85 10.178 34.072 14.934-.775z"/><path fill="#2b2b2b" fill-opacity=".102" d="M6.208 234.198l67.258-5.531 6.527 6.527-13.495 30.532-50.112 2.544z"/><path fill="#3aa0ba" d="M100.791 256.102l-7.081-11.173-14.712-47.347-1.438-11.836 22.013-14.602 3.983 13.054.553 59.404z"/><path fill="#318fa6" d="M124.796 177.228l-25.223-6.084 1.218 84.958 15.487-8.518 14.047 8.739z"/><path fill="#165e60" d="M115.394 245.151l-5.533 3.981-2.987 6.748 18.475.332-1.771-4.093z"/><path fill="#ececeb" d="M113.513 281.213l13.496 2.544-4.094 6.859-10.619-2.102zM115.504 246.698l-8.63 9.182-6.083.222 14.823-15.488 14.711 15.709-4.976-.111z"/><path fill="#ffeee9" d="M29.661 210.636l-10.399-10.288-6.969 8.407-.885 12.058 12.832-1.438z"/><path fill="#ffeee9" d="M-16.579 167.825l27.102 2.212 8.739 30.311-5.199 7.634-4.867.22z"/><path fill="#efd0cb" d="M11.408 220.813l-2.212-12.611 10.066-7.854z"/><path fill="#e5c828" d="M14.063 146.697l5.199 53.651 23.342-5.753 15.597 1.66 11.946-8.407 7.635-27.877-5.311-18.032-28.872 2.324-18.364-2.766z"/><path fill="#ffeee9" d="M60.414 207.87l3.982-5.973-7.522-10.841-14.27 3.539 1.437 9.957zM51.785 184.64l-1.217 3.982 6.306 2.434 9.07-.222 4.203-2.986z"/><path fill="#efd0cb" d="M70.147 187.848l-13.273 3.208 3.54 16.814 15.817-7.522z"/><path fill="#ccad14" d="M72.471 141.939l20.908 16.925-23.232 28.984z"/><path fill="#e5c828" d="M3.443 147.582l10.62-.885 12.943-12.058 3.761-14.713z"/><path fill="#f4d75d" d="M43.599 144.263l-29.536 2.434 16.704-26.771z"/><path fill="#efd0cb" d="M77.228 57.646L51.232 86.851l-.442 34.845 30.642-16.926 11.947-27.545-3.982-12.389z"/><path fill="#cea39f" d="M88.29 59.084l-10.178 7.079 15.267 11.062 3.651-8.517zM46.254 91.275l8.739 3.429 17.811-.885-22.014 27.877-11.173-26.328z"/><path fill="#74665b" d="M10.855-28.086l-22.899 49.117L2.337 10.964 21.032 4.99l5.42-11.062 4.757-20.797z"/><path fill="#8e7e73" d="M67.604-41.25L10.855-28.086 26.452-6.072l6.417 11.284L60.414 24.57l12.832-5.089 4.093-37.833z"/><path fill="#74665b" d="M106.543-12.931L67.604-41.25l5.642 60.731 22.345-8.186zM142.385 85.522l-25-18.252-20.355 1.438.442 60.4z"/><path fill="#8e7e73" d="M106.543-12.931L73.246 19.481l-6.97 24.89 11.836 21.792 64.273 19.359z"/><path fill="#ffeee9" d="M2.116 10.742l5.752 58.851 25.664 26.106 21.461-.995 23.119-28.541-4.866-46.682L26.452-6.072z"/><path fill="#318fa6" d="M77.56 185.746l10.62 31.97 4.314 5.974-.331 6.304 8.628 26.108-27.325-27.435z"/><path fill="#ececeb" d="M100.126 208.424l10.066 7.19 3.43 8.96-8.074 7.301-5.09-.663-1.881-2.102-2.431 1.438-3.983-.554-2.435-7.412.332-1.547-1.217-1.329-.663-1.99z"/><path fill="#474747" d="M97.361 213.18l.331 4.646 12.5-2.212-9.734 15.598-4.312-.664-1.551-8.408-4.867.442-.885-2.876 5.09-1.105-1.108-4.425z"/><path fill="#ececeb" d="M97.582 221.366l1.439 5.2 3.982-5.531z"/><path fill="#efd0cb" d="M13.067 29.105l-4.978 5.09 11.505 4.645 13.828 18.253.995-10.398-1.327-7.523-4.425-5.752z"/><path fill="#5e5044" d="M13.289 28.22l-5.2 5.975 6.748-3.43 13.828 2.655-2.876-4.204z"/><path fill="#efd0cb" d="M43.82 31.319l-5.088 7.41-1.991 7.302 4.756 13.053 12.721-21.017 12.722-8.74-9.292-3.651z"/><path fill="#5e5044" d="M46.365 27.114l-2.545 4.205 15.93-3.541 7.19 1.549-6.637-4.647z"/><path fill="#cea39f" d="M33.532 59.637l2.988-3.651 4.977 3.098-3.208 4.425z"/><path fill="#fff5f3" d="M33.09 39.172l5.642-.443 2.765 20.355-7.965.553z"/><path fill="#ccad14" d="M30.214 71.473l7.744-4.203 12.832 2.656-12.169 2.211z"/><path d="M53.112 82.093c.855 0 1.549.694 1.549 1.549s-.694 1.549-1.549 1.549-1.549-.693-1.549-1.549c0-.855.694-1.549 1.549-1.549z" fill="#efd0cb"/><path d="M21.967 37.58c2.101-.073 3.861 1.571 3.934 3.671.073 2.101-1.571 3.862-3.671 3.934-2.101.073-3.861-1.571-3.934-3.671-.073-2.101 1.571-3.861 3.671-3.934zM51.327 35.14c2.128-.074 3.913 1.592 3.986 3.72.073 2.128-1.592 3.913-3.72 3.986-2.128.074-3.913-1.592-3.987-3.72-.073-2.128 1.593-3.913 3.721-3.986z" fill="#2b2b2b"/><path fill="#e5c828" d="M36.63 77.005l-8.739-6.637 11.172 1.769 14.16-3.54-9.735 8.186z"/></svg>