<svg xmlns="http://www.w3.org/2000/svg" viewBox="-116.406 -40.117 400 400"><path fill="#9e7700" d="M146.159 203.545l9.033 2.007-5.352 21.747-16.394-7.36-6.357 13.048-5.688-.668v-7.026l7.36-9.703z"/><path fill="#a1915f" d="M71.216 93.471l-17.064 12.38-16.059 4.349-6.357-22.081 30.112-21.413z"/><path fill="#efd0cb" d="M144.821 223.285l5.019 4.014-3.347 13.048-7.359-8.365z"/><path d="M79.244 359.454l-100.036-22.082s110.41-10.37 107.397-10.37c-3.345 0 101.376 10.37 101.376 10.37L79.244 359.454z" fill="#2b2b2b" fill-opacity=".102"/><path d="M129.765 97.152c0 1.003 20.074 5.354 20.074 5.354l-24.089 44.832-2.677-40.818 6.692-9.368z" fill="#c2b476"/><path fill="#e5c828" d="M26.049 170.088l13.717 40.15 13.048-19.741 1.338-17.063-.334-5.018-19.071-7.696z"/><path fill="#feeeea" d="M50.807 196.854l-2.677-9.703-10.371 7.026 2.007 17.062z"/><path fill="#bf8f00" d="M51.811 136.965l-19.406 10.038-6.356 23.085 27.769-1.672zM112.368 334.028l10.371 14.051 33.123-14.051-21.747-68.587-2.677-22.752-8.364-12.043-8.7-27.435-15.725-6.023z"/><path fill="#ccad14" d="M92.293 336.37l10.372 11.041 20.074.668-16.729-149.887-14.051 3.346z"/><path fill="#bf8f00" d="M60.843 325.329l22.082 26.43 19.74-4.348-5.354-145.873-20.408 4.014z"/><path fill="#ccad14" d="M55.155 329.677l7.361 17.734 20.409 4.348 2.342-144.534-17.063-4.683z"/><path fill="#bf8f00" d="M34.078 322.651l5.353 25.094 23.085-.334L67.2 212.244l-2.341-19.406-18.402 7.361z"/><path fill="#ccad14" d="M44.114 204.884l-4.348 5.354-25.762 123.79 25.427 13.717 13.048-144.534z"/><path fill="#e5c828" d="M54.152 173.434l-6.022 13.717-4.016 11.71 7.697 12.044 14.721 7.695 47.842-15.389-8.029-15.726z"/><path fill="#eecfca" d="M141.809 231.982l-7.36 2.344-11.375-3.68 8.028-11.041z"/><path fill="#ffeee9" d="M136.79 211.91l-5.688 7.695 3.347 14.721 7.36-2.344 8.031-4.683-4.016-16.394z"/><path fill="#ccad14" d="M129.43 158.044l-6.691 19.405-1.338 47.844 33.791-19.741-12.379-47.174zM123.409 151.018l-17.064 36.467-58.215-.334-15.725-40.148 25.427-13.383 59.219.335z"/><path fill="#bf8f00" d="M108.017 134.29l4.016 13.047 10.706 30.112 20.074-19.071-13.717-54.2z"/><path fill="#e5c828" d="M43.111 115.553l-10.706 31.45 79.628.334 17.063-43.159z"/><path fill="#c2b476" d="M97.646 132.282v12.044l8.364 3.011 3.011-9.368 2.677-15.39-8.699.67z"/><path fill="#e1cf83" d="M53.818 139.642l.67 4.684-.67 25.093-13.384-26.765z"/><path d="M44.784 138.639c-.669.334-12.378 8.364-12.378 8.364l21.412 22.416-8.699-22.416-.335-8.364z" fill="#fdf7af"/><path fill="#a1915f" d="M111.698 112.877l-8.029 16.728 5.352 8.364 40.819-35.464-15.056-3.345-8.699 3.01z"/><path fill="#feeeea" d="M37.424 96.817l11.375 21.748 25.093 11.709 34.46-14.052 1.338-22.416-22.75-11.71L47.795 94.81z"/><path d="M44.45 109.531l8.364 4.684 15.725 6.357 4.348 6.357 8.7-6.357 24.089-6.691 7.36-3.346s-5.02 11.375-6.691 11.375c-1.339-.334-13.384 7.361-13.384 7.361l-38.474 1.672-10.037-21.412z" fill="#ebecec"/><path d="M49.468 103.843l10.372 23.085 32.119-.335 15.391-14.052 4.015 3.011-3.012.669-4.684 10.037-2.342 7.695-48.179-.334-11.71-21.078s-7.025-5.688-5.688-6.023c1.34-.332 13.718-2.675 13.718-2.675z" fill="#f4d75d"/><path d="M97.646 144.326s-5.688 5.018-5.688 4.015c0-1.004 5.688 22.415 5.688 22.415l8.364-23.419-8.364-3.011z" fill="#fdf7af"/><path fill="#c2b476" d="M94.301 135.627l-8.365 11.71 11.71 23.419v-26.43z"/><path fill="#fdf7af" d="M102.999 123.249l-11.04 3.345-6.023 20.743 11.71-3.011 6.023-14.721zM53.483 119.568l9.033 7.361-8.028 17.397-9.37 2.677-1.671-26.766z"/><path fill="#e1cf83" d="M43.78 124.921l-5.018 3.346-6.357 18.736h12.713l6.357-22.417z"/><path fill="#fdf7af" d="M90.286 79.754l13.383 15.056 22.416 7.36-4.014-23.085z"/><path fill="#e1cf83" d="M107.683 73.398l-4.014 21.412 18.402-15.725z"/><path fill="#856400" d="M134.115 245.367l-6.356.668-4.685-15.389 17.062 3.68 12.044 12.044-14.72 3.345z"/><path d="M39.766 210.238c.334-.671 8.364-23.087 8.364-23.087l8.699 14.387-5.018 9.367-12.045-.667z" fill="#eecfca"/><path fill="#cececd" d="M140.471 242.689l-4.349 2.344-25.762 47.173-11.041 23.754 2.677 8.364 42.155-76.281z"/><path fill="#e6e6e6" d="M126.085 239.679l6.691-.671.336 4.352-32.119 71.933-3.682 4.682-4.349-.668z"/><path fill="#ececeb" d="M101.327 313.954l.669 10.37-13.384 16.394 4.35-21.411z"/><path fill="#bf8f00" d="M123.074 230.646l29.106 15.724-10.371-14.388z"/><path fill="#f0bc65" d="M55.491 101.167l5.018.335 4.014 8.364 6.358 3.011 1.338 2.341-3.346.67-7.695-2.677-5.019-7.36zM107.349 97.821L91.29 110.869l-9.703 3.346-1.673 2.007 2.007 1.004 14.721-3.011 10.038-7.026z"/><path fill="#c2b476" d="M113.371 94.141l-12.044.669-9.368 31.784 11.71 3.011 22.416-27.435z"/><path fill="#c2b476" d="M111.698 101.835l14.387.335 23.755.335-15.725-19.74-17.733-9.367-7.361 22.75z"/><path fill="#e1cf83" d="M119.393 41.613L136.122 56l-2.342 26.431-15.725-3.346-4.684-16.729z"/><path fill="#a1915f" d="M71.884 93.471l-15.725 12.38-14.386 4.349-6.023-22.081 27.436-21.413z"/><path fill="#fdf7af" d="M33.409 97.821l-3.68 4.349-9.703 4.685 3.012-37.807 8.698-9.368 9.368 4.684z"/><path fill="#c2b476" d="M54.822 88.788L43.447 99.494l-13.718 2.676 4.684-29.776 14.052-9.368z"/><path fill="#fdf7af" d="M88.948 80.088l12.379 14.722 24.758 7.36-8.03-23.085z"/><path fill="#eecfca" d="M77.572 99.494l-.669 10.037 24.424-14.721 6.69-17.063L97.311 63.36 77.238 87.784z"/><path fill="#cfa49f" d="M57.832 86.111l19.071 23.42 18.066-20.743H84.932l-4.348-2.677z"/><path fill="#c2b476" d="M10.993 52.319l12.045 20.744 11.375-.669-1.004-18.736-15.055-13.049z"/><path fill="#a1915f" d="M17.015 26.223l1.339 14.386 16.059 31.785 8.03-13.383-12.714-40.149z"/><path d="M112.368 72.059l-5.688 3.68-21.748 13.049h-30.11L34.413 72.394l-8.03-55.873s18.401-37.137 17.064-36.803c-1.339 0 30.11-9.033 30.11-9.033l27.436 19.07 13.381 53.531-2.006 28.773z" fill="#feeeea"/><path d="M42.777 19.197l-4.684 2.676-6.357 3.011L47.795 35.59l11.71 10.706 11.041 5.354 14.386-16.729 15.391-10.372-5.353-5.353-13.382-.669-10.038 4.684-5.018 8.699-1.339 2.677-2.342-2.677-4.016-9.703s-12.044-3.68-12.044-4.349c-.334-.668-4.014 1.339-4.014 1.339z" fill="#eecfca"/><path fill="#a1915f" d="M58.836 22.208l-8.699-5.687-14.387 2.676v3.011l13.384-2.342zM71.55 23.211l10.037-6.69 13.048 1.003.334 3.346-12.712-1.338z"/><path fill="#fdf7af" d="M35.082 5.815l3.011 16.059-16.059 25.092-11.041 5.353 3.345-48.512z"/><path fill="#a1915f" d="M107.349 32.245l-2.342 44.498 3.345 4.015 9.703-1.673 3.012-17.732z"/><path fill="#e1cf83" d="M105.007 76.743l-3.68 18.067 16.728-15.725z"/><path fill="#fdf7af" d="M103.334 5.145L94.301 20.87l26.766 40.483L136.122 56 127.759.127z"/><path fill="#c2b476" d="M88.278-29.65l16.729-2.008L127.759.127 94.301 20.87l-6.023-33.122z"/><path fill="#e1cf83" d="M64.859-36.676l6.022-3.011 34.126 8.029-16.729 19.406-21.412-12.045z"/><path fill="#fdf7af" d="M42.443-16.936l4.014 1.338 20.409-8.699 4.015-15.39-30.447 6.691z"/><path fill="#c2b476" d="M46.457-15.598l-8.364 37.472L14.338 3.807l26.096-36.803z"/><path fill="#e3a941" d="M59.505 64.699l-4.683 3.345 5.353 3.681 11.041-.669 6.022-4.015-7.361-3.011z"/><path fill="#cfa49f" d="M62.182 47.301l-4.014 4.349 6.021 5.019 6.357-5.019z"/><path d="M49.803 28.9c2.217 0 4.014 1.797 4.014 4.014 0 2.218-1.797 4.015-4.014 4.015-2.218 0-4.016-1.797-4.016-4.015.001-2.217 1.798-4.014 4.016-4.014zM82.925 28.9c2.033 0 3.68 1.647 3.68 3.68 0 2.032-1.647 3.68-3.68 3.68-2.032 0-3.681-1.648-3.681-3.68 0-2.033 1.649-3.68 3.681-3.68z" fill="#2a2a2a"/><path fill="#fff5f3" d="M62.851 31.911L58.168 51.65h12.378l-4.014-19.739z"/><path fill="#bb8f3d" d="M51.141 69.048l10.037-7.026 7.695-.335L79.58 67.71l-9.034-2.008-10.037.335zM68.873 115.888l2.008-3.011 5.687-.335 5.689 1.673-.336 3.011-6.691 2.676z"/><path fill="#a1915f" d="M20.026 106.855l18.736 21.412-2.342-24.089-5.687-7.361z"/><path d="M41.438 109.531c.669-.335 2.008-10.037 2.008-10.037l12.713 6.357 6.357 21.078-11.041-2.342c0-.001-10.037-15.391-10.037-15.056z" fill="#c2b476"/><path fill="#fdf7af" d="M30.733 96.817l8.029 31.45 12.713-3.681-8.028-25.092z"/><path fill="#ababab" d="M132.776 239.008l7.695 3.681-30.445 52.529z"/></svg>