<svg xmlns="http://www.w3.org/2000/svg" viewBox="0 0 400 400"><path opacity=".1" fill="#231f20" d="M115.562 388.487l81.672-17.346 87.203 15.457L201.986 400z"/><path fill="#50a9aa" d="M252.199 215.601l-18.366 29.617 7.294 12.516 25.887-26.829-4.175-16.885z"/><path fill="#74665b" d="M166.224 127.387l-4.44 21.321 13.978 7.932-6.135 10.796 19.961 11.478 11.961-26.951-13.96-24.054z"/><path fill="#5f5145" d="M167.558 166.864l.326 3.934 20.749-4.791-9.872-27.722-16.977 10.423 9.396 9.826z"/><path fill="#47392e" d="M180.048 135.498l-5.535 11.996 14.155 16.855 5.601-34.176z"/><path fill="#feeeea" d="M244.934 313.093v49.562l-14.869-.036-15.522-53.366z"/><path fill="#efd0cb" d="M212.189 295.528l24.727-6.301-14.756-4.169-11.326 5.073z"/><path fill="#feeeea" d="M160.776 310.237v46.787l16.474 2.731 14.586-50.502z"/><path fill="#efd0cb" d="M192.387 290.788l-11.722-4.038-13.098 4.881 24.269 4.948z"/><path fill="#73cbcc" d="M173.277 252.536l-12.501-4.48 3.659-19.927 15.355 23.764z"/><path fill="#47392e" d="M171.18 158.534l17.453 7.473-9.62-31.554-17.229 14.255z"/><path fill="#60c0d9" d="M172.399 246.244l-11.623 63.993 84.158 2.856.886-48.854-31.277-24.091-25.537-.502z"/><path fill="#207778" d="M182.143 244.036l-9.744 2.208-11.623 63.993z"/><path fill="#3ba0ba" d="M214.543 240.148l24.453-46.185-57.487 9.994-14.924 2.276 15.367 38.396z"/><path fill="#195f61" d="M177.25 359.755l4.475 11.151-4.612 13.941h-6.592l-5.294-21.883z"/><path fill="#207778" d="M177.25 359.755l-11.717 25.132h-33.279l18.276-13.981 22.217-11.897z"/><path fill="#feeeea" d="M148.708 372.3h17.082l6.957-13.291-11.971-1.985zM248.584 156.939l-48.81 1.595-12.385 5.901-5.94.728-17.317 6.595-13.169 25.726 30.518 7.508 55.937-4.664z"/><path fill="#efd0cb" d="M187.388 164.435l18.104-2.218 15.108-18.395h2.509l20.485-63.636-32.719-25.73-4.54 65.167-14.704 19.105z"/><path fill="#feeeea" d="M146.188 37.288l-7.394 10.281-.271 12.965 5.35 44.141 16.464 34.154 31.294-.101 14.593-13.774 7.887-56.339-40.674-36.939z"/><g fill="#60c0d9"><path d="M207.12 187.764l-25.639 17.228 21.408 1.032 34.529-5.696 1.578-6.365zM150.963 197.484l15.622 8.749 14.894-1.241-10.994-12.3zM236.275 204.949l.995-4.024z"/></g><path fill="#feeeea" d="M234.968 81.678l-10.463-6.826-5.64 26.447 11.245 1.373z"/><path fill="#369496" d="M181.952 244.629l-17.123-32.539-2.98-17.924-10.886 3.318 21.436 48.76zM229.172 238.031l9.824-44.068-13.952-3.971-13.352 12.483 2.851 37.673 15.87 14.654z"/><path fill="#94d5d6" d="M238.996 193.963l9.588-37.024-34.84 2.222-10.855 46.863z"/><path fill="#207778" d="M214.543 240.148l30.391 72.945.886-48.854-16.648-26.208zM202.889 206.024l11.654 34.124 9.802-34.305-11.957-13.151z"/><path fill="#369496" d="M202.889 206.024l24.763-8.271-13.908-38.592z"/><path fill="#74665b" d="M198.086 169.466l11.146 31.274 15.113 5.103 14.651-11.88-4.639-20.716 14.227-16.308-4.395-17.401 17.612-19.816-6.452-35.306 7.49-14.882-13.599-37.155L195.642 0l-44.973 13.547-23.227 23.284-.708 34.294 11.454 5.667.335-16.258.271-12.965 7.394-10.281 27.249-5.612 45.059 35.415 16.472 14.587-6.005 25.413 7.638 16.216-16.001 20.515z"/><path fill="#207778" d="M237.418 200.328l29.596 30.577 14.292-14.484-32.722-59.482L242 181.861z"/><path fill="#94d5d6" d="M181.449 165.163l-13.891 1.701-16.595 30.62 15.622 8.749z"/><path fill="#195f61" d="M244.934 362.655l4.56 11.108-2.786 18.668h-5.076l-.689-20.568z"/><path fill="#feeeea" d="M230.065 362.619l-5.453 13.528 16.629 3.046 3.693-16.538z"/><path fill="#207778" d="M217.04 392.431l7.572-16.284 16.331.102 3.991-13.594-3.302 29.776z"/><path fill="#fff5f3" d="M165.235 73.221h4.237v17.863l3.584 8.446h-10.939l3.118-8.018z"/><path fill="#cea4a0" d="M173.056 99.53l-5.06 5.145-5.342-5.145z"/><path fill="#369496" d="M157.16 114.853l9.278 5.607h8.653l10.309-5.876z"/><path fill="#195f61" d="M189.048 112.041l-3.648 2.542-13.935 2.127-14.305-1.857-3.849-2.162 4.108.466 9.436-1.116 2.888.742 2.833-.837 11.986 1.006z"/><path fill="#efd0cb" d="M173.697 66.609l-4.225 6.612v17.863l3.584 8.446 9.686-24.238 19.648-10.984-12.248-.569zM141.21 64.308l13.77 10.984 10.255 16.22V73.221l-4.168-6.194-13.517-3.288z"/><path fill="#cea4a0" d="M218.865 101.299l8.33 13.434 2.915-12.061z"/><path fill="#47392e" d="M220.081 95.599l-5.97-26.984 7.899 3.947 2.495 2.29z"/><path fill="#5f5145" d="M150.669 13.547l-4.481 23.741 27.249-5.612L195.642 0zM139.463 68.601l-7.423-3.31-5.306 5.834 17.139 33.55z"/><path fill="#8f7f74" d="M127.442 36.831l4.993 9.333 13.753-8.876 4.481-23.741z"/><path fill="#47392e" d="M146.188 37.288l-13.753 8.876-.395 19.127 8.163 10.639-1.68-15.396.271-12.965zM262.839 69.534l-27.871 12.144 21.743 10.199z"/><path fill="#5f5145" d="M173.437 31.676l40.674 36.939 20.857 13.063 27.871-12.144-13.599-37.155zM261.801 119.722l-31.691-17.05-9.51 41.15 23.589-4.284zM198.086 169.466l36.271 3.781 14.227-16.308-27.984-13.117z"/><path fill="#47392e" d="M238.996 193.963l-33.904-4.837 4.14 11.614 15.113 5.103z"/><path fill="#cea4a0" d="M222.664 95.599l2.989-16.177 6.169 3.35z"/><path fill="#3ba0ba" d="M186.527 171.309l7.955 1.265.453 5.358-6.131 2.284-4.284-4.039zM184.269 199.381l4.255-4.623-.856-3.271-2.988-.588-1.937 2.225z"/><path fill="#369496" d="M188.221 180.101l-2.043 3.172 1.523 2.547 2.982-2.049-.994-3.38zM187.701 185.82l-2.412 1.987.963 3.401 2.936-2.553z"/><path fill="#207778" d="M166.585 206.233l2.623-22.671-18.245 13.922 9.813 22.323 21.176 24.822z"/><path fill="#cea4a0" d="M180.327 138.764l7.061 25.671 20.956-25.737z"/><path fill="#efd0cb" d="M181.479 204.992l2.79-5.611-1.526-6.257-4.859 7.845z"/><path fill="#369496" d="M198.873 171.676h-1.966l-2.425.898.207 2.414h3.065l1.768-1.492zM184.52 169.944l-1.923.263-.269-2.113-.879-2.931-1.377 3.804.86 1.566 1.181.265.92 1.724 2.487 1.23 1.007-2.443z"/><path fill="#47392e" d="M161.067 67.027l-.747-2.214-12.597-2.948-6.513 2.443 6.34-.569zM173.697 66.609l16.445-2.87 12.248.569-11.997-2.957-15.968 3.38z"/><path fill="#369496" d="M181.449 165.163l-30.486 32.321 15.622 8.749z"/><path fill="#cea4a0" d="M160.776 310.522l28.383 7.998 2.065-7.147-30.448-1.1zM244.934 313.093l-29.581-1.052 1.831 6.29z"/><path fill="#feeeea" d="M214.543 240.148l19.29 5.07 7.796 12.224-19.899-.039z"/><path fill="#efd0cb" d="M214.543 240.148l-15.152 10.062 10.848 10.06 11.491-2.867z"/><path d="M186.958 75.292c0 2.328-1.888 4.216-4.216 4.216-2.329 0-4.216-1.888-4.216-4.216 0-2.329 1.888-4.216 4.216-4.216 2.328 0 4.216 1.887 4.216 4.216z" fill="#2b2c2b"/><circle cx="154.98" cy="75.292" r="4.216" fill="#2b2c2b"/><path fill="#c4c4c4" d="M228.913 97.973l.722 1.866-1.255 1.557-1.977-.309-.72-1.866 1.254-1.557z"/><path fill="none" d="M167.335 247.101l61.837-9.07"/><path fill="#feeeea" d="M160.776 248.056l-2.347 14.464 5.975 3.959.525-16.934z"/><path fill="#cea4a0" d="M158.429 262.52l2.347 12.416 4.574 10.122 1.985-10.929-2.931-7.65z"/><path fill="#efd0cb" d="M164.929 249.545l-.74 23.854 3.146.73 4.125-22.243zM184.327 335.251l-23.551-9.115v30.888l16.474 2.731 7.077-24.503zM222.571 336.857l7.494 25.762 14.869.036v-25.798z"/></svg>