<svg xmlns="http://www.w3.org/2000/svg" viewBox="-82.136 -50 400 400"><path fill="#5a5858" d="M217.472 38.63l4.647 5.227-12.777 11.907-2.615-18.877z"/><path fill="#888688" d="M221.829 11.042l3.485 15.391-3.195 17.424-11.035-23.813z"/><path fill="#6f6c6c" d="M215.149 21.206l-3.774 22.651h10.744z"/><path d="M156.197-35.132l-13.648-7.26 27.587-7.26s10.745 13.068 11.326 13.649c.872.871-25.265.871-25.265.871z" fill="#888688"/><path fill="#2b2b2b" fill-opacity=".102" d="M-38.954 324.389l199.507 25.263 114.129-20.037-104.545-15.972z"/><path fill="#454444" d="M182.624 328.744l-10.454 4.647.87 6.097h32.236l-.292-5.226zM156.197 320.902l-27.589 5.809.291 4.936h44.141l.292-6.387z"/><path fill="#6b6766" d="M76.336 308.996l-15.681 9.293-1.743 8.131 21.2-.289z"/><path d="M107.409 312.48l6.68-4.355 6.097-11.326 7.842-1.162 5.227-5.807 2.033-17.424s-41.528-2.324-41.817-1.453c-.292.871-44.142 3.484-66.503 4.938l45.303 11.615 4.357 10.455 17.424 4.938-2.033 5.227 15.39 4.354z" fill="#27788c"/><path fill="#8ce0dc" d="M104.215 296.219l-.29-5.518 11.325-5.226 9.584 3.484 3.194 6.678-7.842 8.133h-6.097z"/><path fill="#6b6766" d="M133.255 289.83l20.619 20.037 19.458 4.067-33.689-47.627-7.84 3.195z"/><path fill="#535151" d="M118.154 275.891l15.101 13.939 6.679-13.648-8.131-6.68z"/><path fill="#3aa0ba" d="M59.783 305.221l.581 13.941 47.045-6.682-13.357-9.582-14.231-8.71-7.551-6.682-45.302-11.615-22.361 1.742 9.292 15.099z"/><path d="M103.925 275.02l31.363-2.613-3.484-19.457-32.815-5.518s-19.457 18.586-18.876 19.748c.289 1.449 23.812 7.84 23.812 7.84z" fill="#8b8a8a"/><path fill="#c2c1c2" d="M9.254 266.596l6.678 17.426 11.036 9.293 11.616-5.809H72.27l23.233-24.104-49.368-18.004z"/><path fill="#cdcccb" d="M-5.558 249.754l-11.617 3.775v11.326l33.107 19.167 15.972-20.329-11.035-13.939z"/><path fill="#eaeceb" d="M17.384 238.139L-.04 242.783l-17.135 10.746H7.22z"/><path d="M69.658 254.111l8.711 9.582 17.134-.291 25.845-4.936-14.81-11.617-3.195-17.135s13.068-2.611 18.876-4.064c-.58-1.162-.58-2.033-.58-2.033l-55.758 18.877 3.777 11.617z" fill="#8ce0dc"/><path d="M121.348 258.467s6.971-17.135 5.809-17.424c-.871 0-3.775-10.746-4.938-15.393-5.808 1.453-18.876 4.064-18.876 4.064l-4.355 17.717 22.36 11.036z" fill="#72cbcc"/><path fill="#3aa0ba" d="M78.369 263.693l9.583-14.519 11.036-1.742 9.003-13.651 15.972-3.775.29-15.393-19.457-12.195-18.006-.871.871 5.809-14.81 25.845-2.903 15.973z"/><path fill="#318fa6" d="M72.851 225.07v8.131l29.041-2.324 2.904-4.936 3.776 2.903 7.84-9.873 5.227-6.098-16.843-10.455z"/><path fill="#5ec0d9" d="M38.003 215.486l-8.713-3.193-18.005 21.199-6.389 20.037 27.008 10.164h46.465l-5.518-30.492 14.81-25.845-.871-5.809-20.038-1.162z"/><path fill="#a0a1a0" d="M72.27 287.506l67.664-11.324-1.742-8.713-42.689-4.067z"/><path fill="#72cbcc" d="M81.854 195.738l-4.356-2.033-22.361 2.615-.581 10.453 9.584-1.16-.292 8.713 18.876-5.228z"/><path fill="#8ce0dc" d="M55.137 196.32L29.29 212.293l4.357 9.873 16.553 5.807 6.97-11.616 6.678-2.031.292-8.713z"/><path fill="#eecec9" d="M101.892 213.453l5.228 2.904 1.452 12.487-6.68 2.033-4.647-9.873zM71.98 207.645l-7.84-2.032-6.97 10.744 15.681 16.844 10.165-6.388z"/><path fill="#ffeee9" d="M86.209 198.643l-10.163 3.486-11.906 3.484 18.876 21.2 14.229-5.809-1.161-18.297z"/><path d="M83.016 198.934s-7.261 2.902-6.97 3.195c.29 0 11.906 5.807 11.906 5.807l9.292 13.068-1.452-16.844-12.776-5.226z" fill="#eecec9"/><path fill="#ddddde" d="M99.569 186.736l-8.132 4.065-13.939 2.904-1.452 8.424 13.359.869 6.969 3.486z"/><path fill="#efeeed" d="M89.405 202.998l7.84 18.006 9.875-4.647.579-12.197-16.262-13.359z"/><path fill="#686b6d" d="M113.217 148.403l-6.097 6.679-15.683 35.719 16.262 13.359 21.49-17.715v-30.201z"/><path fill="#2b2b2b" d="M205.565 255.852l-.289 20.619 34.848-30.492-24.394-16.264zM128.028 214.904c-1.162-1.16-6.68 43.562-6.68 43.562l18.586 17.715 13.359-28.75-25.265-32.527z"/><path fill="#545657" d="M164.91 306.094l-11.036 3.773-25.266 16.844 44.724-1.451v-11.326zM191.046 307.254l8.13 7.26 5.808 19.748-32.814-.871 8.712-15.973z"/><path fill="#8ce0dc" d="M190.756 278.504l13.358 3.484-4.938 32.526-18.294 2.904-6.389-30.492z"/><path fill="#72cbcc" d="M160.262 278.795l-14.809 2.613 8.421 28.459 19.458 4.067 1.161-27.008z"/><path fill="#369496" d="M161.424 279.664l13.069 7.262 29.621-4.938 7.261-11.035 8.13-50.24-37.171-12.777-24.685 13.65z"/><path fill="#1c7678" d="M123.963 217.52l15.971 58.662 5.519 5.226 29.04 5.518-8.423-8.711-4.355-54.016-16.554-23.525-18.004 3.777z"/><path fill="#165e60" d="M127.157 204.451l5.809 1.162 28.749 18.586 22.361-10.746-2.323-38.625-54.887 9.875z"/><path fill="#454444" d="M129.77 178.606l-7.84-13.36-.582 93.221 15.102-50.822z"/><path d="M231.122 126.913l4.355 26.718-31.944 24.393-15.1-.58-8.132-48.208c.581 1.162 36.011-15.391 36.011-15.391l14.81 13.068z" fill="#545657"/><path fill="#454444" d="M119.606 113.845l-8.422-9.003-4.064 50.24 14.81 10.164 17.713-31.944z"/><path fill="#1c606f" d="M131.803 190.221l52.564.291-13.068-27.59-41.818 5.228z"/><path fill="#a0a1a0" d="M126.577 160.311l-4.647 4.935 14.52 42.399-2.033-28.459z"/><path fill="#545657" d="M111.184 104.842l10.746 60.404 15.681-24.974-6.679-8.132-.291-22.071z"/><path fill="#6a6b6b" d="M130.641 86.546l-5.517 6.099-13.94 12.197 14.52 6.679 23.234-6.969-10.455-15.101z"/><path fill="#318fa6" d="M156.197 166.117l-4.065 12.778-18.006.291-4.356-30.493 22.942 1.453z"/><path fill="#27788c" d="M151.551 150.725l.581 9.586v18.584l24.103-.58 11.035-31.945-24.393.291z"/><path fill="#5ec0d9" d="M160.844 153.049l-8.712 7.262-22.651-9.295 2.611-14.229-4.644-8.422 17.424 13.358z"/><path fill="#8b8a8a" d="M132.092 136.787l2.325 42.399-12.487-13.94z"/><path fill="#808181" d="M129.77 110.069l-4.066 1.452-11.325 11.617 17.713 13.649 15.393-15.972z"/><path fill="#318fa6" d="M153.294 150.146l-1.162 10.165 29.911-11.328-1.742-19.747z"/><path fill="#9d9a9a" d="M164.91 128.075l15.391 1.161-28.169 31.075-20.04-23.524z"/><path d="M136.159 116.749l-4.066 20.038 15.684 9.874s9.292-25.556 9.583-24.975c.289.29-21.201-4.937-21.201-4.937z" fill="#b3b0af"/><path fill="#cdcccb" d="M158.521 121.396l-10.456 7.55-.289 17.715 32.525-17.425 8.131-10.455-10.745-3.194z"/><path fill="#e0e2e2" d="M143.71 117.62l4.355 11.326 41.238-11.907 12.488-19.166-55.468 12.777z"/><path fill="#cdcccb" d="M137.321 102.229l-5.518 1.742-6.099 7.55 22.361 17.425.873-13.94z"/><path fill="#454444" d="M185.238 197.191l-2.033 16.844 56.919 31.944-11.325-65.34-11.327-.873-24.102 16.843z"/><path fill="#a0a1a0" d="M184.367 184.123l-5.809-2.904 4.647 32.816 4.355-14.521z"/><path fill="#8b8a8a" d="M180.301 129.236l-1.452 43.27 18.876.582 1.744-10.166z"/><path d="M221.248 107.456c1.742.291-1.162 18.004-1.162 18.004l1.743 19.168 8.422 18.294 33.978 1.744-14.23-72.021-28.751 14.811z" fill="#454444"/><path fill="#444648" d="M225.603 92.355l10.165-7.841 14.23 8.131-29.912 32.815z"/><path fill="#808181" d="M211.665 98.744l-16.263 3.485-15.101 27.007 39.785-3.776z"/><path fill="#6a6b6b" d="M214.859 76.673l20.909 7.841-15.682 40.946-24.684-23.231 5.227-29.622z"/><path fill="#454444" d="M200.339 63.024l9.003-7.26 26.426 28.75-29.911.581z"/><path d="M206.727 47.052l2.614 8.712-1.452 29.33-18.586 13.068S167.232-9.578 168.684-8.707c1.162.581 26.718-3.775 26.718-3.775l11.325 59.534z" fill="#eecec9"/><path fill="#cea19c" d="M184.076 78.125l7.261 2.904 8.421-4.937-2.904 17.424-41.528 15.682-.87-18.005z"/><path d="M164.329 86.837l-6.97 14.521 1.741 9.002-10.162 4.646-17.135-11.035s9.584-13.649 10.746-15.102c.871-1.451 21.78-2.032 21.78-2.032z" fill="#e0e2e2"/><path fill="#eaeceb" d="M157.359 101.357l23.232-3.775 27.298-12.487-12.487 17.134-46.464 12.777z"/><path fill="#cea19c" d="M203.243 38.34l-4.067 5.227 10.166 12.197 2.033-11.907z"/><path fill="#969494" d="M188.722-5.512l-1.741 9.294 6.969 23.813 9.874.871 8.422-35.139z"/><path d="M215.73 10.46c.29 0 6.099.581 6.099.581L217.472 24.4l-6.098 19.457-1.162-31.654 5.518-1.743z" fill="#a4a3a3"/><path fill="#feeee9" d="M209.923 14.236l-9.875 3.775-.872 25.556 12.199.29 1.741-24.974z"/><path fill="#888688" d="M209.923-4.931l-5.809 4.356-4.066 18.586 13.068.872 8.713-7.841z"/><path fill="#b5b1b1" d="M212.535 1.749l-8.421-2.324-17.133 4.357-8.132-5.809 4.356-20.327z"/><path fill="#a4a3a3" d="M204.984-6.673l-.87 6.098 17.715 11.617-3.776-20.329z"/><path fill="#757273" d="M216.601-13.062l6.97 2.614-1.742 21.49-5.518-14.52z"/><path fill="#afaaaa" d="M211.084-15.094l-8.422-9.294-17.714 13.94 19.166 9.873 12.197-2.903z"/><path fill="#969494" d="M206.438-22.935l5.808.871 11.325 11.616-7.26 6.97-11.327-14.23z"/><path fill="#757273" d="M102.181 8.428l-6.097 6.97 9.874 12.777 12.196-20.908z"/><path fill="#888688" d="M107.12-5.512l-5.518 4.066-5.518 16.844 15.1-6.389 6.97-16.553z"/><path d="M110.024-21.774l-7.551 3.485-.871 16.844 10.455-2.323s7.55-17.134 7.841-16.263c-.001.871-9.874-1.743-9.874-1.743z" fill="#919093"/><path fill="#b5b1b1" d="M119.897-23.807l-2.323-9.583-15.101 15.1 10.163 1.453z"/><path fill="#969494" d="M127.737-31.357l-10.163-2.033-4.938 16.553 26.137.871z"/><path fill="#888688" d="M143.71-36.294l-1.161-6.099-24.975 9.003 11.034 11.326z"/><path fill="#afaaaa" d="M175.654-26.42l9.294 15.972-6.099 8.421-16.843.581z"/><path fill="#a4a3a3" d="M177.687-26.13l-2.323 6.098 9.584 9.584 20.036-7.26-15.39-18.876z"/><path fill="#888688" d="M194.24-38.036h11.617l6.389 15.972-7.262 4.356-19.457-10.746z"/><path fill="#757273" d="M180.012-29.324l5.807.58 20.038-9.292-35.72-11.617 3.195 7.842z"/><path fill="#b5b1b1" d="M162.296-40.069l11.036-1.742 12.487 13.067-10.165 8.712-26.136-9.873z"/><path fill="#969494" d="M152.132-20.903l9.001-7.841 14.521 8.712-6.679 14.23-18.296-3.485zM138.773-21.193l-10.165-.871 13.941-20.329 30.783.582-12.199 13.067z"/><path d="M121.348 4.363l-9.292-8.132.58-13.068 15.972-5.227s4.066 2.323 4.357 3.194c0 .871-4.357 25.265-4.357 25.265l-7.26-2.032z" fill="#afaaaa"/><path fill="#b5b1b1" d="M132.092 9.299L128.608-4.06v-18.004l32.525-6.68-3.774 11.326z"/><path fill="#ffeee9" d="M105.958 28.175l19.166 64.47 23.814 9.003 2.613-.291 1.453-2.033 1.161 2.033h3.194l33.978-20.328-12.488-83.056-21.49-15.391L128.608-4.06l-16.552.291z"/><path fill="#eecec9" d="M118.445 23.529l-6.389 6.97 14.81 4.356 10.455 23.813 11.035 1.162 11.326-31.074 14.52-14.811-12.487-1.161-16.554 14.811-2.612 4.065-2.906 8.422-2.903-7.55-5.518-5.518z"/><path fill="#cea19c" d="M139.934 58.087l-2.323 5.228 8.712 2.323 2.033-5.808z"/><path fill="#eecec9" d="M150.098 101.648l5.809-.291-2.613-7.26z"/><path fill="#cea19c" d="M129.77 75.512l18.876-.872 19.748-7.841-17.134 18.586z"/><path fill="#fef4f2" d="M136.74 32.532l.871 30.783 10.745-3.485-5.807-28.17z"/><path fill="#878889" d="M144.581 21.787l15.392-10.455h13.94l.289 2.613-13.649 1.162-15.392 12.488zM130.932 22.077l-13.939-.871-5.809 7.841.872 1.452 5.808-4.937 13.358 1.452z"/><path d="M126.286 31.66c1.742-.29 3.484.872 3.775 2.614.29 2.033-.872 3.775-2.613 4.066-1.744.29-3.485-1.162-3.776-2.904-.29-1.743.872-3.485 2.614-3.776z" fill="#2b2b2b"/><path fill="#fff" d="M137.031 76.963h11.907l13.358-5.808-11.617 11.036z"/><path fill="#cea19c" d="M208.47 24.109l-4.356-.289-.581 9.002z"/><path fill="#72cbcc" d="M43.81 253.24l11.036 3.774 13.358-6.969-4.064-10.746-14.231-3.776-10.454 2.616-2.033 6.968z"/><path fill="#8ce0dc" d="M24.353 236.106v11.035l9.003 7.259 10.454-1.16-4.355-15.101-9.293-4.647zM37.713 314.805l-23.814-22.073L29 290.121l16.262 9.293z"/><path fill="#6b6766" d="M15.932 284.022l-31.363 43.269 18.876 2.324 35.139-42.109z"/><path fill="#72cbcc" d="M42.94 297.961l15.101-4.646 13.648 10.455-11.325 15.392-22.651-4.357zM100.44 302.898l13.649 5.227 6.097-4.355-16.261-13.069-4.356 4.647z"/><path fill="#686b6d" d="M210.213 163.504l11.616-18.876 42.399 20.038-45.302 20.619z"/><path d="M159.1 25.562c2.033-.29 3.485.871 3.776 2.904.29 1.743-.871 3.485-2.614 3.775-1.741.291-3.484-.871-3.774-2.904-.291-1.742.871-3.484 2.612-3.775z" fill="#2b2b2b"/><path d="M211.375 270.953l-7.261 11.035-29.621 4.938-29.04-5.518-5.519-5.227 26.136 2.033 45.305-7.261zm4.645-28.75l1.452-9.002-34.268-19.166 32.816 28.168z" fill="#2b2b2b" fill-opacity=".102"/><path fill="#eecec9" d="M183.496 176.283l-6.971 1.16 2.033 3.776 9.002 18.295 6.97 1.16-1.16-23.231z"/><path fill="#ffeee9" d="M204.984 167.57l-26.135.871-16.553 10.165 1.742 5.226 24.394-4.646 6.098 21.488 12.197-10.744z"/><path fill="#eecec9" d="M203.533 167.57h-6.098l5.808 9.291 3.484 13.069 1.452-13.358z"/><path fill="#efeeed" d="M214.859 169.602l-4.646-6.098-10.744-.582-2.034 4.648 7.841 7.551 9.002 15.971 4.648-5.807z"/><path d="M205.276 175.121c.581.869 1.451 14.809 1.451 14.809l7.551 1.162 4.647-5.807-13.649-10.164z" fill="#ddddde"/></svg>