<svg xmlns="http://www.w3.org/2000/svg" viewBox="0 0 400 400"><g fill-rule="evenodd" clip-rule="evenodd"><path opacity=".1" fill="#2b2b2b" d="M106.047 396.48l45.546-19.795 134.837.611-43.575 22.355z"/><path fill="#555656" d="M263.703 376.208l-10.21 3.875-16.655.19-7.756-4.065 4.286-14.157 11.179-4.833 13.763 3.819z"/><path fill="#4a4d4e" d="M233.547 285.953l-14.538 69.858 8.271 5.732 31.03-.506 10.041-83.784-3.53-2.256z"/><path fill="#43a7a8" d="M136.321 187.085l24.332-33.718 3.358 10.431-3.897 42.904-11.406 9.63-11.181-16.047z"/><path fill="#cdcccb" d="M187.344 170.357v24.402l12.81-19.338-.95-8.288-8.539-4.603zM203.949 166.672l-1.421 8.749 7.113 17.036 11.387-18.877-5.218-11.05z"/><path fill="#cea19c" d="M182.518 130.091l5.806 8.328.759 5.431 10.924 18.116 33.849-19.862 3.157-18.387-10.94 4.842-43.029-1.356z"/><path fill="#1e9193" d="M276.719 160.399l5.093-4.017 21.97 77.862-43.701-10.47zM160.653 153.367l-3.782 53.174.135 54.275 3.822 3.929h27.939l5.219-49.266-3.321-3.683-14.708-38.677 9.489-30.849z"/><path d="M247.354 143.673l34.458 12.709-12.913 55.758-4.404 13.294-30.857 30.668-18.301-4.675-13.382 11.87-13.188 1.448 1.898-52.949 46.495-40.979 10.194-27.144zm6.998 132.361l6.447 3.939 7.552-2.721.2-23.621-6.001-2.24-8.016 5.725-.182 18.918z" fill="#43a7a8"/><path fill="#484749" d="M229.082 383.047l34.621.078v-6.917h-34.621z"/><path fill="#198ba4" d="M211.958 390.797l-2.853-6.623.893-96.976 29.06-4.497-.546 100.346z"/><path fill="#5ec0d9" d="M124.958 388.26l87 2.537 3.861-104.499-83.512.088-4.269 3.221z"/><path fill="#318fa6" d="M224.825 268.43l5.693-7.366 9.398 3.332 17.647-4.715 3.236 20.293-34.076 12.398-5.695-12.893z"/><path fill="#70cde3" d="M151.759 261.982l-40.327 7.368 12.81 3.223 85.876.459-9.199-12.61z"/><path fill="#ecedeb" d="M252.818 249.551l-13.034-4.92-8.316 8.603 8.448 11.162 17.647-4.715z"/><path fill="#207678" d="M303.782 234.244l-46.219 25.437-17.779-15.05 29.115-32.491z"/><path fill="#626567" d="M155.96 223.279l-3.252 41.466h5.694l1.701-41.184-1.701-2.097z"/><path fill="#207678" d="M188.908 260.802l-4.918-5.238 5.292-5.171 5.177 5.834zM189.87 233.986l-4.919-5.238 5.29-5.171 5.179 5.835zM129.32 169.796l19.388 46.536-33.415 11.761-6.1-48.101 8.609-10.597z"/><path fill="#ecedeb" d="M109.193 179.992l20.127-10.196-3.987-9.9-10.04-1.461-8.032 6.333z"/><path fill="#f0cfc9" d="M96.219 147.717l11.042 17.051 9.036-2.437 4.841-20.35-1.015-3.502-11.858.957z"/><path fill="#feeee9" d="M96.219 127.257v20.46l23.904-9.24-6.064-20.911zM126.838 134.078l-14.055 19.484 3.514 8.769 9.036-2.435 6.525-23.871z"/><path fill="#007072" d="M221.69 190.559l24.961-.404-1.425-7.367-18.034.427zM197.781 172.658l-10.437 22.101 3.321 17.037 18.976-19.339-5.218-19.799-2.846-2.301z"/><path fill="#005658" d="M201.101 156.544l-10.436 5.986 7.116 10.128h6.642l11.387-10.128z"/><path fill="#ecedeb" d="M185.446 142.27l2.878-3.851 12.777 18.125-13.757 13.813z"/><path fill="#f0cfc9" d="M243.329 134.443l-9.473 7.661-25.562-10.643.996-4.748 14.673-10.171.944-45.432 3.115-8.743 6.359-6.067 16.229 3.373 4.407 33.962z"/><path fill="#ecedeb" d="M221.028 173.58l-19.927-17.036 42.228-22.101 4.025 9.23z"/><path fill="#1e9193" d="M243.803 175.421l3.551-31.748-28.015 28.462-28.674 39.661z"/><path fill="#43a7a8" d="M168.366 172.658l22.299 39.138-1.975-42.79-3.244-26.736z"/><path fill="#a8a8a9" d="M262.799 40.348l1.502 20.869-36.282 1.312-2.584-6.74v-7.315l16.315-8.008z"/><path fill="#cea19c" d="M241.379 85.626l13.638 8.009 2.313-8.073-4.491-4.879z"/><path fill="#cdcccb" d="M225.435 48.474l37.364-8.126-1.342-13.916-20.233-2.309-11.579 6.638-4.21 4.597z"/><path fill="#a8a8a9" d="M208.067 10.843l14.736 20.941 6.126-.242 32.528-5.11L229.598.657l-22.057 3.036z"/><path fill="#cdcccb" d="M169.122 4.714v3.065l13.683 11.236 26.677-13.541L229.598.657 194.576.349z"/><path fill="#feeee9" d="M156.743 128.719l-7.861-12.863-1.747-90.714 21.987-20.428 14.737 7.15 25.623-6.39 19.447 26.068-2.591 88.002-18.044 11.917-25.776-1.37z"/><path fill="#cea19c" d="M171.281 101.979l21.118-1.627 3.512-3.858 2.485-.505 1.51.649-5.395 6.891-22.967 1.493z"/><path fill="#feeee9" d="M245.473 61.898l-4.094 23.728 15.951-.064 6.971-24.345z"/><path fill="#cea19c" d="M251.555 66.943l-2.506 11.698 8.726-12.017z"/><path fill="#f0cfc9" d="M154.842 61.063l2.235-3.803 7.889.008 8.561 2.805 4.738 8.497.591 8.661-5.469 13.236-7.895-21.963zM188.558 58.951l-3.229 9.277-2.879 7.418 7.251 15.331 10-25.027 9.932-10.416-6.999-3.415zM162.373 102.501l9.182-5.483 1.832-6.551zM189.701 90.977l6.209 5.517 14.842.533z"/><path fill="#cc9f9a" d="M181.017 96.34l-7.63-5.873 7.366-1.533 8.948 2.043z"/><path fill="#fef4f2" d="M185.329 68.228l4.372 22.749-16.314-.51 4.878-21.897z"/><path fill="#828382" d="M157.267 54.781l-4.932 4.53 2.507 1.752 3.186-2.188 15.499 1.198-.622-4.479zM187.852 54.152l.706 4.799 14.87-4.908 6.205 1.491.329-2.689-7.946-2.914z"/><path d="M167.363 72.633c1.826 0 3.314-1.474 3.314-3.281 0-1.808-1.489-3.281-3.314-3.281-1.823 0-3.314 1.473-3.314 3.281 0 1.806 1.49 3.281 3.314 3.281zM196.388 71.568c2.001 0 3.634-1.617 3.634-3.599 0-1.982-1.633-3.599-3.634-3.599-2.002 0-3.634 1.617-3.634 3.599 0 1.982 1.632 3.599 3.634 3.599z" fill="#2b2b2b"/><path fill="#484748" d="M148.708 216.332l4.159 8.952 10.826.31 6.05-8.961-9.919-5.759z"/><path fill="#626567" d="M154.778 206.438l-6.07 9.894 21.035.301-4.858-9.694z"/><path fill="#3aa0ba" d="M111.432 269.35l1.318 20.511 113.973 2.511-1.898-23.942-9.488-6.909-11.481 7.078z"/><path fill="#f0cfc9" d="M239.916 264.396l-8.448-11.162-16.823-8.123.692 16.41 9.488 6.909z"/><path fill="#feeee9" d="M214.645 245.111l10.18 23.319-20.969.169-7.065-8.045z"/><path fill="#f0cfc9" d="M156.139 40.515l22.603 1.714 23.308-6.855 8.83 3.084-11.302-.685-21.896 7.198zM161.083 35.374l16.953 2.399 19.071-7.198-20.131 4.457zM181.744 119.516l.774 10.575-4.158-5.452zM180.89 50.795l.706 8.74 6.941-.735-4.755-1.844z"/><path fill="#3ba0ba" d="M170.689 360.264l-8.348-6.131 4.29-6.132 7.525-.385 4.022 6.391z"/><path fill="#328fa6" d="M146.518 311.975l8.891 3.449 6.267 8.049-2.497 2.299 2.113 4.598h2.371l5.958-7.992-1.124-.822.126-2.3 2.04-1.151 4.632 1.918-.523 2.299 3.502 8.048 2.392-.383 2.997-4.215-2.637-2.299 5.561-7.666 10.96-5.366-6.626 12.648-.821 7.665-12.23 10.806 3.924 3.375.725 1.148-1.248 1.151-6.539-2.901-.141 3.905-3.712 2.127-4.248-2.364.473-3.099h-.001l-6.747 2.332-1.121-1.151.852-1.148 3.75-2.945-11.318-10.088-1.047-9.58z"/><path d="M184.756 308.142c-.98 0-1.82.773-1.872 1.726-.054.952.699 1.723 1.681 1.723.981 0 1.819-.771 1.873-1.723.053-.953-.699-1.726-1.682-1.726zm-12.024-6.611c1.556 0 2.746 1.223 2.663 2.73-.084 1.509-1.411 2.731-2.967 2.731-1.553 0-2.745-1.223-2.661-2.731.084-1.507 1.411-2.73 2.965-2.73zm-7.147 3.353c1.254 0 2.216.987 2.147 2.202-.066 1.219-1.139 2.206-2.393 2.206-1.254 0-2.216-.987-2.148-2.206.069-1.215 1.141-2.202 2.394-2.202zm-5.611 3.258c.98 0 1.734.773 1.681 1.726-.053.952-.892 1.723-1.872 1.723-.982 0-1.734-.771-1.683-1.723.054-.953.893-1.726 1.874-1.726zm19.533-3.258c-1.253 0-2.325.987-2.393 2.204-.067 1.217.895 2.204 2.147 2.204 1.254 0 2.326-.987 2.394-2.204.068-1.217-.894-2.204-2.148-2.204zM166.125 321.556l.482-1.533 2.016-.767-.126 2.3zM152.329 349.533l1.927.378 2.524-2.295 3.576-.382-.269-2.299-3.991.766zM147.396 338.803l.407 6.898 5.465 1.149-.513-4.981zM162.999 328.07l3.79 1.713 4.505-1.713 4 1.487 4.035-1.535-.518 12.706-7.988 7.059-8.08-6.773z" fill="#3ba0ba"/><path d="M176.45 342.813l-2.49 2.202.327-11.291h2.369l-.206 9.089zm-5.627 4.974l-1.764-1.478.7-12.586h2.369l-.202 13.087-1.103.977zm-3.825-3.207l-2.264-1.898.497-8.958h2.37l-.603 10.856z" fill="#60c0d9"/><path fill="#3ba0ba" d="M189.041 349.533l-2.181.152-2.057-2.069-3.532-.382.523-2.299 3.907.766zM195.166 338.803l-1.172 6.898-5.594 1.149 1.068-4.981z"/></g><path fill="#fff" d="M226.431 203.83l-2.114 3.733-.09 1.504 1.552.658-1.532 1.091v1.685l16.818.609.025-1.685-.687-1.019.71-.483.028-1.838-.664-.545.688-1.024.025-1.596-.463-.94.505-.366v-1.47l-9.634-.074z"/><path fill="#318fa6" d="M231.598 207.821l-7.281-.258.079-5.548 7.202.055z"/><path fill="#3aa0ba" d="M241.113 209.923l-16.886-.856.02 1.749 16.843.609zM231.598 206.263l9.567.253-.024 1.569-9.543-.264zM231.598 204.65l9.592.27.042-1.306-9.634-.29z"/></svg>