<svg xmlns="http://www.w3.org/2000/svg" viewBox="-112.507 -43.753 900 350"><path fill="#B3B3B3" d="M42.632 252.028L29.974 268.91l152.542 37.337H561.6l-41.218-18.506-373.891-55.193z"/><path fill="silver" d="M-10.596 195.209l-44.139 11.362 84.709 62.339 128.2-22.401-72.376-52.599z"/><path fill="#8CE0DC" d="M292.866 60.793l9.412 7.144 6.491-9.741z"/><path fill="#72CBCC" d="M292.866 60.793l-11.36 8.441 17.527 1.299 4.219-5.518z"/><path fill="#8CE0DC" d="M314.936 52.677l6.167 1.623-4.22 5.195-8.114-1.299z"/><path fill="#50A9AA" d="M359.724 64.689l-7.464-6.493-9.736-1.299 2.271 6.494z"/><path fill="#1C7678" d="M672.274 138.392l14.93-.651 7.14 13.961 16.552-8.441 9.737 7.467 8.44.65 13.955 12.986-50.956-8.118-21.744-10.714z"/><path fill="#50A9AA" d="M683.958 134.82l-8.114 3.245 18.5 13.637 3.246-8.441-2.273-4.221zM720.633 150.728l-26.289.974 8.763-9.417 7.789.976 8.114 1.947z"/><path fill="#50A9AA" d="M729.073 145.856l-8.44 4.872 22.395 13.636-9.413-16.233z"/><path fill="#1C7678" d="M637.548 118.261l13.305-.974 16.228 7.792-11.36 17.857-19.148-15.91z"/><path fill="#369496" d="M639.493 110.794l2.922 7.143 19.473 4.22 6.492-4.87-10.062-8.441-13.307.973z"/><path fill="#8CE0DC" d="M645.011 109.819l15.255-6.818 8.114 14.286z"/><path fill="#50A9AA" d="M668.055 125.079l.325-7.792-25.965.65 20.772 8.117z"/><path fill="#5EC0D9" d="M721.607 90.339l-10.061-5.195 4.869-4.221 5.516.65 4.221.649 9.411 8.117z"/><path fill="#73CFE5" d="M727.125 79.624l-4.869-.324-.325 2.273 13.632 8.766z"/><path fill="#BEBEBD" d="M688.503 84.494l-2.273-1.623-5.517 14.61-24.667 39.936 9.414 11.038 17.2-36.688z"/><path fill="#8CE0DC" d="M678.116 123.456l-2.272 14.609 19.473.975z"/><path fill="#ABABAB" d="M673.248 146.183l17.202-51.299-.974-2.922-.973-7.468-23.043 59.741v4.22z"/><path fill="#BEBEBD" d="M705.379 84.494l-15.903 7.468-.649 8.441 17.525-13.311z"/><path fill="#3AA0BA" d="M688.503 84.494l15.902 4.222 17.526-7.143-14.28-1.949z"/><path fill="#73CFE5" d="M688.503 84.494l33.428-2.921-12.658-5.195-12.333-.325z"/><path fill="#3AA0BA" d="M693.371 71.508l3.569 4.545 24.991 5.52 10.062-3.572-14.93-5.195z"/><path fill="#73CFE5" d="M726.476 64.689l5.517 13.312-38.622-6.493 25.639-7.468z"/><path fill="#BEBEBD" d="M671.3 69.56l12.009 7.466.324 6.17-13.631-11.364zM688.178 58.196l-4.869 18.83 3.895.326 1.299-5.195 1.947-14.935z"/><path fill="#ABABAB" d="M688.503 84.494V72.157l-5.194 4.869-2.596 20.455z"/><path fill="#3AA0BA" d="M673.248 62.092l-13.308.974 12.01 10.39 12.658-1.624z"/><path fill="#73CFE5" d="M674.222 58.196l-14.282 4.87 24.668 8.766-3.571-11.364z"/><path fill="#3AA0BA" d="M712.196 60.468l-19.8-2.597-18.174.325 10.386 13.636 37.973-1.623z"/><path fill="#5EC0D9" d="M682.336 52.677l-8.114 5.519 48.359 12.013-10.385-16.559-17.203-3.571z"/><path fill="#73CFE5" d="M697.914 44.884l-15.578 7.793 29.86.973z"/><path fill="#8CE0DC" d="M695.317 139.04l5.193 3.571 10.386.65-4.868-10.064z"/><path fill="#369496" d="M695.317 139.04l-.973 12.662 16.552-8.441z"/><path fill="#1C7678" d="M724.204 142.936l-13.308.325 9.737 7.467 12.982-2.597z"/><path fill="#8CE0DC" d="M732.642 138.065l-21.746 5.196 22.719 4.87z"/><path fill="#3AA0BA" d="M720.633 91.962l-8.437-6.493 23.367 4.87z"/><path fill="#72CBCC" d="M321.103 54.3l-4.544 4.545-2.596 3.896 11.683 1.299 1.949-4.221z"/><path fill="#50A9AA" d="M315.26 66.638l-12.008-1.623 7.465-5.52 5.842-.65 11.036.974z"/><path fill="#72CBCC" d="M342.524 56.897l-8.115 1.623 5.193 5.844 6.49-2.922z"/><path fill="#ABABAB" d="M338.304 40.339l-7.465 7.142.65 3.573 1.623.648 5.842-9.416z"/><path fill="#3AA0BA" d="M343.823 45.208l-9.738-5.519 9.738-1.624 9.735 1.949z"/><path fill="#5EC0D9" d="M344.147 31.897l-11.36 1.948 1.298 5.844 19.473.325z"/><path fill="#BEBEBD" d="M316.559 44.235v1.623l5.192 3.897 2.273-.975-.975-1.299z"/><path fill="#ABABAB" d="M326.296 46.832l-3.247.649-1.298 2.274 6.168.648.649-.973z"/><path fill="#BEBEBD" d="M324.998 40.663l3.57 14.286 2.921-.325 1.623-2.922-5.193-10.064z"/><path fill="#ABABAB" d="M327.27 61.442l1.298-6.493 4.544-3.247 1.297 6.818-2.272 2.598z"/><path fill="#5EC0D9" d="M307.147 25.728l5.193 6.494 25.316.974 4.868-5.519-19.799-4.871z"/><path fill="#73CFE5" d="M307.147 25.728l18.175.325 17.202 1.624-14.929-9.092z"/><path fill="#BEBEBD" d="M-13.517 65.663l10.386 7.143 2.922-2.922-2.922-1.299-6.816-3.57z"/><path fill="#ABABAB" d="M9.202 67.937l-3.894-1.95-8.439 2.598v4.221l12.983-2.273z"/><path fill="#1C7678" d="M40.685 140.662l-20.773-3.245L7.58 155.598l-21.421-14.936-14.606 8.768-12.008-.975-22.07 15.909 72.377-2.272 31.807-10.714z"/><path fill="#50A9AA" d="M25.107 133.846l10.385 6.168L7.58 155.598l-2.922-12.662 3.896-5.195 5.517-2.921z"/><path fill="#50A9AA" d="M-28.447 149.43l36.027 6.168-10.385-15.26-11.036.324-11.684.975zM-39.481 140.988l11.034 8.442-34.078 14.934 16.553-21.103z"/><path fill="#1C7678" d="M92.614 119.235l-18.176-3.572-5.193 10.065-19.473-12.337 1.299 12.663 11.683 24.025 29.535-18.507z"/><path fill="#8CE0DC" d="M90.991 108.196l-11.035 11.039-21.745 1.299 20.121-16.884z"/><path fill="#50A9AA" d="M49.772 113.391l30.184 5.844-7.789 14.285z"/><path fill="#5EC0D9" d="M-17.411 65.015l17.202-1.949-9.738-10.065h-7.789l-6.491.324-13.956 9.416z"/><path fill="#73CFE5" d="M-24.552 49.43l6.816.325v3.246l-20.447 9.74z"/><path fill="#BEBEBD" d="M27.703 63.066l3.894-1.624 4.868 21.104 5.518 13.961 21.421 45.778-14.93 13.639-17.202-53.897z"/><path fill="#ABABAB" d="M38.089 151.702l-7.466-30.195-7.465-44.481 3.247-3.246 4.543 2.598 12.009 37.986 2.92 28.572 3.245 7.467-.648 5.521z"/><path fill="#8F8F8F" d="M4.658 59.819L26.405 73.78l-1.624 11.039-6.491-6.169L2.711 63.391z"/><path fill="#3AA0BA" d="M27.703 63.066L5.308 65.987l-23.044-12.986H2.387z"/><path fill="#73CFE5" d="M27.703 63.066l-45.439-10.065L.439 47.806l17.202 1.949z"/><path fill="#3AA0BA" d="M23.483 44.235l-5.842 5.52-35.377 3.246-13.631-6.818 22.069-4.545z"/><path fill="#73CFE5" d="M-21.306 28.649l-10.061 17.534 54.85-1.948L-10.596 29.3z"/><path fill="#ABABAB" d="M54.641 45.533L36.465 61.118l2.921 4.545 11.36-10.064 4.869-6.819z"/><path fill="#8F8F8F" d="M32.895 67.611l3.57-6.493 14.281-5.519-14.281 19.48z"/><path fill="#BEBEBD" d="M33.219 26.702l2.273 19.481.973 14.935-6.166-2.598-.974-4.22.649-29.546z"/><path fill="#ABABAB" d="M26.405 73.78l2.92-19.48 7.14 6.818v21.428z"/><path fill="#3AA0BA" d="M53.343 34.819l31.482 5.52-34.079 15.26-15.254-9.416z"/><path fill="#5EC0D9" d="M52.368 29.3l16.553-2.274 15.904 13.313-49.333 5.844 6.815-14.936z"/><path fill="#3AA0BA" d="M-.534 25.403l27.587-.324L52.368 29.3 35.492 46.183l-52.579-9.091z"/><path fill="#5EC0D9" d="M47.176 16.638L52.368 29.3l-69.455 7.792L.439 15.987l24.668-1.947z"/><path fill="#73CFE5" d="M22.184 6.247l24.992 10.391-46.737-.651z"/><path fill="#8CE0DC" d="M8.554 137.741l-7.791 3.571-14.604-.65 13.307-9.739z"/><path fill="#1C7678" d="M8.554 137.741l5.517 6.819-6.491 11.038-21.421-14.936z"/><path fill="#369496" d="M-32.016 137.417l18.175 3.245-14.606 8.768-17.525-6.169z"/><path fill="#8CE0DC" d="M-23.578 132.546l9.737 8.116-32.131 2.599z"/><path fill="#8F8F8F" d="M120.85 185.144l-137.612-3.572 14.281-25 16.552-12.012 31.806-1.624 36.026-4.871 148.323 12.663 6.816-8.765 19.474-4.872 377.46 6.496 24.992 32.79-130.149 66.559L231.2 208.52z"/><path fill="#2B2B2B" fill-opacity=".102" d="M440.215 182.223l-2.921 11.038 38.947 13.31 13.307-2.271 90.552-12.338-52.903-3.896-15.255 4.544-5.192-1.297.325-4.546z"/><path fill="#9E9E9E" d="M605.74 167.611l53.228 8.766 84.06-12.013-77.568-20.129-22.72-1.299z"/><path fill="#ABABAB" d="M635.275 121.507l30.185 22.728-39.597 24.351zM82.553 129.624l-36.676 13.312 36.026-2.274z"/><path fill="#CCC" d="M244.831 112.093l11.685 24.998 25.964 2.597 15.904-19.48 2.921-38.311-24.667-3.247-30.184 8.442z"/><path fill="#ABABAB" d="M224.384 133.52l25.965-26.298 45.763 15.909-10.061 19.48-29.535-5.52-26.29 13.637z"/><path fill="#D9D9D8" d="M281.506 69.234l-35.052 17.858 54.851-5.195-4.543-9.091z"/><path fill="#CCC" d="M409.382 109.819l-26.614 9.416-39.92-21.429-5.517-12.013 30.834-3.896 22.392 6.494 17.852.325 18.5 9.415z"/><path fill="#ABABAB" d="M394.453 125.404l-10.062-12.013 35.703-15.26 5.516 24.35-7.14 15.911z"/><path fill="#D9D9D8" d="M349.34 70.533l-12.009 15.26 53.226 2.598-9.087-17.208-8.763-3.246z"/><path fill="#ECECEB" d="M334.409 58.52l-52.903 10.714 19.799 12.663 36.026 3.896 35.376-17.856z"/><path fill="#9E9E9E" d="M43.281 174.43l42.842 6.494 4.868-22.404-9.088-17.858zM14.071 144.56l-19.149 31.493-29.534 3.571-27.913-15.26z"/><path fill="#C69682" d="M44.58 144.235l2.596 2.272 1.298 6.494-2.597.974-5.192-2.597 1.298-7.143z"/><path fill="#FDE5D7" d="M45.877 157.872l2.597-4.871-5.842-.648-1.623 5.195zM42.957 133.846l4.219 12.661-.975 1.3-2.271-1.3h-1.623l-4.543-9.416z"/><path fill="#50A9AA" d="M36.14 120.534l9.088 14.611-5.517 2.596-2.597-4.871z"/><path fill="#F5CCB6" d="M47.176 146.507H43.93l.65 2.598 5.841 3.248.973-.975z"/><path fill="#72CBCC" d="M124.745 68.91l-46.413 34.74 7.466 74.027 37.649.648 9.737-3.895 10.061 4.219h4.868l12.657-30.842 8.763-50.65z"/><path fill="#ECECEB" d="M91.964 133.846l26.29.648.324 31.493-22.719-.974zM125.069 134.17l-1.622 44.155h3.895l5.517-1.622 6.816 1.946h3.57l5.842-45.129z"/><path fill="#369496" d="M127.991 136.767h16.553l-4.869 41.882-12.333-.324zM95.211 137.091l8.438.326 1.298 10.714-8.114-.324-1.622-10.716zm20.123.65v10.39l-7.79.324-.649-11.038 8.439.324zm.324 25.001l-7.141-.326-.648-11.364 7.465.975.324 10.715zm-9.737-.65l-7.14-.324-1.298-10.716h7.464l.974 11.04z"/><path fill="#50A9AA" d="M198.744 83.52l-79.191-26.298 43.814 43.181 14.282 11.039 16.226 1.299z"/><path fill="#50A9AA" d="M66.324 98.456l12.008 5.194 86.659-.649-.974-9.74-6.491-1.299-21.746-2.598-60.043 5.52z"/><path fill="#72CBCC" d="M66.324 98.456l97.693-5.195-15.579-10.715-28.885-25.324z"/><path fill="#F5CCB6" d="M162.394 78.65l2.921-4.87 4.868 5.196-3.57 7.142z"/><path fill="#FDE5D7" d="M160.77 62.417l-1.298 9.74-11.034 10.389 10.386 11.04 4.869-1.948 2.92-5.52-2.596-23.701z"/><path fill="#50A9AA" d="M179.595 170.858l-31.482 7.791 16.878-75.648 28.56-.649-20.447 40.259z"/><path fill="#F5CCB6" d="M166.613 86.118l15.903 13.312-5.193 22.402-18.499-28.246z"/><path fill="#318FA6" d="M198.744 83.52l-17.201 14.936-4.22 23.376 15.58-18.507 5.841-19.805z"/><path fill="#ABABAB" d="M580.1 191.962l-17.525-1.624-5.844-1.623-2.271 1.299-12.983-5.519-14.28 3.571-91.525-6.17 8.763-175.324 150.27 11.365 18.501 29.22-18.825 97.727z"/><path fill="#8F8F8F" d="M580.1 191.962l23.043-154.546 56.797 25.65-34.077 105.52z"/><path fill="#CECECD" d="M608.337 104.3l26.29 2.597-13.308 49.675-25.964 5.844z"/><path fill="#6F7173" d="M620.02 110.144l-3.894 19.806-7.141-.325 3.896-19.48h7.139zm4.22 0l-4.869 19.48 5.519-.324 4.543-17.857-5.193-1.299zm-.324 22.402l-5.193 19.48-4.22 1.3 4.22-20.456 5.193-.324zm-13.632 21.429l4.867-20.777-7.788 1.623-4.22 21.104 7.141-1.95z"/><path fill="#ECECEB" d="M530.442 103.976h47.062l-14.929 86.362-8.115-.324 14.929-80.844-37.973.325z"/><path fill="#6F7173" d="M533.364 108.196l36.025.974-14.929 80.844-27.263-1.948z"/><path fill="#ECECEB" d="M478.838 100.728l37.973 2.922-4.22 60.39-32.779-.324z"/><path fill="#6F7173" d="M477.54 108.196h19.474l-.648 21.428-18.825-.648v-20.78h-.001zm38.298 0l-1.948 21.753-12.982-.974 1.299-20.779h13.631zm-4.544 51.621l-12.009-.973 1.298-23.7 12.982.324-2.271 24.349zm-17.851-1.621l-16.228-1.299.324-21.429 19.149-1.299-3.245 24.027z"/><path fill="#8F8F8F" d="M511.942 192.61l-2.92-5.843 7.14-81.493 2.596-6.494 20.772 9.416-12.333 79.87z"/><path fill="#CECECD" d="M514.863 99.104l-8.113 92.209 5.192 1.297 6.816-93.83z"/><path fill="#D9D9D8" d="M-49.866 195.209l21.745 4.546 93.472.648 12.658-5.843 36.027-3.896 34.078-12.016-104.832-4.22-48.359 1.623-29.534 3.571-15.255 15.587zm220.374 33.117l24.342 12.337 337.541 42.534 19.798-11.04-1.299-31.494-36.351-15.584-151.243-13.637-110.674-10.065-52.58 10.714-29.534 16.235z"/><path fill="#ECECEB" d="M78.008 194.561l70.105-15.912 104.508 22.728-82.113 26.949-13.956-1.624-71.727-26.623z"/><path fill="#2B2B2B" d="M39.386 101.053l8.764-14.935-8.115 1.299z"/><path fill="#C69682" d="M32.895 123.131l-1.298-3.571 3.245-7.467H18.29l4.868 10.388z"/><path fill="#F5CCB6" d="M20.886 116.312l1.298-.324.65-12.338-4.544-9.74-3.895 15.909 5.517 11.688 2.598.974z"/><path fill="#C69682" d="M14.395 109.819l2.596-5.843-3.57.972-1.298.975z"/><path fill="#FDE5D7" d="M18.29 93.91l3.894 22.078 20.773-1.624-1.298-25.648-20.773 1.947z"/><path fill="#F5CCB6" d="M26.079 95.534l-3.569.649 4.543 2.597 3.895 5.52 4.868-.324 1.623-5.52 4.22-3.572h-3.246l-3.247 1.299-3.244 1.298-1.948-.974z"/><path fill="#C69682" d="M207.507 71.183l-15.578.974 14.93 4.869z"/><path fill="#F5CCB6" d="M197.446 56.572l-6.491-1.948 7.14-13.961.973 9.416z"/><path fill="#FDE5D7" d="M201.666 24.104l-9.737 48.053 14.28.974 1.948 9.74 6.815-1.624 7.465-22.402-9.737-26.948z"/><path fill="#C69682" d="M210.428 59.169l6.492 9.092 2.921-11.039zM194.201 61.767l-.326 1.624 7.465-1.299-.324-1.299z"/><path fill="#72CBCC" d="M424.312 83.196l-1.299-11.039-24.34-1.948-7.465 4.87-.651 13.312 31.807 10.389z"/><path fill="#070908" fill-opacity=".102" d="M23.808 180.6l38.946 2.92-26.29 5.195-29.209-2.921 16.553-5.194zm140.857 37.987l29.21-3.897 20.447-3.571 16.878-2.599 132.095 2.923 59.718 5.194 72.377 6.818-53.228 11.69-195.384-12.014-76.271 5.195-5.842-9.739z"/><path fill="#454444" d="M483.707 209.82l-7.466-3.249-13.632-22.724 3.896-10.717 21.096 12.34 1.947 18.83z"/><path fill="#545657" d="M487.601 185.47l-4.219-38.638-1.623-1.948-30.509 20.129 11.359 18.834z"/><path fill="#454444" d="M451.25 165.013l32.132-18.181-3.896-1.624-23.043 2.272z"/><path fill="#50A9AA" d="M476.241 31.897l1.623 13.961 123.008 7.143 55.824 20.779 15.578-5.843-22.069-16.235-46.089-19.156-119.11-7.143z"/><path fill="#50A9AA" d="M623.267 22.481l-93.149-59.09-6.816 3.571 68.157 64.935 15.256 5.195 65.235 30.194z"/><path fill="#72CBCC" d="M530.118-36.609l76.597 73.701-130.474-5.195 6.816-45.455z"/><path fill="#F5CCB6" d="M461.635 73.456l2.597-4.546 13.632-23.052-.648-51.624-4.545 11.689-12.008 53.246-5.193 11.689-1.624 6.819z"/><path fill="#C69682" d="M438.917 74.755l-1.947-7.793-4.869-12.338 1.948-.974 26.938 3.247 1.622 1.299-8.763 19.481z"/><path fill="#545657" d="M419.768 25.728l-6.491-37.337 2.597-.326 7.139 2.598.975 2.598z"/><path fill="#FDE5D7" d="M423.013-9.337l-7.464 62.014 47.06 5.519 14.607-63.962z"/><path fill="#C69682" d="M477.864 45.858l4.219-7.467-9.737-1.949z"/><path fill="#454444" d="M444.435 6.572l-31.158-18.181 19.475-18.507 2.595-.65 9.737 33.767 23.043-27.922 2.922-.65 16.228 16.234-.974.974-13.632 5.52-1.622-.326z"/><path fill="#6F7173" d="M452.549-43.753l18.5 18.182-26.614 32.143-11.683-36.688z"/><path fill="#454444" d="M497.338 17.611L487.277-9.337l-2.922 3.247s-8.438 24.351-8.438 24.675c-.325.325-.325 2.922-.325 2.922l6.491 16.884 15.255-20.78z"/><path fill="#545657" d="M475.592 21.507l-4.543-24.676 16.228-6.168z"/><path fill="#FDE5D7" d="M472.346 36.442l9.737 1.949 5.843-15.26-12.334-1.624z"/><path fill="#C69682" d="M476.241 31.897l1.623-7.143 6.167.974z"/><path fill="#F5CCB6" d="M435.672 29.624l-7.141-13.961-6.491-6.818 16.877 2.597 2.272 3.897 5.194-3.247 6.815-.65 14.929 1.623-15.254 4.872-8.762 11.687z"/><path fill="#C69682" d="M438.917 33.845l-3.245-4.221h8.439z"/><path fill="#FEE9DF" d="M438.917 11.442l-3.245 18.182h8.439l2.272-17.532z"/><path fill="#454444" d="M435.672 11.118l-9.087-7.142-4.545 4.869zM452.873 11.442l12.333-4.546 2.921 6.169z"/><path fill="#C69682" d="M427.883 36.767l27.912 1.624-7.466 9.74-15.902-1.624z"/><path fill="#FFF" d="M431.453 39.04l20.121.974-3.895 5.844-13.63-.974z"/><path fill="#369496" d="M423.013 72.157l12.008.324.975 2.598-.649 13.961 12.982 12.013.974 2.597 1.623 50.325-11.036-.974-24.341-16.559z"/><path fill="#72CBCC" d="M467.154 74.429l9.411 1.299 6.817 71.104-18.825 2.273-16.228 1.947-.324-49.025.324-1.948 15.255-7.468 1.946-14.934z"/><path fill="#72CBCC" d="M443.786 81.573l-8.765-9.092-1.621 17.207 14.605 12.339z"/><path fill="#369496" d="M458.067 82.546l9.087-8.117-1.948 19.157-17.201 8.441z"/><path fill="#ECECEB" d="M450.926 72.481l-8.439 9.416-7.466-9.416 1.949-5.519zM467.154 74.429l-2.922-5.519-13.306 3.571 7.79 11.039z"/><path fill="#CBCACA" d="M445.084 91.638l-2.597-9.741 8.439-9.416 7.79 11.039-4.87 8.766z"/><path fill="#535253" d="M448.329 85.469l-3.245-6.493 5.842-6.495 5.517 7.793-4.543 5.519-1.624.649z"/><path fill="#595C5D" d="M448.005 102.027l-2.921-10.389 3.245-6.169 3.571.324 1.946 6.493z"/><path fill="#165E60" d="M444.435 115.014l3.57-3.572 3.895 3.247-3.895 3.572zM444.76 132.87l3.245-3.246 3.245 3.573-3.245 2.92z"/><path fill="#369496" d="M378.549 56.248l20.124 13.961-8.116 18.182-17.85-20.454.973-9.741z"/><path fill="#ECECEB" d="M374.005 53.001l4.544 3.247-5.842 11.689-4.542-5.196 2.595-7.792z"/><path fill="#FDE5D7" d="M371.734 28.976l2.271 24.025-5.84-1.299-2.597-4.87 3.57-17.856z"/><path fill="#F5CCB6" d="M361.347 42.937l12.658 10.064-5.84 9.74-9.089-16.883z"/><path fill="#50A9AA" d="M492.144 108.196l-15.579-32.468-14.604 38.636 6.166 8.767 9.413 6.818z"/><path fill="#369496" d="M449.952 146.183l12.009-31.819 15.579 15.585-12.983 19.156-8.114 1.623z"/><path fill="#73CFE5" d="M355.831 134.494l12.334-19.155 74.648 40.259-9.737 22.727-10.063 12.988-68.48-29.545z"/><path fill="#3AA0BA" d="M301.305 81.897l9.087 1.299 51.281 28.571 7.79 8.117-14.93 41.884-57.771-11.04-12.66-16.882z"/><path fill="#5EC0D9" d="M324.024 116.312l-2.273 7.793 7.141 3.896 2.921-8.117z"/><path fill="#318FA6" d="M396.4 151.052l-1.947 6.82 6.166 2.921 2.272-6.818z"/><path fill="#3AA0BA" d="M423.013 191.313l7.466 5.195 6.815-3.247 6.492-24.351 5.517-10.39-9.737-1.298z"/><path fill="#ECECEB" d="M448.329 151.052l1.623-4.869 14.605 2.922-4.219 6.168h-8.764z"/><path fill="#27788C" d="M363.296 208.846l-.651 9.415 8.439 4.546 7.79-10.066zM275.989 178.974l-5.843 2.598.326 7.469 7.465 2.921 5.517-8.442z"/><path fill="#3AA0BA" d="M253.594 176.377l2.922-39.286 11.684.974 129.498 47.079 4.869 9.092 11.36 11.363-12.983 17.856z"/><path fill="#318FA6" d="M431.128 217.612l6.166-24.351-21.095-8.117-11.359 2.596-2.273 6.496-1.623 29.219z"/><path fill="#6F7173" d="M195.824 16.962l14.28-13.961 23.368 7.792 18.824 12.338-36.35.973z"/><path fill="#858686" d="M261.385 2.352l-51.281.649 38.947 19.155 10.71-6.493z"/><path fill="#6F7173" d="M279.884 41.962l-18.499-39.61-12.334 19.804 10.385 12.988z"/><path fill="#545657" d="M240.936 82.222l38.948-40.26-30.833-19.806-30.185 15.26-.647 21.429-1.299 9.416 12.656 9.74z"/><path fill="#858686" d="M195.824 16.962l15.902 19.156 11.036-.65 26.289-13.312z"/><path fill="#6F7173" d="M249.051 22.156l-37.325 13.962-.324 9.09 9.087-.973z"/><path fill="#F5CCB6" d="M210.428 59.169l.974-13.961 9.087-.973-2.27 14.61z"/><path fill="#C69682" d="M213.998 47.806l-.324 6.494 3.57-6.819zM240.936 82.222L216.92 68.261l-1.948 12.986 11.684 8.117 10.062-2.922z"/><path fill="#3AA0BA" d="M208.157 87.417l-3.57-3.572 2.92-3.571 33.429 1.948-.324 4.546-6.167 1.623z"/><path fill="#56C0D7" d="M246.454 87.092l-47.71-3.572-7.139 12.987 4.219 11.364-14.931 7.792-14.929 26.622 13.307 6.17 38.622 4.546 12.333-2.273 5.193-20.455 9.412-18.18z"/><path fill="#545657" d="M199.068 186.118l1.298-17.858-12.332-13.311-22.07-12.664 10.061 39.287 9.087 7.791z"/><path fill="#545657" d="M227.63 191.313l-10.386-5.519-16.878-17.534 11.686-13.311 18.174-4.221 10.71 29.546z"/><path fill="#165E60" d="M164.665 218.587l-.324-4.222 11.035-1.3 18.499 1.624-.324 3.248zM227.954 215.988l-11.034 3.247.324 3.896h29.535l.324-4.22z"/><path fill="#1C7678" d="M164.341 214.365l3.246-8.766 8.763-4.546 6.166 2.923 11.359 10.713zM216.92 219.235l.324-8.441 5.518-5.844 8.438 3.57 15.903 10.391z"/><path fill="#3AA0BA" d="M180.893 115.663l56.474 6.169 7.464-9.739-1.623-12.663-51.603-2.923z"/><path fill="#F5CCB6" d="M262.357 173.779l.974-8.116 11.684 9.417-2.272 2.597z"/><path fill="#318FA6" d="M256.516 137.091l-10.062-49.999-12.333 47.728 5.843 10.712 11.034-1.297z"/><path fill="#F5CCB6" d="M256.516 137.091l-16.552 8.441 12.007 23.054 7.79.324 3.57-3.247zM263.981 185.794l-10.711-6.17 8.439-2.596 8.437 4.544z"/><path fill="#FDE5D7" d="M253.27 179.624l-1.299-11.038 11.36-2.923 6.815 15.909z"/><path fill="#545657" d="M32.57 92.286l-11.36-6.817-2.92-6.819 12.982-7.792 8.439 6.819.65 5.843z"/><path fill="#454444" d="M48.15 86.118l-8.439-8.441-7.141 14.609zM4.01 88.391l14.28-9.741 14.28 13.636-9.736-1.299-8.114.975z"/><path fill="#2B2B2B" d="M8.878 99.43L4.01 88.391l18.824 2.596-5.843 12.989z"/><path fill="#FDE5D7" d="M8.878 99.43l5.517-2.272 2.596 6.818-4.868 1.947s-2.921-6.819-3.245-6.493zM-10.921 91.962l6.492 6.169-2.921 3.896-5.193.65-3.246-7.793z"/><path fill="#FDE5D7" d="M-1.833 92.286l-5.517 9.741 6.167 1.949.974-10.715z"/><path fill="#F5CCB6" d="M-5.078 107.222l-7.465-4.545 7.789-5.196 3.571 6.495-.65 2.921z"/><path fill="#FDE5D7" d="M8.228 114.364l-9.411-10.388-3.895 3.246 6.815 14.61 5.519-1.948z"/><path fill="#50A9AA" d="M.115 123.456l8.113-9.092 6.492 2.598 4.543 13.311-3.569 5.844z"/><path fill="#72CBCC" d="M14.071 144.56l.649-27.598 3.57 1.299 12.333 3.246.974-1.947 4.543.974 6.167 25.973-10.061 2.923z"/><path fill="#F5CCB6" d="M16.018 175.728l-.324-15.259 10.711 3.247-4.869 12.012-2.596 1.625zM43.281 174.43l-.324-12.989-10.062.327 4.544 12.986 2.922 1.299z"/><path fill="#545657" d="M29.65 156.246l5.516-6.816 7.141-2.923.65 16.559-11.685.326zM14.071 144.56l-.974 19.48 13.308-.324 3.245-7.47-4.869-8.115z"/><path fill="#50A9AA" d="M27.377 125.079L29 134.494l5.193-.975v-8.441h-6.816v.001zm1.948 12.012l4.542-.648 1.298 2.922-5.841.324v-2.598z"/><path fill="#2B2B2B" d="M22.51 96.183l3.569-1.299 3.895 1.623zM35.166 96.183l3.247-2.597 3.246 1.298z"/><path fill="#FEE9DF" d="M29.974 96.507l5.192-.324.65 7.793-2.597.648-2.271-.324z"/><path fill="#C69682" d="M33.544 105.599l-2.596-1.299 4.868-.324zM28.027 107.546l9.087-.649-.974 4.87-6.49.326z"/><path fill="#FFF" d="M29.974 108.52l5.518-.649-.326 2.598-4.543.649z"/><path fill="#C69682" d="M13.097 99.43l-1.622.973 2.92 2.274z"/><path fill="#454444" d="M42.307 146.507l-12.657 9.739-15.579-11.686z"/><path fill="#2B2B2B" d="M428.207 14.688c1.613 0 2.921 1.309 2.921 2.923s-1.308 2.923-2.921 2.923c-1.613 0-2.921-1.309-2.921-2.923s1.308-2.923 2.921-2.923zM453.846 17.286c1.613 0 2.923 1.309 2.923 2.922 0 1.614-1.31 2.923-2.923 2.923s-2.921-1.309-2.921-2.923c.001-1.613 1.308-2.922 2.921-2.922zM26.729 98.456c.716 0 1.298.581 1.298 1.298 0 .718-.583 1.299-1.298 1.299-.718 0-1.298-.581-1.298-1.299 0-.717.58-1.298 1.298-1.298zM38.089 97.806c.716 0 1.298.582 1.298 1.299s-.582 1.299-1.298 1.299c-.718 0-1.298-.582-1.298-1.299-.001-.717.58-1.299 1.298-1.299z"/><path fill="#27788C" d="M481.759 215.014l-9.413 6.17.325 3.895 22.719-1.624v-4.22z"/><path fill="#318FA6" d="M472.346 221.184l3.895-14.613 13.307-2.271 5.842 14.935z"/><path fill="#5EC0D9" d="M369.463 119.884l3.893-7.467 11.035.974 63.938 37.661-5.516 4.546-5.519.648z"/><path fill="#73CFE5" d="M369.463 119.884l14.928-6.493-63.613-37.663-19.473 6.169z"/><path fill="#FDE5D7" d="M437.294 156.246l11.035-5.194.324 8.765-10.709.328z"/><path fill="#F5CCB6" d="M443.462 168.91l4.867-17.858 12.009 4.221-9.088 9.74z"/><path fill="#5EC0D9" d="M256.516 137.091l15.254-8.115 144.429 56.168-13.632 9.092z"/><path fill="#454444" d="M165.964 142.285l34.402 25.975 29.86-17.532z"/><path fill="#CCC" d="M71.193 205.599l8.113-6.168-.974-4.87-127.55.648-6.815 2.597 1.298 8.765z"/><path fill="#D9D9D8" d="M71.193 205.599l7.139-11.038 92.176 33.765 4.868 9.09-17.202 9.093z"/><path fill="#CCC" d="M552.188 272.157l-381.68-43.831-12.334 18.183L561.6 306.247l5.517-21.427z"/><path fill="#ECECEB" d="M705.054 187.092l-4.868 9.74-132.095 73.701-15.903 1.624-37.649-47.078 111.324-56.493 51.605 7.142z"/><path fill="#D9D9D8" d="M705.054 187.092l11.037 5.194-2.597 8.442L561.6 306.247l-9.412-34.09z"/><path fill="#454444" d="M176.025 181.572l23.043 4.546-16.552 17.858-14.929 1.623zM217.244 185.794l23.692-5.52-9.736 28.246-13.956 2.274z"/><path fill="#369496" d="M13.421 185.794v-1.947l5.842-1.3 5.844.973v2.274zM43.606 179.3l-6.816 2.596v1.624h15.254l-.325-1.948z"/><path fill="#50A9AA" d="M13.421 183.847l2.597-8.445 5.518-.322 3.571 8.44zM51.719 181.572l-8.438-7.142-5.842.324-.649 7.142z"/><path fill="#CCC" d="M781.973 182.547l-48.358-5.519-28.561 10.064 8.44 13.636 73.999-1.624z"/><path fill="#D9D9D8" d="M743.028 164.364l-117.165 4.222 79.191 18.506 76.919-4.545zM-104.717 176.053l-7.79 12.338 57.772 18.18 9.736-19.804-25.316-6.167z"/><path fill="#ECECEB" d="M-62.525 164.364l57.447 11.689-44.788 19.156-54.851-19.156z"/><path fill="#73CFE5" d="M69.895 24.43L52.368 29.3l32.457 11.039z"/><path fill="#3AA0BA" d="M-38.183 62.741l37.974.325-17.202 7.792zM313.963 34.819l-22.07 4.545 24.666 6.494 17.526-6.169z"/><path fill="#5EC0D9" d="M302.603 31.572l-10.71 7.792 42.192.325-12.334-6.818z"/><path fill="#3AA0BA" d="M312.34 32.222l21.745 7.467 6.167-4.87-13.632-5.195z"/><path fill="#73CFE5" d="M312.34 32.222l27.912 2.597-14.93-8.766z"/><path fill="#72CBCC" d="M308.769 58.196l-5.517 6.819 13.307-6.17z"/><path fill="#CECECD" d="M83.851 16.312l20.447 12.337 27.262-7.142 31.807 5.519 23.693-12.012-22.395-1.299-22.07 1.624-21.42-4.87z"/><path fill="#ECECEB" d="M120.85 1.702l-36.999 14.61 30.184-2.597 29.859 3.896 43.166-2.597-15.578-2.922-26.938-.65z"/><path fill="#CECECD" d="M413.277-11.609L387.312 3.65 352.91-5.116l-40.246 7.142-29.86-15.584 28.238-1.623 27.912 2.273 27.263-6.169z"/><path fill="#ECECEB" d="M366.217-30.44l47.06 18.831-38.298-3.247-37.648 4.87-54.527-3.572 19.799-3.572 33.754-.648z"/><path fill="#369496" d="M139.675 115.014l.324 6.818h7.465l-.65-7.792-7.139.974zm-47.061 1.624v6.168h6.491l-1.298-6.168h-5.193zm13.956 0l-.325 6.168 6.816-.324-.324-6.169-6.167.325zm16.227-.65l-.973 6.169 7.465.324-.974-7.143-5.518.65z"/><path fill="#6F7173" d="M482.733 69.234l-.324 9.416 10.061.326-1.948-9.416zM504.154 69.884l-.975 9.74 10.71-.324-.324-9.416zM529.143 69.884l-1.298 9.416 11.036.974-.649-11.364zM555.433 69.234l.325 10.39 11.684.65-.649-11.689z"/><path fill="#369496" d="M600.872 53.001l7.14-15.585 64.262 30.521-15.578 5.843z"/><path fill="#545657" d="M199.718 32.871l4.219 2.273-4.544.324z"/></svg>