<svg xmlns="http://www.w3.org/2000/svg" viewBox="-100.887 -47.575 400 400"><path fill="#165e60" d="M34.035 184.231L21.17 276.099l27.856-10.534 46.593-16.815 52.365 5.166 19.043 9.116 16.612-65.939-138.968-40.718z"/><path fill="#2b2b2b" fill-opacity=".102" d="M9.219 335.758l80.727-8.71 93.895 10.129-69.08 14.585z"/><path fill="#1c7678" d="M49.026 265.565l-2.128-42.239 2.837-11.647 45.884 37.071-6.584 15.295-16.003 8.711z"/><path fill="#318fa6" d="M51.963 311.347l-1.52-21.878 16.815-1.418 15.192 10.23-3.543 17.422-16.815 2.938z"/><path fill="#2c8195" d="M50.546 289.773l-.103-6.076 34.236 1.417-2.229 13.167z"/><path fill="#5ec0d9" d="M28.565 327.958l23.297-18.536 27.045 6.281v11.648l-8.813 4.356H38.086z"/><path fill="#318fa6" d="M78.907 327.351v7.294H28.565v-6.687z"/><path fill="#1c7678" d="M105.039 267.693l-9.42-18.943 53.785-40.717-3.646 18.941 3.646 7.293-.709 31.298-18.132 8.712z"/><path fill="#318fa6" d="M148.695 312.057l-.711-22.588-18.94-2.127-13.067 13.775 5.775 16.815 14.586 5.063z"/><path fill="#2c8195" d="M148.087 289.672l-.103-5.267-36.361 3.646 4.354 13.066z"/><path fill="#5ec0d9" d="M114.965 335.353l6.787-17.421 26.943-5.875 5.875 24.005-5.166 4.356-25.424 2.228z"/><path fill="#318fa6" d="M154.57 336.062v7.294l-39.909.404.304-8.407z"/><path fill="#3aa0ba" d="M46.088 128.014l-5.774-15.599-28.562 32.718 2.329 36.767 19.954 2.331 24.411-16.916z"/><path fill="#318fa6" d="M-4.05 140.371l-10.838 13.167 10.838 42.847 38.085-12.154-22.283-39.098z"/><path fill="#8ce0dc" d="M-22.383 156.173l1.621-24.513 10.837-9.42 12.357 6.483 9.32 16.41z"/><path fill="#efd0cb" d="M-26.637 112.719l5.875 18.941 23.194-2.937-8.002-29.779z"/><path fill="#ffeee9" d="M-1.113 114.948l-25.524-2.229 10.938-14.483 13.877-1.621 1.824 6.583z"/><path fill="#efd0cb" d="M11.144 104.616l-5.065-3.544-2.938-3.749-4.963-.708.709 18.333 10.838 1.417z"/><path fill="#cea39f" d="M2.432 128.723l7.293-12.358-10.838-1.417-8.812 7.292.811 8.002z"/><path fill="#ececeb" d="M6.181 67.646l-7.294 16.712 7.192 16.714 15.395-7.191-.809-26.235z"/><path fill="#165e60" d="M95.619 248.75l-48.721-25.424 43.555-3.341 46.594 5.469z"/><path fill="#d4d4d4" d="M-6.988 67.646l-2.025 24.916 15.092 8.51V76.357l.102-8.711z"/><path fill="#50a9aa" d="M6.079 76.357L.305 87.296l5.774 8.914 11.851-5.977-.203-13.876z"/><path fill="#489899" d="M-4.252 76.357L-5.57 90.233 6.079 96.21V76.357z"/><path fill="#ececeb" d="M17.423 124.368l-27.348-2.128 8.812-7.292 10.838 1.417z"/><path fill="#27788c" d="M164.699 218.972l9.418-63.306-47.199-41.427-12.358 101.795z"/><path fill="#489899" d="M43.961 160.021l1.419 58.951h52.365l45.885 1.417 13.066-66.141-61.786-15.294z"/><path fill="#f60" d="M85.388 136.725l-1.418 13.066-13.876.81 9.521-5.165zM105.748 134.597l-1.419 13.777 16.005-1.419-10.231-3.646z"/><path fill="#dddddc" d="M69.384 168.733l13.877-.709v16.712l-5.166-11.649zM105.748 166.606l-.709 15.294 5.875-9.522 10.838-7.292zM62.092 176.025l10.94-2.126-6.585 6.482z"/><path fill="#dddddc" d="M70.904 186.256l5.774-9.521-.709 11.647zM126.106 172.378l-10.837-1.417 8.002 5.774zM119.624 183.319l-7.292-8.711 2.937 11.648z"/><path fill="#f60" d="M65.029 144.018l8.711 1.418-5.773-4.356zM72.322 135.308l5.773 6.481-2.126-8.71zM126.918 140.371l-10.232 2.938 6.585-5.875zM116.686 131.66l-5.772 8.711 1.418-10.129zM96.328 120.721l-5.875 10.939 11.648-.709z"/><path fill="#dddddc" d="M87.616 189.091l12.358-.709-7.293 13.066z"/><path fill="#50a9aa" d="M52.672 109.478l-10.939 25.83 2.938 24.713 78.194-3.241 25.83-1.114 17.421-40.718-12.357-10.939-11.65-1.418z"/><path fill="#dddddc" d="M90.453 135.308l-2.837 18.94-19.649 4.76v5.369l19.649-.709v22.588l12.358-1.52.708-21.778 21.07-1.518v-4.66l-21.07-5.469.709-17.523zM61.079 157.388l1.823 1.925v5.064l-11.648-4.356zM130.26 154.248l8.609 1.823-11.951 5.369.302-4.862z"/><path fill="#489899" d="M156.696 154.248l9.42-39.3-12.357-10.939z"/><path fill="#fff" d="M67.967 159.008l53.785-2.228v-6.989l-21.07 1.52.709-16.814-10.938.811-2.128 16.712-20.358 1.418z"/><path fill="#fff" d="M85.388 136.725l-1.418 13.066-13.876.81 9.521-5.165zM105.748 134.597l-1.419 13.777 16.005-1.419-10.231-3.646zM65.029 144.018l8.711 1.418-5.773-4.356zM72.322 135.308l5.773 6.481-2.126-8.71zM126.918 140.371l-10.232 2.938 6.585-5.875z"/><path fill="#fff" d="M116.686 131.66l-5.772 8.711 1.418-10.129zM51.254 160.021l11.648-.708v-4.356zM127.22 156.578l11.649-.507-11.242-6.28zM96.328 120.721l-5.875 10.939 11.648-.709z"/><path fill="#5ec0d9" d="M31.603 160.732l6.483 62.594h13.168l85.793 2.128h8.711l5.875-19.548 5.063-24.816 5.874-11.648 1.317-14.181-7.9-12.661-7.292 12.357-4.356 40.01-5.064 21.776-45.885-.709H49.735l-5.064-56.013-8.003-20.358z"/><path d="M31.603 160.732l13.067-.711 8.001-50.543-12.357 2.938-8.711 48.316zm131.676-13.574l-.709-27.145-8.812-15.295-5.063 50.948 12.559-.608 2.025-7.9z" fill="#73cfe5"/><path fill="#8ce0dc" d="M52.672 109.478l17.422-4.051 11.647-7.191 14.587 20.358-32.716 15.194zM126.918 130.242l-30.59-11.648 29.576-21.979 17.219 6.178 10.636 1.925z"/><path fill="#3aa0ba" d="M179.993 138.245l22.587 30.488-8.812 28.36-32.717-10.837-4.355-5.166 4.558-26.032-.912-9.622 5.774-10.128z"/><path fill="#318fa6" d="M147.984 197.905l8.712-16.815 48.011-13.066-3.647 24.006-29.778 26.942-24.007-.709z"/><path fill="#8ce0dc" d="M132.689 218.972l11.65-24.715 32.006 32.007-26.941 8.003-11.041-6.179z"/><path fill="#5ec0d9" d="M153.759 104.009l11.04 74.953 9.318 2.736 9.42-3.242-1.417-30.082-16.004-42.947z"/><path fill="#318fa6" d="M204.707 168.024l-38.591-62.597 13.877 69.383 13.066 3.443z"/><path fill="#72cbcc" d="M138.869-9.841l16.206-20.865 6.179 6.989 5.47-10.837 46.39 9.317-47.201 14.687z"/><path fill="#369496" d="M172.092-2.042l-33.223-7.799 74.245-15.396-17.827 11.548-8.509-2.329 3.141 5.468z"/><path fill="#efd0cb" d="M128.031 99.957l16.207-24.715-3.85-39.4-8.507-10.839-15.498-10.027-14.688 74.953-5.367 28.665z"/><path fill="#ffeee9" d="M34.44 11.836l2.329 61.077 13.169 20.865 64.926-4.558 1.519-82.753L73.942-9.03z"/><path d="M34.44 11.836v3.849l52.569-5.369 28.665 4.66s-1.518-4.66-3.85-10.128L73.133-9.03 33.731 11.836h.709z" fill="#cea39f"/><path fill="#efd0cb" d="M40.618 29.663l9.32 3.848 11.546 19.347 6.989 2.33 6.989-2.33 13.877-20.157 7.798-5.369-6.988-5.468-10.028 5.468-8.508 3.849-3.14 3.141-3.849-2.33-6.989-4.66-10.838-4.659z"/><path fill="#3aa0ba" d="M83.16 4.137L34.44 15.685l39.502-40.922 37.882-5.469 11.548-2.33 28.665 20.968-9.319 17.725-26.335 9.319z"/><path fill="#73cfe5" d="M69.283-36.074l12.358 9.217-1.52 15.498-20.865.809-6.28-8.508z"/><path fill="#5ec0d9" d="M117.193-36.884l-47.91.81 10.838 24.715 18.536-10.838 13.167-8.509z"/><path fill="#318fa6" d="M114.864-46.912l-3.04 16.206 40.213 18.638z"/><path fill="#318fa6" d="M116.383 14.976l5.469 10.838 10.029-.811h18.535l13.978-15.497-12.357-21.574z"/><path fill="#27788c" d="M145.047 40.501l-12.358-3.95-.808-11.548 32.513-15.497z"/><path fill="#cea39f" d="M126.512 86.891l-8.509 2.329-54.898 3.04 6.989 13.167 26.234 13.167z"/><path fill="#ffeee9" d="M125.701 31.992l-2.329 21.575 13.167 3.14 5.369-11.648-1.52-9.217-6.988-5.47z"/><path fill="#cea39f" d="M127.22 45.868l1.622-9.317 7.697.809zM123.372 53.567l10.838 14.687 2.329-11.547z"/><path fill="#5e5044" d="M115.674 32.701l8.507 13.167 1.52-13.876 6.988-.811-.808-6.178-15.498-10.027z"/><path fill="#46382d" d="M140.388 35.842l-8.507-10.839-6.18 6.989 6.18 1.519zM145.858 57.517l-.811-17.016-4.659-4.659-10.028 51.049 9.218-11.649z"/><path fill="#5e5044" d="M134.818 106.035l-6.787-6.078 2.329-13.066 15.498-29.374-2.329 23.195-2.33 22.385z"/><path fill="#46382d" d="M153.962 105.022l-10.129 9.116-9.015-8.103 11.04-48.518 8.509 22.386z"/><path fill="#5e5044" d="M164.394 86.081l-10.432 18.941-8.104-47.505z"/><path fill="#46382d" d="M39.098 25.814l1.52 3.849 6.99-3.849 10.027 1.518v-3.848l-10.027-3.14zM98.657 23.484l-1.52 3.848-7.798-3.139-9.218 3.139-.81-3.848 10.028-4.66z"/><path d="M49.532 29.865c2.027-.101 3.647 1.52 3.647 3.545.101 2.026-1.52 3.749-3.444 3.749-2.026.101-3.647-1.52-3.647-3.545-.1-2.026 1.52-3.749 3.444-3.749zM89.136 28.751c2.026-.102 3.747 1.519 3.747 3.646.103 2.025-1.518 3.747-3.544 3.849-2.027 0-3.647-1.621-3.748-3.646 0-2.127 1.621-3.849 3.545-3.849z" fill="#2b2b2b"/><path fill="#fff5f3" d="M64.624 31.992l-3.14 20.866h13.978l-3.849-21.677z"/><path fill="#cea39f" d="M69.283 57.517l-7.799-4.659h13.978z"/><path fill="#46382d" d="M48.418 68.254l20.865-9.217 22.386 6.988 3.139 24.715-44.87 3.038z"/><path fill="#ffeee9" d="M69.992 63.696l-13.876 7.698v16.205h7.697l6.179-8.507 7.8 6.989 7.698-.811-2.33-17.016z"/><path fill="#cea39f" d="M59.964 71.394l9.319.81 13.167-2.33v2.33l-13.167 2.329-9.319-.809z"/><path fill="#27788c" d="M2.028 24.193l33.223 12.358-.811-20.866-7.698-13.877z"/><path fill="#3aa0ba" d="M-30.487-16.018L2.028 24.193 26.742 1.808l-3.14-29.374z"/><path fill="#318fa6" d="M80.121-11.359L23.602-27.566 15.904-9.841 2.028 24.193l32.412-8.508z"/><path fill="#525354" d="M96.328 208.742l-8.104 15.497 12.458 7.799 5.775-2.937-12.358-4.659 8.813-8.408 5.064-.709-.71-6.583z"/><path fill="#6d6f6e" d="M116.686 216.135l-15.295-12.458-5.063 5.065 11.242 15.7 7.699-3.141z"/><path fill="#8a8a8a" d="M139.984 248.041l70.293 56.521 18.436 14.788-83.969-78.195-5.166 1.923z"/><path fill="#55adc3" d="M164.799 178.962l1.317 101.087 14.282-5.672 10.533-85.995-10.229-13.774z"/><path fill="#27788c" d="M204.707 168.024l-10.129 101.087-14.18 5.266-.405-99.567z"/><path fill="#5ec0d9" d="M43.961 289.773l5.065-24.208 40.009-1.52 2.227 25.424zM154.873 288.861l-6.178-23.296-43.656 2.128.305 26.84z"/><path fill="#525354" d="M107.57 224.442l3.344 2.532 8.71 3.14 4.356-5.469-.709-14.384z"/><path fill="#6d6f6e" d="M97.745 234.267l13.878-1.521 7.292-1.62-1.013-2.43-10.332-4.254z"/><path fill="#ffeee9" d="M117.699 228.797l14.99-9.825 16.715 15.295-9.42 13.774-16.004-7.292z"/><path fill="#efd0cb" d="M111.623 232.746l6.279-4.05 22.082 19.345-13.066 2.938z"/></svg>