<svg xmlns="http://www.w3.org/2000/svg" viewBox="0 0 400 400"><path fill="#383938" d="M164.473 143.283l-16.675 20.249 12.751 3.082 4.765 9.179 17.936-14.924-12.261-16.115z"/><path fill="#575757" d="M146.326 130.671l-9.248-.771-5.606 24.664 16.326 8.968 32.65-17.096-11.281-26.204z"/><path opacity=".1" fill="#2c2b2b" d="M117.18 387.179l80.994-11 83.727 12.402L197.754 400z"/><path fill="#227a8e" d="M147.237 326.153l14.293-5.677 17.866 5.606v33.841l-12.26 3.083-11.771-5.115z"/><path fill="#1a7779" d="M137.568 385.217l-1.822-5.605 20.039-8.828 13.593-2.523 10.018 1.261v12.262l-6.655 1.051-1.121-5.326-7.147 7.568z"/><path fill="#339697" d="M159.918 380.032l9.951-10.51 9.527.211v-9.879l-24.031-1.963-19.619 21.721z"/><path fill="#e9d2c0" d="M264.806 257.839l-5.885 19.688 4.834 2.243 5.605-7.567 1.541-16.045zM272.022 280.75l9.669-8.618 14.574-.42-2.522 20.879-14.925 5.045z"/><path fill="#d1b49b" d="M264.806 257.839l7.216 22.911 24.243-9.038-12.892-14.994-10.72-2.522z"/><path fill="#4ca9ab" d="M291.221 256.228l-35.664 11-11.77-8.407 2.242-45.193 32.369 9.949z"/><path fill="#339697" d="M250.582 223.017l27.816.56-19.898-53.389-13.732-5.045-2.733 2.242-.56 30.058z"/><path fill="#227a8e" d="M245.607 326.012l-19.827-6.095-15.694 6.165 10.999 33.841 12.542 3.083 10.72-3.012z"/><path d="M134.275 221.406l-2.242 104.817c13.803-.07 32.791-.141 52.199-.141l-2.452-84.358-26.836-16.186-20.669-4.132z" fill="#155f61"/><path d="M250.582 223.017l-33.421-5.605-40.356 21.299 2.592 87.371c33.771-.07 69.855-.07 82.817.07l-11.632-103.135z" fill="#1a7779"/><path fill="#4ca9ab" d="M192.919 187.354l23.472-15.274 18.287-15.625 5.465 7.777 4.625.911 5.814 57.874-38.395 1.191z"/><path fill="#339697" d="M201.116 191.838l38.397-31.6-12.472-2.451-33.632 10.509-4.483 5.675 7.216 15.625z"/><path fill="#e9d2c0" d="M89.503 123.385l16.606-5.395 8.198 17.516-11.981 6.025-13.453 1.752z"/><path fill="#d1b49b" d="M94.899 163.042l-6.026-19.759 25.434-7.777-.981 15.414-14.294 16.396z"/><path fill="#e9d2c0" d="M121.804 144.124l-19.759 9.318.14 8.899 7.498 4.975 15.133-19.128z"/><path fill="#339697" d="M73.179 165.143l40.918-4.134-1.332 31.88-11 13.873-14.714 5.606z"/><path fill="#4ca9ab" d="M134.275 221.406l-47.224-9.038 54.16-40.989 2.032 5.535-3.994 41.548z"/><path fill="#339697" d="M141.211 171.379l-6.936 50.027 10.51-6.797 21.79-30.128-6.026-17.867z"/><path fill="#155f61" d="M163.142 188.545l-2.593-21.931 14.994-3.292 1.611 6.515-1.611 3.714z"/><path fill="#4ca9ab" d="M171.13 262.744l6.165-6.727 6.446 6.446-6.026 6.236zM172.18 299.107l6.235-6.726 6.447 6.516-6.096 6.165z"/><path fill="#76cfe4" d="M214.009 223.017l9.459.841-34.542-49.887 3.924 22.701 11.701 30.899z"/><path fill="#5ec0da" d="M175.403 175.163l12.892 33.14 16.256 19.268-15.625-53.6z"/><path fill="#76cfe4" d="M195.161 227.782l-7.847 9.387-9.599-23.26.981-35.944 25.855 49.606z"/><path fill="#5ec0da" d="M167.556 238.151l9.879-4.344 9.879 3.362-8.618-59.204-9.598 32.37z"/><path fill="#76cfe4" d="M151.371 231.074l8.828-1.261 7.357 8.338 11.14-60.186-17.726 24.243z"/><path fill="#5ec0da" d="M176.034 170.678l-16.326 27.536-8.337 32.86 27.325-53.109-1.752-5.605z"/><path fill="#76cfe4" d="M144.014 223.717l-9.739-2.311 41.759-50.728-24.663 60.396z"/><path fill="#39a1ba" d="M134.275 221.406l9.739 2.311 7.357 7.357-13.173 2.313z"/><path fill="#39a1ba" d="M154.944 241.234l-3.573-10.16 9.599.49 6.586 6.587z"/><path fill="#3290a7" d="M177.085 247.609l-9.529-9.458 9.598-2.732 10.16 1.75z"/><path fill="#39a1ba" d="M204.551 227.571l-9.67 2.522-7.567 7.076 11.63 1.543zM223.468 223.858l-9.6-.141-9.317 3.854 12.891 6.445z"/><path fill="#5ec0da" d="M146.326 220.495l-12.051.911 17.096 9.668z"/><path fill="#5ec0da" d="M162.511 227.01l-11.14 4.064 16.185 7.077z"/><path fill="#39a1ba" d="M176.734 229.462l-9.178 8.689 19.758-.982z"/><path fill="#5ec0da" d="M192.85 225.048l-4.906 11.772 16.607-9.249zM212.607 218.462l-8.056 9.109 18.917-3.713z"/><path d="M147.237 326.153l32.16 11.561v-11.631l-32.16.07zm62.989-.141l3.362 10.93 32.02-10.93h-35.382z" fill="#2b2c2b" fill-opacity=".2"/><path d="M166.154 144.194l21.58 30.268 33.701-14.293 17.026-47.574-8.829-8.828 1.332-22.21 12.892 1.051s-8.688-24.874-6.726-23.542c1.962 1.261-64.319 3.994-62.357 3.433 1.891-.491-8.619 81.695-8.619 81.695z" fill="#d1b49b"/><path fill="#383938" d="M236.359 136.276l-14.853 5.115-.071 18.778 23.333 4.974 4.834-28.306z"/><path fill="#494849" d="M235.028 84.779l-4.343 1.541-3.855 15.905 18.077 16.956 29.778 10.719-12.402-35.943-2.592-7.356z"/><path fill="#575757" d="M235.028 69.505l36.083 7.427-8.828 17.025-39.235-9.528z"/><path fill="#383938" d="M242.875 42.88l13.102 21.16 15.134 12.892-48.063 7.497-27.817-58.434 14.364-4.414z"/><path fill="#494849" d="M194.602 28.657l18.846-11 15.695-5.045 20.319 17.867 6.515 33.561-50.166-38.606z"/><path d="M138.549 105.588l-5.815 4.274-6.726 20.669 5.465 24.032 19.899-20.389 1.892-12.541s-4.694-9.529-3.643-12.262c.98-2.732-11.072-3.783-11.072-3.783z" fill="#383938"/><path fill="#494849" d="M121.733 100.613l-7.847 14.434 13.032 19.758 11.771-7.497 7.637-13.803-.631-13.662z"/><path fill="#494849" d="M127.129 53.04l-7.707 23.331 3.923 17.026 15.344 10.299 11.141-7.567-3.293-33.561z"/><path fill="#383938" d="M140.931 89.403l-17.586 3.994-9.459 21.65 23.192-11.07z"/><path fill="#575757" d="M179.677.001L124.536 32.16l47.363-2.802-7.146-3.784 12.542-7.637z"/><path fill="#494849" d="M213.448 17.657L179.677.001l-14.924 25.573 7.146 3.784 7.778-.491z"/><path fill="#494849" d="M124.536 32.16l-5.114 44.211 26.834-30.338 54.86-2.943 2.032-3.012h-10.789l-8.969-9.039-18.637-5.465z"/><path fill="#383938" d="M203.148 40.078l2.663-14.644 7.637-7.777-48.695 7.917 27.606 14.504zM171.689 54.371l20.67-14.293-48.765-5.255-24.172 41.548 17.585-10.65z"/><path fill="#575757" d="M205.811 25.434l-13.452 14.644 6.446 20.038 24.243 24.313z"/><path fill="#a88f79" d="M175.263 144.054l16.185 7.637 24.662.35-28.376 22.421-9.038 3.503-12.401-25.854z"/><path fill="#e9d2c0" d="M137.007 65.721l1.682 61.587 27.606 24.803 25.153-.42 30.407-24.523 1.193-42.739-30.689-44.351-40.988 4.413z"/><path d="M158.798 122.193c.07-.28 33.07 0 33.07 0l-10.65 7.847h-13.032c-.21-.069-9.388-7.847-9.388-7.847z" fill="#fff"/><path fill="#575757" d="M230.194 130.742l-8.688 10.649 23.262 23.752 18.426-29.007-19.338-9.178z"/><path fill="#d1b49b" d="M151.581 73.148l10.72 4.274 7.917 7.427 2.733 2.662 3.644-2.662 7.776-7.988 1.051-2.031 16.466-3.434 8.547 1.682-14.293 12.752-14.853 24.102-10.23-5.535-4.204-.63-14.083-16.536-13.942-11.28 10.439-3.223z"/><path fill="#73cbcc" d="M169.447 128.149l10.791-.351 9.388-5.534.211-.982 6.586-.77-14.995 11.28-12.54.211-13.594-11.211 4.485 1.332z"/><path fill="#a88f79" d="M170.569 106.009l-4.835 3.923 7.707 4.204 7.848-4.204z"/><path fill="#ede0d8" d="M170.218 84.849l-4.484 25.083h15.555l-4.694-25.083z"/><path fill="#4ca9ab" d="M155.294 120.792l5.466.42 9.038-1.611 10.159-.21 8.618 1.331 7.848-.21-3.014 2.242-18.707.981-16.675-.771z"/><path fill="#d1b49b" d="M163.072 107.9l-10.79 8.338-2.172 4.484-1.122-7.777zM185.352 107.9l13.874 7.497 3.502 5.185-.139-7.847z"/><path d="M155.925 81.065c2.4 0 4.344 1.945 4.344 4.344s-1.944 4.344-4.344 4.344c-2.399 0-4.344-1.945-4.344-4.344s1.945-4.344 4.344-4.344z" fill="#2a2a2a"/><path fill="#535353" d="M163.352 74.9l-13.803-3.854-10.719 4.905 9.458-1.892 14.013 3.363zM183.531 74.339l16.114-4.484 10.79 3.223-8.968-.21-17.096 3.993z"/><path fill="#383938" d="M226.83 102.225l3.364 28.517 33 5.394 11.491-6.236z"/><path d="M195.582 80.575c2.399 0 4.344 1.945 4.344 4.344s-1.944 4.344-4.344 4.344c-2.399 0-4.344-1.945-4.344-4.344s1.945-4.344 4.344-4.344z" fill="#2a2a2a"/><path fill="#d1b49b" d="M140.23 108.251l6.096 4.694-4.274 4.905zM208.123 112.735l9.95-5.115-1.402 10.16z"/><path fill="#339697" d="M215.62 380.032l14.434 1.821 22.49-2.241-8.197-19.618-23.262-.071z"/><path fill="#1a7779" d="M218.003 386.898h32.859l1.682-7.286-36.924.42z"/></svg>