<svg xmlns="http://www.w3.org/2000/svg" viewBox="-127.249 -55.37 400 400"><path fill="#9d8d56" d="M101.18 86.039l-2.699 10.986 13.973 5.685 4.434-21.875z"/><path fill="#eecec9" d="M39.602 167.854l-13.877-9.54-3.76 3.18-6.07 38.066 15.322 1.349z"/><path fill="#eecec9" d="M15.028 217.002l.867-17.442 10.408 3.082-.289 11.084z"/><path fill="#feeee9" d="M26.303 205.92l-3.854 6.264-6.554-12.624 10.793-2.315z"/><path fill="#cea39f" d="M27.074 214.206l-4.625-2.022-7.421 4.818 9.732 15.225z"/><path fill="#feeee9" d="M24.375 138.559l-2.602 2.313.192 20.622 13.107.289z"/><path fill="#9d8d56" d="M31.603 70.331l-7.132 11.564-2.602 22.357 6.94 1.253 23.32-6.842.096-23.128z"/><path fill="#2b2b2b" fill-opacity=".102" d="M-26.892 322.716l96.27 20.044 88.946-20.911-92.607-10.602z"/><path fill="#007489" d="M111.395 317.993l-19.852 8.097.097 4.527 29.969-.192.095-4.143z"/><path fill="#279db8" d="M115.152 311.537l6.552 14.745-30.161-.192 2.506-14.072 2.696.579z"/><path fill="#007489" d="M28.712 316.163l-21.01 5.878.387 3.276 27.465-.385 3.951-4.818 1.734 4.722 7.999-.096.867-5.397z"/><path fill="#279db8" d="M28.809 311.247l-7.903.579-13.204 10.215 31.803-1.927 10.6-.771.965-8.481z"/><path fill="#eecec9" d="M26.303 245.912l6.359 55.604 9.059 5.298 7.324-2.697 7.999-46.352-11.854-8.578z"/><path fill="#cea19c" d="M57.044 257.765l2.023-11.95-8.77-6.552-23.994 6.649z"/><path fill="#eecec9" d="M101.854 245.624l9.926 60.42-6.167 5.974-10.602-5.493-22.549-49.337 12.046-8.291z"/><path fill="#feeee9" d="M95.011 306.525l-.962 5.493 13.394 3.759 7.709-4.24-3.854-8.672z"/><path fill="#cea19c" d="M67.161 245.815l12.045-5.203 22.648 5.012-29.392 11.564z"/><path fill="#165e60" d="M32.47 211.027l-10.021 1.157 3.854 33.728 75.551-.288-5.493-7.615z"/><path fill="#1c7678" d="M22.449 212.184l35.943 15.225 43.462 18.215-6.456-41.921-41.534-16.672z"/><path fill="#369496" d="M39.408 169.975l-6.167 4.432-10.792 37.777 72.949-8.481-16.575-30.26-6.457-4.432z"/><path d="M97.229 206.787l-7.517 2.986-6.649-1.445 1.733 9.444 17.441 4.336-5.008-15.321zm15.032 17.732l.675-3.373 6.36-5.012 53.099 16.961-60.134-8.576z" fill="#858686"/><path fill="#6f7173" d="M119.296 216.134l-9.251-3.758 6.744 10.794z"/><path fill="#6f7173" d="M84.796 217.772l3.567-.866 8.962 1.155 75.07 15.034-57.53-4.722-8.482-3.565-7.71 1.541-16.383-2.121z"/><path fill="#eecec9" d="M101.276 207.847l-3.951 10.214 1.348 8.288 16.192 2.024 4.431-12.239-11.757-6.649zM109.082 156.482l12.334 5.686-6.168 34.403-6.936 4.915-7.229-3.758-2.024-36.041z"/><path fill="#50a9aa" d="M55.02 111.962l-33.247 28.91 11.468 33.535 45.582-.964 14.068-31.993-.963-23.706z"/><path fill="#feeee9" d="M101.564 94.327l10.89 8.383 8.962 59.458-22.357-.481-6.168-20.237-.963-23.706z"/><path fill="#00aeef" d="M48.853 86.232l-8.288 7.13-13.685 23.611-.289 14.262 48.473-1.445 26.116-43.751z"/><path fill="#feeee9" d="M21.869 104.252l-.096 36.62 56.663-8.769 14.071-47.799-50.401 7.71z"/><path fill="#72cbcc" d="M37.385 102.229l-.386 11.082 45.486-2.216 7.419-18.021 4.723-1.831 6.937 3.084-8.673 47.123-71.118-.578 9.348-42.209z"/><path fill="#c1b170" d="M45.866 86.714l-1.736 8.673-7.131 17.924-12.72-31.898 16.382-5.878z"/><path d="M62.054 91.339l-10.6 16.19 36.137-16.286 9.927-16.382L98.962 7.79S82.87-27.384 82.58-24.782c-.29 2.506-32.668 49.918-32.668 49.918l12.142 66.203z" fill="#eecec9"/><path fill="#cea19c" d="M57.14 73.608l5.879 8.287 18.019.579-29.584 25.055-20.237-33.632z"/><path fill="#e1ce7f" d="M101.276-14.086l23.609 27.369-12.046 49.243-12.046 2.601-18.019-12.142 5.202-25.923L83.641-6.28z"/><path fill="#d1be73" d="M112.839 62.526l4.049 18.309-20.527 11.757-9.926-10.311-3.661-29.296z"/><path fill="#c1b170" d="M101.276-14.086l23.609 27.369-36.909 13.779L83.641-6.28zM86.435 82.281l-3.95 28.814 34.403-30.26z"/><path fill="#fff7ae" d="M96.456-17.652l3.857-24.091L66.969-53.5l-5.878 5.686-35.366 23.127z"/><path fill="#e1ce7f" d="M61.091-47.814L31.41-53.5 8.186-34.226l3.758 8.19 13.781 1.349 14.166-2.409z"/><path fill="#9d8d56" d="M2.789-18.905L-6.752 7.597l17.443 38.064-.675-69.866z"/><path fill="#feeee9" d="M6.355-13.989l.095 64.565 17.829 30.837 38.74.482L77.762 51.25l6.842-67.264-44.713-11.082z"/><path fill="#fff" d="M28.712 53.853l7.227-.482 15.034 1.927-14.842 7.999-11.949-8.288z"/><path fill="#eecec9" d="M19.846 11.065l6.649 2.024 3.469 3.662 5.878 4.818 1.254 2.41 2.892-2.41 7.9-4.529 1.928-2.409 10.215-3.566 13.202 1.928-32.09 29.584-2.795-8.287-6.649 8.384L9.053 13.475z"/><path fill="#6dcacb" d="M36.71 61.465l-11.758-7.131-.77.675L36.71 65.802l14.937-10.504-1.061-.578z"/><path fill="#cea19c" d="M34.493 37.952l-2.794 4.722 5.011 3.18 4.433-3.277z"/><path fill="#fff7ae" d="M-6.752 7.597l46.643-34.693-31.705-7.13-16.96 14.936z"/><path fill="#e1ce7f" d="M100.313-41.743L39.891-27.096l84.994 40.379z"/><path fill="#9d8d56" d="M9.053 13.475l10.985-3.663 11.565 3.952-1.639 2.987-9.829-4.144zM47.888 17.04l-.867-3.661 12.914-3.662 13.298 3.276-13.106-.289z"/><path fill="#fef4f2" d="M35.842 21.569h4.146l1.155 21.008-9.444.097z"/><path d="M22.833 29.183c1.638 0 3.084-1.542 3.084-3.374 0-1.831-1.35-3.276-2.987-3.276-1.639 0-3.084 1.445-3.084 3.276-.096 1.832 1.253 3.374 2.987 3.374z" fill="#030303"/><path fill="#1e9193" d="M24.182 55.009l-2.217-2.217 3.76.579 10.214-.964 13.203 1.253 5.878-.579-3.373 2.217-15.805.481z"/><path d="M52.417 29.954c1.735 0 3.084-1.542 3.084-3.373.097-1.831-1.252-3.276-2.987-3.276-1.639 0-2.987 1.445-3.083 3.276 0 1.831 1.349 3.373 2.986 3.373z" fill="#030303"/><path fill="#eecec9" d="M51.165 51.154l3.661 7.035.386-5.878z"/><path fill="#feeee9" d="M20.906 311.826l30.164-.964-1.639-6.648-16.769-2.698z"/><path fill="#8f8f8f" d="M83.063 208.328l5.3 8.578-6.073 7.322-4.625-8.287z"/><path fill="#eecec9" d="M100.987 197.823l2.216 9.735-4.722 4.433-8.77-2.218z"/><path fill="#feeee9" d="M101.083 197.728l-3.758 20.333 21.971-1.927-4.048-19.563z"/></svg>