<svg xmlns="http://www.w3.org/2000/svg" viewBox="-121.826 -47.298 400 400"><path fill="#165e60" d="M107.222 161.691l11.157 52.247-5.49 3.188-5.49-2.833-5.315-31.703-.708-12.398z"/><path fill="#c2c3c3" d="M9.102 278.406l10.981 7.616 15.409-4.074-14.523-9.031 1.239-15.232-1.594 2.656z"/><path fill="#dddddc" d="M36.38 282.552l-7.619-1.135-12.22-6.198 5.667-17.534-4.604-5.668 6.552-9.387 3.897 7.438z"/><path fill="#9c9fa0" d="M182.138 317.015L76.58 296.471l-103.962 14.877 56.143-29.931 35.245-23.024 56.143 13.46z"/><path fill="#c2c3c3" d="M182.138 317.015L71.976 292.22l-99.358 19.128 61.457 15.231h68.009z"/><path fill="#eaeceb" d="M159.645 295.232l-41.443-24.442 3.364-3.188 27.63-4.073 8.324.708 22.669 26.035z"/><path fill="#dddddc" d="M168.146 290.272l-8.501 4.96h11.511l9.033-4.96zM157.52 264.237l-37.371 7.616-9.033-2.125-4.427 4.959-48.666 9.844-2.695-15.511 6.376-30.995 86.96 23.733z"/><path fill="#eaeceb" d="M122.983 240.682l9.211 1.948 22.136 14.169 3.19 7.438-90.149-5.634 41.267-20.754z"/><path fill="#dddddc" d="M160.355 202.781l-14.347 14.522-3.719 5.845-6.377 4.605-12.929 12.929 34.537 23.555 10.981-23.909.531-4.252 2.835-3.365 4.604-9.918-.532-2.302 1.948-.886 5.844-12.929-17.532.531z"/><path d="M135.912 227.753l4.782 11.158 16.296 4.959 11.511-3.542 3.366-7.617-4.251-9.918-11.158-4.959-10.448-.531-10.098 10.45zm10.096-6.377l10.804-.708 9.564 4.605 2.302 6.908-2.479 4.957-9.033 2.481-12.753-4.783-3.365-7.793 4.96-5.667z" fill="#6dcacb"/><path d="M147.957 223.501l-1.771 7.085 10.981 9.033 6.906-4.428.354-7.262-7.615-7.262-8.855 2.834zm3.187 2.481l5.489-1.949 4.251 4.604v5.315l-3.188 1.77-7.26-6.198.708-3.542z" fill="#8fd4d5"/><path fill="#6dcacb" d="M155.394 227.044l-1.064 2.125 1.597 2.481 2.832-1.064-.531-3.011zM155.749 245.819l-1.595 2.833 2.479 3.719 3.899-1.417-.711-4.605zM140.164 241.036l-3.898.176-1.593 3.012 3.01 3.188 3.366-2.48zM135.736 234.305l-2.479-2.124-4.075 2.303 1.24 3.01 3.541.531zM148.486 244.755l-3.541 1.594v3.366l4.075 1.771 1.946-3.72zM157.166 215.355l1.239-2.834-1.948-2.833-3.896 1.416.708 4.428zM172.575 222.971l3.896-.178 1.416-3.188-2.832-3.186-3.543 2.478zM164.604 217.303l3.542-1.771v-3.188l-4.074-1.772-1.948 3.543z"/><path fill="#c2c3c3" d="M108.815 250.954l5.667.532-.353 6.553h-6.022l-3.188-3.72z"/><path fill="#444648" fill-opacity=".149" d="M104.032 275.224l16.117-3.371 61.989 45.162zM-10.38 336.055l73.855 16.647 74.739-14.168-74.739-14.877z"/><path fill="#858686" d="M8.217 203.134l2.125 14.7 4.25.531 4.783-4.072.885-4.252-.177-5.489-4.428-6.023z"/><path fill="#1c7678" d="M14.238 243.693l-3.896-25.859 9.918-7.793 3.365 2.657 2.657 23.91-2.126 6.022z"/><path fill="#e7d0be" d="M-.993 162.753l16.648 35.776 3.366-1.77 6.73-8.856-2.126-23.202-3.719-8.854-5.314-.886-10.272 3.365z"/><path fill="#d1b197" d="M14.416 133.354L-.993 162.753l20.899-6.906 2.479-4.251-1.593-12.044z"/><path fill="#5ec0d9" d="M36.377 201.895l30.994 1.416-4.604-44.277-6.023-14.877-15.054-2.479-3.719 2.303-1.594 6.375z"/><path fill="#e7d0be" d="M53.38 93.858l10.272 12.043 23.202-6.376-3.544 12.398-12.22 23.025-12.751-1.418-3.543-3.718-4.073-14.347z"/><path fill="#a58b74" d="M50.9 87.305l2.48 6.553 7.439 18.065 27.628-22.847-1.416-7.084-28.515-1.063z"/><path fill="#73cfe5" d="M42.931 130.165l-4.783 8.325-.177 5.491 24.618 2.655 1.417 2.657 6.022-12.398 3.011-15.939-19.836-3.542z"/><path fill="#444648" d="M12.999 335.7h41.797v-5.668l-7.084-2.302-23.91.532-10.803 1.77zM104.032 341.899H74.987v-5.844l5.844-2.302 17.535-.179 5.666 2.481z"/><path fill="#686b6d" d="M34.075 314.269l-21.076 15.763h41.797v-15.763l-3.187-2.302H38.857z"/><path fill="#3aa0ba" d="M22.563 230.056l7.376 50.591 2.365 6.792 23.201 1.417 2.518-4.325 4.295-41.725.094-6.73-29.577-22.491-4.251 3.187-4.604 6.199z"/><path fill="#686b6d" d="M104.032 336.055l-2.301-17.711-4.427-4.251-12.046.176-4.071 4.075-6.2 17.711z"/><path fill="#3aa0ba" d="M62.318 242.806l.094-6.73 18.775-11.157 8.323.532 13.992 9.386 4.959 30.817-4.429 9.57-13.106 2.652 9.033 14.167-23.024-1.062-4.309-6.908z"/><path fill="#318fa6" d="M29.939 280.647l28.084 3.884-3.227 29.738H34.075zM72.032 281.697l32-6.473-2.477 43.474-20.368-.354z"/><path fill="#27788c" d="M31.418 208.98l-1.771 9.917 32.671 23.909 27.192-17.355-20.545-13.815z"/><path fill="#369496" d="M22.563 230.056l10.449-16.295-1.594-4.781-9.033-2.834-2.125 3.895z"/><path d="M34.075 202.603l-2.657 6.377 1.417 4.605 10.981.531 2.125-2.834-.176-6.553s-1.772-3.01-1.949-3.01l-5.136-.355-4.605 1.239zM56.39 215l13.106.708 2.126-5.136-4.251-7.262-3.366-.176-7.438-.532-1.594 2.657v6.376L56.39 215z" fill="#165e60"/><path fill="#1c7678" d="M45.941 205.26l.177 6.553 8.855.353 1.595-1.062v-4.958l-1.595-.886z"/><path fill="#369496" d="M43.816 201.718v12.397L56.39 215l.178-3.896-8.856-.353v-4.783l8.856.532v-3.897zM25.927 192.508l9.388 9.742 3.365-.887-.709-57.382-8.679 5.667-7.084-2.657-4.782 2.126 6.908 37.546z"/><path fill="#50a9aa" d="M21.323 140.084l-6.907-6.73 15.585-29.4L53.38 93.858l-14.346 23.025 14.169.531-15.232 26.567-6.199.353z"/><path fill="#72cbcc" d="M17.426 149.117l11.866 5.489 8.679-10.625-23.555-10.627z"/><path fill="#43a7a8" d="M60.641 158.326l3.011 44.808 3.719.177 9.741-4.959 3.542-8.501.355-4.072-16.117-26.39z"/><path fill="#d1b197" d="M15.655 198.529l4.605 11.512 2.125-3.895 3.366-10.273-1.417-9.21z"/><path fill="#e7d0be" d="M38.68 201.363l-14.346-14.7-4.074 23.378 12.575 3.544z"/><path fill="#007072" d="M44.17 119.362l.178-2.303 6.375-1.594 2.48 1.949 9.386 29.222-.885 4.075-4.074.885-4.959-6.022z"/><path fill="#369496" d="M112.18 141.323l-10.804 44.101-3.542 7.969-7.971-.176-28.159-42.506.885-4.075 4.074-2.833 40.559-5.845z"/><path fill="#165e60" d="M79.414 189.674l-26.743-44.1 9.918 1.062 6.73 4.075 1.949 8.678 22.669 34.004-2.301 1.948-6.378-1.239z"/><path fill="#369496" d="M71.09 211.99l-1.594 3.718 40.027 27.098.355-3.718-17.889-35.954z"/><path fill="#1c7678" d="M96.064 218.01l4.604 2.658 10.272.531 6.199-3.896 1.24-3.188-10.98.178z"/><path fill="#005557" d="M90.926 208.625l6.022 9.74 4.428 2.479 5.489.179 3.189-2.302-8.146-13.816-6.908.178z"/><path fill="#e7d0be" d="M69.496 215.708l-5.49-12.574 11.867-13.992 4.604 2.834 6.73 12.929v4.959z"/><path fill="#d1b197" d="M93.937 193.393l-18.064-4.251 11.334 20.722 14.701-4.959v-2.302l-4.074-6.553z"/><path fill="#e7d0be" d="M93.937 193.393l7.971 11.512 46.578-35.6-1.947-5.666-19.836-5.845-7.969 2.48z"/><path fill="#d1b197" d="M111.827 142.74l6.907 17.534 29.752 9.031-16.647-54.193-9.917 1.239-7.263 9.386-4.072 10.273z"/><path fill="#50a9aa" d="M73.039 120.956l-10.45 25.68 9.918 2.126 7.794-4.074 31.879-3.365z"/><path fill="#72cbcc" d="M71.268 159.389l11.158-8.678-2.835-5.668-17.002 1.593z"/><path fill="#454444" d="M79.591 145.043l-8.323 14.346 23.556-5.136-1.417-5.315-8.678-4.604z"/><path fill="#454444" d="M73.039 120.956l6.552 24.087 9.033-1.772 19.128-20.899-16.826-3.364z"/><path fill="#454444" d="M111.827 142.74l.708-11.866-7.972-6.73-4.958 7.084-5.668 15.586.887 7.439zM117.671 122.903l-.532 5.668 14.7-13.459-4.428-14.347-3.541 5.845z"/><path fill="#3a3a3a" d="M112.18 110.86l-7.617 13.284 7.264 18.596 16.116-40.381z"/><path fill="#454444" d="M99.781 106.964l4.782 17.18 23.38-21.785-9.386-6.73-14.17-3.011z"/><path fill="#3a3a3a" d="M86.854 99.525l-13.815 21.431 31.524 3.188-2.479-9.387-8.323-13.637z"/><path fill="#545657" d="M104.919 90.316l-6.908.354-11.157 8.855 17.709 24.619z"/><path fill="#3a3a3a" d="M112.889 82.7l-7.97 12.398 23.024 7.261-2.303-24.086z"/><path fill="#454444" d="M112.18 66.229L100.492 88.19l4.427 6.908 20.721-16.825z"/><path fill="#3a3a3a" d="M112.18 66.229l-7.261 28.869-4.783-2.48-3.896-20.013 2.302-6.908 6.907-2.479z"/><path fill="#454444" d="M93.937 69.594l7.261-3.719 3.721 29.223-18.065 4.427-2.659-7.261z"/><path fill="#1e9193" d="M102.794 50.112l-.354 12.752 9.916-6.021.533-7.617z"/><path fill="#007072" d="M112.356 56.843l-.176 9.386-10.982-.354-2.125-4.428z"/><path fill="#393939" d="M119.264 45.153L106.512 53.3l-.708-7.971 8.147-3.896z"/><path fill="#454444" d="M130.246 16.461l-10.982 28.692h-9.21l.709-19.66 9.033-7.793z"/><path fill="#d1b197" d="M86.854 99.525L106.512 53.3l-2.125-21.784L85.969 1.939 76.58-2.312 76.404 61.8 58.516 80.929l-1.24 6.199 26.742-.354-23.199 25.149z"/><path fill="#e7d0be" d="M81.717 11.503l-2.832 53.663-21.609 21.962H34.783L14.592 64.812 8.748 27.796 7.863-5.501l18.773-16.116 51.185 6.553z"/><path fill="#3a3a3a" d="M81.717 11.503l15.94 34.182 20.545-19.66 12.044-9.564-9.034-5.668-34.181-6.552z"/><path fill="#545657" d="M72.33-8.688l9.387 20.191 23.555-12.929 13.107-17.889-16.118-3.72z"/><path fill="#454444" d="M59.048-23.211l5.667 9.032 7.615 5.491 46.049-10.627-25.858-24.972-21.785 6.022z"/><path fill="#545657" d="M30.533-14.71l5.49-20.368 17.534-12.22 38.964 3.011-31.88 20.544-13.283 6.554z"/><path fill="#454444" d="M19.552-34.369l34.005-12.929L30.533-14.71l-6.908-2.657-4.959-10.626z"/><path fill="#545657" d="M19.552-34.369L30.533-14.71l-9.21 1.239-11.158-1.062-1.417-2.656z"/><path fill="#a58b74" d="M106.512 53.3l-8.855-7.615 6.199-3.189 6.198 2.657z"/><path fill="#e7d0be" d="M97.657 45.685l12.397-.532 8.148-19.128-15.232-2.479z"/><path fill="#a58b74" d="M103.856 38.954l2.48-9.74 5.135.884z"/><path fill="#72cbcc" d="M30.533 122.372l22.67-4.958.177-23.556z"/><path d="M94.824 154.253l17.356-12.929-4.957 20.368-12.399-7.439zm1.948 64.112l-27.275-2.657 21.608-7.083 5.667 9.74z" fill="#444648" fill-opacity=".149"/><path fill="#545657" d="M79.591 145.043l24.972-20.899-9.739 30.109z"/><path fill="#454444" d="M118.379-19.315L81.717 11.503l48.529 4.958z"/><path fill="#444648" fill-opacity=".149" d="M174.698 284.073l-7.259-.176-16.65-18.243 6.731-1.417z"/><path fill="#c2c3c3" d="M118.379 252.017l6.022.531.708 5.668h-6.907z"/><path fill="#1c7678" d="M104.032 275.224l-7.439-57.214 13.461.711 10.805 21.961-.71 31.171z"/><path fill="#165e60" d="M120.149 271.853l6.907-8.679.177-26.744-5.667-1.062-3.187 6.022z"/><path fill="#369496" d="M127.233 236.43l-8.854 5.668-8.325-23.377 8.325-4.606z"/><path fill="#72cbcc" d="M31.241 64.281l4.605 4.428h12.929l6.021-4.251-12.928-2.126z"/><path fill="#50a9aa" d="M41.69 60.208l-12.22 2.656 1.771 1.417 23.201.353 2.657-1.593z"/><path fill="#a58b74" d="M34.783 50.466l5.668-1.771 5.667 2.126-5.313 5.312z"/><path fill="#d1b197" d="M35.492 28.151l2.479 6.553.531 7.792-3.719 7.97-6.908-15.232-13.814-8.678 6.199-3.01zM45.409 27.974l-2.656 6.552-.531 7.97 3.896 8.325 7.616-15.587 15.585-9.032-9.563-1.948z"/><path fill="#ebded6" d="M37.971 34.704l-3.188 15.762 11.335.355-3.365-16.295z"/><path fill="#2b2b2b" d="M19.552 22.66l-5.491 3.896 6.553-1.947 14.878 3.542-1.24-3.542zM47.181 24.962l-1.772 3.012 16.295-3.189 7.615 1.417-8.678-3.542zM26.99 29.567c1.956 0 3.542 1.586 3.542 3.544 0 1.956-1.586 3.541-3.542 3.541-1.956 0-3.542-1.586-3.542-3.541 0-1.958 1.586-3.544 3.542-3.544zM54.088 29.567c1.956 0 3.541 1.586 3.541 3.544 0 1.956-1.585 3.541-3.541 3.541s-3.543-1.586-3.543-3.541c.001-1.958 1.587-3.544 3.543-3.544z"/><path fill="#454444" d="M30.533-14.71l30.108-9.033 4.074 9.564-4.782 4.251z"/><path fill="#3a3a3a" d="M-5.067 13.096l4.251-31.525 9.741 4.958-1.062 7.97-3.189 17.712-4.073 4.074z"/><path fill="#545657" d="M1.664 31.339l3.188-4.428 3.896.885-7.439 16.118z"/><path fill="#454444" d="M-.816-18.429L7.863-5.501l22.67-9.209zM-5.067 13.096l6.731 18.243 7.084-3.543-4.074-15.585zM58.516 18.055l6.199 13.461 4.604 2.479 3.188-1.416-6.198-18.952-4.605-1.063z"/><path fill="#3a3a3a" d="M60.641-23.743L72.33-8.688l-6.021 22.315-7.793 4.428z"/><path fill="#545657" d="M64.715 31.516l2.302 18.065 5.49-17.002z"/></svg>