<svg xmlns="http://www.w3.org/2000/svg" viewBox="-135.617 -47.298 400 400"><path fill="#070908" fill-opacity=".149" d="M-17.802 334.944l88.1-18.626 77.78 19.382-88.603 15.606z"/><path fill="#369496" d="M2.083 241.559l6.545 42.791 4.783 30.205 11.83 4.028 3.525-4.28 3.02-51.854-4.279-13.341-6.796-5.789z"/><path fill="#1c7678" d="M108.058 240.551l-8.056-4.279-15.104 4.531-4.278 7.803-1.511 10.572 19.884 59.908 5.792 3.274 10.57-2.769-3.271-37.758zM40.597 248.103l-13.09 1.005-2.266 69.475 11.327-4.28 17.118-51.35z"/><path fill="#369496" d="M72.563 246.844l-18.877 16.109 38.512 56.133 12.587 3.274-24.165-73.754z"/><path fill="#454444" d="M-4.713 328.148l18.124-13.593 23.157-.252.503 13.593-3.523 1.006-32.975.253zM88.925 332.929l3.273-13.843 23.157.505 6.041 13.338-6.041 1.513H93.959z"/><path fill="#545657" d="M37.071 327.896v6.546H-4.713v-6.294zM88.925 340.985h32.471v-8.056H88.925z"/><path fill="#165e60" d="M2.083 241.559l51.603 21.394 54.372-22.402-64.694-5.035z"/><path fill="#318fa6" d="M3.846 124.762l10.572 49.839-33.73 3.02z"/><path fill="#27788c" d="M28.011 115.196l-24.165 9.566-.755 47.07 38.512-8.558-14.349-26.178z"/><path fill="#318fa6" d="M78.102 141.626l-36.499 21.648 19.633 16.865 52.357-47.323 4.03-8.558-24.668-10.32z"/><path fill="#eecec9" d="M65.014 172.335l-.505-9.061-6.292-7.552-6.293.504-10.321 7.048 9.061 6.292z"/><path fill="#cea19c" d="M75.334 162.77l-17.117-7.048 6.797 16.613 6.039-1.762z"/><path fill="#27788c" d="M2.587 207.073l-.504 34.486 41.281-.505 2.77-4.532-.252-33.98-1.762-13.34-21.899 3.773z"/><path fill="#318fa6" d="M43.364 190.963v50.091l64.694-.503 4.279-60.161-36.248 23.662z"/><path fill="#165e60" d="M37.071 207.827l6.293 6.042 6.042-6.042-6.042-6.796z"/><path fill="#3aa0ba" d="M-1.44 190.207l4.027 16.866 40.777-16.11-16.11-15.858-24.163-6.798z"/><path fill="#5ec0d9" d="M43.364 190.963l-15.606-8.811 1.008-13.088 5.286-8.557 30.962 11.828-3.778 7.804z"/><path fill="#27788c" d="M134.485 168.811l-28.946 20.391-33.226-6.797-7.299-10.07 52.609-48.077z"/><path fill="#5ec0d9" d="M-19.312 177.621l22.403-9.314-.504 38.766z"/><path fill="#3aa0ba" d="M65.014 172.335l-21.65 18.628 32.978 18.879 29.197-20.64z"/><path fill="#eecec9" d="M21.97 178.88l5.284-10.573.253-10.319-24.416 10.319z"/><path fill="#ececeb" d="M34.052 160.507l-6.294 21.645-5.788-3.272 5.537-20.892zM49.658 119.727l-5.538-8.809-9.817-1.763-6.292 6.041 3.02 14.097 8.055 5.286 7.048-6.294zM62.495 136.341l-10.068-8.559-2.769-8.055 12.082-9.062 25.926-3.272 5.289 6.545-17.872 17.62z"/><path fill="#cececd" d="M35.562 141.124l3.524-6.545 3.775-5.286 6.797 2.265 7.551-2.265 5.286 7.048-5.286 12.333-8.054-11.075-11.329 11.83z"/><path fill="#50a9aa" d="M37.826 149.429l8.56-15.857 3.272-2.014 2.517 2.516 5.034 14.6-15.606 14.6z"/><path fill="#369496" d="M42.861 129.293l3.525 4.279 5.789.502 5.034-4.781-7.551-9.566z"/><path fill="#318fa6" d="M22.221 137.85l19.382 25.424-2.517-28.695-11.075-19.383z"/><path fill="#27788c" d="M92.955 113.938l-30.46 22.403-20.892 26.933 42.038-19.382z"/><path fill="#cea39f" d="M24.738 92.793l9.565 16.362 15.103 10.823 26.43-8.557 6.295-8.558-3.022-16.362-50.092 2.768z"/><path fill="#eecec9" d="M66.775 114.505l20.891-7.112 15.104-34.736-7.55-45.561-13.844-6.042-20.98 71.885h14.938z"/><path fill="#feeee9" d="M15.299 92.939h45.097L77.851 65.86l3.923-38.438 3.376-14.171-16.363-30.458-33.476-12.837L2.335-13.431-9.243 27.096l.503 1.761 3.02 4.783-2.391 8.558.103 4.426.652 25.277z"/><path fill="#cea19c" d="M16.18 52.016l8.558 5.034 7.551-6.041-8.558-2.517z"/><path fill="#eecec9" d="M-8.111 42.198l5.413-7.048 14.346-.504 5.539 7.552 4.027-8.811-2.266-3.775-27.688-.755zM28.262 29.109l-3.021 4.278 5.286 8.56 8.559-7.803 22.15.251 1.511 7.3 7.049-16.362zM13.411 59.063l-1.259 9.818-2.266-4.785zM42.861 53.274l8.81 9.313-.503-6.04z"/><path fill="#cea39f" d="M12.654 64.852l14.098 7.049 21.647-12.838z"/><path fill="#fff" d="M18.696 65.86l20.641-3.524-13.089 7.048z"/><path d="M-18.054 27.599l35.24-1.762 1.762 3.774-32.219 1.26 2.013 11.578 28.444-.252 1.259 1.763-1.762 2.264-31.213.505-3.524-19.13zm91.122-4.279l.754 4.279-2.517 2.013-4.783 15.859-35.239.753-2.014-2.264 1.258-2.014 32.22-.252 4.28-14.096-38.766 1.51 1.763-3.776 43.044-2.012z" fill="#545657"/><path fill="#fef4f2" d="M18.948 29.612L16.18 52.016l16.109-1.007-4.027-21.9z"/><path fill="#46382d" d="M1.832 18.788l-4.279 2.015 19.634 5.035-1.511-3.526zM31.786 21.054l-1.762 4.279 22.907-6.545-5.537-2.013z"/><path d="M7.873 38.675c2.013 0 3.775-1.763 3.775-3.525-.251-2.014-1.763-3.523-4.027-3.523-2.014.251-3.775 1.761-3.523 3.774 0 1.764 1.761 3.274 3.775 3.274z" fill="#2b2b2b"/><path fill="#46382d" d="M88.925 61.582l-5.789-.757 7.3-23.409 8.809-1.762-1.507 9.313z"/><path fill="#46382d" d="M128.696 21.305l-13.089 21.9-18.122-2.769-15.711-13.014 11.681-4.606 24.92-4.782z"/><path fill="#6f7173" d="M97.485 40.184L71.306 29.612l1.762-6.292 26.177 12.334 1.261 3.524z"/><path fill="#cea39f" d="M102.77 72.657L88.925 61.582l7.804-.505 9.313 4.532z"/><path fill="#feeee9" d="M106.042 65.609l-17.117-4.027 10.32-25.928 16.362 7.551z"/><path fill="#cea39f" d="M102.77 43.456l6.043 2.518-10.574 9.062z"/><path fill="#5e5044" d="M99.748-28.03l-26.177 2.014 21.395 44.804 12.084 6.293 21.646-3.776z"/><path fill="#74665b" d="M64.006-12.172l9.816-14.348 10.574 5.285 22.654 46.316-25.276 2.341z"/><path fill="#5e5044" d="M33.548-24.757l16.362 8.558 14.096 4.027 20.39-9.063-20.642-17.871-21.144-.503-10.321 8.306z"/><path fill="#74665b" d="M59.727-45.903L42.61-39.609l41.786 18.374 15.352-6.795z"/><path fill="#5e5044" d="M-5.468-23.247l30.457-4.28L42.61-39.609l-13.34-5.287z"/><path fill="#74665b" d="M-2.698-15.948l-2.77-7.299L42.61-39.609l-9.062 14.852-18.124 11.326L3.342-9.152z"/><path fill="#5e5044" d="M-5.468-23.247l8.81 14.095-12.585 36.248-8.811-14.851z"/><path fill="#74665b" d="M6.111 9.475l-6.545 3.022L3.342-9.152l4.783-.502 1.258 2.263z"/><path fill="#5e5044" d="M33.548-24.757L9.383-7.391 3.342-9.152zM57.462-7.139l1.258-3.774 5.286-1.259 7.804 23.409-8.812-3.019z"/><path fill="#74665b" d="M33.548-24.757L57.462-7.139l6.544-5.033z"/><path d="M42.861 37.668c2.014 0 3.775-1.762 3.775-3.523-.251-2.015-2.014-3.524-4.026-3.524-2.014.252-3.776 1.761-3.524 3.775 0 1.762 1.762 3.272 3.775 3.272z" fill="#2b2b2b"/></svg>