<svg xmlns="http://www.w3.org/2000/svg" viewBox="-119.026 -47.298 400 400"><path fill="#5e5044" d="M8.84 20.546l9.974 39.184 2.494-14.249-2.137-37.046z"/><path fill="#369496" d="M139.216 117.081l7.123 3.206 9.262-13.536 2.494-14.962-14.606-11.042-12.467-1.425-9.973 2.494-4.632 6.768 3.205 20.304z"/><path fill="#5e5044" d="M140.995 58.305l-4.986-12.467-2.85 14.249 3.919 11.043z"/><path fill="#74665b" d="M123.897 84.666V55.455l4.276-24.578 5.342 23.866-.711 26.004-3.919 5.344z"/><path fill="#46382d" d="M109.648 92.146l1.069 13.893.714 3.917 8.191-1.068-1.068-20.304-4.274-20.661z"/><path fill="#5e5044" d="M111.075 106.039l3.205-33.841-9.974 21.017z"/><path fill="#46382d" d="M118.554 94.995l5.343-10.329 5.7 9.973-9.975 14.249z"/><path fill="#5e5044" d="M119.622 108.888l4.275-24.222-10.685-17.455 1.068 4.987z"/><path fill="#46382d" d="M116.417 58.662l-2.137 13.536 9.617 12.468V78.61l-2.138-29.922z"/><path fill="#1c7678" d="M112.144 181.911l.711 25.291 22.796-20.66 29.923-.713 10.33-12.822 3.563-16.387-8.193-.712-3.563 1.781-45.594 1.068z"/><path fill="#72cbcc" d="M164.15 194.023l3.561 4.631 19.236-37.045-2.848-2.852-6.056 1.068-12.469 26.004z"/><path fill="#369496" d="M163.794 124.205l-8.906 9.261-.711 10.331 13.534 13.892 10.332 2.136 3.205-21.727-3.205-13.893z"/><path fill="#8ce0dc" d="M186.591 120.998l-5.699-.711-2.849 3.918v35.62l8.904 1.784z"/><path fill="#1c7678" d="M158.095 91.789l-11.756 25.292.713 12.111 7.836 4.274 23.155-9.261-7.125-19.236z"/><path fill="#72cbcc" d="M162.368 83.597l-4.631 3.206.358 4.986 19.948 32.416 8.548-3.207z"/><path fill="#8ce0dc" d="M137.078 71.13l25.29 12.467-4.273 8.192-18.525-8.548-4.987-6.769z"/><path fill="#279db8" d="M46.599 101.052l-.356 5.699 8.193 8.192 9.617 3.562-1.424-11.398-14.249-7.48z"/><path fill="#318fa6" d="M66.903 106.394l-2.85 12.111 26.36-3.205 20.662-9.261-2.138-7.838-8.549-1.068z"/><path fill="#73cfe5" d="M62.272 97.845l-15.317-2.137-.356 5.344 14.249 6.055 3.205 11.398z"/><path fill="#5ec0d9" d="M69.397 96.42l-5.344 22.085 3.919-11.042 40.965-9.262-1.425-5.7z"/><path fill="#6d6e6e" d="M160.944 158.757l-19.591-1.068-18.524 5.344 8.904 22.085 16.032 10.329 19.946 3.207z"/><path fill="#318fa6" d="M146.339 117.081l17.098 32.415-21.372 5.701-16.742-1.426 4.987-17.455z"/><path fill="#73cfe5" d="M125.323 153.771l38.114-4.275 4.274 8.193-44.882 5.344z"/><path fill="#cea39f" d="M20.595 251.73l-11.398-4.987 6.055-4.275 2.85-2.85 1.069 2.495z"/><path fill="#efd0cb" d="M3.853 224.3l5.344 22.443 6.055-4.275-3.562-10.33z"/><path fill="#ffeee9" d="M20.952 218.958l-8.193-.713-8.906 6.055 11.399 18.168 3.919-.355 5.343-13.182z"/><path fill="#73cfe5" d="M3.497 218.245l.356 6.055 17.455-5.342 1.425-3.562-1.069-2.494-9.618-.711z"/><path fill="#318fa6" d="M.291 186.542l2.85 29.567 9.262-.358 9.261-2.849 2.85-15.672-4.987-13.537-16.03-5.344z"/><path fill="#73cfe5" d="M.291 186.542l3.918-6.412 15.318 3.563 1.068-1.424-1.781-3.92-9.974-6.412-9.617 2.494z"/><path fill="#6d6e6e" d="M9.553 150.565l-10.33 23.866 19.591 3.918 2.138-15.672-6.412-11.043z"/><path fill="#73cfe5" d="M2.429 145.222l12.823 9.26 3.919-4.273-1.069-3.919-3.918-6.412-6.412-1.068z"/><path fill="#318fa6" d="M30.926 111.738L7.772 138.81l10.33 7.48 8.549-12.467z"/><path fill="#50a9aa" d="M-15.026 189.036L-25 206.134l10.687 17.455 2.849-3.918-5.7-13.537 5.344-12.824z"/><path fill="#369496" d="M-11.82 193.31l-7.48 12.824 7.836 13.537 9.261-13.179z"/><path fill="#72cbcc" d="M6.703 201.503l-12.112 4.276-8.904 17.81 22.085-6.412 6.055-12.111z"/><path fill="#8ce0dc" d="M-5.409 205.779l19.236-.713-8.192-11.043-20.661-4.987z"/><path fill="#8fd4d5" d="M5.635 194.023l6.411 11.043-4.274 12.111 4.631-1.426 5.699-11.398-7.48-8.906z"/><path fill="#72cbcc" d="M20.952 192.954l-10.33 2.493 5.699 9.619-3.918 10.685 9.617-8.904 2.494-10.33z"/><path fill="#070908" fill-opacity=".149" d="M-16.451 335.083l87.985 17.455 86.916-19.236-14.961-2.492-69.462-11.399z"/><path fill="#545657" d="M-3.983 326.534v6.413l43.815-.713v-6.055l-28.498-3.205z"/><path fill="#454444" d="M13.471 310.861l-17.454 15.673 43.815-.355v-14.606l-4.988-3.562H17.746z"/><path fill="#545657" d="M14.896 296.257l-1.425 14.604 26.361.712 5.698-13.179-15.317-3.563z"/><path fill="#1c7678" d="M14.896 296.257l30.634 2.137 2.494-6.412-15.317-9.973-17.098 2.848z"/><path fill="#545657" d="M108.225 329.029l.355 6.767 34.554.713.355-5.699-17.811-3.563z"/><path fill="#454444" d="M112.144 317.63l-3.919 11.399 35.264 1.781-10.33-13.537-6.054-2.85-11.756.356z"/><path fill="#545657" d="M104.661 303.38l7.483 14.25 21.015-.357-11.755-16.03-9.26-1.425z"/><path fill="#1c7678" d="M105.019 284.857l-7.125 4.988 6.767 13.535 16.029-.711-1.068-8.906-2.85-8.193z"/><path fill="#3aa0ba" d="M40.9 220.382l-19.948-1.424-5.343 65.899 39.895 8.548 3.919-5.699.712-56.994z"/><path fill="#318fa6" d="M60.135 230.712l24.223 1.783 15.672 14.604 13.182 40.607-50.227 7.125-4.63-33.484z"/><path fill="#56bfda" d="M54.08 266.333l1.424 27.072 7.481 1.426-2.85-64.119-4.987 14.606z"/><path fill="#1c7678" d="M44.462 226.083l9.261-1.425 6.412 6.054-6.055 35.621-10.331-2.136-5.699-5.344z"/><path fill="#165e60" d="M39.832 265.622l-1.782-6.769 16.03 7.48 1.781 5.701z"/><path fill="#8fd4d5" d="M44.818 277.021l-5.699-6.768.713-4.631 6.767 2.85.712 3.918z"/><path fill="#165e60" d="M74.74 220.027l-8.905-5.7 17.098-4.273 6.412 5.697-.713 4.989z"/><path fill="#318fa6" d="M35.913 146.647l-20.661 7.835 7.125 47.377 14.249 9.263 13.535-1.425 4.275-30.991-3.206-22.441zM65.835 156.265l-6.056 21.373 6.056 36.689 17.811-2.494 17.097-9.259 14.961 2.136 7.125-41.677-33.841-9.62z"/><path fill="#3aa0ba" d="M66.903 130.26l-1.068 26.005 56.994 6.768 23.51-45.952-35.978-.713zM30.926 111.738l-15.674 42.744 29.21 1.783h6.768l6.055-27.073z"/><path fill="#73cfe5" d="M54.08 213.615l-3.919-3.918 1.069-52.721 3.206-27.072-23.51-18.166 7.124-2.137 12.824 5.342 11.755 12.824-2.138 33.127.357 36.691-2.85 14.606z"/><path fill="#5ec0d9" d="M61.204 214.683l4.631-.356v-58.062l2.85-6.413-.713-6.412 1.425-11.042 59.488-20.66-9.263-2.85-29.209 6.412-27.784 12.467-4.274 28.853-.357 55.571z"/><path fill="#1c7678" d="M20.952 218.958l1.425-17.099 27.784 7.838.713 8.906-6.412 7.48 15.673 4.629-.712-9.262 6.412-7.123 22.797 6.413-.356 9.261-1.068 8.905z"/><path fill="#8fd4d5" d="M88.632 220.74l6.412-2.137 7.48 13.892-15.316 6.411z"/><path fill="#6f7173" d="M97.538 256.361l30.635 61.269 11.754 2.492-1.425-15.316-20.659-54.502-4.631-3.918-9.619-.355z"/><path fill="#858686" d="M114.636 249.593l1.426 4.631 14.96 40.965 8.905 24.933 7.838-9.261-20.305-66.256-7.48.357z"/><path fill="#999" d="M92.195 245.318l15.673-9.618 16.029-2.849 1.069 3.56-2.137 2.495 3.563 1.781 1.068 3.918-29.922 11.756-1.782-3.563 1.069-2.849-2.849-.713z"/><path fill="#177a90" d="M114.636 220.382l-6.768 7.125 10.33 1.781 3.561-3.562-2.137-6.412z"/><path fill="#cececd" d="M72.603 251.372l7.836 3.207 2.137-5.699 50.583-19.949 4.988 2.852 2.493-8.194-18.881 2.137-11.398-1.781-14.605 7.48z"/><path fill="#165e60" d="M48.38 215.04l-2.137 5.7 9.974 4.986 3.918-8.906z"/><path fill="#8fd4d5" d="M50.161 209.697l-1.781 5.343 9.975 2.848-2.494 5.701-9.618-2.849-1.781 5.343 15.673 4.629 5.7-16.385z"/><path fill="#cececd" d="M147.765 310.861l-6.057 2.138-1.781 7.123-5.699-4.629-6.055 2.137 15.316 13.18z"/><path fill="#5ec0d9" d="M46.243 106.751l17.81 11.754.357 5.343-8.193-.711-18.167-13.536z"/><path fill="#1c7678" d="M18.814 178.349l19.236-16.385 4.987 8.194 2.137 11.398-22.797 20.303zM44.462 156.265l.712 12.467 5.7 7.838 7.124-9.62-1.069-6.767-5.699-3.918z"/><path fill="#8fd4d5" d="M38.05 161.964l6.412-5.699 6.412 20.305-5.7 4.986zM51.23 156.265l3.562 4.986 3.918.358 7.125-5.344z"/><path fill="#1c7678" d="M119.622 108.888l26.717 8.193-64.475 40.965-12.111-5.7-1.781-8.906z"/><path fill="#8fd4d5" d="M74.027 149.852l-2.493 4.276-5.699 2.137 2.137-12.825z"/><path fill="#cececd" d="M74.74 181.556l7.124-9.619 11.754 1.426-8.191 6.412z"/><path fill="#ababab" d="M85.782 190.818l-11.042-9.262 18.878-8.193-.354 13.892-3.206 3.205z"/><path fill="#6d6e6e" d="M89.345 206.847l-3.563-16.029 7.482-3.563 5.342 11.043-2.85 6.412z"/><path fill="#ffeee9" d="M121.759 225.726l-2.137-15.672-3.918-5.344-17.098-6.412.713 16.385 12.467 12.469z"/><path fill="#cea39f" d="M92.907 211.478l-3.562-4.631-5.699 4.986 4.986 8.907 4.986 1.781z"/><path fill="#318fa6" d="M128.173 189.392l-6.769 8.193.713 14.248 6.768 9.617 23.51-13.89 3.206-12.113z"/><path fill="#73cfe5" d="M121.404 197.585l7.481 23.865-7.126 4.276-6.055-21.016zM128.173 189.392l24.222 9.975v8.193l15.316-8.906-35.978-13.536z"/><path fill="#cececd" d="M60.135 176.925l-2.137 5.344-7.124-5.699 7.124-3.92z"/><path fill="#efd0cb" d="M89.345 206.847l9.261-8.549 13.18 28.854-16.03 4.273z"/><path fill="#73cfe5" d="M64.053 118.505l.357 4.632 7.836 1.425 47.376-15.674-8.547-2.849z"/><path fill="#cececd" d="M64.053 118.505l-7.836 4.632 6.412 4.63 3.562-4.275z"/><path fill="#74665b" d="M24.158-24.336L8.84 20.546l7.125-4.274 6.055-4.63L32.351-16.5z"/><path fill="#8e7e73" d="M57.285-37.516l-13.179 3.562-19.948 9.618 3.918 8.193 14.605-1.069 7.124-3.919 5.343-8.905z"/><path fill="#74665b" d="M96.825-21.842l-22.798-9.263-20.66-2.849-3.562 12.823 11.755 3.919 17.098 3.562 6.413-2.137z"/><path fill="#5e5044" d="M88.988 19.122L79.727 2.736 78.658-13.65l10.33-8.549 6.768 15.673 3.206 18.168-3.918 5.342z"/><path fill="#cea39f" d="M114.28 72.198l-2.136-16.386 1.423-2.494 3.918-1.781 3.205 1.425z"/><path fill="#5e5044" d="M123.897 84.666l4.276-53.789-5.7 13.536-1.783 8.549z"/><path fill="#ffeee9" d="M113.567 53.318l-2.492-12.111 2.492-8.548 5.344-4.276 9.262 2.494-7.483 22.085z"/><path fill="#5e5044" d="M66.547-47.134l-2.85 6.769-10.33 6.411-29.209 9.618z"/><path fill="#8e7e73" d="M109.293-26.117L84.001-37.16l-23.153-4.275-7.481 7.481 35.621 11.755 7.837.357z"/><path fill="#74665b" d="M109.293-26.117l-6.769-.712-41.676-14.606 5.699-5.699 32.415 9.618 18.881 8.193z"/><path fill="#8e7e73" d="M122.829-32.173l-3.918 3.919-6.412-1.425-45.952-17.455z"/><path fill="#74665b" d="M109.293 11.642l-1.781-19.593-4.988-18.878-13.536 4.63 7.481 32.771 7.124 2.138z"/><path fill="#5e5044" d="M112.499-29.679l-9.975 2.85 4.276 37.046 10.685 3.562 3.919-2.137-2.85-23.51z"/><path fill="#74665b" d="M130.31 12.354l-4.632.712-6.056-2.849-7.123-39.896 10.33-2.494 5.344 23.51z"/><path fill="#8e7e73" d="M139.57 11.997l-4.273 2.494-6.412-3.562-6.056-43.102z"/><path fill="#5e5044" d="M113.567 32.659l-12.466-6.769-4.632-15.318 10.331-.355 12.467 7.124 8.906 13.536z"/><path fill="#74665b" d="M119.622 10.217H106.8l21.373 20.66-3.207-13.893z"/><path fill="#5e5044" d="M128.885 10.929l-9.263-.712 8.551 20.66 3.205-9.974z"/><path fill="#74665b" d="M134.228 24.109l-5.343-13.18-.712 19.948 3.205 11.756 4.631 3.205z"/><path fill="#5e5044" d="M137.078 71.13l-1.069-25.292-7.836-14.961 4.631 49.87 4.63-2.85zM135.297 90.721l-6.056 17.811-5.344-23.866 8.907-3.919 2.493 2.85z"/><path fill="#74665b" d="M140.995 83.952l-3.917-12.822-4.274 9.617 4.63 19.948z"/><path fill="#cea39f" d="M37.694 85.021l9.261 12.112 8.906 3.562 8.192 17.81 6.769-18.523 17.81-3.562-8.548-11.042-36.69-3.562z"/><path fill="#efd0cb" d="M80.084 85.378l8.548 11.042 18.88-3.919 6.768-20.303-4.987-35.623-20.305-17.453-4.274 8.193-1.068 32.772-5.344 14.96z"/><path fill="#cea39f" d="M117.13 36.575l5.343-1.068-4.988 10.331z"/><path fill="#feeee9" d="M15.965 16.272l12.111-32.415 21.729-4.988 28.853 7.481 10.33 32.772V59.73L58.355 78.61l-28.854-.356L18.814 59.73z"/><path fill="#cea39f" d="M31.994 56.524l9.618-1.781 12.824 1.781 2.137 3.563-14.605-2.138-11.042 2.138z"/><path fill="#74665b" d="M113.567 32.659L96.469 10.572l-7.481 8.55 7.126 7.836 11.042 11.756 3.919 2.493z"/><path fill="#8b7a6e" d="M113.567 32.659l-6.411 6.055 1.069 24.222 6.055 9.262z"/><path fill="#74665b" d="M107.156 38.714l-18.168 18.88-11.042 16.029 2.138 11.755 18.878-11.4z"/><path d="M18.814 59.73l8.193 12.468V51.893l13.536-6.412 19.592 6.056 4.274 18.524 24.579-12.468-8.905 27.784-54.502-.357-6.767-25.29zm13.18 14.962l10.33-2.85 16.03 2.137-3.918-17.455-13.18-4.274-9.262 4.274v18.168z" fill="#8e7e73"/><path fill="#efd0cb" d="M27.364 22.684l-8.55-7.48 7.124-2.138 10.331 3.563 1.781 4.987.712 6.055-5.699 12.468zM45.174 21.616l2.137-4.987 9.262-3.563 13.18 1.425L58.71 23.04l-9.617 16.386-4.631-9.618z"/><path fill="#cea19c" d="M40.543 45.481l-7.48-5.342 7.837-2.138 8.193 1.425z"/><path fill="#fef4f2" d="M45.174 21.616l3.919 17.81-16.03.713 4.987-18.523z"/><path fill="#46382d" d="M34.844 12.71l1.425 3.919-17.455-1.425 3.206-3.562zM49.093 12.354l-1.782 4.275 22.442-2.138-4.274-3.919z"/><path d="M27.364 26.603c1.781 0 3.206-1.425 3.206-3.207 0-1.78-1.425-3.205-3.206-3.205-1.782 0-3.206 1.425-3.206 3.205 0 1.782 1.424 3.207 3.206 3.207zM57.998 26.958c2.137 0 3.562-1.78 3.562-3.562 0-1.78-1.424-3.205-3.562-3.205-1.781 0-3.206 1.425-3.206 3.205 0 1.782 1.425 3.562 3.206 3.562z" fill="#2b2b2b"/><path fill="#8b7a6e" d="M41.968 66.498l-6.412-3.918 14.605-.356z"/><path fill="#ababab" d="M72.246 124.562l-9.617 3.205.356-5.343 1.068-3.919zM65.835 176.925l-7.837-4.275-.713 4.275.713 5.344z"/><path d="M93.976 249.236l15.317-6.055 1.424 3.563-14.961 6.055-1.78-3.563zm19.947-8.192l11.043-4.633 1.426 4.275-11.043 4.275-1.426-3.917z" fill="#6d6e6e"/><path d="M87.208 238.906l24.578-11.754-16.03 4.273-2.138-8.904-4.986-1.781 7.124 10.686-8.548 7.48zM140.64 115.3l-21.018-6.412 7.482-10.686 2.137 10.331 6.056-17.811 2.137 9.974 3.561-16.743-.355 31.347zm-12.467 202.33l6.055-2.137 5.699 4.629 3.563 10.688-15.317-13.18zm-30.635-61.269l15.674 31.346-11.043 11.043-4.275-8.904 7.125-1.068L89.7 249.236l-7.124-.355-2.137 5.699-7.836-3.207 68.037-27.783-2.492 8.193-4.988-2.852-23.154 9.262 4.631 11.4-17.099 6.768zm-5.343-11.043l3.561 7.48 14.961-6.055-1.424-3.563-15.317 6.055-1.781-3.917zm-26.36-68.393l-14.961-.355 7.124 5.699 7.837-5.344zm-9.618-53.788l6.768-.713 9.261 2.138-9.617 3.205-6.412-4.63zm-44.171 81.929l10.331-3.207-.357 4.988-9.617 8.904-4.631 1.426-13.536 3.918 6.412-15.316-8.193-14.605 13.18 2.85 6.411 11.042zm86.56-6.768l17.098 6.412 16.029-19.592-8.904-22.086 38.115-4.275 1.069 7.48-39.185-3.205-24.222 35.266zM9.553 150.565l5.699 3.917 3.562 23.867-9.261-27.784zM54.08 266.333l1.781 5.701-1.425 4.273 5.699-3.918-1.781-7.125 1.781-34.553-6.055 35.622zm-8.55 32.061l-29.921-13.537 32.415 7.125-2.494 6.412z" fill="#2b2b2b" fill-opacity=".149"/><path fill="#6dcacb" d="M54.792 161.251l11.043-4.986-7.837 10.685zM74.027 149.852l-8.192 6.413 16.029 1.781zM46.599 268.472l-1.781 8.549 9.618-.713 1.425-4.274z"/><path fill="#5e5044" d="M136.009 45.838l-7.124-34.909 10.685 1.068z"/><path fill="#efd0cb" d="M22.02 50.469l8.549-9.262-2.137 6.412zM52.655 40.851l6.055 6.056 9.619 2.85zM29.501-.47l33.128-2.494L42.324.243z"/></svg>