<svg xmlns="http://www.w3.org/2000/svg" viewBox="0 0 400 400"><path opacity=".1" fill-rule="evenodd" clip-rule="evenodd" fill="#2c2b2b" d="M213.396 370.47l78.243 17.056-77.626 14.635-93.474-18.991z"/><path fill-rule="evenodd" clip-rule="evenodd" fill="#eecec9" d="M120.539 215.469l-2.435-6.627-10.23-6.154-1.82 11.593z"/><path fill-rule="evenodd" clip-rule="evenodd" fill="#454748" d="M246.616 381.96l10.518 4.18-.049 4.478-33.824.052-.024-4.864zM173.986 373.615l-21.827 7.383-.148 3.977 45.272.147-.167-3.939-22.256-6.409z"/><path fill-rule="evenodd" clip-rule="evenodd" fill="#686b6e" d="M243.083 356.207l-7.625 10.554-12.221 19.045 33.897.334-2.626-19.379zM188.275 351.829l-9.903 8.653-26.213 20.516 44.957.185 1.04-18.169z"/><path fill-rule="evenodd" clip-rule="evenodd" fill="#379fb9" d="M172.453 313.835l1.611 12.704h.001l18.621 11.544 13.028-10.469 5.533-29.864-9.342-9.556-5.48-7.922-20.977 3.59z"/><path fill-rule="evenodd" clip-rule="evenodd" fill="#318fa6" d="M174.064 326.539l4.308 33.943 9.817 1.257 9.967 1.275 7.558-35.4-31.649-1.075z"/><path opacity=".1" fill-rule="evenodd" clip-rule="evenodd" fill="#2c2b2b" d="M172.521 314.368l1.544 12.171 13.79-7.34-6.643-3.626z"/><path fill-rule="evenodd" clip-rule="evenodd" fill="#379fb9" d="M207.851 283.755l3.396 13.995 4.124 7.324-1.393 3.608 7.197 19.455 15.16 6.632 19.351-5.461.753-23.917z"/><path fill-rule="evenodd" clip-rule="evenodd" fill="#318fa6" d="M221.175 328.137l14.283 38.624h19.05l1.178-37.453z"/><path opacity=".1" fill-rule="evenodd" clip-rule="evenodd" fill="#2c2b2b" d="M255.687 329.308l.436-13.841-38.337 2.954z"/><path fill-rule="evenodd" clip-rule="evenodd" fill="#187779" d="M258.383 243.871l12.112 74.818-36.515-.104-7.912-.108 4.263-48.881z"/><path d="M260.482 256.838l1.55 9.572-15.983 2.637-4.854 22.345-3.036-21.043s8.158-13.809 7.803-14.199c-.358-.39 8.045.232 14.52.688z" fill-rule="evenodd" clip-rule="evenodd" fill="#066361"/><path d="M180.354 281.539l30.893 16.212s19.576-24.364 18.888-24.126c-.688.236-9.138-28.734-9.138-28.734s-42.414 15.497-42.474 14.803c-.062-.695 1.831 21.845 1.831 21.845z" fill-rule="evenodd" clip-rule="evenodd" fill="#318fa6"/><path fill-rule="evenodd" clip-rule="evenodd" fill="#5ebcbc" d="M235.044 266.415l6.386 3.143-.757 14.197 10.847 10.348-9.094.84 3.275 13.175-9.566-5.577 1.116 12.963-8.076-8.53-3.107 11.503-3.849-3.306.546-14.106-4.228-13.827 7.079-14.459z"/><path fill-rule="evenodd" clip-rule="evenodd" fill="#3da7a8" d="M240.673 283.755l13.177 10.132-2.102 4.223-9.322-3.167 7.399 13.615-4.302 3.588-9.388-9.605 3.921 13.404-6.076 2.64-4.805-11.611-3.107 11.503-8.282-.056 4.979-17.356z"/><path fill-rule="evenodd" clip-rule="evenodd" fill="#6cc9cb" d="M224.011 273.836l-4.183 4.441-8.581 19.473 2.731 10.932 8.787-7.617 3.702-23.853z"/><path d="M210.56 210.09c.659.547-23.187 22.068-23.187 22.068l10.021 30.827s29.624-2.486 29.5-10.614c.098-.531-.632-45.975-.632-45.975l-15.702 3.694z" fill-rule="evenodd" clip-rule="evenodd" fill="#454748"/><path fill-rule="evenodd" clip-rule="evenodd" fill="#686b6e" d="M191.961 217.383l6.999 7.915.073 37.994-22.082-4.126-1.454-38.627 10.052-15.388z"/><path fill-rule="evenodd" clip-rule="evenodd" fill="#eaeceb" d="M180.002 264.141l4.778-4.423 28.684-.537 13.481 7.002-45.401-.248z"/><path fill-rule="evenodd" clip-rule="evenodd" fill="#43a7a8" d="M160.696 220.241l-5.967-2.112-17.239-.914-3.368 10.911 4.971 14.836 28.82 7.347z"/><path d="M184.942 173.275l-11.625-3.955-4.89 6.277-13.698 42.532 13.185 32.18s12.613-21.31 12.641-22.576c.027-1.267 4.387-54.458 4.387-54.458z" fill-rule="evenodd" clip-rule="evenodd" fill="#187779"/><path fill-rule="evenodd" clip-rule="evenodd" fill="#198da5" d="M57.453 271.982l-5.638 16.041 27.167 2.744 27.386-25.753-44.606-6.332z"/><path fill-rule="evenodd" clip-rule="evenodd" fill="#249db9" d="M47.166 250.662L32.92 274.091l18.895 13.932 20.484-22.718-3.613-33.008z"/><path fill-rule="evenodd" clip-rule="evenodd" fill="#54c0db" d="M62.271 245.386l-19.485-19.342-13.973 17.429 4.107 30.618z"/><path fill-rule="evenodd" clip-rule="evenodd" fill="#70cde4" d="M112.32 209.878l-8.894-14.379-45.837-8.292-14.803 38.837 29.513 39.261 44.175 6.754 12.101-31.345-4.387-9.022-8.607-19.209z"/><path fill-rule="evenodd" clip-rule="evenodd" fill="#249db9" d="M90.526 233.749l10.05 17.731 11.448 2.532 3.31-15.831z"/><path fill-rule="evenodd" clip-rule="evenodd" fill="#198da5" d="M73.607 211.692l-3.448 18.47 10.896 16.462 19.521 4.856 14.758-13.299-10.196-19.577.476-1.817-4.021-4.99-4.673-8.97z"/><path fill-rule="evenodd" clip-rule="evenodd" fill="#eaeceb" d="M123.566 219.396l2.632-4.433 11.292 2.252 1.641 25.755-10.556-2.256z"/><path fill-rule="evenodd" clip-rule="evenodd" fill="#187779" d="M173.155 245.322l-5.242 4.987-1.804 69.102 21.746-.212-2.405-65.616z"/><path fill-rule="evenodd" clip-rule="evenodd" fill="#1f9294" d="M177.986 194.664l-4.669-25.344.915 39.445-2.569 6.015-3.75 35.529 17.761 9.392z"/><path fill-rule="evenodd" clip-rule="evenodd" fill="#187779" d="M256.509 186.354l2.25-15.621 7.489 4.856 18.978 40.843-17.19 20.579-18.939 2.401z"/><path d="M235.269 192.263l11.01-20.302 12.48-1.228-.197 65.223-27.628 17.73s-7.456-12.702-7.339-16.253 11.674-45.17 11.674-45.17z" fill-rule="evenodd" clip-rule="evenodd" fill="#1f9294"/><path fill-rule="evenodd" clip-rule="evenodd" fill="#eecec9" d="M215.136 256.958l-1.74 2.217 6.432 19.102 12.362 4.01 3.017-16.781-11.495-9.814z"/><path fill-rule="evenodd" clip-rule="evenodd" fill="#feeee9" d="M244.262 247.671l-7.047-5.804-8.333-.211-3.603 19.42 6.911 21.211 15.018-17.957z"/><path fill-rule="evenodd" clip-rule="evenodd" fill="#eaeceb" d="M258.383 243.871l-7.097-9.445-14.071 7.441 9.993 22.463 13.386-6.805z"/><path fill-rule="evenodd" clip-rule="evenodd" fill="#8fd4d4" d="M224.778 226.985l-4.691 6.862-18.57 9.181 11.879 16.147 11.883 1.901 5.655-7.389-.613-19.734z"/><path fill-rule="evenodd" clip-rule="evenodd" fill="#5ebcbc" d="M225.279 261.076l5.655-7.389-.613-19.734-1.871-2.353-8.363 2.247.449 3.483-.156 5.001-.467 3.969z"/><path fill-rule="evenodd" clip-rule="evenodd" fill="#dddddc" d="M184.593 178.86l-1.799 9.605 3.625 21.952 12.541 14.881 18.003-21.531 4.1-13.403-13.407-23.324z"/><path d="M200.721 184.454l-3.108 6.86-5.651 26.069s6.004 8.389 6.999 7.915c.994-.476 15.052-12.349 15.052-12.349l-7.641-21.636-5.651-6.859z" fill-rule="evenodd" clip-rule="evenodd" fill="#198da5"/><path fill-rule="evenodd" clip-rule="evenodd" fill="#808282" d="M178.128 198.913l4.666-10.448 16.166 36.833-18.237-10.344z"/><path fill-rule="evenodd" clip-rule="evenodd" fill="#53b2ac" d="M183.322 183.821l-.528 4.644 1.156 28.32-3.94 7.625-8.347-9.63 1.654-45.46 5.734-3.276z"/><path fill-rule="evenodd" clip-rule="evenodd" fill="#6cc9cb" d="M183.95 216.785l1.724 42.916-14.011-44.921z"/><path fill-rule="evenodd" clip-rule="evenodd" fill="#686b6e" d="M226.018 195.325l-4.955-4.961-22.103 34.934 29.656-14.143z"/><path fill-rule="evenodd" clip-rule="evenodd" fill="#53b2ac" d="M223.006 183.716l-1.943 6.648-.554 24.658h.001l8.236 1.231 12.008-5.098 18.005-40.422-9.069-5.064z"/><path fill-rule="evenodd" clip-rule="evenodd" fill="#6cc9cb" d="M220.509 215.022l-.422 18.825 10.234.106 10.433-22.798-20.244 3.867z"/><path fill-rule="evenodd" clip-rule="evenodd" fill="#249db9" d="M190.196 178.439l.145 2.956 7.271 9.919h8.76l9.811-13.93-14.085-11.926z"/><path fill-rule="evenodd" clip-rule="evenodd" fill="#eaeceb" d="M204.134 164.086l-1.707 10.156-19.633 14.223-3.743-22.421 6.169-10.817z"/><path fill-rule="evenodd" clip-rule="evenodd" fill="#efd1ca" d="M212.759 145.933l15.302 22.796 18.806-18.823 10.402-44.538-11.688-30.357-9.685-52.199-19.444 23.81z"/><path fill-rule="evenodd" clip-rule="evenodd" fill="#cea29c" d="M180.404 149.906l22.023 24.336 30.26-15.117-4.071-.641-7.553-7.448z"/><path fill-rule="evenodd" clip-rule="evenodd" fill="#cea19c" d="M248.453 99.553l-4.372 3.854 9.956 15.708 3.232-13.747z"/><path fill-rule="evenodd" clip-rule="evenodd" fill="#feeee9" d="M254.811 73.273l-7.944 4.715-2.786 25.419 13.188 1.961 6.724-26.078z"/><path fill-rule="evenodd" clip-rule="evenodd" fill="#a0a1a0" d="M250.417 56.25l16.744 10.734-3.168 12.306-17.126-1.302-1.288 9.099h-5.945l1.12-24.608z"/><path fill-rule="evenodd" clip-rule="evenodd" fill="#c2c1c2" d="M238.452 34.979l-1.072 5.11 3.374 22.39 26.407 4.505-3.168-26.895z"/><path fill-rule="evenodd" clip-rule="evenodd" fill="#cdcccb" d="M230.393 31.92l6.987 8.169h26.613l-16.11-14.077-37.993 5.7z"/><path d="M197.646 37.833l18.364-1.055 31.872-10.766-13.508-23.851s-34.188 13.737-34.405 14.987c-.219 1.249-2.323 20.685-2.323 20.685z" fill-rule="evenodd" clip-rule="evenodd" fill="#a0a1a0"/><path fill-rule="evenodd" clip-rule="evenodd" fill="#c2c1c2" d="M174.428 13.981l-6.331-10.976 66.277-.844-17.888 19.155z"/><path fill-rule="evenodd" clip-rule="evenodd" fill="#cdcccb" d="M148.15 39.732l-5.578-9.339 25.525-27.388 48.389 18.311-61.264 22.322z"/><path fill-rule="evenodd" clip-rule="evenodd" fill="#dddddc" d="M171.105 37.569l-16.042-4.222-12.491-2.954.776 36.409z"/><path fill-rule="evenodd" clip-rule="evenodd" fill="#feeeec" d="M143.348 66.802l1.477 27.757 17.811 58.301 58.427-1.824 6.455-33.643 2.875-85.473-13.907-10.604-45.208 14.24-16.215-2.209z"/><path fill-rule="evenodd" clip-rule="evenodd" fill="#eecec9" d="M174.309 123.109l-9.787 9.296 16.861.162 27.596-2.023zM158.977 65.274l-7.251 5.188 10.125 12.554 13.337 22.254 8.849 3.519 17.457-27.245 13.423-14.111-6.057-3.338-14.344 3.574-11.364 7.098-2.654 8.963-1.896-8.912-9.66-7.657z"/><path fill-rule="evenodd" clip-rule="evenodd" fill="#cea19c" d="M177.019 105.368l-4.363 3.774 6.899 4.541 4.482-4.894z"/><path fill-rule="evenodd" clip-rule="evenodd" fill="#a0a1a0" d="M194.517 67.669l11.557-5.19 8.843 4.954-9.313-.773zM168.942 67.161l-9.433-3.656-7.783 6.957 8.608-3.478z"/><path fill-rule="evenodd" clip-rule="evenodd" fill="#fef4f2" d="M178.602 74.818l-5.946 34.324 11.381-.353-.885-34.022z"/><path fill-rule="evenodd" clip-rule="evenodd" fill="#cea19c" d="M259.331 84.205l-6.124-.937-1.921 12.502z"/><path fill-rule="evenodd" clip-rule="evenodd" fill="#eaeceb" d="M247.55 147.092l-45.123 27.15 18.636 16.122 28.627-24.695z"/><path fill-rule="evenodd" clip-rule="evenodd" fill="#007072" d="M220.536 237.33l6.116.211-6.739 8.759-11.867-2.638z"/><path fill-rule="evenodd" clip-rule="evenodd" fill="#43a7a8" d="M285.226 216.432l-33.94 17.994 9.308 23.099 23.831-12.438z"/><path fill-rule="evenodd" clip-rule="evenodd" fill="#feeee9" d="M126.198 214.963l-8.094-6.121-16.511 2.955 3.545 6.807 12.091 1.003 11.346 21.107z"/><path fill-rule="evenodd" clip-rule="evenodd" fill="#07758a" d="M68.808 199.872l28.112 2.955-26.761 27.335-5.958-8.444z"/><path fill-rule="evenodd" clip-rule="evenodd" fill="#eecec9" d="M162.089 55.214l13.192.739 15.198-.951-15.726-.738zM180.699 51.331l11.359.549 13.93-.528-14.922-.701z"/><path d="M165.098 85.118c1.958 0 3.556-1.597 3.556-3.556s-1.597-3.556-3.556-3.556-3.556 1.598-3.556 3.556 1.597 3.556 3.556 3.556zM197.938 85.1c1.958 0 3.556-1.598 3.556-3.556 0-1.959-1.598-3.556-3.556-3.556-1.959 0-3.556 1.597-3.556 3.556 0 1.958 1.597 3.556 3.556 3.556z" fill-rule="evenodd" clip-rule="evenodd" fill="#2b2c2b"/><path fill-rule="evenodd" clip-rule="evenodd" fill="#adacac" d="M180.782 129.504l.141-.024 28.056 1.064-7.669-13.479-21.755-3.382-1.331 10.782z"/><path fill-rule="evenodd" clip-rule="evenodd" fill="#b4b5b6" d="M167.037 120.668l-2.515 11.737 16.26-2.901-1.227-15.821z"/></svg>