<svg xmlns="http://www.w3.org/2000/svg" viewBox="-115.733 -76.4 400 400"><path fill="#2b2b2b" fill-opacity=".102" d="M-51.945 297.169l103.063-23.184 106.311 23.625-104.687 25.841z"/><path fill="#6f7173" d="M96.446 306.765l-.146-4.725 8.564-1.328 12.994-1.181 7.826-10.483 5.463-1.33 2.362 4.578-10.926 14.026z"/><path fill="#454444" d="M108.112 279.007l-2.804 14.321 1.033 4.726 14.618 3.69 10.188-14.026-6.941-14.619-8.119-6.496-6.645 5.464z"/><path fill="#545657" d="M105.308 293.328l15.651 8.416-24.659.296z"/><path fill="#6f7173" d="M-22.857 294.804v-4.28l5.315-1.772 31.008-.592 5.168 2.364.147 4.575z"/><path fill="#454444" d="M2.097 271.181l-24.954 19.343h41.491l-.148-16.981-2.215-3.397-9.302-1.623z"/><path fill="#cea39f" d="M53.332 77.459l-4.577 3.396 2.658 5.02v7.382l9.154 18.014h5.612l13.879-12.403 1.033-9.892-14.322-12.257z"/><path fill="#5ec0d9" d="M31.48-61.78l-6.94 22.148 6.792 1.033L50.675-50.41l1.624-17.276-4.873-8.564z"/><path fill="#3aa0ba" d="M107.227-60.304L47.426-76.25l-3.691 24.067 2.953 4.431 50.349 14.026 14.323-.442z"/><path fill="#27788c" d="M155.657 2.302l-11.961-27.021-16.389 3.545-16.981 11.369 1.034 11.959 6.94 14.323zM-21.824-2.127l15.357 18.16 21.705 1.33 4.429-3.987.591-27.611-6.792-5.316z"/><path fill="#318fa6" d="M-21.824-2.127l37.357-3.84 2.953-13.879-1.772-5.611-7.382-5.168z"/><path fill="#efd0cb" d="M86.259 46.008L60.715 77.015l19.933 16.98 5.464-.738 9.006-7.973 2.363-7.235 17.424-33.371-2.215-11.664L90.393-4.047l-5.316 6.201z"/><path fill="#318fa6" d="M.915 98.868l-20.228 2.806-13.289-8.713 22.591-8.563z"/><path fill="#f2d1cc" d="M166.878 79.377l-4.725-1.181-6.939 4.431 8.416 20.819 5.463-1.181.148-4.282 3.1-11.518z"/><path fill="#cfa39e" d="M163.63 103.446l6.939 5.463 10.633-1.625 7.086-8.859-10.482-3.248-8.565 2.806z"/><path fill="#1c7578" d="M-7.944 227.032l25.101 11.369 8.712.738 32.484-5.61-.147-6.497-27.612-33.223-7.531 1.291-36.914 24.845z"/><path fill="#175e61" d="M-13.851 219.945l39.72 19.194-7.383 34.404-16.389-2.362z"/><path fill="#73cfe5" d="M-32.602 92.961l11.959-37.503 19.048-2.51 1.772 4.133-8.121 29.236-3.248 2.51z"/><path d="M-22.857 62.398l1.476-4.282 6.497-1.181-1.181 4.283-6.792 1.18zM-8.83 80.116l.148 2.953-1.329 1.33-8.269 1.477 1.181-4.282 8.269-1.478zm2.215-8.269l.443 3.101-1.624 1.181-8.269 1.476 1.033-4.282 8.417-1.476zm2.215-8.268l.59 2.953-1.772 1.329-8.417 1.328 1.182-4.134 8.417-1.476zm2.214-8.416l.886 3.69-2.067.59-8.416 1.478 1.181-4.282 8.416-1.476zm-23.329 15.651l1.329-4.282 7.087-1.329-1.181 4.282-7.235 1.329zm-2.658 8.416l1.33-4.282 7.53-1.328-1.182 4.281-7.678 1.329zm-2.657 8.269l1.329-4.282 7.973-1.33-1.034 4.282-8.268 1.33z" fill="#318fa6"/><path fill="#3aa0ba" d="M-1.595 52.948L13.17 63.726.915 98.868l-12.107-10.041z"/><path d="M12.137 66.68l-1.476 4.134-4.873-4.282 1.181-4.134 5.168 4.282zm-2.805 7.973l-1.477 4.134-4.578-3.985 1.329-4.282 4.726 4.133zm-2.806 7.974l-1.477 3.985-4.134-3.543 1.181-4.282 4.43 3.84zm-2.805 7.972l-1.329 3.987-3.839-3.248 1.181-4.282 3.987 3.543zm-13.732-6.201l1.034-4.135.147-.147 5.021 4.429-1.181 4.282-5.021-4.429zm3.396-12.551l-1.181 4.282 5.168 4.431 1.181-4.282-5.168-4.431zm2.215-8.268l-1.181 4.134 5.462 4.578 1.182-4.134-5.463-4.578zm2.214-8.416l-1.033 4.134 5.463 4.873 1.181-4.282-5.611-4.725z" fill="#27788c"/><path fill="#369496" d="M27.198 95.767l18.457-2.953-2.953 34.109 14.027 41.49-6.349 3.249-21.705-10.779-3.692-8.416-1.92-25.249z"/><path fill="#73cccc" d="M56.729 168.413l4.429 10.336-2.215 22-5.611 6.644-29.678-17.571 1.329-37.207z"/><path fill="#1c7578" d="M56.729 168.413l36.174-36.471 7.679-42.966 22.886 7.235 3.101 12.698-2.215 31.303-5.463 10.632-15.652 10.039-31.45 7.678z"/><path fill="#369496" d="M118.891 150.844l-3.693 45.033-5.166 4.872-50.35 10.041-6.35-3.397 3.397-38.98z"/><path fill="#cececd" d="M86.849 122.493l-13.878 21.115-20.229-2.659-3.987-27.315 6.201-6.498 9.008 1.33 15.503 4.133z"/><path fill="#318fa6" d="M63.668 116.44l-3.838 3.838-9.746 24.216 6.645 23.919 16.537-20.966-5.759-26.578z"/><path fill="#27788c" d="M56.286 112.748l3.544 7.53 7.677.591 5.907-6.498-1.92-4.871-7.53-1.034h-4.873z"/><path fill="#ececeb" d="M45.655 92.814l5.758-6.939 12.551 22.591 33.517-30.417 3.101 10.927-13.733 33.517-23.033-14.027-14.617 8.416-4.725-10.336z"/><path fill="#73cccc" d="M45.655 92.814l-9.303 35.88 20.377 39.719zM100.582 88.976l-2.952 46.953-40.901 32.484z"/><path fill="#165e60" d="M27.198 95.767l-31.155 39.128 2.805 4.282L17.6 150.99l7.383 1.625zM123.468 96.211l27.759 33.665 1.329 7.383-8.416 18.751-8.711 7.087-16.538-12.253z"/><path fill="#369496" d="M135.429 163.097l28.201-59.651 17.572 3.838-8.861 48.135zM-33.783 137.259l33.369 34.699 25.397-19.343-40.162-24.512-5.316.443-8.564 3.84z"/><path fill="#5ec0d9" d="M-25.072 106.546l-.886-9.154 11.222-2.067.885 1.623-2.805 10.336z"/><path fill="#3aa0ba" d="M-14.736 95.325l5.611 4.871-3.396 4.136-5.759 2.804z"/><path fill="#5ec0d9" d="M-15.179 128.103l-7.531 3.693 56.995 152.673 5.316 1.182 2.066-3.543z"/><path fill="#cfa39e" d="M-5.581 116.291l-6.94-11.959-1.92 3.69-1.329 8.269 1.476 3.987z"/><path fill="#e6e8e8" d="M207.335 54.424l-.295-12.108-9.154-8.563 3.396-19.196L196.114.382l11.959 11.075-1.033 18.9 6.939 9.745zM212.061 21.35l1.772-13.142-5.463-9.597 12.107 9.006z"/><path fill="#1c7578" d="M58.353 233.529l6.939-10.336 34.256-20.377 14.371 7.974-3.002 34.994-5.758 7.235-16.241 5.906-10.484-.295z"/><path fill="#165e60" d="M115.198 195.877l-1.279 14.913-55.566 22.739-35.29-38.429.591-5.278 29.678 17.571z"/><path fill="#175e61" d="M110.917 245.784l13.289 27.315-16.094 5.908-29.678-20.377z"/><path fill="#308fa6" d="M200.544 60.922l-34.848 10.039 1.182 8.416 35.734-8.563 2.362-5.907z"/><path fill="#5ebfd9" d="M207.335 59.002l-6.791 1.92 2.068 9.892 6.643-1.476z"/><path fill="#fff0ed" d="M166.878 79.377l2.363 18.606 19.047.442-1.771-23.772zM165.696 70.961l1.182 8.416-11.664 3.25 3.543-9.746zM165.696 70.961l7.973-12.255 8.271 7.531-8.713 8.711z"/><path fill="#054f52" d="M56.286 172.99l-4.873 4.282 4.134 5.168 4.873-4.429z"/><path fill="#f2d1cc" d="M-33.783 137.259V108.17l21.262-3.838-2.658 23.771z"/><path fill="#054f52" d="M54.661 192.481l-4.872 4.281 3.986 5.022 5.021-4.283z"/><path fill="#cea39f" d="M104.126 37.148l10.779 7.53 4.725-9.006-6.94-2.658z"/><path fill="#454444" d="M85.226-4.933l18.456 31.451L118.3 16.477l-1.623-23.772-3.25-7.53-27.906-5.759z"/><path fill="#318fa6" d="M111.36-34.168L91.87-22.799l-1.771 9.155 26.578 6.349 27.019-17.424z"/><path fill="#72cbcc" d="M38.567-45.243l5.168-6.94 67.625 18.015-8.416 3.839-62.901 2.215-3.691-3.545z"/><path fill="#8ce0dc" d="M21.882-31.069l3.248 3.25 14.913-.295 3.692-24.069L24.54-39.632z"/><path fill="#27788c" d="M9.332-30.625l102.028-3.543-21.261 20.524-8.417 4.873-60.538 5.757-5.611-2.953z"/><path fill="#ffeee9" d="M14.795 50.732L37.829 81.15l26.726-.887 25.838-33.221-.294-60.686-74.566 7.677z"/><path fill="#efd0cb" d="M19.667 12.344l3.396-5.612 14.471 3.543 3.543 5.317-.295 9.597-5.907 6.644-6.348-15.061zM47.131 14.852l-1.476 9.597 3.691 6.645 9.597-15.061 11.813-6.644-5.168-4.871-15.799 5.905z"/><path fill="#cea39f" d="M40.339 29.323l-5.464 2.51 7.679 6.791 6.792-7.53z"/><path fill="#fff5f3" d="M40.634 14.852l-5.759 16.981 14.471-.739-2.215-16.242z"/><path fill="#454444" d="M22.326 4.813l-4.873 6.349 2.214 1.182 3.396-3.397 14.471 1.328-2.363-3.986zM52.594 5.994l-2.805 4.429 16.242-4.134 4.725 3.1 2.953-1.623-6.94-4.726z"/><path d="M28.527 13.376c1.875 0 3.396 1.521 3.396 3.396 0 1.876-1.521 3.397-3.396 3.397s-3.396-1.521-3.396-3.397c-.001-1.875 1.52-3.396 3.396-3.396zM60.715 12.195c1.875 0 3.396 1.521 3.396 3.396 0 1.876-1.521 3.397-3.396 3.397s-3.396-1.521-3.396-3.397c0-1.875 1.521-3.396 3.396-3.396z" fill="#2b2b2b"/><path fill="#efd0cb" d="M37.091-2.127L43.292.087l17.423-8.121-18.456 5.907zM17.748 17.953l-2.51 3.692 7.088-2.657zM68.688 17.953l9.008 2.511-3.544-4.135zM31.48 33.753L20.701 47.042 24.54 36.41zM53.775 32.277l18.457 8.858-8.564-7.973z"/><path fill="#cea39f" d="M25.574 46.008l44.148-3.692-15.504 15.356-15.06 1.181z"/><path fill="#fff" d="M31.923 47.78l30.859-2.511-5.906 5.316L36.5 52.209z"/><path fill="#ffeee9" d="M118.3 16.477l-14.912-.444.738 20.524 15.504-.885z"/><path fill="#cea39f" d="M108.851 21.055l5.906.146-5.463 9.451z"/><path fill="#27788c" d="M14.056 303.222l-1.329-3.839 10.484-4.284 33.813-9.743 12.994-2.216 1.033 4.134z"/><path fill="#3aa0ba" d="M12.727 299.383l57.291-16.243-28.351-1.032-7.382 2.361z"/></svg>