<svg xmlns="http://www.w3.org/2000/svg" viewBox="-116.624 -47.298 400 400"><path fill="#369496" d="M148.864 295.799v-8.416l29.967 31.65-14.814 12.121-5.725-3.704z"/><path fill="#070908" fill-opacity=".149" d="M-4.334 335.867l21.212-2.357 4.04.337 67.341-6.06 75.758 3.367 28.281 3.704-101.01 17.172z"/><path fill="#318fa6" d="M119.908-15.311l-4.714-2.694-1.01-2.357 2.02-5.387 5.387-1.347 5.724 12.795z"/><path fill="#6dcacb" d="M10.144 205.228l8.754-7.407 2.357-3.704-7.744-31.314z"/><path fill="#318fa6" d="M-.293 53.376l12.793-1.01 2.694-3.367-1.347-9.428-2.693-3.367-4.377.337-8.081 12.121z"/><path fill="#cea39f" d="M41.12 104.891l8.754 7.071 3.704 7.07 8.081 5.724 21.548-11.11.675-4.041-3.368-12.121-14.477 2.02-22.223 2.02z"/><path fill="#cececd" d="M62.669 168.191l-3.367-3.367-12.795 1.347-9.764.672-4.714 3.704-2.02 3.704 2.694 15.489 31.313.336v-18.519z"/><path fill="#007489" d="M32.703 190.749l1.683-2.693 27.273.337-6.06 5.388-21.886 5.048z"/><path fill="#50a9aa" d="M126.644 222.737l37.373 108.417-22.897 2.019-5.725-3.366-9.425-81.483z"/><path fill="#369496" d="M109.134 343.612l-2.694-13.805 14.477-100 5.727-7.07 14.476 110.436z"/><path fill="#1c7678" d="M69.403 333.173l39.731 10.439 17.51-120.875h-15.827l-52.189 7.07 5.388 96.633z"/><path fill="#369496" d="M41.12 321.052l.674 17.172 27.609-5.051L62.332 232.5l-4.376 2.694z"/><path fill="#1c7678" d="M26.979 226.104l8.081 60.605-.674 17.171 3.03 26.264 4.378 8.08L62.332 232.5l-8.081-5.051-19.191-3.03z"/><path fill="#369496" d="M20.918 333.847l20.876 4.377-6.734-51.515z"/><path fill="#3aa0ba" d="M17.551 234.184l-.673 99.326 4.04.337 6.061-107.743-4.377-2.696z"/><path fill="#369496" d="M114.184 207.584l-9.763-1.346-40.405 20.202-18.855-21.549-15.152 4.04-3.704 11.111 1.011 6.398 35.016 6.06 64.312-9.763z"/><path fill="#27788c" d="M33.04 212.635l10.774 9.428-2.02-14.142z"/><path fill="#005557" d="M49.538 219.368L62.332 232.5l-4.713-20.202z"/><path fill="#369496" d="M27.989 168.863l-3.031-3.703-8.754-4.04-2.693 1.683 5.724 36.7 4.377 2.694 6.734-1.346 1.683-4.378zM102.063 162.803l-7.408-3.03-19.191 2.693-5.387 4.714-2.02 19.528 3.703 2.695 21.885-6.398 8.756-14.814z"/><path fill="#50a9aa" d="M71.76 228.123l-5.051-5.386-9.427-27.274.674-6.06 33.67-8.754 7.07 3.029 10.102 12.122 5.386 11.784z"/><path fill="#ececeb" d="M34.723 151.018l5.051-4.713 4.713-5.724 11.449-5.724 2.692.337 7.072-.337 6.397 5.724 1.346 4.377 2.021 3.03-7.744 15.825-5.051 4.378-30.64 2.356-3.03-3.704z"/><path fill="#73cfe5" d="M59.639 138.223l-5.724 12.122-2.694 3.367-11.111-.673 15.489-15.825z"/><path fill="#4ba6be" d="M66.709 154.05l-15.488-.338 6.735-14.478.672-2.02h2.694z"/><path fill="#ececeb" d="M49.874 111.962l-2.356 10.437 2.02 5.387 11.111 7.745 1.347-2.357.336-10.101-2.356-2.694z"/><path fill="#a0a1a0" d="M121.255 89.74l-22.897 12.12-4.039-5.387 3.367-26.6 13.805-5.386 5.051 3.367z"/><path fill="#b3b2b3" d="M124.286 46.978l-7.744 20.876-14.479 5.388-4.714 1.346.673-19.529 21.213-11.447z"/><path fill="#efd0cb" d="M61.996 103.544l16.162-1.01-18.182 17.845H65.7l30.639-14.814 2.019-3.705 3.705-28.955-6.734-14.479V41.928l-8.418-17.845-1.683-3.704-4.714-.336-3.703 5.051-1.347 58.921L62.332 96.81z"/><path fill="#cececd" d="M59.976 120.379l-1.348 15.488 22.223-7.07 1.347-3.367 3.367-3.704.337-9.764-3.031-2.694z"/><path fill="#4ba6be" d="M58.965 135.194l13.468 11.447 5.725-4.04 5.724-14.141-1.684-3.03z"/><path fill="#73cfe5" d="M37.08 141.592l2.694 4.713 19.191-10.774-11.447-13.132-4.714 4.04z"/><path fill="#50a9aa" d="M31.693 128.797l8.754-3.704-.673 8.754-11.112 30.303-4.713 3.03-10.438-4.377zM104.421 118.695l-4.378-1.682-6.733 5.049-6.399 5.724-15.825 34.344 1.011 4.713 29.966-4.04 5.724-1.683 13.468-22.56v-8.417z"/><path fill="#cdcccb" d="M100.043 40.918l-2.021 18.181 26.264-12.121 8.08-20.875-19.193 2.694z"/><path fill="#cea19c" d="M102.063 73.242L89.941 63.14l4.378-.674 5.387.337 3.367 2.358z"/><path fill="#feeee9" d="M89.941 63.14l.337-13.132 2.358-5.049 7.407-4.041h6.397l-3.367 24.243z"/><path fill="#cea19c" d="M95.329 58.763v-9.277l6.734-.4z"/><path fill="#43a7a8" d="M94.651 63.865l4.857-3.797 3.565 5.093-4.021 4.712z"/><path fill="#b3b2b3" d="M132.366 26.103L90.278 50.008l-9.764-29.965 12.459-2.358 29.965 3.703z"/><path fill="#cdcccb" d="M108.798 2.197l23.568 23.906-51.852-6.06.337-5.725L101.39 1.86z"/><path fill="#b3b2b3" d="M60.312 8.258v4.378l13.131 9.089 7.071-1.682 28.284-17.846-4.377-3.704H69.74l-9.091 5.388z"/><path fill="#ffeee9" d="M11.154 36.204l5.05 58.922 14.479 10.102 31.313-1.684 17.845-15.825.673-67.676L60.649 8.595h-5.05L21.928 22.736z"/><path fill="#3aa0ba" d="M-25.546 37.55L-.293 53.376l11.784-14.142 11.784-14.14-.673-3.706-9.765-11.11-3.703-.674-16.162 3.368-15.488 15.825z"/><path fill="#318fa6" d="M71.086-14.638l3.367 13.131-3.03 5.388-48.148 21.213L9.134 9.604l3.03-7.407L42.13-10.598l18.519-5.723 6.734.337z"/><path fill="#3aa0ba" d="M71.086-18.342l-3.703 2.358 4.04 19.865 37.375-1.684 18.517-16.498-13.131-6.061-10.437-3.366z"/><path fill="#5ec0d9" d="M-24.873 7.585l-.673 29.965L2.399 10.951l6.735-1.347 3.03-7.407-4.04-9.427-5.051-2.021-9.091.337z"/><path fill="#3aa0ba" d="M7.114-16.321l-4.041 7.07L9.134 9.604 42.467-9.925l24.916-6.059-17.845-.674-3.031-10.101-6.733-4.713-14.142 3.03z"/><path fill="#369496" d="M3.41 3.207l-1.347 8.081 7.408 2.357 11.447-6.397V-.496l-7.744-1.347z"/><path fill="#1c7678" d="M36.069-13.628l-3.703 7.744 3.367 3.03 3.704-1.009 3.03-6.062-2.02-3.366z"/><path fill="#5ec0d9" d="M45.161-38.207l-5.387 6.735 5.05 13.804 4.714 1.01 11.784.337 6.061.337 28.62-3.704 5.387-8.754-3.368-16.836-21.885 1.348z"/><path fill="#369496" d="M94.319-27.769h5.051l4.713.673-.336 4.713-5.389 3.705-5.385-.673.337-4.04z"/><path fill="#1c7678" d="M106.103-34.504l-6.733 6.735 4.377 5.386 5.387-1.008 1.011-5.388z"/><path fill="#369496" d="M107.787-17.331l-4.04-5.052 6.061-4.376 2.356 1.01 2.693 3.703-.673 1.684zM77.821-27.096l-5.388 6.061 3.031 4.04 3.367-.336 4.376-.674 1.011-4.041z"/><path fill="#369496" d="M88.595-29.79l-5.051 7.071 1.348 4.714 4.039-.337 4.042-.673.337-4.376.335-4.714z"/><path fill="#1c7678" d="M78.831-17.331l5.725 4.714 6.058-4.378-7.07-5.724z"/><path fill="#369496" d="M52.231-19.688l9.091 3.367-3.366 6.733-8.755-4.04z"/><path fill="#3aa0ba" d="M98.022-45.278l17.509 6.734-2.02 4.04-7.408 2.358-6.397-4.714z"/><path fill="#73cfe5" d="M3.41-28.779L-24.873 7.585l64.647-39.057-13.469-2.358z"/><path fill="#73cfe5" d="M39.1-46.625l-2.357 7.408 3.031 7.745 58.248-13.806z"/><path fill="#5ec0d9" d="M3.41-28.779L39.1-46.625l.674 15.153z"/><path fill="#8ce0dc" d="M-.293 2.197l11.447 3.03v-9.764L3.073-9.251z"/><path fill="#72cbcc" d="M12.5 17.348L11.154 5.227l7.407 1.684 4.377-2.356 3.03 3.703-2.693 16.836zM23.275-8.24l1.683 10.1 8.755 8.081 5.724-13.804zM38.763-18.678l1.011-12.794 15.825 9.763-4.378 7.408.674 5.724-4.714 1.347z"/><path fill="#72cbcc" d="M64.689-7.23l-3.704-4.377-4.04.337-5.724-3.031.674 10.775 5.387 9.09zM64.353-25.412l-.674 12.458 6.061 8.417 9.091-12.794zM93.31-23.391l10.437 9.763-8.755 11.111-3.03-10.437zM90.952-34.504l7.07-10.774 8.081 13.132-12.793 8.755zM114.184-20.362l-2.02-11.11 3.367-7.072 6.06 11.448z"/><path d="M58.965 36.541L46.17 43.948l-5.05 7.744-1.346 6.06 4.376 11.449 9.765-19.865L70.749 37.55l-11.784-1.009zm-23.232 2.693l.673 8.081 1.347-2.02-2.02-6.061zM20.245 42.264l10.438 3.704 4.04 6.398 1.683 6.397-4.04 11.11-7.071-15.487-10.437-11.448z" fill="#efd0cb"/><path fill="#6d6e6e" d="M20.245 40.581l-5.387 2.357 5.387.337 10.438 2.693-2.694-4.377zM48.864 38.897l-2.694 5.051 13.132-6.061 11.447-.337-11.784-2.693z"/><path fill="#cea39f" d="M38.426 75.598l-6.06-5.725 5.724-2.693 6.06 2.021z"/><path fill="#fef4f2" d="M34.723 52.366l-2.357 17.507 11.784-.672-3.03-17.509z"/><path d="M23.949 50.682c1.684 0 3.03 1.01 3.03 2.694 0 1.346-1.011 3.03-2.694 3.03-1.684 0-2.693-1.011-3.03-2.695 0-1.345 1.347-2.692 2.694-3.029zM53.915 48.662c1.684-.337 3.367 1.009 3.367 2.693 0 1.684-1.346 3.367-3.03 3.367-1.684 0-3.03-1.011-3.03-2.693-.001-1.684 1.346-3.367 2.693-3.367z" fill="#2b2b2b"/><path fill="#43a7a8" d="M29.336 87.719l9.764-4.04 18.182 3.03-16.498 1.01z"/><path fill="#6dcacb" d="M40.784 90.749l-11.448-3.03 10.438-1.01h17.508z"/><path fill="#72cbcc" d="M121.255 130.143l-29.629 50.506 22.558 26.935 24.917-48.148zM3.41-9.251l7.744 14.478 3.03-11.784z"/><path fill="#8ce0dc" d="M23.275 25.094L11.154 5.227 8.46 20.379zM23.275-8.24L33.713 9.941l-15.152-3.03zM39.774-31.472L47.181-7.23l-15.488-8.754zM57.282 5.564l-6.061-19.865-4.04 7.071-3.367 6.397zM64.353-25.412L69.74-4.537 64.689-7.23l-7.744-4.04zM93.31-23.391l1.682 20.874-10.436-10.1zM83.882-36.186l9.428 12.795 4.712-21.887zM115.531-38.544l-1.347 18.182-8.081-11.784z"/><path fill="#1c7678" d="M93.31 122.062l-19.867 44.444L71.76 185.7l-10.101 2.693 1.01-20.202 19.529-42.761 2.694-2.694 5.722-2.694z"/><path fill="#165e60" d="M104.421 118.695l-2.693-7.407-10.102 1.01-9.092 5.724-.336 7.408z"/><path fill="#369496" d="M82.871 109.268l-.337 8.754 6.397 2.02 3.705-5.724 6.396 1.684 2.696-4.714-3.37-9.428z"/><path fill="#1c7678" d="M-2.314 11.288l-1.01 5.388 5.387-.337v-5.051zM40.447 125.093L23.949 167.18l4.377 27.609 7.743.337-4.04-24.579 15.489-48.148z"/><path fill="#3aa0ba" d="M49.201 191.759l-13.132 3.367-1.009 3.368 3.03 10.774 2.357 1.682 3.367 11.113 13.131-6.062 1.011-5.386-4.714-15.152z"/><path fill="#27788c" d="M58.965 133.174l-5.387 2.357 4.378 3.703 6.397-4.04z"/><path fill="#318fa6" d="M53.578 135.531l10.775-.337-5.388-4.041z"/><path fill="#1c7678" d="M49.201 191.759l8.755-2.356 13.804 38.72-9.428 4.377z"/><path d="M17.551 234.184l8.754 6.061 1.011-13.805-4.041.673.673 4.714-6.397 2.357zm44.108-45.791L71.76 185.7l1.683-19.193-10.774 1.685-1.01 20.201zm-37.71-21.213l8.081 3.367 4.04 24.579-1.683 1.684-3.704-.674-2.357-1.347-4.377-27.609zm48.484-20.539l-9.764 21.549-18.855 1.347 2.02 18.519H34.723l-2.694-17.509 11.785-1.01 7.407-15.825 15.488.338-5.387-16.836M108.798 2.197L60.312 8.595l11.111-4.714 37.375-1.684zm.336 341.415l-39.73-10.439L62.332 232.5l46.802 111.112zm17.51-120.875l-29.969-6.735 17.509-8.417 12.46 15.152z" fill="#2b2b2b" fill-opacity=".102"/><path fill="#a0a1a0" d="M27.316 226.44l-4.041.673-2.693-2.694-1.01-11.11 13.468-.674z"/><path fill="#c2c1c2" d="M4.42 227.113l13.131 7.071 6.398-2.358-2.694-16.498-7.744-1.682-5.724 5.385z"/><path fill="#dddddc" d="M4.757 212.972l-.337 14.141 16.835-11.785 2.694-6.06-2.357-11.784-3.031-3.703z"/><path fill="#cdcccb" d="M36.069 195.126l-17.508-1.345 2.694 21.547 19.192-4.378z"/><path d="M44.15 69.201l13.805 4.713 4.041 11.449-6.397-9.765-11.449-6.397zM39.1 83.679l1.684-4.04-2.357-4.04.673 8.08zm19.865-30.64l11.111 1.683-5.051 1.684-6.06-3.367zm-42.087 6.734l-3.704-1.684 7.744-2.02-4.04 3.704zm6.734 27.609l2.693-10.1 6.061-7.409-8.417 6.062-.337 11.447z" fill="#efd0cb"/></svg>