<svg xmlns="http://www.w3.org/2000/svg" viewBox="-137.681 -76.4 400 400"><path fill="#2b2b2b" fill-opacity=".102" d="M-22.77 306.744l94.814 16.207 90.762-18.64-91.573-16.207z"/><path fill="#ffeee9" d="M58.267 87.944l-10.535-9.725-2.431 8.914 4.863 28.364H60.698l28.363-33.226-1.62-8.104z"/><path fill="#369496" d="M-5.752 190.051l19.449 5.671-4.052-10.534-12.155-11.344-8.914-2.433z"/><path fill="#165e60" d="M40.439 292.967l-4.052-8.914-5.672 8.104v13.775z"/><path fill="none" d="M137.683 12.581L55.026 113.876M-8.183 6.907l78.606-54.293M28.284-66.026L8.024-4.438"/><path fill="#165e60" d="M-1.7 305.932h23.501v-12.154l-9.725-4.053z"/><path fill="#1c7678" d="M16.938 280.812l-4.862 8.913 9.725 16.207h8.914l5.672-21.879-9.724-4.862z"/><path fill="#165e60" d="M102.837 284.863l-6.482 10.535 8.103 14.587 2.432-17.018z"/><path fill="#165e60" d="M136.873 309.174l-32.415.811 10.534-16.207 9.725-1.621z"/><path fill="#1c7678" d="M110.941 280.001l-8.104 4.862 1.621 25.122 20.259-17.828-4.052-9.725z"/><path fill="#3aa0ba" d="M21.801 269.467l-4.863 4.05v7.295l19.449 3.241 2.431-11.345-4.051-3.241zM102.026 269.467l-3.241 4.862 4.052 10.534 17.828-2.431v-8.103l-4.051-4.862z"/><path fill="#1c7678" d="M16.938 190.86l-3.241 4.862-25.121-24.311 7.293-14.586 20.259-8.104z"/><path fill="#369496" d="M22.611 102.531l-1.621-6.483-22.69 55.915 6.483.81 10.535-4.052z"/><path fill="#1c7678" d="M33.146 87.944L20.99 96.048l-8.914 50.243v3.241l28.363-11.345-4.862-17.828 4.862-5.674-.81-21.069zM12.076 149.532l4.862 123.985 103.727.812-1.62-81.848-8.913 2.432-4.053 5.672.811-4.051-5.673 1.62-22.691-9.725-2.431-12.965-36.466-6.483 3.241-20.26-2.431-10.534z"/><path fill="#1c7678" d="M120.665 116.306l3.242-18.637-21.07-13.778-12.154 4.863-23.502 31.605-6.483-4.862h-6.483l-4.862 8.913 4.052 21.069 6.483 4.053 12.965 15.396 34.037-11.345z"/><path fill="#ffeee9" d="M59.888 149.532v18.638l11.345-3.242 2.432-4.862-10.536-11.345z"/><path fill="#165e60" d="M76.095 175.464l-.81 4.051.81 13.777 31.605 11.345-2.431-5.673-21.88-22.691z"/><path fill="#8ce0dc" d="M33.956 124.41l-2.431-1.621 5.673-11.345-4.863-5.672 4.863-8.915-4.052-8.913 14.586-9.725 6.483 37.278-3.241 4.862z"/><path fill="#3aa0ba" d="M-37.356 166.549l71.312-29.173 3.242 1.621-2.431 6.482-69.692 27.553-3.241-2.431z"/><path fill="none" d="M47.732 78.219l17.019 98.866"/><path fill="#5ec0d9" d="M33.956 124.41l-1.621 4.862 4.052 22.691 26.742 12.156-8.103-41.33-2.431-4.051H42.87z"/><path fill="#3aa0ba" d="M32.335 129.272l10.535-7.292 12.156.809-.811-7.292H42.06l-10.535 7.292z"/><path fill="#369496" d="M104.458 148.721l-16.207 5.673-7.293 12.966 1.619 12.966 25.123 24.311 17.828-20.26v-11.345l-14.587-22.69z"/><path fill="#1f6769" d="M123.907 97.669l26.741 57.535-25.12 29.173-21.07-35.656z"/><path fill="#8ce0dc" d="M67.181 126.031l10.536-4.862.809-10.534 11.346-4.053V95.237l12.965-11.346-15.396-9.724-33.226 41.33z"/><path fill="#cea39f" d="M41.25 69.305l18.638 28.364 22.689-33.226H46.112z"/><path fill="#efd0cb" d="M64.751 68.495h10.534L59.888 97.669l27.553-23.502 23.5-29.172.81-11.345L94.733-7.679h-7.292L84.2-3.627l-1.623 38.898-19.448 29.172z"/><path fill="#cea39f" d="M110.941 44.995L97.165 29.597l5.672-2.43 8.104 4.863z"/><path fill="#ffeee9" d="M96.355 12.581l.81 17.016h7.293l-.809-12.154z"/><path fill="#a09160" d="M14.507 33.65l-3.241 4.862L-8.183 6.907-.89-5.247l8.914.809 4.052 4.053z"/><path fill="#c1b274" d="M1.542-43.336L-8.183 6.907 8.024-4.438l6.483-9.724L20.99-32.8l-2.431-4.862-5.672-9.724z"/><path fill="#e2d086" d="M28.284-66.026L1.542-43.336l17.017 5.674 10.535-10.536z"/><path fill="#fff7ae" d="M70.423-47.386l-21.07 8.103L20.99-32.8l-2.431-4.862 9.725-28.364 56.725-9.724-.809 13.777z"/><path fill="#e2d086" d="M97.976-47.386H70.423L85.009-75.75l30.795 19.448z"/><path fill="#c1b274" d="M137.683 12.581l-12.155-4.053L81.769-31.99 70.423-47.386l45.381-8.916z"/><path fill="#e2d086" d="M18.559-37.662l51.864-9.724-9.725 9.724L18.559-8.489 8.024-4.438z"/><path fill="#ffeee9" d="M11.266 38.512l15.397 30.793 38.088-.81 21.068-31.603 1.622-44.571-9.724-3.242-59.158 2.432L8.024-4.438z"/><path fill="#c1b274" d="M60.698-6.868l26.743-.811 2.431-4.862-8.103-19.449-11.346-15.396-12.156 34.035z"/><path fill="#fff7ae" d="M8.024-4.438l39.708-1.62 8.104-5.672 14.587-35.656z"/><path fill="#e2d086" d="M47.732-6.058l12.966-.81 9.725-40.518zM110.941 44.995L70.423-47.386l67.26 59.967z"/><path d="M12.887 3.666c-.811 0 7.293-4.862 7.293-4.862l12.966 5.673 3.241 5.672v8.915l-2.431 9.724-9.724-19.449-11.345-5.673zM42.87 10.149l-2.431 8.915 2.431 9.724 12.156-18.639 13.776-8.913-6.483-2.433-15.397 5.674z" fill="#efd0cb"/><path fill="#a09160" d="M31.525 1.236l1.621 3.241L20.18.425l-7.293 3.241 7.293-6.483zM49.353-.385l-2.431 4.862L61.509-.385l7.293 1.621-7.293-4.053z"/><path d="M24.232 6.447c2.044 0 3.701 1.657 3.701 3.701 0 2.045-1.657 3.702-3.701 3.702s-3.702-1.657-3.702-3.702c0-2.044 1.658-3.701 3.702-3.701zM55.836 6.447c2.044 0 3.701 1.657 3.701 3.701 0 2.045-1.657 3.702-3.701 3.702s-3.702-1.657-3.702-3.702c.001-2.044 1.658-3.701 3.702-3.701z" fill="#2b2b2b"/><path fill="#cea39f" d="M38.008 34.46l-4.052-5.672 4.052-2.432 4.862 2.432z"/><path fill="#fff5f3" d="M36.387 10.149h6.483v18.639h-8.914z"/><path fill="#efd0cb" d="M17.749 13.39l-4.862-.809-3.242 4.862zM65.561 12.581l10.534 3.241-5.672-4.862z"/><path fill="#72cbcc" d="M33.956 49.047l-10.535-7.293 15.397-.811 21.88.811-12.966 7.293z"/><path fill="#fff" d="M34.767 46.616l-7.294-4.862 11.345-.811h17.018l-9.724 5.673z"/><path fill="#50a9aa" d="M23.421 41.754h37.277l-22.69-4.053z"/><path fill="#efd0cb" d="M36.387 173.844l3.242-5.674 15.397-5.672 8.103 1.621 10.536-4.053.811 10.535-8.915 7.293z"/><path fill="#ffeee9" d="M36.387 151.963v21.881l26.742-9.725-14.586-17.828z"/><path d="M42.06 115.497l6.483 30.794 14.586 17.828-8.914-48.622H42.06zm-80.226 55.104l11.345-4.861 2.431 3.241-10.535 4.051-3.241-2.431zM-1.7 156.015l36.466-14.587v4.051L-1.7 160.066v-4.051z" fill="#2b2b2b" fill-opacity=".102"/><path fill="#efd0cb" d="M-13.855 168.981l2.431 2.43 9.724-2.43v-4.053h-6.483z"/><path fill="#ffeee9" d="M-30.063 162.498l7.293 9.724 21.07-7.294v-12.965l-10.535 1.62-12.966 4.862z"/><path fill="#efd0cb" d="M-7.373 143.859l-18.638 8.104-4.052 10.535L-1.7 151.963z"/><path d="M32.335 105.772l-20.259 40.519 9.725-4.053 15.397-30.794-4.863-5.672zm68.072 173.419l20.258-4.862h-5.673l-7.292-69.691-15.398-5.674 6.483 75.365 1.622 4.862zm-63.209-.811l-20.259-4.862-4.862-119.123 9.725-4.053 5.672 123.176h11.345l-2.431-99.674 12.156 1.62 4.052 98.054s-13.776-.81-13.776 0l-1.622 4.862zm65.639-194.489l1.621 64.83-16.207 5.673 1.621-59.158 12.965-11.345zm-25.12 37.278l-4.052 38.897-10.536-11.345 4.052-22.69 10.536-4.862zM65.561 273.517l-4.862-96.433 14.587 2.431 7.292 94.814-17.017-.812z" fill="#2b2b2b" fill-opacity=".149"/><path d="M89.872 84.703l.811 4.051 4.051-.81-1.62-3.241h-3.242zm-24.311 34.845l.81 2.432 1.623-.811v-1.621h-2.433zm3.241-4.863l.811 3.242 3.24-.81-.809-3.242-3.242.81zm4.863-4.862l.811 1.621h1.619l-.81-1.621h-1.62zm3.24-4.862l.812 1.621h1.619v-1.621h-2.431zm2.431-5.672l.812 3.242H84.2l-.812-4.053-4.052.811zm4.864-4.862l.809 1.621h1.621v-2.432l-2.43.811zm3.241-4.053v1.621h2.431l-.812-1.621h-1.619zM38.008 87.133l2.431 2.432 3.242-2.432-3.242-2.43-2.431 2.43zm.81 23.502l1.621 1.621 1.621-1.621-1.621-.811-1.621.811zm-1.62-5.674l3.241 2.432 2.431-2.432-2.431-2.43-3.241 2.43zm1.62-7.292l1.621 1.621 1.621-1.621-1.621-.812-1.621.812zm0-4.053l1.621.811 1.621-.811-1.621-1.621-1.621 1.621z" fill="#50a9aa"/><path fill="#72cbcc" d="M88.251 154.394l-14.586 5.672-8.104 17.828 17.016 3.242z"/><path d="M22.611 47.426l-1.621-7.292 8.104-8.914-5.673 10.536-.81 5.67zm38.087 1.621v-7.292L50.164 31.219l13.777 8.103-3.243 9.725z" fill="#efd0cb"/></svg>