<svg xmlns="http://www.w3.org/2000/svg" viewBox="-97.401 -47.298 400 400"><path d="M39.585 336.944l85.749 15.759 86.906-14.91-24.256-3.631-63.81-9.888-84.589 12.67zm-41.485-9.27l27.424-4.25 28.969 5.254-32.29 6.024-24.103-7.028z" fill="#070908" fill-opacity=".149"/><path fill="#5e5e5f" d="M18.677 187.183l5.617 1.871 8.426 138.274-6.752 3.776-1.207-2.025-7.097-139.791z"/><path fill="#444648" d="M15.48 189.523l3.197-2.34 7.291 143.921-5.036-1.582z"/><path fill="#8b8a8a" d="M-28.587-4.448L-33.032.777l6.708 2.261L48.47-11.156l3.823-8.346z"/><path fill="#6d6e6e" d="M46.6-13.575l4.368 1.406.467 4.912-7.8 4.681-65.827 10.372-5.069-2.027-5.771-4.992z"/><path fill="#cdcccb" d="M51.435-7.257L-27.261 5.769l4.368 100.924 8.191 7.487 53.112-5.928 20.902-10.295z"/><path fill="#dddddc" d="M-31.551 140.308l8.658-33.615 82.205-8.736-11.386 29.56-7.098 18.095-11.387 4.523-50.462-2.886z"/><path fill="#cdcccb" d="M-31.551 140.308l5.851-2.339 66.528 7.643 5.46 31.275-16.77 8.97-21.37 3.431-10.919-16.612z"/><path fill="#dddddc" d="M-4.954 205.199l2.183-32.523 6.006-1.404 36.033 2.884 7.02 2.731z"/><path fill="#46382d" d="M60.784 24.693l-5.513-4.927 9.353-1.087 4.01 3.592 6.597 9.019-5.262 1.756-5.01-.836z"/><path fill="#6e5f51" d="M60.115 36.302l.669-11.609 8.1 7.349 4.594 6.598z"/><path fill="#5e5044" d="M71.724 46.073l-11.609-9.771 8.769-4.26 6.347-.752z"/><path fill="#46382d" d="M190.315 58.349l-11.69 7.184-3.843-.167 6.348-10.022 4.01-1.337z"/><path fill="#165e60" d="M76.315 98.346l2.028-5.302 22.774.39 2.496 3.822 2.185 17.86-2.965 5.304z"/><path fill="#005557" d="M92.694 124.397l.39 23.242 3.588 12.558 9.515 5.693 15.053-5.46 10.061-7.254 19.419-27.686-2.962-9.594-2.497-1.014-39.463.234-3.277 2.964h-4.055z"/><path fill="#1a8ba4" d="M48.316 207.46l12.868 2.887-1.482-9.594-5.225-7.878z"/><path fill="#73cfe5" d="M61.808 186.246l-7.331 6.629-1.17 4.447 7.331 12.868 10.295-6.94 9.439 1.792 3.352-2.807-.077-9.36-4.368-4.055z"/><path fill="#165e60" d="M31.586 300.82l38.801-5.227 4.837-6.004-5.694-8.347-10.218-5.224 9.985-58.808-4.914-5.771-3.745-1.249zM104.938 290.446l3.329 3.822 36.422 2.376 6.968 5.502-14.586-18.329-19.108-25.115zM178.096 267.126l-1.012 35.331 4.329-4.639h21.174l6.239-17.901 2.262-98.507-1.792-23.397-6.865-4.367-7.799.935-19.421 29.091-.78 22.775 17.938 70.271z"/><path fill="#1c7678" d="M238.23 294.579l-28.934-136.566-8.035 156.377z"/><path fill="#545657" d="M158.326 343.638h31.198v-7.879l-5.695-2.105-19.03-.156-6.473 2.261zM54.75 337.477h45.471v-7.254l-5.538-2.573-31.977.467-7.956 2.106z"/><path fill="#454444" d="M160.51 318.367l-2.184 17.392h31.198l-8.111-17.704-6.007-2.963-9.437.546z"/><path fill="#545657" d="M144.689 296.644l15.821 21.723 20.903-.312v-20.237l-8.971-7.216-21.37 1.325z"/><path fill="#27788c" d="M137.789 287.17l6.9 9.474 36.724 1.174-1.288-25.779-6.474-.389-36.58 12.167z"/><path fill="#454444" d="M79.162 312.673l-24.412 17.55h45.471v-15.754l-3.354-2.653z"/><path fill="#545657" d="M85.792 291.381l3.898-4.211 9.986.468 8.591 6.63-8.046 20.201-15.677-.392z"/><path fill="#27788c" d="M89.426 292.318l18.841 1.95 8.916-22.385-3.12-3.588-36.577.825z"/><path fill="#276c7d" d="M92.226 262.681l1.716 8.656 23.241.546 2.34-6.005-11.153-38.998-5.069.237z"/><path fill="#1c7678" d="M66.176 218.615l-9.203 46.561.313 7.409 12.244 8.657 3.196-3.352-1.324-31.199 4.836-2.729 20.277 5.148 8.114-31.353-2.809-9.515-21.527.388z"/><path fill="#1e9193" d="M54.634 277.188l15.364 11.465 2.105-1.716-2.964-12.636-12.166-9.125zM100.65 211.049l-9.438 32.134-3.588 6.551-1.715 28 3.517 14.584 9.898-40.635 6.239-21.915 1.482-14.353z"/><path fill="#dddddc" d="M73.742 247.94l-6.007 4.055 5.617 91.155 3.119 4.544 6.941-7.254-1.17-85.325z"/><path d="M74.677 229.533l-1.325 2.731-.079 10.215 1.015 1.483h10.919l1.092-1.483-.155-12.867-2.731-2.185-8.736 2.106z" fill="#6d6e6e"/><path fill="#c2c1c2" d="M85.753 247.94l6.084 3.743-5.453 91.955-3.283 4.056-3.354-7.254.079-80.724.935-8.033z"/><path fill="#a0a1a0" d="M91.837 251.683l-12.011 8.033-12.091-7.721 12.012-3.042z"/><path fill="#1c7678" d="M106.031 212.063l22.227 69.803 48.981-17.003.468-8.11-16.068-40.401-13.725-14.585-27.377 2.496-3.198 5.381z"/><path fill="#1e9193" d="M110.243 208.787l19.265 67.464 49.368-16.456 1.249 12.244-57.248 20.279-11.62-42.039-10.607-39.23z"/><path fill="#8b8a8a" d="M191.98 270.948l-5.304 1.949-6.551-.858-23.633-53.815 17.081-20.981 19.109 71.287z"/><path fill="#a0a1a0" d="M190.654 271.416l3.274-.702 2.965-4.68-16.611-63.721-7.097-2.575-.86 5.072z"/><path fill="#6d6e6e" d="M100.65 211.049l-12.714 13.492-1.093-4.758 1.952-9.28 3.508-3.043 6.163-.077z"/><path fill="#8b8a8a" d="M66.098 219.003l7.254 13.261 12.791-2.652 6.395-18.251-12.012-3.823-13.726 6.786z"/><path fill="#c2c1c2" d="M180.125 272.039l16.768-6.005-3.352 14.819z"/><path fill="#279db8" d="M51.669 186.403l-3.353 21.057 14.975-19.186 1.949-2.807-2.886-7.566-3.042-1.716-4.912.857-4.758 5.537z"/><path fill="#1a8ba4" d="M46.288 176.887l5.381 9.516 7.643-10.218.936-2.574-1.949-5.07-2.886-3.82z"/><path fill="#5ec0d9" d="M63.837 174.156l-5.616 3.512 5.07 10.606 10.061 1.795 14.897 4.368-2.106-12.481-3.51-2.183-5.694-4.134z"/><path fill="#3aa0ba" d="M58.533 162.771l-3.12 1.95 2.808 12.947 24.412 2.105 2.028-3.744-.39-7.097-3.198-4.758z"/><path fill="#1c7678" d="M56.816 150.68l-3.588 3.043 2.185 10.998 24.646 1.013 2.183-4.288-2.106-10.609z"/><path fill="#165e60" d="M78.343 155.828l3.354 2.731-1.638 7.175 2.574 14.039 4.679 4.212 25.037 1.872 38.139-5.383 10.996-23.085-11.308-26.44-13.026 22.306-26.907 15.053-15.366-14.351-5.069-15.988-9.125 6.551z"/><path fill="#27788c" d="M96.515 181.02l3.979 1.326.39 13.806-3.12 1.56-12.48-2.418-2.651-15.521z"/><path fill="#3aa0ba" d="M96.515 181.02l-.156 10.062 4.525 5.07 11.621-6.24 2.651 5.694 10.687-7.409-11.856-5.772z"/><path fill="#c2c1c2" d="M60.638 210.19l5.46 8.813 15.444-7.254 1.793-5.147-4.056-11.698-5.927-4.835z"/><path fill="#9c9fa0" d="M96.359 191.082l-23.007-1.013 8.19 21.68 19.108-.7 2.34-5.537-2.106-9.36z"/><path fill="#1a8ba4" d="M151.734 199.193l-11.465 5.772 16.223 13.259 6.707-9.905.158-8.969z"/><path fill="#73cfe5" d="M114.141 193.421l-.154-10.996 13.414-6.553 8.892 3.12 19.576 12.947 4.524 9.984-40.244 6.084-4.056-1.639z"/><path fill="#5ec0d9" d="M127.401 175.872l32.992 26.051 2.886.235 8.579-6.396 2.964-6.162-3.666-5.537-25.116-16.301-8.578 3.198z"/><path fill="#279db8" d="M156.492 218.224l3.901-16.301 14.429-12.323 2.574 1.248-1.796 10.528-3.742 3.901z"/><path fill="#1a8ba4" d="M174.587 183.906l.235 5.694-2.497 15.365 14.351-4.758 1.405-24.801-4.603.546z"/><path fill="#b3b2b3" d="M119.914 217.287l-19.264-6.238-4.291-19.967 17.628-8.657 6.162 25.582z"/><path fill="#1c7678" d="M110.32 166.436l44.77-15.989 1.169-5.304-14.04-30.728-36.968.545-2.73 3.12-6.162 2.34-14.35 23.164L87 150.526z"/><path fill="#369496" d="M82.009 143.584l26.908 18.017 43.051-18.408 4.291 1.95 3.119 7.254-1.403 4.992-14.118 3.587-34.784 14.35-30.73-19.498-.545-4.991z"/><path fill="#8b8a8a" d="M87.468 120.03l-3.431 3.744 1.872 4.522 56.467 33.305 5.147 1.481 10.452-.936v-4.757L91.524 120.03z"/><path fill="#a0a1a0" d="M80.059 165.734l65.281-38.138 2.027-3.9-2.417-7.098-3.821.857-62.786 38.373z"/><path fill="#5ec0d9" d="M47.926 127.517l-1.405 25.659 31.822 2.652 24.178-37.748-9.594-.078-19.808 7.096-8.503 12.558-5.772-5.615z"/><path fill="#1c7678" d="M59.002 122.993l2.65 14.663 3.667 7.41 10.372-16.847-.702-6.552-5.615-5.069-7.644-3.432z"/><path fill="#1e9193" d="M43.635 123.228l3.433-5.773 8.501-4.991 6.161.702 3.589 31.9z"/><path fill="#165e60" d="M102.521 118.08l-6.239-3.588-26.674-3.821-7.878 2.495 13.961 15.053z"/><path fill="#1e9193" d="M45.274 99.439l2.808 8.657 4.601 3.432 9.047 1.638 5.149-9.359 3.275-18.563-3.042-1.325z"/><path fill="#1c7678" d="M45.274 99.439l-1.639 23.789 18.095-10.062zM76.861 83.373l-9.749.546-5.382 29.247 7.878-2.495 10.764-7.098v-6.786l3.275-1.872z"/><path fill="#1e9193" d="M80.372 96.787L61.73 113.166l40.791 4.914z"/><path fill="#cea39f" d="M101.663 106.615l-.779-9.437 1.168-4.134 37.75-.39 9.905-3.744 3.354 3.588 3.198 2.262-6.006 13.882-43.52.469z"/><path d="M153.373 105.211l-26.596.625-2.184 3.353.156 5.85 2.262 2.653 14.117-.235 6.629-1.481 5.616-10.765zm-41.102.935l-10.608.469.858 11.465 9.983-.156 2.572-2.886-.077-5.85-2.728-3.042z" fill="#318fa6"/><path fill="#3aa0ba" d="M115 109.188l.077 5.85h9.673l2.261-.936-.155-4.211-2.263-.703z"/><path fill="#efd0cb" d="M171.441 82.485l-4.343 9.439-11.106 1.67-3.592-3.843 4.343-13.779 7.85-10.858 7.016 5.179z"/><path fill="#eaeceb" d="M79.786 352.702l-6.434-9.552 6.395-7.391 6.637 7.879z"/><path d="M48.316 250.279l5.458 5.461 5.772-3.588 39.777-.469 6.474 4.057 5.459-5.461-20.045-7.096-3.509-1.016-15.21.312-4.601.936c.391 0-19.575 6.864-19.575 6.864z" fill="#70cde3"/><path fill="#a0a1a0" d="M73.273 237.331l-5.381 6.084 23.32-.232-4.992-5.852z"/><path fill="#5ec0d9" d="M112.271 106.146l.234 11.778 14.506-.233v-3.589l-10.686.078-.077-4.211 10.608-.078-.079-4.056z"/><path fill="#cea19c" d="M172.61 61.524l-8.017 3.59 6.848 17.371 7.184-16.952z"/><path fill="#efd0cb" d="M148.891 32.543l-4.173 6.431-1.838 32.069 4.675 5.012 9.188-.083 4.176-8.519 6.264-32.154z"/><path fill="#ffeee9" d="M147.891 73.466l1-36.413 6.599-23.634-13.697-4.427.252-20.294L75.148-4.37 76.15 6.654l-8.601 9.27.751 6.514 3.006 49.525 15.785 22.966 39 1.002z"/><path fill="#46382d" d="M162.423 39.14l-4.26 25.891 2.505 5.512 3.925-5.429 4.009-1.837 5.261-18.373-1.92-4.259-3.173-4.177z"/><path fill="#5e5044" d="M171.943 21.268l-11.191 4.176-11.861 11.609 3.925.585 19.127 3.007 3.592-4.427z"/><path fill="#74665b" d="M148.808 19.514l.083 17.539 21.213-11.108-8.266-7.181z"/><path fill="#46382d" d="M188.978 43.317l-4.342 3.173-10.773-1.586-1.92-4.259-1.839-14.7 7.017-1.419 10.019 4.759 2.591 7.852z"/><path fill="#6e5f51" d="M188.978 43.317l1.337 15.032-8.683.669.25-10.524z"/><path fill="#5e5044" d="M198.752 34.297l-9.774 9.02-3.838-11.275 8.517-2.171z"/><path fill="#46382d" d="M194.576 19.096l-7.182 3.592-2.254 9.354 13.612 2.255z"/><path fill="#74665b" d="M177.204 10.412l1.503 10.689 6.433 10.941 9.436-12.946-6.18-4.927z"/><path fill="#5e5044" d="M171.024 17.845l7.683-4.511 6.433 18.708-15.036-6.097z"/><path fill="#46382d" d="M198.082 3.397l-7.934-1.671-11.441 11.608 15.869 5.762z"/><path fill="#5e5044" d="M184.886-11.552l-6.763 9.937.584 14.949 19.375-9.937zM177.287-31.931l-7.099 4.51-10.27 10.356-2.425 10.355 3.509 13.28 10.356-3.508 6.765-4.677 6.763-9.937z"/><path fill="#74665b" d="M165.845 13.334l-4.843-6.764 23.884-18.122-6.179 24.886z"/><path fill="#46382d" d="M152.232 11.999l-3.424 7.515 21.296 6.431 8.603-12.611-17.705-6.764z"/><path fill="#6e5f51" d="M133.776 9.911l11.942-5.429 15.284 2.088-11.692 12.944z"/><path fill="#46382d" d="M140.124-4.955l-6.348 14.866 27.226-3.341-1.754-6.598-14.365-7.432z"/><path fill="#6e5f51" d="M140.039-16.815l.085 11.86L161.002 6.57l1.587-21.715-3.173-7.349-6.014-4.427-7.934-4.257z"/><path fill="#8e7e73" d="M151.23-34.603l-4.51 7.85 15.869 11.608 14.698-16.786L160-36.691z"/><path fill="#46382d" d="M104.879.055l35.245-5.01-4.677-6.597-7.685-5.263-12.86 5.846z"/><path fill="#5e5044" d="M99.535-12.305l5.344 12.36 22.131-11.942-8.018-10.022-15.949-2.673z"/><path fill="#6e5f51" d="M84.085-8.965l8.35 5.43 12.444 3.59-1.836-24.637-10.106 3.591z"/><path fill="#46382d" d="M79.073-1.948L104.879.055l-17.12-9.937-7.349 1.92z"/><path fill="#5e5044" d="M146.72-26.753l-10.436 3.342-9.274 11.524 13.114 6.932z"/><path fill="#6e5f51" d="M147.388-45.128l-15.615 1.673 4.676 13.612 10.271 3.09L160-36.691zM131.773-43.455l2.838 14.28-7.601 17.288-23.967-12.695 13.528-16.536z"/><path fill="#8e7e73" d="M107.468-40.282l10.859-7.016 13.446 3.843-28.73 18.873-2.507-9.854z"/><path fill="#6e5f51" d="M85.504-39.113l21.964-1.169-4.425 15.7-11.026-8.017z"/><path fill="#5e5044" d="M75.815-24.748l9.689-14.365 17.539 14.531-15.284 14.7-7.266-7.017z"/><path fill="#8e7e73" d="M61.117-14.309l14.698-10.439L87.759-9.882l-8.686 7.934L65.878-4.12z"/><path fill="#5e5044" d="M61.619 1.559l-.502-15.868L79.073-1.948l4.092 12.944-13.947-.334z"/><path fill="#74665b" d="M62.12 16.591l-.501-15.032 12.444 1.753 9.102 7.684-14.948 10.857z"/><path fill="#6e5f51" d="M155.992 93.594l-16.285 5.845-1.506-6.765 2.34-10.104 7.35-9.104 10.272-8.435 6.43.083z"/><path d="M71.306 71.963l12.527 17.371.668-19.209 16.787-8.852 19.626 7.516 7.684 20.628 19.293-15.952-8.185 25.974-61.551-1.253-6.849-26.223zm29.565-3.757l-11.525 4.592-.918 18.374 14.029-3.842-5.01-6.013 10.606.167-5.597 5.846 21.131 4.594-6.598-19.293-16.118-4.425z" fill="#8b7a6e"/><path fill="#cea19c" d="M92.185 73.383l9.939-1.503 12.945 1.335.417 3.174-12.611-1.503-10.188 1.336zM94.106 54.674l7.183 6.599 8.017-6.848z"/><path fill="#eecec9" d="M96.695 32.96l2.254 3.926 2.256 8.769-7.099 9.019-7.516-14.782-10.775-8.434 10.775-1.587zM107.885 32.71l-2.172 3.925-1.334 8.352 4.927 9.438 9.102-14.866 13.28-9.521-12.944-1.002z"/><path fill="#46382d" d="M79.073 27.616l-3.258 3.842 20.88 1.502-2.505-4.259zM110.391 28.2l-2.59 4.594 23.887-2.756-5.011-4.093z"/><path fill="#fef4f2" d="M98.949 36.886l6.764-.251 3.593 17.79-15.2.249z"/><path d="M87.843 43.902c1.921 0 3.508-1.587 3.508-3.507 0-2.005-1.587-3.592-3.508-3.592-1.922 0-3.507 1.587-3.507 3.592 0 1.92 1.585 3.507 3.507 3.507zM119.329 44.152c1.918 0 3.59-1.67 3.59-3.675s-1.672-3.674-3.59-3.674c-2.006 0-3.675 1.669-3.675 3.674s1.669 3.675 3.675 3.675z" fill="#2b2b2b"/><path fill="#feeee9" d="M171.943 40.645l17.035 2.672-10.353 22.216-14.032-.419z"/><path fill="#cea19c" d="M176.285 47.744l-3.508 9.269 9.105-8.519z"/><path fill="#72cbcc" d="M110.009 165.422l2.806 3.119-2.806 3.119-2.885-3.119zM120.772 161.601l3.899 1.794-1.325 3.899-3.901-1.794zM130.443 156.765l3.978 1.715-1.327 3.979-3.976-1.795zM100.494 159.649l-3.979 1.718 1.327 3.977 3.978-1.794z"/><path fill="#5e5e5f" d="M57.207-13.495l-4.914-6.007-5.693 5.927 4.835 6.318z"/><path d="M47.068 31.351l-11.777.233-3.433-2.339-10.217 1.169-4.68-1.872-7.799.78 2.417 3.276-28.468 13.961 8.112 2.964-6.24 8.345 10.842-.702L-6.67 67.54l9.594-4.446L4.64 74.091l7.8-8.969 4.444 7.176 7.566-21.605 7.487-.858 2.808 3.121 3.665-6.317-9.671-4.368 3.119-3.276 6.474.391.234 3.432 2.887-3.121 1.403.079 4.212-8.425zm-20.123 1.481l5.226.157-2.34 1.716-2.886-1.873z" fill="#a0a1a0"/><path d="M-27.261 5.769l4.603-.78 5.225 101.08-8.267 31.899 28.935 33.303-1.872 23.319 37.905-20.435-4.68-29.014 9.047-21.915 4.29 4.289-7.098 18.095 5.46 31.275-51.242 28.311 2.184-32.523-28.78-32.368 8.658-33.615-4.368-100.921zM46.21-6.398l7.721 99.676 4.758-3.354-7.254-97.181-5.225.859z" fill="#070908" fill-opacity=".149"/><path fill="#8e7e73" d="M131.773-43.455l14.947 16.702-19.71 14.866z"/><path fill="#3aa0ba" d="M142.376 161.601l-4.914 9.359 37.36 18.64 13.259-14.194-5.071-5.928-21.135-7.723z"/><path fill="#1c7678" d="M151.968 143.193l11.701 11.466 33.224-.312 7.408 3.666-16.22 17.393-45.705-13.805z"/><path fill="#5ec0d9" d="M157.975 157.389l-16.846-39.934 6.629-1.481 18.251 6.629 9.826 18.719 14.351-13.882 14.115-4.758 5.384 3.899-.389 31.432z"/><path fill="#165e60" d="M151.399 95.242l.569 2.091 22.074 9.282 6.785-2.262-.78-6.007 5.093-10.557-13.699-5.304z"/><path fill="#1c7678" d="M151.399 95.242l29.428 9.111-6.863 6.63-20.825 7.254-12.01-.782z"/><path fill="#165e60" d="M163.123 126.035l-21.994-8.58 39.698-13.102 1.325 5.928-8.579 15.676z"/><path fill="#1e9193" d="M174.665 147.873l-11.542-21.838 17.704-21.682 1.95 10.139-2.262 22.384z"/><path fill="#1c7678" d="M209.685 126.581l-17.861 6.006-4.055-2.808-4.992-15.287-1.95-10.139 4.835-3.666 12.558-3.588 4.367 1.483 3.51 4.289 3.276 16.066z"/><path fill="#165e60" d="M218.732 110.748l-9.047 15.833-7.098-27.999 2.574-1.795 5.538 1.326z"/><path fill="#1c7678" d="M190.81 82.436l3.744 8.424 8.033 7.722 8.112-.469z"/><path fill="#1e9193" d="M184.337 85.791l-4.29 12.555.78 6.007 21.76-5.771-11.777-16.146z"/><path fill="#1c7678" d="M171.441 82.485l19.369-.049-9.983 21.917z"/><path fill="#165e60" d="M180.827 104.353l-6.162 43.52 17.159-15.286z"/><path d="M119.759 242.246l19.965 12.635-10.216 21.37 28.856-9.593-18.641-11.777 10.608-21.448 18.328 12.556-10.372 20.67 17.313-5.773-19.108-42.662 26.676-4.991-2.886-10.92-7.957 2.652-15.833 13.259-6.16 15.209-18.642-12.324 8.579-16.143-20.12 3.042-19.499 2.964 31.04 10.138-11.931 21.136zm13.024-99.053l-7.176-3.977-10.061 5.85 17.237-1.873zm47.732 140.935l-42.727 3.042 42.336-15.131.391 12.089zM54.554 199.505l18.798-9.436-10.062-1.795-8.736 11.231zm72.847-23.633l32.992 26.051-8.58 1.327-24.412-27.378zm17.939-48.276l17.783-1.561-21.994-8.58 4.211 10.141zm-69.649.623l23.008-4.135 3.822-6.005-26.83 10.14zm133.994-1.638l-.079 9.048-34.941 12.245 17.159-15.286 17.861-6.007zM47.301 138.748l18.018 6.317-17.393-17.549-.625 11.232zm110.674 18.641l46.326.624-11.619 12.479-34.707-13.103zm-79.632-1.561l-25.115-2.105 2.185 10.998 22.93-8.893zm22.463 90.707l-.156-35.486 4.991 18.327-4.835 17.159zm-43.833 18.641l10.762-13.181-8.188.156-2.574 13.025zm6.083-30.807l4.836 9.046-7.098 2.573 2.262-11.619zm23.087-4.757l.077 7.72 4.991 5.852 9.438-32.134-12.714 13.492-1.792 5.07z" fill="#2b2b2b" fill-opacity=".149"/><path fill="#46382d" d="M61.619 1.559l17.454-3.507 4.092 12.944z"/><path fill="#8e7e73" d="M61.619 1.559l6.598 20.294-12.946-2.087z"/></svg>