<svg xmlns="http://www.w3.org/2000/svg" viewBox="-136.781 -78.521 400 400"><path fill="#2b2b2b" fill-opacity=".102" d="M-4.309 304.054l84.687 14.89 85.615-13.611-86.547-15.705z"/><path fill="#a09160" d="M37.686 73.029l-.349 8.258 6.979 2.328 16.75-3.955 1.164-6.981-7.793-23.033h-4.304z"/><path fill="#369496" d="M111.203 122.699l-9.54 25.826-8.606 7.909-34.317 6.632-12.215-40.832-.349-8.374 13.495-13.262 48.159 15.472z"/><path fill="#efd0cb" d="M13.024 119.094l-6.166 11.517.582 5.932 19.426 13.377 2.21-5.584-5.699-21.403-5.584-5.352z"/><path fill="#318fa6" d="M107.132 310.685l32.455-1.163-13.726-18.73-10.935 4.654zM95.384 291.141l11.748 19.544 2.675-19.893-6.279-17.565z"/><path fill="#cea39f" d="M85.496 230.419l-1.397 5.35 3.956 7.678 8.26 1.861 14.54-9.423 3.838-10.701-4.886-3.489z"/><path fill="#318fa6" d="M10.696 306.729l27.687.814-3.49-10.121-10.468-5.466zM47.456 283.696l-.931 11.981 5.584 11.052 3.142-23.847z"/><path fill="#27788c" d="M43.385 276.95l-5.002 21.17v9.423l16.868-24.661-6.632-10.818z"/><path fill="#cea39f" d="M26.866 235.537l4.887 8.259 18.38 6.747 4.304-3.024 1.629-7.096-2.444-7.444-21.987-2.328z"/><path fill="#ffeee9" d="M48.619 272.064l-10.236 35.479-13.958-15.587 8.49-18.844 6.166-3.374z"/><path fill="#efd0cb" d="M26.866 235.537l27.571 11.982-5.818 24.545-15.704 1.048z"/><path fill="#ffeee9" d="M113.763 270.085l-10.235 3.142 3.604 37.458 18.729-19.893-3.14-18.03z"/><path fill="#efd0cb" d="M88.055 243.447l26.638-18.263 8.028 47.578-19.193.465z"/><path fill="#1c7678" d="M31.171 165.276L7.556 232.979l44.437 5.932 1.629-5.932-17.914-63.748zM58.159 159.925l43.504-11.4 13.03 76.659-60.256 22.335-.815-14.54 9.772-39.319-6.864-26.524z"/><path fill="#50a9aa" d="M48.388 117.116l-5.468 5.701-10.12 30.011-1.629 12.448 5.932 9.073 22.218 20.591 14.193 7.56z"/><path fill="#ffeee9" d="M-7.914 109.788l-7.329 1.629-1.279 8.608L7.44 136.543l10.353-18.962zM-30.598 77.448l15.586 16.869-3.838 9.655-14.541 4.42-6.164-22.334z"/><path fill="#efd0cb" d="M-16.522 120.025l-16.869-11.633 18.379-14.075 7.098 15.471z"/><path fill="#ffeee9" d="M-6.984 84.313l-.93 25.475-11.286-3.374 8.028-23.033z"/><path fill="#50a9aa" d="M26.285 119.444l-8.492-1.863 19.544-36.294 8.142-2.326 8.375 3.606 3.258 19.776z"/><path fill="#50a9aa" d="M59.555 93.735l-8.841 8.375 1.744 4.072 7.213-1.397 51.532 17.914 5.119-5.233 4.42-36.179-2.675-8.957-12.099.699z"/><path fill="#369496" d="M17.793 117.581l23.614-10.818 6.516.699.465 9.654-17.217 48.16z"/><path fill="#ffeee9" d="M45.479 78.961l5.235 23.149 18.962-8.492 11.747-9.654 9.074-15.24L65.604 79.66l-7.329-4.304z"/><path fill="#cea39f" d="M49.667 58.953l7.678-5.235 25.708-1.978-11.866 25.826-7.793 7.56z"/><path fill="#efd0cb" d="M80.144 33.245l-16.75 12.098-4.537 12.913 17.565-1.397-13.028 28.267 17.099-8.608 8.609-5.467 14.889-25.359-20.357-81.08-5.7 7.677z"/><path fill="#cea39f" d="M95.733 59.767L82.47-25.616l20.474 67.237z"/><path fill="#e2d086" d="M11.511 41.388L4.299 90.711l33.038-9.424.349-8.258-20.474-32.222z"/><path fill="#c1b274" d="M-8.031 11.027l45.368 70.26L52.226 54.3l-2.093-4.654-13.262.815L15.234 34.64 8.137-11.89.112-8.516z"/><path fill="#1c7678" d="M41.407 106.763l6.981 10.353 11.283-12.331-8.957-2.675z"/><path fill="#c1b274" d="M127.373 3.233l-9.306 69.097-48.391 21.288z"/><path fill="#e2d086" d="M94.569-49.812L83.634-35.388l-1.164 9.772 16.753 72.937 28.15-44.088-25.71-53.859z"/><path fill="#ffeee9" d="M5.231-7.818l6.28 49.206 24.778 18.613 22.568-1.745 26.756-22.218-3.143-61.654-1.628-5.934-47.927-24.078L6.858-17.823z"/><path fill="#cea39f" d="M19.306-38.529L5.231-7.818l33.385-37.109-1.279-8.492z"/><path fill="#c1b274" d="M53.273-75.986l-12.331 8.608-8.027 11.75.233 8.258L82.47-25.616l19.193-25.01z"/><path fill="#e2d086" d="M2.322-47.719l50.951-28.267-61.304 87.013z"/><path fill="#cea39f" d="M35.243 21.495l8.258 5.119 4.887-6.979-7.911-2.443z"/><path fill="#efd0cb" d="M26.634 25.102l-2.327 5.933 8.608-7.794zM53.971 21.147l10.586 5.119s-4.188-5.236-3.956-5.119h-6.63zM73.514 26.847l-3.373 3.258 3.489 3.605zM35.941.906l-3.607-4.654-13.145-3.605-7.329 4.885 12.912 6.981 10.471 16.982 3.14-10.818zM43.269 9.979L43.036-.025l2.675-6.63 13.379-5.467 9.888 2.908L56.413 1.371l-8.259 18.264z"/><path fill="#fff5f3" d="M35.941.906l7.095-.931 5.118 19.66-12.911 1.86z"/><path d="M25.212 2.568c1.97.051 3.526 1.689 3.476 3.659-.051 1.969-1.69 3.524-3.66 3.474-1.97-.05-3.526-1.689-3.474-3.659.051-1.969 1.688-3.525 3.658-3.474zM56.016-.602c1.97.051 3.526 1.689 3.474 3.659-.051 1.969-1.688 3.524-3.658 3.474-1.97-.05-3.526-1.689-3.475-3.659.052-1.969 1.689-3.525 3.659-3.474z" fill="#2b2b2b"/><path fill="#72cbcc" d="M31.404 35.106l14.424 6.166 14.192-9.888-14.89 4.187z"/><path fill="#50a9aa" d="M40.245 32.896l-8.841 2.21 13.492 1.862 15.124-5.584-11.284.697-3.722 1.745z"/><path fill="#369496" d="M31.171 165.276L73.514 202.5l-19.077 45.019z"/><path fill="#8e7e73" d="M18.374-8.168l-7.095 6.165 7.56-3.605 13.495 1.86-2.559-3.256zM47.573-10.261l-1.862 3.606 13.494-4.305 9.773 1.746-9.657-4.421z"/><path fill="#ffeee9" d="M141.681 138.288l-4.07-54.557-19.544-11.401-6.864 50.369 6.282 21.637 4.187 3.142 14.425-3.49z"/><path fill="#efd0cb" d="M121.092 187.494l-3.607-43.158 24.196-6.048-5.35 45.483-6.166 8.376z"/><path fill="#efd0cb" d="M111.553 206.339l9.539-18.845 9.073 4.653-15.356 15.937z"/><path fill="#ffeee9" d="M120.161 208.549l.931-21.055 15.239-3.723 4.769 18.497-11.634 10.585z"/><path fill="#efd0cb" d="M119.813 223.323l.348-14.774 20.939-6.281-8.143 16.17z"/></svg>