<svg xmlns="http://www.w3.org/2000/svg" viewBox="-122.85 -47.298 400 400"><path fill="#3aa0ba" d="M2.396 154.705l3.356 6.82 3.897-4.438-1.299-4.331z"/><path d="M4.02 339.4c1.083.216 88.341 12.232 88.341 12.232l78.814-12.017-80.223-10.61L4.02 339.4z" fill="#070908" fill-opacity=".149"/><path fill="#27788c" d="M119.535 322.185l11.259.432-1.841 3.791-13.532 10.175h-3.033l-.107-2.814z"/><path fill="#ffeee9" d="M102.754 313.091l1.191-3.031 4.654-2.381 4.764-1.949 12.342 10.609-13.317 20.244-1.515 1.083H94.85l-3.247-1.083 7.362-4.33h2.49l2.707-1.515.216-1.623z"/><path fill="#5ec0d9" d="M98.965 332.253l5.197 5.413h6.711l1.515-1.083-8.01-7.468z"/><path fill="#318fa6" d="M91.711 341.023h39.083v-18.406l-18.406 13.966H91.603z"/><path fill="#a09160" d="M56.634 112.375l9.095-19.704 11.366-3.789 7.362 12.775-1.082 8.336zM117.693 98.302l-1.189 9.851 7.361 8.985 18.404 2.598-15.373-30.962z"/><path fill="#c1b274" d="M125.489 79.03l-1.083 14.4 17.863 26.306-.65-41.897-4.221-8.659z"/><path fill="#bda476" d="M140.862 61.275l-17.431 4.115 4.981-16.673 9.31-6.928 10.827 6.495z"/><path fill="#e2d086" d="M142.269 119.736l10.069-27.714-3.789-43.738-8.877 6.063-2.274 14.833z"/><path fill="#fff7ae" d="M158.51 127.532l-16.241-7.796 7.363-30.745 10.933-2.057 3.357 17.972z"/><path fill="#c1b274" d="M174.965 85.959l-11.043 18.947-14.29-15.915-1.083-40.707 14.832 9.202z"/><path fill="#fff7ae" d="M170.958 57.92l4.007 28.039-26.416-37.675-3.898-13.965 5.846-.433 16.563 13.315z"/><path fill="#ecdbb4" d="M123.431 15.264l4.981 33.453 20.137-.433-2.382-17.322z"/><path fill="#e2d086" d="M170.958 57.92l6.714-17.755-25.01-19.812-26.453-7.059 13.029 26.545 9.311 8.445z"/><path d="M126.209 13.294c1.191 0 17.793-.735 17.793-.735l19.92 5.521 13.75 22.086-51.463-26.872z" fill="#fff7ae"/><path fill="#c1b274" d="M98.314-19.054v7.254l22.303 25.657 5.592-.563 37.713 4.785-40.491-29.338z"/><path fill="#fff7ae" d="M102.646-35.618l-6.713 5.846 2.381 10.718 65.608 37.133z"/><path fill="#e2d086" d="M115.962-42.006l-14.723.433 1.407 5.955 61.276 53.697-9.852-37.783z"/><path fill="#c1b274" d="M77.095 88.882l-20.461 23.493-4.005-20.462 4.98-15.155 6.82 9.31z"/><path fill="#fff7ae" d="M61.722 88.233l-5.088 24.142-12.016 8.552-2.382-16.021 10.827-14.292z"/><path fill="#c1b274" d="M38.23 73.293l-8.553 16.456 12.559 15.157 5.955-14.508-.867-22.409z"/><path fill="#e2d086" d="M42.236 104.906l19.486-16.673-8.769-13.425-7.902-1.515z"/><path fill="#fff7ae" d="M41.369 51.965l-7.252 12.234-4.44 25.55 15.374-16.456 4.439-10.718-.867-11.15z"/><path fill="#c1b274" d="M33.034 32.045l-6.063 13.749 7.146 18.405 11.692-8.926 6.063-9.155-2.382-34.426zM102.646-35.618l-4.332 16.564-1.623 5.088-21.435 6.387-6.496-1.84-10.827-5.088 5.306-13.533 23.167-11.151z"/><path fill="#fff7ae" d="M30.544 6.171l10.717-4.872L63.239-28.04l-3.356-3.14-5.739.866z"/><path fill="#e2d086" d="M26.971 45.794l3.573-39.623 31.829-33.345.649-.866.108.108.109-.108-.109.217 5.63 18.404-.325 4.763-19.379 26.2-1.732-2.707zM99.939-42.655l-9.31-3.572-36.485 15.913 9.095 2.274 39.407-7.578z"/><path fill="#fff7ae" d="M90.629-46.227l12.017 10.609 13.316-6.388z"/><path fill="#27788c" d="M17.444 239.691l-3.464-3.249.433-28.689 3.14-4.113 2.706-1.734 7.037 1.408 1.298 2.598 3.033 31.613z"/><path fill="#5ec0d9" d="M-.852 219.121l9.093-14.616.759 4.44-4.223 16.887-2.273 1.624z"/><path fill="#3aa0ba" d="M8.241 204.505l9.312-.865-.109 36.051-17.105-3.249z"/><path fill="#cea39f" d="M81.102 113.024l3.572 11.368 23.818-9.744 2.381-4.222 11.476-27.931-11.151 2.382-29.122-.651-5.305 3.574 5.412 18.404z"/><path fill="#ffeee9" d="M86.406 119.52l-1.84-5.629-3.898 1.407-15.048 37.458 2.924 4.547 8.119-3.356 24.684-34.102-1.733-4.763-4.654-1.083z"/><path fill="#50a9aa" d="M121.375 147.993l13.208-23.277 7.686-4.98 10.501 36.052-1.84 11.476-12.667 7.036-6.604-2.49-9.418-15.373z"/><path fill="#369496" d="M45.917 141.93l-5.847 15.806-2.814 2.381 1.841 17.431 3.897 8.119 4.763-1.84 4.655-6.82-3.356-32.803z"/><path fill="#ffeee9" d="M56.31 314.823l2.165-2.49h8.553l3.031 2.274 4.114 8.01-1.624 3.898-15.589 11.151H38.23l-3.248-1.083 7.362-4.33h2.598l2.598-1.515.217-1.623z"/><path fill="#5ec0d9" d="M42.344 332.253l5.196 5.413h9.42l-1.191-1.083-8.012-7.468z"/><path fill="#318fa6" d="M35.198 341.023h38.975v-18.406l-18.404 13.966H34.982z"/><path fill="#3aa0ba" d="M23.722 212.949l17.647 55.213 3.249 5.088 20.677 3.682 3.681-3.14 3.789-1.514-10.501-37.244-8.336-8.769-25.441-13.748z"/><path fill="#318fa6" d="M41.369 268.162l27.607 5.63.867 28.798-2.599 2.165-11.15.216-3.682-2.273z"/><path fill="#efd0cb" d="M69.843 302.59l-17.431.108 3.898 12.125 13.749-.216z"/><path fill="#318fa6" d="M93.66 302.483l5.197.107 6.604-4.114 2.056-5.846-13.316-29.556-7.578-.757-15.589 6.604-2.058 4.871z"/><path fill="#efd0cb" d="M93.66 302.483l13.857-9.853 5.846 13.1-10.609 7.361z"/><path fill="#5ec0d9" d="M62.156 225.725l-4.439 5.088 11.259 42.979 25.225-10.718 9.418-44.278-6.711-1.082z"/><path fill="#50a9aa" d="M17.877 164.123l25.117 21.544-2.274-29.663-4.547 3.357-.541-5.846-7.145-3.465-5.956 1.191-5.736 7.037z"/><path fill="#efd0cb" d="M17.877 164.123l10.61-14.073-11.909-5.846-6.929 4.114 1.733 10.285z"/><path fill="#27788c" d="M23.722 212.949l41.141-21.002 38.756 26.849-45.902 12.017z"/><path fill="#50a9aa" d="M64.863 191.947l-2.058-5.954-7.578-8.228-5.737-1.407-25.768 36.591 28.799 4.33z"/><path fill="#5ec0d9" d="M17.553 203.64l18.079-50.125 5.088 2.489-12.017 50.017z"/><path fill="#72cbcc" d="M64.538 192.705l3.897-4.33 20.137-2.382 4.547 1.732 10.5 31.071-36.05-.542z"/><path fill="#50a9aa" d="M69.409 154.921l-4.438.651-2.166 30.421 6.279 3.79 24.035-2.058 29.122-31.288-1.516-5.629z"/><path fill="#72cbcc" d="M50.573 141.172l-4.764.866 3.681 34.32 12.666 12.557h2.599l.649-2.597 2.489-27.391-1.623-7.795z"/><path fill="#50a9aa" d="M56.634 112.375l-10.825 29.663 22.735 15.265 9.526-25.873.866-10.611-3.897-10.826 7.144-3.789z"/><path fill="#72cbcc" d="M122.133 112.592l-25.118 10.176-11.15 9.852-15.589 19.811-1.732 4.872 53.697-.866 20.028-36.701-13.965-6.279z"/><path fill="#ffeee9" d="M80.127 195.195l12.992-7.47 4.979 3.789 2.166 7.578-.325 8.985-15.156-.54z"/><path fill="#efd0cb" d="M106.868 190.648l-13.749-2.923 6.82 20.352 13.317-5.087 1.731-4.331-2.599-5.414z"/><path fill="#62bebf" d="M152.77 155.788l8.554 29.447-29.989 11.043-6.171-2.382-4.113-7.795-.217-6.063z"/><path fill="#ffeee9" d="M120.834 180.038l10.501 16.24-18.079 6.712-6.388-12.342z"/><path fill="#1e7678" d="M65.404 186.318l3.68 3.465-4.546 2.922-2.816-4.114zM67.028 168.671l3.356 3.357-4.006 3.138-3.031-3.897zM70.276 152.431l2.598 4.656-5.089 2.598-2.814-4.656z"/><path fill="#efd0cb" d="M105.406 89.865l11.855.424-30.855 29.231 13.208-4.438 13.208-2.274 3.572-4.33 21.004-39.298-.541-8.878-4.656-35.835-5.992-11.173-2.344 5.976-16.564 65.498z"/><path fill="#c1b274" d="M61.722 88.233l-16.671-14.94.758-18.02 16.672 24.515z"/><path fill="#ffeee9" d="M47.324 18.837l-1.515 36.436 15.913 32.96 43.684 1.632 14.593-27.399 6.21-49.172-27.895-32.348-17.646 5.737L62.805 1.84z"/><path fill="#efd0cb" d="M50.138 24.683l8.554-2.49 10.934 5.197 3.356 5.954.324 8.877-3.355 9.853-5.847-19.163zM78.07 41.464l1.191-8.228 4.331-6.388 12.667-4.98 14.182 2.058-15.265 8.335-14.182 19.813z"/><path fill="#cea39f" d="M75.256 56.621l-5.305-4.547 6.171-2.274 4.872 2.274z"/><path fill="#a09160" d="M58.367 21.111l9.526 2.49 1.733 3.789-12.125-4.223-7.363 1.516zM85.541 23.276l-1.949 3.572 13.857-3.464 12.992.542-13.101-3.249z"/><path fill="#fff5f3" d="M79.261 33.236l1.733 18.838H69.951l3.031-18.73z"/><path fill="#72cbcc" d="M73.848 71.994L64.755 62.9l4.329.324 23.385-.758 4.439-.432-11.692 10.284z"/><path fill="#fff" d="M69.084 63.224l5.523 5.956 9.742.107 8.12-6.821z"/><path fill="#50a9aa" d="M64.755 62.9l6.712-.542 4.329-1.515 6.28 1.083 14.832.108-21.002 3.139z"/><path d="M62.156 38.758c2.164 0 3.789-1.841 3.681-3.899 0-2.164-1.733-3.789-3.897-3.789-2.058.109-3.681 1.841-3.681 4.007.108 2.056 1.84 3.789 3.897 3.681zM94.525 37.999c2.059-.108 3.789-1.84 3.682-4.005 0-2.057-1.84-3.789-3.897-3.789-2.058.108-3.789 1.84-3.681 4.005 0 2.166 1.732 3.789 3.896 3.789z" fill="#2b2b2b"/><path fill="#cea19c" d="M134.474 60.302l2.924 8.878 4.654-8.662-2.273-2.706z"/><path fill="#72cbcc" d="M72.441 108.586l5.629 22.844 6.496-17.539-2.383-7.687z"/><path fill="#8ce0dc" d="M85.865 132.62l42.439-19.163-11.8-5.304-16.89 6.929z"/><path d="M84.783 207.537l18.836 11.259-3.68-10.719-15.156-.54zm-67.339 32.154l6.279-26.741 7.904 24.575-14.183 2.166z" fill="#2b2b2b" fill-opacity=".102"/><path fill="#c1b274" d="M126.209 13.294l8.265 47.008 4.547-2.816 3.681-16.564-2.274-5.953z"/><path fill="#feeee9" d="M140.428 34.969l-5.954 25.333 7.578.216 6.497-12.234z"/><path fill="#cea19c" d="M142.702 44.062l-2.165 8.552 6.279-7.252z"/><path fill="#efd0cb" d="M80.668-13.317L47.324 18.837 68.76-9.419zM-11.57 146.152l6.712-5.521 5.629.433 10.827 7.578-4.223 7.362-15.373 2.923z"/><path fill="#ffeee9" d="M-21.313 139.549l-2.058 10.609 15.373 8.769 3.14-18.296zM-1.285 130.239l12.775 11.583.108 7.145-7.578-1.408-7.795-15.697z"/><path fill="#5ec0d9" d="M5.752 161.525l5.738-19.703 5.088 2.382-6.604 18.404z"/></svg>