<svg xmlns="http://www.w3.org/2000/svg" viewBox="0 0 400 400"><g fill-rule="evenodd" clip-rule="evenodd"><path opacity=".1" fill="#2b2b2b" d="M121.479 387.527L93.103 373.35l52.85 1.508 38.914-17.877 27.578 19.244 19.812.062 47.317-7.311 7.898 23.602-114.542 7.921z"/><path fill="#636363" d="M264.306 369.991l-6.082 15.782 29.248 6.805 4.763-11.006-5.633-7.671-4.92-3.849z"/><path fill="#858787" d="M266.913 375.637l12.739 1.737v6.806l-13.901-2.752z"/><path fill="#474747" d="M309.308 380.052l-21.836 12.526-.867-18.677 3.635-6.695 14.751-3.154z"/><path fill="#f5d65e" d="M280.667 363.182l-16.361 6.809 22.296 3.91 18.389-9.849z"/><path fill="#e3a842" d="M273.098 358.106l.481 11.227 12.234 1.167 3.363-5.72-3.429-4.994-1.482-2.489z"/><path fill="#bd8f2b" d="M295.431 356.167l-6.92.695-2.764 2.924.066 10.714 10.016-4.292z"/><path fill="#f5d95c" d="M284.523 354.812l-11.425 3.294 12.649 1.68 9.684-3.619z"/><path fill="#e3a640" d="M301.435 355.268l-5.807 5.922-2.773-4.062 5.159-7.802 4.636 3.491z"/><path fill="#bd8f2e" d="M305.242 351.391l-3.807 3.877-3.918-5.19 1.297-.523z"/><path fill="#e3c729" d="M307.952 348.422l-2.71 2.969-11.359-1.934-1.906-6.103 4.226-1.773z"/><path fill="#b58c00" d="M274.647 335.515l12.977 2.278 7.622 7.036-1.363 4.628-17.43 1.548z"/><path fill="#e0ab40" d="M288.137 325.251l-13.49 10.264 11.774 5.326 8.825 3.988.957-3.248z"/><path fill="#4f4f4f" d="M264.306 369.991l-6.082 15.782 11.211 2.608 6.02-16.435 2.067-1.91z"/><path fill="#6b6e6e" d="M266.909 375.637l6.851.933-2.197 6.008-5.812-1.15z"/><path fill="#c7ad4d" d="M278.375 364.139l-14.069 5.852 11.149 1.955 2.387-2.205z"/><path fill="#b88a36" d="M273.164 359.691l.415 9.642 4.263.408.858-8.991z"/><path fill="#636363" d="M231.895 371.071l1.215 17.536 30.538-6.456-.357-12.46-8.678-4.747-6.324-1.458z"/><path fill="#858787" d="M236.836 375.24l12.764-3.968 2.989 6.406-14.3 3.525z"/><path fill="#474747" d="M278.7 360.75l-15.052 21.401-9.035-17.207.481-7.906 12.506-9.457z"/><path fill="#f5d65e" d="M244.309 357.461l-12.414 13.61 22.718-6.127 12.987-17.363z"/><path fill="#e3a842" d="M234.946 356.011l5.393 10.361 12.032-4.287.657-6.866-5.428-3.191-2.494-1.688z"/><path fill="#bd8f2b" d="M255.127 344.361l-6.209 3.7-1.318 3.967 4.771 10.057 7.544-8.443z"/><path fill="#f5d95c" d="M244.261 347.884l-9.315 8.127 12.654-3.983 7.527-7.663z"/><path fill="#e3a640" d="M260.388 340.874l-2.866 8.127-4.399-2.599 1.425-9.618 5.905 1.248z"/><path fill="#bd8f2e" d="M262.265 335.547l-1.877 5.327-5.976-3.167.994-1.059z"/><path fill="#e3c729" d="M263.513 331.56l-1.248 3.987-11.548 3.175-4.477-4.907 3.199-3.528z"/><path fill="#b58c00" d="M226.47 334.052l13.219-3.56 10.276 3.277.752 4.953-15.734 9.125z"/><path fill="#e0ab40" d="M234.659 318.456l-8.189 15.596 13.433-.164 10.062-.119-.526-3.482z"/><path fill="#636363" d="M95.51 360.754l-6.818 17.311 32.787 9.462 5.338-12.037-6.312-8.957-5.515-4.62z"/><path fill="#858787" d="M98.432 367.247l14.283 2.748v7.626l-15.583-3.954z"/><path fill="#474747" d="M145.953 374.853l-24.474 12.674-.974-20.994 4.076-7.273 16.536-2.608z"/><path fill="#f5d65e" d="M113.851 354.151l-18.341 6.603 24.995 5.779 20.614-9.881z"/><path fill="#e3a842" d="M105.364 347.983l.542 12.616 13.713 2.073 3.774-6.201-3.849-5.814-1.661-2.875z"/><path fill="#bd8f2b" d="M130.398 347.21l-7.755.345-3.099 3.102.075 12.015 11.225-4.184z"/><path fill="#f5d95c" d="M118.171 345.009l-12.807 2.974 14.18 2.674 10.854-3.447z"/><path fill="#e3a640" d="M137.132 346.582l-6.51 6.267-3.112-4.719 5.784-8.426 5.197 4.205z"/><path fill="#bd8f2e" d="M141.396 342.476l-4.264 4.106-4.395-6.07 1.458-.496z"/><path fill="#e3c729" d="M144.436 339.318l-3.04 3.158-12.734-2.884-2.132-6.961 4.737-1.72z"/><path fill="#b58c00" d="M107.101 322.755l14.548 3.371 8.544 8.366-1.531 5.1-19.536.641z"/><path fill="#e0ab40" d="M122.224 312.098l-15.123 10.657 13.199 6.71 9.893 5.027 1.074-3.581z"/><path fill="#2b2b2b" d="M170.836 390.249l-4.431-12.472 10.768-5.215 1.332 17.81z"/><path fill="#474747" d="M136.82 390.155l18.01-20.119 10.918-6.476 11.425 9.002-20.364 17.942zM194.491 367.711l-3.285 26.025 24.081-.435-4.274-25.668z"/><path fill="#a19161" d="M227 148.027l27.429 10.909-24.198 10.023zM135.76 128.325l17.31 27.061 10.817 4.093 14.185-15.577-4.333-18.296"/><path fill="#9e7800" d="M233 264.472l-58.064-15.08-36.192 19.101 6.215 39.231 24.951 21.093 49.55 10.266z"/><path fill="#755900" d="M150.809 233.807l-4.963 12.952-7.102 21.734L233 264.472l-22.875-30.665-14.577-16.592"/><path d="M150.809 233.807l-4.963 12.952-7.103 21.733 39.133-13.75 55.124 9.73-22.875-30.665-14.577-16.592-44.739 16.592z" fill="#694f00"/><path fill="#806100" d="M153.07 155.384l-26.881 38.996 8.06 28.187 13.252-8.702 29.111-32.843M230.231 168.959l13.192 41.422-6.965 15.27-14.776.193-6.546-8.193-1.659-29.088"/><path fill="#5e4700" d="M141.487 195.099l3.365 12.609 3.859 17.384 29.02 8.715 35.096-8.715 5.249-16.924-35.901-18.488z"/><path fill="#947000" d="M218.17 151.364l-50.786-1.167-14.314 5.187-7.382 20.965 39.912 14.339 39.892-6.433 4.739-15.296z"/><path d="M205.04500000000002 128.33100000000002l-2.436 25.731 27.622 14.897 7.857-27.357s-9.207-15.708-10.291-15.979c-1.084-.269-22.752 2.708-22.752 2.708z" fill="#c2b373"/><path fill="#e3d187" d="M261.382 121.391l-23.294 20.211-28.131-6.756-4.912-22.492 19.228-18.148"/><path d="M224.277 37.107l-6.501 77.299-15.171 39.655-30.874 8.125-1.082-23.873 7.575-31.147s13.844-63.472 13.821-64.869c-.021-1.396 18.417-9.304 19.772-9.304 1.351.002 12.46 4.114 12.46 4.114" fill="#f0d1cc"/><path d="M222.877 79.69699999999999l-.769 23.382-10.911-3.826 6.821-15.474 4.859-4.082z" fill="#ffede8"/><path fill="#cfa39e" d="M153.171 136.177l9.338 12.565 9.222 13.445 19.401-21.879-20.483-1.994 4.25-7.817zM222.108 103.079l-6.476-2.271-6.373 7.783 7.778 7.748"/><path d="M108.867 49.701l13.677 45.753 22.102-42.893-6.803-15.32" fill="#a19161"/><path fill="#ffede8" d="M129.92 34.214l-4.228 13.707-3.164 47.747 11.372 38.147 36.749 4.499L200 107.327l8.564-68.174z"/><path fill="#f0d1cc" d="M139.243 79.596l-13.179-5.758 6.953-6.833 14.556 5.25 1.789 2.672 3.076 3.848 5.049-3.037 4.063-3.269 15.787-4.224 9.493 8.903-18.238 4.007-13.814 15.979-4.332 1.004-4.335-1.546z"/><path fill="#e3d187" d="M208.564 39.153l1.166 50.991 4.535 2.158 3.753-8.523 4.09 19.3 39.274 18.312 2.439-49.793-33.59-32.445"/><path fill="#c2b373" d="M161.55 72.469l1.354-3.661 17.63-2.764 6.296 11.104-9.052-6.564zM147.573 72.255l-.778-4.232-14.343-2.741-6.388 8.556 7.29-4.556zM208.564 39.153l-99.697 10.548.029-24.018 49.835-8.027z"/><path fill="#6b5200" d="M225.492 184.255l-79.804-7.906-7.864 22.32 15.815 9.462 42.916-1.527 21.521 1.564z"/><path fill="#b58c00" d="M211.197 99.253l10.911 3.826-3.06 7.713-9.789-2.201z"/><path fill="#e6c729" d="M148.337 219.597h81.106l-3.417 11.023H150.99z"/><path d="M139.557 74.927c1.959.15 3.425 1.862 3.275 3.819-.15 1.956-1.86 3.423-3.817 3.273-1.959-.15-3.423-1.86-3.275-3.817.15-1.957 1.86-3.423 3.817-3.275M168.819 77.171c1.959.15 3.425 1.86 3.275 3.817-.15 1.959-1.858 3.425-3.817 3.273-1.959-.15-3.423-1.858-3.273-3.817.148-1.957 1.859-3.423 3.815-3.273" fill="#2b2b2b"/><path fill="#c2b373" d="M235.119 22.89l28.702 48.708-55.257-32.445-11.915-8.053 16.934-6.569z"/><path fill="#e3d187" d="M208.564 39.153l-99.668-13.47L175.013 1.5l38.57 23.031z"/><path fill="#876300" d="M212.445 376.225l7.015-37.142-74.501-31.359 9.877 62.328z"/><path fill="#636363" d="M190.961 227.133l-1.058 18.612 32.986-2.727 1.286-13.158-8.497-6.148-6.46-2.378z"/><path fill="#787a78" d="M195.6 232.18l13.959-2.476 2.296 7.137-8.432 4.218-7.084-2.414z"/><path fill="#474747" d="M240.643 220.546l-17.754 22.472-7.211-19.306 1.556-8.251 16.123-8.484z"/><path fill="#f5d954" d="M205.834 214.472l-14.875 12.661 24.719-3.421 17.679-16.739z"/><path fill="#e6b33b" d="M195.366 211.947l-1.422 7.65 4.249 2.883 15.509-2.069 1.598-7.138-5.285-4.086-2.395-2.103z"/><path fill="#c29929" d="M218.955 202.131l-7.027 3.06-1.913 4 3.683 11.22 9.06-7.881z"/><path fill="#f5de54" d="M207.054 204.39l-11.688 7.557 14.649-2.76 8.94-7.056z"/><path fill="#e6b038" d="M226.248 196.565l-5.392 10.765-4.279-3.322 2.78-9.928 5.712-1.564z"/><path fill="#e8cf26" d="M228.967 191.144l-2.719 5.421-11.183-.955-4.052-5.762 3.835-3.285z"/><path fill="#bd9900" d="M186.129 188.897l18.435-3.415 10.374 4.814.127 5.314-18.51 10.994z"/><path fill="#e3b33b" d="M197.382 171.152l-11.253 17.745 28.809 1.399-.09-3.733z"/><path fill="#595959" d="M128.723 198.826l-9.747 11.86 26.135 20.311 2.493.924 7.353-9.741-3.673-10.595-1.571-5.807z"/><path fill="#6b6e6e" d="M132.15 204.826l12.152 7.346-4.228 6.572-11.556-8.933z"/><path fill="#404040" d="M173.388 226.464l-25.784 5.457 1.981-11.95 1.701-8.386 8.303-4.707 16.222 3.656z"/><path fill="#e0c74d" d="M151.865 198.435l-23.142.386 22.561 12.764 24.527-1.051z"/><path fill="#d1a336" d="M143.875 190.647l-3.598 9.961 13.362 7.523 6.01-4.173-1.129-6.58-.337-3.173z"/><path fill="#b38c24" d="M169.879 198.23l-5.762-.671-3.887-.865-1.71.684-4.881 10.753 7.076.194 4.893-.842 2.154-4.14z"/><path fill="#e0c94a" d="M152.662 191.349l-8.787-.702 14.647 6.731 5.595.181z"/><path fill="#d1a133" d="M167.762 203.343l-3.645-5.797 11.507-4.973 7.943 5.002z"/><path fill="#d1bd21" d="M185.988 196.257l-2.421 1.318-12.14-6.781.914-6.985 5.047.177z"/><path fill="#ab8c00" d="M158.24 167.982l12.308 8.252 4.38 10.563-3.501 3.997-18.08-6.726z"/><path fill="#cfa333" d="M171.731 162.187l-13.491 5.797 9.698 10.747 6.99 8.066 2.46-2.811-.881-12.941z"/><path fill="#636363" d="M149.585 219.971l-1.981 11.95-3.337 5.68 32.236 7.503 5.251-12.131-6.208-8.46-5.422-4.238z"/><path fill="#787a78" d="M153.062 230.496l9.942 1.36.125 7.022-11.075-3.335z"/><path fill="#474747" d="M203.205 238.981l-26.702 6.123-.957-20.591 4.011-7.376 15.809-5.19z"/><path fill="#f5d954" d="M169.004 212.706l-19.419 7.265 25.961 4.542 19.822-12.566z"/><path fill="#e6b33b" d="M160.715 208.325l.476 11.158 13.485 1.285 3.71-6.304-3.782-5.508-1.635-2.739z"/><path fill="#c29929" d="M185.275 204.973l-7.626.764-3.045 3.219.072 11.812 10.511-5.482z"/><path fill="#f5de54" d="M167.762 203.343l-7.047 4.982 13.889.631 10.671-3.983z"/><path fill="#e6b038" d="M196.088 199.712l-10.856 10.411-2.796-4.09 5.687-8.6z"/><path fill="#e8cf26" d="M199.076 196.438l-2.988 3.27-12.521-2.133-2.095-6.725 4.657-1.953z"/><path fill="#bd9900" d="M162.368 182.209l14.301 2.512 8.403 7.755-1.503 5.099-19.452-.016z"/><path fill="#e3b33b" d="M176.507 171.045l-14.141 11.164 12.981 5.869 9.725 4.398 1.057-3.579z"/><path fill="#ffede8" d="M162.462 227.621l-14.858 4.3-1.573 10.76 8.784-1.995 8.189-8.83z"/><path fill="#f0d1cc" d="M160.059 254.295l-14.213-7.536-4.347-12.702 6.105-2.136 11.291 4.748 5.84 8.501z"/><path fill="#ffede8" d="M173.222 240.439l-14.327-3.77 1.164 17.626 14.111-5.335 5.31-4.562z"/><path fill="#f0d1cc" d="M193.766 227.187l9.439 11.794-5.429 9.421-3.587-7.528-3.397-10.985z"/><path fill="#ffede8" d="M187.645 253.1l16.891-1.462 6.896-7.367-8.227-5.29-15.938-5.598L183 244.012z"/><path fill="#f0d1cc" d="M173.222 240.439l14.043-7.056.38 19.717-13.475-4.14z"/><path fill="#ffede8" d="M128.329 216.698l-2.497 10.283 20.014 19.778 1.758-14.838-7.521-13.186z"/><path fill="#947000" d="M112.674 213.979l13.158 13.002 14.251-8.242v-.004l-13.894-24.355z"/><path fill="#f0d1cc" d="M203.205 238.981l14.361-10.213 20.268.637-7.277 12.92-26.021 9.313z"/><path fill="#947000" d="M243.423 210.381l7.815 24.543-20.681 7.401-12.991-13.557z"/><path fill="#f0d1cc" d="M160.52 98.606l8.926 6.417 20.922-2.791-20.922-.698zM142.109 99.163l-9.347 3.069-8.46-4.051 8.462 1.472z"/><path fill="#bf8f00" d="M135.154 106.084l6.725 11.368 13.61 2.242 11.848-9.928z"/><path fill="#9e7800" d="M150.366 104.963l-15.212 1.121 14.091 3.522 18.092.16z"/><path fill="#fff" d="M143.959 115.21l-3.833-7.883 9.119 2.279 11.529.103-5.926 6.782z"/><path fill="#cfa39e" d="M146.111 96.594l3.793 4.291 4.874-3.751-2.979-1.742"/><path fill="#fff5f2" d="M149.362 74.925l-3.251 21.669 8.667.54 2.709-21.396z"/><path fill="#c2b373" d="M218.018 83.779l45.803-12.181-2.439 49.793-39.274-18.312z"/></g></svg>