<svg xmlns="http://www.w3.org/2000/svg" viewBox="-152 -152 400 400"><path fill="#eaeceb" d="M-48.893-2.598l39.935 14.255-4.947-7.303-14.961-12.017-3.3-.353z"/><path fill="#cdcccb" d="M-34.876-15.202l-2.709 2.474L-10.49 9.537l3.18.943L-14.141.112l-17.082-16.138z"/><path fill="#98732c" d="M15.545-12.14L8.948 13.307l15.314 12.605 12.487-12.369-5.536-11.664 3.297-6.36z"/><path fill="#6d6e6e" d="M-9.666 19.785l-1.883 4.477 7.657-1.65 15.196-4.004L16.37 8.83l-4.948-18.849-6.125 3.417L-10.49 9.537z"/><path fill="#2b2b2b" fill-opacity=".149" d="M40.402 246.672l-78.458-15.074 43.824-4.006 40.994-3.653 76.805 14.607z"/><path fill="#eaeceb" d="M-46.774-25.804l28.156 24.621 2.474-4.594-11.781-18.024-2.591-1.297zM-21.327-43.709l-5.419 12.84-.708 3.533 10.839 16.493 3.18-1.532 2.71-13.076-5.654-14.961z"/><path fill="#cdcccb" d="M-32.284-35.228l-3.415 2.473 19.084 28.039 2.945-1.886z"/><path fill="#897a2f" d="M20.728 177.875l4.005 4.359 38.171 3.065-.593-12.368-19.2-32.75-8.245.706z"/><path fill="#aa8e30" d="M81.043 239.252h33.928l-.118-5.183-3.178-1.647H86.579l-5.653 1.647z"/><path fill="#bb8d2d" d="M22.023 88.345l1.062-6.948 7.304-2.477 46.059-1.177 5.89 1.412 6.364 5.07-13.666 64.792-15.432 8.482-27.214-42.41z"/><path fill="#aa8e30" d="M-30.752 232.304H8.83v-4.124l-3.77-1.648h-29.45l-6.479 1.648z"/><path fill="#8b792e" d="M-15.32 210.154l-15.549 18.026H8.83l-.353-11.901-2.827-4.708-15.316-5.065z"/><path fill="#aa8e30" d="M-14.494 193.192l-.826 16.962 23.797 6.125 8.716-18.492-2.709-4.359-24.385-3.888z"/><path fill="#7e5f26" d="M-14.494 159.148l-2.593 19.555 2.711 2.824 33.572 2.948 5.537-2.241 15.316-38.636-1.65-8.483-14.02-21.204-12.486 42.525-19.909-1.059z"/><path fill="#8b792e" d="M83.985 218.755l-3.059 15.314h33.927l-8.244-18.138-3.887-2.241-14.848 2.241z"/><path fill="#aa8e30" d="M71.853 198.376l12.132 20.379 22.624-2.824-2.593-23.33-6.124-3.296-23.68 4.476z"/><path fill="#b2882e" d="M-17.087 178.703l-3.416 7.777 6.009 6.712 31.687 4.595 8.483-5.536-.943-10.017z"/><path fill="#7e5f26" d="M59.84 170.573l-2.001 4.477 5.065 10.249h5.066l30.741-5.184 2.829-5.771-2.942-12.371-4.006-2.708-17.908.235z"/><path fill="#b2882e" d="M62.904 185.299l-.357 8.953 9.547 4.477 32.04-5.418 4.594-6.831-14.254-9.19z"/><path fill="#98732c" d="M-3.421 89.644l-10.955 59.725 4.71 2.708 17.081-1.53 14.491-45.118-1.178-2.001-14.136-6.953-4.595-6.949z"/><path fill="#b2882e" d="M-14.023 147.247l-5.183 5.536 4.712 6.365 30.039.941 11.426-43.941-4.948-8.012-2.944.357-14.137 38.875z"/><path fill="#ccad2d" d="M52.303 165.154L19.196 107.9l1.532-4.472 12.37 7.772 27.33 41.113 37.464-1.414 4.943 4.831-4.237 6.243-13.314-.35-5.771.585z"/><path fill="#eaeceb" d="M5.297 101.188l-1.768.235-20.261 75.274 1.294.593 1.179-1.888z"/><path fill="#8b8a8a" d="M15.545 160.089l-32.277 16.608-.355 2.006 35.813-9.543-.353-5.536z"/><path fill="#9c9fa0" d="M53.009 178.703l-8.603-2.354-1.295-2.005-3.298.706-3.064-2.119-2.121.707-7.186-2.006-1.53-2.236-2.827.942-3.653-5.066.943-4.477 7.422 1.063 1.059 1.884 4.006-1.177 2.945 2 2.239-1.293 8.48 1.176 2.121 1.883 3.656-1.177 3.883 5.419z"/><path fill="#eaeceb" d="M24.262 97.77l-6.007 6.482.824 4.241 13.311 6.596 2.12-2.829-5.536-14.255z"/><path d="M98.598 176.462l-4.124.828-14.961-14.961 1.295-4.359 4.006.942.354 2.711L97.3 173.638l1.177 2.824h.121zm-31.692-26.739l-44.647-44.648-1.648-4.477 4.004 1.888L69.5 146.191l.117 3.531-2.829-.235.118.236z" fill="#cdcccb"/><path fill="#8b8a8a" d="M109.67 130.05l-1.299 3.417-3.413-.588-5.536 3.53-.476 2.947-3.884-.353-24.032 14.844-1.295 3.181-2.712-.828-7.537 4.595-.235 2.477-3.3-.237-1.416 8.597 2.711 4.481 8.247-5.187.472-2.118 3.652-.354 1.53-2.946 2.123.588 30.158-18.728 1.058-3.3 3.536.471 1.294-2.942 2.594.47 8.95-5.422-4.948-6.243z"/><path fill="#9c9fa0" d="M116.03 107.315l1.06 3.061-2.473 2.119-2.472 8.483 1.056 2.119-2.236 1.887 5.182 6.124 5.773.829 1.534-7.306-.828-2.476 1.769-1.883-.941-3.417 1.883-1.766 1.299-6.483-4.83-2.707z"/><path fill="#dddddc" d="M20.375 160.795l-4.83-.706 3.181 9.071 10.013 2.829 3.77-9.546 2.119 11.195 9.778 2.711 7.897-11.195-5.777-.706-6.713 10.602-1.767-11.778-10.249-1.414-4.124 8.715z"/><path fill="#dddddc" d="M57.246 176.113l-1.295-13.078 9.542 7.891 7.777-4.83-2.24-12.367-4.007 2.471 2.594 12.254-10.131-7.659-7.183 4.359.706 13.549z"/><path fill="#98732c" d="M79.631 79.277L77.63 89.408l1.647 3.767-1.299 5.893-2.942 2.711-2.123 10.367 6.364 5.179 22.028 4.124 7.301-3.653 7.541-39.817-3.295-2.355-28.627 1.178z"/><path fill="#ccad2d" d="M79.631 79.277l36.516-1.298-2.588-19.791-3.183-3.767-4.006-20.97 3.065-7.657-1.299-10.131-5.772-.235-21.556 9.542z"/><path fill="#b2882e" d="M-21.918 88.231l18.497 1.413-3.889-11.543-13.9 6.36z"/><path fill="#98732c" d="M-40.882 25.088l14.961 52.42 5.065.471L6.827 60.781.467 39.814l-4.124-3.536-7.304-5.889-21.323-5.656z"/><path fill="#ccad2d" d="M-4.836 2.586l-5.654 6.951-6.007 3.062-1.65 3.771-17.552 6.124-5.183 2.594 37.225 11.19 3.533-6.597 1.415-12.017z"/><path fill="#bb8d2d" d="M25.676 44.879l1.648 37.109-10.601.585-12.017-7.42-2.238-7.305.473-8.597-3.418-10.486-.353-11.073 3.062-7.656L4 16.134l7.893.706z"/><path fill="#98732c" d="M38.399 29.092l-2.357 3.653-18.258 9.187.824 37.223 3.886 3.07 53.954-2.006 3.183-.942-2.001-8.129 3.413-6.007 2.236-21.088-2.001-11.781-3.3-12.722z"/><path fill="#bb8d2d" d="M21.317 53.593l7.892 2.594.827 5.419 6.948.352.826 5.306-9.307 4.472.236 2.119 5.418-1.29v4.943l-11.072 3.889-4.595-6.95.353-14.607z"/><path fill="#ccad2d" d="M14.72 37.928v39.23l3.182 4.591 5.183-.352-.826-32.279z"/><path fill="#bb8d2d" d="M77.743-24.627L34.628-8.016l-3.415 9.895-4.242 21.206.353 5.183 12.725 6.007 36.87-10.719 1.652-2.121 6.478-10.131 2.825-20.379z"/><path fill="#ccad2d" d="M32.509 22.731l-10.956 4.005 2.356-5.772 7.564-14.902z"/><path fill="#a0a1a0" d="M4 16.134L16.37 8.83l7.539 12.134-3.063 10.013-6.598-.588z"/><path fill="#a0a1a0" d="M14.366 35.219l9.66 12.369 3.889.235 4.947.236 5.066-4.712.118-3.651-1.062-4.242-10.013-10.957z"/><path fill="#cdcccb" d="M14.837 39.458l7.422 9.66 5.656-1.295-9.542-12.016 9.777-9.189 9.896 13.078 2.003-5.421-7.54-11.544-8.6-1.767-9.661 9.425z"/><path fill="#8b8a8a" d="M38.046 39.696l42.997 25.445-1.412 14.136-51.716-31.454z"/><path fill="#e3a733" d="M-8.252 81.514l11.781 19.909 8.011-2.473 10.483-10.605 1.062-6.948-15.316-7.778H2.586l-9.896 4.482z"/><path fill="#ccad2d" d="M-25.921 77.508l-1.886 7.188 5.889 3.535L7.769 73.619l2.003-8.949-6.831-5.419z"/><path fill="#a0a1a0" d="M97.42 173.52l-2.946 3.77 2.24 7.185 7.302-3.061 1.648-6.246z"/><path fill="#c2c1c2" d="M108.728 186.48l-3.182-11.665-8.832 9.66z"/><path d="M22.85 83.166l.235-1.769 56.546-2.119-.118 1.648-56.545 2.118-.118.122zm93.297-5.187l26.034-.941.592 1.063-2.24.584-24.738.946.352-1.652z" fill="#eaeceb"/><path fill="#8b8a8a" d="M144.775 76.919l-2.593.118-25.206 26.269 4.237 2.711 6.243-1.059z"/><path fill="#f0ba5f" d="M3.529 101.423l15.55 7.07 9.895-10.488-5.889-16.608z"/><path fill="#dddddc" d="M110.965 124.984l10.955 6.953-1.06 4.708-11.19-6.595zM103.428 147.368l8.482-5.301-2.24-12.017-4.712 2.829 3.064 11.66-8.6-8.13-4.36 2.594zM123.454 124.631l-12.489.353 1.18-4.006 12.25-.706z"/><path fill="#dddddc" d="M114.617 112.495l9.778 7.777.942-5.183-9.307-7.774zM126.636 108.606l-10.606-1.291.946-4.009 10.48 1.652z"/><path fill="#e3c521" d="M109.435 25.794l-10.367 11.19 2.355 5.656-5.89 6.832 2.707 4.356 7.424-4.945 1.651 2.003-9.075 10.249 4.952 2.824 10.367-5.771zM-35.699 22.494l6.715 2.594 5.536-1.65-3.062-2.709 4.239-1.65 8.248 4.712 4.122-3.062-6.596-8.13z"/><path fill="#bb8d2d" d="M77.63 89.408l-2.594 12.371 5.066.115 1.886-2.708h5.651l2.24-3.888z"/><path fill="#f0ba5f" d="M64.905 152.198l4.595-5.893 4.241-20.027 3.653 4.949 1.055 13.783-3.648 2.708.117 3.774-7.895 4.708z"/><path fill="#f0ba5f" d="M76.566 146.427l-2.712 5.65 11.43 9.546 12.608-10.724-2.83-11.896-5.654-.823z"/><path fill="#e3a733" d="M77.158 123.925l-3.417 2.353.113 25.799 21.208-13.074-2.358-10.719-4.002-3.536z"/><path fill="#ccad2d" d="M72.913 112.146l-6.36 6.007 2.947 7.655 35.575 3.77 5.89-4.594-2.359-7.188z"/><path d="M76.919 23.556l-36.87 10.601-7.539-11.545L83.28 1.88l-6.36 21.559v.117zm-91.533 135.473l-4.71-6.36 8.835.235-1.65 6.243-2.475-.118zm6.127-6.01l18.731.475 12.249-39.699-3.533-5.423 8.601 4.359 27.919 45.475 8.836-.471-12.014 7.42-12.609-21.792-17.435-9.189-6.831 25.916-25.564-.824 1.65-6.247zm99.779 3.303l11.43-.593-4.246 6.243-13.309-.35 6.125-5.3zM22.141 49l5.656-1.177L78.92 78.92 22.141 49zm49.953 149.729l-9.66-4.594 46.173-7.777-4.591 6.835-32.044 5.419.122.117zm-92.597-12.249l46.179 5.771-8.601 5.654-31.57-4.713-6.008-6.712zm87.056-68.327l44.412 6.831-6.007 4.594-31.104-3.3 18.736 2.006 2.353 10.719-21.325-12.725-4.237-.471-2.946-7.654h.118zm-94.478-33.575L9.654 64.552l-2.003 8.954-11.19 16.021-4.83-8.13-13.666 6.713-5.89-3.648v.116zm107.08-3.652l-55.6 2.118 45.826 2.829 3.418 26.273 6.355-31.103v-.117zm28.867-65.381L84.813 28.621l24.503-2.945-1.294-10.131z" fill="#070908" fill-opacity=".102"/><path fill="#75451c" d="M16.37 8.83L5.532-6.366l-13.43-19.555-1.768-22.383L9.301-26.748l6.244 14.608z"/><path fill="#eecec9" d="M77.743-24.627l-.471 4.124 9.307-22.147-2.001-1.885-2.59-21.086-8.482-9.66-4.124 1.177-6.364 41.585L41.814-9.31l8.718 3.415 21.797-15.314z"/><path fill="#cea19c" d="M84.578-44.535l-5.893-8.128 3.775-2.121 4.943 1.767z"/><path fill="#feeee9" d="M79.395-67.389l-.71 14.726 8.718-.354z"/><path fill="#cea19c" d="M30.506-9.901l20.026 4.006L31.473 6.062 20.136-10.019z"/><path fill="#995e26" d="M128.872 3.765l-8.012-7.893-16.374.589-7.537 9.895L85.99 28.621zM72.329-21.209l11.072-.944 13.898 2.238L95.18-3.539l-7.184 14.137z"/><path fill="#ad7038" d="M93.881-16.497l8.369 7.775 4.359 10.366L85.99 28.621l2.006-18.023z"/><path fill="#ca8d58" d="M109.67-23.095l-15.789 6.598 12.728 18.141 22.263 2.121-6.36-25.918z"/><path fill="#75451c" d="M87.403-53.017L72.329-21.209l21.552 4.712v-23.091z"/><path fill="#995e26" d="M100.363-47.362l-12.96-5.655 6.478 36.52 9.076-9.189 3.178-15.905z"/><path fill="#ad7038" d="M115.795-50.542l-12.489 6.007-9.425 28.038 28.631-5.656 3.296-26.387z"/><path fill="#ca8d58" d="M98.24-67.977l-3.885 2.709-6.952 12.251 14.02 14.138 24.385-9.661-14.726-20.499z"/><path fill="#995e26" d="M95.769-87.297l-6.832 12.722-1.534 21.558 23.679-16.022-5.653-10.013z"/><path fill="#ca8d58" d="M104.369-120.872l-13.431-2.591-9.306 5.891 9.071 30.157 6.246 4.595 14.133 13.781z"/><path fill="#ad7038" d="M77.272-112.154l-6.831 8.428v6.533l9.307 34.634 7.655 9.542 9.546-29.803-8.953-32.869z"/><path fill="#ca8d58" d="M49-111.683l5.892 6.716 15.549 1.241 17.555-11.963-4.717-5.654-26.857-7.186-7.775 10.013z"/><path fill="#995e26" d="M70.441-143.961l-8.718 2.474-5.889 11.899 2.353 4.594 29.809 9.305 16.373-5.183zM2.115-139.837l-15.785 20.38 12.134.117 7.657-2.592 4.359-11.309z"/><path fill="#ad7038" d="M-24.036-115.689l3.298 10.722 8.245 10.837 23.091-11.308 3.415-7.657 2.239-3.418-3.298-8.245-5.303-2.592z"/><path fill="#ca8d58" d="M-27.571-86.944l-1.531 11.663 7.304 27.448 12.132-.471.708-52.349-15.078-15.036z"/><path fill="#ad7038" d="M-37.231-62.794l9.66-24.15 6.833 32.868-10.131.589z"/><path fill="#995e26" d="M-27.69-46.774l-9.541-16.02 16.493 8.718-2.239 12.485z"/><path fill="#ca8d58" d="M-28.043-13.317l.353-33.457 6.952-7.302 9.189 22.736-9.072 1.059-.589 14.726z"/><path fill="#995e26" d="M-10.961 7.769l-17.082-21.086 7.422-16.964 7.422 20.144z"/><path fill="#ad7038" d="M-20.621-30.281l9.542 15.432L3.412 26.854-.477 48.765z"/><path fill="#995e26" d="M5.297-6.602L-2.362-28.16l-7.304-20.144-11.072-5.772.117 23.795 5.419 8.601 10.131 7.539z"/><path fill="#ca8d58" d="M3.412 26.854L5.297-6.602l-25.918-23.679zM2.115-139.837l11.898 26.742 5.772 5.065 9.777.589 6.127-4.713 4.477-30.156-4.359-8.366z"/><path fill="#ad7038" d="M70.441-143.961l-34.634-6.715-6.245 43.235 15.317.47 6.125-6.95zM-8.958-100.653l3.298 10.411 5.419 52.658-5.836 8.835-14.661-25.327z"/><path fill="#feeee9" d="M50.532-5.895H15.791L-6.077-28.749-8.958-90.36l6.478-11.192 16.493-11.543 36.991-.826 19.437 10.195-.47 30.311-1.888 43.487z"/><path fill="#ca8d58" d="M70.441-103.726l-.47 30.311 17.432 20.398zM69.971 25.323l23.91-41.82-10.602 60.55z"/><path fill="#cea19c" d="M28.739-39.706l-7.422-6.124 6.007-2.71 5.656 2.71z"/><path fill="#b2882e" d="M13.247-32.048h6.833l7.835-1.466 6.535.877 11.663.118-18.259 4.477z"/><path fill="#e3c521" d="M13.247-32.048l13.664 2.238 19.202-2.709-17.67 7.539z"/><path fill="#eecec9" d="M8.006-80.817L-2.715-77.99 12.01-65.621l9.307 19.791 2.945-24.268-2.474-4.124zM46.409-81.761l-13.193 7.422-2.945 4.006L32.98-45.83l12.37-19.791 14.49-13.193z"/><path fill="#75451c" d="M-2.715-77.99l11.78-4.713 10.955 4.242 1.768 4.239-13.076-4.83zM35.336-79.522l-2.12 5.183 14.961-5.537 11.663 1.062-10.957-4.595z"/><path fill="#fef4f2" d="M30.271-70.333L32.98-45.83H21.317l2.945-24.268z"/><path fill="#cea19c" d="M14.013-113.095l-22.971 12.442v10.293z"/><path d="M12.01-69.627c2.212 0 4.006 1.794 4.006 4.006s-1.794 4.004-4.006 4.004-4.004-1.792-4.004-4.004c0-2.212 1.792-4.006 4.004-4.006zM45.35-69.627c2.212 0 4.004 1.794 4.004 4.006s-1.792 4.004-4.004 4.004c-2.212 0-4.006-1.792-4.006-4.004 0-2.212 1.794-4.006 4.006-4.006z" fill="#2b2b2b"/></svg>