<svg xmlns="http://www.w3.org/2000/svg" viewBox="0 0 900 350"><path fill="#D0CECD" d="M485.042 83.125L502.5 68.5l168.621-28.602 223.947 20.698L885.5 280.5l-398.458-38.375z"/><path fill="#CDAE2C" d="M485.042 83.125l17-52.5L897.5 1.5l-2.432 59.096L502.5 68.5z"/><path fill="#C4C4C2" d="M4.5 60.5l345.995-12.666L502.5 68.5l-.458 180.625L21.5 329.5z"/><path fill="#B38C2E" d="M.5.25l501.542 30.375.458 37.875-498-8z"/><path opacity=".1" fill-rule="evenodd" clip-rule="evenodd" fill="#2C2B2B" d="M284.167 332.5l-63.239-4.673 8.905-1.994-74-11L47.5 275.5l-28.667 14 2.667 40 24.667 11 88.333 9.75 24.769-8.619 48.649 3.786z"/><path fill="#2B2C2B" fill-opacity=".102" d="M461.324 325.973l-59.756-10.532-64.573 7.954 43.765 12.448zM461.833 285.167L369 307l295.5 27.5 113-47.333-49-5.667zM736.5 316l79-5.5 59 15.5-67.5 13z"/><path opacity=".1" fill="#2C2B2B" d="M86.5 128l-36-28.5-8 117 91-8.5-1.5-27.5z"/><path fill="#DDDDDC" d="M84.5 141l-33 43.5 5.167 21.167 88.5-5.834L141 172.667z"/><path fill="#ECECEB" d="M50.5 99.5l1 85 89.5-11.833-2-73.167z"/><path fill="#CDAE2C" d="M68 129.833l-6.5-12 9.167-.166 2.166-8.334 9.667 5.334 4.333-6.5 4.667 13.5z"/><path fill="#DDDDDC" d="M62.833 142.5l68-1 .167 5.333-68.333.5zM62.833 154.667l68-1L131 159l-68.333.5zM63.167 167.333l68-1 .166 5.334-68.333.5z"/><path fill="#D0CECD" d="M66.369 188.82l67.919-3.47.361 5.323-68.27 2.983z"/><path fill="#DDDDDC" d="M99 116.5l30.333.167-.333 4.666-30.333-.666z"/><g><path fill="#BA8F2E" d="M178.5 315.375l-.875 10.375-13-.75-2.96-7.5z"/><path fill="#9D782C" d="M52.999 317.667l3.833 15.166 14.5-3.5 4.5-15.166z"/><path fill="#E2AA3F" d="M107.332 314.833L132.499 338l12.122-3.171 1.544-8.662L178 316.5l-.375 9.25 4.443-1.28 23.264-29.97-8-20.667-86.667 21.334z"/><path fill="#BA8F2E" d="M43.665 284.667l1.167 47.5 12 .666 3-8.833 55.667 3.167 2.166 9.666L132.499 338v-30.5z"/><path fill="#C4C4C2" d="M98.999 288l33.5 19.5 76.5-13.5 5-33.833h-90.667z"/><path fill="#9B9FA0" d="M135.332 259.833L133.999 272l-1.5 35.5-98-9.5 8.166-34.167z"/><path fill="#ECECEB" d="M42.665 263.833L133.999 272l76.501-9-67.5-9z"/><path opacity=".1" fill="#2C2B2B" d="M91.5 264.25l27.375-4.375 27.5.625 4.75 7 22.625 15 1.5 5-36.583 6.5L141 271.125 138.5 269l-7-.625z"/></g><g fill-rule="evenodd" clip-rule="evenodd"><path fill="#E2AA3F" d="M142 268.625l-1 2.5 2.625 18.375 33.875-4.562-5.562-18.375z"/><path fill="#F0BC66" d="M120.75 265.75l20.25 5.375 30.938-4.562-17.813-4.688z"/><g fill="#FFD9A6"><path d="M154.035 279.515l-4.263-.224.711-.972h2.841l-1.196-1.608-1.278.056-.255-1.402h-1.047l-.11 1.568-2.021 2.022 1.084 1.607h3.253l.112 1.047-3.365.486.187 1.496 2.339-.144.091 1.303 1.72-.112-.58-1.266.692-.043zM154.184 277.683l1.047-2.393 3.477-.224.972 3.477-2.318 2.468 2.805-.224.112 1.42-4.038.935-.561-2.43 2.056-2.468-.635-1.533-1.72 1.085zM164.294 275.697l-1.467-1.379-2.2.203-.611 3.407.611 2.271 2.078 1.784 1.833-.324.937-2.96-1.181-3.002zm-.896 4.015l-1.1-.284-.652-1.663.448-.933h.53l.774.608.367 1.5-.367.772zM170.165 274.837l-1.466-1.379-2.2.203-.611 3.407.611 2.271 2.078 1.784 1.833-.324.937-2.961-1.182-3.001zm-.897 4.015l-1.1-.284-.652-1.663.448-.933h.53l.774.608.367 1.501-.367.771z"/></g><g fill="#FFD9A6"><path d="M141.688 268.094l-1.594-.813-2.438.657 3.594 1.687 4.219-.812-1.375-.969zM144.203 266.203l1.344 2.531 1.594-.313-.188-.75 1.375-.281 1 .594 2.281-.531-4.25-1.969-3.156.719zm2.453.86l-.156-.547.781-.266.578.563-1.203.25zM154.516 264.75l-1.172-.562-4.203.875 1.359.718 1.078-.25 1.625 1.375 2.094-.468-2.344-1.329zM159.75 264.734l-1.562.469-.516-.265 1.375-.438-.781-.391-1.282.454-.421-.25.921-.5-.75-.36-2.25.516 3.485 1.984 2.969-.656z"/></g></g><g><path fill="#AC923A" d="M111.725 225.597l2.236-4.93 4.414 1.458-.458 6.797-6.249 1.548z"/><path fill="#8D7C2F" d="M110.005 232.133l-1.147-3.211.516-7.051 4.587-1.204-.201 8.155z"/><path fill="#C4A24C" d="M116.77 244.517l5.848-7.453-4.701-8.142-4.157-.1-8.885 11.803z"/><path fill="#AC923A" d="M105.075 242.911l-4.243-6.306 8.026-7.683 4.902-.1-4.385 8.303zM106.336 245.663l4.672 19.837 12.212-2.752-.602-25.684-13.243.061z"/><path fill="#8D7C2F" d="M100.832 236.605l.029 27.003 10.405 1.892-1.891-28.375z"/><path fill="#C4A24C" d="M112.125 245l8.826-.483-.115 7.109-7.51.573z"/><g><path fill="#AC923A" d="M135.725 226.597l2.236-4.93 3.784 1.261.172 6.994-6.249 1.548z"/><path fill="#8D7C2F" d="M134.005 233.133l-1.146-3.211-1.359-7.047 6.461-1.208-.201 8.155z"/><path fill="#C4A24C" d="M140.77 245.517l5.848-7.453-4.701-8.142-4.157-.1-5.246 11.911z"/><path fill="#AC923A" d="M129.075 243.911l-4.243-6.306 8.027-7.683 4.901-.1-.43 8.127z"/><path fill="#AC923A" d="M130.336 246.663l4.672 19.837 13.492-2.875-1.882-25.561-9.288-.115z"/><path fill="#8D7C2F" d="M124.832 237.605l-1.207 27.895 11.641 1 2.064-28.551z"/><path fill="#C4A24C" d="M138.42 246.033l7.281-.516.424 7.733-8.049-.051z"/></g></g><g><path fill-rule="evenodd" clip-rule="evenodd" fill="#D6A393" d="M755.737 157.282l-4.654 4.351-15.554-2.392 6.708-22.459 10.687 6.444z"/><g fill-rule="evenodd" clip-rule="evenodd"><path fill="#ECECEB" d="M759.362 140.407l-4.167-24.166-24.166-.334-4.667 24.334 13.107 12.751-.9 19.918-7.082 2.997 7.386 4.261 13.239-2.511-7.843-5.27-.092-18.611z"/><path fill="#E4C821" d="M754.362 139.074l-9.305 8.343-6.695-.176-7.167-8.5 1.555-8.616 19.75.125z"/></g><path fill-rule="evenodd" clip-rule="evenodd" fill="#FEE5D6" d="M753.333 159.5l5.105-6.625-5.514-9.649-10.187-3.069-1 4.75 4.376 2 2.577 7.179zM740.195 141.074l-10.583 2.333 5.917 15.834 5.833-2z"/><path fill="#B38C2E" d="M782.127 312.141l-14.808 4.237-.128 4.237 31.241.171.171-4.151z"/><path fill="#CCAE2C" d="M788.289 303.025l-3.476 3.883-17.494 9.47 31.284.257-.171-7.49z"/><path fill="#B38C2E" d="M835.794 322.605l-8.603 2.321v3.831l21.377.139.086-3.788z"/><path fill="#F5CBB3" d="M876.454 233.391l-5.59.608-2.817 9.735 3.016 3.196 4.256-8.998-.444 8.193 3.25 10.125 8.5-4.625.719-12.531z"/><path fill="#FEE5D6" d="M873.625 222.659l6.125 5.008 7.688 11.458-12.563 7-5.179-14.721zM843.747 191.592l10.257-20.655 17.867 31.816-8.465 11.306-4.631-.521L847.6 201.51z"/><path fill="#F5CBB3" d="M804.565 180.177l-4.107-11.214-35.578 2.72 16.794 16.372 19.198 2.758z"/><path fill="#B38C2E" d="M802.117 193.09l-4.712 6.753 7.618 27.79 18.417 7.985 24.167-8.055 1.526-25.207z"/><path fill="#CDAE2C" d="M809.859 169.372l-9.401-.409-3.053 30.88 51.728 2.513 4.871-31.419-9.477-.552-27.089 9.161z"/><path fill="#FEE5D6" d="M809.859 169.372l-.082 19.651 26.536.789 8.214-19.427-2.828-.307-27.026-.706z"/><path fill="#494749" d="M841.699 170.078l12.305.859 10.847-40.272-6.932-3.148-9.322 6.285-10.668 14.15z"/><path fill="#F5CBB3" d="M841.699 170.078l-9.503 4.04-8.053-5.325 10.808-59.063 3.32-1.147 1.699 3.128 6.32 33.714z"/><path fill="#C3927D" d="M848.633 136.447l-2.343 8.978-5.677-12.048 4.411-.168z"/><path fill="#494749" d="M779.902 101.377l10.896 29.885 2.236-10.362-4.2-13.819-1.1-6.99z"/><path fill="#6F7273" d="M801.315 76.402l-21.413 24.975 8.932 5.704 14.063-6.246 7.559-5.668 8.36-9.33-8.761-5.643z"/><path fill="#6F7273" d="M836.644 76.372l-17.738 3.304-7.516.314-.671 7.33-.186 11.965 8.9 4.432 15.861-10.749z"/><path fill="#FEE5D6" d="M840.613 133.377l.759-5.545.33-13.169 11.405 7.84-4.474 13.944z"/><path fill="#C3927D" d="M848.802 126.064l1.149 3.935-5.852 2.104 2.247-6.914z"/><path fill="#494749" d="M862.215 95.571l-25.571-19.199-17.211 27.345 6.911 7.022 8.607-1.009 5.019 1.981 14.91-.996z"/><path fill="#C3927D" d="M819.83 178.958l12.366-4.84 4.753-15.161-4.539-1.229-36.565-1.477 15.084 6.359z"/><path fill="#494749" d="M841.306 127.909l-4.186-17.853 6.562-1.731zM801.315 76.402l9.141 18.765 8.978-15.491z"/><path fill="#FEE5D6" d="M834.951 109.73l-2.541 47.998-39.623 1.031-3.953-51.678 21.622-11.914 8.977 8.55z"/><path fill="#C3927D" d="M810.028 132.417l-2.975 1.014 2.991 3.499 3.001-3.619z"/><path fill="#F5CBB3" d="M793.603 115.051l3.448-.869 7.897 2.633 1.811 2.591 2.528 7.248-2.07 4.041s-5.8-9.278-5.847-9.655c.005-.269-7.767-5.989-7.767-5.989zM813.045 119.559l-2.088 5.566 2.251 8.104 7.349-11.264 7.504-6.659-4.254-1.2-9.647 2.784z"/><path fill="#FFF1E9" d="M806.759 119.405l6.286.154v13.752l-5.992.12z"/><path fill="#494749" d="M793.94 112.781l-.429 2.239 11.437 1.795.175-3.676zM814.486 113.139l-.489 3.833 14.064-1.666-.94-2.341z"/><path fill="#2B2C2B" d="M800.778 119.038c1.302-.017 2.371 1.025 2.388 2.327.017 1.302-1.025 2.372-2.327 2.389-1.302.017-2.371-1.025-2.388-2.328-.016-1.303 1.025-2.371 2.327-2.388zM820.369 118.786c1.302-.017 2.371 1.026 2.388 2.327.017 1.302-1.025 2.372-2.327 2.388-1.302.017-2.371-1.025-2.388-2.328-.017-1.301 1.025-2.371 2.327-2.387z"/><path fill="#6F7273" d="M864.851 130.665l-2.636-35.094-25.095 14.485 12.24 24.014z"/><path fill="#FFF" d="M810.03 141.515l-8.014.409 8.463 6.256 10.509-6.419z"/><path fill="#E4C825" d="M799.889 141.842l10.836 8.996 12.062-9.282-3.149.041-8.954 5.438-8.178-5.397z"/><path fill="#B48C2E" d="M810.223 139.969l-10.456 1.833 10.75.886 12.27-1.132z"/><path fill="#FEE5D6" d="M754.25 167.625l8.875 17.667 18.549 2.763-18.424-27.43-5.432.45z"/><path fill="#F5CBB3" d="M870.864 233.999l-12.089-20.461 13.096-10.785 7.879 24.914z"/><path fill="#F5CBB4" d="M849.261 279.985l-3.895 33.384-1.659 10.52-7.7.083-3.166-10.718-4.794-34.066z"/><path fill="#C3937D" d="M848.348 288.27l-.082.166-18.507 2.735-2.225-11.641 8.308 1.365z"/><path fill="#F5CBB4" d="M817.776 271.655l-19.344 37.49-13.632-2.214 8.544-33.822z"/><path fill="#C3937D" d="M815.037 277.989l-5.82 9.929-16.453-12.488 6.131-.663z"/><path fill="#F0BC66" d="M805.023 227.633l42.584-.07 4.717 22.933-26.757-11.264z"/><path fill="#E2AA3F" d="M792.682 275.43l46.967-7.538 12.675-17.396-47.301-22.863z"/><path fill="#C89136" d="M792.682 275.43l55.832 12.92 3.81-37.854z"/><path fill="#CCAE2C" d="M827.191 324.926l5.65-11.672 12.485.428 3.349 11.49z"/><path fill-rule="evenodd" clip-rule="evenodd" fill="#CDAE2C" d="M758.438 152.875l-7.355 8.758 3.167 5.992 9-7z"/></g><g><path fill-rule="evenodd" clip-rule="evenodd" fill="#D6A393" d="M664.992 159.558l6.841 4.525 17.162-2.199-7.968-26.676-12.694 7.654z"/><g fill-rule="evenodd" clip-rule="evenodd"><path fill="#ECECEB" d="M664.085 140.333l4.166-24.166 24.167-.334 4.667 24.334-13.107 12.751.9 19.918 7.082 2.997-7.387 4.261-13.238-2.511 7.843-5.271.091-18.61z"/><path fill="#E4C821" d="M669.085 139l9.304 8.343 6.696-.176 7.166-8.5-2.876-14.292-17.875.875z"/></g><path fill-rule="evenodd" clip-rule="evenodd" fill="#FEE5D6" d="M668.109 161.191l-5.276-8.691 5.063-8.687 11-4.125 1.937 4.125-5.812 6-1.659 5.948zM682.083 139.917l12 3.271-5.088 18.696-6.412-3.467z"/><path fill="#9D782C" d="M615.436 173.5l9-23.25L652 173l-18.064 20.75-10.25-4.25zM584.436 166.75l-22.5-15-10.75 4.25-13.75 32.75 23.25 10.25z"/><path fill="#B38C2E" d="M573.436 154.75l-16.25 34 1.5 28 62-.25 3-27z"/><path fill="#CDAE2C" d="M570 148.333l-8.064 3.417-4.75 37 66.5.75.75-39.25-7.186-2.75z"/><path fill="#E4C821" d="M579.936 144L570 148.333l-1 19.417 15.387-12.088 23.863 12.088 9-20.25-8.406-2.974z"/><path fill="#E2AA3F" d="M551.816 53.892l-1.405 13.66 6.957-.165 12.079-7.376 1.014-10.788-1.894-5.519z"/><path fill="#BA8F2E" d="M609.157 52.212l-40.59-8.508-.39 15.221-1.22 2.746 31.441 8.759 12.216.411zM634.707 89.833l-4.788-9.209-12.62-2.356-10.603 7.099.646 7.468 4.333 8.944zM524.175 90.162l26.179 15.544-.27-5.864.369-17.241-4.241-3.32z"/><path fill="#E2AA3F" d="M524.175 90.162l23.328-2.399 1.844-8.666-1.107-3.504-4.61-3.227z"/><path fill="#F5CBB3" d="M591.667 120.219l-15.951 19.362 8.671 16.081 24.457-11.136 1.952-24.483-2.624-7.938-13.846-32.573-3.397 13.303z"/><path fill="#C3927D" d="M602.824 114.318l7.972 5.725.453-4.918-3.077-3.02z"/><path fill="#494749" d="M593.858 85.776l3.516 21.787 5.173.486 9.128-6.27-1.013-14.844-2.03-4.703-17.425-3.596z"/><path fill="#E2AA3F" d="M610.614 70.841l-15.443 6.412-1.313 8.523 16.804 1.159 19.257-6.311z"/><path fill="#CDAE2C" d="M561.886 63.237l6.291-4.312 42.437 11.916-8.528 1.709-39.278 1.384-2.305-2.214z"/><path fill="#F4D75B" d="M549.678 73.912l3.818.206 14.369.184.312-15.377-17.766 8.627z"/><path fill="#BA8F2E" d="M543.63 72.366l66.984-1.525-16.756 14.935-6.713 4.684-36.139-.852-3.503-1.845z"/><path fill="#FEE5D6" d="M548.065 140.363l20.502-.104 11.449 5.1 13.425-5.412.417-54.171-46.355 1.987z"/><path fill="#F5CBB3" d="M551.785 101.465l2.397-2.441 9.036 2.212.354 2.701 1.675 6.612-3.689 4.149-3.964-9.405zM570.493 103.989l-2.204 6.098 2.306 4.15 5.993-9.405 7.376-4.149-3.227-3.042-9.866 3.688z"/><path fill="#C3927D" d="M564.97 113.13l-3.412 1.568 4.795 4.241 4.608-3.97z"/><path fill="#FFF1E9" d="M563.676 103.937l-2.118 10.761 9.403.271-.468-10.98z"/><path fill="#494749" d="M551.785 97.797l-.078 3.903 11.511-.464-.349-2.424zM571.221 98.655l-.35 2.674 13.093-.646.059-3.589z"/><path fill="#2B2C2B" d="M557.594 103.173c1.171 0 2.121.95 2.121 2.121s-.95 2.121-2.121 2.121-2.121-.95-2.121-2.121c0-1.172.95-2.121 2.121-2.121zM577.694 102.435c1.171 0 2.121.949 2.121 2.121 0 1.171-.95 2.121-2.121 2.121s-2.121-.95-2.121-2.121.95-2.121 2.121-2.121z"/><path fill="#FEE5D6" d="M611.675 101.779l-9.312-.277.461 12.816 8.425.807z"/><path fill="#C3927D" d="M605.774 104.637l3.689.092-3.412 5.901z"/><path fill="#FEE5D6" d="M556.391 122.228l21.699-.858-4.917 10.537-11.396.234z"/><path fill="#C3927D" d="M556.703 122.697l22.48-.313-6.01 9.835-10.069-.078z"/><path fill="#FFF" d="M559.877 124.336l15.741-.364-1.977 3.59-11.474.104z"/><path fill="#C3927D" d="M568.567 140.259l24.874-.312 6.453-.312-15.507 16.027z"/><path fill="#F5CBB3" d="M662.833 152.5l-28.897 41.25 19.397 9.25 18.5-38.917z"/></g><g fill-rule="evenodd" clip-rule="evenodd"><path fill="#B68235" d="M429.332 287.167l8.667 19.333 17.333-4 15.667-29.667-41.667 1.667z"/><path fill="#CD953A" d="M729.665 283.833l3.168 11.667-20-1.667-13.333-17.666 35.165-4.667z"/><path fill="#E2AA3F" d="M758.5 230l-8 59.167-17.667 6.333-5-15.333-45.834 15.583-4.834 17.917-21.166 7.833-31.334-60.667z"/><path fill="#CD953A" d="M410.999 249.167l13.626 57.375 13.374-.042 5.666-21.667 174.667 13.334 4.667 20 33 3.333 3.333-75.333z"/><path fill="#B0B0B0" d="M670.665 220.833L774.25 219l-1.083 32.167-115 31.666-22.168-45.333z"/><path fill="#9B9FA0" d="M522.999 216L406.57 229.306l-8.571 37.527 260.168 16 1.832-40.333z"/><path fill="#ECECEB" d="M406.57 229.306L659.999 242.5 774.25 219 567.5 205.5z"/><path fill="#2B2C2B" fill-opacity=".102" d="M487.75 228.75l61 5.75 15.75-4.333 59 7 18.333-7 20.334 2.333L699.5 225l-46.333-4.5-15 4.667-99.667-5.334z"/></g><g><path fill="#F5CBB3" d="M590.769 208l7.667-8.833 13.625 7.083-1.125 10.417-14.167 4z"/><path fill="#FEE5D6" d="M573.936 205.167l5.5-4.417 19-1.583-1.667 21.5-19.333-6.417z"/><path fill="#F5CBB3" d="M537.436 188.75l42 12-2 13.5-40.812-4.333z"/></g><g><path fill="#9D782C" d="M566.917 220.583l4.25-4.416-42.417-5.042-20.417 2.708 41.5 12.834z"/><path fill="#C1A531" d="M554.583 214.583l4.25-5.5 2.667 3.334-.5 8.916-5 1.25z"/><path fill="#E4C821" d="M549.75 209.333L550 221.5h8.5l.333-12.417z"/><path fill="#CDAE2C" d="M539 212.875l-7.375-3.75-2.875 2 4.75 10.125 10.5.25z"/><path fill="#E4C821" d="M540.125 222.75l-8.5-13.625 9.875-1.5L550 221.5z"/><path fill="#CDAE2C" d="M521.125 212.25l-4.375-2.5-1.375 3.5 4.625 8.375 7.625-.625z"/><path fill="#E4C821" d="M523.75 220.5l-7-10.75 5.75-1.375 12.375 12.25z"/><path fill="#CDAE2C" d="M529.5 223.5l20.5-2 21.167-5.333-1.667 7.5-19.667 6.5z"/><path fill="#9D782C" d="M629.665 223.167l5.5-4.667-39.833-2-22.333 5.167 38 6.833z"/><path fill="#E4C821" d="M590.499 217.667l-2.834-4.834-11 9.5 13.5 5z"/><path fill="#CDAE2C" d="M602.332 219l-4.833-3.5-9.834-2.667-6 11.334 22.167 1.5z"/><path fill="#E4C821" d="M600.832 226l-3.333-10.5 13.376.313-2.543 8.854z"/><path fill="#CDAE2C" d="M619.665 226.333l4.334-11-13.124.48-7.043 9.854z"/><path fill="#E4C821" d="M625.332 223.333l-1.333-8-6.667 8.667z"/><path fill="#CDAE2C" d="M601.499 226.5c.667 0 15.833-2.5 15.833-2.5l17.833-5.5-.5 8.667-20.167 4.667-12.999-5.334z"/><path fill="#AC923A" d="M667.087 177.444l1.601-6.506 6.165 1.772.221 9.023-8.061 1.997z"/><path fill="#8D7C2F" d="M664.869 185.874l-1.48-4.141.666-9.097 4.633-1.698 1.025 10.666z"/><path fill="#C4A24C" d="M673.595 201.849l7.544-9.614-6.065-10.502-5.361-.129-6.767 15.364z"/><path fill="#AC923A" d="M658.508 199.778l-5.472-8.135 10.353-9.91 6.324-.129-.555 10.483z"/><path fill="#AC923A" d="M660.135 203.328l6.028 25.589 15.752-3.55-.776-33.132-11.981-.148z"/><path fill="#8D7C2F" d="M653.036 191.643l.037 34.833 13.423 2.441 2.662-36.83z"/><path fill="#C4A24C" d="M670.563 202.514l9.393-.665-.148 9.17-9.688.74z"/><path fill="#B38C2E" d="M572.999 221.667L617.332 224l-2.833 7.833-38.167-2.666zM508.333 213.833L514 227.5l35.833 2.667.167-8.667z"/></g><g><path fill-rule="evenodd" clip-rule="evenodd" fill="#D6A393" d="M271.626 193.75l10.816 5.903 10.433-3.278-7.749-23.125-10.686 6.444z"/><g fill-rule="evenodd" clip-rule="evenodd"><path fill="#ECECEB" d="M268.75 178.75l3.418-26.042 24.167-.333 3.79 25.875-12.231 11.21.9 19.918 7.082 2.997-7.386 4.261-13.239-2.511 7.843-5.271.092-18.61z"/><path fill="#E4C821" d="M273.001 175.542l9.305 8.342 6.695-.176 7.167-8.5-1.001-3.875h-21.5z"/></g><path fill-rule="evenodd" clip-rule="evenodd" fill="#FEE5D6" d="M274.251 195.125l-4.126-6.5 6.042-10.208 7.208-4.167 2.375 3.5-4.375 5.333-.417 5.417zM287.168 177.542l12.957.708-7.25 18.125-6.874-2.667z"/><path fill="#EAECEB" d="M262.108 206.653l1.5-11.25 6.75-7.5 12.084 11.75-5.75 7z"/><path fill="#494749" d="M254.858 85.219l9.882 7.934-12.882 31.816z"/><path fill="#C3927D" d="M232.983 157.278l-5.417 11.338-14.187 12.287-23.896-21.125 8.942-9.291 3.002-1.303 14.496 4.531h8.439z"/><path fill="#F5CBB3" d="M189.398 167.513l16.085 14.578 7.875-2.021-20.875-21.667 6-1.5 17.44-3.188-16.139.202-.056-60.198-8.212 3.002-6.569 27.296-4.089 14.803z"/><path fill="#C3927D" d="M180.858 138.82l7.5-10.351-3.072-3.15-6.689 4.127z"/><path fill="#484749" d="M196.386 96.381l-9.694 26.088-2.084-5.587h-5.041l-4.459-2.413-3.639-16.446 6.739-4.247h13.818z"/><path fill="#FEE5D6" d="M185.505 114.439l2.853 14.03-9.761.977-3.489-14.977z"/><path fill="#C3927D" d="M182.774 117.298l.85 6.456-5.211-6.456z"/><path fill="#4F5353" d="M250.25 64.5l14.49 28.653-7.08 2.605-4.02-.339-8.948-12.629 3.568-11.439z"/><path fill="#6F7273" d="M218.699 81.714l25.483 4.247 4.417-3.907L250.25 64.5l-40.726-3.853-.679 5.211z"/><path fill="#484749" d="M219.945 83.073v-5.55l-10.421-16.876-30.166 13.447 9.27 6.374 19.537 10.024 6.4-4.191z"/><path fill="#4F5253" d="M210.204 90.209l-2.039-3.228-29.182-12.762-7.514 23.804 24.917-1.642 5.211.51z"/><path fill="#FEE5D6" d="M253.858 158.028l-55.375-1.125-2.097-60.522 23.559-18.858 28.654 4.531 9.061 13.704z"/><path fill="#F5CBB3" d="M230.947 110.571l4.599-1.98.25-4.438 10.894-1.397 2.481 1.272-15.166 25.174zM225.233 108.341l-.346 19.842-14.95-26.447 4.417-2.152 10.567 3.944z"/><path fill="#C3927D" d="M230.733 132.653l4.75-4.625-5.216-1.318-5.38 1.473z"/><path fill="#FFF1E9" d="M235.546 108.591l-10.313-.25-.346 19.842 10.596-.155z"/><path fill="#2A2A2A" d="M238.818 114.478c0 1.699 1.416 3.115 3.115 3.115 1.699 0 3.115-1.416 3.115-3.115 0-1.699-1.415-3.115-3.115-3.115-1.699 0-3.115 1.416-3.115 3.115zM214.184 113.459c0 1.755 1.416 3.115 3.114 3.115 1.7 0 3.115-1.359 3.115-3.115 0-1.699-1.415-3.115-3.115-3.115-1.698 0-3.114 1.416-3.114 3.115z"/><path fill-rule="evenodd" clip-rule="evenodd" fill="#BC902D" d="M178.059 234.717l-10.511-15.766-11.336-6.914-16.043 2.768 27.273 33.015 6.744-7.297z"/><path fill-rule="evenodd" clip-rule="evenodd" fill="#F5CBB3" d="M170.59 251.31l8.511 8.351 6.425-8.074-4.149-8.022z"/><path fill-rule="evenodd" clip-rule="evenodd" fill="#EAECEB" d="M167.442 247.82l4.854 5.333 7.978-8.757 2.211-3.873-4.426-5.806z"/><path fill-rule="evenodd" clip-rule="evenodd" fill="#846528" d="M259.608 205.653l-20.706-31.503-3.319 29.591 5.257 14.105 14.656-6.086z"/><path fill-rule="evenodd" clip-rule="evenodd" fill="#EAECEB" d="M227.566 168.616l-11.895 56.418-6.638-45.354 4.325.39 3.167 1.042z"/><path fill-rule="evenodd" clip-rule="evenodd" fill="#FFF" d="M215.671 225.034l-2.313-44.964-14.375-.917-9.585-11.64z"/><path fill-rule="evenodd" clip-rule="evenodd" fill="#765A24" d="M236.414 253.245l-10.233 19.635-14.601-.718-20.524.718-7.741-24.335 33.464-9.128z"/><path fill-rule="evenodd" clip-rule="evenodd" fill="#B38C2E" d="M242.525 255.653l-6.111-12.478-6.389 16.312-18.445 12.675 3.778 28.241 10.565 21.04 11.81-25.665z"/><path fill-rule="evenodd" clip-rule="evenodd" fill="#846528" d="M215.358 300.403l3.909 29.234 15.923-10.157 2.543-23.702z"/><path fill-rule="evenodd" clip-rule="evenodd" fill="#B38C2E" d="M211.58 272.162l-15.055-12.009-8.788-21.954-8.683 20.788 2.054 38.041 3.414 37.876 19.836-35.376z"/><path fill-rule="evenodd" clip-rule="evenodd" fill="#846528" d="M204.358 299.528l-23.25-2.5.96 27.442 8.457 4.85 7.169-3.745z"/><path fill-rule="evenodd" clip-rule="evenodd" fill="#CBCAC8" d="M227.566 168.616l-14.208 11.454 10.084 8.083z"/><path fill-rule="evenodd" clip-rule="evenodd" fill="#EAECEB" d="M200.004 190.549l13.354-10.479-23.897-12.578z"/><path fill-rule="evenodd" clip-rule="evenodd" fill="#CDAE2C" d="M238.902 174.15l-11.336-5.534-11.895 56.418 15.687-8.131 11.693-14.546z"/><path fill-rule="evenodd" clip-rule="evenodd" fill="#CDAE2C" d="M177.781 171.935l-4.146 18.531 8.296 15.763 13.177 15.299 20.563 3.506-26.273-57.521z"/><path fill-rule="evenodd" clip-rule="evenodd" fill="#846528" d="M196.525 260.153l20.807-14.653 3.869-9.125-5.53-11.341-22.4-1.657-15.212 11.34 4.149 19.635z"/><path fill-rule="evenodd" clip-rule="evenodd" fill="#9D782C" d="M181.931 206.229l-5.808.277-.276 5.254 2.212 22.957 37.966-2.397-.354-7.286z"/><path fill-rule="evenodd" clip-rule="evenodd" fill="#846528" d="M167.548 218.951l14.383-12.722-4.15-34.294-37.612 42.87 14.105 2.211z"/><path fill-rule="evenodd" clip-rule="evenodd" fill="#B38C2E" d="M241.692 240.153l1.359-37.796-27.38 22.677.354 7.286z"/><path fill-rule="evenodd" clip-rule="evenodd" fill="#9D782C" d="M242.525 255.653l-.604-21.937-25.896-1.396 1.307 13.18 12.693 13.987z"/><path fill="#9D782C" d="M197.824 334.291l6.779 2.916-.313 3.39-24.401.394v-3.462zM238.285 327.766l15.292 4.73v3.092l-34.924-.44v-3.503z"/><path fill="#CDAE2C" d="M253.577 332.496L235.19 319.48l-16.537 5.57v6.595zM182.068 324.47l-2.179 13.059 24.714-.322-6.909-11.632z"/><path fill="#B38C2E" d="M263.608 195.403l-21.078 21.75 15.328 13.75 18.917-24.416z"/><path fill="#494749" d="M225.483 98.278l-15.5.875-.046 2.583 14.984 1.792zM235.858 98.716l-.062 5.437 13.375-.125.187-2.25z"/><path fill="#C3927D" d="M213.4 136.237l15.458 14.916 14.938-14.125z"/><path fill="#FFF" d="M219.421 138.653l18.812.688-9.25 8.125z"/></g><g><path fill-rule="evenodd" clip-rule="evenodd" fill="#D6A393" d="M460.125 170.375l4.75 3.917 15.958-3-7.208-21.417-10.687 6.444z"/><g fill-rule="evenodd" clip-rule="evenodd"><path fill="#ECECEB" d="M456.5 153.5l4.167-24.167 24.166-.333 4.667 24.333-13.107 12.752.9 19.918 7.082 2.997-7.386 4.261-13.239-2.511 7.843-5.271.092-18.61z"/><path fill="#E4C821" d="M461.5 152.167l9.305 8.342 6.695-.176 7.167-8.5-.917-8-21.083.084z"/></g><path fill-rule="evenodd" clip-rule="evenodd" fill="#F6CBB4" d="M321.999 195.833l-10.563 2.792-11.811-10.375 5-9.875 10.5 6.375z"/><path fill-rule="evenodd" clip-rule="evenodd" fill="#D6A393" d="M324.999 187l-9.874-2.25-3.501 13.875 12.375 1.208 9-2.666z"/><path fill-rule="evenodd" clip-rule="evenodd" fill="#FEE5D6" d="M335.832 196.667l-6.875-6.22-2.292-5.864-7.916-4.083-1.417 3 5.167 4.5-1 4.417 8.166 4.416zM405.765 166.808l29.984 15.692 11.875 3.875-5.5 12.625-25.839.526-10.047-8.581 1.123-14.639z"/><path fill-rule="evenodd" clip-rule="evenodd" fill="#F6CBB4" d="M435.749 182.5l22.875-17.25 6.543 8.958L442.124 199z"/><path fill-rule="evenodd" clip-rule="evenodd" fill="#2B2C2B" d="M348.355 159.885l25.558-3.146-3.766-21.618z"/><path fill-rule="evenodd" clip-rule="evenodd" fill="#7C7B7B" d="M330.991 103.672l-12.278 28.241 23.654-10.431z"/><path fill-rule="evenodd" clip-rule="evenodd" fill="#FEE5D6" d="M365.608 173.563l-20.029 27.968 7.037 4.597 13.654-4.597 1.517-20.377z"/><path fill-rule="evenodd" clip-rule="evenodd" fill="#F6CBB4" d="M366.27 201.531l-37.313-11.084-4.958 9.386 25.383 12.686z"/><path fill-rule="evenodd" clip-rule="evenodd" fill="#FEE5D6" d="M365.489 173.182l40.276-6.374-12.584 20.354z"/><path fill-rule="evenodd" clip-rule="evenodd" fill="#9E792C" d="M365.489 173.182l.781 28.349 19.33-9.37 7.416-7.967zM393.016 184.194l12.749-17.386 10.52 32.718-16.92-5.03z"/><path fill-rule="evenodd" clip-rule="evenodd" fill="#755924" d="M366.27 201.531l1.686 28.822 25.136 14.703 13.478-15.75 9.715-29.78-23.269-15.332z"/><path fill-rule="evenodd" clip-rule="evenodd" fill="#2B2C2B" d="M447.82 105.797l1.447 12.197-17.036 2.181.352-20.087z"/><path fill-rule="evenodd" clip-rule="evenodd" fill="#5D5D5D" d="M437.878 80.807l16.402 19.032-13.343 6.453-6.304-2.864-5.121-16.03z"/><path fill-rule="evenodd" clip-rule="evenodd" fill="#494849" d="M454.28 99.839l-19.647 3.589-8.952 7.665 6.55 9.082zM318.713 131.913l34.263 9.314 15.984-1.061-2.706-18.709-10.914-12.907z"/><path fill-rule="evenodd" clip-rule="evenodd" fill="#856628" d="M430.326 108.771l8.682 18.241-12.254 6.657 1.031-7.184 3.235-1.802-2.272-4.912-1.646-3.802z"/><path fill-rule="evenodd" clip-rule="evenodd" fill="#FEE5D6" d="M364.241 124.376l7.897 22.013 10.931 19.639 13.364-1.436 6.146-10.591 24.341 3.193 10.958-76.387-53.483 23.215z"/><path fill-rule="evenodd" clip-rule="evenodd" fill="#F6CBB4" d="M388.273 119.885l-1.845 33.173 16.151.943-7.235 12.359.497 7.974-17.676-3.001-9.205-31.167.366-5.859-5.085-9.931 15.684-18.275zM422.326 100.945l-2.032 2.213-2.232 15.707 9.115-11.21 3.564-4.273zM415.097 102.39l-4.252-3.348-11.575 1.704 9.296 11.887 2.818 10.845z"/><path fill-rule="evenodd" clip-rule="evenodd" fill="#C3937D" d="M379.274 132.23l-10.314 7.936-4.719-15.79 8.838-12.815 11.479 7.045z"/><path fill-rule="evenodd" clip-rule="evenodd" fill="#FFF1E9" d="M415.097 102.39l5.197.768-3.005 21.15-5.905-.83z"/><path fill-rule="evenodd" clip-rule="evenodd" fill="#C3937D" d="M411.384 123.478l2.558 4.014 3.347-3.184zM437.172 85.732l-48.969 36.952-9.689 1.07 2.064-9.186 30.267-15.526 27.033-18.235z"/><path fill-rule="evenodd" clip-rule="evenodd" fill="#5D5D5D" d="M349.25 97.754l-4.39-6.885-30.795-2.284 31.928 47.809 12.523-15.745.067-10.983z"/><path fill-rule="evenodd" clip-rule="evenodd" fill="#7C7B7B" d="M340.237 103.351l-26.172-14.766 41.888-11.788-2.553 15.878z"/><path fill-rule="evenodd" clip-rule="evenodd" fill="#5D5D5D" d="M406.917 61.934l-38.11-6.857-28.57 48.274 41.506-19.854z"/><path fill-rule="evenodd" clip-rule="evenodd" fill="#2B2C2B" d="M423.939 95.275l6.802 8.107-8.415-2.437z"/><path fill-rule="evenodd" clip-rule="evenodd" fill="#856628" d="M393.342 129.309l20.339-.324 12.494 6.034-15.856 14.933z"/><path fill-rule="evenodd" clip-rule="evenodd" fill="#5E491C" d="M403.511 137.015l6.643-3.549 7.372 5.988-4.121 3.97-5.309-.89z"/><path fill-rule="evenodd" clip-rule="evenodd" fill="#FFF" d="M403.511 137.015l14.015 2.439 4.121-3.97-22.72-3.989z"/><path fill-rule="evenodd" clip-rule="evenodd" fill="#856628" d="M381.576 117.58l-2.302 14.65-20.108-2.713.51-3.406 4.565-1.735 10.35 1.237.824-5.618z"/><path fill-rule="evenodd" clip-rule="evenodd" fill="#C3937D" d="M402.579 154.001l-21.724-3.092 14.986 23.425z"/><path fill-rule="evenodd" clip-rule="evenodd" fill="#2B2C2B" d="M358.583 109.666l-12.59 26.728 35.583-18.814z"/><path fill="#2B2C2B" d="M428.749 110.559c.295 1.694-.839 3.307-2.534 3.603-1.695.295-3.307-.839-3.603-2.534-.295-1.695.839-3.308 2.534-3.603 1.695-.295 3.308.839 3.603 2.534zM409.47 107.644c.295 1.694-.839 3.307-2.534 3.603-1.695.295-3.307-.839-3.603-2.534-.295-1.695.839-3.307 2.534-3.603 1.694-.295 3.307.84 3.603 2.534z"/><path fill-rule="evenodd" clip-rule="evenodd" fill="#494849" d="M446.118 74.315l-57.845 45.57-48.036-16.534 49.759-15.673z"/><path fill-rule="evenodd" clip-rule="evenodd" fill="#959494" d="M446.118 74.315l-24.386-21.581-81.495 50.617z"/><path fill-rule="evenodd" clip-rule="evenodd" fill="#383938" d="M318.713 131.913l50.247 8.253-20.605 19.719z"/><g fill-rule="evenodd" clip-rule="evenodd"><path fill="#755A24" d="M440.511 323.191l-23.446-.493-1.005-7.001h11.135z"/><path fill="#FEE5D6" d="M418.059 298.417l8.2 8.094 15.145 13.749-3.477 1.183-13.994-3.35-5.638-4.012-1.217-6.122z"/><path fill="#F5CBB4" d="M417.078 307.959l6.855 10.134 20.581 1.493-4.003 3.605-24.451-7.494z"/><path fill="#9D792C" d="M434.121 313.648l-3.834 6.41 3.148.964 3.195-5.096z"/></g><path fill="#F5CBB4" d="M363.499 280.276l3.793 32.503 1.615 10.243 7.496.08-.49-10.304 5.493-31.313z"/><path fill="#FEE5D6" d="M367.292 312.779l-.836 17.815 13.949-.171-4.497-17.82z"/><path fill="#F5CBB4" d="M366.456 330.594l13.949-.171-7.953-4.45z"/><path fill="#9D792C" d="M366.114 325.973l12.965-.331-.514-2.364-11.46.385z"/><path fill="#C3937D" d="M364.389 288.343l.08.161 15.241 2.34 1.696-9.359-4.841-.323z"/><path fill="#F5CBB4" d="M400.279 278.745l16.799 29.214 9.181-1.448-8.319-32.929z"/><path fill="#C3937D" d="M400.279 278.745l4.032 7.016 14.194-9.92-5.969-.644z"/><path fill="#F4D85C" d="M406.57 229.306l-38.614 1.047-7.439 21.213 26.051-10.967z"/><path fill="#E5C82A" d="M418.585 275.841l-45.727-7.338-12.341-16.937 46.053-22.26z"/><path fill="#CCAE2C" d="M418.585 275.841l-54.358 12.58-3.71-36.855z"/><path fill="#755A24" d="M382.211 331.569l-5.04-13.962 1.908 12.033-11.787.27-.133-14.291-2.671 16.302z"/><path fill-rule="evenodd" clip-rule="evenodd" fill="#FEE5D6" d="M462.792 171.167l-4.168-5.917 4.314-8.931 10.187-3.069 1 4.75-4.375 1.438-2.578 7.741zM475.667 154.167l10.583 2.333-5.417 14.792-6.291-1.709z"/></g></svg>