<svg xmlns="http://www.w3.org/2000/svg" viewBox="0 0 400 400"><path opacity=".1" fill="#231f20" d="M127.852 384.002l83.721-15.997 87.058 18.683L210.837 400z"/><path fill="#fff5f3" d="M173.864 381.168H141.55l6.686-4.846 15.414-5.691 7.564 2.932z"/><path fill="#efd0cb" d="M141.55 381.168l-2.937-7.111 9.623 2.265z"/><path fill="#af7546" d="M148.236 376.322l8.436 1.783 14.542-4.542-3.52-10.174z"/><path fill="#cc9262" d="M161.258 376.673l4.477-1.399-7.384-5.674-3.563 2.368z"/><path fill="#cc9262" d="M171.214 373.563l-3.52-10.174-1.959 11.885z"/><path fill="#efd0cb" d="M199.119 213.28l25.651-23.891 4.606-52.685-22.223-31.595-23.815 80.076z"/><path fill="#ffeee9" d="M129.772 101.807l.379 18.878 8.414 40.909 15.838 24.22h30.864l19.41-16.511 4.374-64.194-25.973-25.705-37.509 3.482z"/><path fill="#cea39f" d="M176.179 185.814h35.05l-7.255 20.531-8.849.26-12.628-10.404z"/><path fill="#af7546" d="M216.656 118.623l1.119 38.341 11.601-19.254-2.312 25.435 26.409 4.351-5.89-17.138 11.245-20.348-10.899-23.087-.346-22.966-30.927-29.631h-69.39l-34.274 33.558 6.427 20.349-3.57 22.023 20.982 22.905-8.576-30.515 1.517-20.839 15.797-18.921 10.911 10.709 20.591-11.829z"/><path fill="#7c4e25" d="M175.625 111.468l.715-4.148 14.882-2.211 8.234 3.748.737 2.075-8.503-1.339zM156.48 112.739l-1.316-4.819-13.476.368-5.156 4.497v1.428l6.494-2.745z"/><path fill="#fff5f3" d="M163.167 119.433h5.475v23.596l1.962 5.992h-9.036l1.599-6.159z"/><path fill="#cea39f" d="M170.604 149.021l-4.517 4.55-4.519-4.55z"/><path fill="#efd0cb" d="M156.48 112.739l6.687 6.694v23.429l-13.036-16.906-13.599-11.743 6.494-2.745zM200.193 110.932l-18.476 15.024-11.113 23.065-1.962-5.992v-23.596l6.983-7.965 16.065-1.875z"/><path fill="#cea39f" d="M160.1221586 162.6832498l18.8449091-1.0967537.1166648 2.0045864-18.8449091 1.0967537z"/><path fill="#7c4e25" d="M247.583 150.358l-20.519 12.787-2.294 26.244 28.703-21.893z"/><path fill="#9b6534" d="M229.376 137.71l18.553-30.787-31.273 11.7 1.119 38.341 11.601-19.254z"/><path fill="#cc9262" d="M258.828 130.01l-29.452 7.7 18.553-30.787zM247.583 83.957l-70.512-2.191 39.585-27.44zM154.624 96.41l-20.348-29.365 34.366.06 19.267 33.632zM112.992 87.884l16.78 13.923-10.353 6.426z"/><path fill="#7c4e25" d="M115.849 130.256l20.982 22.905-7.059-51.354-10.353 6.426z"/><path fill="#9b6534" d="M168.642 67.105l10.439-12.779h37.575l-39.76 27.54z"/><path fill="#98742c" d="M159.769 207.71l-15.398 41.85 15.609 8.025z"/><path fill="#ae802c" d="M144.371 249.56l-18.89 22.885 11.827 7.824 23.562-16.191-.89-6.493z"/><path fill="#bf8f00" d="M260.749 334.941l-42.075 3.421-34.908 1.586-25.511-2.389-41.912-8.085 43.426-59.812 83.16-28.639 13.864 41.633z"/><path fill="#efd0cb" d="M242.143 336.477l2.746 31.829h-17.583l-11.983-29.791 10.252-5.562z"/><path fill="#fff5f3" d="M245.161 368.393l8.01 22.322h-32.608l7.133-22.322z"/><path fill="#efd0cb" d="M220.563 390.715l16.304-6.419 16.304 6.419zM183.766 339.948l6.352 41.22h-17.009l-14.854-43.609 13.683-10.075z"/><path fill="#af7546" d="M245.161 368.393h-17.465l-5.079 15.903h28.252z"/><path fill="#cc9262" d="M222.617 384.296l14.123-4.741 14.129 4.741-1.739-4.841-12.39-5.431-12.484 5.135zM227.696 368.393l-1.466 4.585 6.804-4.585z"/><path fill="#8d7c2f" d="M181.152 281.777l37.058-1.883-1.272-69.435-15.07-.66-25.36 1.388z"/><path fill="#ccad14" d="M256.793 255.872l28.566 81.622-22.423 13.194-23.881-71.78 2.078-31.579z"/><path fill="#e5c828" d="M199.737 209.799l25.033-20.41 25.035 11.461-50.068 14.584z"/><path fill="#8d6a29" d="M201.082 304.127l14.241 34.388 26.82-2.038-3.088-57.569z"/><path fill="#715827" d="M201.082 304.127l-17.316 35.821-25.511-2.389 5.16-54.903 33.122 14.848z"/><path fill="#684f1e" d="M163.415 282.656l37.667 21.471 37.973-25.219z"/><path fill="#cbae2d" d="M177.399 211.371l3.753 40.324v30.082l-17.737.879-5.16-37.663 1.514-37.283z"/><path fill="#98742c" d="M249.805 200.85l28.796 48.71-9.061 6.312h-12.747l-17.738-9.677 2.38-26.055z"/><path fill="#efd0cb" d="M260.189 280.485l-8.109 10.018 4.905 8.815 1.467-8.618 1.737-1.775z"/><path fill="#ae802c" d="M278.601 249.56l-1.937 30.925-8.848 6.915-7.627-6.915-3.396-24.613z"/><path fill="#ffeee9" d="M276.664 280.485l4.423 21.599-13.271 1.975-10.831-4.741 3.204-18.833z"/><path fill="#efd0cb" d="M281.087 302.084l-6.71 9.482-14.797-1.053-2.595-11.195z"/><path fill="#ffeee9" d="M125.481 272.445l-20.581 7.824 19.2 11.933 13.208-11.933z"/><path fill="#efd0cb" d="M104.9 280.269l-3.531 10.21 13.361 8.352 9.37-6.629zM137.308 280.269l-3.74 11.933H124.1l6.191-5.596z"/><path fill="#e5c828" d="M160.87 264.078l2.545 18.578-29.257 68.032-17.815-21.214z"/><path fill="#cbae2d" d="M236.137 204.83l-21.323 46.697 29.002 27.154-2.765-32.313 8.754-45.518z"/><path fill="#f4d952" d="M169.125 209.426l-9.935 12.539 21.962 29.73-3.753-40.324zM236.137 204.83l10.036 14.904-31.359 31.793 2.124-41.068z"/><path fill="#9e7700" d="M200.354 218.003l5.088-4.219 11.496-3.325-.392 7.544-6.783 6.575-9.409 2.788z"/><path fill="#755800" d="M209.763 224.578l5.051 26.949-14.46 16.634-2.766-24.751 2.766-16.044z"/><path fill="#9e7700" d="M200.354 218.003l-6.652-3.735-16.303-2.897.702 7.542 8.775 6.693 13.478 1.76 3.953-6.098z"/><path fill="#856400" d="M200.354 218.003v62.734l-19.202-29.042 7.442-38.415 5.108.988z"/><path fill="#bfa12f" d="M181.152 281.777v-30.082l-22.897-6.702 5.16 37.663z"/><path fill="#f4d75d" d="M176.4 252.374l-2.272 2.944 2.272 2.942 2.489-3.13zM176.111 261.939l-2.271 2.941 2.271 2.943 2.49-3.13zM176.746 272.797l-2.272 2.943 2.272 2.941 2.489-3.128z"/><path fill="#bfa12f" d="M215.622 280.016l23.433-1.108 2.078-31.579-26.319 4.198z"/><path d="M185.989 125.956c0 2.359-1.913 4.272-4.272 4.272s-4.272-1.913-4.272-4.272 1.913-4.272 4.272-4.272 4.272 1.913 4.272 4.272zM154.403 125.956c0 2.359-1.913 4.272-4.272 4.272s-4.272-1.913-4.272-4.272 1.913-4.272 4.272-4.272c2.36 0 4.272 1.913 4.272 4.272z" fill="#2b2b2b"/><path fill="#9da1a2" d="M194.536 205.67l9.438.675 4.059 6.689-7.679 4.969-9.006-3.735z"/><path fill="#c6a517" d="M182.497 196.201l-22.728 11.509 31.579 6.558 1.241-9.789z"/><path fill="#dddddc" d="M181.152 208.44l11.437-3.961 9.199 5.627-10.44 4.162z"/></svg>