<svg xmlns="http://www.w3.org/2000/svg" viewBox="0 0 400 400"><g fill-rule="evenodd" clip-rule="evenodd"><path fill="#edd6c4" d="M155.499 292.278l-10.912-21.318 13.099 10.469z"/><path fill="#edd6c4" d="M156.417 260.9l-2.987 9.954-8.92.108 5.776-32.639 3.864 4.714z"/><path fill="#d8b698" d="M144.556 270.921l9.832 9.857 3.349-1.621-1.671-14.397-3.3-.773z"/><path opacity=".1" fill="#33302d" d="M110.812 382.762l89.273-16.485 89.103 16.485-89.273 16.482z"/><path fill="#d7bf9a" d="M169.472 223.737l-10.729 10.493-8.457 4.093 9.403-53.126 4.242 5.134z"/><path fill="#3e2b18" d="M187.465 169.491l-23.407 17.426-4.37-1.72-16.079-15.989 7.367-4.653 28.303-4.231 10.559 3.365zM157.101 130.784l-.502 5.068-1.351 8.144 24.031 16.328 10.559 3.365.871-10.19-10.892-22.251z"/><path fill="#9f751c" d="M172.263 363.169l-1.523 7.081 4.88 9.798 4.597-21.147h-3.88z"/><path fill="#b98c17" d="M135.277 378.244l27.286 1.798 17.654-21.141-4.657-13.775-14.936 22.503-11.058-3.491z"/><path fill="#d8b698" d="M160.624 345.319l-11.058 18.819 12.997 15.91 12.997-34.922-3.685-3.297h-7.372z"/><path fill="#b98c17" d="M229.454 352.781l-6.105 19.035 7.852 17.268 29.316-1.326-10.338-18.244-13.385 7.049z"/><path fill="#d8b698" d="M231.201 349.9l-1.747 2.881 1.747 36.303 18.978-19.57-4.041-16.9-3.104-2.714z"/><path fill="#edd6c4" d="M157.078 308.623l3.546 36.696 14.936-.193 7.736-25.811-2.959-5.611-16.406-7.999zM211.825 319.52l-2.326 5.166 19.955 28.095 16.682-.167-7.526-31.469-6.454-4.064z"/><path fill="#d7bf9a" d="M183.296 319.315l-26.218-10.692 5.241-1.305 19.363 2.02 3.525 3.605zM209.904 311.388l-6.793 4.304 6.388 8.994 29.111-3.541-5.125-5.009z"/><path fill="#e7c800" d="M220.003 259.718l5.204 5.391 13.403 56.036-28.503-4.378-3.399-3.371-3.597 2.296-39.753-6.104-2.775-3.163-3.504 2.198-6.793-70.3 8.361.187z"/><path fill="#d1af01" d="M158.844 229.686l-8.558 8.637 74.921 26.786-3.033-12.684-21.501-13.139-4.297-1.165-30.718-10.24z"/><path fill="#87621c" d="M157.079 308.623l6.279.965 2.3-81.707-6.814 1.805zM203.111 315.692l-.292-58.588 3.162-3.09 3.221 1.549.905 61.204z"/><path fill="#e7c800" d="M159.688 185.197l15.392-3.374 59.926 3.256 7.803 3.259-27.378 39.06-9.435 11.975-42.091-13.903 2.024-2.932z"/><path d="M165.929 222.538l10.955 3.708 1.663 5.932-4.224 2.868v.002l-15.479-5.361 7.085-7.149zm26.477 8.924l13.317 4.437-.703 4.753-7.5 2.427-7.79-2.697-1.714-5.046 4.39-3.874z" fill="#76581a"/><path fill="#87621c" d="M180.562 225.891l-3.795 12.018 12.963 2.472 2.676-8.919z"/><path fill="#f8d846" d="M178.032 222.309l-4.849 16.655 15.392 5.271 1.155-3.854-10.907-3.776 2.509-8.866 11.074 3.723 1.228-4.096z"/><path fill="#d1af01" d="M242.809 188.338l-5.774.333-31.312 47.227 6.617-.384 3.091-8.116 30.056-26.657.129-7.435z"/><path fill="#f8d846" d="M189.838 163.689l-30.15 21.508 77.347 3.474-2.711-13.551-6.261-12.522-7.222-2.609-8.018-3.257-12.517 2.241z"/><path fill="#3e2b18" d="M258.835 155.453l-6.933-2.987-22.022 2.888-9.039 4.635 16.194 28.682 7.578-5.197 12.015-19.701z"/><path fill="#d8b698" d="M258.835 155.453l-21.799 33.218 12.438 22.033 6.373.808 11.564-10.334 1.4-8.394z"/><path fill="#503a25" d="M252.318 131.064l-7.754-.033-14.12 14.119-9.603 14.839 37.994-4.536z"/><path fill="#edd6c4" d="M268.813 192.784L229.9 228.842l-1.686 3.163 4.851 11.388 3.2-.891 39.96-21.978zM215.431 227.398l-17.911 15.68 5.299 14.026 19.355-4.679 2.878-6.712-4.639-14.339z"/><path fill="#d8b698" d="M229.9 228.842l-14.469-1.444 6.743 25.027 14.091-9.923z"/><path fill="#604a37" d="M272.297 112.705l-51.456 47.284-2.086-6.722 20.164-62.58 24.106 12.748zM156.599 135.852l-3.9-8.544-8.229-33.955-4.879-11.535-14.781 33.126z"/><path fill="#ab8c6d" d="M179.817 131.248l-3.851 5.492 13.872 26.949 12.146-5.639 22.845-23.65-.446-7.314-19.765 4.394z"/><path fill="#d8b698" d="M199.162 131.429l2.086 6.471 14.042.298-25.452 25.491 31.003-3.7 17.474-53.009-3.217-18.032-8.925-4.055-6.027 1.622-6.489 2.318z"/><path fill="#ab8c6d" d="M238.315 106.98l-10.521-7.022 6.722-3.941 6.953 1.391z"/><path fill="#edd6c4" d="M235.098 88.948l-5.9 2.113-1.404 8.897 13.675-2.55z"/><path fill="#503a25" d="M143.609 169.208l12.99-33.356 33.239 27.837zM217.842 88.388l54.455 24.317-13.676-26.654-16.494-23.018-18.503 13.515z"/><path fill="#3e2b18" d="M247.497 24.861l24.8 87.844-31.059-43.343-3.708-9.503 3.939-26.654z"/><path fill="#604a37" d="M218.523 43.867l-5.099 5.794 1.159 29.204 3.259 9.523 23.396-19.026 6.259-44.501-8.345-1.623-19.701 12.748z"/><path fill="#503a25" d="M192.796 29.728l.695 7.88 17.151 9.04 9.448-1.92 27.407-19.867L207.862.756l-9.039 6.258-7.65 14.602z"/><path fill="#604a37" d="M150.843 15.59l-2.316 6.953 5.097 10.662 5.795 4.172 3.941 4.404 25.495-4.635 3.941-7.418L207.862.756z"/><path fill="#edd6c4" d="M201.248 137.9l15.79-31.688 3.052-61.484-27.294-15-35.38 12.139-9.224 5.543-9.053 23.459.452 10.949.511 23.263 16.497 30.771z"/><path fill="#d8b698" d="M146.83 65.597l3.511-1.085 15.412 2.599 2.815 7.231.971 9.34-6.561 12.64-7.556-21.977z"/><path fill="#3e2b18" d="M148.703 61.395l-3.074 1.363 1.201 2.839 18.923 1.514z"/><path fill="#d8b698" d="M159.419 37.377l-4.75 2.782-.296 8.53 38.423-18.961z"/><path fill="#503a25" d="M128.157 50.747l22.686-35.157 8.576 21.787-19.828 44.441z"/><path fill="#d8b698" d="M175.506 73.975l3.721-7.979 18.241-3.909 8.7 3.653-16.841 7.948-11.046 22.069-4.383-12.076z"/><path fill="#3e2b18" d="M179.227 65.996l18.897-6.541 8.044 6.285-9.025-1.576z"/><path fill="#ab8c6d" d="M172.199 103.518l-9.221-7.196 8.338-2.519 6.965 1.954z"/><path fill="#f0e5dd" d="M168.568 74.342l6.938-.367 2.775 21.782-15.303.565z"/><path fill="#87621c" d="M157.936 108.746l14.605-3.665 21.171 3.652-20.216 2.188z"/><path fill="#b98c17" d="M170.667 114.137l-12.731-5.391 9.693 11.164 14.787.174 11.296-11.351-14.097 5.091z"/><path fill="#fff" d="M193.712 108.733l-13.171 6.968-11.643.064-10.962-7.019z"/><path fill="#d8b698" d="M161.103 98.769l-9.008 7.443 2.49-6.306zM183.891 98.14l13.775 8.165-2.074-5.49z"/><path d="M155.994 71.676c2.01.071 3.568 1.758 3.482 3.768-.087 2.01-1.786 3.581-3.796 3.511-2.012-.07-3.57-1.758-3.483-3.768.085-2.01 1.785-3.582 3.797-3.511zM188.141 72.388c2.011.071 3.569 1.758 3.483 3.768-.087 2.01-1.786 3.581-3.796 3.511-2.011-.071-3.571-1.759-3.484-3.768.086-2.011 1.786-3.582 3.797-3.511z" fill="#33302d"/><path opacity=".1" fill="#33302d" d="M234.103 210.838l2.932-22.167 7.361 13.035z"/></g></svg>