<svg xmlns="http://www.w3.org/2000/svg" viewBox="-152 -152 400 400"><path d="M-8.134-18.029l2.945-6.478-1.177-5.892-7.186-3.769c1.885-4.359 3.533-8.365 5.418-12.607h.118l2.474 1.062-.118-4.947-.707-.118.353-.944-.941-6.713-2.829 6.831-9.422-3.298 5.065-12.84-3.064-.118-5.419 10.955-.706 1.062-10.719-3.888-.944 2.121 10.722 4.241-4.124 11.543-11.074-5.772L-41-44.771l11.663 5.656-3.653 10.248-10.719-4.712-2.238-3.417-2.239 1.415 2.827 4.123 11.428 5.065-3.182 8.834s1.65 6.009 1.297 6.716c-.118.353 2.238-6.598 4.948-14.255l9.189 4.006-4.124 11.545 2.003 1.413 4.712-11.898 7.186 3.18-4.595 11.31 3.533-1.532 3.889-8.599 7.892 3.533.471-2.592-7.422-3.297zm-21.491-9.804L-26-37.5l6.321 3.71.117 9.283-10.063-3.326zm4.174-12.461l5.065-11.781 9.189 4.006-5.163 12.437-9.091-4.662zm14.726 21.088h-.118l-7.186-3.182 3.77-9.425 7.185 3.535-3.651 9.072z" fill="#dddddc"/><path d="M113.088-66.918l9.773 5.892 12.607 1.059-5.301-4.123s-8.482-8.952-8.361-9.776c.114-.708-19.441.824-19.441.824l10.723 6.124z" fill="#6a6b6b"/><path fill="#8a8b8c" d="M118.389-75.046l7.654-3.768 10.253 15.431-.828 3.298-14.608-10.719z"/><path fill="#7c7d7d" d="M113.436-83.173l12.607 4.359-5.183 8.01-26.268-.944-20.38-16.138 15.725-2.766z"/><path fill="#807f7e" d="M94.827-118.987l13.901-6.36 19.669 12.487-20.375 1.059z"/><path d="M97.299-129.471l11.43 4.124-7.894 4.71-6.953 4.595s-14.368-1.295-14.485-1.766c0-.471 17.789-11.545 17.789-11.545l.113-.118z" fill="#6a6b6b"/><path fill="#5d5c5d" d="M97.769-61.499l8.719 3.182L125.69-47.48l1.766-1.06-3.296-6.833-17.79-16.257z"/><path fill="#454445" d="M83.872-55.843l22.616-2.474 12.014-8.483-12.132-4.83h-8.243l-20.026-5.772z"/><path fill="#757273" d="M118.624-67.036l11.426 15.667-2.594 2.829-13.784-14.843-3.178-3.535z"/><path fill="#515253" d="M69.5-88.947l21.203 4.306 27.921 17.605-4.952 3.653-32.511-9.895z"/><path fill="#474849" d="M78.449-80.817l6.6-4.595 18.143 2.474 4.123-2.121-3.887-4.594-44.648-13.664 18.614 18.494z"/><path fill="#6a6b6b" d="M112.852-114.039l20.375 6.833 8.719 13.902-2.001.824-12.133-4.948-14.846-12.252z"/><path fill="#7d7b7c" d="M118.859-90.007l7.184 11.193 19.085 12.249-12.956-20.026z"/><path fill="#747575" d="M94.592-94.483l8.836 4.83-.236 6.715 22.851 4.124v-4.595L111.435-98.96z"/><path fill="#8a8b8c" d="M116.619-87.297l11.193-10.131 19.556 28.744-2.24 2.119-19.085-16.844z"/><path fill="#808181" d="M99.304-97.428l19.085-8.718 9.423 8.718-1.769 14.019-22.615-6.244z"/><path fill="#808181" d="M96.475-114.745l4.359-6.009 27.563 7.894 4.83 5.654-18.727 1.295-13.431 7.541z"/><path d="M71.266-117.455l29.568-3.182s4.241 16.258 4.476 14.843c.235-1.295-27.681 10.25-28.744 10.25-1.06 0-11.661-13.901-11.661-13.901l6.478-8.01h-.117z" fill="#56595a"/><path fill="#949393" d="M67.142-147.141l1.647-3.888 21.914 3.3-9.895.353-4.831-.826-.235 1.767z"/><path fill="#747575" d="M90.703-147.729l1.181 3.062-15.788 5.536-4.949-1.767 4.83-7.304z"/><path fill="#626162" d="M62.669-146.552l13.308-1.65.119 9.071-8.597 6.362-11.548-3.535z"/><path d="M60.899-119.81l7.184-13.431-8.126-5.89s-26.388 23.324-26.624 23.324c-.235 0 27.448-4.004 27.448-4.004h.118z" fill="#4a4c4d"/><path fill="#808181" d="M41.108-137.481l-.353-7.657 28.034-5.891 7.188 2.827-15.902 9.071z"/><path fill="#515253" d="M28.863-132.519l11.892-12.619 19.32 6.007-7.077 8.951-29.089 17.791zM70.323-92.716l2.712-19.791 45.354 6.361-14.961 16.493z"/><path fill="#747575" d="M71.853-131.827l2.001-3.415 5.659 1.53 9.424-.353 1.766-2.239 22.027-2.944 4.83 4.594-23.679 10.837z"/><path fill="#808181" d="M73.854-135.242l2.242-3.889 36.634-.117-23.793 5.183-9.424.353z"/><path fill="#4a4c4d" d="M56.422-105.793l27.113-8.872 10.346-9.152-4.944-10.248-12.018 1.414-29.804 17.08z"/><path fill="#56595a" d="M48.883-107.324l4.115-22.856 23.098-8.951 12.841 5.066-24.507 18.141z"/><path d="M84.813-67.036l10.014 11.309-2.943 11.309-9.366-1.53-10.954-3.536s-.353 2.239-.824 5.065l-4.83-9.658L78.101-64.98l6.712-2.056z" fill="#515253"/><path d="M80.87-32.048l-8.13 7.421 2.123-11.425-4.124-8.483c.471-2.827.824-5.065.824-5.065l20.32 5.183L80.87-32.048z" fill="#393939"/><path fill="#b19732" d="M77.564-75.755l12.127 16.009-13.48 34.477z"/><path fill="#2c2b2b" fill-opacity=".102" d="M-31.931 234.069l90.589 12.838 117.691-12.838-118.397-9.071z"/><path fill="#aa8e30" d="M-39.234-13.905l-2.355 2.473L-36.523.231l-3.418 10.367 2.121 5.889 8.245.118 4.83-10.366 11.663-4.83 1.297-4.595-7.421-.706-9.543 2.827-3.77-9.542z"/><path fill="#e3a733" d="M-13.082 1.409L3.294-6.013l-3.3-6.48-12.84 5.537-2.592 3.417z"/><path fill="#c69337" d="M-41.589-11.432l28.507 12.841.236-8.365-23.915-10.131h-3.062l-1.531.825z"/><path fill="#e3a733" d="M-51.366-31.931l9.777 20.499 4.828-5.655-6.595-15.903-3.536-3.18z"/><path fill="#c69337" d="M-33.461-69.156l-17.905 37.225 8.01-1.059-.236-.471 13.429-29.568v-4.595z"/><path fill="#e3a733" d="M-2.48-75.634l-30.981 6.478 3.298 6.127 2.945-1.062 19.437-3.062 4.595-.706z"/><path fill="#e2c6c3" d="M-41.709 15.192l-12.014 13.429.706 15.432z"/><path fill="#897a2f" d="M-39.941 10.598l-14.961 38.285 10.484 4.597 2.121-5.539 3.182-3.653 7.302-20.262-2.945-8.716-1.177-2.711z"/><path fill="#c3a39f" d="M-24.272 46.762l-.355-7.657-1.53-20.379-8.247 8.716-3.063 14.373-.118 9.541z"/><path fill="#9e7f79" d="M-34.404 27.442l-7.893 20.499 4.712 3.415z"/><path fill="#e2c6c3" d="M-26.157 18.726l-9.778-6.127-2.709 5.421 4.24 9.422z"/><path fill="#444648" d="M89.937-90.652l-.246 30.906-6.71-.617-12.377-15.392 4.311-12.065z"/><path fill="#e2c6c3" d="M25.084 11.893l-6.713 50.654 44.649-5.179 6.007-42.766-.576-8.718-39.125 4.123z"/><path fill="#c3a39f" d="M15.663 27.56l-2.709-8.246-26.624 34.279 5.536 25.214L7.533 65.611l5.066-4.476z"/><path fill="#6b5321" d="M103.541 115.206l9.782 12.136-17.908 11.544-14.607-19.439z"/><path fill="#b88a2d" d="M128.397 201.911l-6.242 23.204 6.129 2.123 19.555-35.109-6.478-3.178z"/><path fill="#ccad2d" d="M115.206 183.18l2.825 11.072-.706 29.216 4.83 1.647 19.206-36.164-12.964-6.953z"/><path fill="#c3a39f" d="M83.515 158.559l3.418 18.845 18.496 10.017 9.777-4.241 1.299-10.841-14.847-16.491z"/><path fill="#eaeceb" d="M105.429 187.421l12.602 6.831 10.366-12.254-11.892-9.659z"/><path fill="#b2882e" d="M44.053 222.879l-20.497 5.065.353 8.013 36.755-.828-.236-7.891z"/><path fill="#ccad2d" d="M47.352 202.735l-6.597 5.301-17.199 19.908 36.872-.706-3.417-18.731z"/><path fill="#c3a39f" d="M47.233 155.023l-18.141 8.836 7.303 24.857 7.775 6.953 14.14-5.541 1.412-19.79z"/><path fill="#eaeceb" d="M36.395 188.716l4.36 19.32 16.256.471 1.299-18.379z"/><path fill="#9e7f79" d="M59.486 150.547l27.447 26.857 15.431-20.846-7.89-35.933z"/><path fill="#6b5321" d="M36.395 119.33l-6.242 11.072 9.423 9.425 23.093-11.778-15.907-19.203z"/><path d="M49.472 117.09l-20.38 46.77 30.63 6.479 34.634-49.713-36.752-8.715-8.25 5.18h.118zm30.865-18.614l-.354-.471-.352.235.588.235h.118z" fill="#e2c6c3"/><path fill="#9e7f79" d="M94.474 120.625L80.337 98.476l-.706-.349-21.914 13.783-10.837 10.951z"/><path fill="#98732c" d="M86.344 89.526l26.151 14.608.828 23.208-42.528-15.082 2.475-14.02z"/><path fill="#b2882e" d="M35.807 91.763l-2.003 5.422-3.651 33.217 40.642-18.142 2.946-16.61-8.483-23.208z"/><path fill="#bb8d2d" d="M64.905 67.499l1.53 20.375 4.36 24.386 41.7-8.126-27.682-27.921z"/><path fill="#c3a39f" d="M133.18 51.945l5.941 8.366 13.783 9.189 9.425-7.307.114-10.718-13.191-7.305z"/><path fill="#e2c6c3" d="M127.812 50.769l11.426-5.419 12.287-11.135 3.498 7.011-9.466 11.363-6.319.684z"/><path fill="#c3a39f" d="M101.54 45.703l6.482-2.592 20.375 1.461 10.791 7.178-10.791 10.224-24.969 3.873z"/><path fill="#e2c6c3" d="M72.678 32.272l16.848-9.069 18.496 19.908-4.594 22.736-22.974-13.902z"/><path fill="#c3a39f" d="M74.918 25.912l1.884-16.14 12.724 13.431-9.072 28.742z"/><path fill="#e3c521" d="M68.451 5.884l8.351 3.888 3.652 42.173-40.761 23.208-27.918-13.312 1.179-42.527 11.779-7.421 1.885 33.574 31.099-3.888z"/><path fill="#ccad2d" d="M80.454 51.945l4.359 24.268-17.671 15.906-33.338 5.066-22.029-35.344z"/><path d="M73.809-34.628l2.402 9.359-7.76 31.153-35.77 21.796S16.92-.887 17.043-5.074c0-4.188 24.379-94.69 24.379-94.69l18.715 4.68 17.857 38.687-4.185 21.769z" fill="#c3a39f"/><path fill="#9e7f79" d="M41.422-13.201L30.464 7.854l16.13.123L32.558 27.68 11.377 1.696zM70.851-42.755l8.317 3.819-2.957 13.667-11.306-14.285z"/><path fill="#e2c6c3" d="M75.596-67.134l-9.573 4.105-1.118 23.475 14.263.618 3.813-21.427z"/><path d="M63.957-116.633l19.578 1.968 6.525 24.013-13.422 15.637-11.205-8.003s-10.712-16.008-11.204-17.24c-.492-1.232 9.728-16.375 9.728-16.375z" fill="#393939"/><path fill="#ccad2d" d="M54.228-96.441l2.342 11.698 9.339 24.113 23.782.884-26.35-45.56z"/><path fill="#808181" d="M-.565-93.115l-15.393-14.9 11.943-17.608 11.576 9.974z"/><path fill="#6d6e6e" d="M30.956-118.604l-2.093-13.915-32.878 6.896-2.708 23.272 23.643.492z"/><path fill="#56595a" d="M27.14-95.208l-14.9-11.822 6.771-10.343 9.852-15.146 24.135 2.339 2.953 14.285-19.7 21.67z"/><path fill="#444648" d="M38.099-95.208l25.242-10.098 20.194-9.359-30.537-15.515-15.392 24.013z"/><path fill="#e3c521" d="M-9.555-78.709l-10.713-6.649 4.31-22.657 79.299 2.709-6.771 20.563z"/><path fill="#e2c6c3" d="M-20.268-85.358l.738 58.49L1.405 7.239l29.059.615 23.149-19.333 2.957-73.264z"/><path fill="#c3a39f" d="M22.092-62.947l13.052-4.433 8.003 4.308-14.038 10.469L18.027-36.72l-9.482-5.54-9.11 5.54-6.282-17.116-8.741-10.097 6.773-2.463 11.573 4.311.492 2.339 3.819 2.832 2.832 3.078 3.57-3.201 7.265-2.586z"/><path fill="#614c21" d="M-2.782-18.496l28.321.739-7.266 6.155-15.023.123z"/><path fill="#fff" d="M9.409-23.79l15.268 3.815-.617 2.956-24.625-.124-1.602-2.585z"/><path fill="#ccad2d" d="M24.677-19.975l-7.265 6.774-12.314-.123-6.773-7.143-3.324.985L3.62-9.262l15.146.123 10.22-9.728z"/><path fill="#9e7f79" d="M6.823-39.554L-.565-36.72l10.097 4.186 8.495-4.186z"/><path fill="#444648" d="M5.468-62.947l-14.655-4.679-6.648 2.832.247.861 6.527-.615L3.25-59.746zM18.027-63.195l16.745-5.786 9.36 4.433-.985 1.476-7.88-1.968-14.531 5.417z"/><path fill="#eedcda" d="M7.069-56.914l-1.478 9.357L-.565-36.72h18.592l-3.446-10.465-1.11-9.852z"/><path fill="#c3a39f" d="M-9.309-22.806L-.565-36.72l-6.528 1.108zM30.587-25.269L18.027-36.72l7.758.493z"/><path fill="#bb8d2d" d="M-4.999-19.482l14.408-7.512 19.577 8.127-19.331-2.091z"/><path fill="#c3a39f" d="M-15.219-51.742l8.25 2.217-5.049 2.216zM29.354-48.787l8.745-2.463-3.45 4.556z"/><path fill="#9e7f79" d="M77.393-56.667l-6.161-.37-.738 10.589z"/><path fill="#e2c6c3" d="M152.904 69.5l17.669-2.829.946-14.49-9.076-.706zM-15.219 46.859l-15.714-1.791 1.267 15.419 18.234 21.027L7.533 65.611z"/><path fill="#e3c521" d="M-24.627 39.105l-12.958 12.251 7.919 9.131 14.447-13.628z"/><path fill="#c3a39f" d="M-52.898 43.7h8.48l8.012-16.376-5.303-12.132z"/><path d="M-66.21-31.695c7.872 0 14.253 6.383 14.253 14.255 0 7.872-6.38 14.254-14.253 14.254-7.874 0-14.255-6.382-14.255-14.254.001-7.872 6.381-14.255 14.255-14.255z" fill="#ccad2d"/><path d="M-55.255-26.51c.353.471.706.824.942 1.295-2.474 2.238-4.712 5.536-5.89 9.66-1.297 4.124-1.415 8.127-.588 11.31-.471.235-1.062.353-1.532.588-.941-3.535-.824-7.893.588-12.37 1.415-4.358 3.771-8.009 6.48-10.483zM-77.167-8.251c-.353-.471-.706-.824-.941-1.295 2.474-2.238 4.712-5.538 5.889-9.66 1.297-4.124 1.415-8.13.588-11.31.473-.235 1.062-.353 1.532-.588.942 3.533.824 7.892-.588 12.369-1.414 4.359-3.77 8.01-6.48 10.484z" fill="#e3c521"/><path fill="#f4f4f4" d="M74.729-45.217l-2.583 2.462 1.973 2.217 2.584-1.97z"/><path d="M-5.737-58.146c1.699 0 3.078 1.378 3.078 3.078 0 1.701-1.379 3.08-3.078 3.08-1.701 0-3.078-1.379-3.078-3.08 0-1.7 1.376-3.078 3.078-3.078zM29.109-57.529c1.701 0 3.08 1.377 3.08 3.078 0 1.699-1.379 3.078-3.08 3.078-1.699 0-3.078-1.379-3.078-3.078 0-1.701 1.379-3.078 3.078-3.078z" fill="#2b2b2b"/><path fill="none" d="M-151.5-151.5h399v399h-399z"/><path fill="#e3c521" d="M128.397 44.572v17.402l10.724-1.663.117-14.961z"/></svg>