<svg xmlns="http://www.w3.org/2000/svg" viewBox="0 0 400 400"><g fill-rule="evenodd" clip-rule="evenodd"><path opacity=".1" fill="#33302d" d="M137.085 390.01l60.893 9.596 60.892-9.596-60.892-9.187z"/><path fill="#87621c" d="M196.523 391.147l2.911-20.647-6.406 4.775-1.783 7.42z"/><path fill="#76581a" d="M134.682 263.853l-9.55-12.809 8.153-1.863z"/><path fill="#a79252" d="M214.751 139.478l37.556 12.008 1.984-3.604-23.301-40.194-4.374.043z"/><path fill="#c6aa74" d="M259.056 162.963l6.173-17.312 13.037-7.957-8.168 44.049-11.391-9.772z"/><path d="M241.588 150.892c1.613-1.146 7.221-5.357 7.221-5.357l34.237 58.227-8.151 3.029-23.059-.234-9.549-3.726-7.762-13.082-1.556-8.813 8.619-30.044z" fill="#9f751c"/><path fill="#fef2f0" d="M133.983 274.567l9.2.584 5.777-6.465-10.551-13.217-7.38-3.28z"/><path fill="#f4d7d2" d="M133.983 274.567l12.224-4.085 5.061 4.977-.663 8.215z"/><path fill="#f4d7d2" d="M134.449 249.648l-3.42 2.541 20.89 25.173-9.138-26.807z"/><path fill="#87621c" d="M139.107 200.502l-13.975 50.542 15.606 3.028 5.2-2.08 15.59-29.366 1.103-3.491-20.263-20.728z"/><path fill="#9f751c" d="M142.522 158.659l-3.415 41.843 20.031 21.893 3.493-3.26-15.022-55.781z"/><path fill="#87621c" d="M172.717 380.31l-10.316 10.837h23.169l-6.167-9.001z"/><path fill="#76581a" d="M178.935 368.665l2.377-3.782 8.891-4.042 2.425 1.213 6.806 8.446-13.864 20.647-12.853-10.837z"/><path fill="#f4d7d2" d="M158.789 308.224l10.282 30.844 4.743 2.552 12.001-.204-22.484-32.376.105-.18z"/><path fill="#87621c" d="M169.071 339.068l11.564-.052 5.18 2.4 6.968 10.038-.155 10.6-13.693 6.611zM140.738 254.072l18.051 54.152 8.335-5.572 19.73-33.209-40.916-17.451z"/><path fill="#76581a" d="M247.178 254.072l-1.863-6.755-14.674-15.837-3.093 13.097 2.453 7.167z"/><path fill="#f1e1bb" d="M245.083 39.659l-6.032-3.565-17.067 1.719-5.963 5.758 3.689 7.675 28.104 20.112 5.682.848zM259.056 162.963l-4.603-16.128.759-18.652 4.191-19.011 18.863 28.522z"/><path fill="#c6aa74" d="M141.771 140.516l13.18 15.102 14.513 8.813 16.725-8.873-2.443-13.289-3.472-9.464-12.384.829-26.677-14.934z"/><path fill="#fef2f0" d="M178.504 141.955l-5.287 4.405-6.743 12.102 51.685 3.813 3.088-19.519-2.251-6.071-31.327 12.46z"/><path fill="#d4a8a2" d="M175.823 137.738l11.768 19.614 19.948-13.127 5.981-9.147 2.506-11.868-19.735 7.777-16.017 1.818z"/><path fill="#f2d6d2" d="M213.406 94.062l3.521-3.07 5.563 1.44 7.918 13.043-1.369 6.439-10.043 24.771-11.457 7.54-17.576-7.582-.187-4.917 23.281-21.942z"/><path fill="#c6aa74" d="M122.493 131.283l5.213-8.355 13.507-4.228 5.232 18.567-3.923 21.392z"/><path fill="#f1e1bb" d="M129.083 97.821l-6.59 33.462 18.72-12.583-4.886-15.133z"/><path fill="#c6aa74" d="M116.954 76.942l24.259 41.758 3.753-6.045-3.752-37.421-5.512-6.132-7.821-2.982-5.517 2.638zM127.865 38.773l2.941-13.724 18.068.771 11.243 9.727-2.888 3.706-19.675 3.358-5.116-2.878zM164.425 18.624l-4.308 16.923 6.71 2.746 26.741-4.317 4.834-4.684-3.655-13.066-19.748-5.75z"/><path fill="#f1e1bb" d="M116.954 76.942l18.748-7.84 4.787-5.382-2.935-21.109-5.116-2.878-1.632-14.684zM130.806 25.049l29.311 10.498 14.882-25.071zM216.021 43.571l5.963-5.758-6.087-25.13L205.579.394l-30.58 10.082 23.403 18.816-.266 5.403 11.067 9.596z"/><path fill="#fffae9" d="M221.674 62.036l-5.653-18.465 48.364 34.314-4.533 6.646-17.915 9.414z"/><path fill="#c6aa74" d="M216.928 90.992l12.433-5.198 15.629 1.583 8.827 4.472 6.779 19.128-8.411 3.931-23.146-2.994z"/><path fill="#f1e1bb" d="M244.99 87.377l19.395-9.492-3.789 33.092z"/><path fill="#fffae9" d="M205.579.394l39.504 39.265-29.062 3.912z"/><path fill="#f1e1bb" d="M213.521 86.026l-2.434-35.738 4.934-6.717 28.969 43.806-28.062 3.615z"/><path fill="#fef2f0" d="M141.213 118.7l23.987 19.862 24.763-1.92 27.37-24.467-1.312-68.604-15.125-10.206-12.525-2.484-48.627 7.696-4.35 10.14.308 20.385z"/><path fill="#f2d6d2" d="M152.697 80.206l-10.934-4.552 7.673-4.921 11.719 1.263 4.628 4.409 2.093 7.287-3.997 13.514zM170.942 83.726l1.223-8.219 3.543-4.803 11.458-5.683 14.328 3.064-14.991 9.346-10.366 18.943z"/><path fill="#d4a8a2" d="M171.327 102.858l-7.448-5.652 5.597-3.569 6.661 2.737z"/><path fill="#fef8f8" d="M165.783 76.405l6.382-.898 3.972 20.867-12.258.832z"/><path fill="#e7c600" d="M172.515 120.115l-13.335-7.412 13.265-3 21.958-1.935-11.677 11.007z"/><path fill="#fff" d="M172.936 116.808l-9.178-4.746 25.441-3.564-8.028 7.112z"/><path fill="#c6aa74" d="M141.763 75.654l7.87-7.418 11.522 3.76-11.562-.129zM175.708 70.704l11.953-8.099 13.833 5.48-13.809-1.847z"/><path fill="#b98a17" d="M159.18 112.703l12.486-4.704 22.737-.231z"/><path fill="#f1e1bb" d="M141.213 118.7l1.309 39.959 14.77-6.816-5.567-11.474z"/><path fill="#dcb6b2" d="M139.744 38.577l-7.306 1.156 3.264 29.369zM188.371 30.881l27.65 12.69-17.619-14.279z"/><path d="M153.825 86.232c1.974 0 3.582-1.525 3.582-3.396s-1.608-3.396-3.582-3.396c-1.974 0-3.583 1.526-3.583 3.396s1.609 3.396 3.583 3.396zM186.674 83.445c1.973 0 3.582-1.525 3.582-3.396s-1.609-3.396-3.582-3.396c-1.974 0-3.583 1.526-3.583 3.396s1.61 3.396 3.583 3.396z" fill="#33302d"/><path fill="#9f751c" d="M234.836 363.64l-18.707-12.091-1.245 5.167 8.269 8.035z"/><path fill="#fef2f0" d="M158.789 308.224l21.846 30.792 5.18 2.4 12.92-11.209.951-6.288-4.01-10.651-4.627-5.42-25.246-2.972z"/><path fill="#9f751c" d="M199.686 323.919l-19.051 15.097 23.631 33.302 7.509-6.449-1.325-13.363z"/><path fill="#87621c" d="M210.45 352.506l5.679-.957 14.049 26.403-13.043 3.727-7.911-2.694-4.958-6.667z"/><path fill="#9f751c" d="M180.684 272.795l-21.895 35.429 36.887 5.044 41.806-39.688-3.653-3.698-46.975-.439z"/><path fill="#76581a" d="M140.738 254.072l5.2-2.08 87.891 17.89 3.653 3.698-56.798-.785z"/><path fill="#d1af01" d="M159.138 222.395l-3.039 11.634-1.877 19.5 2.586 4.397 57.335 10.948 3.223-4.554-7.659-40.272-47.076-4.913z"/><path fill="#9f751c" d="M159.138 222.395l-2.33 35.531-16.07-3.854z"/><path fill="#e7c600" d="M205.276 226.839l-46.138-4.444-1.864-12.809-.466-38.897 5.549-2.706 3.302-2.418 45.185 3.96 2.562 3.494 2.796 3.96-6.495 47.069z"/><path d="M166.204 175.584l-.517 4.865-6.393-.635 1.744-4.808 5.166.578zm-.718 8.894l-.521 10.424-5.729-.536-.04-10.566 6.29.678zm19.48-6.798l.513 19.142 13.654 1.277.194-18.814-5.195-.581.27 14.333-3.965-.371-.022-14.377-5.449-.609zm29.651 3.314l-1.813 14.647-3.302 3.43-2.222-.208.931-13.457-4.915-.371s.157-4.019.077-5.298l11.244 1.257zm-39.176-4.378l-.613 14.574 6.689.457-.217 4.784-11.416-1.068.28-19.336 5.277.589z" fill="#d1af01"/><path fill="#9f751c" d="M237.482 273.58l-7.481-21.836-4.454-6.174-12.726-5.151-4.352 1.561 5.674 26.894z"/><path fill="#f8d846" d="M170.185 156.04l45.644 3.44 2.33 2.795-1.027 8.648-4.487 7.492-51.371-5.565-1.671-8.681 4.986-6.319z"/><path fill="#87621c" d="M150.731 184.835l.199 6.562 8.208 30.998 2.328-54.5-4.658 2.794z"/><path fill="#b98c17" d="M178.43 142.087l-27.5 49.31-8.408-32.738z"/><path fill="#87621c" d="M218.996 136.685l3.544 9.552 15.788 18.63-21.429 22.593-7.397 11.61-4.226 27.769 8.48 4.524 8.267-2.911 26.786-82.917z"/><path fill="#b98c17" d="M242.629 164.663l-33.127 34.407 9.494-62.385z"/><path fill="#f4d7d2" d="M230.641 231.48l-8.618-3.028-.931 10.947 8.909 12.345 7.595-7.431z"/><path fill="#fef2f0" d="M208.469 241.98l21.532 9.764-7.978-23.292-16.747-1.613z"/><path fill="#87621c" d="M247.178 254.072l-25.155-25.62 20.265-25.62 40.758.931z"/><path fill="#e7c600" d="M217.601 199.237l-2.978 2.439 2.404 3.083 3.065-2.59zM215.327 217.293l-2.978 2.438 2.403 3.083 3.066-2.59z"/><path fill="#9f751c" d="M209.224 378.985l2.554 16.204 18.4-17.237z"/><path fill="#fffae9" d="M260.596 110.977l-31.557.937 19.77 33.621 10.247 17.428z"/></g></svg>