<svg xmlns="http://www.w3.org/2000/svg" viewBox="0 0 400 400"><path opacity=".1" fill-rule="evenodd" clip-rule="evenodd" fill="#2b2b2b" d="M138.518 388.739l104.365-16.846 81.393 15.116L215.186 400z"/><path fill-rule="evenodd" clip-rule="evenodd" fill="#755800" d="M254.192 302.641l66.414-12.218-62.208-12.461z"/><path fill-rule="evenodd" clip-rule="evenodd" fill="#b58b00" d="M257.741 359.926l5.551 7.083-7.769 17.915h-4.803l-3.266-15.199z"/><path fill-rule="evenodd" clip-rule="evenodd" fill="#cea39f" d="M228.535 322.267l29.206 37.659-9.65 6.363-6.244-5.155-23.207-17.065z"/><path fill-rule="evenodd" clip-rule="evenodd" fill="#efd0cb" d="M241.847 361.134l-12.452 12.626 6.856 9.227 21.49-23.061z"/><path fill-rule="evenodd" clip-rule="evenodd" fill="#ccad14" d="M235.254 379.841l-5.859-6.081-10.101 11.164h20.859l17.589-24.998z"/><path fill-rule="evenodd" clip-rule="evenodd" fill="#b58b00" d="M226.195 364.249l3.2 9.511-3.792 17.578h-4.979l-3.787-13.329z"/><path fill-rule="evenodd" clip-rule="evenodd" fill="#cea39f" d="M254.192 302.641l-25.657 19.626-13.349 7.268-15.726-10.383 15.726-34.498 32.386 5.769z"/><path fill-rule="evenodd" clip-rule="evenodd" fill="#b58b00" d="M254.192 302.641l-39.006-17.987 32.04-4.269 26.306 7.462z"/><path fill-rule="evenodd" clip-rule="evenodd" fill="#efd0cb" d="M228.535 322.267l-2.34 41.982-7.647 4.891-5.401-5.881-13.687-44.107z"/><path fill-rule="evenodd" clip-rule="evenodd" fill="#ffeee9" d="M226.195 364.249l-17.907 25.464-9.707-2.986.233-8.216 14.333-15.252z"/><path fill-rule="evenodd" clip-rule="evenodd" fill="#856400" d="M199.46 319.152l-21.287-41.926-35.288-43.915 7.871 52.949z"/><path fill-rule="evenodd" clip-rule="evenodd" fill="#8d7c2f" d="M142.885 233.311l38.648-11.364 15.344 20.71.506 11.768-21.14-1.384z"/><path fill-rule="evenodd" clip-rule="evenodd" fill="#ac923c" d="M175.735 283.154l-32.85-49.843 54.498 21.114 2.077 23.883z"/><path fill-rule="evenodd" clip-rule="evenodd" fill="#8d7c2f" d="M253.192 221.947l51.492 11.906-37.729 24.033z"/><path fill-rule="evenodd" clip-rule="evenodd" fill="#ccad14" d="M253.192 221.947l20.34 20.71-30.268 19.383z"/><path fill-rule="evenodd" clip-rule="evenodd" fill="#8d7c2f" d="M211.58 244.041l1.898 26.998 12.461-5.192 8.075-32.536zM158.848 157.054l1.932 51.652 72.195 7.231 11.678-37.42-3.311-19.692-12.161-5.503z"/><path fill-rule="evenodd" clip-rule="evenodd" fill="#efd0cb" d="M179.123 219.09l19.299 57.141 15.056-5.192-1.898-26.998z"/><path fill-rule="evenodd" clip-rule="evenodd" fill="#856400" d="M160.78 208.706l50.8 35.335 19.735-3.46 1.66-24.644-35.592-9.904z"/><path fill-rule="evenodd" clip-rule="evenodd" fill="#ffeee9" d="M232.975 215.937l11.678-.36 8.539 6.37-9.928 40.093-17.325 3.807z"/><path fill-rule="evenodd" clip-rule="evenodd" fill="#efd0cb" d="M232.975 215.937l20.217 6.01 13.763-53.121-25.613-10.001z"/><path fill-rule="evenodd" clip-rule="evenodd" fill="#856400" d="M187.778 283.154l39.035-24.009 78.519-19.153 25.999 16.162-10.725 34.269z"/><path fill-rule="evenodd" clip-rule="evenodd" fill="#937018" d="M187.778 283.154l39.035-24.009 89.985-39.483 14.533 36.492z"/><path fill-rule="evenodd" clip-rule="evenodd" fill="#ac923c" d="M232.975 215.937l-3.794-62.615-24.875 30.387-6.923 22.401z"/><path fill-rule="evenodd" clip-rule="evenodd" fill="#ac923c" d="M169.129 157.054l-8.349 51.652 36.603-2.596-9.605-19.978z"/><path fill-rule="evenodd" clip-rule="evenodd" fill="#ccad14" d="M226.813 259.145l-27.353 60.007-23.725-35.998zM206.26 385.561l-7.446-7.05-12.881 12.827h26.429l13.833-27.089z"/><path fill-rule="evenodd" clip-rule="evenodd" fill="#a09160" d="M238.701 117.817l-11.38 6.044 3.577 18.454 22.242 8.571 15.666-9.398-11.358-17.572z"/><path fill-rule="evenodd" clip-rule="evenodd" fill="#fff7ae" d="M118.721 86.077l-17.544 18.104 22.007-1.574z"/><path fill-rule="evenodd" clip-rule="evenodd" fill="#c1b274" d="M101.177 104.181l11.554 15.274 11.896-4.7-2.619-14.5z"/><path fill-rule="evenodd" clip-rule="evenodd" fill="#fff7ae" d="M122.092 108.949L98.827 130.03l27.599-1.756z"/><path fill-rule="evenodd" clip-rule="evenodd" fill="#a09160" d="M98.827 130.03l41.364 27.024-13.765-31.132z"/><path fill-rule="evenodd" clip-rule="evenodd" fill="#ffeee9" d="M112.731 45.432l11.917 80.855 15.543 30.767h28.938l27.172 7.638 33.517-35.658 12.16-30.141-28.395-59.998-50.328-6.387z"/><path fill-rule="evenodd" clip-rule="evenodd" fill="#efd0cb" d="M213.583 38.895l-14.365 92.091-22.309 29.631-7.78-3.563 28.254 49.056 31.798-52.788 1.851-10.984-.134-7.987 2.374-5.297 8.706-30.161zM189.398 82.906l-29.549 28.2-34.781-28.633 7.929-6.618 13.351 2.352 3.003 4.003 5.374 3.867 5.592-3.867 3.002-4.003 17.266-2.278z"/><path fill-rule="evenodd" clip-rule="evenodd" fill="#fff5f3" d="M160.317 82.21l-3.737 15.46 3.269 13.436h-10.716l3.253-13.623-3.035-15.273z"/><path fill-rule="evenodd" clip-rule="evenodd" fill="#cea39f" d="M159.849 111.106l-5.015 5.091-5.701-5.091zM169.129 157.054l49.349-1.164-35.053 25.985zM219.819 105.4l6.039 13.243-4.746-.198 9.786 23.87 2.374-13.261 8.706-19.782zM179.704 44.257l-34.074 7.344-20.562 20.415 11.456-35.102z"/><path fill-rule="evenodd" clip-rule="evenodd" fill="#e2d086" d="M196.741 43.867l-4.259-21.126-9.057-16.083L143.476 0 109.01 32.508l40.341-3.887 30.353 15.636z"/><path fill-rule="evenodd" clip-rule="evenodd" fill="#a09160" d="M179.704 44.257l-26.828-20.366-15.177 20.366z"/><path fill-rule="evenodd" clip-rule="evenodd" fill="#fff7ae" d="M152.876 23.891l-27.808 48.125-10.575-4.847-5.483-11.162V32.508z"/><path fill-rule="evenodd" clip-rule="evenodd" fill="#e2d086" d="M125.068 72.016L109.01 56.007 93.735 71.282l24.986 14.795z"/><path fill-rule="evenodd" clip-rule="evenodd" fill="#fff7ae" d="M196.741 43.867l10.154-18.409 3.358-14.1-26.828-4.7z"/><path fill-rule="evenodd" clip-rule="evenodd" fill="#e2d086" d="M196.741 43.867l13.512-32.509 22.031 25.556-6.169 7.343h-13.336z"/><path fill-rule="evenodd" clip-rule="evenodd" fill="#c1b274" d="M212.779 44.257l9.095 44.65 25.392 18.404 13.805-36.602-28.787-33.795z"/><path fill-rule="evenodd" clip-rule="evenodd" fill="#a09160" d="M146.348 78.207l-12.118-5.841-9.162 10.107 9.105-5.442zM163.319 78.207l17.952-5.841 8.127 10.54-9.988-5.875z"/><path fill-rule="evenodd" clip-rule="evenodd" fill="#bc8e8b" d="M137.467 125.048h6.835l11.289-2.461 12.406 2.016 7.216.445-19.415 5.816z"/><path fill-rule="evenodd" clip-rule="evenodd" fill="#cea39f" d="M175.213 125.048l-12.178 14.16-15.107-.21-10.461-13.95 17.715 3.546z"/><path fill-rule="evenodd" clip-rule="evenodd" fill="#fff" d="M141.43 125.841l8.528 8.651h11.629l9.146-8.651-14.935 2.758z"/><ellipse cx="174.417" cy="92.452" rx="5.287" ry="5.434" fill-rule="evenodd" clip-rule="evenodd" fill="#2b2b2b"/><ellipse cx="137.964" cy="92.452" rx="5.287" ry="5.434" fill-rule="evenodd" clip-rule="evenodd" fill="#2b2b2b"/><circle cx="179.605" cy="112.505" r="2.251" fill-rule="evenodd" clip-rule="evenodd" fill="#cea39f"/><path fill-rule="evenodd" clip-rule="evenodd" fill="#a09160" d="M261.071 70.709l10.868 12.912-6.266 29.179-19.583-10.193z"/><path fill-rule="evenodd" clip-rule="evenodd" fill="#856400" d="M225.759 109.925l-4.647 8.52 12.16 10.609 5.252-9.725z"/><path fill-rule="evenodd" clip-rule="evenodd" fill="#e2d086" d="M221.874 88.907l-2.055 16.493 48.987 36.088 1.371-17.027-4.504-11.661z"/><path fill-rule="evenodd" clip-rule="evenodd" fill="#c1b274" d="M268.806 141.488l17.625-22.033-20.758-6.655z"/></svg>