<svg xmlns="http://www.w3.org/2000/svg" viewBox="-86.119 -51.285 400 400"><path fill="#2b2b2b" fill-opacity=".102" d="M17.363 327.501l134.315 20.207 114.581-18.206-115.63-21.354-97.995 13.537z"/><path fill="#eecec9" d="M-6.849 67.355l1.238-16.587 6.197-.667 2.955 20.4-2.097 8.866-7.245-.668z"/><path fill="#6f7173" d="M7.83 72.217l6.96-18.112 14.584 1.907 6.101 15.919-6.483 10.009z"/><path fill="#8b8a8a" d="M10.691 64.972l-.382-8.484 4.481-2.383L28.992 81.94l-5.051 3.051z"/><path fill="#545657" d="M.49 76.507l3.051-6.006 6.768-14.013 13.632 28.503-5.91-1.525-5.911 3.241z"/><path d="M-38.498 98.908l6.387 9.342 13.727-6.959s14.204 1.526 15.443.667c1.144-.954 11.725-12.678 11.725-12.678l.953-8.008-6.196-10.771-18.589 16.396-10.009 1.811-13.441 10.2z" fill="#aa8e30"/><path fill="#897a2f" d="M3.541 70.501l-4.957 15.252-14.013 12.011-9.628-9.056z"/><path fill="#feeee9" d="M8.689 114.351l.763-10.867 8.579-20.018-8.675-2.193-5.719 8.77-22.021 11.248 11.916 12.012z"/><path fill="#eecec9" d="M37.286 137.229l-16.681 9.533-27.073-33.459 15.92-9.819 23.735 18.303z"/><path fill="#feeee9" d="M71.032 115.209l-10.868-12.583-26.977 19.161-12.582 24.975 56.147-12.107z"/><path fill="#62592c" d="M216.785 331.026l-9.152 1.144-2.955-9.246 8.771-12.49z"/><path d="M231.37 319.396c.096-.763 12.201 7.15 12.201 7.15l.572 6.481-27.454 1.526-12.012-11.63-2.002-7.341 28.695 3.814z" fill="#867232"/><path fill="#d0ad3e" d="M201.247 281.742l12.965 6.865 13.821 18.205-2.478 8.868-22.879-.096-6.386-20.402z"/><path fill="#62592c" d="M96.294 310.532l-2.765 9.343 3.145 7.529h4.099l2.956-17.636z"/><path fill="#867232" d="M62.262 319.875l-9.628 1.81.572 5.434 32.792.19 17.731-17.541.762-7.054-22.02 16.397z"/><path fill="#aa8e30" d="M83.615 295.374l-6.197 7.434-24.784 18.877 30.79.951 21.067-19.922z"/><path fill="#d0ad3e" d="M101.918 279.264l-14.109 5.434-10.391 18.11 27.073-.094 1.431-15.061z"/><path fill="#eecec9" d="M96.96 240.562l-9.151 44.136 17.922 4.86 19.447-35.746-12.871-19.065z"/><path fill="#feeee9" d="M139.189 187.465l-30.218-4.289-12.011 57.386 28.218 13.25 20.017-35.747z"/><path fill="#eecec9" d="M168.645 253.718l27.645 41.464 17.922-6.575-15.538-50.523-21.162-6.292z"/><path fill="#feeee9" d="M149.58 195.568l-8.389 17.54 27.454 40.61 30.029-15.634-19.733-64.441z"/><path fill="#b2882e" d="M119.838 183.368l-4.194 6.385 29.36 28.597 33.937-44.707-13.537-2.097z"/><path fill="#feeee9" d="M216.88 99.861l5.337-10.867 11.63-17.349 13.442 11.534-7.722 24.881z"/><path fill="#eecec9" d="M206.013 108.917l-3.242-12.392 19.446-7.531 17.35 19.066-24.212 1.144zM139.189 118.45l11.344-20.114 38.798 25.929-19.732 17.064-16.301-6.483z"/><path fill="#ccad2d" d="M72.366 134.37l-7.149 2.764 50.427 52.619 63.297-16.11-24.023-17.539-1.62-21.258z"/><path fill="#e3c521" d="M82.376 99.671l-14.777-1.144-7.435 4.099 5.053 34.508 32.602 8.865 55.479-11.153-2.765-36.51-14.203-3.241z"/><path fill="#dddddc" d="M136.33 95.095l-38.511 50.904-3.432-8.674 3.05-2.574 8.865-21.354 22.497-19.922z"/><path fill="#eecec9" d="M72.748 95.667l16.109 30.123 8.58 8.961 12.202-16.015 19.16-25.261 7.817-21.925-.382-62.058L106.492-4.52l-8.673 95.135z"/><path fill="#cea19c" d="M96.865 86.135l9.247 10.009 10.772.19-20.686 19.638-23.45-20.305zM135.185 57.727l-9.055 4.099 10.486 9.724 2.573-6.864z"/><path fill="#c1b170" d="M150.723 30.75l-14.297 1.239-11.725-5.529-4.004-16.395 11.152-24.309 26.882 25.929z"/><path fill="#a09160" d="M150.723 30.75l-3.336 10.295-17.254 7.15-5.719-1.335.287-20.4zM154.156 1.58l-1.525 11.154-1.908 18.016 17.445-25.833z"/><path fill="#c1b170" d="M118.218-39.219l25.928-.477 24.022 44.613-15.537 7.817L132.23-5.092 98.866-36.645z"/><path fill="#9d8d56" d="M65.217-35.12l-2.86-10.105 36.032-5.052 45.757 10.581-29.455 10.867z"/><path fill="#c1b170" d="M41.004-15.578l-7.149-8.199 28.502-21.448 52.334 16.396-56.338 13.918z"/><path fill="#9d8d56" d="M51.967-12.528L34.332-6.237l-.477-17.54 29.551.954z"/><path fill="#e1ce7f" d="M62.452-12.051l.954-10.772 51.285-6.006L132.23-5.092l-7.529 9.151-12.298 5.338z"/><path fill="#8b7e51" d="M48.63 1.389L34.332-6.237l29.074-16.586 27.357 17.54z"/><path fill="#feeee9" d="M34.332-6.237L39.384 95.19l66.728.954 6.291-86.747-21.64-14.68z"/><path fill="#fff7ae" d="M112.403 9.397l40.228 3.337L132.23-5.092z"/><path fill="#98732c" d="M54.158 74.696l9.439 9.628 10.771-3.814 6.387-10.104z"/><path d="M55.78 76.03l23.831-4.671 5.434-7.435s-34.126 6.291-34.031 6.1c.19-.285 4.766 6.006 4.766 6.006z" fill="#fff"/><path fill="#e3c521" d="M75.131 78.318l-6.196 4.671-5.529-.858L52.061 70.31l.096-.667-3.145-1.335L61.69 86.707l15.919-3.528 9.628-22.497-3.432 3.242v.858z"/><path fill="#eecec9" d="M44.246 17.309l-4.767 2.193 18.017 32.22 3.145-4.767 3.622 4.957 36.51-27.167-7.626-2.288-20.971 5.719-7.913 6.387-2.763 2.765-.096-2.669-5.624-5.72z"/><path fill="#cea19c" d="M59.878 48.672l-2.382 3.05 3.336 3.241 3.431-3.051z"/><path fill="#6b5321" d="M72.366 23.982l21.64-2.574 7.626 2.479-.859.858-7.435-1.144-21.162 4.575zM55.78 28.939l1.144-3.432-12.203-9.628-5.91 2.86.668.763 4.481-.858z"/><path fill="#fef4f2" d="M61.309 34.659l-3.813 17.063 6.767.19V34.563z"/><path fill="#98732c" d="M49.012 68.308l3.526.858 11.916-6.768 19.161.953 3.622-2.669-3.432 4.1-31.744 5.528z"/><path fill="#feeee9" d="M130.992 37.232l16.395 3.813-8.198 23.641-13.059-2.86z"/><path fill="#cea19c" d="M140.238 44.286l-5.623-1.525-2.289 10.677z"/><path fill="#feeee9" d="M202.771 96.525l-33.172 44.804 23.926 9.627 21.83-41.752z"/><path fill="#aa8e30" d="M243.571 326.546l-25.166 3.241-15.729-14.203 25.357-8.772z"/><path fill="#feeee9" d="M-25.057 88.708l18.208-21.353 5.433 18.398-14.203 8.484z"/><path fill="#eaeceb" d="M67.599 98.527l30.22 47.472-.382-11.248-24.689-39.084z"/><path fill="#efd0cb" d="M75.131 78.318l-11.725 3.813-1.811 4.48 1.62 6.959 5.911 2.002 4.765-4.48-1.143-5.625z"/><path d="M50.284 33.226c2.068.119 3.65 1.891 3.531 3.959-.118 2.068-1.891 3.649-3.96 3.531-2.067-.118-3.648-1.891-3.531-3.959.12-2.069 1.893-3.649 3.96-3.531z" fill="#2b2b2b"/><path fill="#2b2b2b" fill-opacity=".102" d="M65.217 137.134l32.602 8.865 17.825 43.754z"/><path d="M80.472 33.226c2.068.119 3.648 1.891 3.531 3.959-.119 2.068-1.891 3.649-3.96 3.531-2.068-.118-3.65-1.891-3.531-3.959.118-2.069 1.891-3.649 3.96-3.531z" fill="#2b2b2b"/></svg>