<svg xmlns="http://www.w3.org/2000/svg" viewBox="0 0 400 400"><path opacity=".1" fill="#2b2b2b" d="M108.75 386.57l94.583-10.07L308 389.535 210.638 400z"/><path fill="#755924" d="M143.744 217.297l-21.303 13.453-9.691-43.048 16.521 10.967zM151.629 281.333l-3.754 21.334 20.564 14 21.883 2.666 6.678-4.166 3-32.5z"/><path fill="#664b1f" d="M147.875 302.667l44.433 8.013 7.256 1.985L195.196 325H178.5l-16.662-4.667z"/><path fill="#846528" d="M190.322 289l1.986 21.68 33.193 2.32 27.595-7-7.03-27.517-20.565 1.492z"/><path fill="#755924" d="M192.308 310.68L204.251 328l12.249 1.125 18-2.792L253.096 306z"/><path fill="#b38c2e" d="M232.918 279.437l4.582 27.764-7.5 7.924-2.307-7.169-2.505-25.534zM213.299 287.276l.204 21.772-3.378 2.952-5.415-2.275v-23.439z"/><path fill="#9d782c" d="M227.693 307.956l9.807-.755-12.312 22.459-5.106-.918zM204.71 309.725l8.793-.677 2.188 19.693-5.188-.465z"/><path fill="#b38c2e" d="M185 285.754l-1.846 23.294-3.654 1.202-4.546-2.7 4.563-21.796zM168.667 282.811l-1.275 23.375-4.068-.186-4.751-1.404 5.275-22.524z"/><path fill="#9d782c" d="M174.954 307.55l8.2 1.498L187.359 325H181.5zM167.392 306.186l7.404 17.314h-4.671l-11.552-18.904z"/><path fill="#ac923b" d="M205.25 336.625l3.417 28.042L218.75 370l7.168-3.333 6.582-31.292-16-4.372zM196.333 334.667l4.377 31.846h-13.858L181.24 360l-13.862-28.997L178.5 325z"/><path fill="#8d7c2f" d="M234.5 326.333l-2 9.042-27.25 1.25-.999-8.625zM195.196 325l1.137 9.667-28.955-3.664-5.54-10.67z"/><path fill="#ccae2d" d="M208.667 364.667l-5 13.833 14.583 5.478L231.524 381l-5.606-14.333z"/><path fill="#846528" d="M203.667 378.5l27.857 2.5 2.337 5.75-19.076 2.785-14.075-2.785z"/><path fill="#755924" d="M200.71 386.75h33.151v5.57H200.71z"/><path fill="#ccae2d" d="M181.24 360l-15.157 10.833 20.769 13.132 13.858-17.452z"/><path fill="#846528" d="M200.71 366.513l-15.526 12.667-19.101-8.347-14.368 10.347 20.191 1.75 28.804-1.75z"/><path fill="#755924" d="M151.636 381.18h49.074v5.57h-49.074zM278.667 181.434l10 16.369-45.403 19.494 21.438-26.815z"/><path fill="#664b1f" d="M275.667 163.667l3 17.767-35.403 35.863 18.225-42.63z"/><path fill="#755924" d="M256.333 163.667l10.716-5 8.618 5-32.403 53.63 4.736-35.42z"/><path fill="#9d782c" d="M294 190.482l-31.279 16.532 1.981 13.493L286.667 234l12.526-24.734z"/><path fill="#846528" d="M262.721 207.014L286.667 234l-50.01-8.25 6.607-8.453z"/><path opacity=".2" fill="#2b2b2b" d="M285.333 207.014l8.167 13.493 5.693-11.241-6.93-5.266z"/><path fill="#feeee9" d="M295.333 192.667l12.01-1.119 10.99 1.119-4.655 9.804-14.485 6.795-13.86-2.252 4.375-8.345z"/><path fill="#efd0cb" d="M318.333 192.667l15.334 1.432-19.989 12.218-14.485 2.949zM294 190.482l11.277-9.555 4.401 4.703-8.928 13.173-11.042-.134z"/><path fill="#9d782c" d="M240.861 258.111l3.663 14.34L190.322 289 153 274.875l2.524-11.625 3.718-17.773 57.008 4.953z"/><path fill="#664b1f" d="M117.5 178.39l-4.75 9.312 30.994 29.595 3.583-7.315-13.827-18.434z"/><path fill="#755924" d="M130 175.25l-12.5 3.14 29.827 31.592 6.302-2.756-7.296-19.524z"/><path fill="#664b1f" d="M136.245 165.333L130 175.25l17.327 34.732 11.041-7.971-12.096-24z"/><path fill="#755924" d="M150.333 156.74h-8.845l-5.243 8.593 22.123 36.678L160.534 179z"/><path fill="#9d782c" d="M238.657 145.198l7.833 14.937 3.132 3.532h6.711L237 243l-70.5 5.75-8.132-46.739-8.035-45.271 6.02 1.927 4.599-4.155z"/><path fill="#846528" d="M246.49 160.135l-18.797 4.52 21.929-14.144z"/><path fill="#ccae2d" d="M256.333 163.667L224.082 200l-5.832 52.5-8.747-2.656 4-52.344 32.987-37.365zM195.196 160.135l6.055 85.781-14.892-1.391 2.338-79.87zM160.952 154.512L174.796 200l4.704 50.43-12.598-4.953-.652-44.495-15.917-44.242z"/><path fill="#f4d75c" d="M256.333 163.667l-6.711 7.56-8.525-4.984 5.393-6.108zM227.693 164.655l13.404 1.588 2.167 12.147-15.578 3.044zM214.375 174.625l13.311 6.809-7.445 8.433-11.065-4.261zM164.838 167.279l9.958 4.244 3.593-9.047-10.634-3.809zM183.242 170.087l-8.446 1.436 4.378 12.973 8.996-2.619z"/><path fill="#755924" d="M267.049 83.713l-17.692 18.234-8.26-27.409z"/><path fill="#35291b" d="M143.925 116.751l-3.701 21.456 20.728 16.305 9.872-11.042z"/><path fill="#ececeb" d="M254.585 130.652l11.832 9.027-38.724 24.976-27.803-4.576-13.72-.361-30.646 10.863 8.988-24.701 11.728-14.193 49.53-4.059z"/><path fill="#f4d75c" d="M227.693 8.34l-14.19 2.979-3.864-1.156-51.678 5.218L138.87 42.01l3.791 17.966 28.163-6.957 9.614-2.704 45.359-5.423z"/><path fill="#35291b" d="M128.218 91.115l15.707 25.636 2.347-25.636-7.763-16.984z"/><path fill="#feeee9" d="M135.259 61.147l8.666 55.604 20.587 29.129 12.27-1.327 9.388 15.165 12.637-5.206 25.275-12.125 5.777-50.55-17.873-36.106-19.678-3.611z"/><path fill="#efd0cb" d="M211.986 55.731l4.062 50.369-20.852 38.634 4.694 15.345 24.192-17.692 5.777-50.55zM197.904 73.423l-10.651-2.527-10.29 3.43-3.792 5.235-7.943.903-2.708-2.708-11.599-2.528-7.177 4.333 33.219 25.636z"/><path fill="#46382d" d="M198.807 70.896l-11.373-2.889-12.638 2.889 2.167 3.43 10.29-3.43 10.651 2.527zM143.744 79.561l-1.083-1.986 7.989-4.378 12.592 1.129-.722 3.43-10.992-1.625z"/><circle cx="186.35" cy="83.352" r="3.972" fill="#2b2b2b"/><circle cx="156.562" cy="87.144" r="3.972" fill="#2b2b2b"/><path fill="#fff5f3" d="M173.171 79.561l-.451 13.405 4.243 12.231-9.208.903 1.174-12.457-3.701-13.179z"/><path fill="#cea39f" d="M176.963 105.197l-3.972 6.68-5.236-5.777zM176.782 144.553l32.857-3.61-9.749 19.136-7.582 2.065-6.138-2.426zM158.368 118.918l36.828-4.875-10.651 14.804-16.79 1.805z"/><path fill="#fff" d="M163.784 121.265l24.913-3.115-5.551 7.854-14.623 1.624z"/><path fill="#46382d" d="M186.666 109.349l15.301 5.281-18.415-1.219-3.114-2.301zM162.294 112.734l5.145.407-1.489 2.708-12.321 5.28zM172.043 132.164l3.114 4.942-4.333 8.092 15.129-1.652-7.005-6.846 1.422-5.484zM160.534 57.148l-32.316 33.967-5.777-9.748 12.818-20.22L147.25 56.5z"/><path fill="#35291b" d="M213.503 74.538l13.349 43.612L237.5 95.441l-15.819-17.685z"/><path fill="#5f5044" d="M229.859 91.837l-5.777 50.55 15.706 8.124 4.153-49.466z"/><path fill="#35291b" d="M241.49 103.675l-1.702 46.836 24.914-29.788-16.609-14.623z"/><path fill="#46382d" d="M192.308 52.12l37.551 39.717 11.631 11.838 10.033 2.425-2.527-22.928-37.01-27.441z"/><path fill="#5f5044" d="M264.702 120.723l-15.706-37.551-7.506 20.503z"/><path fill="#755924" d="M135.259 61.147l57.049-9.027-3.611-4.513-13.901-2.715-22.206 1.361-19.136 5.867z"/><path fill="#8d7c2f" d="M174.796 44.892l17.512 7.228 23.469 10.11 3.25-9.211-9.388-13.493-34.843 5.366z"/><path fill="#8d7c2f" d="M215.777 62.23l19.769-1.083 35.204-.542-3.701 23.108-18.053-.541-19.137 8.665z"/><path fill="#ac923b" d="M209.639 39.526l26.99 8.081 34.121 12.998-29.653 4.513-25.32-2.888z"/><path fill="#ccae2d" d="M270.75 60.605L227.693 8.34l-18.054 31.186z"/><path fill="#ac923b" d="M152.59 48.774l-9.929-9.248-7.582-2.887-1.625 15.481zM172.359 35.599l-8.575-4.025-16.249 1.409 5.055 15.791 22.206-3.882z"/><path fill="#ccae2d" d="M172.359 35.599l37.28 3.927-34.843 5.366zM172.359 35.599l-24.824-2.616 62.104-22.82 18.054-1.823z"/><path fill="#ccae2d" d="M157.961 15.381l-22.882 21.258 17.512 12.135-5.056-15.791zM215.777 62.23l33.219 20.942 21.754-22.567z"/><path fill="#cfcecd" d="M153.629 41.992l10.155-14.979L165.228 0 146.52 12.5l-2.776 6.75 3.791 5.817-4.513-1.817-1.534 7.435 8.947 11.355z"/><path fill="#a3a2a2" d="M155.524 48.261l-4.508-14.911L165.228 0l-17.693 32.983 5.056 15.791z"/><path fill="#cfcecd" d="M186.17 159.718L174.796 200l12.723 3.149 5.692-41.633z"/><path fill="#ececeb" d="M186.359 170.581l7.308-10.665 8.771 7.167 11.065 30.417-26.361 17.989z"/><path fill="#fff" d="M186.17 159.718l13.72.361 2.548 7.004-16.079 3.498z"/><path fill="#755924" d="M236.96 242.75l-77.718 2.727-1.51 12.634h83.129z"/><path fill="#846528" d="M186.359 244.525l9.663-.339 9.617 13.925-1.139 9.222-11.5 2z"/><path fill="#bd902d" d="M244.524 272.451l-14.945 3.22-38.377 5.996L153 274.875l-1.371 6.458L190.322 289l55.744-10.517z"/><path opacity=".2" fill="#2b2b2b" d="M168.667 284.709l-20.792 17.958L153 274.875l5.371-4.777 20.714-12.153z"/><path fill="#f4d75c" d="M126.546 215.944l31.822-13.934 19.097 26.968-25.836 34.425-28.879 1.097-.309-33.75z"/><path fill="#ac923b" d="M158.368 202.01l17.57 10.231 16.264 24.009-14.737-7.272z"/><path fill="#8d7c2f" d="M192.202 236.25l-28.418 40.542-12.155-13.389 25.836-34.425z"/><path fill="#ac923b" d="M163.784 276.792l-16.457-2.299-23.577-9.993 27.879-1.097z"/><path fill="#846528" d="M141.33 228.206l12.955-1.456 3.447 8.75-9.343 12.25-9.546-1.54-1.697-11.385z"/><path fill="#f1bd67" d="M157.732 235.5l79.768 44.599-3.316 7.01-35.337.283-50.458-39.642z"/><path fill="#e2a940" d="M209.106 264.224l28.394 15.875-3.316 7.01-35.337.283 2.404-10.6z"/><path fill="#f4d75c" d="M205.157 262.016l-12.849 19.726 6.539 5.65 10.259-23.168z"/><path fill="#e2a940" d="M216.617 268.423l-1.526-10.312 12.595 8.222zM229.579 275.671l-1.893-9.338 11.593 7.248zM213.299 287.276l8.09 8.466H204.71z"/><path fill="#ac923b" d="M137.366 211.207l-14.925 19.543 4.105-14.806z"/><path fill="#ac923b" d="M206.398 270.622l-.161-.102-78.258-49.591.536-.844 78.096 49.488 10.006-1.15 2.444 1.367z"/><path fill="#ac923b" d="M229.579 275.671l-25.482.5-.127-.087-77.418-52.671.563-.826 77.29 52.584 22.703-.882zM213.299 287.276l-11.994-5.497-75.58-55.312.59-.807 75.51 55.27 15.259 6.316z"/><path fill="#9d782c" d="M112.75 187.702l-17 29.903 25.543 26.581 6.675-1.436 9.178-7.925z"/><path fill="#cea39f" d="M138.25 238.375l13.881 12.314-2.348 4.978-10.858-3.167z"/><path fill="#feeee9" d="M133.263 240.35l4.987-1.975 6.843 25.285-7.968 3.578-15.375-2.738-.316-14.07z"/><path fill="#efd0cb" d="M145.093 263.66l2.234 10.833-13.756-1.92-11.821-8.073z"/><path fill="#ac923b" d="M137.146 234.825l1.104 3.55-9.003 13.055-7.813-1-.141-6.244z"/></svg>