<svg xmlns="http://www.w3.org/2000/svg" viewBox="-86.96 -54.442 400 400"><path fill="#2b2b2b" fill-opacity=".102" d="M22.995 329.431l93.526-17.555 95.644 16.346-95.039 16.343z"/><path fill="#473615" d="M109.862 302.797v18.765l-5.145 3.632-13.318-3.632-19.673 2.723-16.042-2.723 29.661-19.068 10.897-8.474zM132.563 309.152l-6.357 22.4 3.33 4.539h32.386l2.724-4.539-11.199-22.4-10.291-7.567z"/><path d="M109.862 321.562H91.399l1.816 3.936h16.647v-3.936zm-18.463 0H55.684l.302 3.936h31.781l3.632-3.936zM126.206 331.552h38.44v4.841l-37.834-.302z" fill="#30240b"/><path fill="#fcefe9" d="M141.944 97.887l-30.871 7.264-13.621-9.383.303 32.689 7.264 22.7 14.831-16.344z"/><path fill="#61491a" d="M110.467 244.381h26.334l26.029-33.9-56.6-6.961-45.401 9.988 34.202 30.873z"/><path fill="#cbac2d" d="M251.815 75.791l-16.343-13.015-17.555 23.003 12.106.606 10.595-3.329zM203.689 67.014l-19.975 11.199 13.62 16.949 10.292-5.145 3.025-4.54.305-6.356z"/><path fill="#e3c620" d="M235.169 100.914l32.386-6.357-11.199-20.884-26.333 12.712v7.264zM230.023 86.385V61.869l-24.819-.304 5.447 23.912 9.99 3.027z"/><path fill="#cbac2d" d="M-19.38 129.667l-22.095-19.371L-25.736 99.4l4.237 6.356 2.422 8.778 2.724 6.961z"/><path fill="#e3c620" d="M23.6 123.917l16.344-21.491L16.941 90.32l-7.264 21.49z"/><path fill="#cbac2d" d="M13.006 80.332l-24.818 1.513 3.026 21.792 6.053 7.87 12.41.303z"/><path fill="#e3c620" d="M-19.077 114.534L-29.368 91.53l24.819-6.053 3.33 22.701-6.054 5.448z"/><path d="M-20.591 93.952l3.632 2.118-2.119 3.33-3.632-2.119 2.119-3.329zm7.265 6.962l3.632 2.118-2.118 3.329-3.632-2.118 2.118-3.329zm2.724-9.686l3.632 2.119-2.119 3.329-3.632-2.119 2.119-3.329zM22.086 108.178l-.605-2.119-2.118-.606-.909 1.817 2.119 4.54 4.238-.909 1.513-2.118-1.816-1.513zM69.909 112.112l-29.662 34.506 6.659 13.015 18.463 9.079 3.027-16.647zM158.896 106.059l20.883 28.148-5.447 15.739-13.015 17.858-5.449-27.846z" fill="#7f6126"/><path fill="#efd0cb" d="M191.584 110.901h9.382l6.66 3.33-1.211 6.053-6.356-.302-11.201-3.632z"/><path fill="#cbac2d" d="M97.452 95.768l-4.843 7.264-.908 8.475 1.816 10.896 6.659 6.659 4.238-1.513z"/><path fill="#e3c620" d="M93.517 122.403l-16.041 6.356 11.199-27.845 8.777-5.146z"/><path fill="#b48a2e" d="M88.675 100.914l-18.766 11.198-6.054 78.696 1.817 3.631-2.725 3.027-2.118 16.042 33.597 10.29v-11.197l7.869-49.336-8.778-37.533-16.041 3.027z"/><path fill="#9e7701" d="M88.675 100.914L67.79 136.326l26.333 43.887 4.237-32.99-4.843-24.82-16.041 6.356z"/><path fill="#e5c828" d="M132.563 128.154l16.344 6.053-1.816-33.899-5.147-2.421-13.317 19.976z"/><path fill="#b48a2e" d="M115.31 164.474l14.831-26.937 21.186-7.567-4.236-29.662 11.805 5.751 3.329 85.657-4.238 3.328 4.238 4.238.605 11.199-42.677 14.528-.908-10.593-6.054-28.451z"/><path fill="#9e7701" d="M147.091 100.308l9.988 31.175-40.558 48.428 3.632-38.137 7.87-15.436 18.462 5.448z"/><path fill="#e3c620" d="M126.206 124.219l-7.869 4.54-13.318 22.398-.605-23.608-10.897-5.146.303 31.478.606 58.72 11.804-4.541 13.015 6.356-2.724-34.505 16.042-51.757z"/><path fill="#7f6126" d="M60.829 213.508l15.436 55.691 18.766 8.476 15.134-5.751.302-27.543z"/><path fill="#7f6126" d="M110.467 244.381l52.363-33.9-5.449 58.416-18.159 9.686-18.766-5.146z"/><path fill="#98742c" d="M65.369 168.712l-28.452 23.307-18.16-43.284 6.659-8.777 9.686-2.421zM161.317 167.804l35.413 10.292 8.474-50.85-3.934-3.329-11.502-.303-4.54-.303z"/><path fill="#e3c620" d="M185.228 123.311l3.63-6.961 17.557 3.934-1.211 6.962zM15.427 140.261l3.33 8.474 16.345-11.198-5.448-6.356-9.081 3.934z"/><path fill="#cbac2d" d="M105.019 151.157l-5.145 59.324 6.356-2.421z"/><path fill="#cea39f" d="M191.584 110.901l16.042 3.33 27.543-13.317-19.674-4.54-18.161-1.212z"/><path fill="#ffeee9" d="M197.334 95.162l37.835 5.752-5.146-14.529-19.372-.908z"/><path fill="#efd0cb" d="M25.719 126.641l-8.475 2.421-5.146 5.145 3.329 6.054 14.227-9.08z"/><path fill="#cea39f" d="M25.719 126.641l-13.621 7.566-31.478-4.54 18.766-11.804 15.437-4.237z"/><path fill="#ffeee9" d="M14.823 113.626l-34.203 16.041.303-15.133 17.858-6.356z"/><path fill="#e3c620" d="M63.855 190.808l18.766-4.239-.303 6.962-19.371 3.935zM132.563 187.175v8.777l29.662 3.33v-7.566z"/><path fill="#cbac2d" d="M132.563 128.154l-14.226.605 23.607-30.872z"/><path fill="#8f6b00" d="M77.476 128.759l15.739.606.302-6.962z"/><path d="M253.935 81.845l-2.119 3.329-3.633-1.816 2.12-3.329 3.632 1.816zm-7.265 6.961l-2.119 3.33-3.631-1.816 2.118-3.632 3.632 2.118zm10.292 2.422l-2.119 3.329-3.632-1.815 2.117-3.33 3.634 1.816zM217.613 68.83l-1.816-1.211-2.117.303v1.816l4.539 3.026 3.027-2.723.303-2.422-2.422-.605zM218.521 77.002l-1.513-1.211-2.119.303v2.119l4.238 3.026 3.026-3.026.606-2.422-2.421-.302z" fill="#7f6126"/><path fill="#6c5320" d="M76.265 269.199l33.9 2.725-.303 30.873-24.517-.303zM120.456 273.437l36.925-4.54-3.934 40.255h-20.884z"/><path fill="#7c4e25" d="M130.444-19.248l19.067-5.751 9.385-13.015-15.74-7.567-9.989 10.291zM68.396-41.646l2.421 7.264v8.475l5.448 6.054v4.842l3.33 4.843 14.528.606 16.95-11.199-18.464-15.437z"/><path fill="#efd0cb" d="M130.444-19.248l-16.343 75.365-6.963 37.078 15.74-.454-15.74 20.279 34.806-15.133 13.016-37.835 1.211-17.858 9.384-13.922-14.53-9.686-8.17 1.514.908-19.372z"/><path fill="#cea39f" d="M92.609 87.595h41.163l-26.634 25.425z"/><path fill="#fcefe9" d="M52.657-6.536l-1.816 7.567 2.723 9.989 2.725 49.336 16.647 27.239h37.229l15.749-29.359 4.53-77.484-10.594-5.448-8.777 3.935-31.478 10.593-3.33-9.685L63.25-17.13z"/><path fill="#fff5f3" d="M80.805 23.731l-1.816 22.701h8.172V23.731z"/><path fill="#c8a39d" d="M72.633 54.302H98.36l2.119.908 2.724 3.632-9.988 12.106H78.082l-7.568-13.317z"/><path fill="#fff" d="M73.238 57.329h23.004l4.237 2.723-8.172 8.173H79.292z"/><path fill="#cea39f" d="M78.989 46.432l3.935 5.145 4.237-5.145z"/><path fill="#efd0cb" d="M88.675 47.643l14.528 11.199-6.054-11.199zM71.726 47.643h6.052l-7.264 9.988zM59.618 21.916l10.291 5.447 9.08 19.069 1.816-22.701-10.593-6.053zM87.161 23.731v22.701l13.621-19.069 12.107-6.356-11.502-3.631z"/><path fill="#7c4e25" d="M88.372 23.126l12.41-8.172 12.107 6.053-10.897-.605zM79.292 22.824l-9.383-6.659-10.291 5.751 9.988-1.816z"/><path d="M100.782 24.336c1.839 0 3.33 1.355 3.33 3.027 0 1.672-1.491 3.027-3.33 3.027s-3.33-1.355-3.33-3.027c0-1.671 1.491-3.027 3.33-3.027zM69.909 24.336c1.839 0 3.329 1.355 3.329 3.027 0 1.672-1.49 3.027-3.329 3.027-1.838 0-3.329-1.355-3.329-3.027 0-1.671 1.49-3.027 3.329-3.027z" fill="#2b2b2b"/><path fill="#9b6534" d="M52.657-6.536l23.608-13.317-5.448-14.529-25.728 20.279 3.935 6.357z"/><path fill="#7c4e25" d="M45.089-14.103l7.568 7.567 1.211 19.977L45.089-.482z"/><path fill="#9b6534" d="M68.396-41.646l42.677 20.885 19.371 1.513 12.712-26.333L102.9-53.45z"/><path fill="#9b6534" d="M130.444-19.248L142.55 4.058l16.346.302 18.461-9.685-18.461-32.689z"/><path fill="#7c4e25" d="M142.55 4.058l-5.749 30.57 7.566 2.421 3.027-14.225 18.161 5.448 11.802-33.597z"/><path fill="#fcefe9" d="M142.248 46.432l15.739 4.237 7.568-22.397-18.161-5.448z"/><path fill="#c8a39d" d="M142.248 46.432l15.739 4.237-3.027 9.383zM152.54 29.482l-3.029 11.2 9.687-9.384z"/><path fill="#6b5220" d="M44.787 53.696h4.237l2.119 6.356-.302 3.33.605 3.329-3.632 6.053h-3.632l-3.935-9.382-.303-.908 2.724-4.238z"/><path d="M116.823 63.382l-2.422 3.33H46.905l-1.513-3.33 6.356-.908 65.075.908z" fill="#dbdbdb"/><path fill="#fff" d="M45.393 63.382l1.816-3.33h72.339l-2.725 3.33h-4.237z"/><path fill="#98742b" d="M42.668 58.236H19.665l-4.238 5.146 18.464 2.119 6.356-2.119z"/><path fill="#6b5220" d="M15.427 63.382h28.15v4.843h-28.15z"/><path fill="#dbdbdb" d="M74.751 60.052h25.728l-2.119 1.513z"/><path d="M112.889 68.225H95.462l1.248-1.513h17.691l-1.512 1.513zm-36.321 0H61.131l-.908-1.513H75.66l.908 1.513z" fill="#efd0cb"/><path fill="#c8a39d" d="M109.559 139.655l-3.632-5.145 1.211-.605 3.329 5.145zM109.257 132.694l-3.632-5.448 1.21-.605 3.33 5.447zM113.796 132.392l-3.329-5.146.908-.605 3.33 5.145zM114.401 126.338l-3.328-5.146.302-.302.605-.303 3.33 5.145zM108.348 124.522l-3.329-5.146.908-.605 3.33 5.146zM118.64 124.219l-2.422-3.632 1.211-.605 2.119 3.632z"/></svg>