<svg xmlns="http://www.w3.org/2000/svg" viewBox="0 0 400 400"><path opacity=".1" fill="#2b2b2b" d="M70.323 382.167l123.319-15.666 132.347 25.666L211.25 400z"/><path fill="#755924" d="M131.759 280.748l-4.75 95.587h15.25l-.75-93.182z"/><path fill="#b38c2e" d="M90.509 267.998l-7.251 113.507h17.501l1.121-96.554z"/><path fill="#9d782c" d="M101.738 297.196l-5.728 6.302 5.57 7.299L138.103 313l2.002-8.419z"/><path fill="#846528" d="M150.594 298.991l41.852-3.993v10.001l-43.276 2.027z"/><path fill="#b38c2e" d="M148.646 275.248l8.863 105-18.015 3.003-1.722-95.959z"/><path fill="#e2a940" d="M90.509 267.998l48.5-4.747 67.774 4.849-58.137 9.149z"/><path fill="#9d782c" d="M148.646 275.248l4.434 5.5-3.388 7.25-60.15-3.834.967-16.166z"/><path fill="#846528" d="M149.692 287.998l57.323-6.25-.232-13.648-58.137 7.148z"/><g><path fill="#3aa0ba" d="M109.325 229.161l16.378-2.413 1.125 5.416-8.209 1.084z"/><path fill="#74cfe4" d="M125.703 226.748l15.372 2.413-15.372 4.087z"/><path fill="#74cfe4" d="M125.703 231.387l-16.378-2.226 6.169 38.42 10.209 1.782 1.125-20.865z"/><path fill="#3aa0ba" d="M125.703 231.387l15.372-2.226-4.664 38.837-10.708 1.365z"/><path fill="#bbf9ff" d="M113.661 243.581l12.042-1.833 1.125 5.187z"/><path fill="#98ebf9" d="M113.661 243.581l3.458 21.917 8.584 1.562 1.729-13.062-1.729-8.667zM125.703 241.748l11.208 1.791-11.208 1.792z"/><path fill="#74cfe4" d="M136.911 243.539l-2.479 22.459-8.729 1.062v-21.729z"/></g><g><path fill="#5b5b5b" d="M268.661 270.826l3.136 59.993-20.796 8.174-18.328-11.172-15.095-33.662-10.826 31.362-19.258.472-16.605-15.584 1.122-44.797 50.652-7.453z"/><path fill="#3f3f3f" d="M217.578 294.159l45.67-29h-78.419z"/><path fill="#494949" d="M232.673 327.821l39.124 2.998 1.864 35.675-14.833 2.883-10.157-5.883zM170.889 310.409l35.863 15.112-13.11 37.977-13.148-1.505-9.709-6.161z"/><path fill="#9d782c" d="M174.92 221.601l-32.592-39.768 36.677-34.666L189.351 200zM282.494 153.833l24.168 66-43.001 4z"/><path fill="#f4d75c" d="M191.637 145.495l-12.632 1.672-4.573 83.33-2.421 35.115 45.567 12.547 47.083-11.333-5.833-32.661 23.666-80.332-19.334-3.668z"/><path fill="#e2a940" d="M218.994 163.167l-1.416 114.992 51.083-7.333.169-34.659 13.664-82.334-13.664-3.714-38.836 2.048z"/><path opacity=".2" fill="#2b2b2b" d="M208.919 222.667l9.159 15.746 23.924 8.84 26.659 23.573.169-34.659-49.17-14.566z"/><path fill="#b29392" d="M180.713 14.977l-17.831 47.071 2.32 55.983 27.279 5.349 14.332 20.107-15.176 2.008 26.875 23.172 50.318-18.548-16.154-4.424 22.89-67.959-24.322-48.698-4.916-12.994-54.559-5.704z"/><path fill="#997c7c" d="M251.244 29.037l-32.732 99.692-5.166 12.104.709 13.303 38.621-8.441 32.161-70.098z"/><path fill="#7d6362" d="M192.481 123.38l49.031 8.915-27.457 21.841z"/><path fill="#997c7c" d="M224.039 60.085l-16.225-5.349-10.787.981-4.992-.981-9.242-4.512-12.777.233 16.225 19.791 12.48 5.705z"/><path fill="#c4a7a7" d="M197.027 55.717l-1.783 6.062 3.477 14.174-18.097-3.387 10.609-11.589.802-6.241z"/><path fill="#7d6362" d="M198.721 75.953l-9.895 4.369-8.202-7.756z"/><path fill="#484748" d="M224.039 60.085l-12.124-7.666-7.488-.714-1.773 3.501 5.16-.47zM170.016 50.457l10.608-3.209 7.043 1.694v3.662l-4.874-2.38z"/><circle cx="209.866" cy="62.071" r="3.122" fill="#2b2b2b"/><circle cx="179.376" cy="55.726" r="3.122" fill="#2b2b2b"/><path fill="#7d6362" d="M275.566 96.034l-13.907-4.448 6.954 19.775zM267.365 87.899l3.387-11.455 8.202 2.54z"/><path fill="#484748" d="M239.374 38.335l4.812-19.079-52.417-8.916L228.318 0l60.619 36.372-18.185 7.132z"/><path fill="#2b2b2b" d="M239.374 38.335l49.563-1.963-2.496 27.636-17.828-4.041-23.349-12.719z"/><path fill="#484748" d="M284.837 75.597l-18.364-6.062-21.209-22.287 41.177 16.76z"/><path fill="#7d6362" d="M172.046 86.651l34.63 6.333-8.49 11.853-22.183-4.136z"/><path fill="#fff" d="M177.46 91.331l22.732 4.146-3.744 5.349-17.919-3.343z"/><path fill="#484748" d="M188.826 80.322l19.657 11.009-1.807 1.653-17.85-7.224zM188.826 80.322l-2.407 4.725-14.373 1.604-1.206-1.961z"/><path fill="#484748" d="M208.483 91.331l-11.456 32.875-14.109 2.432-12.902-7.663.824-34.285 1.206 1.961 2.068 24.427 22.913 4.108 9.649-22.202z"/><path fill="#484748" d="M191.637 103.616l-3.238 5.099-5.457-.802-.979-6.101z"/><path fill="#997c7c" d="M198.721 75.953l7.955 4.369 1.807 11.009zM180.624 72.566l-7.221 3.031-2.563 9.093z"/><path fill="#b29392" d="M306.662 219.833l-34.865-1.541-17.803 11.083 7.015 12.693 29.746 9.934z"/><path fill="#997c7c" d="M250.502 216.834l-12.748-21-5.083 3 3.081 15.339z"/><path fill="#b29392" d="M174.92 221.601l-18.769-38.037-5.907-33.981-9.75 13.584-3.25 53.66z"/><path fill="#5b5b5b" d="M138.869 193.498l3.459-12.682 9.166-27.691 17.289 3.946-12.632 26.493-6.625 13.874z"/><path fill="#2b2b2b" d="M150.244 149.583l-1.583-14.302 15.172 3.922 15.172 7.964-10.222 9.904z"/><path fill="#5b5b5b" d="M149.994 131.24l13.18-9.926 15.831 5.875 1.614 15.978-18.291-5z"/><path fill="#9ca0a1" d="M148.661 135.281l30.344 11.886 1.614-4-30.625-11.927z"/><path fill="#b29392" d="M250.502 216.834l-22.008-8.132-4.067 13.299-2.001 11.164 23.243 3.336 4.833-9.375z"/><path fill="#997c7c" d="M228.494 208.702l-19.575-2.201v16.166l13.507 10.498z"/><path fill="#9d782c" d="M255.002 239.888l-.5-11.527 4.177-11.033 13.118.964-10.788 23.776z"/><path fill="#846528" d="M245.669 236.501l4.833-19.667 8.177.494-3.677 22.56z"/><path fill="#7d6362" d="M168.783 171.622l2.211 6.211-14.843 5.731 7.682-13.731z"/><path fill="#c4a7a7" d="M150.244 149.583l13.589-.583-3.167 16.2-6.519 11.8-11.819 3.816z"/><path fill="#997c7c" d="M163.833 149l10.599 17.282-18.281 17.282-2.004-6.564z"/><path fill="#e2a940" d="M248.671 363.494l-9.677 21.501 18.625 2.002 18.625-2.002-2.583-18.501-11.667-1.4-2.375 2.446-2.5-3.031z"/><path fill="#9d782c" d="M238.994 384.995h37.25v6.25h-37.25z"/><path fill="#f4d75c" d="M257.119 364.509l-1.458 9.736h6.333v-9.151z"/><path fill="#e2a940" d="M172.996 356.573l-6.704 4.545-6.704 2.376-20.094 13.752 26.345 2.002 28.008-2.002-.205-13.748z"/><path fill="#f4d75c" d="M172.996 356.573l-9.168 8.753-4.24-1.832 11.197-7.662z"/><path fill="#9d782c" d="M139.494 377.246h54.336v6.25h-54.336z"/></g></svg>