<svg xmlns="http://www.w3.org/2000/svg" viewBox="-136.011 -78.521 400 400"><path fill="#a09160" d="M132.031 43.365l-11.789 3.93-.491-15.721 10.316-13.754z"/><path fill="#cea39f" d="M58.831 60.069l-3.93 5.404 5.895 10.317-.982 9.334 17.195 27.512 34.388-31.933-27.511-21.616z"/><path fill="#2b2b2b" fill-opacity=".102" d="M-33.038 299.813l92.852 20.142 77.622-15.72-87.939-18.67z"/><path fill="#ababab" d="M-20.757 297.846h44.215v-6.875l-9.333-2.949h-25.056l-9.826 2.949z"/><path fill="#8f8f8f" d="M23.458 290.971v-10.809l-2.456-4.914-11.299-4.42-4.913.983-25.547 19.16z"/><path fill="#755800" d="M15.107 239.387L4.79 271.811l18.668 8.351 30.952-31.441-2.457-4.914-31.442-6.879z"/><path fill="#856400" d="M15.107 239.387l39.303 9.334 17.193-17.688-.492-6.878-36.844-24.073-6.387-2.945z"/><path fill="#ccad14" d="M144.803 89.054l-6.385 6.878-11.3 55.514 32.917 16.705 8.351-1.965-11.791-38.813z"/><path fill="#ffeee9" d="M157.578 179.94l-16.703 20.142-6.389 1.475-15.227-9.824 5.894-28.494 4.914-4.422 25.544 15.228z"/><path fill="#e5c828" d="M140.385 173.063l-12.282-4.422-1.476-13.754 5.404-4.422 15.721 6.877 2.949 9.826z"/><path fill="#f4d75d" d="M147.752 157.342l-7.367 15.721 17.193 6.877 10.808-13.754z"/><path fill="#ababab" d="M83.886 308.655h31.933v-7.86l-6.877-2.949H90.764l-6.878 2.949z"/><path fill="#8f8f8f" d="M91.255 286.549l-7.369 14.246h31.933l-5.893-13.756-4.915-2.457h-9.333z"/><path fill="#755800" d="M85.359 246.262l-6.876 4.914 12.772 35.373 18.671.49 12.28-39.793-7.371-3.439z"/><path fill="#856400" d="M71.603 231.033l6.88 20.143 43.723-3.93 9.825-31.441-.98-15.723-6.881-12.281-10.808 2.457-38.318 29.477z"/><path fill="#755800" d="M49.988 214.33l11.79-2.457 2.457-26.527 8.842.49 17.687 25.055-.982 4.914-18.179 15.228z"/><path fill="#ccad14" d="M13.142 154.395l19.651-4.422 6.878-9.336 2.456-45.688-3.93-2.455-16.703 8.843-5.405 9.334-4.912 33.898z"/><path fill="#efd0cb" d="M77.009 63.508L107.96 83.65l5.402-7.86.491-8.353 13.265-40.284-1.474-8.842-15.718-28.004-17.197-8.35-4.42 10.808 1.473 44.705-14.248 17.687z"/><path fill="#ececeb" d="M69.148 90.037l27.02-.983L77.009 114.6z"/><path fill="#ccad14" d="M38.197 92.494l-1.474 13.755-8.843 90.888 22.108 17.193 14.738 1.475 3.439-26.039 4.912-3.93 6.388-74.183-1.473-6.387-8.844-15.229-13.265 3.438-.982-9.825z"/><path fill="#ccad14" d="M77.992 105.266l18.176-16.212 9.825 4.421 9.334-13.263 29.476 8.842-20.633 98.747-34.388 28.004-21.617-26.039z"/><path fill="#e2d086" d="M14.125-13.131l57.478-27.512 6.88-19.651-8.844-16.703-57.48 25.054-14.738 38.812 17.686 19.65L19.529-4.78z"/><path fill="#c1b274" d="M-2.579-13.131l15.721-10.317L19.529-4.78 15.107 6.519zM99.607-30.326l-6.878 6.387.491 11.789 12.773 7.861-1.473 24.073 10.807-2.456 22.599-22.599-2.457-20.634-7.859-5.404z"/><path fill="#cea39f" d="M127.118 27.153l-11.791-9.825 7.86-1.966 6.88 2.458z"/><path fill="#ffeee9" d="M137.926-5.271l-18.667-2.948-3.932 25.547 14.74.492z"/><path fill="#cea39f" d="M124.17-1.833l-1.964 13.265L130.067-.85z"/><path fill="#e2d086" d="M71.603-40.643l1.965 5.895 12.284 10.317 6.877.492 42.74-1.966-3.438-26.038-16.704-3.438-38.318 7.369z"/><path fill="#c1b274" d="M69.639-76.997l1.964 36.354 60.428-11.3z"/><path fill="#fff7ae" d="M49.988-68.156l3.439 22.6 18.176 4.913z"/><path fill="#ffeee9" d="M13.142-23.448l15.23-10.808 43.231-6.387 21.126 16.704 2.457 63.866-18.177 23.581-38.321 3.439-20.633-22.598z"/><path fill="#efd0cb" d="M52.935 55.157l-2.456 5.895 4.422 4.421zM36.723-12.639l11.791 3.438 18.178-9.826-17.687 7.369zM21.494 2.098l3.439-5.403L43.11.133l2.456 5.404.983 8.843-4.913 10.808-7.369-16.702zM53.427 4.553l-2.457 8.845 5.405 11.298 7.368-18.177 17.195-8.352-6.386-5.402L56.375-.359z"/><path fill="#a09160" d="M23.458-5.271l-3.929 6.386 1.965.983 3.93-3.931L43.11.133l-1.965-3.438zM58.831-5.271L56.375-.359l17.686-4.912L79.465-.85l2.945-1.473-7.366-6.878z"/><path fill="#cea39f" d="M41.636 25.188l6.387-3.439 8.352 2.947-6.878 5.405z"/><path fill="#fff5f3" d="M45.566 5.537l7.861-.984 2.948 20.143-14.739.492z"/><path fill="#cea39f" d="M40.162 36.978l.983 2.458 26.039-6.387 2.455-4.913-.491-1.474-1.964 1.474-.983 2.947z"/><path fill="#efd0cb" d="M63.743 24.206l3.441 3.93h6.877z"/><path fill="#ffeee9" d="M-7.492 116.074l.983 6.389 17.195 11.789 5.895-1.965 5.895-36.846 2.457-15.721-3.931-19.159h-3.439l-6.386 7.368 2.456 9.825z"/><path fill="#e5c828" d="M4.79 124.426l11.791 7.861-3.439 22.108-15.23-13.266.983-15.228z"/><path fill="#ffeee9" d="M-31.074 77.754l19.161 10.808 7.369-5.404L-7 74.808z"/><path fill="#efd0cb" d="M22.476 95.441L9.703 92.984l-21.616-4.422L-7 74.808l20.633 2.946z"/><path d="M-25.669 47.295l-6.386 5.896 2.456 2.947 2.948 9.827h5.403l1.966-10.808-6.387-7.862z" fill="#e5c828"/><path fill="#9e7700" d="M-29.599 56.138l-4.422 5.895 7.37 3.932H8.721l8.842-5.404-4.421-7.37-10.317-2.457-11.79-6.877-16.213 18.176z"/><path fill="#b58b00" d="M-5.527 61.542l-3.438-17.685 11.79 6.877 10.317 2.457-6.878 7.37-3.439-9.827z"/><path fill="#f4d75d" d="M-40.407 62.525l9.333 15.229h44.707l3.93-17.193zM4.79 124.426l-6.878 16.703-13.265-11.299 7.861-13.756z"/><path fill="#efd0cb" d="M132.031 215.805l-7.861-28.004 16.705 12.281z"/><path d="M-14.369 4.553l-6.388 13.266 7.861 8.351-1.473 13.757L-7 26.17l-7.369-12.282V4.553zm8.842 12.283l4.422 8.352-2.948 8.844 7.369-6.879-8.843-10.317z" fill="#ececeb"/><path fill="#f4d75d" d="M52.444 105.758l2.457-22.108 5.895-7.86 8.352 14.247zM96.168 89.054l14.737 15.721 9.826-23.089-6.878-14.249zM32.793 149.973l14.247 4.422 14.247-4.422 1.965-14.738 1.966-15.231H35.741l-1.474 14.74zM89.782 135.235l-1.966 15.23 13.756 4.422 14.738-4.422 2.948-15.23 2.947-14.739h-29.97l-2.453 14.739z"/><path d="M33.285 5.046c1.627 0 2.948 1.319 2.948 2.948 0 1.628-1.32 2.947-2.948 2.947s-2.948-1.319-2.948-2.947c0-1.629 1.319-2.948 2.948-2.948zM63.743 3.572c1.628 0 2.949 1.321 2.949 2.948s-1.321 2.947-2.949 2.947c-1.627 0-2.947-1.32-2.947-2.947 0-1.628 1.32-2.948 2.947-2.948z" fill="#2b2b2b"/><path fill="#e2d086" d="M28.372-34.256L14.125-13.131l30.95-14.739-10.317-7.369z"/><path fill="#c1b274" d="M31.319-34.748L18.546-54.889l53.057 14.246L45.075-27.87z"/><path fill="#fff7ae" d="M9.212-64.225l6.386 24.073L45.075-27.87z"/><path fill="#2b2b2b" fill-opacity=".102" d="M-31.074 77.754l48.637-17.193-3.93 17.193zM16.581 132.287l19.16-12.283 102.677.984 18.177 6.385-5.894-19.159-8.844-3.931-105.135 1.966-17.685 9.825-2.456 16.213zm-3.439 22.108l21.125-19.65 100.712.98 27.514 11.301 5.894 19.16-6.385-2.947-29.97-12.773-99.238-.492-19.652 4.421zm14.738 42.742l38.812 4.42-1.967 14.248H51.953L27.88 197.137zm2.948-29.969l97.274 1.473-3.933 19.16-94.816-3.93 1.475-16.703zm48.637 35.863l27.512-.982-17.194 13.756-10.318-12.774z"/><path d="M21.494 101.337l10.808 50.109 5.896-58.951-16.704 8.842zm56.498 3.929l18.176-16.212-16.703 113.977-11.3-13.266 9.827-84.499zm-25.548.492l16.705-15.721-7.861 59.936-11.3 64.357-11.79-9.334 8.842-50.602 5.404-48.636zm58.461-.983l-21.123 111.03 17.194-13.756 9.334-51.584 13.266-65.833-8.845-2.946-9.826 23.089zm33.898-15.721l-12.771 61.411 15.721 6.877 2.949-49.128-5.899-19.16z" fill="#2b2b2b" fill-opacity=".102"/><path fill="#755800" d="M72.587 120.004l3.931-4.421 4.42 4.913-5.404 3.93zM68.657 149.973l4.42-3.932 3.932 3.932-4.914 3.93zM64.235 185.346l4.913-3.44 3.929 3.93-4.912 3.93z"/></svg>