<svg xmlns="http://www.w3.org/2000/svg" viewBox="-122.287 -49.098 400 400"><path fill="#ffeee9" d="M17.877 214.96l2.169 3.977-1.446 6.508-3.616 3.978-3.254.721-2.531-2.169z"/><path fill="#846300" d="M6.308 303.9l-3.978-1.809-1.446-1.806-1.085.723-2.53-1.085-19.885-63.271h9.038L7.03 299.561z"/><path fill="#b58b00" d="M46.439 282.569l-1.808 3.977L6.308 303.9l-20.97-63.631 1.084-3.617 57.124-14.823 2.532 3.977z"/><path fill="#9e7700" d="M-22.616 236.652l7.954 3.617 36.154-9.402 22.054-5.785 2.532-3.253-2.532-2.892-13.015 3.255z"/><path fill="#efd0cb" d="M14.262 232.677l9.761 6.144 2.893-3.976-5.424-3.978 9.039-8.675-1.808-4.703-6.869-3.977-3.977 1.448z"/><path fill="#f4d75d" d="M46.439 177.359l-8.678-7.592-5.061.722-11.931 35.43 1.085 3.617 9.4 6.869 3.977-1.085 8.677-13.015 2.892-7.955z"/><path fill="#ccad14" d="M32.7 170.489l15.186 12.294 1.807-51.341v-11.208zM20.769 205.919l14.462 9.401-4.7 6.872-12.654-7.232z"/><path fill="#cea39f" d="M64.856 98.13l9.423 13.427 6.197 7.271 11.717 6.248 24.211-10.154 5.468-23.822-52.33 2.343z"/><path fill="#eed0cb" d="M110.547 97.584l-6.835 22.22 15.818-13.473 17.963-33.585-2.344-21.089-20.697-25.384h-7.418L93.826 96.577z"/><path fill="#5e5044" d="M107.678 28.322l20.835 24.116 9.37-9.763 6.639.782 8.201-5.467 9.373-21.871-7.81-5.858-35.93-3.514-5.857 12.106-5.076 2.734-.389 4.686z"/><path fill="#cea39f" d="M126.95 59.468l10.543 13.278 4.687-8.982-5.076-5.858z"/><path fill="#ffede8" d="M132.026 35.646l-5.076 23.822 15.23 4.296 10.543-25.774z"/><path fill="#cea39f" d="M137.883 42.675l6.639.782-9.373 8.2z"/><path fill="#74665b" d="M104.298-12.779l-3.905 8.981 13.277 8.202 26.166 7.81 22.26 3.905-29.681-51.159-15.228 5.077z"/><path fill="#8e7e73" d="M162.096 16.119L100.393-3.798l1.952 5.078 4.689 14.839v4.395z"/><path fill="#8e7e73" d="M102.345-32.306l8.202-2.734h21.868L100.393-3.798l1.952 5.078-23.821 3.124L75.009.108l6.249-11.325z"/><path fill="#74665b" d="M90.239-49.098l20.308 14.058L75.009.108l-2.344-9.372 8.593-33.195z"/><path fill="#8e7e73" d="M37.908-34.258l3.906 10.154L64.856-3.017 75.009.108l15.23-49.206z"/><path fill="#74665b" d="M33.613-20.199l4.295-14.059L75.009.108l-3.516 3.905H42.985L39.082-.283l-4.688-5.076z"/><path fill="#8e7e73" d="M11.353 7.138l5.858 2.343 17.965-4.687 3.906-5.077-1.174-33.975z"/><path fill="#74665b" d="M29.337 35.194L11.353 7.138 39.082-.283l2.342 7.03-7.811 26.556z"/><path fill="#ffede8" d="M52.749 98.346l41.077-1.769 14.421-20.747 2.3-63.486-10.154-16.142L75.009.108 48.844-.283l-6.639 3.125-12.868 32.352 4.276 45.408z"/><path fill="#eed0cb" d="M44.157 34.084l-6.638 4.685 12.887 5.078 8.592 19.136 3.123-12.107-.78-8.201-4.687-3.906zM72.665 38.38l-5.075 3.905-1.954 8.201 4.296 12.106 12.497-18.745 12.106-7.42-8.983-3.514z"/><path d="M82.429 40.722c1.561-.39 3.123 1.172 3.123 2.734.392 1.952-1.171 3.514-3.123 3.514-1.561 0-3.126-1.562-3.126-3.125-.389-1.56 1.173-3.123 3.126-3.123z" fill="#2b2b2b"/><path fill="#5d4f44" d="M37.519 38.769l6.248-2.732 12.887 2.732v-3.514l-13.277-2.342zM72.665 34.474v3.906l14.45-3.515 7.42 1.562-7.42-5.468z"/><path d="M49.233 41.504c1.954 0 3.516 1.171 3.516 3.123 0 1.563-1.562 3.124-3.124 3.124-1.952 0-3.515-1.172-3.515-3.124.001-1.561 1.172-3.123 3.123-3.123z" fill="#2b2b2b"/><path fill="#cea39f" d="M64.856 67.669l-5.858-4.686 5.467-2.343 5.467 1.952zM57.436 74.699l-1.563 1.953 3.125 1.952 18.744-.781 3.905-3.124-1.56-1.563-3.125 2.344-17.183.78z"/><path fill="#2b2b2b" fill-opacity=".149" d="M87.294 350.902L7.753 336.439l17.716-2.893 62.909-8.315 55.678 6.87 26.031 3.253z"/><path fill="#ccad14" d="M131.765 160.727l4.698-33.624 5.424-8.677 36.156 53.509-6.148 3.254-36.154-9.037z"/><path fill="#545657" d="M22.577 333.546l44.832-.721v-7.231l-4.339-2.169-31.093.72-9.4 2.17zM111.516 340.777l33.626-.723-.363-7.953-3.254-2.533-23.138.725-6.871 2.169z"/><path fill="#6f7173" d="M44.992 310.408l-22.415 15.907 44.832-.721-.724-15.186-3.254-2.17H51.5zM116.579 317.279l-5.063 15.183 33.263-.361-9.038-15.548-3.976-2.529-12.294.361z"/><path fill="#856400" d="M43.908 244.246l.362 30.732 6.508 5.423 22.054 1.444 7.955-3.978 5.783-14.099-1.084-6.508L56.2 221.467z"/><path fill="#856400" d="M122.002 220.743l-32.54 34.71-2.892 8.315 8.317 14.824 7.591 3.977h26.031l8.316-2.893 1.085-35.43z"/><path fill="#755800" d="M55.839 230.144l30.731 33.624 32.901-32.901 6.87-23.139-73.756 1.448zM44.27 274.978l36.517 2.889-14.102 32.541H44.992zM94.887 278.592l41.938 1.084-1.084 36.877-19.162.726z"/><path fill="#ac913c" d="M43.908 244.246l11.931-14.102.361-17.353-6.507-4.339-6.147 4.699zM138.994 211.706l-9.038-2.53-10.485 3.615v18.076l18.439 13.379z"/><path fill="#856400" d="M43.185 200.859l3.977-2.532 87.495-2.529 4.699 3.254-.723 19.161-95.087.724z"/><path fill="#e5c828" d="M43.185 200.859l36.153-.722 2.17-5.424 1.447-25.308-9.762-10.485-22.415-7.593-3.978 3.255z"/><path fill="#f4d75d" d="M65.239 114.811l-5.061 4.7-3.615-1.446-6.87 2.169-2.893 34.348 6.509 2.53 5.06-1.084 2.894 3.615 14.823 5.06 3.615-2.168 4.338-2.53 5.786-33.263-17.354-10.485zM79.338 200.137v-33.264l3.98-1.807 3.615-4.7 10.845-1.085 4.337 4.338 19.524 2.17 9.764 6.508 8.314 13.016-.361 13.739z"/><path fill="#e5c828" d="M91.272 120.957l-5.425 4.7-6.146 36.878 3.617 2.531 18.797-1.447 23.865-48.084-.363-5.786-6.146-.723zM141.887 118.426l-7.953-4.338-7.233 5.423-15.907 32.539 11.93 11.569 17.717-1.084z"/><path fill="#eed0cb" d="M110.794 152.05l6.507-5.061 7.232 11.57-7.954.361z"/><path fill="#a3a3a3" d="M50.415 193.266l4.34 7.593 4.699-7.954-4.339-2.17z"/><path fill="#9e7700" d="M52.224 156.751l-1.809 36.515 9.039-.361 1.809-33.262-3.978-4.339z"/><path fill="#b58a00" d="M56.563 118.065l-4.339 38.686 9.039 2.892 3.976-44.832z"/><path fill="#a3a3a3" d="M114.411 190.375l-1.809 9.037-7.591-6.507 3.252-4.338z"/><path fill="#9e7700" d="M105.011 192.905l9.4-2.53-5.424-17.356-2.169-4.338-7.955 5.064z"/><path fill="#b58a00" d="M125.617 109.749l8.317 4.339-19.885 39.409-3.978 4.699-3.978-8.315z"/><path fill="#9e7700" d="M73.916 195.074l5.422-5.062 5.425 5.062-5.425 5.063z"/><path fill="#f1bc68" d="M84.402 123.488h-6.87l-12.293-8.677 9.04-3.254 14.099 7.592z"/><path fill="#e2a942" d="M125.617 109.749l-3.745-8.958-44.34 22.697 7.592 5.062z"/><path fill="#f4d75d" d="M163.58 200.497l14.463-28.562-44.472-10.846-5.423 2.893-2.891 8.315 1.807 5.062z"/><path fill="#eed0cb" d="M98.139 151.689l-2.891 12.293 3.615 9.763 3.977-4.703 3.978-14.822-.725-4.339z"/><path fill="#ffede8" d="M124.533 158.559l-18.44-8.678-7.23 23.864 20.608-1.086 2.894-3.617 2.892-6.868z"/><path fill="#ccad14" d="M124.533 158.559l-5.062 14.1 7.593 4.7 6.507-16.27z"/><path d="M139.356 199.052l-19.885-26.393 20.246 12.654-.361 13.739zM-11.409 250.03l54.955-17.353-11.93 59.653 13.015-5.784-1.085-61.464-22.054 5.785 5.424 3.978-2.893 3.976-9.761-6.144-28.924 7.592 3.253 9.761z" fill="#2b2b2b" fill-opacity=".102"/><path fill="#cea39f" d="M48.844-.283L29.337 35.194 39.082-.283z"/><path fill="#9e7700" d="M74.639 163.982l5.425-4.339 4.699 5.423-5.786 4.339zM79.701 132.888l5.423-4.338 4.338 5.785-5.785 4.338z"/><path fill="#fff4f2" d="M61.341 42.675l6.249-.39 2.342 20.307-10.934.391z"/><path fill="#cececd" d="M-19.001 241.714l18.8 59.294 2.531 1.083-18.801-59.292z"/></svg>