<svg xmlns="http://www.w3.org/2000/svg" viewBox="-152 -152 400 400"><path fill="#2c2b2b" fill-opacity=".102" d="M-44.172 233.574L63.976 246.68l100.776-9.83-93.401-10.651z"/><path fill="#6b5321" d="M83.229 231.115l18.158 7.106-.045 4.364H68.483v-4.095z"/><path fill="#98732c" d="M95.931 209.814l1.868 7.115 3.588 21.292-32.904.269 8.402-21.593z"/><path fill="#b3b3b3" d="M92.5 192l5.887 4.527-.588 20.402-20.914-.032-4.279-19.68z"/><path fill="#feeee9" d="M100.846 167.208l-2.459 29.319-25.781.69-3.338-15.35 16.829-5.644z"/><path fill="#cea19c" d="M100.377 172.797l-31.109 9.07-1.406-6.464 19.875-6.555z"/><path fill="#6d632e" d="M133.617 99.206l.821-.819 4.094-6.556 11.471 4.916-1.639 7.374z"/><path fill="#897a2f" d="M143.448 111.496l4.916-7.375 7.375 9.016-4.096 18.841z"/><path d="M-62.197 48.41l-6.555-4.916 7.375-7.375 5.735 5.735 7.375-7.375 8.191 11.47-22.121 3.279v-.818zm4.095-40.965h-9.83l-.82 11.47 11.47-1.64.82 10.65 9.831-.815 4.919 8.19 9.01-2.456-20.48-17.205-6.555-8.194h1.635z" fill="#dddddc"/><path fill="#6b5321" d="M19.718 225.379L.431 231.115v5.325h52.074v-6.145z"/><path fill="#98732c" d="M37.667 205.167l-7 6.5L.431 231.115l52.074-.24-.965-12.871z"/><path fill="#b3b3b3" d="M39 189.333l-9.864 4.169 1.531 18.165 20.873 6.337 3.453-21.477z"/><path fill="#feeee9" d="M27.925 172.123l1.211 21.379 25.857 3.025 2.428-14.569-6.556-14.75z"/><path fill="#cea19c" d="M27.925 172.123l29.496 9.835 1.329-6.555-18.534-6.555z"/><path fill="#f5d852" d="M29.565 149.183l-9.011 12.29.82 9.831 27.856 3.279 9.52.82 1.95-9.834-14.75-4.096z"/><path fill="#e3c521" d="M52.505 117.232l-31.131-6.555-.82 50.796 40.146 4.096 8.191-41.782-12.29 3.276z"/><path fill="#f5d852" d="M98.387 135.257l8.194 24.576.821 12.29-39.54 3.28-2.305-10.6z"/><path fill="#ccad2d" d="M59.061 119.688l-.821 11.469 9.622 44.246 38.719-15.57-.819-47.516z"/><path fill="#98732c" d="M33.66 104.121l-12.286 6.556 36.866 20.48 47.522-18.84z"/><path fill="#686b6d" d="M13.999 91.831l7.375 18.846 28.676.819 10.65-2.459 5.736 2.459 39.326.821v-14.75z"/><path fill="#6d632e" d="M90.196 114.772l-2.459 4.916-1.64 17.205 18.024-13.106-4.915-9.015z"/><path d="M50.05 111.496h15.565c.82-4.915 2.456-13.109 3.275-16.385l-8.19-.82c-6.555 0-15.57.82-15.57.82l4.099 16.385h.821z" fill="#f0ba5f"/><path fill="#cdcccb" d="M113.952 107.402l7.375 5.735 30.316 18.841-18.026-32.772z"/><path fill="#6d632e" d="M138.532 100.027l9.832 4.094 3.279 27.857-18.026-24.576z"/><path d="M121.327 105.762l12.29 1.64 14.746-4.1-9.831-12.29s-26.216 2.459-25.395 1.64c.815-.82 8.19 12.29 8.19 12.29v.82z" fill="#897a2f"/><path fill="#6d632e" d="M42.675 64.796l40.966 36.05 40.966-20.484-24.58-36.867-55.712 22.12z"/><path fill="#eaeceb" d="M61.52 99.206l-27.86.821L4.985 59.061l61.451 19.665.819 9.83z"/><path fill="#c9c9c8" d="M33.66 100.027H21.374l4.915-13.111 2.456-1.639zM75.447 100.846l-13.927-1.64 4.916-20.48 8.19 6.551 16.386 4.919z"/><path fill="#dddddc" d="M83.641 103.302l12.29 3.279 25.396 6.556 12.29-5.735-21.3-16.39z"/><path fill="#a8973f" d="M81.181 100.027l-1.64 7.375 8.196 12.286 11.469-4.916v-7.37z"/><path fill="#eecec9" d="M86.097 94.291l4.099-6.554-11.47-6.556-4.1 4.096 7.375 8.194z"/><path fill="#feeee9" d="M95.112 88.556l-4.916-.819-19.665 1.639 4.095 11.47 7.375 11.471 17.205-4.915z"/><path fill="#eecec9" d="M70.531 89.376l-9.011 9.83 20.481 13.111zM112.317 70.531l-5.736 9.831-16.385 7.375 9.01 19.665 39.326-15.571-6.554-22.94z"/><path fill="#ccad2d" d="M117.232 50.865l11.47 4.92 3.276 13.106-25.397 11.471-5.735-12.29z"/><path fill="#98732c" d="M105.762 23.01l13.109-5.735 9.831 38.51-27.856 12.287-4.915-9.011z"/><path d="M28.745 18.095l-2.456-8.191-20.485 8.191-3.275 9.83S35.3 41.855 34.48 42.675c-.82.82-5.735-24.58-5.735-24.58z" fill="#ccad2d"/><path d="M32.025 16.455l-4.1 6.555s12.29 28.676 13.11 27.855c.82-.815 21.301-17.205 21.301-17.205L49.23 13.999l-17.205 2.456z" fill="#e7ca4c"/><path fill="#c6ae4a" d="M57.421 27.925L49.23 13.999h-1.64L28.745 10.72 27.11 23.01l.815 7.375 9.835-6.555 13.105 6.555z"/><path fill="#f5d852" d="M45.131 16.455L27.11 23.01l-.821-13.106 13.107-4.1z"/><path fill="#6d632e" d="M36.12 34.48l-3.276-4.095-5.734-7.375-8.195 1.64-3.276-6.555H5.804L1.709 8.264l-9.83 2.456L9.084 24.65l22.941 12.29z"/><path fill="#ccad2d" d="M85.277 56.601l10.654 2.46 22.94-41.786-22.94-10.651-39.33-2.455-5.736 26.216L49.23 46.77z"/><path fill="#6d632e" d="M86.916 59.061h9.015l-5.735-9.831-10.655.82-5.735-9.834-11.47 1.639-2.456-8.195-10.65 1.64-5.735-7.375-10.651 2.46 16.386 20.48z"/><path fill="#b19732" d="M54.146 14.819l-3.281 15.566 15.571-5.735 22.12 9.01.82-15.565z"/><path fill="#a8973f" d="M-31.882 18.915l-12.29-9.831-20.481-11.47-3.279 9.831 22.12 18.844z"/><path fill="#897a2f" d="M-42.532 41.035l-26.22 2.46v5.735l49.16 8.191-9.834-10.651z"/><path fill="#a8973f" d="M-7.302 35.3l-7.375 3.28-27.855 2.455 22.94 16.386L-2.386 38.58z"/><path d="M-19.592 57.421l4.095-18.841L4.169 24.65s27.036 18.025 26.216 19.665c0 1.636-27.856 13.106-27.856 13.106h-22.94.819z" fill="#897a2f"/><path fill="#978633" d="M-16.316 14.819l-12.29-3.279-15.566-2.456-1.64 17.205 31.135 12.291z"/><path fill="#6d632e" d="M15.639 32.844L-8.121 10.72l-20.485.82 13.929 27.04 23.761-6.555z"/><path fill="#897a2f" d="M24.65 34.48l-.82-7.37L1.709 15.639l-9.83-4.919L9.084 32.025z"/><path fill="#978633" d="M-17.956 77.086l-13.106 3.276-7.375 9.014 21.301 2.455 1.64-8.19z"/><path fill="#6d632e" d="M-22.052 69.711l-8.19 2.459-.82 8.192 15.566 3.279 4.095-8.194z"/><path fill="#897a2f" d="M-12.22 57.421h-7.372l-10.65 14.749 18.841 3.277z"/><path fill="#c9c9c8" d="M-1.566 72.17l-9.835 3.277-8.191-18.026H3.349L23.83 41.855z"/><path fill="#a8973f" d="M16.455 94.291H8.264l-9.015 11.471 22.125 4.915v-10.65z"/><path fill="#897a2f" d="M40.216 80.362l-11.471 4.915-7.371 14.75-13.11-5.736L18.915 61.52z"/><path fill="#6d632e" d="M42.675 69.711l-13.93 15.566-7.371-12.287.816-18.844z"/><path fill="#eecec9" d="M10.72 56.601l-7.371.82-14.75 18.026L8.264 94.291l13.11-21.301z"/><path fill="#686b6d" d="M16.455 44.315L9.084 50.05l-5.735 7.371 4.915 4.099 6.555-9.015 4.916 2.46-4.916 12.29 6.555 5.735 5.736-11.47z"/><path fill="#878889" d="M8.264 61.52l6.555 5.735 7.371-12.29-7.371-4.915z"/><path fill="#eecec9" d="M20.554 33.66l-11.47-1.635V50.05L27.11 61.52l16.385-9.015z"/><path fill="#feeee9" d="M49.23 43.495L23.83 27.11 9.084 32.025 32.025 47.59z"/><path fill="#a8973f" d="M72.99 54.146L50.05 35.3l-26.22-8.19 17.205 14.745-8.191 6.555-5.734 13.11 7.37 18.021 31.956-.815z"/><path d="M41.035 41.855l-8.191 5.735-4.919 13.93 13.11-19.665zM27.11 61.52l1.635 23.757 37.691-6.551z" fill="#978633"/><path fill="#cea19c" d="M73.806 7.445l-8.191 11.47-14.75 11.47-22.12-28.676 49.161-2.46z"/><path fill="#ae9f65" d="M96.747-35.977l18.378 14.852L99.206-2.386l-15.565-4.1-2.46-23.756z"/><path d="M104.121-67.113l4.916 16.386 6.088 29.602-17.559-9.937s-6.555-12.29-5.735-13.11c0-1.64 13.11-22.121 13.11-22.121l-.82-.82z" fill="#c1b170"/><path fill="#ae9f65" d="M99.206-81.858l15.158 5.735-5.327 25.396-9.01 9.015h-7.375l-13.111-11.47-22.12-36.051z"/><path fill="#feeee9" d="M90.196-70.388l14.746 4.095-4.915 24.581-18.846 4.095 5.735-12.29z"/><path fill="#cea19c" d="M79.541-40.896l5.736-3.276 14.75 2.46-2.46 10.65z"/><path fill="#eecec9" d="M97.567-31.062l-12.29-13.11 1.639-5.735-6.554-5.735v-11.471l-10.651-9.83-5.735 27.036L53-17.136 55.309.889l22.597-1.64L58.24 24.65l7.375-5.735 19.662-1.64L90.196.889z"/><path fill="#feeee9" d="M-.751-87.594l-7.37 12.287v43.425L17.275 1.709l38.034-.82 13.853-25.723.549-52.109-48.337-46.701z"/><path fill="#eecec9" d="M4.169-74.488l10.65 3.28 4.096 4.915 4.915 3.276.82 4.099 6.555-3.279 5.735-4.916 18.025-7.375 8.191 4.1-13.106 7.371-16.39 18.435-5.735-11.88-9.01 11.88-6.555-16.795-15.566-9.011z"/><path fill="#cea19c" d="M27.925-51.547l-9.01 6.965 9.01 6.145 5.735-6.145z"/><path fill="#e1ce7f" d="M71.351-95.788l-1.64 18.845-40.146-12.29-7.375-27.856z"/><path fill="#fff7ae" d="M93.471-83.498l-23.76 6.555-47.521-40.146 50.8-13.11 26.216 27.856z"/><path fill="#e1ce7f" d="M102.482-99.884l11.882 23.761-44.653-.82 23.76-22.121z"/><path fill="#c1b170" d="M92.652-113.813l.819 14.749 20.893 22.941-.412-30.315z"/><path fill="#ae9f65" d="M51.686-136.754l18.025-12.29 22.12 13.11 22.121 29.496-20.481 7.374-35.231-21.304z"/><path fill="#c1b170" d="M25.469-138.394l18.026-8.191 26.216-2.459-11.471 28.676-36.05 3.279z"/><path fill="#ae9f65" d="M-7.302-114.634l-3.279-9.83 40.966-26.216 13.11 4.095-21.305 29.496z"/><path fill="#fff7ae" d="M4.169-98.248l-27.86 9.835 13.11-36.051 32.771 7.375z"/><path fill="#e1ce7f" d="M22.19-117.089l-45.881 28.676 15.57 13.106L12.36-87.594z"/><path fill="#f5d852" d="M90.196.889l-11.47 8.195-13.111 9.831L88.556 33.66l7.375-27.036z"/><path fill="#ae9f65" d="M18.915-72.847L3.349-76.943l-7.375 4.096.82 2.459 8.191-2.459 13.93 6.554zM36.12-72.847l19.665-3.276 8.191 3.276-.82 2.459-8.191-1.64-18.025 4.915z"/><path fill="#fef4f2" d="M23.83-63.017l-4.915 18.845 14.745-.41-2.455-17.615z"/><path fill="#00aeef" d="M16.455-28.606l13.93 1.639 18.845-3.275-9.834 13.106H25.469z"/><path fill="#cea19c" d="M12.36-31.062l18.025.82 23.761-3.279-13.111 18.844-18.025.821z"/><path fill="#897a2f" d="M50.05 35.3l16.386 43.426 29.495-19.665z"/><path d="M-18.772 18.915c1.636 0 2.456-.82 2.456-2.46 0-1.636-.82-2.456-2.456-2.456-1.64 0-2.459.82-2.459 2.456 0 1.64.82 2.46 2.459 2.46z" fill="#3c3925"/><path fill="#cea19c" d="M100.027-63.017l-6.556-.82-2.459 10.655z"/><path fill="#fff" d="M16.455-28.606l13.93.82 18.845-2.456-9.834 13.106-14.746.82z"/><path d="M13.999-64.653c1.811 0 3.275 1.465 3.275 3.276 0 1.81-1.465 3.275-3.275 3.275-1.81 0-3.279-1.465-3.279-3.275 0-1.811 1.469-3.276 3.279-3.276zM49.23-66.293c1.811 0 3.275 1.465 3.275 3.275 0 1.811-1.465 3.28-3.275 3.28-1.81 0-3.279-1.469-3.279-3.28-.001-1.809 1.469-3.275 3.279-3.275z" fill="#2b2c2b"/><path fill="none" d="M-151.5-151.5h399v399h-399z"/><path fill="#eecec9" d="M17.275-43.654L6.5-34.583l4.22-8.667zM38.232-44.172l17.077 7.176-6.504-7.586zM6.5-59.738l-4.166-1.64-5.36 2.462zM53-60.147l4.421-2.353 6.913 2.762z"/></svg>