<svg xmlns="http://www.w3.org/2000/svg" viewBox="0 0 400 400"><path fill-rule="evenodd" clip-rule="evenodd" fill="#edcfc9" d="M182.885 266.797l-18.418-6.15-5.566-1.526 11.454-56.25 11.857 5.275.673 24.305-3.541 15.945z"/><path fill-rule="evenodd" clip-rule="evenodd" fill="#fcede8" d="M158.901 259.121l-2.496 16.426 12.533 1.267 2.729-2.842-1.827-14.851z"/><path fill-rule="evenodd" clip-rule="evenodd" fill="#edcfc9" d="M156.405 275.547l7.69 13.286 10.049-4.074-2.477-10.787z"/><path fill-rule="evenodd" clip-rule="evenodd" fill="#7a5c00" d="M202.807 291.973l9.764-22.093-39.688-28.709-7.518 40.775 16.211 7.541z"/><path fill-rule="evenodd" clip-rule="evenodd" fill="#ccad2e" d="M204.515 288.382l-39.15-6.436-1.27 6.887 13.277 11.274L200 297.874z"/><path fill-rule="evenodd" clip-rule="evenodd" fill="#a3945e" d="M170.157 130.435l6.202-2.68 9.989 4.66 6.055 8.514 1.026 7.397-7.189 9.643-11.896-1.806-7.304-10.951z"/><path fill-rule="evenodd" clip-rule="evenodd" fill="#bfb073" d="M174.836 8.039l45.188 12.296 34.044-1.754L217.564 0z"/><path fill-rule="evenodd" clip-rule="evenodd" fill="#e3d187" d="M222.719 149.347l37.061-26.627.149-14.029-9.203-7.278-5.277.43-7.097 7.061z"/><path fill-rule="evenodd" clip-rule="evenodd" fill="#bfb073" d="M163.432 34.744l-2.417 35.447L150.78 97.89l-7.08-37.946 10.711-19.954z"/><path fill-rule="evenodd" clip-rule="evenodd" fill="#ffede8" d="M163.432 34.744l-7.475 37.302-5.179 25.844 10.254 31.45 5.498 3.468 3.627-2.373 16.191 1.98 7.942 5.348 15.03-2.564 14.2-26.925 3.872-36.9-4.795-31.759-8.658-12.139-30.732-12.423-9.68 13.386z"/><path fill-rule="evenodd" clip-rule="evenodd" fill="#edcfc9" d="M230.958 94.994l.316 23.593-8.555 30.764-4.455 13.925-27.164.337 2.329-15.287 9.399-7.484-1.295-6.582 15.33-14.843 9.914-52.114 7.246 15.673z"/><path fill-rule="evenodd" clip-rule="evenodd" fill="#bfb073" d="M163.432 34.744l10.095-6.303 7.377-.82 5.027-6.922-.426-6.972-10.669-5.688z"/><path fill-rule="evenodd" clip-rule="evenodd" fill="#e3d187" d="M226.777 67.305l4.181 27.691 8.863-2.838 1.123-4.844 4.977-10.862-3.385-21.025-12.083-1.345z"/><path fill-rule="evenodd" clip-rule="evenodd" fill="#bfb073" d="M230.958 94.996l9.986-7.682 12.648 4.596 6.337 16.779-14.48-6.843-4.745.484z"/><path fill-rule="evenodd" clip-rule="evenodd" fill="#cca39e" d="M173.527 28.441l33.015 26.653-8.893-27.315-11.718-7.08z"/><path fill-rule="evenodd" clip-rule="evenodd" fill="#fff7ad" d="M168.037 23.964l-4.605 10.782L143.7 59.944l4.848-24.146zM245.449 101.843l-22.73 47.504 8.239-54.351zM265.203 114.624l12.88-44.5-19.325-14.342-16.222-.355-1.592 31.887z"/><path fill-rule="evenodd" clip-rule="evenodd" fill="#e0cf85" d="M219.203 13.944l34.865 4.637 24.015 51.543-37.786-14.75-14.838-19.975z"/><path fill-rule="evenodd" clip-rule="evenodd" fill="#f0e399" d="M248.439 161.123l11.49-52.432-37.21 40.658 13.392 5.9z"/><path fill-rule="evenodd" clip-rule="evenodd" fill="#fff7ad" d="M171.906 180.228l4.114-24.589-5.861-25.204-9.132-1.099 3.124 57.97zM174.836 8.039l31.706 47.055 20.235 12.211 15.721-11.068-15.69-41.283z"/><path fill-rule="evenodd" clip-rule="evenodd" fill="#b38c2e" d="M166.435 101.978l7.627 1.516 5.555-1.444 7.303 2.465 10.477-.56-7.088 3.375-11.464 2.414-7.856-3.793z"/><path fill-rule="evenodd" clip-rule="evenodd" fill="#e3c724" d="M170.989 105.951l7.833 6.843 11.487-5.462z"/><path fill-rule="evenodd" clip-rule="evenodd" fill="#c2b373" d="M190.486 66.266l13.561 1.095 3.869-1.523 3.326 3.411 8.981 3.9-12.384-11.841-15.774-.158z"/><path fill-rule="evenodd" clip-rule="evenodd" fill="#edcfc9" d="M186.088 92.114l14.119-15.512 20.016-3.453-12.305-7.311-17.435.428-4.99 15.137zM175.782 91.09l3.945 6.29 6.361-5.264z"/><path d="M204.508 76.602c0-2.375-1.926-4.301-4.301-4.301-2.376 0-4.302 1.926-4.302 4.301 0 2.376 1.926 4.303 4.302 4.303 2.375-.001 4.301-1.927 4.301-4.303" fill-rule="evenodd" clip-rule="evenodd" fill="#2b2b2b"/><path fill-rule="evenodd" clip-rule="evenodd" fill="#edcfc9" d="M161.537 61.578l9.914 9.834 5.824 14.41 4.656-7.798 1.206-13.242-12.931-5.312z"/><path fill-rule="evenodd" clip-rule="evenodd" fill="#c2b373" d="M183.135 64.78l-13.169-4.258-8.429 1.051 8.812-4.385 13.076 3.185z"/><path fill-rule="evenodd" clip-rule="evenodd" fill="#fff5f2" d="M183.137 64.786l-7.355 26.304 10.306 1.028 4.395-25.857z"/><path fill-rule="evenodd" clip-rule="evenodd" fill="#edcfc9" d="M198.234 97.579l3.289 6.856.336 5.515 4.691-5.639zM166.898 95.821l-3.363 4.172-2.135 4.101-2.067-5.566z"/><path fill-rule="evenodd" clip-rule="evenodd" fill="#cca39e" d="M186.29 132.407l12.808 28.562 22.501-24.276z"/><path fill-rule="evenodd" clip-rule="evenodd" fill="#bfb073" d="M265.203 114.624L252.8 165.528l2.043 13.239-18.732-23.518 23.818-46.558z"/><path d="M175.754 71.412c0-2.376-1.926-4.302-4.303-4.302-2.376 0-4.302 1.926-4.302 4.302 0 2.377 1.926 4.303 4.302 4.303 2.378 0 4.303-1.926 4.303-4.303" fill-rule="evenodd" clip-rule="evenodd" fill="#2b2b2b"/><path fill-rule="evenodd" clip-rule="evenodd" fill="#6e5400" d="M172.883 241.171l-.933 5.059 28.588 31.071 15.319-6.811 21.505-24.26-2.286-4.926-22.706-5.528z"/><path fill-rule="evenodd" clip-rule="evenodd" fill="#ffede8" d="M185.518 151.65l7.911-3.324 5.671 12.643 23.619-11.622 10.58 17.481-4.417 19.547h-54.728l6.322-29.172z"/><path fill-rule="evenodd" clip-rule="evenodd" fill="#e3c724" d="M185.518 151.65l-9.496 3.989-11.871 31.667 41.315 17.339 35.685-3.439 2.092-6.404 6.122-9.502 3.435-19.772-25.27 9.85-32.6 10.997-17.744-9.037z"/><path fill-rule="evenodd" clip-rule="evenodd" fill="#856300" d="M248.342 269.85l-10.976-23.62-36.828 31.071 1.816 12.186 18.572 1.144 22.758-2.026z"/><path fill-rule="evenodd" clip-rule="evenodd" fill="#edcfc9" d="M241.151 201.206l14.45 11.609 12.238-8.368-.547-11.752-14.492-27.167z"/><path fill-rule="evenodd" clip-rule="evenodd" fill="#fff7ad" d="M222.719 149.351l9.279 50.202 13.156-21.518 3.975-8.604-13.018-14.182z"/><path fill-rule="evenodd" clip-rule="evenodd" fill="#edcfc9" d="M194.93 186.375l5.124-1.728-1.824-9.742-8.334 8.906z"/><path fill-rule="evenodd" clip-rule="evenodd" fill="#ccad2e" d="M164.151 187.306l77 13.9-9.06 33.671-23.095 4.025-34.53-4.047z"/><path fill-rule="evenodd" clip-rule="evenodd" fill="#fcede8" d="M235.076 241.304l-62.193-.133 1.583-6.316 57.625.022z"/><path fill-rule="evenodd" clip-rule="evenodd" fill="#e3c724" d="M243.684 288.605l-2.447 9.269-15.923 9.493-21.334-8.487-1.849-10.89z"/><path fill-rule="evenodd" clip-rule="evenodd" fill="#e3d187" d="M236.111 155.249l9.043 22.788 7.646-12.509z"/><path fill-rule="evenodd" clip-rule="evenodd" fill="#fcede8" d="M255.601 212.815h26.002l8.061-35.604-6.049-16.12-5.124 6.156z"/><path fill-rule="evenodd" clip-rule="evenodd" fill="#edcfc9" d="M295.765 161.215l-4.917-15.594-1.848-6.579-9.621 13.029-.888 15.178 11.173 9.962 15.844-13.034z"/><path fill-rule="evenodd" clip-rule="evenodd" fill="#e6e6e6" d="M265.203 114.625l23.556-6.803 5.809 21.493-5.568 9.727-2.06 2.788-.404-1.382-12.87-3.927z"/><path fill-rule="evenodd" clip-rule="evenodd" fill="#ccad2e" d="M270.273 120.844h19.163l2.616 8.184-5.386 8.913-.964-.277-10.31-2.945z"/><path fill-rule="evenodd" clip-rule="evenodd" fill="#fff" d="M293.728 162.251l-4.317 7.144 16.097-5.218-9.743-2.962-4.913-15.594-1.503 2.562z"/><path fill-rule="evenodd" clip-rule="evenodd" fill="#fcede8" d="M298.62 133.494l-7.768 12.127 4.913 15.594 9.743 2.962z"/><path fill-rule="evenodd" clip-rule="evenodd" fill="#cca39e" d="M289.349 148.183l-2.653 4.886 7.032 9.182z"/><path fill-rule="evenodd" clip-rule="evenodd" fill="#e3c724" d="M272.605 120.844l5.377 14.618 4.863 1.39-5.609-16.008z"/><path fill-rule="evenodd" clip-rule="evenodd" fill="#fff" d="M272.605 120.844h4.631l-3.208-8.766-4.259 1.23z"/><path opacity=".1" fill="#2b2b2b" d="M68.821 387.044l109.004-13.793 94.78 16.629L174.103 400z"/><path fill="#ffede8" d="M241.237 297.874l-6.225 33.183-18.934 30.085-7.552-25.893-4.546-36.369z"/><path fill="#edcfc9" d="M235.012 331.057l-6.571 36.814-16.12.68-3.795-33.302zM157.563 320.586l-6.17 37.135 16.24 5.409 15.252-31.648-7.758-24.115z"/><path fill="#ffede8" d="M164.095 288.833l-6.532 31.753 25.322 10.896L200 297.874z"/><path fill="#6e5400" d="M211.804 381.374l17.978 5.67v5.67l-27.571-.167v-5.921zM154.719 368.551l13.85 8.327v5.752l-49.12.25v-6.733z"/><path fill="#9d782c" d="M228.441 367.871l-16.28-.724-9.95 19.479 27.571.418zM119.449 376.147l28.668.427 20.168-3.861-.652-9.583-16.24-5.409z"/><path fill="#856300" d="M148.117 376.574l20.452.304-.936-13.748z"/></svg>