<svg xmlns="http://www.w3.org/2000/svg" viewBox="0 0 400 400"><path fill="#feeee9" d="M188.207 161.882l-22.513 3.309-10.593 37.462-1.528 27.383 6.322 27.433 33.339 10.337 34.204-.638 26.967-96.358-29.045-13.269z"/><path fill="#feeee9" d="M166.12 244.446l24.461 2.84 29.009-2.84 15.315 18.955 2.802 27.667-38.199 9.079-48.857-17.761 5.082-25.524z"/><path opacity=".1" fill="#2b2b2b" d="M87.07 388.113l104.904-13.905 107.423 17.087L191.199 400z"/><path fill="#feeee9" d="M237.707 291.068l7.096 32.799-10.137 1.298-12.931-4.936-10.76-7.796-11.467-12.286 7.344-5.712zM150.651 282.386l-6.275 31.608 8.624 8.833h10.687l9.213-9.172 9.683-13.375-16.453-15.349z"/><path fill="#efd0cb" d="M144.376 313.994l-.116 21.259 10.673 11.493 10.821-5.346 4.243-8.643-3.273-9.93 6.176-9.172-3.711-24.839-12.188 30.953zM219.812 321.169l15.623 19.989 12.441 6.744 10.374-5.808.08-9.134-13.527-9.093-13.799-2.499-24.152-26.933-7.344 5.712z"/><path fill="#755924" d="M145.546 337.087l-1.385 17.779 6.148 5.458 7.274-1.822 8.171-17.102-16.594-4.677zM243.893 361.075l5.86 3.144 8.895-2.104-.398-20.021-9.542-.308-3.257 1.276-3.38-1.59-6.636-.314z"/><path fill="#9d782c" d="M243.893 361.075l-13.492 24.678 17.124 3.637 17.123-3.637-6-23.638z"/><path fill="#755924" d="M230.401 385.753h34.247v7.274h-34.247z"/><path fill="#e4c824" d="M248.916 361.486l-4.967 13.01h8.95l-3.983-13.01z"/><path fill="#9d782c" d="M144.161 354.866l-10.344 9.181-9.969 3.42-17.276 12.6 22.342 3.637 29.111-3.637-.442-21.565z"/><path fill="#e4c824" d="M144.161 354.866l-15.94 15.459-4.373-2.858 20.313-12.601z"/><path fill="#755924" d="M106.572 380.067h51.454v7.274h-51.454z"/><path fill="#ac923b" d="M149.154 336.722l-4.993 18.144.099-19.613zM242.072 341.472l6.636.314.208 19.7z"/><path fill="#efd0cb" d="M166.12 244.446l22.211-9.105 3.863 1.865 25.363 14.362-3.063 4.374-23.285 5.791-22.02-12.133z"/><path opacity=".45" fill="#efd0cb" d="M177.484 263.529l13.097 4.045 16.569-1.146-2.397 3.423-14.42 12.409-17.929-15.965z"/><path fill="#cea39f" d="M182.583 300.28l-13.078-29.537-14.527-10.087-1.62 8.137 10.879 1.95 1.08 27.908 7.583 15.004zM211.77 275.489l-12.262 24.658 10.428 11.173 5.095-7.987-.19-24.819 21.288-3.025-1.224-12.088z"/><path fill="#484748" d="M123.365 35.276V53.62l16.56 15.668-2.875-30.443z"/><path fill="#feeee9" d="M138.537 111.728l20.526 42.54 20.378-5.057 18.592 26.178 26.405-13.761 19.336-79.279-13.613-14.648-2.38-19.931-23.501-14.577-55.034 2.678-13.684 6.992z"/><path fill="#efd0cb" d="M211.835 37.879l-1.307 114.009-12.495 23.501 27.327-17.848 12.138-42.364-.643-7.912 4.052-5.842 3.831-20.038-14.577-13.684-2.38-19.931zM196.752 77.518l-21.03 31.533-34.508-24.988 7.139-5.654 16.065 4.464 6.842-.893 15.767-8.33z"/><path fill="#fff5f3" d="M171.26 81.98l1.785 22.311 2.677 4.76-11.155 1.19 2.677-5.95-2.826-21.418z"/><path fill="#e2c8c5" d="M138.537 111.728l15.767 5.057 10.263-6.544 11.155-1.19 20.523 4.76 14.76-3.57 2.051 39.714-36.258 2.061-17.735 2.252z"/><path fill="#c6a5a1" d="M210.575 149.955l.43-39.714 11.422-19.039 3.867-2.082 2.677 4.016-7.585 52.803z"/><path fill="#a58884" d="M176.798 152.016l44.588-6.077-23.353 29.45zM164.567 110.241l6.247 6.098 4.908-7.288zM158.022 122.289l33.02-3.272-5.503 13.386-18.741 2.231z"/><path fill="#fff" d="M162.484 124.223l24.468-2.306-1.562 4.165-20.303 1.933z"/><path fill="#efd0cb" d="M142.85 107.265l3.433 6.95 5.938 4.802 2.083-2.232zM203.834 103.548l-7.589 10.263 2.604 2.677 2.605-3.937z"/><path fill="#c6a5a1" d="M196.245 113.811l5.209-1.26-4.462 16.877zM146.282 114.212l8.022 2.573.594 14.875z"/><path fill="#4f5253" d="M171.26 81.98v-2.975l15.023-7.288 11.75 3.124-1.281 2.677-9.234-2.265zM164.418 82.873v-3.124l-15.841-3.718-7.363 4.908v3.124l7.497-4.016z"/><circle cx="184.2" cy="84.211" r="3.57" fill="#2b2b2b"/><circle cx="154.304" cy="87.484" r="3.57" fill="#2b2b2b"/><path fill="#595959" d="M135.562 42.863l-12.197-7.587 15.256-11.09 9.956 9.999 5.727 11.502z"/><path fill="#6f7173" d="M138.621 24.186l8.032-14.577 14.08 14.577 8.25 23.584-14.679-2.083z"/><path fill="#484748" d="M146.653 9.609l19.485 3.273 9.965 7.288 4.528 22.245-11.648 5.355z"/><path fill="#595959" d="M166.138 12.882L172.831.685l14.279 15.866 1.553 22.294-8.032 3.57z"/><path fill="#6f7173" d="M172.831.685l15.832 38.16 5.983-16.345-6.123-15.368z"/><path fill="#484748" d="M188.663 38.845l-.14-31.713 14.502 14.109 8.744 22.368z"/><path fill="#595959" d="M188.523 7.132l19.671 9.152 5.146 10.262-1.571 17.063z"/><path fill="#484748" d="M211.769 43.609l14.525-7.292 10.561 8.379 7.883 36.689-13.387-8.131-5.057-10.015z"/><path fill="#484748" d="M208.194 16.284l13.15 5.403 4.95 14.63-4.908 6.098-9.617 1.194z"/><path fill="#595959" d="M244.738 81.385l-15.511-37.902-.256-3.52 11.007 3.646z"/><path fill="#6f7173" d="M211.769 43.609h28.209l-13.684-7.292z"/><path fill="#595959" d="M226.294 63.239l18.444 18.146-13.089-1.338-5.938 1.933-5.938-5.131z"/><path fill="#484748" d="M231.649 80.047l-11.876-3.198 2.654 14.353 6.544 1.934z"/><path fill="#cea39f" d="M228.254 99.631l12.653 1.792-3.409 13.753zM232.256 96.111l2.324-12.197 6.327 1.078z"/><path fill="#efd0cb" d="M225.1 220.408l-28.579-12.47v-21.042l-7.401 19.483-24.549 5.975h27.407z"/><path fill="#cea39f" d="M217.068 209.367l3.486-1.819 1.558 3.767-3.636 1.039zM169.505 204.301l2.598-2.727 2.468 2.727-2.533 2.338zM187.898 253.037l3.507-2.338 1.818 3.377-3.637 1.818z"/><path opacity=".45" fill="#efd0cb" d="M207.688 277.658l-15.531.109-13.558-3.325 12.6 20.782 8.659-5.652z"/><path fill="#efd0cb" d="M254.405 170.81l19.171 22.009-17.078 54.319-41.657 31.376-7.691-2.594-2.397-6.069 28.369-40.506z"/><path fill="#ccae2d" d="M254.405 194.848l6.481-5.775 4.239 5.775-5.299 8.39z"/><path fill="#9d782c" d="M260.886 189.073l-6.481-18.263 13.943 16.264-3.223 7.774z"/><path fill="#bd902d" d="M265.125 194.848l8.451-2.029-5.228-5.745z"/><path fill="#846528" d="M265.125 194.848l8.451-2.029-3.761 11.961-3.807-3.688-6.182 2.146z"/><path fill="#ccae2d" d="M259.826 203.238l6.182-2.146 3.807 3.688-1.941 6.176zM259.826 203.238l-9.483-3.512-.883 10.107z"/><path fill="#9d782c" d="M259.826 203.238l4.919 4.981-8.75 8.014-6.535-6.4zM254.405 194.848l-5.603-8.627-3.351 9.217 4.892 4.288 9.483 3.512z"/><path fill="#bd902d" d="M254.405 194.848l-5.603-8.627 5.603-15.411 6.481 18.263zM249.46 209.833l-8.421-2.263 4.412-12.132 4.892 4.288z"/><path fill="#8d7c2f" d="M255.995 216.233l8.204 6.412 3.675-11.689-3.129-2.737zM249.46 209.833l-.776 10.116-6.819 2.474 2.724-13.899zM256.498 247.138l-2.093-19.042-16.789 2.81-1.227 14.672z"/><path fill="#ccae2d" d="M247.976 229.172l7.584 9.427-10.109 7.72-8.514-7.295z"/><path fill="#846528" d="M243.345 233.305l8.261.271-1.709 9.348-8.858-.283z"/><path fill="#e4c824" d="M249.46 209.833l-1.484 19.339 6.429-1.076 1.59-11.863zM241.865 222.423l-8.743 6.922 7.917-21.775 3.55.954z"/><path fill="#9d782c" d="M255.995 216.233l8.204 6.412-1.42 4.517-8.374.934z"/><path fill="#ccae2d" d="M262.779 227.162l-8.374.934 2.093 19.042z"/><path fill="#846528" d="M248.684 219.949l-6.819 2.474-8.743 6.922 4.494 1.561 10.36-1.734z"/><path fill="#e4c824" d="M237.616 230.906l-1.227 14.672h-5.511l-2.738-9.121 4.982-7.112z"/><path fill="#ac923b" d="M236.389 245.578l20.109 1.56-11.495 8.658-19.388-8.658 5.263-1.56z"/><path fill="#9d782c" d="M230.878 245.578l-2.738-9.121-5.595 7.989 3.07 2.692z"/><path fill="#846528" d="M245.003 255.796l-16.863-1.516-2.525-7.142z"/><path fill="#e4c824" d="M222.545 244.446l-.683 10.654 4.85 2.81-7.423.78-1.732-7.122zM214.494 255.942v6.807l8.825.78-10.598 3.434-1.987-5.652z"/><path fill="#ac923b" d="M226.712 257.91l12.061 2.578-3.868 2.913-15.616-4.711zM223.319 263.529l11.586-.128-9.019 6.794-13.165-3.232z"/><path fill="#9d782c" d="M217.557 251.568l1.732 7.122 15.616 4.711-11.586.128-8.825-.78v-6.807zM212.721 266.963l-1.485 2.826 9.037 4.633 5.613-4.227z"/><path fill="#ac923b" d="M211.236 269.789l-4.086-3.361 3.584-5.117 1.987 5.652z"/><path fill="#bd902d" d="M225.615 247.138l2.525 7.142 16.863 1.516-6.23 4.692-12.061-2.578-4.85-2.81.683-10.654z"/><path fill="#fff5f3" d="M204.753 269.851l-16.583 3.044 2.163 9.365 8.832-5.094z"/><path fill="#feeee9" d="M204.753 269.851l-14.42 12.409 4.372 9.814 12.147 2.361 7.989-15.921z"/><path fill="#efd0cb" d="M206.852 294.435l-11.44 8.898-12.829-3.053 7.75-18.02z"/><path fill="#cea39f" d="M199.061 297.957l-10.525 3.74-5.953-1.417 7.75-18.02z"/><g><path fill="#efd0cb" d="M165.694 165.191l-10.593 37.462 1.924 26.519 20.459 34.357-5.08 6.051-8.167 1.163-33.383-34.286 11.447-58.623z"/><path fill="#ac923b" d="M160.199 184.624l8.01 10.106 15.632-1.911 8.568-9.99-3.136-14.36-14.481-4.59-9.098 1.312z"/><path fill="#8d7c2f" d="M160.199 184.624l-17.898-6.79 11.056-5.976 1.744 5.04 7.532-.882z"/><path fill="#b38c2e" d="M153.357 171.858l1.744 5.04 7.532-.882 3.061-10.825z"/><path fill="#e2a940" d="M162.633 176.016l8.159-7.547 12.079 2.341.97 10.614-10.466 7.181-13.176-3.981z"/><path fill="#b38c2e" d="M165.694 173.185l10.61-3.648 7.067 6.738-4.194 8.349-12.606 1.925-5.133-6.309z"/><path fill="#e4c824" d="M174.263 172.023l6.211 4.875-3.106 6.218-9.159 1.39-4.402-3.528 2.806-6.294z"/><path fill="#846528" d="M170.792 168.469l4-4.59 14.481 4.59-6.402 2.341zM183.841 181.424l8.568 1.405-8.568 9.99-4.664-8.195zM173.375 188.605l-5.166 6.125-8.01-10.106z"/><path fill="#ac923b" d="M142.301 177.834l5.122 10.146-7.463 1.846z"/><g><path fill="#9d782c" d="M138.358 198.029l9.065 8.995-1.585 2.712-8.92-4.332z"/><path fill="#b38c2e" d="M147.423 207.024l-6.943 26.281-3.179 1.191 5.665-26.277z"/><path fill="#8d7c2f" d="M141.105 216.85l-6.958 2.74-.99 5.072 6.803-2.497zM143.296 222.645l6.192 8.261-9.008 2.399z"/><path fill="#ccae2d" d="M140.48 233.305l9.008 12.273-12.187-11.082z"/><path fill="#846528" d="M144.784 217.013l7.707 8.414-3.003 5.479-6.192-8.261zM138.639 228.287l-6.701 2.619 1.219-6.244 6.803-2.497z"/><path fill="#b38c2e" d="M152.491 225.427l1.678 9.069-1.678 1.961-3.003-5.551z"/><path fill="#846528" d="M149.488 230.906l-1.283 6.556-3.839 1.137-3.886-5.294z"/><path fill="#e4c824" d="M138.639 228.287l-6.701 2.619-1.084 5.551 6.447-1.961z"/><path fill="#8d7c2f" d="M137.301 234.496l-6.447 1.961 6.447 6.622 3.823-5.106z"/><path fill="#9d782c" d="M141.124 237.973l8.364 7.605h-5.569l-1.246 3.019-5.372-5.518z"/><path fill="#bb8f2d" d="M148.205 237.462l5.964 3.59-4.681 4.526-5.122-6.979z"/><path fill="#e2a940" d="M154.169 241.052l3.091 7.545-9.055 5.681-5.532-5.681 1.246-3.019h5.569z"/><path fill="#ac923b" d="M157.26 248.597l-2.159 6.659-6.896-.978z"/><path fill="#8d7c2f" d="M154.169 241.052l11.951 3.394 3.069 5.154-11.929-1.003z"/></g><path fill="#efd0cb" d="M180.574 269.58l21.894 8.934-4.171 3.629-7.964.117z"/><path fill="#feeee9" d="M177.484 263.529l12.849 18.731-8.699 5.984-12.445.572-4.952-18.073z"/><path fill="#efd0cb" d="M190.333 282.26l4.197 14.984-11.947 3.036-13.394-11.464z"/></g><g fill="#9d782c"><path d="M235.648 189.107l1.958.532-2.093 7.186-1.554-.114zM231.96 188.488l1.855.745-1.558 7.005-1.091-.515zM228.534 186.673l-1.667 8.473-1.375-.188.707-7.242-18.513-3.274-.311-1.673z"/><path d="M226.638 190.006l-5.322-.826-1.093 3.045 7.736 5.78-5.823-5.813.466-1.615 4.002 1.076z"/><path d="M221.166 190.037l-.423-3.678 1.727.127.03 3.128zM219.812 186.03l-1.258 7.635-1.775-.652.885-3.755-3.179.721-.581-5.079 1.807.22.055 2.783 1.999-.027.246-2.152zM213.047 184.75l-1.35 7.715-1.203-.176.579-7.858z"/><path d="M208.981 192.786l-.577-3.95 2.597.105.319-1.974-4.666.872z"/></g><g fill="#9d782c"><path d="M228.269 226.642l-16.575 11.604-12.687-8.472-6.813 7.432-.995 5.023-3.934-3.106-4.596 4.145 4.596-6.047 2.984 3.143.95-3.497 7.808-8.32 12.687 7.258 14.765-8.73z"/><path d="M182.669 243.268l.951-1.039v-8.142l4.05-6.563-18.165 5.873-7.854-12.443-1.496-1.412 8.833 16.348 15.384-5.797-2.111 3.64z"/><path d="M187.67 238.758l.866-2.244 3.278.57.38-.762-8.731-3.575-.605 1.522 4.407 2.053-4.407 4.941.762.966zM228.269 226.642l-19.925-.553-4.806-3.257-1.745.69 7.432 4.105h17.262z"/><path d="M208.344 226.089l5.56 9.716h-2.21l-5.04-9.968zM199.508 228.834l-1.512-7.88-10.731-3.664 8.913 4.676 2.329 7.114z"/><path d="M192.194 219.876l3.001 8.152-6.118 7.1-1.407-.173 5.717-6.927zM185.031 221.475l2.639 6.049-.923-4.692z"/><path d="M187.265 217.29l3.685 8.304-4.203 8.498 2.663-8.728zM198.411 225.837l5.127-3.005-5.688 1.407zM203.538 222.832l-2.844-5.326-4.786-2.749-5.885.109-2.758 2.424 3.685-1.042 4.452-.064 3.605 1.82z"/><path d="M199.508 217.29l-1.512 3.664 2.698-1.571zM196.178 216.184l-1.882 3.507.54-4.089zM191.433 216.111l-.145 2.553-1.559-2.553zM187.265 217.29l-2.234 4.185-9.513 3.789-14.41-4.31-.953-1.412 15.196 3.643 8.36-2.42z"/><path d="M176.973 223.89l-4.521 8.554-2.947.953 6.237-8.963zM211.694 232.444l13.896-4.817-15.096 3.691z"/><path d="M161.777 221.154l10.261 9.914.467-1.65zM201.793 223.522l.341 7.299 2.256 1.623zM184.699 221.607l-3.168 8.759-2.867.702z"/></g></svg>