<svg xmlns="http://www.w3.org/2000/svg" viewBox="-113.061 -38.785 400 400"><path fill="#7c4e25" d="M105.947 113.635l-37.608-5.35-13.943-29.017-2.188-34.935z"/><path fill="#9b6534" d="M68.339 108.285L36.888 71.648 41.59 50.25l12.018-5.128 10.029 16.962-2.757 16.049z"/><path fill="#2b2b2b" fill-opacity=".102" d="M96.95 360.125L24 344.722l72.95-14.507 66.952 13.616z"/><path fill="#ffeee9" d="M19.38 113.959l15.401 7.376-14.509 5.593-14.833-6.241z"/><path fill="#50a9aa" d="M77.416 126.036L49.128 156.27l1.945 15.968 13.293 5.674 8.916-5.674 9.726-40.285z"/><path fill="#9b6534" d="M194.216 57.383l-28.774 44.175-8.835-10.456-2.188-40.285 6.808-2.026 15.968-1.216z"/><path fill="#7c4e25" d="M165.442 101.558l-4.945-50.984-21.48 35.34-.647 25.046z"/><path fill="#efd0cb" d="M101.49 117.039l-4.297 15.564-4.863 27.233 37.204-35.259 8.836-13.617 14.751-40.161-4.214-33.357-18.968-27.477-4.538 12.564-2.838 49.038-22.695 25.776z"/><path fill="#cea39f" d="M21.731 132.603l-8.43 5.348 10.457 12.969 5.673-10.051-.405-4.863z"/><path fill="#cececd" d="M-20.337 132.277l6.484-14.995 12.403 14.104-10.295 12.887z"/><path fill="#ececeb" d="M-8.746 124.982l-2.999 6.971 3.89 5.107 6.405-5.674z"/><path fill="#545657" d="M116.97 347.154l26.262.569-9.077-13.212-11.592-3.08zM139.18 314.489l8.105 19.292-4.053 13.942-6.726-17.022z"/><path fill="#6f7173" d="M124.752 316.354l5.511-5.189 8.917 3.324 4.052 33.234-20.669-16.292z"/><path fill="#3aa0ba" d="M130.994 246.322l5.187 43.446-12.726 5.755-15.239-7.701-15.724-26.993 16.292-12.48z"/><path fill="#545657" d="M68.175 342.86l-28.531-1.218 14.023-14.831 10.132 6.24z"/><path fill="#454444" d="M78.307 342.373l3.324-17.346-9.403 6.809 2.675 10.698z"/><path fill="#545657" d="M81.631 325.027L68.175 342.86l.324-15.725 8.511-14.023z"/><path fill="#6f7173" d="M63.15 311.735l-9.483 15.076 14.508 16.049 8.835-29.748-6.727-4.944z"/><path fill="#3aa0ba" d="M56.098 238.621l4.458 45.878 12.077 7.699 12.321-5.996 7.538-25.373-20.102-18.074z"/><path fill="#318fa6" d="M60.556 284.499l24.398 1.703-7.944 26.91-13.86-1.377zM108.216 287.822l16.535 28.531 14.429-1.864-2.999-24.722c0 .001-27.965-2.025-27.965-1.945z"/><path fill="#27788c" d="M80.334 224.114l-24.236 14.507 36.394 22.208 38.502-14.507-39.393-21.641z"/><path fill="#50a9aa" d="M70.283 208.713l-14.185 29.908 18.238 1.866 10.457-13.132 6.808-2.674 3.568-14.183-8.271-6.566z"/><path fill="#369496" d="M103.759 204.256l-19.616 5.835.65 17.264 16.697 15.887 29.504 3.08-10.944-32.584z"/><path fill="#369496" d="M64.366 177.912l5.917 30.801 17.508 1.785 5.918-7.135-3.568-21.641-7.133-3.242-9.726-6.242z"/><path fill="#1c7678" d="M99.626 173.452l-16.618 5.028 1.135 31.611 35.907 3.647 22.21-33.475-10.375-5.594z"/><path fill="#cea39f" d="M137.073 245.998l8.834-10.618-.974 12.644-6.563 9.564z"/><path fill="#efd0cb" d="M136.181 263.83l5.916-16.615 10.619-.893 6.566 5.916-9.241 10.944z"/><path fill="#ffeee9" d="M145.907 235.38l-3.81 11.835 17.185 5.023 1.458-15.966-7.375-3.001z"/><path fill="#50a9aa" d="M146.637 199.554l-.568 27.64 8.511 4.537 8.025-3.563 7.781-32.83-10.862.082z"/><path fill="#72cbcc" d="M146.069 227.194l16.536.974-1.865 8.104-14.833-.892zM142.26 180.263l4.377 19.291 23.749-4.216-4.538-60.224-16.941 13.212z"/><path fill="#50a9aa" d="M132.777 141.762L83.008 178.48l59.252 1.783 23.588-45.149-21.48-18.885z"/><path fill="#72cbcc" d="M77.416 126.036l-13.05 51.876 18.642.568-.324-38.827 11.997-20.101zM42.238 146.543l22.128 31.369-23.425 11.508-12.482-27.882 3.079-11.185z"/><path fill="#8ce0dc" d="M23.758 150.92l5.673-10.051 8.349-.647 4.458 6.321-13.779 14.995z"/><path fill="#ababab" d="M15.49 131.953l12.481-2.594-7.131-8.348-19.94-.406-14.753-3.323 9.241 13.942z"/><path fill="#858686" d="M-11.745 144.273l7.133-13.049 10.943-1.621 21.64-.244 1.055 6.647-25.776 3.242z"/><path fill="#ececeb" d="M94.681 119.552l-7.783 20.426-3.89 38.502 39.962-37.043 21.398-25.208-5.998-5.269-43.445 43.769 6.565-37.69z"/><path fill="#8ce0dc" d="M73.93 139.815l20.751-20.263-11.673 58.928z"/><path fill="#72cbcc" d="M83.008 178.48l61.36-62.251-.974 28.207z"/><path fill="#cececd" d="M120.05 144.436h23.344l-1.134 35.827-24.56-.729z"/><path fill="#cea39f" d="M91.114 97.262l16.211 30.882 17.427-25.857-22.371.081-3.73-7.457z"/><path fill="#ffeee9" d="M53.591 44.125l.516 30.522 28.739 27.721h19.535l25.371-26.099 3.242-63.518-7.215-18.023-70.68 7.293z"/><path fill="#cea39f" d="M145.015 57.139l8.106 13.66 4.135-11.309-2.756-4.215z"/><path fill="#ffeee9" d="M146.232 47.818l-1.217 9.321 12.241 2.351 3.971-10.699z"/><path fill="#50a9aa" d="M148.005 57.713l6.414-4.748 2.837 6.525-5.35 6.425z"/><path fill="#af7546" d="M179.87 3.157l14.346 54.226-47.984-9.565 6.403-33.962z"/><path fill="#cc9262" d="M121.185-.409l25.047 48.227L179.87 3.157l-29.019-7.943z"/><path fill="#9b6534" d="M130.994-19.296L121.185-.409l58.685 3.566-24.885-31.369z"/><path fill="#af7546" d="M124.185-30.562l-23.1 10.943 2.35 11.834 17.75 7.376 33.8-27.803z"/><path fill="#cc9262" d="M71.58-32.103l5.511 13.375 23.994-.891 53.9-8.593-36.15-9.483z"/><path fill="#9b6534" d="M36.806 8.182l35.827-19.778 28.452-8.023 20.1 19.21-56.819 3.991L53.608 15.8v29.322l-11.29-13.271z"/><path fill="#af7546" d="M36.806 8.182L71.58-32.103l29.505 12.484z"/><path fill="#cc9262" d="M36.806 8.182l.082 63.466 16.72-26.526z"/><path fill="#efd0cb" d="M68.906 44.008l-9.809-7.051 6.89-4.54 13.212 3.243 3.566 6.89 1.216 14.022-2.187 3.161zM87.385 42.388l-.487 13.779 3.081 7.295 10.213-20.507 12.727-10.294-8.43-2.27-13.86 4.864z"/><path d="M100.664 39.063c2.221-.074 4.081 1.666 4.156 3.888.073 2.221-1.666 4.082-3.887 4.155-2.222.075-4.082-1.665-4.157-3.887-.074-2.22 1.665-4.081 3.888-4.156z" fill="#2b2b2b"/><path fill="#cea39f" d="M86.333 68.001l-4.783-4.458 4.214-2.189 4.215 2.108z"/><path fill="#fff5f3" d="M87.385 42.388l-4.62.162-1.215 20.993 8.429-.081z"/><path d="M69.585 40.104c2.223-.074 4.083 1.666 4.157 3.888.074 2.221-1.666 4.082-3.887 4.155-2.221.075-4.083-1.666-4.156-3.887-.074-2.221 1.665-4.082 3.886-4.156z" fill="#2b2b2b"/><path fill="#72cbcc" d="M83.818 81.86l-6.564-5.997 11.51-1.622 11.509-.404-6.89 7.538z"/><path fill="#efd0cb" d="M34.781 121.335l2.999 18.887-14.022 10.698 4.213-21.561-7.699-2.431.568-5.917z"/><path fill="#7c4e25" d="M59.097 36.957l6.323-3.404 13.779 2.107-2.108-3.08-11.833-1.54zM92.735 32.013l-2.106 3.242 14.913-3.973 7.377 1.379-8.107-3.566z"/><path fill="#50a9aa" d="M77.254 75.863l5.268-3.485 4.296 1.378 4.378-1.621 9.077 1.702-13.132 3.323z"/><path fill="#2b2b2b" fill-opacity=".102" d="M.9 120.605l5.431 8.998-3.081 9.645-14.995 5.025 7.133-13.049-9.241-13.942z"/><path fill="#ececeb" d="M131.642 149.947l-3.972-5.511 4.701-5.593 4.053 5.593z"/><path d="M138.774 157.08l-.404 11.105 2.512.081V157.08h-2.108zm-17.752 11.347h2.433l.243-5.023 3.892.242.162-2.27-3.566-.243-.163-2.026 4.135.243.486-2.27h-6.565l-1.057 11.347zm8.755-11.347l-.648 10.861 7.456.243-.485-6.809-1.459-.243.243-4.053h-5.107zm2.189 1.783l-.162 1.702 1.215.162.082-1.864h-1.135zm-.405 3.973l2.35.406-.08 2.675-2.188.242-.082-3.323z" fill="#27788c"/></svg>