<svg xmlns="http://www.w3.org/2000/svg" viewBox="0 0 400 400"><path opacity=".1" fill="#2b2b2b" d="M128.557 383.303l72.555-12.563 72.298 13.691L197.514 400z"/><path fill="#595959" d="M216.19 364.122l3.516 9.169-3.39 18.196h-3.563l-2.363-9.098-1.017-9.098z"/><path fill="#c6a5a1" d="M177.863 320.371l13.467 40.336-12.574 10.053-.182 5.815 14.364 5.814 16.435-19.641-8.769-38.775z"/><path fill="#474747" d="M178.756 370.76l12.148 8.458 2.034 3.171h-28.727z"/><path fill="#e2c8c5" d="M228.43 328.019l-18.04 54.37-12.876 1.956-6.61-5.127 13.046-18.171-5.074-37.336z"/><path fill="#a0847d" d="M177.863 320.371l14.566 5.399 7.282 4.756 28.719-2.507-27.826-8.928z"/><path fill="#937a74" d="M177.863 320.371l22.741 17.436-.893-7.281-.835-6.815 1.728-4.62z"/><path fill="#369496" d="M247.745 270.938l-23 42.797-46.882 6.636-19.656-52.832 36.255-3.801z"/><path fill="#3a3a3a" d="M144.692 155.822l18.937 4.181 17.641 2.24-2.532-41.602-38.09 5.704z"/><path fill="#515151" d="M123.338 83.744l21.354 72.078 1.283-28.764 8.667-26.368-11.779-23.888z"/><path fill="#27788c" d="M251.302 157.512l13.323 51.586-17.898 27.149-11.435-13.264-2.809-26.103zM163.629 160.003l-30.191 43.005 9.86 27.458 23.211-3.401z"/><path fill="#5ec0d9" d="M251.302 157.512l-16.01 65.471h-48.623l-32.719-14.965 9.679-48.015 16.886-7.548z"/><path fill="#86e7f7" d="M180.515 152.455l-16.886 26.994 11.182 4.762-6.608 11.564 24.293 19.335 32.249-15.594-6.903-11.797 14.641-8.27-10.503-38.319z"/><path fill="#3a3a3a" d="M271.27 94.172l-45.252 36.095 11.055-43.314 15.715-13.698zM140.648 24.052l-17.31 59.692 19.441-1.368 3.827-47.378z"/><path fill="#686868" d="M178.738.881l75.382 18.446 22.211 53.928-47.249-25.873z"/><path fill="#e2c8c5" d="M143.489 35.44l-7.458 64.166 9.944 27.452 29.543 4.219 11.655 44.269 15.982 1.783 45.105-92.693-21.664-23.172-52.208-37.412z"/><path fill="#c6a5a1" d="M217.281 55.167l-12.35 79.377-24.416 17.911-2.016 16.001 4.057 14.933 11.721 4.991 13.495-2.852 5.677-13.295 16.432-36.886 3.655-16.227 2.738-14.662 7.191-8.593 1.628-12.121-18.497-22.28zM194.278 69.654l-21.665 20.677-28.057-26.381 9.234-2.495 8.168 4.634 11.72 1.07 10.655-3.209z"/><path fill="#efdddc" d="M173.678 67.159l-1.065 23.172-15.272-1.426 4.617-22.816z"/><path fill="#a0847d" d="M172.613 90.331l-8.346 6.595-6.926-8.021zM175.518 131.277l43.264 4.693-38.267 16.485zM166.752 32.142l60.998 16.444 20.51 36.05-4.795 11.229-11.979-11.494-18.037-5.974-21.303-19.963zM229.082 100.856l4.454 18.264 5.64-13.209-2.902-5.946z"/><path fill="#515151" d="M194.278 69.654l-6.393-7.129h-11.898l-2.309 4.634 11.721-2.138zM161.958 66.089l-2.842-4.812-10.298-1.783-4.262 4.456 8.167-1.425z"/><ellipse cx="184.803" cy="74.315" rx="3.534" ry="3.547" fill="#2b2b2b"/><ellipse cx="151.108" cy="70.768" rx="3.534" ry="3.547" fill="#2b2b2b"/><path fill="#a0847d" d="M188.416 103.163l-24.328-4.991-18.29 1.637 10.477 13.514 16.338 1.783z"/><path fill="#fff" d="M151.836 101.024l11.72 3.031 18.113-.535-8.879 7.664-16.693-1.782z"/><path fill="#c6a5a1" d="M172.613 90.331l9.456 1.068 6.347 11.764zM157.341 88.905l-6.233-.892-5.31 11.796zM200.492 99.777l-9.946 13.903 9.946-6.709z"/><path fill="#515151" d="M166.752 32.142l-23.263 3.298-2.841-11.388 35.96-12.746z"/><path fill="#3a3a3a" d="M166.752 32.142L178.738.881l18.646 45.432zM223.488 69.708l5.594 20.721 7.192-15.596z"/><path fill="#515151" d="M178.738.881l13.408 57.553 79.124 35.738 5.061-20.917zM271.27 94.172l-19.968 63.34-37.853 14.721 23.624-47.849z"/><path fill="#686868" d="M271.27 94.172l-57.821 78.061 20.087-53.113z"/><path fill="#fff" d="M243.465 95.865l-11.542-4.278-2.841 9.269 10.094 5.055z"/><path fill="#686868" d="M182.556 183.389l25.216 2.139-15.276 29.582z"/><path fill="#318fa6" d="M153.95 208.018l9.679 28.229h68.854l3.84-17.311-43.827-3.826z"/><path fill="#5ec0d9" d="M163.629 236.247l-3.177 18.337-2.245 12.955 26.091 19.387 8.131-12.923 6.946 13.944 48.37-17.009-7.034-15.987-8.228-18.704z"/><path opacity=".2" fill="#2b2b2b" d="M163.629 236.247l-3.177 18.337 26.217 12.619 20.669-9.189 33.373-3.064-8.228-18.703z"/><path fill="#5ec0d9" d="M264.625 209.098l-53.684 18.988-1.909 7.561 3.721 10.127 42.038-5.742zM133.438 203.008l2.353 31.934 26.385 9.692 8.569-6.856-2.542-9.355z"/><path fill="#a0847d" d="M184.637 252.573h11.011l14.742-12.584-22.878-.681z"/><path fill="#e2c8c5" d="M168.203 228.423l10.767-3.882 7.699-1.558 5.93 17.346-7.962 12.244-22.461-7.939z"/><path fill="#e2c8c5" d="M212.753 245.774l-20.154-5.445-5.93-6.972v-10.374l24.272 5.103z"/><path fill="#efdddc" d="M168.203 228.423l12.453 3.499 6.013-8.939-7.699-1.506z"/><path fill="#c6a5a1" d="M186.669 222.983l-13.892 15.645 14.632 9.682 5.19-7.981z"/><path fill="#1c7678" d="M247.745 270.938l-69.882 49.433 50.567 7.648z"/><path fill="#686868" d="M190.904 379.218l19.486 3.171-2.543 9.098h-25.752z"/><path fill="#fff" d="M183.322 165.485l-4.823 2.971 1.469 5.406 5.845-.901zM191.346 170.028l-5.533 2.933 3.847 5.654 5.865-4.36z"/><path fill="#fff" d="M200.063 169.495l-4.538 4.76 6.154 3.974 4.231-6.273zM208.025 166.068l-2.115 5.888 6.532 2.634 2.631-6.16z"/></svg>