<svg xmlns="http://www.w3.org/2000/svg" viewBox="-116.859 -51.518 400 400"><path fill="#cc9262" d="M67.869 129.506l-9.097-16.245 3.639-10.657 8.838 4.028 6.368 8.708-.131 6.108z"/><path fill="#7c4e25" d="M96.592 97.275l-22.744 23.264 5.198-32.101 11.958-20.925 7.668 19.365z"/><path fill="#cc9262" d="M191.725 48.798l-11.047-19.884-18.844 10.137 10.396 20.534 10.139 5.588z"/><path fill="#9b6534" d="M153.516 49.188l.389 17.156 8.579 12.606 10.268 3.509 17.154-5.199-22.093-35.48-7.798-3.639z"/><path fill="#af7546" d="M136.751 90.777l4.678-13.387 14.296-14.036 10.658.91-2.989 17.026-12.607 16.505-10.396-.91z"/><path fill="#cc9262" d="M158.715 104.943l17.416-16.505 6.238-23.265-15.986-.909-16.375 31.192 4.158 8.058z"/><path fill="#efd0cb" d="M157.416 41.26l-23.523 47.957-12.739 8.058-16.634.91-2.469-29.112 18.844-22.354 1.169-52.376 23.655 40.029z"/><path fill="#af7546" d="M167.162 113.391l-7.668-3.119-.779-5.329 23.654-39.77 8.576 13.387z"/><path fill="#7c4e25" d="M137.922 90.777l-4.029 3.249v-4.809l19.623-40.029 2.209 14.166-6.757 10.527z"/><path fill="#ececeb" d="M104.52 98.185l4.548 8.318 14.167 1.3 14.687-17.026-1.301-7.018z"/><path fill="#369496" d="M63.19 264.799l14.557-70.569 12.087-2.471 18.064 2.081-3.638 29.89-16.245 54.326-12.478-2.468z"/><path fill="#50a9aa" d="M139.09 274.548l-13.776 7.926-12.996-6.106-24.303 1.688 11.305-79.407 14.166-8.318 17.027-1.17 11.566 36.259z"/><path fill="#2b2b2b" fill-opacity=".102" d="M6.526 326.014l64.593-15.987 118.139 16.377-71.742 22.224z"/><path fill="#72cbcc" d="M172.23 263.891l-33.14 10.657-11.697-80.318 19.496 21.442 12.346.912z"/><path fill="#69bebf" d="M127.393 194.23l6.5-7.799 17.285 4.159 5.718 17.545 2.339 8.449-18.065 5.977z"/><path fill="#ffeee9" d="M71.119 310.027l-12.607 2.341-3.51-9.099 8.188-38.47 11.178 8.319 9.357 13.128z"/><path fill="#cea39f" d="M63.19 264.799l24.825 13.257-4.29 8.19z"/><path fill="#545657" d="M65.01 330.951l-1.82-6.367 4.16-5.72 5.978 1.172-1.43 10.915z"/><path fill="#6f7173" d="M30.31 330.951l14.816-14.425 9.747-.39-2.729-9.098 3.379-5.588 15.596 8.577 2.209 10.009-14.816 10.786z"/><path fill="#ffeee9" d="M45.126 316.526l10.137 7.017 9.487-9.488-12.606-7.017zM114.137 284.945l6.629 27.681 8.447 4.55 8.447-1.691 1.43-40.937-17.155 3.249z"/><path fill="#cea39f" d="M112.057 276.497l2.08 8.448 24.953-10.397z"/><path fill="#545657" d="M142.34 330.432l-2.08-6.109-4.938 4.29.519 14.425z"/><path fill="#6f7173" d="M111.018 343.038l7.017-15.204 7.928-4.159-6.108-5.591.911-5.458 16.894 2.859 2.6 8.838-4.419 18.715z"/><path fill="#ffeee9" d="M132.722 334.98l-14.687-7.146 1.82-9.75 15.986 2.209z"/><path fill="#ececeb" d="M87.493 101.044l11.179-14.166 5.848 11.307-9.228 6.498z"/><path fill="#cea39f" d="M91.004 74.011l13.516 24.174 24.043-24.174h-17.286l-10.527-3.638z"/><path fill="#3aa0ba" d="M67.869 129.247l19.624-28.203 8.191 7.798.908 15.075 4.938 6.759-7.277 7.668-10.008 4.159z"/><path fill="#5ec0d9" d="M47.205 176.814l7.408-5.46 9.227 1.301 1.95-9.877 7.798-6.11 11.696 7.019-6.497 17.415-10.918-2.079v11.308l-7.278 5.977-1.17-1.559-11.566-4.159zM152.086 136.265l-45.097 7.927-12.736-5.848 2.339-14.427 12.347-14.036 9.356-3.378 19.627-15.726 12.086 4.679 8.316 23.913z"/><path fill="#73cfe5" d="M191.207 138.604l-34.701-36.39-6.498-6.758 2.078 40.809 10.139 15.335 17.935 2.601z"/><path fill="#3aa0ba" d="M148.968 179.154l.78-9.359 2.338-33.53-57.833 2.079-4.808 11.567 9.745 40.679 22.486-2.859z"/><path fill="#3490a7" d="M148.968 179.154l1.04-13.906h-23.654l.65 20.923z"/><path fill="#318fa6" d="M151.178 190.59l-51.858 8.059-4.287-6.238 3.899-7.93 50.036-5.327z"/><path fill="#2c8195" d="M151.178 190.59l-23.785 3.64-.389-12.737 21.964-2.339z"/><path fill="#369496" d="M189.387 150.691l-46.139 8.318 2.342 20.404 11.306 28.722 38.34-11.827z"/><path fill="#2b2b2b" fill-opacity=".149" d="M161.963 155.629l-7.018 1.3 5.2 30.672z"/><path fill="#318fa6" d="M67.869 129.247l5.719 27.421 5.199 24.434 9.746 8.71 10.399-5.331-4.679-46.137z"/><path fill="#cececd" d="M87.625 100.915l11.047-1.82 13.906 4.029 5.717 3.379-11.695 9.617-12.997.259z"/><path fill="#27788c" d="M77.747 194.23l1.04-13.128 20.145 3.379.388 14.168z"/><path fill="#454444" d="M96.332 99.484l2.858 8.708 1.82 4.679 5.198-3.769 6.37-5.978-8.058-4.939z"/><path fill="#2b2b2b" d="M93.603 116.379l5.587-8.187 7.018.91.522 7.018-10.138 7.797z"/><path fill="#8ce0dc" d="M117.256 125.607h7.408l-.52 11.568-.39 9.487 9.749-9.748-9.359.261-8.577.26z"/><path fill="#1c7678" d="M124.664 125.607l8.578.261.261 11.046-9.359.261-8.577.26 8.187 9.227.39-9.487z"/><path fill="#5ec0d9" d="M160.145 187.601l.52-7.538 6.888-5.46-6.239-6.497.911-16.506 28.982-12.996-3.9 27.424-3.508 7.536 1.687 6.76-1.17 7.277z"/><path fill="#1c7678" d="M113.097 143.283l10.657 3.379 12.087-3.639-2.079 7.149-10.916 2.599-10.528-4.68z"/><path fill="#dddddc" d="M127.783 164.727l13.127-4.81 14.815 47.308-11.696 3.511z"/><path fill="#ffeee9" d="M160.145 187.601l-2.34 11.956 3.25 7.539 7.669 1.821 12.344-8.189-3.248-13.127z"/><path fill="#efd0cb" d="M154.816 200.598l5.329-12.997.91 19.495-4.159 1.039z"/><path fill="#cea39f" d="M181.068 200.728l-11.826 11.827-12.346-4.42z"/><path fill="#cececd" d="M131.813 163.167l14.946 46.658 4.807-1.299-14.425-47.44z"/><path fill="#318fa6" d="M161.314 168.106l25.993-2.078-1.821 14.296-24.821-.261z"/><path fill="#73cfe5" d="M186.658 171.746l-.519 3.508h-25.215l.131-2.599z"/><path fill="#cea39f" d="M51.754 199.818l7.667-5.069-4.158-6.239-5.589 7.408z"/><path fill="#318fa6" d="M55.002 170.835l2.86-2.08 3.249 2.08-.649-3.899 5.328-4.158 12.997 18.324-4.939 4.158h-2.599l.259 2.081-3.639 2.99z"/><path fill="#73cfe5" d="M57.862 168.755l2.6-1.819 13.386 18.324-2.34 2.081z"/><path fill="#efd0cb" d="M53.703 203.585l1.56-15.075-19.235 1.302-2.079 8.446 1.429 5.069z"/><path fill="#165e60" d="M-28.955 220.87l63.813-29.111 2.859 2.081-3.768 4.418-61.994 25.211z"/><path fill="#ffeee9" d="M40.707 197.999l-6.758.259 2.079-12.736 11.177-8.708 8.058 11.696-12.087.91z"/><path fill="#af7546" d="M73.848 120.539l-11.437-17.935 2.339-12.477 7.928-19.365 18.326 3.249z"/><path fill="#cc9262" d="M57.862 87.137l4.549 15.467 12.346-28.723 5.849-4.808-11.437-3.9z"/><path fill="#50a9aa" d="M143.248 159.009l13.648 49.126-13.386 4.939-17.156-47.826 1.429-.521 16.766 45.098 9.617-3.25-13.256-46.658z"/><path fill="#ffeee9" d="M53.053-15.665l1.82 30.022 5.068 36.131 14.816 23.393 36.52.13 15.987-24.433 1.299-27.943 1.56-14.686-9.486-28.332L96.201-32.69 76.707-14.235z"/><path fill="#efd0cb" d="M60.981 11.628l11.047 8.058 7.668 17.416 4.29 1.949 4.029-1.949 15.725-17.676 16.897-7.278-8.709-4.418-15.987 6.627-8.707 3.769-2.989 2.34-1.949-2.6-4.289-3.638L67.48 7.73z"/><path fill="#9b6534" d="M78.527-9.037l-21.705-1.689 5.719-17.545 24.434-5.719 13.516-.52-1.301 7.928z"/><path fill="#af7546" d="M116.346-16.185L86.975-33.99l-16.506 4.289-1.95-15.466 26.643-2.989 20.016 7.148 12.605 14.037-1.949 10.007z"/><path fill="#cc9262" d="M119.596-51.665l-24.434 3.509 29.893 21.574 8.576-1.43.78-9.876z"/><path fill="#9b6534" d="M119.207 2.92l-2.861-19.105 8.709-10.397 14.815 14.296 8.187 21.965-7.926 4.678-15.467-8.188z"/><path fill="#af7546" d="M160.533 11.238l-7.666 3.899-10.267-2.209-17.545-39.51 9.356-11.306 18.586 16.895z"/><path fill="#9b6534" d="M146.369-38.668l-11.958.78 26.122 49.126 8.969.131.52-8.708-8.318-27.034z"/><path fill="#cc9262" d="M157.805-39.448l-11.436.78 23.653 41.329 4.939-14.686z"/><path fill="#cc9262" d="M185.748 17.606L170.022 2.661l-9.489 8.577 7.02 12.217 13.125 5.459z"/><path fill="#9b6534" d="M167.813 41.78l-5.979-2.729-3.378-8.838-2.731-11.697 4.808-7.278 20.145 17.676z"/><path fill="#7c4e25" d="M153.516 49.188l14.297-7.408-9.098-14.686-6.368 16.245z"/><path fill="#cc9262" d="M124.664 6.169l3.77 15.466 17.935 11.957-7.279-20.924z"/><path fill="#7c4e25" d="M160.533 11.238l-35.869-5.069 16.765 15.726 18.065-2.728z"/><path fill="#9b6534" d="M128.434 21.635l11.697 17.416 2.599-4.289-1.691-7.018z"/><path fill="#cea39f" d="M140.131 39.051l13.385 10.137 3.9-7.928-8.059-5.069z"/><path fill="#cc9262" d="M42.526-11.506l25.993-33.661L86.975-33.99 56.822-10.726l-4.289 6.888z"/><path fill="#af7546" d="M50.584 11.888l-8.058-23.394 9.098.52 5.198.26 1.17 26.903-5.719 4.679z"/><path fill="#cc9262" d="M44.346 20.856l6.238-8.968 7.408 4.289 1.949 34.311z"/><path fill="#fff5f3" d="M82.296 17.866l-2.6 19.236h8.319l-.781-18.976z"/><path fill="#cea39f" d="M83.986 41.39l-4.29-4.288h8.319z"/><path fill="#7c4e25" d="M60.981 11.628l5.849-5.459 12.606 4.29-1.429 3.769-11.177-4.29zM94.512 9.938l1.429 4.419 16.505-4.678 8.191 2.469-7.93-6.499z"/><path d="M72.028 16.697c2.21 0 4.029 1.689 4.029 3.898 0 2.34-1.82 4.029-4.029 4.029-2.209 0-4.029-1.689-4.029-4.029.001-2.209 1.82-3.898 4.029-3.898zM103.219 16.437c2.227 0 4.029 1.804 4.029 4.029 0 2.225-1.803 4.028-4.029 4.028-2.225 0-4.028-1.803-4.028-4.028-.001-2.225 1.803-4.029 4.028-4.029z" fill="#2b2b2b"/><path fill="#369496" d="M71.769 50.877l12.735 6.239 18.197-5.978-18.456.13z"/><path fill="#1c7678" d="M84.245 50.358l2.73-2.08 15.726 2.86-18.456 1.689-12.476-1.95 9.487-2.599z"/><path fill="#ffeee9" d="M141.818 16.437l-1.687 22.614 17.285 2.209 2.078-22.093z"/><path fill="#cea39f" d="M144.678 31.902l1.041-9.747 9.226.91z"/></svg>