<svg xmlns="http://www.w3.org/2000/svg" viewBox="-39.819 -39.646 400 400"><path fill="#2b2c2b" fill-opacity=".102" d="M71.548 329.317l117.904 31.231 64.64-15.736-138.724-21.547z"/><path fill="#392d25" d="M225.525 92.3l21.789 7.505 25.664 24.21 6.293 40.915-22.516-7.99-14.525-19.367z"/><path fill="#46382d" d="M121.663 84.553l-16.221 47.451 4.842 21.063 12.831-6.052 22.032-9.684-20.579-16.463z"/><path fill="#72cbcc" d="M271.04 194.952l8.231-30.022-11.136-.726-5.084 6.537z"/><path fill="#b3b3b3" d="M58.232 300.991l23.484-8.232.969-17.188 5.568 20.578-23.242 8.957z"/><path fill="#999" d="M58.232 300.991l5.81.969 4.601 8.23 2.905 19.127-7.506-1.937z"/><path fill="#165e60" d="M148.052 145.804l-13.8 34.621 3.632 25.662 13.073 9.201 22.275 1.453 23.483-15.253-4.601-47.937z"/><path fill="#2f767a" d="M152.168 221.098l20.336-.726 12.347-3.631-20.094-56.653-21.305 49.873z"/><path fill="#5ec0d9" d="M192.114 153.551l10.168-32.442 37.527 10.895 19.609 22.031-4.599 16.22-5.569 22.759-45.999 25.904-8.473-11.62.243-9.684z"/><path fill="#67b7b8" d="M200.346 211.414l2.905 7.504 15.737 3.875 2.906-6.052 1.451-7.023-7.506-3.145z"/><path fill="#8ce0dc" d="M217.778 193.499l-1.939 13.074 6.055 10.168 11.621-10.168-6.054-10.654z"/><path fill="#67b7b8" d="M224.072 186.96l-6.294 6.539 13.799 11.135 4.601-1.452 2.421-7.748 2.663-4.357z"/><path fill="#5ec0d9" d="M266.923 279.202l-23.24 10.411-16.222-9.443-4.116-22.273-.968-20.335 5.569-15.254h14.284z"/><path fill="#8ce0dc" d="M245.134 186.478l-13.313-2.18 6.778 11.136 6.052 4.602 8.715-.486.244-10.168z"/><path fill="#287486" d="M182.672 286.707l-12.83-17.673 9.925-12.105 42.127-9.2.483 29.295-14.526 11.621z"/><path fill="#efd0cb" d="M261.839 221.825l-8.956-21.306 10.168-29.778 18.4 42.368z"/><path fill="#318fa6" d="M182.672 286.707l16.221 31.232 16.946 1.21 10.895-8.959-2.903-21.545.726-7.022-2.18-4.599z"/><path fill="#5ec0d9" d="M226.734 310.19l-.724-5.809-31.474.968.967 6.294z"/><path fill="#73cfe5" d="M192.599 305.833l2.904 5.81 28.569-22.998-8.956-1.212z"/><path fill="#5ec0d9" d="M187.273 295.665l2.42 4.842 34.138-11.862-.486-4.843z"/><path fill="#27788c" d="M238.599 195.434l25.905 7.264-1.453 27.358-30.989 4.358-9.685-6.537-.483-11.136z"/><path fill="#369496" d="M228.188 216.982l12.106-14.768 18.641 4.841-1.453 18.885-22.998 3.631z"/><path fill="#1c7678" d="M195.021 331.738l3.389-14.526 28.324-7.022 8.232 21.548-6.294 4.357-27.84.243z"/><path fill="#165e60" d="M195.503 341.423l39.707.483-.244-10.168h-39.945z"/><path fill="#5ec0d9" d="M231.094 223.034l5.084-8.715 6.537 1.936 1.452-7.988 14.768-1.212z"/><path fill="#3aa0ba" d="M242.715 222.793v-6.538l7.989 3.632 8.231-12.832-27.841 15.979z"/><path fill="#369496" d="M210.755 217.709l14.77 23.483 6.537-6.778-10.168-17.673z"/><path fill="#206171" d="M145.631 262.74l9.442 8.23 14.769-1.936 13.073-6.053-16.221-30.988-14.768 5.084z"/><path fill="#72cbcc" d="M217.778 272.908l.727-12.589 3.389-7.022 6.052 1.453-3.148 10.168z"/><path fill="#50a9aa" d="M234.725 264.918l-6.779-10.168-10.168 18.158 4.116 4.116 3.631 2.178 4.116-3.148z"/><path fill="#72cbcc" d="M223.831 288.645l-1.454-11.621 7.264-.97z"/><path fill="#50a9aa" d="M243.683 289.613l-19.852-.968 5.81-12.591z"/><path fill="#5ec0d9" d="M162.093 239.012l16.705 35.106 39.707-13.799-.727-6.537-4.115-14.043-25.664 8.959-13.073-17.19-8.232.485z"/><path fill="#1c7678" d="M204.22 226.909l-10.653-5.084-18.641 9.683 9.442 23.727 27.841-12.107 4.116-2.42z"/><path fill="#8ce0dc" d="M173.232 216.741l-1.695 7.019 3.389 7.748 29.294-4.599 6.052-1.938.483-7.262-10.65-6.538-11.138-1.936z"/><path fill="#438fa7" d="M195.021 197.614l-21.789 19.127 27.114-5.327z"/><path fill="#369496" d="M172.747 217.223v13.801l-13.074 6.538-9.684-3.148-.485-3.39-2.178-8.716 3.631-7.02 9.926-6.295z"/><path fill="#8ce0dc" d="M160.399 215.529l-5.568 3.389-.969 8.474 6.053 4.359 5.811-4.359v-7.989z"/><path fill="#5ec0d9" d="M157.736 221.582l2.421-1.695 1.936 1.695v3.874l-2.42 2.179-2.179-2.179z"/><path fill="#8ce0dc" d="M135.947 211.657l15.01 3.631-1.453 15.736-7.505.969-8.715-11.621-.484-8.233z"/><path fill="#50a9aa" d="M218.505 260.319l-6.296-17.191 5.084-2.42 8.232.484 2.421 13.558z"/><path fill="#438fa7" d="M139.336 200.519l11.621 14.769-15.01-3.631-1.21-6.537z"/><path fill="#cea39f" d="M152.41 134.425l.485 8.958 11.862 16.705 18.158-9.684 2.663-13.315z"/><path fill="#efd0cb" d="M204.22 226.909l6.535-9.2 14.77 23.483-13.316 1.936z"/><path fill="#27788c" d="M132.557 138.299l1.695 11.621 16.463 4.6 14.042 5.568-10.168-22.273zM164.757 160.088l27.357-6.537 5.084-10.41.485-5.326-12.105.726z"/><path fill="#246879" d="M192.114 153.551l10.412-8.957-4.843-6.779-5.569 2.663z"/><path fill="#efd0cb" d="M103.505 165.171l-14.768 8.474-11.62 5.569 15.009 24.453 26.39-4.6 1.937-5.085-7.99-28.811z"/><path fill="#5ec0d9" d="M109.074 148.951l23.483-10.652 18.158 16.221-11.379 45.999-6.052 19.853-10.653-15.252-4.6-22.275-7.989-11.62z"/><path fill="#67b7b8" d="M118.031 159.12l-8.957-10.169-5.569 16.22 3.874 5.57 5.81-3.148z"/><path fill="#8ce0dc" d="M114.642 171.225l3.389-12.105-10.652 11.621 3.389 3.631z"/><path fill="#72cbcc" d="M110.526 185.266l-3.147-14.525 7.263.484 1.453 7.263z"/><path fill="#8ce0dc" d="M125.537 177.52l-10.895-6.295-4.116 14.041 5.569 3.149 4.842-1.455z"/><path fill="#67b7b8" d="M127.473 202.939l2.664-9.683-4.6-15.736-9.442 10.895-2.422 11.378 11.137 8.23z"/><path fill="#8ce0dc" d="M132.073 206.329l-4.6-4.358-13.8-2.178 6.295 15.495z"/><path fill="#287486" d="M126.748 252.329l-6.538 20.093 27.842 11.622 16.221-1.452 5.569-13.558z"/><path fill="#318fa6" d="M120.21 272.422l14.042 36.8 13.8 5.57 15.494-5.327.727-26.873z"/><path fill="#5ec0d9" d="M163.546 309.465v-5.568l-28.567-5.811-3.147 5.084z"/><path fill="#73cfe5" d="M129.895 298.328l1.937 4.842 32.2-8.232-2.907-5.325z"/><path fill="#5ec0d9" d="M123.6 281.623l2.421 6.778 38.011 6.537v-4.842z"/><path fill="#cea39f" d="M37.412 224.246l-.484-13.075 7.504.486v8.957l2.179 3.632z"/><path fill="#27788c" d="M50.485 191.803l4.842-2.421 6.779 2.421 17.189-11.621.726-7.019 6.538-4.36 8.715 18.157-3.148 16.707-31.473 6.537-9.684-9.685z"/><path fill="#369496" d="M55.085 189.382l8.232-2.178 1.936-4.359 9.926-1.695 4.842-7.987 5.811 12.589-.968 12.346-22.032 4.116z"/><path fill="#5ec0d9" d="M55.327 189.382l24.694-16.219-2.904 10.651H65.979l-1.694 6.054z"/><path fill="#369496" d="M36.201 198.583l.727 12.588 17.189-13.316-3.632-6.052z"/><path fill="#999" d="M46.854 221.582l17.431 62.947 7.263 15.011 7.021.482-23-84.734-6.052-4.601z"/><path fill="#858686" d="M43.948 220.129l22.031 78.199 5.569 1.212-1.211-10.895-7.262-17.917-4.358-24.452-9.927-23.725-1.21-7.506z"/><path fill="#cececd" d="M64.042 301.96l21.306-6.779-2.663-19.61 14.042 9.683-3.874 33.411-21.305 10.652z"/><path fill="#b3b3b3" d="M71.548 329.317l3.631-7.988 18.642-9.927 6.295 2.179 4.358 10.411-3.39 9.926-8.231-11.38z"/><path fill="#dddddc" d="M82.685 275.571l7.747 8.958 23.241 15.978 10.653-4.842-18.158-15.251z"/><path fill="#cececd" d="M124.326 295.665l-8.716.727-13.315 27.6-1.211 9.926 14.284-10.653z"/><path fill="#999" d="M70.821 305.591l4.358 15.738 20.337-6.781 6.779 9.444 7.747-5.811 5.568-21.789-12.589-10.168-12.589-1.695 1.452 14.525z"/><path fill="#b3b3b3" d="M93.337 306.559l4.842-10.41 10.895 5.327-5.811 9.926zM76.148 312.371l3.147-4.843 5.084 1.937-2.663 4.841z"/><path fill="#1c7678" d="M133.284 220.372l-10.169 24.694 18.884 18.884 20.094-24.938-12.589-7.988z"/><path fill="#5ec0d9" d="M123.115 245.066l-6.052 14.767 28.81 13.075 16.22-33.896-12.589-7.988-9.683 27.357z"/><path fill="#efd0cb" d="M52.18 213.592l-8.232 6.537-3.389-4.357-3.631-4.601 17.189-13.316z"/><path fill="#ffeee9" d="M60.653 210.204L48.79 222.551l-4.842-2.422 10.169-22.274z"/><path fill="#8ce0dc" d="M245.134 186.478l9.685-4.116 8.232-11.621-4.116-8.473-5.084-2.18z"/><path fill="#67b7b8" d="M259.418 154.035l-5.567 6.053 9.2 10.653 1.209-6.779z"/><path fill="#8ce0dc" d="M279.271 164.93l-19.853-10.895 3.633 16.706z"/><path fill="#72cbcc" d="M253.366 199.55l9.685-28.809-17.917 15.737z"/><path fill="#392d25" d="M112.947 34.437l8.716 50.116 8.715-18.158-5.81-29.778-1.453-4.359z"/><path fill="#ffeee9" d="M124.568 36.617l-1.453 23.241 3.633 5.084-3.633 1.453-2.178 36.315 71.903 5.084 2.906-70.452z"/><path fill="#efd0cb" d="M123.115 66.395l10.169 8.716 5.084 21.062 7.989 2.906 7.989-2.179 14.527-20.337 14.526-5.81-14.526-4.358-10.168 5.084-8.716 1.453-3.632 4.358-2.178-5.084-4.358-2.18-7.989-5.084z"/><path fill="#392d25" d="M120.937 102.71l-2.18 32.684 38.494 8.232 34.863-3.148 5.084-7.263v-21.789l-4.358-3.632L172.504 96.9l-44.304-.727zM143.452 43.879l-18.884-7.262 2.905-7.99 20.337-18.158 3.632 18.158z"/><path fill="#46382d" d="M212.451 12.648l-34.863 21.789-34.136 9.442 2.179-18.157 2.179-15.253z"/><path fill="#392d25" d="M195.746 37.342l12.346-7.263 4.359-17.431-40.673 20.336-7.989 7.99z"/><path fill="#392d25" d="M195.021 57.679l.725-20.337 17.431-7.989 13.801 5.084-7.264 10.169z"/><path fill="#46382d" d="M226.978 34.437l-14.527-21.789-16.705 24.694z"/><path fill="#46382d" d="M195.021 57.679l23.24 2.906 27.6-11.621-18.883-14.527z"/><path fill="#46382d" d="M242.957 87.458l-29.78-17.432 2.18-10.168 30.504-10.894z"/><path fill="#392d25" d="M224.798 100.531L240.05 96.9l2.907-9.442-13.075-15.979-7.988 15.979z"/><path fill="#46382d" d="M210.272 99.805l-8.716-3.632-.724-8.715 2.903-15.252 9.442-2.18 3.633 19.611z"/><path fill="#392d25" d="M193.567 99.805l2.905-11.621 4.36-.726L211 91.573l-11.623 14.042z"/><path fill="#efd0cb" d="M195.021 57.679l8.714 14.527-2.903 15.252-7.265 12.347z"/><path fill="#392d25" d="M213.177 70.026l31.957-21.062h.727l-29.778 5.083-9.443 12.348z"/><path fill="#737373" d="M216.083 54.047l-21.062 3.632 5.811 29.779 12.345-17.432z"/><path fill="#ffeee9" d="M211 91.573l2.177-21.547 16.705 1.453-4.357 20.821-8.474 2.905z"/><path fill="#cea39f" d="M216.81 74.384l-1.453 10.169 10.894-9.442z"/><path fill="#46382d" d="M192.84 124.5v-16.706l.727-7.989L211 91.573l-7.265 24.937z"/><path fill="#3f3229" d="M192.114 140.478l.726-15.978L211 91.573l5.083 25.421-7.264 9.684-2.179 7.747z"/><path fill="#46382d" d="M147.81 10.469l-34.863 23.968 11.621 2.18z"/><path fill="#3a3c3d" d="M157.979 66.395l25.42-2.905v7.263l-24.694.726zM141.273 64.942l-1.452 5.084-16.706-3.631v-6.537z"/><path fill="#cea39f" d="M145.631 101.257l-7.263-5.084 6.779-2.421 9.199 2.905z"/><path d="M168.873 74.384c2.006 0 3.632 1.626 3.632 3.631 0 2.006-1.626 3.632-3.632 3.632-2.005 0-3.632-1.626-3.632-3.632 0-2.005 1.627-3.631 3.632-3.631zM132.557 72.206c2.006 0 3.632 1.626 3.632 3.631s-1.626 3.631-3.632 3.631c-2.005 0-3.631-1.626-3.631-3.631 0-2.006 1.626-3.631 3.631-3.631z" fill="#2b2c2b"/><path fill="#ffeee9" d="M133.284 107.068l29.052.726v19.61l-9.441-12.347h-10.169l-8.716 10.895z"/><path fill="#cea39f" d="M136.915 109.973v2.179l22.516.726v-2.905z"/><path fill="#46382d" d="M224.798 169.529l-6.537-18.883.727-3.631h8.717l.724 13.799z"/><path fill="#3f3229" d="M232.062 168.079l-4.357 3.631-2.907-2.181 2.907-22.514z"/><path fill="#a3a3a3" d="M224.316 178.247l.482-8.718 7.264-1.45v9.441l-4.116 3.63z"/><path fill="#3f3229" d="M224.072 186.96l.244-8.713 7.746-.727 6.537 17.914z"/><path fill="#392d25" d="M233.756 136.604l-24.937-9.926L211 91.573l14.525.727 10.409 31.715z"/><path fill="#46382d" d="M259.418 154.035l-25.662-17.431-8.231-44.304z"/><path fill="#46382d" d="M242.957 87.458l30.021 36.557L225.525 92.3z"/><path fill="#3f3229" d="M218.261 150.646l9.444-3.631-14.528-9.442-21.063 2.905z"/><path fill="#46382d" d="M227.705 147.015l-35.591-6.537 16.705-13.8 11.622 12.347z"/><path fill="#737373" d="M212.451 12.648l-48.662 28.326-20.337 2.905z"/><path fill="#fff5f3" d="M144.179 72.206l-5.811 23.967 15.978.484-4.357-23.725z"/><path fill="#2b2b2b" fill-opacity=".102" d="M232.062 234.414l14.525-1.938 3.39 7.506-24.452 1.21z"/><path d="M125.537 177.52l4.116-7.021 4.6-.726.968 17.915 2.179-9.685 3.389 1.211.484 13.8-7.989 27.357-6.052-18.4-1.695-24.451zm130.251 76.021l-2.904 3.146 1.694 10.41-4.115-5.084-2.181 2.663 5.328 20.578 13.313-6.053-11.135-25.66zm-62.462-82.559l6.779-6.537 4.357 2.181-1.21 6.294 8.475-9.442 3.872 1.938-5.326 26.389 6.053-3.631 1.453 5.326-1.939 13.074-15.493 4.841-5.325-13.8-1.696-26.633zm38.977-22.515l5.325 1.936 7.022-2.42-5.083 7.989 4.357 2.42 15.494-4.358-18.883-12.831-8.232 7.264zm-112.093-4.6l1.938 6.053 6.053.242v-5.568l3.873 2.421 8.958-1.21-8.474-7.505-12.348 5.567z" fill="#73cfe5"/><path fill="#1c7678" d="M170.568 217.709l.724 12.347-11.619 7.506 2.42 1.45 12.833-7.504-1.694-14.767-3.149-1.212z"/><path fill="#50a9aa" d="M170.568 217.709l2.664-.968-9.927-8.959-2.422 1.211z"/><path fill="#67b7b8" d="M119.968 215.288l7.263-13.317 6.053 18.401z"/><path fill="#1c7678" d="M115.368 323.265l18.884-14.043 29.294.243v13.073l-4.115 3.389-37.768.486z"/><path fill="#165e60" d="M115.61 332.464l47.936.242v-10.168l-48.178.727z"/></svg>