<svg xmlns="http://www.w3.org/2000/svg" viewBox="0 0 400 400"><path fill="#318fa6" d="M273.591 259.923l-5.34 8.974 11.452 3.77z"/><path opacity=".1" fill="#2b2b2b" d="M87.75 383.978l97.564-13.357 109.842 15.991L182.75 400z"/><path fill="#1c7678" d="M153.013 257.253l-13.158 21.454-1.9 49.746 13.036 28.498 22.919-21.328 10.581-30.061 13.746 30.429 22.209 19.629 15.11-21.822-1.269-33.756-10.468-42.789z"/><path fill="#165e60" d="M184.491 305.562l15.53-12.118 21.168-20.898-68.176-3.398 14.018 16.216zM234.287 300.042l1.269 33.756-12.659 6.109-6.567-47.78zM154.476 275.298l-14.621 3.409-1.9 49.746 8.18 9.171z"/><path fill="#318fa6" d="M204.221 349.946l12.769-7.073 18.724 4.192.788 22.894-11.727 1.453-13.701-4.852z"/><path fill="#73cfe5" d="M198.237 335.991l37.319-2.193.158 13.267-31.493 2.881z"/><path fill="#318fa6" d="M168.813 350.103l-7.222 19.518h-13.028l-12.057-7.769.908-19.813 15.599-.247z"/><path fill="#73cfe5" d="M173.91 335.623l-35.955-7.17-.541 13.586 31.399 8.064z"/><path fill="#5ec0d9" d="M161.591 369.621v10.288l-43.492 3.274-7.768-3.52 26.175-17.811zM211.074 366.56l-6.894 18.993 15.675 3.217 19.563-3.217-5.273-12.925z"/><path fill="#87e5f4" d="M211.074 366.56l28.344 18.993-2.916-15.594zM136.506 361.852l9.629 17.811-12.622 2.915-6.422-14.319z"/><path fill="#318fa6" d="M110.331 379.663l51.26.246v6.794h-51.26zM204.18 385.553h35.237v6.433H204.18z"/><path fill="#737373" d="M255.886 155.747l-9-3.646 21.816-55.851 5.517-.688 3.483 4.334z"/><path fill="#8f8f8f" d="M288.199 92.1l-9.804-6.416-11.805-2.338 2.112 12.904 9 3.646zM279.085 178.765l-57.896-22.122 10.454-12.215 51.707 19.543z"/><path fill="#c4c4c4" d="M266.59 83.346l13.996-3.069 7.613 11.823z"/><path fill="#1c7678" d="M251.834 208.886l6.758 18.545 21.415 9.203 13.902-22.47-7.933-18.325-15.578-22.165-18.195 15.53z"/><path fill="#165e60" d="M253.213 205.691l-6.327 2.605 13.708 22.137 19.413 6.201 13.902-22.47z"/><path fill="#73cfe5" d="M272.128 163.85l13.957 31.939-25.759-6.585 2.674-13.6z"/><path fill="#1c7678" d="M129.208 167.61l-15.661 20.874-11.351 29.197 34.702 7.329 4.149-33.068z"/><path fill="#165e60" d="M133.523 205.691l-28.864 5.439 16.962 12.768 15.277 1.112 4.149-14.245z"/><path fill="#73cfe5" d="M129.87 184.787l-16.323 3.697 11.467-29.494 6.475 17.423z"/><path fill="#50a9aa" d="M272.128 163.85l-22.987 1.456-9.556-7.643-12.187-2.316-65.474-3.644-9.264 1.829-11.613 5.458h-16.033l4.856 25.797 3.653 20.904 58.745 27.445 60.945-27.445 7.113-16.487z"/><path fill="#369496" d="M133.523 205.691l29.754-6.592 36.25-.644 53.686 7.236-10.192 23.624-9.183 9.487-.251 12.38-48.125 8.741-44.415-11.166 5.088-15.621-9.237-8.126z"/><path fill="#1c7678" d="M164.828 205.221l32.044-.693-2.161 45.764-9.249 9.631-18.431-10.356z"/><path fill="#50a9aa" d="M234.287 300.042l-.366-34.323-46.321-6.184-47.114 3.318-.631 15.854z"/><path fill="#27788c" d="M141.047 248.757l25.984.81 20.285 1.615 7.395-.89 38.876.89.558 14.567-39.54-1.07-7.547-1.357-20.027.504-26.545-.973z"/><path fill="#73cfe5" d="M167.031 249.567v14.259l27.574.853.106-14.387z"/><path fill="#27788c" d="M172.206 253.935v6.337l16.67.622v-6.959z"/><path fill="#72cbcc" d="M272.128 163.85l-79.281 38.359-51.8 46.548-4.149-23.747 37.314-36.653 65.373-30.694z"/><path fill="#8ce0dc" d="M125.014 158.99l38.263 40.109 70.31 52.083 9.434-21.867-62.15-44.097-28.212-31.686z"/><path fill="#165e60" d="M219.108 133.441l12.535 10.987-25.708 9.711-8.83-13.628z"/><path fill="#a5a5a5" d="M249.286 113.966l-25.059 17.774-2.928-20.008 12.464-16.309 6.773-.88z"/><path fill="#cececd" d="M240.536 70.589l8.75 43.377-15.523-18.543V81.192zM244.687 86.586l17.954 8.135-.769-20.606z"/><path fill="#ffeee9" d="M121.575 21.44l-6.376 62.275 6.376 36.86 36.303 1.675 29.042 38.612 27.921-16.753 25.695-73.52-17.314-15.072-24.574-31.843z"/><path fill="#efd0cb" d="M198.431 24.668l-23.542 107.441-12.022 6.138 10.195 14.234 13.858 13.97 33.51-17.87 9.57-39.358-1.472-7.916 5.235-5.884 6.773-24.834-16.196-25.133z"/><path fill="#cea39f" d="M216.8 91.253l13.2 17.969 3.763-13.799zM224.06 87.902l3.072-12.845 8.099 1.675z"/><path fill="#efd0cb" d="M174.633 53.275L148.196 86.79 123.53 49.366z"/><path fill="#e2c8c5" d="M115.199 83.715l68.887 6.419 1.438 16.154-10.635 29.174-21.844-5.194-34.821-3.27z"/><path fill="#c6a5a1" d="M184.086 90.134l14.562 1.119 10.426-25.318 9.707-4.096 4.162 6.329-18.124 66.463-29.93-1.404z"/><path fill="#a58884" d="M153.045 130.268l51.774 4.363-31.759 17.848z"/><path fill="#c6a5a1" d="M163.906 38.175l-5.459 27.48 2.909 17.691 2.909-17.691z"/><path fill="#a58884" d="M129.208 103.354l28.856 2.234v3.634l-28.856-2.144z"/><path fill="#efd0cb" d="M163.683 69.197l5.98 12.655-7.291-4.686zM131.603 66.545l-9.609 12.707 8.672-4.143z"/><path fill="#fff5f3" d="M151.726 51.523l-3.53 35.267-12.037-1.122 5.33-34.928z"/><path fill="#a58884" d="M148.196 86.79l-7.074 5.394-4.963-6.516z"/><path fill="#4f5253" d="M174.633 53.275l-23.531 4.479.624-6.231zM140.531 57.022l.958-6.282-17.959-1.374z"/><circle cx="162.263" cy="65.655" r="3.816" fill="#2b2b2b"/><circle cx="130.615" cy="62.863" r="3.816" fill="#2b2b2b"/><path fill="#d8d8d8" d="M121.575 21.44l30.995 6.701 45.861-3.473 17.531 1.888 17.801-6.512-37.816-13.289-15.53.164-1.485-6.143z"/><path fill="#ececeb" d="M152.57 28.141l43.377-21.386L178.932.776l-36.754 25.118z"/><path fill="#c1c1c1" d="M198.431 24.668l5.316 7.004 6.63 3.545-2.327 2.125 6.795 8.952 16.011 6.9 13.311 4.798-2.997-13.317-4.916-5.735 2.099-3.634-4.59-15.262z"/><path fill="#a5a5a5" d="M214.845 46.294l-5.771 19.641 31.462 4.654 3.631-12.597z"/><path fill="#e0e0e0" d="M203.746 31.671l34.606 3.633 2.82 9.375-33.122-7.338z"/><path fill="#a5a5a5" d="M241.172 44.679l11.89 4.687 9.234 9.119-18.129-.493z"/><path fill="#a5a5a5" d="M274.047 70.585l-29.36 16.001 12.676-29.147z"/><path fill="#cececd" d="M269.858 42.384l4.189 28.201-32.875-25.906z"/><path fill="#1c7678" d="M231.643 144.428l-4.245 10.919-40.478 11.104 5.583-14.748zM186.92 166.451l-24.996-14.748-2.695-14.572 20.815 11.875z"/><path fill="#318fa6" d="M133.861 232.68l-9.533 24.211-9.994 4.855-12.138-2.913-6.324-39.145 22.022 1.231z"/><path fill="#73cfe5" d="M93.942 206.516l1.93 13.172 37.989 12.992 3.037-7.67z"/><path fill="#27788c" d="M124.328 256.891l6.191 13.499-.646 11.047h-6.474l-7.979-13.026 3.445-11.041z"/><path fill="#5ec0d9" d="M124.328 256.891l-.929 24.546-13.759.972-9.872-4.936 2.428-18.64z"/><path fill="#318fa6" d="M123.399 281.437l-1.914 13.605-14.597-4.89-7.12-12.679z"/><path fill="#cececd" d="M275.953 267.681l-21.967-13.404 10.314 17.275 7.563-.757zM282.18 287.553l-8.936 23.773-2.266-19.992 6.727-3.423z"/><path fill="#737373" d="M276.635 283.531l-3.106-9.2 56.183-18.966 4.879 3.477-1.774 5.723z"/><path fill="#8f8f8f" d="M345.108 260.417l-3.106-9.201-7.541-1.557-5.054 5.809 3.106 9.2 7.541 1.557z"/><path fill="#cececd" d="M340.639 259.008l-1.338-3.963-3.248-.671-2.177 2.502 1.338 3.963 3.248.671z"/><path fill="#8f8f8f" d="M282.18 287.553l-.171-10.637-6.056-9.235-11.653 3.871.349 10.901 6.329 8.881z"/><path fill="#cececd" d="M120.218 336.333l-16.263.365 10.472-14.553L264.3 271.552l3.339 9.891-5.002 6.813z"/><path fill="#a5a5a5" d="M121.105 341.927l-17.15-5.229 163.684-55.255 3.339 9.891z"/><path fill="#318fa6" d="M263.948 237.635l9.643 22.288 14.496 7.606 8.862-7.994 4.662-35.174-9.838-1.261z"/><path fill="#73cfe5" d="M263.948 237.635l37.663-13.275 1.812-14.842-42.829 20.915z"/><path fill="#5ec0d9" d="M273.591 259.923l6.803 22.339 12.278-1.947 12.278-6.342-8.001-14.438z"/><path fill="#318fa6" d="M304.95 273.973l-3.339 8.548-17.467 9.965-3.75-10.224z"/><path fill="#27788c" d="M227.398 155.347l-45.658 25.76-19.816-29.404-3.86.776 22.807 32.739 50.772-29.064z"/><path fill="#318fa6" d="M181.74 181.107l-4.026 5.499 3.136 3.34 3.483-2.436z"/><g><path fill="#5ec0d9" d="M167.628 185.228l-3.722-8.033 10.296 4.163 1.793 5.994z"/><path fill="#27788c" d="M163.906 177.195l9.765 9.839-6.043-1.806z"/><path fill="#5ec0d9" d="M194.807 188.94l5.739-6.741-11.035 1.25-3.335 5.293z"/><path fill="#27788c" d="M200.546 182.199l-12.045 6.861 6.306-.12z"/><path fill="#318fa6" d="M162.738 192.303l34.883 4.764-2.814-8.127-13.906-.44-13.273-3.272zM171.4 193.486l17.558 2.398 2.182 5.541-23.328-3.186z"/><path fill="#27788c" d="M167.628 185.228l14.003 2.637 13.176 1.075-11.697 13.889-7.938-1.084z"/><path fill="#fff" d="M173.565 193.782l4.49.613 1.322 1.676 2.605-1.139 4.571.624-7.017 2.946z"/><path fill="#3aa0ba" d="M177.346 199.591l.709-5.196 3.927.537-.709 5.196-2.062.453zM167.628 185.228l12.391 9.435 14.788-5.723z"/><path fill="#318fa6" d="M179.141 202.287l-1.795-2.696 3.927.537z"/></g><path fill="#c6a5a1" d="M148.196 86.79l8.054 5.487 1.814 13.311zM136.159 85.668l-6.545 6.432-.406 11.254z"/></svg>