<svg xmlns="http://www.w3.org/2000/svg" viewBox="0 0 400 400"><g fill-rule="evenodd" clip-rule="evenodd"><path opacity=".1" fill="#2c2b2b" d="M97.767 379.397l108.48 19.839 100-22.4-113.121-9.601z"/><path fill="#015557" d="M231.357 376.132l22.14-6.212 15.736 6.227v3.495l-37.876-.014z"/><path fill="#097172" d="M239.207 341.956l17.28 15.361 12.746 18.83-37.876-.015.811-16.897z"/><path fill="#484748" d="M244.487 278.755l4.865 1.908 7.135 76.654-24.319 1.918-14.001-49.37 6.001-37.349z"/><path d="M220.272 306.968l5.589 3.123 15.986 48.38-9.68.764-5.877-12.93s-12.361-22.676-11.511-23.063c.852-.387 5.493-16.274 5.493-16.274zM227.942 264.382l20.672 7.168.738 9.113-23.747 7.775 5.173-13.892z" fill="#343333"/><path fill="#cea19c" d="M125.058 139.716l6.56-14.88 4.32 10.72z"/><path fill="#feeee9" d="M110.818 157.795l-5.12-4.479-2.72-28.161 28.64-.319-2.24 26.721z"/><path fill="#eaeceb" d="M112.418 173.796l-5.44-7.36-1.28-13.12 23.68-1.759 2.057 14.355z"/><path fill="#1f7a8d" d="M118.726 199.556l18.972 8.32 17.667-1.759 13 7.96 3.338-40.655-12.338-14.905-45.119 23.6z"/><path d="M256.167 187.717l-7.681-33.92-13.105-5.974s-32.888 31.982-32.016 32.374c.872.391-27.851 58.18-27.851 58.18l73.982-14.125 6.671-36.535z" fill="#198da5"/><path fill="#1f7a8d" d="M244.486 234.596l2.561 12.8 1.567 24.154H236.29l-60.033-26.446-8.93-27.437 15.558 10.45 61.64-6.069z"/><path fill="#005a6c" d="M245.617 240.249l1.43 7.147.536 8.271-27.209-2.424z"/><path fill="#eecec9" d="M218.247 232.997l-10.241-6.881-8.321 14.003 9.761 18.158 10.928-5.034z"/><path fill="#feeee9" d="M233.767 232.837l-5.059-2.267-20.702-4.454 12.368 27.127 17.072-2.006z"/><path fill="#eaeceb" d="M247.047 232.197l-9.702-6.666-8.637 5.039 8.738 20.667 9.601-3.841z"/><path fill="#1f7a8d" d="M268.645 219.717l4.161-13.28-16.32-49.76-8-2.881-4.16 71.68z"/><path fill="#198da5" d="M158.893 197.016l-3.047 27.66 1.441 25.84 26.399-6.159-.801-16.24-3.653-17.868z"/><path d="M164.205 173.574c-.713.254-4.84-15.057-4.84-15.057l-5.936 3.104 2.417 63.055 27.039 3.44-18.68-54.542z" fill="#249db9"/><path d="M209.445 168.997l-26.56 59.12-20.319-56.88s17.574-21.361 17.44-20.161c-.134 1.201 29.439 17.921 29.439 17.921z" fill="#cdcccb"/><path fill="#015557" d="M180.006 170.277l-3.52 7.2-5.76 22.239 12.159 28.401 12.001-25.361-6.72-25.279z"/><path d="M173.23 190.048l-2.504 9.667 19.614-14.062-1.448-5.447-15.662 9.842zm.091 15.73l18.52-14.471 1.873 7.042-18.116 12.747-2.277-5.318zm5.209 12.166l2.254 5.266 6.027-3.39 4.821-10.19c-3.358 2.238-9.287 5.946-13.102 8.314z" fill="#097172"/><path d="M171.846 162.436l4.64 15.04h11.681l6.879-18.24s-18.97-5.755-18.88-6.561c.09-.803-4.32 9.761-4.32 9.761z" fill="#1f9294"/><path d="M168.486 161.637l.319 10.961 14.081 55.519c-7.34-6.775-11.114-13.98-17.999-21.399l-5.521-48.2 9.12 3.119z" fill="#4ab9d3"/><path fill="#4ab9d3" d="M199.044 163.637l-3.039 10.561-13.12 53.919 27.2-24.8 25.6-56.159z"/><path fill="#187779" d="M214.725 263.237l10.88 25.201 1.08 91.198-18.91 8.177-37.035-123.807z"/><path fill="#4da9aa" d="M113.285 269.878l-12 4 48.03 109.798 58.46 4.137-4.898-81.493-3.992-30.042z"/><path fill="#165f60" d="M195.823 301l7.067 5.533 22.971 3.558 11.547-5.63-34.691-6.941z"/><path fill="#165f60" d="M107.63 284.918l-13.877 10.526 20.773 8.702 88.351 2.174-.16-8.8z"/><path fill="#349596" d="M193.285 251.638l6.4-11.519 36.605 31.431 1.118 32.911-34.691-6.941-21.539-8.02z"/><path fill="#eaeceb" d="M188.325 163.158l-7.28-2.801-12.24 12.241-9.44-14.081 12.569-10.699 10.791 4.779z"/><path fill="#eaeceb" d="M193.765 145.398l-12.72 14.959 14.96 13.841 39.68-27.04-8.321-8.881z"/><path fill="#eecec9" d="M224.244 96.216l2.881 6.4.239 35.661-12.239 6.241-42.299-.135 8.219-28.986 1.6-72 15.04-10.879 16.32 25.28z"/><path fill="#cea19c" d="M183.099 126.714l5.353 7.864 28.593-3.18-1.92 13.12-34.08 15.839-6.52-8.68-16.84-25.079zM219.125 90.437l-6.7 1.428 14.7 10.751.172-10.256z"/><path fill="#8e9292" d="M204.725 47.557l1.28 12.481 1.76 18.4 13.12 3.599L227 66.278l-.995-36.641z"/><path fill="#a4a7a7" d="M176.085 6.062l22.079 1.68 9.495 2.633 18.346 19.262-20 30.349-12.561-18.749-22.159-15.352z"/><path fill="#8e9292" d="M146.645 20.509l-28.16 4.368-5.035 12.258 3.355 23.942z"/><path fill="#a4a7a7" d="M140.085 44.362l-17.68-9.658-3.92-9.827 13.979-14.089 32.1-4.012 10.059 16.675z"/><path fill="#bbbcbd" d="M132.464 10.788L176.185.764l21.979 6.978-23.541 15.709z"/><path fill="#feeee9" d="M116.805 61.077l13.656 59.66 22.165 18.452 35.826-4.611 14.59-21.226-9.598-72.115-18.821-17.786-29.338 9.947-22.88 2.559z"/><path d="M133.993 69.283l-7.325 2.002 12.509 9.766 9.032 10.382 5.209-1.449 10.52 7.08 9.656-21.706 8.623-12.671s-11.718.562-11.849-.004c-.13-.565-8.739 6.725-8.739 6.725l-5.231 5.613-3.429 1.912-1.348-1.61-5.44-3.618-4.837-2.122-7.351-.3z" fill="#eecec9"/><path fill="#feeee9" d="M210.135 67.033l2.29 24.832 14.872.495L227 66.278z"/><path fill="#cea19c" d="M215.968 72.343l6.043-.4-5.843 14.138z"/><path fill="#4da9aa" d="M106.805 239.878l92.88.241 3.032 57.401-108.964-2.076z"/><path fill="#2d91a7" d="M272.806 206.437l9.76 28.48-35.519 12.479-9.531-21.479zM137.698 207.876l-29.82 1.76-.9-43.2 24.32-1.439z"/><path fill="#cea19c" d="M151.961 92.293l-5.24 6.169 9.159 4.543 8.058-5.942z"/><path fill="#a4a7a7" d="M146.18 71.704l-.859-5.427-19.091 1.931.438 3.076zM161.628 69.408l-.602-5.171 20.873-4.803.317 3.252z"/><path d="M141.162 74.756c1.95-.123 3.629 1.358 3.752 3.308.123 1.949-1.357 3.629-3.307 3.752-1.95.123-3.63-1.358-3.753-3.307-.123-1.95 1.358-3.631 3.308-3.753zM171.329 70.079c1.95-.123 3.63 1.358 3.753 3.308.123 1.95-1.358 3.629-3.308 3.753-1.95.123-3.63-1.358-3.753-3.308-.123-1.95 1.358-3.63 3.308-3.753z" fill="#2b2c2b"/><path fill="#fef4f2" d="M151.621 75.322l-4.9 23.14 17.217-1.399-7.541-22.042z"/><path fill="#eecec9" d="M144.917 99.617l-4.246 8.712.79 7.56-3.47-8.746zM169.973 96.891l10.323 8.314-1.072 9.449 4.992-10.114z"/><path fill="#cea19c" d="M142.934 111.319l34.703-3.653-9.969 10.532-13.771 1.493z"/><path fill="#fff" d="M148.121 112.783l24.237-2.675-3.349 3.29-13.822 2.873-3.235-.695z"/><path fill="#6e5a59" d="M169.009 113.398l-2.579 2.532-12.219 1.292-2.259-1.646z"/><path fill="#eecec9" d="M176.95 76.142l6.863 1.8-4.013.6zM175.112 79.648l7.013 2.025-4.463.451zM135.849 82.121l-7.238 3.225 4.575-.075zM137.798 84.259l-4.987 5.175 3.788-1.313zM131.425 54.195l18.75-.236 22.875-9.134-22.65 11.339zM134.424 49.392l13.876.866 19.875-10.473-21.676 7.481zM156.107 125.738l5.625-3.3 8.175 1.65z"/><path fill="#198ba4" d="M225.672 197.061h7.302v9.054h-14.737v-4.247z"/><path fill="#fff" d="M224.676 196.325h8.298v1.393h-8.298zM224.676 199.083h8.298v1.393h-8.298zM218.237 201.908h14.737v1.393h-14.737zM218.237 204.721h14.737v1.393h-14.737z"/><path fill="#007489" d="M218.237 196.287h7.436v5.621h-7.436z"/></g><g fill-rule="evenodd" clip-rule="evenodd"><path fill="#349496" d="M157.211 354.554l-4.853.936-2.875 4.487 2.502-.324.998-1.994 5.037-1.057z"/><path d="M161.811 349.879c-.365-.013-1.344 1.782-1.344 1.782l-4.841 2.874 1.169 3.064s9.365-2.131 9.891-2.108c.527.024-4.875-5.612-4.875-5.612z" fill="#207678"/><path fill="#349496" d="M164.792 357.792l-.77.423-3.864 5.865 8.746 6.259 8.111-6.401-5.029-5.737z"/><path d="M163.467 355.461l.554 2.754 4.011 2.543 3.954-2.557.706-3.171s-9.203-.248-9.067-.385c.136-.136-.158.816-.158.816z" fill="#207678"/><path fill="#349496" d="M179.031 355.213l5.3 1.416 3.469 5.016-2.79-.612-1.221-2.195-5.486-1.586z"/><path d="M173.907 350.042c.377.014 1.51 1.922 1.51 1.922l5.309 3.37-1.056 3.065s-9.873-3.041-10.402-3.062c-.531-.023 4.639-5.295 4.639-5.295z" fill="#207678"/><path fill="#207678" d="M175.394 341.283l2.845.019 2.142-4.221-2.39-3.312 6.156-7.345 10.253-5.148-5.324 11.76-.978 8.872-12.682 10.056-.757-4.573zM159.771 340.916l-2.709-.112-2.255-4.175 2.052-3.139-6.14-7.178-9.391-4.848 5.321 11.059 1.371 8.425 12.447 10.713.372-4.709z"/><path fill="#72cbcc" d="M164.569 336.071l-2.055 1.179-1.935 3.008 12.562 1.194 1.023-2.151-1.494-1.938-2.713-2.254z"/><path fill="#72cbcc" d="M164.184 330.351l-.293-1.025 2.438-1.106 5.472 2.469-.539.781 1.408 5.893-2.886-.959-2.047.747-1.762-.665-3.461.764 3.264-3.765-1.538-2.16z"/><path fill="#349496" d="M159.555 338.981l-.698 5.357 1.61 7.323 7.62 6.589 7.329-6.286 1.302-7.146-1.389-5.804-4.316 1.064-3.586-1.928-4.045 1.857z"/><path d="M162.291 353.239l2.074 1.794-.349-11.374-2.022-.054.297 9.634zm4.667 4.034l1.129.977.92-.79-.415-13.678-2.048-.054.414 13.545zm4.541-1.949l2.018-1.731-.29-9.685-2.073-.055.345 11.471z" fill="#72cbcc"/><path fill="#349496" d="M159.555 338.981l-.698 5.357 17.856.505.004-.025-1.388-5.804-4.316 1.064-3.586-1.928-4.045 1.857z"/><path fill="#9ec9cb" d="M163.891 329.326l-1.813.57.116 2.063 3.653-.545z"/><path d="M166.548 311.926c1.627-.026 2.987 1.175 3.032 2.684.046 1.509-1.241 2.743-2.867 2.758-1.618.016-2.963-1.186-3.008-2.682-.046-1.497 1.224-2.734 2.843-2.76zm-13.513 6.256c1.083-.009 1.987.812 2.019 1.833.032 1.021-.82 1.852-1.902 1.854-1.078.004-1.975-.817-2.007-1.832-.033-1.016.813-1.847 1.89-1.855zm27.935-.226c-1.163.01-2.079.872-2.048 1.927.031 1.055.996 1.907 2.16 1.903 1.168-.002 2.092-.866 2.061-1.927-.031-1.06-1.005-1.913-2.173-1.903zm-6.276-3.405c-1.403.019-2.504 1.071-2.465 2.353.039 1.281 1.202 2.313 2.603 2.305 1.406-.01 2.52-1.063 2.482-2.353-.039-1.291-1.214-2.323-2.62-2.305zm-15.95.203c1.347-.016 2.475.992 2.513 2.255.039 1.262-1.024 2.293-2.371 2.302-1.341.008-2.457-1.002-2.496-2.256-.039-1.254 1.013-2.283 2.354-2.301z" fill="#349496"/><g fill="#349496"><path d="M143.965 348.097l1.243 6.82 5.659 1.867-1.93-5.137zM192.29 347.947l-.321 7.279-6.044 1.88 1.329-5.384z"/></g></g><path fill="none" d="M58.619 107.753l26.857-61.156"/></svg>