<svg xmlns="http://www.w3.org/2000/svg" viewBox="-135.982 -76.4 400 400"><path fill="#a09160" d="M167.594 2.011l-28.519 46.034-27.022 7.006 11.51-20.016 30.023-27.521z"/><path fill="#c1b274" d="M136.071 2.011l-5.004 5.503-13.508 10.008-5.506 37.529 55.541-53.04-7.506-3.502z"/><path fill="#369496" d="M-22.045 75.565l-9.007 14.01 9.007 1 23.518-9.507 3.002-7.505z"/><path fill="#cea39f" d="M-30.051 67.058L-15.04 82.07l8.007 3.002 8.506-4.004 3.002-7.505-5.504-14.01-9.007-8.506z"/><path fill="#ffeee9" d="M-25.047 42.041l-5.004 25.017 17.513-2.501 2.502-13.51L.973 47.045l-36.028-26.02-4.503 6.004z"/><path fill="#efd0cb" d="M.973 47.045l-22.517-10.509-3.503 5.505L4.475 73.563z"/><path fill="#369496" d="M37.499 69.06l-.5 8.507L11.98 124.6l-6.504-5.503L2.974 95.08l3.503-7.006z"/><path fill="#72cbcc" d="M-9.535 147.618l23.516-10.008 2.502-10.507-5.504-9.008-6.504-44.532-35.527 16.012z"/><path fill="#2b2b2b" fill-opacity=".102" d="M-5.532 307.236l67.049 16.012 63.546-19.016-64.547-15.01z"/><path fill="#1d6e70" d="M74.026 287.22l-6.004-15.011-6.004 16.011.5 9.008z"/><path fill="none" d="M41.002 284.219l50.036 30.522"/><path fill="#1d6e70" d="M51.009 314.741h40.029L79.029 301.23l-16.511-4.002zM41.002 284.219l-9.007 12.508 30.523.501-8.006-11.008z"/><path fill="#1c7678" d="M46.506 276.213l-5.504 8.006 21.516 13.009 6.004-20.015-13.51-6.004z"/><path fill="#1d6e70" d="M84.534 295.727l6.504 19.014 6.005-15.511-7.505-11.509z"/><path fill="#1c7678" d="M70.524 285.719l-8.006 11.509 28.52 17.513-1.5-27.02-10.509-4.003z"/><path fill="#3aa0ba" d="M7.978 207.162l38.528 69.051 10.508.501 1-4.004-24.018-58.544-21.015-9.507z"/><path fill="#318fa6" d="M33.996 214.166l-1.501 3.503 24.018 58.544 12.009 1 2.502-8.006-9.006-43.031z"/><path fill="#3aa0ba" d="M78.53 286.22l-8.006-.501-14.011-62.044 33.525-5.505-8.006 64.548z"/><path fill="#27788c" d="M42.002 176.138l-11.508 36.527 2.001 5.004 25.519 11.508 3.003-6.003-11.009-48.537-4.503-1z"/><path fill="#318fa6" d="M90.038 218.17l-3.502 4.002-8.006 64.048 11.008 1.501 31.023-73.555-8.006-3.501z"/><path fill="#50a9aa" d="M19.485 175.138L7.978 207.162l24.517 10.507 13.01-44.032-1.001-4.502-21.015 2z"/><path fill="#ffeee9" d="M52.51 80.569l-6.505 59.544 6.005 1 50.537-59.544 3.002-10.507-10.006-1.501-29.021 12.008-9.008-12.509z"/><path fill="#fff" d="M49.508 108.09l27.52 5.002-27.52 23.017z"/><path fill="#73cfe5" d="M55.012 92.076l4.003 2.002 1.001 6.004-6.505 2.503-3.002-5.505zM64.518 96.581l-4.502 3.501 3.002 5.505 6.506.501 4.002-4.503-3.504-4.505zM77.528 97.581l-4.002 4.004 3.002 3.501 6.504-3.002V97.08z"/><path fill="#369496" d="M19.485 175.138l26.02-1.501-2.502-30.023 6.505-7.505-5.504-7.505-27.521-13.01-5.504 2.501z"/><path fill="#50a9aa" d="M120.561 214.166l-62.547 15.011-13.51-60.042 13.51-.501 8.508 14.51 48.035 13.01z"/><path fill="#369496" d="M60.516 168.133l-2.001 4.503 6.505 10.508 5.504.499 3.502-16.011zM143.579 180.641l-9.51 1.002-37.026-18.013-2.002-6.004 42.031-62.047 7.507-4.002z"/><path fill="none" d="M9.978 117.596l133.601 63.045"/><path fill="#50a9aa" d="M36.498 92.076L52.51 80.569l5.004-11.509H37.499l-26.52 49.035 38.529 18.014-1.501-16.012z"/><path fill="#50a9aa" d="M105.549 71.062l-3.002 10.507 3.502 25.519-44.031 18.514-12.51 10.507 10.508.501 12.51 16.012 24.517 11.008 47.536-72.053z"/><path fill="#8ce0dc" d="M105.549 71.062l5.004 38.529-50.037 22.015-.5 5.004-10.508-.501zM31.995 90.076c-1.501-1.002 17.513 46.033 17.513 46.033l8.006-67.049-25.519 21.016z"/><path fill="#efd0cb" d="M38.5 141.113l11.008-5.004 3.503 7.505-2.002 23.519-5.504 6.504zM60.516 131.606l-11.008 4.503 3.503 7.505 13.511 6.006 7.504-2.002z"/><path fill="#ffeee9" d="M45.505 173.637l4.003-37.528 24.518 11.509 3.002 7.006-3.002 13.008-6.504 4.504z"/><path fill="#cea39f" d="M58.014 50.047l-5.003 3.501 10.007 34.526 16.011-10.507 13.01-18.014z"/><path fill="#efd0cb" d="M105.549-6.996l8.006 3.503 4.502 21.516 1.502 17.513-14.01 35.526-42.531 17.012 20.014-26.02-20.514-5.502 3.002-8.006 22.016-12.01z"/><path fill="#cea39f" d="M111.555 22.025l6.004-4.503 5.504 10.507-3.504 7.507z"/><path fill="#a09160" d="M108.553-.491l3.002 22.516 19.512-14.511L121.06-.992zM26.991-33.016l-5.504 7.006 7.506 28.021 8.006-8.005 13.51-39.531-6.005 1.501z"/><path fill="#e2d086" d="M111.052-65.039L96.041-76.047l1.002 12.509L121.06-3.994l10.007 11.508 36.527-5.503L158.588-13z"/><path fill="#c1b274" d="M139.075-70.043l-43.034-6.004 71.553 78.058z"/><path fill="#ffeee9" d="M117.559 3.011l-6.004 19.014 11.508 6.004 8.004-20.515L121.06-.992z"/><path fill="#cea39f" d="M120.561 9.015l-3.002 9.008 8.506-7.006z"/><path fill="#ffeee9" d="M22.488 21.524l12.509 27.022 27.521 8.006 28.52-14.511L108.553-.491l.998-5.004-27.519-9.507-32.524-25.519-6.004-.501z"/><path fill="#efd0cb" d="M45.005-45.525l-1.501 4.503 37.528 30.523-3.002-9.006-27.521-31.024zM41.002-15.002l7.505-2.002 10.008 9.008L59.516.01l-1.502 8.005-9.006 7.004V-3.994zM65.02 1.511l-4.504 7.005 1.502 11.008 13.51-15.513 17.512-2.5-5.504-7.006-17.012 2.002z"/><path fill="#a09160" d="M49.508-19.004l9.007 7.505v3.503l-10.008-8.006-7.505 1zM73.526-6.996l-3.002 3.503h16.512l6.004 5.004-5.004-7.505z"/><path d="M49.008-6.495c1.658 0 3.002 1.345 3.002 3.002 0 1.657-1.344 3.002-3.002 3.002-1.658 0-3.003-1.345-3.003-3.002 0-1.658 1.345-3.002 3.003-3.002zM75.528 2.511c1.658 0 3.002 1.345 3.002 3.002 0 1.659-1.344 3.004-3.002 3.004-1.66 0-3.002-1.345-3.002-3.004 0-1.658 1.342-3.002 3.002-3.002z" fill="#2b2b2b"/><path fill="#cea39f" d="M54.011 22.025l-5.003-7.006h6.505l6.505 4.505z"/><path fill="#fff5f3" d="M59.516.01l5.504 1.501-3.002 18.013-13.01-4.505z"/><path fill="#efd0cb" d="M32.996 21.524l5.504 1.002 3.002-4.004zM70.524 28.029l-1 6.006 5.002 2.501zM83.534 8.015l8.505 5.004-1.501-4.503zM38.5-5.994l4.503 2-8.006.501z"/><path fill="#72cbcc" d="M50.008 35.035l-7.505-9.507 8.506 5.004 13.509 2.501z"/><path d="M100.545 203.158l14.012-7.004 6.004 18.012-20.016-11.008zM54.011 98.082l6.005 2 13.51 1.503 5.503.499-2.501 3.002-3.002-3.501-4.002 4.503-6.506-.501-3.002-5.505-6.505 2.503.5-4.503z" fill="#2b2b2b" fill-opacity=".149"/><path fill="#72cbcc" d="M65.02 183.144l9.006-35.526 69.553 33.023-43.034 22.517z"/><path fill="#c1b274" d="M78.53-25.509l2.502 15.01 50.035 18.013-35.026-83.561-8.505 10.509z"/><path fill="#e2d086" d="M53.011-50.028l-3.003 5.004 31.024 34.525 15.009-65.548-8.005 2.503z"/><path fill="#fff7ae" d="M21.487-26.01l74.554-50.037-60.043 9.008z"/><path fill="#50a9aa" d="M42.503 25.528l6.004 1.501 4.504-.501 3.002 3.002 8.505 3.503-13.509-1.501z"/></svg>