<svg xmlns="http://www.w3.org/2000/svg" viewBox="-120.382 -39.819 400 400"><path fill="#2c2b2b" fill-opacity=".102" d="M-19.485 338.734l109.283 20.879 87.119-19.461-95.365-8.764z"/><path fill="#007072" d="M122.533 333.063l-13.145 7.218.645 7.732 38.404-.772-.516-7.605z"/><path fill="#1e9193" d="M120.471 310.254l-5.8 10.954-5.283 19.073 38.533-.645-6.83-17.525z"/><path fill="#007072" d="M32.064 325.333l-23.455 5.926.129 7.088 50.776-1.03-.257-7.347z"/><path fill="#1e9193" d="M48.946 304.455l-14.305 6.572-26.032 20.232 50.648-1.289-.258-9.663z"/><path fill="#007c94" d="M51.137 232.158l-7.732 67.915 3.35 15.594 12.244 4.64 25.259-69.851-4.382-11.726z"/><path fill="#1a8ba4" d="M30.26 232.672l4.381 78.355 12.114 4.64 9.15-74.617-7.861-14.692zM115.574 227.904l-14.95 17.525 19.203 66.242 8.119 10.053 13.145.387 1.289-88.536z"/><path fill="#007c94" d="M84.258 250.456l30.413 70.752 13.275.516-15.852-79.128-17.398-4.768z"/><path fill="#006d81" d="M55.905 241.05l28.353 9.406 26.934-7.86-6.958-13.145-26.935-8.506-12.243 5.155z"/><path fill="#1c7678" d="M37.348 190.402l-4.511 12.371-2.577 29.899 25.645 8.378 21.522-14.434 6.186-14.306-2.705-31.059z"/><path fill="#165e60" d="M76.783 179.962l.644 46.654 33.765 15.98 31.188-9.021.387-27.837-27.58-37.89z"/><path fill="#165e60" d="M107.326 171.457l14.047 19.203 15.335-2.45 9.28-10.567 4.769-10.825 2.834-36.987-9.665-20.362-23.584-9.665-13.402 19.202z"/><path fill="#1c7678" d="M143.154 176.483l.772-67.014 34.796 52.194-18.559 19.331z"/><path fill="#369496" d="M117.507 197.233l7.604-13.275 53.611-22.295-12.242 45.621-37.631-2.449zM112.609 98l7.733 1.804-2.19 23.455-10.181-1.804-4.64-5.671z"/><path fill="#eaeceb" d="M106.94 89.236l9.536-1.675 3.866 12.243-9.795 10.954-9.794-10.954z"/><path fill="#dddddc" d="M98.563 130.476l-3.222 34.537-42.4 6.444-5.155-49.616 40.08-6.315z"/><path fill="#cccccb" d="M73.948 118.49l-1.934 5.156.903 36.341 13.274-5.927 10.31-26.42z"/><path fill="#369496" d="M94.052 139.754l-5.928-1.675-5.541 14.563 7.988 8.634 9.795-1.804-.644-12.759z"/><path d="M23.945 176.225s17.269 2.448 19.718 2.835c2.447.516 27.32-2.706 27.32-2.706l-15.979-48.198 5.67-17.914-7.991-8.119-28.996 11.985.258 62.117z" fill="#1c7678"/><path fill="#369496" d="M47.658 118.619l-6.315 20.491 22.166 27.966 5.799-.774-10.696-34.925-1.546-9.922z"/><path fill="#165e60" d="M34.512 170.296l-10.824-56.187L.877 173.905l19.589 7.346z"/><path fill="#369496" d="M73.69 179.833l-10.181-12.757-62.632 6.829 19.073 33.637 48.069-17.914z"/><path fill="#e2c6c3" d="M94.181 168.363l-11.598-15.721-19.074 14.434 4.51 22.552 19.976-1.16z"/><path fill="#eaeceb" d="M68.664 97.742l-9.021-5.155-6.96 9.537 1.032 4.51 3.48 6.444 15.335-1.16z"/><path fill="#1a8ba4" d="M81.81 114.625l-9.409 3.35 2.707 5.542 17.784 6.83 7.861-5.8.516-9.021z"/><path d="M88.124 138.079l6.701 9.15 4.51 2.835 13.789-.645 2.965-2.32 3.738-11.083-6.445-2.835-19.717 1.16c0 .001-5.412 3.867-5.541 3.738z" fill="#c0922f"/><path fill="#e2a942" d="M88.124 138.079l31.703-2.062-1.675-12.758-19.46 3.994z"/><path fill="#e5c828" d="M89.411 123.774l-1.287 14.305 30.028-14.82-16.11-2.965z"/><path fill="#e2a942" d="M101.269 115.526l-11.858 8.248 28.741-.515-10.826-6.831-2.706-2.061z"/><path fill="#c0922f" d="M107.971 179.06l17.14 4.898-18.429 7.346-18.687-2.836 9.923-10.181z"/><path fill="#e2a942" d="M98.692 175.065l-3.867-27.836 11.213-1.031 4.251 18.944-2.318 13.918z"/><path fill="#279db8" d="M73.819 105.216l-1.289 6.702-.516 5.928 1.805.644 27.45-2.964-3.737-13.145z"/><path fill="#1a8ba4" d="M53.457 111.66l-5.799 6.959 10.954 12.758 10.309-7.603 3.093-5.928z"/><path fill="#c3a39f" d="M72.53 111.918l25.002-9.537 5.155.258 1.289-5.413 12.5-9.665 8.892-31.574-8.892-50.905-16.754-11.47-3.35 64.824-17.14 32.089z"/><path fill="#9e7f79" d="M85.547 82.02l-.387 8.376 19.331-.645-31.961 22.167-20.62-30.027zM123.177 41.295l-7.861 2.835 10.052 11.857 3.094-11.341z"/><path fill="#393939" d="M118.796 32.145l-7.991-.516-1.417-24.614 12.372-8.892 14.69 1.546-3.736 21.006z"/><path fill="#444648" d="M88.639-33.322l25.001-.644L136.45-.331l-27.062 7.346-4.381-6.057L85.675-16.44l-3.092-10.052z"/><path fill="#686b6d" d="M26.651-22.755l26.032-13.66 22.554-2.835 38.403 5.155-27.578 11.34L50.106-8.192z"/><path fill="#393939" d="M37.477-12.444l-3.222-7.475-7.604-2.836-4.252 24.099L35.415-9.094z"/><path fill="#e2c6c3" d="M22.399 1.344l1.546 58.896 23.197 30.929 38.147-.773 17.785-27.321L105.007.958 86.062-22.755l-32.476 7.733-19.331-4.897z"/><path d="M48.817 16.165l6.187 3.222 3.35 7.732-12.758 15.465-15.465-29.383 5.284-1.546 13.402 4.51zm19.718-.258l-6.572 3.479-.902 4.64 4.64 14.691 5.669 3.866 21.78-29.512-8.892-1.675-15.723 4.511z" fill="#c3a39f"/><path fill="#e2c6c3" d="M116.734 19.902l-1.418 24.228 13.146.516 4.252-23.971z"/><path fill="#eaeceb" d="M123.435 38.203l-3.093 2.447 2.319 3.867 3.481-2.964z"/><path fill="#9e7f79" d="M121.373 25.444l5.542.129-5.928 8.634z"/><path fill="#279db8" d="M72.53 111.918l-.516 5.928-1.546.773h-22.81l5.025-16.495z"/><path fill="#878889" d="M72.143 125.964l-4.768 4.64 4.897 5.027 4.769-4.898zM72.659 146.069l-4.511 4.382 4.769 5.155 4.768-4.769z"/><path fill="#9e7f79" d="M53.715 37.816l-8.119 4.768 11.212 5.799 14.562-5.799z"/><path fill="#444648" d="M68.019 12.814l17.013-3.737 8.891 3.093-.773.902-8.247-.515-14.693 3.221zM49.719 13.201L34.512 9.979 29.1 12.17l1.031 1.031 4.639-.644 14.047 3.608z"/><path fill="#eedcda" d="M55.004 19.387l-3.48 12.758-5.928 10.439H71.37l-7.345-11.599-2.062-11.598z"/><path fill="#9e7f79" d="M39.153 53.667l47.94-.902-15.079 18.687-18.944.386z"/><path fill="#fff" d="M46.884 56.889l32.734-.644-9.794 11.083-14.691.129z"/><path fill="#c3a39f" d="M45.596 42.584l-10.181 9.665 3.222-10.438zM88.639 51.09L71.37 42.584l10.182-2.191z"/><path d="M74.39 21.075c.139-2.01 1.912-3.561 3.96-3.466 2.047.096 3.594 1.803 3.457 3.813-.14 2.01-1.912 3.562-3.959 3.466-2.048-.096-3.595-1.803-3.458-3.813z" fill="#030303"/><path fill="#c3a39f" d="M103.589 160.632l-21.006-7.99 5.412 35.826 19.976-9.408z"/><path fill="#007489" d="M68.921 123.774l6.187-.257-2.578-11.599z"/><path fill="#e5c828" d="M106.038 146.198l1.933 32.862 3.092.129 1.803-2.964 3.223-29.125z"/><path fill="#c3a39f" d="M123.95 188.855l1.161-4.897-12.245-7.733-4.895 2.835 7.731 11.729z"/><path fill="#e2c6c3" d="M125.111 183.958l-18.429 5.155-6.058 10.697 6.058 14.819 22.167-9.794z"/><path fill="#c3a39f" d="M106.682 189.113l-18.687-.645-1.289 13.016 19.976 13.145z"/><path fill="#c0922f" d="M97.532 110.371l3.737 5.155 6.057.902 3.221-5.67-5.927-3.48z"/><path fill="#e5c828" d="M97.532 102.381v7.99l13.015.387 1.031-8.892-7.602-4.64z"/><path d="M38.57 21.275c.139-2.01 1.912-3.561 3.959-3.466 2.048.096 3.595 1.803 3.458 3.813-.14 2.01-1.912 3.561-3.96 3.466-2.047-.096-3.594-1.803-3.457-3.813z" fill="#030303"/></svg>