<svg xmlns="http://www.w3.org/2000/svg" viewBox="-105.006 -38.785 400 400"><path fill="#1e9193" d="M29.132 152.197l-13.665-18.583 26.509-11.752 9.019 27.328z"/><path fill="#165e60" d="M5.629 268.89l-20.223 4.92 30.609 18.583 10.111-15.305zM118.769 272.715l5.74 3.826 20.496-3.006-18.037-38.806-7.652 10.659z"/><path fill="#2c2b2b" fill-opacity=".102" d="M-22.246 344.59l83.079 15.576 91.005-15.302 19.949-3.828-89.911-12.843z"/><path fill="#165e60" d="M60.833 282.827l4.373 2.459 14.757-2.186 7.379-5.738-13.118-13.665z"/><path fill="#eecec9" d="M144.459 239.376l11.204 1.639 1.639 13.937-18.855 4.101-5.466-8.745z"/><path fill="#cea39f" d="M148.011 234.184l3.553 9.017-18.037 7.926-10.111-16.671z"/><path fill="#feeee9" d="M137.08 222.977l6.285 2.733 14.212 9.293-4.92 15.305-6.012-.548 1.366-9.84-21.043-5.191-1.367-6.285z"/><path fill="#3db9bb" d="M129.154 207.948l9.02 4.645 5.191 13.117-17.49 6.287-9.565-14.757z"/><path d="M116.31 189.091l7.379-14.485 14.484 37.987-15.305 6.012s-5.466-9.837-6.012-9.837c-.546 0-.546-19.677-.546-19.677z" fill="#27a4a6"/><path fill="#1ca9c5" d="M204.035 130.334l-8.473-15.577-16.123-4.646-1.913 8.472 10.384 19.95 9.019 3.006z"/><path fill="#1898b3" d="M192.83 142.632l-1.912-7.105 11.752-6.286 9.564 15.577-3.826 13.664-4.92-1.912z"/><path fill="#1ab4d3" d="M178.074 165.588l9.291 22.409 4.1-22.683z"/><path fill="#1ca9c5" d="M187.638 163.676l-3.005 8.197 2.732 16.124-23.503-8.199-3.827-6.284 2.461-12.572z"/><path fill="#007489" d="M171.514 140.172l19.404-4.645 17.49 22.955-23.775 13.391-16.672-8.197-6.286-8.473.821-12.024 9.564-3.007z"/><path fill="#1ca9c5" d="M148.011 126.508l-3.279-11.204 25.961 11.751-15.303 10.112z"/><path fill="#1a8ba4" d="M143.639 130.607l9.566-5.192 26.234-15.304 11.479 25.416-24.869 11.204-6.014 5.466-6.285-4.099z"/><path fill="#eecec9" d="M129.701 154.93l-5.738-4.646 17.762-13.938 2.734 4.373-5.466 12.572z"/><path fill="#1898b3" d="M138.719 138.533l7.926 12.844 13.39-1.64-6.83-24.322-8.473-10.111z"/><path fill="#545657" d="M140.086 333.658l11.752 3.28v7.926l-52.745-.274.274-8.746z"/><path fill="#6f7173" d="M107.838 310.155l-8.471 11.206v14.483l52.471 1.094-27.602-20.224z"/><path fill="#318fa6" d="M103.192 238.281l-20.223 12.571-8.745 21.316 25.143 49.193 12.297-2.461 3.279-13.662z"/><path fill="#545657" d="M19.294 333.386l-17.217 7.378v8.472l40.72.273.272-7.378z"/><path fill="#6f7173" d="M28.312 313.98l-17.763 4.374-8.472 22.41 40.992 1.367-6.012-16.671z"/><path fill="#318fa6" d="M10.549 318.354l15.303 4.1 6.013-3.006 11.204-46.185-24.595 7.65z"/><path fill="#3aa0ba" d="M98 239.101l13.664 79.799 12.572-2.186.546-73.513-3.552-18.583zM89.528 226.258l5.74 15.848-58.211 83.354-11.205-3.006 10.659-37.713-1.366-47.279 34.434-17.491z"/><path fill="#007489" d="M51.541 231.178l33.069 25.961 36.892-25.689-6.285-24.323-42.632-2.46z"/><path fill="#008183" d="M115.217 207.127l-7.379 10.386 37.167 56.022-20.496-64.495z"/><path fill="#56595a" d="M80.237 200.022l10.932 13.118L98 222.157l9.838-4.644 4.92-9.292-.821-38.807-32.247 17.764z"/><path fill="#1e9193" d="M98.547 155.75l9.291 61.763 16.671-8.473-.82-34.435z"/><path fill="#686b6d" d="M80.51 169.142l9.292 19.401 1.367 24.597-7.107 10.384-17.491-8.47-8.197-22.41 21.589-24.597z"/><path fill="#008183" d="M53.455 194.283l17.49 22.957-19.404 70.78-66.135-14.21 42.086-76.247z"/><path fill="#1e9193" d="M40.337 166.955l-16.124 12.024 3.279 18.584 43.726 19.402 6.559-23.776-3.28-13.664z"/><path fill="#cdcccb" d="M76.138 117.216l7.105 45.093 19.677-1.094 3.279-31.427z"/><path fill="#56595a" d="M107.564 141.812l-8.197-4.645-12.025 21.042 7.652 6.832 7.926-3.826z"/><path d="M84.61 126.508l2.732 31.701s-8.746 4.919-7.379 5.74c1.367.819-21.042-23.503-21.042-23.503l11.204-15.851 14.485 1.913z" fill="#dddddc"/><path fill="#686b6d" d="M55.367 141.812l7.926-3.826 24.049 20.223-3.28 12.571-33.067-21.59z"/><path fill="#1e9193" d="M104.558 147.278l4.373-25.416 15.032 10.932v17.49l-.274 3.279-16.125.274z"/><path fill="#eaeceb" d="M99.367 137.167l-15.031-10.386 6.012-9.838 10.386-4.099 5.737 12.844z"/><path fill="#8fd4d5" d="M98 161.489l2.734-48.645 8.197 9.018 4.919 30.608-4.098 5.739z"/><path fill="#eecec9" d="M138.993 159.303l7.652-7.926 19.404-4.646 1.912 16.945-7.926 9.838z"/><path fill="#feeee9" d="M122.595 160.122l1.368-9.838 22.682 1.093 13.663 22.137-24.048-3.826z"/><path fill="#3db9bb" d="M109.205 168.047l4.645-15.577 10.113-2.186 12.297 19.404-12.571 4.917z"/><path fill="#27a4a6" d="M79.417 166.955l6.832-8.746 27.601-5.739 9.839 22.135-45.912 18.584z"/><path fill="#eaeceb" d="M58.921 140.446l-9.565-29.242 4.371-4.372 30.062 15.85.547 4.099z"/><path fill="#8fd4d5" d="M41.976 121.862l7.38-10.658 22.681 43.452 1.094 31.429-24.869-23.776z"/><path fill="#eecec9" d="M66.845 111.204l17.765 15.851 16.124-14.211 17.762-44.819-9.018-50.558-13.39-14.211-8.473 10.112z"/><path fill="#cea19c" d="M78.324 81.416l-11.479 29.788 24.596-1.093-6.831 16.944-34.161-16.124zM115.217 54.634l-5.465 3.279 8.744 10.112 2.734-7.379z"/><path fill="#919093" d="M117.13 13.095l15.03-9.839-4.372 33.615-14.21 7.652-8.199-.547.546-17.763V19.38z"/><path fill="#757577" d="M108.931.524l23.229 2.732-10.658 9.839-15.577 13.664-9.837-19.403z"/><path fill="#949393" d="M91.169-26.259l16.395 2.187L132.16 3.256 96.906 8.175h-4.098L75.045-16.42z"/><path fill="#7d7f80" d="M15.194-7.948l1.367-17.49 52.744-12.298 38.259 13.664L80.51-14.78l-2.733 4.645L19.294 4.896z"/><path fill="#adabab" d="M80.51-14.78L30.772 12.275 24.759 3.53 18.201-6.855l-1.64-18.583z"/><path fill="#949393" d="M9.728 2.163L2.623-.569l13.938-24.869L24.759 3.53l-9.018 2.459z"/><path fill="#757577" d="M23.666 8.996L14.922.797 2.623-.569l4.919 20.223z"/><path fill="#feeee9" d="M7.542 19.654l4.373 63.402 22.136 27.875 32.794.273 29.788-25.689.273-77.34L80.51-14.78 24.759 3.53 14.922.797z"/><path fill="#eecec9" d="M28.586 34.958l7.378 1.639 6.012 7.652 2.734 3.553 1.912-3.553 6.559-8.745 15.85-3.279 10.113 1.366-12.299 11.751-14.757 19.95-15.304-1.639-9.838-18.311-12.298-9.838z"/><path fill="#cea19c" d="M41.43 61.739l-7.652 4.1 9.838 5.739 8.199-6.013z"/><path fill="#feeee9" d="M112.484 34.411l-2.732 23.502 11.478 2.733 6.558-23.775z"/><path fill="#cea19c" d="M116.31 40.97l-.547 8.745 6.56-8.199z"/><path fill="#008183" d="M15.467 133.614l71.875 24.595-9.565 34.98-53.564-14.21z"/><path fill="#eecec9" d="M42.25 110.931l4.372-7.652 2.734 7.925z"/><path fill="#757577" d="M53.181 35.504l15.305-4.646 10.658 2.733zM35.964 36.597l-12.298-4.372-9.018 3.279z"/><path fill="#fef4f2" d="M41.976 44.249l-8.198 21.59 18.037-.274-5.193-21.316z"/><path fill="#cea19c" d="M32.685 83.875l10.112-2.186 19.675 2.186-.272 1.914-18.584-1.367-10.658 1.093z"/><path fill="#eecec9" d="M56.461 67.205l9.019 8.745-3.28-7.925zM32.411 68.845l-5.465 7.105v-6.012zM43.616 78.684l-2.733-4.1 2.46-3.279 2.46 3.006z"/><path d="M66.582 47.529c2.055 0 3.816-1.913 3.816-4.099 0-1.914-1.762-3.826-3.816-3.826-2.349 0-4.109 1.913-4.109 3.826-.001 2.186 1.76 4.099 4.109 4.099z" fill="#2b2b2b"/><path fill="#1ab4d3" d="M201.302 130.334l-5.74-15.577 10.113 13.938 6.559 16.123z"/><path d="M16.015 292.393l20.497-7.651-18.038-3.828-2.459 11.479zm8.198-113.414l37.713 19.404 15.851-5.193-53.564-14.211z" fill="#2b2b2b" fill-opacity=".102"/><path d="M26.582 48.529c2.055 0 3.816-1.913 3.816-4.099 0-1.914-1.762-3.826-3.816-3.826-2.349 0-4.109 1.913-4.109 3.826-.001 2.186 1.76 4.099 4.109 4.099z" fill="#2b2b2b"/></svg>