<svg xmlns="http://www.w3.org/2000/svg" viewBox="0 0 400 400"><path opacity=".1" fill="#2b2b2b" d="M76.957 383.468l153.1-14.45 94.237 17.885L213.957 400z"/><path fill="#efd0cb" d="M103.787 135.659l-12.498 6.144-.524 6.547 15.173-.629z"/><path fill="#1e7678" d="M161.829 164.241l-33.576 33.826 29.588 27.15 3.988-27.185z"/><path fill="#359496" d="M157.841 225.217l-37.154-48.558-12.864 2.492-7.752 10.695 25.775 44.076z"/><path fill="#cea39f" d="M120.687 176.659l-16.337-19.866-12.129 12.387 7.85 20.666z"/><path fill="#efd0cb" d="M83.311 171.578l.732-14.785 11.503-11.384-.868 25.831z"/><path fill="#185e60" d="M229.047 384.839v6.707h43.331v-6.707l-24.243-2.579zM157.075 378.558v6.192h32.759l11.35-6.192v6.192h12.773l-.134-6.192-25.021-4.126z"/><path fill="#1e7678" d="M238.722 367.299l-9.675 17.54h43.331l-1.028-13.414-17.798-6.19zM186.387 357.922l-29.312 20.636h56.748l.134-8.77-10.709-11.866z"/><path fill="#318fa6" d="M154.722 268.242l18.332 51.489 28.507 30.19 19.466-17.397 13.157-37.525z"/><path fill="#3aa0ba" d="M210.807 306.934l10.22 25.59 32.091 10.264 20.287-10.264 3.083-59.123-49.011 15.993z"/><path fill="#28788c" d="M154.722 268.242l56.085 38.692 65.681-33.533-75.642-20.649z"/><path fill="#185e60" d="M311.066 218.167l-34.578 45.935-11.866-39.208 13.552-20.636 11.211-1.054z"/><path fill="#1e7678" d="M279.583 152.117l31.483 66.05-32.892-13.909-5.298-24.798z"/><path fill="#ececeb" d="M247.597 138.188L231.605 265.65l-19.089 7.751-11.67-9.299-12.061 6.204-14.768-69.178 18.551-48.84z"/><path fill="#feeee9" d="M132.393 28.653l-9.634 25.943 16.676 93.393 40.228-6.3 19.642 11.489-.526 24.182 9.774 3.336 39.369-41.609 14.269-75.141-25.471-2.494-22.589-43.738-11.688-9.816z"/><path fill="#efd0cb" d="M214.131 17.714l11.285 115.823-45.753 8.152 11.665 9.89.548 11.881.353 12.128 15.128 7.999 42.876-43.427 7.224-37.396-.057-7.148 2.995-7.491 2.823-23.152-20.754-6.3-8.524-32.243zM194.47 61.452l-18.623 32.799-40.304-21.959z"/><path fill="#fff5f3" d="M169.86 65.979v14.374l5.987 13.898-14.314 2.363V81.297l-5.451-12.783z"/><path fill="#cea39f" d="M175.847 94.251l-6.115 9.54-8.199-7.177zM260.395 88.125l-13.808-.684 10.87 15.322zM250.201 81.297l1.111-11.089 7.644.834zM150.552 111.762l21.404 1.113 24.738-9.867 2.085 4.308-26.267 10.423-21.96-1.667z"/><path fill="#efd0cb" d="M185.932 94.53l12.847 12.786-4.309-13.62zM150.552 116.072l5.53-15.938-6.919 5.653zM195.443 73.265l5.976-4.169 5.837 2.78zM139.574 82.716l-5.976-1.419-4.308 3.504z"/><path fill="#cea39f" d="M177.608 141.689l61.891-11.025-40.435 36.029-5.528-1.285-8.043-15.321z"/><path fill="#6f7173" d="M194.47 61.452l-6.532-3.474-17.928 1.737-.15 6.264zM156.082 68.514l-2.749-5.533-14.871 4.725-2.919 4.586z"/><circle cx="186.372" cy="73.859" r="4.207" fill="#2b2b2b"/><circle cx="147.088" cy="80.886" r="4.207" fill="#2b2b2b"/><path fill="#d3d3d3" d="M132.393 28.653l41.886-27.057-4.419 15.198-7.815 4.071z"/><path fill="#8f8f8f" d="M264.33 52.372l-1.112 12.601-17.418-.741-1.853 15.195-8.154.741-7.041-17.789 16.387-10.007z"/><path fill="#c6c6c6" d="M199.124 11.346l35.559-7.154 12.681 19.84-7.865 4.621-5.559-2.223z"/><path fill="#a5a5a5" d="M233.94 26.43l-5.188 35.949 35.578-10.007-16.966-28.34zM174.279 1.596l-12.234 19.269 72.638-16.673z"/><path fill="#359496" d="M250.233 140.16l-10.815 43.427-25.354 28.925-3.257 72.755 65.681-11.866 3.095-121.284zM185.493 150.087l-23.664 14.154-7.107 104.001 35.711 14.448 1.096-69.659-5.839-37.956z"/><path fill="#4fa9aa" d="M250.233 140.16l6.994 48.07-43.163 24.282zM185.493 150.087l-18 43.818 24.036 19.125.7-37.442zM229.799 240.371l29.664 24.505 5.159-5.933-30.438-25.021zM155.915 249.399l19.271-14.445 4.644 6.19-24.61 19.241z"/><path opacity=".2" fill="#2b2b2b" d="M207.357 183.587l-36.542 1.186 21.414-9.185zM207.357 183.587l19.108 9.519 17.65-12.656z"/><path fill="#fff" d="M192.229 175.588l-.7-13.411-6.036-12.09-14.678 34.686zM250.233 140.16l-6.118 40.29-36.758 3.137z"/><path opacity=".2" fill="#2b2b2b" d="M207.357 183.587l-5.932 34.6-.579 45.915 5.652-45.915z"/><path fill="#e2e2e2" d="M185.493 150.087l13.571 16.606 8.293 16.894-15.128-7.999z"/><path fill="#28788c" d="M221.027 332.524l-47.973-12.793 13.333 38.191 27.57 11.866 7.07-37.264z"/><path fill="#318fa6" d="M221.028 332.524l17.694 34.775 32.628 4.126 2.055-38.901z"/><path fill="#6f7173" d="M37.456 131.448l7.166-11.272 11.914 7.613 13.224-.27L87.627 108.6l7.051 8.087-3.53 2.645-11.654 12.477-6.69 7.02-9.664-2.618-6.177-4.533-9.016-.743-6.996 11.248-3.378-3.57z"/><path fill="#595959" d="M44.622 120.176l3.325 10.759 15.193 5.276 9.134 1.354-2.514-10.046zM87.627 108.6l3.521 10.732 10.321 5.512.601-5.307-2.754-4.74z"/><path fill="#858686" d="M77.9252087 158.4868922l1.733252-.4665205 4.1264323 15.3308312-1.733252.4665205zM82.3810562 157.4717229l1.663247-.6750995 5.9713397 14.7116282-1.663247.6750995zM73.2007365 159.7164739l1.765203-.3257925 2.8816755 15.6134418-1.765203.3257925z"/><path d="M95.546 145.409L79.494 131.81l-8.177 2.201-8.177 2.201-7.057 19.82 1.706 12.314 16.685 28.391 12.799-3.445 12.799-3.445.247-34.093-4.773-10.345zm-26.766 3.964l7.555.256L83 145.545l1.722 6.399-7.815-.186-6.406 4.014-1.721-6.399zm17.314 36.704l-4.282-2.466 2.466-4.282 4.282 2.466-2.466 4.282zm6.127-16.897l-19.554 5.263-3.254-12.088 19.554-5.263 3.254 12.088z" fill="#3aa0ba"/><path d="M56.083 156.031l-12.022-4.295-5.576 4.075-1.081 9.442 37.07 31.483-18.391-40.705zm1.977 20.91l-3.311-1.907 1.907-3.311 3.311 1.907-1.907 3.311zM109.941 135.148l-6.154.512-8.241 9.749 4.526 44.437 16.258-45.837-6.389-8.861zm-5.913 29.897l-3.311-1.907 1.907-3.311 3.311 1.907-1.907 3.311z" fill="#318fa6"/><path fill="#5ec0d9" d="M37.456 131.448l6.605 20.287-6.657 13.517-6.423-23.863zM99.316 114.797l10.59 5.348 6.424 23.863-12.543-8.349z"/><path fill="#efd0cb" d="M120.687 176.659l-6.338-27.067-11.031.668 6.973 10.774-3.62 10.206 3.445 12.181z"/><path fill="#feeee9" d="M114.349 149.592l-4.058 11.442-14.006-8.366-.739-7.259z"/><path fill="#efd0cb" d="M144.555 55.06l15.264-5.003 22.256-1.946-22.256 5.56z"/></svg>