<svg xmlns="http://www.w3.org/2000/svg" viewBox="220.944 97.638 400 400"><path fill="#1c7678" d="M394.278 272.042l-10.267-2.092.855 14.164z"/><path fill="#27788c" d="M393.708 235.819l16.827 20.917-3.423-16.733z"/><path fill="#73cfe5" d="M315.468 217.568l9.317-7.321 12.072-.95-8.175 11.598z"/><path fill="#3aa0ba" d="M316.229 227.93l6.654 15.686 15.021 1.521-3.994-9.983-4.278-11.312z"/><path fill="#efd0cb" d="M337.904 245.137l24.621 23.861 3.709-14.259-6.94-11.313-13.119-4.184zM417.093 239.338l3.518 11.692 14.071-.854V235.06l-9.031.379zM434.302 270.234l-2.567-15.21 14.545-9.981 4.182 16.54z"/><path fill="#3aa0ba" d="M408.348 235.916l-4.848 4.372 7.035 16.448 25.952-2.092 2.567-4.848-4.467-1.996-19.395 1.046-3.328-9.127z"/><path fill="#cea39f" d="M448.656 237.058l15.685 16.445-13.879 8.08-8.745-11.313-5.23 4.374-4.467-16.447z"/><path fill="#3aa0ba" d="M504.175 378.992l38.119 36.126 32.801 1.14 10.933-22.152-26.335-47.057-39.927 10.077z"/><path fill="#1c7678" d="M426.411 362.544l27.379 1.522 18.632-22.911-9.411-36.316-21.199 9.413z"/><path fill="#3aa0ba" d="M425.175 392.777l37.457-53.236 30.229 13.59 14.164 28.521-26.334 22.057-20.721 6.369z"/><path fill="#369496" d="M448.656 237.058l9.602-5.61 21.961 13.023-16.353 11.693z"/><path fill="#5ec0d9" d="M534.787 343.91l-30.328 14.357-41.827-18.726.379-34.702 19.109-27.856 47.913-1.614z"/><path fill="#27788c" d="M462.632 339.541l44.393 42.111 16.449-13.783 5.513-17.587z"/><path fill="#318fa6" d="M447.99 442.022l-22.815-49.245 55.516 10.932v43.825l-15.113 3.232z"/><path fill="#2b2c2b" fill-opacity=".102" d="M365.554 471.117l152.653-14.741 101.284 20.725-101.423 20.537z"/><path fill="#6f7173" d="M419.28 465.882l28.71-23.86 32.701 5.512v17.683l-30.323 3.897z"/><path fill="#545657" d="M420.042 473.109l-.762-7.227 61.411-.761v7.988z"/><path fill="#318fa6" d="M578.612 449.436l-36.318-34.318 43.734-21.012 29.469 53.428-19.108 8.842z"/><path fill="#6f7173" d="M618.73 467.499l-3.233-19.965-36.885 1.902-10.93 18.063 24.714 4.752z"/><path fill="#545657" d="M619.491 477.101l-.761-9.602h-51.048v9.602z"/><path fill="#ffeee9" d="M422.322 143.701l4.849 52.667 3.993 7.605 1.14 11.408 16.449 21.58 12.831-.856 9.794 2.567 17.776-4.563 11.316-22.531 3.989-98.108-76.527 10.363z"/><path fill="#46382d" d="M426.315 115.848l8.462 3.421 2.185 6.75-9.03 4.182-5.61 13.5z"/><path fill="#5e5044" d="M469.382 97.499l-43.067 18.349 15.592 14.924 20.343-12.548z"/><path fill="#46382d" d="M469.382 97.499l42.305 2.377-17.684 15.021-14.832 5.893-13.689 8.841-23.575 1.141z"/><path fill="#5e5044" d="M541.154 122.216l-29.467-22.34-32.516 20.914 14.262 7.985 10.171 5.99 32.799-4.564z"/><path fill="#efd0cb" d="M537.163 205.114l.284-5.705-20.154-50.099-14.257-.286-2.566 62.554 15.968 7.891z"/><path fill="#46382d" d="M514.824 182.773l-3.137-27.854-8.651-5.895-9.603-20.249 47.721-6.559-1.993 41.45-17.874 19.107z"/><path fill="#ffeee9" d="M520.431 190.759l6.276-.285 11.31-.475 1.144-26.333-19.49.855z"/><path fill="#cea39f" d="M528.323 180.207l-3.139-5.324v-5.61l9.603-.854zM520.431 190.759l17.016 8.65.57-9.41h-3.23l-5.8-2.092-3.803 2.661z"/><path fill="#8ce0dc" d="M537.163 205.114l-36.693 6.464-11.316 22.531 32.133 1.33 18.251-5.037z"/><path fill="#efd0cb" d="M428.691 166.042l14.357 11.978 6.368 15.971 9.603 2.377 5.608-3.993 12.738-16.731 12.74-8.746-6.371-3.232-7.129 1.615-7.985 3.992-7.224 5.61-3.994 3.137-3.992-2.376-4.754-5.61-7.986-6.368-5.608-.761z"/><path fill="#efd0cb" d="M459.874 160.528l-3.232 4.753 5.608 5.609-2.376-6.369z"/><path fill="#46382d" d="M467.765 165.281l.855 3.992 14.355-3.231 7.13.856-6.371-6.37zM449.416 165.281l-.76 4.753-12.738-4.753-7.227.761 5.611-5.514z"/><path fill="#50a9aa" d="M572.813 370.626l-14.45-10.933-47.056-76.434 28.231-52.857L596.2 338.396z"/><path fill="#72cbcc" d="M533.646 314.346l12.072-6.276 23.103 31.185-7.605 12.357-18.256-13.025z"/><path fill="#369496" d="M502.37 281.547l17.872 3.328 52.571 85.751-49.339-2.757-25.953-74.533z"/><path fill="#fff5f3" d="M453.41 175.644l-3.994 18.347 15.211-1.616-3.231-17.492z"/><path fill="#cea39f" d="M458.258 199.601l-8.842-5.61 15.211-1.616z"/><path fill="#efd0cb" d="M454.266 220.324l9.6-4.847 9.507 2.471z"/><path fill="#cea39f" d="M447.896 209.106l11.978-3.136h15.116l.76 3.136h-15.876l-11.218 2.472z"/><path d="M442.286 174.883c2.188 0 3.994 1.711 3.994 3.993 0 2.186-1.807 3.897-3.994 3.897-2.186 0-3.991-1.712-3.991-3.897 0-2.282 1.805-3.993 3.991-3.993z" fill="#2b2b2b"/><path fill="#165e60" d="M361.575 207.871l.76-12.073 7.986-9.697 23.292 2.092 3.137 17.777-15.306 6.939z"/><path fill="#1c7678" d="M364.427 195.607l1.236 12.074-9.222 2.662 2.662-17.873z"/><path fill="#72cbcc" d="M489.154 234.109l.951 28.424 30.137 22.342 19.296-54.473z"/><path fill="#cea39f" d="M461.584 236.105l11.219 9.603 10.647-1.617 5.704-9.982z"/><path fill="#50a9aa" d="M434.302 270.044l54.852-35.935 31.088 50.766-78.43 29.377-20.25-30.898z"/><path fill="#efd0cb" d="M382.49 241.811l19.869 10.361 1.045 16.826-13.214 5.513-7.796-5.893-6.274-17.207z"/><path fill="#369496" d="M384.866 284.114l17.493-31.942 32.038 17.968 7.415 44.112-39.738-21.012-3.517-7.511-7.607 1.618z"/><path fill="#3aa0ba" d="M330.963 224.982l5.894 20.25 22.437-1.806 23.196-1.615 24.622-1.808 41.544-2.945-17.492-33.085-94.307 5.324z"/><path fill="#1c7678" d="M259.474 220.324l66.641-3.326 8.936 5.607-8.079 4.754-67.023 2.567-5.894-4.944z"/><path fill="#5ec0d9" d="M325.545 227.455l12.359 17.682 21.39-1.711-22.437-34.129-10.742 7.701z"/><path fill="#3aa0ba" d="M403.5 171.556l25.952 3.042.667 11.693-24.813 6.37-7.415-6.655-.761-7.986z"/><path fill="#27788c" d="M396.845 171.841l6.655-.285 4.943 3.897.38 12.168-3.517 5.04-7.606.19-4.087-4.658-.475-11.694z"/><path fill="#50a9aa" d="M369.846 177.069l29.47-1.236 3.328 5.99-33.368 6.94-4.184-6.084z"/><path fill="#369496" d="M370.227 184.294l32.417-2.471-2.757 5.989-29.376 1.997-2.472-2.092z"/><path fill="#ffeee9" d="M359.294 243.426l3.231 25.572 21.486.952-1.521-28.139-12.835-3.995z"/><path fill="#efd0cb" d="M346.079 235.916l13.215 7.51 23.196-1.615-6.37-7.131-26.428-5.799z"/><path fill="#165e60" d="M535.642 180.397l-7.985-1.427-2.473 1.902v9.696l5.42-.19 4.751-6.844z"/><path fill="#72cbcc" d="M510.259 209.866l20.345-19.488-.571-6.749 5.322-.095-.568 6.465-18.729 18.823z"/><path fill="#3aa0ba" d="M334.101 171.65l35.745 5.419.665 12.74-35.269 8.174-6.75-6.368.856-14.356z"/><path fill="#27788c" d="M328.207 171.937l5.894-.287 7.416 3.898.379 4.087-1.235 12.17.285 3.708-5.704 2.47-7.321.096-5.893-5.322-1.427-14.357z"/><path fill="#efd0cb" d="M428.691 155.68l20.725 4.848-9.505-4.848zM455.881 154.063h6.369l8.748-7.129-9.602 4.753z"/><path d="M474.229 172.41c2.188 0 3.897 1.808 3.897 3.994 0 2.281-1.71 3.992-3.897 3.992-2.28 0-3.991-1.711-3.991-3.992-.001-2.186 1.71-3.994 3.991-3.994z" fill="#2b2b2b"/><path fill="#50a9aa" d="M333.625 177.45l-6.084 1.33.286 12.075 5.609 2.09 2.756-3.136.57-9.506z"/><path fill="#165e60" d="M331.059 175.168l2.566 2.282-4.658 2.567.285 10.457 4.184 2.471-1.616 1.807-5.705-3.897-1.045-10.934z"/><path fill="#ffeee9" d="M431.545 238.292l17.111-1.234-10.553 20.057-6.368-2.091z"/><path fill="#50a9aa" d="M400.932 268.523l-9.982 18.824 11.124 5.893 9.886-20.249z"/><path fill="#2b2b2b" fill-opacity=".102" d="M463.392 306.17l27.949 3.993 25.285 38.122-19.105-54.949z"/><path fill="#5ec0d9" d="M334.101 171.65l7.795 7.985 27.95-2.566-5.419-6.085zM403.5 171.556l4.943 5.134 21.009-2.092-4.658-3.708z"/><path fill="#318fa6" d="M335.242 197.983l5.419-6.178 29.85-1.996-6.084 5.798zM405.306 192.661l3.422-6.56 21.391.19-3.424 5.039z"/><path fill="#1c7678" d="M535.642 180.397l-10.458.475v-5.989z"/><path fill="#2b2b2b" fill-opacity=".102" d="M344.273 220.515l92.785-5.419 11.695 21.865-66.263 4.85-6.37-7.131-26.428-5.799z"/><path d="M348.076 213.385l5.798 6.559 6.179-.285-4.182-6.75-7.795.476zm43.54-2.567l3.708 6.75 6.084-.381-3.137-6.845-6.655.476zm-10.932.665l4.278 6.654 6.084-.284-3.233-6.655-7.129.285zm-9.412.572l3.327 6.749 6.085-.381-4.088-6.653-5.324.285zm-11.313.665l4.278 6.655 6.085-.381-3.422-6.75-6.941.476z" fill="#27788c"/><path fill="#2b2b2b" fill-opacity=".102" d="M431.164 203.973l.381 34.319 17.208-1.331z"/><path fill="#3aa0ba" d="M232.57 216.142l26.904 4.182.475 9.602-26.618 5.99-5.039-4.849.666-10.837z"/><path fill="#27788c" d="M228.101 216.237l4.469-.095 5.609 2.852.19 3.138-.856 9.125.191 2.852-4.373 1.807-5.419.095-4.469-4.088-1.046-10.837z"/><path fill="#165e60" d="M230.289 219.85l1.616 1.52 1.996 1.807-.38 5.989-1.807 2.091-.95 1.141-3.707-2.567-.667-6.938z"/><path fill="#5ec0d9" d="M232.57 216.142l5.799 5.99 21.105-1.808-4.088-4.562z"/><path fill="#318fa6" d="M233.331 235.916l4.182-4.659 22.436-1.331-4.563 4.375z"/></svg>