<svg xmlns="http://www.w3.org/2000/svg" viewBox="0 0 400 400"><path fill-rule="evenodd" clip-rule="evenodd" fill="#165f60" d="M329.458 292.171l10.177 12.012-25.149 19.948-17.416 7.035-13.808-3.55-28.242.452-1.675-43.924 39.567-53.693 33.338 53.877z"/><path opacity=".1" fill-rule="evenodd" clip-rule="evenodd" fill="#2c2b2b" d="M24.672 376.765L190.882 400l184.446-16.342-174.741-21.072z"/><path fill-rule="evenodd" clip-rule="evenodd" fill="#097172" d="M297.693 355.419l-12.518 24.589.098 4.066 37.286-.161-.026-4.184zM239.486 359.069l-37.812 14.299.171 3.732 51.699.274-.247-4.922z"/><path fill-rule="evenodd" clip-rule="evenodd" fill="#008284" d="M293.398 354.221l-3.624 4.67-4.599 21.117 37.358-.279-12.407-20.838z"/><path fill-rule="evenodd" clip-rule="evenodd" fill="#198ba4" d="M292.725 279.013l-7.576 57.917 4.904 21.604 20.484 1.048 2.798-25.874z"/><path d="M289.716 319.021l-6.454 8.595 1.888 9.315 28.186-3.222 1.151-9.577c-.001-.001-24.857-4.869-24.771-5.111z" fill-rule="evenodd" clip-rule="evenodd" fill="#279db8"/><path fill-rule="evenodd" clip-rule="evenodd" fill="#008284" d="M240.148 347.251l-8.295 6.412-30.179 19.705 51.623-.916-1.44-17.116z"/><path fill-rule="evenodd" clip-rule="evenodd" fill="#198ba4" d="M240.486 311.954l-12.008 25.593 3.375 16.116 20.004 1.673 2.787-18.135z"/><path fill-rule="evenodd" clip-rule="evenodd" fill="#279db8" d="M226.526 327.371l1.952 10.176 26.166-.346 1.332-9.131-8.393-12.656z"/><path fill-rule="evenodd" clip-rule="evenodd" fill="#474645" d="M218.383 300.245l.44 19.295 7.703 7.831 17.984.663 11.466.036 6.933-10.211 5.716-25.511 3.365-24.669-14.92-1.135 2.076-10.162-35.011 1.046z"/><path fill-rule="evenodd" clip-rule="evenodd" fill="#515253" d="M262.367 256.658l-2.106 20.181 13.916 42.86 9.251 8.84 31.058-4.408 4.625-10.781-1.976-38.6-10.65-15.876-18.344-1.412-19.531 5.299z"/><path d="M280.057 257.045l-4.462 12.546-15.334 7.248-12.266-7.526s.144-32.382-.837-34.85c-.98-2.468 26.218-.747 26.218-.747l6.681 23.329z" fill-rule="evenodd" clip-rule="evenodd" fill="#4f4d4d"/><path d="M243.255 250.355l34.756-.451s-5.782-24.813-7.712-25.199c-1.932-.386-27.044 25.65-27.044 25.65z" fill-rule="evenodd" clip-rule="evenodd" fill="#eaeceb"/><path fill-rule="evenodd" clip-rule="evenodd" fill="#2d91a7" d="M265.559 238.366l-5.018 11.762-12.546 19.185h-26.487l9.255-41.88 38.42-7.189z"/><path d="M269.183 220.244l-8.507 5.99-.043 23.895 14.962 19.463 41.54-2.509s-30.215-47.24-32.896-47.674c-2.684-.437-15.056.835-15.056.835z" fill-rule="evenodd" clip-rule="evenodd" fill="#1f7a8d"/><path fill-rule="evenodd" clip-rule="evenodd" fill="#379fb9" d="M246.321 228.314l14.355 1.808 17.982 10.594 9.204-56.73-37.4 5.953z"/><path d="M231.266 225.805l9.409 12.265 20.001-7.948s-1.046-50.383-.415-52.548c.634-2.165-31.645 6.419-31.645 6.419l2.65 41.812z" fill-rule="evenodd" clip-rule="evenodd" fill="#5dc1da"/><path fill-rule="evenodd" clip-rule="evenodd" fill="#008284" d="M235.029 226.378l5.646 11.692-22.292 62.175.067-62.869z"/><path fill-rule="evenodd" clip-rule="evenodd" fill="#187779" d="M309.677 186.215l14.422-26.907 32.002 65.921-20.313 16.004-16.328-16.623-3.65-18.043z"/><path fill-rule="evenodd" clip-rule="evenodd" fill="#165f60" d="M312.152 260.161l7.308-35.551 36.641.619-32.03 49.267z"/><path fill-rule="evenodd" clip-rule="evenodd" fill="#eecec9" d="M180.499 101.491l6.776-4.052-19.19-27.129-5.165 2.383 6.91 21.701z"/><path fill-rule="evenodd" clip-rule="evenodd" fill="#eecec9" d="M178.256 100.619l-9.663-10.11-16.991 11.201 12.232 12.099 14.428-6.082z"/><path fill-rule="evenodd" clip-rule="evenodd" fill="#feeee9" d="M181.192 112.289l1.036-3.062 5.047-11.788-18.682-6.93-1.451 4.309 6.362 11.109-9.67 7.882 11.296 5.375z"/><path fill-rule="evenodd" clip-rule="evenodd" fill="#eecec9" d="M183.202 112.121l-.974-2.894-7.913 3.277-10.481 1.305 6.027 2.868 6.824 2.295z"/><path fill-rule="evenodd" clip-rule="evenodd" fill="#f4f4f4" d="M178.635 125.852l5.981-7.907-2.144-4.878-7.422 2.594-11.216-1.852-3.849 6.483 8.836 5.596z"/><path fill-rule="evenodd" clip-rule="evenodd" fill="#eceded" d="M184.616 117.945l2.974-4.951-5.362-3.767-7.178 6.434z"/><path fill-rule="evenodd" clip-rule="evenodd" fill="#349596" d="M213.63 176.595l-16.169-33.037-12.845-25.613-15.795 7.943 13.306 43.738z"/><path fill-rule="evenodd" clip-rule="evenodd" fill="#187779" d="M227.571 165.025l-4.21-12.537-25.9-8.93-15.334 26.068 37.917 42.237z"/><path fill-rule="evenodd" clip-rule="evenodd" fill="#349596" d="M234.263 198.76l4.597 17.981 1.815 21.329-22.225-.694-.082-52.835z"/><path fill-rule="evenodd" clip-rule="evenodd" fill="#70cacc" d="M231.054 159.031l5.085 4.528 7.343 14.225-6.09 10.261 1.468 28.696-20.492-32.2 5.187-33.298z"/><path fill-rule="evenodd" clip-rule="evenodd" fill="#008284" d="M291.274 224.562l-12.616 16.154 60.977 63.467-21.205-65.088z"/><path fill-rule="evenodd" clip-rule="evenodd" fill="#dddddc" d="M255.31 210.12l-.281 6.34 5.647 13.662 5.715-14.359-5.088-7.456z"/><path fill-rule="evenodd" clip-rule="evenodd" fill="#349596" d="M284.374 200.71l-5.579 12.684-.137 27.322 39.772-1.621 5.669-79.787z"/><path fill-rule="evenodd" clip-rule="evenodd" fill="#eaeceb" d="M248.757 201.337l-1.952 10.525 8.224 4.598 5.159-4.041 6.203 3.344 8.371-5.077-.949-5.969-3.031-4.705-14.359-2.997z"/><path fill-rule="evenodd" clip-rule="evenodd" fill="#dddddc" d="M243.737 185.863l-3.625 13.87 8.083 4.625 11.421-3.786 14.197 4.145 9.094-7.632-2.577-14.916z"/><path d="M238.928 173.386l-1.992 5.736.456 8.924 5.23 4.16 15.682-4.53 20.522 5.994 13.213-11.083s-9.395-13.432-9.828-13.382c-.433.048-43.283 4.181-43.283 4.181z" fill-rule="evenodd" clip-rule="evenodd" fill="#eaeceb"/><path d="M248.267 158.959l-12.128 4.6-4.182 9.48s4.628 6.153 4.979 6.083c.349-.069 21.577-4.41 21.577-4.41s19.916 5.855 20.334 5.716c.417-.14 3.225-8.574 3.225-8.574l-1.603-14.219-32.202 1.324z" fill-rule="evenodd" clip-rule="evenodd" fill="#dddddc"/><path fill-rule="evenodd" clip-rule="evenodd" fill="#dddddc" d="M248.267 158.959l-1.68.637 32.275 10.375 3.123 1.119-1.517-13.455z"/><path fill-rule="evenodd" clip-rule="evenodd" fill="#70cacc" d="M287.297 152.895l-8.435 17.076-.067 43.423 23.979-21.864 21.325-32.222-15.407-6.344z"/><path fill-rule="evenodd" clip-rule="evenodd" fill="#349596" d="M243.248 160.492l-7.109 3.067-12.778-11.071-5.512-15.528 11.685-3.824 8.434-6.089 13.611 4.751-3.173 16.915z"/><path fill-rule="evenodd" clip-rule="evenodd" fill="#eaeceb" d="M246.245 153.452l-6.412 3.973-3.694 6.134 40.564-.558-3.205-8.852z"/><path fill-rule="evenodd" clip-rule="evenodd" fill="#eaeceb" d="M246.245 153.452l-6.412 3.973 18.147 5.833 18.723-.257-3.205-8.852z"/><path d="M246.036 146.343l-9.688 4.74 3.484 6.343 36.73-.349s-4.817-8.809-5.157-8.643c-.339.167-25.369-2.091-25.369-2.091z" fill-rule="evenodd" clip-rule="evenodd" fill="#dddddc"/><path fill-rule="evenodd" clip-rule="evenodd" fill="#eaeceb" d="M245.478 140.906l-2.752 2.197-6.377 7.98 36.033.209-4.6-9.41z"/><path fill-rule="evenodd" clip-rule="evenodd" fill="#cea19c" d="M236.526 129.529l6.2 13.574 20.107-.016 19.456 4.812 8.202-11.949-5.385-10.962z"/><path d="M288.682 123.78c1.008.274-2.163 18.718 1.47 22.356 1.685 1.689 11.944-9.747 11.944-9.747l14.403-9.075-15.029-3.917-12.788.383z" fill-rule="evenodd" clip-rule="evenodd" fill="#097172"/><path fill-rule="evenodd" clip-rule="evenodd" fill="#eecec9" d="M305.12 91.99l2.813 14.697-10.165 27.867-18.905 8.773 6.773-10.285-22.429.08 3.512-101.009 17.258-27.661 31.375 34.416z"/><path d="M324.364 73.451l23.705 19.64-26.381 7.12-13.756 6.477-6.107-7.445s-.267-13.293.249-14.066c.515-.774 22.29-11.726 22.29-11.726z" fill-rule="evenodd" clip-rule="evenodd" fill="#adabab"/><path fill-rule="evenodd" clip-rule="evenodd" fill="#cea19c" d="M314.264 89.887l-6.331 16.8-12.845-6.62 7.17-15.532z"/><path fill-rule="evenodd" clip-rule="evenodd" fill="#d8d6d5" d="M298.002 80.276l16.262 9.611 33.805 3.204-25.556-69.084-21.819-4.251-7.51 36.567 5.689 10.786z"/><path fill-rule="evenodd" clip-rule="evenodd" fill="#e2e1e1" d="M302.351 47.716l-6.722 7.904-.541 44.447 19.176-10.18zM276.985 9.416L298.929.579l23.584 23.428-26.884 31.613-13.006-38.486z"/><path fill-rule="evenodd" clip-rule="evenodd" fill="#d8d6d5" d="M302.351 47.716L283.844 9.585l-7.11 4.489 5.889 3.06 13.006 38.486z"/><path fill-rule="evenodd" clip-rule="evenodd" fill="#f2f1ef" d="M227.202 31.234l-3.35-23.111L239.479 0l59.45.579-15.085 9.006z"/><path fill-rule="evenodd" clip-rule="evenodd" fill="#e5e4e4" d="M223.852 8.123l-5.535 8.74 24.047 12.263 40.259-11.992 1.221-7.549z"/><path fill-rule="evenodd" clip-rule="evenodd" fill="#d8d6d5" d="M214.004 44.651l-6.928.21-11.118 19.794 19.462 34.502z"/><path fill-rule="evenodd" clip-rule="evenodd" fill="#feeee9" d="M205.349 40.1l2.768 73.629 21.417 19.407 33.673-.014 16.681-21.394.304-72.978 2.431-21.616-64.306-.271z"/><path fill-rule="evenodd" clip-rule="evenodd" fill="#eecec9" d="M216.023 56.688l-7.754 1.759 18.829 30.964 3.617-5.759 4.295 5.871 20.966-19.262 14.894-12.192-12.616-3.29-16.159 7.207-6.351 2.972-4.354 3.833-2.196-4.079-3.581-2.726z"/><path fill-rule="evenodd" clip-rule="evenodd" fill="#cea19c" d="M229.699 86.557l-5.293 2.854 6.039 3.839 4.565-3.727z"/><path fill-rule="evenodd" clip-rule="evenodd" fill="#c2c1c2" d="M239.663 57.393l2.432 4.593 19.59-5.538 9.185 1.621.811-2.298-9.862-4.457zM207.728 56.825l6.402-2.674 12.834 3.782-1.351 4.053-11.888-3.647-5.456.108z"/><path fill-rule="evenodd" clip-rule="evenodd" fill="#fef4f2" d="M229.194 64.712l-3.788 11.102-1 13.597 10.604.112-.783-12.833 1.517-11.732z"/><path fill-rule="evenodd" clip-rule="evenodd" fill="#cea19c" d="M218.138 101.789h42.444l-17.664 17.121-11.189-.215z"/><path fill-rule="evenodd" clip-rule="evenodd" fill="#fff" d="M222.81 104.264h31.883l-13.583 11.271-7.876-.186z"/><path fill-rule="evenodd" clip-rule="evenodd" fill="#349596" d="M316.499 127.315l-53.809 15.772 16.172 26.884 29.83-17.007z"/><path d="M218.402 73.962c2.171 0 3.941-1.771 3.941-3.942 0-2.171-1.77-3.941-3.941-3.941s-3.94 1.771-3.94 3.941c0 2.171 1.769 3.942 3.94 3.942zM253.329 74.313c2.17 0 3.94-1.771 3.94-3.941s-1.771-3.941-3.94-3.941c-2.172 0-3.941 1.771-3.941 3.941s1.769 3.941 3.941 3.941z" fill-rule="evenodd" clip-rule="evenodd" fill="#2b2c2b"/><path fill-rule="evenodd" clip-rule="evenodd" fill="#8b8a8a" d="M107.329 330.489l6.952 43.389 4.883.867 5.103-19.883 2.147-20.025z"/><path fill-rule="evenodd" clip-rule="evenodd" fill="#747575" d="M130.038 300.21l-10.874 74.535 4.218-.733 8.911-40.302z"/><path d="M87.846 307.056c.048-1.302-41.039-9.16-41.039-9.16l83.237-6.462 127.845 6.914-52.559 15.685-117.484-6.977z" fill-rule="evenodd" clip-rule="evenodd" fill="#b7b7b6"/><path fill-rule="evenodd" clip-rule="evenodd" fill="#999998" d="M179.968 300.69l17.958-3.101 22.549 1.047-18.241 4.389zM129.233 295.939l-12.401 2.094 14.534 3.776 17.195.492 34.294-8.482z"/><path fill-rule="evenodd" clip-rule="evenodd" fill="#bcbbba" d="M135.392 273.381l-12.751 6.893 30.931 12.508 23.924-6.444 5.603-.511-33.146-1.92zM207.069 274.869l-3.574 1.666-6.309 9.682 2.894-1.628z"/><path fill-rule="evenodd" clip-rule="evenodd" fill="#07758a" d="M206.969 292.322l5.709 2.842-3.018 4.636-9.286 1.194-3.619-6.213z"/><path fill-rule="evenodd" clip-rule="evenodd" fill="#198ba4" d="M193.168 291.407l-5.754 2.616 4.35 5.505 8.61 1.466-.134-4.932z"/><path fill-rule="evenodd" clip-rule="evenodd" fill="#279db8" d="M196.201 283.938l-1.042 1.846-7.745 8.239 12.826 2.039 1.659-6.089-1.558-5.403z"/><path fill-rule="evenodd" clip-rule="evenodd" fill="#198ba4" d="M200.24 296.062l12.438-.898-6.784-9.23-3.757-.715-1.796-.649z"/><path fill-rule="evenodd" clip-rule="evenodd" fill="#747575" d="M67.789 379.557l1.265 3.412 6.941-1.75 21.257-48.82-12.224-7.463-21.91 49.789zM232.965 323.139l14.777 4.905-5.482 49.269-4.111 1.74-3.105-6.481-8.36-40.736z"/><path fill-rule="evenodd" clip-rule="evenodd" fill="#8b8a8a" d="M229.322 328.184l8.827 50.869-6.88-1.746-13.766-45.312z"/><path fill-rule="evenodd" clip-rule="evenodd" fill="#747575" d="M208.561 331.782l-16.528 59.616-6.367 1.659-5.699-7.44 6.764-43.324-3.778-6.886z"/><path fill-rule="evenodd" clip-rule="evenodd" fill="#8b8a8a" d="M166.847 334.118l28.508 8.052-9.689 50.887-6.933-1.587zM70.877 325.892l-10.873 10.937 3.06 45.303 5.99.837 17.289-50.203z"/><path fill-rule="evenodd" clip-rule="evenodd" fill="#9f9e9e" d="M174.993 309.915l73.62-.815-.871 18.944-52.387 14.126z"/><path d="M83.902 305.611l-27.467 7.14 3.569 24.078 135.351 5.342.767-24.9s-18.922-4.839-16.229-6.506c2.694-1.668-95.991-5.154-95.991-5.154z" fill-rule="evenodd" clip-rule="evenodd" fill="#afafaf"/><path fill-rule="evenodd" clip-rule="evenodd" fill="#808181" d="M181.625 307.544l25.174.369 51.09-9.565 1.447 11.451-50.977 11.661z"/><path fill-rule="evenodd" clip-rule="evenodd" fill="#8b8a8a" d="M46.807 297.896l159.992 10.017 1.56 13.547-160.299-1.946z"/><path fill-rule="evenodd" clip-rule="evenodd" fill="#70cde3" d="M194.78 281.593l5.561-.217.976 2.43-.976 2.501-.131.002-5.051-.525z"/><path fill-rule="evenodd" clip-rule="evenodd" fill="#56bfda" d="M200.341 281.376l6.124.267-.571 4.291-5.553.373z"/><path fill-rule="evenodd" clip-rule="evenodd" fill="#f1f1f1" d="M218.435 244.982l-1.385 4.42-.977-2.3-11.479 15.755-1.099 13.678 17.129-17.677 14.258-26.656z"/><path fill-rule="evenodd" clip-rule="evenodd" fill="#cccccb" d="M203.495 276.535l14.91-3.22 2.177-5.578-2.171.125 3.731-3.496 4.313-9.325-3.663.122 5.495-3.787 6.595-19.174z"/><path fill-rule="evenodd" clip-rule="evenodd" fill="#e5e6e5" d="M131.366 301.809l49.903-9.882-2.803-1.599-57.472 4.039z"/><path fill-rule="evenodd" clip-rule="evenodd" fill="#cccccb" d="M122.641 280.274l56.694 4.108-1.194 8.164-57.147 1.821z"/><path fill-rule="evenodd" clip-rule="evenodd" fill="#f1f1f1" d="M137.344 289.182l-5.978 12.627 51.489-7.99 1.251-3.334z"/><path fill-rule="evenodd" clip-rule="evenodd" fill="#eaeceb" d="M138.564 284.79l-3.172-11.409 46.902 7.855 1.826 5.366z"/><path fill="#207678" d="M96.147 291.687l3.587 1.537 4.267 4.456-5.491 1.692-3.098-3.033z"/><path fill="#349496" d="M98.601 265.336l1.133 27.888h-1.888l-1.699-2.682v-24.79z"/><path fill="#349496" d="M97.279 291.052l-2.454 2.172-5.127 4.351 8.812 1.797-.664-6.148z"/><path fill="#4ea9aa" d="M99.734 257.256l-4.295 9.582-.614 26.386h3.021l-.567-27z"/><path fill="#75cfe3" d="M98.49 254.727l-2.953 5.214-.125 2.101 2.167.919-2.14 1.524v2.353l23.491.852.036-2.354-.959-1.424.991-.675.039-2.566-.927-.762.961-1.431.034-2.228-.646-1.313.705-.511v-2.054l-13.457-.103z"/><path fill="#29788c" d="M105.707 260.302l-10.17-.361.11-7.749 10.06.077z"/><path fill="#318fa6" d="M118.998 263.237l-23.586-1.195.027 2.443 23.527.851zM105.707 258.126l13.364.352-.034 2.193-13.33-.369zM105.707 255.873l13.398.377.059-1.824-13.457-.406z"/></svg>