<svg xmlns="http://www.w3.org/2000/svg" viewBox="0 0 400 400"><path fill="#8e7e73" d="M257.067 119.102l3.391 23.334-19.303 2.177 7.35-30.267zM268.389 38.633L236.126 7.38l5.049 34.882 7.33 37.457 27.99 14.992z"/><path fill="#74665b" d="M248.505 79.719l27.99 14.992-19.428 24.391-7.081-19.995z"/><path opacity=".1" fill="#2b2b2b" d="M126.441 384.115l103.588-11.616 64.772 8.936L196.834 400z"/><path fill="#5f5044" d="M152.976 34.363L128.41 53.114l14.204 39.491z"/><path fill="#8e7e73" d="M147.399 24.802L128.41 53.114l19.312-7.947z"/><path fill="#74665b" d="M151.771 13.312L181.348.341l-18.057 29.12-15.892-4.659z"/><path fill="#185e60" d="M164.465 193.168l-39.814-20.082 8.342-14.97 10.283-5.084 28.601 8.915v17.879z"/><path fill="#318fa6" d="M272.884 193.125l-1.444 34.017-22.19 34.017-21.243-21.78 15.071-46.254z"/><path fill="#185e60" d="M267.265 209.548l-28.5 35.147v8.199l10.485 8.265 43.698-32.853z"/><path fill="#1e7678" d="M249.07 205.937l4.262-28.555 20.642 4.888 18.974 46.036z"/><path fill="#185e60" d="M219.232 324.439l-33.586-.41-24.39-18.008 23.33-43.832 23.563 41.263z"/><path fill="#28788c" d="M215.886 315.8l27.374 30.186-20 9.847-13.752-26.485z"/><path fill="#1e7678" d="M243.26 345.986l-13.231 26.406-15.665-1.713 3.87-15.435 5.026-3.53z"/><path fill="#4fa9aa" d="M221.08 374.452l-3.569 2.385 13.784 2.319 15.916-28.705-3.951-4.465-14.239 24.693z"/><path fill="#94d5d5" d="M231.295 379.156l-2.274-8.477h-14.657l-3.597 8.647z"/><path fill="#318fa6" d="M175.721 283.446l9.925 40.583 27.215 15.778-2.854-58.579-20.666-19.039-10.075 11.833z"/><path fill="#28788c" d="M185.646 324.029l22.383-5.247 4.832 26.174z"/><path opacity=".2" fill="#2b2b2b" d="M189.341 262.189l-9.107 39.709-4.513-18.452 8.135-14.816z"/><path fill="#28788c" d="M189.341 262.189l14.546 23.666 15.345-11.833-11.532-19.379z"/><path fill="#5ec0d9" d="M203.887 285.855l-5.142 48.247 10.763 19.77 12.744-2.158 8.433-19.595-11.453-58.097z"/><path fill="#359496" d="M171.877 161.947l-11.881 43.99 41.233 9.261 46.548-4.116 7.058-28.079z"/><path fill="#1e7678" d="M159.996 205.937l19.606 43.217 28.098 5.489 31.065-9.948 10.305-38.758z"/><path fill="#ececeb" d="M181.18 172.731l2.833 33.206 14.289 24.614 11.705-24.614.325-3.345-2.303-25.21z"/><path fill="#c1c1c1" d="M184.013 205.937h25.994l-1.978 41.159-9.284 5.798-10.119-4.42z"/><path opacity=".2" fill="#2b2b2b" d="M170.361 167.56l12.559 25.565 27.087 12.812 25.862-14.147 38.105-9.52-43.147-4.888z"/><path fill="#5f5044" d="M248.505 79.719l-1.549-5.365-15.953 67.638 11.447.704 14.617-23.594z"/><path fill="#74665b" d="M154.216 125.222l18.612 22.841 24.718-5.799-20.666-19.313z"/><path fill="#186572" d="M184.586 136.367l-21.861 12.632 36.859 17.492 31.243-5.315 29.631-18.74z"/><path fill="#feeee9" d="M147.399 24.802l-10.531 68.004 6.671 31.305 35.782 5.576 33.35 27.532 15.69-11.576 8.1-59.601-15.858-35.558-34.643-29.267-25.598 1.213z"/><path fill="#efd0cb" d="M219.066 50.759l-19.181 82.754-10.121 4.824 4.057 12.478 18.329 16.8 16.653-14.707 9.959-36.995.735-9.401 3.407-5.986 5.601-20.807-16.578-22.971zM199.384 66.777l-29.855 21.135-22.462-30.287 6.554-4.819 7.768 1.976 4.601 4.226 9.002 1.194 3.989-3.799 9.224-.124z"/><path fill="#cea39f" d="M179.321 129.687l41.092 7.094-26.592 14.034zM160.362 22.43l29.035-1.454 33.39 32.665 6.016 23.86-12.867-13.239-13.923-1.041zM242.904 100.525l-13.231-3.413 9.089 18.8zM234.589 93.765l2.679-12.781 7.136 2.498z"/><path fill="#fff5f3" d="M174.992 60.202l-5.463 27.71-7.905-1.204 4.366-27.7z"/><path fill="#cea39f" d="M169.529 87.912l-4.658 3.638-3.247-4.842zM146.007 85.387l2.577-1.723 1.902 3.728-2.927.523z"/><path fill="#1e7678" d="M146.792 95.907l17.759-.514 24.605 6.023-17.175 10.178-13.6-2.335z"/><path fill="#4fa9aa" d="M189.156 101.416l-25.003-.575-17.361-4.934 9.159 15.89 15.984 2.61z"/><path fill="#fff" d="M153.157 97.716l4.739 10.368 14.241 2.08 9.115-8.923-17.099-.4z"/><ellipse transform="matrix(.9844 -.1761 .1761 .9844 -9.4421 33.7012)" cx="185.157" cy="70.049" rx="4.217" ry="4.307" fill="#2b2b2b"/><ellipse transform="matrix(.9844 -.1761 .1761 .9844 -9.0739 28.359)" cx="155.243" cy="65.304" rx="4.217" ry="4.307" fill="#2b2b2b"/><path fill="#5f5044" d="M174.992 60.202l-.148-3.9 13.361-.023 11.179 10.498-12.456-7.402zM165.99 59.008l.804-3.697-13.173-2.505-6.554 4.819 7.693-2.031z"/><path fill="#74665b" d="M181.348.341l54.777 7.039 12.38 72.339-16.667-12.942-14.018-11.766z"/><path fill="#5f5044" d="M224.115 59.502l.574 24.292 5.432 2.056 5.72-10.419 12.664 4.288-13.24-14.038-10.795-9.843z"/><path fill="#28788c" d="M260.458 142.436l12.508 13.596-4.588 22.379-15.046-15.22z"/><path fill="#94d5d5" d="M188.626 248.474l19.403-1.378 4.832 7.547-5.446 6.516-18.074 1.03-2.686-5.489z"/><path fill="#359496" d="M208.029 247.096l-.614 14.063 24.051 45.727 12.881-4.166 12.329-29.899-17.911-28.126zM188.626 248.474l.715 13.715-28.085 43.832 18.346-56.867z"/><path fill="#3aa0ba" d="M198.745 334.102l23.507 17.612-13.828 33.246-11.59-34.253z"/><path fill="#359496" d="M208.424 384.96l-1.027-22.743-10.563-11.51-4.235 17.662z"/><path fill="#1e7678" d="M173.209 354.277l-4.976 8.207 16.499 29.972 20.577-.717-10.694-37.106z"/><path fill="#72cbcc" d="M208.424 384.96l-11.59-34.253-8.125 3.57 3.809 2.498 12.791 34.964z"/><path fill="#94d5d5" d="M196.834 350.707l-4.316 6.068-19.309-2.498 3.146-5.35z"/><path fill="#4fa9aa" d="M207.415 261.159l36.932 41.561-13.662 29.399z"/><path opacity=".2" fill="#2b2b2b" d="M244.268 265.951l12.408 6.87-7.426-11.662h-2.842z"/><path fill="#efd0cb" d="M238.765 244.695l-11.138 7.212 16.641 14.044 4.982-4.792z"/><path fill="#186572" d="M272.966 156.032l-14.273 9.088 4.96 12.262 10.321 4.888z"/><path fill="#5ec0d9" d="M199.962 171.203l26.995 12.868 47.017-1.801-15.281-17.15z"/><path fill="#318fa6" d="M159.585 158.116l50.747 44.476 36.076-34.499z"/><path fill="#28788c" d="M159.585 158.116l49.488 28.27 37.335-18.293z"/><path fill="#3aa0ba" d="M260.458 142.436l-1.765 22.684-50.664 12.262-12.054-10.891-2.154-15.676z"/><path fill="#74cfe4" d="M193.821 150.815l-31.096-1.816-3.14 9.117 48.444 19.266z"/><path fill="#359496" d="M143.276 153.032l-20.524-34.149-9.192-2.577-7.797 7.948 18.888 48.832z"/><path fill="#feeee9" d="M105.763 124.254l-5.199-17.011 7.837-8.261 13.618.038-2.199 16.042-5.782 6.576z"/><path fill="#efd0cb" d="M100.564 107.243l21.455-8.223-10.734-19.557-12.049 5.887z"/><path fill="#efd0cb" d="M114.038 121.638l-1.139-12.719 9.12-9.899 5.022-8.396 4.944 3.127-9.233 25.132z"/><path fill="#8e7e73" d="M169.272 19.34L181.348.341l53.917 65.34-35.029-9.147-19.859-27.073z"/><path fill="#a09085" d="M160.362 22.43L181.348.341l-.971 29.12z"/></svg>