<svg xmlns="http://www.w3.org/2000/svg" viewBox="0 0 400 400"><path opacity=".1" fill="#2b2b2b" d="M38.999 384.381l153.286-8.794 148.897 11.643L128.379 400z"/><path fill="#cea39f" d="M259.863 259.037l27.526-10.625-15.229-29.559-9.9 20.113z"/><path fill="#72cbcc" d="M303.988 241.872l-16.599 6.54-9.268-12.54 4.019-13.542z"/><path fill="#94d5d5" d="M162.845 167.681l-26.593 18.358 4.9 14.884 15.12 12.587 6.573-19.531zM263.261 172.755l7.3 29.699-8.301 19.876-15.443 2.877.939-32.187z"/><path fill="#efd0cb" d="M270.561 202.454l-23.744 22.753-4.404 12.603 17.45 21.227 15.299-39.183z"/><path fill="#359496" d="M240.387 276.703l4.185 60.776-7.613 11.714-35.538-24.573-10.371-21.53-7.848 18.591-21.794 18.622-19.537-8.508 5.737-58.814 43.442 24.015z"/><path fill="#94d5d5" d="M179.38 162.267l-12.771 15.901-15.093 68.498-1.906 14.644 46.778 7.696 43.999-2.622 1.895-8.518 10.249-79.022-14.872-8.126-44.194-8.073z"/><path fill="#feeee9" d="M192.067 158.208l-12.687 4.059 14.801 21.032 42.627-14.964-2.961-6.744z"/><path fill="#feeee9" d="M164.007 20.25l-14.038 15.628-9.505 46.693 4.133 50.826 30.991 7.851 23.665 27.087 27.574-9.318L265.67 88.77l-13.636-16.529 4.132-17.769-14.463-21.074-15.702-13.636z"/><path fill="#efd0cb" d="M241.703 33.398L206.734 150.34l-22.572.309 13.74 22.417 35.945-11.475 14.933-34.185 1.01-9.918 5.644-5.304L265.67 88.77l-9.504-34.298zM209.369 75.03l-33.781 20.971-25.103-32.128 9.917-2.79 12.442 7.014 11.318 2.181 15.91-2.997z"/><path fill="#fff5f3" d="M184.162 70.278l-8.574 25.723-7.128-1.55 4.384-26.354z"/><path fill="#cea39f" d="M175.588 96.001l-4.855 4.029-2.273-5.579z"/><path fill="#9d8d56" d="M172.844 68.097V63.77l-12.958-5.785-8.471 2.066-.93 3.822 9.917-1.549zM184.162 70.278l1.241-4.029 15.806-.825 9.296 6.197-1.136 3.409-10.537-5.267z"/><ellipse transform="rotate(-81.964 195.42581439 79.20943803)" cx="195.423" cy="79.214" rx="4.184" ry="3.822" fill="#2b2b2b"/><ellipse transform="rotate(-81.964 159.14091982 71.61736945)" cx="159.138" cy="71.621" rx="4.184" ry="3.822" fill="#2b2b2b"/><path fill="#cea39f" d="M155.308 105.458l31.55 7.197-7.706 11.341-21.539-5.269z"/><path fill="#fff" d="M159.138 109.275l22.855 5.423-2.479 3.719-19.525-4.545z"/><path fill="#efd0cb" d="M196.042 107.571l4.546 9.711-5.372 10.124zM149.349 98.893l-6.923 7.806.877 10.789z"/><path fill="#cea39f" d="M255.434 112.184l-11.665-4.613 5.011 19.835zM249.602 104.472l4.085-12.81 6.818 2.789zM175.588 141.248l46.487 11.364-24.173 20.454z"/><path fill="#e1ce7f" d="M181.993 35.361l-9.969-8.376.82-10.219 16.38-7.748v8.984z"/><path fill="#fff7ae" d="M172.024 26.985l17.2-17.967-18.141 2.17-7.076 9.062zM181.993 35.361l27.376-15.599L220.253 0l-31.029 9.018z"/><path fill="#c1b170" d="M220.253 0l13.599 12.737-11.777 10.331-24.741 10.33-15.341 1.963z"/><path fill="#e1ce7f" d="M197.334 33.398l36.985-6.413 15.283-7.223-15.75-7.025z"/><path fill="#c1b170" d="M217.449 29.91l32.153-10.148 14.312 9.091-8.861 6.508-13.35-1.963z"/><path fill="#9d8d56" d="M263.914 28.853l3.403 18.85-9.124 5.013-13.778-12.047-2.712-7.271z"/><path fill="#c1b170" d="M244.415 40.669l22.902 7.034 4.655 25.777-12.707-3.253-9.663-15.651z"/><path fill="#9d8d56" d="M249.602 54.576l-13.89 39.875 8.057 5.579 8.678-16.639 13.223 5.379 6.302-15.29z"/><path fill="#185e60" d="M263.261 172.755l-12.037-4.336-14.416-.084-25.289 28.158-8.119 57.543 38.882 3.83z"/><path opacity=".2" fill="#2b2b2b" d="M251.227 168.42l-16.958 4.335-32.848 25.268-16.507 24.307 8.438 15.601z"/><path fill="#185e60" d="M179.38 162.267l4.093 37.162-5.793 49.195-26.164-1.958 11.329-78.985zM240.387 266.384l-90.777-5.074v11.671l41.674 6.766 49.103-3.044z"/><path fill="#1e7678" d="M240.387 276.703L191.05 303.09l-41.44-30.109zM221.374 365.45l13.488 8.789 12.894-5.067-3.184-31.693-43.151-12.859zM141.871 331.795l-2.72 26.833 7.11 10.315 17.555.51 19.386-47.772z"/><path opacity=".2" fill="#2b2b2b" d="M143.891 311.087l-.571 5.852 47.73-13.849-22.66-19.225z"/><path fill="#feeee9" d="M136.252 186.039l20.02 27.471-12.952-3.409-10.307 2.931-19.574-11.393z"/><path fill="#1f6a7c" d="M125.929 313.089l17.962-2.002 26.667-15.778-14.285-8.116z"/><path fill="#3aa0ba" d="M105.631 229.681l34.506-1.842 43.336-28.41L193.761 211l-12.036 31.533 2.508 16.745 15.027 10.744-8.21 33.068-34.777-10.825-30.344 20.824-17.51-31.65 1.102-16.8-3.263-10.942z"/><path fill="#1f6a7c" d="M191.05 303.09l10.371-6.037 5.115-32.414-7.743 2.084-2.58 6.346z"/><path fill="#74cfe4" d="M206.536 264.639l-12.355-10.941-11.979 7.612 14.011 11.759z"/><path fill="#28788c" d="M178.678 240.501h13.727l10.826-29.387-10.826-1.639-1.691 3.557z"/><path fill="#74cfe4" d="M190.714 213.032l12.517-1.918-9.509-11.685h-10.249z"/><path fill="#4fa9aa" d="M178.678 240.501l108.711-25.748 8.452.379 7.76-4.018 12.005-2.694 13.961 5.687-10.959 11.66-136.406 35.543z"/><path fill="#3aa0ba" d="M193.722 199.429l40.125-37.838 17.38 6.829-47.996 42.694z"/><path fill="#28788c" d="M142.55 287.193l.77 4.275-5.325 1.455-2.061-5.416zM153.548 280.426l-.258 4.454-5.325 1.455-.214-6.924zM131.026 294.056l1.987 5.209-4.609 2.134-3.264-5.266z"/><path fill="#359496" d="M324.598 224.272l2.113-10.156-5.045-7.056-6.06 1.36 3.002 17.347z"/><path fill="#1e7678" d="M138.92 270.921l-3.523-20.808-6.513 1.525 3.452 20.869z"/><path fill="#3aa0ba" d="M324.598 224.272l-4.738-27.813 50.077 2.709-2.707 14.948z"/><path fill="#1f6a7c" d="M367.906 200.183l1.992-2.72 6.797-1.004-2.031 12.246-7.434 5.411z"/><path fill="#74cfe4" d="M319.86 196.459l14.551-4.455 42.284 4.455-8.789 3.724z"/><path fill="none" stroke="#94d5d5" stroke-miterlimit="10" d="M111.043 259.449l211.346-48.145 7.075-8.737"/><path fill="none" stroke="#94d5d5" stroke-miterlimit="10" d="M113.073 263.847l209.833-49.507 16.153-10.541"/><path fill="none" stroke="#94d5d5" stroke-miterlimit="10" d="M112.396 268.584l211.025-51.225 26.717-12.799"/><path fill="none" stroke="#94d5d5" stroke-miterlimit="10" d="M114.088 272.644l209.835-52.333 37.041-15.023"/><path fill="#28788c" d="M328.699 204.348l-1.988-2.326 3.298-2.029 1.523 3.002zM336.902 203.249l1.522 1.565 3.002-1.184s-2.157-2.791-2.157-2.918c.001-.127-2.367 2.537-2.367 2.537zM347.474 203.756l2.834-2.199 1.945 3.341-3.51.888zM358.258 204.644l2.706-2.199 1.522 3.553-3.171.549zM333.223 195.087l-4.144-6.174 8.203-.423zM344.303 195.848l-3.129-7.189 8.203 1.607zM355.467 196.779l-3.129-7.19 8.203 1.608zM366.884 197.54l-4.144-6.174 9.219-.424z"/><path fill="#72cbcc" d="M106.213 253.698l6.86-.676 3.722 25.37-8.376 3.047z"/><path fill="#cea39f" d="M286.33 233.823l17.658 8.049 14.62-16.105-20.991-4.546-8.104 3.986z"/><path fill="#feeee9" d="M318.608 225.767l-15.007-14.653-16.212 3.639 2.124 10.454z"/><path opacity=".2" fill="#2b2b2b" d="M150.232 221.221l-9.08 21.651 9.497 7.804-2.18 24.337-13.551 6.429-4.522-7.701v-19.268l11.777-27.969z"/><path fill="#efd0cb" d="M113.439 201.639l9.597 36.117 9.977 1.733 8.814-7.442 1.493-21.946z"/><path fill="#72cbcc" d="M141.152 242.872l-7.25 4.06h-8.762l-2.104-9.176 18.791-5.709z"/><path fill="#efd0cb" d="M141.152 242.872l9.497 7.804-4.388 9.915-6.634-6.118z"/><path fill="#feeee9" d="M141.152 242.872l5.109 17.719-10.327 5.482h-14.9l4.106-19.141z"/><path fill="#efd0cb" d="M146.261 260.591l-.36 12.134-15.505 1.016-9.362-7.668z"/><path fill="#185e60" d="M221.374 365.45l-7.824 18.931 16.61 2.833 18.627-2.833-1.031-15.209z"/><path fill="#359496" d="M213.55 384.381h35.237v5.667H213.55z"/><path fill="#185e60" d="M139.151 358.628l-27.203 19.629 27.679 2.834 23.78-2.834.409-8.804z"/><path fill="#359496" d="M111.948 378.257h51.459v5.667h-51.459z"/><g><path fill="#318fa6" d="M84.536 176.41l-4.557-6.377 29.091-23.215 9.087.75 2.785 5.641z"/><path fill="#1f6a7c" d="M133.46 150.506l-3.467-11.397-9.659-6.971-6.612 10.967 1.56 5.296 5.66 4.808z"/><path fill="#5ec0d9" d="M133.46 150.506l-13.126-18.368 15.545-4.866 7.221 10.104z"/><path fill="#1e7678" d="M95.31 183.469l3.733 183.165-8.079 5.987-8.079-5.987 5.077-175.63z"/><path fill="#359496" d="M66.447 211.783l-2.564-4.495 44.322-40.704 5.434-.63 4.99 6.233z"/><path fill="#72cbcc" d="M118.629 172.187l2.313-18.978-7.22-10.104-4.652 3.713-.865 19.766z"/><path fill="#3aa0ba" d="M129.515 378.257l-44.26.351-32.778-.351 30.408-11.623h16.158z"/><path fill="#28788c" d="M129.515 383.924l-77.038-.068v-5.599h77.038z"/><path fill="#5ec0d9" d="M109.207 383.856l-17.355.937-19.059-.937 10.092-17.222h16.158z"/><path fill="#28788c" d="M72.793 383.856h36.414v5.678H72.793z"/></g></svg>