<svg xmlns="http://www.w3.org/2000/svg" viewBox="-97.115 -51.767 400 400"><path fill="#1c7678" d="M89.449 170.958l-3.953 11.857 15.94-2.765-2.107-13.043z"/><path fill="#165e60" d="M77.328 138.419l-8.036 3.688 16.204 40.708 12.12-11.988z"/><path fill="#2b2b2b" fill-opacity=".102" d="M152.155 317.452l-84.839 15.281-50.852-10.01-50.719 13.436 50.719 12.119 51.248-11.592 84.443 11.725 89.715-12.779z"/><path fill="#318fa6" d="M137.401 307.571l-.264 9.75-14.228 1.186-10.67-8.166-5.93-20.028 17.92 1.846zM155.45 304.675l4.875 10.144 8.43 7.113 14.095-5.271 2.241-26.479-24.502 1.055z"/><path fill="#27788c" d="M152.024 297.427l3.426 7.248 29.641-14.493-22.133.924z"/><path fill="#50a9aa" d="M96.167 199.284l2.898 19.891 28.85 72.062 9.75 9.354 65.474-14.36-7.773-20.947-52.432-67.715-33.461-1.053z"/><path fill="#efd0cb" d="M165.198-37.979l17.127 6.455 6.453 19.628-8.562 11.067 6.851 47.294-15.017 35.569-17.127 12.252-9.748-8.431 2.107-7.509L153.87-9.26z"/><path fill="#a58884" d="M118.034 78.346l18.182-3.03 23.976 2.898-5.928 11.199-1.054 10.012-4.084 8.168-7.246 5.795-24.239-19.76z"/><path fill="#ffeee9" d="M160.456-43.117l-16.467-3.821-27.666-1.712-23.976 11.065L79.568-8.734l3.03 70.744 30.301 16.336 29.902-3.82 11.594-18.049 3.426-62.18 14.623-33.725z"/><path fill="#a58884" d="M104.862 44.884l-6.061-5.796h12.516z"/><path fill="#efd0cb" d="M104.071 8.129l-.395 11.463-3.425 8.692-7.115-17.125L85.101.619l6.587-1.053 10.407 3.82zM114.346 2.991l-3.82 5.138-3.293 13.174 3.951 11.988 14.229-19.76L142.276 2.07 130.946.488z"/><path d="M123.698 10.757c2.014 0 3.609 1.582 3.565 3.533-.047 1.951-1.719 3.533-3.731 3.533-2.014 0-3.609-1.582-3.564-3.533.046-1.952 1.716-3.533 3.73-3.533z" fill="#2b2b2b"/><path fill="#27788c" d="M144.911 107.855l9.353-18.442 17.786-7.379 1.316 12.384-7.641 6.587zM133.45 104.825l-5.27-15.281-10.277-4.743-1.977 7.772 6.061 11.199z"/><path fill="#3aa0ba" d="M140.3 147.641l-8.827 44.528-20.683-58.361 5.136-41.235 22.793 16.072z"/><path fill="#50a9aa" d="M173.366 94.418l23.185 7.114-3.029 10.54-31.486 42.288-14.36.922-3.162-2.371 17.786-49.008z"/><path fill="#369496" d="M194.708 162.925l-45.713-10.541v.13l-20.42 40.182 17.785 2.238 37.412 1.319 5.006-2.504z"/><path fill="#72cbcc" d="M115.926 92.573l-13.304 4.217-3.821 8.431-2.238 33.726 2.238 8.431 11.989 7.771 14.492-3.426z"/><path fill="#369496" d="M131.604 191.905l1.846-18.971-8.432-22.527-26.217-3.029-2.238 43.341 18.049 3.03z"/><path fill="#27788c" d="M96.563 190.719l-.396 8.565 28.455 1.447 8.037-1.185 6.982 1.185 23.45 3.69 26.611-2.635-.924-8.037-49.006-1.844-7.51 1.844-7.507-2.108z"/><path fill="#72cbcc" d="M196.551 101.532l15.018 47.426-28.455 25.293-13.568 5.799-23.055-11.331 14.228-18.181z"/><path fill="#165e60" d="M169.546 180.05l2.24 8.826-7.115 12.383-13.438-22.922 6.719-3.953z"/><path fill="#369496" d="M211.569 148.958l-42.023 31.092-4.875 21.209z"/><path fill="#27788c" d="M125.018 150.407l9.881.791 6.059-1.318 8.037 2.634-17.391 39.391z"/><path fill="#3aa0ba" d="M109.737 174.384l59.809 5.666-8.827-29.512-11.724 1.846-40.842 5.005-1.844 8.432z"/><path fill="#318fa6" d="M138.719 108.645l-3.82 42.553 13.699 1.186 24.768-57.966z"/><path fill="#73cfe5" d="M129.233 116.682l8.828-1.054 8.561 1.054.263-3.294-8.56-1.316-8.828 1.316zM128.575 126.035l8.562-.79 8.696.79.263-3.424-8.564-1.186-8.693 1.186zM127.784 135.521l8.564-1.055 8.694 1.055.394-3.426-8.824-1.185-8.564 1.185zM126.862 145.927l8.563-1.316 8.828 1.316.261-3.556-8.693-1.448-8.564 1.448z"/><path fill="#318fa6" d="M136.348 232.348l3.293-31.617-15.019-2.371-.789 37.152 13.963 13.303 1.582 16.469-.264 8.432 5.4 1.185 7.114-1.185.265-11.594-14.097-13.307z"/><path fill="#5ec0d9" d="M124.755 191.641v2.504l12.382.397v3.818h-12.515v2.371h15.019l.131-8.826z"/><path fill="#27788c" d="M123.833 235.512l12.515-3.164 15.545 29.774-12.515 3.162z"/><path fill="#5ec0d9" d="M139.173 273.706h12.412l-.067 2.826h-12.414z"/><path fill="#27788c" d="M182.85 316.661l4.35 20.683-17.918 2.241-13.436-2.241 4.479-22.525z"/><path fill="#3aa0ba" d="M155.714 343.272l31.22.131.266-6.059h-31.354zM89.712 335.895h46.9l.131-5.927-22-3.954-24.899 3.954z"/><path fill="#27788c" d="M137.137 317.321l-.394 12.647H89.844l22.395-19.627z"/><path fill="#72cbcc" d="M86.55 283.727l51.115 16.864-41.498-101.307z"/><path fill="#369496" d="M139.641 200.731l63.498 85.5-13.437-84.445z"/><path fill="#27788c" d="M137.401 308.364l.264-7.773-31.356-10.278z"/><path d="M90.634 70.705l1.448 7.641-1.448-7.641z" fill="#cececd"/><path fill="#e2c8c5" d="M92.082 78.346h51.116l14.623-10.671-3.426-11.198-20.945 7.115.394-12.779-22.527-11.725-6.455 5.796-6.061-5.796-9.749 13.965.66 10.407-7.114-1.45z"/><path fill="#2b2b2b" fill-opacity=".2" d="M123.833 64.25l6.586 14.096h-4.215l-3.426-5.269z"/><path fill="#efd0cb" d="M130.419 20.249l9.881.791.132-2.503-9.617.923zM90.238 20.249h-7.376l1.185-1.712 6.323.923zM96.035-8.734l11.593 5.401 15.545-6.323-15.282 3.821z"/><path fill="#a3efe9" d="M49.531 117.868l7.114 9.222-7.904 22.528-34.253 9.617z"/><path fill="#6bc1bf" d="M14.884 65.567l12.12-6.982 10.276-1.581 6.455 22.792 12.91 21.868-28.851-22.528-12.119-6.981z"/><path fill="#a3efe9" d="M26.213 68.993l30.432 32.671-17.653 40.049-11.198-62.577z"/><path fill="#46aaaa" d="M37.28 57.004l-14.359-18.18.79 15.151-9.353 12.251z"/><path fill="#a3efe9" d="M19.627 70.837L9.483 59.639l-1.976-7.378-4.612 13.702-2.897 11.461.79 10.407 13.174 15.414 9.089-13.569z"/><path fill="#46aaaa" d="M-5.93 152.78l5.664-33.332 14.228-16.203 9.089-13.569L7.375 75.184l12.252-4.347 8.167 8.299 21.737 38.732-9.485 21.341-5.402 13.571-20.156 6.455zM2.895 65.963l-16.598 32.539-6.587 2.108-6.192 10.671 10.144 10.012 11.33-12.516L.788 87.831l6.587-12.647z"/><path fill="#a3efe9" d="M-13.703 98.502l-.396-11.988 4.742-18.575L.788 87.831z"/><path fill="#6bc1bf" d="M-16.338 121.293l-1.186 10.012L-5.93 152.78l19.892-49.535L.788 87.831z"/><path fill="#a3efe9" d="M-23.848 129.461l3.69 15.15 14.228 8.169-10.408-31.487z"/><path fill="#5ec0d9" d="M-19.5 181.102H1.051l15.809 3.823 12.91-3.823h22.922v-7.115H-19.5zM16.596 142.107h-46.371l14.49 31.88H48.478l14.491-31.88z"/><path fill="#5ec0d9" d="M20.153 184.001l-8.826-.922-10.539 2.765-8.3 149.92 24.108 6.194 10.671-21.608z"/><path fill="#73cfe5" d="M64.023 134.862h-94.852l-5.27 7.245H69.292z"/><path fill="#3aa0ba" d="M1.051 144.611l15.545 29.376h-31.881z"/><path fill="#318fa6" d="M16.596 173.987l15.942-29.376 14.095 7.64 1.845 21.736z"/><path fill="#3aa0ba" d="M32.538 144.611l13.173-.79 16.072.79-13.305 29.376z"/><path fill="#6bc1bf" d="M-13.703 98.502l-9.749-11.988-3.03 24.767zM24.105 134.862h17.918l7.508-16.994-15.281-11.329-6.456-27.403-4.743 10.54 4.874 29.378z"/><path fill="#3aa0ba" d="M15.41 185.844l1.186 156.114 24.241-5.403-10.804-150.711-6.586-4.742z"/><path fill="#ffeee9" d="M180.874 6.812l16.599 4.743-6.982 26.743-16.465-4.743z"/><path fill="#cea39f" d="M181.27 21.566l10.803-8.299-7.904-1.976z"/><path fill="none" d="M201.69-5.572l-29.51 115.931"/><path fill="#ffeee9" d="M108.153 157.389l-9.352-10.011.396 16.861 2.108 7.643 8.432 2.502z"/><path fill="#ababab" d="M176.395-43.117l-28.322-8.827-14.887 3.688 2.239 3.031 26.744 4.216 14.095 2.108z"/><path fill="#8f8f8f" d="M176.132-27.308l14.755 6.719 2.502-7.379-16.994-15.149-14.226 2.108z"/><path fill="#858686" d="M179.952-14.398l7.773-.923 11.067 6.193.263 14.096-9.353 1.58-17.916-9.881z"/><path fill="#ababab" d="M92.347-37.585l19.628-5.664 3.03-4.347-2.899-1.977z"/><path fill="#c6a5a1" d="M167.042 31.711l-23.844 46.635 16.994-.132 13.834-44.659-3.031-3.82z"/><path fill="#5f5044" d="M173.63 4.572l-6.588 27.139 6.984 1.844 6.848-26.743 16.599 4.743 1.582-6.587-27.269-8.301z"/><path fill="#ababab" d="M176.132-27.308l17.257-.66 5.403 18.84-18.84-5.27z"/><path fill="#cea39f" d="M174.026 33.555l13.041 12.91 3.424-8.167z"/><path fill="#efd0cb" d="M98.801 147.378l2.504 24.504-3.689-1.055-3.689-12.119z"/><path fill="#a58884" d="M125.413 54.765H98.011v-3.03h27.665z"/><path fill="#ffeee9" d="M102.886 96.79l15.017-11.989-9.352-28.192-16.469 21.737z"/><path fill="#efd0cb" d="M108.551 56.609l15.282 7.641 2.371 14.096-8.301 6.455z"/><path fill="#318fa6" d="M30.033 185.844l-.263-4.742H1.051l-.263 4.742z"/><path fill="#cececd" d="M112.106-49.573l-.262 10.276 11.198-.131 12.383-5.797 12.648-6.719z"/><path d="M93.229 10.01c2.015 0 3.609 1.582 3.563 3.533-.046 1.951-1.716 3.533-3.731 3.533-2.013 0-3.608-1.582-3.562-3.533.047-1.951 1.717-3.533 3.73-3.533z" fill="#2b2b2b"/><path fill="#2b2b2b" fill-opacity=".102" d="M108.417 94.946l-9.616 52.432 3.821-50.588z"/><path d="M191.151 181.102l-19.629 11.988 22-23.977-2.371 11.989zm-51.51 19.629l12.252 61.391-15.545-29.773 3.293-31.618z" fill="#2b2b2b" fill-opacity=".149"/><path fill="#fff5f3" d="M104.071 8.129h6.455l.791 30.959H98.801z"/><path fill="#5f5044" d="M114.346 2.991l27.93-.921-11.461-5.007zM102.095 3.386L91.688-3.069 85.101.619z"/><path fill="#3aa0ba" d="M102.886 96.79l-5.27 74.037-28.324-28.72 22.79-63.761z"/><path fill="#318fa6" d="M61.783 144.611l1.186-2.504h-92.744l1.185 2.504h46.372z"/></svg>