<svg xmlns="http://www.w3.org/2000/svg" viewBox="0 0 400 400"><path fill-rule="evenodd" clip-rule="evenodd" fill="#CEA39F" d="M118.267 150.386l6.719-1.751 18.032-15.457-11.692-21.833-21.454 11.065-1.758 7.419z"/><path opacity=".1" fill-rule="evenodd" clip-rule="evenodd" fill="#2C2B2B" d="M103.41 380.667L205.316 400l98.354-18.011-105.071-6.402z"/><path fill-rule="evenodd" clip-rule="evenodd" fill="#2B2B2B" d="M221.592 382.347l-6.037 2.354.187 5.849 38.558-.607.049-5.002zM154.042 374.386l-16.675 2.438.179 5.165 51.722-.104.096-5.115z"/><path fill-rule="evenodd" clip-rule="evenodd" fill="#41403F" d="M272.728 298.728l13.442-4.573.095-15.198-16.936 2.067z"/><path fill-rule="evenodd" clip-rule="evenodd" fill="#CEA39F" d="M271.701 261.08l-5.324-2.243-2.068 18.242 17.897-7.794z"/><path fill-rule="evenodd" clip-rule="evenodd" fill="#4B4948" d="M258.851 275.48l9.64 50.927 5.585-1.691 1.641-20.211 2.181-1.685-1.252-9.772.874-19.002z"/><path fill-rule="evenodd" clip-rule="evenodd" fill="#41403F" d="M270.599 264.823l-11.748 10.657 7.582 3.32s8.016-3.533 11.087-4.753c.125-.626.267-.978.43-.948.928.174-3.283-5.574-5.213-8.155l-2.138-.121z"/><path fill-rule="evenodd" clip-rule="evenodd" fill="#5B5959" d="M269.971 295.255l6.675-2.207-3.969-19.614-6.244 5.366z"/><path fill-rule="evenodd" clip-rule="evenodd" fill="#EECEC9" d="M286.951 269.561l13.804 5.077-5.934 7.24-8.589 2.419-4.919-3.014-1.396-12.132z"/><path fill-rule="evenodd" clip-rule="evenodd" fill="#FEEFE9" d="M266.377 258.837l10.269 34.211 4.916-1.817-.249-9.948 19.442-6.645-11.092-18.126-17.462-2.541z"/><path fill-rule="evenodd" clip-rule="evenodd" fill="#EAECEB" d="M272.517 234.025l-8.208 15.929 2.068 8.883 23.286-2.325-1.12-11.908z"/><path fill-rule="evenodd" clip-rule="evenodd" fill="#4C3A56" d="M269.569 199.755l16.658 11.39 2.316 33.459-24.234 5.35-5.23-22.455z"/><path fill-rule="evenodd" clip-rule="evenodd" fill="#594365" d="M245.813 170.686l8.308-13.164 32.106 53.623-27.148 16.354-9.424-7.384z"/><path fill-rule="evenodd" clip-rule="evenodd" fill="#484749" d="M228.638 352.569l-5.347 10.979-7.736 21.153 38.794.24-7.361-21.393zM174.735 351.176l-10.16 4.807-27.208 20.841 51.997-.054.403-13.222z"/><path fill-rule="evenodd" clip-rule="evenodd" fill="#734D62" d="M165.478 309.292l9.01 50.068 15.279 4.188 12.193-66.096s-33.376-28.576-32.219-29.26c.198-.119-4.263 41.1-4.263 41.1z"/><path fill-rule="evenodd" clip-rule="evenodd" fill="#96637C" d="M168.742 264.918l-10.981 4.83 6.814 86.235 9.912 3.377.956-79.178 12.467-5.762-.468 4.689zM221.552 251.809l-19.592 45.643 21.331 66.096h9.415l3.989-59.355z"/><path fill-rule="evenodd" clip-rule="evenodd" fill="#734D62" d="M206.055 269.751c-.328 2.293 15.928 18.293 15.928 18.293l10.724 75.504h14.282l1.163-86.387-42.097-7.41z"/><path fill-rule="evenodd" clip-rule="evenodd" fill="#543042" d="M201.96 297.452l20.022-9.409 24.963-20.308-67.263-36.252 6.007 21.68-3.136-4.146-.003-.001-15.506-1.104-8.431 10.234-.852 11.602z"/><path fill-rule="evenodd" clip-rule="evenodd" fill="#734D62" d="M129.862 115.17l3.197-9.957 16.285-7.919 3.294 4.419 2.788 15.834-8.707 3.032z"/><path fill-rule="evenodd" clip-rule="evenodd" fill="#337359" d="M148.359 104.201l9.586-5.627 3.615 16.114-3.383 8.277-2.172.952z"/><path fill-rule="evenodd" clip-rule="evenodd" fill="#D1A1B8" d="M150.494 101.125l-8.999 4.477 7.543 11.127 5.238-3.009 8.017-11.548z"/><path fill-rule="evenodd" clip-rule="evenodd" fill="#5E977F" d="M158.679 102.613l-8.874 5.318 4.755 12.261 5.715-2.359 2.048-5.011z"/><path fill-rule="evenodd" clip-rule="evenodd" fill="#96637C" d="M134.016 108.606l10.925 9.114 1.778 2.859-18.212 17.166-13.876-15.623z"/><path fill-rule="evenodd" clip-rule="evenodd" fill="#594365" d="M166.831 161.553l-5.092 38.758-30.072.584-19.2-25.875 49.023-19.494zM238.552 211.152l11.103 8.963-1.504 57.046-26.169 10.883-27.444-21.592s-10.514-52.892-9.563-53.44c.95-.548 53.577-1.86 53.577-1.86z"/><path fill-rule="evenodd" clip-rule="evenodd" fill="#7A5D88" d="M173.692 206.196l-13.62 5.631-2.311 57.921 17.62 11.044 19.157-14.341-.42-41.644z"/><path fill-rule="evenodd" clip-rule="evenodd" fill="#7A5D88" d="M198.054 198.342l-3.936 26.465 55.537-4.692 4.466-62.593-13.238-6.47z"/><path fill-rule="evenodd" clip-rule="evenodd" fill="#9075A0" d="M178.975 174.875l-2.051-24.003-15.434 4.654-1.418 56.301 34.046 12.98z"/><path fill-rule="evenodd" clip-rule="evenodd" fill="#2F2519" d="M248.543 112.527l6.011 14.437-18.157 15.666-10.62-32.477z"/><path fill-rule="evenodd" clip-rule="evenodd" fill="#2F2519" d="M248.795 86.804l5.524 13.536.235 26.624-12.122-10.329-.512-31.656z"/><path fill-rule="evenodd" clip-rule="evenodd" fill="#DDDDDC" d="M181.397 160.67l1.966 30.387 14.283 16.292 22.259-18.89 5.778-26.402-25.926-8.618z"/><path fill-rule="evenodd" clip-rule="evenodd" fill="#484749" d="M200.573 171.589l-5 4.85-9.068 24.409 7.613 23.959 15.068-23.911-5.041-23.755z"/><path fill-rule="evenodd" clip-rule="evenodd" fill="#BAA3CC" d="M181.819 149.67l-4.895 1.202-6.004 35.55 23.198 38.385-8.248-54.34z"/><path fill-rule="evenodd" clip-rule="evenodd" fill="#AC94BE" d="M170.92 186.422l23.198 38.385-4.79-31.556z"/><path fill-rule="evenodd" clip-rule="evenodd" fill="#BAA3CC" d="M220.79 165.6l-4.606 9.075-22.066 50.132 41.331-31.458 5.434-42.297z"/><path fill-rule="evenodd" clip-rule="evenodd" fill="#AC94BE" d="M207.709 193.93l-13.591 30.877 41.331-31.458z"/><path fill-rule="evenodd" clip-rule="evenodd" fill="#2B2B2B" d="M214.563 165.337l-10.418 11.804-8.572-.702-5.85-13.876 12.323-6.964z"/><path fill-rule="evenodd" clip-rule="evenodd" fill="#CEA39F" d="M181.86 136.133l2.747 10.905 5.446 12.471 9.871.93 25.521-1.463 1.644-25.389z"/><path fill-rule="evenodd" clip-rule="evenodd" fill="#EECEC9" d="M242.373 96.306l1.491 11.951-7.467 34.373-20.131 17.461 7.998-19.182-23.657-.201.884-90.522 26.246-9.084 10.845 38.048z"/><path fill-rule="evenodd" clip-rule="evenodd" fill="#CEA19C" d="M241.722 95.284l3.438 5.393-1.296 7.58-14.217-11.288z"/><path fill-rule="evenodd" clip-rule="evenodd" fill="#2F2519" d="M230.158 75.353l-4.105 2.443-.688 9.5 10.801 3.315-.288-11.47z"/><path fill-rule="evenodd" clip-rule="evenodd" fill="#FEEEE9" d="M234.75 74.222l-2.802 4.578-2.301 18.169 15.513 3.708 2.67-18.71z"/><path fill-rule="evenodd" clip-rule="evenodd" fill="#CEA19C" d="M237.419 83.815l-1.148 7.779 6.948-3.252z"/><path fill-rule="evenodd" clip-rule="evenodd" fill="#45382D" d="M234.953 62.754l-7.728 2.505-1.172 12.537 28.266 22.544.564-20.97z"/><path fill-rule="evenodd" clip-rule="evenodd" fill="#5A4A3E" d="M245.063 29.201l9.974 5.606 5.161 23.938-26.188-7.627-9.104-20.511z"/><path fill-rule="evenodd" clip-rule="evenodd" fill="#2F2519" d="M232.401 42.756l9.488 4.13 18.309 11.859-5.315 20.625-27.658-14.111-9.714-15.796z"/><path fill-rule="evenodd" clip-rule="evenodd" fill="#45382D" d="M225.248 26.348l16.641 20.538-24.378 2.577-17.848-15.34 5.28-10.959z"/><path fill-rule="evenodd" clip-rule="evenodd" fill="#2F2519" d="M223.492 13.399l12.273 4.138 19.272 17.27-49.422-4.062z"/><path fill-rule="evenodd" clip-rule="evenodd" fill="#35291B" d="M201.887 7.097l26.549-2.037 7.329 12.477-30.15 13.208-23.653-14.415z"/><path fill-rule="evenodd" clip-rule="evenodd" fill="#5A4A3E" d="M163.632 30.558l-12.721-17.084L186.674 0l41.762 5.06-34.94 12.33z"/><path fill-rule="evenodd" clip-rule="evenodd" fill="#45382D" d="M142.147 36.872l-8.364 2.593 10.741 27.955 15.264-15.086z"/><path fill-rule="evenodd" clip-rule="evenodd" fill="#5A4A3E" d="M162.019 23.015l-11.108-9.541-17.128 25.991 23.59 12.575 6.259-21.482z"/><path fill-rule="evenodd" clip-rule="evenodd" fill="#45382D" d="M202.928 37.739l2.687-6.994-12.119-13.355-42.585-3.916 3.575 20.862z"/><path fill-rule="evenodd" clip-rule="evenodd" fill="#FEEEE9" d="M144.524 67.42l4.514 49.309 17.716 23.967 33.853.012L215.74 115.5l1.771-66.037-11.896-18.718-51.129 3.591z"/><path fill-rule="evenodd" clip-rule="evenodd" fill="#ECEDED" d="M199.924 160.439l36.473-17.809 4.486 8.422-24.699 23.623z"/><path fill-rule="evenodd" clip-rule="evenodd" fill="#EAECEB" d="M183.76 143.674l16.164 16.765-14.054 10.028-8.946-19.595z"/><path fill-rule="evenodd" clip-rule="evenodd" fill="#7A5D88" d="M126.284 159.201l5.383 41.694-35.337-7.47 7.302-42.178 12.596-5.893z"/><path fill-rule="evenodd" clip-rule="evenodd" fill="#EAECEB" d="M124.986 148.635l1.298 10.566-22.652-7.954 4.482-21.418z"/><path fill-rule="evenodd" clip-rule="evenodd" fill="#FEEEE9" d="M129.845 131.443l15.096-13.723-10.917-13.223-24.152 17.913z"/><path fill-rule="evenodd" clip-rule="evenodd" fill="#9075A0" d="M189.076 237.583l5.033-4.74 5.329 5.055-5.207 4.287zM189.201 254.624l5.237-4.652 5.05 4.86-5.029 5.017z"/><path fill-rule="evenodd" clip-rule="evenodd" fill="#41403F" d="M270.962 307.531l3.114 17.185 4.709-1.3-3.068-18.911z"/><path fill="#EECEC9" d="M160.455 68.229l-10.304 2.473 11.712 9.54 10.183 19.61 7.334-3.916 6.334 3.964 14.216-19.526 11.08-11.026-11.091-2.582-11.465 3.277-6.378 4.084-1.529 5.642-3.559-5.66-4.838-4.096z"/><path fill="#CEA19C" d="M178.889 97.379l-6.843 2.473 6.813 6.152 6.855-6.104z"/><path fill="#2B2B2B" d="M202.522 77.933c-.007 2.063-1.678 3.729-3.731 3.722-2.053-.007-3.712-1.685-3.705-3.748.007-2.063 1.678-3.729 3.731-3.722 2.053.007 3.712 1.685 3.705 3.748zM165.343 78.863c-.007 2.063-1.678 3.729-3.731 3.722-2.053-.007-3.712-1.685-3.705-3.748.007-2.063 1.677-3.729 3.731-3.722 2.053.007 3.712 1.685 3.705 3.748z"/><path fill="#FFF5F3" d="M176.988 74.109l-1.074 18.04-3.868 7.703 13.668.048-3.32-7.242-.318-18.531z"/><path fill="#CEA39F" d="M166.451 117.365l28.013.098-1.814 1.922-24.512-.085z"/><path fill="#EECEC9" d="M180.383 126.151l-8.373 3.943 16.649.058z"/><path fill="#45382D" d="M187.891 67.864l13.451-2.393 9.668 3.877-10.797-.225-11.759.92zM173.164 68.071l-13.425-1.688-9.588 4.319 9.576-.759 12.423.07z"/></svg>