<svg xmlns="http://www.w3.org/2000/svg" viewBox="-152 -152 400 400"><path fill="#7D7C7D" d="M-107.088-46.656l-5.537-11.072-5.418 3.415 6.007 153.146 11.073 7.184 4.358-5.536z"/><path fill="#969697" d="M9.537-39.47l-122.162-18.258 11.662 163.745 134.649-7.541 3.889-11.422-7.069-3.304-108.379 1.299-6.597-116.862L-10.607-21.8l15.078-3.886 5.654-4.477z"/><path fill="#935D78" d="M129.343 78.571l16.02 7.067 11.308-3.3.828-24.028-30.863-34.99-3.304 34.754z"/><path fill="#2B2B2B" fill-opacity=".149" d="M158.084 228.886l-77.747-12.014-74.451 9.303 70.562 15.667z"/><path fill="#8F75A0" d="M134.879 230.299l-4.712 2.24-22.267-.117-4.472-2.123 5.065-17.316v-2.475l19.556.235.941 2.24zM67.612 207.325l.236 18.501-6.243 1.766-29.451-.118-6.36-1.648 22.265-18.501 13.311-3.177z"/><path fill="#7D7C7D" d="M28.503 126.397l23.207-6.007 15.078 3.535 20.737 27.332-8.248 22.969-20.148 4.948-20.848-12.25z"/><path fill="#969697" d="M132.172 134.645l-35.344-12.019-27.568 7.07 21.914 46.531 21.207 3.182 18.139-5.536z"/><path fill="#B2849A" d="M145.363 85.638l28.863 13.195 3.535-40.759-7.777-8.602-9.895 2.238z"/><path fill="#E5E6E5" d="M177.761 58.074l-17.672-6.364 4.359-9.425 8.836-.824 5.301 7.304z"/><path fill="#7D7C7D" d="M13.542-24.507L-91.656-38.409l5.536 128.406 122.045-3.535 3.298-2.237L62.311 8.359z"/><g fill="#FFF"><path d="M-59.614-5.777h-16.729l.118 21.675 15.081 2.945.588-5.536-9.895-1.179.235-4.241 9.66 2.12.118-5.065-9.66-.235.353-6.478 9.895 1.177zM-53.37 2.115l-.47 3.535 10.013.824.471-4.359zM-53.84 9.654l9.187-.117-1.059 4.359-8.483-.706zM-37.702-.006l-2.71 15.551 5.654.942 2.121-11.308h3.418l-1.533 11.897 5.654.826 1.179-12.842h2.121l-.12 13.43 6.598.942-1.767-19.32zM-12.964 1.762L4.942.702l.473 6.243H-4.954l1.768 10.013 7.657-1.883 1.532 4.948-15.078 2.118zM6.709-5.542v3.416l4.124-.118-1.65 5.42 2.474 2.356 5.536-2.829-.706-2.001-3.888.942 2.356-3.77-.824-3.887z"/></g><path fill="#935D78" d="M47.823 21.67l2.946 24.621-11.899 24.15-14.961-.235-6.363-16.378z"/><path fill="#B2849A" d="M7.298 45.938l-8.01 2.474-3.651 10.482 19.908 28.16 17.317-12.253 6.008-4.36z"/><path fill="#E5E6E5" d="M7.298 45.938L-4.363 58.894l-5.656-7.89.59-8.246 9.541-3.182z"/><path fill="#FEEEE9" d="M-9.075 22.141L.112 39.576l-10.131 11.428-8.952-8.836-5.656-8.481 6.951-6.716z"/><path fill="#F0CFC9" d="M-39.823 27.324l11.074-4.004 19.674-1.179-11.663 11.31-10.838-1.885zM-34.758 36.984l6.362-3.062 7.658-.471 10.719 17.553-24.148-10.249z"/><path fill="#FFF" d="M-47.598 23.909l26.86 9.542-14.02 3.533-15.196-5.418z"/><path fill="#B2849A" d="M130.991 112.26l-23.091 1.534-56.19-6.714-18.024-8.604 5.184-28.035 11.663-11.312 71.743-12.014 5.886 7.659z"/><path fill="#444648" d="M28.503 126.397l51.599 26.386 52.07-18.138-62.79-14.961z"/><path fill="#935D78" d="M130.991 112.26L33.686 98.476l-5.183 27.921 103.669 8.248z"/><path fill="#D09EB7" d="M126.636 23.32l1.526 31.454L38.87 70.441l8.953-48.771 7.422-3.18 18.496 10.955 42.764-10.366z"/><path fill="#CEA19C" d="M101.305-.359l-3.3 19.32-24.264 10.484-12.136-8.834-3.888-8.248-4.944-5.536L86.108-.006z"/><path fill="#B3B2B3" d="M179.291-19.679L111.789 9.065l3.3-22.382 8.836-9.66 26.974-4.948z"/><path fill="#F0CFC9" d="M111.789 9.065l-4.944 9.661-19.32 4.712 6.12-20.97-20.732 6.48 6.242-18.732 1.771-47.944 9.894-31.337 6.008-5.536L107.9-44.418l4.595 5.066 7.541 25.8z"/><path fill="#D6D7D6" d="M103.428-39.47l9.067.118 22.384-10.013-10.484-27.095-28.509-17.2z"/><path fill="#E5E6E5" d="M134.879-49.365l28.27 11.781 16.142 17.905-55.366-3.298 3.766-15.902z"/><path fill="#D6D7D6" d="M173.519-50.542l5.772 30.863-44.412-29.686 19.909-4.948z"/><path fill="#B3B2B3" d="M164.684-97.31l8.835 46.768-38.64 1.177L95.886-93.66l33.457-8.127z"/><path fill="#D6D7D6" d="M128.872-141.957l35.812 44.647-68.798 3.65 6.478-22.97z"/><path fill="#E5E6E5" d="M67.142-145.846l61.73 3.889L95.886-93.66l-38.169 7.895v-34.163z"/><path fill="#D6D7D6" d="M38.281-133.359l28.861-12.487-9.425 60.081-12.956-5.303-7.424-15.667z"/><path fill="#E5E6E5" d="M13.778-122.285l24.503-11.074 7.069 42.528-14.02 3.416-6.124-3.888-9.308-9.896z"/><path fill="#D6D7D6" d="M16.723-58.553L4.471-25.686l14.137 5.536 9.307-3.298z"/><path fill="#B3B2B3" d="M.937-81.408l7.775 4.948 8.011 17.907L9.537-39.47z"/><path fill="#D6D7D6" d="M13.778-122.285L.937-81.408l15.786 22.855 6.833-18.966 1.65-13.784z"/><path fill="#B3B2B3" d="M27.915-23.448L4.471-25.686 20.14-9.193l8.952 5.536z"/><path fill="#FEEEE9" d="M86.579-10.372l-.706-46.18L95.886-93.66l-70.68 2.357-8.483 32.75 3.417 49.36L33.686 7.063l39.227 1.885z"/><path fill="#F0CFC9" d="M63.846-59.378l15.549 2.591-16.613 13.666-6.36 16.02-9.66-11.19 3.418-13.078 6.948-5.183zM40.873-51.369l-4.713-5.183-6.124-1.647-7.66 1.647 9.425 14.255 3.3 15.669 8.834-9.66z"/><path fill="#CEA19C" d="M123.925-22.977l-3.3-4.359-9.425 4.948 8.836 8.836z"/><path fill="#FEEEE9" d="M134.879-49.365l-10.954 26.388-12.725.589 2.236-28.154z"/><path fill="#CEA19C" d="M127.691-42.768l-9.302 9.896 1.295-9.66z"/><path fill="#969697" d="M79.395-56.787l-4.359-5.301-17.555-1.059-.353 6.595zM35.925-63.147l.235 6.595H22.376l1.886-4.947z"/><path fill="#FEF4F2" d="M56.422-27.101l-6.125-11.543-.117-12.725h-6.951l-1.062 12.607-6.007 12.134 9.425 2.827z"/><path fill="#D6D7D6" d="M79.042-13.552l-22.62-13.549.706 11.311 7.777 8.834zM36.16-26.628l1.768 9.776-5.538 9.896-6.007-8.364z"/><path fill="#E5E6E5" d="M64.905-6.956H32.39l3.77-19.672 8.954 5.301 11.308-5.774z"/><path fill="#CEA19C" d="M45.232-18.971l11.19-8.13-10.837 3.3-9.425-2.827z"/><path fill="#E5E6E5" d="M111.789 9.065l4.716 10.014-26.273 29.686-16.491-19.32zM55.245 18.49l4.712 27.448 13.784-16.493-16.024-17.082z"/><path fill="#070908" fill-opacity=".149" d="M36.631 82.338l-14.843.235-6.243 4.481-2.946-4.245-98.955 1.769.236 5.419 122.045-3.535z"/><path fill="#070908" fill-opacity=".149" d="M-34.167 40.755l24.148 10.131 5.774 8.008 19.908 28.16L38.87 70.441l-5.183 28.034L-1.3 100.48l-4.123-12.72-8.834-4.481-7.894-27.093-27.801-24.503 15.314 5.301.471 3.771zm112.268-6.362l-4.359-5.066L59.957 45.82l18.144-11.545v.118z"/><path fill="#785C87" d="M25.794 225.826H67.97v4.237H25.794zM103.428 230.299h31.451v4.83h-31.451z"/><path fill="#666566" d="M38.281 166.924l40.996 7.302-11.665 33.099H48.059z"/><path fill="#7D7C7D" d="M91.174 176.227l39.346-2.354-1.53 39.11h-20.497z"/><path fill="#2B2B2B" d="M61.958-49.01c2.018 0 3.653 1.634 3.653 3.651s-1.636 3.651-3.653 3.651c-2.017 0-3.648-1.634-3.648-3.651s1.631-3.651 3.648-3.651zM30.506-49.01c2.017 0 3.651 1.634 3.651 3.651s-1.634 3.651-3.651 3.651-3.653-1.634-3.653-3.651 1.636-3.651 3.653-3.651z"/><path fill="#F0CFC9" d="M28.033-76.107l18.729 3.065 39.346-6.363-39.11 3.062zM29.092-80.7l18.849 1.413 38.992-5.301zM73.384-44.18l11.194.118-1.177 2.944zM72.8-40.647l9.067 2.945-2.236 3.18zM21.317-39.823l4.242-.942-3.889 2.592zM19.55-43.709l4.241-.944-3.888 2.592z"/><path fill="#FEEEE9" d="M176.349 13.19l-11.901 29.095 10.248-1.648 6.247-9.895.471-15.667z"/><path fill="#EECEC9" d="M193.075 39.576l-14.49 9.189-14.137-6.48 16.495-11.543 15.903 3.415z"/><path fill="#FEEEE9" d="M214.043 30.859l-17.197 3.298-18.261 14.608 23.797-3.18z"/><path fill="none" d="M-151.5-151.5h399v399h-399z"/></svg>