<svg xmlns="http://www.w3.org/2000/svg" viewBox="0 0 400 400"><path opacity=".1" fill-rule="evenodd" clip-rule="evenodd" fill="#2b2b2b" d="M76.557 387.565l137.947-15.605 97.156 18.841L204.592 400z"/><path fill-rule="evenodd" clip-rule="evenodd" fill="#594165" d="M73.712 157.216l.674-10.529-14.498-6.48 4.926 10.132 3.747 7.39z"/><path fill-rule="evenodd" clip-rule="evenodd" fill="#785d88" d="M73.712 157.216l-13.824-17.009 2.27 11.708 6.403 5.814z"/><path fill-rule="evenodd" clip-rule="evenodd" fill="#785d88" d="M76.671 157.729l2.447-13.266v-3.212l-2.725-2.748-4.512 18.396zM228.938 335.625l2.016 6.534 13.286 6.483 16.566-11.413 2.445-16.311-19.393-7.178z"/><path fill-rule="evenodd" clip-rule="evenodd" fill="#594165" d="M226.466 327.328l2.472 8.297 34.313-14.707-19.393-7.178z"/><path fill-rule="evenodd" clip-rule="evenodd" fill="#785d88" d="M199.176 320.263l-8.171 16.438-15.334 1.529-11.961-8.143 22.993-34.484z"/><path fill-rule="evenodd" clip-rule="evenodd" fill="#594165" d="M204.591 309.606l-5.415 10.657-35.466 9.824.99-11.644 22.003-22.84z"/><path fill-rule="evenodd" clip-rule="evenodd" fill="#bcbcbc" d="M230.954 342.159l6.56 21.666 4.37 12.343 14.58-10.009 4.342-28.93zM191.005 336.701l-27.295-6.614-2.251 28.972 8.062 3.831 10.787-2.651z"/><path fill-rule="evenodd" clip-rule="evenodd" fill="#444" d="M256.464 366.159l4.66 7.749-2.656 18.191h-2.713l-5.657-16.978zM180.308 360.239l3.149 5.965-3.83 18.69h-10.203l-.838-5.333-.836-9.822z"/><path fill-rule="evenodd" clip-rule="evenodd" fill="#565656" d="M256.464 366.159l-.709 25.94h-31.82l13.579-28.274 5.413 10.083zM180.308 360.239l-11.722 19.322-11.28 5.333h-31.261l36.239-24.655z"/><path fill-rule="evenodd" clip-rule="evenodd" fill="#96637c" d="M244.207 379.129l-7.297-.276-.668-18.724 15.414-.409-1.558 10.083zM154.928 371.701l14.147-11.462 1.62-7.323-8.509-2.217-13.209 18.38z"/><path fill-rule="evenodd" clip-rule="evenodd" fill="#cea39f" d="M76.393 138.503l17.031-1.873-13.751-10.771z"/><path fill-rule="evenodd" clip-rule="evenodd" fill="#efd0cb" d="M71.881 119.343l-.383 17.884 4.895 1.276 5.451-12.388z"/><path fill-rule="evenodd" clip-rule="evenodd" fill="#a688ba" d="M208.238 228.251l-29.729 81.355h26.082l10.722-29.992z"/><path fill-rule="evenodd" clip-rule="evenodd" fill="#9075a0" d="M208.238 228.251l-3.647 81.355h26.048z"/><path fill-rule="evenodd" clip-rule="evenodd" fill="#543042" d="M160.609 162.007l-27.162 8-14.052 8.857-5.365 21.969 51.476-4.025 3.19-16.304z"/><path fill-rule="evenodd" clip-rule="evenodd" fill="#734d60" d="M281.051 170.182l16.282 4.408-25.822 47.87 11.107 52.807 11.716 40.515-67.868 11.546-18.228-99.077-25.286 81.061-15.432 1.022-7.062-140.152h22.498z"/><path fill-rule="evenodd" clip-rule="evenodd" fill="#96637c" d="M244.414 172.628l-12.242 47.802-3.312 71.504-2.394 35.394-12.522 1.738-5.706-100.815-16.233 28.766-12.709-86.394 3.66-.441z"/><path fill-rule="evenodd" clip-rule="evenodd" fill="#7a7a7a" d="M149.472 144.537l-.972 21.036 31.053-10.836 16.071-13.187-27.777-7.212z"/><path fill-rule="evenodd" clip-rule="evenodd" fill="#bcbcbc" d="M151.138 66.375l-9.845 36.404 16.34 7.294 8.162-7.294V64.002l-7.136-2.372z"/><path fill-rule="evenodd" clip-rule="evenodd" fill="#8c8c8c" d="M141.293 102.779l8.179 41.758 17.145-5.096-.822-20.576-3.448-15.455z"/><path fill-rule="evenodd" clip-rule="evenodd" fill="#bcbcbc" d="M188.432 38.111l-5.054-9.222 1.169-15.881L219.89 0l40.618 13.715-48.267 13.364z"/><path fill-rule="evenodd" clip-rule="evenodd" fill="#ffeee9" d="M164.765 34.815l1.03 29.187-3.448 39.408 4.27 36.031 29.007 2.109 19.518 23.207 31.648-23.736 7.388-79.653-16.353-19.516-49.393-3.741z"/><path fill-rule="evenodd" clip-rule="evenodd" fill="#efd0cb" d="M237.825 41.852l-11.078 101.983-31.123-2.285 20.177 20.044 10.156 1.469 24-20.986 6.332-82.82zM216.9 68.577l-21.276 34.202-21.979-37.72h9.733l6.444 1.316 8.951.727 9.064-.727z"/><path fill-rule="evenodd" clip-rule="evenodd" fill="#fff5f3" d="M198.773 67.103l-3.149 35.676-11.077-1.058 5.275-35.346z"/><path fill-rule="evenodd" clip-rule="evenodd" fill="#cea39f" d="M195.624 102.779l-6.462 5.667-4.615-6.725zM195.624 141.55l31.123 2.285 11.078 6.504-22.683 20.753zM175.679 112.71l13.616 2.814 18.53-.702v3.693l-18.139 1.053-14.633-3.429z"/><path d="M212.241 78.181c0 2.221-1.712 4.022-3.824 4.022s-3.824-1.801-3.824-4.022c0-2.222 1.712-4.022 3.824-4.022s3.824 1.8 3.824 4.022z" fill-rule="evenodd" clip-rule="evenodd" fill="#2b2b2b"/><ellipse cx="179.553" cy="75.675" rx="3.824" ry="4.022" fill-rule="evenodd" clip-rule="evenodd" fill="#2b2b2b"/><path fill-rule="evenodd" clip-rule="evenodd" fill="#8c8c8c" d="M251.804 29.233l17.275 3.121 17.276 12.396-1.576 27.174-20.755-21.283zM188.432 38.111l-20.585 2.435h-9.188l-9.187-7.136 15.729-11.958 19.346-8.444zM188.432 38.111l28.873 10.068 17.091-8.44 17.408-10.506-24.002-.344-18.944-7.437z"/><path fill-rule="evenodd" clip-rule="evenodd" fill="#9e9e9e" d="M208.858 21.452l51.65-7.737 25.847 31.035-34.551-15.517-27.265 3.262z"/><path fill-rule="evenodd" clip-rule="evenodd" fill="#7a7a7a" d="M217.305 48.179l7.234-15.684 27.265-3.262-13.979 12.619z"/><path fill-rule="evenodd" clip-rule="evenodd" fill="#8c8c8c" d="M216.9 68.577v-3.518l-17.188-2.637-.939 4.681zM173.645 65.059l.747-3.429h15.034l.396 4.745z"/><path fill-rule="evenodd" clip-rule="evenodd" fill="#9e9e9e" d="M251.804 29.233l32.975 42.691-19.658-3.347-15.429-8.002-11.867-18.723zM149.472 33.41l1.666 32.965 14.657-2.373 2.052-23.456z"/><path fill-rule="evenodd" clip-rule="evenodd" fill="#bcbcbc" d="M249.692 60.575l-7.823 24.002 27.21 9.671h22.375l-6.675-22.324zM184.547 13.008l-25.584 2.819-9.491 17.583z"/><path fill-rule="evenodd" clip-rule="evenodd" fill="#9e9e9e" d="M241.869 84.577l3.358 23.869 17.131 17.369 23.477-4.103 5.619-27.464z"/><path fill-rule="evenodd" clip-rule="evenodd" fill="#7a7a7a" d="M245.227 108.446l40.608 13.266 4.051 20.101-39.929.264z"/><path fill-rule="evenodd" clip-rule="evenodd" fill="#fcfcfc" d="M189.914 182.837l9.262 20.571 7.878 18.848 17.538-27.234 8.92-18.62 5.192-8.128 11.253-26.197-34.815 25.847-19.518-26.374-5.802 20.922z"/><path fill-rule="evenodd" clip-rule="evenodd" fill="#e0e0e0" d="M215.142 167.924l4.976-15.035 29.839-10.812-7.44 19.93zM215.142 167.924l-22.141-9.779 2.623-16.595zM215.313 168.137l9.279 26.885-16.354 33.229-4.003-11.668-5.059-13.175z"/><path fill-rule="evenodd" clip-rule="evenodd" fill="#543042" d="M208.238 228.251l-65.134 83.101 37.835 13.448z"/><path fill-rule="evenodd" clip-rule="evenodd" fill="#734d60" d="M133.447 170.007l-21.46-22.477-14.557-1.021 16.6 54.324z"/><path fill-rule="evenodd" clip-rule="evenodd" fill="#9e9e9e" d="M148.5 165.573l28.642.767 15.859-8.195 2.623-16.595z"/><path fill-rule="evenodd" clip-rule="evenodd" fill="#bcbcbc" d="M193.001 158.145l-3.087 24.692-41.414-17.264z"/><path fill-rule="evenodd" clip-rule="evenodd" fill="#9e9e9e" d="M249.957 142.077l-6.981 14.571 24.741 23.539 29.616-5.597-7.447-32.777z"/><path fill-rule="evenodd" clip-rule="evenodd" fill="#bcbcbc" d="M297.333 174.59l-54.357-17.942-9.464 19.754 30.928 9.869z"/><path fill-rule="evenodd" clip-rule="evenodd" fill="#9075a0" d="M204.235 216.583l24.625 75.351 53.758-16.667-21.412-81.312z"/><path fill-rule="evenodd" clip-rule="evenodd" fill="#785d88" d="M221.592 269.693l12.745 3.424 12.442-5.015 32.859-2.851-34.609-19.304z"/><path fill-rule="evenodd" clip-rule="evenodd" fill="#fcfcfc" d="M204.235 216.583l5.792-12.09 54.413-18.222-1.53 10.047-3.662 2.291z"/><path fill-rule="evenodd" clip-rule="evenodd" fill="#bcbcbc" d="M264.44 186.271l23.199 77.845-5.021 11.151-23.37-76.658z"/><path opacity=".2" fill-rule="evenodd" clip-rule="evenodd" fill="#2b2b2b" d="M281.698 244.18l2.566 8.609-4.626 12.462-5.551-18.101z"/><path fill="none" stroke="#fff" stroke-miterlimit="10" d="M217.1 226.354l35.081-11.41M226.637 230.036l19.158-6.13"/><path fill-rule="evenodd" clip-rule="evenodd" fill="#96637c" d="M133.447 170.007L98.704 185.51l-4.341-41.047 6.394-6.187 11.23-2.667z"/><path fill-rule="evenodd" clip-rule="evenodd" fill="#734d60" d="M106.678 138.276l9.907 15.044 5.986 21.27-11.266-17.374zM100.757 141.251l5.921 18.199 1.392 21.877-7.313-20.768z"/><path fill-rule="evenodd" clip-rule="evenodd" fill="#efd0cb" d="M90.274 133.564l-13.881 4.939 2.725 5.96h15.245z"/><path fill-rule="evenodd" clip-rule="evenodd" fill="#ffeee9" d="M111.987 135.609l-26.568-15.753-13.538-.513 16.348 15.243 6.134 9.877z"/><path fill-rule="evenodd" clip-rule="evenodd" fill="#aa4943" d="M94.917 171.625l-12.576 19.553-22.453-1.689 11.993-9.475z"/><path fill-rule="evenodd" clip-rule="evenodd" fill="#c16053" d="M94.917 171.625l-18.524-3.488-26.326.285 9.821 21.067z"/><path fill-rule="evenodd" clip-rule="evenodd" fill="#aa4943" d="M94.917 171.625l-44.85-3.203 14.407-8.253 24.012-4.804z"/><path fill-rule="evenodd" clip-rule="evenodd" fill="#d06b5a" d="M88.486 155.365l-38.419 13.057 12.091-16.507 12.779 4.493z"/><path fill-rule="evenodd" clip-rule="evenodd" fill="#efd0cb" d="M189.822 141.128l3.179-5.008-3.179-3.894-2.881 4.451zM195.624 102.779l8.355 1.333 3.858 8.261zM184.547 101.721l-6.593 1.058-2.225 7.294z"/><path fill-rule="evenodd" clip-rule="evenodd" fill="#543042" d="M297.333 174.59l2.28 62.508-26.428-3.268-5.524-36.532z"/><path fill-rule="evenodd" clip-rule="evenodd" fill="#734d60" d="M299.613 237.098l-30.71 12.139-5.236-9.521 3.491-15.161 4.255-2.444z"/><path fill-rule="evenodd" clip-rule="evenodd" fill="#96637c" d="M267.158 224.555l-30.263 19.031-3.329 10.581 8.318 6.376 37.754 4.708z"/><path fill-rule="evenodd" clip-rule="evenodd" fill="#734d60" d="M238.325 248.449l13.124-8.46 19.688-3.574-16.369 9.194zM240.54 255.975l15.99-4.746 19.636 2.245-19.564 3.63z"/><path fill-rule="evenodd" clip-rule="evenodd" fill="#efd0cb" d="M236.895 243.586l-13.502-3.418-10.615 2.557.957 3.222 10.172 5.282z"/><path fill-rule="evenodd" clip-rule="evenodd" fill="#ffeee9" d="M236.895 243.586l-23.16 2.361.275 14.022 7.582 9.724 20.292-9.15z"/><path fill-rule="evenodd" clip-rule="evenodd" fill="#efd0cb" d="M221.592 269.693l-6.114-3.094-5.98-16.073 4.237-4.579z"/></svg>