<svg xmlns="http://www.w3.org/2000/svg" viewBox="-152 -152 400 400"><path fill="#46382D" d="M15.497-31.855L5.129-21.012 7.932 5.41l46.273 11.488 10.954-48.753z"/><path fill="none" d="M0 0h96v96H0z"/><path fill="#5E5044" d="M121.134-15.043l-10.933 44.321-11.206-7.056-10.647-34.743z"/><path fill="#2B2B2B" fill-opacity=".102" d="M110.201 232.651l-47.353-9.247-77.612 11.487L69.014 247.5z"/><path fill="#594067" d="M35.951 218.919l-18.774 14.01v3.085h30.541l7.286-15.972-10.367-4.763z"/><path fill="#412F4C" d="M17.177 232.929v3.085h30.541l1.402-3.085z"/><path fill="#785E8B" d="M56.123 210.794l8.129 8.405 5.604 19.334v3.366h-26.9v-3.366l6.725-18.215z"/><path fill="#614D71" d="M69.856 238.533v3.366h-26.9v-3.366z"/><path fill="#543042" d="M36.091 124l2.409 12.5L28 182l7.951 36.919 7.846.842 5.884.557 15.971-38.667-15.971-38.663z"/><path fill="#734D60" d="M18.58 142.988l.278 1.119.562-.561L28 182l22.847 4.455 14.805-4.804-15.971-38.663z"/><path fill="#543042" d="M20.539 142.988l-.84 1.119 29.982 8.967v-10.086z"/><path fill="#734D60" d="M48.885 138.693v47.379l.796 34.246 14.571-1.119L71 190.5l-7.508-45.95z"/><path fill="#93637D" d="M48.75 142.833l.135 43.239L71 190.5l10.904-43.869z"/><path fill="#734D60" d="M48.75 145.435l.031 7.37 33.123-6.174-.843-.281-26.9-2.804z"/><path fill="#D0A3BA" d="M42.116 223.404l-1.681 2.239-3.083-.839 1.961 2.243-2.24 2.519 3.362-.838 2.24 2.239-.281-2.801 2.243-.838-2.243-1.4z"/><path fill="#B3889D" d="M16.337 83.306L-8.88 143.269l111.795 4.201-15.968-64.164z"/><path fill="#494848" d="M16.337 83.306V74.62h69.767l.843 8.686z"/><path fill="#ECECEB" d="M85.543-2.714l-30.539-7.567L18.58 11.855l-2.243 22.136V74.62h69.767z"/><path fill="#474747" d="M51.361 33.71l-.277-17.933-3.085-2.8-3.362 2.8-6.164 24.938-2.803 11.21 6.165 9.805 9.808-7.005z"/><path fill="#2A2B2A" d="M35.67 4.01l8.967 11.767h6.447L58.366 4.01l-3.642-6.724H35.67z"/><path fill="#CECECD" d="M48.28-2.714l14.853 19.612 22.41-19.612-24.657-7.567z"/><path fill="#756555" d="M17.739-151.5l-31.103 15.972-16.531 31.662 13.45-1.4 26.339-28.582 15.969-5.043z"/><path fill="#785D88" d="M98.152-1.033l27.743 57.158-17.094 3.924-11.487-3.924-7.847-17.372-2.239-15.129z"/><path fill="#594165" d="M83.866-6.638l-8.128 4.203-12.605 19.333-1.686 66.408-3.081 41.467 30.824 3.644 7.563-6.443 23.818-1.686-14.29-19.61-12.609-19.334-4.205-42.591 8.685-39.786z"/><path fill="#9075A0" d="M97.314 56.125L89.467 74.62l4.485 15.691 12.329 10.367 19.614-44.553z"/><path fill="#CECECD" d="M25.584 7.091l.279 11.488L48.28-2.714 33.989-5.798z"/><path fill="#9075A0" d="M7.932 5.41l-20.455 41.189 8.407 17.374L8.21 66.496l8.127-19.897z"/><path fill="#785D88" d="M-12.523 46.599l5.042 43.993L8.21 66.496 2.889 56.125z"/><path fill="#594165" d="M7.932 5.41L2.889 56.125l-18.494 61.363 15.97 3.362 2.802 4.486 18.494.276 4.202-107.033L25.584.648z"/><path fill="#785D88" d="M7.932 5.41l17.931 13.169 8.126-24.377zM89.467 74.62l-7.563 1.962 18.21 29.696 6.167-5.6z"/><path fill="#EFD0CB" d="M25.304-68.561l10.928 50.996-2.243 11.767 14.57 3.084 19.612-5.324 11.491-21.296-13.729-64.444-24.098-8.688z"/><path fill="#5E5044" d="M-17.286-65.758l-12.609-38.108 14.01-11.208 8.966 21.015zM17.739-151.5l54.356 1.121 4.205 21.856-35.587 3.923-18.212 1.4-12.607-10.648z"/><path fill="#FFEEE9" d="M-15.885-115.074l-2.241 68.088 15.97 25.498 42.869 2.802 15.134-19.895 4.481-57.721L40.713-124.6l-14.009-7.566-16.81-1.682-14.853 5.884z"/><path fill="#EFD0CB" d="M-13.923-90.416l12.607 11.488 8.967 21.015 5.605 1.681 5.043-1.681 14.569-19.896 19.331-10.366-14.567-5.043-13.45 5.043-7.005 5.883-2.521 3.924-3.922-3.924-3.364-6.443-13.169-5.605z"/><path fill="#46382D" d="M-13.923-90.416l7.283-1.962 14.01 3.643v-4.764l-14.289-1.96zM24.182-93.218v5.043l14.572-2.522 13.445 2.522-12.605-6.446z"/><path fill="#FFF5F3" d="M10.734-82.292L7.651-57.913h10.648l-1.122-24.379z"/><path fill="#CEA39F" d="M7.651-57.913l5.605 3.922 5.043-3.922z"/><path fill="#96637C" d="M.927-43.903l13.729-2.522 15.412 3.641-16.534 3.364z"/><path fill="#B3889D" d="M.927-43.903l13.169 7.564 15.972-6.445-15.972 1.121z"/><path fill="#4D4137" d="M72.095-150.379l38.668 43.43-20.453 8.688-29.982 1.959L40.713-124.6z"/><path fill="#46382D" d="M60.328-96.302l23.257 38.108 20.453-2.241 6.725-46.514z"/><path fill="#5E5044" d="M60.328-96.302l12.891 64.447 20.453 12.329 27.462 4.483-17.096-45.392z"/><path fill="#46382D" d="M73.219-31.855L63.133 16.898l58.001-31.941z"/><path fill="#96637C" d="M21.661 125.612l-25.498 5.325L.365 120.85zM99.553 133.183l-41.187-8.41 38.387-2.799z"/><path fill="#CEA39F" d="M25.584-19.808l8.405 14.01L48.28-2.714l9.101-14.411-16.668-1.561z"/><path fill="#2B2B2B" d="M-1.316-82.852c2.322 0 4.205 1.883 4.205 4.203 0 2.322-1.882 4.205-4.205 4.205-2.32 0-4.203-1.882-4.203-4.205 0-2.32 1.883-4.203 4.203-4.203zM30.067-82.011c2.322 0 4.205 1.882 4.205 4.202 0 2.322-1.883 4.203-4.205 4.203-2.32 0-4.203-1.88-4.203-4.203 0-2.319 1.883-4.202 4.203-4.202z"/><path fill="#45372C" d="M40.713-124.6l-17.09-5.045-13.729-4.203 15.969-5.043z"/><path fill="#4D4137" d="M9.894-133.848l-25.779 18.774 8.966-15.411z"/></svg>