<svg xmlns="http://www.w3.org/2000/svg" viewBox="0 0 400 400"><path opacity=".1" fill-rule="evenodd" clip-rule="evenodd" fill="#2c2b2b" d="M123.248 388.258L197.404 400l79.647-11.742-73.608-13.575z"/><path fill-rule="evenodd" clip-rule="evenodd" fill="#50325e" d="M248.916 264.304l-19.061-10.207 19.761-1.387 10.349 5.343zM157.091 266.829l-9.776-4.267 13.401-9.039 2.035 7.473z"/><path fill-rule="evenodd" clip-rule="evenodd" fill="#594365" d="M209.975 237.94l9.163 9.139 11.172-17.511.999-12.761-3.26-7.713-7.407 9.426z"/><path fill-rule="evenodd" clip-rule="evenodd" fill="#6e5f51" d="M246.287 201.53l7.187-10.499 1.589-14.422-13.724-8.149-1.742 29.498zM158.897 173.423l-10.681-5.919-6.28-21.781 2.644-13.218 15.334 14.277 6.345 15.861z"/><path fill-rule="evenodd" clip-rule="evenodd" fill="#554537" d="M169.08 167.545l-8.45-3.992-12.513 3.607 9.4 7.264z"/><path fill-rule="evenodd" clip-rule="evenodd" fill="#fef0ec" d="M244.139 247.78l-5.925 4.067v23.319l10.073 4.47 7.606-3.638-6.255-22.856z"/><path fill-rule="evenodd" clip-rule="evenodd" fill="#f2d0c7" d="M237.982 294.073l.232-18.907 17.679.832-5.967 14.723z"/><path fill-rule="evenodd" clip-rule="evenodd" fill="#fef0ec" d="M154.873 277.767l2.7-22.854 4.409-5.091 5.996 4.04 4.078 23.345-7.704 5.592z"/><path fill-rule="evenodd" clip-rule="evenodd" fill="#f2d0c7" d="M172.056 272.42l-17.183.56 5.924 15.091 8.018 3.474z"/><path fill-rule="evenodd" clip-rule="evenodd" fill="#554537" d="M124.592 140.663l23.624 26.841-2.698-25.827-.275-6.085-10.179-2.558z"/><path fill-rule="evenodd" clip-rule="evenodd" fill="#47392c" d="M129.116 71.665l2.039 50.489 5.017 15.998 25.331.001-25.091-81.159z"/><path fill-rule="evenodd" clip-rule="evenodd" fill="#6e5f51" d="M124.592 140.663l6.563-18.509 30.348 15.999-1.146 9.788-14.839-6.264z"/><path d="M234.966 83.359l11.897 61.749s-4.125 23.162-5.523 23.352c-1.396.188-21.101-.691-21.101-.691l10.196-27.758-20.137 2.84 24.668-59.492z" fill-rule="evenodd" clip-rule="evenodd" fill="#47392c"/><path fill-rule="evenodd" clip-rule="evenodd" fill="#7a5f88" d="M147.315 262.562l20.663-8.7 4.638-27.614-17.004-6.722z"/><path fill-rule="evenodd" clip-rule="evenodd" fill="#565757" d="M170.871 362.75l-22.813 21.104 18.741 1.376 12.712-10.934 7.147-1.779-3.276-14.8z"/><path fill-rule="evenodd" clip-rule="evenodd" fill="#96647c" d="M269.231 376.161l-85.146-15.267 40.707-14.354z"/><path fill-rule="evenodd" clip-rule="evenodd" fill="#565757" d="M210.435 387.509l4.842-26.492 5.356-3.822 6.917 3.822 5.55 26.492-9.969 1.615z"/><path fill-rule="evenodd" clip-rule="evenodd" fill="#424242" d="M214.516 355.589l.761 5.428h12.273l-.188-6.2-1.417-4.43z"/><path fill-rule="evenodd" clip-rule="evenodd" fill="#b08098" d="M151.908 348.215l18.963 14.535 4.739-25.152-5.831-30.254z"/><path fill-rule="evenodd" clip-rule="evenodd" fill="#cf9ab6" d="M269.231 376.161l-41.661-84.672-6.334 29.232 6.126 34.096z"/><path fill-rule="evenodd" clip-rule="evenodd" fill="#b3879d" d="M170.871 362.75l56.491-7.933 10.852-79.651-38.901 22.75z"/><path fill-rule="evenodd" clip-rule="evenodd" fill="#d19eb7" d="M168.815 286.601l2.056 76.149 67.344-87.584-19.062-10.047-40.081 8.282z"/><path fill-rule="evenodd" clip-rule="evenodd" fill="#96647c" d="M168.815 291.545l69.399-16.379-19.076-29.065-33.454-38.514-18.369 7.824.663 38.451z"/><path fill-rule="evenodd" clip-rule="evenodd" fill="#cf9ab6" d="M182.413 155.557l-19.838 18.844-7.602 29.846 12.342 8.669 5.987-3.91 8.234-28.679z"/><path fill-rule="evenodd" clip-rule="evenodd" fill="#d19eb7" d="M211.81 156.947l-24.941 24.564-14.211 27.916 24.284 8.822 29.283-2.799-2.026-26.829z"/><path fill-rule="evenodd" clip-rule="evenodd" fill="#594365" d="M141.461 228.021l23.101 11.821 2.753-1.902-12.342-33.693 7.875-15.294-13.309 19.286z"/><path fill-rule="evenodd" clip-rule="evenodd" fill="#7a5f88" d="M160.63 163.553l24.698-12.257-2.921 4.437-40.946 72.288z"/><path fill-rule="evenodd" clip-rule="evenodd" fill="#594365" d="M241.339 168.24l-15.598-5.862-.359 15.017 5.479 58.026 5.187 11.086 11.83-1.497 2.603-15.265z"/><path fill-rule="evenodd" clip-rule="evenodd" fill="#7a5f88" d="M259.965 258.053l-30.11-3.956.455-25.131 15.977-27.436z"/><path fill-rule="evenodd" clip-rule="evenodd" fill="#7a5f88" d="M211.81 156.947l18.5 72.019-4.569-66.588-4.505-6.345z"/><path fill-rule="evenodd" clip-rule="evenodd" fill="#594365" d="M145.518 141.677l15.112 21.876 22.883-8.422-.334-5.259-6.609-14.541-15.067 2.822zM217.547 138.769l20.612-.041-12.418 23.651-15.597-6.081-.53-8.541z"/><path fill-rule="evenodd" clip-rule="evenodd" fill="#fef0ec" d="M182.413 155.557l12.159-4.264 17.238 5.654-37.85 50.64 1.452-10.708z"/><path fill-rule="evenodd" clip-rule="evenodd" fill="#cc9e98" d="M170.361 137.282l42.112-6.396-.333 11.607-9.159 18.923-17.543 7.702-5.938-11.133z"/><path fill-rule="evenodd" clip-rule="evenodd" fill="#f2d0c7" d="M213.551 74.796l-8.952 30.658-13.473 33.321 17.71-.016-5.855 22.657 8.829-4.469 19.223-46.37-4.03-29.951z"/><path fill-rule="evenodd" clip-rule="evenodd" fill="#cc9e98" d="M223.37 98.791l7.663 11.786 3.949-10.95-5.556-3.864z"/><path fill-rule="evenodd" clip-rule="evenodd" fill="#fef0ec" d="M227.003 80.626l-3.633 18.165 11.612.836 2.818-6.677z"/><path fill-rule="evenodd" clip-rule="evenodd" fill="#cc9e98" d="M230.818 84.982l-1.694 9.269 5.683-3.135z"/><path fill-rule="evenodd" clip-rule="evenodd" fill="#554537" d="M267.375 125.514l-13.901 65.517-12.135-22.571 13.741-40.706z"/><path fill-rule="evenodd" clip-rule="evenodd" fill="#6e5f51" d="M234.263 90.457l10.334.268 6.425 11.069 16.353 23.72-26.036 42.946z"/><path fill-rule="evenodd" clip-rule="evenodd" fill="#554537" d="M253.046 53.804l-19.381.177-20.114 21.984 37.471 25.828z"/><path fill-rule="evenodd" clip-rule="evenodd" fill="#6e5f51" d="M228.803 21.653l-9.065 14.163-6.187 40.149 39.495-22.161z"/><path fill-rule="evenodd" clip-rule="evenodd" fill="#554537" d="M209.443 17.648l-5.589 20.309 1.954 20.869 7.743 17.139 15.252-54.312z"/><path fill-rule="evenodd" clip-rule="evenodd" fill="#8b7a6e" d="M167.129.001l9.615 11.592 27.11 26.364 24.949-16.304-17.519-13.421zM134.195 11.177l-2.867 14.343 9.082 8.478 18.774-19.376 11.301-8.56z"/><path fill-rule="evenodd" clip-rule="evenodd" fill="#6e5f51" d="M140.41 33.998L167.129.001l36.725 37.956-31.954 5.125z"/><path fill-rule="evenodd" clip-rule="evenodd" fill="#554537" d="M117.736 50.212l6.931 1.348 15.743-17.562-6.215-22.821z"/><path fill-rule="evenodd" clip-rule="evenodd" fill="#6e5f51" d="M131.155 122.154l-13.419-71.942 22.674-16.214 1.818 17.562-7.407 6.64z"/><path fill-rule="evenodd" clip-rule="evenodd" fill="#fef0ec" d="M134.821 58.2l3.614 53.047 23.068 26.906 29.623.622 20.736-24.349 1.689-38.461-9.697-38.008-63.444-3.959z"/><path fill-rule="evenodd" clip-rule="evenodd" fill="#f2d0c7" d="M151.168 68.602l-6.063-.462-6.67 1.049 13.964 10.473 12.189 19.411 12.868.479 12.516-20.499 15.134-11.018-7.57-1.513-11.491 2.08-7.55 3.705-5.31 4.733-1.345 3.399-2.581-3.399-6.35-4.387-6.197-2.608z"/><path d="M188.84 82.028c2.299 0 4.175-1.875 4.175-4.174s-1.876-4.175-4.175-4.175c-2.3 0-4.175 1.876-4.175 4.175s1.875 4.174 4.175 4.174z" fill-rule="evenodd" clip-rule="evenodd" fill="#2b2b2b"/><path fill-rule="evenodd" clip-rule="evenodd" fill="#fff" d="M168.948 111.305l-11.003 1.697 9.531 5.666 10.048-.607 7.58-5.204-13.153-1.61z"/><path fill-rule="evenodd" clip-rule="evenodd" fill="#b2849b" d="M154.973 204.247l13.005 50.762 51.16-7.93 7.087-31.629z"/><path fill-rule="evenodd" clip-rule="evenodd" fill="#424242" d="M210.435 387.509H233.1v3.928h-22.665zM148.058 383.854l.13 3.486h20.995l9.841-9.968 1.747 9.968h2.681l3.206-14.823h-7.996l-11.526 11.315z"/><path fill-rule="evenodd" clip-rule="evenodd" fill="#cc9e98" d="M170.875 95.166l-6.287 3.907 6.287 4.983 6.581-4.504z"/><path fill-rule="evenodd" clip-rule="evenodd" fill="#fef9fb" d="M169.259 77.04l-4.671 22.033 12.868.479-4.271-22.512z"/><path fill-rule="evenodd" clip-rule="evenodd" fill="#6e5f51" d="M138.435 69.19l7.619-2.54 13.508 2.078 3.347 3.925-17.432-3.579zM178.495 72.307l4.734-4.734 14.893-2.367 6.984 2.829-7.331-.404z"/><path fill-rule="evenodd" clip-rule="evenodd" fill="#7a5f88" d="M185.104 112.859l-8.399 8.282-9.9-.288-8.86-7.851 1.642-.008 5.845 2.837 11.586-.097 5.629-2.863z"/><path fill-rule="evenodd" clip-rule="evenodd" fill="#594365" d="M157.945 113.002l8.857-3.125 7.937-.115 10.365 3.097z"/><path d="M154.155 82.234c2.299 0 4.175-1.875 4.175-4.175s-1.876-4.175-4.175-4.175c-2.3 0-4.175 1.875-4.175 4.175s1.875 4.175 4.175 4.175z" fill-rule="evenodd" clip-rule="evenodd" fill="#2b2b2b"/></svg>