<svg xmlns="http://www.w3.org/2000/svg" viewBox="-152 -152 400 400"><path fill="#2C2B2B" fill-opacity=".102" d="M-42.297 227.177l116.151 19.791 65.267-16.608-81.875-8.248z"/><path fill="#543042" d="M78.571 224.47l-7.776 7.659.352 4.238 34.988-.471-.118-4.237zM-2.951 218.463c-.353 0-18.494 6.36-18.494 6.36v4.123l51.598.707v-4.595l-32.751-5.89-.471-.589.118-.116z"/><path fill="#734D61" d="M9.89 198.554l-5.418 5.89-25.916 20.262 51.598.118-.355-18.379S9.655 198.79 9.89 198.437v.117z"/><path fill="#9075A0" d="M36.16 174.051l-5.183 6.714-1.179 25.802-25.327-2.123-15.667-35.34z"/><path fill="#795D88" d="M-11.196 169.104l41.702 21.085.471-9.424-37.814-14.961z"/><path fill="#734D61" d="M85.049 195.965l-8.365 13.309-5.889 22.855 35.222-.47-4.594-25.327z"/><path fill="#9075A0" d="M77.865 151.431l-7.894 28.51 6.713 29.333 24.739-2.942 7.305-25.802z"/><path fill="#795D88" d="M108.728 180.53l-38.757-.589 33.692-28.152 8.597 16.726z"/><path fill="#A588B9" d="M-5.071 26.444L-13.67 4.768l-8.483 3.535-20.968 81.049s65.498-16.02 67.736-15.672c2.238.235-29.569-47.118-29.569-47.118l-.117-.118z"/><path fill="#734D61" d="M22.967 169.927l-5.065-.117-3.653 6.364-25.445-7.07-21.087-47.83.708-18.963s31.334 19.67 30.628 20.026c.118 0 9.072 4.83 14.49 7.655l14.254 2.711-4.947 37.342.117-.118z"/><path opacity=".1" fill="#2B2B2B" d="M-32.284 121.274l44.647 28.156-26.622-38.875-17.317-8.244z"/><path fill="#3D3D3D" d="M49.353 161.797l-18.376 18.968-16.611-4.591-2.003-26.744 24.974-16.019z"/><path fill="#734D61" d="M60.192 113.855c-.235-2.005 70.328-8.483 70.328-8.483l-18.261 63.144-42.172 11.426-38.993.824 1.532-36.871 27.566-30.04z"/><path opacity=".1" fill="#2B2B2B" d="M126.278 120.097l-91.295 23.209 60.315-45.24 35.222 7.306z"/><path fill="#00AEEF" d="M-12.375 75.685l-30.746 13.667 51.01 35.811.823-42.999z"/><path fill="#9075A0" d="M-18.265 107.612l-24.856-18.26 28.507-37.346 26.507-3.533-12.841 66.205z"/><path fill="#795D88" d="M3.294 126.575l-10.131 3.536-36.284-40.759 35.34 17.554z"/><path fill="#5E5D5E" d="M19.196 137.534l-1.294 2.236-25.683-32.864 12.37-52.424 25.682-10.603z"/><path fill="#4F5253" d="M17.902 139.77l-5.539 9.66-19.2-19.319-.944-23.205 17.671 6.827zM50.18 65.672l-4.124-10.013-14.372-6.48-9.308 6.48L9.89 113.733l20.381 14.848 9.895-10.018z"/><path fill="#484748" d="M9.89 113.733l2.473 35.697 20.146-5.536 7.657-25.331-6.362-4.002z"/><path fill="#795D88" d="M53.95 96.889l-20.146 17.672-1.295 29.333 98.011-38.522z"/><path fill="#9075A0" d="M61.252 51.065l-15.196 4.594-12.252 58.902 96.716-9.189-27.328-48.889z"/><path fill="#A588B9" d="M96.357 6.653l15.078-9.071 11.426 6.361 7.659 101.429-46.177-49.124z"/><path fill="#96637C" d="M91.884-8.308l7.42-.941 12.015 6.831-27.094 58.784-38.287-.589S73.506 5.121 72.329 5.003C71.147 4.885 91.884-8.19 91.884-8.19v-.118zM-1.183-.062l-12.487 4.83-.944 47.238 28.745 3.653 5.183-47.003z"/><path fill="#4F5253" d="M9.301-4.184L-1.183-.062l15.314 55.721L46.88 43.643z"/><path fill="#EECEC9" d="M66.906-123.52l15.196-2.827 10.253 9.895.236 30.04L79.983-69.33l12.843 23.561.235 28.507-16.613 29.098L35.219-6.07z"/><path fill="#CEA19C" d="M31.095 48.944L7.415-8.543S34.983-28.452 34.746-27.51c-.353.943 16.258 19.202 16.258 19.202l19.202-.118-7.302 32.631-31.809 24.739zM82.695-75.338l-7.777 17.671 17.908 11.898V-57.55z"/><path fill="#FEEEE9" d="M-6.131-146.138l-29.451 36.872 3.769 79.752L-15.791-7.72l66.795-.588 13.312-23.679-.592-72.448 18.378-21.912-24.15-24.621zM74.918-86.53l17.673.118.235 28.862-17.908-.117z"/><path fill="#484748" d="M14.131 55.659l78.93-72.921 6.361 8.013-53.366 64.908z"/><path fill="#CEA19C" d="M87.761-81.229l-7.542.355-.236 13.429z"/><path fill="#EECEC9" d="M-18.029-96.779l16.257 4.595 5.654 9.66 3.298 5.536 4.36-5.653 7.774-10.014 20.735-4.947L49-89.474l-22.382 8.953-14.019 24.386-5.89-8.365-7.657 8.483-8.363-24.857-12.607-11.075z"/><path fill="#CEA19C" d="M4.589-59.906l-5.537 3.889 7.187 4.474 6.36-4.592z"/><path fill="#FEF4F2" d="M3.882-82.524l-4.83 26.507 13.547-.118-1.059-26.506z"/><path fill="#74665B" d="M-.948-97.249l-16.728-1.885-5.654 5.892 1.413 1.412 4.83-3.062 15.316 2.709c-.001-.001.588-5.066.823-5.066zM19.079-97.367l21.676-1.885 9.66 7.892L49-89.474l-8.716-5.066-20.97 2.121z"/><path fill="#CEA19C" d="M-8.134-40.703l33.575-.589-2.356 3.886-29.569.353z"/><path fill="#2B2B2B" d="M-11.785-87.354c2.277 0 4.122 1.847 4.122 4.124 0 2.277-1.845 4.122-4.122 4.122s-4.123-1.845-4.123-4.122 1.846-4.124 4.123-4.124zM28.856-87.001c2.277 0 4.124 1.847 4.124 4.124 0 2.277-1.847 4.124-4.124 4.124-2.277 0-4.124-1.847-4.124-4.124.001-2.277 1.848-4.124 4.124-4.124z"/><path fill="#EECEC9" d="M-12.846-112.446H9.419l23.09-.943-24.267-2.592zM-8.016-120.576l17.081.591 18.968-1.061-20.264-1.884zM20.14-52.602l20.026 19.438-7.539-15.55zM-7.074-52.367l-13.782 22.03 3.769-16.611z"/></svg>