<svg xmlns="http://www.w3.org/2000/svg" viewBox="0 0 400 400"><path opacity=".1" fill="#2b2b2b" d="M76.166 376.644l92.259-15.036 60.059-6.715 79.06 10.851 37.673 8.734L221.508 400z"/><path fill="#594265" d="M115.147 260.843l-13.617-5.326-8.228-20.424 13.577-24.814 6.89 21.283z"/><path fill="#cea39f" d="M111.021 235.609l-15.166 2.842-3.789-29.669 14.813 1.497 4.995 14.113z"/><path fill="#96637c" d="M118.79 378.713l-17.26-123.196-8.228-31.9 1.034-20.185-7.588-54.942-7.159-9.553-4.117 15.528 7.552 54.317 5.166 13.392-.472 20.369 19.187 136.17z"/><path fill="#d1a1b8" d="M83.281 123.392l-5.948 2.411-4.903 6.78 3.042 21.882 11.276-5.975z"/><path fill="#734d61" d="M72.43 132.583l-7.762-5.488 7.762-16.018 17.569-18.178-6.718 30.493z"/><path fill="#b3889d" d="M89.999 92.899l-8.268-6.023-22.392 27.366 15.962-1.501z"/><path fill="#734d61" d="M55.55 109.935l2.411-14.232 21.628-30.875 2.142 22.048-19.132 26.269z"/><path fill="#96637c" d="M75.301 112.741l-19.751-2.806 9.118 17.16z"/><path fill="#b3889d" d="M79.589 64.828L63.468 76.972l-13.43 18.731 5.512 14.232z"/><path fill="#96637c" d="M50.038 95.703l4.481-18.731 4.82-1.809 5.474 5.103z"/><path fill="#d1a1b8" d="M54.519 76.972l4.82-16.622 5.474 19.916z"/><path fill="#96637c" d="M79.589 64.828l-27.83-16.539 13.054 31.977z"/><path fill="#efd0cb" d="M111.128 222.583l-9.585 1.034-5.447-7.444-3.214-4.333 1.454-8.408 12.543 6.847z"/><path fill="#734d61" d="M87.718 242.543l13.812 12.974-5.434-39.344-6.656-.458-4.087 9.818z"/><path fill="#efd0cb" d="M93.302 237.763l-14.934 2.239-1.035-26.478 5.691-4.742 6.975 4.742 1.034 10.975z"/><path fill="#feeee9" d="M94.336 203.432l-11.312 5.35 2.329 16.751 5.68-1.034 5.063-8.326zM83.024 208.782l-4.656 31.22-3.699-29.723z"/><path fill="#9075a0" d="M163.634 185.055l-17.354 29.282 4.694 14.299 12.66 11.366 19.418-34.105-9.836-30.171z"/><path fill="#bb9fd1" d="M146.28 214.337l-39.401-4.058 8.268 50.564 48.487-20.841z"/><path fill="#734d61" d="M163.634 240.002l-8.527 90.945 15.38 15.145 25.176-67.852L184.372 227z"/><path fill="#96637c" d="M163.634 240.002l6.853 106.09-24.169-11.869z"/><path fill="#734d61" d="M301.516 224.392l-5.825 44.202 9.301 79.064 2.552 18.086-29.417 4.39-24.895-50.764-5.525-63.853z"/><path fill="#96637c" d="M295.691 268.594l-9.68-22.856-10.448 2.237 8.972 23.49 5.957 2.9zM168.425 361.608l-24.341 17.053h49.38z"/><path fill="#734d61" d="M232.618 383.827l28.053 6.771 19.486-6.771-20.144-18.083z"/><path fill="#9075a0" d="M183.052 258.604v85.437l11.639 23.437 37.927 16.349 27.395-11.885 10.499-2.409-7.235-92.499-22.736-33.377z"/><path fill="#795d88" d="M201.892 308.886l30.726 74.941-39.154-5.166-4.932-35.834zM198.81 258.604l37.167 33.864-4.017 5.408-19.107-14.856z"/><path fill="#bb9fd1" d="M183.052 258.604l18.84 50.282-8.428 69.775-25.039-17.053z"/><path fill="#795d88" d="M239.146 344.902l20.867 27.04 20.144 11.885-16.88-106.793-20.369-24.464-15.759 6.034 9.634 25.148z"/><path fill="#9075a0" d="M180.272 237.535l1.812 13.649 89.13 11.784 6.532-108.486-28.068-21.476z"/><path fill="#795d88" d="M249.412 179.803l10.421 40.344 12.098-9.868zM249.412 179.803l-6.804 28.979-2.067 34.875-13.392 14.947-24.373-5.61-20.692-1.81-1.812-13.649 16.473-5.338 13.136-7.805 5.087-20.96z"/><path fill="#96637c" d="M183.052 258.604h44.097l28.894-21.258-34.535 7.54-39.424 6.298z"/><path fill="#734d61" d="M227.149 258.604l28.894-21.258-34.535 7.54z"/><path fill="#b3889d" d="M180.272 237.535l11.093 12.166 6.566 2.869 8.724-5.312-9.91-12.165-10.387-1.919z"/><path fill="#96637c" d="M277.746 154.482l-10.851 16.794-17.483 8.527 6.631-31.608z"/><path fill="#594265" d="M299.142 33.897l-46.001 44.169-18.251-21.538zM195.729.674l40.916 10.952-27.696 16.062z"/><path fill="#a0a0a0" d="M141.071 150.895l22.563 34.16 9.582-2.583-4.791-22.564-12.376-16.536z"/><path fill="#bfbfbf" d="M145.086 117.857l-4.015 33.038 14.602-3.285 2.599-32.997z"/><path fill="#a0a0a0" d="M152.752 92.303l-9.354 10.222-2.327 7.462 5.658 8.167 8.944 4.084 3.285-9.637z"/><path fill="#dddddc" d="M155.673 122.238l-14.602 28.657v-40.908z"/><path fill="#898989" d="M153.75 102.525h-10.352l3.879-12.435 8.396.251z"/><path fill="#c4c4c4" d="M264.512 90.341l15.646 29.342-15.15 8.921-5.294 17.363-6.573-32.492z"/><path fill="#feeee9" d="M154.943 93.353l-1.193 9.172 1.923 19.713 10.587 22.269 46.362-2.921 27.379-18.618-1.551-20.443-11.226-32.034z"/><path fill="#efd0cb" d="M219.516 71.639l12.198 56.965 8.287-5.636.73-20.443-.73-16.428-10.586-17.522z"/><path fill="#cea39f" d="M153.75 102.525l26.393-1.971 6.925-.91 4.381-5.15 11.818-2.556 33.378-12.632-7.23-10.731-76.663 21.591z"/><path fill="#efd0cb" d="M212.257 98.589l-24.871 27.819-27.906-24.297 10.071-2.941 10.592 1.384 6.925-.91 4.381-5.15 12.229-4.153z"/><path fill="#737474" d="M159.48 102.111l20.663-1.557-1.106-4.326h-20.079zM191.449 94.494l-1.324-4.837 14.785-3.971 4.36 3.951-.321 4.476-5.682-2.175z"/><path fill="#a3a2a2" d="M209.27 89.637l-6.003 2.301 8.99 6.651 2.373-4.095z"/><circle cx="198.133" cy="102.069" r="3.354" fill="#2b2b2b"/><circle cx="169.551" cy="106.633" r="3.354" fill="#2b2b2b"/><path fill="#efd0cb" d="M202.331 109.987l6.002 7.87 5.612-5.339-5.807.137zM171.942 112.601l-3.72 11.006-6.434-2.738 5.077-1.78z"/><path fill="#fff5f3" d="M187.068 99.644l-.074.573-1.934 15.039 2.326 11.152-7.243 1.443-2.799-10.704 2.799-16.593"/><path fill="#dddddc" d="M155.673 122.238l13.878 17.705 10.592-12.092 7.243-1.443 23.958 3.495 17.374-15.29 27.711 1.054-16.428 39.153-20.485 6.571-46.3 21.081-17.543-34.862z"/><path fill="#a3a2a2" d="M187.386 126.408l-2.531 6.029-4.712-4.586zM171.942 147.975h5.402l10.042-5.567 12.275.09 13.188-9.492 1.781 6.119-13.507 6.293-12.777.731-9.857 4.746z"/><path fill="#bfbfbf" d="M228.718 114.613l-5.109 39.726 23.602-1.71 8.832-4.434.386-32.528-8.031-13.598-11.283 4.095zM173.216 182.472l44.893-27.091 5.5-1.042 12.368 15.387-5.943 27.387-11.925 10.334-24.97-5.684z"/><path fill="#969696" d="M223.609 154.339l32.434-6.144-6.631 31.608-19.378 17.31z"/><path fill="#dddddc" d="M173.216 182.472l29.56 16.445 5.665 21.23-19.909 4.245h-7.577l-4.403-15.61z"/><path fill="#eaeaea" d="M176.552 208.782l-12.918 31.22 16.638-2.467 8.26-13.143z"/><path fill="#a0a0a0" d="M229.415 68.575l2.56 12.499 6.475 10.499-1.335 14.591 19.314 9.503 10.952-34.315-10.952-3.195-2.763-9.581-12.935-12.048z"/><path fill="#898989" d="M280.158 119.683l-2.412 34.799-21.703-6.287 10.606-18.772z"/><path fill="#dddddc" d="M267.381 81.352l-30.266 24.812-5.14-25.09 21.689-12.499z"/><path fill="#a0a0a0" d="M280.158 119.683l-23.729-4.016-.386 32.528z"/><path fill="#bb9fd1" d="M89.963 94.113l100.162-4.456 3.255-17.067-3.255-16.062-37.373 5.841z"/><path fill="#9075a0" d="M185.868 62.369l16.463-14.238 24.528-9.491 72.283-4.743-109.017 55.76zM185.868 62.369l11.007-23.729L195.729.674l-29.532 13.872-13.445 47.823z"/><path fill="#795d88" d="M195.729.674l31.13 37.966-40.991 23.729z"/><path fill="#969696" d="M218.109 155.381l-15.333 43.536 5.665 6.33 5.367 3.535 16.226-11.669z"/><path fill="#b2b2b2" d="M202.776 198.917l-14.244 25.475v7.805l8.213 2.896 16.754-11.11 2.067-6.978-1.758-8.223z"/><path fill="#cecece" d="M188.532 224.392l-24.898 15.61 33.111-4.909z"/><path fill="#a588b9" d="M249.412 179.803l22.519 30.476 8.571 11.292 21.014 2.821-23.77-69.91z"/><path fill="#594265" d="M263.277 277.034l-36.128-18.43 18.215-40.822 14.124 25.875z"/><path opacity=".2" fill="#2b2b2b" d="M223.609 154.339l6.258 9.875.167 32.899-8.526-39.531z"/><path fill="#b3889d" d="M212.849 133.006l10.76 21.333-5.5 1.042-7.195-14.525z"/><path fill="#96637c" d="M223.609 154.339l6.425 42.774-4.995 4.329-6.93-46.061z"/><path fill="#d1a1b8" d="M230.034 197.113l12.574 11.669-14.4 3.058-14.4-3.058 10.606-11.498z"/><path fill="#4f5253" d="M224.818 199.975h4.699l6.46 5.922h-14.986z"/><path fill="#96637c" d="M242.608 208.782l-15.459 16.751-7.277-5.386-6.064-11.365z"/><path fill="#feeee9" d="M245.364 217.782l-2.756-9-6.631 7.186 1.122 12.668 12.741-1.402zM221.508 244.886l-8.009-20.903.309-15.201 13.341 16.751 1.059 9.56z"/><path fill="#efd0cb" d="M247.707 225.533h-20.558l-5.641 19.353 26.199-4.071 6.786-8.618z"/><path fill="#cea39f" d="M247.707 225.533v15.282l4.431-.627 1.094-7.991z"/><path fill="#bb9fd1" d="M271.931 210.279l-26.567 7.503 17.913 59.252 38.239-52.642z"/><path fill="#d1a1b8" d="M206.655 247.258l-15.29 2.443 40.595 48.175 6.04-.344-1.217-13.78z"/><path fill="#96637c" d="M231.96 297.876l7.186 47.026 20.867 12.747-7.728-44.615-15.502-29.282z"/><path fill="#b3889d" d="M246.134 316.341l20.303-25.841 38.555 5.051v52.107l-44.979 9.991z"/><path fill="#d1a1b8" d="M236.783 283.752l9.351 32.589 58.858-20.79-9.301-26.957z"/></svg>