<svg xmlns="http://www.w3.org/2000/svg" viewBox="0 0 400 400"><g opacity=".15"><path fill-rule="evenodd" clip-rule="evenodd" fill="#161511" d="M89.747 385.88L179.921 400l103.987-11.957-92.716-12.675z"/><path fill="none" stroke="#7ccbde" stroke-width=".216" stroke-miterlimit="2.613" d="M89.747 385.88L179.921 400l103.987-11.957-92.716-12.675z"/></g><path fill-rule="evenodd" clip-rule="evenodd" fill="#e5e4e4" d="M169.517 152.774l13.38 10.88 2.871 8.878-13.332 23.841-4.998-2.558-6.186-15.539z"/><path fill-rule="evenodd" clip-rule="evenodd" fill="#ccc9ca" d="M192.823 164.072l27.416-9.343-8.316 29.315-13.703 13.208-6.876-.958-3.985-23.673z"/><path fill-rule="evenodd" clip-rule="evenodd" fill="#5c3242" d="M219.357 149.912l-5.56-1.136-23.63 8.937-2.812 4.227 1.911 3.343 7.126.736 19.143-6.089 4.704-5.202zM176.584 317.72l4.167 5.361 19.981-.07 2.461-7.244-12.056-31.269-6.237 3.127z"/><path fill-rule="evenodd" clip-rule="evenodd" fill="#403d3b" d="M213.588 384.407l8.316-2.736h24.527l7.902 2.736v7.036h-40.745zM117.458 378.815l13.627-2.632h28.705l10.182 2.632v6.765h-52.514z"/><path fill-rule="evenodd" clip-rule="evenodd" fill="#525050" d="M117.458 378.815h52.514v-16.687l-5.823-4.69-11.004-2.082-7.073 3.014z"/><path fill-rule="evenodd" clip-rule="evenodd" fill="#7f5a87" d="M188.227 293.097l-18.255 69.517-12.307-2.185-4.014-5.059-.564-72.47 5.235-4.272 26.578 8.997z"/><path fill-rule="evenodd" clip-rule="evenodd" fill="#9776a1" d="M158.326 278.547l-.362 5.771-.299 76.111-11.594-2.059-6.103-37.732 9.704-.108-3.657-46.067z"/><path fill-rule="evenodd" clip-rule="evenodd" fill="#525050" d="M218.645 365.855l-5.057 18.552h40.745l-10.706-18.552-4.056-3.859-13.303-.403z"/><path fill-rule="evenodd" clip-rule="evenodd" fill="#7f5a87" d="M188.227 293.097l2.91-8.599 28.512-13.426 7.496 49.902 4.143 3.926 2.853 37.071-2.635 3.884h-12.861z"/><path fill-rule="evenodd" clip-rule="evenodd" fill="#9776a1" d="M243.627 365.855l4.012-47.831-5.154-1.108-15.34 4.058 4.362 44.881z"/><path fill-rule="evenodd" clip-rule="evenodd" fill="#4c3650" d="M157.964 284.318l30.263 8.779 15.688-8.991-.146-4.338-24.273-19.505h-7.069l-14.101 18.284z"/><path fill-rule="evenodd" clip-rule="evenodd" fill="#7f5a87" d="M155.796 195.77l6.652-4.299 17.978 13.162-.932 55.63-3.741 2.736-17.789 21.319-7.13-2.069-4.818-7.786-1.861-21.234z"/><path fill-rule="evenodd" clip-rule="evenodd" fill="#5d4063" d="M207.636 192.707l-30.635 14.79-1.248 55.502 28.162 21.107 9.671-5.509 6.063-7.525-3.566-24.488-3.741-50.424z"/><path fill-rule="evenodd" clip-rule="evenodd" fill="#5c3242" d="M181.99 172.318l-13.097 24.383L177 207.497l18.086-10.39-4.544-24.307-3.563-2.435zM172.194 158.844l6.471 6.438h6.235l2.455-3.342-1.833-5.041-8.313-7.31-3.119 1.232-4.573 1.953z"/><path fill-rule="evenodd" clip-rule="evenodd" fill="#5d4063" d="M157.876 186.78l2.91 8.601 16.215 12.116-11.226-27.361-6.652 1.955z"/><path fill-rule="evenodd" clip-rule="evenodd" fill="#7f5a87" d="M206.934 182.48L177 207.497l30.951-10.126 3.973-5.509v-7.818z"/><path fill-rule="evenodd" clip-rule="evenodd" fill="#764056" d="M178.664 165.282l3.326 7.036 8.552.482 6.137-6.873-9.323-3.987z"/><path fill-rule="evenodd" clip-rule="evenodd" fill="#9e627c" d="M141.246 159.419l-12.682 64.085 10.744 13.873 3.807-3.311 1.871-68.784z"/><path fill-rule="evenodd" clip-rule="evenodd" fill="#7f5a87" d="M288.102 296.417l-11.703-.301-2.093-6.518 15.573-23.043 8.529-4.047 5.944.099 5.902 4.353z"/><path fill-rule="evenodd" clip-rule="evenodd" fill="#9776a1" d="M279.686 231.346l-.202 5.559 15.95 30.474 14.818-.419-17.406-37.607z"/><path fill-rule="evenodd" clip-rule="evenodd" fill="#4b2c38" d="M261.262 243.664l14.69 19.335-15.093 23.648-5.071-2.627-3.855-20.413z"/><path fill-rule="evenodd" clip-rule="evenodd" fill="#7f5a87" d="M268.509 226.709l-8.019 18.762 1.734 6.466 7.909 11.061 3.538 3.575 16.208-.018 8.895-4.222-23.922-38.837z"/><path fill-rule="evenodd" clip-rule="evenodd" fill="#5d4063" d="M270.133 262.999l28.641-.666-32.801 49.524-4.585-1.269-6.64-23.063z"/><path fill-rule="evenodd" clip-rule="evenodd" fill="#5c3242" d="M268.259 221.88l-23.489 13.759 6.431 28.764 4.377 2.504 19.274-43.411z"/><path fill-rule="evenodd" clip-rule="evenodd" fill="#9e627c" d="M274.852 223.496l-24.854 9.62-2.383-5.931 11.473-58.639 4.854-5.8z"/><path fill-rule="evenodd" clip-rule="evenodd" fill="#33302d" d="M171.181 249.122l4.985-4.477 4.992 4.672-5.205 4.801zM171.885 217.725l4.986-4.477 4.993 4.675-5.205 4.8z"/><path fill-rule="evenodd" clip-rule="evenodd" fill="#9e627c" d="M125.654 314.886l28.627 11.504-6.05-77.489-4.699-11.588-4.224.064z"/><path fill-rule="evenodd" clip-rule="evenodd" fill="#5c3242" d="M139.308 237.377l8.923 11.524.796-19.712-3.76-59.48-4.283.241z"/><path fill-rule="evenodd" clip-rule="evenodd" fill="#5c3242" d="M167.387 149.912l-26.141 9.507-.262 10.53 4.283-.239 13.735-8.342z"/><path fill-rule="evenodd" clip-rule="evenodd" fill="#9e627c" d="M211.411 248.05l5.71 80.239 48.852-16.432-15.975-78.741-9.177-1.084-22.038 7.718z"/><path fill-rule="evenodd" clip-rule="evenodd" fill="#5c3242" d="M226.895 146.521l37.047 16.226-13.944 70.369-38.586 14.934 1.966-16.828 23.492-54.996-11.641-23.452z"/><path fill-rule="evenodd" clip-rule="evenodd" fill="#ccc9ca" d="M237.546 186.239l12.215 9.389-4.575 3.18-16.98 2.455 4.285-11.238z"/><path fill-rule="evenodd" clip-rule="evenodd" fill="#764056" d="M232.707 197.683l17.053-2.056.24 6.245-20.22 2.728-1.575-3.336z"/><path fill-rule="evenodd" clip-rule="evenodd" fill="#ba8ca1" d="M206.934 182.48l7.205-6.244 20.51-4.483 7.625 3.301-30.863 72.996zM140.984 169.949l8.368-.866 12.057 4.062 4.366 6.991-17.544 68.765z"/><path opacity=".2" fill-rule="evenodd" clip-rule="evenodd" fill="#33302d" d="M148.231 248.901l2.603 33.348 10.876-86.177zM165.774 180.137l5.205 12.681 1.215-33.974zM246.832 327.66l-19.314-2.87 20.121-6.766zM141.167 328.055l13.114-1.665-14.313-5.752z"/><path fill="none" d="M139.968 158.844h107.671v169.211H139.968z"/><path fill-rule="evenodd" clip-rule="evenodd" fill="#d4a8a2" d="M182.822 137.202l-5.699 5.303-1.741 4.162 12.389 8.665 22.488-7.978 5.407-7.309 2.495-12.997z"/><path fill-rule="evenodd" clip-rule="evenodd" fill="#f2d6d2" d="M223.616 92.407l9.437 18.072-10.19 30.97-4.185 5.767-16.373 2.696 12.392-16.982-2.293-9.019 4.476-18.988z"/><path fill-rule="evenodd" clip-rule="evenodd" fill="#918c8b" d="M224.953 15.012l8.068-3.136 19.606 39.112-7.956 4.806-52.657 4.706z"/><path fill-rule="evenodd" clip-rule="evenodd" fill="#a4a5a5" d="M174.985 0L160.42 10.531l-4.807 9.45-1.978 7.295 7.711 11.384 30.445 17.134 8.514-.897 32.716-43.022z"/><path fill-rule="evenodd" clip-rule="evenodd" fill="#918c8b" d="M125.466 36.524l13.22-20.839L174.985 0l-19.371 19.981-5.725 7.804-18.597 10.98z"/><path fill-rule="evenodd" clip-rule="evenodd" fill="#f2d6d2" d="M196.618 124.565l-1.243-62.945 5.491-6.228 10.335 9.107 12.415 27.908-21.395 39.746z"/><path fill-rule="evenodd" clip-rule="evenodd" fill="#5d5a59" d="M218.231 92.093l-16.583 30.025-5.031 2.448.16 9.188 5.32 2.704 12.601-3.529 8.919-40.522-2.056-4.62z"/><path fill-rule="evenodd" clip-rule="evenodd" fill="#74716f" d="M252.627 50.988l-51.762 4.403 17.366 36.702 5.385.315L244.1 76.904z"/><path fill-rule="evenodd" clip-rule="evenodd" fill="#d4a8a2" d="M233.053 110.479l-11.681-7.865 8.587-6.113 6.345 4.093z"/><path fill-rule="evenodd" clip-rule="evenodd" fill="#fef2f0" d="M244.1 76.904l-17.354 1.297-5.374 24.413 14.932-2.02z"/><path fill-rule="evenodd" clip-rule="evenodd" fill="#d4a8a2" d="M229.436 94.334l2.688-10.308 6.02-.738z"/><path fill-rule="evenodd" clip-rule="evenodd" fill="#ccc9ca" d="M177.123 142.504l10.896 8.904 2.701 5.472-3.364 5.06-13.266-11.119-.623-3.67z"/><path fill-rule="evenodd" clip-rule="evenodd" fill="#e5e4e4" d="M223.101 140.098l-35.082 11.311-.664 10.531 32.002-12.028 2.961-3.977z"/><path fill-rule="evenodd" clip-rule="evenodd" fill="#764056" d="M224.604 136.157l-17.67 46.323 35.34-7.427zM140.984 169.949l36.139-27.445-11.348 37.632z"/><path fill-rule="evenodd" clip-rule="evenodd" fill="#fef2f0" d="M125.466 36.524l7.828 86.105 3.657 4.934 25.263 10.241 34.451-10.502 4.984-5.184-.784-66.726-36.634-19.54-8.617-15.871z"/><path fill-rule="evenodd" clip-rule="evenodd" fill="#d4a8a2" d="M147.564 115.036l10.503-2.518 12.022 2.987.645-3.337-13.115-2.786-10.831 2.815z"/><path d="M133.295 122.63l6.521 2.534-1.802-17.386 18.821-8.066 23.976 7.394 3.646 19.025 17.191-4.013.656 14.355-39.196 11.2-28.678-12.538-1.135-12.505zm34.359 7.421l12.245-2.857-3.345-16.728-19.27-3.584-14.79 4.033 1.258 15.78 7.917 3.078 2.477-7.206 8.067.449 5.441 7.035z" fill-rule="evenodd" clip-rule="evenodd" fill="#74716f"/><path fill-rule="evenodd" clip-rule="evenodd" fill="#f2d6d2" d="M131.739 71.927l4.483-4.706 12.771 4.257 6.049 6.498-7.841 16.581-5.77-16.073zM161.901 71.869l-5.736 6.108 7.393 16.357 9.634-16.133 10.729-5.836-7.143-4.248z"/><path fill-rule="evenodd" clip-rule="evenodd" fill="#4b4949" d="M135.997 64.98l-5.602 4.482 1.345 2.465 4.705-3.137 12.549 2.688-1.036-3.769zM163.556 67.915l-1.655 3.955 14.429-2.408 7.592 2.904 1.369-2.681-7.169-3.808z"/><path fill-rule="evenodd" clip-rule="evenodd" fill="#d4a8a2" d="M155.939 90.749l-8.739 3.809 9.635 5.154 6.723-5.378z"/><path fill-rule="evenodd" clip-rule="evenodd" fill="#fef8f8" d="M148.993 71.478l12.909.391-3.722 6.556 5.379 15.908-16.358.224 5.378-16.132z"/><path d="M176.965 77.789c0 2.092-1.696 3.788-3.788 3.788-2.091 0-3.787-1.696-3.787-3.788 0-2.091 1.696-3.787 3.787-3.787 2.092 0 3.788 1.695 3.788 3.787zM144.369 77.789c0 2.092-1.696 3.788-3.788 3.788-2.091 0-3.787-1.696-3.787-3.788 0-2.091 1.696-3.787 3.787-3.787 2.092 0 3.788 1.695 3.788 3.787z" fill-rule="evenodd" clip-rule="evenodd" fill="#33302d"/></svg>