<svg xmlns="http://www.w3.org/2000/svg" viewBox="0 0 400 400"><path opacity=".1" fill="#2b2b2b" d="M107 368l43.266-1.5L315 380.875 328 387l-96.408 13L120 387l-27.605-15.007z"/><path fill="#96637c" d="M145.307 300.789L110.75 306.5l-9.75 30 20 33.738 29.266-3.738 12-25.941-3.258-22.892z"/><path fill="#734d61" d="M121 370.238L103 336.5l-6.5-3.66-9 2.673L107 368z"/><path fill="#b3889d" d="M103 336.5l9.75-29-1.5-1.5-7 .25-16.75 29.263z"/><path fill="#d1a1b8" d="M112.75 307.5l32.557-6.711-16.278-4.289-24.779 9.75z"/><path opacity=".2" fill="#2b2b2b" d="M126.677 336.5l30.796 14.42-7.207-15.407z"/><path fill="#96637c" d="M288 313.5l29.5 15 1.631 14.485L318 354.953l3.75 11.297L313 385l-29.75 7.32-12.417-38.987z"/><path fill="#b3889d" d="M259.667 351.667l-12.157-1.387-10.135 1.387-6.02-3.229L126.677 336.5l2.656-9.167L267 340z"/><path fill="#d1a1b8" d="M259.667 351.667L276.25 312l11.75 1.5-14.167 39.833-5.333 3.938z"/><path fill="#734d61" d="M273.833 353.333l9.417 38.987-19.5-2.32-4.083-38.333z"/><path opacity=".2" fill="#2b2b2b" d="M290.25 374.75l16.389 11.815L313 385l8.75-18.75-21.25-.75z"/><path fill="#9075a0" d="M319.131 342.985l-18.631-8.349-8.75 20.317L302.25 376l19.5-9.75z"/><path fill="#a588b9" d="M300.5 334.636l-6.75-.886-7.5 19.583 4 3.938 3.5-2.521z"/><path fill="#795d88" d="M293.75 354.75l8.5 21.25-12-1.25-4-21.417z"/><path fill="#96637c" d="M309 349.156l6 3.754-4.75 7.84-5.25-5.797z"/><g><path fill="#efd0cb" d="M225.407 378.495l-14.329 12.825h17.255l1-8.342z"/><path fill="#feeee9" d="M150.266 261.333l-8.441 67.167 16.751 19.146 8.259 16.687L136 384.32l28.919 2.68 11.906-3.022 2.818-8.643L179 368l-2.175-15.333L185.152 335l-17.402-37-7.853-23.667z"/><path fill="#efd0cb" d="M141.825 328.5l33.199 4.34 7.683 1.639L181 357.271 179 368l-12.165-3.667z"/><path fill="#efd0cb" d="M167.75 298l-2.831 19.667 10.105 15.173 1.801-15.544z"/><path fill="#cea39f" d="M175.024 332.84L181 357.271 185.152 335z"/><path fill="#feeee9" d="M167.75 298l7.274 34.84 26.534 6.493 18.109 14 8.666 37.987L236 389.5l7.51-22.417 1.823-13.75-7.682-4.177-6.318-.721-11.128-23.102-12.163-5.666 17.365-35.433-27.157-9.901z"/><path fill="#efd0cb" d="M175.024 332.84l33.018-13.173 3.787 1.764 9.504-.098 10 27.102-11.666 4.898zM203.326 286.333l-10.659 31.334 12.199-16.334z"/><path fill="#cea39f" d="M221.333 321.333l-19.775 10 6.484-11.666z"/><path fill="#efd0cb" d="M179.643 375.335L164.919 387l-38.252-12.25L132 387h48.667zM237.651 349.156L243.216 367l-14.883 24.32h8.334l10.9-41.033zM174.513 151.908l-25.064 8.227 14.486 7.517h12.89z"/><path fill="#5f5044" d="M153.013 23.096l3.847-8.582-1.282-9.889-19.05 14.926 10.257 15.895z"/><path fill="#feeee9" d="M153.013 23.096l-17.95 20.569-4.396 62.273 17.95 27.988 17.218 2.239 14.379 26.085 44.967-18.622 19.05-60.826-10.624-16.419-7.733-30.937L193.31 21.23z"/><path fill="#efd0cb" d="M225.874 35.446l-13.881 86.165-30.039 20.151-5.129 25.89H200l28.89-14.859 11.556-38.155v-8.455l4.048-4.909 7.064-23.323-13.555-12.687 1.466-23.883zM201.37 66.85l-31.322 23.509-7.144-9.236-23.079-22.11 9.441-1 8.418 1 5.22 6.251 7.693.894 9.617-4.066 11.135.504z"/><path fill="#fff5f3" d="M170.597 66.158L167.3 81.869l2.748 8.49-12.227-1.819 5.083-7.417V65.264z"/><path fill="#cea39f" d="M170.048 90.359l-6.732 6.25-5.495-8.069zM148.617 104.073l13.921 2.985h19.416v3.545l-20.149.373-13.921-3.172zM165.835 136.165l41.396 5.597-30.406 25.89zM244.494 101.274l-12.902-3.545 8.854 16.909zM239.285 82.056l-2.381 10.519 9.891-8.84z"/><path fill="#5f5044" d="M201.37 66.85v-3.825l-19.966-5.598-1.19 4.665zM157.684 59.013l.137-4.011-17.996.746v3.265z"/><ellipse cx="187.449" cy="72.54" rx="3.48" ry="3.545" fill="#2b2b2b"/><ellipse cx="150.266" cy="68.062" rx="3.48" ry="3.545" fill="#2b2b2b"/><path fill="#efd0cb" d="M204.568 91.012l-20.882 4.851 10.258 15.673-.55-12.501zM135.528 84.295l13.921 7.65-8.792 12.128.916-10.076z"/><path fill="#74665b" d="M155.578 4.625l27.108-2.424-.732 14.459L170.048 30l-17.035-6.904z"/><path fill="#5f5044" d="M170.048 30l12.638-27.799L203.568.333l-1.283 12.501-8.975 8.396z"/><path fill="#74665b" d="M203.568.333l27.509 14.274-8.46 9.422-17.753 3.361-11.554-6.16z"/><path fill="#5f5044" d="M204.866 27.391l26.211-12.784 21.397 12.221-12.028 10.262-15.039 1.252z"/><path fill="#46382d" d="M252.474 26.828l-27.067 11.514 8.416 4.683 10.408 9.365 7.771.744z"/><path fill="#5f5044" d="M233.823 43.025l18.179 10.109-.284 15.861-13.42.666-9.408-10.648z"/><path fill="#46382d" d="M251.718 68.995l-22.828-9.982-3.483 11.288 3.263 11.755 4.937 2.239 3.297-10.635 14.654 4.291z"/><path fill="#feeee9" d="M176.825 167.652l52.065-14.859L251.558 157l23.775-18 11.834 4 6.5-.333L295 129l-5-7h-8.667l-12-14.476 2.334-17.165 31 6.25 32 46.391L323 175.333l-20.557 11.826-15.276 4.014L272.333 203l-5.666 21L222 251.333l-.667 9.667-53.583 18.667-17.484-18.334v-26L144 225.667l-3.697-18.595L126.667 200l-21.548-7.146L89 182.346l-9.333-29.553 10.666-49.72 28.334-8.889 8 11.754-2.862 13.395-9.472 5v13.319L120 147.667z"/><path fill="#efd0cb" d="M284.5 102.75l-3.5 8.226-7.417 3.662-10.916-7.114 9-17.165 10.666 6.195z"/><path fill="#cea39f" d="M281 110.976L290 122l-10.333 3-17-17.476z"/><path fill="#efd0cb" d="M290 122l8-2.25-1.5-8.774 6.75 5.512-9.583 26.179zM275.333 139l21.292 20.5-2.958-16.833zM334.667 143l-32.224 44.158L326 176zM259.667 165.25l24.833-1.75-10.917 8.152z"/><path fill="#fff5f3" d="M302.667 96.609L284.5 102.75l-12.833-12.391z"/><path fill="#efd0cb" d="M251.558 157l-14.654 59.667L170.597 203 223 200z"/><path fill="#cea39f" d="M302.443 187.158l-57.11-4.812 27 20.654zM140.303 207.072l2.185-13.739L136 184l-30.878 8.855z"/><path fill="#efd0cb" d="M170.597 203l-30.294 4.072L136 184zM126.677 166.079l-19.01-1.128 9.5 8.049zM105.122 192.855l-25.455-40.062 7.666 32.874zM114.333 124.333l-9.211-2.666-1.455-7.029L99.333 121 103 160.667l17-13z"/><path fill="#cea39f" d="M114.333 124.333l4-9.695 4.167-7.114 8.167-1.586-5.334 16.729z"/><path fill="#efd0cb" d="M118.333 114.638l-6.666-11.888v-5.021l8.333-7.37 10.667 15.579z"/><path fill="#fff5f3" d="M120 90.359l-8.333 12.391-21.334.323z"/><path fill="#efd0cb" d="M170.597 203l4.736-14 1.492-21.348-6.777 19.506zM198.25 189l3.12-2.167 3.496 3.167-4.866 2.855zM146.785 180.5l3.481-2.25 1.984 4.096-3.366 1.98zM266.667 224L216 237.667l6 13.666zM211.078 232H195.75l-28-13.5 27.75 27.25zM150.266 235.333L167.75 218.5 144 225.667zM168.75 237.667l12 4.833-10.153 3.25zM165.835 237.667l-3.335 8.083-7.625-4zM169.048 254.25L181 258.5l-7.564 4.75zM164.919 253.25L162 261.5l-7.125-3.25z"/><path fill="#9075a0" d="M198.25 266.7l-30.917 7.633-4.196 5.167 4.613 18.5 30.5-23.667 8.917-1.876z"/><path fill="#795d88" d="M198.25 274.333V266.7l23.083-5.7 4.074 23.234zM167.75 298l-.417-23.667-17.067-13z"/><path fill="#efd0cb" d="M136 184l3.825-29.361-7.148 13.44z"/></g></svg>