<svg xmlns="http://www.w3.org/2000/svg" viewBox="-92.925 0 400 400.066"><path fill="#7c4f24" d="M64.094 31.71l-11.375 2.736 9.287 47.949z"/><path opacity=".1" fill="#2b2b2b" d="M.02 379.875l119.87 20.158 94.239-16.632-102.375-13.103z"/><path fill="#734d61" d="M33.497 378.001l28.797 2.233-4.535-12.455-7.92-3.889z"/><path fill="#543042" d="M76.981 357.627l-3.96 10.728 1.8 11.088 2.736.215 5.04-20.302z"/><path fill="#96637c" d="M59.487 345.749l-9.648 18.141 7.848 10.153 2.016.288 10.51-6.552 5.617-11.807.575-9.647-7.919-5.04z"/><path fill="#734d61" d="M76.405 346.325l-6.983 16.774-11.735 10.944 4.607 6.191 20.303-20.878z"/><path fill="#eecfca" d="M171.941 267.923l-3.167-2.52-1.512 4.104-7.92 9.072-.792.935 2.881 2.52 4.03-1.728z"/><path fill="#8f75a0" d="M168.774 265.403l-.72-.576-10.799 10.367 1.151 4.177.144.143.792-.935 7.92-9.072z"/><path fill="#8f75a0" d="M157.255 275.194l-2.448 2.377 3.599 5.686 3.025-1.223z"/><path fill="#eecfca" d="M183.101 281.673l6.623 2.664-5.111 10.008-4.392.72-15.191 1.151-.288-12.022z"/><path d="M184.613 294.345l-1.584 3.096-17.999-1.225-.072-3.744 5.04.36 3.24-17.135 13.679 4.464-5.472 13.607 3.168.577zm-11.52-1.224l5.112.359 4.896-11.807-8.352.432-1.656 11.016z" fill="#8f75a0"/><path fill="#feeeea" d="M177.197 257.412l4.176 6.695 6.551 15.91.287 3.097-19.149-.72-3.601-2.088 1.801-10.799 3.743 3.168-2.951-7.848 2.951-2.591z"/><path fill="#a586b9" d="M181.373 264.107l1.656 15.839 4.895.071 1.728 4.537-24.91-.36.719-3.888 6.913.144-5.112-10.943.36-2.088.432-2.592 7.919 15.19 4.248-.071-1.511-15.695.431-6.191z"/><path fill="#734d61" d="M174.246 247.548l7.127 11.952v4.607l-13.319.72-.864-4.751z"/><path fill="#b3889d" d="M172.445 205.504l11.16 15.263-2.232 38.733-14.183.576-5.688-32.758z"/><path d="M147.32 165.835c-1.009.216 10.942-5.616 10.942-5.616l25.343 60.547-22.103 6.551-12.815-22.678-1.367-38.804zM135.441 285.274l24.117 25.197 8.64 39.67-12.887 8.998-4.392-7.775-18.502-35.062zM80.365 312.631l-15.623 14.184-5.255 18.934 16.918.576 6.84-10.944z" fill="#734d61"/><path fill="#734d61" d="M82.957 282.826l-12.887 21.67-5.328 22.319 18.503 8.566 13.103-21.093zM86.917 164.972c.576.576-3.816-8.999-3.816-8.999L53.079 220.12l18.214 2.303 6.624-6.551 11.735-11.951-2.735-38.949z"/><path fill="#96637c" d="M100.307 249.493l-20.446 14.254-9.791 40.749 26.278 9.792 18.359-29.374z"/><path fill="#96637c" d="M120.898 246.613l-6.191 38.301 17.71 31.461 27.141-5.904-10.223-47.732z"/><path fill="#734d61" d="M111.106 216.59l27.358 17.064 10.871 29.085-34.628 22.175-34.846-21.167 8.927-28.941z"/><path fill="#96637c" d="M85.909 182.898l-8.352 16.199 11.231 35.709 49.749-1.009 10.654-28.293z"/><path d="M85.909 182.898l-5.184 16.271 68.466 6.336-3.599-43.701-19.799-14.327s-24.55 3.96-24.118 3.743c.432-.287-15.766 31.678-15.766 31.678z" fill="#b3889d"/><path fill="#d1a1b8" d="M86.701 166.411l-7.704 22.966-1.44 9.72 3.168.071 22.174-46.868-2.448-2.231-1.512 2.448z"/><path fill="#ab7793" d="M121.186 187.001h16.486v-6.119h-16.486z"/><path fill="#95617c" d="M122.986 185.49H135.8v-3.096h-12.814z"/><path fill="#d1a1b8" d="M133.425 147.261l-5.544 5.039 21.31 53.204 2.952-11.159-7.127-31.893-5.976-4.248z"/><path fill="#b3889d" d="M135.08 147.333l1.945 4.175 21.237 8.712-6.119 34.125-20.807-42.549z"/><path fill="#734d61" d="M139.4 128.038l2.448 10.8-1.512 14.038-8.783-.647-4.103-18.935z"/><path fill="#96637c" d="M123.777 133.798l8.568.72-.792 17.711-3.672.071z"/><path fill="#734d61" d="M119.314 128.831l8.999 9.935-.432 13.534h-24.982l-11.303-19.582z"/><path fill="#96637c" d="M90.732 132.79l8.207 19.727 3.96-.217-7.919-19.654z"/><path d="M154.376 87.506l.719 13.319-13.246 38.013-37.077-.144s5.04-120.663 5.112-122.75c.143-2.087 44.203 19.223 44.203 19.223l.289 52.339z" fill="#efd0cb"/><path fill="#9b6533" d="M153.799 27.247l-18.287 14.111 7.056 30.093 4.607-.144 15.336-4.535 10.943.144-1.009-21.527z"/><path fill="#7c4f24" d="M153.872 91.897l5.254-2.664 14.328-22.317-34.341-10.152 2.591 19.439 13.752.935z"/><path fill="#af7546" d="M117.442 32.143l18.07 9.215 18.574-6.192 18.359 10.223L157.542 15.8z"/><path fill="#af7546" d="M157.542 15.8l-11.735 8.207-25.773 7.631-34.774 6.408-7.055-16.775 3.24-15.406L116.29.033l7.487 9.215 11.447-2.016z"/><path fill="#9b6533" d="M116.29.033L97.284 17.384 89.796 32.79l-10.439-1.08-5.688-17.278 7.776-8.567z"/><path fill="#9b6533" d="M75.83 16.16l-9.36-7.2-13.751 25.486 8.495 16.559 18.791-24.262z"/><path fill="#b1744b" d="M67.478 36.678l1.008-5.904L66.47 8.96l14.975-3.095 1.584 26.925z"/><path fill="#feeee9" d="M61.214 51.005l.792 31.39 5.04 43.7 17.998 12.815 19.727-.216 27.069-12.816 3.672-84.52-18.863-10.151-26.709 2.015-21.166-3.024z"/><path fill="#efd0cb" d="M68.846 61.228l-4.608 3.312 9.935 11.735 9.792 16.558 5.903-5.975 4.031 5.831 16.632-13.318 9.216-1.801 3.022-13.822 3.889-15.047-2.017-.36-11.014 7.415-16.416 15.335-6.191 4.896-1.44 2.952-1.656-3.024-6.191-8.496-3.815-2.231z"/><path fill="#ab7793" d="M129.321 175.411l-6.48 16.054 7.128-3.599 7.056 3.959z"/><path fill="#b3889d" d="M98.939 152.517l-15.838 3.455-4.104 33.405z"/><path fill="#cda39e" d="M88.788 90.817l-4.823 2.016 5.615 4.68 4.896-4.824z"/><path d="M74.173 72.531c2.067 0 3.744 1.676 3.744 3.744 0 2.067-1.677 3.744-3.744 3.744s-3.744-1.676-3.744-3.744c.001-2.068 1.677-3.744 3.744-3.744zM109.667 72.315c2.088 0 3.815 1.656 3.815 3.744s-1.728 3.744-3.815 3.744-3.744-1.656-3.744-3.744 1.656-3.744 3.744-3.744z" fill="#2b2b2b"/><path fill="#fff4f2" d="M87.276 74.979l-3.311 17.854 10.511-.144-2.52-17.494z"/><path fill="#95627c" d="M77.918 111.768l7.27-9.143 4.68 1.08 4.464-1.08 11.519 9.863-10.583 7.559-10.08.216z"/><path fill="#fff" d="M79.933 111.84l7.416-3.24 6.119-.072 9.215 4.103-5.399.217-13.607.144z"/><path fill="#7c4d24" d="M79.789 63.964l-11.663-3.888-4.392 3.096.504 1.368 3.96-1.656 13.535 4.535z"/><path d="M117.01 60.868c.648 2.952 1.08 5.759 1.512 8.639l5.111 2.304.216-4.896 2.16-.432s-1.656-1.943-2.52-3.096l-1.44-4.103-5.039 1.584z" fill="#8c7195"/><path d="M118.522 69.507c.504 3.023.936 6.047 1.368 9.287l5.471-4.751-1.728-2.232-.144-1.368 2.016-.432-1.225-2.304-5.758 1.8z" fill="#83688f"/><path fill="#795c87" d="M92.82 65.332l15.119-14.039 5.903 1.8-.215 2.663-12.384 14.039-4.032 1.296z"/><path fill="#83688f" d="M107.939 51.293l5.688 4.463 3.383-1.007 3.241-1.081 1.294-.359 3.096-4.968-4.176.72-4.535.792-4.248.792z"/><path fill="#795c87" d="M126.297 48.485l-3.456 6.623-7.99 2.448-5.256 7.632 11.375-3.168 1.44 11.951-7.055 9.503 1.655 1.8 10.296-9.647-.217-17.639 1.44-8.423z"/><path d="M107.003 55.685l-4.536 4.175 2.016 1.872 4.032-4.392-1.512-1.655zm-5.976 5.543l2.016 2.087-4.031 4.32-2.16-2.592 4.175-3.815z" fill="#83688f"/><path fill="#cea39f" d="M157.327 79.586l-11.016 9.288 8.783 11.951 4.032-11.592z"/><path fill="#feeeea" d="M145.807 76.491l.504 12.383 12.815.359 2.88-19.222-13.319-1.296z"/><path fill="#cea39f" d="M157.04 72.675l-6.769 1.944.865 9.791z"/><path fill="#734d61" d="M151.423 361.876l-6.191 10.439-4.608 12.166 30.67.217-3.096-34.557z"/><path fill="#96637c" d="M150.919 351.364l17.279-1.223-2.592 25.917-20.374-3.743z"/><path fill="#cc9262" d="M127.809 17.96l29.733-2.16-40.893 15.407zM135.224 7.232l-25.629 15.695-10.583 9.863-9.072.432 7.344-15.838L116.29.033z"/><path fill="#b3889d" d="M77.918 215.872l10.87 18.934-8.423 4.823-3.96 8.136-23.326-27.645z"/><path fill="#feeeea" d="M87.42 241.358l1.224-6.913-11.231 3.457-6.407 14.398 16.487-11.303z"/><path fill="#eecfca" d="M88.788 234.806l5.976 8.423-13.247 15.118-10.511-6.047z"/></svg>