<svg xmlns="http://www.w3.org/2000/svg" viewBox="0 0 400 400"><path fill-rule="evenodd" clip-rule="evenodd" fill="#161511" d="M254.38 399.92l-118.423-9.697 117.852-11.052 110.985 10.427-29.774 3.153z" opacity=".15"/><path fill-rule="evenodd" clip-rule="evenodd" fill="#764056" d="M153.904 176.508l-2.979-17.64 11.464-13.616 51.9-4.104-4.51 40.228-9.85 1.106z"/><path fill-rule="evenodd" clip-rule="evenodd" fill="#ac86ba" d="M338.879 81.437l-12.252 8.414-7.977 13.027-.195 9.505 16.958-14.117 5.994-9.133z"/><path fill-rule="evenodd" clip-rule="evenodd" fill="#5f4937" d="M324.907 75.754l-9.169 11.128-17.319 37.439 8.772-2.601 11.264-9.337 7.507-19.433z"/><path fill-rule="evenodd" clip-rule="evenodd" fill="#77624f" d="M318.455 112.383l-10.18 14.361-9.856-2.423 8.517-5.074z"/><path fill-rule="evenodd" clip-rule="evenodd" fill="#5f4937" d="M225.042 133.155l-9.282-3.097-.905 7.329 8.459 1.624 6.854-1.624z"/><path fill-rule="evenodd" clip-rule="evenodd" fill="#77624f" d="M215.76 130.057l14.408 7.33 8.991-5.674-15.317-8.69zM212.224 92.015l-1.814-29.693-11.162.469z"/><path fill-rule="evenodd" clip-rule="evenodd" fill="#784e7f" d="M233.528 209.383l1.079 38.654 19.485 9.691 32.012-12.597.921-52.455-47.653-5.329z"/><path fill-rule="evenodd" clip-rule="evenodd" fill="#926e9d" d="M300.099 320.155l-22.048-1.034-16.798-30.133-5.814-11.923 16.032-11.218 13.067-9.205 3.86 21.975 22.869-2.673 4.074 33.163z"/><path fill-rule="evenodd" clip-rule="evenodd" fill="#7f5a87" d="M278.051 319.121l37.29-10.014 4.293 35.044-10.402 6.414-14.006-.375z"/><path fill-rule="evenodd" clip-rule="evenodd" fill="#f2d6d2" d="M60.335 141.178l.153 4.605 20.366 4.905 2.2 1.504-1.533-12.822z"/><path fill-rule="evenodd" clip-rule="evenodd" fill="#4b4949" d="M168.099 379.748l.476 6.252h49.96l-.35-7.168-18.337-3.767z"/><path fill-rule="evenodd" clip-rule="evenodd" fill="#403d3b" d="M196.879 359.744l-28.78 20.004 50.086-.916-.965-18.915-2.274-3.278-14.251.071z"/><path fill-rule="evenodd" clip-rule="evenodd" fill="#4b4949" d="M301.073 392.751l-.123-7.063 18.132-3.875 15.751 4.427.187 6.511z"/><path fill-rule="evenodd" clip-rule="evenodd" fill="#403d3b" d="M304.46 366.897l-3.51 18.791 33.883.551-12.701-21.719-3.618-1.931-11.366 1.858z"/><path fill-rule="evenodd" clip-rule="evenodd" fill="#926e9d" d="M207.813 278.24l-4.341 34.807 17.883 7.704 22.039-2.679 28.077-52.226-38.606 5.94-2.376 8.911z"/><path fill-rule="evenodd" clip-rule="evenodd" fill="#7f5a87" d="M203.472 313.047l39.922 5.025-17.263 32.118-13.585-.292-12.953-5.695z"/><path fill-rule="evenodd" clip-rule="evenodd" fill="#4b4949" d="M199.734 343.066l26.397 7.124-8.686 16.707-19.656-7.876zM304.46 366.897l17.672-2.377-2.498-20.369-24.408 6.039z"/><path fill-rule="evenodd" clip-rule="evenodd" fill="#403d3b" d="M242.335 246.292l-1.937 9.268 3.751 5.238 23.078-12.277z"/><path fill-rule="evenodd" clip-rule="evenodd" fill="#4b4949" d="M231.762 260.8l-1.273 19.897 27.423-9.755 6.057-6.66 7.583 1.81 13.785-4.903 1.726-12.565-2.971-5.942-16.865 5.839-5.671 6.433-8.613-1.488z"/><path d="M256.933 254.933c.149 1.039 4.162 12.513 4.162 12.513l9.391-5.684-2.204-8.951-11.349 2.122z" fill-rule="evenodd" clip-rule="evenodd" fill="#403d3b"/><path fill-rule="evenodd" clip-rule="evenodd" fill="#5c5a58" d="M182.781 245.81l4.11 15.106 15.129 3.242-6.826-13.012z"/><path fill-rule="evenodd" clip-rule="evenodd" fill="#403d3b" d="M212.484 215.271l-29.703 30.539 19.239 18.348 11.937-12.884 9.449-16.957z"/><path fill-rule="evenodd" clip-rule="evenodd" fill="#764056" d="M279.959 291.388l31.308-15.444-7.105-30.214-9.534 3.983-10.536-7.031z"/><path fill-rule="evenodd" clip-rule="evenodd" fill="#985674" d="M294.854 253.093l-10.762-10.411 9.315-9.931 7.239-1.985 3.518 14.964z"/><path fill-rule="evenodd" clip-rule="evenodd" fill="#764056" d="M315.363 182.363l-15.761 4.895-15.589 7.722.079 47.702 16.554-11.916zM243.957 293.576l-36.144-15.336 6.144-26.966 10.576.129 17.802-5.111z"/><path fill-rule="evenodd" clip-rule="evenodd" fill="#985674" d="M213.957 251.274l18.987 7.902 9.391-12.884-19.584-11.434-5.599 2.219z"/><path fill-rule="evenodd" clip-rule="evenodd" fill="#764056" d="M212.441 182.707l-13.234-2.54 13.76 44.25 3.94 4.617.245 8.043 25.183 9.215-.19-53.909z"/><path fill-rule="evenodd" clip-rule="evenodd" fill="#926e9d" d="M243.552 147.187l-10.577 16.668 9.171 28.529 41.867 2.596 5.118-26.73-8.908-17.669-16.684 14.588z"/><path fill-rule="evenodd" clip-rule="evenodd" fill="#d4a8a2" d="M263.293 169.164l-19.178-17.94 11.842-5.21 25.935 3.209-8.294 11.599z"/><path fill-rule="evenodd" clip-rule="evenodd" fill="#b9879e" d="M214.289 141.148l-7.98 38.125-6.382 3.209 42.218 9.902-2.26-41.065-5.671-11.81z"/><path fill-rule="evenodd" clip-rule="evenodd" fill="#3e2b17" d="M206.087 202.291l-5.392-17.338 7.292-1.752 5.97 2.572z"/><path fill-rule="evenodd" clip-rule="evenodd" fill="#77624f" d="M204.947 178.568l4.35-1.838 3.867-4.571-2.522-3.095-5.013 2.269z"/><path fill-rule="evenodd" clip-rule="evenodd" fill="#3e2b17" d="M205.629 171.333l-3.688-10.408 9.741 1.213 8.439 4.595-3.628 4.514-4.13 1.536z"/><path fill-rule="evenodd" clip-rule="evenodd" fill="#5f4937" d="M215.579 154.197l-6.722 1.003-6.916 5.725 18.18 5.807-.233-8.059z"/><path fill-rule="evenodd" clip-rule="evenodd" fill="#3e2b17" d="M205.483 147.753l3.374 7.448 11.031 3.471 9.729-5.13-12.772-7.188z"/><path fill-rule="evenodd" clip-rule="evenodd" fill="#5f4937" d="M205.483 147.753l24.134 5.789-3.115-9.692-6.65-2.297-5.563-.405z"/><path fill-rule="evenodd" clip-rule="evenodd" fill="#3e2b17" d="M230.221 141.145l-3.41 3.662-12.522-3.659 5.883-1.258z"/><path fill-rule="evenodd" clip-rule="evenodd" fill="#b9879e" d="M315.363 182.363l-31.35 12.617-3.79-44.399 9.933-8.081 11.968.73 10.244 20.045z"/><path fill-rule="evenodd" clip-rule="evenodd" fill="#764056" d="M370.428 157.187l-55.499 26.603-12.805-40.56 41.278.891z"/><path fill-rule="evenodd" clip-rule="evenodd" fill="#985674" d="M114.492 171.392l39.412 5.116 8.485-31.256-47.374 3.552-4.134 9.756z"/><path fill-rule="evenodd" clip-rule="evenodd" fill="#d4a8a2" d="M87.124 157.779l7.83 14.041 10.772-1.566 1.649-2.481-1.541-2.494-11.319-12.026z"/><path fill-rule="evenodd" clip-rule="evenodd" fill="#403d3b" d="M86.498 94.898l-7.276 42.489 6.569 1.883 7.025-1.883 3.035-43.529-4.306-1.781z"/><path fill-rule="evenodd" clip-rule="evenodd" fill="#5c5a58" d="M93.327 75.594l-6.829 19.303 9.353-1.04 4.462-15.916-3.659-3.517z"/><path fill-rule="evenodd" clip-rule="evenodd" fill="#4b4949" d="M212.967 224.417l67.256-73.836 9.933-8.08 11.968.728-84.972 93.848z"/><path fill-rule="evenodd" clip-rule="evenodd" fill="#926e9d" d="M360.023 96.616l-24.328 23.401-13.932-5.021 13.65-16.731 9.037-5.466z"/><path fill-rule="evenodd" clip-rule="evenodd" fill="#512f5a" d="M347.415 83.046l-39.683 40.2 1.076 2.613 4.756-2.848 37.317-36.501z"/><path fill-rule="evenodd" clip-rule="evenodd" fill="#f2d6d2" d="M306.773 109.004l-8.354 15.317-10.771 1.416-14.717-5.525 1.231-31.598 12.486-49.322z"/><path fill-rule="evenodd" clip-rule="evenodd" fill="#5f4937" d="M285.734 38.037l1.395 8.812 9.457 32.741 3.801 13.16 8.792-13.168-.85-10.571z"/><path fill-rule="evenodd" clip-rule="evenodd" fill="#d4a8a2" d="M314.42 94.755l-3.879-3.294-10.154 1.289 6.386 16.254z"/><path fill-rule="evenodd" clip-rule="evenodd" fill="#fef2f0" d="M324.946 75.77l-6.116-7.578-10.501.819-7.942 23.739 14.033 2.005z"/><path fill-rule="evenodd" clip-rule="evenodd" fill="#d4a8a2" d="M312.644 76.426l-3.853 10.34 9.792-8.174z"/><path fill-rule="evenodd" clip-rule="evenodd" fill="#937e6f" d="M324.832 19.445L293.07 34.157l-5.941 12.693 21.2 22.162 15.273-18.572z"/><path fill-rule="evenodd" clip-rule="evenodd" fill="#77624f" d="M267.077 20.874l8.044 18.173 12.006 7.802 37.705-27.403-27.719-3.054z"/><path fill-rule="evenodd" clip-rule="evenodd" fill="#937e6f" d="M295.938 10.474l-26.543 4.517.154 7.316 55.283-2.862z"/><path fill-rule="evenodd" clip-rule="evenodd" fill="#77624f" d="M278.365.08l-21.85 8.128-13.663 21.694 19.212.101 7.485-7.696 26.389-11.832z"/><path fill-rule="evenodd" clip-rule="evenodd" fill="#937e6f" d="M237.286 1.318l-10.724 20.514.759 9.951 14.914 3.686.617-5.567L278.365.081z"/><path d="M215.482 27.074l-5.173 3.694 17.814-.943 9.164-28.507c-.001 0-21.672 25.944-21.805 25.756" fill-rule="evenodd" clip-rule="evenodd" fill="#77624f"/><path fill-rule="evenodd" clip-rule="evenodd" fill="#fef2f0" d="M207.968 112.383l-.977-47.855 12.228-34.751 47.268.248 15.405 40.971-3.527 49.216-22.404 16.381-22.986-2.626z"/><path fill-rule="evenodd" clip-rule="evenodd" fill="#b9879e" d="M235.045 114.157l-9.131-4.679 12.891-.556 13.599 1.027-9.927 4.208z"/><path fill-rule="evenodd" clip-rule="evenodd" fill="#985674" d="M225.914 109.478l9.751-2.686 2.861.77 3.348-.687 10.53 3.074h-13.889z"/><path d="M86.498 183.64l-2.216-12.941.002.003 4.278-2.993 6.394 4.112v-.002l.895 12.862-4.306 1.781-5.047-2.822zm-5.644-32.952l-1.63-9.519 7.185-1.015 6.408 1.012-5.583 9.419-6.38.103z" fill-rule="evenodd" clip-rule="evenodd" fill="#403d3b"/><path fill-rule="evenodd" clip-rule="evenodd" fill="#784e7f" d="M48.658 141.178l181.563-.033 13.755 2.082 13.573-2.049.853-2.508-2.642-1.283-10.75-1.624-14.842 1.624H48.658l-2.598 1.896z"/><path fill-rule="evenodd" clip-rule="evenodd" fill="#d6d4d3" d="M123.543 33.647l120.243 92.306-1.129.95-3.086-.972-117.162-90.333-.187-1.467z"/><path fill-rule="evenodd" clip-rule="evenodd" fill="#5f4937" d="M213.957 185.773l-13.262-.819 4.652-5.311 4.319-1.659z"/><path fill-rule="evenodd" clip-rule="evenodd" fill="#d6d4d3" d="M123.543 244.891l120.572-93.667-1.079-1.717-3.151 1.812-117.476 91.62-.187 1.469z"/><path fill-rule="evenodd" clip-rule="evenodd" fill="#926e9d" d="M230.221 141.145l9.664 10.173 20.594-.462.107-5.432-3.037-4.246z"/><path fill-rule="evenodd" clip-rule="evenodd" fill="#ac86ba" d="M230.168 137.387l9.403-11.457 32.749.174-16.331 11.393z"/><path d="M29.572 139.19l12.262.41 6.824 1.578-3.383 7.602s-15.634-9.712-15.703-9.59" fill-rule="evenodd" clip-rule="evenodd" fill="#784e7f"/><path fill-rule="evenodd" clip-rule="evenodd" fill="#ac86ba" d="M29.572 139.19l12.332-.286 6.754-1.517-3.383-7.602z"/><path fill-rule="evenodd" clip-rule="evenodd" fill="#f2d6d2" d="M278.365 120.212l-22.605 17.175 2.825 7.838 1.894 5.632 19.744-.277 4.681-14.817z"/><path fill-rule="evenodd" clip-rule="evenodd" fill="#fef2f0" d="M298.419 124.321l-20.054-4.109 1.858 30.368 21.901-7.35 2.863-9.565z"/><path fill-rule="evenodd" clip-rule="evenodd" fill="#926e9d" d="M48.658 137.387l-19.086 1.803 19.086 1.988z"/><path fill-rule="evenodd" clip-rule="evenodd" fill="#403d3b" d="M123.543 33.647l-1.726-1.505-28.49 43.451 6.986 2.348z"/><path fill-rule="evenodd" clip-rule="evenodd" fill="#5f4937" d="M242.852 29.902l26.697-7.594 17.578 24.542-1 20.401-15.725-18.804z"/><path fill-rule="evenodd" clip-rule="evenodd" fill="#77624f" d="M282.269 91.461l-11.867-43.014 16.727-1.598 1.181 32.863-2.856 10.165z"/><path fill-rule="evenodd" clip-rule="evenodd" fill="#5f4937" d="M294.994 107.376l-12.725-15.915 6.041-11.749zM228.122 29.825l-17.868-3.889-11.006 36.853 7.743 1.741z"/><path fill-rule="evenodd" clip-rule="evenodd" fill="#77624f" d="M318.455 112.383l20.424-30.947-5.504-5.451-8.429-.215z"/><path fill-rule="evenodd" clip-rule="evenodd" fill="#5f4937" d="M324.832 19.445l-16.503 49.567 22.24 9.046 8.31 3.379z"/><path d="M267.227 248.521l16.786-53.542.079 47.704-16.865 5.838zm-7.032 38.298l22.237-24.599-39.074 13.897 16.837 10.702zm32.577-133.261l-12.55-2.977 21.901-7.35 46.568 24.374 21.735-10.417-68.304-13.957-9.35 10.327z" fill-rule="evenodd" clip-rule="evenodd" fill="#5d4063"/><path fill-rule="evenodd" clip-rule="evenodd" fill="#985674" d="M368.546 116.222l-60.814 7.024-1.352 10.093 4.735 11.728 59.311 12.12z"/><path fill-rule="evenodd" clip-rule="evenodd" fill="#ac86ba" d="M311.115 145.067l-3.383-21.822-9.313 1.076 3.705 18.909z"/><path fill-rule="evenodd" clip-rule="evenodd" fill="#5c5a58" d="M93.327 202.943l-6.829-19.302 9.353 1.039 4.462 15.918-3.659 3.515z"/><path fill-rule="evenodd" clip-rule="evenodd" fill="#403d3b" d="M123.543 244.891l-1.726 1.507-28.49-43.455 6.986-2.346z"/><path fill-rule="evenodd" clip-rule="evenodd" fill="#f2d6d2" d="M84.283 170.702l10.671 1.119-1.266-18.063-12.834-3.069z"/><path fill-rule="evenodd" clip-rule="evenodd" fill="#fef2f0" d="M80.854 150.688l1.124 6.565 11.71-3.494 12.145 11.52 2.797-8.232-2.459-7.58-13.354-8.3z"/><path fill-rule="evenodd" clip-rule="evenodd" fill="#ac86ba" d="M115.015 148.803l-.523 22.588-8.766-1.137.445-20.787z"/><path fill-rule="evenodd" clip-rule="evenodd" fill="#5c5a58" d="M258.561 255.968l9.72-3.157-1.054-4.29-14.284 4.945 4.969 17.476 13.64-4.85-1.067-4.33-9.171 3.162z"/><path fill-rule="evenodd" clip-rule="evenodd" fill="#33302d" d="M230.763 64.052l1.64 3.344-16.283-1.443-5.452 1.443 5.537-4.039z"/><path fill="#f3d9d4" d="M245.364 97.053l12.282 8.914 11.526-6.364zM230.039 96.575l-13.207 2.903 7.591 3.19z"/><path fill="#fff9f9" d="M234.889 72.467l6.73-.15.657 23.222-9.524-.242z"/><path fill="#d5aba6" d="M232.752 95.297l4.578 4.054 4.946-3.812z"/><path fill="#f3d9d4" d="M241.619 72.317l2.922-5.482 20.78-2.744 5.541.65-16.819 12.442-11.767 18.356z"/><path d="M258.054 76.936c-.533 2.106-2.673 3.381-4.777 2.848-2.106-.533-3.38-2.674-2.847-4.779.533-2.106 2.672-3.381 4.779-2.848 2.106.533 3.38 2.674 2.845 4.779z" fill="#33302d"/><path fill="#f3d9d4" d="M234.889 72.467l-2.486-5.071-16.283-1.443-5.452 1.443 13.756 9.97 8.882 10.348z"/><path d="M228.078 77.197c-.512 2.018-2.564 3.24-4.581 2.729-2.018-.512-3.24-2.563-2.73-4.582.512-2.018 2.564-3.239 4.583-2.728 2.016.511 3.239 2.563 2.728 4.581z" fill="#33302d"/><path fill-rule="evenodd" clip-rule="evenodd" fill="#33302d" d="M245.739 64.078l-1.307 2.965 20.889-2.952 5.541.65-5.644-2.66z"/></svg>