<svg xmlns="http://www.w3.org/2000/svg" viewBox="0 0 400 400"><g fill-rule="evenodd" clip-rule="evenodd"><path fill="#f0d1cc" d="M176.953 150.604l21.618 22.289 28.818-24.921 9.326-39.017.287-20.351 7.533-15.073 1.724-32.836-20.401-27.552-40.489 35.588z"/><path fill="#ffede8" d="M114.353 35.935l3.567 86.803 13.984 27.675 21.739-6.55 28.782 6.712 29.01-35.352.762-74.033 13.661-28.047L177.613 0l-40.019 12.76z"/><path fill="#cfa39e" d="M141.28 120.865l27.606-.964-.244 2.821-27.381.572z"/><path fill="#ffede8" d="M244.498 73.529l-19.01-1.005-2.102 23.988 15.93 2.598z"/><path fill="#cfa39e" d="M229.413 86.934l.836-10.702 9.084.735zM236.715 108.955L223.39 96.512l15.93 2.598z"/><path fill="#fff5f2" d="M145.259 100.535l6.121-30.638 8.27-.087 4.253 29.901z"/><path fill="#cfa39e" d="M145.259 100.535l8.815 7.391 9.829-8.215z"/><path fill="#f0d1cc" d="M119.304 69.616l-.491 8.787 2.038 1.975 14.818.396 3.682 7.859 6.552 8.685 5.477-27.421-2.994.031zM163.903 99.711l12.176-18.53 21.709-3.933 1.728-9.499-15.503-.166-20.27.839-4.093 1.388z"/><path d="M131.904 150.413l-4.889-9.678 5.924-26.207 15.588-6.612 5.865 3.12 5.934-3.247 17.555 5.888 11.496 28.426-6.953 8.472-24.748.137-25.772-.299zm7.251-29.475l32.476-1.132.97 11.488-10.656.51-7.209-4.583-6.514 4.687-9.32.718.253-11.688z" fill="#7d4f26"/><path fill="#545454" d="M244.535 73.531l-43.1-7.28-1.709 1.963 1.596 1.612 24.162 2.698z"/><path fill="#7d4f26" d="M124.909 67.941l.21 3.598 21.791 2.19 1.767-6.315z"/><path d="M120.73 70.536l26.413-.189-1.272 11.996-6.521 6.29-14.76.196-3.74-8.45-.12-9.843zm-2.845-2.42l32.112-.731 1.8 1.857-2.137 1.026-1.663 14.317-7.42 6.57-17.995.077-4.292-10.015-.405-13.101z" fill="#6b6b6b"/><path fill="#7d4f26" d="M165.46 73.398l25.217-3.193.824-3.752-27.758.622z"/><path d="M166.725 69.693l31.115-1.074.089 12.865-4.77 7.265-22.286.41-4.267-4.019.119-15.447zm-2.982-2.618l37.692-.824-.216 15.634-6.475 10.223-25.125.16-5.736-5.788-.14-16.715-1.065-1.546 1.065-1.144z" fill="#6b6b6b"/><path fill="#545454" d="M149.634 70.411l14.109-.645v-2.691l-13.746.31z"/><path d="M135.975 73.745c2.639 0 4.776 2.137 4.776 4.778 0 2.637-2.137 4.777-4.776 4.777s-4.777-2.139-4.777-4.777c0-2.64 2.138-4.778 4.777-4.778M175.157 73.947c2.639 0 4.778 2.14 4.778 4.779s-2.139 4.776-4.778 4.776-4.777-2.137-4.777-4.776 2.138-4.779 4.777-4.779" fill="#2b2b2b"/><path d="M181.367 97.293c1.016 0 1.84.824 1.84 1.842 0 1.016-.824 1.84-1.84 1.84-1.018 0-1.842-.824-1.842-1.84 0-1.018.824-1.842 1.842-1.842" fill="#cfa39e"/><path fill="#f0d1cc" d="M136.812 105.801l-9.437 4.587-1.529 15.054zM174.62 104.001l13.584 24.224-2.97-18.824zM131.6 55.64l19.314 2.542 31.197-5.611zM133.563 47.178l19.314 2.539 31.196-5.611zM201.895 81.236l6.751 3.184.221-3.609zM200.611 84.73l5.313 6.029 1.698-4.055z"/><path fill="#826b94" d="M146.746 271.675l-10.669 9.321-11.945-22.384 17.536-44.078 13.158 6.754 1.99 15.07-.015 15.338z"/><path fill="#a687ba" d="M148.951 267.297l-24.819-8.685-3.208 3.287 1.285 2.65 10.706 9.809 14.104-1.313z"/><path fill="#696969" d="M107.354 311.037l4.642-14.968 15.038-14.102-4.825-17.418 1.923-5.937-6.702.548-16.836 19.435-5.842 19.842 7.021 11.025z"/><path fill="#696969" d="M142.446 286.676l-13.339.528-5.626-6.325 1.344-9.849 10.521-2.291 11.673 4.306z"/><path fill="#cfa39e" d="M130.585 283.051l-7.98 5.667-3.53 9.804 20.843-4.053 2.528-7.793z"/><path fill="#ffede8" d="M127.951 290.437l2.634-7.386-4.57-4.766-6.334 1.221-3.687 4.225.435 7.541 6.176-2.554z"/><path fill="#f0d1cc" d="M119.075 298.522l3.53-9.804-6.611-4.987-3.998 12.338z"/><path fill="#ffede8" d="M115.994 283.731l10.021-5.446 9.331-9.546-13.137-4.19-3.218 9.934z"/><path fill="#8a8a8a" d="M101.773 309.466l15.657-50.306-11.392.935-5.444 18.5 6.157 1.712-6.324 19.561-5.675-1.431-2.46 8.354z"/><path opacity=".102" fill="#2b2b2b" d="M87.403 373.205l135.688-12.007 89.507 12.072L227.739 400z"/><path fill="#875970" d="M223.066 296.879l24.112 37.335 1.116 22.811-6.243 13.579-14.352-8.512-17.353-32.168z"/><path fill="#734d61" d="M243.279 315.158l3.106 2.807.793 16.249-18.533-8.748z"/><path fill="#875970" d="M150.226 354.254l-.685-38.049 19.107-13.249 15.76 23.339-8.292 29.087-12.35 5.719z"/><path fill="#96637d" d="M149.541 316.205l-.699-38.959 26.182 1.644 19.373-.714 49.785-5.365 2.203 45.159-17.74 7.496-18.299 4.458-17.649-32.711-8.289 29.082z"/><path fill="#543042" d="M150.224 354.254l-24.7 16.245 21.264 4.29 30.105-4.93-.781-14.481z"/><path fill="#d1a1b8" d="M125.524 370.499l51.369-.64.381 7.044h-51.75z"/><path fill="#543042" d="M218.422 380.372l9.277-18.28 20.595-5.067 10.61 22.968-19.617 5.776z"/><path fill="#d1a1b8" d="M218.422 380.372l40.482-.379v7.246h-40.788z"/><path fill="#e3e3e3" d="M166.368 152.099l17.828 14.783 5.381 27.05 9.221-27.05 28.591-18.91-.786 113.439-52.858-3.19-6.215-8.97z"/><path fill="#525254" d="M173.516 254.927h26.655l3.291 4.841-5.21 2.562-24.198.314-4.482-2.722z"/><path fill="#7a4f66" d="M148.842 277.246l43.855 19.967 51.489-24.402-8-6.453-37.757-4.72h-24.444l-25.219 2.19z"/><path d="M145.165 162.93l18.658-8.005-2.997 30.738 9.454 22.704 4.139 60.416-14.302 5.688-11.335-7.187-.209-35.821-3.347-17.53-.061-51.003zm82.224-14.958l13.965 7.442 17.461 65.274-8.527 3.919-6.617 37.726-30.496 10.876-16.409-4.756 15.05-59.353 14.534-21.492 1.039-39.636z" fill="#8f75a1"/><path d="M174.418 268.783l.606 10.107-26.182-1.643-.06-9.962 25.636 1.498zm22.347-.33l46.905-6.119.515 10.477-49.784 5.365 2.364-9.723z" fill="#a687ba"/><path fill="#fff" d="M167.123 184.322l15.643-16.612-18.946-12.785zM218.768 181.806l-19.97-14.924 28.591-18.91z"/><path fill="#a687ba" d="M170.279 208.366l-21.28-23.04 14.821-30.401zM211.816 209.1l23.104-17.78-7.531-43.348z"/><path fill="#785c87" d="M241.354 155.412l16.99 9.824 10.311 47.819-14.033 20.745-14.034-14.517zM141.668 214.534l3.497-51.604 3.407 68.533z"/><path fill="#cfa39e" d="M211.977 150.386l-54.272.329 6.117 4.21 19.581 13.197 6.086 29.075 13.357-27.78zM234.107 283.969l13.454-8.105-4.991-13.139-11.952 11.544z"/><path fill="#ccc" d="M230.618 274.273l7.602-.632 23.978 2.183 4.854 40.055-38.407 9.587z"/><path fill="#a687ba" d="M266.287 250.021l-.725 11.29-12.89 6.964-9.856-5.365-.427-8.366 9.357-10.796z"/><path fill="#826b94" d="M240.588 219.283l28.072-6.228-2.373 36.966-23.898 4.523z"/><path fill="#e6e6e6" d="M232.862 293.274l28.052-5.205 3.294 26.162-32.868 8.596z"/><path fill="#f0d1cc" d="M242.57 262.725l23.053-1.418-3.425 14.517-23.978-2.183z"/><path fill="#cfa39e" d="M262.198 275.824l-8.393 13.563-20.943 3.887 5.358-19.633z"/><path fill="#5ebfd9" d="M234.442 305.652l3.681-.222 1.588.809-.194 1.511-.725 1.112-2.61.161-2.155-1.252z"/><path fill="#5ebfd9" d="M234.981 310.195l1.201-1.172 5.478 1.265-.975 2.457-3.468.624z"/><path fill="#73cfe6" d="M241.708 314.514l2.619-.456 2.872 1.696-1.209 1.72-3.915-.999zM249.748 313.413l2.458-2.593 4.523.382-.786 3.082-4.273 1.16z"/><path fill="#5ebfd9" d="M244.327 314.058l1.426-3.597 5.562 1.301-1.567 1.651-2.549 2.341-2.087-.221z"/><path fill="#3ba1ba" d="M256.729 311.202l-.25-1.8 1.977-1.326 3.843.915.749 2.606-4.652 1.768z"/><path fill="#308fa6" d="M244.033 308.29l-2.373 1.998-.975 2.457 1.023 1.769 2.619-.456 1.639-1.349-.213-2.248z"/><path fill="#73cfe6" d="M239.517 307.75l4.516.54-2.373 1.998-2.49.794-2.988-2.059z"/><path fill="#3ba1ba" d="M244.033 308.29l2.702-2.207 2.111 1.458 3.36 3.279-.891.942-3.319.374-3.718-2.183zM238.123 305.43l1.007-1.317 1.897-.516 2.172.028.761 1.43.923 1.411-.85 1.824-2.857.781-1.659-1.321z"/><path fill="#5ebfd9" d="M248.846 307.541l4.347-1.709 2.984.078 2.279 2.166-1.727 3.126-2.006.665-3.408-.105z"/><path fill="#73cfe6" d="M243.96 305.055l.975-.885 1.18.06 1.289-.355 2.11 1.483-.668 2.183-4.813.749z"/><path fill="#5ebfd9" d="M258.456 308.076l1.628-3.476 1.704.334.511 4.057-2.465.753z"/><path fill="#73cfe6" d="M253.193 305.832l1.619-2.444 2.134.185 1.51 4.503z"/><path fill="#3ba1ba" d="M254.812 303.388l-3.746-.923-3.662 1.41 1.442 3.666 4.347-1.709z"/><path fill="#5ebfd9" d="M247.404 303.875l-3.758-3.862-.472.809-1.51 1.277-.637 1.498 2.933 1.458 2.155-.822z"/><path fill="#73cfe6" d="M235.472 305.587l-.652-2.058.97-2.421 3.054 1.361-.721 2.961-1.292.963z"/><path fill="#73cfe6" d="M238.844 302.469l1.507-1.562 2.823-.085 1.16 1.498-1.747.677-1.56.6z"/><path fill="#3ba1ba" d="M256.946 303.573l2.038-1.019 1.1 2.046-1.628 3.476-1.973-1.881z"/><path fill="#5ebfd9" d="M238.123 305.43l1.571-.991 1.333-.842-2.183-1.128-1.394 1.309z"/><path fill="#73cfe6" d="M244.548 305.886l1.354-1.431 1.103-1.164 4.524.383-.786 3.082-1.897.788-2.381.372z"/><path fill="#3ba1ba" d="M251.529 303.674l-.254-1.805 1.978-1.325 3.842.919.749 2.601-4.651 1.768z"/><path fill="#5ebfd9" d="M243.646 300.013l2.259-2.543 2.087.835 2.985.076 2.276 2.163-1.724 3.13-2.006.665-3.408-.106zM253.253 300.544l1.626-3.476 1.709.338.507 4.057-2.461.749z"/><path fill="#73cfe6" d="M247.992 298.305l1.619-2.449 2.131.188 1.511 4.5z"/><path fill="#3ba1ba" d="M249.611 295.856l-3.746-.923-3.661 1.41 1.442 3.67 4.346-1.708zM251.742 296.044l2.042-1.023 1.095 2.047-1.626 3.476-1.975-1.877z"/></g></svg>