<svg xmlns="http://www.w3.org/2000/svg" viewBox="-152 -152 400 400"><path fill="#2b2b2b" fill-opacity=".102" d="M-6.955 230.534l77.278-6.714 77.865 6.125-80.34 16.962z"/><path fill="#6f7173" d="M77.274 216.116l-3.576 16.52 17.711 3.434 14.49-3.06-4.594-17.437-11.897-11.425z"/><path fill="#646668" d="M52.416 206.506l-19.756 5.749-16.902 16.306 24.526 1.738 18.967-2.001.471-13.431z"/><path fill="#474a4b" d="M15.758 228.561v3.603l43.493.14v-4.006z"/><path fill="#4f5253" d="M73.698 232.636l32.201.374v4.476H73.698z"/><path fill="#594165" d="M59.722 214.867l-27.062-2.612-6.993-28.229 19.8-21.697 11.955 23.793z"/><path fill="#6c547a" d="M25.667 184.026l-11.939-48.2 56.949 3.53-15.667 16.609 2.412 30.157z"/><path fill="#594165" d="M101.305 215.573l-24.031.543-10.323-29.994 15.744-36.399 17.01 33.196z"/><path fill="#785d88" d="M99.705 182.919l-32.754 3.203-11.941-30.157 12.367-26.504 30.199 11.388z"/><path fill="#594165" d="M96.714 123.807l.862 17.042-42.566 15.116-41.282-20.139-2.188-20.855 7.892-5.301 73.507 5.654z"/><path fill="#606262" d="M116.854 40.52l-10.366-16.023-7.542 2.004-2.942 38.757 5.301 6.478 17.79 18.496L131.58 63.14z"/><path fill="#717374" d="M150.782 80.926l-31.687 9.306-.828-19.555 11.311-10.485 13.545-.352z"/><path fill="#6a6a6a" d="M118.267 70.677l-.471-10.72 9.075-11.898 13.31 3.651 3.064 8.012z"/><path fill="#feeee9" d="M132.286 30.389l7.895 21.321-22.385 8.247-1.413-30.512 9.543-3.651z"/><path fill="#cea39f" d="M128.872 2.115l.824 7.304-.589 12.604-3.181 3.771-3.65-5.301.585-16.022z"/><path fill="#eecec9" d="M148.663 20.023l-16.377 10.366-15.903-.944 13.313-20.026 8.247-2.945z"/><path fill="#feeee9" d="M143.716 3.294l4.947 16.729-18.967-10.604 5.301-18.141z"/><path fill="#606262" d="M26.853 31.801l-2.709 49.831-9.189 4.358-4.24-1.058-13.077-23.445.473-1.882L23.438 14.72z"/><path fill="#717374" d="M-17.44 85.99h32.395L-1.889 59.605l-14.843-.825-5.186 13.427z"/><path fill="#606262" d="M-1.889 59.605l-4.83-7.542-17.908 12.018 2.709 8.126z"/><path fill="#ffeee9" d="M-18.029 34.275l11.31 17.788-17.908 12.018-7.539-22.855 6.833-5.89z"/><path fill="#4d4d4d" d="M96.714 112.495v11.312l-34.28-3.535-2.242-1.883-27.212-2.948-1.414 1.649-20.026-2.119 1.059-9.542 41.586-9.543z"/><path fill="#969494" d="M62.434 120.272l-30.868-3.182.353-14.02 30.515 4.595z"/><path fill="#4d4d4d" d="M57.246 112.617l-.118 3.531-20.026-2.119.235-2.947z"/><path fill="#6a6a6a" d="M96.714 112.495l-84.115-7.066L23.438 14.72l55.133 35.224z"/><path fill="#717374" d="M40.166 14.366l48.536-2.826 2.825 3.18 14.961 9.777-9.774 87.998L23.438 14.72z"/><path fill="#efd0cb" d="M38.399 12.01L34.628-6.366l1.886-120.984 63.025 3.533-5.418 69.268 12.251 6.598L94 9.89l-43.35 8.13.706-4.36-.117-4.948z"/><path fill="#c4c4c4" d="M82.46-104.732l4.829-21.912 24.044 10.811 1.494 38.831-20.943 11.146-8.605-9.308z"/><path fill="#cea39f" d="M80.926-11.549L70.323 14.484 50.65 16.605l-10.131-3.888-3.182-4.593-3.415-12.96z"/><path fill="#b8b8b8" d="M83.279-75.164l-3.06 28.155-11.195 10.603L31.33-14.849 51.004-1.065l29.922-10.484 11.78-41.021 5.654-20.002z"/><path fill="#ffeee9" d="M7.062-137.834l52.778-2.947 14.372-2.709 2.354 19.673-4.002 5.066-.828 79.754L44.641-6.248l-41.7 2.591-13.548-43.47 2.944-66.794z"/><path fill="#efd0cb" d="M38.87-88.83l-5.301 2.947-2.945 6.714v2.591l-4.712 10.249 4.712 20.499L42.64-72.689l14.606-3.418 3.771-1.766 8.243-8.129-19.316-4.122zM17.076-45.83L9.537-64.68l-4.948-9.542-8.834-5.771-4.477-12.487 3.651-1.885 16.964 3.771 3.18 3.651.237 2.945 1.766 6.715 6.245 13.548-6.245 17.905z"/><path fill="#cececd" d="M10.125-128.765l-3.063-9.069 27.921-10.25 19.791-2.945L87.5-145.61l-10.816 8.011-16.962.589-13.902.471-16.964 8.128z"/><path fill="#ffeee9" d="M112.827-77.002l-6.062 27.283-14.059-2.851 3.307-26.165z"/><path fill="#cea39f" d="M107.784-71.277L97.418-58.67l2.655-13.666z"/><path fill="#e1e2e6" d="M111.333-115.833L82.46-104.732 59.722-137.01l27.778-8.6z"/><path fill="#734d61" d="M59.129-72.454l12.607-.118 23.572-.525.705-5.638-23.89 2.452-10.988-.06h-2.006z"/><path fill="#cececd" d="M-5.777-31.695l8.009 8.6-1.53-10.837L17.076-45.83h13.548l20.38 9.66.706 11.543 20.026-14.37L51.004-1.065 2.941-3.657z"/><path fill="#ffeee9" d="M42.522-35.935l.471 16.611-11.309 8.363-4.595-6.715-7.304-.471-4.357 5.654-7.186-5.772-.591-17.316 15.316 1.296z"/><path fill="#fef4f2" d="M17.429-77.402l-.353 31.572h13.548v-30.748z"/><path fill="#9da1a2" d="M30.624-45.83L23.556-41l-6.48-4.83z"/><path d="M30.624-62.912V-79.17l7.893-7.421h12.369l10.249 8.718v15.902l-11.781 4.712-18.73-5.653zm26.622-13.195l-7.774-6.596h-9.541l-5.421 5.771.118 10.366 14.608 5.301 8.132-3.298v-11.545h-.122zM-8.369-63.853v-17.555l9.895-6.36 13.666 3.769 2.236 3.77-.235 14.608-6.596 4.948H2.586l-10.955-3.18zm22.029-3.771l-.471-12.958-11.663-3.18-5.772 3.651-.118 13.193 7.422 2.238h6.36l4.124-2.827.118-.117z" fill="#96637c"/><path fill="#96637c" d="M16.487-72.689l6.833-3.654 7.304 4.007 1.295-3.651-8.716-4.242-8.366 4.122z"/><path fill="#b8b8b8" d="M14.131-93.186l1.061 6.242-23.797-5.536 4.713-3.181zM33.569-85.883l1.297-5.891h25.326l9.068 5.772z"/><path fill="#cea39f" d="M106.765-49.719l-2.913 13.549-11.146-16.4z"/><path fill="#6a6a6a" d="M95.081 17.042l-.703-8.918-44.317 5.066-4.358 2.355 3.062 3.063z"/><path fill="#8a8c8e" d="M50.061 13.19l-1.296 5.418-12.134-4.242.706-6.242z"/><path d="M42.636-76.998c2.155.102 3.819 1.928 3.72 4.083-.102 2.153-1.928 3.819-4.083 3.72-2.155-.102-3.819-1.928-3.72-4.083.101-2.156 1.928-3.82 4.083-3.72zM5.382-78.731c2.155.101 3.819 1.928 3.72 4.083-.102 2.153-1.928 3.819-4.083 3.72-2.155-.102-3.819-1.928-3.72-4.084.101-2.154 1.928-3.819 4.083-3.719z" fill="#2b2b2b"/><path fill="#cea39f" d="M9.183-33.108l14.02.942 17.905-.471-.471 2.003-17.787.824-13.431-1.177z"/><path fill="#efd0cb" d="M-44.771 30.389l12.605 10.837 14.137-6.951-4.006-9.542-9.423-9.541z"/><path fill="#e1e2e6" d="M-30.281-21.327l21.559 42.173-22.383 11.308-23.679-42.173z"/><path fill="#817977" d="M-24.39 18.255l2.71.941.824 3.535-2.356 1.295-2.945-1.532-.353-2.471z"/><path fill="#a7a7a7" d="M-31.223-14.967l13.547 27.921-14.255 9.658-16.962-28.507z"/><path fill="#ffeee9" d="M-46.301 5.179l12.605-1.414 3.18 28.036-14.255-1.412zM-14.376 9.89l-6.48 5.185 3.886 7.419 8.248-1.648z"/><path fill="#cea39f" d="M-18.029 34.275l9.307-13.429-12.37 6.243z"/><path fill="#efd0cb" d="M33.804-50.895l17.2 14.725-7.069-12.605zM13.307-49.719L.702-33.932l3.887-13.313z"/><path fill="none" d="M-151.5-151.5h399v399h-399z"/></svg>