<svg xmlns="http://www.w3.org/2000/svg" viewBox="0 0 400 400"><path fill="#2b2b2b" d="M108.133 389.421l120.325-23.116 118.648 26.382-120.025 7.679z" opacity=".102"/><path fill="#efd0cb" d="M277.305 316.719l11.179 49.586-15.817 3.398-30.079-52.984zM166.965 305.271l-6.944 61.034h18.672l22.021-55.275z"/><path fill="#594265" d="M254.176 337.131l18.491 32.572 15.817-3.398-7.965-35.331-26.343 6.157z"/><path fill="#cea39f" d="M277.305 316.719l-32.207 4.422-4.683-8.249 16.845-3.225z"/><path fill="#594265" d="M178.693 366.305l4.471 8.894-5.346 14.222h-3l-1.433-13.767z"/><path fill="#795d88" d="M160.021 366.305l-27.036 23.116h32.584l17.057-15.291-3.933-7.825z"/><path fill="#594265" d="M164.04 330.975l-4.019 35.33h18.672l12.158-30.517-26.81-4.814z"/><path fill="#cea39f" d="M166.965 305.271l31.481 11.448 3.131-7.858-10.726-6.245z"/><path fill="#685c55" d="M178.928 54.381l-15.557 31.704-11.813-4.922 14.472-24.421z"/><path fill="#554b43" d="M162.288 81.163l7.582 27.769-10.635-1.873-7.678-25.896z"/><path fill="#73675f" d="M167.802 106.074l1.871 29.937-13.097 4.23 2.659-33.182z"/><path fill="#453b32" d="M166.128 131.578l22.943 22.546-19.201 1.48-13.294-15.363z"/><path fill="#322b25" d="M177.453 145.854l11.618 8.271-3.643 24.911-10.439 5.811-5.119-29.243z"/><path fill="#383029" d="M166.128 131.578l17.035 22.943 2.265 24.515 12.308-9.256 1.182-10.24v-7.875l-9.847-23.04-6.99-13.69z"/><path fill="#322b25" d="M194.584 148.317l.493 1.279 22.545 2.069-11.024-33.973-7.188-1.476-19.299 6.5z"/><path fill="#685c55" d="M167.802 106.074l-1.673 25.504 13.982-8.863-1.183-22.843z"/><path fill="#453b32" d="M162.288 81.163l5.514 24.911 9.651-1.182-2.167-26.98z"/><path fill="#554b43" d="M178.928 54.381l-16.64 26.782 10.043.985 9.75-13.884z"/><path fill="#5f5044" d="M174.989 31.044l3.939 23.337 10.143-19.3V22.575z"/><path fill="#efd0cb" d="M271.317 221.75l-14.994-25.284-5.81-39.386 20.581.492 17.725 49.331.984 13.786z"/><path fill="#feeee9" d="M208.962 141.128l36.827 2.266-1.674 43.027-32.2 21.369-28.751-26.389z"/><path fill="#d1a1b8" d="M256.323 196.466l5.415-35.348-6.698-20.284-9.449 2.658-7.877 38.499-9.256 19.3 5.909 18.019 13.782-7.779z"/><path fill="#efd0cb" d="M145.549 203.655l37.615-49.135 5.217 28.061-9.353 14.081-16.21 25.087-13.922-7.756z"/><path fill="#d1a1b8" d="M207.483 143.294l-24.32 11.226-4.135 42.142 2.265 22.252 9.059 4.531 10.438-14.965-3.054-24.125z"/><path fill="#feeee9" d="M114.828 239.395l30.72-35.74 17.269 18.095-26.623 17.842-20.382 6.797z"/><path fill="#734d61" d="M208.369 238.51l10.241-25.205-5.218-18.219-15.657-10.731-7.383 39.09 3.74 11.52z"/><path fill="#b3889d" d="M178.339 228.762l5.217 2.858 6.796-8.175-11.325-26.782z"/><path fill="#734d61" d="M166.965 305.271l3.201-23.042 17.527-30.722 20.676-12.997 58.883 37.514 10.053 40.695z"/><path fill="#d1a1b8" d="M186.511 291.778l-16.344-9.549 8.172-53.467 12.012-5.317 18.019 15.065z"/><path fill="#d1a1b8" d="M233.479 292.173l-25.11-53.663 11.322-18.511 14.676-.689 11.91-1.574 8.763 7.776 12.212 50.514z"/><path fill="#b3889d" d="M256.323 196.466l-1.283 29.047-11.122-3.347-9.551-2.856 11.714-12.21z"/><path fill="#96637c" d="M208.369 238.51l15.064-11.126 10.934-8.074 3.347-37.319-24.322 13.095z"/><path fill="#efd0cb" d="M102.914 260.96v-11.91l11.914-9.655 8.369 12.41-7.68 6.692-5.907 4.237-3.053.784z"/><path fill="#9075a0" d="M102.914 260.96l6.893 1.478 3.545 2.561-1.774 7.68-8.368-4.826z"/><path fill="#feeee9" d="M111.579 272.679l-1.281-7.778-.491-2.463 1.378-7.579 12.012-3.054 5.612 12.897z"/><path fill="#a588b9" d="M95.628 251.119l22.843 31.013-15.459.489-11.521-4.137 2.365-9.449z"/><path fill="#9075a0" d="M46.69 313.739l47.166-44.704 9.156 13.586-30.722 34.758-12.898 22.06-20.48-5.221z"/><path fill="#a588b9" d="M6.318 335.796l40.372-22.057 9.353 12.112-14.08 6.005z"/><path fill="#9075a0" d="M59.392 339.439l-53.074-3.645 49.724-9.943z"/><path fill="#a588b9" d="M103.012 282.621l-43.62 56.818-3.35-13.588z"/><path fill="#9075a0" d="M130.288 232.21l5.907 7.382-12.998 12.213-5.119-7.584z"/><path fill="#feeee9" d="M315.105 246.092l-26.286-39.189-17.502 14.847 32.762 34.585z"/><path fill="#9075a0" d="M310.875 276.813l15.752 16.743 8.86.488-2.851-6.99-20.681-30.032z"/><path d="M338.439 280.458l-5.804 6.497-6.01 6.497L315.6 303.99l-8.57-2.067-4.922 23.632 17.135 20.875 28.06 1.574 2.559-45.397 12.504-14.964-.391-19.887-10.138-2.066 1.674 16.246-7.88 10.533-7.192-12.208v.197zm-8.169 26.484l-6.403 5.415-1.964 8.374 8.763 6.001 8.074-1.964.688-11.029-9.257-6.797h.099z" fill="#795d88"/><path fill="#a588b9" d="M347.304 348.102l6.404-45.295-.89-2.755-5.712 2.661z"/><path fill="#9075a0" d="M353.708 302.807l12.108-12.504-3.84-22.349-2.265 20.384-12.605 14.375z"/><path fill="#a588b9" d="M307.03 302.022l-17.326-4.137 4.135 28.847 12.701 4.242 3.743-6.502z"/><path fill="#9075a0" d="M293.839 326.732l20.088 24.623 11.126-3.253-.494-6.497-14.276-17.133z"/><path fill="#a588b9" d="M313.927 351.355l31.409 10.728 1.968-13.981-22.745-6.497z"/><path fill="#9075a0" d="M287.536 252.396l11.62 10.535 8.565-.786-.295-8.964-9.554-12.504z"/><path fill="#efd0cb" d="M321.801 269.82l2.659-11.615-9.355-12.113-11.026 10.243 4.729 7.681 5.904 5.612z"/><path fill="#feeee9" d="M311.462 277.503l3.25-7.875.393-7.679-11.026-5.614-8.369 11.226z"/><path fill="#efd0cb" d="M245.789 143.393l-21.173 19.102 5.417-35.512 21.171-79.742 11.518 68.09z"/><path fill="#feeee9" d="M170.954 44.141l-4.628 10.24 5.217 11.814 1.084 39.29 13.489 21.498h43.917l13.244-16.784 7.334-54.144-8.564-20.089L221.27 9.874l-27.473 2.561-13.096 18.708z"/><path fill="#efd0cb" d="M172.825 58.434l14.967 11.799 8.959 15.361 4.825 2.558 4.826-2.558 14.356-17.164 18.564-12.11-10.667-3.319-20.489 6.306-4.136 4.133-2.256 2.559-2.856-2.484-2.607-3.611-16.987-4.835z"/><path fill="#fef5f3" d="M198.918 63.515l5.112-.075.277 16.339 2.095 5.813h-9.651l2.179-5.95z"/><path fill="#534941" d="M209.107 56.846l-.941 2.461 21.139-4.926 10.017 1.939-10.371-5.289zM172.825 58.434l6.792-4.646 15.406 3.635 1.288 2.481-16.823-3.058z"/><path fill="#cea39f" d="M201.182 90.716l-4.431-5.121h9.65z"/><path fill="#594265" d="M187.62 101.843l5.563-1.971 5.593-3.839 2.26 1.75 3.121-2.444 8.614 2.527 8.442 1.022-19.124 4.232z"/><path fill="#795d88" d="M202.421 104.949l-4.154 1.125-10.647-4.233 33.593-2.954-14.418 6.469z"/><path fill="#cea39f" d="M201.577 126.983l5.906 16.311 17.133 19.201 22.55-35.512h-7.844z"/><path fill="#685c55" d="M230.032 4.162l16.152.491 15.752 9.653-3.154 14.967z"/><path fill="#cea39f" d="M225.501 14.306l-4.231-4.432-27.473 2.561-5.811 8.269-1.87 19.003 32.296-21.07 8.472.099z"/><path fill="#554b43" d="M261.936 14.306l11.325 13.095.291 8.271-9.355 3.054-6.984-17.037z"/><path fill="#685c55" d="M273.261 27.401l-8.762 7.68 5.02 18.608 12.405-8.958z"/><path fill="#554b43" d="M281.924 44.731l8.766 32.001-21.171 6.794 2.659-34.562z"/><path fill="#453b32" d="M290.69 76.732l-7.784 19.299-17.525 6.697 8.171-25.996z"/><path fill="#554b43" d="M282.906 96.031l10.933 42.537-19.4-2.854-4.92-39.094z"/><path fill="#453b32" d="M293.839 138.568l-14.965 40.567-22.552 17.332 8.862-39.19-4.728 1.477 16.349-28.064z"/><path fill="#554b43" d="M230.032 4.162l27.181 17.527-5.915 15.459-24.124-13.686-15.357-17.329z"/><path fill="#453b32" d="M251.204 27.5l6.009-5.811 14.965 27.275 1.374 27.768-15.062 5.708z"/><path fill="#554b43" d="M273.552 76.732l-4.033 19.89-14.869 2.954 9.849-22.844z"/><path fill="#453b32" d="M269.519 96.622l7.286 34.068-9.158 5.91-8.076-1.379-3.643-20.579 2.069-17.724z"/><path fill="#383029" d="M276.805 130.69l-20.483 65.776-18.608-14.476 8.959-35.643 14.67-15.065z"/><path fill="#685c55" d="M208.862 11.055l7.386-4.922L251.204 27.5l-4.63 9.649-4.527-1.183-24.815-16.64z"/><path fill="#383029" d="M251.204 27.5l11.912 25.402 1.384 23.83-6.01 5.708-3.449-4.627-4.43-21.758-8.564-20.089z"/><path fill="#685c55" d="M264.499 76.732l-6.502 20.186-6.699 2.658-4.132-4.53 7.874-17.232z"/><path fill="#383029" d="M257.997 96.918l1.574 16.639 1.772 17.725-6.303-4.727-1.965-5.121-5.909-26.387z"/><path fill="#322b25" d="M253.075 121.434l-12.9 27.078-2.461 33.479 23.629-50.709z"/><path fill="#383029" d="M178.633 27.203l6.203-19.593-25.404 20.678 10.635 9.549z"/><path fill="#554b43" d="M169.28 34.489l3.545 8.568-1.577 12.701.296 10.437-8.271-4.825-3.84-33.082z"/><path fill="#322b25" d="M171.248 55.759l14.868-16.052 1.676-22.055-9.354 2.757-9.158 13.983z"/><path fill="#453b32" d="M224.123 11.252l5.909-7.09-17.626-4.528-8.269 3.148 5.217 7.881z"/><path fill="#383029" d="M224.123 11.252l-19.986-8.47-10.044 8.47 1.084 9.943 22.055-1.871z"/><path fill="#453b32" d="M184.837 7.608l19.3-4.826-18.021 36.925-7.678-19.299z"/><path d="M191.678 70.232c0 2.146-1.739 3.887-3.886 3.887-2.147 0-3.886-1.74-3.886-3.887 0-2.146 1.74-3.886 3.886-3.886 2.146.001 3.886 1.741 3.886 3.886zM225.24 68.429c0 2.146-1.74 3.887-3.886 3.887-2.147 0-3.887-1.74-3.887-3.887 0-2.146 1.739-3.886 3.887-3.886 2.146 0 3.886 1.74 3.886 3.886z" fill="#2b2b2b"/><path fill="#efd0cb" d="M213.392 195.086l1.085-10.731-4.966 8.071z"/><path fill="#795d88" d="M288.484 366.305l15.595 26.382-26.774.295-4.638-23.279z"/><path fill="#594265" d="M272.667 369.703l-2.509 11.214 4.785 11.77 2.362.295z"/></svg>