<svg xmlns="http://www.w3.org/2000/svg" viewBox="0 0 400 400"><path fill-rule="evenodd" clip-rule="evenodd" fill="#cbcaca" d="M168.444 2.187L217.647 0l-9.841 4.92-30.341 9.02-23.233-5.192z"/><path opacity=".1" fill-rule="evenodd" clip-rule="evenodd" fill="#2c2b2b" d="M338.41 378.251L209.553 400 61.59 368.735l86.659-3.313 131.705 2.254z"/><path fill-rule="evenodd" clip-rule="evenodd" fill="#5e5f5f" d="M149.756 137.934l-13.388-.372 6.87 22.646 11.132-9.584z"/><path fill-rule="evenodd" clip-rule="evenodd" fill="#745584" d="M125.053 203.991l-12.73-.547-18.612 17.425 19.37 8.495 24.215 8.182-.806-14.246z"/><path fill-rule="evenodd" clip-rule="evenodd" fill="#5f3f70" d="M154.37 161.583l2.885 6.343-8.121 68.996-6.878 4.837-13.382-39.223z"/><path fill-rule="evenodd" clip-rule="evenodd" fill="#4f4d4d" d="M282.234 372.497l-12.49 3.477-32.987-2.191 11.083-24.182 15.546-.925 9.213 3.448z"/><path fill-rule="evenodd" clip-rule="evenodd" fill="#393939" d="M238.814 377.474l43.42.621v-5.598l-43.349-.622-2.128 1.908z"/><path fill-rule="evenodd" clip-rule="evenodd" fill="#6d6e6e" d="M272.599 352.124l-24.851-1.167-9.954-63.323 25.592-6.884z"/><path fill-rule="evenodd" clip-rule="evenodd" fill="#9e6883" d="M224.851 382.49l21.185-4.912 8.495-90.352-2.681-2.108-35.274-21.639-3.131 112.714z"/><path fill-rule="evenodd" clip-rule="evenodd" fill="#ca95af" d="M151.872 378.636l72.979 3.854 5.991-104.495-13.023-4.416-90.459-3.104-4.037 4.039z"/><path fill-rule="evenodd" clip-rule="evenodd" fill="#915976" d="M254.531 287.226l-23.689-9.231-107.519-3.481-18.131-8.38 5.766-6.922 119.549-17.109 33.365 42.413z"/><path fill-rule="evenodd" clip-rule="evenodd" fill="#5e5f5f" d="M142.256 241.759l-5.269-3.785-24.844-70.746 2.428-3.916 5.193 2.885 25.844 70.91z"/><path fill-rule="evenodd" clip-rule="evenodd" fill="#969697" d="M112.842 146.585l9.14 3.809 2.681 7.729-4.899 8.074-21.346 2.884-5.061-13.139z"/><path fill-rule="evenodd" clip-rule="evenodd" fill="#5e5f5f" d="M119.186 135.627l7.499 2.307 10.957 11.535-4.036 16.151-4.615 7.498-9.227-6.921 2.304-12.113-9.226-7.499z"/><path fill-rule="evenodd" clip-rule="evenodd" fill="#484848" d="M141.104 168.504l-12.113 4.614 4.037-22.494 5.768-3.462 7.497 1.154z"/><path fill-rule="evenodd" clip-rule="evenodd" fill="#969697" d="M132.451 133.318l13.842 14.998-13.265 2.308-13.842-14.997z"/><path fill-rule="evenodd" clip-rule="evenodd" fill="#5f3f70" d="M270.867 153.337l20.297 35.167 11.662 34.454-24.811-1.442-11.975-6.263-4.385-34.636z"/><path fill-rule="evenodd" clip-rule="evenodd" fill="#745584" d="M309.543 220.518l-23.515 23.265-12.601 10.947-8.601-24 26.338-42.226zM270.884 153.507l-7.944 101.254-37.625-16.464-38.644.577v-29.417l3.704-7.433 50.514-22.561 13.844-30.57z"/><path fill-rule="evenodd" clip-rule="evenodd" fill="#8e709e" d="M168.79 153.507l-14.42 8.076-8.762 75.524 4.725 4.075 36.338-2.308 4.216-4.16.399-29.871-20.19-25.38z"/><path fill-rule="evenodd" clip-rule="evenodd" fill="#5f3f70" d="M198.783 221.571l-7.627-7.137-6.216 7.714 6.023 6.703z"/><path fill-rule="evenodd" clip-rule="evenodd" fill="#8e709e" d="M246.659 183.502l8.074-34.609-43.837 19.611-19.61 36.339z"/><path fill-rule="evenodd" clip-rule="evenodd" fill="#745584" d="M164.072 185.504l27.214 19.339-6.922-38.646-15.574-12.69z"/><path fill-rule="evenodd" clip-rule="evenodd" fill="#c4c4c4" d="M214.356 175.425l-.576-10.381-7.498-4.039-15.574.578-5.768 1.152-4.615 7.5 5.192 16.728 18.459 2.306z"/><path fill-rule="evenodd" clip-rule="evenodd" fill="#5e5f5f" d="M191.286 204.843l12.69-15.574-2.308-19.612-5.192-2.307-3.461 2.307-7.498 17.306z"/><path fill-rule="evenodd" clip-rule="evenodd" fill="#cea19c" d="M238.968 123.551l-6.562 19.134-31.707 12.027-21.609-11.514-6.134-16.625-8.616-15.518 48.241-17.41z"/><path fill-rule="evenodd" clip-rule="evenodd" fill="#484848" d="M209.742 160.43l-8.074 9.227h-8.653l-5.191-9.806 13.268-5.767z"/><path fill-rule="evenodd" clip-rule="evenodd" fill="#f0cfc9" d="M252.623 92.412l-10.939 44.871-20.324 11.844 7.417-19.785-22.1-.787 15.342-67.873 3.552-21.867 22.458 1.24z"/><path fill-rule="evenodd" clip-rule="evenodd" fill="#cbcaca" d="M248.195 58.883l-12.833-3.589.167-10.572-9.958-5.907 3.441-19.138 3.667-5.737 24.109 6.282 4.867 30.653z"/><path fill-rule="evenodd" clip-rule="evenodd" fill="#cea19c" d="M252.623 92.412l-11.086-20.228h9.141l6.11 3.145z"/><path fill-rule="evenodd" clip-rule="evenodd" fill="#feeee9" d="M261.655 50.875l-16.381-4.179-3.737 25.488 15.251 3.145z"/><path fill-rule="evenodd" clip-rule="evenodd" fill="#cea19c" d="M255.342 55.058l-5.784-1.64-.633 13.451z"/><path fill-rule="evenodd" clip-rule="evenodd" fill="#b9b9b9" d="M217.647 0l39.141 20.222-27.776-.545-15.74-7.103-7.654-7.654 2.734-1.913z"/><path fill-rule="evenodd" clip-rule="evenodd" fill="#feeee9" d="M223.01 109.055l-16.333 19.5-44.34-2.607-14.762-10.821-1.404-49.928.953-22.557 7.108-33.894 21.867 1.913 31.707-5.741 21.206 14.757-1.523 39.909z"/><path fill-rule="evenodd" clip-rule="evenodd" fill="#f0cfc9" d="M183.71 38.19l-5.418 4.001-2.027-7.128 3.64 2.291zM162.514 38.147l4.054-.475 4.028-2.779-2.091 7.152zM171.725 72.163l-7.385-2.691-18.169-4.273 1.713-1.309 31.314.473 19.393.293 1.151 1.38-21.183 3.88zM186.212 52.482l-8.484 9.32-5.887-10.956 10.511-6.66 18.074.096 3.52 5.362-17.734 2.838zm-16.749-5.872l-4.34-2.515-16.359-.087-1.756 1.429-.231 5.485 13.295.493 6.483 10.378 5.622-6.291-2.714-8.892z"/><path fill-rule="evenodd" clip-rule="evenodd" fill="#8e8d8d" d="M206.677 39.706v2.865l-11.699-3.03-16.686 2.65 1.613-4.837 16.554-1.77zM166.568 37.672l1.937 4.373-14.079-2.211-7.008 1.409.759-3.628 6.141-1.309z"/><path fill-rule="evenodd" clip-rule="evenodd" fill="#cea19c" d="M185.938 98.478l6.552-12.707-37.328-.005 6.448 11.82z"/><path fill-rule="evenodd" clip-rule="evenodd" fill="#fff" d="M188.16 87.765l-3.183 7.925-22.078-.673-3.31-7.503z"/><path d="M200.699 42.642l6.014 6.013 4.066 3.764-4.313 1.648-.301 6.614-6.56 5.467-21.909-.686-1.196-3.741 22.028 1.078 4.251-3.917.333-9.054-3.371-3.524-16.719.667-7.662 4.667.866-4.48s5.88-4.432 6.23-4.406c.351.027 18.243-.11 18.243-.11zM147.124 42.642l-5.193 5.466-.274 11.481 4.515 5.61 19.909.423 2.425-3.901-21.729-.083-1.914-3.167.166-8.926 2.39-3.157 16.922-.25 8.616 6.934-2.047-6.376-5.707-3.514c-.351.024-18.079-.54-18.079-.54z" fill-rule="evenodd" clip-rule="evenodd" fill="#6f7173"/><path fill-rule="evenodd" clip-rule="evenodd" fill="#fef4f2" d="M170.91 46.696l5.317.462 2.332 22.758-7.38 1.153-6.839-1.597z"/><path fill-rule="evenodd" clip-rule="evenodd" fill="#cea19c" d="M171.179 74.896l7.38-4.98-14.219-.444z"/><path fill-rule="evenodd" clip-rule="evenodd" fill="#e2e3e2" d="M242.13 133.775l12.603 15.118-40.377 26.532-13.264-21.341z"/><path fill-rule="evenodd" clip-rule="evenodd" fill="#e2e3e2" d="M177.536 140.093l23.556 13.991-20.767 16.151-11.535-16.728z"/><path fill-rule="evenodd" clip-rule="evenodd" fill="#b2849b" d="M257.718 241.517l18.301 22.892-33.205 9.922-11.84-6.031-4.504-33.121 4.992-10.404z"/><path fill-rule="evenodd" clip-rule="evenodd" fill="#f0cfc9" d="M242.115 241.863l15.603-.346 2.566 6.98-3.151 5.623-15.596-5.91z"/><path fill-rule="evenodd" clip-rule="evenodd" fill="#feeee9" d="M277.122 255.571l.34 21.387-18.908-8.273-6.035-6.377 5.199-20.791 14.501 5.765z"/><path fill-rule="evenodd" clip-rule="evenodd" fill="#cea19c" d="M263.872 284.516l13.59-7.558-24.943-14.65-9.705 12.023z"/><path fill-rule="evenodd" clip-rule="evenodd" fill="#e2e3e2" d="M286.028 243.783l-8.906 11.788-19.404-14.054 7.108-10.787z"/><path fill-rule="evenodd" clip-rule="evenodd" fill="#5e5f5f" d="M100.729 160.43l-7.372-4.488-1.826 7 6.887 6.139z"/><path fill-rule="evenodd" clip-rule="evenodd" fill="#e2e3e2" d="M96.087 200.848l16.236 2.596 1.577 26.196-17.034-2.856-4.987-11.22z"/><path fill-rule="evenodd" clip-rule="evenodd" fill="#d09eb5" d="M113.509 223.149l117.953 1.626-.488 43.525-125.782-2.166z"/><path fill-rule="evenodd" clip-rule="evenodd" fill="#cea19c" d="M82.528 192.499l13.822 16.069.516 18.216-32.415-11.22 11.219-4.363z"/><path fill-rule="evenodd" clip-rule="evenodd" fill="#f0cfc9" d="M79.394 188.568l.644 17.645-1.873 7.481-13.714 1.87 5.608-24.932z"/><path fill-rule="evenodd" clip-rule="evenodd" fill="#feeee9" d="M95.815 192.787l.586 17.321-12.459-10.59-3.904 6.695-5.616-2.492 4.972-15.153z"/><path fill-rule="evenodd" clip-rule="evenodd" fill="#f0cfc9" d="M183.023 71.207l19.058 19.654-8.763-15.91zM161.243 71.803l-10.805 17.696 3.914-14.718z"/><g fill-rule="evenodd" clip-rule="evenodd"><path fill="#96637c" d="M169.147 337.055l-5.214 1.235-3.315 5.24 2.713-.482 1.167-2.313 5.406-1.397z"/><path d="M174.198 331.648c-.38-.005-1.489 2.04-1.489 2.04l-5.241 3.399 1.095 3.427s9.892-2.748 10.433-2.74c.541.006-4.798-6.126-4.798-6.126z" fill="#7f5971"/><path fill="#96637c" d="M176.933 340.414l-.819.504-4.309 6.771 8.801 6.555 8.516-7.531-4.826-6.127z"/><path d="M175.665 337.853l.449 3.065 4.028 2.677 4.154-3.009.856-3.536s-9.435.042-9.287-.116c.148-.157-.2.919-.2.919z" fill="#7f5971"/><path fill="#96637c" d="M191.514 337.037l5.183 1.364 3.184 5.32-2.702-.549-1.108-2.342-5.37-1.53z"/><path d="M186.601 331.504c.379.005 1.437 2.076 1.437 2.076l5.155 3.53-1.18 3.397s-9.82-2.992-10.361-3c-.541-.006 4.949-6.003 4.949-6.003z" fill="#7f5971"/><path fill="#7f5971" d="M188.479 321.833l2.844-.019 2.305-4.629-2.23-3.603 6.382-7.962 10.087-5.399-5.573 12.551-1.31 9.569-12.946 11.24-.563-5.018zM172.48 321.634l-2.841-.091-2.19-4.684 2.319-3.545-6.181-8.12-9.949-5.648 5.257 12.684 1.072 9.601 12.742 11.857.608-5.301zM177.694 316.174l-2.183 1.327-2.155 3.385 12.849 1.162 1.126-2.379-1.422-2.119-2.651-2.47z"/><path fill="#7f5971" d="M177.556 309.809l-.256-1.141 2.56-1.213 5.463 2.749-.579.859 1.165 6.487-2.885-1.039-2.123.841-1.778-.727-3.612.876 3.545-4.207-1.486-2.401z"/><path fill="#b3889d" d="M172.345 319.466l-.983 6.027 1.347 8.195 7.602 7.108 7.727-7.215 1.614-7.887-1.139-6.352-4.402 1.219-3.572-2.098-4.254 2.108z"/><path d="M174.542 335.402l2.073 1.939.158-12.702-2.097-.026-.134 10.789zm4.652 4.349l1.117 1.045.98-.915.189-15.185-2.098-.026-.188 15.081zm4.735-2.333l2.122-1.982.133-10.68-2.098-.026-.157 12.688z" fill="#e5cdd9"/><path fill="#b3889d" d="M172.345 319.466l-.983 6.027 18.285.228.005-.027-1.139-6.352-4.402 1.219-3.572-2.098-4.254 2.108z"/><path fill="#e0c4d1" d="M177.3 308.668l-1.904.626.026 2.303 3.799-.602z"/><path d="M180.817 289.444c1.66.02 2.989 1.383 2.968 3.042-.021 1.66-1.383 2.989-3.042 2.969-1.66-.02-2.989-1.383-2.968-3.043.02-1.661 1.382-2.99 3.042-2.968zm-14.37 6.608c1.148.014 2.067.956 2.053 2.103-.015 1.147-.956 2.066-2.104 2.052-1.148-.014-2.066-.956-2.052-2.103.014-1.147.956-2.066 2.103-2.052zm28.572.356c-1.147-.014-2.089.905-2.104 2.052-.014 1.148.905 2.09 2.052 2.104 1.148.014 2.089-.904 2.104-2.052.014-1.148-.905-2.09-2.052-2.104zm-6.081-3.851c-1.406-.019-2.56 1.107-2.577 2.513-.017 1.405 1.108 2.56 2.513 2.576 1.405.018 2.559-1.107 2.576-2.514.018-1.405-1.108-2.557-2.512-2.575zm-16.315-.203c1.406.017 2.531 1.17 2.514 2.575-.018 1.406-1.171 2.531-2.577 2.514-1.405-.017-2.531-1.171-2.513-2.576.017-1.406 1.17-2.531 2.576-2.513z" fill="#7f5971"/><g fill="#96637c"><path d="M155.195 330.096l1.021 7.803 6.052 1.923-1.833-5.798zM204.784 328.774l-.604 7.846-5.94 2.242 1.52-5.887z"/></g></g><path d="M158.122 55.294c1.583 0 2.874-1.291 2.874-2.875 0-1.583-1.292-2.874-2.874-2.874-1.583 0-2.875 1.291-2.875 2.874 0 1.584 1.292 2.875 2.875 2.875zM188.987 55.294c1.583 0 2.874-1.291 2.874-2.875 0-1.583-1.291-2.874-2.874-2.874-1.583 0-2.874 1.291-2.874 2.874 0 1.584 1.291 2.875 2.874 2.875z" fill-rule="evenodd" clip-rule="evenodd" fill="#2b2c2b"/><path fill-rule="evenodd" clip-rule="evenodd" fill="#6f7173" d="M169.362 51.555h7.315l-.45-4.397-5.317-.462z"/><path fill-rule="evenodd" clip-rule="evenodd" fill="#4f5253" d="M206.713 48.655l38.561-1.959-.643 4.387-38.164 2.984z"/><path fill-rule="evenodd" clip-rule="evenodd" fill="#6f7173" d="M168.112 47.805l-3.772 14.917 2.215-1.083 4.895-14.943zM178.559 47.805l-2.696-.679 1.833 14.596 2.75 1.333z"/><path fill-rule="evenodd" clip-rule="evenodd" fill="#8e709e" d="M235.964 205.576l14.956.51-.923 9.284-14.961-.508z"/><path fill-rule="evenodd" clip-rule="evenodd" fill="#5f3f70" d="M243.695 205.839l-7.731-.263-.529 5.306 7.731.263z"/><path fill-rule="evenodd" clip-rule="evenodd" fill="#ebedeb" d="M243.695 205.839l7.225.247-.132 1.327-7.226-.246zM243.299 209.818l7.226.247.133-1.326-7.229-.245zM235.303 212.21l14.956.509.133-1.327-14.957-.51zM235.036 214.862l14.961.508.128-1.325-14.956-.51z"/></svg>