<svg xmlns="http://www.w3.org/2000/svg" viewBox="0 0 400 400"><path fill="#2b2b2b" d="M112.946 381.782l99.598-9.445 102.261 9.445L209.882 400z" opacity=".102"/><path fill="#734d60" d="M206.13 303.084l-28.621-.588-24.992-27.931h108.837l-25.799 25.585z"/><path fill="#704d61" d="M177.481 363.354l-9.936-35.35 15.205-13.779 25.798 21.114 3.833 34.029-17.941 5.853z"/><path fill="#96637c" d="M167.545 328.004l-15.028-53.439 53.613 28.519 2.418 32.255z"/><path fill="#785d88" d="M185.776 383.318l27.413-2.144-.808-11.806-34.9-6.014-19.119 17.82z"/><path fill="#594165" d="M158.767 385.464h37.49l5.241-3.577.805 3.577h11.287l-.401-4.29h-54.826z"/><path fill="#704d61" d="M223.268 368.297l-8.676-31.787 14.515-18.768 27.412 26.394-1.812 27.023-15.526 6.992z"/><path fill="#96637c" d="M214.592 336.51l-8.461-33.426 55.223-28.519-4.835 69.571z"/><path fill="#785d88" d="M218.027 388.326l5.241-20.029 31.439 2.862 1.611 17.167-22.569 3.221z"/><path fill="#594165" d="M256.318 388.326l-.397 5.006-37.892.36v-5.366z"/><path fill="#ffeee9" d="M145.46 58.675l.861 11.314 2.801 47.149 12.706 27.032 52.55-2.933 19.969-6.66-4.46-83.026-44.8-.84z"/><path fill="#d1a1b8" d="M230.315 43.166l3.016 5.448-3.445 2.936-84.426 7.125v-5.448l43.937-9.222z"/><path fill="#efd0cb" d="M216.103 159.258l-1.725-18.021 11.414-21.638 4.095-68.049 15.935 66.216-6.461 33.949z"/><path fill="#cea39f" d="M187.085 152.997l-5.338-9.939 44.74-2.547-7.222 17.758-14.419 7.223z"/><path fill="#5e5044" d="M229.075 65.056l3.393 9.545-.426 22.211 9.902 2.516 10.77-14.669 3.445-18.861-9.473-10.475-16.8-3.773z"/><path fill="#ffeee9" d="M237.212 79.629l-1.297 25.984 12.063 3.352 4.736-24.306z"/><path fill="#cea39f" d="M240.223 98.908l1.288-12.993 7.324 2.095zM235.915 105.613l9.907 12.153 2.156-8.801z"/><path fill="#efd0cb" d="M172.116 71.305l3.065 4.971 3.447 3.773 2.586-3.773 4.554-5.708 18.272-2.255 14.01 4.192-21.978 6.916-11.254 21.725-7.914-2.238-2.37-4.757-11.421-14.103-14.604-6.287 5.664-1.902z"/><path fill="#fff5f3" d="M175.182 76.277l-.648 17.874-3.082 6.995 7.174 2.712 6.192-2.712-3.459-6.845-.146-18.024z"/><path fill="#5e5044" d="M170.599 66.048l1.517 5.257-17.943.554-5.664 1.902 4.483-5.239zM188.327 65.799l-2.559 4.769h24.462l7.82 1.937-6.698-6.706z"/><path d="M163.113 76.276c2.141 0 3.876 1.689 3.876 3.771s-1.734 3.773-3.876 3.773c-2.144 0-3.878-1.691-3.878-3.773 0-2.083 1.734-3.771 3.878-3.771M196.072 75.65c2.139 0 3.877 1.688 3.877 3.771 0 2.082-1.737 3.77-3.877 3.77-2.143 0-3.877-1.688-3.877-3.77s1.733-3.771 3.877-3.771" fill="#2b2b2b"/><path fill="#cea39f" d="M166.136 117.349l32.305-2.516-.431 2.933-31.014 1.676z"/><path fill="#efd0cb" d="M168.29 101.421l-6.894 13.413.863 13.83-5.6-15.507zM191.119 100.164l10.767 11.317 2.587 15.925 2.156-18.858zM208.349 108.965l1.293 5.449-.863 8.381 5.164-7.962z"/><path fill="#594165" d="M153.321 153.484l27.413 5.723 22.173 44.714 10.077 35.769-10.077 42.452-50.39-7.577-1.615-77.083-10.077-17.884z"/><path fill="#96637c" d="M153.321 153.484l32.25-3.219 3.225 9.658-36.279 3.935z"/><path fill="#785d88" d="M261.354 274.565l-58.447 7.577v-78.221l40.714-44.713 28.619 3.219 11.285 65.459z"/><path fill="#96637c" d="M234.347 160.638l5.014-8.922 32.879 10.711-1.207 10.015z"/><path fill="#bea9cd" d="M171.865 176.378l13.706-26.114 18.543 25.756-1.207 27.901z"/><path fill="#bea9cd" d="M250.07 176.02l-10.709-24.304-23.96 18.939-12.497 33.266 38.298-12.879z"/><path fill="#a688ba" d="M157.354 195.335v6.438l31.039-.358-.402-6.795z"/><path fill="#b3889d" d="M155.741 185.32l11.69.715 12.495-1.072-4.03 5.007-8.465-.716-7.661.716z"/><path fill="#96637c" d="M163.399 184.248l4.031 7.154 5.242-7.512zM202.906 203.921l54.421-.359v-6.796l-7.664-3.22 7.664-3.575v-7.154l-6.852-2.863-12.095 2.863-11.69 7.154 2.015 3.575-14.113 3.22z"/><path d="M257.327 196.766v-6.795h-31.044l-11.691 6.795h42.735zm0-13.949v-6.797H249.662l-11.69 6.797h19.355z" fill="#b3889d"/><path fill="#594165" d="M265.793 230.748l16.523 14.306 16.092-19.057-11.226-27.273-7.12-9.022-.307-9.017-7.515-18.258z"/><path fill="#9075a0" d="M261.354 274.565l16.127 13.77 9.471-11.64 11.456-50.698-32.615 4.751z"/><path fill="#a688ba" d="M279.755 180.684l-6.81 2.489 5.24 13.951 8.996 1.598z"/><path fill="#ececeb" d="M193.633 174.947l10.481 1.073 3.226-14.309-21.769-11.447zM221.854 177.808l-13.306-1.43-1.208-14.667 32.021-9.996z"/><path fill="#cececd" d="M202.906 203.921l-7.256-22.179-2.017-6.795 4.435-4.292 9.272-8.944 14.514 16.097z"/><path fill="#4f5253" d="M202.906 203.921l-4.435-14.31 5.642-13.591-4.836-6.439 8.063-7.87 8.061 8.944-6.853 5.723 3.628 14.664z"/><path fill="#785d88" d="M116.639 193.546l34.323 6.797 2.359-46.859-32.249 3.221-20.157-2.862z"/><path fill="#9075a0" d="M106.158 115.568l-20.963 54.449 31.444 23.529 13.706-69.393z"/><path fill="#efd0cb" d="M109.382 95.539l-3.224 20.029 11.69 4.292 12.093 4.293 8.87-17.527.805-2.862-14.915-2.502z"/><path fill="#caa39e" d="M145.663 84.449l-6.852 22.177-14.11-5.364-14.914-5.723 17.331-17.53z"/><path fill="#ffeee9" d="M129.941 124.153l9.271-11.088-.402-6.439-14.109-5.364-3.225 3.933 5.241 5.008-8.869 9.657z"/><path fill="#d1a1b8" d="M157.755 155.274l-2.418 3.933 4.837 1.431 2.016-3.576zM167.027 154.557l-2.016 3.936 4.436 1.43 2.013-3.577zM175.493 153.127l-2.42 3.935 4.84 1.431 2.013-3.219zM249.663 156.705l-4.834 1.788 2.823 3.575 4.034-1.43zM257.327 159.566l-4.433 1.789 2.822 3.575 3.626-1.43zM265.793 162.427l-4.439 1.79 2.823 3.575 3.631-1.432z"/><path fill="#594165" d="M124.785 62.447l3.015 6.286 9.908 3.772 8.613-2.516-.861-16.763-3.877-4.193z"/><path fill="#9075a0" d="M166.136 7.545l-24.982 27.24-16.369 27.661 20.675-9.22 27.998-32.272z"/><path fill="#826990" d="M145.46 53.226l37.044-15.089L200.595 0l-34.459 7.545z"/><path fill="#785d88" d="M242.81 15.506L200.595 0 173.89 25.565l-28.43 27.661 43.937-5.449 40.918-4.611 12.063-6.706z"/><path fill="#594165" d="M261.76 37.3l-18.951-21.793-12.494 27.659 13.352 11.317 13.785 5.029z"/><path fill="#b3889d" d="M256.159 65.799l1.291-6.287-16.364-9.638-10.771-6.708-.428 8.383z"/><path fill="#9075a0" d="M216.961 11.733l-27.997-.416.433 15.927 13.352 10.893 13.354-10.893z"/><path fill="#594165" d="M221.27 27.243l6.461-9.221 2.584 10.896zM205.764 26.403l4.738-10.057 5.601 10.897zM189.397 27.243l3.877-9.641 6.03 8.802zM176.473 28.498l3.446-8.38 4.308 7.542z"/><path fill="#d1a1b8" d="M211.774 218.942l-4.033 3.577 4.435 3.935 4.031-3.577zM210.967 237.903l-4.032 3.575 4.437 3.933 4.029-3.579zM210.967 257.933l-4.032 3.574 4.437 3.938 4.029-3.577z"/><path fill="#ffeee9" d="M286.592 291.599l.36-14.904-25.598-2.13-3.626 13.595 2.016 13.946 15.722-3.216z"/><path fill="#efd0cb" d="M279.897 305.058l6.695-13.732-26.622 1.459-1.035 16.564z"/><path fill="#cea39f" d="M261.354 274.565l-7.658 13.952 5.692 13.589zM178.196 107.926l-6.744-6.78h13.366z"/><path d="M158.966 196.766v3.577h.806v-1.43l2.016-.358.403-1.431-1.208-.716-1.616.358h-.401zm26.202-.713l-1.21 1.071.403 1.074 2.017.358v.717h-.808l-.403-.717h-.807l.401 1.071 2.016-.355.403-1.79-2.419-.358v-.358l1.212-.713.404.713 1.209-.358-1.209-1.073h-1.616l.407.718zm-4.434.355l-.403 2.505.808.713h2.417l.403-.713-.403-2.86h-.805l.401 2.502-.401.358-.807-.358v-2.502h-.805l-.405.355zm-3.628 0v3.218h2.42v-.713h-2.016v-.716h1.613v-.715h-1.209v-.716h1.209v-.713l-2.017.355zm-2.822 0l-1.612 2.863.806.355.403-1.071h.806l.403 1.071.807-.355-1.211-3.219h-.806l.404.356zm.402 1.074l.403.715h-.806l.403-.715zm-5.239-.716l-.404 3.577h.806v-1.43l1.211 1.072.805-.359-1.613-1.071 1.613-.358v-1.431l-.805-.358-1.613.358zm.804.358v.717h1.21l-.402-.359h-.808v-.358zm-4.432-.716v.716h1.208v2.861h1.21l-.403-2.503h1.21v-.716h-2.823l-.402-.358zm-2.824.358v3.219h2.42v-.714h-2.016v-.717h1.612v-.714h-1.209v-.717h1.209v-.716l-2.016.359zm-2.416 1.075h1.208v-.717h-1.208v.717z" fill="#594165"/><path fill="#efd0cb" d="M171.452 128.664l8.898-3.949 13.784 2.691-2.584 1.258-9.262-.628-7.969 2.029z"/></svg>