<svg xmlns="http://www.w3.org/2000/svg" viewBox="0 0 400 400"><path opacity=".1" fill="#2b2b2b" d="M143.151 388.893l75.043-11.579 75.306 9.524L217.022 400z"/><path fill="#484749" d="M257.098 369.596l5.25 18.426-17.375.871-17.375-.871 2.67-15.915 14.705-6.373zM208.031 374.288v11.222l-24.342 1.328-24.341-1.328 20.889-19.842 15.528-2.26z"/><path fill="#594265" d="M132.676 95.999l18.53-16.228 6.176 16.852-3.088 13.108-6.794 7.491-16.059-4.368z"/><path fill="#9075a0" d="M151.206 86.013l1.854 18.723-4.325 4.37-9.265-12.482z"/><path fill="#594265" d="M299.44 263.901l-16.572-22.73-5.044 15.24-2.012 18.798z"/><path fill="#2b2b2b" d="M171.588 2.371l-19.765 17.478 4.323 1.873 34.59 10.612 32.737-9.363 12.352-13.108L219.145.5z"/><path fill="#9b7d7d" d="M250.65 132.827l8.081-46.814-30.317-66.788-11.122 56.176 2.477 51.182 4.936 18.103 18.527 4.368z"/><path fill="#cfcecd" d="M159.234 175.894l18.532-29.338 78.441-1.247-20.383 105.486-27.179 11.236-22.233-9.989-24.088-22.472z"/><path fill="#b39492" d="M154.295 27.34l-2.472 15.603-.617 54.927 8.648 34.331h28.411l19.766 4.37 15.442-4.995 4.941-87.384-3.089-21.221-3.705-3.747h-60.531z"/><path fill="#9b7d7d" d="M154.295 52.931l15.439 11.859 6.796 23.095 8.647 3.121 8.646-3.121 11.118-23.719 16.679-12.484-8.938-1.248-16.584 1.249-5.904 9.311-9.34.052-4.943-8.115-8.645-3.121z"/><path fill="#343434" d="M219.145 19.225l6.794 4.371 24.711 7.488 11.734-6.866-11.118-16.852L219.145.5z"/><path fill="#2b2b2b" d="M228.414 44.193l18.526 19.973 8.03-15.603 10.499-7.491-3.086-16.855-43.238-4.992L221.62 39.2z"/><path fill="#343434" d="M228.414 44.193l18.526 19.973 15.443-1.874 3.086-21.22v-.626z"/><path fill="#737475" d="M228.414 44.193l8.024 13.73 1.238 12.487 8.032.623 5.558-3.121-4.943-7.492z"/><path fill="#7d6363" d="M235.824 132.201l-12.351-.625-41.384.625.616 6.241 24.089 23.719 26.558-21.221z"/><path fill="#b39492" d="M244.471 86.013l1.852-25.593 16.06 1.872-3.652 23.721z"/><path fill="#7d6363" d="M256.865 97.086l-12.394-11.073h14.26zM249.413 77.897l1.237-12.482 7.409.626z"/><path fill="#c4a8a7" d="M180.854 61.045l-4.324 26.84 8.647 4.992 8.646-4.992-3.629-26.891z"/><path fill="#7d6363" d="M185.177 94.127l-8.647-6.243h17.294z"/><path fill="#9b7d7d" d="M173.442 89.757l-9.266 19.348 1.236-14.978zM200.001 88.509l10.497 21.847-2.467-15.604z"/><path fill="#7e6565" d="M154.785 48.954l-.491 3.977 8.637-2.033 12.979 2.033-1.186-7.512-11.774-.442zM198.146 45.441l-2.048 6.242 16.584-1.249 8.938 1.249.311-3.161-9.166-4.329z"/><path d="M206.179 56.051c2.384 0 4.319 1.957 4.319 4.37 0 2.413-1.936 4.369-4.319 4.369-2.393 0-4.325-1.956-4.325-4.369s1.932-4.37 4.325-4.37M167.807 56.051c2.387 0 4.323 1.957 4.323 4.37 0 2.413-1.937 4.369-4.323 4.369-2.389 0-4.324-1.956-4.324-4.369-.001-2.413 1.935-4.37 4.324-4.37" fill="#2b2b2b"/><path fill="#ececeb" d="M177.766 146.557l4.94-8.116 25.325 14.359-11.737 16.228z"/><path fill="#483552" d="M198.764 175.271l-2.469-6.244 11.736-16.227 8.647 17.476-2.476 5.618-7.408 6.864z"/><path fill="#734d61" d="M198.764 175.271l-2.469-6.244 14.597-10.446 2.96 5.985z"/><path fill="#ececeb" d="M256.207 145.309l-39.529 24.967-8.647-17.476 42.619-19.973z"/><path fill="#594265" d="M198.764 175.271l-6.792 58.049 14.207 14.979 12.351-12.483-4.328-59.922z"/><g fill="#734d61"><path d="M197.205 188.594l18.915 13.86-.731-10.136-17.212-12.033zM217.918 227.339l-.77-10.659-21.385-15.758-.975 8.326zM213.231 241.171l5.189-5.243-24.717-17.407-.902 7.709z"/></g><path fill="#594265" d="M256.207 145.309l-7.413 34.954-23.469 28.71 10.499 41.822-1.852 11.236 22.85 2.497 27.797-46.812-6.177-62.421z"/><path fill="#795d88" d="M260.53 180.886l-35.205 28.087 30.882-63.665 8.028 18.102-7.413 5.618z"/><path fill="#9075a0" d="M306.235 224.576l-27.793-69.281-7.413 61.794 14.823 13.732z"/><path fill="#7a5d88" d="M254.354 257.037l-3.704 18.727 25.162-.555 30.423-50.633-35.206-7.487z"/><path fill="#633e50" d="M174.059 324.41l-8.648-54.188 41.383-6.775 10.498 9.234 6.181 6.161-4.328 18.766-4.943 32.342-19.762 16.012z"/><path fill="#543042" d="M180.237 365.668l-6.178-41.258 40.143 5.54-6.171 44.338z"/><path fill="#633e50" d="M224.087 330.566l-4.942-32.958-10.5-20.612 11.124-14.782 42.792 9.131 13.251 3.864-9.106 45.503-23.474 27.714z"/><path fill="#543042" d="M230.268 372.107l-6.181-41.541 42.619-9.854-9.608 48.678zM235.209 247.673l-48.797.624v4.37l-21.001 20.99 53.734 23.951 56.667-22.399-20.46-20.563z"/><path fill="#7a5d88" d="M118.47 169.651l44.471-16.851 3.088 33.706-11.734 13.731-30.883-1.249z"/><path fill="#594265" d="M104.883 144.686l-11.118 33.703 29.646 20.599 7.413-43.07-9.884-9.983z"/><path fill="#ececeb" d="M107.971 133.45l-3.088 11.236 25.94 11.232 1.853-9.984-5.558-14.358z"/><path fill="#9b7d7d" d="M111.549 124.573l-3.578 8.876 18.528 9.363 10.5-28.713z"/><path fill="#7d6363" d="M143.177 122.837l3.088 13.108-13.59 9.989-6.175-3.123 4.323-16.227z"/><path fill="#795d88" d="M111.549 124.573L134.53 99.12l12.971 18.102-4.324 5.615-16.677 19.974z"/><path d="M121.558 120.966l1.555 2.093 3.387-2.719-2.471-2.494-2.471 3.12zm3.706 4.369l1.854 2.497 3.088-3.746-2.471-2.495-3.088 3.118.617.626zm3.088 4.369l1.854 2.497 3.087-4.369-1.852-2.497-3.089 3.743v.626zm7.413-4.369l3.089-3.744-1.855-2.498-3.089 3.744 1.855 2.498zm0-7.489l-1.854-2.498-3.087 3.745 2.107 2.129 2.834-3.376zm-3.089-3.747l-2.47-2.497-3.707 3.747 2.471 2.498 3.706-3.748zm8.03 4.995l3.087-3.745-1.853-2.495-3.087 3.743 1.853 2.497zm0-7.492l-1.853-2.497-3.089 3.749 1.853 2.495 3.089-3.747zm-3.089-3.744l-2.471-3.122-3.705 3.746 2.469 2.497 3.707-3.747v.626z" fill="#a588b9"/><path fill="#96637c" d="M251.266 172.773l-6.177 1.247-1.234 3.746 9.881 4.369 3.086-7.49z"/><path d="M245.088 174.02l-.617 1.251 9.884 4.37.615-1.251-4.942-2.495-1.233-.624.619-1.251 6.175 2.497.619-1.247-6.18-1.874-2.468-.624-2.472 1.248zm-.617 2.497l-.615 1.25 9.881 4.369.618-.624-9.884-4.995z" fill="#d1a1b8"/><path d="M246.323 170.901l-1.234 3.119c1.852.625 4.938 2.497 4.938 2.497l.622-3.744-4.941-1.871h.615z" fill="#543042"/><path fill="#343434" d="M151.823 42.943l4.943-6.24 4.323-17.478-9.266.624z"/><path fill="#b39492" d="M132.676 95.999l-21.127 28.574 20.51-2.358 10.472-11.929z"/><path fill="#7d6363" d="M169.119 105.361l12.97.625 1.852 1.872 3.088-1.872 14.205-.625v2.497l-8.645 3.744H176.53l-7.411-3.744z"/><path fill="#887170" d="M169.119 105.361l11.733-1.248 3.089 2.498 4.324-2.498 12.969 1.248-17.293 3.121z"/><path fill="#594265" d="M162.941 152.8l14.825-6.244-.62 31.833 11.738 31.834 8.027 66.161-43.233-3.742.617-72.406z"/><path fill="#795d88" d="M166.029 186.506l22.854 23.718-11.117-63.667-11.737 21.221 6.794 5.619z"/><path fill="#9b7d7d" d="M194.44 119.717h-17.91l8.646-4.369z"/><path fill="#2b2b2b" d="M227.598 388.022h34.75v4.549h-34.75zM159.348 385.51h48.684v4.307h-48.684z"/></svg>