<svg xmlns="http://www.w3.org/2000/svg" viewBox="0 0 400 400"><g fill-rule="evenodd" clip-rule="evenodd"><path fill="#5e4f45" d="M256.996 107.387l-13.542 18.178-.212-28.377 11.903-15.536z"/><path opacity=".102" d="M104.607 380.327l101.152-14.242 96.826 23.983-98.991 9.432z"/><path fill="#543042" d="M218.946 363.899l-5.439-31.606 16.25-34.511 17.382 26.591-2.765 35.011-9.697 11.967z"/><path fill="#543042" d="M178.189 256.845l-14.524 13.158 2.213 14.03 16.04 13.704 26.812 6.796 33.781-2.949 8.251-14.1-9.452-26.237-34.216-15.459z"/><path fill="#734d61" d="M208.73 304.533l42.032-17.049-3.623 36.889-33.632 7.92z"/><path fill="#f0d1cc" d="M121.78 223.161l-6.73-2.551-3.878-10.787 9.729-3.866 12.242 2.381 8.429 10.697zM234.218 160.262l12.312-46.251.289-59.922-19.962-5.702-17.351 104.797-.952 34.881 17.213-8.834z"/><path fill="#cfa39e" d="M185.505 152.946l4.037 14.208 19.012 20.911 7.6-11.643 7.712-23.605-14.36.367z"/><path fill="#785c87" d="M196.199 189.496l8.29 39.724-15.198 40.466-1.228 13.228-24.398-12.911 1.971-23.738-4.661-34.644 12.885-34.959 15.682-9.508z"/><path fill="#474747" d="M204.038 176.66l-7.839 12.836-6.657-22.342z"/><path fill="#a687ba" d="M181.462 180.46l14.737 9.036-6.657-22.342-4.806 2.914z"/><path fill="#8f75a1" d="M178.848 197.095l9.982-12.116 7.369 4.517-4.041 42.772z"/><path fill="#ccc" d="M208.554 188.065l-4.516-11.405-7.839 12.836-6.908 80.19 17.358-8.508 8.094-36.495z"/><path fill="#ededeb" d="M216.154 176.422l-7.6 11.643-1.905 73.113 14.987 8.626 10.844-40.569-12.687-36.596z"/><path fill="#785c87" d="M222.006 284.033l-1.233-54.146-.98-37.248 14.425-32.377 30.538 18.188-7.032 41.911.431 27.744-28.06 25.83z"/><path fill="#6b547a" d="M262.957 189.172l-5.233 31.189.431 27.744-14.554 13.394 2.254-68.791z"/><path fill="#6b547a" d="M229.713 170.367l4.505-10.105 30.538 18.188-3.003 17.912-15.898-3.654-10.449-8.681z"/><path fill="#a687ba" d="M235.406 184.027l-1.188-23.765-14.425 32.377z"/><path fill="#8f75a1" d="M236.65 198.639l-9.053-10.307-7.804 4.307.98 37.248zM154.788 213.249l14.659-33.738 4.413-2.849-8.283 70.104-17.34-17.188z"/><path fill="#594066" d="M129.599 207.308l25.189 5.941 10.789 33.517-44.769-21.636z"/><path fill="#543042" d="M177.123 355.347l-5.259-33.351 17.726-23.176 14.993 33.473-4.647 31.136-19.653 7.751z"/><path fill="#734d61" d="M171.864 321.996l-5.986-37.963 42.852 20.5-4.147 27.76z"/><path fill="#545454" d="M149.797 377.205l27.326-21.858 22.813 8.082.238 13.304-25.663 2.613z"/><path fill="#474747" d="M234.218 160.262l-18.064 16.16 3.639 16.217z"/><path fill="#2b2b2b" d="M149.857 381.604l-.06-4.399 50.377-.472v5.226z"/><path fill="#545454" d="M214.849 386.829l4.097-22.93 25.428-4.515 7.901 27.327-19.066 3.861z"/><path fill="#2b2b2b" d="M214.732 391.883h37.608l-.065-5.172h-37.426z"/><path fill="#cfa39e" d="M119.569 222.323l-4.519-1.713 5.717-14.238 4.728.753-4.136 6.181z"/><path fill="#2b2b2b" d="M140.158 179l2.484 10.39 10.252 6.097 10.844-2.836 6.604-13.718-3.042-9.492 3.675-5.115-6.016-2.186-26.473 9.863-6.428 2.124-23.306 7.459-1.699 12.876 1.436 7.108 10.807 5.531 11.733-2.41 1.209-3.324 4.781-10.156-3.032-10.433z"/><path fill="#1c1c1c" d="M187.57 159.356l-22.611 2.782 2.341 7.303 22.244-2.287z"/><path d="M164.336 175.242l2.15 7.222-3.656 7.213v-7.213l-2.085-5.83 3.591-1.392zm-5.772-4.708l3.929-1.485.954 3.209-3.693 1.595-1.19-3.319z" fill="#999"/><path fill="#f0d1cc" d="M111.168 225.606l-13.183-12.199 9.068-18.945 13.714 11.91-2.84 7.068-2.877 7.17z"/><path fill="#ffede8" d="M133.143 208.342l-11.784 4.964-3.001-9.025 13.88-2.914zM97.415 182.94l9.638 11.522 7.582-7.561-11.77-10.631zM225.192 119.199l-15.686 33.985-37.781-.002-25.901-31.13-3.798-80.559 35.406-13.543 44.675 4.988 4.75 15.449zM237.082 78.8l-.948 23.763 8.976 5.77 3.776-3.176 6.259-23.505z"/><path fill="#cfa39e" d="M241.24 84.146l-.712 9.982 9.152-8.316zM236.134 102.563l10.396 11.448 2.356-8.854z"/><path fill="#5e4f45" d="M259.539 63.232l-4.394 18.42-18.063-2.852.225-22.358 20.095-14.833z"/><path fill="#73665c" d="M236.607 90.682l-4.872.591-4.878-42.886L242.16 37.07l15.242 4.539-20.32 37.191z"/><path fill="#5e4f45" d="M250.273 26.401l7.129 15.208-30.545 6.778-22.446-10.342 12.017-9.546 6.376-4.984z"/><path fill="#45382e" d="M219.145 13.569l31.128 12.832-25.186 3.327-7.988-3.092z"/><path fill="#73665c" d="M215.341 5.013l3.804 8.556 2.499 6.8 3.443 9.359-20.676 8.317-1.993-19.118z"/><path fill="#5e544a" d="M196.333 8.817l19.008-3.804-10.93 33.032-26.852 6.893 7.328-28.244z"/><path fill="#73665c" d="M174.231.5l22.102 8.317-18.774 36.121-8-28.14z"/><path fill="#5e4f45" d="M161.636 9.768L174.231.5l3.328 44.438-15.394-22.093z"/><path fill="#4d4038" d="M148.331 9.529l13.305.239 15.923 35.17-35.533-3.445z"/><path fill="#5e4f45" d="M133.123 57.055l5.226-33.268 9.982-14.258 11.462 33.688-17.767-1.724-1.124 13.332z"/><path fill="#4d4038" d="M143.645 75.825l-10.522-18.77 8.903-15.562z"/><path fill="#f0d1cc" d="M195.849 89.463l-12.94 22.819-6.535-3.326-4.632 3.326-8.199-21.863-11.05-5.184 4.753-4.753 11.287-.237 2.125 2.76 2.628.999 3.921 5.465 4.396-5.583 4.502-2.581 19.01-4.847 8.639 4.263z"/><path fill="#fff5f2" d="M173.286 84.004l-1.544 28.278h11.167l-1.306-28.396z"/><path fill="#f0d1cc" d="M203.989 87.902L213.258 86l-.118 3.564zM203.277 91.229l9.863.831-.952 3.446zM155.582 89.707l-7.724-1.9-.118 3.446zM155.82 93.629h-7.841l.117 3.325z"/><path fill="#cfa39e" d="M171.742 112.282l5.939 5.109 5.228-5.109z"/><path fill="#f0d1cc" d="M164.493 119.053l-4.633 4.278 5.583 14.258-9.623-16.04zM197.903 116.106l9.267 5.824-3.328 15.445 8.915-18.178z"/><path fill="#cfa39e" d="M163.898 122.523l37.17-1.254-6.89 10.219-23.386.421z"/><path fill="#fff" d="M169.127 125.018l2.881 4.397 20.15-.304 4.041-5.467z"/><path d="M163.543 86.928c1.928 0 3.493 1.563 3.493 3.491 0 1.929-1.564 3.491-3.493 3.491-1.929 0-3.492-1.563-3.492-3.491 0-1.929 1.563-3.491 3.492-3.491M195.849 85.97c1.929 0 3.491 1.564 3.491 3.491 0 1.929-1.563 3.491-3.491 3.491-1.929 0-3.493-1.563-3.493-3.491-.001-1.927 1.564-3.491 3.493-3.491" fill="#2b2b2b"/><path fill="#54473d" d="M171.475 78.217l-.817 4.788-14.094-.213-4.071 2.443 2.407-6.425zM185.985 76.792l.12 4.513 20.85-2.316 6.799 1.732-6.974-7.555z"/><path fill="#8f75a1" d="M254.543 229.37l8.442 7.3 23.579 1.953-21.808-60.173-18.901 14.258z"/><path fill="#594066" d="M257.346 272.192l29.218-33.569-32.021-9.253-10.946 31.922.122 13.094z"/><path fill="#ffede8" d="M257.346 272.192l-6.584 15.292-20.667-13.549 13.502-12.643z"/></g></svg>