<svg xmlns="http://www.w3.org/2000/svg" viewBox="-100.955 -3.896 400 400"><path fill="#2b2b2b" fill-opacity=".102" d="M10.96 379.361l91.5-21.221 55.515 8.59 20.049 13.439-58.014 15.935z"/><path fill="#393939" d="M106.938 372.091l-20.194 11.383.588 5.435h31.65v-5.729z"/><path fill="#727272" d="M176.408 365.115h-10.207l-22.104 4.847 4.48 2.864 19.606 4.113 9.841.367 16.743-6.096 5.287-2.424z"/><path fill="#9ca1a1" d="M143.729 374.882l.368-4.92 24.086 4.113 9.033.44 22.838-5.729v4.481l-22.03 6.902h-11.015z"/><path fill="#9ca1a1" d="M176.408 42.001h-10.207v327.594l1.982.807h5.729l2.496-.807z"/><path fill="#8e8e8e" d="M172.296 100.382l-12.264 11.823 2.424 13.512-6.096 2.056-2.863 12.264 2.863 12.19-6.094 1.689-2.865 11.823 13.879 13.879 2.864 15.568 11.824-.44 8.151 21.663 9.841-2.863-2.057-20.048-6.095-11.383 4.48-6.976-2.057-19.167-4.92-12.704 3.305-3.671z"/><path fill="#8e8e8e" d="M176.408 42.001l-16.376 70.204 26.144 26.951z"/><path d="M160.032 112.205l-3.672 15.568 31.871 28.199-1.615-16.816-26.584-26.951zm-6.535 28.199l-3.23 13.879 41.637 39.655-2.056-17.992-36.718-35.102.367-.44z" fill="#ebebeb"/><path fill="#727272" d="M167.817 186.595l-9.032 5.728-12.631 40.389 12.631 4.479 5.359-4.846 2.057 6.902 15.055 4.921-.808-7.344 7.343-21.663-11.823-20.415z"/><path fill="#cdcdcd" d="M161.28 179.618l-2.495 12.705-4.481 43.253 11.897 3.671 1.616-52.652z"/><path fill="#4f5252" d="M197.999 252.318l-17.551-15.494-4.48-42.078 17.992 18.8z"/><path fill="#a3a3a3" d="M180.887 237.191l-.439-.367-2.424-23.72 6.095-10.208 5.728 6.17z"/><path fill="#ebebeb" d="M176.629 78.131l1.028 5.508-4.626 3.158-1.029-5.508zM173.397 93.406l1.102 5.434-4.626 3.158-1.029-5.435zM177.143 110.737l1.028 5.507-4.553 3.157-1.028-5.507z"/><path fill="#532f42" d="M15.733 231.904l-5.434-8.739 11.675-44.134 10.355 28.713 3.598 25.775z"/><path fill="#95627c" d="M55.388 361.297L35.78 278.755l29.888-28.933 9.987 27.905 14.614 12.043-11.235 9.621-10.942 70.278-3.892 8.297z"/><path fill="#724d60" d="M46.722 269.429l20.195-19.607 9.988 27.905 14.54 12.043-11.236 9.621-2.644 64.696-12.705 4.112-15.568-98.844z"/><path fill="#95627c" d="M122.066 280.225l-15.128 91.866-.439 9.326-13.513-15.274-17.331-88.416 31.651-12.483z"/><path fill="#734d5f" d="M122.727 268.768l-8.665 97.375-10.208 15.274-1.761-4.92-6.39-90.618 15.275-14.247z"/><path fill="#543042" d="M42.61 275.011l-6.83 3.744 11.383-.073 4.7 6.83 26.803 11.235 44.061-27.979-23.279-4.185-39.874-7.123z"/><path fill="#464646" d="M31.301 375.323l24.087-14.026 22.177 2.79v10.28l-4.039 2.939-3.892-2.791-16.743 2.203z"/><path d="M77.565 374.367v6.831l-7.123.072-.808-6.756 7.931-.147zm-7.931.148l-7.931 6.83-30.035-.074-.366-5.947 38.332-.809z" fill="#393939"/><path fill="#724d60" d="M35.78 278.755l-.954-20.634-7.49-9.987 10.06-4.187 15.789-5.801 5.801 8.298 7.49 5.434-6.242 9.988-8.371 23.646z"/><path fill="#674456" d="M34.826 258.121l-6.243-8.299 1.249-2.497 7.564-3.378 14.099-5.361 2.497.368 4.994 7.49 7.49 5.434-6.609 5.435-10.427 5.801z"/><path fill="#95627c" d="M95.703 285.879l-35.469-24.013-.367-4.553-.881-10.869-.368-22.838 31.211-57.94 18.725-20.416 20.856 11.677-3.378 37.893-1.615 43.326-1.69 30.622z"/><path fill="#875970" d="M59.867 257.313l-.881-10.869v-6.609l13.365 1.615-1.689 9.988zM74.407 204.439l12.118-22.104 39.14 25.85-1.248 28.493-13.733 5.654z"/><path fill="#ffede8" d="M2.588 35.759L5.819 55.44l1.321 74.316 33.781-.881 42.885-.955 10.062-90.325-5.949-20.488-5.948-9.106-6.83-4.112-29.227 4.112-30.989 11.382z"/><path fill="#efcfca" d="M10.812 54.926l13.219 12.778L30.86 86.87l16.449-.881 11.383-23.72 15.054-16.008-10.942 1.395-10.941 4.553-10.501 6.829-2.277 4.553-3.671-4.039-7.271-5.948-8.224-1.836z"/><path d="M58.692 58.23c2.231 0 4.039 1.808 4.039 4.039s-1.808 4.039-4.039 4.039-4.039-1.808-4.039-4.039c.001-2.23 1.808-4.039 4.039-4.039zM22.635 62.343c2.231 0 4.039 1.808 4.039 4.039s-1.808 4.039-4.039 4.039-4.039-1.808-4.039-4.039c.001-2.231 1.809-4.039 4.039-4.039z" fill="#2b2b2b"/><path fill="#5d5044" d="M-1.965 34.878l16.89-15.495-9.62 20.489.514 15.568z"/><path fill="#46382d" d="M16.76 12.554l-1.835 6.829L73.746 8.001l3.231-3.672-7.783-8.225z"/><path fill="#5d5044" d="M87.919 17.107L84.688 6.165 69.194-3.896l4.552 11.897z"/><path fill="#46382d" d="M95.63 10.277L69.194-3.896l18.725 21.003 7.711-1.396z"/><path fill="#5d5044" d="M99.301 40.386L87.919 17.107l7.711-6.83 16.89 6.389 3.672 11.383z"/><path fill="#46382d" d="M125.738 43.984l-10.428 4.113-16.009-7.711 13.219-24.234z"/><path fill="#efcfca" d="M102.9 161.848l1.469-25.703 10.207-40.977-15.275-54.782-11.382-23.279-4.113 110.813-6.094 22.398z"/><path fill="#5d5044" d="M99.301 40.386l.956 7.27 9.986 13.218 12.337-3.231 3.158-13.659z"/><path fill="#8e8e8e" d="M99.301 40.386l1.249 23.279 7.197 1.688 14.833-7.71 1.47-6.315z"/><path fill="#ffede8" d="M107.967 53.971l14.613 3.672-5.947 28.346-13.219-1.909z"/><path fill="#cda39e" d="M109.289 73.652l1.982-13.292 6.904 1.322zM103.414 84.08l11.162 11.088 2.057-9.179z"/><path fill="#5d5044" d="M49.586 47.215l2.277 4.994 21.883-5.948-2.277-7.27zM29.025 48.537l-.882 5.067-17.331 1.322v-5.875z"/><path fill="#fff4f2" d="M35.414 59.552l5.948-.514 5.947 26.951-16.449.881z"/><path fill="#cda39e" d="M39.085 92.818L30.86 86.87l16.449-.881zM29.538 105.596l2.718.881 25.115-6.83 2.717-3.598-4.554-.514 8.666-2.717 1.322 6.829-3.159-3.598-3.671 5.875-26.436 6.83-3.231-1.763z"/><path fill="#efcfca" d="M51.422 79.16l19.607 12.777-9.106-9.179z"/><path fill="#dddddb" d="M56.929 176.901l-.807-11.235-11.676-4.553-2.497 17.918-1.689 12.924 18.358 31.651 14.174-44.575z"/><path fill="#cea39f" d="M48.191 149.877l-7.27-21.002 42.885-.955 12.779.221-17.331 19.68-21.443 9.326z"/><path fill="#ebebeb" d="M44.446 161.113l3.745-11.236 10.427 6.242-8.37 12.484zM104.369 136.145l4.185 9.105-13.732 15.422-18.285 8.372-17.919-12.925z"/><path fill="#efcfca" d="M56.122 154.871l-5.874 13.732 6.681 8.298 9.547-10.795.441-13.732z"/><path fill="#ffede8" d="M80.649 164.858l-7.491-8.739-6.241-3.745-9.988 24.527 14.54 3.378 5.436-5.875z"/><path fill="#efcfca" d="M76.096 151.934l-9.179.44 13.732 12.484z"/><path fill="#9075a0" d="M108.554 145.25l-4.993 22.105h-7.05l-5.434 2.497-10.428-4.994z"/><path fill="#775d87" d="M58.618 223.606l25.41-30.402.807-11.309 11.236-4.112.44-10.428-15.862-2.497-1.615 12.043-3.746 15.862-8.371 3.745-9.546 5.434z"/><path fill="#6b5479" d="M74.407 204.439l9.987-11.676.441-10.868h.808l-6.609-5.801v.807l-7.565 3.378-4.552 16.229z"/><path fill="#724d60" d="M21.974 179.031l22.472-17.918-5.435 30.402 19.607 32.091-10.867 4.994-13.733 4.552-2.056-6.682-4.186-19.975z"/><path fill="#775d87" d="M47.383 199.005l7.857 5.434 3.378 19.167-29.593-36.277 9.178-10.428-4.992-1.615 11.235-14.173z"/><path fill="#a587ba" d="M58.618 223.606l4.995-16.303-1.69-2.056 4.994-8.739-.808-9.62-3.746-.367 2.865-7.49-8.299-2.13-3.744 8.739.807 5.067-6.609 8.298 3.305 7.49 5.434 2.497-2.13 4.554z"/><path d="M63.613 207.303l3.304-10.794-16.229 9.987 3.305 7.491 9.62-6.242v-.442zm2.496-20.782l-.881-7.931-12.043 6.683-5.434 13.291 18.725-12.043h-.367z" fill="#9075a0"/><path fill="#95627c" d="M40.7 227.719l-30.401-4.554-6.242 22.912 30.769 12.044.88-6.243 7.051-9.987z"/><path fill="#dddddb" d="M43.197 253.934l-7.491-2.056 4.994-24.159 7.051.881 4.992 9.106-7.489 5.874z"/><path fill="#efcfca" d="M45.254 243.58l13.732 2.864 5.874-9.987-6.242-12.851-10.867 4.994-1.249 7.049z"/><path fill="#ffede8" d="M72.351 241.45l-13.365 4.994-.368-22.838 13.293 4.994z"/><path fill="#b3879c" d="M144.39 210.755l-19.973 25.923-33.78-37.673 15.42-20.855 4.627 3.891 15.421 2.498z"/><path fill="#dddddb" d="M90.637 199.005l-6.243-6.242 3.378-9.987 8.299-4.993 3.744-4.627 6.242 4.994z"/><path fill="#efcfca" d="M71.469 180.279l5.436 5.361h3.744l.881 4.186 2.864 2.937 4.626-6.242 7.051-8.738-5.434-4.627-2.865.441-.881-3.305-6.242-5.434z"/><path fill="#95627c" d="M76.905 185.64l2.129-3.305 6.242-10.795 1.615-1.248 3.746 2.864-.368 2.497-5.875 9.62-2.864 4.553z"/><path fill="#9075a0" d="M78.153 179.031l.881 3.304 4.552 4.186h3.746l3.305-6.242-.368-4.626-4.993-4.113-3.746 1.249z"/><path fill="none" d="M82.339 179.839h3.744l-.44-4.553z"/><path fill="#ebebeb" d="M82.339 179.398l2.937-.367-.441-3.745h1.69l.366 4.112v.881l-.808.367h-3.744z"/><path fill="#724d60" d="M129.41 156.927l14.98 53.828-33.706-28.714z"/><path fill="#efcfca" d="M64.64 61.829l5.949 2.276 5.434 1.322-4.112-3.158zM65.522 59.993h6.389l5.507-.955-7.27-.44zM16.76 99.647l12.265-17.771-7.271 6.389z"/><path fill="#464646" d="M92.986 366.143l-6.242 17.331 32.238-.294-4.92-17.037z"/></svg>