<svg xmlns="http://www.w3.org/2000/svg" viewBox="0 0 400 400"><path fill-rule="evenodd" clip-rule="evenodd" fill="#9b6534" d="M130.667 37.333l25.669 19-5.999 33.315L127.667 75z"/><path fill-rule="evenodd" clip-rule="evenodd" fill="#7c4e25" d="M127.667 75l12.62 27.041 12.463-.541-2.413-14.855z"/><path fill-rule="evenodd" clip-rule="evenodd" fill="#785d88" d="M140.287 102.041l8.407-3.348-2.36 16.306z"/><path opacity=".1" fill-rule="evenodd" clip-rule="evenodd" fill="#2b2b2b" d="M114.637 386.002l109.697-8.497 60.336 8.497L212.652 400z"/><path fill-rule="evenodd" clip-rule="evenodd" fill="#efd0cb" d="M186.333 333.33l12.775 33.003 11.668 4.005-3.702-39.741z"/><path fill-rule="evenodd" clip-rule="evenodd" fill="#785d88" d="M199.108 366.333l-25.071 21.67h28.64l8.099-17.665z"/><path fill-rule="evenodd" clip-rule="evenodd" fill="#ffeee9" d="M202.505 331.199l8.271 39.139 5.392 1.662 8.166-.5 12.583-44.837z"/><path fill-rule="evenodd" clip-rule="evenodd" fill="#785d88" d="M224.334 371.5l4.654 6-4.675 15.002h-3.984l-2.829-19.669z"/><path fill-rule="evenodd" clip-rule="evenodd" fill="#a688ba" d="M210.776 370.338l-16.443 22.164h25.996l4.005-21.002z"/><path fill-rule="evenodd" clip-rule="evenodd" fill="#cea39f" d="M192.563 332.509l12.062 8.723 32.292-14.569-33.239.667z"/><path fill-rule="evenodd" clip-rule="evenodd" fill="#bc9391" d="M186.333 333.33l18.292 7.902-2.12-10.033 1.173-3.869z"/><path fill-rule="evenodd" clip-rule="evenodd" fill="#96637c" d="M163.896 170.997l-9.938-3.334L133 211.498l23.336 7.583z"/><path fill-rule="evenodd" clip-rule="evenodd" fill="#734d60" d="M153.958 213.997l-34.625-12.116-8.833 2.369-2.167 6.625 33.836 29.373 24.729-8.005z"/><path fill-rule="evenodd" clip-rule="evenodd" fill="#96637c" d="M248.334 169.997h11.332l10.329 58.333-37.245-1.001z"/><path fill-rule="evenodd" clip-rule="evenodd" fill="#543042" d="M269.995 228.33l-32.661 31.667-4.584-22.334 9.5-13.666z"/><path fill-rule="evenodd" clip-rule="evenodd" fill="#96637c" d="M164.813 281.997l11.155 26.61 35.657-.485 30-11.625 7.71-15.003-56.772-16.997z"/><path fill-rule="evenodd" clip-rule="evenodd" fill="#b3889d" d="M192.02 160.135l-28.124 10.862-9.938 43 34.845 10h53.447l6.084-54L227.667 162z"/><path fill-rule="evenodd" clip-rule="evenodd" fill="#cecece" d="M227.667 162l-15.5 26.884-23.932 28.995L187 183.663l3.635-22.416z"/><path fill-rule="evenodd" clip-rule="evenodd" fill="#fff" d="M200 167.663l-10.308 15.831 2.328-23.359L227.667 162l-18.366 26.026z"/><path fill-rule="evenodd" clip-rule="evenodd" fill="#7c4e25" d="M252 133.75l-17.844 8.465L232.5 127.5l10.774-12.278z"/><path fill-rule="evenodd" clip-rule="evenodd" fill="#9b6534" d="M280.667 99.333L252 133.75l-10.667-13.417-11.666-13.083 5.251-17.602L258 90.688z"/><path fill-rule="evenodd" clip-rule="evenodd" fill="#ffeee9" d="M153.333 57.333l-6.999 57.666 7.001 27.335 22.998 2.999 27.345 18.5 17.155-4.333 16.084-39 13.25-11-2.834-4-15.666 1.5 3.666-41-13.083-19.833z"/><path fill-rule="evenodd" clip-rule="evenodd" fill="#efd0cb" d="M233.598 64.626l-24.273 70.649-17.082 13.474-5.243 2.084 13 16.83L227.667 162l11.662-35.556 1.197-8.09L252 112.998l6.667-14.503-10.473-6.037L234.667 104l.251-14.353L239 78.333zM207.286 84.506l-29.401 22.054-21.409-28.713 9.285-4.116 6.01 4.098 5.317 2.024 6.974.895 5.006-.833 6.879-1.823z"/><path fill-rule="evenodd" clip-rule="evenodd" fill="#cea39f" d="M234.667 104l-2.167 14.833 6.829 7.611 2.004-6.111V114l-4.414-4.482zM176.333 145.333l45.917 5.167L200 167.663zM177.885 106.56l-4.672 5.184-3.315-5.736z"/><path fill-rule="evenodd" clip-rule="evenodd" fill="#fff5f3" d="M169.911 105.633l1.661-15.121 5.516-10.659 6.974.895-4.183 10.702-1.994 15.11z"/><path fill-rule="evenodd" clip-rule="evenodd" fill="#9b6534" d="M219.333 53.333l-33-25.333L174 8.333 206.667 0l8.666 20.5z"/><path fill-rule="evenodd" clip-rule="evenodd" fill="#7c4e25" d="M219.333 53.333L174 32l-20.667 25.333z"/><path fill-rule="evenodd" clip-rule="evenodd" fill="#af7546" d="M219.333 53.333l-30.041-29.82L174 14.333l-18.333 6.269L138 35.667l11.333 11 4 10.666L174 35.667z"/><path fill-rule="evenodd" clip-rule="evenodd" fill="#cc9262" d="M189.297 23.517l-33.63-2.914-2.334 36.73-22.666-20 43.333-29zM219.333 53.333L206.667 0l23 12.334V29.5z"/><path fill-rule="evenodd" clip-rule="evenodd" fill="#af7546" d="M219.333 53.333l10.334-40.999 25.667 14L240 41.75z"/><path fill-rule="evenodd" clip-rule="evenodd" fill="#cc9262" d="M219.333 53.333l16 12.667L258 58.75l19.335-19.752-22.001-12.664z"/><path fill-rule="evenodd" clip-rule="evenodd" fill="#7c4e25" d="M277.335 38.998l3.332 60.335L250.833 82l-17.235-17.374z"/><path fill-rule="evenodd" clip-rule="evenodd" fill="#af7546" d="M233.598 64.626l47.069 34.707-45.749-9.685z"/><path fill-rule="evenodd" clip-rule="evenodd" fill="#9b6534" d="M187.416 80.19l1.764-3.693 10.777 1.069 7.329 6.94-13.164-5.431zM156.476 77.847l10.07-2.006 6.709 2.553-.21-3.674-9.313-2.055z"/><path fill-rule="evenodd" clip-rule="evenodd" fill="#96637c" d="M161.129 120.173l12.524-2.425 15.372 4.169-15.641 4.076z"/><path fill-rule="evenodd" clip-rule="evenodd" fill="#b3889d" d="M189.025 121.917l-15.525 10.75-12.371-12.494 12.301 4.404z"/><path fill-rule="evenodd" clip-rule="evenodd" fill="#fff" d="M165.283 121.66l18.222 1.198-5.779 3.901-7.56-.652z"/><path fill-rule="evenodd" clip-rule="evenodd" fill="#cea39f" d="M244.271 104l3.894-6.003 7.002 2.498-8.894 8.853z"/><path fill-rule="evenodd" clip-rule="evenodd" fill="#a688ba" d="M236.917 109.512l7.354-5.512 7.729 8.998-10.667 7.335z"/><path fill-rule="evenodd" clip-rule="evenodd" fill="#96637c" d="M153.958 213.997l21.514 46 5.695 4.5h11.396L195 241.188l-6.765-23.309z"/><path fill-rule="evenodd" clip-rule="evenodd" fill="#734d60" d="M242.25 223.997l-4.916 36-19.834 4.5h-24.937l-4.328-46.618z"/><path fill-rule="evenodd" clip-rule="evenodd" fill="#d1a1b8" d="M192.02 160.135l-33.09 32.346 29.305 25.398zM227.667 162l-39.432 55.879 56.251-13.731z"/><path fill-rule="evenodd" clip-rule="evenodd" fill="#785d88" d="M216.361 192.622l7.264-3.738 9.125 4.363-1.875 9.75-8.625 3.875-8.375-5.75z"/><path fill-rule="evenodd" clip-rule="evenodd" fill="#a688ba" d="M218.327 196.849l9.782-2.397-3.032 8.274z"/><path fill-rule="evenodd" clip-rule="evenodd" fill="#b3889d" d="M192.563 264.497l16.078 33.001 40.694-16.004-12.001-21.497z"/><path fill-rule="evenodd" clip-rule="evenodd" fill="#d1a1b8" d="M192.563 264.497l-9.23 27.833-18.52-10.333 10.659-22z"/><path fill-rule="evenodd" clip-rule="evenodd" fill="#543042" d="M236.917 326.663l8.293-30.166-26.835 10.915-32.042 25.918z"/><path fill-rule="evenodd" clip-rule="evenodd" fill="#d1a1b8" d="M176.589 230.271l3.471-4.025 4.441 4.025-3.956 3.748zM179.088 247.374l3.47-4.025 4.442 4.025-3.956 3.748z"/><path fill-rule="evenodd" clip-rule="evenodd" fill="#734d60" d="M249.335 281.494l-73.367 27.113 10.365 24.723 58.877-36.833z"/><path fill-rule="evenodd" clip-rule="evenodd" fill="#cea39f" d="M108.333 210.875L93.25 204.25l17.25-18.125 8.833 15.756z"/><path fill-rule="evenodd" clip-rule="evenodd" fill="#efd0cb" d="M93.25 161.247L88 163.893 97.25 184 86.5 196.25l6.75 8 18.25-16.75z"/><path fill-rule="evenodd" clip-rule="evenodd" fill="#ffeee9" d="M119.333 201.881l-4.666-20.548L97.25 184l.75 6.893 9.071.672 5.795 15.604z"/><path fill-rule="evenodd" clip-rule="evenodd" fill="#efd0cb" d="M177.885 106.56l9.86 4.49 1.28 10.867zM169.898 106.008l-8.479 4.351-.29 9.814z"/><circle cx="192.311" cy="88.874" r="3.73" fill-rule="evenodd" clip-rule="evenodd" fill="#2b2b2b"/><circle cx="165.099" cy="85.091" r="3.73" fill-rule="evenodd" clip-rule="evenodd" fill="#2b2b2b"/></svg>