<svg xmlns="http://www.w3.org/2000/svg" viewBox="0 0 400 400"><path fill="#ffeee9" d="M175.946 137.702l2.824-3.018 35.974 2.373 12.274 9.461-21.33 32.894-24.213 2.545-12.074-5.561.645-14.751z"/><path fill="#a688ba" d="M175.946 137.702l-20.076-5.494-8.681 15.431-5.663 27.943.136 16.818 12.783 20.924 30.151 8.513 35.912-12.004 21.4-62.465-21.006-4.105-20.097 35.541-18.176-2.204-5.802 3.796-7.426-4z"/><path fill="#2b2b2b" d="M79.264 382.5l101.057-28.759 118.001 15.179 28.246 7.951-76.048 21.885L201.141 400l-67.483-5.304z" opacity=".102"/><path fill="#ae9f6b" d="M161.671 140.007l-4.104-10.511 1.457-8.276 15.205.102 4.905 14.433-3.188 1.947-9.257 3.187z"/><path fill="#a688ba" d="M139.999 146.485l-10.14-11.53-38.285-43.068 40.254-23.093 26.01 63.89zM260.078 115.422l26.727-12.953 6.543-26.723-47.338-17.803-10.553 31.096z"/><path fill="#9075a0" d="M249.703 147.841l63.008-28.723-19.363-43.372-33.27 39.676-11.322 13.87zM156.854 230.181l-2.408-16.857 66.062-3.491-1.731 24.008-25.908 2.51z"/><path fill="#d1a1b8" d="M210.842 186.806l5.322-24.416 9.94 1.831 17.019 19.77 6.721 36.658-21.571 2.918-7.765-13.734z"/><path fill="#b3889d" d="M264.355 225.363l-12.378 1.355-2.307-7.052-33.506-57.276 4.738-19.127 13.373 3.595 25.571 26.146z"/><path fill="#d1a1b8" d="M269.85 172.732l-5.495 52.632-30.08-78.507 6.649-5.661 8.779 6.645z"/><path fill="#594165" d="M110.566 317.9L93.88 382.7l39.778 11.996 24.62-31.256-20.72-38.226z"/><path fill="#785d88" d="M188.528 390.765l-54.87 3.931 2.987-58.137.914-11.345 49.477-.494 25.064 29.954z"/><path fill="#594165" d="M250.52 398.756l-61.993-7.991-1.492-66.045 54.695-6.662 33.985 39.92z"/><path fill="#785d88" d="M300.977 377.259l-19.127-60.061-40.12.86 5.329 21.154 3.461 59.544z"/><path fill="#96637c" d="M190.902 207.118l14.479-4.577 58.974 22.822-23.505 21.907-19.832-8.581-2.241-4.848-22.993-15.158z"/><path fill="#d1a1b8" d="M207.182 199.522l-15.534 26.148-11.564-17.363-4.477-8.581 11.532-4.58z"/><path fill="#fff" d="M171.64 219.836v-27.741l-4.239 1.358v26.486l2 1.694z"/><path fill="#96637c" d="M85.607 200.675l-12.175-27.333 10.547-9.257 4.884 3.866 43.236-6.037 6.377 5.564-13.737 13.429z"/><path fill="#d1a1b8" d="M142.068 189.045l-13.428 9.122-43.033 2.508 35.369-23.534 17.499-9.664 11.258-2.781-4.001 12.786z"/><path fill="#fff" d="M153.599 176.159l18.616.269 10.413.173-2.715 12.885-18.887 6.714-5.156-6.647z"/><path fill="#b3889d" d="M164.45 176.326l4.951.07.271 6.34-3.593 3.8-2.07-3.8z"/><path fill="#b3889d" d="M156.717 182.737h22.417l-1.898 7.697-14.31 5.121-4.683-6.07z"/><path fill="#785d88" d="M157.023 237.099l-.169-6.918 61.923 3.66L230 240.695l-36.012 7.424z"/><path fill="#9075a0" d="M137.897 258.097l21.059 21.863-22.311 56.6-36.558-20.117 8.272-51.787z"/><path fill="#9b83aa" d="M157.023 237.099l10.413.387-12.922 41.586-13.021-2.495-33.133-11.921z"/><path fill="#a688ba" d="M187.272 334.867l-50.627 1.692 4.849-59.982 25.942-12.157 37.81 14.365z"/><path fill="#af94c1" d="M141.493 276.577l25.943-39.091 16.818.652 20.992 40.647-1.461 3.646-18.004 2.707z"/><path fill="#9075a0" d="M247.059 339.212l-59.786-4.345-1.492-49.729 19.088-27.69 44.975 21.963z"/><path fill="#9b83aa" d="M185.781 285.138l-1.526-47 33.097 1.25 27.503 33.881-13.935 5.103z"/><path fill="#a688ba" d="M291.246 311.267l-44.187 27.945-16.141-60.84 6.814-13.898 39-2.917z"/><path fill="#af94c1" d="M230.92 278.372l-13.568-38.984 12.648.47 46.732 21.699z"/><path fill="#d1a1b8" d="M98.8 138.449l32.519-3.663 17.836-4.24 3.088 12.14-4.645 1.596-18.076 8.51-40.66 15.159-15.43 5.391z"/><path fill="#e6e6e6" d="M117.246 146.892L85.268 157.1l-.171 12.173 25.57-3.661 5.223-7.257 5.02-6.072z"/><path fill="#fff" d="M130.301 149.469l-13.055-2.577-1.356 11.463 8.917.576 7.665-6.41z"/><path fill="#ccc" d="M85.097 169.273l5.29 14.278 24.046-7.19 5.762-8.206 1.628-6.848-5.833-2.987z"/><path fill="#b3889d" d="M129.25 187.857l9.225-20.38-6.375-5.563-11.905 6.241-.033 7.833z"/><path fill="#b3b3b3" d="M100.391 190.84l-10.004-7.289 29.807-15.396 5.936 1.052 1.764 4.915z"/><path fill="#e6e6e6" d="M134.166 163.069l-5.254 4.543-8.718.543-4.203-9.834 13.531-5.53 6.851 4.511z"/><path fill="#ccc" d="M127.893 174.122l6.816-9.934 2.239-2.441-4.849.167-11.904 6.241z"/><path fill="#efd0cb" d="M138.475 167.478l-6.376-5.564 6.919-7.596 16.651-.236-5.935 10.614z"/><path fill="#dddddc" d="M167.401 219.939l-7.394 5.119h18.213l-6.579-5.222z"/><path fill="#efd0cb" d="M214.744 137.057l-29.336 17.159 19.397-70.873 14.412 6.746 5.935 29.233z"/><path fill="#ffeee9" d="M145.799 28.946l1.342 67.98 19.938 24.516 31.131.015 20.567-24.531 11.735-61.364-32.184-23.197z"/><path fill="#efd0cb" d="M148.987 57.84l14.207 6.139 11.838 22.585 5.154 2.272 5.189-2.272 13.563-22.585 17.226-6.513-10.885-4.169-16.377 2.37-6.172 7.395-2.376 2.375-3.357-2.375-4.68-7.528-15.685-1.22z"/><path fill="#fff5f3" d="M176.997 63.063l-1.965 23.5h10.343l-2.645-23.5z"/><path fill="#cea39f" d="M179.913 91.073l-4.881-4.509h10.343z"/><path fill="#a688ba" d="M164.179 98.534l15.294.474 17.805-.575-13.334 5.323h-8.912z"/><path fill="#a688ba" d="M164.429 98.534l15.294.474 17.805-.575-12.153 6.317h-11.146z"/><path fill="#9075a0" d="M164.179 98.534l5.39-.284 7.315-1.291 2.685.791 2.951-.824 9.091 1.241 5.667.266-17.94 1.762z"/><path fill="#cdc177" d="M166.28 35.967l-2.948-9.154-18.584-5.53-3.865 10.445 4.952 2.105 7.188 3.559z"/><path fill="#ae9f6b" d="M183.102 26.032l1.494 4.172-18.315 5.762-21.532-14.683 14.683-3.288z"/><path fill="#ae9f6b" d="M202.262 35.257l-17.666-5.053-1.495-4.172 22.549-8.377 19.098 2.443-5.596 7.257z"/><path fill="#cdc177" d="M202.262 35.257l15.97-2.07 6.715 4.171 4.479-5.596 1.795-6.85-6.473-4.814z"/><path fill="#ae9f6b" d="M157.701 1.242L143.765 13.79l17.737 10.173 23.433-3.086-11.124-14.106z"/><path fill="#c1b274" d="M176.422 1.003l-18.721.239 14.616 10.546 12.618 9.089 3.628-7.902-5.765-6.306z"/><path fill="#cdc177" d="M194.633 1.003l-11.835 5.666 2.137 14.208 29.297-9.596 10.209-10.278z"/><path fill="#c1b274" d="M239.291 9.177l-14.85-8.173-39.506 19.873 37.094-3.391zM237.699 30.812l.479-7.459-5.699-5.325-7.731 2.069 4.678 11.666 5.15 3.763z"/><path fill="#ae9f6b" d="M243.838 30.812l-3.768-14.921-7.591 2.137 5.22 12.784 5.528 3.967z"/><path fill="#c1b274" d="M222.781 55.195l-4.549-22.008 11.194-1.424 5.527 6.204 1.086 16.277-7.699 5.733z"/><path fill="#cdc177" d="M244.553 50.21l-5.158 6.748-3.356-2.714-6.613-22.481 8.273-.951 8.139 7.563z"/><path fill="#c1b274" d="M254.482 43.122l-3.73 10.175-6.201-3.087-4.24-12.04-2.612-7.358h6.139z"/><path fill="#cdc177" d="M218.777 68.694l4.004-13.499 13.258-.952.375 9.429-8.648 6.409-4.684 5.868z"/><path fill="#c1b274" d="M239.84 72.457L235.699 77l-7.933-6.919 8.273-15.837 8.514-4.034 4.269 12.412z"/><path fill="#ae9f6b" d="M254.725 68.896l-7.225 7.121-7.66-3.561 4.713-22.247 9.929-7.087z"/><path fill="#c1b274" d="M218.777 68.694l.27 27.196 7.697 1.287 5.262-5.325 3.555-10.886-7.795-10.885z"/><path fill="#ae9f6b" d="M243.363 89.751l2.545-12.478-6.068-4.815-12.076-2.377 4.24 21.771 5.119 6.65z"/><path fill="#c1b274" d="M254.725 68.896l-14.885 3.56 3.523 17.295 8.104-3.357z"/><path fill="#ae9f6b" d="M252.617 95.89l2.108-26.994-11.362 20.854-4.547 6.377 4.075 8.511 8.947 1.932z"/><path fill="#c1b274" d="M232.006 91.853l-3.973 6.512 2.813 8.883 6.414 4.714 5.631-7.324.472-14.887z"/><path fill="#cdc177" d="M219.047 95.89l-.27 9.224 6.241 6.543 5.828-4.408.715-9.359.445-6.038z"/><path fill="#ae9f6b" d="M214.744 137.057l4.033-31.943 6.955 1.221 5.114.914 4.242 12.412-7.797 15.023-2.785 6.206z"/><path fill="#c1b274" d="M240.549 128.783l-2.205 9.155-11.053-3.254 3.555-27.435 12.045-2.611 6.339 10.717z"/><path fill="#cea39f" d="M174.273 121.457l11.135 32.759 21.41-32.758z"/><path fill="#cdc177" d="M234.307 146.857l3.117-7.358-10.133-4.815-12.547 2.374 6.158 6.205z"/><path fill="#ae9f6b" d="M249.703 147.841l-15.396-.983-7.016-12.174 13.258-5.901 8.207.509z"/><path fill="#cdc177" d="M260.078 115.422l-7.461-19.532-9.726 8.748-2.342 24.146 9.765.575z"/><path fill="#c1b274" d="M249.703 147.841l10.375-32.419-19.529 13.361zM142.068 23.42L128.03 49.396l8.104-.067 9.699-15.497-.849-9.972z"/><path fill="#cdc177" d="M139.628 65.708l-5.801-8.378 1.054-13.935 10.953-9.562.623 28.479-3.472 6.618z"/><path fill="#ae9f6b" d="M131.827 68.794l3.798 2.476 4.003-5.562-2.238-10.48-2.509-11.832-6.851 6z"/><path fill="#c1b274" d="M124.979 87.716l6.848-18.922 7.8-3.086 2.102 14.514-6.579 8.682-4.408 3.829z"/><path fill="#ae9f6b" d="M146.94 86.791l-5.82 4.857-5.97-2.745 4.478-23.195 6.829-3.396z"/><path fill="#c1b274" d="M133.016 108.199l-8.037-20.482 10.171 1.187 9.02 10.039-.406 9.494-6.647 3.018z"/><path fill="#cdc177" d="M153.757 105.063l-3.581 5.647-6.411-2.273-4.07-9.257-4.545-10.277 11.79-2.112.201 10.135zM125.318 120.951l7.697-12.752 10.75.238-6.376 13.7-4.712 3.664z"/><path fill="#ae9f6b" d="M167.079 121.442l-16.093 6.291-13.596-5.596 6.374-13.7 4.849-1.393 5.144-1.981z"/><path fill="#c1b274" d="M157.975 143.908l8.714-3.018.39-19.448-18.872.253.508 9.225z"/><path fill="#cdc177" d="M151.836 146.009l6.139-2.101-9.768-22.213-10.818.442-1.083 9.867 3.388 6.886 10.108 4.07z"/><path fill="#ae9f6b" d="M125.318 120.983l4.542 13.972 9.835 3.935-2.306-16.753z"/><path fill="#c1b274" d="M188.902 55.667l16.377-5.167 10.885 6.966-10.885-4.169-15.022 3.203zM172.317 55.534l-16.141-4.747-7.19 7.053 7.646-3.526 14.437 1.811z"/><path d="M163.195 60.383c1.985 0 3.597 1.61 3.597 3.597 0 1.983-1.611 3.593-3.597 3.593-1.983 0-3.595-1.61-3.595-3.593.001-1.987 1.612-3.597 3.595-3.597M198.938 60.453c1.951 0 3.529 1.577 3.529 3.526 0 1.947-1.578 3.527-3.529 3.527-1.946 0-3.525-1.58-3.525-3.527-.001-1.949 1.578-3.526 3.525-3.526" fill="#2b2b2b"/><path fill="#a688ba" d="M143.765 13.79l-1.696 9.63 42.527 6.784 56.187-11.396-1.492-9.632-54.356 11.701z"/><path fill="#ffeee9" d="M130.301 149.469l-.781 3.323 2.579 9.122 9.496-3.154 14.074-4.678.848-5.902-4.681-2.17-1.321-2.747z"/><path fill="#e6e6e6" d="M166.689 140.89l-14.854 5.12 3.833 8.072 12.953-4.544z"/><path fill="#af94c1" d="M143.901 150.351l.643-1.661 2.476-.712 1.29 1.018-.409 3.118-2.476 1.866z"/><path fill="#9b83aa" d="M149.09 153.098l-2.883 1.118-.782-.236 2.885-4.984.983 2.914z"/><path fill="#ffeee9" d="M179.913 189.485l7.226 5.661-7.054 13.161-12.684 4.304-5.561-9.562 5.561-12.784z"/><path fill="#efd0cb" d="M156.277 198.27l11.124-8.004v22.346l-9.326-3.73z"/><path fill="#fff" d="M169.231 140.007l-3.627-1.897-3.052 4.204 2.001 8.647 4.544 2.374 2.508-4.001z"/><path fill="#ccc" d="M168.385 142.959l-1.763-.916-.984 1.865.745 4.271 1.934 1.223 1.221-1.933z"/><path fill="#734d60" d="M168.317 149.402l1.084 26.993-4.951-.069 1.933-28.146z"/><path fill="#efd0cb" d="M182.629 176.6l2.779-11.225-9.026 11.122z"/></svg>