<svg xmlns="http://www.w3.org/2000/svg" viewBox="0 0 400 400"><g fill-rule="evenodd" clip-rule="evenodd"><path fill="#f0cfc9" d="M298.96 127.725l-10.582 12.142 9.736 11.486 5.596-20.73zM126.086 192.315l8.665-4.819 4.991 4.68 2.068 28.612-9.174 9.133-21.766-33.687z"/><path fill="#915976" d="M126.086 192.315l12.236-24.054 6.631-10.435 22.284 27.571 3.551 5.151-28.978 30.24z"/><path fill="#feeee9" d="M94.217 184.715l31.869 7.6 6.55 37.606L84.28 196.74l-4.391-19.528z"/><path fill="#cca09b" d="M74.805 155.498l-10.736-1.093-1.288 6.258 8.231 13.527 2.504-5.083zM82.321 160.663l-1.767 16.994 13.663 7.058-3.268-24.38z"/><path fill="#f0cfc9" d="M215.634 180.718l23.156-8.746-6.346-34.025-1.439-15.559 4.715-47.02-41.967-40.703-4.315 116.298-38.791 8.004z"/><path fill="#c1b170" d="M114.75 93.844L91.658 72.832l13.109-11.866 14.43-5.14 5.386 19.111z"/><path opacity=".1" fill="#2c2b2b" d="M111.447 381.174l119.751-18.826 113.279 15.204L240.897 400z"/><path fill="#75455e" d="M171.365 369.263l-17.795 6.194.157 5.833 53.047.264.108-6.097z"/><path fill="#d9adc2" d="M186.813 232.312l-13.592-24.206-28.268-50.357 41.828 7.133 26.568 15.836 64.156 4.22-23.414 61.388z"/><path fill="#cca09b" d="M195.054 165.574l-46.627-7.748 64.922 22.892 17.628-17.753z"/><path fill="#feeee9" d="M116.386 51.224l-3.945 31.312 8.996 53.561 16.885 32.164 56.732-2.687 12.078-31.923v-58.99l-7.665-36.949-55.43 2.057z"/><path fill="#f0cfc9" d="M132.333 81.646l-8.456 1.676-3.858 8.68 12.888 4.085 7.539 11.727 8.114-5.448 7.593 8.851 13.05-23.325 15.169-5.993-8.77-6.652-17.555 1.019-1.771 2.804-6.422 6.918-3.504 2.209-2.139-1.941-3.541-3.853z"/><path d="M146.099 108.123c-.116.445-6.314 5.436-6.314 5.436l8.829 2.868 7.539-5.209-10.054-3.095z" fill="#cca09b"/><path fill="#f0cfc9" d="M140.67 82.403l-7.826.164 1.136-2.299.99-1.523 6.253-6.423zM162.667 75.064l-6.391 4.006-4.147-10.599 7.69 5.052z"/><path fill="#cca09b" d="M232.444 137.947l-12.218-17.477 11.533-5.592 3.693 6.764z"/><path fill="#e0cc7f" d="M215.425 69.11l-.457 8.882 6.287 18.879 2.984 7.238 22.655-29.99-1.749-29.932-8.49 1.124z"/><path fill="#c1b170" d="M214.968 77.992l-.403 14.786 13.063 8.296 15.287-12.308 3.979-14.647z"/><path fill="#fff7ae" d="M188.555 23.672l41.428 4.555 15.162 15.96-29.72 24.923-15.1-27.259 4.092-7.186z"/><path fill="#e0cc7f" d="M229.983 28.227l-18.75-19.22-21.509 3.57-23.701 7.922-21.973 24.876 56.275-3.524zM93.995 43.48l19.801-19.679 32.554 2.887-2.3 18.687-33.613 10.397-8.221-5.766z"/><path fill="#fff7ae" d="M91.658 72.832l9.611-20.89 6.62-3.369 36.157-3.298z"/><path fill="#f0cfc9" d="M125.212 63.553l19.87 2.45 22.653-12.446-21.907 15.453z"/><path fill="#725483" d="M177.512 355.129l-29.724-64.899h61.262l-2.649 65.071-14.296 8.361z"/><path fill="#654a74" d="M169.337 337.281l-5.204-8.365 19.955-7.748 23.382 11.167-.475 12.671z"/><path fill="#915976" d="M153.57 375.457l23.942-20.325 28.889.169.481 20.156z"/><path fill="#b2849a" d="M233.919 274l-17 3.565-44.072-26.973 13.971-18.208 61.222-.222-2.898 21.022zM271.407 149.878l-40.365-14.175-12.318 31.341-5.375 13.674 43.67 13.846 21.306-6.883z"/><path fill="#915976" d="M291.276 208.202l-9.316-14.863-24.941 1.225-8.979 37.598 8.576 20.249 31.819 4.365z"/><path fill="#d9adc2" d="M248.04 232.162l-25.244 30.617.48 13.407 65.159-19.41z"/><path fill="#725483" d="M229.866 290.23h49.979l4.812 32.145 5.52 35.253-15.016 6.44-15.625-6.44-10.096-21.983z"/><path d="M249.436 335.645l-14.504-33.655c.861-.947 1.582-1.656 2-1.892 1.811-1.034 20.109-3.954 20.109-3.954l15.297 3.954-7.102 22.086 1.592 10.722-17.392 2.739z" fill="#654a74"/><path fill="#915976" d="M248.216 380.922l11.32-23.294h30.641l3.767 23.294-3.418 2.934z"/><path d="M241.53 195.523c3.725 0 6.744 3.021 6.744 6.745 0 3.726-3.02 6.745-6.744 6.745-3.727 0-6.748-3.02-6.748-6.745 0-3.724 3.022-6.745 6.748-6.745zm-1.373 15.125c3.107 0 5.627 2.52 5.627 5.631 0 3.108-2.52 5.628-5.627 5.628-3.111 0-5.633-2.52-5.633-5.628 0-3.112 2.522-5.631 5.633-5.631z" fill="#8e709e"/><path fill="#f1da48" d="M256.132 102.296l-51.18-18.349 2.18-9.286 52.06 19.977-.863 4.026z"/><path fill="#f2b41c" d="M256.132 102.296l-49.014-14.4-3.351-8.667 54.562 19.435z"/><path fill="#eaeceb" d="M191.05 77.675l16.082-3.014-.063 4.568-5.802 2.317z"/><path fill="#b5b4b5" d="M207.069 79.229l.049 8.667-16.068-10.221z"/><path fill="#535353" d="M191.05 77.675l7.257-1.359.75 2.15-1.962 3.054z"/><path d="M220.237 120.444c.287-.719 2.326-28.01 2.326-28.01l18.549 5.448-5.648 23.734-15.227-1.172z" fill="#feeee9"/><path fill="#cca09b" d="M227.075 107.682l.91-10.876 9.342 2.73z"/><path fill="#fff7ae" d="M157.767.001l3.65 13.444-17.367 31.93L91.706 19.08z"/><path fill="#c2c1c2" d="M238.575 321.93l46.082.445 3.778-65.599-32.657-3.046-16.865 36.908z"/><path fill="#afadae" d="M238.575 321.93l26.662.254-9.459-68.454-16.865 36.908z"/><path fill="#dbdcda" d="M147.788 290.32l25.059-39.728 82.931 3.138-5.343 36.59-59.989 23.103z"/><path fill="#e5e6e5" d="M250.435 290.32l-.995 45.325-96.545-7.609-5.107-37.716z"/><path fill="#f0cfc9" d="M150.685 160.678l10.677-5.392 14.207 3.031z"/><path fill="#75455e" d="M248.216 380.922h45.729v6.225h-45.729z"/><path fill="#cca09b" d="M291.224 209.215l19.484 3.225 1.113-29.663-23.086.677z"/><path fill="#d9adc2" d="M257.019 194.564l34.257 13.638 7.149-16.791 6.158-21.209-5.201-7.696-17.01-16.568-16.717 1.921z"/><path fill="#feeee9" d="M277.538 160.541l-22.443-16.392 7.162-15.076 23.994-5.873 11.863 28.153z"/><path fill="#f0cfc9" d="M246.995 127.022l8.1 17.127 31.156-20.949-18.324-9.74zM336.056 192.669l-24.537-26.764-5.645.15 1.07-5.087-8.838-9.668-20.568 9.241 8.656 12.647 6.155-.584-2.635 6.356 20.994 33.48z"/><path fill="#535353" d="M306.944 160.968l-20.75 12.22 3.52 5.772 21.81-13.002z"/><path fill="#b5b4b5" d="M291.751 164.54l6.039-2.99 4.945 1.64 3.657 5.635-1.26 5.526-4.547 2.596-5.828-1.626-3.617-6.018z"/><path fill="#e5e6e5" d="M293.401 165.652l4.619-2.285 3.78 1.251 2.791 4.307-.961 4.222-3.475 1.984-4.455-1.242-2.762-4.597z"/><path fill="#fef4f2" d="M144.211 86.256l-4.426 27.302 16.368-2.341-6.299-25.229z"/><path fill="#cca09b" d="M141.314 125.604l20.851-3.339 13.922 16.16-5.423 11.844-26.362 3.789-3.674-12.967z"/><path fill="#664d4c" d="M144.64 133.651l4.116-5.86 15.389 2.364 7.556 9.326-4.313 7.912-19.838 2.347-3.072-8.874z"/><path fill="#fff" d="M145.019 128.529l15.276-3.01 3.851 4.636-19.506 3.496z"/><path fill="#c1b170" d="M156.276 79.07l3.542-5.607 16.017-.085 8.753 6.316-.216 2.205-8.694-4.567zM140.67 82.403l-15.282 2.246-5.369 7.353-.736-2.836 3.512-7.545 12.175-2.876z"/><path d="M169.79 85.374c1.878-.003 3.402 1.584 3.407 3.544.005 1.96-1.513 3.552-3.391 3.555-1.877.003-3.403-1.584-3.408-3.544-.003-1.962 1.515-3.552 3.392-3.555z" fill="#2b2c2b"/><path fill="#f0cfc9" d="M161.048 110.152l9.077 7.466 15.631 22.063-12.904-25.228zM138.874 116.659l-4.558 9.311 2.187 18.925-5.913-21.985z"/><path fill="#c1b170" d="M157.767.001l31.957 12.576-45.674 32.798z"/><path fill="#d0bf76" d="M93.995 43.48l50.055 1.895-42.777 6.667z"/><path fill="#f0cfc9" d="M69.642 167.198l11.418 5.617 13.157 11.9-9.937 12.025-22.479-22.483-6.278-21.437 7.061-1.83z"/><path d="M132.558 91.651c1.878-.003 3.403 1.584 3.408 3.544.004 1.959-1.514 3.551-3.391 3.555-1.878.003-3.403-1.585-3.408-3.544-.004-1.96 1.514-3.552 3.391-3.555z" fill="#2b2c2b"/></g></svg>