<svg xmlns="http://www.w3.org/2000/svg" viewBox="0 0 400 400"><path fill-rule="evenodd" clip-rule="evenodd" fill="#feeee9" d="M120.321 201.465l-5.497-7.507-13.098-9.657-7.278 16.357 13.277 12.643z"/><path fill-rule="evenodd" clip-rule="evenodd" fill="#f0d2cc" d="M130.789 196.74l-15.965-2.782-7.099 19.343h18.856l10.591-4.177z"/><path fill-rule="evenodd" clip-rule="evenodd" fill="#feeee9" d="M137.172 202.826l-2.695-7.198-4.624-16.837-5.447 1.738v20.425l10.383 8.17z"/><path fill-rule="evenodd" clip-rule="evenodd" fill="#35291b" d="M179.802 140.374l-.206 16.801 27.578 5.344-17.056-22.763-8.224-4.184z"/><path fill-rule="evenodd" clip-rule="evenodd" fill="#46382d" d="M183.762 189.865l-13.202-29.28-5.086-22.048-4.479-20.597 13.806-3.268 5.001 25.702.451 16.606zM258.976 122.352l-20.04 14.749-19.908 18.869 28.592 24.478 18.696-21.189-2.452-22.158z"/><path opacity=".102" fill-rule="evenodd" clip-rule="evenodd" fill="#2b2c2b" d="M196.746 372.053l120.502 13.282-62.309 8.28L198.803 400 82.752 385.196z"/><path fill-rule="evenodd" clip-rule="evenodd" fill="#cea39f" d="M261.214 275.319l-6.741 34.834-14.373 6.627-16.59.827-5.093-45.474zM213.08 275.083l-3.619 9.602-14.918 31.568-18.628.498-8.017-12.279 12.373-21.464z"/><path fill-rule="evenodd" clip-rule="evenodd" fill="#efd0cb" d="M223.51 317.607l4.343 40.18 8.48 5.431 8.092-5.028 10.048-48.037zM194.543 316.253L176.8 354.537l-10.854 9.849-7.489-12.894 9.441-47.02z"/><path fill-rule="evenodd" clip-rule="evenodd" fill="#a588b8" d="M266.316 159.259l13.305 31.441-11.121 36.818-18.966-25.057-1.363-15.574z"/><path fill-rule="evenodd" clip-rule="evenodd" fill="#f0d2cc" d="M269.76 229.204l-20.131 8.729-21.846-3.657 28.428 28.214 9.504-11.799z"/><path fill-rule="evenodd" clip-rule="evenodd" fill="#7a5d88" d="M279.621 190.7l-23.724 37.362 3.079 11.314 14.245 1.997 18.251-22.658z"/><path fill-rule="evenodd" clip-rule="evenodd" fill="#a588b8" d="M255.897 228.062l-6.268 9.871 16.086 12.758 7.506-9.318z"/><path fill-rule="evenodd" clip-rule="evenodd" fill="#feeee9" d="M200.482 148.706l-11.998 5.208-2.481 15.61 19.948 28.873 36.496-32.832-2.632-15.722-13.408-5.518z"/><path fill-rule="evenodd" clip-rule="evenodd" fill="#ececeb" d="M186.708 175.176l-2.144 18.273-2.481 15.611 19.948 28.873 36.496-32.832 2.25-13.713-.059-17.183z"/><path fill-rule="evenodd" clip-rule="evenodd" fill="#dddddc" d="M184.723 198.397l-.159 24.402-2.481 15.611 19.948 28.873 36.496-32.832 2.25-13.713-.077-22.341-25.556.874h-15.915z"/><path fill-rule="evenodd" clip-rule="evenodd" fill="#96637c" d="M186.373 181.594l7.771.386 9.418 17.296 2.6 1.73 1.67-.548-14.359-25.664-7.969-3.433zM232.674 181.594l-7.771.386-13.818 17.268-2.496 2.128-1.415-2.161 21.288-24.79 5.081-3.064z"/><path fill-rule="evenodd" clip-rule="evenodd" fill="#734d62" d="M214.189 219.519l-13.055.222-.514-20.47h13.361z"/><path fill-rule="evenodd" clip-rule="evenodd" fill="#484749" d="M236.716 252.281l24.498 23.038-6.741 34.834-86.575-5.681 5.398-29.389 8.787-15.764 17.68-10.726 18.654.318z"/><path opacity=".1" fill-rule="evenodd" clip-rule="evenodd" fill="#2b2b2b" d="M236.716 252.281l24.498 23.038-2.54 13.122-37.662-9.232zM173.296 275.083l15.133-7.8 10.007 12.249-27.056 5.74z"/><path fill-rule="evenodd" clip-rule="evenodd" fill="#9075a0" d="M249.629 237.933l11.585 37.386-40.202 3.89-2.595-30.298 9.366-9.481zM198.436 279.532l-25.14-4.449 7.084-33.71h11.369l8.014 7.22zM250.794 204.126l15.522-44.867-26.501-9.416-6.424 20.053-13.605 28.742 10.563 9.64z"/><path fill-rule="evenodd" clip-rule="evenodd" fill="#a588b8" d="M177.608 157.993l-7.048 2.592-26.405 61.117 31.313-2.853 2.746-9.921z"/><path fill-rule="evenodd" clip-rule="evenodd" fill="#7a5d88" d="M249.629 237.933l1.165-33.807-15.34-4.381-15.729 5.216-1.928 22.557.62 21.393z"/><path fill-rule="evenodd" clip-rule="evenodd" fill="#9075a0" d="M235.454 199.745l-3.799-11.345-14.688 10.913.83 28.205z"/><path fill-rule="evenodd" clip-rule="evenodd" fill="#a588b8" d="M239.815 149.843l-4.361 49.902-18.487-.432z"/><path fill-rule="evenodd" clip-rule="evenodd" fill="#7a5d88" d="M180.38 241.373l19.383 7.22-.673-20.531-7.394-39.662-21.308 8.748z"/><path fill-rule="evenodd" clip-rule="evenodd" fill="#9075a0" d="M190.118 153.204l-19.558 7.381-.172 36.563 9.883.725z"/><path fill-rule="evenodd" clip-rule="evenodd" fill="#9075a0" d="M187.963 189.849l-7.692 8.024 18.819 30.189-1.837-28.937z"/><path fill-rule="evenodd" clip-rule="evenodd" fill="#a588b8" d="M190.118 153.204l-9.847 44.669 16.982 1.252z"/><path fill-rule="evenodd" clip-rule="evenodd" fill="#281c11" d="M201.425 8.592l11.751 19.715-43.387 13.849-7.931-5.845-3.788-9.044-1.379-7.719z"/><path fill-rule="evenodd" clip-rule="evenodd" fill="#46382d" d="M225.337 7.078l20.794 8.476 26.984 18.582-9.42 27.292-34.638-15.204h-37.032l21.151-17.917z"/><path fill-rule="evenodd" clip-rule="evenodd" fill="#605044" d="M135.245 46.224l-6.417 10.206 16.361 41.212 10.412-6.191-3.588-28.834z"/><path fill-rule="evenodd" clip-rule="evenodd" fill="#74665b" d="M179.147 15.362L176.877.76l-29.802 19.635-.472 22.315 13.101-18.722z"/><path fill-rule="evenodd" clip-rule="evenodd" fill="#605044" d="M179.802 140.374l-13.633-23.784-20.98-18.948 20.285 40.895z"/><path fill-rule="evenodd" clip-rule="evenodd" fill="#feeee9" d="M213.176 28.307l-46.507 5.946-8.599 11.971-6.057 16.393-2.506 26.198 6.685 22.17 23.61 29.389 10.316-.618 20.506 9.567 27.922-27.863-9.489-75.236z"/><path fill-rule="evenodd" clip-rule="evenodd" fill="#cfa49e" d="M190.118 139.756l17.056 29.79 23.591-33.974-16.863 3.192z"/><path fill-rule="evenodd" clip-rule="evenodd" fill="#f0d2cc" d="M207.174 169.546l27.615-21.772 8.858-22.797 9.867-11.307 5.462-38.514-16.783-20.587-13.136-8.345-.115 58.695-19.2 34.074 16.685-.918z"/><path fill-rule="evenodd" clip-rule="evenodd" fill="#46382d" d="M243.378 79.006h8.022l7.576-3.85-16.783-20.587-13.136-8.345 4.283 31.782zM152.013 62.617l-6.824 35.025 11.003 13.343z"/><path fill-rule="evenodd" clip-rule="evenodd" fill="#cfa49e" d="M236.856 91.129l11.988 13.79 2.919-11.893-4.822-4.893z"/><path fill-rule="evenodd" clip-rule="evenodd" fill="#605044" d="M213.176 28.307l32.955-12.753L234.515 0l-57.638.76-17.173 23.228zM229.057 46.224l44.058-12.088-3.355 49.414z"/><path fill-rule="evenodd" clip-rule="evenodd" fill="#35291b" d="M234.789 147.774l29.075-10.673-4.888-48.286-4.292-18.923-2.921 23.134z"/><path fill-rule="evenodd" clip-rule="evenodd" fill="#46382d" d="M263.864 137.101l5.896-53.551-15.076-13.658-2.921 23.134z"/><path fill-rule="evenodd" clip-rule="evenodd" fill="#35291b" d="M159.704 23.988l-10.197 22.865 2.506 15.764 14.656-28.364z"/><path fill-rule="evenodd" clip-rule="evenodd" fill="#8e7e73" d="M152.013 62.617l-23.185-6.187 18.247-36.035 12.629 3.593z"/><g fill-rule="evenodd" clip-rule="evenodd"><path fill="#f0d2cc" d="M179.017 66l-11.33-1.965-9.617 4.53 12.484 9.672 12.286 18.347 6.953-4.304 5.35 3.152 13.948-21.087 11.165-9.994-8.555-2.923-15.024 5.818L190.433 75l-1.946 1.874-3.018-2.132-4.354-6.177z"/><path fill="#cfa49e" d="M188.86 94.452l-6.375 1.602 6.329 5.885 6.329-6.507z"/><circle cx="170.52" cy="76.201" r="3.85" fill="#2b2c2b"/><circle cx="206.297" cy="74.053" r="3.85" fill="#2b2c2b"/><path fill="#fff5f2" d="M185.469 74.742l-.361 13.793-2.623 7.519 12.658-.622-3.871-7.582-.541-13.219z"/><path fill="#f0d2cc" d="M179.147 96.619l-10.703 10.482 2.699-7.846zM197.607 95.055l13.819 6.843-7.189-6.725z"/><path fill="#7a5d88" d="M171.91 109.999l6.304.372 7.573-.692 4.386 1.278 3.889-1.845 9.68.267 5.962-.546-13.023 11.466-13.099.156z"/><path fill="#fff" d="M178.214 112.495l11.733.386 13.713-1.528-7.47 5.876-12.161.365z"/><path fill="#46382d" d="M195.076 65.188l16.39-4.68 8.79 3.843-9.777-1.043-13.802 3.938zM181.507 65.789l-15.341-3.169-8.096 5.945 8.774-3.129 14.271 3.129z"/></g><path fill-rule="evenodd" clip-rule="evenodd" fill="#feeee9" d="M238.831 68.565l15.853 1.327-2.921 23.134-14.907-1.897z"/><path fill-rule="evenodd" clip-rule="evenodd" fill="#cfa49e" d="M249.629 75.414h-6.16l-.237 9.388z"/><path fill="#734d62" d="M176.8 354.537l4.992 12.439-5.145 15.549h-7.352l-5.905-24.408z"/><path fill="#96637c" d="M176.8 354.537l-13.069 28.033h-37.119l17.016-14.433 28.15-14.432z"/><path fill="#feeeea" d="M143.628 368.137l20.389.393 7.761-14.825-13.352-2.213z"/><path fill="#734d62" d="M244.425 357.827l5.087 12.39-3.108 20.822h-5.662l-.768-22.941z"/><path fill="#feeeea" d="M227.853 357.787l-6.095 15.09 18.549 3.397 4.118-18.447z"/><path fill="#96637c" d="M213.312 391.039l8.446-18.162 18.216.113 4.451-15.163-3.683 33.212z"/><path fill="#7a5d88" d="M144.531 201.376l30.937 17.473-11.074 23.315-28.838-21.793-.767-11.247z"/><path fill="#a588b8" d="M134.477 195.628l10.054 5.748-8.975 18.995-8.975-7.07z"/><path fill-rule="evenodd" clip-rule="evenodd" fill="#96637c" d="M202.406 204.251l5.026 11.944 5.027-12.187h-3.216l-1.839 5.242-1.998-5.134zM244.017 95.717v-5.932l8.07.676-.324 2.565-1.282 4.133z"/></svg>