<svg xmlns="http://www.w3.org/2000/svg" viewBox="0 0 400 400"><path fill-rule="evenodd" clip-rule="evenodd" fill="#eecec9" d="M101.347 128.786l9.32-5.507 13.344 4.871.424-7.837-9.637-19.388-2.472-3.329-22.205 4.289 3.389 14.616z"/><path fill-rule="evenodd" clip-rule="evenodd" fill="#cea19c" d="M112.326 97.596l-10.344-13.927-11.861 18.216 14.191 5.93z"/><path fill-rule="evenodd" clip-rule="evenodd" fill="#96637c" d="M137.461 110.039l-7.234 4.391 3.024 10.141 8.658 4.743z"/><path fill-rule="evenodd" clip-rule="evenodd" fill="#b3889d" d="M124.01 117.559l12.39 17.155 4.29-3.651-10.463-16.633z"/><path fill-rule="evenodd" clip-rule="evenodd" fill="#d1a1b8" d="M122.988 127.777l7.96 11.387 9.093-.308-10.357-15.134-7.136-3.302z"/><path fill-rule="evenodd" clip-rule="evenodd" fill="#96637c" d="M106.516 103.996l16.472 23.781 6.696-4.055-6.947-10.148z"/><path fill-rule="evenodd" clip-rule="evenodd" fill="#feeee9" d="M101.982 83.669l25.63 16.945-4.465 13.559-18.835-6.358z"/><path opacity=".1" fill-rule="evenodd" clip-rule="evenodd" fill="#2c2b2b" d="M74.529 383.73L205.604 400l114.258-9.116-117.364-18.021z"/><path fill-rule="evenodd" clip-rule="evenodd" fill="#eecec9" d="M249.458 264.587l-2.251 5.243 20.125 2.542 3.669-12.655z"/><path fill-rule="evenodd" clip-rule="evenodd" fill="#734d62" d="M249.866 355.045l.317.061 22.785 9.431 11.957 21.094-18.584 2.436-23.793-2.241 3.083-12.565z"/><path fill-rule="evenodd" clip-rule="evenodd" fill="#594365" d="M245.38 314.125l-8.736-59.837 37.176 111.753-28.189 7.22-37.166-68.097z"/><path d="M149.222 352.105l-19.359 10.45-22.667 18.398c1.505 2.117 8.336 2.815 14.112 2.468 9.302-.558 36.603-2.399 37.613-2.53l.045-13.11-9.744-15.676z" fill-rule="evenodd" clip-rule="evenodd" fill="#734d62"/><path fill-rule="evenodd" clip-rule="evenodd" fill="#594365" d="M147.099 319.208l-15.947-3.848-1.29 47.195 29.104 5.226 7.428-37.226z"/><path fill-rule="evenodd" clip-rule="evenodd" fill="#734d62" d="M227.376 186.399l13.186-12.603 13.455 17.696 14.786 34.063-23.142 18.448-3.113-4.311-1.41-.826.352-.847-3.773-5.979-10.764-17.257z"/><path fill-rule="evenodd" clip-rule="evenodd" fill="#96637c" d="M238.284 172.757l4.925-6.161 10.808 24.896-13.411 1.009z"/><path fill-rule="evenodd" clip-rule="evenodd" fill="#745382" d="M136.137 141.124l1.568 8.113 6.376 9.415 19.486 5.878 17.369-17.37-11.257-14.919-19.041.459z"/><path fill-rule="evenodd" clip-rule="evenodd" fill="#642c4b" d="M167.394 135.727l-13.702-.707-6.658 9.552 8.061 11.856 21.619 8.424 8.192-17.023z"/><path fill-rule="evenodd" clip-rule="evenodd" fill="#594365" d="M140.69 131.063l-6.035 5.135-3.707 2.966 6.757 10.073 9.329-4.665 1.144-.572 17.614-8.808z"/><path fill-rule="evenodd" clip-rule="evenodd" fill="#734d62" d="M112.573 166.489l-28.806 9.532 9.743-59.52 17.157 6.778 4.102 33.974z"/><path d="M160.868 185.765c2.018-.17-11.6 13.582-11.6 13.582l-65.502-23.325 31.002-18.768 11.162.11 12.628 2.609c.001-.001 22.491 25.853 22.31 25.792z" fill-rule="evenodd" clip-rule="evenodd" fill="#96637c"/><path d="M125.931 157.363l17.395.172s2 3.192 4.648 7.428l-1.734 10.618-20.309-18.218zM205.137 279.6l19.064 42.151 25.04-29.596-12.597-37.867-34.146-11.823z" fill-rule="evenodd" clip-rule="evenodd" fill="#734d62"/><path d="M214.66 300.659l3.143 6.95c6-.621 21.314 9.007 31.439 7.613l3.433-12.747-3.433-10.32-20.124.281-9.934-36.785-.205-7.48-16.48-5.705 1.61 22.663c4.192 13.652 8.359 27.486 10.551 35.53z" fill-rule="evenodd" clip-rule="evenodd" fill="#543042"/><path d="M155.572 301.416l-18.853 1.695-5.568 12.249 35.242 15.195 28.732-37.546-36.408-2.895-3.145 11.302zm43.784-8.069l9.108 11.816 16.832 30.841 33.368-15.521-5.991-18.009-28.744.42-5.27-18.579-19.303 9.032z" fill-rule="evenodd" clip-rule="evenodd" fill="#745382"/><path opacity=".2" fill-rule="evenodd" clip-rule="evenodd" fill="#2b2b2b" d="M254.604 308.277l-30.674-5.382 28.744-.42zM133.014 311.267c.848 0 36.608-6.28 36.608-6.28l-28.434-6.12-4.469 4.244-3.705 8.156z"/><path fill-rule="evenodd" clip-rule="evenodd" fill="#684479" d="M195.126 293.009l1.961-2.606 2.269 2.944h.001l19.365-8.813-8.753-28.164-40.26-5.736-10.991 39.481z"/><path d="M303.205 240.889l-8.048 5.295s-84.944 44.607-86.766 45.432c-1.822.824-14.054 2.441-14.054 2.441l-3.109-4.114 54.697-28.933 1.893-13.205 11.104 6.327 43.858-23.198.425 9.955z" fill-rule="evenodd" clip-rule="evenodd" fill="#444648"/><path d="M279.693 254.302c-8.471 4.446-19.402 10.181-30.158 15.821h-.001l-3.608-9.113 1.168-8.148 7.511-1.191 4.318 2.461 8.492-4.491 4.039-.64 8.239 5.301z" fill-rule="evenodd" clip-rule="evenodd" fill="#313335"/><path fill-rule="evenodd" clip-rule="evenodd" fill="#734d62" d="M163.409 255.452l-6.832 5.084-15.505 33.245 23.385 9.179 18.148-44.455z"/><path d="M141.072 293.781l-4.353 9.33 32.902 1.876 12.983-46.481-7.441-1.184c-2.856 11.76-14.994 37.313-14.994 37.313l-19.097-.854z" fill-rule="evenodd" clip-rule="evenodd" fill="#543042"/><path fill-rule="evenodd" clip-rule="evenodd" fill="#7a5d88" d="M163.355 239.989l-7.731 6.885.953 13.662 80.067-6.248.424-11.439z"/><path fill-rule="evenodd" clip-rule="evenodd" fill="#594365" d="M190.997 250.739l8.367-5.878 9.268 5.984-8.297 6.276z"/><path fill-rule="evenodd" clip-rule="evenodd" fill="#a0a1a0" d="M163.355 239.989l5.421 6.344-1.971 13.405 15.8-1.233-.676-12.716-15.573-5.682z"/><path d="M162.65 244.723l4.154 15.015.379-.03 14.745-13.919c.001 0-11.8-.771-19.278-1.066z" fill-rule="evenodd" clip-rule="evenodd" fill="#8f8f8f"/><path fill-rule="evenodd" clip-rule="evenodd" fill="#8c709d" d="M178.182 212.347l21.182 32.514 5.594-.399 12.2-6.377-3.894-30.252z"/><path fill-rule="evenodd" clip-rule="evenodd" fill="#715d7e" d="M204.958 244.462l5.637-.331 2.606-3.505-18.953-30.345-10.346 1.331z"/><path fill-rule="evenodd" clip-rule="evenodd" fill="#cea19c" d="M168.122 161.193l32.529 43.353 19.94-39.398-14.342-26.195-33.361 13.874z"/><path fill-rule="evenodd" clip-rule="evenodd" fill="#8c709d" d="M196.082 195.72l-2.342-13.081 16.321-24.622 7.409 39.84-9.104 21.586z"/><path d="M193.387 184.124l-.707-3.04 14.84-27.304 2.905 12.876c-5.753 6.029-14.331 14.728-17.038 17.468z" fill-rule="evenodd" clip-rule="evenodd" fill="#9e85ab"/><path fill-rule="evenodd" clip-rule="evenodd" fill="#a282b7" d="M166.64 230.034l15.289 15.755 17.435-.928-1.234-11.05-2.486-7.187 1.365-2.847-3.893-34.834-31.772-21.606z"/><path fill-rule="evenodd" clip-rule="evenodd" fill="#82698e" d="M198.13 233.811l-2.357-21.089-22.334-35.758-3.599 12.709z"/><path fill-rule="evenodd" clip-rule="evenodd" fill="#96637c" d="M173.841 169.56l-2.367 10.461 4.907 30.865-13.236 15.971-10.28-25.188 6.524-33.027z"/><path fill-rule="evenodd" clip-rule="evenodd" fill="#96637c" d="M181.929 245.789l-26.305 1.085-4.766-35.055 2.007-10.15 17.057 9.515z"/><path d="M176.381 210.886l5.548 34.902-6.739.278c-1.847-11.695-5.268-34.883-5.268-34.883l6.459-.297z" fill-rule="evenodd" clip-rule="evenodd" fill="#734d62"/><path fill-rule="evenodd" clip-rule="evenodd" fill="#b3889d" d="M164.178 162.904l-9.083-6.476-11.77 1.107 1.95 11.838 4.312 1.353-3.348 4.855 2.484 19.483 3.3 2.562-2.754 1.72 1.589 12.473 19.064-.635-1.233-12.384-4.486-2.868 4.014-1.895z"/><path d="M145.275 169.373l.964 6.208 19.394-1.461.023-5.806h-.001l-20.38 1.059zm3.448 25.691l.546 4.283 19.421-.546-.473-4.763-19.494 1.026z" fill-rule="evenodd" clip-rule="evenodd" fill="#d1a1b8"/><path d="M213.133 147.532c1.052 1.465-5.613 6.248-5.613 6.248l2.472 56.766 14.881 9.305 10.569-23.001-20.72-44.234-1.589-5.084z" fill-rule="evenodd" clip-rule="evenodd" fill="#96637c"/><path fill-rule="evenodd" clip-rule="evenodd" fill="#96637c" d="M211.388 212.28l3.951 12.411 17.882 18.545 3.847-.387 2.138-35.564-3.765-10.435-17.582 10.805z"/><path fill-rule="evenodd" clip-rule="evenodd" fill="#734d62" d="M209.892 208.265l1.758 19.334 6.874 4.124-.665-24.068z"/><path fill-rule="evenodd" clip-rule="evenodd" fill="#b3889d" d="M217.859 207.655l-.447-11.173 2.816-2.244-3.14-2.549-1.129-16.605 2.68-3.087-3.15-2.824-1.135-17.733 5.556-3.062 2.014 3.073 21.285 15.145-.692 6.903-3.893 2.15 3.417 2.59-1.435 14.262-2.056 1.737 1.639 2.405-.983 10.642z"/><path d="M217.412 196.482l-.324-4.793 23.518.812-.417 4.142-22.777-.161zm-1.45-21.37l-.473-5.939 27.027 4.326-.476 4.74-26.078-3.127z" fill-rule="evenodd" clip-rule="evenodd" fill="#d1a1b8"/><path fill-rule="evenodd" clip-rule="evenodd" fill="#cea19c" d="M161.026 132.917l11.862 19.91 34.631.953 9.003-6.46 1.482-18.851z"/><path fill-rule="evenodd" clip-rule="evenodd" fill="#eecec9" d="M232.946 109.973l-7.104 26.996-18.323 16.811 1.991-4.906-29.693-4.787 22.785-96.518 25.993-7.639 6.672 36.114z"/><path fill-rule="evenodd" clip-rule="evenodd" fill="#734d62" d="M207.519 153.78l1.372-18.382 17.538-.602-2.259 18.253z"/><path fill-rule="evenodd" clip-rule="evenodd" fill="#1d160d" d="M233.148 49.99l15.25-1.059-8.157 34.531-14.082.418.613-23.604z"/><path d="M200.528 24.571c1.06-.847 27.112-12.285 27.112-12.285l20.758 36.645-34.876 18.297 3.317-18.934-13.981 2.119-2.33-25.842z" fill-rule="evenodd" clip-rule="evenodd" fill="#332921"/><path fill-rule="evenodd" clip-rule="evenodd" fill="#3d332b" d="M165.579 10.804l25.206-5.72 36.856 7.202-16.097 27.324-41.729 10.168-7.201-24.783z"/><path fill-rule="evenodd" clip-rule="evenodd" fill="#443b34" d="M140.373 27.536l.848-11.861L162.825 0l27.96 5.084-16.731 34.315-27.538 2.33z"/><path fill-rule="evenodd" clip-rule="evenodd" fill="#332921" d="M163.462 49.354L146.729 32.62l-5.508-16.945-14.404 16.522 8.898 18.851z"/><path fill-rule="evenodd" clip-rule="evenodd" fill="#feeee9" d="M135.715 51.048l-5.488 63.382 15.048 23.792 34.542 5.865 22.743-14.295 14.28-81.498-5.296-8.684-37.49-.211-27.325-6.779z"/><path fill-rule="evenodd" clip-rule="evenodd" fill="#eecec9" d="M149.8 60.58l-9.638 2.753 11.659 16.264 9.935 13.099 6.492 1.282 2.522 4.834 17.645-15.35 19.315-12.398-7.836-4.976-22.823 5.301-5.347 4.547-4.45 5.191-.317-5.826-1.482-5.084z"/><path fill-rule="evenodd" clip-rule="evenodd" fill="#cea19c" d="M166.957 91.504l-6.46 5.402 4.235 4.978 6.038-3.072z"/><path fill-rule="evenodd" clip-rule="evenodd" fill="#281c11" d="M178.821 66.722l22.132-2.118 6.777 6.46-7.909-2.092-22.75 2.417zM164.492 65.462l.983 4.755-16.654-7.078-8.659.194 9.32-4.342z"/><path fill-rule="evenodd" clip-rule="evenodd" fill="#fef5f3" d="M166.957 75.301l-6.46 21.605 10.273 1.906.954-22.876z"/><path fill-rule="evenodd" clip-rule="evenodd" fill="#cea19c" d="M154.989 113.64l23.83 2.86 5.719-2.86.847 2.648-5.718 3.706-24.359-2.965z"/><path fill-rule="evenodd" clip-rule="evenodd" fill="#3f4142" d="M162.276 168.492l10.041 16.838 6.702-2.878 7.501 25.926 10.561 16.048 13.514 19.705-.703-35.866-8.938-15.098-12.181-12.91-4.019-10.785-8.743-12.264-14.255.927.52 10.356z"/><path fill-rule="evenodd" clip-rule="evenodd" fill="#4f5051" d="M155.095 156.428l7.181 12.064v-.001l13.735-11.283-3.123-4.381z"/><path fill-rule="evenodd" clip-rule="evenodd" fill="#313335" d="M197.081 224.426l13.514 19.705 14.371-8.544-1.22-6.514-13.854-20.808z"/><path fill-rule="evenodd" clip-rule="evenodd" fill="#2b2c2e" d="M210.595 244.131l22.351-1.442-9.2-13.616z"/><path d="M177.073 182.836l1.946-.384 4.77 21.776 2.731 4.15c3.704-4.06 9.729-10.624 14.434-15.212l-2.53-3.666-9.65-9.243-2.263-6.073-3.395.628-6.043 8.024z" fill-rule="evenodd" clip-rule="evenodd" fill="#313335"/><path fill-rule="evenodd" clip-rule="evenodd" fill="#96637c" d="M267.815 223.284l.871 1.51 6.517 11.327-16.69 10.646-12.587 14.243-3.378-21.318.36-.235z"/><path fill-rule="evenodd" clip-rule="evenodd" fill="#cea19c" d="M261.796 253.335l-10.486-10.803-5.384 18.478z"/><path d="M311.044 207.632l-2.646-5.585-9.039 3.898.583 1.48 9.195 5.713c0 .001 1.505-6.352 1.907-5.506z" fill-rule="evenodd" clip-rule="evenodd" fill="#808181"/><path fill-rule="evenodd" clip-rule="evenodd" fill="#c2c1c2" d="M308.397 202.047l-13.24 44.137 11.332 7.626 9.744-51.577z"/><path fill-rule="evenodd" clip-rule="evenodd" fill="#808181" d="M164.679 290.876l-5.054-4.015 4.58-6.601 1.746 1.618 2.751 7.622z"/><path fill-rule="evenodd" clip-rule="evenodd" fill="#c2c1c2" d="M160.171 294.634l48.294 10.53-.073-13.548-48.767-4.755z"/><path fill-rule="evenodd" clip-rule="evenodd" fill="#8f8f8f" d="M183.789 204.228l14.635-14.727-13.297-10.194-12.81 6.023z"/><path fill-rule="evenodd" clip-rule="evenodd" fill="#a0a1a0" d="M198.424 189.501l-13.67-20.029-12.437 15.858z"/><path fill-rule="evenodd" clip-rule="evenodd" fill="#313335" d="M177.732 186.195l6.171-8.374 7.846 10.613-7.195 8.1z"/><path fill-rule="evenodd" clip-rule="evenodd" fill="#594365" d="M168.297 249.594l2.2 6.987 8.056-1.287.02-6.336z"/><path fill-rule="evenodd" clip-rule="evenodd" fill="#feeee9" d="M251.31 242.532l6.617 23.19 30.24-13.447-13.768-17.157z"/><path fill-rule="evenodd" clip-rule="evenodd" fill="#653851" d="M242.517 392.796h42.621l-.213-7.165-42.377.195zM107.196 380.954h51.725v6.189h-51.725z"/><path fill-rule="evenodd" clip-rule="evenodd" fill="#eecec9" d="M166.315 141.795l.955-12.242-2.331.478-3.183 10.989zM191.633 106.305l-4.062 14.22 6.169-7.334zM147.974 103.809l3.15 14.219-5.849-8.723z"/><path d="M192.28 83.462c0 2.135-1.73 3.865-3.865 3.865-2.135 0-3.865-1.73-3.865-3.865 0-2.135 1.731-3.865 3.865-3.865 2.136 0 3.865 1.731 3.865 3.865zM154.989 78.499c0 2.135-1.731 3.865-3.865 3.865-2.135 0-3.865-1.73-3.865-3.865 0-2.135 1.731-3.865 3.865-3.865 2.135-.001 3.865 1.73 3.865 3.865z" fill-rule="evenodd" clip-rule="evenodd" fill="#2b2b2b"/><path fill-rule="evenodd" clip-rule="evenodd" fill="#594365" d="M182.605 258.505l-8.319 29.786 16.943 1.651 25.055-13.252-5.979-19.24-2.731-.894z"/><path d="M299.941 207.426l-.583-1.48-31.546 17.339.867 1.507 31.262-17.366zm-58.451 30.593l-77.285 42.241 1.746 1.617 76.597-42.186-1.058-1.672z" fill-rule="evenodd" clip-rule="evenodd" fill="#dddddc"/><path fill-rule="evenodd" clip-rule="evenodd" fill="#1d160d" d="M223.869 93.481l-5.865-1.977 3.476-15.46-7.958-8.816 13.25-6.952 1.118 24.209-1.731-.605z"/><path fill-rule="evenodd" clip-rule="evenodd" fill="#cea19c" d="M226.849 98.459l-5.369 2.426 11.466 9.088 1.349-6.164z"/><path fill-rule="evenodd" clip-rule="evenodd" fill="#feeee9" d="M240.241 82.364l-5.946 21.445-12.815-2.924 5.792-21.808z"/><path fill-rule="evenodd" clip-rule="evenodd" fill="#cea19c" d="M235.946 87.328l-5.875-3.273-2.583 10.803z"/></svg>