<svg xmlns="http://www.w3.org/2000/svg" viewBox="0 0 400 400"><path fill="#2b2b2b" d="M111.404 131.726l1.268 19.473 9.302 3.279 5.089-17.053-9.098-11.384zM170.344 143.158l6.178 15.673-28.745 2.42-19.627-26.524 7.817-14.913 4.716 13.011z"/><path opacity=".1" fill="#2b2b2b" d="M104.196 388.299l89.481 11.647 100.935-11.647-91.062-13.249z"/><path fill="#734d62" d="M264.654 163.683l34.567 55.195-25.9 35.456-13.736-13.092-10.83-37.092z"/><path fill="#9075a2" d="M139.667 310.369l2.958 17.756 12.814 14.893 27.686-6.143 10.375-24.256-3.278-20.178-8.453-4.095zM193.5 312.619l14.44 25.116 24.131 3.598 20.323-6.913 3.037-21.801-24.655-32.344z"/><path fill="#594467" d="M167.904 296.25l25.596 16.369 22.804-17.635-26.526-34.508z"/><path opacity=".2" fill="#2b2b2b" d="M189.778 271.15l26.526 52.517 35.995 10 3.132-21.048zM189.778 271.15l-16.987 51.1-30.166 5.875-2.958-17.756z"/><path fill="#9b798b" d="M141.75 238l-11.889 32.167-5.868 35.213 39.65 12.622 26.135-46.852 37.193 11.453-36.652-74.049z"/><path fill="#a588b9" d="M190.136 251.5l42.408-51.5 6.102-48.237-6.102-4.809-42.408 29.402-19.618-23.424-12.954 4.742 20.895 35.993z"/><path fill="#9b798b" d="M262.058 203.401l2.596-39.718-26.008-11.92-27.423 51.638 6.918 20.189z"/><path fill="#b3889d" d="M190.136 251.5l-.358 19.65 31.013 46.852L275.5 309.5l-4.75-36.25-11.165-32.008L225.918 231z"/><path fill="#96637c" d="M259.585 241.242l32.341-34.012 20.088 32.075-41.264 33.945z"/><path fill="#734d62" d="M147.54 159.771l-7.546-2.097-5.788 8.543-27.859 45.832 17.889 33.502L141.75 238z"/><path fill="#96637c" d="M114.247 199.052L141.75 238l-11.889 32.167-36.175-37.288z"/><path fill="#b29392" d="M259.585 241.242l-10.83 1.6 10.985 21.851 7.248-2.227z"/><path fill="#734d61" d="M247.904 241.666l14.69 28.703-5.588 2.192-15.634-30.658zM148.902 240.471l-11.527 27.779 5.75 2.375 11.689-28.92z"/><path fill="#b29392" d="M141.75 238l7.152 2.471-9.611 23.162-4.958-5.739z"/><path fill="#734d62" d="M199.984 256.501l-6.234 6.259 6.504 6.485 6.505-7.542z"/><path fill="#d1a1b8" d="M196.835 183.848l-3.594 3.76 3.749 3.896 3.751-4.53zM196.835 203.401l-3.594 3.759 3.749 3.898 3.751-4.532z"/><path fill="#a588b9" d="M169.065 151.199l14.058 16.783-16.546 14.329-10.33-26.936 9.027-4.176z"/><path fill="#785d87" d="M183.123 167.982l7.013 8.374-23.559 5.955z"/><path fill="#9075a0" d="M190.136 176.356V251.5l-23.559-69.189zM202.393 167.858l20.717 13.158 8.297-15.622 1.137-18.44z"/><path fill="#997c7c" d="M190.136 176.356l42.408-29.402 5.69-62.606-10.421-10.598-27.072 77.449z"/><path fill="#b29392" d="M160.468 36.153l-26.57 31.377-6.835 1.546 2.313 11.739-4.832 48.265 40.73 22.119h35.467l22.764-14.416 4.52-63.595-38.818-37.035z"/><path fill="#7e6462" d="M169.065 151.199l21.071 25.157 21.087-25.157z"/><path fill="#737474" d="M225.011 45.2l9.079 4.292 3.736-11.83-28.14-15.162-20.479 13.653 23.348 9.347z"/><path fill="#414344" d="M189.207 36.153l35.804 9.047 4.614 8.863.54 8.769-6.832-1.415z"/><path fill="#2e2f30" d="M248.755 156.395l3.184 7.382 21.061-.094v-16.729l-8.913-19.469L262 92.545l-24.174-54.883 12.085 92.714z"/><path fill="#414344" d="M229.05 169.833L252.5 173l-2.589-42.624-1.156-22.751-12.853-25.166zM274.813 171.125l22.062-12.375-15.441-31.265-12.705 7.036-4.642-7.036z"/><path fill="#404543" d="M293.227 120.954l23.472-20.352-52.612-83.404-19.856 12.549L274.32 85.76z"/><path fill="#414344" d="M264.087 127.485l4.642 7.036 24.498-13.567-25.358-47.204-23.638-44.003-41.398-5.414-27.88 11.82h14.254l22.734-6.406 25.885 7.915 33.919 88.379z"/><path fill="#2e2f30" d="M293.543 152.004L312 137.5 244.231 29.747l37.203 97.738z"/><path fill="#5a5a5a" d="M154.994 36.153H174.953l-24.286-16.068-35.708 24.36-7.472 34.982 20.663-27.85z"/><path fill="#414344" d="M157.093 4.017l-40.249 21.396V35l34.75-16.923 23.359 18.076-8.171-20.61z"/><path fill="#747575" d="M174.953 36.153l-22.59-20.61-50.971 27.018-1.376 30.528 14.943-28.644 36.184-20.111z"/><path fill="#414344" d="M117.092 123.095l7.27 46.738 23.178-10.062-15.224-28.045-.937-22.106-4.436-4.673zM154.001 32.997l-25.851 18.58-1.207 25.092 6.955-9.139 32.178-31.377z"/><path fill="#404543" d="M83.301 105.124l11.97 25.252 32.879-78.799-13.191-7.132z"/><path fill="#414344" d="M264.087 17.198l-19.856 12.549-41.398-5.414-27.88 11.82L189.207 6.75z"/><path fill="#4f5253" d="M257.667 119.814l-19.841-82.152-12.815 7.538 5.155 17.635-.001 8.332 5.737 11.292 14.009 47.917z"/><path fill="#5a5a5a" d="M266.835 138.667l25.415-8.291-48.019-100.629-6.405 7.915 12.922 65.978 12.912 23.974z"/><path fill="#c4a7a7" d="M165.84 76.669h16.016L178.7 87.411l4.423 13.191h-16.341l5.135-13.191z"/><path fill="#7e6462" d="M166.782 100.602l7.698 6.076 8.643-6.076z"/><path fill="#997c7c" d="M214.186 77.666l-14.285-11.832-18.045 10.835-3.156 10.742 4.423 13.191zM165.84 76.669l-14.483-10.835-13.286 13.68 28.711 21.088 5.135-13.191z"/><path d="M160.297 80.079c0 2.405-1.948 4.353-4.352 4.353-2.403 0-4.352-1.948-4.352-4.353 0-2.403 1.948-4.352 4.352-4.352 2.404 0 4.352 1.948 4.352 4.352zM199.022 79.513c0 2.405-1.948 4.352-4.351 4.352-2.404 0-4.353-1.947-4.353-4.352 0-2.403 1.948-4.352 4.353-4.352 2.403.001 4.351 1.949 4.351 4.352z" fill="#2b2b2b"/><path fill="#7e6462" d="M153.029 114.841l3.772 3.286h38.948l4.418-4.293-6.975 2.33-12.3-1.617-5.942 2.802-6.473-2.802-9.823 1.617z"/><path fill="#7e6462" d="M156.247 116.983l8.863 18.306 3.955 2.136h17.765l3.163-3.218 6.806-19.013-3.8 2.922h-33.856z"/><path fill="#fff" d="M160.328 118.116l7.264 12.26h19.432l5.975-12.26z"/><path fill="#997c7c" d="M183.123 100.602l20.734 10.908-2.967 20.216 9.327-18.907 13.851-5.182zM166.782 100.602l-17.055 13.263 4.925 15.215-10.484-14.239-8.234-3.329z"/><path d="M192.45 83.217c-4.006 0-7.412 2.531-8.733 6.078-2.672-2.905-5.56-4.354-8.598-4.305-4.077.068-7.271 2.827-8.854 4.516-1.261-3.657-4.725-6.289-8.811-6.289-5.151 0-9.328 4.177-9.328 9.328s4.177 9.328 9.328 9.328c5.152 0 9.328-4.176 9.328-9.328 0-.209-.018-.413-.032-.618l.369.267c.035-.047 3.5-4.741 8.051-4.81 2.744-.045 5.375 1.587 7.894 4.84l.079-.061c-.005.127-.02.252-.02.382 0 5.151 4.177 9.328 9.327 9.328 5.152 0 9.328-4.176 9.328-9.328 0-5.151-4.176-9.328-9.328-9.328zm-34.996 16.262c-3.822 0-6.934-3.11-6.934-6.934 0-3.823 3.111-6.934 6.934-6.934s6.934 3.111 6.934 6.934c0 3.824-3.111 6.934-6.934 6.934zm34.996 0c-3.822 0-6.933-3.11-6.933-6.934 0-3.823 3.11-6.934 6.933-6.934s6.934 3.111 6.934 6.934c0 3.824-3.111 6.934-6.934 6.934z" fill="#414344"/><path fill="#785d87" d="M190.136 176.356l32.974 4.66-20.717-13.158z"/><path fill="#96637c" d="M141.75 238l48.386 13.5-15.184-47.35-23.595-14.483-21.038 12.035zM190.136 251.5l69.449-10.258 2.473-37.841h-50.835z"/><path fill="#b3889d" d="M156.247 155.375l-8.707 4.396-17.221 41.931 44.633 2.448z"/><path fill="#7c5e8a" d="M183.125 336.875l-40.5-8.75 4 31.125 13.424 8.133L172.375 366zM252.394 334.42l-44.454 3.315L224 365.667l14.167 3.362 11-4.529z"/><path fill="#5a4a74" d="M172.375 366l.416 14.502-19.102 2.425L120.188 380l26.437-20.75zM224 365.667l-6.625 20.809 19.288 3.295 18.768-3.295-6.264-21.976z"/><path fill="#503b5a" d="M217.375 386.476h38.056v7.649h-38.056zM120.188 380h52.604v7.649h-52.604z"/><path fill="#747575" d="M244.231 29.747L200 14.076l-25.047 22.077 27.88-11.82z"/><path fill="#5a5a5a" d="M157.093 4.017L178.7 6.5l2.05 7.576-5.797 22.077z"/><path fill="#737474" d="M174.953 36.153L178.7 6.5 194.671 0l69.416 17.198-73.999-8.82z"/><path fill="#5a5a5a" d="M100.016 73.089l14.943-28.644-13.567-1.884z"/><path fill="#313234" d="M128.15 51.577l-44.849 53.547 11.97 25.252z"/><path fill="#5a5a5a" d="M108.549 168.575l9.379-39.52 8.076-22.377 3.372-25.863 4.522-13.285-5.748-15.953-44.13 99.622z"/><path fill="#747575" d="M133.898 67.53L84.02 151.199l44.13-99.622z"/><path fill="#303133" d="M131.379 109.62l-13.356 19.46 12.55-53.353z"/><path fill="#313234" d="M189.207 36.153l40.958 26.679 5.738 19.627z"/><path fill="#404543" d="M249.911 130.376l-12.085-92.714 25.843 89.983z"/><path fill="#747575" d="M237.826 37.662l54.424 92.714-48.019-100.629zM316.699 100.602l-72.468-70.855 19.856-12.549z"/><path fill="#313234" d="M249.911 130.376l-15.531-28.503 1.523-19.414z"/><path opacity=".2" fill="#2b2b2b" d="M129.861 270.167l7.514-1.917 1.916-4.617-4.958-5.739zM262.594 270.369l8.156 2.881-3.762-10.784-7.299 2.227z"/><path fill="#313234" d="M128.15 51.577l37.926-15.424-12.075-3.156z"/></svg>