<svg xmlns="http://www.w3.org/2000/svg" viewBox="0 0 400 400"><g fill-rule="evenodd" clip-rule="evenodd"><path d="M206 395.427l-80.658-14.785 25.625-1.604 54.493-4.592 90.98 11.41s-92.113 9.071-90.44 9.571z" opacity=".1" fill="#2b2b2b"/><path fill="#745382" d="M289.077 186.164l-.442-14.704-3.668.785-3.554 10.295 4.547 4.828zM242.172 151.76l5.807 4.257 11.064-3.118-.601-4.367-1.607-3.797-7.633-1.519-6.87 4.175z"/><path fill="#8c709d" d="M242.027 139.04l.305 8.351 14.503-2.656-2.812-7.216-6.477-4.968z"/><path fill="#745382" d="M262.258 152.71l-5.826-1.9-3.614 3.418 2.007 4.937 5.223 2.279 3.214 6.834 7.633.381 8.033.759 3.213-4.557-5.623-5.317z"/><path fill="#745382" d="M299.415 154.608l-5.625-2.658-9.641 3.418-8.194 7.192 6.186 8.757 6.494.143zM258.254 111.367l-4.907 3.73.274 5.902 15.096-.113 2.178-8.81-1.607-4.936z"/><path fill="#8c709d" d="M286.159 106.38l-16.871.76-2.612 10.442 2.209 8.165 6.828 6.456 4.821-3.797 6.427-17.469z"/><path fill="#745382" d="M299.817 119.292l-13.658-12.912-10.446 25.823 9.643 1.139 8.992-2.618 3.862-4.977z"/><path fill="#8c709d" d="M303.832 144.355l-4.015-25.063-6.027 9.114 2.009 8.354z"/><path fill="#d09eb5" d="M299.415 154.608l4.417-10.253-10.042-15.949-18.077 3.797-9.037-14.621-11.598.969-4.669 2.639-4.662 10.271 1.98 4.074 9.108 9.2 29.125 13.023z"/><path fill="#fef4f2" d="M260.048 142.076l-3.213 2.659 6.31 2.456zM279.37 155.193l7.392-2.751-.802 5.316z"/><path fill="#b2849b" d="M256.432 150.81l.403-6.075 16.871.759 12.254 12.264-6.631 4.445z"/><path fill="#e3c6d6" d="M271.503 137.863l8.429 3.264.201 2.848-6.427-1.139-4.418-3.418z"/><path fill="#4e325e" d="M273.706 145.494l-4.418-6.076 10.845 4.557z"/><path fill="#b2849b" d="M253.22 125.368l1.204 4.176 6.829-.759 10.25 9.078-7.84-12.875zM279.932 141.127l14.26-3.228 4.82 6.456-2.812 1.898-4.016-4.936z"/><path d="M261.655 138.278c1.327 0 2.41-1.023 2.41-2.278s-1.083-2.278-2.41-2.278c-1.326 0-2.409 1.023-2.409 2.278s1.083 2.278 2.409 2.278zM286.961 148.152c1.328 0 2.41-1.023 2.41-2.278 0-1.255-1.082-2.278-2.41-2.278s-2.41 1.023-2.41 2.278c0 1.255 1.082 2.278 2.41 2.278z" fill="#393939"/><path fill="#b2849b" d="M78.016 395.136l4.58.308.818-2.009.654-1.547 8.391 2.058 3.498-3.039-14.67-3.506zM89.529 381.558l-1.046-5.993 2.008-6.267 7.633-.569 6.828 3.418-5.623 7.213z"/><path fill="#915976" d="M96.666 385.599l-7.137-4.041 6.184-8.082 9.239-1.329 1.099 8.651z"/><path fill="#b2849b" d="M208.78 395.618l-42.447-7.781-.716-2.344 4.287-1.877z"/><path fill="#d09eb5" d="M143.916 388.097l-2.008 1.898 1.205 4.178 23.219-6.336 3.572-4.221zM149.12 365.261l-26.874 12.867 1.787 3.703 34.748-13.879-4.174-2.219zM199.533 351.017l-1.6 7.601 23.694-5.551z"/><path fill="#b2849b" d="M122.246 378.128l-.401 6.801 21.268 9.244.803-6.076z"/><path fill="#d09eb5" d="M80.852 352.021l-.403 3.796 2.009 2.28 23.762-3.205 3.151-6.289z"/><path fill="#b2849b" d="M76.031 357.716l9.718 13.93 5.564-1.311 2.614-5.666-13.075-12.648z"/><path fill="#d09eb5" d="M79.679 362.944l7.024-5.263 2.785 2.693-7.231 6.268zM93.927 364.669l-8.178 6.977 2.734 3.919 3.454-5.449 6.187-1.387z"/><path fill="#a283b8" d="M97.722 360.753l11.649-12.15 14.059 4.937 5.624 8.354-.405 3.492-10.74 4.836z"/><path fill="#8e709e" d="M132.167 349.103l-22.796-.5 19.683 13.291 4.017-8.354z"/><path fill="#a283b8" d="M137.206 328.39l-5.039 20.714.904 4.436 48.857-9.326.78-14.215-5.834-5.353-16.973-.649z"/><path fill="#8e709e" d="M163.054 322.446l-25.848 5.944 39.668-3.744z"/><path fill="#6f4258" d="M179.162 342.745l-46.995 6.359-3.113 12.79 7.231.57 30.039-7.047 10.402-7.602z"/><path fill="#8e709e" d="M117.909 370.222l11.145-8.328 33.917-7.014-1.449 4.539-12.402 5.842z"/><path fill="#594365" d="M181.508 364.81l-32.388.451 30.042-22.516 2.746 2.459 2.001 5.201z"/><path fill="#b2849b" d="M221.627 353.067l-20.878 2.668-51.629 9.526 9.661 2.691 6.983 1.084 34.985-7.969 23.908-2.591z"/><path fill="#784c63" d="M99.932 380.501l-3.266 5.098 6.616.771 2.769-5.572z"/><path fill="#b2849b" d="M96.033 394.806l6.519 1.566 6.505-10.461-6.935-3.404 1.387 5.625z"/><path fill="#d09eb5" d="M78.016 395.136l9.488 4.947 19.408-11.047-4.79-6.529-2.147 3.476 1.715 1.723-13.86 7.738-4.416-2.009z"/><path fill="#d6b0ad" d="M194.061 144.645l4.239 7.194 6.722 31.556 14.436-15.778 8.097-6.222 8.368-5.853 2.009-5.61-21.875-9.859-15.949-.376z"/><path fill="#eecec9" d="M228.387 126.727l-20.086 12.329 1.266 5.049 22.879 8.996 4.748 3.333 4.947-3.64.191-5.403 15.922-36.023-2.455-25.913-15.293-18.971-5.296 2.039z"/><path fill="#cea19c" d="M247.207 98.077l11.047 13.291 5.892-13.332-7.286-3.716z"/><path fill="#8b8a8a" d="M236.59 59.564l3.916 6.92 9.115 22.67 25.094-15.03-.482-38.513-8.687-1.408-18.821 8.923-4.344 8.923z"/><path fill="#915976" d="M253.223 97.138l3.137 5.166 4.665-3.992-2.757-1.371z"/><path fill="#feeee9" d="M252.516 73.185l-5.309 24.892 16.939-.041 10.569-23.912z"/><path fill="#cea19c" d="M258.12 79.772l-2.191 10.485 9.933-10.254z"/><path fill="#9c9fa0" d="M232.731 14.946l-3.379 7.985V37.49l13.029 14.559 31.852-16.438-24.131-30.058z"/><path fill="#bebcbd" d="M225.008 9.779l-9.65 6.107-5.31 13.62 11.101.47 8.203-7.045 20.75-17.378z"/><path fill="#8b8a8a" d="M211.979 38.43l-1.931-8.924 19.304-6.575 13.029 29.118-9.65 1.41zM151.655 51.111l12.065-24.423 19.303-10.333h18.339l8.686 13.151-3.86 7.045-49.224 17.847z"/><path fill="#bebcbd" d="M150.207 25.279l-2.896 17.847 4.344 7.985 31.368-34.756 9.653-7.044-1.448-9.394z"/><path fill="#9c9fa0" d="M225.008 9.779l-33.78-9.862-8.205 16.438 27.025 13.151zM142.727 59.8l4.584.704 4.344-9.393-1.448-25.832z"/><path fill="#8b8a8a" d="M156.964 82.757L142.727 59.8l8.928-8.689 5.309 3.287 1.759 22.592z"/><path fill="#feeee9" d="M160.825 132.833l21.716 12.211 27.026-.939 22.682-14.09 10.132-77.966-32.333-22.543-58.393 21.605 5.309 31.646z"/><path fill="#eecec9" d="M164.202 62.617l24.299.586 19.062-4.932 9.652.469-10.062-2.698-18.821 5.166zM187.972 55.281l-14.118-.648 14.31-1.461 15.612-4.645zM160.041 73.662l13.331-.712 9.195 2.492 3.039 3.629 1.206 10.667-4.01 12.68-9.744-20.899zM193.438 78.785l-1.559 10.249 4.748 13.051 10.212-21.036 14.79-12.207-15.924.82-8.016 2.763z"/><path d="M207.03 85.061c2.131 0 3.871-1.692 3.871-3.767s-1.74-3.768-3.871-3.768c-2.133 0-3.871 1.692-3.871 3.768 0 2.075 1.738 3.767 3.871 3.767z" fill="#2b2b2b"/><path fill="#eecec9" d="M181.117 133.433l14.918-2.645 11.012 2.311-2.528 2.721-8.581-2.687z"/><path fill="#cea19c" d="M176.174 119.573l28.562 1.775 6.921-4.186-.161-2.412-1.996.251-5.084 2.992-28.383-.986z"/><path fill="#eecec9" d="M182.802 102.419l-11.04 13.868 4.826 10.802-.555-10.082zM196.627 102.085l15.132 15.179-.21 10.862 5.093-12.309zM193.93 64.023l-3.619 5.402 2.172 4.461zM156.964 82.757l3.695-2.997 5.232 2.697zM218.252 80.935l6.516-2.349 4.101 3.288z"/><path fill="#d09eb5" d="M264.146 98.036l-3.724-3.538-4.062.057 2.406 3.498 3.143 1.668z"/><path fill="#b2849b" d="M261.184 102.069l2.962-4.033-5.38.017-2.406 4.251z"/><path fill="#8b8a8a" d="M160.041 73.662l10.514-3.185 11.221.967.792 3.998zM198.466 68.254l-.776 4.17 23.939-3.582-11.31-2.137z"/><path fill="#cea19c" d="M182.802 102.419l6.433-2.295 7.392 1.961-6.364 6.091z"/><path fill="#fef4f2" d="M185.606 79.071l7.832-.285 3.189 23.299-13.825.334z"/><path d="M173.135 85.379c2.132 0 3.871-1.692 3.871-3.768 0-2.075-1.739-3.768-3.871-3.768-2.131 0-3.871 1.693-3.871 3.768.001 2.076 1.74 3.768 3.871 3.768z" fill="#2b2b2b"/><path fill="#feeee9" d="M163.012 234.083l5.971 14.894-7.258 19.284-29.537-39.162 6.978-2.149 21.271 2.957z"/><path fill="#eecec9" d="M132.188 229.099l30.795 4.877-2.546-4.069-28.297-9.98-5.503 1.812z"/><path fill="#b2849b" d="M265.336 216.698l5.944 5.258 9.877.223 18.406-8.405 7.115-8.636-22.511-24.268-11.597-2.825-5.732 5.044z"/><path fill="#feeee9" d="M282.417 233.177l-5.163 9.943 3.104 8.895-6.01 11.011 1.901 6.057 7.49-6.93 1.42-5.166 4.496-.306 30.236-27.973-4.93 4.549-13.808-3.631z"/><path fill="#eecec9" d="M314.961 233.257l-32.544-.08 5.449-4.139 24.902-6.859 11.201 1.599z"/><path fill="#d09eb5" d="M271.28 221.956l11.137 11.221 41.552-9.399-17.291-18.64z"/><path fill="#935d78" d="M277.254 243.12l6.254 5.707 6.147 7.854-5.916 5.472-5.289-7.771-4.237-1.914-.287-2.936z"/><path fill="#d09eb5" d="M172.854 219.925l-3.997 5.314-5.444.762-20.296-13.426-1.75-8.951 27.196-33.446 4.291 7.215z"/><path fill="#b2849b" d="M141.367 203.624l-14.73 18.115 36.346 12.237 5.874-8.737z"/><path fill="#5e5e5f" d="M200.749 379.038h-41.968v-4.574l5.427-3.328 31.114-.832 5.427 4.16zM273.892 384.858h-33.135l-.194-5.332 4.144-3.875 24.53-.97 4.461 4.845z"/><path fill="#6d6e6e" d="M158.781 374.464v-6.512l8.087-1.23 6.566 2.254.877 5.488z"/><path fill="#8b8a8a" d="M181.212 355.114l-14.344 11.608 7.443 7.742h26.438v-13.397l-2.52-3.857-12.834-4.213zM245.421 359.292l-4.858 20.234 10.935-4.537h9.929l12.271 4.537-6.431-20.994-6.114-4.314-9.99.398z"/><path fill="#6d6e6e" d="M249.268 372.202l-8.705 7.324h33.135l-9.745-7.705z"/><path fill="#8e709e" d="M216.198 293.595l14.903 33.504 6.126 3.711 26.606.761 4.306-2.76 1.582-53.826-4.599-5.314-10.299-2.658-37.741 22.41zM168.563 275.749l7.779 48.812 5.865 3.723 20.259.627 6.301-2.861 7.431-32.455-2.119-3.987-37.989-20.084-4.094 1.477z"/><path fill="#745584" d="M245.421 359.292l21.846-.76.872-29.721-37.038-1.712zM181.095 355.208l19.654 5.859 8.018-35.017-32.425-1.489z"/><path fill="#50325e" d="M178.862 273.47l37.336 20.125 36.049-22.024 2.576-4.558-4.038-5.334-72.286 1.914-2.409 5.931z"/><path fill="#b2849b" d="M168.992 250.685l9.409 10.254 26.639.378 4.292-3.039 3.003-78.227-4.719-2.658-2.576-14.051-11.587 3.798-2.518-6.538-22.372 9.576z"/><path fill="#d09eb5" d="M214.053 163.722l-6.437 13.671-2.576 83.924 45.062-1.519 16.307-7.596 4.167-6.262 1.927-65.608 2.704-5.408-2.361-6.265-11.586-7.215-5.58-2.279-11.157-.38-14.181 12.578z"/><path d="M184.518 257.599l15.586-.275v10.484l-14.776.229-3.468-4.939 2.658-5.499zm32.569-.59l25.821-.478 5.15 4.935-5.15 5.695-25.78.391h.004l-3.938-5.664 3.893-4.879z" fill="#915976"/><path fill="#745382" d="M184.518 257.599l.81 10.437-6.662.092-3.433-4.922 3.05-5.477zM242.908 256.53l-.171 10.612 8.221-.129 5.152-5.696-5.152-4.937z"/><path fill="#6d4159" d="M200.104 269.292l17.027-1.74-.044-10.543-16.983-1.198z"/><path fill="#b2849b" d="M224.809 218.282l15.76 5.061 16.692-5.065.716-28.91-33.625.633z"/><path fill="#eecec9" d="M161.696 268.153l.146-12.931 7.141-6.245-.635 14.428z"/><path fill="#feeee9" d="M178.283 257.729l-9.3-8.752-7.258 19.284 6.838 7.488 10.299-2.279z"/><path fill="#eecec9" d="M278.45 254.382l-7.874-8.442-.52 13.668 6.037 9.614z"/><path fill="#d09eb5" d="M198.3 151.839l-7.365 8.763-2.203 15.272 16.308-12.532z"/><path fill="#b2849b" d="M214.053 163.722l17.38 15 11.848-14.364 5.925-5.413-1.679-5.856-5.195-5.698z"/><path fill="#9c9fa0" d="M197.748 253.823l-.006 17.483 19.401.088-.012-3.842-15.304.23v-10.49l15.26-.283-.012-3.422z"/><path d="M269.409 285.64l-17.162-14.068 17.475 3.414-.313 10.654zm-45.057-95.639l33.625-.633-16.832 3.601-16.793-2.968z" opacity=".2" fill="#070908"/><path fill="#feeee9" d="M250.958 256.38l1.289 15.191 17.474 3.414 6.571-5.941-5.716-23.104z"/><path fill="#6f4258" d="M203.334 181.165l4.03 4.435 4.172-4.234-3.92-3.973z"/><path fill="#745382" d="M277.063 185.178l-4.539-4.846.322-11.673 8.033.759 4.418 6.456-1.13 4.996z"/><path fill="#8c709d" d="M279.329 162.203l-6.483 6.456 11.321 12.211 4.468-9.41z"/><path fill="#745382" d="M248.799 170.558l-5.579-6.2 5.546-5.413 6.059.22 5.223 2.279-2.698 8.379z"/><path fill="#8c709d" d="M247.194 153.089l-3.974 11.269 16.828-2.914-3.616-10.634z"/><path fill="#b2849b" d="M286.622 249.116l-3.114-.289-5.058 5.555-.459 2.898 3.568 4.744 2.18.129 5.916-5.472.084-3.147z"/><path fill="#d09eb5" d="M285.586 251.507l-1.515-.141-3.662 3.879-.217 1.363 2.23 2.965.891.053 4.246-4.039-.023-1.32z"/><path fill="#6f4258" d="M202.464 209.505l4.031 4.435 4.171-4.236-3.919-3.971zM201.551 239.286l4.03 4.434 4.172-4.235-3.921-3.972z"/></g></svg>