<svg xmlns="http://www.w3.org/2000/svg" viewBox="0 0 900 350"><g fill-rule="evenodd" clip-rule="evenodd"><path fill="#a588b8" d="M681.152 271.681L557.625 340.5l265.221.872z"/><path fill="#7a5d88" d="M681.152 271.681L557.625 340.5h85.656l81.969-11 43.083 9.345 54.513 2.527z"/><path fill="#543042" d="M807.908 187.17l3.806 6.236 6.313 85.944-26.119-3.587v-40.9z"/><path fill="#b3889d" d="M814.803 200.011l9 66.295-11.504 8.232.706-10.811-12.409-61.766z"/><path fill="#543042" d="M779.408 176.792l8.304 12.139 13.696 4.475 3-4.397z"/><path fill="#734d62" d="M775.174 161.96L772 164.992l10.326 22.178 5.386 1.761-3.205-35.192zM837.533 179.877l-6.875 12.71-22.5 10.918v-7.91l4.141-4.604z"/><path fill="#b3889d" d="M845.408 162.876l1.009 6.902-6.759 15.809-9 7 6.875-30.627z"/><path fill="#734d62" d="M808.158 166.424l15.032-5.614-15.032 42.695-16.25 72.258-13.907-12.013 23.407-70.344z"/><path fill="#96637c" d="M804.408 142.488l24.25 3.895-20.5 57.122-6.75-10.099z"/><path fill="#594365" d="M810.849 131.065l-28.501 6.145 7.06 20.295 14.383-4.795 42.626 17.068 53.53-25.114-53.789-18.648z"/><path fill="#594365" d="M761.241 136.909l-35.991 7.585L772 164.992l31.791-12.282-11.883-13.625z"/><path fill="#9075a0" d="M790.158 135.895l-31-9.879-33.908 18.478 66.658-5.409zM874.828 127.587l6.33 7.402 18.789 9.675-54.289 8.046-53.75-13.625 28.25-21.334z"/><path fill="#a588b8" d="M794.329 105.42l-36.324 13.978-4.426 9.658 38.329 10.029 39.75-18.589 10-15.585h-34.75z"/><path fill="#594365" d="M837.533 106.992l12.8.875 24.929 11.531 5.896 15.591-49.5-14.493-3-11.952z"/><path fill="#a588b8" d="M788.158 113.592L772 99.506l28.596-16.141 46.571 13.352-35.009 8.057z"/><path fill="#9075a0" d="M847.167 96.717l-23.364-2.269-11.645 10.326-5.25 2.323 21.75 1.447 46.604 10.854z"/><path fill="#7a5d88" d="M823.803 94.448l4.855 14.096-70.653 10.854L772 99.506z"/><path fill="#dddddc" d="M407.913 190.265l108.77-9.212 147.783 40.314-94.876 42.383-170.691-37.766z"/><path fill="#ececeb" d="M533.556 233.613l-16.873-52.56 147.783 40.314-94.876 42.383-170.691-37.766z"/><path fill="#ececeb" d="M281.464 213.477l44.303-16.102 75.288-21.617 68.81 19.872-82.089 35.112z"/><path fill="#ececeb" d="M281.464 213.477l44.303-16.102 75.288-21.617 68.81 19.872-82.089 35.112z"/><path fill="#dddddc" d="M281.464 213.477l44.303-16.102 75.288-21.617-21.463 34.681 8.184 20.303z"/><path fill="#d0cecd" d="M757.25 270.315l65.596 71.057 77.101-41.312-36.767-26.082-89.513-.584z"/><path fill="#97647d" d="M33.5 217.475l20-5.475 7.898 48.826-4.288 7.322-16.435-27.089-7.175-17.32z"/><path fill="#d1a1b8" d="M9.5 245.211l22.662-38.199L53.5 212z"/><path fill="#b3889d" d="M46.073 247.13l6.359-1.295 5.095 24.302-3.024 3.153-13.828-23.309z"/><path fill="#a588b8" d="M637.033 281.415l-25.764-9.921-19.851-19.521-3.81-10.215-141.28 8.287-31.748-17.184L54.503 273.29l-51.75 4.959 21.997 53.722L195.684 350l361.941-9.5z"/><path fill="#7a5d88" d="M637.033 281.415l-25.764-9.921-19.851-19.521-3.81-10.215-141.28 8.287-31.748-17.184L54.503 273.29 53.5 310l72.42 26.088 201.151 7.054 123.583-20.999L557.625 340.5z"/><path fill="#c4c4c3" d="M445.621 235.279l3.223-33.543-111.184-.814-29.655-3.007-41.424 1.412-61.282 6.578 20.779 78.051 154.135-17.974z"/><path fill="#b7b6b6" d="M222.082 159.746l15.3 1.061 5.601 69.935-41.397-17.265 2.245-50.213z"/><path fill="#8f8f8f" d="M214.701 160.807l3.714 8.879-4.973 59.38-37.027-6.538 1.667-55.948 30.333-5.773z"/><path fill="#dddddc" d="M207.104 156.122l30.278 4.685-18.967 8.879-34.333-7.312z"/><path fill="#c4c4c3" d="M108.318 99.148l39-3.994 5.125 120.087-71.125 17.092z"/><path fill="#b7b6b6" d="M100.651 102.415l-19.333 3.298L54.503 273.29l32.726 13.956 22.109-68.667-1.02-40.829 7.746-61.902z"/><path fill="#c4c4c3" d="M147.068 125.125l48.616 2.843-4.602 124.759-65.162-35.252z"/><path fill="#a3a1a1" d="M142.818 125.422l-15.5 3.245-11.254 65.604 32.966 5.056 16.692 7.362-5.602-66.909z"/><path fill="#b7b6b6" d="M93.318 274.75l23.562 24.916h23.526l8.912-31.267 5.771-61.387v-36.119l-34.341 8.856z"/><path fill="#a3a1a1" d="M126.719 168.359l-28.993-3.702-10.497 122.589 29.651 12.42 15.938-119.527z"/><path fill="#d0cecd" d="M156.318 210.5l-7.288-11.173 23.385-13.774 34 5.295-13.716 27.982z"/><path fill="#a3a1a1" d="M165.722 238.535l8.096-32.287 32.597-15.4 6.241 69.867-11.908 44.035h-26.667z"/><path fill="#8f8f8f" d="M174.081 304.75l-33.675-5.084 8.624-100.339 24.788 6.921z"/><path fill="#dddddc" d="M155.089 170.893l-36.77-12.17-20.593 5.934 35.092 15.482zM147.318 120.909l-20 7.758 32.802 11.113 35.564-11.812zM81.318 105.713l34.746 10.135 31.254-20.694-42.125-1.597zM195.684 210.439l20.112-9.484 32.152 6.057-10.566 22.031-9.301-14.279-23.371 22.833z"/><path fill="#c4c4c3" d="M174.081 304.75l21.603-94.311 32.397 4.325-2.003 107.539z"/><path fill="#b7b6b6" d="M228.081 214.764l19.867-7.752 8.524 61.136-3.071 36.602-27.323 17.553z"/><path fill="#d0cecd" d="M536.362 273.324l-29.21 18.107-64.724 3.294-59.445-23.864-1.905-34.631 67.766-34.494 101.61 20.545 33.75 13.949z"/><path fill="#c4c4c3" d="M442.428 294.725L548.561 328.5l84.883-31.758 44.009-53.993-24.857-18.833-102.142-1.635z"/><path fill="#d0cecd" d="M725.5 316l-163.756-1.721 108.122-105.982 32.444 19.445 77.967 29.167.908 19.541-52.797 23.61z"/><path fill="#734d62" d="M273.171 268.399l-16.699-.251-30.394 54.155 103.383 9.668-4.568-47.145z"/><path fill="#b3889d" d="M316.066 259.991l-8.061-6.25L294.33 253l-3.038-4.218-5.595 6.238-29.225 13.128 56.957 17.352z"/><path fill="#96637c" d="M374.08 279.25l-14.397 38.537-30.222 14.184-16.032-46.471 7.901-24.093 61.653-1.416z"/><path fill="#734d62" d="M366.58 257.574l-3.642 10.574-3.255 49.639 55.301 4.516 27.444-27.578-34.515-42.536z"/><path fill="#96637c" d="M366.58 257.574l-3.642 10.574 52.046 54.155 27.444-27.578-34.515-42.536z"/><path fill="#734d62" d="M294.33 253l19.099 32.5 17.276-17.588 11.077-10.505-20.452-23.158z"/><path fill="#b3889d" d="M321.33 234.249l9.375 33.663 32.233.236 44.975-15.959-26.835-15.959z"/><path fill="#dddddc" d="M201.88 50.32l-37.955-17.075-27.787 7.756L53.62 29.149l-42.3 19.475 108.513 13.712 19.944-3.062 25.441 6.528z"/><path fill="#d0cecd" d="M72.23 73.678L11.32 48.624l93.633-2.152 61.541 8.444 35.386-4.596-33.768 19.917-59.665-10.103z"/><path fill="#dddddc" d="M864.259 24.156L816.384 2.618l-35.049 9.784-81.278-12.97-76.164 22.584 136.875 17.297 25.156-3.862 32.092 8.233z"/><path fill="#d0cecd" d="M704.39 43.068l-80.497-21.052 118.105-2.714 77.625 10.652 44.636-5.798-61.555 32.955-56.299-20.576z"/><path opacity=".1" fill="#2b2b2b" d="M411.261 247.019l53.68-4.717 42.847 9.88-40.819 10.193zM513.862 264.231l52.292-4.154 44.647 10.83-43.802 8.93zM622.872 284.4l52.435-4.972 44.595 13.088-40.478 9.397zM375.719 248.198l-44.646 8.722-23.068 21.329-39.675-9.01 28.485-12.43 24.515-13.405h13.497z"/><path fill="#d1a1b8" d="M31.544 264.417l9.131-23.358 11.757 4.776z"/><path fill="#c4c4c3" d="M863.18 273.978l-82.903-17.069-51.889 43.151 75.403 8.313z"/><path opacity=".1" fill="#2b2b2b" d="M813.005 263.727l-10.541-2.196-74.076-6.561-32.708 7.106 65.561 19.914z"/><path fill="#8f8f8f" d="M738 306.649L725.5 316l-167.875 24.5-9.064-12 13.183-14.221 166.644-14.219z"/><path fill="#9b9fa0" d="M822.846 341.372L725.5 316l2.888-15.94 75.403 8.313z"/><path fill="#858686" d="M442.428 294.725l119.316 19.554-4.119 26.221z"/><path fill="#a3a1a1" d="M750.999 244.328l-24.099 2.758-11.28 16.11 45.621 9.543 15.107-26.521z"/><path fill="#dddddc" d="M739.669 241.718l44.838 2.479-6.855 8.289-13.541 2.484-37.211-7.884z"/><path fill="#b7b6b6" d="M784.507 244.197l-20.396 10.773-2.87 17.769 40.862-11.125z"/><path fill="#a3a1a1" d="M110.62 281.111l-29.861 3.714-13.977 21.694 56.528 12.85 18.719-35.713z"/><path fill="#dddddc" d="M120.397 273.29l31.742 7.645-8.494 11.163-16.778 3.343-46.108-10.616z"/><path fill="#b7b6b6" d="M152.139 280.935l-25.272 14.506-3.557 23.928 50.633-14.98z"/><path fill="#b496c6" d="M29.556 287.246l17 28.754 46.762 9.5v4l-51.985-9.25-15.539-33.004z"/><path fill="#b496c6" d="M22 295.441l13.295 26.862 24.568 4.197-.307 3-29.243-4L18 295.98zM409.25 334.25L450 328.5l29.267 4-2.864 1.181L452 330.916l-34.625 4.959z"/><path fill="#b496c6" d="M437.385 335.507l14.299-2.826L483 337l-3 1.333-27.596-3.777-11.199 2.146z"/><g><path opacity=".1" fill="#2b2b2b" d="M92.461 283.941l25.052-2.271 15.305 6.146L114.085 290z"/><path fill="#a588b8" d="M106.89 248.733v11.254l-2.929 23.954h7.375l-2.333-33.208z"/><path fill="#7a5e88" d="M104.475 233.476l-10.35 5.25 12.765 21.261 12.765-15.315z"/><path fill="#a588b9" d="M106.433 222.281l-12.308 16.445 25.53 5.946z"/></g><g><path fill="#a588b8" d="M122.092 262.482l-.725 7.29.354 15.704-4.777-.475 3.65-21.359z"/><path fill="#7a5e88" d="M124.639 252.756l6.366 4.066-9.638 12.95-7.282-10.743z"/><path fill="#a588b9" d="M124.092 245.378l6.913 11.444-16.92 2.207z"/></g><g><path opacity=".1" fill="#2b2b2b" d="M848.898 306.67l9.705-1.758 12.742 3.836-13.82.399z"/><path fill="#a588b8" d="M858.118 284.171v7.191l-1.871 15.308h4.713l-1.49-21.222z"/><path fill="#7a5d88" d="M856.576 274.42l-6.614 3.354 8.156 13.588 8.159-9.787z"/><path fill="#9075a0" d="M857.827 267.267l-7.865 10.507 16.315 3.801z"/></g><g><path opacity=".1" fill="#2b2b2b" d="M792.67 295.821l8.617-2.775 11.311 4.619-11.311 1.715z"/><path fill="#a588b8" d="M802.204 277.452v5.171l-1.662 13.591h4.184l-1.323-17.628z"/><path fill="#7a5d88" d="M800.833 267.582l-5.871 2.978 7.242 12.063 7.242-8.689z"/><path fill="#9075a0" d="M801.944 261.23l-6.982 9.33 14.484 3.374z"/></g><g><path opacity=".1" fill="#2b2b2b" d="M840.215 282.603l-6.192-1.994-8.127 3.319 8.127 1.232z"/><path fill="#a588b8" d="M833.364 269.405v3.715l1.195 9.766h-3.006l.95-12.666z"/><path fill="#7a5d88" d="M834.35 262.314l4.218 2.139-5.204 8.667-5.203-6.243z"/><path fill="#9075a0" d="M833.551 257.75l5.017 6.703-10.407 2.424z"/></g><path fill="#b496c6" d="M706.728 335.467l19.434-2.816 24.065 5.63h-11.533l-11.979-2.814-18.206 2.177z"/></g><g fill-rule="evenodd" clip-rule="evenodd"><path fill="#97647d" d="M337.012 117.625l13.889-10.977 9.822 5.084 2.215 8.858-15.02 15.701-11.219-2.637z"/><path fill="#744e62" d="M358.195 100.351l7.038 2.83 3.231 10.22-3.907 5.453-1.619 1.736-12.037-13.942z"/><path fill="#f5cbb4" d="M371.908 95.154l6.586.331.506 14.986.592 1.902-8.622 1.958-3.766-1.958-2.589-10.922z"/><path fill="#b3899e" d="M337.012 117.625l10.906 18.666-23.481 20.344.314-33.201z"/><path fill="#543042" d="M261.564 224.534l16.151 4.509 11.69-23.125-11.463-.013z"/><path fill="#9075a0" d="M325.767 197.375l11.893 3.547.63 18.214-16.96 3.341-16.919.051-11.256-5.743 24.684-25.936z"/><path fill="#744e62" d="M337.66 200.922l-16.33 21.555 9.375 11.825 10.304 2.336 4.632-5.65z"/><path fill="#97647d" d="M345.641 230.988l19.787 12.825-14.241 2.167-20.482-2.167v-9.511z"/><path fill="#744e62" d="M330.705 248.148h12.576l1.161-2.293 7.068 2.293h13.918v-4.335h-34.723z"/><path fill="#a588b9" d="M306.022 219.182l-4.937 14.431-9.793 3.076-13.526-1.027-7.108-30.341 17.972-15.056 11.71 21.976z"/><path fill="#744e62" d="M277.766 235.662l4.605 19.358 10.022 1.789 2.153-4.082 6.539-19.114z"/><path fill="#97647d" d="M294.546 252.727l6.539 13.255-9.441 2.417-13.072-2.417 3.799-10.962z"/><path fill="#7a5e88" d="M316.792 194.271l-10.77 24.911-32.851-21.767 30.549-12.073z"/><path fill="#9075a0" d="M308.876 136.939l-3.551 1.071-5.569 8.373-.538 20.779 4.502 18.18 13.072 8.929-1.35-31.183z"/><path fill="#a588b9" d="M299.756 146.383l-5.762-5.295-5.26 1.549-1.817 25.583 2.912 27.41 13.891-10.288z"/><path fill="#d7d6d6" d="M312.57 152.462l-24.858 1.023.343 7.322 25.374-2.613zM315.15 169.686l-27.335 2.322 1.1 7.146 27.151-3.344z"/><path fill="#a588b9" d="M264.991 134.568l-18.178 8.407 23.148 16.001-1.296-23.159z"/><path fill="#7a5e88" d="M246.813 142.975l-1.493 16.001 27.169 5.019-4.408-10.343z"/><path fill="#b3899e" d="M267.841 160.931l-22.521-1.955-2.337 25.067 29.506-6.625z"/><path fill="#97647d" d="M267.372 175.254l-24.389 8.789 23.598 15.284 3.38-13.572z"/><path fill="#543042" d="M324.751 120.496l1.016 76.879-8.975-3.104-7.916-57.332 3.378-9.854z"/><path fill="#744e62" d="M288.734 142.637l1.095 52.993-28.265 28.904 3.427-89.966 15.11 1.649z"/><path fill="#fee5d6" d="M272.489 125.934l2.499-8.407-2.499-12.044-3.941-.414-3.102 3.369-.569-4.228-1.591-1.112V74.921l47.491-12.043 15.565 50.186-16.816 5.371-6.586 13.048-3.184 14.9-2.322-9.745-4.949-5.25-8.382-5.323z"/><path fill="#f5cbb4" d="M274.102 72.178l3.158 4.705 1.364 3.636 12.043 44.278 18.859-6.362-5.267 7.499.383 6.475.683 5.601-5.569 8.373-8.907-10.566-18.36-9.883v-12.953l1.835-5.994-1.835-1.504-7.043 2.955-2.16-5.34 1.705-10.112-1.705-18.065z"/><path fill="#c3937d" d="M268.967 97.416l4.204 1.932-5.34 3.067-1.081-2.781z"/><path fill="#f5cbb4" d="M278.624 80.519l10.452.31 7.499 12.157-5.726-17.339zM308.964 70.604l-7.037 11.081-2.709-8.518z"/><path fill="#fff1e9" d="M299.218 73.167l5.31 17.546-7.953 2.273-5.726-17.339z"/><path fill="#c3937d" d="M304.528 90.713l-2.272 4.772-5.681-2.499zM284.104 126.065l20.538 6.344 4.884-13.974zM317.027 95.485l-28.543 8.403 12.068 7.716 11.702-3.408z"/><path fill="#9075a0" d="M263.286 74.921l9.203 18.974-9.203 9.203z"/><path fill="#744d60" d="M237.382 96.281l5.297-2.378 2.883-3.984 6.175-13.62 3.094-16.213 5.974-9.17-3.553-11.67 21.088-2.338 14.486-7.205 8.412 11.548 8.844 7.754 6.913 9.242 6.506 5.768 2.841 4.771 7.612.909-11.526 8.039-4.381 6.05-2.53-10.516-4.74-10.39-24.894 4.838-22.597 7.205-.909 16.02.909 12.157-13.536-.794-11.687 2.611 1.221-4.01z"/><path fill="#b3899e" d="M237.382 96.281l21.132 1.363-12.952-7.725z"/><path fill="#97647d" d="M258.514 97.644l2.727-27.04-8.704-10.518-6.975 29.833z"/><path fill="#543042" d="M261.241 70.604l31.811-9.316-7.385-4.547-2.259-7.379-26.156-10.116-4.715 20.84z"/><path fill="#744d60" d="M293.052 61.288l17.043-5.226-.013-7.057-17.256-19.302-6.646 26.61z"/><path fill="#d1a2b9" d="M292.826 29.703l-7.158 27.038-28.416-17.495z"/><path fill="#97647d" d="M323.501 64.015l-1.59 9.543-11.816-17.496-.013-7.057z"/><path fill="#b3899e" d="M323.501 64.015l-1.59 9.543 15.101-5.393z"/><path fill="#543042" d="M337.012 68.165v5.393l-19.289 11.715-6.946-22.395-.682-6.816 11.816 16.116zM261.241 70.604l2.045 4.317v28.177l-25.223 1.817-.681-8.634 16.02-1.687z"/><path fill="#97647d" d="M310.095 56.062l-17.043 5.226-31.811 9.316 2.045 4.317 47.491-12.043zM279.419 38.109l2.045-12.042-10.452-9.998 2.84 11.902z"/><path fill="#b3899e" d="M279.419 38.109l-8.407-22.04-2.727 12.497z"/><path fill="#c3937d" d="M272.489 105.483l5.453-2.5-5.453 9.998z"/><path fill="#97647d" d="M292.485 131.388l-19.996-5.454-12.043-4.318 4.545 12.952 34.765 11.815z"/><path fill="#543042" d="M272.489 118.435l-12.043 3.181 12.043 4.318z"/><path fill="#97647d" d="M309.526 118.435l-9.77 27.948 24.995-25.887z"/><path d="M288.781 81.267c0 1.327-1.075 2.401-2.402 2.401-1.326 0-2.401-1.074-2.401-2.401 0-1.326 1.076-2.401 2.401-2.401 1.327 0 2.402 1.075 2.402 2.401zM306.661 75.647c0 1.326-1.076 2.401-2.402 2.401s-2.402-1.075-2.402-2.401c0-1.327 1.076-2.401 2.402-2.401s2.402 1.074 2.402 2.401z" fill="#2b2c2b"/><path fill="#9075a0" d="M307.883 65.849l-10.117 5.034-6.351 2.323-14.155 3.677 1.364 3.636 12.94-2.704 8.253-2.668 9.147-4.543z"/><path fill="#744e62" d="M278.572 265.982h22.513v4.333h-22.513z"/><path fill="#97647d" d="M372.488 93.862l-6.195-.459-1.678 22.634 3.666 1.106 2.583-1.391z"/><path fill="#c4c4c3" d="M372.648 91.685l3.517-46.434-1.673-26.501-5.012-10.119.519 37.507-3.546 45.087z"/><path fill="#908f8f" d="M372.648 91.685l-2.225-12.006-3.97 11.546 2.882 1.599z"/><path fill="#c4c4c3" d="M370.595 119.398l-6.038-.544.058-2.817 6.771-1.992 7.285-4.027 2.164-5.834.631-7.561-27.374-2.027.316-4.264 30.286 2.244-.926 10.407 1.143 8.926z"/><path fill="#a3a1a2" d="M378.671 110.018l6.24 1.891-.217-19.333-3.228 4.047z"/><path fill="#fff" d="M292.616 104.354l21.608-6.092-3.118 8.292-10.554 3.092z"/><path fill="#fee5d6" d="M358.195 100.351l4.743-5.616 9.71-3.05 2.985 4.505-6.515 3.782-4.002 9.309z"/></g><g fill-rule="evenodd" clip-rule="evenodd"><path fill="#594365" d="M448.928 74.951l-16.683-5.527 16.183-1.867z"/><path fill="#744e62" d="M452.714 244.659l-13.62 2.75v4.25h23.918l8.916-2.666-4.125-4.334z"/><path fill="#97647d" d="M461.762 233.326l-7.75 3-14.918 11.083 28.709.22 8.357-11.553z"/><path fill="#744e62" d="M469.594 248.493l-6.582 3.166v4.5h20.5l.416-4z"/><path fill="#b3899e" d="M471.594 234.909l-3.151 3.247-5.431 13.503 20.916.5-2.947-10.999z"/><path fill="#744e62" d="M452.22 212.993l-3.376 7.306 5.168 16.027 14.431 1.83 4.782-15.33z"/><path fill="#97647d" d="M474.178 217.16l-8.477 6.833 2.742 14.163 12.538 3.004 3.363-17.167z"/><path fill="#7a5d88" d="M470.678 213.493l-4.977 10.5-16.857-3.694-8-23.306 17-1z"/><path fill="#9075a0" d="M463.068 199.826l-1.306 4.667 3.939 19.5h18.643l6.215-29.167z"/><path fill="#594365" d="M448.344 191.16l-7.5 3v2.833l20.918 7.5 28.797-9.667z"/><path fill="#543042" d="M450.345 181.826l-9.501 5.334v7l49.715.666v-6.833z"/><path fill="#734d62" d="M433.012 155.617l-1.5 12.543 9.332 19 11.87-27.298z"/><path fill="#b3889d" d="M438.345 139.076l-6.1 1.72-.733 27.364 18.833-8.298-5.167-19.066z"/><path fill="#734d62" d="M452.22 144.493l-9.792-14.696-10.183 10.999 15.588 7.197z"/><path fill="#543042" d="M500.012 159.862l10.332 16.464-19.785 11.667-12.131-18.333z"/><path fill="#b3889d" d="M483.708 156.456l5.145-15.514 18.299-1.866 3.192 37.25-23-8z"/><path fill="#96637c" d="M481.928 145.576l11.406-15.779 13.818 9.279-21.419 10.917z"/><path fill="#734d62" d="M481.928 132.076l-14.125 13.5v42.875l22.756-.458 2.775-58.196-11.406 1.476"/><path fill="#96637c" d="M454.344 128.607l-11.916 1.19-1.584 57.363 26.959 1.291 10.625-36.437-10.625-6.438-5.782-13.5z"/><path fill="#c3927d" d="M465.262 116.97l-7.667 4.772-2.25 8.055 12.458 15.779 21.05-18.267v-7.632z"/><path fill="#594365" d="M493.334 103.993l12.102 17.847-11.276-1.017-12.232-6.343z"/><path fill="#f5cab4" d="M473.225 109.658l2.953 13.622 8.968 1.142 1.782 7.654 7.232-11.253 2.393-43.498-15.91-11.005z"/><path fill="#fee5d6" d="M446.178 64.821l-3.75 54.421 33.75 4.038 7.53-50.425z"/><path fill="#f5cab4" d="M450.762 81.16h-2.929l8.012 19.051 4.458.801h2.765l13.907-16.852-4.63-.834-7.083 1.834-1.121 3.143-3.046.857-3.75-1.708V84.16l-2.5-2.412z"/><path fill="#7a5d88" d="M473.225 50.554l15.628-5.337 18.299 15.058-4.193 22.11-19.251-13.723z"/><path fill="#9075a0" d="M453.402 42.549l-8.959 18.489 11.819 5.146 32.591 1.334V45.217z"/><path fill="#7a5d88" d="M432.245 69.424l19.556 1.304 24.377 3.348 7.53-1.221h5.145v-5.337l-42.657-10.097z"/><path fill="#594365" d="M502.959 91.153l-11.437-5.337-3.11-8.491-4.704-4.47 5.145-5.337 14.106 14.867z"/><path fill="#9075a0" d="M487.971 81.748l-2.238 22.546 7.601 10.5 2.051-1.551 10.051 8.597-2.477-30.687z"/><path fill="#fff1e9" d="M457.345 87.452l-1.5 12.759 4.147 1.583 3.076-.782 1.073-12.709z"/><path fill="#484749" d="M455.845 79.607l1.5 4.553-9.512-3zM468.844 81.16l-3.582 4 11.713-1z"/><path fill="#c3927d" d="M467.803 107.612l-2.541 3.429-13.042-1.488-1.837-3.797z"/><path d="M454.095 87.452c0 1.036-.839 1.875-1.875 1.875s-1.875-.839-1.875-1.875.839-1.875 1.875-1.875 1.875.839 1.875 1.875zM470.719 88.785c0 1.036-.839 1.875-1.875 1.875-1.035 0-1.875-.839-1.875-1.875s.84-1.875 1.875-1.875c1.036 0 1.875.839 1.875 1.875z" fill="#2b2b2b"/><path fill="#c3927d" d="M485.733 104.294l9.652 8.949-1.225 7.58z"/><path fill="#d1a1b8" d="M467.803 145.576l4.125-15.875 22.232-8.878-.826 8.974zM442.428 129.797l15.167-8.055 10.208 23.834zM470.428 160.451l-2.625 1.485 1.312 2.828 2.813-1.813zM467.303 171.764l-2.75 1.5 1.25 3.062 2.64-1.66z"/><path fill="#c3927d" d="M487.971 81.748l-4.739-5.71-37.433-5.71 37.909 2.527 4.702 4.47z"/><path fill="#7a5d88" d="M488.412 77.325l-.441 4.423 17.465 40.092-2.477-30.687z"/><path fill="#4f5253" d="M445.621 107.287l27.604 2.371-10.157-8.646-3.645.892-3.578-1.693"/><path fill="#c3927d" d="M455.845 100.211l3.934 3.386 3.289-2.585z"/></g><g fill-rule="evenodd" clip-rule="evenodd"><path fill="#594365" d="M550.225 92.121l-16.683-5.527 16.183-1.867z"/><path fill="#744e62" d="M554.011 261.829l-13.619 2.75v4.25h23.916l8.917-2.666-4.125-4.334z"/><path fill="#97647d" d="M563.058 250.497l-7.75 3-14.916 11.082 28.708.221 8.357-11.553z"/><path fill="#744e62" d="M570.892 265.663l-6.584 3.166v4.5h20.501l.416-4z"/><path fill="#b3899e" d="M572.892 252.079l-3.151 3.248-5.433 13.502 20.917.5-2.947-10.998z"/><path fill="#744e62" d="M553.517 230.163l-3.375 7.307 5.166 16.027 14.433 1.83 4.78-15.33z"/><path fill="#97647d" d="M575.475 234.331l-8.477 6.832 2.743 14.164 12.537 3.004 3.363-17.168z"/><path fill="#7a5d88" d="M571.975 230.663l-4.977 10.5-16.856-3.693-8-23.307 17-1z"/><path fill="#9075a0" d="M564.364 216.997l-1.306 4.666 3.94 19.5h18.643l6.214-29.166z"/><path fill="#594365" d="M549.642 208.331l-7.5 3v2.832l20.916 7.5 28.797-9.666z"/><path fill="#543042" d="M551.642 198.997l-9.5 5.334v7l49.713.666v-6.834z"/><path fill="#734d62" d="M534.308 172.787l-1.5 12.542 9.334 19.002 11.869-27.3z"/><path fill="#b3889d" d="M539.642 156.246l-6.1 1.72-.734 27.363 18.834-8.298-5.167-19.065z"/><path fill="#734d62" d="M553.517 161.662l-9.792-14.695-10.183 10.999 15.588 7.196z"/><path fill="#543042" d="M601.309 177.031l10.332 16.466-19.786 11.666-12.13-18.334z"/><path fill="#b3889d" d="M585.005 173.626l5.145-15.514 18.299-1.866 3.192 37.251-23-8z"/><path fill="#96637c" d="M583.225 162.746l11.406-15.779 13.818 9.279-21.419 10.917z"/><path fill="#734d62" d="M583.225 149.246l-14.125 13.5V205.622l22.755-.459 2.776-58.196-11.406 1.476"/><path fill="#96637c" d="M555.642 145.777l-11.917 1.19-1.583 57.364 26.958 1.291 10.625-36.438-10.625-6.438-5.783-13.5z"/><path fill="#c3927d" d="M566.558 134.14l-7.666 4.772-2.25 8.055 12.458 15.779 21.05-18.267v-7.632z"/><path fill="#594365" d="M594.631 121.163l12.102 17.847-11.276-1.017-12.232-6.343z"/><path fill="#f5cab4" d="M574.521 126.828l2.954 13.622 8.459 1.652 2.291 7.144 7.232-11.253 2.393-43.498-15.91-11.005z"/><path fill="#fee5d6" d="M547.475 81.991l-3.75 54.421 33.75 4.038 7.53-50.425z"/><path fill="#f5cab4" d="M554.177 97.83l-4.497 1.089 3.837 5.651 3.625 12.811 4.458.801 4.116.008 6.93-12.678 7.079-3.375-5.204-2.057-7.963 2.25-4.166 4-2.461-4.686-3.789-2.726z"/><path fill="#c3927d" d="M559.392 114.899l-2.25 2.482 4.958 4.083 3.616-3.274z"/><path fill="#7a5d88" d="M574.521 67.724l15.629-5.337 18.299 15.058-4.193 22.11-19.251-13.724z"/><path fill="#9075a0" d="M554.698 59.719l-8.957 18.488 11.817 5.147 32.592 1.334V62.387z"/><path fill="#7a5d88" d="M533.542 86.594l19.556 1.303 24.377 3.349 7.53-1.221h5.145v-5.337l-42.657-10.097z"/><path fill="#594365" d="M604.256 108.323l-11.437-5.337-3.11-8.491-4.704-4.47 5.145-5.337 14.106 14.867z"/><path fill="#9075a0" d="M589.268 98.918l-2.238 22.546 7.601 10.5 2.051-1.551 10.051 8.597-2.477-30.687z"/><path fill="#fff1e9" d="M559.931 101.644l-2.789 15.737 8.574.809.842-15.86z"/><path fill="#96637c" d="M550.082 96.472l9.849 1.358v3.814l-10.251-2.725zM567.142 97.83l-.584 4.5 13.167-.193v-2.582z"/><path fill="#c3927d" d="M572.013 125.093l-4.067 5.677-13.599-1.041-2.666-6.803z"/><path d="M556.052 103.637c0 1.036-.84 1.875-1.875 1.875-1.035 0-1.875-.839-1.875-1.875s.84-1.875 1.875-1.875c1.035 0 1.875.84 1.875 1.875zM574.521 105.512c0 1.036-.84 1.875-1.875 1.875-1.036 0-1.875-.839-1.875-1.875s.839-1.875 1.875-1.875 1.875.84 1.875 1.875z" fill="#2b2b2b"/><path fill="#c3927d" d="M587.03 121.464l9.652 8.949-1.225 7.58z"/><path fill="#d1a1b8" d="M569.1 162.746l4.125-15.875 22.232-8.878-.826 8.974zM543.725 146.967l15.167-8.055 10.208 23.834zM571.725 177.621l-2.625 1.485 1.312 2.829 2.813-1.813zM568.6 188.935l-2.75 1.5 1.25 3.062 2.641-1.66z"/><path fill="#fff" d="M554.347 124.402l14.334 1.7-1.5 3.062-11.438-.937z"/><path fill="#c3927d" d="M589.268 98.918l-4.739-5.711-37.434-5.709 37.91 2.527 4.702 4.47z"/><path fill="#7a5d88" d="M589.709 94.495l-.441 4.423 17.465 40.092-2.477-30.687z"/></g><g fill-rule="evenodd" clip-rule="evenodd"><path fill="#594365" d="M658.486 111.723l-16.682-5.528 16.182-1.867z"/><path fill="#744e62" d="M662.272 281.431l-13.62 2.75v4.25h23.918l8.916-2.666-4.125-4.334z"/><path fill="#97647d" d="M671.32 270.098l-7.75 3-14.918 11.083 28.709.219 8.358-11.552z"/><path fill="#744e62" d="M679.152 285.265l-6.582 3.166v4.5h20.5l.416-4z"/><path fill="#b3899e" d="M681.152 271.681l-3.15 3.247-5.432 13.503 20.916.5-2.946-10.999z"/><path fill="#744e62" d="M661.778 249.765l-3.376 7.305 5.168 16.028 14.432 1.83 4.781-15.33z"/><path fill="#97647d" d="M683.736 253.932l-8.476 6.833 2.742 14.163 12.538 3.004 3.362-17.167z"/><path fill="#7a5d88" d="M680.236 250.265l-4.976 10.5-16.858-3.695-8-23.305 17-1z"/><path fill="#9075a0" d="M672.627 236.598l-1.307 4.667 3.94 19.5h18.642l6.215-29.167z"/><path fill="#594365" d="M657.902 227.932l-7.5 3v2.833l20.918 7.5 28.797-9.667z"/><path fill="#543042" d="M659.903 218.598l-9.501 5.334v7l49.715.666v-6.833z"/><path fill="#734d62" d="M642.57 192.389l-1.5 12.542 9.332 19.001 11.87-27.298z"/><path fill="#b3889d" d="M647.903 175.848l-6.099 1.719-.734 27.364 18.833-8.297-5.167-19.067z"/><path fill="#734d62" d="M661.778 181.265l-9.792-14.697-10.182 10.999 15.588 7.198z"/><path fill="#543042" d="M709.57 196.634l10.332 16.464-19.785 11.667-12.131-18.334z"/><path fill="#b3889d" d="M693.267 193.227l5.145-15.513 18.299-1.866 3.191 37.25-23-8z"/><path fill="#96637c" d="M691.486 182.348l11.407-15.78 13.818 9.28-21.419 10.917z"/><path fill="#734d62" d="M691.486 168.848l-14.125 13.5v42.875l22.756-.458 2.776-58.197-11.407 1.477"/><path fill="#96637c" d="M663.902 165.378l-11.916 1.19-1.584 57.364 26.959 1.291 10.625-36.438-10.625-6.437-5.781-13.5z"/><path fill="#c3927d" d="M674.82 153.741l-7.667 4.772-2.25 8.055 12.458 15.78 21.051-18.268v-7.632z"/><path fill="#594365" d="M702.893 140.765l12.102 17.846-11.276-1.016-12.233-6.344z"/><path fill="#f5cab4" d="M682.783 146.43l2.953 13.622 8.224 1.439 2.526 7.357 7.233-11.253 2.392-43.499-15.91-11.005z"/><path fill="#fee5d6" d="M655.736 101.593l-3.75 54.421 33.75 4.038 7.531-50.425z"/><path fill="#f5cab4" d="M660.32 117.931l-2.928 2.167 8.011 16.884 4.458.801 4.116.009 11.759-15.027-3.833-2.667-7.083 1.833-4.167 4-3.75-5-2.5-2.412z"/><path fill="#c3927d" d="M667.653 134.501l-2.25 2.481 4.958 4.083 3.616-3.273z"/><path fill="#7a5d88" d="M682.783 87.326l15.629-5.337 18.299 15.057-4.193 22.11-19.251-13.723z"/><path fill="#9075a0" d="M662.961 79.32l-8.959 18.489 11.818 5.146 32.592 1.335V81.989z"/><path fill="#7a5d88" d="M641.804 106.195l19.555 1.304 24.377 3.349 7.531-1.221h5.145v-5.337l-42.657-10.098z"/><path fill="#594365" d="M712.518 127.924l-11.437-5.337-3.11-8.491-4.704-4.469 5.145-5.337 14.106 14.866z"/><path fill="#9075a0" d="M697.529 118.519l-2.237 22.546 7.601 10.5 2.05-1.55 10.052 8.596-2.477-30.687z"/><path fill="#fff1e9" d="M666.903 120.931l-1.5 16.051 8.574.81.843-15.861z"/><path fill="#4f5253" d="M657.736 116.107l9.417.824-.25 4-9.511-.833zM675.403 117.431l-.583 4.5 10.916.834v-3.609z"/><path fill="#c3927d" d="M680.275 144.694l-2.108 1.442-16.916-1.84-1.31-1.768z"/><path d="M663.653 124.223c0 1.036-.839 1.875-1.875 1.875s-1.875-.839-1.875-1.875.839-1.875 1.875-1.875 1.875.84 1.875 1.875zM680.277 125.556c0 1.036-.839 1.875-1.875 1.875-1.035 0-1.875-.839-1.875-1.875s.84-1.875 1.875-1.875c1.036 0 1.875.84 1.875 1.875z" fill="#2b2b2b"/><path fill="#c3927d" d="M695.292 141.065l9.651 8.95-1.224 7.58z"/><path fill="#d1a1b8" d="M677.361 182.348l4.125-15.875 22.233-8.878-.826 8.973zM651.986 166.568l15.167-8.055 10.208 23.835zM679.986 197.223l-2.625 1.484 1.313 2.828 2.812-1.812zM676.861 208.535l-2.75 1.5 1.25 3.063 2.641-1.659z"/><path fill="#c3927d" d="M697.529 118.519l-4.738-5.71-37.434-5.71 37.91 2.528 4.702 4.469z"/><path fill="#7a5d88" d="M697.971 114.096l-.442 4.423 17.466 40.092-2.477-30.687z"/><path fill="#4f5253" d="M669.753 150.575l-6.814 6.749 12.832 1.535z"/></g></svg>