<svg xmlns="http://www.w3.org/2000/svg" viewBox="0 0 400 400"><path opacity=".1" fill="#2b2b2b" d="M73.658 385.375l126.564-13.623 109.592 15.285L207.959 400z"/><path fill="#795d88" d="M206.005 313.891l-16.34 23.518L157 347.63l-21.91-31.492 5.575-51.096 29.999 6.123z"/><path fill="#a588b9" d="M170.548 286.635l8.95 24.783 23.765 26.247 20.237 9.965 28.73-1.65 11.581-21.502 3.856-55.073-97.003-2.414z"/><path fill="#9075a0" d="M203.265 337.666l60.546-13.188-2.317 46.305-20.827 4.392-17.167-13.456zM135.09 316.138l54.575 21.272-26.687 38.411-22.313-9.652-9.251-15.017z"/><path fill="#96637c" d="M223.5 361.719l-11.997 22.655 26.654 4.257L262 384.374l-.506-13.591z"/><path fill="#734d61" d="M211.503 384.374H262v8.513h-50.497z"/><path fill="#96637c" d="M131.414 351.152l-29.941 24.669 29.941 5.365 31.564-5.365z"/><path fill="#9075a0" d="M197 302.969l-17.504 8.446-13.596-16.16 11.767-32.927z"/><path fill="#734d61" d="M168.726 140.848l-12.392 3.023-23.555 11.68 6.564 30.947 10.946 24.615 25.342-42.962 10.953-27.303z"/><path fill="#96637c" d="M248 133.245l36.669 19.468-15.49 100.41-1.512 16.282L197 302.969l-19.446-33.227-11.654 25.513-25.235-30.213 18.668-104.61-2.999-16.561 15.177-7.087z"/><path opacity=".2" fill="#2b2b2b" d="M231.168 183.258l-24.165-14.754 12.408-11.064zM265.857 295.255l-28.027-11.679-51.06 1.914-20.87 9.765-19.16-22.929 35.856-20.935 39.071-3.022 47.512 4.754-1.512 16.282zM159.333 160.432l31.31 4.808-9.175-11.704z"/><path fill="#b3889d" d="M190.643 165.24l-9.175-11.704-8.341-2.98 13.457-9.708 7.134 1.459z"/><path fill="#eac1d7" d="M159.333 160.432l22.135-6.896 6.734-7.949-6.531-4.907z"/><path fill="#feeee9" d="M149.671 26.629l-14.904 90.774 57.854 23.057-.055 40.263 52.948-52.707 26.659-67.714-17.085-39.53-48.71-17.937-38.897 5.127z"/><path fill="#efd0cb" d="M245.91 17.738l-19.174 19.505-15.633 92.971-22.901 15.373 4.364 35.136 59.251-50.145 8.195-28.293.801-9.589 3.09-4.485 7.21-24.249-16.025-43.19zM203.762 53.531l-27.734 22.785-23.448-31.02 6.543-2.197 10.675 4.242 1.05 3.171 8.415 1.372 2.217-2.745 17.812-2.196z"/><path fill="#cea39f" d="M263.903 88.211l-15.085-5.033 11.194 19.107zM253.179 78.512l4.635-13.451 8.451 3.02z"/><path fill="#fff5f3" d="M179.263 51.884l-3.417 13.177 2.454 4.301-2.272 6.954-12.268-1.978.454-7.172 4.544-3.752 2.09-12.902z"/><path fill="#cea39f" d="M163.76 74.338l5.543 7.057 6.725-5.079z"/><path fill="#5f5044" d="M199.472 1.647L215.285.274l14.902 4.252 2.68 3.436 12.642.936 20.754 5.921-5.45 10.162-10.632 1.372-30.137-13.038.693-2.883-9.93-1.113-9.228-3.993z"/><path fill="#46382d" d="M266.263 14.819l10.635 26.358-4.725 2.745 2.483 7.118-3.543 12.922-10.3-10.431-6.179 1.326-6.908 17.068-6.542-1.099-5.725-18.148 10.055-5.211-.031-12.836 4.698-8.278z"/><path fill="#8e7e73" d="M167.481 7.962L192.924 0l22.361.274-13.706 5.052z"/><path fill="#5f5044" d="M245.483 34.631l25.63 29.331-35.654-11.284zM250.181 26.353l26.717 14.824-2.243 9.863z"/><path fill="#8e7e73" d="M210.811 9.32l19.376-4.794 15.327 4.373-25.473 4.415z"/><path fill="#74665b" d="M203.762 53.531v-3.019l-4.106-6.131-17.54 2.379-.636 2.379 17.267-.574zM169.798 47.341l.368-2.594-11.724-3.707-5.862 2.332v1.924l6.134-.824z"/><ellipse transform="rotate(-83.177 193.65704982 55.65333095)" cx="193.66" cy="55.649" rx="3.177" ry="3.512" fill="#2b2b2b"/><ellipse transform="rotate(-83.177 163.0218009 50.32280286)" cx="163.025" cy="50.319" rx="3.177" ry="3.512" fill="#2b2b2b"/><path fill="#efd0cb" d="M175.963 47.404l2.208-3.213.513-7.406-4.634 6.587z"/><path fill="#cea39f" d="M152.962 87.731l35.646 6.607-.682 3.275-36.022-6.986z"/><path fill="#efd0cb" d="M181.111 79.822l8.861 26.827 4.107-13.789zM160.474 76.612l-11.046 21.996-.818-14.311zM171.511 123.47l18.693-9.364-5.486 12.824zM157.354 121.132l-10.231-13.981v13.391z"/><path fill="#cea39f" d="M134.767 117.403l90.332 14.915-36.897 13.269z"/><path fill="#b3889d" d="M252.23 129.152l4.02 8.37-25.082 45.736-11.757-25.818z"/><path fill="#734d61" d="M192.566 180.723l.151 13.581-10.1 63.951-5.063 11.487-.287-9.389 10.396-66.973z"/><path fill="#efd0cb" d="M150.289 211.113l-21.369-67.349-3.607-5.259-18.875 6.674-1.74 9.082-3.332 41.744 27.394 17.458z"/><path fill="#cea39f" d="M126.41 136.097l-13.84-27.317-16.695 23.164 9.63 12.21 9.37-2.149z"/><path fill="#efd0cb" d="M95.875 131.944l-6.55-11.83 4.342-9.023 18.206-6.592 3.377 11.626-3.863 7.645zM111.873 101.147l-6.099-6.667-6.797 5.032.705 7.253z"/><path fill="#5f5044" d="M120.666 97.666l-8.793 3.481L100.5 107.3l-6.506.924-19.327 7.65 3.693 8.709 18.974-7.734 5.599-4.594 6.936-.516 13.936-5.681z"/><path fill="#8e7e73" d="M97.334 116.849l-3.34-8.625 17.879-7.077-2.004 10.592z"/><path fill="#feeee9" d="M125.999 116.125l-14.126-14.978-3.982 6.795 4.35 8.351-.854 7.477 7.874 1.419z"/><path fill="#efd0cb" d="M125.999 116.125l-14.612 7.645 5.113 17.078 9.91-4.751z"/><path fill="#cfcecd" d="M74.667 115.874l-8.333-13.39 10.33-16.356 3.003 14.494z"/><path fill="#cfcecd" d="M76.664 86.128l-4.831-2.641-2.998-13.833 11.998 10.684z"/><path fill="#cea39f" d="M101.366 196.005l48.923 15.108-22.12 8.057z"/><path fill="#734d61" d="M101.473 375.821h61.505v8.513h-61.505z"/><path opacity=".2" fill="#2b2b2b" d="M165.9 295.255l-30.086 14.252 4.851-44.465z"/><path fill="#9075a0" d="M105.505 144.154l20.905-8.057 2.509 7.664-24.221 10.5z"/><path fill="#3f3f3f" d="M185.641 264.6l14.21 11.11 21.038-9.267-11.557-13.32z"/><path fill="#494949" d="M235.497 247.017l24.224 10.682-14.888 22.551-6.676-4.683-17.268-9.124-16.537-15.547z"/><path fill="#494949" d="M205.481 236.195l-41.627 14.23-10.636 4.144-12.808 7.638-58.641 23.17 3.579 5.693 12.59-2.135 54.509-9.346 3.694-3.879 5.699.195 34.748-13.628 23.202-6.689 15.707-8.571-19.403-8.664z"/><path fill="#606060" d="M206.187 233.928l-42.333 16.497 3.18 7.652 49.06-19.724z"/><path fill="#3f3f3f" d="M149.557 268.377l-51.619 20.558 4.278 10.355 50.231-19.701z"/><path fill="#494949" d="M136.855 263.755l-3.128 1.22 7.86 18.873 2.92-1.145zM126.496 267.792l-3.132 1.221 7.87 18.896 2.922-1.146zM116.136 271.829l-3.134 1.222 7.879 18.918 2.924-1.147zM105.507 275.972l-3.14 1.223 7.888 18.942 2.93-1.149z"/><path fill="#6f7173" d="M82.946 294.905l66.611-26.528-6.232-9.952-64.965 25.316z"/><path fill="#494949" d="M153.218 254.57l-9.893 3.855 9.123 21.164 9.393-3.684z"/><g><path fill="#efd0cb" d="M258.75 213.121l-14.275 20.808-7.162 15.441 6.064 7.854 10.248 2.284 15.554-6.385 19.326-10.125 16.876-17.455-8.353-13.278zM211.503 265.76l-9.915 3.277-5-6.76 7.059-2.769z"/><path fill="#feeee9" d="M235.497 247.017l-24.48 9.601 12.047 10.974 15.093 7.975 14.073-14.042z"/><path fill="#cea39f" d="M238.157 275.567l-17.34 3.613-17.17-19.672 7.37-2.89zM258.75 213.121l29.755 29.877 21.084-10.768-21.922-19.109z"/><path fill="#734d61" d="M284.669 152.713L322 236.895l-63.25-23.774 2.497-34.571z"/><path fill="#9075a0" d="M235.497 247.017l8.979-13.089 24.703 19.195-16.949 8.402z"/><path fill="#eac1d7" d="M256.25 242.187l-11.417.811v12.114L257 253.839z"/><path fill="#9075a0" d="M253.354 245.068l-4.875 3.25 4.875 4.438-2-4.375z"/></g></svg>