<svg xmlns="http://www.w3.org/2000/svg" viewBox="0 0 400 400"><path fill="#feeee9" d="M197.472 139.205l-3.632 2.562-6.013 3.141-2.004 13.504 17.912 8.032 33.064-6.985 1.628-9.894-3.637-10.071-34.061-.173z"/><path fill="#c7c7c6" d="M127.284 194.998L111.65 181.36l12.574-14.223h5.764l-3.077 9.507-2.11 4.417 6.981 6.66z"/><path fill="#efd0cb" d="M175.68 150.962l-4.385 2.771-5.792 28.193 4.288 19.324z"/><path fill="#dddddc" d="M172.054 181.926l-13.157-2.356.659 12.854 10.235 8.826.922-7.876z"/><path fill="#ececeb" d="M170.592 196.653l-34.139-16.556-9.169 14.901 38.877 25.505 13.985-6.444z"/><path fill="#f0edec" d="M111.65 181.36l1.581-20.957 13.804-3.982-3.375 11.418z"/><path fill="#a588b9" d="M142.553 146.509l-7.411 6.362-.125 1.851 1.257-.645 7.388-6.497.74-.975zM151.734 133.748l1.075-16.474 6.913-1.085-.751-1.873-8.008 1.414-1.148 16.726.976 2.159z"/><path fill="#6c557a" d="M149.815 132.456l11.094 6.603-13.246 13.007-8.131-8.811zM132.168 149.888l8.359 8.352-14.036 12.019-8.283-7.098z"/><path fill="#a588b9" d="M124.25 139.037l-7.695 1.645-.738.272-.026.729 2.418 21.477 1.72-1.636-2.167-19.327 6.786-1.483z"/><path fill="#dddddc" d="M131.782 187.721l-7.76-5.329 5.966-15.255 7.058-6.099-.593 19.059z"/><path fill="#322b25" d="M139.194 57.506l8.424 28.802 5.984-44.726-5.863.366z"/><path fill="#2b2b2b" d="M130.96 384.1l81.617-8.452 75.773 11.04-91.737 11.451z" opacity=".102"/><path fill="#efd0cb" d="M169.756 304.738l25.197 60.532-28.674 22.351 28.383-5.822 17.672-11.639v-22l-12.023-21.657z"/><path fill="#cea39f" d="M173.662 315.449l12.603 28.986 18.974 2.444 3.476-5.237-8.547-15.483-15.062-10.71z"/><path fill="#feeee9" d="M194.518 381.453l16.08-14.434-5.36-20.14 3.477-5.237 21.43 2.793-3.184 24.33-2.609 7.215-15.351 12.573z"/><path fill="#efd0cb" d="M205.239 346.879l-2.634-10.596 32.175-21.069-4.635 29.221z"/><path fill="#795d88" d="M226.167 392.625l1.954-15.948-3.649-1.573-4.921 1.749 1.366 15.772zM182.064 375.281l-15.928 11.991 25.341-.115 2.606.464.435-6.168z"/><path fill="#9075a0" d="M194.518 381.453l13.762 3.725 18.681-16.413 1.16 7.912-16.516 15.948-29.396-.116z"/><path fill="#543042" d="M173.051 297.988l-.879 28.051 30.433 10.244 54.86-13.038-1.379-13.035-4.882-17.579z"/><path fill="#442735" d="M172.798 304.974l-.625 21.065 30.433 10.244.127-15.481z"/><path fill="#feeee9" d="M147.74 41.948l-.122 44.36 18.004 44.381h32.822l14-21.346 4.298-51.673-4.407-19.493-49.452-3.768z"/><path fill="#322b25" d="M218.198 34.047l-20.512-2.43-27.723 8.992 3.907 5.228 42.872 11.833 2.433-13.903z"/><path fill="#875a71" d="M147.74 29.427v12.521l68.261-4.011 23.688 5.103 10.869-7.047-.977-11.549-40.297-11.548z"/><path fill="#4a4138" d="M147.74 29.427l9.891-.486 17.831-7.655-2.81-16.164-21.247 11.664z"/><path fill="#efd0cb" d="M234.79 139.494l9.324-48.313-22.225-48.775-3.975 1.517-5.47 65.42-14 21.346-3.57 8.806 2.892 6.449 5.083 9.663z"/><path fill="#cea39f" d="M241.522 107.029l1.834-11.849-4.057-7.454-10.476-.02z"/><path fill="#322b25" d="M172.652 5.122L157.63 28.94l25.889-1.211 3.662-13.981L181.809.5zM195.242 16.665l20.271 9.477 16.609-8.26-1.954-12.154L181.809.5z"/><path fill="#4a4138" d="M183.519 27.728l31.995-1.585L181.809.5zM230.166 5.728l19.415 18.716-13.063.607-21.004 1.092z"/><path fill="#efd0cb" d="M232.73 59.451l-5.373 2.427 1.466 22.244 9.403.24 5.982-18.109z"/><path fill="#322b25" d="M216.001 37.937l19.781 23.334 29.401 15.317-14.625-40.595-13.92.728z"/><path fill="#4a4138" d="M243.356 95.18l21.827-18.592-49.182-38.651.741 19.733z"/><path fill="#cea39f" d="M186.879 130.689l15.97 24.918 13.839-24.918z"/><path fill="#734d61" d="M234.79 139.494l15.773 11.468 2.144 7.565-3.13 1.864-13.403 3.84-4.887-8.843zM187.828 144.908l-12.148 6.054-.877 7.566 9.642 7.684 7.268-10.359z"/><path fill="#96637c" d="M171.319 184.561l1.497-11.533 1.987-14.5 16.909-2.675 39.575-.701 18.29 5.238 3.755 19.323-7.391 5.008-40.453 9.428z"/><path fill="#875a71" d="M249.577 160.39l3.755 19.323-7.391 5.008h-6.384z"/><path fill="#734d61" d="M169.791 196.338l1.87-14.412 74.28 2.794 8.518 14.201-11.771 7.686-42.086 4.771z"/><path fill="#684657" d="M239.681 184.489l6.26.232 8.518 14.2-11.771 7.686-11.648-.932z"/><path fill="#96637c" d="M176.306 235.939l3.84-21.88-10.355-17.721 72.897 10.269 5.386 24.676z"/><path fill="#875a71" d="M231.313 205.006l11.375 1.601 3.883 7.796-17.675-3.2z"/><path fill="#96637c" d="M185.948 287.975l15.154-50.053 46.972-6.639 19.286 76.715-64.625 12.804z"/><path fill="#734d61" d="M163.278 310.792l14.658-84.396 26.478 11.057-1.679 83.349z"/><path fill="#875a71" d="M192.839 235.243l54.517-7.249 3.821 15.63h-46.888z"/><path fill="#6f495c" d="M204.289 243.624l-29.111-1.165 1.508-8.689 2.994-.76 24.734 4.443z"/><path fill="#feeee9" d="M261.913 157.714l-11.35-6.752-5.496 39.461-.753 5.238 9.143 7.687 6.972-.7z"/><path fill="#ececeb" d="M270.73 205.006l-26.416-9.344-1.626 10.945-4.51 13.154 21.718 5.47z"/><path fill="#efd0cb" d="M149.326 58.719l15.088 11.123 8.875 15.513 9.102 5.551 13.208-21.722 18.917-12.128-8.084-1.48-21.583 5.557-3.405 5.486-3.908 4.621-2.931-4.501-2.881-5.565-15.896-5.122z"/><path fill="#322b25" d="M186.766 57.732l-1.917 3.401 22.042-4.185 7.625.108-4-3.118-4.304.826zM155.433 55.078l14.957 2.771 1.334 3.325-16.146-4.064-6.252 1.608z"/><path fill="#fef5f3" d="M174.606 66.725l-1.74 24.181h9.525l-.947-24.287z"/><path fill="#cea39f" d="M177.474 96.313l-4.608-5.407h9.525z"/><path fill="#543042" d="M164.581 105.059l10.992-2.917 2.931 1.584 3.294-2.07 11.742 3.041-15.036 3.646z"/><path fill="#734d61" d="M178.504 111.866l-13.923-6.807 13.555 1.825 15.404-2.187z"/><path fill="#543042" d="M237.212 93.953l-1.639 3.024-3.039 5.939 5.614 6.403 4.21-6.637-3.51-5.82z"/><path fill="#b3889d" d="M235.634 87.88l-.061 9.097 3.275-.115-.177-4.702z"/><path d="M199.391 68.39c0 2.085-1.698 3.775-3.792 3.775s-3.792-1.69-3.792-3.775c0-2.084 1.698-3.774 3.792-3.774 2.093 0 3.792 1.69 3.792 3.774zM168.205 69.183c0 2.085-1.697 3.774-3.792 3.774-2.094 0-3.791-1.689-3.791-3.774 0-2.084 1.697-3.774 3.791-3.774 2.095 0 3.792 1.69 3.792 3.774z" fill="#2b2c2b"/><path fill="#4a4138" d="M243.356 95.18l-4.184 21.607-16.09 12.361 23.481-1.513 12.964-9.819 5.656-41.228z"/><path fill="#322b25" d="M243.356 95.18l18.676 4.375 3.151-22.967-27.129 11.118zM246.563 127.635l12.964-9.819 2.505-18.261-22.86 17.232-16.09 12.361z"/><path fill="#dddddc" d="M180.146 214.059l-13.985 6.444 2.018 12.507h11.501l3.578-6.614z"/><path fill="#ececeb" d="M201.231 220.422l-21.085-6.363-.466 18.951 24.734 4.443 2.357-7.743z"/><path fill="#dddddc" d="M242.688 206.607l17.208 18.624-55.482 12.222-3.183-17.031z"/><path fill="#322b25" d="M222.686 66.046l1.48 14.121 4.657 1.25 2.742-2.856z"/></svg>