<svg xmlns="http://www.w3.org/2000/svg" viewBox="0 0 400 400"><path fill="#685444" d="M132.577 40.133l5.689-27.108 12.494 8.424-11.629 6.314 4.114 13.163-3.647 18.46z"/><path fill="#7B4C60" d="M239.707 290.198l-.598-19.201 7.92-23.148 13.988 3.201 4.869 23.734z"/><path fill="#33302D" d="M115.192 387.606l79.279-13.764 86.679 12.968-85.161 13.44z" opacity=".102"/><path fill="#F3D8D4" d="M229.686 148.876l10.293-33.103 3.141-10.133-7.684-53.803-21.389-7.64-25.272 97.063 18.736 31.353z"/><path fill="#D4ABA5" d="M239.979 115.773l3.141-10.134-14.175-4.396z"/><path fill="#FEF3F1" d="M139.131 27.763l1.235 83.501 14.715 29.495h34.722l24.036-17.856.013-13.09.195-65.615-10.566-18.648L178.3 38.075z"/><path fill="#685444" d="M138.265 13.025l33.93 6.992 45.112-9.853L166.439.25z"/><path fill="#4F3D2F" d="M178.301 38.075l-39.17-10.312-.866-14.738 79.042-2.861-2.552 12.539-11.274 2.848z"/><path fill="#685444" d="M254.349 16.949l-37.042-6.785-13.826 15.386 10.566 18.647 29.797-6.225z"/><path fill="#4F3D2F" d="M255.731 53.728l-1.382-36.779-34.505 16.176 1.844 21.135 5.531 7.284 20.73 4.824z"/><path fill="#3D2E1E" d="M221.688 97.554l4.416-18.888 1.115-17.122-5.531-7.284 34.043-.532-5.043 25.297-20.078 18.78z"/><path fill="#FEF3F1" d="M232.961 75.116l-1.212 7.835 11.371 22.689 7.568-26.614z"/><path fill="#7A7776" d="M236.631 104.945l-1.595 4.318-21.197 6.554.013-5.221 19.161-3.996.256-2.024 2.845-.929z"/><path fill="#858384" d="M238.71 73.707l-6.961 9.244 1.52 21.626 9.851 1.063 6.937-3.012 4.292-20.025-3.317-6.079z"/><path fill="#5A5754" d="M206.559 110.7l7.293-1.933 1.755 4.366-1.783 4.365-7.537 1.644-1.266-3.744z"/><path fill="#999593" d="M203.603 119.727l-1.699-4.27 1.282-3.88 3.373-.877 1.319 4.513-1.591 3.929z"/><path fill="#D4ABA5" d="M172.221 140.759l1.389 9.933 14.87 22.187 19.032-.266 10.375-31.854z"/><path fill="#AF8DBE" d="M173.61 150.692l12.157 10.768-5.327 17.261-5.945 4.586-4.249-6.019z"/><path fill="#9776A1" d="M198.6 172.731l-6.579 3.864-3.246-3.732-3.008-11.403-11.331 19.695-19.355 64.494 4.177 5.223 31.657 19.442 34.34-23.351 8.351-90.785-31.052 6.255z"/><path fill="#7B5D81" d="M217.413 252.303l10.743-1.253.009-35.689-17.914-.174zM163.313 218.214l-8.232 27.435 4.177 5.223.146.089 15.976-35.039z"/><path fill="#5C3F62" d="M172.874 180.432l-3.587 17.879.199 53.504h6.592l-.697-35.895-2.507-35.488zm19.191 70.602l-.458-60.158.486-11.344-3.319-6.669-3.008-11.403-.199 90.843 6.497-1.253v-.016zm-29.032-31.91l-7.951 26.525 4.176 5.223 4.307.943-.813-17.406.281-15.269v-.016zm39.724 33.386l6.685-.415 1.89-80.867-8.794-8.795.219 90.077z"/><path fill="#4D3551" d="M169.391 217.061l.06 11.846 5.931-12.984-5.991 1.138zm-9.943 33.794l3.806-8.348-.488-8.11.28-15.274-7.951 26.525 4.177 5.223.189-.017h-.013z"/><path fill="#7E5A87" d="M171.382 191.318l-2.168 7.214 60.573-.975.693-7.508-38.887.827-20.226.427.015.015zm-5.444 18.143l-2.005 6.713 64.273-1.356.577-6.267-62.845.897v.013zm-5.545 18.498l-1.932 6.462 67.989-.423.622-6.758-66.679.719z"/><path fill="#654A6C" d="M213.901 234.083l-1.285-6.68 14.456-.163-.622 6.771zM166.956 234.381l2.981-6.52-9.544.098-1.948 6.462z"/><path fill="#AF8DBE" d="M171.382 191.319l-2.096 7.007v.221l4.855-.073-.502-7.185-2.257.045v-.015zm14.235 6.948l6.036-.103-.06-7.287-5.945.132-.031 7.258zm17.027-.281l8.038-.132.179-7.392-8.234.178.017 7.346zm-33.313 11.418l.031 6.64 5.988-.134-.471-6.596-5.561.073.013.017zm.104 18.457l.031 6.487 6.268-.041-.131-6.523-6.182.063.014.014zm22.498 6.357l-.044-6.596-6.375.077-.028 6.564 6.447-.045zm-.148-18.645l-.045-6.495-6.15.089-.03 6.536 6.225-.13zm-29.033 18.823l.117-6.462-2.493.024-1.932 6.462 4.308-.024zm47.028-.296l.162-6.685-7.225.073.016 6.656 7.047-.044zm.471-18.913l.164-6.372-7.73.117.017 6.417 7.567-.162h-.018z"/><path fill="#9D7CA9" d="M169.449 228.919l.488-1.045h-.488v1.045zm-6.683 5.49l.12-6.463-2.493.03-1.932 6.461 4.305-.028z"/><path fill="#9E627C" d="M146.452 171.242l27.158-20.55-2.538 29.724 4.309 35.506-20.3 29.727-16.196-15.682z"/><path fill="#5C3242" d="M173.61 150.692l-13.38 23.057 8.763 5.842-9.192 10.016 15.58 26.315z"/><path fill="#7B4C60" d="M119.958 235.206l26.494-63.964 1.385 56.246-9.544 14.651z"/><path fill="#9E627C" d="M262.887 164.351l-29.281-8.173-23.355 59.009 18.892 43.032 40.019-37.514zM154.717 328.16l-6.156-52.181 6.52-8.424 25.668 5.87 13.072 25.108-5.229 38.805L172.462 355z"/><path fill="#9E627C" d="M201.442 336.838l-7.622-38.305 10.959-25.442 24.364-14.872 11.348 18.711-3.444 58.234-17.203 16.025z"/><path fill="#8F5870" d="M225.956 251.05l3.187 7.169 28.998-29.061-6.698-44.344-8.587 2.492z"/><path fill="#AF8DBE" d="M211.154 179.002l-8.6-16.569 27.132-13.557 3.92 7.303z"/><path fill="#5C3242" d="M238.683 177.289l-5.077-21.111-23.355 59.009 23.018-20.581-4.811-13.555z"/><path fill="#7B4C60" d="M242.856 187.306l20.031-22.954 21.921 67.607-24.001 1.49-14.053-10.146z"/><path fill="#BA8CA1" d="M234.262 248.07l12.492-24.767 38.054 8.656-36.745 37.377z"/><path fill="#F2F2F2" d="M229.143 258.219l5.119-10.149 13.801 21.266-7.572 7.594z"/><path fill="#7B4C60" d="M193.82 298.533l-45.259-22.554 8.231-18.065 35.273-6.879 37.078 7.184 11.348 18.711z"/><path fill="#5C3242" d="M188.775 172.863l9.826-.132-6.994 18.146z"/><path fill="#BA8CA1" d="M159.981 251.216l-12.144-23.728-27.879 7.718 23.706 33.9z"/><path fill="#7B4C60" d="M158.221 362.202l14.784 15.155 11.916-7.311 3.671-32.708-33.875-9.178zM201.442 336.838l6.257 33.277 18.751 6.43 8.534-6.499 2.063-34.882z"/><path fill="#7B4C5F" d="M193.82 298.533h.001v.002h-.001z"/><path fill="#4F4B49" d="M134.692 383.12l23.529-20.918 26.7 7.844v13.074zM207.699 370.115l-6.912 18.577h36.032l-1.835-18.646z"/><path fill="#33302D" d="M200.787 388.692h36.032v3.715h-36.032zM134.692 383.12h50.229v3.715h-50.229z"/><path opacity=".2" fill="#33302D" d="M232.93 99.742l.327 4.665.32.203 9.543 1.03 6.937-3.012-11.347-28.921z"/><path fill="#5A5754" d="M238.71 73.707l-6.113 1.409-3.652 26.127 4.324 3.334z"/><path fill="#F3D8D4" d="M179.051 94.139l8.322 11.91.566-7.017zM157.962 95.044l-4.985 10.178-.794-6.086zM203.481 25.55l16.363 7.575 7.228 15.725-5.384 5.41 5.531 7.284h-13.224z"/><path fill="#FEF3F1" d="M213.995 61.544l5.849-28.419-16.363-7.575 10.514 35.994z"/><path fill="#423225" d="M163.635 72.245v-3.421l-9.261-2.879-9.595 4.214.445 2.42 9.4-2.671zM172.572 69.366v3.213l10.17-2.671 11.014 2.337 3.588-2.879-15.018-3.546z"/><path fill="#F3D8D4" d="M193.756 72.245l-20.651 21.777-2.128-6.383 1.595-15.06 10.17-2.671z"/><path fill="#33302D" d="M191.19 77.523c0 2.154-1.709 3.9-3.817 3.9s-3.817-1.747-3.817-3.9c0-2.155 1.709-3.901 3.817-3.901s3.817 1.746 3.817 3.901z"/><path fill="#F3D8D4" d="M163.635 72.245l-2.42 15.269-15.991-14.935 9.567-3.213z"/><path fill="#FEF9F9" d="M163.635 72.245l-3.296 21.777h12.766l-2.128-6.383 1.595-15.06z"/><path fill="#33302D" d="M156.792 77.523c0 2.154-1.709 3.9-3.817 3.9s-3.817-1.747-3.817-3.9c0-2.155 1.709-3.901 3.817-3.901s3.817 1.746 3.817 3.901z"/><path fill="#D4ABA5" d="M160.339 94.022l5.632 7.885 7.134-7.885zM155.802 107.467l10.92 1.3 17.143-1.884.305 2.848-17.448 2.076-10.92-1.503z"/><path fill="#F3D8D4" d="M143.287 97.964l4.671 4.831-1.502 9.595zM200.691 96.871l-5.134 18.342-2.959-9.991z"/><path fill="#AF8DBE" d="M229.143 258.219h-66.835l-2.503-7.347 66.151.178z"/><path fill="#F2F2F2" d="M163.565 258.219l-3.76-7.347-16.141 18.234 4.897 6.873z"/><path fill="#9E627C" d="M184.653 250.961h14.62v7.258h-14.62z"/></svg>