<svg xmlns="http://www.w3.org/2000/svg" viewBox="0 0 400 400"><path opacity=".1" fill-rule="evenodd" clip-rule="evenodd" fill="#2b2b2b" d="M77.727 385.271l80.75-19.683 152.045 20.026L177.973 400z"/><path fill-rule="evenodd" clip-rule="evenodd" fill="#594165" d="M172.674 319.861l37.292 5.955-4.021-22.479-28.883 2.119zM158.399 366.402v18.931H140.88l3.402-12.029zM235.702 329.801l45.703 8.363-22.186-70.419-14.572 9.465z"/><path fill-rule="evenodd" clip-rule="evenodd" fill="#565655" d="M140.88 312.407l-2.328 21.262 10.819 14.279 21.552-7.768 13.676-27.773-25.479-6.951z"/><path fill-rule="evenodd" clip-rule="evenodd" fill="#96637c" d="M170.923 340.18l-12.524 26.222-25.813 14.593 3.017-28 2.949-19.326z"/><path fill-rule="evenodd" clip-rule="evenodd" fill="#565655" d="M204.816 312.407l2.998 30.761 18.344 8.281 15.184-8.091 11-30.951-26.184-4.006z"/><path fill-rule="evenodd" clip-rule="evenodd" fill="#96637c" d="M207.814 343.168l33.528.19-6.757 22.213-16.117 14.621-8.887-16.718z"/><path fill-rule="evenodd" clip-rule="evenodd" fill="#785d88" d="M158.399 366.402l-17.519 18.931H99.769l19.259-16.86 13.558-1.084 4.997 4.801zM234.585 365.571l-14.683 7.831-10.321-9.928-12.792 28.081h39.374z"/><path fill-rule="evenodd" clip-rule="evenodd" fill="#a688ba" d="M228.49 357.699l-2.065 21.525-15.183-.395 4.265-22.465zM137.583 372.19l8.276-13.674-10.256-5.521-16.575 15.478z"/><path fill-rule="evenodd" clip-rule="evenodd" fill="#785d88" d="M122.789 231.365l-1.326 71.819-22.157-10.479 4.159-61.34z"/><path fill-rule="evenodd" clip-rule="evenodd" fill="#594165" d="M114.507 236.295l41.212-4.93-14.839 81.042-19.417-9.223z"/><path fill-rule="evenodd" clip-rule="evenodd" fill="#594165" d="M137.971 155.547l-49.629 50.746 59.912 26.207zM290.394 162.352l21.945 69.013-45.675-9.735 2.595-34.042z"/><path fill-rule="evenodd" clip-rule="evenodd" fill="#565656" d="M139.905 50.611l-20.96 57.809 11.211 18.31 19.568 13.469-3.753-40.568z"/><path fill-rule="evenodd" clip-rule="evenodd" fill="#444" d="M118.945 108.42l12.756 54.914L143 155.547l6.724-15.348z"/><path fill-rule="evenodd" clip-rule="evenodd" fill="#785d88" d="M153.954 137.309l-15.983 18.238 2.909 156.86h20.162l21.814-9.465 21.96 9.465h47.526l3.928-42.02 16.541-79.247 17.583-28.788-44.761-25.043z"/><path opacity=".2" fill-rule="evenodd" clip-rule="evenodd" fill="#2b2b2b" d="M220.492 292.673l31.85 19.734 3.928-42.02z"/><path fill-rule="evenodd" clip-rule="evenodd" fill="#a688ba" d="M159.12 153.873l1.922 158.534h43.774l1.129-154.492-24.596-20.606z"/><path fill-rule="evenodd" clip-rule="evenodd" fill="#f4f4f4" d="M181.349 140.199l-6.306 17.716-37.072 17.253v-19.621l11.753-15.348 15.065-6.439zM244.647 178.52l-56.837-20.605-6.461-17.716 34.524-7.672 32.559 7.672 1.342 17.716z"/><path fill-rule="evenodd" clip-rule="evenodd" fill="#785d88" d="M176.226 180.785l5.123-5.817 5.13 5.817-5.13 5.324zM176.226 216.306l5.123-5.816 5.13 5.816-5.13 5.324zM176.226 251.828l5.123-5.817 5.13 5.817-5.13 5.324zM176.226 287.349l5.123-5.817 5.13 5.817-5.13 5.324z"/><path fill-rule="evenodd" clip-rule="evenodd" fill="#ffeee9" d="M139.905 50.611v58.775l9.819 30.813h65.132l15.055-93.307-57.837-28.04z"/><path fill-rule="evenodd" clip-rule="evenodd" fill="#efd0cb" d="M223.739 44.114l-5.35 66.054-12.205 30.031h42.248l-18.521-93.307zM200.993 71.231l-25.561 28.397-29.46-28.397 10.398-4.958 9.098 3.606 10.831.45 12.997-4.056z"/><path fill-rule="evenodd" clip-rule="evenodd" fill="#fff5f3" d="M176.299 70.329l-2.493 9.016 1.626 20.283h-11.697l3.16-20.283-1.427-9.466z"/><path fill-rule="evenodd" clip-rule="evenodd" fill="#cea39f" d="M175.432 99.628l-5.849 6.086-5.848-6.086zM152.919 113.509h39.093v3.5h-39.093z"/><path fill-rule="evenodd" clip-rule="evenodd" fill="#565656" d="M169.612 23.057L181.28 48.47l41.557 5.406 20.072-11.717 9.535-24.241L180.798 0z"/><path fill-rule="evenodd" clip-rule="evenodd" fill="#707070" d="M238.022 37.177l14.422-19.259 24.105 72.948 26.499 48.332-12.654 23.154-26.69-25.196z"/><path fill-rule="evenodd" clip-rule="evenodd" fill="#444" d="M222.837 53.876l15.185-16.699 52.372 125.175-23.441-5.588-18.521-16.565z"/><path fill-rule="evenodd" clip-rule="evenodd" fill="#565656" d="M276.552 90.872l13.842 71.48 15.131-24.354zM290.394 162.352l-45.747 16.168 3.785-38.321z"/><path fill-rule="evenodd" clip-rule="evenodd" fill="#707070" d="M139.905 50.611l23.612-1.014L180.798 0l-28.545 19.396z"/><path fill-rule="evenodd" clip-rule="evenodd" fill="#565656" d="M165.468 69.879v-3.606l-9.315-4.846-10.885 6.93.704 2.874 10.398-3.605zM176.299 70.329v-4.056l14.459-4.846 10.235 6.592v3.212l-11.697-3.605zM169.612 119.349l-5.445 6.536 5.445 8.226 5.386-8.226z"/><path fill-rule="evenodd" clip-rule="evenodd" fill="#96637c" d="M194.86 213.429l66.727-25.26 24.781 85.585-65.876 18.919z"/><path fill-rule="evenodd" clip-rule="evenodd" fill="#d8d8d8" d="M259.219 191.721l1.499-5.612 9.725-5.131 29.612 90.614-9.661 14.985z"/><path fill-rule="evenodd" clip-rule="evenodd" fill="#fff" d="M194.86 213.429l16.382-13.419 59.201-19.032-11.224 10.743z"/><path fill-rule="evenodd" clip-rule="evenodd" fill="#785d88" d="M282.623 218.249l-2.986 24.947 1.768 94.968 30.934-106.799z"/><path fill-rule="evenodd" clip-rule="evenodd" fill="#9075a0" d="M88.342 206.293l21.112 4.197v12.902l-2.883 12.903-7.265 56.41z"/><path fill-rule="evenodd" clip-rule="evenodd" fill="#fff" d="M106.571 236.295h7.936l6.589-12.903v-11.091l-11.642-1.811z"/><path fill-rule="evenodd" clip-rule="evenodd" fill="#d1a1b8" d="M139.155 212.301l.75-59.28-15.821-22.478 2.747 38.79z"/><path fill-rule="evenodd" clip-rule="evenodd" fill="#b3889d" d="M124.084 130.543l-5.139 44.625 20.21 37.133z"/><path fill-rule="evenodd" clip-rule="evenodd" fill="#d1a1b8" d="M143.501 236.295l3.344 25.315-6.66 13.332-1.03-31.154 1.774-15.744z"/><path fill-rule="evenodd" clip-rule="evenodd" fill="#ffeee9" d="M121.096 212.301h18.059l1.774 15.743-1.774 15.744-24.648-7.493z"/><path fill-rule="evenodd" clip-rule="evenodd" fill="#efd0cb" d="M139.155 212.301l11.831 11.091-11.831 20.396z"/><g fill-rule="evenodd" clip-rule="evenodd" fill="#fff"><path d="M215.2 221.851l.984-1.641 12.47 7.055-.657 1.312z"/><path d="M218.153 229.725l5.414-11.975 2.789.656-7.055 13.124zM228.816 216.602l7.054 3.772-.493 1.477-7.709-3.281z"/><path d="M237.839 214.962l-2.626 14.434-2.624-.492 3.363-14.312zM240.011 213.731l8.366-2.953-2.09 9.719 4.797-1.722.861 2.584-9.596 1.722 2.953-8.243-4.922.738z"/></g><path fill-rule="evenodd" clip-rule="evenodd" fill="#734d60" d="M212.357 267.745l25.717 3.021 17.046 11.932-5.112-29.996z"/><path fill-rule="evenodd" clip-rule="evenodd" fill="#fff" d="M250.087 256.952l-11.454 3.845-6.014-11.535v-14.045l21.295 12.79z"/><path fill-rule="evenodd" clip-rule="evenodd" fill="#9075a0" d="M282.623 218.249l-50.004 16.968 48.786 102.947z"/><path fill-rule="evenodd" clip-rule="evenodd" fill="#efd0cb" d="M232.619 235.217h-18.393l-10.43 5.952 1.507 4.679 12.223-3.701z"/><path fill-rule="evenodd" clip-rule="evenodd" fill="#ffeee9" d="M232.619 235.217l-27.316 10.631 5.429 11.104 9.76 9.465 18.141-5.62z"/><path fill-rule="evenodd" clip-rule="evenodd" fill="#efd0cb" d="M205.303 245.848l-6.028 4.969 13.082 16.928 8.135-1.328zM175.432 99.628l9.476 1.481 7.104 12.4zM163.735 99.628l-7.671 3.371-3.145 10.51z"/><path fill-rule="evenodd" clip-rule="evenodd" fill="#565656" d="M169.583 105.714l1.536 4.93 20.893 2.865zM168.841 110.447l.742-4.733-16.664 7.795z"/><path fill-rule="evenodd" clip-rule="evenodd" fill="#efd0cb" d="M189.131 83.908l12.867 7.236-9.13.732zM157.128 81.984l-3.145 8.976-6.977.916z"/><ellipse cx="188.667" cy="79.474" rx="4.177" ry="4.346" fill-rule="evenodd" clip-rule="evenodd" fill="#2b2b2b"/><ellipse cx="154.296" cy="79.474" rx="4.177" ry="4.346" fill-rule="evenodd" clip-rule="evenodd" fill="#2b2b2b"/></svg>