<svg xmlns="http://www.w3.org/2000/svg" viewBox="0 0 400 400"><path fill="#2b2b2b" d="M82.997 386.659l129.398-15.218 131.602 20.397L212.076 400z" opacity=".102"/><path fill="#b39493" d="M102.236 43.885l5.633 23.353 5.855 8.857-.626 8.861 7.263 25.056 88.433-12.977 15.59-26.575-22.975-61.204-18.05-8.052-64.823 14.494z"/><path fill="#9b7d7d" d="M181.717 101.061l4.924-.806-3.282-4.832-15.589-7.246 9.024 8.857zM133.307 108.307l4.922-.803v-4.028l.82-8.053-6.563 10.47z"/><path fill="#a3a3a3" d="M184.999 138.912l27.074-11.275 1.649-1.609 1.637-24.164-5.789-8.051-54.931 4.027-34.278 12.172 8.843 29.951 12.306-1.858z"/><path fill="#939393" d="M183.359 95.422l-7.385.809.82.804 9.025 10.469zM138.229 103.476l-5.742 2.416 6.563 12.081z"/><path fill="#9b7d7d" d="M129.204 84.955l14.034 8.455 18.759-5.233 15.617-10.47-21.76-6.127-15.591 4.026z"/><path fill="#bb9f9e" d="M230.948 14.895l-9.025 6.442-22.154-3.223-16.41-16.909z"/><path fill="#9b7d7d" d="M237.511 130.052l-4.91-86.169-1.653-28.988-31.179 3.219 9.801 75.699h6.612l-3.039 31.903-26.501 32.523z"/><path fill="#8f8f8f" d="M218.043 49.519l-8.473 44.294 3.573 31.903 5.724-2.106 10.485-50.42z"/><path fill="#c4a8a7" d="M142.639 67.565l.599 25.845 18.759-5.233-9.819-22.952z"/><path fill="#7c6363" d="M154.639 97.84l-11.401-4.43 18.759-5.233z"/><path fill="#474747" d="M139.05 58.38l3.589 9.185.172 7.383-13.606 10.008h-16.107l-5.229-17.718z"/><path fill="#b39493" d="M120.179 70.461l15.59-.809 1.641 4.834-9.848 8.052-12.307-.804z"/><path fill="#9b7d7d" d="M111.154 71.265l23.794-7.247.82 5.634-10.668 3.225-9.845 8.856z"/><path fill="#474747" d="M151.357 55.159l.821 10.066 2.85 6.661 22.585 5.822 19.693-15.301-4.101-16.911z"/><path fill="#b39493" d="M158.742 64.018l.821 4.026 17.231 4.833 15.591-12.081-19.694-4.028z"/><path fill="#9b7d7d" d="M157.102 58.38l1.64 5.638 14.771-3.223h18.871l-2.461-10.47z"/><path d="M172.691 57.126c2.518 0 4.557 2.005 4.557 4.476 0 2.47-2.039 4.475-4.557 4.475-2.518 0-4.557-2.005-4.557-4.475.001-2.471 2.04-4.476 4.557-4.476M125.101 68.625c2.392 0 4.329 1.905 4.329 4.252 0 2.347-1.937 4.251-4.329 4.251-2.392 0-4.329-1.905-4.329-4.251-.001-2.347 1.936-4.252 4.329-4.252" fill="#2b2b2b"/><path fill="#818181" d="M111.154 55.964l5.742-4.027 18.052-.803-1.64 5.634-15.591-.804-4.103 3.222zM153.818 47.107l4.103 4.832 18.874-8.055 7.383.808.821-5.64-9.026-1.611z"/><path fill="#9b7d7d" d="M135.768 46.301l11.486 2.415 13.951-9.663-15.592 5.638zM130.025 36.637l18.872 1.612 25.437-14.497-26.259 10.471z"/><path fill="#474747" d="M139.05 63.21l13.948-3.219 2.463 1.611-1.642 3.22-13.13 3.222-2.46-1.61z"/><path fill="#b39493" d="M217.819 49.519l15.056-.823 1.354 21.845-14.768.722z"/><path fill="#474747" d="M193.205 45.495l39.441-.805.247 4.34-14.813.493h-24.055l-2.462-1.613z"/><path fill="#7c6363" d="M223.08 64.661l-1.353-11.227 7.401-.023zM234.815 82.751l-15.354-11.488 14.768-.722z"/><path fill="#594265" d="M255.248 138.917l38.429 83.925-6.256 55.04-7.826 23.306-71.201-11.656-15.647-11.005-28.167-51.799 3.913-45.324 69.018-51.351zM100.423 192.412L91.034 238l30.85 9.634 5.141-10.546 5.477-22.661 10.17-34.964-7.04-27.843z"/><path fill="#795d88" d="M162.539 148.041l-8.957-2.159-17.95 5.738-13.302 57.627 12.519 77.697 52.423.647 7.823-9.709-16.431-87.412z"/><path fill="#ececeb" d="M160.668 162.629l22.691-8.418.705-4.892-26.149-4.901-4.333 1.464zM211.524 161.979l-21.125-.646-7.04-7.122 54.152-24.159z"/><path fill="#cececd" d="M191.181 179.462h-19.56l-10.953-16.833 22.69-8.418 28.166 7.769z"/><path fill="#4f5253" d="M180.229 162.629l-4.695-5.18 7.825-3.238 9.388 2.588-7.042 5.83 5.478 16.833-12.519 11.008-7.043-11.008z"/><path fill="#a588b9" d="M237.511 130.052l-1.735 32.577-57.112 27.841zM153.582 145.882l-9.344 23.221 34.425 21.367z"/><path fill="#9075a0" d="M293.677 222.842l-2.348-66.043-36.081-17.882-16.339 68.386 19.559 14.892z"/><path fill="#7c6363" d="M183.359 154.211l13.29-5.929 22.218-24.672-5.724 2.106-24.041 4.337-4.104-2.416-6.563 4.025-27.078 4.832-9.847 1.611z"/><path fill="#795d88" d="M207.612 235.146l31.297-27.843 54.768 15.539-57.901 36.262-17.213-9.715z"/><path fill="#8f8f8f" d="M175.534 240.972l-61.028-53.094-8.607-4.53-5.476 9.064 44.598 40.329 8.605.461 7.042 12.949 14.215 13.631 7.302-.678 1.94-7.604z"/><path fill="#858686" d="M155.977 226.27l-7.043-1.296-3.913 7.767 5.477 4.533 3.913-7.767z"/><path fill="#6f7173" d="M161.453 229.507h-7.042l-3.913 7.767 5.479 5.18 3.912-8.417z"/><path fill="#858686" d="M167.712 235.333l-7.823-1.296-3.912 8.417 6.258 5.18 3.912-7.768z"/><path fill="#a3a3a3" d="M104.335 186.584l44.599 38.39 11.735 4.993 3.912 8.417 15.895 13.349 3.649-.233 1.58-7.291v-3.237l-3.129.645-9.389-7.117-13.302-6.476-1.563-6.29-9.138-7.596-13.415-4.388-6.967-12.558-18.99-15.787z"/><path fill="#6f7173" d="M148.934 224.974l5.477 4.533h7.041l2.35-3.237-5.48-4.536z"/><path fill="#858686" d="M154.411 229.507l5.478 4.53h7.822l1.567-3.238-5.476-4.529z"/><path fill="#6f7173" d="M159.889 234.037l6.258 5.829 8.993-3.886-5.863-5.181z"/><path fill="#9b7d7d" d="M118.9 199.076l9.935-1.928 10.048 4.428 3.79 7.023 6.509 5.537-13.933 16.988-21.525-8.929z"/><path fill="#b39493" d="M108.875 216.863l10.025-17.787 16.349 32.048-8.998 2.456zM128.835 197.148l7.823-2.592 12.273 9.864-6.259 4.178z"/><path fill="#c4c4c4" d="M101.206 174.283l8.606 7.121-9.389 11.009-9.389-16.189 7.042-4.531z"/><path fill="#8f8f8f" d="M109.029 157.449l-7.823 16.833-10.172 1.942 8.997-21.095 7.433-1.566z"/><path fill="#c4c4c4" d="M112.081 135.074l-12.05 20.055 12.05 6.246 8.607-20.473-1.565-5.828z"/><path fill="#8f8f8f" d="M123.818 129.246l-11.737 5.827 8.607 5.828 5.477-10.359z"/><path fill="#cececd" d="M207.612 235.146l-5.476 4.53 3.91 12.952 14.867 3.238 8.607 8.417 6.256-5.179z"/><path fill="#9b7d7d" d="M185.705 244.209l2.347-3.237 14.084-1.296 20.994 18.358-18.713 12.011-17.93-14.825z"/><path fill="#543042" d="M154.41 283.705l3.912 12.953 50.072 8.413 38.339-4.53 35.991-10.358 4.697-12.301h-92.328z"/><path fill="#96637c" d="M134.849 286.944l-14.866 29.138 30.515 36.904 32.078-19.423 25.818-28.492-53.984-21.366z"/><path fill="#734d61" d="M143.455 361.405l-23.472-45.323 62.593 17.481 3.129 37.555-21.908 4.529z"/><path fill="#795d88" d="M112.622 380.182l30.833-18.777 42.25 9.713v9.064l-32.861 1.296z"/><path fill="#96637c" d="M224.829 335.504l-16.435-30.433 79.027-27.189-1.57 41.437-17.993 25.9z"/><path fill="#734d61" d="M262.384 366.583l-37.555-31.079 61.022-16.185 14.088 46.62-5.479 10.359z"/><path fill="#795d88" d="M253.774 385.36l8.61-18.777 37.555-.644 4.693 19.421-8.61 3.241z"/><path fill="#594265" d="M253.774 385.36h50.857v6.477h-50.857zM112.622 380.182h73.082v6.478h-73.082z"/><path fill="#7c6363" d="M182.576 241.617l5.476-2.587 14.084.646-16.431 4.533zM142.332 114.75h18.052l19.693-5.635.821-4.833-21.335 6.443-18.053.806z"/><path fill="#939393" d="M139.871 123.61l11.486 12.884-9.847 1.611zM178.435 131.662l8.207-17.716 2.46 16.107z"/><path fill="#b39493" d="M174.883 259.782l10.822-15.573 18.712 25.836L185 269.5z"/><path fill="none" d="M230.948 14.895l6.563 115.157"/><path fill="#4e5253" d="M126.251 233.58l7.138 27.465-9.889 27.288-5.667-27.666z"/><path fill="#868686" d="M134.333 244.209l2.5 15.573-3.444 18.1-9.889 10.451 7.162-27.376-4.411-27.377z"/><path fill="#a3a3a3" d="M150.498 245.333l-.706 13.771-8.792 8.147-4.167-7.469-2.5-15.573z"/><path fill="#8f8f8f" d="M168.5 264.283l2.167 2.968-.887 3.895-13.445-.095-6.543-11.947.706-13.771z"/><path fill="#a3a3a3" d="M174.883 259.782L185 269.5l-7.333 3.501-7.887-1.855-1.28-6.863z"/><path fill="#6f7072" d="M204.417 270.045l-9.324 7.837L185 269.5z"/><path fill="#858786" d="M171.661 281.235l23.432-3.353L185 269.5l-15.22 1.646z"/><path fill="#707171" d="M149.792 259.104l19.988 12.042 1.881 10.089L149.182 271z"/><path fill="#868686" d="M136.833 259.782l12.959-.678-.61 11.896-15.793 6.882z"/><path fill="#707173" d="M130.662 260.957l6.171-1.175-3.444 18.1-9.889 10.451z"/></svg>