<svg xmlns="http://www.w3.org/2000/svg" viewBox="-152 -152 400 400"><path fill="none" d="M-151.5-151.5h399v399h-399z"/><path fill="#EECEC9" d="M-5.824 37.135l1.973-6.417 5.434-18.273-11.36-3.455-12.343 9.381-.495 20.741z"/><path fill="#372613" d="M36.644-8.296l-20.25-3.454 7.903 22.713 25.68-9.875z"/><path fill="#6E5F51" d="M56.889-7.305L27.755-25.083l-6.916 1.972-4.445 11.361 17.778 7.407 7.902 2.468z"/><path fill="#372613" d="M122.565 11.954l23.209-13.829 14.814-33.578-21.726-4.94L107.75-16.69z"/><path fill="#2B2B2B" fill-opacity=".102" d="M172.936 228.241l-96.787-11.357-103.209 9.876 99.75 20.249z"/><path fill="#5C3C70" d="M90.963 228.241l-7.407 3.954v4.444l40-.495v-3.949zM46.024 214.416l-30.121 12.839v4.444l47.407-.495v-3.949zM14.422 174.912h136.292s-83.949-47.407-81.973-47.902c1.973-.491-53.828 47.902-53.828 47.902h-.491z"/><path fill="#745382" d="M63.31 227.255l-.99-19.755L48 201.083l-6.421 6.417-25.676 19.755zM99.357 204.046l-8.889 3.949-6.912 24.2h40l-12.843-24.2z"/><path fill="#D7D7D7" d="M36.644 153.181l-2.472 13.828 7.407 40.491H62.32l7.407-32.097.986-10.371-3.454-20.245-22.222-3.949z"/><path fill="#AFAFAF" d="M36.644 153.181l1.972 21.236 11.361.986h19.75l1.976-10.371-3.949-16.787-27.656 1.482z"/><path fill="#D7D7D7" d="M84.047 158.12l2.472 8.394-3.953 8.889 7.902 32.592h20.245l8.399-45.925z"/><path fill="#AFAFAF" d="M84.047 158.12l-3.454 7.408 1.973 9.875h9.383l26.171-1.972.992-7.408-6.917-3.953z"/><path fill="#A86E8D" d="M-74.958-.393l-10.37 7.407 1.972 14.32 60.741 17.778V18.371z"/><path fill="#D09EB5" d="M7.014-31.504L8-44.343l-53.824-11.356-7.902 19.75-31.602 42.963 57.773 16.788L-1.38-5.333z"/><path fill="#915976" d="M8-44.343L-.393-21.134l-27.162 44.936 4.94 15.31 34.073-65.185z"/><path fill="#FEEEE9" d="M1.583 12.445L-2.37.593l-14.815 6.421 1.977 7.898z"/><path fill="#4E325E" d="M36.644 6.028l-12.347 4.935L.593 44.542l17.283 22.222 18.273-11.852L37.63 9.977z"/><path fill="#EAECEB" d="M-1.38 47.505l-15.805 2.963-5.43-11.356 18.764-8.394 7.407 9.875z"/><path fill="#58585A" d="M71.703 165.032l3.949-23.208 5.927-12.343-5.927-4.939 8.89-20.246s-43.949-7.902-45.431-7.407c-1.481.491-2.468 67.157-2.468 67.157l35.06.986z"/><path fill="#745382" d="M108.74 58.37l13.825 22.223 23.209-10.37-10.862-19.26z"/><path fill="#58585A" d="M77.63 105.778l-1.977 36.046 4.94 23.704h12.343l29.629-8.889-14.32-49.38z"/><path fill="#3F4143" d="M23.802 124.542l51.851 17.282 46.912-21.232-13.333-16.791-68.144-2.468z"/><path fill="#8C709D" d="M98.862 120.098l-7.408 14.319.495 40.986h63.208l-7.407-39.009-33.084-23.704z"/><path fill="#7D628C" d="M96.889 121.578l-5.435 6.913v5.926l37.037 1.482 5.431-10.371-5.922-3.95z"/><path fill="#393939" d="M37.63 91.949l-5.431 13.829 63.208.491 3.455-17.778-8.889 4.94-54.32-3.949z"/><path fill="#EAECEB" d="M101.824 127.505l-6.417 4.444-3.953-3.458-1.972-55.801 2.963-3.95h2.962l10.862 20.247z"/><path fill="#B78F8C" d="M134.417 133.431l-5.926 2.468-7.899-7.408 16.293-2.467z"/><path fill="#D09EB5" d="M97.875 65.282l-3.949 4.941.491 29.629 38.519 30.616 22.717-6.421 10.37 4.94 13.825-31.112-1.973-30.616-52.838 2.468z"/><path fill="#C88FA9" d="M94.417 99.852l.99 32.097 37.529-1.481 22.717-6.421 5.925 4.94 19.751-.496-1.972-31.111z"/><path fill="#B2849B" d="M149.727 68.245l-24.69 1.482 3.454 29.135 15.31 6.916z"/><path fill="#A87C93" d="M128.491 98.862l.496 5.925-7.904 13.828 6.422 1.483-3.949 4.444-.495 5.926h9.875l18.763-11.356-.986-21.237z"/><path fill="#EECEC9" d="M140.343 111.208l-3.949-2.468-15.311 9.875 2.473 5.927 18.268-4.444zM156.144 123.061l5.434 5.926-13.828 7.407-19.259-.495 4.445-5.431z"/><path fill="#FEEEE9" d="M151.699 102.815l7.408 6.912 2.471 19.26-28.642 1.481 3.458-21.728z"/><path fill="#EAECEB" d="M144.292 87.505l-7.407 8.394-.491 12.841 22.713.987 2.963-11.852z"/><path fill="#4E325E" d="M141.329 63.801l-3.454 4.939-.99 27.159 25.185 1.976 7.903-30.121z"/><path fill="#C2C1C2" d="M39.112 69.727l-.496 23.704h51.357l-.491-20.741 8.393-39.009-56.296-2.472z"/><path fill="#8C709D" d="M32.199 27.755l-4.444 6.417-13.333 140.74 35.555.491-4.94-94.81-1.481-31.606zM94.417 33.681c-1.482-.496-5.431 14.814-5.431 14.814l.495 23.704 4.444-2.473 31.111-.986 4.44-15.309-5.922-22.222-10.866 2.963-8.889-7.407 2.468-7.407-11.85 13.827v.496z"/><path fill="#745382" d="M129.478 54.421l7.902-13.333 8.394-42.963-13.825-6.421-25.68 28.643-2.468 6.913 8.889 7.902z"/><path fill="#A282B7" d="M24.297 10.963l3.458 23.209 15.801 16.296 9.875-38.514L41.088-1.875z"/><path fill="#DDDDDC" d="M50.963 17.385l10.865 15.8 27.159 15.802 28.07-52.838-9.307-12.839L88-6.319z"/><path fill="#EAECEB" d="M67.155-23.602l1.091 34.074-6.418 22.713-18.272 17.283-2.468-52.343L48-6.814z"/><path fill="#A282B7" d="M107.75-16.69l24.199 8.394-19.259 43.458-23.703 13.825z"/><path fill="#5C3C70" d="M145.774-1.875l24.199 69.629-32.098.986-8.397-14.319z"/><path fill="#745382" d="M-3.356 81.084l27.158-18.269L3.556 40.593l-20.741 9.875z"/><path fill="#A86E8D" d="M-41.875-51.255L.593-41.38l-5.431 15.307-43.454-9.876zM-62.615 6.519L-76.44 2.57l6.417-8.889 13.333 3.458-5.926 8.889v.491zm11.36-37.037l11.848 2.472-4.444 6.417-12.343-2.963 4.444-5.926h.495zm15.306 3.458l-3.949 6.421 12.343 2.963 3.953-6.421-12.347-2.963zm15.801 3.458l12.347 2.963-3.949 6.417-12.842-2.963 3.953-6.417h.491zm3.458 17.778l3.95-6.421-12.838-2.963-3.949 6.421 12.837 2.963zm-16.296-3.953l-12.347-2.963 3.953-5.926 12.343 2.963-3.949 6.421v-.495zm-15.801-3.949l3.949-5.926-12.343-2.963-4.444 5.926 12.838 2.963zM-34.963.102l4.445-6.916 12.842 3.458-4.445 6.912-6.916 11.852-12.838-3.454L-34.467.593l-.496-.491zm-3.949-.99l4.445-6.912-12.347-2.963-4.44 6.912 12.342 2.963zm-15.801-3.95l4.444-6.912-12.838-3.458-4.94 6.912 13.334 3.458zm8.889 15.31l5.926-9.384-12.347-2.963-5.926 8.889 12.347 3.458z"/><path fill="#9C6B85" d="M101.824 111.703l15.805 11.357.491-20.246-16.296 8.889zm12.347-3.953l.495 10.37-7.902-6.417 6.912-3.953h.495zM119.602 95.899h-18.269v-8.394l3.949-2.963h5.926l2.468 5.926h6.422v4.444l-.496.987zm-9.875-4.445L107.75 88h-1.973l-1.481 3.454h5.431z"/><path fill="#CEA19C" d="M48.849-14.222l19.397 24.694L91.129-3.851 99.35-16.69l-22.971-3.386z"/><path fill="#EECEC9" d="M107.75-16.69l25.186-47.898-43.949-64.206-9.384 118.526 14.323-1.482-2.797 7.899z"/><path fill="#554537" d="M104.296-78.416l10.37 18.764 20.246 4.939 15.801-14.815-15.801-22.222-14.814-3.458z"/><path fill="#6E5F51" d="M112.195-123.352h21.727l.99 31.602-10.37 4.445-20.246 8.889-8.787-24.109z"/><path fill="#554537" d="M74.172-143.106l38.023-6.912 21.727 26.666-38.413 20.827z"/><path fill="#FEEEE9" d="M10.963-88.383L9.295-76.935 19.97-50.268l2.213 19.75 2.935 10.442L48-7.305l31.603-2.963 21.044-18.768-5.138-73.489-17.879-38.113-39.505 11.36-19.754 12.838z"/><path fill="#6E5F51" d="M23.802-118.907l-12.839-9.879 34.569-22.223 66.663.991-10.371 18.764-15.305 12.838-35.556-11.357z"/><path fill="#8B7A6E" d="M50.963-129.773l50.861-1.481-6.315 28.729zM12.445-87.372l-3.95 10.437-9.875-4.939 12.343-46.912 40-.987-25.185 15.801z"/><path fill="#EECEC9" d="M38.995-82.536l6.099 9.856 4.224 2.345 2.349-2.816 4.691-12.201 9.389-7.981 17.833 4.694-12.205 15.018-13.139 23.935-7.977-7.039-10.797 8.918-8.448-21.59-12.201-7.507 10.793-10.327z"/><path fill="#CEA19C" d="M47.91-50.152l-8.448 2.345 12.672 6.569 6.102-8.448z"/><path fill="#FEF4F2" d="M45.094-72.68l-1.875 8.448-3.757 16.425 9.389 1.879 9.385-3.758-6.569-15.017v-8.448z"/><path fill="#554537" d="M54.483-88.168l10.793-7.04 18.771 4.224-.467 2.345-16.896-1.878-10.326 5.165zM40.87-85.823l-11.731-2.816-10.797 9.386.471 2.349 9.856-7.511 10.326 1.879z"/><path fill="#CEA19C" d="M42.749-34.198l3.753 2.816 15.958-2.345 5.632-5.632 1.408 1.408-5.632 6.569-17.833 2.346-4.694-3.283z"/><path fill="#2B2B2B" d="M32.422-72.68c2.334 0 4.224 1.89 4.224 4.224 0 2.33-1.89 4.224-4.224 4.224-2.33 0-4.224-1.894-4.224-4.224 0-2.334 1.894-4.224 4.224-4.224zM71.375-77.845c2.334 0 4.225 1.894 4.225 4.224 0 2.334-1.891 4.224-4.225 4.224-2.33 0-4.22-1.89-4.22-4.224 0-2.33 1.89-4.224 4.22-4.224z"/><path fill="#554436" d="M12.445-34.963l7.902 13.108 4.771 1.779-2.473-13.371-3.946-6.451z"/><path fill="#6E5F51" d="M19.97-50.268l-7.525 15.305 10.2 1.516z"/><path fill="#554537" d="M-1.38-81.874l21.35 31.606-6.722-38.707z"/><path fill="#6E5F51" d="M149.727-51.75l.986-17.778-36.047 9.876-5.434 23.703 29.134-.986z"/><path fill="#554436" d="M107.75-16.69l1.482-19.259 40.495-15.801 10.861 16.297z"/></svg>