<svg xmlns="http://www.w3.org/2000/svg" viewBox="0 0 400 400"><path fill="#7B4C60" d="M173.532 167.256l22.543-5.555 11.238-1.737 9.487 7.987 8.734 33.677-6.076 61.103-45.547-16.319-.379-38.537-14.805-16.665z"/><path fill="#4D3551" d="M185.296 353.351l54.277 1.041-12.146-71.869H214.52l-15.558-1.389z"/><path opacity=".1" fill="#33302D" d="M131.089 389.758l84.334-12.588 80.666 14.437L211.108 400z"/><path fill="#7E5A87" d="M176.188 357.517l.761 14.931 15.558 3.813L203.511 375l-26.182-36.232z"/><path fill="#705178" d="M176.188 357.517l.38 5.553 26.949 11.79 9.486-79.142 15.182-19.097-4.172-6.597-20.118-2.431-26.566 71.175z"/><path fill="#504B4A" d="M154.713 385.133l22.011-17.125 26.793 6.852-.373 10.273-19.721 1.2z"/><path fill="#7E5A87" d="M231.339 373.333l14.306-24.496 12.329 14.81.197 7.059-10.623 4.861z"/><path fill="#705178" d="M231.339 373.333l-4.367-19.183-13.969-58.432 10.25-12.5 22.392 65.619 12.147 8.332.182 6.478z"/><path fill="#504B4A" d="M226.972 388.832l4.367-15.499 26.832-2.627 5.683 18.126L245.413 390z"/><path fill="#F3D8D4" d="M260.267 111.843l-10.721 31.109-17.955 11.806-19.887-2.58 28.725-124.842 15.465 26.513z"/><path fill="#FEF3F1" d="M163.604 39.12l3.375 3.682-2.25 23.569 3.606 39.912 13.501 27.989 40.647.23 9.371-28.357 4.502-42.721 3.748-3.314-.369-32.775-47.631-6.261-15.75 11.048z"/><path fill="#F3D8D4" d="M172.563 74.473v6.998l11.045 17.286 4.822-2.345 5.86 2.345 16.937-17.286 11.422-8.472-23.203-4.051-4.42.738-8.101.736-2.58.369z"/><path fill="#5D4063" d="M183.78 275.231l29.223 20.487 36.822-24.306-16.326-28.813-22.391 6.248z"/><path fill="#FEF3F1" d="M252.69 75.578l-3.617 22.249 15.039 4.473 7.729-21.565z"/><path fill="#D4ABA5" d="M254.899 90.861l2.211-9.944 7.733 2.209zM249.073 97.827l11.194 14.016 3.845-9.543zM226.972 151.159l10.693-16.887h-41.242l3.471 16.319 15.273 9.374z"/><path fill="#5C3242" d="M196.075 161.701l3.819-11.111 15.273 4.862 3.473 7.639 8.332 18.399-12.842-8.333z"/><path fill="#7B4C60" d="M251.278 155.452l-13.888 12.846-23.26 4.859 1.037-17.705 34.379-12.5z"/><path fill="#5C3242" d="M272.218 159.617l-20.94-4.165-37.892 17.705-2.278 75.69 46.303 17.009 20.879-27.776 3.795-18.744-4.936-20.14zM173.532 167.256l-32.288 15.276-6.249 12.151 5.208 15.97 33.329-2.778z"/><path fill="#7B4C60" d="M112.428 174.545l28.816 7.988-1.041 28.12-46.178-21.178 4.166-12.845z"/><path fill="#F3D8D4" d="M90.553 147.813l-1.389 19.791 12.846 3.819 5.903-2.43 4.168-9.376-7.64-15.276z"/><path fill="#D4ABA5" d="M89.164 167.604l9.722-.695 6.945-.695 6.597 8.331-18.404 14.93z"/><path fill="#FEF3F1" d="M104.094 156.146l10.763 4.514-2.429 13.885-11.112 9.029-3.124-6.945 7.639-10.414-3.821-5.208z"/><path fill="#7B4C60" d="M264.925 215.168l-.348 2.084 19.787 12.499 15.973-1.39-28.119-68.744z"/><path fill="#532D3A" d="M257.411 265.856l7.168-48.604 35.758 11.109z"/><path fill="#7B4C60" d="M257.411 265.856l3.797-27.776-50.1 10.767 21.631 15.968z"/><path fill="#5C3242" d="M173.532 268.982l.379-26.736 37.197 6.601-7.213 9.371-8.73 7.292z"/><path fill="#7B4C60" d="M146.202 353.697l27.33-84.715 37.576-20.135-15.562 111.099z"/><path fill="#5C3242" d="M286.255 353.697l-28.844-87.841-46.303-17.009 25.813 111.099z"/><path fill="#D4ABA5" d="M188.43 103.569l-4.822-4.812h10.682zM180.378 110.271h24.019l.33 2.485h-24.513z"/><path fill="#33302D" d="M196.411 64.898l-2.324 3.314v9.944l2.713 2.947 25.185-1.473 2.709-2.947v-9.576l-2.709-3.314zM186.641 69.316l-.388 8.841-2.713 3.314-17.48-.368-3.441-3.315v-9.576l2.145-2.216 19.55-.73z"/><path fill="#7B4C60" d="M220.218 191.21c1.467 0 2.654 1.556 2.654 3.472 0 1.919-1.188 3.472-2.654 3.472-1.467 0-2.66-1.553-2.66-3.472 0-1.915 1.193-3.472 2.66-3.472M219.458 214.126c1.467 0 2.654 1.557 2.654 3.472 0 1.916-1.188 3.471-2.654 3.471-1.465 0-2.66-1.555-2.66-3.471 0-1.915 1.195-3.472 2.66-3.472"/><path fill="#7E5A87" d="M36.368 127.675v4.165h7.291l2.084-2.082-2.084-2.431z"/><path fill="#BA8CA1" d="M47.479 128.715l-3.82-1.388v4.513l3.82-1.04z"/><path fill="#7E5A87" d="M68.656 139.827v4.514h7.292l2.083-2.43-2.083-2.084z"/><path fill="#BA8CA1" d="M79.766 141.216l-3.818-1.389v4.514l3.818-1.389z"/><path fill="#7E5A87" d="M49.215 161.007v4.513h7.289l1.736-2.429-1.736-2.084z"/><path fill="#BA8CA1" d="M60.323 162.396l-3.819-1.389v4.514l3.474-1.388z"/><path fill="#7E5A87" d="M72.476 173.852v4.166h7.29l2.084-2.082-2.084-2.431z"/><path fill="#BA8CA1" d="M83.584 175.241l-3.818-1.736v4.514l3.818-1.042z"/><path fill="#7E5A87" d="M46.784 186.698v4.512h7.292l1.734-2.429-1.734-2.083z"/><path fill="#BA8CA1" d="M57.894 188.087l-3.818-1.389v4.512l3.818-1.388z"/><path fill="#33302D" d="M226.972 388.832h36.883v3.701h-36.883zM154.713 385.133h48.431v3.699h-48.431z"/><path fill="none" d="M213.003 295.718l18.336 77.615"/><path fill="#FEF9F9" d="M186.546 71.456l-2.936 27.301h10.68l-.432-27.725z"/><path fill="#33302D" d="M185.45 69.316l11.416-1.104 1.475 1.842-3.174 1.341-9.717.132-1.105-.736z"/><path fill="#33302D" d="M232.985 41.33l-18.013-11.862-21.131 10.389-8.033-13.901-19.733 11.808-1.311 28.232-2.145-25.398.985-16.617 20.741-8.39L208.265.044l16.429 13.079h40.149l15.4 35.043-8.402 32.569-19.151-5.157-2.353 14.466-6.117-2.62 1.886-14.25-10.121-6.227 1.432-14.941z"/><path fill="#4F4B49" d="M280.243 48.166l-42.826 3.84-4.432-10.676z"/><path fill="#33302D" d="M264.843 13.123l-43.498 10.365-9.641 9.048 21.281 8.794 47.258 6.836z"/><path fill="#4F4B49" d="M226.286 4.21l-32.199 18.537-.246 17.11 17.863-7.321 9.641-9.048 43.498-10.365z"/><path fill="#33302D" d="M193.841 39.857l-9.496-7.321-4.953-5.2 4.218-16.845L208.265.044l18.021 4.166-32.199 18.537z"/><path fill="#4F4B49" d="M183.61 10.491l-20.006 13.49 3.375 18.821 17.366-10.266-4.953-5.2z"/><path fill="#33302D" d="M163.604 23.981l-3.375 15.876 4.535 26.139 2.215-23.194z"/></svg>