<svg xmlns="http://www.w3.org/2000/svg" viewBox="-152 -152 400 400"><path fill="#B08098" d="M-44.3-63.265l13.902 38.403-4.831 2.945-51.362 5.773-20.85 23.913-20.498-51.243-1.532-12.369z"/><path fill="#CF9AB6" d="M-47.127-59.614l12.604 35.107-52.068 8.363-16.726 14.961-19.674-51.362z"/><path fill="#CDCCCB" d="M232.422-66.447l-5.306-1.177-14.725 10.955-.584 2.829 2.942.353z"/><path fill="#50325E" d="M115.795 55.598l12.017 3.767 14.491-12.485 4.124-14.608-29.451-25.798-3.775 6.48-.471 34.397z"/><path fill="#905574" d="M4-20.268L-21.445-.83l-87.058 11.781 5.892-7.539 18.376-17.2L.229-22.977z"/><path fill="#50325E" d="M24.851 12.954l-3.769-6.009-32.396 26.153 1.177 12.605L3.882 59.722l13.664-3.888 4.124-6.362z"/><path fill="#745584" d="M-26.51 68.676l30.392-8.954-25.8-45.238-10.483-2.944-8.364 4.947z"/><path fill="#E5E6E5" d="M-27.101 5.06l5.183 9.424-18.847 2.003-2.827-10.013 7.893-3.535z"/><path fill="#F0CFC9" d="M-34.287-9.193l7.186 14.253-26.622 2.356-17.199-8.481z"/><path fill="#CF9AB6" d="M159.853-28.513l2.59 8.245 7.895 5.656 3.417 1.766 1.413-2.709-4.12-6.007 7.419-5.421-.353-3.415-2.594-.471-7.419 4.948-4.594-5.537z"/><path fill="#F0CFC9" d="M174.108-3.774l-3.77-10.838-10.485-13.901-3.531 2.592 8.008 30.745z"/><path fill="#B08098" d="M210.743-59.023l-31.452 19.671 5.065 7.539 7.773 3.653 26.626-19.908z"/><path fill="#CF9AB6" d="M208.507-61.97l-28.863 22.382-.118 3.653 2.708-1.296 28.509-21.792z"/><path fill="#000001" fill-opacity=".149" d="M135.821 230.42l-68.322-18.849-72.217 18.374 69.148 13.196z"/><path fill="#5E5F5F" d="M13.072 115.795l16.491 54.307 18.143 7.303 15.434-3.885s1.055-23.443 1.53-22.149l-4.948-37.341-10.133.235-8.716-4.83-28.036 6.478.235-.118z"/><path fill="#7D7C7D" d="M29.562 170.102l33.578 3.3-1.653 31.099-10.601 4.006-10.837-3.771zM102.486 170.22l11.779-52.302-31.221-14.612-28.981 13.313 12.725 57.136 14.961 4.712z"/><path fill="#5E5F5F" d="M66.788 173.755l35.698-3.535-8.131 36.164-8.836 4.952-11.429-4.595z"/><path fill="#393939" d="M101.658 220.996l-7.303-14.612-20.265.357-2.707 14.255 3.535 2.236 23.087-.235zM62.311 219.227l-.824-14.726-21.438.235-19.674 14.491 5.89 2.824h30.863z"/><path fill="#444648" d="M13.072 115.795l45.002 18.967 56.191-16.844-61.492-6.008z"/><path fill="#50325E" d="M115.795 55.598l-1.53 62.32-101.193-2.123 4.474-59.961 5.774-3.889 32.866 16.373L109.435 49z"/><path fill="#745584" d="M116.976 6.474l-1.181 49.124-60.197 19.791-38.052-19.555 3.536-48.889 11.308-3.18 25.92 5.418 45.706-6.007z"/><path fill="#8E709E" d="M69.146 15.31l-21.087-.826-3.418 11.075 9.894 16.964 19.319-15.552z"/><path fill="#CEA19C" d="M90.114-14.612L79.277 3.176l-21.56 10.249L39.931-2.951l-7.659-21.085 43.824-6.715z"/><path fill="#CDCCCB" d="M68.789 17.429L58.31 9.183l-9.781 5.066 7.776 13.075z"/><path fill="#B08098" d="M1.879-28.395L4-20.268l-87.173 9.661-3.536-2.71.235-5.654z"/><path fill="#FFF" d="M-82.467-26.748l8.954.237-2.829-7.421-8.127 2.119 2.121 5.065h-.119zm-3.181-7.656l8.128-2.119-2.945-7.657-7.891 3.18 2.708 6.596zm16.139-14.018l3.888 8.952-9.307 2.356-3.063-7.893 8.481-3.298v-.117zm-4.36 13.782l9.307-2.356 4.712 10.839-10.955-.235-3.182-8.13.118-.118z"/><path fill="#9F798D" d="M-136.539-42.886l7.068-12.957 22.618 58.429 20.379-21.557 3.301 8.364-25.33 21.558z"/><path fill="#F0CFC9" d="M106.135-35.581L95.415-5.424 73.506 7.18l6.242-22.382-17.079-.118 12.838-110.264 17.432 6.95 14.848 44.412z"/><path fill="#5E5044" d="M129.814-76.46l-13.902 10.957 3.3-9.189-17.672 14.725-8.479-22.265-4.83-33.457 33.81 12.372z"/><path fill="#999" d="M101.54-59.967l-12.367-2.356-.942-53.366 20.611 39.582z"/><path fill="#5E5044" d="M104.369-32.99l25.445-43.47-12.603 2.003L104.84-57.14z"/><path fill="#CEA19C" d="M93.41-50.425l6.835-1.532 9.425 4.948-4.947 14.137z"/><path fill="#FEEEE9" d="M13.425-15.555l-18.614-38.05 3.417-68.091 8.364-5.301 68.915 1.413 11.782 4.712-7.658 71.153L62.669-15.32zM98.711-78.108l18.5 3.651-7.541 27.448-16.26-3.416z"/><path fill="#CEA19C" d="M111.435-70.451l-7.419-1.062-2.476 11.546z"/><path fill="#74665B" d="M117.211-126.526l12.603 50.066-41.583-39.229 10.48-11.308z"/><path fill="#5E5044" d="M77.978-147.141l39.233 20.615-28.98 10.837-20.148-17.788z"/><path fill="#74665B" d="M22.85-141.604l55.128-5.537 10.253 31.452-55.369 4.242-13.548-8.128 4.948-4.713-2.709-1.414z"/><path fill="#5E5044" d="M-4.481-124.523l27.331-17.081 5.065 13.901 4.947 16.256-33.927-5.066-1.65.118z"/><path fill="#E5E6E5" d="M95.415-5.424l8.601 8.6-30.162 23.795L58.31 9.183zM39.813-3.421L58.31 9.183 44.641 25.559 32.154 3.765z"/><path fill="#B08098" d="M170.338-37.702l6.124-4.595 9.425 19.673-.471 4.83z"/><path fill="#F0CFC9" d="M200.499-20.974l-24.037-21.323 8.954 24.503 5.894 2.71z"/><path fill="#FEEEE9" d="M181.057 10.245l19.442-31.219-30.161 6.362-6.008 19.436 8.719 5.891z"/><path fill="#E5E6E5" d="M181.057 10.245l-16.727-5.42-5.418 9.189 6.948 6.48 11.9-.59s3.183-9.776 3.183-9.658h.114z"/><path fill="#745584" d="M161.973 70.206l15.902-50.303-18.846-5.89-31.217 45.352z"/><path fill="#000001" fill-opacity=".251" d="M-47.127-59.614l12.604 35.107-2.355.236-12.132-32.751-72.922 7.186-1.059-2.709z"/><path fill="#CDCCCB" d="M203.912-58.435l4.595 5.89-1.766 1.414-4.717-5.774 1.888-1.413v-.117zm-3.889 2.945l-1.883 1.415 2.829 3.415 1.766-1.414-2.712-3.416zm-3.648 2.827l4.595 5.771-1.888 1.415-4.595-5.771 1.888-1.415zm-3.889 2.944l-1.883 1.415 2.824 3.416 1.766-1.412-2.707-3.419zm-3.888 2.945L193.192-41l-1.77 1.412-4.595-5.771 1.888-1.414h-.117zm-5.772 4.477l2.825 3.417 1.77-1.414-2.711-3.533-1.884 1.412v.118z"/><path fill="#686B6D" d="M71.383 220.996h30.275v5.771H71.383zM20.375 219.227h41.936v5.065H20.375z"/><path fill="#74665B" d="M-3.186-93.186l-1.295-31.337 1.177 2.827 2.239 5.183z"/><path fill="#F0CFC9" d="M16.134-92.48l-11.31 2.591-2.356 4.124-2.592 2.827 1.768 3.886 17.199 3.065 3.416 20.144 7.659 3.062 7.419-3.18 8.366-14.019 4.123-8.246 14.726 1.177 4.237-10.131-.113-1.885-12.842-3.768-12.958 3.768-6.245 5.421-7.304 5.183-2.591-4.83-3.063-5.184z"/><path fill="#5E5044" d="M69.26-93.186l-.584 4.004-8.13-1.177-17.553 1.177.589-4.004 16.846-1.179 8.832 1.062v.117zm-65.495.47l6.125-1.297 14.137 1.885-.353 3.536-14.02-2.003-4.83.588-1.06-2.827v.118z"/><path fill="#CEA19C" d="M29.209-49.601l8.128-6.36-15.078.118zM50.297-45.712l-8.718 2.709-23.56-.236v2.474l23.795.589 9.19-3.18z"/><path fill="#2B2B2B" d="M14.864-81.398c2.196-.067 4.03 1.66 4.097 3.858.067 2.196-1.662 4.033-3.858 4.098-2.198.067-4.032-1.66-4.097-3.858-.068-2.196 1.66-4.033 3.858-4.098zM56.994-81.4c2.196-.065 4.035 1.662 4.1 3.86.065 2.198-1.664 4.035-3.859 4.102-2.2.065-4.035-1.662-4.104-3.86-.066-2.2 1.664-4.035 3.863-4.102z"/><path fill="#B4B4B4" d="M23.909-82.585l-21.912-.353-.235 13.193 20.026-.117 2.238-12.84-.117.117zm3.062-2.827L24.144-66.8l-25.68.118.824-19.2 27.683.47zM39.458-83.056l.591 13.075 23.91-.235 1.182-13.666-25.683.826zm-2.709-2.709l32.04-1.415 1.299 2.003L68.554-84l-1.412 16.846-29.922.354-.353-18.965h-.118z"/><path fill="#FEF4F2" d="M37.337-55.961l-.588-27.801-10.131.353-4.359 27.566z"/><path fill="#F0CFC9" d="M44.997-54.195L62.311-44.18l-4.124-8.718zM18.137-52.545L9.183-40.647l2.357-9.307z"/><path fill="#7C7C7C" d="M98.005-74.575L68.44-83.999l.349-3.181 29.922 9.072z"/><path fill="#F0CFC9" d="M69.024-75.634l8.37 3.062 1.055-3.062zM68.789-73.042l6.718 5.889 2.123-2.592zM12.954-103.673l21.086 2.827 29.57-2.236z"/><path fill="none" d="M-151.5-151.5h399v399h-399z"/></svg>