<svg xmlns="http://www.w3.org/2000/svg" viewBox="0 0 400 400"><path opacity=".1" fill-rule="evenodd" clip-rule="evenodd" fill="#191715" d="M245.596 388.199l-84.234-11.8L70.013 386.5l86.5 13.5z"/><path fill-rule="evenodd" clip-rule="evenodd" fill="#9676A2" d="M203.816 359.364l6.086 11.89-2.029 21.151h-2.111l-2.574-16.519z"/><path fill-rule="evenodd" clip-rule="evenodd" fill="#F4D9D5" d="M203.816 359.364l-8.666-3.114-8.667 3.176v19.824h14.28z"/><path fill-rule="evenodd" clip-rule="evenodd" fill="#AF8CBD" d="M203.816 359.364l-5.07 16.455-9.197.031-3.066-16.424.011-.004h-.011l-7.412 32.983h26.691z"/><path fill-rule="evenodd" clip-rule="evenodd" fill="#988275" d="M115.938 118.833l10.33 36.108-41.467-51.42 21.879-48.812z"/><path fill-rule="evenodd" clip-rule="evenodd" fill="#685345" d="M115.938 118.833l26.77 14.417-16.44 21.691z"/><path fill-rule="evenodd" clip-rule="evenodd" fill="#F4D9D5" d="M109.693 370.049l6.57 3.701 10.005-2.083 13.949-19.491-9.121-4.177-8.34 4.157z"/><path fill-rule="evenodd" clip-rule="evenodd" fill="#9676A2" d="M143.36 383h-6.157v-12.657l3.014-18.167 6.059 16.924z"/><path fill-rule="evenodd" clip-rule="evenodd" fill="#7C6A5C" d="M194.677 134.693l22.915-51.229 6.16 9.794-8.627 45.565-20.448-4.13zm24.948 20.421l-.004-.002v-.018l.004.02z"/><path fill-rule="evenodd" clip-rule="evenodd" fill="#F4D9D5" d="M165.951 165.951l19.891-33.856-7.833-.115 16.635-85.016 14.372 22.86-3.875 17.604 8.287 10.47-23.186 45.855z"/><path fill-rule="evenodd" clip-rule="evenodd" fill="#FEF2F0" d="M185.842 132.095l8.802-85.133-54.117-24.713-33.847 32.46 9.258 64.124 13.188 14.94z"/><path fill-rule="evenodd" clip-rule="evenodd" fill="#D5ABA4" d="M142.706 133.248l23.243 32.703 25.791-34.026zM194.644 46.962l-54.117-24.713-33.847 32.46 3.989 31.073 30.976-53.343z"/><path fill-rule="evenodd" clip-rule="evenodd" fill="#4E3D30" d="M126.268 154.941l16.438-21.693 7.987 11.237z"/><path fill-rule="evenodd" clip-rule="evenodd" fill="#F4D9D5" d="M146.767 67.892l-1.494 3.134 2.475 22.614 12.316-18.89 20.847-11.685-13.348-1.437zM114.165 65.025l13.818 8.856 6.711 19.835 4.172-22.633-1.134-2.887-.27-.222-11.816-5.288z"/><path fill-rule="evenodd" clip-rule="evenodd" fill="#D5ABA4" d="M114.165 65.025l5.384 5.465 3.788-6.52z"/><path fill-rule="evenodd" clip-rule="evenodd" fill="#7C6A5C" d="M136.702 62.686l-11.662-1.649-10.875 3.986 9.172-1.053 14.125 4.004.27.222z"/><path fill-rule="evenodd" clip-rule="evenodd" fill="#D5ABA4" d="M147.748 93.638l-13.054.075 5.69 7.097z"/><path fill-rule="evenodd" clip-rule="evenodd" fill="#7C6A5C" d="M149.064 62.686l-2.297 5.206 18.594-5.598 15.55.769-15.426-3.96z"/><path fill-rule="evenodd" clip-rule="evenodd" fill="#5C3242" d="M162.105 109.487l-15.125-3.91-6.86 1.857-6.212-1.566-4.238 4.516z"/><path fill-rule="evenodd" clip-rule="evenodd" fill="#9E627D" d="M129.67 110.384l10.903 5.911 21.532-6.808z"/><path fill-rule="evenodd" clip-rule="evenodd" fill="#9676A2" d="M149.085 280.933l9.318-63.29-.116-.82-.296-2.058c-1.909-13.407-3.787-26.761-5.686-40.172l-26.037-19.646-5.333 37.922 11.078 11.859 4.739 31.49 17.495 7.069-5.162 37.646z"/><path fill-rule="evenodd" clip-rule="evenodd" fill="#7F5A87" d="M158.403 217.643l-.116-.821-.296-2.057-2.13-15h-.016l-34.91-6.897.546 1.493 15.271 41.857 17.495 7.069z"/><path fill-rule="evenodd" clip-rule="evenodd" fill="#7F5A87" d="M158.403 217.643l-.116-.82-.296-2.058c-1.909-13.407-3.787-26.761-5.686-40.172l-12.019-9.068 1.131 31.39 2.943 42.376 9.887 3.997 4.156-25.645z"/><path fill-rule="evenodd" clip-rule="evenodd" fill="#5D4063" d="M158.287 216.822l-.296-2.057-2.13-15h-.016l-14.428-2.85 2.943 42.375 9.887 3.997 4.156-25.644z"/><path fill-rule="evenodd" clip-rule="evenodd" fill="#5C3D63" d="M120.935 192.868l5.333-37.922-35.887 22.348-1.66 19.507-.082 12.161z"/><path fill-rule="evenodd" clip-rule="evenodd" fill="#AF8CBD" d="M152.305 174.592l-26.037-19.646 22.145-9.677z"/><path fill-rule="evenodd" clip-rule="evenodd" fill="#9676A2" d="M199.943 234.509l-3.259-18.159 12.128-17.627 10.809-43.603-18.508 9.792-20.21 11.613c-4.263 13.704-8.525 27.414-12.786 41.118L174.78 242l25.163-7.491z"/><path fill-rule="evenodd" clip-rule="evenodd" fill="#7F5A87" d="M199.943 234.509l8.87-35.787v-.003l-35.131 1.046-5.565 17.878L174.78 242z"/><path fill-rule="evenodd" clip-rule="evenodd" fill="#7F5A87" d="M196.685 167.456l-15.781 9.069c-4.263 13.704-8.525 27.414-12.786 41.118L174.78 242l12.046-3.588-.119-39.033 9.978-31.923z"/><path fill-rule="evenodd" clip-rule="evenodd" fill="#5D4063" d="M186.707 199.379l.001-.002-13.026.388-5.565 17.878L174.78 242l12.046-3.588z"/><path fill-rule="evenodd" clip-rule="evenodd" fill="#AF8CBD" d="M180.903 176.524l20.21-11.613 18.508-9.792-22.936-4.19z"/><path fill-rule="evenodd" clip-rule="evenodd" fill="#5C3242" d="M174.78 242l-6.663-24.357 6.055-19.468-18.652-.777 2.88 20.245-4.148 25.64 9.502 2.932L174.778 242z"/><path fill-rule="evenodd" clip-rule="evenodd" fill="#5C3242" d="M174.78 242l-6.663-24.357 15.669-50.389-12.45 1.843-10.68-.205-9.764-4.274 7.511 53.025-3.873 25.627z"/><path fill-rule="evenodd" clip-rule="evenodd" fill="#F4D9D5" d="M95.307 157.48l-4.132 29.884-28.122 15.784 19.945-51.742zM109.479 120.913l-13.993-4.143-21.353 8.758 20.936 2.151z"/><path fill-rule="evenodd" clip-rule="evenodd" fill="#FEF2F0" d="M95.307 157.48l-.238-29.801-20.936-2.151 8.865 25.878z"/><path fill-rule="evenodd" clip-rule="evenodd" fill="#7E5986" d="M114.233 123.221l-3.88 2.566-3.039-3.816 6.437-3.138z"/><path fill-rule="evenodd" clip-rule="evenodd" fill="#9E627D" d="M336.943 169.547l-6.216-3.093-88.079 3.011-3.402 62.29 66.102-2.052 22.349-.696 3.735-4.602z"/><path fill-rule="evenodd" clip-rule="evenodd" fill="#BA8BA2" d="M336.947 169.547l-6.22-3.093-88.075 3.011 4.381 3.473z"/><path fill-rule="evenodd" clip-rule="evenodd" fill="#F4D9D5" d="M248.518 231.466l21.498 7.305 3.677-8.073z"/><path fill-rule="evenodd" clip-rule="evenodd" fill="#5C3242" d="M331.438 224.405l-91.913 2.411-.275 4.939 88.447-2.748z"/><path fill-rule="evenodd" clip-rule="evenodd" fill="#5C3242" d="M278.881 225.786l-6.924.178.182 4.765.004.004 5.986-.186z"/><path fill-rule="evenodd" clip-rule="evenodd" fill="#D8AAC0" d="M240.314 212.639l-22.238.711 21.449 13.466-.275 4.939z"/><path fill-rule="evenodd" clip-rule="evenodd" fill="#9E627D" d="M222.855 216.35l16.76 8.881-.365 6.524-20.549-12.119z"/><path fill-rule="evenodd" clip-rule="evenodd" fill="#5C3D63" d="M219.621 155.119l21.246 46.973-22.166 17.544-10.101-20.049z"/><path fill-rule="evenodd" clip-rule="evenodd" fill="#7E5986" d="M240.314 212.639l.553-10.547-18.012 14.258z"/><path fill-rule="evenodd" clip-rule="evenodd" fill="#F4D9D5" d="M167.668 169.025l22.735-23.041-6.617 21.27-12.45 1.843z"/><path fill-rule="evenodd" clip-rule="evenodd" fill="#D5ABA4" d="M148.413 145.269l16.245 23.699-4.002-.076-9.764-4.274z"/><path fill-rule="evenodd" clip-rule="evenodd" fill="#5C3242" d="M242.652 169.465l4.381 3.473-3.031 53.758-4.477.12z"/><path fill-rule="evenodd" clip-rule="evenodd" fill="#AF8CBD" d="M171.336 169.097l.317 8.895-11.278-.1.281-9z"/><path fill-rule="evenodd" clip-rule="evenodd" fill="#9676A2" d="M190.242 143.753l-24.291 22.198-15.258-21.466-2.28.782 16.245 23.701 3.01.057 22.735-23.041z"/><path fill-rule="evenodd" clip-rule="evenodd" fill="#FEF9FA" d="M147.746 93.638l-2.473-22.612-6.407.057-4.177 22.63z"/><path fill-rule="evenodd" clip-rule="evenodd" fill="#D5ABA4" d="M292.432 238.167l10.195-13.007-26.723.696-5.888 12.915z"/><path fill-rule="evenodd" clip-rule="evenodd" fill="#FEF2F0" d="M302.627 225.16l-1.086-14.228-21.693 5.245-3.944 9.679z"/><path fill-rule="evenodd" clip-rule="evenodd" fill="#988275" d="M99.45 31.963l-14.649 71.558L163.754 0l-23.227 22.251z"/><path fill-rule="evenodd" clip-rule="evenodd" fill="#4F4B49" d="M194.644 46.969l-.002-.005 24.676-20.567z"/><path fill-rule="evenodd" clip-rule="evenodd" fill="#685345" d="M232.211 66.988l-37.567-20.019 14.372 22.855 6.918 4.926 5.181-1.369z"/><path fill-rule="evenodd" clip-rule="evenodd" fill="#7C6A5C" d="M232.211 66.988l-37.567-20.019 24.674-20.572z"/><path fill-rule="evenodd" clip-rule="evenodd" fill="#777375" d="M99.45 31.963l-14.649 71.558L99.45 31.963z"/><path fill-rule="evenodd" clip-rule="evenodd" fill="#685345" d="M112.581 137.971l-10.937 18.227 24.624-1.257z"/><path fill-rule="evenodd" clip-rule="evenodd" fill="#988275" d="M163.754 0l-23.227 22.251 54.115 24.713 24.676-20.567z"/><path fill-rule="evenodd" clip-rule="evenodd" fill="#7C6A5C" d="M99.45 31.963l45.719-7.594L163.754 0z"/><path fill-rule="evenodd" clip-rule="evenodd" fill="#685345" d="M84.801 103.521l27.168-.844-2.429-31.592z"/><path fill-rule="evenodd" clip-rule="evenodd" fill="#7C6A5C" d="M206.471 81.384l2.545-11.56-14.372-22.862z"/><path fill-rule="evenodd" clip-rule="evenodd" fill="#FEF2F0" d="M215.934 89.902l-10.793-2.474 3.875-17.604 12.099 3.557.481 8.703z"/><path fill-rule="evenodd" clip-rule="evenodd" fill="#D5ABA4" d="M209.688 82.233l1.878-8.352 5.836 1.752zM213.428 97.898l-8.287-10.47 10.793 2.474z"/><path fill-rule="evenodd" clip-rule="evenodd" fill="#7E5986" d="M208.986 96.171l-.168-10.242 3.674.677z"/><path fill-rule="evenodd" clip-rule="evenodd" fill="#AF8CBD" d="M203.359 96.48l6.286-4.414 3.783 5.838-5.809 4.827z"/><path fill-rule="evenodd" clip-rule="evenodd" fill="#BA8BA2" d="M263.461 196.672l1.074-12.412 1.826 2.293-.707 8.14-2.193 1.979zm-1.27 15.805l15.92-.597-1.721-2.019-12.359.464-1.84 2.152zm1.11-13.939l-1.07 12.414 2.234-2.446.701-8.14-1.865-1.828zm1.461-15.812l15.922-.596-2.088 2.161-12.363.464-1.471-2.029zM289.432 198.56l2.686-.1-1.113 12.935-2.691.1 1.118-12.935zm-5.778-16.54l17.145-.644-2.277 2.682-5.174.193-1.082 12.532-2.691.102 1.082-12.534-5.443.204-1.56-2.535zM302.842 196.301l-1.123 13.025 2.346-2.569.736-8.54-1.959-1.916zm16.623-.623l-1.123 13.024-1.914-2.407.736-8.542 2.301-2.075zm.168-1.956l1.127-13.025-2.342 2.569-.738 8.54 1.953 1.916zm-18.092 17.21l16.703-.628-1.809-2.116-12.965.486-1.929 2.258zm1.471-16.587l1.129-13.025 1.914 2.407-.738 8.542-2.305 2.076z"/><path fill-rule="evenodd" clip-rule="evenodd" fill="#AF8CBD" d="M95.071 127.679l14.408-6.763 2.44 3.837-.59 2.293-11.742 7.316-3.424-.106z"/><path fill-rule="evenodd" clip-rule="evenodd" fill="#7E5986" d="M95.071 127.679l2.884 4.328 13.964-7.254.127 3.857-12.459 5.752-4.465-.02z"/><path fill-rule="evenodd" clip-rule="evenodd" fill="#AF8CBD" d="M95.122 134.342l2.833-2.335 1.632 2.355z"/><path fill-rule="evenodd" clip-rule="evenodd" fill="#5D4063" d="M130.758 259.661l19.826 20.551 18.338 14.954 21.409-10.823 27.905-21.775-14.974-11.25-3.319-16.809L174.78 242l-20.533 1.287-17.495-7.069 1.511 15.1z"/><path fill-rule="evenodd" clip-rule="evenodd" fill="#7B4C61" d="M130.758 259.661l19.826 20.551 18.338 14.954 21.409-10.823 27.905-21.775-43.456-2.907-36.517-8.343z"/><path fill-rule="evenodd" clip-rule="evenodd" fill="#AF8CBD" d="M136.751 236.214l17.496 7.073 7.115 19.936-30.604-3.562z"/><path opacity=".2" fill-rule="evenodd" clip-rule="evenodd" fill="#191715" d="M144.36 239.29l9.887 3.997 7.115 19.936-15.286.124-.044-.004z"/><path fill-rule="evenodd" clip-rule="evenodd" fill="#AF8CBD" d="M199.941 234.509L174.778 242l-4.523 21.36 47.981-.792z"/><path opacity=".2" fill-rule="evenodd" clip-rule="evenodd" fill="#191715" d="M186.826 238.412L174.778 242l-4.523 21.36 16.62 1.2h.031z"/><path fill-rule="evenodd" clip-rule="evenodd" fill="#AF8CBD" d="M158.177 254.287l14.079-.372-2.001 9.445-8.893-.137z"/><path fill-rule="evenodd" clip-rule="evenodd" fill="#7E5986" d="M146.06 261.442l12.117-7.155 3.185 8.936-15.302 10.674zM170.255 263.36l16.651 12.035v-12.309l-14.65-9.171z"/><path fill-rule="evenodd" clip-rule="evenodd" fill="#5C3242" d="M155.845 199.765h17.832l-5.56 17.878L174.78 242l-20.533 1.287 4.156-25.644z"/><path fill-rule="evenodd" clip-rule="evenodd" fill="#9676A2" d="M68.736 188.406l22.439-1.042-2.536 21.598-25.586-5.814z"/><path fill-rule="evenodd" clip-rule="evenodd" fill="#5C4064" d="M152.305 174.592l3.23 22.806.326 2.367h17.821l.49-1.59 6.731-21.651 2.883-9.27-12.45 1.843.317 8.895-11.278-.1.281-9-9.67-4.232z"/><path fill-rule="evenodd" clip-rule="evenodd" fill="#9E627C" d="M130.758 259.661l-4.49 50.386 10.935 16.286 17.605-3.135 14.114-28.032zM168.922 295.166l7.729 28.217 18.498 11.95 14.753-16.816 8.334-55.949z"/><path fill-rule="evenodd" clip-rule="evenodd" fill="#7B4C61" d="M126.5 310.045l-3.753 42.111 17.47.02 14.591-28.978zM176.651 323.383l9.832 36.043 17.333-.062 4.204-28.192 1.882-12.655z"/><path fill-rule="evenodd" clip-rule="evenodd" fill="#D5ABA4" d="M95.307 157.48l11.63-26.512-11.815 3.374z"/><path fill-rule="evenodd" clip-rule="evenodd" fill="#33302D" d="M164.064 73.88c0 2.21-1.792 4.002-4.002 4.002s-4.001-1.791-4.001-4.002c0-2.21 1.791-4.001 4.001-4.001s4.002 1.791 4.002 4.001zM131.984 73.88c0 2.21-1.791 4.002-4.001 4.002-2.21 0-4.002-1.791-4.002-4.002 0-2.21 1.792-4.001 4.002-4.001s4.001 1.791 4.001 4.001z"/><path fill-rule="evenodd" clip-rule="evenodd" fill="#7C6A5C" d="M232.211 66.988l2.578 20.69 12.244 20.69-31.359 29.603-18.989 29.485-7.892-3.729 1.449-19.974 23.186-45.855 10.76-15.528z"/><path fill="#4E3D30" d="M231.861 104.825l-41.619 38.928 23.186-45.855 7.687-24.517z"/><path fill="#988275" d="M190.242 143.753l25.432-5.782-18.989 29.485h-9.859zM247.033 108.368l-15.172-3.543-10.746-31.444 11.096-6.393z"/><path fill="#7C6A5C" d="M215.125 138.823l5.07 17.566-23.51 11.067z"/><path fill="#685345" d="M190.242 143.753l6.443 23.703-15.782 9.068z"/><path fill-rule="evenodd" clip-rule="evenodd" fill="#F4D9D5" d="M158.43 102.167l8.794 11.959.893-6.145zM129.837 103.521l-4.114 10.161-1.742-5.694z"/><path fill-rule="evenodd" clip-rule="evenodd" fill="#AF8CBD" d="M109.693 370.049L100.239 383h23.647l20.476-19.245-4.145-11.579-17.878 18.156z"/><path fill="none" d="M122.756 352.156L100.239 383"/></svg>