<svg xmlns="http://www.w3.org/2000/svg" viewBox="0 0 400 400"><path fill="#a58b74" d="M139.451 199.35l-1.148-11.608-6.172 12.744z"/><g fill-rule="evenodd" clip-rule="evenodd"><path fill="#1e7679" d="M120.774 151.355l3.33 16.828 1.166.868 1.301-18.58z"/><path fill="#d06b5a" d="M118.163 184.746l-9.745-2.301 5.571-13.898 21.665-1.205 7.62 12.197-7.107 3.533z"/><path fill="#aa4943" d="M135.654 167.342l7.62 12.197-7.107 3.533-8.416-.243-19.333-.384z"/><path fill="#c16053" d="M129.399 197.565l13.875-18.026-34.856 2.906 2.035 5.293.671 3.868 8.831 9.838z"/><path fill="#aa4943" d="M134.734 199.35l8.54-19.811-26.994 16.316z"/><path fill="#55ada6" d="M135.654 167.342l-11.55.841 13.783-11.654z"/></g><path opacity=".1" fill="#2b2b2b" d="M119.278 391.449l80.539-17.301 68.647 14.518L196.22 400z"/><path fill="#e7d0be" d="M257.806 307.667l-5.6 30.015-15.418 24.763-7.503-27.778-5.39-36.841z"/><path fill="#d1b197" d="M252.206 337.682l-4.619 24.763h-14.01l-4.292-27.778zM173.443 327l-7.435 35.445 17.493-3.306 12.87-27.305.839-21.362z"/><path fill="#e7d0be" d="M179.811 297.826L173.443 327l22.928 4.834 19.022-34.008z"/><path fill="#9d782c" d="M223.621 386.659l-1.851 4.79h25.817l2.447-11.709-2.447-17.295h-2.876z"/><path fill="#846528" d="M247.587 362.445l6.489 10.05-1.983 18.954h-4.506z"/><path fill="#9d782c" d="M183.501 359.139l-10.666 27.52H140.26l4.525-4.674 33.697-22.846z"/><path fill="#846528" d="M183.501 359.139l4.618 12.376-4.618 15.144h-5.791l-1.421-9.161z"/><path fill="#e7d0be" d="M223.621 386.659h17.951l3.139-24.214h-11.134zM144.785 381.985h23.563l10.133-22.846h-11.582z"/><path fill="#a58b74" d="M177.708 307.667l27.678 8.752 4.711-8.752-1.044-28.254-31.345 28.254zM257.806 307.667l-28.012-31.834-4.455 31.834 1.19 7.938z"/><path fill="#9d782c" d="M188.497 261.059l-10.789 46.608h80.098l3.196-21.477-9.388-27.466z"/><path fill="#d1b197" d="M167.776 194.827l-13.474 18.87 2.545 12.328 15.991 6.878 11.524-9.111z"/><path fill="#e7d0be" d="M203.101 45.928h-44.792l-14.252 25.463 1.483 41.585 19.392 33.782 20.192 3.03 13.789-3.03 18.754-17.116 4.732-64.457zM253.938 200.474l-1.427-33.553h-21.735l-34.23-3.121-1.283 24.664-12.192 11.653 26.43 9.89z"/><path fill="#d1b197" d="M196.546 174.945l34.23-8.024 25.493-80.251-33.87-21.485-4.293 53.663-19.193 27.91z"/><path fill="#a58b74" d="M222.399 146.758l-25.853 28.187-7.946-12.893.663-15.294z"/><path fill="#74665b" d="M145.54 112.976l-14.291-37.958 2.437-23.298 18.795-33.512L195.089 0l18.209 9.104 29.86 1.457 30.953 35.367 5.486 47.466 7.259 19.497-14.93 12.745 4.007 14.931-23.422 26.354h-21.735l25.493-80.251-25.493-10.196-27.675-30.546h-44.792l-14.568 14.159z"/><path fill="#e7d0be" d="M139.451 199.35l35.761 31.678-17.655 14.473-25.534-35.494-.191-9.934-3.247-.723z"/><path fill="#d1b197" d="M139.451 199.35l-23.75-5.616-7.283-11.289-4.37 1.822 6.009 13.722 21.966 12.018z"/><path fill="#e7d0be" d="M241.481 80.756l-2.875 21.21 12.362 1.391 5.301-16.687z"/><path fill="#a58b74" d="M253.317 85.491l-9.795 9.555 1.602-12.833zM238.606 101.966l.955 5.504 8.859 3.906 2.548-8.019zM239.512 119.632l5.035 4.025 1.002-3.095-2.027-7.299z"/><path fill="#46382d" d="M230.776 76.474l8.592 19.868 2.113-15.586z"/><path fill="#8d7c2f" d="M242.3819427 111.5126686l1.257939-11.7774835 4.2635584.4553856-1.257939 11.7774835z"/><path fill="#e5c828" d="M239.561 119.863l-1.891-8.906 1.891-3.487 9.814 1.047-3.826 12.045z"/><path fill="#ebded6" d="M174.692 80.116h5.102l1.639 26.555h-9.286z"/><path fill="#d1b197" d="M179.794 80.116l4.414-5.34 13.338-5.22 11.426 3.459-16.25 13.393-11.289 20.263z"/><path fill="#46382d" d="M184.208 74.776l1.311-3.385 12.357-3.385 11.096 5.009-11.096-2.262z"/><path fill="#d1b197" d="M174.692 80.116l-3.486-4.735-10.957-5.825-10.392 3.459 13.274 13.155 9.54 15.031z"/><path d="M197.27 84.046c0 2.395-1.94 4.336-4.335 4.336-2.396 0-4.336-1.941-4.336-4.336 0-2.393 1.94-4.334 4.336-4.334 2.396 0 4.335 1.941 4.335 4.334zM167.093 83.963c0 2.441-1.978 4.419-4.42 4.419-2.44 0-4.418-1.979-4.418-4.419 0-2.44 1.979-4.418 4.418-4.418 2.442-.001 4.42 1.978 4.42 4.418z" fill="#2b2b2b"/><path fill="#a58b74" d="M172.147 106.671l4.641 4.705 4.645-4.705z"/><path fill="#46382d" d="M171.206 75.381l-1.209-3.385-10.684-3.385-9.456 4.404 9.194-1.857z"/><path fill="#ccae2d" d="M223.761 231.028l21.026-19.327 2.474-13.712h-57.129l-13.672 13.712zM243.598 166.921l-9.268 31.068h12.931l5.25-31.068z"/><path fill="#46382d" d="M196.546 174.945l2.184 23.044-22.27 13.712-9.65-15.521 9.65-20.446-16.046-7.855 12.598-21.121h16.251z"/><path fill="#b38c2e" d="M176.46 211.701h56.091l25.068 31.195-7.468 15.805-25.941 2.358h-35.713z"/><path fill="#d1b197" d="M198.73 197.989l5.644-12.792v12.792z"/><path fill="#b38c2e" d="M164.315 120.571l9.485 8.592h10.988l9.068-8.592h-2.994l-13.22 2.025-9.829-2.025z"/><path fill="#fff" d="M166.405 120.726l7.928 4.772h9.384l8.26-4.82-14.604.622z"/><path fill="#8e7e73" d="M138.563 53.461l-7.314 21.557 2.437-23.298zM173.012 45.928l40.286-36.824 29.86 1.457zM232.551 30.448l25.446-2.931 16.114 18.411-23.143 19.257z"/><path fill="#5e5044" d="M250.968 65.185l-18.417-34.737h-28.836l-30.703 15.48h30.089l27.675 30.546 25.493 10.196 23.328 6.724z"/><path fill="#74665b" d="M203.101 45.928l29.45-15.48 18.417 34.737-20.192 11.289z"/><path fill="#5e5044" d="M152.481 18.208l20.531 27.72-18.489-10.193zM256.269 86.67l15.657 38.966 14.93-12.745z"/><path fill="#8e7e73" d="M286.856 112.891l-7.259-19.497-23.328-6.724z"/><path fill="#5e5044" d="M275.933 140.567l-38.263 4.654-6.894 21.7h21.735z"/><path fill="#8e7e73" d="M160.414 167.879l28.849-21.121h-24.331zM172.632 177.48l13.977 10.984-19.799 7.716z"/><path fill="#46382d" d="M160.414 167.879l38.316 30.11-2.184-23.044-7.283-28.187z"/><path fill="none" d="M218.456 297.826h35.58"/><path fill="#d1b197" d="M188.6 110.028l10.313 8.506-1.705 6.159 5.893-7.332zM168.395 109.99l-8.621 8.226 1.875 6.916-5.181-7.571z"/><path fill="#9d782c" d="M190.809 119.373l-9.376-1.812-3.669 1.774-3.61-1.774-7.749 1.878-3.274-.111 1.184 1.243 13.535 1.499 16.006-1.499 1.073-1.243z"/><path fill="#46382d" d="M158.309 45.928h14.703l-18.489-10.193-15.96 17.726-7.314 21.557 13.28 13.364-.472-16.991z"/><path fill="#5e5044" d="M173.012 158.655l25.718 39.334-38.316-30.11z"/><path fill="#82712b" d="M295.952 261.059H224.21l12.036-30.031h50.61z"/><path fill="#ac923b" d="M288.346 211.701h-57.732l10.008 19.538 18.506.868h28.909l2.926-3.428z"/><path fill="#e7d0be" d="M252.511 166.921l32.952 62.662-25.835 39.584L249.375 261l9.753-28.893-14.341-20.406z"/><path fill="#e7d0be" d="M249.375 261l-19.581 14.833 6.452 10.997 5.548 10.996 12.144-13.326 5.69-15.333z"/><path fill="#d1b197" d="M226.628 293.167l15.166 4.659 12.144-13.326-24.144-8.667zM285.463 229.583l-26.335 2.524L249.375 261l10.253 8.167z"/><path fill="#8d7c2f" d="M240.622 231.239l-16.412 29.82 6.404-49.358zM295.952 261.059l-12.656-28.156 2.167-3.32 5.5-.904z"/></svg>