<svg xmlns="http://www.w3.org/2000/svg" viewBox="0 0 400 400"><path fill="#737474" d="M299.962 164.806l-4.772 22.002-7.796-24.545z"/><path opacity=".1" fill="#2b2b2b" d="M120.2 385.923l89.001-12.569 97.129 15.586L211.014 400z"/><path fill="#4f5253" d="M251.331 157.892l19.467-11.06 5.363 8.987-5.363 7.52zM127.998 245.719l42.799 15.504-9.533-26.492-19.693-2.169zM88.775 174.234l-22.136-3.143 2.023-7.752 14.867-56.421 18.151 3.792-5.028 25.142z"/><path fill="#846528" d="M164.052 162.669l-24.708 37.613-4.645 5.295 26.565 29.154 14.877-37.131z"/><path fill="#4f5253" d="M121.207 159.903l10.601 2.36 4.861 7.383-11.02 9.113-4.19-4.022z"/><path fill="#755924" d="M107.883 113.896l2.387 4.524-1.131 7.04 3.361-6.034 7.144 1.592-6.482-3.98-4.023-5.594z"/><path fill="#b38c2e" d="M117.427 138.148l7.551-13.359 8.086-1.844-2.052 11.816z"/><path fill="#997c7c" d="M104.863 187.811l-16.088-13.577 5.028-10.895 10.057-8.967 7.29 8.297z"/><path fill="#7d6362" d="M88.775 174.234l-4.023-18.856h18.102z"/><path fill="#60471e" d="M159.422 282.342l6.718 39.84 17.731 24.999 20.805-8.903 7.344-29.119-20.116-37.239z"/><path fill="#846528" d="M203.796 293.935l40.856-30.368 13.574 30.509.889 46.337-15.47 8.301-22.075-11.732z"/><path fill="#755924" d="M203.796 293.935l-16.86-8.292 1.346-25.09 9.498-14.834 20.853 39.238z"/><path fill="#60471e" d="M191.605 153.61l-19.99 36.212 27.111 46.595 41.567-40.561 1.092-45.514z"/><path fill="#4f3919" d="M286.084 107.85l-30.715 6.401 3.385-36.855 14.869-1.756z"/><path fill="#846528" d="M170.541 30.046l-3.589-15.278 31.905-9.869 51.197 5.689 33.37 47.815 2.66 49.447-18.036-27.719z"/><path fill="#60471e" d="M181.92 11.672l62.445 8.127 27.904 48.222 13.815 39.829-18.036-27.719-85.518-50.218-18.354 6.953 2.776-22.098z"/><path fill="#b29392" d="M175.554 24.675l-11.378 12.191-9.482 45.784 3.793 41.178 22.452 4.876 18.726 20.77 13.004 17.97 24.472-19.37 30.907-67.943-29.191-42.552-5.509-2.248z"/><path fill="#997c7c" d="M238.857 37.579l-29.439 100.607 3.251 29.258 28.716-17.102 13.984-36.091.194-9.096 5.005-4.896 7.48-20.128zM216.732 64.228l-25.194 21.673-14.9-8.669-12.191-20.048 6.502-1.896 10.971 4.064 10.43 2.167 7.315-6.231h7.585z"/><path fill="#c4a7a7" d="M192.35 61.519l-4.334 6.908 3.522 17.474-18.828-3.793 10.7-14.629-1.49-8.127z"/><path fill="#7d6362" d="M180.939 128.704l45.681 10.159-13.951 28.581-21.064-13.834zM172.71 82.108l8.229 8.669 10.599-4.876zM165.26 97.957l22.891 5.282 14.936-2.173.371 4.069-15.442 2.574-23.569-5.622z"/><path fill="#997c7c" d="M195.466 86.442l11.243 6.503-2.929 17.405-1.135-12.123zM214.159 100.259l-.758 10.733-9.621 9.45zM170.541 82.108l-5.281 15.849-1.898-12.056zM160.383 92.402l1.445 17.88-4.289-10.023z"/><circle cx="205.625" cy="69.601" r="3.115" fill="#2b2b2b"/><circle cx="170.949" cy="62.964" r="3.115" fill="#2b2b2b"/><path fill="#4f5253" d="M199.665 55.288v-2.709h10.701l6.366 11.649-10.43-7.586zM181.92 59.352v-2.303l-11.379-5.147-6.094 2.98v2.302l6.637-.812z"/><path fill="#997c7c" d="M175.735 40.388l14.855 4.696 18.828 1.625-17.88-4.154zM181.92 35.331l10.43 3.432 13.275.903-13.049-3.251z"/><path fill="#b29392" d="M268.048 80.131l-15.26-4.491-5.895 20.42 13.675 4.199z"/><path fill="#7d6362" d="M246.893 96.06l8.476 18.191 5.199-13.992zM251.77 93.486l3.973-12.1 7.586 2.167z"/><path fill="#755924" d="M175.554 24.675l61.556 18.874 30.938 36.582 4.221-12.11-32.78-34.677-60.912-18.576z"/><path fill="#ccae2d" d="M191.605 153.61l-27.553 9.059-4.63 119.673 23.82 15.758 14.017-47.269 1.467-14.414-16.961-44.918z"/><path fill="#b38c2e" d="M241.385 150.342l29.413 12.997-12.115 100.228h-14.031l-7.239 32.854-18.78 4.358-21.374-49.948 1.467-14.414 36.205-42.781z"/><path fill="#f4d75c" d="M191.605 153.61l-25.563 27.161 8.465 9.051-8.465 10.391 32.684 36.204-14.948-45.925z"/><path fill="#e4c824" d="M241.385 150.342l11.466 40.821-10.211 5.028 3.094 19.778-47.008 20.448 34.192-43.788z"/><path fill="#846528" d="M206.939 240.942l-4.358 3.185 3.373 6.369 5.007-4.777z"/><path fill="#b38c2e" d="M250.054 10.588l-5.689 9.211-65.788-5.031h-11.625L199.083-.248z"/><path fill="#846528" d="M270.798 163.339l24.472 70.732-34.025 16.656.502-25.917z"/><path fill="#9d782c" d="M261.747 224.81l33.523 9.261-28.748 39.553H256.09l-11.438-10.057z"/><path fill="#b29392" d="M266.522 273.624l-8.296 20.452-13.574-30.509z"/><path fill="#9d782c" d="M161.264 234.731l-35.615-55.972-11.733.839-9.053 8.213 23.135 57.908z"/><path fill="#755924" d="M221.57 336.982l37.545 3.431 1.123 29.421-16.593.502-9.616-4.189z"/><path fill="#563e1c" d="M204.676 338.278l-38.536-16.096 6.982 36.924 9.649 11.062h13.609z"/><path fill="#f4d75c" d="M111.917 153.365l-43.255 8.968-13.325-5.446 6.788-10.057 68.887-12.069v8.298z"/><path fill="#ccae2d" d="M131.012 143.059l-24.583 4.492-9.777.201-10.723 3.545-30.592 5.59 13.325 6.452 45.268-7.961z"/><path fill="#b38c2e" d="M85.93 151.296l10.722-15.444 12.068-2.012-2.291 13.711z"/><path fill="#b29392" d="M104.863 187.811l4.779-24.472-7.459-10.14 4.246-5.648 14.778 12.352 4.442 18.856z"/><path fill="#846528" d="M57.599 153.534l7.208-1.173v-2.64l-5.228.88zM72.864 148.714l1.499 1.212-1.051 1.364-1.318-.97zM77.215 147.782l1.5 1.211-1.051 1.365-1.318-.971zM82.03 146.863l1.499 1.212-1.051 1.364-1.318-.97z"/><path fill="#8f8f8f" d="M83.529 106.918l24.354 6.978 8.212-14.252-16.132-4.857z"/><path fill="#c4c4c3" d="M99.963 94.787l7.92 19.109 13.576-17.097z"/><circle cx="96.82" cy="104.341" r="2.011" fill="#484748"/><circle cx="109.139" cy="100.57" r="2.011" fill="#484748"/><path fill="#6b6b6b" d="M147.941 165.854l-19.943 79.865-25.144-7.961 22.795-58.999 6.159-16.496z"/><path fill="#8f8f8f" d="M270.798 146.832l29.164 17.974-29.164-1.467z"/><path fill="#ac923b" d="M234.029 366.147l-7.449 19.776h38.038l-4.38-16.089zM173.122 359.106l-10.46 7.041-12.052 13.91 23.645 1.51 22.125-2.013v-9.386z"/><path fill="#ccae2d" d="M226.58 385.923l20.585-11.397 17.453 11.397-19.019 3.017zM142.744 379.554l19.918-13.407 6.392 14.414z"/><path fill="#846528" d="M226.58 385.923h38.038v6.034H226.58zM142.744 379.554h53.627v6.034h-53.627z"/><path fill="#f4d75c" d="M206.531 5.62l4.515-.632 2.98 2.529 1.264-.632 1.174 2.167-5.327-.903-.633 1.625-3.07.723.451 4.155-1.896-.453.542-4.966-6.051 1.806-6.592-2.528 6.954.722z"/></svg>