<svg xmlns="http://www.w3.org/2000/svg" viewBox="0 0 400 400"><path opacity=".1" fill="#2b2b2b" d="M84.699 387.603l121.755-17.27 102.426 15.46L207.554 400z"/><path fill="#cea39f" d="M127.251 220.239l-17.532-5.615 4.592 35.075 18.121-3.728z"/><path fill="#feeee9" d="M127.251 220.239l-17.92-15.491 2.26 12.411 5.8 8.532 2.358 9.365h10.139z"/><path fill="#9d782c" d="M173.725 173.311l-19.018 42.675 17.015 26.221 10.357-47.675z"/><path fill="#846528" d="M154.707 215.986l-13.346 2.067-5.426 21.513 11.176 21.933 21.523-4.648 10.464-12.601-9.231-9.835z"/><path fill="#e2a940" d="M132.104 264.739l15.007-3.24-5.75-43.446-14.11 2.186z"/><path fill="#6f7173" d="M219.856 312.528l10.409 31.793 18.924 11.407 19.48-7.607 10.26-57.525-10.015-43.962-37.459 38.481zM167.605 275.58l-1.211 51.055 14.681 19.946 20.563-3.246 18.218-30.807-16.431-21.584z"/><path fill="#4f5253" d="M236.563 285.115l-16.707 27.413-52.251-36.948 37.671-6.221z"/><path fill="#bb8f2d" d="M288.665 154.582l34.735 68.555-60.786 2.554 12.624-41.375z"/><path fill="#e2a940" d="M173.725 173.311l-3.858 61.104 58.183 9.835 51.275-24.011 9.34-65.657-18.389-5.108z"/><path fill="#846528" d="M171.819 157.306l6.265-13.571 73.989-21.197 15.819 1.736-39.842 41.205z"/><path fill="#feeee9" d="M133.938 27.826l-4.8 26.584 10.708 50.214 38.768 37.107 52.061 9.415 17.353-24.368 16.615-47.261-29.168-54.276-20.677-22.153h-17.907z"/><path fill="#efd0cb" d="M211.844 3.088l22.523 126.274-8.031 12.369 1.714 12.851 24.408-16.548 8.384-40.818-1.699-8.849 5.5-8.85-2.584-22.153-26.584-32.123-20.677-22.153z"/><path fill="#cea39f" d="M177.599 143.242l28.384-12.034 28.384-1.846-6.317 25.22-36.611 2.743zM264.643 79.517l-16.615 2.585 12.814 15.114zM254.028 77.117l-1.661-12.646 6.776-1.311z"/><path fill="#efd0cb" d="M200.583 58.379l-22.984 31.569-37.107-15.785 8.307-7.2 13.015-.276 8.723-1.939 4.846-6.369 14.123-4.985z"/><path fill="#fff5f3" d="M170.537 64.748l7.062 25.2-12.462 2.769-3.323-26.03z"/><path fill="#ddd" d="M139.846 104.624l19.35 6.462 5.941-18.369 12.462-2.769 18.293 11.578 31.445-11.578 9.522 14.676-2.492 24.738-74.323 19.754-20.112-23.988z"/><path fill="#cea39f" d="M161.814 114.224l32.677-8.146.923 4.362-32.492 7.846z"/><path fill="#9ca0a1" d="M175.383 58.379l-1.569-4.985 15.323-3.599 11.446 5.907v2.677l-11.077-3.877zM161.814 66.687l-2.03-4.893-12 1.366-7.292 7.68v3.323l8.307-6.092z"/><circle cx="189.019" cy="70.63" r="4.497" fill="#2b2b2b"/><circle cx="151.153" cy="79.517" r="4.497" fill="#2b2b2b"/><path fill="#bababa" d="M227.337 89.948l10.907-19.318-3.877-46.576 6.369-5.274h15.6l5.723 38.584-16.062 1.015 3.323 52.337-14.953 18.646z"/><path fill="#cecece" d="M234.367 24.054L196.891 3.088 223.29.503l33.046 18.277z"/><path fill="#e0e0e0" d="M196.891 3.088l-37.846 23.999-12.389-4.259L160.43 7.426z"/><path fill="#ccc" d="M160.43 7.426l13.384 10.296-14.769 9.365-25.107.739z"/><path fill="#a5a5a5" d="M177.599 89.948l-4.569 8.723-7.893-5.954z"/><path fill="#efd0cb" d="M148.892 52.564l13.846-5.908 18.645-1.661-18.276 4.8zM149.999 44.995l11.815-4.8 15.785-1.293-15.785 3.877z"/><path fill="#b38c2e" d="M171.819 157.306l56.231-2.724 6.981 9.535-3.576 12.259-57.73-3.065z"/><path fill="#9d782c" d="M228.05 154.582l39.842-30.308 2.384 25.2-38.821 26.902z"/><path fill="#bb8f2d" d="M169.867 234.415l109.458-14.176-1.727 19.327-17.773 25.174-23.262 20.375-68.958-9.535z"/><path fill="#5e5e5e" d="M230.265 344.321l4.754 15.808 14.953 9.194 15.695-3.101 3.002-18.101zM201.638 343.335l-35.244-16.7-.845 23.74 9.185 12.77 16.928-2.019z"/><path fill="#b38c2e" d="M235.019 360.129l-8.939 23.74 19.41 2.043 22.22-2.043-2.043-17.647-13.209-2.626-3.484 1.385-2.08-2.492z"/><path fill="#846528" d="M226.08 383.869h41.631v7.407H226.08z"/><path fill="#b38c2e" d="M165.549 353.44l-14.629 8.559-16.761 13.43 25.285 1.788 32.218-1.788v-14.303l-18.93-7.238z"/><path fill="#846528" d="M134.159 375.429h57.503v7.066h-57.503z"/><path fill="#9d782c" d="M252.458 363.596l-2.486 9.26h-4.482l1.405-10.366zM172.732 353.888l-16.609 11.059-5.203-2.948 14.629-11.624z"/><path fill="#b7b7b7" d="M87.593 192.397l-2.914-.95 14.758-45.463-20.129-51.779 10.024-71.288 3.073.433-9.951 70.492 20.253 52.219zM103.123 309.347l-2.582-4.401 7.16-58.312 3.04.395z"/><path fill="#8d7c2f" d="M94.666 324.05l1.066 9.848 9.266 10.696.194-16.641z"/><path fill="#9d782c" d="M113.617 318.681l-13.076-13.735-11.824 14.126 13.942 11.668 8.819-3.97z"/><path fill="#e2a940" d="M96.523 318.431l4.228-4.618 4.766 3.88-3.971 5.793z"/><path fill="#8e8e8e" d="M119.434 312.279l-4.2 26.099L89.332 22.917l6.3-.517z"/><path fill="#e2a940" d="M122.844 353.806l-3.41-41.527-16.775 18.461 5.377 31.848 8.244 12.209z"/><path fill="#bb8f2d" d="M122.844 353.806l-14.808 8.782 4.615 26.182h13.063z"/><path fill="#e4c824" d="M86.267 186.555l5.285 16.198-9.051.044-9.531-5.81z"/><path fill="#b38c2e" d="M91.552 202.753l-11.907 6.871-6.675-12.637z"/><path fill="#b7b7b7" d="M81.716 208.429l-3.328 11.891-8.315.683-2.083-8.713 3.394-.279.928 5.049 3.071-.252 3.244-9.111z"/><path fill="#efd0cb" d="M105.185 215.986l-12.498 8.343 14.351 27.71 7.273-2.34z"/><path fill="#feeee9" d="M105.185 215.986l1.853 36.053-17.554-28.574z"/><path opacity=".2" fill="#2b2b2b" d="M232.464 265.513l25.532 25.368 3.511 11.013 13.911 9.14 2.988-17.394-16.899-28.127z"/><path fill="#755924" d="M251.449 211.209l77.165 35.253-22.194 51.451-73.956-32.4z"/><path fill="#dddddc" d="M252.458 214.236l-2.344-1.372-.415-6.176 75.255 32.143 3.66 7.631z"/><path opacity=".2" fill="#2b2b2b" d="M279.325 252.677l38.726-16.794 6.903 2.948 3.66 7.631-21.691 33.546-21.187 8.843z"/><path fill="#a3a2a2" d="M249.699 206.688l-19.424 49.386 2.189 9.439 19.994-51.277z"/><path fill="#9d782c" d="M279.325 219.307l-11.943 29.285 16.332 10.302 26.251-3.746 13.435-32.011z"/><path fill="#efd0cb" d="M261.507 261.293l-7 3.483-4.393 8.469 5.329 2.335 6.064-7.144z"/><path fill="#feeee9" d="M289.65 274.014l-3.914 14.837h-15.46l-14.833-13.271 6.064-14.287 23.207 3.447z"/><path fill="#cea39f" d="M261.507 261.293l28.143 12.721 1.424-5.401-6.36-3.873z"/><path fill="#e2a940" d="M267.382 248.592l42.583 6.556-6.508 16.531-41.95-10.386z"/><path fill="#efd0cb" d="M255.443 275.58l2.553 15.301 20.41 2.759 7.33-4.789zM177.599 89.948h12.468l5.825 11.578zM165.137 92.717l-7.621 7.154 1.68 11.215z"/></svg>