<svg xmlns="http://www.w3.org/2000/svg" viewBox="0 0 400 400"><path opacity=".1" fill="#33302d" d="M104.883 391.602l96.166-7.17 88.626 6.185-94.04 9.42z"/><path fill="#aca9a8" d="M269.811 347.867l-20.031 14.145-20.528 6.287-55.711 1.746-4.309-12.924-13.223 4.541-29.879 3.143 28.8-123.377 89.888-13.186z"/><path fill="#e9c900" d="M146.402 164.86l-7.961 3.656-12.311 21.437 4.453 11.539 18.698 12.299 4.354-48.931z"/><path fill="#8c681c" d="M173.541 370.045v12.748l-17.64 4.06-24.361-4.06 21.496-21.131h11.866z"/><path fill="#f8da52" d="M180.006 154.895l-22.005 6.636-10.478 43.658 47.5-32.656 1.922-11.002z"/><path fill="#f8da52" d="M225.76 150.703l-28.815 10.828-1.922 11.002 41.651 33.442 16.911-35.585z"/><path fill="#d1b000" d="M156.009 246.709l73.243 4.584 7.422-45.318-89.151-.786z"/><path fill="#e9c900" d="M147.523 205.189l89.151.786-41.651-33.442zM257.521 180.042l11.548 15.717-5.239 21.305-8.731 4.541-19.991-6.07 1.566-9.56z"/><path fill="#8c681c" d="M249.78 362.012l12.827 22.615-17.289 4.061-17.288-4.061 1.222-16.328 7.16-6.637z"/><path fill="#a47b1b" d="M153.036 333.693v27.969l20.505 8.383 5.942-30.354zM244.619 327.434l5.161 34.578-20.528 6.287-13.614-31.416z"/><path fill="#8c681c" d="M219.177 345.049l25.442-17.615-18.859 2.794-10.122 6.655z"/><path fill="#7d5c1b" d="M177.883 347.867l1.6-8.176-6.386-4.224-20.061-1.774 24.847 14.174z"/><path fill="#f8da52" d="M269.069 195.759l-32.395 10.216 22.8-35.009z"/><path fill="#d1b000" d="M264.45 214.541l-27.776-8.566-1.566 9.56 19.991 6.07z"/><path fill="#b3952d" d="M269.069 172.445l-15.484-2.055-16.911 35.585 5.501-1.735zM235.108 215.535l35.358 11.309-6.016-12.303-28.733-2.717z"/><path fill="#b3952d" d="M236.674 205.975l-1.566 9.56 3.534 1.127 3.533-12.422z"/><path fill="#7d5c1b" d="M195.721 322.895l1.224 20.082-61.663-11.526 35.513-32.756z"/><path fill="#8c681c" d="M195.721 322.895l-4.215-3.997 1.121 16.766-51.18-9.898-6.165 5.685 61.663 11.526z"/><path fill="#8c681c" d="M221.918 291.371l22.701 36.063-47.674 15.543-26.15-44.282-14.786-43.519z"/><path opacity=".2" fill="#8c681c" d="M201.164 334.332l-23.836-39.92-11.654-33.93-9.665-5.306 14.786 43.519 26.15 44.282 47.674-15.543-3.722-5.914z"/><path fill="#c39213" d="M244.619 327.434l-34.617-28.618-13.057-24.82 4.104-27.701 28.203 4.998z"/><path fill="#ba8f16" d="M153.122 249.705l-17.84 81.746 35.513-32.756 4.32-13.183.953-37.844z"/><path fill="none" d="M232.621 270.685l-.089-.087.031.146z"/><path fill="#c39213" d="M239.977 305.603l-.191-.898-.354.354z"/><path fill="#a47b1b" d="M188.213 248.236l-13.9 2.071-3.518 48.388 17.941 30.381 21.266-30.26-7.033-48.222z"/><path fill="#7d5c1b" d="M229.252 251.293l-64.808 1.287-9.514-11.283 75.074 1.527zM228.03 384.627h34.577v8.121H228.03zM131.54 382.793h42.001v8.119H131.54z"/><path fill="#7d5c1b" d="M164.935 287.603l11.419-45.419 10.531-4.979 2.969 4.981 7.904-.157-7.219 58.561-8.319-1.025 5.538-44.936-5.627-1.606-8.963 36.11-5.294 2.892z"/><path fill="#b3952d" d="M193.007 250.549h-10.47l1.856-8.619 8.753.086z"/><path fill="#7d5c1b" d="M173.717 243.697h14.496v4.539h-14.496z"/><path fill="#b3952d" d="M147.523 205.189l10.478-43.658-11.876-6.636 1.078 38.758z"/><path fill="#b3952d" d="M148.084 207.932l-30.86-11.779 8.906-6.2 21.393 15.236z"/><path fill="#f8da52" d="M138.441 168.516l9.082 36.673-1.121-40.329z"/><path fill="#c39213" d="M180.006 154.895l4.344 13.621 10.673 4.017 16.54-5.065 14.197-16.765-28.815 10.828z"/><path fill="#d8d6d5" d="M254.879 221.857l45.448 126.01-25.67 22.178-29.839-136.631zM154.93 241.428l-30.11 137.959-25.147-32.744 49.965-131.108z"/><path fill="#d1b000" d="M164.936 287.603h-.001l-2.353 9.362 8.213 1.73 2.373-9.562z"/><path fill="#8c681c" d="M123.386 198.505l-21.09 32.122 25.005 27.91h16.901l-5.686-13.818-7.92-23.114 17.488-13.673z"/><path fill="#7d5c1b" d="M102.296 230.627l47.342-15.092-1.554-7.603-26.782-10.222z"/><path fill="#957f20" d="M102.296 230.627l15.488-4.938 13.638-24.117-10.12-3.862z"/><path fill="#e7c600" d="M154.93 241.297l-16.414 3.422-11.215 13.818 22.529 6.258z"/><path fill="#f8db44" d="M154.93 241.297l11.954 11.06-4.646 11.282-12.408 1.156z"/><path fill="#bb8d16" d="M144.571 251.975l-2.921-7.909-3.134.653-11.215 13.818 5.379 1.494z"/><path fill="#fef3f1" d="M133.827 46.059l1.241 32.571 4.831 38.23 18.495 19.736h32.018l20.427-20.426 2.208-56.31-13.249-22.358h-58.242z"/><path fill="#fffbfb" d="M165.846 75.318h5.336l5.429 19.69h-16.838z"/><path fill="#d5aca6" d="M159.773 95.008l8.925 5.888 7.913-5.888z"/><path fill="#c5b15b" d="M175.875 70.165l17.298-1.288 5.429 1.841v-1.472l-4.786-2.853-19.136.552zM163.638 67.129l-1.472 3.221h-17.39l-4.14 1.656-.552-.92 4.508-2.945z"/><path fill="#f3d8d4" d="M198.602 70.718l-10.95 5.29-11.041 19-5.429-19.69 4.693-5.153 17.298-1.288zM162.166 70.35l3.68 4.968-4.656 15.097-8.593-12.337-11.961-6.072 4.14-1.656z"/><path d="M189.352 74.398c0 2.032-1.647 3.68-3.68 3.68-2.032 0-3.681-1.647-3.681-3.68 0-2.033 1.648-3.681 3.681-3.681 2.033.001 3.68 1.648 3.68 3.681zM157.289 75.318c0 2.033-1.647 3.68-3.68 3.68-2.033 0-3.681-1.647-3.681-3.68s1.648-3.681 3.681-3.681c2.033 0 3.68 1.648 3.68 3.681z" fill="#33302d"/><path d="M190.412 136.596l20.427-20.426.568-14.491-15.336 5.934-22.634-9.661-4.739 2.944-2.852-1.882-19.598 9.289-7.808-2.992v.003l1.459 11.546 16.351 17.448c1.12.787 2.213 1.554 3.259 2.288h30.903z" fill="#f1e6e5"/><path fill="#d4aba5" d="M183.616 113.189l-14.305-2.248-12.237 2.244-.398-2.172 12.606-2.311 14.677 2.306z"/><path fill="#f3d8d4" d="M213.047 59.86l8.65 6.921 12.169 45.992-8.106 37.93-28.815 10.828-14.274-9.181-7.747-15.754h15.488l20.427-20.426z"/><path fill="#d4aba5" d="M174.924 136.596h39.779l-17.758 24.935-16.939-6.636z"/><path fill="#fef3f1" d="M229.692 73.177l-5.466 23.809 11.934 5.367 4.489-20.41z"/><path fill="#d4aba5" d="M228.918 93.122l8.419-9.109-5.935-3.631zM224.226 96.986l9.64 15.787 2.294-10.42z"/><path fill="#a7924e" d="M221.697 66.781l-2.716 19.971 6.953 2.793 3.758-16.368z"/><path fill="#dcd2d0" d="M225.934 89.545l-11.231 47.051h-24.291l20.427-20.426.569-14.528 7.573-14.89z"/><path fill="#e8d47d" d="M135.068 78.63L122.51 59.86l12.558-38.367L176.611-.038l16.285 8.281 31.33-1.932 33.261 49.133 4.693 28.431-32.488 47.872 10.957-49.804-27.602-22.083-13.249-22.358h-58.242l-7.729 8.557z"/><path fill="#a7924e" d="M122.51 59.86l11.317-13.801 1.241 32.571z"/><path fill="#cbb76a" d="M141.556 37.502l6.624-8.281-13.112-7.728L122.51 59.86z"/><path fill="#a7924e" d="M148.18 29.221l14.078 8.281h-20.702zM162.258 37.502l30.087-10.765 7.453 10.765z"/><path fill="#cbb76a" d="M192.896 8.243l-30.638 29.259 30.087-10.765 31.881-20.426z"/><path fill="#fdf5b5" d="M224.226 6.311l-31.881 20.426 20.702 33.123 37.358-14.877z"/><path fill="#cbb76a" d="M240.649 81.943l21.531 1.932-4.693-28.431-7.082-10.461-37.358 14.877z"/><path fill="#a7924e" d="M240.649 81.943l21.531 1.932-32.488 47.872z"/><path fill="#b3952d" d="M206.048 263.639h-39.303l-10.736-6.547 10.736-4.735h39.303l10.72 4.735z"/><path fill="#b3952d" d="M182.883 225.037h9.053v30.139h-9.053z"/><path fill="#aca9a8" d="M196.217 382.793l-8.807.912-8.808-.912V261.584h17.615z"/><path fill="#7d5c1b" d="M211.407 241.93l28.025 9.363 22.472-27.188-26.796-8.57-16.557 16.252z"/><path fill="#8c681c" d="M218.551 231.787l20.881 19.506-31.259 1.287-16.074-11.771z"/><path fill="#957f20" d="M247.621 219.334l-10.947 15.412 2.758 16.547 22.472-27.188zM180.156 218.355l7.253-4.187 7.253 4.187v8.375l-7.253 4.188-7.253-4.188z"/><path fill="#e5e4e4" d="M196.217 382.793l-8.807-7.619-8.808 7.619 9.421 9.441z"/><path fill="#d8d6d5" d="M187.41 261.584h-8.808v121.209l8.808-7.619z"/><path fill="#957f20" d="M206.047 263.639l10.72-6.547h-60.758l10.736 6.547z"/><path fill="#f3d8d4" d="M173.717 252.357l22.5 9.227-8.807 10.836-17.485-4.707z"/><path fill="#957f20" d="M221.209 263.639v-11.664l-1.949.072-8.939 5.045 8.833 6.547zM152.558 263.639l.024-11.282h1.969l8.894 4.735-8.833 6.547zM187.409 230.918v20.375l4.69-10.484-.163-12.504z"/><path fill="#fef3f1" d="M173.717 252.357l18.382-11.548 16.074 11.771-11.956 9.004z"/></svg>