<svg xmlns="http://www.w3.org/2000/svg" viewBox="-149.355 -76.4 400 400"><path fill="#c1b274" d="M83.688 73.868l-1.686-9.78 3.034-20.231 7.756-18.207 5.059 6.068 1.01 28.324-3.371 16.859z"/><path fill="#a09160" d="M74.584 45.881l9.104 27.987 9.104-48.218-6.407 4.046z"/><path fill="#efd0cb" d="M74.247 109.27l.675 13.152 11.463 10.114 6.743 5.058 16.185 1.013 11.128-2.698-31.357-50.24-7.082-1.687-5.058 8.429z"/><path fill="#ffeee9" d="M3.776 98.819l1.348-13.827 10.453-1.347-2.697 9.44zM48.284 102.528l15.847 16.185 10.791 3.709 5.058-28.324 2.022-10.116-8.43.674zM17.601 124.444L5.124 105.898 20.635 86.68l7.755-4.721 9.442 7.08 27.649-9.44-.337 5.731z"/><path fill="#efd0cb" d="M21.984 108.933l-7.082 6.408-1.685 6.405 9.104.337.674-7.08z"/><path fill="#ccad14" d="M48.284 102.528l-.675-8.093 17.872-14.836 16.521 4.383-25.964 18.883z"/><path fill="#e5c828" d="M15.577 83.645L3.776 98.819l1.348 7.079 4.722 1.688L28.39 81.959z"/><path fill="#2b2b2b" fill-opacity=".102" d="M-25.896 308.546l79.911 12.474 77.553-10.788-77.89-9.103z"/><path fill="#c1b274" d="M117.743 66.112L95.49 76.901l3.709-15.848 3.369-3.034z"/><path fill="#e2d086" d="M122.128 6.43L95.49 76.901 92.792 25.65l-4.385-5.057-3.033-50.916 4.046-3.034 3.035-8.43 7.08 2.361L118.08-7.057z"/><path fill="#f4d75d" d="M-1.282 141.64l-3.709 5.396v6.405l11.802 12.14 38.101-.676 7.755-7.754-1.012-6.405-.338-5.396-33.379-14.838zM90.096 298.767l-12.479-2.698-8.092 15.175 31.021-.338z"/><path fill="#b58b00" d="M96.163 280.559l-1.348 13.153 5.731 17.194 3.036-18.545z"/><path fill="#ccad14" d="M96.163 280.559l-8.091-6.405-7.418 3.033-3.037 18.882 22.929 14.837z"/><path fill="#f4d75d" d="M-10.386 309.556l23.941.338-1.687-10.116-8.092-5.731z"/><path fill="#b58b00" d="M31.425 288.991l-6.406 2.022-3.035 8.427 4.046 9.781z"/><path fill="#ccad14" d="M10.52 281.235l6.069-4.383h7.418l7.418 12.139-17.87 20.903-9.779-15.847z"/><path fill="#856400" d="M-1.956 174.01l7.418 65.413 4.384 2.361 20.231-2.697 5.732-3.034 5.731-19.557-.337-6.407-5.057-7.756-29.672-24.614z"/><path fill="#9e7700" d="M65.144 175.021l-25.289 22.255-5.395 8.766 18.543 28.324 9.104 3.034 21.581-2.36 5.396-4.383-6.407-45.184-11.127-12.474z"/><path fill="#755800" d="M53.003 234.366l36.081-3.709 7.079 49.902-15.509-3.372zM10.52 281.235l13.487-4.383 11.802-40.799-30.347 3.37z"/><path fill="#ccad14" d="M.741 168.614l-2.697 5.396 36.416 32.032-22.254-33.043-5.395-3.035zM48.621 171.649L33.447 200.31l1.013 5.732 37.09-33.043-5.396-3.71z"/><path fill="#e5c828" d="M6.811 169.964l-.337 3.035 27.986 33.043 14.498-33.718-1.349-3.035z"/><path fill="#ccad14" d="M3.102 167.266l3.709-5.732 36.752-1.35 6.745 7.082-1.35 5.058-42.484.675z"/><path fill="#e5c828" d="M16.926 161.196l10.791-2.358-.338 17.532-10.116-2.698z"/><path d="M16.926 157.151l.337 19.557 13.487-.338-.337-19.219H16.926zm0 4.045l9.441-.336-.337 11.801h-8.767l-.337-11.465z" fill="#b58b00"/><path fill="#ffeee9" d="M-9.037 163.894l4.384-12.475 11.464 10.115-.337 11.465-8.43 1.011zM51.655 150.746l-8.092 9.438 5.395 12.14 21.58-.337-5.394-13.149z"/><path fill="#efd0cb" d="M69.525 152.093l-17.87-1.347 19.895 22.253 4.72-11.803zM-12.746 160.522l10.79 13.488-2.697-22.591z"/><path fill="#ccad14" d="M-30.279 116.689l42.485 12.476 5.057 7.418-21.916 14.836z"/><path fill="#e5c828" d="M17.263 136.583l4.047-9.779-3.709-7.417-17.535-5.396-30.345 2.698z"/><path fill="#f4d75d" d="M3.776 98.819l-34.055 17.87 47.88 2.698z"/><path fill="#b58b00" d="M17.263 136.583l7.081-14.5 11.465-10.789 19.218 22.592-3.372 16.86z"/><path fill="#ccad14" d="M17.601 119.387l-.338 17.196 18.546-25.289-6.408 1.011zM55.364 111.631l-19.555-.337 15.846 39.452 23.267-28.324z"/><path fill="#e5c828" d="M35.809 106.236l11.8-11.801 27.313 27.987-39.113-11.128z"/><path fill="#f4d75d" d="M17.601 119.387l30.008-24.952-11.8 16.859z"/><path fill="#ffeee9" d="M86.385 132.536l-16.86 19.557 2.025 20.906 48.891-37.09z"/><path fill="#cea39f" d="M26.367 77.576l3.034-4.385 29.673-3.707-13.15 16.86-11.802 9.439z"/><path fill="#efd0cb" d="M63.457 42.509L33.786 72.855l.674 3.372 18.207-2.359-18.545 21.915 31.359-16.184L92.792 25.65l-32.37-36.753-4.044 7.079z"/><path fill="#cea39f" d="M77.281 18.906l15.511 6.744-.675-9.103-6.07-4.385z"/><path fill="#c1b274" d="M78.292-33.695L62.783-20.208l-2.361 9.105 16.859 30.009L91.106-6.045 89.42-33.357z"/><path fill="#ffeee9" d="M75.933-3.011l1.348 21.917 14.836-2.359-1.011-22.592z"/><path fill="#cea39f" d="M81.665 2.047v8.767L87.397.362z"/><path fill="none" d="M126.847 14.522L72.899-73.483M40.192-26.95l32.707-46.533"/><path fill="#fff7ae" d="M108.976-48.193L72.899-73.82l1.348 10.116 11.8 18.882 6.408 3.035L122.128 6.43z"/><path fill="#c1b274" d="M61.097-67.075v10.114l2.697 8.768 14.498 14.498 11.128.338 5.395-4.048-21.916-36.078z"/><path fill="#e2d086" d="M25.693-51.565l6.407 3.372 16.521-2.36 12.476-6.408 11.802-16.522-38.102 5.059z"/><path fill="#e2d086" d="M41.54-18.858l-1.348-8.092-2.023-8.093 12.476-18.209 10.452-3.709L89.42-33.357 60.422-11.103l-8.429 1.348z"/><path fill="#c1b274" d="M7.485-30.66l2.698 7.755 4.046 3.709 19.557-2.023 6.406-5.731 20.905-30.011-35.404 5.396-9.779 4.383z"/><path fill="#e2d086" d="M-2.969-44.147L-13.421-25.94l3.709 5.058 4.384 3.709 11.465-1.349 4.046-4.383 15.51-28.66L4.45-48.193z"/><path fill="#ffeee9" d="M-8.025 58.019l21.58 21.242 20.905-3.034 30.684-28.324-4.722-59.006-20.23-15.847-49.904 6.068-6.406 5.059-2.36 11.463z"/><path fill="#efd0cb" d="M-2.293 19.917l-13.15-7.08 6.744-3.709 15.51 4.72 2.697 4.721 1.685 10.453-3.371 10.452zM14.902 17.894l2.024-5.732L33.11 3.058l11.802 2.024-14.499 9.44-9.778 23.941-5.058-10.791z"/><path fill="#cea39f" d="M15.577 44.532l-7.755-5.058 6.07-3.372 6.743 2.361z"/><path fill="#fff5f3" d="M9.508 18.569l5.394-.675 5.733 20.569-12.813 1.011z"/><path d="M-3.477 17.185c2.007-.306 3.88 1.073 4.185 3.079.307 2.005-1.072 3.877-3.077 4.183-2.006.306-3.879-1.072-4.184-3.077-.306-2.006 1.073-3.879 3.076-4.185zM30.688 11.98c2.005-.306 3.879 1.074 4.185 3.079.305 2.005-1.073 3.878-3.078 4.184-2.005.306-3.879-1.072-4.185-3.077-.304-2.008 1.073-3.88 3.078-4.186z" fill="#2b2b2b"/><path d="M4.113 45.544c.931 0 1.686.753 1.686 1.685s-.755 1.686-1.686 1.686c-.931 0-1.687-.754-1.687-1.686.001-.932.757-1.685 1.687-1.685z" fill="#efd0cb"/><path fill="#e5c828" d="M14.902 59.031l-7.08-6.07 26.3-3.37-8.429 8.428z"/><path fill="#fff" d="M15.577 55.658l-3.371-3.372 16.858-2.022-5.732 4.721z"/><path fill="#b58b00" d="M17.601 49.591l-4.721-.677-5.058 4.047 26.3-3.37-11.801-2.362z"/><path fill="#a09160" d="M-9.037 7.778l-6.406 5.059 6.744-2.361 15.51 3.372-1.349-3.709zM17.601 8.115l-.675 4.047 16.521-8.43 11.465 1.35-11.465-4.047z"/><path fill="#fff7ae" d="M-22.187-25.265l3.709 20.905L4.45-48.193l-9.778 1.685z"/></svg>