<svg xmlns="http://www.w3.org/2000/svg" viewBox="-152 -152 400 400"><path fill="#967777" d="M-34.926 56.057V50.37l-3.791-22.745h-6.636l-1.896 10.423-31.277-4.737-.945 7.582 18.004 5.687 17.06 22.745z"/><path fill="#b08f8f" d="M-61.467 65.534V46.58l16.114 1.895.946 20.85z"/><path fill="#eaeceb" d="M-24.503 62.69l-4.736-9.478-5.687-2.842-4.741 8.529 3.791 4.74 9.478 1.895z"/><path fill="#c2c1c2" d="M-39.667 58.899l-4.74 10.426 8.531 5.687 9.478-9.478z"/><path fill="#aa8e30" d="M-8.389 58.899l-12.323-3.791-8.527-1.896-6.637 21.8 21.801 13.269z"/><path d="M10.566 28.571s-14.218-8.527-14.218-7.582c0 .95-17.059 35.068-17.059 35.068l6.636 33.169 19.9-17.06 4.741-43.595z" fill="#897a2f"/><path fill="#967777" d="M130.926 63.639l3.791-13.269V29.52l6.637-.949 1.895 10.427 30.327-6.636 1.896 5.686-19.904 8.532-11.373 25.586z"/><path fill="#eaeceb" d="M122.399 72.166v-.945l2.841-15.164 9.477-5.687 4.741 12.32-5.686 8.531-9.478 2.841z"/><path fill="#c2c1c2" d="M139.458 62.69l4.737 9.476-8.528 7.582-11.373-5.686z"/><path fill="#aa8e30" d="M106.285 72.166l9.478-9.476 9.477-6.633 10.427 23.691-23.695 19.905z"/><path fill="#897a2f" d="M92.072 18.148l5.686-4.742 18.005 49.284-3.791 36.963-21.796-21.8z"/><path fill="#2c2b2b" fill-opacity=".102" d="M-46.303 226.65l98.569 19.905 84.347-17.06-87.192-9.477z"/><path fill="#313131" d="M-.807 222.859l-14.218 4.741v4.736l55.918.95-.949-5.686-6.633-7.582z"/><path fill="#393939" d="M57.952 225.704l-4.74 7.582v4.737h40.755v-3.791zM26.675 198.218l-13.268 5.687-28.432 24.641h54.969v-16.109l-13.269-13.268v-.951z"/><path fill="#444648" d="M68.375 191.586l11.373 16.11 14.219 26.536-40.755-.946 1.896-20.85z"/><path fill="#6b5321" d="M52.266 152.727l-1.896 24.64 4.738 35.069 24.64-4.74 4.742-37.911z"/><path fill="#7e5f26" d="M21.939 150.831l-12.323 16.11 3.791 36.964 27.486 7.582 2.842-33.169z"/><path fill="#98732c" d="M5.825 123.344l3.791 43.597 34.119 11.377 1.895-30.332-.946-38.856-29.382 6.633-10.423 1.895z"/><path fill="#7e5f26" d="M69.325 110.076l-30.327 4.741 6.632 32.223 4.74 30.327 34.12-7.582 8.527-61.604z"/><path d="M23.834 93.017l15.164 21.8 23.692 18.005 31.277-25.587-2.846-29.382s-52.123-4.736-53.073-4.736c-.946-.001-14.214 19.9-14.214 19.9z" fill="#897a2f"/><path fill="#aa8e30" d="M12.461 67.43l-6.636 4.736v18.01l3.791 5.686-3.791 1.896-.946 19.9 17.06 12.323 17.059-15.164-2.845-31.278zM54.161 57.003L36.153 83.539l54.023-5.686 7.582-64.447-16.114-8.527z"/><path fill="#b8a04f" d="M10.566 26.675l-.95-15.164-13.269 8.532 9.478 52.123 30.328 11.373-.946-55.914-24.641.946z"/><path d="M75.012 22.884s-18.955 37.909-21.8 37.909c-1.896 0-32.224-.945-32.224-.945l-9.477-39.805L48.475 9.616l25.587 14.218.95-.95z" fill="#c2c1c2"/><path fill="#444648" d="M37.102 23.834l-4.74 7.582-6.633 23.692-.949 6.635 11.373 21.796 15.164-22.746-1.896-4.736-5.686-24.641z"/><path fill="#c7b479" d="M62.69 39.944L49.421 56.057 36.153 83.539l41.7-29.378-5.687-17.059zM16.252 42.789l9.477 13.268 10.424 27.482L7.72 52.266l5.687-16.113z"/><path fill="#d7c89f" d="M61.743 18.148l.947 10.423-13.269 27.486 36.014-20.85-3.791-30.328zM19.093 20.043l-3.791 7.582 10.427 28.432L2.984 33.311l6.632-21.8z"/><path fill="#393939" d="M24.78 15.302l7.582 16.114h11.373l10.426-15.164L40.893 3.929z"/><path fill="#967777" d="M54.161-2.703L70.271 7.72l4.741-13.268 6.632-31.274v-65.396l-38.855-16.113V.138z"/><path fill="#795a59" d="M17.198-11.235l4.741 14.219.945 8.527 10.427.95h9.478l16.11-3.791 10.426-23.695-8.532 3.79-31.273-5.686zM74.062-57.676l-4.737 5.691 12.319 15.163 1.895-11.372z"/><path fill="#393939" d="M69.325-108.853v12.322l-.95 23.691 13.269 1.896 7.582-4.736 5.686-32.224z"/><path fill="#444648" d="M40.893-139.181l28.432-11.373 25.587 42.65-25.587 11.373-6.635-9.478-19.901-12.322z"/><path fill="#686b6d" d="M-.807-114.54l-9.478-15.164 15.164-20.85h64.446l-20.85 21.8z"/><path fill="#b08f8f" d="M-10.285-129.704l-8.531 13.269-1.896 66.345L-1.757-9.339l62.55-1.896 1.897-94.774-14.215-22.745z"/><path d="M-7.444-98.427l10.427 6.632 4.737 8.532 4.741 3.791 3.791-3.791 6.632-8.532 19.905-7.582 8.528 6.636-12.319 12.319-15.164 22.746-11.373-1.896c-.95 0-8.532 1.896-8.532 1.896l-9.477-20.851-7.582-13.268 6.636-4.737h.946l-1.896-1.895z" fill="#967777"/><path fill="#393939" d="M14.357-56.726l-1.896 2.841 2.841 4.741 25.591 4.741-3.791-7.582-20.85-5.691zM8.67-57.676L-7.444-50.09l-.945 4.737 18.955-3.791 1.895-4.741z"/><path fill="#795a59" d="M8.67-66.203l-6.636 6.632 10.427 5.686 9.478-5.686z"/><path fill="#393939" d="M-15.971-95.585l7.582-4.737 13.268 3.791-1.895 4.737-11.373-5.687-6.636 3.791zM20.989-96.531l20.85-5.687 9.478 5.687-.947 2.841-8.531-3.791-19.9 4.741z"/><path fill="#c3a5a4" d="M7.72-84.212h8.532l5.687 24.641H2.034z"/><path fill="#795a59" d="M-3.653-43.458l39.806-.945-9.478 16.109H4.879z"/><path fill="#b08f8f" d="M73.116-79.471l16.11 3.791-5.687 27.486-14.214-3.791z"/><path fill="#795a59" d="M76.907-62.412l.946-9.478 5.686 1.896z"/><path fill="#eaeceb" d="M75.012-54.83l-.95 6.636 4.741 1.895.945-7.586zM75.012-5.548L42.789 12.461l19.901 16.11L81.644 4.879zM9.616 11.511l12.323-8.527 11.372 9.477-18.009 15.164z"/><path fill="#b8a04f" d="M5.825 90.176l17.059 1.896-.945 7.581-16.114-1.895zM55.108 92.072l25.59-3.791.946 8.527-24.641 3.791z"/><path d="M140.404 51.317l3.791 20.85s16.113-4.736 16.113-5.686c0-.945-3.79-19.9-3.79-19.9l-15.164 4.737h-.95z" fill="#b08f8f"/><path fill="#fff" d="M.138-41.562h31.278L24.78-30.189l-18.955-.946z"/><circle cx="-1.757" cy="-81.367" r="3.791" fill="#2b2c2b"/><path d="M37.102-86.108c2.094 0 3.791 1.701 3.791 3.791 0 2.095-1.697 3.791-3.791 3.791s-3.791-1.696-3.791-3.791c0-2.09 1.697-3.791 3.791-3.791z" fill="#2b2c2b"/><path fill="#654f26" d="M45.63 147.04l-23.691-17.059 17.059-15.164 23.692 18.955z"/><path fill="none" d="M-151.5-151.5h399v399h-399z"/></svg>