<svg xmlns="http://www.w3.org/2000/svg" viewBox="0 0 400 400"><path opacity=".1" fill-rule="evenodd" clip-rule="evenodd" fill="#33302d" d="M82.61 379.831l37.449 8.283 24.852-3.451L237.28 400l89.679-17.046-103.323-16.078-68.048 3.996-13.955 2.142-36.896 2.029z"/><path fill-rule="evenodd" clip-rule="evenodd" fill="#8a8786" d="M107.844 376.944l-3.107-1.901 1.971-1.441 19.45.133 2.704 1.308-3.038 1.901z"/><path fill-rule="evenodd" clip-rule="evenodd" fill="#d1af01" d="M285.272 156.036l-4.827 6.97-.8 53.221 3.819 3.852 3.51 4.549 20.839 2.842 6.164-3.149z"/><path fill-rule="evenodd" clip-rule="evenodd" fill="#4f3d2f" d="M249.533 67.297l4.357-27.024 15.438 4.87 16.892 7.617 4.773 6.528-4.466 11.928-4.88 2.821z"/><path fill-rule="evenodd" clip-rule="evenodd" fill="#624d39" d="M254.102 63.697l32.425 7.519-11.975 31.972-4.137-4.917-.837-4.398 7.508-18.146-8.769-1.641-4.122 16.627-2.861 2.996-5.547-7.772-4.106-17zM286.054 102.369l-7.938 14.024-6.625-5.034 3.143-8.387z"/><path fill-rule="evenodd" clip-rule="evenodd" fill="#4f3d2e" d="M278.116 116.393l-5.83-22.466-5.347 2.905-9.475 22.636 1.408 5.613z"/><path fill-rule="evenodd" clip-rule="evenodd" fill="#76614e" d="M239.969 31.469l8.704 8.983 5.217-.179 15.591 7.21 12.848-3.083 2.222-11.253-19.434-24.868-7.948 1.091z"/><path fill-rule="evenodd" clip-rule="evenodd" fill="#624d39" d="M242.592.151l-19.383 10.071-14.574 15.216 1.498 8.224 6.008 4.109 30.444-4.644 18.532-24.848z"/><path fill-rule="evenodd" clip-rule="evenodd" fill="#624d39" d="M178.574 13.579l.405 5.842 5.763 7.959 3.943-.154 1.718 5.719 14.12 5.363 5.61-4.646 5.717-13.997-2.841-13.796-6.865-5.313z"/><path fill-rule="evenodd" clip-rule="evenodd" fill="#76614e" d="M163.552 43.836l15.022-30.257 10.111 13.647-1.679 6.613-9.115 8.759-3.911 2.536-6.567 1.096z"/><path fill-rule="evenodd" clip-rule="evenodd" fill="#624d39" d="M166.721 67.53l-3.169-23.694 10.22-3.626 3.046 7.035 1.788 17.874-4.593 3.967z"/><path fill-rule="evenodd" clip-rule="evenodd" fill="#4f3d2e" d="M166.721 67.53l8.717-2.945 2.988 6.879 1.967 18.142-2.619 1.951z"/><path fill-rule="evenodd" clip-rule="evenodd" fill="#d4aba5" d="M206.138 136.733l1.992-3.341 21.907-1.344 20.335-4.99-5.517 26.277-4.367 11.474-18.349 24.028-7.105.419 1.488-24.983-6.05-12.561.464-6.091z"/><path fill-rule="evenodd" clip-rule="evenodd" fill="#f2d6d2" d="M226.065 136.415l18.201-.633-6.001 24.835 2.223 4.192 8.741-14.773 3.82-11.431 15.873-36.865-1.983-4.908-5.605-3.123-7.232-30.012-3.333-5.565-1.669 42.02-25.464 31.463z"/><path fill-rule="evenodd" clip-rule="evenodd" fill="#fef2f0" d="M203.411 136.776l22.654-.361 26.984-30.346 1.053-42.372-.212-23.424-7.305-7.146-11.704-9.716-15.54 3.964-9.208 6.287-21.448-6.436-14.913 12.984 2.772 65.689z"/><path d="M196.013 108.112l29.352-7.959 13.12 13.517 14.792-16.731.826-33.242 7.231 30.012-17.068 42.073-18.201.633-22.654.362-26.867-30.877v-6.936l18.766 20.299.703-11.151zm3.738 3.359l.033 12.63 6.413 6.938 17.792-.969 10.636-12.033-10.218-12.975-24.656 6.409z" opacity=".1" fill-rule="evenodd" clip-rule="evenodd" fill="#161511"/><path fill-rule="evenodd" clip-rule="evenodd" fill="#d4a8a2" d="M261.334 93.709l7.588 8.031 3.364-7.813-3.98-3.972z"/><path fill-rule="evenodd" clip-rule="evenodd" fill="#fef2f0" d="M265.278 71.381l-3.944 22.328 10.952.218 8.362-19.426z"/><path fill-rule="evenodd" clip-rule="evenodd" fill="#d4a8a2" d="M269.38 77.084l5.269.982-7.214 7.896z"/><path fill-rule="evenodd" clip-rule="evenodd" fill="#f2d6d2" d="M199.852 67.132l-14.126-3.58-1.296 3.581 8.383 8.777 5.988 21.093 9.652-20.02-7.017-7.954zM216.184 68.671l-8.08 6.374 5.084 21.958 13.137-21.54 10.036-7.533-1.561-3.118-14.505 1.542z"/><path fill-rule="evenodd" clip-rule="evenodd" fill="#d4a8a2" d="M198.801 97.003l7.786 8.243 6.601-8.243z"/><path fill-rule="evenodd" clip-rule="evenodd" fill="#695444" d="M183.167 65.812l3.7-3.676 13.773 3.242.796 3.651-14.73-4.03-2.276 2.134zM216.184 68.671l.776-3.468 16.603-1.707 4.716 3.007-1.918 1.427-2.258-1.299z"/><path fill-rule="evenodd" clip-rule="evenodd" fill="#fef8f8" d="M198.801 97.003l5.987-21.54-3.352-6.434 14.748-.358-6.383 6.599 3.387 21.733-7.417 2.501z"/><path fill-rule="evenodd" clip-rule="evenodd" fill="#d4a8a2" d="M201.215 112.744l20.929-5.17 2.263-2.512 1.623 2.064-2.457 2.79-21.646 5.39z"/><path fill-rule="evenodd" clip-rule="evenodd" fill="#e7c600" d="M187.051 170.482l-3.304-4.079-7.419 27.527 8.757 33.78 4.831 3.71 3.562-3.847-3.189-29.791z"/><path fill-rule="evenodd" clip-rule="evenodd" fill="#f2d6d2" d="M165.334 256.488l15.894-18.04.628-4.938-6.186-5.464-16.839-.566-6.69 7.531z"/><path fill-rule="evenodd" clip-rule="evenodd" fill="#a9a6a5" d="M152.141 235.011l-2.01-3.27 5.203-1.244 16.17.321 3.806 1.718-2.006 3.094z"/><path fill-rule="evenodd" clip-rule="evenodd" fill="#fef2f0" d="M137.717 211.534l12.414 20.207 14.757-20.653-12.391-12.747z"/><path fill-rule="evenodd" clip-rule="evenodd" fill="#bf9c13" d="M175.31 232.536l9.685 9.159 5.104-8.715 2.05-3.046-3.022-6.834-4.721-6.884-3.093-1.003-6.215 6.195-.906 8.88z"/><path fill-rule="evenodd" clip-rule="evenodd" fill="#ccc9ca" d="M158.909 209.525l-6.412-11.184 4.534-3.385 17.428 1.966 3.966 2.79-2.716 8.203 2.672 9.483-2.514 8.201-.557 6.937-25.179-.795z"/><path fill-rule="evenodd" clip-rule="evenodd" fill="#fef2f0" d="M171.803 203.473l4.064 22.126 8.539-9.383-5.981-16.504z"/><path fill-rule="evenodd" clip-rule="evenodd" fill="#e5e4e4" d="M155.262 193.242l-2.765 5.099 25.928 1.371-2.097-5.782z"/><path fill-rule="evenodd" clip-rule="evenodd" fill="#ccc9ca" d="M107.58 338.698l-2.843 4.898 3.846 2.416 17.015-.095 3.208-2.442-2.311-4.896z"/><path fill-rule="evenodd" clip-rule="evenodd" fill="#a9a6a5" d="M104.737 343.596l15.614-.066-.075 28.973-2.768 2.54h-12.771z"/><path d="M109.635 372.26l7.873.865v-2.459l-2.703-.242 1.779-2.098.924.422v-2.393l-1.599-.711-2.075 2.158-2.319-2.289-1.88 6.747zm4.07-1.957l-1.66-.184.242-1.348 1.418 1.532zm-.865-20.847l2.478.324-.968-1.668-1.559.402.049.942zm-1.794 2.3l-.358-4.707 4.439-1.492 2.38 2.871v4.224l-6.461-.896zm.079 1.598l-.608 4.516 6.991.861v-2.119l-1.691-.098.433-1.846-1.772.076-.121 1.707-1.826-.123.596-2.932-2.002-.042zm-1.241 7.029l.555 4.715 7.069-.256v-2.377l-1.762.277-.214-2.182-1.917.262.263 2.109-1.673.217-.278-3.09-2.043.325z" fill-rule="evenodd" clip-rule="evenodd" fill="#e5e4e4"/><path fill-rule="evenodd" clip-rule="evenodd" fill="#74716f" d="M149.026 383.788h46.829v-8.043l-5.16-3.206-30.588.881-11.081 2.325zM241.255 391.651h31.996v-8.041l-3.526-3.208-21.702-.189-6.768 3.397z"/><path fill-rule="evenodd" clip-rule="evenodd" fill="#646060" d="M175.748 355.903l-26.722 19.842h46.829v-14.478l-2.948-5.005-11.618-2.502zM251.356 361.801l-3.755 4.469-6.346 17.34h31.996l-5.809-17.34-3.396-4.825z"/><path fill-rule="evenodd" clip-rule="evenodd" fill="#c29213" d="M184.857 275.87l-4.71 41.372 1.705 5.313 25.873 13.656 5.954-2.501 16.25-29.356-1.635-9.457-37.994-22.968z"/><path fill-rule="evenodd" clip-rule="evenodd" fill="#a47a1b" d="M180.147 317.242l33.532 16.468-17.824 32.198-20.107-10.005z"/><path fill-rule="evenodd" clip-rule="evenodd" fill="#c29213" d="M229.929 304.354l7.351 29.289 7.333 2.187 26.817-8.025 3.831-5.943 5.098-30.206-4.938-5.708-20.41-7.161-21.91 14.744z"/><path fill-rule="evenodd" clip-rule="evenodd" fill="#a47a1b" d="M280.359 291.656l-22.395-8.199-.972-5.191 6.826-11.411 15.075 16.461zM217.294 296.072l12.635 8.282 13.654-12.821.977-5.039-19.858-20.425-6.442-.194-3.367 24.493zM237.28 333.643l37.981-11.781-7.606 45.045-21.318 2.82z"/><path fill-rule="evenodd" clip-rule="evenodd" fill="#e7c600" d="M184.857 275.87l32.582 20.293 4.04-27.069 4.721-8.181 1.072-20.198-5.335-6.214-4.494-4.51-23.965-2.418-3.379 5.407z"/><path fill-rule="evenodd" clip-rule="evenodd" fill="#d1af01" d="M225.856 229.642l-4.729 4.196.741 4.143-.389 31.113 33.043 6.066 9.296-2.628 15.362-8.504 10.512-43.084-6.068-6.524z"/><path fill-rule="evenodd" clip-rule="evenodd" fill="#e7c600" d="M226.078 265.051l37.74 7.481-13.725 25.609-28.614-29.047.828-3.096z"/><path fill-rule="evenodd" clip-rule="evenodd" fill="#f2d6d2" d="M287.815 274.324l-1.569-5.011-7.066-5.285-3.779 2.091-11.583 6.413 16.541 19.124z"/><path fill-rule="evenodd" clip-rule="evenodd" fill="#fef2f0" d="M287.815 274.324l-12.414-8.205 6.636-26.378 7.668.981 12.863 4.782 1.487 4.572z"/><path fill-rule="evenodd" clip-rule="evenodd" fill="#d4a8a2" d="M304.055 250.076l-22.018-10.335 4.64-3.238 17.829 2.914 4.185 3.736z"/><path fill-rule="evenodd" clip-rule="evenodd" fill="#e7c600" d="M315.122 243.977l-33.085-4.236 1.427-19.662 35.979 5.002zM219.673 185.171l-.655 45.526 3.053 1.128 9.976-2.314 2.577 2.015 48.84-11.447 1.808-64.043-28.269-8.798-4.212 1.89-.701 16.71-9.571-6.364-4.254 1.143-16.149 21.863z"/><path fill-rule="evenodd" clip-rule="evenodd" fill="#f8e06f" d="M255.64 173.009l-17.375-12.392 14.784-22.012 3.954 8.633z"/><path fill-rule="evenodd" clip-rule="evenodd" fill="#d1af01" d="M270.524 180.958l-5.563 11.557-17.059 2.978-8.894-9.386 5.509 36.757 30.346-9.01z"/><path fill-rule="evenodd" clip-rule="evenodd" fill="#f8da46" d="M239.008 186.107l6.487 13.496 22.349-4.256 2.68-14.389z"/><path fill-rule="evenodd" clip-rule="evenodd" fill="#d1af01" d="M183.747 166.403l2.121 22.362 4.421 9.017 2.093 19.543-3.255 5.775.972 9.88 28.878 1.687 1.921-3.556.277-46.408-1.675-2.301v-20.923l-4.557-.483-6.744 3.815 1.649-11.252-2.974-1.326z"/><path fill-rule="evenodd" clip-rule="evenodd" fill="#f8da46" d="M203.766 172.123l15.734-10.644-8.564-15.858-4.062 6.612z"/><path fill-rule="evenodd" clip-rule="evenodd" fill="#bf9c13" d="M199.118 198.754l9.472-7.685-.798 35.43-18.665-3.399-2.062-21.729 3.224-3.589z"/><path fill-rule="evenodd" clip-rule="evenodd" fill="#f8da46" d="M199.923 203.402l8.667-12.333-22.722-2.304 1.197 12.606z"/><path fill-rule="evenodd" clip-rule="evenodd" fill="#9f751c" d="M234.724 188.912l-12.686-3.625.078-2.807-2.616-.078-.558 55.617 2.926-.038.069-3.482 12.687-2.973-.251-15.957-12.398-3.193.01-4.449 12.562-3.469z"/><path fill-rule="evenodd" clip-rule="evenodd" fill="#e5e4e4" d="M120.351 343.53l-2.843 4.898 3.846 2.416 17.015-.095 3.264-2.321-2.367-5.017z"/><path fill-rule="evenodd" clip-rule="evenodd" fill="#a9a6a5" d="M120.615 381.776l-3.107-1.901 1.971-1.441 19.45.133 2.704 1.308-3.038 1.901z"/><path fill-rule="evenodd" clip-rule="evenodd" fill="#ccc9ca" d="M117.508 348.428h24.125v31.447h-24.125z"/><path d="M219.5 161.479l7.776 13.977-5.16 7.024-2.616-.078v-20.923zm44.318 111.053l11.583-6.413 6.636-26.378-18.219 32.791zm-104.909-63.007l-8.778 22.216 7.021.22 1.757-22.436z" opacity=".1" fill-rule="evenodd" clip-rule="evenodd" fill="#33302d"/><path d="M222.084 215.387c.457.002 9.785 2.296 9.785 2.296l.178 11.828-9.976 2.313.013-16.437zM222.092 187.99c.458.001 9.989 2.702 9.989 2.702l.04 11.645-10.052 2.458.023-16.805z" fill-rule="evenodd" clip-rule="evenodd" fill="#74561a"/><path fill-rule="evenodd" clip-rule="evenodd" fill="#9f751c" d="M217.409 245.332l4.312 4.317 4.599-4.044-4.493-4.393zM217.167 264.778l4.312 4.316 4.599-4.043-4.492-4.393z"/><path fill-rule="evenodd" clip-rule="evenodd" fill="#624d39" d="M290.993 59.288L253.89 40.273l30.661-7.126z"/><path d="M206.144.556c0-1.787 3.989 33.106 3.989 33.106L242.592.151l-36.448.405z" fill-rule="evenodd" clip-rule="evenodd" fill="#76614e"/><path fill-rule="evenodd" clip-rule="evenodd" fill="#4f3d2f" d="M210.133 33.662l25.854-7.023.374-2.466-2.283-3.739-11.676.559z"/><path fill-rule="evenodd" clip-rule="evenodd" fill="#76614e" d="M243.215 54.218l3.37-21.091-12.507-12.693z"/><path fill-rule="evenodd" clip-rule="evenodd" fill="#f2d6d2" d="M198.078 100.859l-2.065 7.253-7.508 2.827zM219.223 97.003l8.292 5.366 8.531-2.865z"/><path d="M158.827 228.318l10.092 1.296.285-6.276-3.757-1.75-2.188 2.194-2.359-2.413-2.073 6.949zm4.251-1.948l-1.715-.221.276-1.392 1.439 1.613zm1.135.145l1.882-2.141.986.36-.08 2.139-2.788-.358zm-1.642-21.751l1.695.299-.556-1.669-1.172.395.033.975zm-1.901 2.349l-.283-4.881 4.625-1.46 1.125 2.958 3.152-2.627 1.059 2.284-2.96 2.331 2.469.603-.269 2.193-8.918-1.401zm.053 1.657l-.715 4.665 9.654 1.365-.169-5.7-2.532.064.39 3.105-1.829-.142.262-1.709-1.999-.183.053 1.772-1.716-.132.672-3.026-2.071-.079zm-.964 7.082l.034 5.067 9.749-.178-.655-5.476-2.426.14.478 2.915-1.606.257-.182-2.26-1.99.232.233 2.187-1.736.196.118-3.23-2.017.15zM122.806 376.874l10.099 1.143-.574-6.682-3.251-1.072-2.075 2.156-2.319-2.289-1.88 6.744zm4.069-1.956l-1.66-.182.241-1.35 1.419 1.532zm1.1.122l1.528-2.166.94.305.253 2.18-2.721-.319zm-1.964-20.969l1.641.258-.565-1.6-1.124.402.048.94zm-1.795 2.301l-.358-4.707 4.44-1.49 1.136 2.836 2.998-2.592 1.062 2.188-2.816 2.303 2.394.541-.221 2.121-8.635-1.2zm.08 1.597l-.609 4.517 9.344 1.15-.263-5.5-2.443.105.431 2.99-1.769-.104.225-1.654-1.932-.141.08 1.709-1.658-.1.596-2.932-2.002-.04zm-.808 6.856l.121 4.891 9.502-.305-.821-5.313-2.339.178.512 2.807-1.546.275-.214-2.182-1.918.262.264 2.107-1.673.221.058-3.123-1.946.182z" fill-rule="evenodd" clip-rule="evenodd" fill="#f0f2f2"/><path opacity=".1" fill-rule="evenodd" clip-rule="evenodd" fill="#33302d" d="M135.293 379.875l-.247-31.447h6.587v31.447z"/><path d="M196.659 77.019c0 2.101-1.702 3.803-3.803 3.803-2.1 0-3.803-1.702-3.803-3.803 0-2.1 1.703-3.803 3.803-3.803 2.101-.001 3.803 1.703 3.803 3.803zM228.495 77.084c0 2.101-1.701 3.803-3.803 3.803-2.1 0-3.803-1.702-3.803-3.803 0-2.1 1.703-3.803 3.803-3.803 2.102 0 3.803 1.703 3.803 3.803z" fill-rule="evenodd" clip-rule="evenodd" fill="#33302d"/></svg>