<svg xmlns="http://www.w3.org/2000/svg" viewBox="0 0 400 400"><path opacity=".1" fill-rule="evenodd" clip-rule="evenodd" fill="#2b2b2b" d="M190.334 371.506l102.657 11.243L225.239 400 100.46 381.333z"/><path fill-rule="evenodd" clip-rule="evenodd" fill="#9e7700" d="M219.143 364.5l-6.914 17.502 18.239 2.334h24.194L252.661 373l-18.162-5.498z"/><path fill-rule="evenodd" clip-rule="evenodd" fill="#755800" d="M212.229 382.002v8.25l42.433 1.25v-7.166z"/><path fill-rule="evenodd" clip-rule="evenodd" fill="#9e7700" d="M177.99 366.667v9.334l-26.499 2.166-26.499-4.166 25.217-18 15.033 2.5z"/><path fill-rule="evenodd" clip-rule="evenodd" fill="#755800" d="M124.992 374.001v7.001l52.998 1.332v-6.333z"/><path fill-rule="evenodd" clip-rule="evenodd" fill="#727272" d="M203.238 314.333l-25.248 52.334-12.526-4.69L155.411 296l21.749-7.751z"/><path fill-rule="evenodd" clip-rule="evenodd" fill="#828282" d="M177.16 288.249l-11.696 73.728-15.255-5.976-3.051-67.752 5.937-13.788 8.543-6.402z"/><path fill-rule="evenodd" clip-rule="evenodd" fill="#5e5e5e" d="M160.97 268.56l38.724 52.098 24.752-20.991 8.792-15.518-41.657 4.1z"/><path fill-rule="evenodd" clip-rule="evenodd" fill="#727272" d="M221.556 297.304l-11.312 34.087 24.535 37.09L252.661 373l2.311-75.333-8.391-9.418-13.343-4.1z"/><path fill-rule="evenodd" clip-rule="evenodd" fill="#828282" d="M221.556 297.304l13.223 71.177-15.636-3.981-19.449-43.842z"/><path fill-rule="evenodd" clip-rule="evenodd" fill="#ccad14" d="M156.322 166l-35.669 63.667h35.622zM268.655 173.167L297.989 240h-43z"/><path fill-rule="evenodd" clip-rule="evenodd" fill="#9e7700" d="M238.114 162.143l21.769 21.054-17.789 88.303-51.098 19.5-41.591-32.5 6.917-92.5 11.54-2.928z"/><path fill-rule="evenodd" clip-rule="evenodd" fill="#856400" d="M190.996 291l6.661-91 20.371-11.333 33.207-21.788 17.42 6.288L255.734 280.5l-33.245.667z"/><path fill-rule="evenodd" clip-rule="evenodd" fill="#fff" d="M181.875 159.954L197.657 200l40.457-37.857z"/><path fill-rule="evenodd" clip-rule="evenodd" fill="#969696" d="M259.614 103.938l4.541 4.562v23l-16.842 3.64z"/><path fill-rule="evenodd" clip-rule="evenodd" fill="#7a7a7a" d="M144.488 52l-10.5 13.333 2.334 7.167 4.183 13.45 3.983-15.7z"/><path fill-rule="evenodd" clip-rule="evenodd" fill="#ffeee9" d="M144.488 52l-10.5 89.5 42.001 6.5 26 25.167 31.5-16.167 20.5-49.833-7.5-12.667 1.5-31L221.461 41l-39.093 3.397-14.042-4.73z"/><path fill-rule="evenodd" clip-rule="evenodd" fill="#efd0cb" d="M230.938 49.038l-19.965 105.463L175.989 148l18.333 15.167 6.162 14.331 37.63-15.355 9.199-27.003.009-5.64 4.351-4.492 8.394-19.508-13.578-11 1.5-31zM204.989 81.5l-27.75 20-10.5-2-19.581-25.434 9.081-3.816L169.614 69l.285 8.353 9.715.98 4.523-7.583 14.352 3.5z"/><path fill-rule="evenodd" clip-rule="evenodd" fill="#cea39f" d="M176.074 101.278l-5.919 7.222-3.416-9 6.25-2.833z"/><path fill-rule="evenodd" clip-rule="evenodd" fill="#fff5f3" d="M179.614 78.333l-3.54 22.945-2.416-.46-3.002 1.848-3.917-3.166 3.16-22.147z"/><path fill-rule="evenodd" clip-rule="evenodd" fill="#cea39f" d="M149.405 109.083l20.742 4.5h26.425l-14.491 16.625-24.151-2.75z"/><path fill-rule="evenodd" clip-rule="evenodd" fill="#fff" d="M156.275 113.876l13.872 2.582 18.185.625-7.672 10-20.457-2.625z"/><path fill-rule="evenodd" clip-rule="evenodd" fill="#cea39f" d="M167.862 146.742l58.127 8.591-25.505 22.165zM251.673 125.007l-10.184-3.674 5.824 13.807zM246.913 115.457l3.174-9.254 5.47 2.442z"/><path fill-rule="evenodd" clip-rule="evenodd" fill="#969696" d="M144.488 52l2.251-11.499 33.416-13.168-5 7.834-6.829 4.5z"/><path fill-rule="evenodd" clip-rule="evenodd" fill="#adadad" d="M168.326 39.667l11.829-12.334 27.669-2.001-10.797 11.352-19.037 11.353z"/><path fill-rule="evenodd" clip-rule="evenodd" fill="#969696" d="M207.824 25.332l21.831 7.001-3.666 6.334-7.961 4.166-40.038 5.204z"/><path fill-rule="evenodd" clip-rule="evenodd" fill="#adadad" d="M229.655 32.333l39 27.667-13.333 5.333-12.667-.666-24.627-21.834z"/><path fill-rule="evenodd" clip-rule="evenodd" fill="#969696" d="M242.655 64.667l26-4.667 2 38.167-19.333-9.667-12-10.167z"/><path fill-rule="evenodd" clip-rule="evenodd" fill="#7a7a7a" d="M270.655 98.167l-6.5 10.333-15.5-9.333-8.333 20.479-10.667-4.877 9.667-36.436z"/><circle cx="193.988" cy="90.906" r="3.364" fill-rule="evenodd" clip-rule="evenodd" fill="#2b2b2b"/><circle cx="159.239" cy="85.875" r="3.364" fill-rule="evenodd" clip-rule="evenodd" fill="#2b2b2b"/><path fill-rule="evenodd" clip-rule="evenodd" fill="#7a7a7a" d="M184.137 70.75l7.083 1.125 11.77-6.542 1.999 16.167-6.5-7.25-7.269 1.737zM169.614 69l-7.238-.025-8.512-7.475-6.706 12.566 9.081-3.816 5.917 2.194z"/><path fill-rule="evenodd" clip-rule="evenodd" fill="#cea39f" d="M176.074 101.278l28.536 10.989 14.63-1.437-17.626-5.83zM166.739 99.5l-27.956 1.13.455-4.069 17.084.106z"/><path fill-rule="evenodd" clip-rule="evenodd" fill="#474747" d="M224.298 84.112l34.441 12.449 1.144 9.366-11.228-6.76-28.341-4.585z"/><path fill-rule="evenodd" clip-rule="evenodd" fill="#4f5253" d="M169.899 77.063l9.715 1.27v5.042l-12.188-1.5z"/><path opacity=".6" fill-rule="evenodd" clip-rule="evenodd" fill="#755800" d="M182.489 82.125l39.5 5.106-7 19.186-33.75-6.917zM140.489 76.5l26.25 3.5-2.464 16.667-25.703-2.396z"/><path d="M179.614 78.333l-3.54 22.945 43.167 9.552 5.058-26.718-44.685-5.779zm33.625 26.292l-30.625-6.75 1.523-13.25 33.352 3.25-4.25 16.75zM136.322 72.5L133.988 96l32.751 3.5 3.16-22.438-33.577-4.562zm25.834 22.082l-22.282-3.249 1.525-13 22.757 2.5-2 13.749z" fill-rule="evenodd" clip-rule="evenodd" fill="#4f5253"/><path fill-rule="evenodd" clip-rule="evenodd" fill="#f4d75d" d="M238.114 162.143l4.605 1.662 1.186 1.278 2.677.116 4.653 1.68-40.409 37.372-4.634-1.496-.953-1.172-3.014-.109-4.568-1.474z"/><path fill-rule="evenodd" clip-rule="evenodd" fill="#f4d75d" d="M181.875 159.954L197.657 200h-5.251l-2.334-1.417-1.74 1.417h-4.345l-16.125-36.928 4.439-1.072 2.438.143 2.375-1.185z"/><path fill-rule="evenodd" clip-rule="evenodd" fill="#9e7700" d="M202.221 201.473l40.498-37.668 3.862 1.394-40.388 37.556z"/><path fill-rule="evenodd" clip-rule="evenodd" fill="#856400" d="M177.114 160.958L192.405 200h-4.073l-16.031-38z"/><path fill-rule="evenodd" clip-rule="evenodd" fill="#f4d75d" d="M155.411 245.765l36.702 29.976 1.542 5.426-2.659 9.833-30.026-22.44-3.835-9.359z"/><path fill-rule="evenodd" clip-rule="evenodd" fill="#ccad14" d="M192.113 275.741l52.541-9.036v11.213l-11.416 6.231L190.996 291z"/><path fill-rule="evenodd" clip-rule="evenodd" fill="#9e7700" d="M157.135 253.083l34.565 28.292 1.455 1.958-1.831 3.177-32.931-28.092z"/><path fill-rule="evenodd" clip-rule="evenodd" fill="#856400" d="M191.7 281.375l52.954-8.999v4.499l-53.33 9.635z"/><path fill-rule="evenodd" clip-rule="evenodd" fill="#f4d75d" d="M151.575 229.488l7.812 33.149-14.731 5.366-10.011-6.651-13.992-31.685z"/><path fill-rule="evenodd" clip-rule="evenodd" fill="#856400" d="M159.387 262.637l-.993-4.213-2.072-1.174.812-4.171-1.723-7.314-20.766 15.587 2.375 5.06 1.512 1.591.417 2.519 3.041 6.481 9.824-6.48z"/><path fill-rule="evenodd" clip-rule="evenodd" fill="#f4d75d" d="M137.021 266.414l20.114-13.331 1.258 5.335-19.444 12.105z"/><path fill-rule="evenodd" clip-rule="evenodd" fill="#efd0cb" d="M159.387 262.637l1.583 5.923-13.812 19.689-5.168-11.246z"/><path fill-rule="evenodd" clip-rule="evenodd" fill="#f4d75d" d="M261.104 235.894l-10.923 20.459 5.887 25.022 13.973-5.469L297.989 240z"/><path fill-rule="evenodd" clip-rule="evenodd" fill="#9e7700" d="M242.094 271.5l2.56-4.795 1.927-.83.366-3.464 3.234-6.058 19.86 19.553-4.752 6.106-2.925 1.738-.576 2.76-5.053 6.492-9.422-8.419z"/><path fill-rule="evenodd" clip-rule="evenodd" fill="#f4d75d" d="M246.947 262.411l18.342 19.601-3.501 4.498-17.134-19.805z"/><path fill-rule="evenodd" clip-rule="evenodd" fill="#efd0cb" d="M242.094 271.5l-8.856 12.649 21.734 13.518 1.763-4.665z"/><g fill-rule="evenodd" clip-rule="evenodd" fill="#b58b00"><path d="M227.495 221.914l-7.731 11.797c2.185 1.997 4.944 3.365 8.005 3.836l4.696-15.843-3.101-14.671c-4.136.201-7.836 2.029-10.482 4.867l8.613 10.014zM239.779 221.667l3.242 9.05c1.559-2.405 2.474-5.267 2.474-8.347 0-3.902-1.465-7.453-3.86-10.165l-1.856 9.462z"/><path d="M224.997 222.076l-7.401-8.604c-1.789 2.513-2.851 5.578-2.851 8.898 0 3.759 1.353 7.199 3.593 9.87l6.659-10.164zM237.71 221.823l2.214-11.294c-2.349-1.948-5.29-3.199-8.51-3.468l3.112 14.726-4.725 15.943c.107.002.21.016.318.016 4.556 0 8.637-1.993 11.452-5.142l-3.861-10.781z"/></g><path fill-rule="evenodd" clip-rule="evenodd" fill="#f4d75d" d="M160.2 243.482l17.947-9.865 2.031 3.585-17.732 8.981z"/><path fill-rule="evenodd" clip-rule="evenodd" fill="#ccad14" d="M225.352 242.986l15.633 13.678-2.792 2.512-16.19-13.678z"/><g fill-rule="evenodd" clip-rule="evenodd"><path fill="#9e7700" d="M264.155 12.667l12.832 39.373-8.332 7.96-26.163-18.56 7.663-16.108z"/><path fill="#bf8f00" d="M200.186 29.667l15.253-20.003L226.898 5l15.594-5 21.663 12.667-21.663 28.773z"/><path fill="#e2a942" d="M242.492 0l-19.821 35.924-22.485-6.257 15.253-20.003L224.298 0z"/><path fill="#856400" d="M152.408 11.666l21.112 18.282 68.972 11.492-27.053-31.776z"/></g></svg>