<svg xmlns="http://www.w3.org/2000/svg" viewBox="0 0 900 350"><path fill="#B38C2E" d="M253.25 81.419l-1.375 7.171h1.375l2.75-7.171z"/><path fill="#F4D75C" d="M195.394 53.221l-7.757 10.233h16.606z"/><path fill="#CCAE2D" d="M191.516 63.454l-5.15 7.85h18.967l-4.484-7.85zM189.125 79.732l-2.372 3.687 18.58 1.532-2.708-6.529z"/><path fill="#F4D75C" d="M188.97 71.304l-3.635 8.391 19.998.196-3.757-8.587z"/><path fill="#B38C2E" d="M231.989 80.926v7.664L233 86.875l.916-6.25z"/><path fill="#CCAE2D" d="M227.375 77.188l-4.23 4.967 18.688-.468-3.895-5.437z"/><path fill="#F4D75C" d="M226.458 71.916l-3.313 6.13 18.688-1.858-3.5-5.522z"/><path fill="#CCAE2D" d="M227.023 65.895L223.145 73l18.688-2.16-6.037-5.476z"/><path fill="#F4D75C" d="M231.5 59.371l-8.355 8.167 17.688-1.88zM264.5 52.921l-11.25 6.954 15.875 2.369z"/><path fill="#CCAE2D" d="M257.254 60.473l-8.754 7.065 20.625 2.087-2.5-8.375z"/><path fill="#F4D75C" d="M252.258 67.918l-5.883 6.792L268 76.875l-1.746-7.54z"/><path fill="#CCAE2D" d="M250.364 75.11l-5.239 5.515 21.75 2.125-1.581-6.146z"/><path fill="#F4D75C" d="M277.038 79.165l-7.155 5.795 12.992 1.599z"/><path fill="#CCAE2D" d="M272.157 85.239L268 89.986l14.005.907-1.01-4.566z"/><path fill="#B38C2E" d="M857.753 178.229l-.512-5.646-2.35.046 1.149 5.538zM869.554 183.873l-.512-5.644-2.351.044 1.15 5.538z"/><path fill="#E4C824" d="M854.172 154.536l4.911 4.75-10.087 1.57z"/><path fill="#CCAE2D" d="M856.904 159.624l3.574 5.231-11.132 1.593 2.416-6.022z"/><path fill="#E4C824" d="M858.97 165.07l3.091 3.841-13.769 2.589 2.708-5.333z"/><path fill="#CCAE2D" d="M859.801 169.271l3.549 4.084-15.662.52.604-2.375z"/><path fill="#E4C824" d="M867.102 162.925l3.816 3.689-7.835 1.221z"/><path fill="#CCAE2D" d="M869.225 166.878l3.508 3.93-9.22.975 1.717-4.282zM871.475 174.371l2.342 4.446-10.575-.322 1.478-3.047z"/><path fill="#E4C824" d="M870.748 171.018l3.033 4.108-10.59.566 2.645-4.154z"/><g><path fill="#C4C4C3" d="M459.587 122.394l22.663-3.505 46.797 10.835 57.06.236 55.791 16.035 32.887 3.505 41.859 11.175-132.608 44.195z"/><path fill="#CFCECD" d="M661.939 163.209l84.311-5.459 60.918 25.821 50.666-7.988L900 205.5l-62.409 10.698L689.139 190.5z"/><path fill="#C4C4C3" d="M746.867 155.114l11.383 13.636-22.395 29.837-58.757 6.913-22.481-34.372 7.322-7.919z"/><path opacity=".3" fill="#C4C4C3" d="M746.867 155.114l11.383 13.636-22.395 29.837-58.757 6.913-22.481-34.372 7.322-7.919z"/><path fill="#DDDDDC" d="M858.417 173.667l-19.46 42.943-69.258-20.893-9.032-43.35z"/><path fill="#C4C4C3" d="M850.182 192.215l25.994 17.369-12.508 15.311-24.711-8.285z"/><path fill="#CFCECD" d="M900 205.5l-41.583-31.833-8.235 18.548 25.994 17.369z"/><g><path fill="#CFCECD" d="M51.964 222.395L64 206.869 41.5 184.19.056 179.625l172.568-98.699 92.67 16.347 130.962.752L598 175.652l-119.947 42.475z"/><path fill="#A3A2A2" d="M92.884 126.533L96 131.561 41.5 184.19.056 179.625z"/><path fill="#C4C4C3" d="M64 206.869l168.36-90.06 46.902 43.915-227.298 61.671z"/><path fill="#DDDDDC" d="M265.294 103.603l53.091 37.064-33.105 25.53-17.28-13.03-35.64-36.358z"/><path fill="#A3A2A2" d="M316.67 139.469l-51.376-35.866 33.535-11.534 58.49 24.709 30.718 11.627 37.13 26.095 51.143 61.547z"/><path fill="#C4C4C3" d="M171.46 80.926l59.597 37.284 67.772-26.141z"/><path fill="#DDDDDC" d="M373.656 122.969l101.556 5.436 40.958 15.76-88.503 11.668-19.563-13.128z"/></g><g><path fill="#DDDDDC" d="M0 236.909l279.059-77.947 341.001 13.782 23.607-26.077 102.583 8.569L900 235.025v77.35L716.644 350H166.369L102 323l27.559-35.906L59 276.385z"/><path fill="#C4C4C3" d="M59 276.385l220.059-117.423 80.407 9.682 130.121 28.106-360.028 90.344z"/><path fill="#CFCECD" d="M166.369 350l221.807-43.046L351 350zM504.765 268.127L716.644 350l128.159-143.619-63.833-29.787z"/><path fill="#ECECEB" d="M388.999 218.667l212.306-43.125-3.18-3.667-16.702-10.612-65.253-17.098-185.023 11.071z"/></g></g><g fill="#2B2B2B"><path opacity=".1" d="M713.875 232.5l13.756-7.055 30.702-9.944L812.5 219.5l59 25.5-71.5 11.5zM118.79 320.352l43.086-14.955 58.606 9.968-56.401 9.968zM275.404 262.001l21.94 5.894 87.493 51.043 137.665-34.244 73.921-13.36-56.132-17.73-41.26-15.051zM616.335 300.535l58.024-12.717 63.308 12.717-67.186 18.403z"/></g><g><path opacity=".1" fill="#2B2B2B" d="M831.918 293.422l12.014-2.757 10.495 1.423-10.667 3.417z"/><path fill="#9D782C" d="M844.803 284.884l-.418 7.662-2.063-.313-1.136-10.502z"/><path fill="#E4C824" d="M831.918 279.379l12.885-13.458 5.364 11.246-5.364 7.717z"/><path fill="#F4D75C" d="M844.803 265.921v18.963l11.777-5.379z"/><path opacity=".1" fill="#2B2B2B" d="M857.251 300.697l9-1.125 9 2.125-10.25 2.875z"/><path fill="#9D782C" d="M866.251 295.947v6.625l1.917-1.624 2.98-7.192z"/><path fill="#E4C824" d="M866.501 281.915l-10.417 8.366 10.167 5.666 7.082-6.78z"/><path fill="#F4D75C" d="M866.501 281.915l-.25 14.032 12.665-5.666z"/><g><path opacity=".1" fill="#2B2B2B" d="M856.862 276.025l6.004-.841 6.003 1.588-6.837 2.15z"/><path fill="#9D782C" d="M862.866 272.474v4.953l1.278-1.214 1.989-5.377z"/><path fill="#E4C824" d="M863.033 261.983l-6.949 6.255 6.782 4.236 3.967-4.307z"/><path fill="#F4D75C" d="M863.033 261.983l-.167 10.491 8.448-4.236z"/></g><g><path opacity=".1" fill="#2B2B2B" d="M524.333 315.75l12.417-5.5 9.333 6.25-12 2.333z"/><path fill="#E4C824" d="M519.083 301l13.417 8.75 24.333-2.334L540.5 298z"/><path fill="#FFF" d="M531.333 302.666l3.417 2.75 7.333-1.083-4-2.25z"/><path fill="#9D782C" d="M532.5 309.75l1.75 7 2.833-7.417z"/></g><g><path opacity=".1" fill="#2B2B2B" d="M573.75 333.167l10.333-1.917 8.834 3.833-15.334 1.167z"/><path fill="#9D782C" d="M578.333 330.333v5.584l4.584-5.917z"/><path fill="#E4C824" d="M571.833 320.167l6.5 10.166 20.5-.333-9.333-8.167z"/><path fill="#FFF" d="M580.167 323.833L582 326.5l7.333-.167-2.5-2.5z"/></g><g><path opacity=".1" fill="#2B2B2B" d="M498.333 320.333l6.667-2.166 7.75 2.166L506 322z"/><path fill="#9D782C" d="M504.083 317.75l2.25 3.583 1.084-5.666z"/><path fill="#E4C824" d="M494.167 313.75l8.416-4.333 11 3.416-9.5 4.917z"/><path fill="#FFF" d="M500.5 313.25l3.333-1.333 3.667 1.333-3.917 1.417z"/></g><g><path opacity=".1" fill="#2B2B2B" d="M266.25 287.833l7.583-2.5 8.667 2.417-8.75 2.666z"/><path fill="#9D782C" d="M273.25 284l.833 5.667 2.5-6.417z"/><path fill="#E4C824" d="M263 281.167L273.833 277l12.667 3.167-13.333 4.166z"/><path fill="#FFF" d="M271 281l3.167.417 4.416-1.25-4.333-.75z"/></g><g><path opacity=".1" fill="#2B2B2B" d="M220.667 273.583l12.583-4.666 8.083 3.833-12.083 3.083z"/><path fill="#9D782C" d="M233.166 267.416l-3.916 8.084-2.167-9.583z"/><path fill="#E4C824" d="M216.25 264.833l16.916 2.583 10-8.916-13.5-3.25z"/><path fill="#FFF" d="M226 262.166l5-3.75 3.5 2.334z"/></g></g><g><path fill="#AC923B" d="M782.662 122.804l22.114 12.432 14.554-3.576 25.67 6.2 55-23.664-50.666-6.361-65-9.184-39.278-.939-24.795 4.989-11.488 30.551 24.293 7.247z"/><path fill="#CCAE2D" d="M900 114.196l-26.999-36.333-55.091 2.131-33.576 18.657L845 116.094z"/><path fill="#E4C824" d="M896.667 78.379l-23.666-.516L900 114.196z"/><path fill="#F4D75C" d="M878.001 47l-5 30.863 23.666.516z"/><path fill="#E4C824" d="M849.334 40.992l23.667 36.871 5-30.863z"/><path fill="#AC923B" d="M754.388 57.333L763.721 47h25.192l37.587 3.42 46.501 27.443-88.667 20.788-26.391-14.49z"/><path fill="#CCAE2D" d="M838.334 22.559l-97 6.978 131.667 48.326z"/><path fill="#E4C824" d="M679.334 57.333h75.054l-34.127 45.368-47.017-36.961z"/><path fill="#CCAE2D" d="M704.974 41.333l49.414 16H698z"/><path fill="#E4C824" d="M704.974 41.333l36.36-11.796L788.913 47l-34.525 10.333z"/><path fill="#F4D75C" d="M741.334 29.537L772.667 0l65.667 22.559z"/><path fill="#858686" d="M792.334 157.04l-16.668 3.635-14.999-8.308-13.724-8.566-2.201-7.468-11.676 4.166 25.373 28.362 22.453 7.73z"/><path fill="#858686" d="M792.334 157.04l-3.001 39.71-18.666 45.201-21.347-11.413 31.573-53.947-5.002-9.779zM834.135 135.236l-10.866 4.644-3.934-8.219-17.001-4.106v28.219l-11.42 83.813 18.184-2.124 20.149-85.096L845 137.86z"/><path fill="#A2A4A4" d="M802.334 127.555l-19.672-4.751 9.672 34.236-21.667 84.911 20.247-2.364 20.047-84.905zM839.64 136.565l-13.889 8.499-2.751-5.142 11.135-4.686z"/><path fill="#A2A4A4" d="M746.25 155.236l14.417-2.869 31.667 4.673-6.989 11.942-33.724-7.742zM733.066 140.499l27.601 11.868-15.925-16.034z"/><path fill="#CCAE2D" d="M754.388 57.333l-34.127 45.368 16.407 8.288 47.666-12.338z"/><path fill="#B38C2E" d="M41.392 155.983l-2.2-5.223 2.097-1.064 1.586 5.429z"/><path fill="#E4C824" d="M33.424 133.385l-2.105 6.501 9.643-3.352z"/><path fill="#CCAE2D" d="M33.403 139.161l-.7 6.297 10.577-3.824-4.961-4.181z"/><path fill="#E4C824" d="M34.137 144.939l-.925 4.843 12.378-4.252-5.236-2.838z"/><path fill="#CCAE2D" d="M35.377 149.038l-1.657 4.442 13.75-4.605-3.764-2.697z"/><path fill="#E4C824" d="M25.95 146.866l-1.635 5.049 7.489-2.603z"/><path fill="#CCAE2D" d="M25.933 151.352l-1.251 5.118 8.598-3.471-3.529-2.973zM27.467 159.024l.02 5.026 9.185-5.253-2.736-1.995z"/><path fill="#E4C824" d="M26.533 155.723l-.748 5.051 9.614-4.475-4.286-2.425zM51.105 145.08l-1.542 6.335 10.557-6.038-4.177-.866z"/><path fill="#CCAE2D" d="M50.828 141.599l-2.625 6.364 11.917-2.586-4.542-3.778z"/><path fill="#E4C824" d="M53.078 137.849l-4.875 5.833 9.5-2.083z"/><g><path opacity=".1" fill="#2B2B2B" d="M73.334 144.667l-7.209 5.708 14.75 4.25L86 147.667l18.333-3-11.666-8.334z"/><path fill="#E4C824" d="M74.787 111.326l.415 11.117 9.37-1.603 17.249-12.045-11.636-4.353z"/><path fill="#E4C824" d="M76.769 122.443l-3.524 13.851 16.102 2.165 15.841-19.078-9.938-6.318z"/><path fill="#F4D75C" d="M88.419 123.056l.928 15.403 4.108-18.119z"/><path opacity=".2" fill="#2B2B2B" d="M82.427 122.494l6.238 4.643 4.79-6.797-5.036 2.716z"/><path fill="#CCAE2D" d="M84.454 109.528l3.965 13.528-16.132 1.035.958-13.892z"/><path opacity=".2" fill="#2B2B2B" d="M90.566 104.485l-4.973 8.578-11.111-2.939z"/><path fill="#F4D75C" d="M80.416 92.576l-7.171 16.023 11.209.929 9.001-7.426z"/><path fill="#E4C824" d="M64.046 137.069l-2.942 7.852 14.011-.289 9.457-6.783-12.285-4.051zM80.416 92.576l4.038 16.952-13.949.835z"/><path fill="#F4D75C" d="M73.245 136.294l1.87 8.338 14.232-6.173-5.796-6.588z"/><path opacity=".2" fill="#2B2B2B" d="M83.551 131.871l-9.618 7.489-9.887-2.291z"/><path fill="#B38C2E" d="M75.115 144.632l-.328 7.46 1.786-1.397 1.54-7.364z"/><path fill="#E4C824" d="M63.919 126.342L60.12 137.4l13.125-1.106 15.083-5.684-5.657-8.167z"/><path fill="#CCAE2D" d="M72.785 126.342l.46 9.952L60.12 137.4l3.633-10.574z"/><path opacity=".2" fill="#2B2B2B" d="M82.706 122.494l-9.868 6.732-9.085-2.4z"/><path fill="#F4D75C" d="M69.81 105.485l15.94 15.828-12.965 5.029-14.852.795z"/><path fill="#E4C824" d="M69.81 105.485l2.975 20.857-14.852.795z"/></g><path fill="#B38C2E" d="M89.347 138.459V146l1.544-.957 1.734-7.194z"/></g><g><path fill="#EDEDED" d="M24.647 35.611L60.729 24.19l26.817 5.711h39.496l13.164 5.71-22.428 6.799-56.562 2.719z"/><path fill="#BFBFBF" d="M117.778 42.41l22.428-6.799-44.858 2.176-35.594-3.127-35.107.951 36.569 9.518z"/><g><path fill="#EDEDED" d="M569.256 25.593l37.549-14.473 103.256 7.236-14.506 13.376-40.109 5.044-42.669-4.167-29.013.877z"/><path fill="#BFBFBF" d="M612.777 32.609l42.669 4.167 40.109-5.044 14.506-13.376-36.694 5.592-104.111 1.645 14.508 7.893z"/></g></g><g><path fill="#F4CAB3" d="M564.956 165.618l5.64 13.043 12.017-13.862-9.432-28.051-9.469 13.025z"/><path fill="#FDE4D5" d="M531.406 126.059l-6.154 3.474-11.304 25.204 7.966 31.042h35.887l11.214-49.031-9.762-4.947z"/><path fill-rule="evenodd" clip-rule="evenodd" fill="#F4CAB3" d="M525.252 129.533l-4.219 2.254-10.97 22.324 8.033 17.408z"/><path fill="#FDE4D5" d="M519.208 59.991l-8.78 46.124 35.757 11.173 16.762-37.294L549.471 56.2l-17.816-3.231zM513.948 221.413l-3.161 29.263 10.834 2.215 12.048-27.48z"/><path fill="#F4CAB3" d="M534.698 136.748l24.272-4.947 16.397-38.356-12.42-13.451-16.762 37.294z"/><path fill="#C3927D" d="M555.154 120.26l-20.456 16.488-3.657-24.192zM563.144 98.462l8.191 4.413-2.508 5.868z"/><path fill="#505354" d="M569.901 87.526l-5.654 9.482.816-14.721z"/><path fill="#CCAE2D" d="M525.252 129.533l5.924 29.265-18.525-.678zM531.176 158.798l27.794-26.997 14.211 4.947-13.968 49.031z"/><path fill="#707273" d="M558.97 131.801l-2.244 20.273 13.57-5.202 11.848-11.014-1.907-20.019 15.206-19.645-3.074-33.077-25.13-24.587-34.733-3.87-26.523 27.715 8.834 6.555 4.391-8.939 12.447-7.022 15.22-1.352 16.072 28.377 12.42 13.451z"/><path fill="#FDE4D5" d="M568.493 86l-5.349 12.462 8.191 4.413 4.032-9.43z"/><path fill="#C3927D" d="M567.074 95.294l6.283-1.177-4.101-4.02z"/><path fill="#505354" d="M531.655 52.969l.851-18.309 34.733 3.87-17.768 17.67z"/><path fill="#FDE4D5" d="M563.749 223.477l-3.912 30.151h-10.608l-7.321-29.194z"/><path fill-rule="evenodd" clip-rule="evenodd" fill="#C3927D" d="M513.948 221.413l18.779 6.148 2.451-5.043-6.786-3.373z"/><path fill="#707273" d="M592.369 63.117l-29.422 16.877 12.42 13.451 20.076 2.749z"/><path fill="#C3927D" d="M563.749 223.961l-21.022 3.735-1.246-4.851 7.334-4.351z"/><path fill="#858686" d="M567.239 38.53L549.471 56.2l13.476 23.794 29.422-16.877z"/><path fill="#505354" d="M595.443 96.194l-15.206 19.645-21.267 15.962 16.397-38.356zM558.97 131.801l23.174 4.057-11.848 11.014z"/><path fill="#F4CAB3" d="M529.316 149.612l3.589-5.314-1.729 14.5z"/><path fill="#B28B2E" d="M512.651 158.12l53.983 1.606-7.421 26.053-23.092 8.133-14.207-8.133z"/><path fill="#9D782C" d="M521.914 185.779l-7.966 35.634 49.801 2.548 2.885-21.01-7.421-17.172z"/><path fill="#FDE4D5" d="M561.83 191.649l19.593-30.386 6.774 20.024-21.563 21.664z"/><path fill="#B38C2E" d="M559.213 185.779l-45.265 35.634 39.146-14.504 8.736-15.26z"/><path opacity=".2" fill="#2A2B2A" d="M553.094 206.909l12.691 2.221.849-6.179z"/><path fill="#F4CAB3" d="M561.83 191.649h-10.075l6.715 15.26 8.164-3.958z"/><path fill="#FDE4D5" d="M551.755 191.649l-4.689 7.708 6.028 7.552h5.376z"/><path fill="#CCAE2D" d="M521.621 252.891l1.417 4.651-13.788 11.056h-15.163l16.7-17.922z"/><path fill="#9D782C" d="M517.842 261.709l-.566 6.889h4.005l3.282-9.473-2.942-6.234z"/><path fill-rule="evenodd" clip-rule="evenodd" fill="#707273" d="M524.876 110.629l-5.221 6.438 5.597 12.466 7.829-3.474-2.04-13.503z"/><path fill-rule="evenodd" clip-rule="evenodd" fill="#CCAE2D" d="M549.229 253.628l-6.619 20.664h16.603l.624-20.664z"/><path fill-rule="evenodd" clip-rule="evenodd" fill="#9D782C" d="M559.837 253.628l4.983 7.724-2.99 12.94h-2.617z"/><path fill-rule="evenodd" clip-rule="evenodd" fill="#F5CAB3" d="M492.056 142.388l-7.333-2.986 7.573-17.154 8.938 5.214.301 8.158z"/><path fill-rule="evenodd" clip-rule="evenodd" fill="#FDE4D5" d="M501.535 135.62l11.116 22.5 4.823 14.401-16.139-2.166-9.279-27.967z"/><path fill-rule="evenodd" clip-rule="evenodd" fill="#E3C720" d="M491.899 142.324l9.636-6.704 1.645 3.33-9.973 6.909z"/><path fill="#F4D75C" d="M504.765 95.294l-21.986-3.375-1.352 19.07 6.344 6.956-3.048 21.457-5.348 4.098 13.832 2.359-2.455-6.638-1.65-8.304 4.027-8.11.841-5.807 7.565-3.375z"/><path fill-rule="evenodd" clip-rule="evenodd" fill="#FFE6D6" d="M501.535 135.62l1.053-7.984L493.97 117l-.841 5.807 3.434 4.881-1.87 5.312 2.178 5.95z"/><path fill="#AC923B" d="M487.858 92.813l-1.477-9.376-7.099-3.688-9.478 4.81 1.051 11.448 11.295 4.783.629-8.871z"/><path fill="#F4D75C" d="M472.435 86.604v7.203l7.749-3.992zM474.165 84.522l6.526 4.425-.958-6.682zM481.764 88.341l.828-5.121 3.083 1.562zM480.691 91.29l-6.526 3.645 6.526 2.951zM486.028 89.474l-.353-1.828-2.483 2.866 3.189.778-.353-1.816"/><path fill="#CCAE2D" d="M521.888 95.148l1.284 4.285 6.493 2.343 7.023-2.343z"/><path fill="#9D782C" d="M527.637 96.194l-1.543-1.707h-5.357l6.492 3.73 9.459 1.216-5.647-3.239z"/><path fill="#FFF1E8" d="M531.041 76.74l3.657.738-3.043 11.541-5.217-1.041z"/><path fill="#C4937D" d="M526.438 87.978l1.564 2.69 3.653-1.649z"/><path fill="#F5CAB3" d="M534.698 77.478l5.926-3.819 11.122 2.429-10.959 6.199-9.132 6.732zM531.041 76.74l-1.754-5.858-8.143-3.211 2.393 10.501 4.107 6.86z"/><path fill="#836528" d="M540.624 73.659l3.328-2.082 7.794 4.511zM529.287 70.882l-2.866-3.904-5.277.693z"/><path fill="#2B2B2B" d="M542.917 80.906c0 1.401-1.063 2.537-2.374 2.537-1.312 0-2.374-1.136-2.374-2.537 0-1.402 1.063-2.539 2.374-2.539 1.311 0 2.374 1.136 2.374 2.539zM527.25 76.74c0 1.401-1.062 2.538-2.374 2.538-1.311 0-2.374-1.137-2.374-2.538 0-1.402 1.063-2.538 2.374-2.538 1.312 0 2.374 1.136 2.374 2.538z"/><path fill-rule="evenodd" clip-rule="evenodd" fill="#505354" d="M531.041 112.556l-5.789 16.977 7.829-3.474z"/><path fill="#505354" d="M519.208 59.991l-13.225 2.384 8.723 21.263z"/><path fill-rule="evenodd" clip-rule="evenodd" fill="#858686" d="M519.655 117.067l8.748 3.222 2.638-7.733-6.165-1.927z"/><path fill="#E4C824" d="M571.81 100.584l-1.66.57-1.323-1.15.334-1.721 1.659-.571 1.323 1.15z"/><path fill="#F4CAB3" d="M525.252 129.533l9.446 7.215-1.617-10.689z"/><path fill-rule="evenodd" clip-rule="evenodd" fill="#FFE6D6" d="M487.771 117.945l-5.521.944-.042 17.486 2.866.555 5.678 2.291 2.377-16.414z"/><path fill="#CCAE2D" d="M484.723 96.194l16.812 2.268L499 111.48l-7.101 3.979-8.016-4.83z"/><path fill="#F4D75C" d="M495.258 99.561l-1.288 1.333 1.288 1.334.962-1.334zM497.37 101.894l-1.288 1.334 1.288 1.333.962-1.333zM495.981 104.897l-1.288 1.334 1.288 1.333.962-1.333zM497.283 98.937l-.602.624.602.624.45-.624z"/></g><g><path fill="#836528" d="M716.644 244.334l-7.58-32.808-7.314 22.599-.321 13.017z"/><path fill="#FFE6D6" d="M647.294 89.985l15.93-7.45 26.462 7.45 3.598 17.85-8.477 43.506-42.909-5.346z"/><path fill="#C4937D" d="M691.314 152.161l-19.868 21.411-9.507-10.363v-14.717z"/><path fill="#F5CAB3" d="M671.446 173.572l27.747-14.842 14.004-37.244-19.913-13.651-8.374 42.976z"/><path fill="#FFE6D6" d="M703.721 116.938l-4.356 12.786 9.408 3.528 4.424-11.766z"/><path fill="#FFF" d="M652.561 130.58l22.224 2.672-5.523 7.452-13.233-1.132z"/><path fill="#C4937D" d="M669.732 141.748l-14.411-1.233-4.291-11.126 25.583 3.077-6.881 9.282zm-12.995-3.119l12.054 1.031 4.166-5.621-18.864-2.268 2.644 6.858z"/><path fill="#FFF1E8" d="M661.939 109.383h4.239l-.899 13.421-5.589-.51z"/><path fill="#C4937D" d="M659.69 122.294l1.864 3.79 3.725-3.28z"/><path fill="#836528" d="M670.481 104.63l8.832 1.734 4.4 1.991-3.372-4.174-9.218-1.992zM659.69 101.932v2.698l-7.129-.642-5.267.899 3.469-2.955z"/><path fill="#F5CAB3" d="M670.481 104.63l-4.303 4.753-.899 12.911 7.965-5.356 10.469-8.583-5.331-2.312zM659.69 104.63l2.249 4.753-1.67 9.591-12.975-14.087 5.267-.899z"/><path fill="#C4937D" d="M699.365 129.724l6.915 10.156 2.493-6.628zM703.433 126.084l6.037-3.79-4.368-1.478z"/><path fill="#9D782C" d="M645.753 167.172l-3.079 25.713-4.007 6.282 2.282 8.124-2.904 24.26 15.897 6.081 13.65-25.577v-9.954l-5.653-38.892z"/><path fill="#9D782C" d="M712.526 174.39l-3.462 37.136-4.351 7.901-12.391 10.499-24.73-17.871-1.592-5.68 1.592-4.274 19.011-22.705 19.013-10.535z"/><path fill="#836528" d="M709.064 211.526l18.567 13.919-6.599-44.251-10.983-8.786z"/><path fill="#CCAE2D" d="M653.46 285.249l-11.048 12.589 15.673 2.698 11.468-2.698 1.892-10.02-9.506-6.167z"/><path fill="#BC8F2D" d="M694.406 228.099l14.658-16.573 18.567 13.919-25.17 12.818z"/><path fill="#F5CAB3" d="M694.406 228.099l-2.084 1.827 10.139 12.025v-3.688z"/><path fill="#ECECEB" d="M671.446 173.572l-7.128 6.01-2.379-16.373zM699.193 158.73l-27.747 14.842 9.68 9.953z"/><path fill="#DDDDDC" d="M659.069 228.099l8.523 3.367 21.547-3.841-21.547-15.57z"/><path fill="#846528" d="M653.942 237.632l13.65 7.365 24.73-15.071-3.183-2.301-21.547 3.841-8.523-3.367z"/><path fill="#BC8F2D" d="M653.46 285.249l17.985 2.569 27.489-28.133-31.342-14.688-13.65-7.365-15.897-6.081z"/><path fill="#B38C2E" d="M667.592 244.997l1.796 19.954 14.643 12.331 14.903-17.597 3.527-17.734-10.139-12.025zM671.445 287.818l-2.912 15.415 15.628 2.699 11.607-2.699-1.97-17.727-11.648-3.855z"/><path fill="#9D782C" d="M642.412 297.838h27.141l-1.02 5.395h-26.121zM668.581 303.233h27.14l.047 5.396h-27.187z"/><path fill="#BC8F2D" d="M642.675 192.885l-1.717 14.407-9.509 5.403-21.28-33.299 9.891-6.652z"/><path fill="#836528" d="M645.753 167.172l-15.393 14.745 12.315 10.968z"/><path fill="#505354" d="M647.294 71.744l15.93 10.791-15.93 7.45z"/><path fill="#9CA1A2" d="M707.929 78.379l-18.243 11.606 30.575 12.716z"/><path fill="#505354" d="M713.197 121.486l-9.476-4.548-1.998 5.866-5.998-3.015 2.44-8.564-4.881-3.39-3.598-17.85 30.575 12.716z"/><path fill="#707273" d="M658.013 73.028l5.211 9.507 26.462 7.45 18.243-11.606-34.685-12.639z"/><path fill="#858686" d="M663.224 82.535l10.02-16.795-25.95 6.004z"/><path fill="#C4C4C3" d="M671.446 173.572l-3.854 28.529 13.534-18.576zM667.592 212.055v19.411l21.547-3.841z"/><path fill="#9D782C" d="M646.634 261.47l22.754 3.481 2.057 22.867-17.985-2.569z"/><path fill="#846528" d="M698.934 259.685l-29.546 5.266 2.057 22.867 22.353-2.312z"/><path fill="#AC923B" d="M601.883 127.735l-1.149-9.711-8.501-3.828-9.409 4.14-.68 12.736 13.765 4.775v-8.112z"/><path fill="#F4D75C" d="M584.036 121.312v7.477l9.277-4.143zM586.107 119.151l7.815 4.594-1.148-6.936zM595.207 123.745l.99-5.946 3.693 1.622zM593.922 126.177l-7.815 3.783 7.815 3.063zM595.588 125.051l5.146 1.126-.844-3.783zM595.909 127.735h20.426l-.427 18.526-7.581 5.173-.256 6.38-.467 17.39-3.645 1.794-2.654-1.456 1.284-24.201-6.68-4.961z"/><path fill="#FFE6D6" d="M611.582 174.77l-13.582.882.334-19.735 9.814-.029 3.434 10.404z"/><path fill="#F5CAB3" d="M611.582 163.209l-3.434-7.321-.544 19.316 2.565 4.192 5.581-3.813z"/><path fill="#F4D75C" d="M607.604 175.204l4.748 7.764h-15.929l4.882-7.426h3.211z"/><path fill="#CCAE2D" d="M661.939 163.209l-11.391 10.363 5.695 6.509-3.425 4.624 14.774 17.396z"/><path fill="#CCAE2D" d="M667.592 202.101l31.601-43.371 6.423 10.131-10.02 13.104-7.536.69 1.883 5.819z"/><path fill="#DDDDDC" d="M671.446 173.572l-3.854 28.529-3.274-22.519z"/><path fill="#2B2B2B" d="M675.685 115.871c0 1.348-1.093 2.441-2.44 2.441-1.349 0-2.441-1.093-2.441-2.441 0-1.348 1.093-2.441 2.441-2.441 1.347 0 2.44 1.092 2.44 2.441zM658.013 113.43c0 1.348-1.093 2.441-2.44 2.441-1.348 0-2.441-1.093-2.441-2.441 0-1.348 1.094-2.441 2.441-2.441 1.347 0 2.44 1.093 2.44 2.441z"/><path fill="#CCAE2D" d="M668.7555148 206.9157794l2.697205-2.697968 2.697968 2.697205-2.697205 2.697968z"/><path fill="#FFE6D6" d="M608.327 151.434l-.179 4.454 3.434 7.321v7.146l4.168 5.228 4.31-2.839V160.64z"/><path fill="#CCAE2D" d="M597.549 130.58h16.017v13.718l-8.008 6.228-7.397-6.228z"/><path fill="#F4D75C" d="M606.122 132.667L604.834 134l1.288 1.333.962-1.333zM608.234 135l-1.288 1.333 1.288 1.334.962-1.334zM606.846 138.003l-1.288 1.334 1.288 1.333.962-1.333zM608.147 132.042l-.602.625.602.623.451-.623z"/></g><g><path fill="#FFE6D6" d="M128.035 186.252l12.843-11.431 24.246-7.925 10.718-2.628-8.505 38.8zM165.29 97.9l21.463 42.762-37.29 19.673-21.999-33.802 5.634-30.047 12.608-6.975z"/><path fill="#F5CAB3" d="M163.949 173.045l-1.897 9.162-21.174-7.386-29.242-34.607 15.828-13.681 22.227 33.802z"/><path fill="#C4937D" d="M163.949 173.045l4.328-22.637-23.107 12.341z"/><path fill="#FFE6D6" d="M121.393 151.759l7.949-6.716-9.705-11.745-8.001 6.916z"/><path fill="#C4937D" d="M129.342 145.043l-2.596 13.052-5.353-6.336zM115.258 140.751l8.048 1.777-4.024-4.325z"/><path fill="#FFF1E8" d="M152.145 118.35l5.456 11.849 5.366-3.309-7.2-10.553z"/><path fill="#C4937D" d="M162.967 126.89l-1.23 4.671-4.136-1.362z"/><path fill="#F5CAB3" d="M155.767 116.337l.939-4.828 6.171-3.755 3.129-1.337-3.935 19.176zM152.145 118.35l-4.802-2.437-8.074 4.36-3.182 2.061 21.514 7.865z"/><path fill="#2B2B2B" d="M165.484 116.338c0 1.389-1.126 2.516-2.518 2.516-1.39 0-2.517-1.127-2.517-2.516 0-1.391 1.127-2.519 2.517-2.519 1.392.001 2.518 1.129 2.518 2.519zM150.213 125.575c0 1.389-1.126 2.516-2.518 2.516-1.39 0-2.517-1.127-2.517-2.516 0-1.391 1.127-2.519 2.517-2.519 1.392 0 2.518 1.128 2.518 2.519z"/><path fill="#846528" d="M156.706 111.509l6.171-3.755 3.129-1.337-4.471-1.078-5.768 3.398zM147.343 115.913l-1.188-2.258-8.362 4.204-1.706 4.475 3.182-2.061z"/><path fill="#505354" d="M124.348 129.225l3.116 13.545-7.827-9.472z"/><path fill="#9D782C" d="M154.25 141.667l18-9.792-6.75.875-1.551 2.167-3.062.083z"/><path fill="#CCAE2D" d="M172.25 131.875l-.413 8.792-8.067 4.376-9.52-3.376z"/><path fill="#FFF" d="M155.945 140.745l8.308 1.547 4.959-2.875 1.548-6.731z"/><path fill="#505354" d="M145.706 89.511l12.497-4.56 5.746 3.639 1.341 9.31z"/><path fill="#707273" d="M172.624 80.926l-12.163-1.035-2.258 5.06 13.195 24.108z"/><path fill="#858686" d="M145.261 67.334l-4.383 11.569 4.828 10.608 26.918-8.585z"/><path fill="#505354" d="M100.397 88.437l12.858 8.049h19.843l12.608-6.975-.445-22.177z"/><path fill="#707273" d="M93.413 120.533l21.845-5.716 17.84-18.331-32.701-8.049z"/><path fill="#858686" d="M89.102 138.157l12.162 4.613 10.372-2.556 15.828-13.681 5.634-30.047-39.685 24.047z"/><path fill="#707273" d="M121.393 151.759l-8.138 16.195-24.153-29.797 22.534 2.057zM140.878 174.821l-12.843 11.431-9.795-12.101 9.795-2.276z"/><path fill="#505354" d="M121.393 151.759l19.485 23.062-22.638-.67-4.985-6.197z"/><path fill="#B38C2E" d="M175.842 178.672l15.203 13.855-2.459 29.868-40.821 8.033-1.076-11.432-4.995-8.769 5.476-10.457 16.779-2.422z"/><path fill="#CCAE2D" d="M163.949 197.348l-22.255 12.879-13.659-23.975z"/><path fill="#9D782C" d="M132.452 293.287l10.958 4.516 3.858-10.709-3.858-10.709z"/><path fill="#E4C824" d="M191.045 192.527l-15.007 4.821h-12.089l11.893-33.08z"/><path fill="#FFE6D6" d="M212.865 182.869l-23.049 24 16.074 11.055 16.811-27.544z"/><path fill="#C4937D" d="M217.293 186.252l5.408 4.128 12.877-5.008-6.976-5.722-6.326-5.78z"/><path fill="#FFE6D6" d="M141.694 210.227l-22.904 22.72 5.009-42.924 4.236-3.771z"/><path fill="#F5CAB3" d="M163.949 197.348l-3.488-11.096 5.483 5.547z"/><path fill="#B38C2E" d="M188.586 222.395l-37.759 6.76-7.417 9.37v59.278l18.205 5.421 27.139-5.269 9.103-61.713-7.524-3.95z"/><path fill="#CCAE2D" d="M165.057 225.354l-21.647 51.031 54.447-40.143-9.271-13.847zM137.503 320.833h19.664l-4.477-20.267-9.28-2.763z"/><path fill="#F5CAB3" d="M145.793 298.513l-2.982 10.166 9.189-.054-1.389-8.678z"/><path fill="#CCAE2D" d="M175.371 300.553l10.799 18.022h12.517l-9.933-20.62z"/><path fill="#9D782C" d="M175.371 300.553l-1.35.262-1.456 7.525 5.306 10.235h2.856v-9.083z"/><path fill="#F5CAB3" d="M180.727 299.513l6.302 8.753 6.138-1.149-4.413-9.162zM175.842 164.268l26.782 29.265-12.808 13.336 1.229-14.342z"/><path fill="#BC8F2D" d="M225.677 119.319l-2.532 51.682 4.652 7.671.073-52.795z"/><path fill="#CDAF2D" d="M233.147 154.349l1.844 5.512-7.171.995-8.382-.132-4.272-2.343-1.927-4.354 7.62-.614 3.418 1.969z"/><path fill="#F4D75B" d="M233.147 154.349l-2.77 1.585-9.699.038-7.439-1.945 8.509-1.902 2.313.191-.041 1.454 3.592.213.221-1.357 2.06.17z"/><path fill="#CDAF2D" d="M233.139 144.734l.032 4.89-5.333-.164-6.488-.785-4.908-2.32.124-2.681 5.381-.384 3.676 1.21zM233.243 135.741l.23 3.223-5.203.796-4.696-.221-7.091-2.88 2.024-3.251 5.784 1.791 3.536.562zM232.36 130.285l-11.878-.555 1.204-4.296 8.897-.465z"/><path fill="#B28B2E" d="M220.678 155.972l-1.24 4.752-4.272-2.343-1.927-4.354zM230.377 155.934l-2.557 4.922 7.171-.995-1.844-5.512z"/><path fill="#F4D75B" d="M233.139 144.734l-4.751.739-5.946-.298-5.876-1.501 5.575-1.863 2.426.131-.082 1.488 3.309.167.052-1.156 2.349.259z"/><path fill="#B28B2E" d="M222.579 145.182l-1.229 3.493-4.908-2.32.124-2.681zM228.388 145.473l-.55 3.987 5.333.164-.032-4.89z"/><path fill="#F4D75B" d="M233.243 135.741l-5.082 1.015-5.614-.151-4.04-3.197 6.445.682-.038.805 2.934.152.01-.649.522.055zM221.686 125.434l10.674 4.851-1.777-5.316z"/><path fill="#F5CAB3" d="M153.353 219.891l-17.526-3.844-17.037 16.9 31.03-2.519z"/><path fill="#AC923B" d="M175.416 191.083l.5-9.166 7.417-3.667 9.573 4.719-.304 11.367-11.349 4.487V191.2z"/><path fill="#F4D75C" d="M191.042 185.164v7.026l-7.648-3.893zM189.334 183.133l-6.442 4.316.946-6.517zM181.832 187.449l-.816-5.587-3.044 1.525zM182.892 189.735l6.442 3.556-6.442 2.878zM181.519 188.678l-4.244 1.057.697-3.554zM182.302 190.712h-20.426l.427 18.526 7.581 5.172.256 6.38-.598 18.287 3.646 1.794 1.415-7.924 1.02-18.629 6.679-4.961z"/><path fill="#F5CAB3" d="M166.369 212.013l12.603 5.911-1.475 11.222-13.01 1.282-.538-8.957z"/><path fill="#CCAE2D" d="M164.081 192.841h16.017v13.718l-8.009 6.228-7.396-6.228z"/><path fill="#F4D75C" d="M172.654 194.927l-1.288 1.334 1.288 1.334.962-1.334zM174.766 197.261l-1.288 1.334 1.288 1.333.962-1.333zM173.377 200.265l-1.288 1.333 1.288 1.333.962-1.333zM174.679 194.304l-.602.623.602.625.45-.625z"/><path fill="#FFE6D6" d="M153.353 219.891l13.016-7.878-1.882 18.415H149.82z"/><path fill="#F5CAB3" d="M235.501 169.748l-7.613-3.87-1.055 9.122.894 5.122-3.349.835 2.701 7.721 8.499-3.306z"/><path fill="#FFE6D6" d="M228.717 179.875l-.829-13.997-7.312 2.26-2.527.781-5.184 13.95 4.428 3.383 4.327-2.584 1.099-6.74.307-.529 1.352 4.558z"/><path fill="#8D7C2F" d="M212.865 182.869l9.836 7.511-2.219 4.27-10.73-8.53z"/><path fill="#DDDDDC" d="M164.081 240.871h15.316l-4.794-7.924h-4.86z"/><path fill="#9D782C" d="M143.41 297.803L135.25 306l-.5 14.833h2.753z"/></g><g><path fill-rule="evenodd" clip-rule="evenodd" fill="#E4C729" d="M302.63 131l-16.398 7 13.828 39.333-3.04 16 39.125 14.334 20.802-23.654 8.14-55.608-18.065-3.678z"/><path fill-rule="evenodd" clip-rule="evenodd" fill="#755924" d="M299.587 116.145l10.477-6.125-.013 5.748 2.641 6.501zM346.452 108.786l10.867 7.992-27.732 23.889 4.071-19.917z"/><path fill-rule="evenodd" clip-rule="evenodd" fill="#FDE4D5" d="M313.747 53.88l35.063 1.928 11.446-3.365 2.901 54.095-16.705 2.248-6.261 10.478-15.871 5.472-10.774-9.31-14.85-23.233-5.459-12.302-.145-11.766z"/><path fill-rule="evenodd" clip-rule="evenodd" fill="#F4C9B3" d="M317.758 54.101l7.229 57.274 21.465-2.589-8.115 6.089 1.491 6.434-10.241 19.358-10.098-11.254-8.442-8.565-8.931-20.948.384-4.632-3.803-3.074 10.118-5.184-5.904-11.886-9.674 4.767-4.082-9.051 19.201-13.243 5.391-3.716zM346.175 85.84l-7.679-15.504-12.013-6.031 15.241-2.061 2.993 5.007 3.738 10.144zM350.357 66.843l1.334-4.416 9.034-1.224-10.193 19.664z"/><path fill-rule="evenodd" clip-rule="evenodd" fill="#C2917D" d="M308.816 87.01l-10.119 5.185 3.418 7.702zM345.342 75.213l-18.756 10.884-5.735-7.487-2.89-.564-1.008-2.149 7.983-2.289zM351.003 75.073l10.758 5.42-.122-2.255-1.569-4.236z"/><path fill-rule="evenodd" clip-rule="evenodd" fill="#836528" d="M309.096 59.17l12.719 27.081-10.089 6.617-8.815-17.744-9.674 4.767-4.082-9.051 10.461-8.966z"/><path fill-rule="evenodd" clip-rule="evenodd" fill="#FFF0E8" d="M350.357 66.843l-5.641.408 1.46 18.588 5.638-.423z"/><path fill-rule="evenodd" clip-rule="evenodd" fill="#C2917D" d="M304.289 85.407l-2.531-6.504-5.782 2.686z"/><path fill-rule="evenodd" clip-rule="evenodd" fill="#836528" d="M326.483 64.305l11.16-5.09 4.081 3.029zM351.691 62.427l5.034-3.716 4 2.493z"/><path fill-rule="evenodd" clip-rule="evenodd" fill="#C2917D" d="M359.947 89.643l-31.767 2.378 10.632 7.57 13.758-.897z"/><path fill-rule="evenodd" clip-rule="evenodd" fill="#FFF" d="M355.971 91.861l-22.313 1.647 5.841 4.517 11.917-.806z"/><path fill-rule="evenodd" clip-rule="evenodd" fill="#C2917D" d="M351.815 85.416l-2.961 3.409-2.679-2.985z"/><path fill-rule="evenodd" clip-rule="evenodd" fill="#755924" d="M317.961 78.046l-14.312-1.433-.738-1.489 7.908-.843 6.158 1.67z"/><path fill-rule="evenodd" clip-rule="evenodd" fill="#C2917D" d="M346.452 108.786l-28.067 3.384 21.443 9.139z"/><path fill-rule="evenodd" clip-rule="evenodd" fill="#BC8F2D" d="M352.257 35.069l-52.286 4.3-11.664 13.552 33.567-6.572z"/><path fill-rule="evenodd" clip-rule="evenodd" fill="#9C782C" d="M317.758 54.101L289.155 70.84l-.847-17.919 24.31-7.202z"/><path fill-rule="evenodd" clip-rule="evenodd" fill="#836528" d="M317.758 54.101l-5.968-3.402.828-4.98 39.639-10.65-.59 10.791-2.857 9.947z"/><path fill="#BC8F2D" d="M352.257 35.069l-3.447 20.738 11.446-3.364 17.09-19.227z"/><path fill-rule="evenodd" clip-rule="evenodd" fill="#484748" d="M323.736 68.77l-28.281 2.09-2.218 9.031 9.674-4.767 21.577 1.187.423-4.068zM350.357 66.843l-5.641.408-.659 2.215 1.038 2.604 5.636-.471.908-1.841z"/><path fill-rule="evenodd" clip-rule="evenodd" fill="#4F5253" d="M367.958 65.569l1.108 14.88-18.063-5.377-.646-8.23 17.601-1.273zm-22.616 9.644l-20.103 8.638-1.504-15.083 20.98-1.517.627 7.962z"/><path fill-rule="evenodd" clip-rule="evenodd" fill="#BC8F2D" d="M322.962 125.738l-23.375-9.593L305.485 131l24.102 9.667z"/><path fill="#BC8F2D" d="M302.63 131l-2.57 46.333L286.232 138zM359.466 168.644l-11.428-43.872 17.049 3.633zM359.466 168.644l25.371-25.344 10.333 9.95-17.048 24.025z"/><path fill="#836528" d="M365.087 128.405l10.027 25.033-15.648 15.206z"/><path fill="#FDE4D5" d="M384.837 143.3l3.2-14.895 4.38-1.353 2.753 8.198-6.197 12.032z"/><path fill="#F4C9B3" d="M408.29 119.543l2.011 3.531-15.131 12.176-1.755-6.023zM395.17 153.25l8.369-3.75-8.369-14.25-6.197 12.032z"/><path fill="#836528" d="M286.232 138l-7.866 22.987 21.694 16.346z"/><path fill="#BC8F2D" d="M267.545 152.833l32.515 24.5L278.722 189l-20.259-24.667z"/><path fill="#F4C9B3" d="M256.851 145.266l-9.006 13.696 10.618 5.371 9.082-11.5z"/><path fill="#BC8F2D" d="M316.828 246.331L312 257h-22.787l7.807-16.125z"/><path fill="#FDE4D5" d="M256.851 145.266l-11.68-2.149-5.32 9.365 7.994 6.48zM267.545 152.833l-4.785-14.684h-5.909v14.684l7.107 4.542z"/><path fill="#BC8F2D" d="M297.02 193.333v25.987l9.652 23.601 17.55-11.388 11.923-23.866z"/><path fill="#E4C729" d="M310.684 262.001h-21.471V257H312z"/><path fill="#836628" d="M297.02 228.25l9.565 11.82 13.864-.986 5.21-10.429-28.639-9.335z"/><path fill="#9C782C" d="M297.02 228.25l24.506 8.679-4.698 9.402-19.808-5.456z"/><path fill="#CBAD2D" d="M300.06 177.333l31.582 14.501 25.305-7.821-23.876-16.68z"/><path fill="#BC8F2D" d="M329.587 140.667l-.565 28.416 2.62 22.751 2.892-23.507zM304.57 151.667h19.321v3.167H304.57z"/><g><path fill="#BC8F2D" d="M379.503 82.166l19.545 50.144-3.878 2.94-15.667-46.639z"/><path fill="#CDAF2D" d="M383.253 115.334v5.416l6.631-1.238 7.369-2.596 3.084-3.332.416-4.418-6.916 1.709-2.438 2.75z"/><path fill="#F4D75B" d="M383.253 115.334l2.917.582 8.583-2.832 6-3.918-8.083.834-1.986.852.465 1.273-3.112 1.25-.596-1.134-1.771.759z"/><path fill="#CDAF2D" d="M380.42 106.834l1.417 4.332 4.665-1.721 5.501-2.611 3.652-3.5-.902-2.334-4.869 1.25-2.891 2.156zM377.67 98.916l.75 2.918 4.833-.834 4.084-1.584 5.416-4.641-2.75-2.275-4.583 3.292-2.958 1.542zM376.837 93.834l10.333-4-2.333-3.441-8 2.218z"/><path fill="#B28B2E" d="M394.753 113.084l2.5 3.832 3.084-3.332.416-4.418zM386.17 115.916l3.714 3.596-6.631 1.238v-5.416z"/><path fill="#F4D75B" d="M380.42 106.834l4.417-.751 5.167-2.02 4.749-3.063h-5.477l-2.107.834.512 1.291-2.875 1.125-.387-1.007-1.999.923z"/><path fill="#B28B2E" d="M389.884 104.109l2.119 2.725 3.652-3.5-.902-2.334zM384.837 106.083l1.665 3.362-4.665 1.721-1.417-4.332z"/><path fill="#F4D75B" d="M377.67 98.916l4.792-.603 4.917-1.792 2.624-4.021-5.494 2.508.273.7-2.549 1.001-.201-.571-.445.203zM384.837 86.393l-8 7.441v-5.223z"/></g><path fill="#836528" d="M328.367 204.173l-22.227 57.828L388.037 307l35.3-48.625-25.75-21.246z"/><path fill="#9C782C" d="M328.367 204.173l68.638 37.214 7.249-33.072-72.612-16.481z"/><path fill="#9C782C" d="M397.587 237.129L388.037 307l116.8-38.5-10.662-55z"/><path fill-rule="evenodd" clip-rule="evenodd" fill="#D3A339" d="M331.642 191.834l66.111 32.666 91.834-27.75-91.834-25.833z"/><path fill-rule="evenodd" clip-rule="evenodd" fill="#B28B2E" d="M489.587 196.75l-91.834 27.75-.748 16.887 97.17-27.887z"/><path fill-rule="evenodd" clip-rule="evenodd" fill="#9C782C" d="M297.02 193.333l27.634 20.499 3.713-9.659z"/><path fill-rule="evenodd" clip-rule="evenodd" fill="#DDDDDC" d="M358.003 193l41.045-14.666 61.539 16.91-61.083 18.256z"/><path fill-rule="evenodd" clip-rule="evenodd" fill="#9B782A" d="M364.385 196.152l35.077-14.402-.414-3.416L358.003 193z"/><path fill-rule="evenodd" clip-rule="evenodd" fill="#836628" d="M398.5 182.375l51.912 15.91 10.175-3.041-61.539-16.91z"/><path fill="#848585" d="M366.596 197.244l42.699-16.017 8.147 2.162-43.352 17.557zM378.732 203.239l44.605-18.403 9.483 2.778-46.254 19.495zM389.747 208.68l51.09-19.101 9.551 2.862-52.801 20.112z"/><g><path fill="#A2A1A1" d="M417.995 209.753l-49.16-21.897.92-2.891 4.335.376 39.372 19.831z"/><path fill="#C3C3C1" d="M390.975 188.099l-1.808-2.15-7.167.634-5.483 7.06 2.215 5.407 2.534 3.144 6.348-2.766-.557-3.455z"/><path fill="#ECEBEB" d="M390.975 188.099l-4.557.211-5.585 7.93.433 5.954 7.64-3.131.967-1.836-2.816-1.254 2.006-3.16 2.138 1.145.724-1.785z"/><path fill="#C3C3C1" d="M399.995 193.643l-2.99-2.056-3.226 1.317-4.612 6.947 2.459 6.216 2.283 1.025 2.582-4.314.538-3.565zM407.644 198.226l-5.144-1.163-3.038 5.131-.64 5.916 2.428 1.067 2.956-4.947 1.018-3.176zM409.88 201.602l-2.363 4.955.127 3.236 3.001-.254 1.105-4.258 3.005-3.679z"/><path fill="#ECEBEB" d="M399.995 193.643l-4.825 1.369-3.168 5.355 1.907 6.725 5.231-1.924.855-3.566-2.99-1.199 1.287-2.82 2.958 1.437 1.25-1.957zM407.644 198.226l-3.108 2.131-3.286 3.816v5.004l5.023-4.646-1.554-.689 1.107-2.505.544.265.884.38zM411.136 209.5l-3.492.293 3.856-7.103 3.255-1.088.601 1.695-1.527 2.245-.367-.37-1.649 1.766.786.412z"/></g><g><path fill="#A2A1A1" d="M441.613 200.608L392.5 180.167l1.419-4.839 3.9-.194 8.306 5.116 30.955 15.777z"/><path fill="#C3C3C1" d="M416.167 178.291l-4.357-2.471-10.515 8.159.533 5.053 4.681 3.425 4.723-2.174-.201-3.669z"/><path fill="#ECEBEB" d="M416.167 178.291l-11.834 7.576 2.176 6.59 6.46-2.705.521-1.67 1.328-3.268 4.458-2.759z"/><path fill="#C3C3C1" d="M425.17 183.502l-5.894-1.447-6.307 3.319v10.042l3.619 1.535 3.521-3.317.537-3.566zM431.134 187.413l-2.584-1.546-3.928 3.885-1.601 3.506-.688 4.908 4.549 2.482.942-5.562 1.017-3.177zM433.498 192.457l-2.727 4.648.49 3.543 3.588.708.234-5.331 3.29-3.568z"/><path fill="#ECEBEB" d="M425.17 183.502l-7.253 3.911-1.329 9.538 4.831-2.855.912-2.076-1.273-.557 1.254-2.821 1.596.751zM431.134 187.413l-4.616 2.84-1.348 4.971-.241 4.388 1.953 1.036 2.64-5.424-1.185-.527 1.106-2.505 1.003.623 3.742-1.398z"/></g><path fill="#F4D75C" d="M434.402 181.227l-5.79-16.032 21.365-24.045-2.557-26.11 9.557-10.857-3.667 11.896 4.266 32.965-20.016 20.929zM420.067 177.154l3.27-18.982 13.255-20.362-5.766-40.724 6.067-19.624-12.17 15.882 2.816 38.794-16.213 22.913z"/><path fill="#FDE4D5" d="M402.393 129.438l5.711 13.267-4.565 6.795-8.369-14.25z"/><path fill="#E4C729" d="M302.63 242.298l-5.61 6.577h10.134v-5.292z"/><path fill="#CBAD2C" d="M302.63 242.298l4.524 1.285 1.346-5.958-5.234-1.383z"/><path fill="#ECEBEB" d="M433.438 199l1.062-1.937.746.298.609.616 1.286-2.491-.602-1.695-2.718 1.574-2.696 3.198-.624 3.631 2.515.496 1.724-3.011z"/></g></svg>