<svg xmlns="http://www.w3.org/2000/svg" viewBox="0 0 400 400"><path fill="#33302d" fill-opacity=".102" d="M87.626 384.096l94.495-10.221 149.693 10.508L184.423 400z"/><path fill="#a47a1b" d="M138.445 274.457l-1.241 51.137 23.864 24.734 15.712-17.531 10.548-28.297 9.674-42.191z"/><path fill="#8c681d" d="M137.204 325.594l-.578 40.954 16.805 5.384 10.11-4.874 13.239-34.261z"/><path fill="#a47a1b" d="M240.211 267.836l-21.894 6.766-35.79 21.024 4.801 8.874 16.004 27.279 25.023 21.604 17.833-31.711z"/><path fill="#8c681d" d="M203.332 331.779l17.166 29.969 13.821-.074 15.931-3.853-4.062-36.149z"/><path fill="#cdcbcb" d="M218.098 361.166l3.856 11.931 3.564-.51 15.566 2.762 9.894-5.091 1.89-.29-.871-13.239z"/><path fill="#5f5d5d" d="M117.277 382.553l19.349-16.005 26.915.51-.072 14.912-5.819 1.965-35.208-.073zM222.972 386.989l2.546-14.402 25.46-2.329 6.256 16.804-5.965 1.601h-21.532z"/><path fill="#4e4a49" d="M163.469 381.97l.29 5.964-45.754.22-.728-5.601zM222.972 386.989l34.262.073v5.893h-34.335z"/><path fill="#a47a1b" d="M146.447 150.067l3.855 60.96-32.515 5.308z"/><path fill="#c29213" d="M167.833 145.848l-21.386 4.219-5.747 55.576 34.189-12.439.291-.365 24.296-33.969z"/><path fill="#f8da51" d="M172.343 163.598l-7.492 1.672-18.404-15.203 18.185-8.438 17.313-.727z"/><path fill="#d2b000" d="M197.076 165.708l-19.495 18.693-2.401 8.438 2.182 4.874 19.64 19.788 52.084-56.086-.363-12.002-21.096-9.02z"/><path fill="#f2d8d4" d="M199.911 206.078l.292-8.437-6.401-9.094-18.622 4.292 11.203 12.369z"/><path fill="#d5aca6" d="M208.206 200.186l-14.404-11.639 6.109 17.531 6.839.073z"/><path fill="#c29213" d="M139.245 245.871l-.8 28.586 48.883 30.043 5.237-70.415-12.657-5.601-21.749 4.509z"/><path fill="#d2b000" d="M180.999 231.901l6.329 72.599 52.883-36.664 1.018-54.919-24.95 6.401z"/><path fill="#bd9f2d" d="M136.408 220.919l2.837 24.952 41.754-13.97-18.04-20.148-22.259-6.11z"/><path fill="#c5942d" d="M179.035 230.521l-15.421-10.475 1.091-15.64 15.13-9.02 20.076 10.692-2.909 11.423z"/><path fill="#a47a1b" d="M261.017 196.841l-24.952 27.787-28.079-4.218-8.075-14.332 48.812-56.665z"/><path fill="#d2b000" d="M117.787 216.335l22.913-10.692-1.455 40.228z"/><path fill="#c29213" d="M199.911 206.078l-20.876 24.443 32.954 22.403 24.076-28.296z"/><path fill="#f2d8d4" d="M158.45 216.481l5.819-11.347 3.491-16.15-27.06 16.659z"/><path fill="#d5b427" d="M179.835 195.386l1.164 36.515-22.549-15.42 9.31-27.497z"/><path fill="#f2d8d4" d="M227.046 97.184l1.454 10.256-4 31.571-6.111 23.641-42.263 13.457v-19.858l2.11-10.912 3.709-4.437 30.26-70.778 13.676 15.494z"/><path fill="#fef3f2" d="M218.389 162.652l-25.751 8.22-17.458 21.967-9.384-26.986 16.368-7.348 40.516-12.438z"/><path d="M175.18 192.839l-10.402-27.714 13.457-19.786 3.855-1.019c.945 1.527 3.128 4.437 3.128 4.437l-3.055 9.748-10.547 9.165 3.564 25.169z" fill="#f2d8d4"/><path fill="#d4aba5" d="M188.564 117.188l25.461 18.549-31.861 22.768-27.206-27.35z"/><path fill="#d5aca6" d="M226.027 85.618l-9.748 4.219L228.5 107.44l2.255-15.13z"/><path d="M217.297 80.816l-3.271 54.921-23.569.582 6.766-37.389 12.511-29.679c2.399 3.564 5.966 3.71 5.966 3.71l1.597 7.855z" fill="#edcfcc"/><path d="M221.445 76.743l-4.148 4.073-2.763-4.582s-2.402-3.418-4.802-6.983l.655-1.527 4.436-23.788s8.439 1.31 8.002 2.183c-.435.873-1.38 30.624-1.38 30.624z" fill="#daccc9"/><path fill="#fef3f2" d="M220.135 55.285l-1.528 6.619-2.328 27.933 14.476 2.473 4.219-28.37z"/><path fill="#daccc9" d="M210.679 9.529l8.147.073 19.276 31.788-3.128 22.55-16.367-2.036-2.546-13.457-11.566-17.459z"/><path fill="#eae1e0" d="M143.101 33.461l-5.02-18.622L176.489 0l42.337 9.602-9.094 16.149z"/><path fill="#f2d8d4" d="M191.765 32.225l17.967-6.474 6.329 22.696-1.527 27.787-8.221 27.061z"/><path fill="#fef3f2" d="M138.081 14.839l-9.383 20.441 4.218 71.87 19.205 27.059 40.153-.509 10.039-10.548 4.728-20.513 2.691-76.888-18.549-9.821-30.261 4.729z"/><path fill="#f2d8d4" d="M139.827 60.594l-7.129 3.637 25.461 28.661 7.056-4.219 7.856 4.219 26.187-30.988-11.13-2.692-12.002 4.947-8.802 2.837-1.164 1.527-3.273-1.382-7.856-3.71-8.584-1.964z"/><path d="M132.916 107.15l1.747 14.767 17.239 13.821 38.554.582 14.476-12.075 2.109-21.604-11.857 10.039-13.093-15.712-10.984-2.546-11.058.218-11.857 2.474-5.819 16.221-9.457-6.185zm19.35-3.928l13.312-4.001 15.494 3.564 5.382 16.876-36.807-.437 2.619-16.002z" fill="#f8e6e4"/><path fill="#f2d8d4" d="M143.683 88.309l-5.819 2.037-3.274-7.71zM191.838 88.6l7.129 2.91 3.273-10.111z"/><path fill="#d5aca6" d="M229.445 70.269l-6.4-.946-1.236 13.822z"/><path fill="#f8da51" d="M192.638 170.872l36.227-2.764 3.78-25.605-7.346-9.966z"/><path fill="#d5aca6" d="M161.65 89.473l-3.491 3.419 7.419 6.329 7.493-6.329z"/><path fill="#787271" d="M173.216 60.667l5.164.946 10.112-4.583 10.911 4.074-.145.8-10.694-1.31-12.438 3.565zM158.595 61.613l-4.947.145-14.184-3.273-7.275 4.946.509.8 8.075-2.764 14.258 1.964z"/><path fill="#f2d8d4" d="M166.16 53.539l-.219 8.002 6.256 3.345zM163.469 56.884l-.8 4.438-3.638 2.037z"/><path fill="#fef8f8" d="M162.887 67.141l-4.728 25.751h14.912l-5.747-25.896z"/><path fill="#d5aca6" d="M153.211 108.241l8.948-2.11 3.201.946 3.783-1.092 10.256 2.183v1.382l-9.82-1.018-4.291.873-3.638-.655-8.074.8z"/><path d="M286.548 370.258c0 2.11.292 4.146.947 6.039l19.785-1.967 17.968-12.073c-3.056-7.129-10.185-12.222-18.478-12.222-11.202.001-20.222 9.093-20.222 20.223z" fill="#757577"/><path d="M287.495 376.297c2.546 8.145 10.183 14.11 19.275 14.11 11.131 0 20.15-9.02 20.15-20.149 0-2.837-.581-5.527-1.673-8.001l-37.752 14.04z" fill="#6b6c6c"/><path d="M252.506 364.148l8.219-.073 4.655 6.983-8.292-.363-4.582-6.547zm4.292 2.255l1.527 2.184 2.691.072-1.527-2.256h-2.691zM267.709 377.387l-2.329-6.329 7.784.509 3.346 7.638-8.801-1.818zm2.183-1.528l2.765.509-1.018-2.327-2.475-.146.728 1.964z" fill="#cdcbcb"/><path d="M287.495 376.297l-5.893-1.82-5.093 4.727 8.876 1.455 2.11-4.362zm-3.13.436l-1.019 1.965-3.27-.51 1.89-1.747 2.399.292z" fill="#cdcbcb"/><path d="M144.993 43.791l14.838 1.382s35.499-2.982 34.771-2.836c-.727.146-34.333 4.655-34.333 4.655l-15.276-3.201zM143.683 39.426l16.003 2.183 21.386-2.255-21.677.218z" fill="#f2d8d4"/><path fill="#44413e" fill-opacity=".2" d="M180.999 231.901l-41.754 13.97-.218 7.053 42.336-14.984 30.626 14.984zM211.989 252.924l28.805-13.966.363-20.003-5.092 5.673z"/><path d="M151.175 69.178c0 1.891-1.455 3.346-3.346 3.346-1.892 0-3.347-1.455-3.347-3.346 0-1.819 1.455-3.347 3.347-3.347 1.892.001 3.346 1.528 3.346 3.347zM186.237 68.451c0 1.892-1.528 3.419-3.419 3.419-1.819 0-3.346-1.527-3.346-3.419 0-1.818 1.527-3.346 3.346-3.346 1.891-.001 3.419 1.527 3.419 3.346z" fill="#33302d"/></svg>