<svg xmlns="http://www.w3.org/2000/svg" viewBox="0 0 400 400"><path d="M338.377 286.588l-29.026-.72s-33.77 8.981-33.697 4.527l23.279-20.835-20.693-68.47 47.993-6.609 11.209 61.5c1.725-.791 2.73-1.294 2.73-1.294l-.648 12.574-1.147 19.327z" fill="#74673a"/><path fill="#33302d" fill-opacity=".102" d="M136.603 385.4l118 14.6 100.795-14.6-104.819-12.656z"/><path fill="#a47a1b" d="M203.019 373.675l-24.789 6.465v7.113l32.762-.288 8.118-4.67v5.246l15.303-.647-.142-8.406-13.651-5.676z"/><path fill="#b98f16" d="M222.56 342.496l-9.485 12.284-34.845 25.36 56.041-1.652-1.94-18.106z"/><path fill="#a47a1b" d="M227.947 316.342l-11.095 5.851-3.777 32.587 19.256 5.602 19.038-25.566-5.368-2.284-9.934-11.089z"/><path fill="#d2b000" d="M254.603 277.103l-32.924-4.021-4.827 49.111 29.149 10.339 16.577-27.355z"/><path fill="#a47a1b" d="M273.14 379.71l-7.976 4.311.145 7.112 38.939-.144-.358-6.466z"/><path fill="#b98f16" d="M283.485 360.885l-4.597 4.959-13.724 18.177 38.726.502-4.455-18.679z"/><path fill="#a47a1b" d="M280.826 319.862l20.062 11.649 8.606.071-10.059 34.262h-20.547l-10.418-33.312z"/><path fill="#e8c900" d="M265.02 282.494l-7.041 22.127 10.491 27.911 32.418-1.021 2.227-34.735-5.333-18.953-23.207 1.15z"/><path d="M173.991 182.411l-7.544-2.946-13.506-10.13s-1.005-9.556-.575-8.693c.36.935 29.169-5.316 29.169-5.316l-7.544 27.085z" fill="#a37e39"/><path d="M80.95 157.264s23.926-5.675 24.644-4.382c.718 1.293-1.652 9.125-1.652 9.125l-21.914 9.196-22.487 6.97 2.73-17.029 18.679-3.88z" fill="#e7c811"/><path fill="#f9db4f" d="M54.655 167.467l-7.687 29.385 35.06-25.649z"/><path fill="#f1d765" d="M67.156 149.002l-25.649 27.087 59.058-18.608-4.383-9.628z"/><path fill="#eacd37" d="M90.147 131.472l-38.078 19.973 52.232 6.466 16.523-8.909-3.376-15.087z"/><path fill="#d4b728" d="M120.824 142.033l-32.401-6.753-18.034-3.808 31.11-5.963 20.116 3.879z"/><path fill="#a5a5a5" d="M119.532 146.919l-8.908 4.813-28.596 19.471 20.477 1.939 30.462-7.902 1.006-15.088z"/><path d="M146.69 113.366l-27.446 6.61-8.62 31.756 25.433 7.974s15.734-10.489 15.734-11.711c.071-1.15 4.023-24.931 4.023-24.931l-9.124-9.698z" fill="#767475"/><path d="M146.69 113.366l2.371 33.336 10.848.36s11.927-20.262 10.92-19.327c-1.077.934 4.024-12.502 4.024-12.502l-28.163-1.867z" fill="#555554"/><path fill="#555554" d="M174.71 134.058l-8.119-8.909 8.263-9.915 8.621 17.53z"/><path fill="#8d8b89" d="M149.061 146.703l17.53-21.554 19.543 3.089.574 21.339-4.023 10.633-24.931 11.926-14.226-5.172z"/><path fill="#767475" d="M186.134 128.238l1.221.145 22.704 1.149 3.376 6.466-5.82 12.214-24.93 11.998.215-11.352z"/><path fill="#999593" d="M102.505 173.142l46.556-26.439 8.693 25.433z"/><path fill="#b98f16" d="M182.757 178.603l-.072-5.891 7.759-22.344-7.544-1.51-16.453 30.607z"/><path fill="#d3b329" d="M193.965 204.251l.503-15.158 21.267-18.969 9.627 38.799-6.178 3.591-9.556 3.306z"/><path fill="#e8c900" d="M186.78 190.242l7.688-1.149 15.16 26.727-28.094 9.34-8.764-24.213z"/><path fill="#a47a1b" d="M231.253 162.581l-9.484-2.299-13.364 2.659 10.779 49.573 14.009-22.99z"/><path fill="#c5a60e" d="M237.576 255.91l-14.873 6.754-1.024 10.418 36.3 31.539 27.518-22.127 14.871-16.383-20.186-11.135z"/><path fill="#8c681d" d="M231.972 246.425l-9.412 6.324.143 9.915 84.204 3.447.575-7.973-3.378-5.892-27.085-19.758z"/><path fill="#777373" d="M304.822 286.158l-2.441 11.351 54.388 59.058 1.724-1.725-49.142-68.973z"/><path fill="#b59631" d="M331.118 218.335l15.377 11.279 3.447 63.369-18.894 12.07.862-48.999-5.891-16.812z"/><path fill="#d3b329" d="M319.913 266.759l26.582-37.145-24.932-11.064-7.831 9.41z"/><path fill="#e8c900" d="M320.27 159.348l5.318 7.113 20.907 63.153-32.261-3.018-8.26-12.427 7.184-49.576z"/><path fill="#a47a1b" d="M294.405 181.405l15.663-29.6 19.902 3.951-23.996 58.413z"/><path fill="#b98f16" d="M232.187 162.797l-10.418-2.515-2.585 52.232 1.292 15.446 8.408 1.368-6.324 23.421 81.544-.503 5.964-100.441z"/><path fill="#6e6a6a" d="M287.509 254.114l13.795 5.244-2.083 18.465-16.382 6.826-11.065-3.809-1.293-16.238z"/><path fill="#666161" d="M295.698 279.259l-12.859 5.39-11.065-3.809-1.293-16.238 5.675-3.448 14.657 10.922 6.108 4.813z"/><path fill="#6e6a6a" d="M260.997 256.054l2.73.143-.43-3.665 2.299-4.309 2.658-4.456-2.731-3.376-7.112 12.141z"/><path fill="#5e5a59" d="M285.929 269.059l-2.085 4.023-12.932-3.163-1.148-4.814 3.088-1.938z"/><path fill="#666161" d="M270.912 269.919l-9.915-13.865 2.3-3.522 9.555 10.635z"/><path fill="#827d7d" d="M291.173 265.753l-19.686-25.22-3.664 2.804 2.946 2.803 5.459 10.631 14.585 15.305z"/><path fill="#746f6e" d="M267.823 243.337l-5.245 2.012 21.266 27.733 6.969-1.006-20.044-25.936z"/><path fill="#957f20" d="M276.804 167.323l5.101 17.171-59.345 68.255-2.084-24.789z"/><path d="M304.942 110.808l16.253 1.478-11.127 39.519-8.079 1.772-17.341-19.362s20.607-23.095 20.294-23.407z" fill="#4e4a48"/><path fill="#f1f2f3" d="M253.812 146.201l1.367 14.296-22.703 24.931-10.707-25.146 14.298-16.309z"/><path fill="#f1f2f3" d="M250.724 147.853l4.455 12.644 26.726 23.997 28.163-32.689-5.89-4.024-16.669-4.167-6.61-11.783z"/><path fill="#d4d3d3" d="M291.259 137.092l-13.764 19.129 32.573-4.416-15.466-14.869z"/><path fill="#f2d8d4" d="M256.188 145.335l-1.009 15.162 31.881-28.46 4.199-22.939-18.663-37.092-10.576 9.564-13.998 62.831z"/><path fill="#d4aba5" d="M240.403 134.448l-6.61 7.621 21.386 18.428 15.938-22.628-18.041 2.412z"/><path fill="#565554" d="M285.971 112.597l-3.112 5.522-5.364 38.102 43.7-43.935z"/><path fill="#6d6a69" d="M281.537 62.986L269.64 79.16l13.219 38.959 38.336-5.833-18.08-31.959z"/><path fill="#5e5b5b" d="M281.15 21.929l24.824 16.018-2.859 42.38-33.475-1.167-2.254.312-22.084-31.883z"/><path fill="#646161" d="M196.002 32.349l11.196 14.308 41.992 4.198 56.784-12.908-37.422-34.059-40.435 9.098z"/><path fill="#5b5756" d="M173.684 55.599l-4.821 14.619 23.407 10.109-3.577-16.641z"/><path fill="#625f5f" d="M189.625 22.395l-20.607 8.632-.155 39.191 17.652-6.532 9.642-16.018 5.055-21.851z"/><path fill="#737172" d="M242.814 6.999l-10.731-3.422L221.739.312l-18.506 4.431-34.215 26.284 26.984 1.322z"/><path fill="#6d6a69" d="M196.002 32.349l36.081-28.772L244.136.001l24.416 3.887z"/><path fill="#fef3f2" d="M193.435 40.747l-6.92 22.939 8.32 43.468 21.151 38.492 4.665-.623 4.588-4.276 9.255 1.866 18.582-2.332 16.875-23.251-.311-37.87-20.45-28.305-44.557-12.908z"/><path fill="#f2d8d4" d="M196.002 32.349l-2.567 8.398 55.755 10.108z"/><path fill="#d5aca6" d="M211.009 115.863l18.818-3.266 5.288-3.266 3.966 1.011-6.843 4.51-19.674 3.421z"/><path d="M195.302 64.464c.156-1.478-6.299 5.521-6.299 5.521l19.595 28.071 6.766-12.52 6.844 9.797 26.672-38.414-12.442-1.866-13.918 11.664-4.51 6.221-2.255 3.343-2.645-2.1-4.275-5.131-2.799-3.422-10.734-1.164z" fill="#f2d8d4"/><path fill="#d5aca6" d="M212.488 92.768l-3.89 5.289 8.321 4.508 5.288-7.231z"/><path fill="#6d6a69" d="M208.443 64.152l-14.23-1.244-5.599 5.833.388 1.244 6.143-2.878 13.688 1.945zM220.884 61.663l15.632-8.475 12.519 2.333-.156 1.399-11.042.467-15.318 9.332z"/><path fill="#fef8f8" d="M213.108 74.183l-4.51 23.874 13.609-2.723-4.198-22.394z"/><path fill="#6d6a69" d="M214.354 106.377l-10.266 6.764-13.685-1.088 15.707 6.143 9.176-6.843zM220.185 104.51l17.339.778 11.666-4.822-10.109 9.876-17.653-.622zM222.13 131.96l-1.479 13.063 13.843-2.41z"/><path fill="#a37e39" d="M298.933 269.561l-2.012 7.328-14.082 7.76 19.542 12.86z"/><path fill="#c5942d" d="M309.709 257.705l-8.405 1.653-4.383 17.531 5.46 20.62 14.872-25.506z"/><path fill="#a47a1b" d="M344.842 248.079l-30.608-21.483-12.93 32.762 15.949 12.645zM169.465 212.228l25.003-23.135-11.783-16.381-16.238 6.753z"/><path fill="#8c8786" d="M270.769 246.14l.718-5.607-5.964-.142-2.945 4.958z"/><path d="M201.212 74.573c2.019 0 3.654 1.635 3.654 3.654 0 2.018-1.636 3.654-3.654 3.654-2.02 0-3.656-1.636-3.656-3.654 0-2.019 1.636-3.654 3.656-3.654zM233.481 67.419c2.024 0 3.655 1.633 3.655 3.655 0 2.021-1.632 3.654-3.655 3.654-2.02 0-3.654-1.633-3.654-3.654 0-2.022 1.634-3.655 3.654-3.655z" fill="#33302d"/></svg>