<svg xmlns="http://www.w3.org/2000/svg" viewBox="0 0 400 400"><g fill-rule="evenodd" clip-rule="evenodd"><path opacity=".1" fill="#33302d" d="M111.471 386.355l77.722 13.501 78.034-12.312-76.551-13.04z"/><path fill="#6e5219" d="M164.562 368.708l6.945-2.769-4.756 22.853-4.616-11.825z"/><path fill="#85611b" d="M210.487 373.374l9.359 17.581 27.49-.272-11.117-18.099-13.838 9.253-6.463-23.72z"/><path fill="#fef2f0" d="M219.846 390.955l16.373-18.371-6.201-15.81-3.525-2.496-7.637 1.153-2.938 2.686z"/><path fill="#f2d6d2" d="M212.797 327.411l3.121 30.706 14.1-1.343 10.559-39.234-6.882.618-17.465 5.578z"/><path fill="#85611b" d="M128.408 387.422l28.009 1.357 15.09-22.84-7.478-9.646-10.467 24.737-11.578-10.709z"/><path fill="#fef2f0" d="M150.699 351.703l4.308-1.92 9.008 3.072.014 3.438-7.612 32.486-14.433-18.458z"/><path fill="#f2d6d2" d="M157.374 325.15l-6.675 26.553 13.33 4.59 19.147-27.072-4.575-2.544-13.708-1.536z"/><path fill="#d4a8a2" d="M183.176 329.219l-25.802-4.069 8.818-4.834 19.974-4.224 2.806 4.85zM212.797 327.411l-.744-7.311 3.961-3.328 20.758-1.537 3.805 2.305z"/><path fill="#937e6f" d="M149.637 151.65l13.264 8.259 10.678 1.922 9.995-2.585 1.35-9.848-26.323-17.927-7.204-3.439z"/><path fill="#5f4937" d="M183.574 159.246l-9.162 7.169-6.033-2.743-18.742-12.022z"/><path fill="#77624f" d="M190.011 124.452l-34.287-1.373-4.327 4.953 32.177 31.214-2.322 4.997 14.768-3.792 1.999-9.972z"/><path fill="#3e2b17" d="M195.17 141.218l-9.015-13.06-2.581 31.088 12.446 1.205z"/><path fill="#5f4937" d="M157.446 88.874l9.02 19.921 6.074 19.237h-21.143l-2.306-14.579z"/><path fill="#937e6f" d="M147.571 94.002l-9.38 9.38 13.206 24.65 4.945-21.67 2.843-7.167z"/><path fill="#77624f" d="M142.232 75.259l10.057.39 6.896 23.546-20.994 4.187z"/><path fill="#5f4937" d="M136.151 66.674l23.034 32.521 4.678-7.718-5.113-39.373z"/><path fill="#77624f" d="M196.872.144L153.96 15.792l3.635 4.664 31.529 9.44 9.322-21.681z"/><path fill="#937e6f" d="M189.124 29.896l-2.932-5.184L196.872.144l47.226 11.762-4.856 7.576z"/><path fill="#5f4937" d="M266.592 67.363l-10.529-4.768-24.156-33.624-2.628-12.114 14.819-4.951zM247.319 110.474l-8.635-30.556.047-12.75 11.465-5.769 16.396 5.964-1.882 16.559z"/><path fill="#937e6f" d="M284.938 100.286l-9.879 6.442-8.97.844-17.018-4.836 17.521-35.373z"/><path fill="#77624f" d="M254.577 115.793l15.016 19.827 10.156 2.717 5.189-38.051-35.867 2.45z"/><path fill="#5f4937" d="M244.383 161.23l-.149-12.576 1.333-31.71 3.66-14.162 30.522 35.555-4.897 8.787-11.266 8.359z"/><path fill="#5f4937" d="M288.53 164.414l-8.781-26.077-16.71 23.036 5.714 29.596z"/><path fill="#77624f" d="M257.783 164.343l-10.141-8.982 32.107-17.024-11.792 24.956z"/><path fill="#3e2b17" d="M226.549 137.465l1.501 10.011 1.502 6.006 16.767 8.759 1.323-6.88 1.565-52.801-7.447 1.446z"/><path fill="#9f751c" d="M258.42 345.946v-20.904l6.44-3.718v-1.755l-6.44-3.719v-20.905l-9.859 32.836 3.502 4.14-3.488 3.163-3.76-6.245 12.015-40.432 12.231-.873v4.137l13.641 3.655v20.747l-13.641 3.654v1.437l13.641 3.655v20.745l-13.641 3.656v4.139h-4.201l-.467-3.533z"/><path fill="#fef2f0" d="M163.438 254.89l-3.61 24.893 10.071.766 3.421-5.897z"/><path fill="#f2d6d2" d="M159.828 279.783l9.284-2.248 1.928 7.38-5.499 7.107zM179.401 251.468l-7.982-1.9-5.13 2.091-2.851 3.231 5.674 22.645 4.208-2.883zM168.379 163.672l-2.586 47.74 2.966 4.711 9.198.346-5.397-29.422 12.524-23.787-1.51-4.014z"/><path fill="#fef2f0" d="M165.793 211.412l11.361.68 5.517 28.962-3.27 10.414-15.963 3.422z"/><path fill="#9f751c" d="M248.385 316.826l-91.011 8.324 4.014-16.28 9.728-9.593 69.476-17.784 8.405 4.15z"/><path fill="#d1af01" d="M257.315 254.129l-1.572 13.384-4.042 7.885-2.704 10.245-87.609 23.227 16.493-66.904 7.981-1.52 65.752 10.642z"/><path fill="#e7c600" d="M229.917 215.255l-9.088-.274-39.528 20.905-3.42 6.08 79.434 12.163z"/><path fill="#c29014" d="M167.087 187.542l10.794 54.424 52.036-26.711 12.83-17.526-5.956-4.791-59.67-6.461z"/><path fill="#fef2f0" d="M183.573 159.247l-16.486 28.295 11.212-.181 37.304-13.196 20.619-16.384 1.212-6.407-9.384-3.664-24.602 11.548-6.442-3.856z"/><path fill="#d1af01" d="M242.747 197.729l-75.66-10.187 44.62-16.649 7.221.761 19.383 14.063z"/><path fill="#f2d6d2" d="M267.957 163.292l-3.208 10.829-14.275 18.817-7.727 4.791-4.436-12.012 3.611-26.796 5.72-3.56z"/><path fill="#e7c600" d="M237.434 151.374l-25.727 19.519 31.04 26.836 4.895-42.368z"/><path fill="#fef2f0" d="M242.747 197.729l25.21-34.437 1.471 51.103-3.752 4.386-14.707.249-3.8-4.18z"/><path fill="#f2d6d2" d="M247.169 214.85l22.259-.455 1.412 41.803-4.023 2.112h-5.701l-3.801-4.181z"/><path fill="#f2d6d2" d="M251.701 275.398l5.614-21.269 2.09 3.61.381 17.103-2.954 6.055zM258.42 294.945l-1.588-14.048 7.514-5.675 14.254.191-13.19 8.864-1.091 6.839z"/><path d="M261.46 296.467v17.103l5.898 3.63 12.432-3.655v-15.771l-13.959-3.777-4.371 2.47zm0 47.959v-17.102l5.898-3.633 12.432 3.657v15.772l-13.959 3.777-4.371-2.471z" fill="#74561a"/><path opacity=".1" fill="#161511" d="M229.917 215.255l-68.529 93.615 87.609-23.227 8.318-31.514z"/><path fill="#fef2f0" d="M256.832 280.897l.483-26.768 13.525 2.069 7.76 19.215z"/><path fill="#d4a8a2" d="M198.019 166.996l21.86-14.153 12.004-27.114-41.663-.6-4.381 3.907z"/><path fill="#f2d6d2" d="M214.357 129.781l12.27.445-28.608 36.77 30.031-19.286 21.021-44.974-5.771-7.365-1.835-18.797-2.734-9.406-11.27-30.786-17.176 76.21z"/><path fill="#fef2f0" d="M173.035 24.927l33.727-.551 17.073 12.298 8.048 17.159-2.379 51.198-15.147 24.75-41.817-1.749-16.198-21.67-1.749-46.353 7.838-23.773z"/><path fill="#f2d6d2" d="M159.136 64.899l9.315-3.266 14.506 2.982 1.861 4.236 1.125 11.82-4.416 12.127-9.761-21.187zM190.899 82.272l1.547-13.41 4.049-4.805 13.892-3.694 13.686 2.591-15.627 8.066-14.005 21.766z"/><path fill="#3e2b17" d="M168.449 59.636l-9.313 5.263 9.213-1.795 14.608 1.511zM196.495 64.057l14.867-2.639 12.713 1.536-12.284-4.822z"/><path d="M171.327 67.501c2.15-.046 3.929 1.757 3.972 4.026.044 2.27-1.664 4.147-3.814 4.193-2.149.046-3.929-1.757-3.972-4.027-.044-2.27 1.664-4.148 3.814-4.192zM206.225 67.683c2.149-.046 3.928 1.757 3.971 4.026.045 2.271-1.663 4.147-3.814 4.194-2.15.046-3.929-1.757-3.973-4.027-.042-2.27 1.666-4.147 3.816-4.193z" fill="#33302d"/><path fill="#d4a8a2" d="M188.291 98.854l-6.764-6.056 12.914-.012z"/><path fill="#fef8f8" d="M181.527 92.798l3.291-23.947 7.628.011 1.995 23.924z"/><path fill="#e7c600" d="M183.894 112.341l-7.044-4.993 12.819-.986 15.71 1.428-9.723 4.802z"/><path fill="#b98a17" d="M176.85 107.348l12.1 1.21 16.429-.768-10.537-3.206h-11.635z"/><path fill="#d4a8a2" d="M249.071 102.736l-9.508-7.738 4.491-1.791 2.984 2.537z"/><path fill="#fef2f0" d="M241.465 76.574l-1.902 18.424 7.475.746z"/><path fill="#937e6f" d="M153.96 15.791l19.075 9.137-18.442 35.081-18.442 6.666z"/><path fill="#77624f" d="M238.731 67.168l27.861.196-37.313-50.508-22.517 7.52z"/></g></svg>