<svg xmlns="http://www.w3.org/2000/svg" viewBox="-128.64 -48.23 400 400"><path fill="#efd0cb" d="M91.707 100.052l-20.771 22.044-22.043 7.63-12.717-9.749 3.391-20.772 2.543-7.206 3.391-8.902-.848-4.662 18.653-9.328 23.313-89.02 31.372 4.661 7.628 18.23-8.901 25.434-13.141 17.805 1.272 16.108z"/><path fill="#2b2b2b" fill-opacity=".102" d="M-21.477 329.812l93.26 21.196 91.141-20.772-88.173-14.413-73.76 10.599z"/><path fill="#4d3a00" d="M-15.118 200.52l18.228 5.087-7.206-16.532z"/><path fill="#4f5253" d="M19.642 261.563l-4.663-41.968v-12.293l50.446 34.337-3.815 25.01-5.935 4.663-32.218-4.663z"/><path fill="#474747" d="M23.882 304.378l-4.24-42.815 41.968 5.086-5.935 38.152-13.989 8.904z"/><path fill="#4f5253" d="M76.869 267.921l-16.108-36.455 22.468-13.142 35.183 2.119 2.545 41.544-4.663 8.054-29.25 3.392z"/><path fill="#474747" d="M94.675 311.584l-17.806-43.663 44.088-5.934 2.967 48.749-13.141 6.359z"/><path fill="#9e7700" d="M89.588 330.658l5.087-19.074 29.249-.848 5.087 20.348-17.805 3.815z"/><path fill="#755800" d="M89.588 337.867v-7.209l39.423.426v6.783z"/><path fill="#9e7700" d="M55.675 320.911v-16.11l-31.793-.423-22.891 15.26 13.565 4.664z"/><path fill="#755800" d="M55.675 327.693v-6.782L.991 319.638v6.784z"/><path fill="#454444" d="M118.412 220.443l-52.987 21.196-50.446-22.044v-12.293h104.283z"/><path fill="#c4c4c4" d="M14.979 219.595l-3.814-30.52 25.011-69.522 5.51-1.272h22.891l54.26 74.607-22.042 16.957z"/><path fill="#9e7700" d="M15.827 104.717l16.109-5.512 8.132 29.072-10.251 63.34-14.838-2.119-3.814 3.39-3.392-4.238-4.239-33.489z"/><path fill="#8e6b00" d="M41.686 118.281l-1.618 9.996-21.274-4.061z"/><path fill="#755800" d="M-22.324 162.792l30.097-55.533 8.054-2.542-4.662 48.325-13.991 12.717z"/><path fill="#856400" d="M-16.813 191.194l-5.511-28.402 33.489-9.75-3.392 35.608z"/><path fill="#755800" d="M-15.118 200.52l-1.695-9.326 25.434-13.142-.848 10.598-2.967 7.63-10.175-.848z"/><path fill="#9e7700" d="M60.761 197.129l3.816-78.848 45.358-21.195 19.076 5.51-2.967 65.282-27.13 24.588z"/><path fill="#755800" d="M78.991 135.237l.422 7.63h28.191v-7.63z"/><path fill="#efd0cb" d="M96.795 209.845l21.617 10.598-10.171-17.804-7.631.425z"/><path fill="#cea39f" d="M118.412 220.443l6.361-8.054-20.348-16.109-3.815 6.784z"/><path fill="#856400" d="M98.914 192.466l33.912 26.282 32.217-41.12-22.891-18.229-28.402 5.088z"/><path fill="#755800" d="M98.914 192.466l33.912 26.282 9.326-3.392-.423-8.054-37.304-25.01zM165.043 177.628l-51.293-13.141 15.261-61.891 16.534 4.663z"/><path fill="#9e7700" d="M152.326 211.542l-10.597-4.24-8.903 11.446 13.141 5.086 8.479-3.391z"/><path d="M143 212.813c1.695 0 2.967 1.271 2.967 2.968 0 1.695-1.271 2.967-2.967 2.967-1.695 0-2.968-1.271-2.968-2.967.001-1.697 1.273-2.968 2.968-2.968zM27.273 158.13c1.696 0 3.391 1.694 3.391 3.391 0 2.119-1.694 3.815-3.391 3.815-2.119 0-3.391-1.696-3.391-3.815 0-1.697 1.272-3.391 3.391-3.391zM30.241 131.847c1.871 0 3.391 1.518 3.391 3.39 0 1.874-1.52 3.392-3.391 3.392-1.873 0-3.392-1.518-3.392-3.392 0-1.873 1.519-3.39 3.392-3.39z" fill="#755800"/><path fill="#efd0cb" d="M-5.369 195.432l20.348 24.163-1.695-25.435-5.511-5.51z"/><path fill="#cea39f" d="M14.979 219.595v-30.097l-7.206-.848z"/><path fill="#755800" d="M18.794 124.216l13.142-25.011 10.174-7.206-.424 26.282zM89.164 129.726l-24.587-11.445L96.37 86.064l13.565 11.022z"/><path fill="#2b2b2b" fill-opacity=".102" d="M98.914 192.466l5.511 3.814-3.815 6.784-39.424-5.935zM14.979 197.552v-8.054l14.838 2.119z"/><path fill="#cea39f" d="M55.25 104.717l19.501-16.11-39.424-11.869-4.664 3.815z"/><path fill="#ffeee9" d="M2.262-23.728l-8.054 72.064L5.654 75.89l39.847 7.207 22.891-10.175 24.163-86.901 25.436-1.273-34.762-29.673-51.293-2.542z"/><path fill="#cea39f" d="M104.849 62.325L94.25 46.217h9.327l5.087 4.663z"/><path fill="#ffeee9" d="M101.457 23.75L94.25 46.217l14.414 4.663 8.054-22.468z"/><path fill="#cea39f" d="M104.425 30.532l-2.544 8.901 8.054-7.629z"/><path fill="#efd0cb" d="M7.773.011l5.934-3.393 15.262 6.36-.849 19.5-3.813 4.662-5.936-16.956zM36.599 4.25L32.36 22.478l2.967 8.901 12.717-15.684 12.717-6.783-4.239-5.934z"/><path fill="#858686" d="M27.273-1.261l1.696 4.239-15.262-4.663L7.773.011 7.349-2.11l5.935-2.543zM40.414.434L36.599 4.25l19.923.424 4.239 4.238 2.12-1.272-5.934-5.934z"/><path fill="#e6d6d2" d="M-5.792 48.336l9.751 5.088 4.662-13.567 14.413-9.75 6.358 2.968 5.935-1.696 14.414 16.533 1.27 13.565 22.045-6.359v21.62l-11.023 5.087-16.532 1.272L5.654 75.89z"/><path fill="#d7bbb7" d="M73.056 55.118l-4.664 17.804-22.891 10.175 29.25 5.51 8.478-7.206L94.25 46.217z"/><path fill="#cea39f" d="M16.251 47.912l-.424 2.968 19.5 2.967 6.783-1.695-.424-2.968-6.782 1.271z"/><path d="M18.794 8.912c1.873 0 3.392 1.518 3.392 3.391s-1.519 3.391-3.392 3.391-3.391-1.518-3.391-3.391c.001-1.873 1.518-3.391 3.391-3.391zM46.349 13.152c1.873 0 3.392 1.519 3.392 3.392s-1.519 3.391-3.392 3.391-3.391-1.518-3.391-3.391c0-1.874 1.518-3.392 3.391-3.392z" fill="#2b2b2b"/><path fill="#efd0cb" d="M34.48-6.349L32.36.858l4.239 3.392L34.48.011z"/><path fill="#cea39f" d="M28.544 72.922l2.119 7.631-5.086-.847zM23.034 30.107l5.935-1.271 6.358 2.543-7.207 5.512z"/><path fill="#fff5f3" d="M28.544 9.337l-5.51 20.77 12.293 1.272-.423-20.77z"/><path fill="#efd0cb" d="M4.381 16.966l8.479-2.543-3.391 4.239zM51.86 19.51l2.543 5.087 6.358-.424zM26.426-17.37l24.585 1.271-15.26 1.272z"/></svg>