<svg xmlns="http://www.w3.org/2000/svg" viewBox="-152 -152 400 400"><path fill="#2c2b2b" fill-opacity=".102" d="M-87.062 235.25l166.928 11.657 103.195-12.602-103.195-10.248z"/><path d="M101.658 232.657l.235 6.007 38.052.941-.236-6.125s-26.857-5.066-26.857-5.653c0-.118-6.6 3.771-11.073 4.83h-.121zM67.377 219.579l-31.099 10.366v4.83l52.067-.235v-5.419z" fill="#616061"/><path fill="#98732c" d="M-35.229 78.449l-4.712 4.246-18.729 22.263.117 25.915 1.295 1.884-1.177 6.952v4.359l1.295 1.766-1.295 7.07.236 57.369 4.241 1.882-4.124 6.953h-.117l.117 4.242 3.887 2.59-3.887 6.364v2.707l61.023-.471-.238-37.346-4.357-2.471 4.357-6.478v-4.241l-3.533-3.653 3.416-5.183-.354-57.25-4.712-1.063 4.712-7.774-.117-4.358-4.713-.354-.235-5.658-9.542-11.422-9.07-10.252z"/><path fill="#88682d" d="M-35.229 78.449l-4.712 4.246-18.729 22.263.117 25.915 1.295 1.884-1.177 6.952v4.359l1.295 1.766-1.295 7.07.236 57.369 4.241 1.882-4.124 6.953h-.117l.117 4.242 3.887 2.59-3.887 6.364v2.707l30.157-.236V77.743z"/><path d="M-58.553 130.873v8.836l60.667-34.986-5.065-6.012-55.72 32.162h.118zm0 13.195l60.667-34.987v8.837l-60.667 34.986v-8.836zm.236 66.205v8.836l60.785-35.105v-8.836l-60.785 35.105zm0 13.195l60.785-35.105v8.832l-60.785 35.109v-8.836z" fill="#c09f36"/><path d="M-58.553 130.873v8.836l30.628-17.668v-8.84l-30.628 17.672zm30.628-4.476v8.836l-30.51 17.672v-8.836l30.628-17.672h-.118zm0 66.325v8.832l-30.274 17.436v-8.836l30.274-17.432zm0 13.191l-30.274 17.437v8.832l30.157-17.433v-8.836h.117z" fill="#a78d38"/><path fill="#eecec9" d="M-20.385 78.214l-5.89-6.596-14.254 8.365.588 2.712 16.964-1.652zM-5.777 84.578l-6.598 2.711-6.36 8.715 3.886 3.418 16.022-8.837z"/><path fill="#feeee9" d="M5.415 79.631l-8.13-5.776-23.56-2.237 3.298 9.425 10.602 6.246 13.548 3.296z"/><path fill="#c09f36" d="M38.046 62.669l-14.961-.122-25.8 11.308 3.888 16.73 35.929-3.06z"/><path fill="#897a2f" d="M50.533 30.036l-5.066-5.183-22.382 37.694 14.017 24.978 15.785-19.32 7.188-13.784z"/><path fill="#eecec9" d="M139.121-32.637l-12.96 42.291-18.139 19.438-19.555-3.533L81.396-.712l23.327-99.543 13.43 14.725z"/><path fill="#808182" d="M112.495 212.866l-10.837 19.791 37.934.824-4.83-20.027-1.883-5.301-19.207-.235zM64.905 208.272l-1.059 3.177-27.568 18.496 52.067-.824-2.237-16.73-1.295-4.59z"/><path fill="#98732c" d="M103.898 167.395l-1.298 10.48 9.895 34.991 22.267.588 4.241-36.87-2.707-7.659zM78.807 212.042l7.301.349 5.419-34.16-2.712-8.717-24.145-5.301-7.895 8.247 7.071 38.989z"/><path fill="#b88c37" d="M91.527 178.231l3.888-23.796-18.849-17.79-27.33-5.654 7.539 41.469z"/><path fill="#b1842d" d="M93.645 118.031l1.77 36.404 7.185 23.44 36.403-1.291 3.3-28.866 10.601-22.852z"/><path fill="#9f7729" d="M142.303 147.718l10.601-22.852-43.588-5.065-2.946 1.295-3.884 19.555 34.158-5.889z"/><path d="M69.852 104.369l8.483 20.732s19.198 1.77 19.198 1.412c.122-.353.357-19.669.357-19.669l-28.038-2.475z" fill="#c9c9c8"/><path d="M95.769 108.606l-3.413 15.907-12.725-.589-4.478-15.554-10.837.475-2.005 17.79s51.953 3.179 51.953 2.472c0-.71-3.183-20.736-3.183-20.736l-15.432.235h.12z" fill="#515253"/><path d="M71.147 108.606l-6.831.122-2.005 17.785s3.535.236 8.836.593l1.295-6.481-1.177-11.896-.118-.123z" fill="#4d4d4d"/><path fill="#98732c" d="M95.415 154.435l-46.179-23.444L64.67 120.39l58.549 1.059 12.838 5.422z"/><path fill="#7b5e24" d="M106.37 121.096l16.849.353 12.838 5.422-15.786 10.716-17.785 3.064zM49.236 130.991L64.67 120.39l7.659.117 1.883 18.731z"/><path fill="#eecec9" d="M148.781 133.114l-5.301 4.594-1.177 10.01 13.784.121 9.421-9.659z"/><path fill="#feeee9" d="M156.087 111.91l6.007 6.592 3.414 19.678-22.028-.472.706-7.776-2.354-6.125 2.59-6.011-4.124-4.359.589-1.883z"/><path fill="#eecec9" d="M144.186 129.932l-7.542 4.83-3.417-6.007 7.071-15.318 4.124 4.359z"/><path fill="#c09f36" d="M137.002 110.259l7.42 7.537 17.672.706 5.065-32.629-26.978-.471z"/><path fill="#eaeceb" d="M76.213 77.63l6.953 30.976 22.733.358 9.19-57.843-27.921-26.859-11.426 18.731z"/><path fill="#d7d7d7" d="M111.675 46.173L88.467 25.559l-9.425 9.895 4.002-2.473 20.732 9.422z"/><path fill="#f1f3f4" d="M60.781 83.985l6.361 24.621h16.024l-.122-75.625-1.766-12.841-21.674 16.138z"/><path fill="#d7d7d7" d="M60.781 83.985l6.361 24.621h4.005l-2.471-66.674 14.368-8.951-1.766-12.841-21.674 16.138z"/><path fill="#897a2f" d="M125.337 80.69l17.908 9.189 23.914-4.006-17.907-65.262-5.654.353-15.907 30.392z"/><path fill="#897a2f" d="M105.31 94.474l1.535 39.699 26.382-5.418 11.195-10.959-1.177-27.917-17.908-9.189zM66.788 94.238l3.3 38.405-20.852-1.652-1.295-36.517 8.01-7.071z"/><path fill="#a3862f" d="M115.795 55.716l-11.309 14.607.824 24.151 37.935-4.595-11.194-25.444zM58.78 56.069l6.713 13.078 1.295 25.091-10.366.118-8.481.118-.943-24.621z"/><path fill="#c09f36" d="M67.023 29.681l-2.707 9.659 1.177 29.807-18.495.706-1.531-45 9.543-5.539zM108.022 29.092l-4.246 13.311.71 27.92 27.565-5.888 17.201-43.824-11.665-7.894z"/><path fill="#eceded" d="M66.2 12.836l-11.19 6.478 9.306 20.026 14.02-12.133.584-3.416-9.538-11.192z"/><path fill="#cea19c" d="M52.303-3.892l30.741 36.873 26.272-35.46-14.254.117z"/><path fill="#372613" d="M117.446-112.389l-9.546 11.781 15.789 45.589 13.427-.707 7.423-12.369 3.414-35.578z"/><path fill="#554537" d="M103.898-122.755l13.078-12.016 12.014 2.238 18.963 28.86-40.053 3.065-20.846-1.179 1.883-12.958z"/><path fill="#6e5f51" d="M93.881-135.598l23.095.827-25.919 29.568-19.674-.708-7.773-16.844z"/><path fill="#372613" d="M24.615-105.676l-14.49-4.828 13.431 51.598z"/><path fill="#8b7a6e" d="M28.974-111.565l-18.849 1.061 30.865-36.048 58.903-4.477z"/><path fill="#554537" d="M24.851-94.601l-3.534-3.886-11.192-12.017 89.768-40.525 17.083 16.258-45.829 17.552z"/><path fill="#feeee9" d="M21.317-98.487l1.768 65.85L36.867-2.479l58.195.117 13.196-30.275-.358-67.971-16.843-4.595-19.91-12.016z"/><path d="M34.157-77.637l-6.125 3.888L51.12-43.121l4.359-3.062 5.301 2.944 30.511-32.278s-6.479-3.653-7.067-3.298c-.475.354-16.02 5.301-16.02 5.301l-8.483 7.422-3.535 4.122-3.3-4.004-6.242-6.362-10.602-5.301-2.003.118.118-.118z" fill="#eecec9"/><path fill="#cea19c" d="M55.01-49.954l-3.889 6.833 5.184 3.533 4.476-3.768z"/><path fill="#eceded" d="M127.342 5.768L88.467 25.559l15.309 16.844 33.811-29.686z"/><path fill="#897a2f" d="M86.814 55.127l-3.883-5.301-3.183 4.713 3.183 6.125zM86.814 80.454l-3.883-6.242-3.418 5.771 3.418 6.007z"/><path d="M67.264-77.284l16.844-3.18 8.248 2.827-1.063 2.121-6.831-1.532-16.142 3.417s-.941-3.771-1.055-3.771v.118zM27.089-76.107l10.603-4.357 10.602 4.477-1.532 3.533-10.72-3.416-8.127 2.121z" fill="#6e5f51"/><path fill="#fef4f2" d="M53.009-65.974l6.713-.118 1.059 22.736-9.66.235z"/><path fill="#cea19c" d="M39.693-31.458l40.761-.943-10.248 12.369-22.383-.589z"/><path fill="#fff" d="M45.35-28.984l29.451-.591-5.777 6.951-19.552-.117z"/><path d="M-27.925 106.959c9.5 0 17.2 7.703 17.2 17.201 0 9.498-7.7 17.201-17.2 17.201-9.499 0-17.199-7.703-17.199-17.201 0-9.498 7.7-17.201 17.199-17.201z" fill="#b48d40"/><path d="M-27.925 141.361c-9.542 0-17.199-7.776-17.199-17.201 0-9.543 7.775-17.201 17.199-17.201v34.516-.114z" fill="#9f7c3e"/><path fill="#c9ad5a" d="M-20.15 132.407l6.715 12.956-2.944 1.412-2.592-2-3.417.235-.236 7.538-4.122-.235-.119-3.532H-28.984v3.532l-4.124.235-.235-7.538-3.418-.235-2.592 2-2.944-1.412 6.715-12.956z"/><path fill="#b09855" d="M-27.925 148.781h-1.059v3.532l-4.124.235-.235-7.538-3.418-.235-2.592 2-2.944-1.412 6.715-12.956h7.657z"/><path d="M-32.755 113.794l-5.418-6.6 2.356-1.884-2.356-3.182 2.474-1.884 2.356 2.477c4.595-.235 6.478-.235 11.073 0l2.356-2.477 2.474 1.884-2.357 3.182 2.357 1.884-5.419 6.6H-32.755z" fill="#c9ad5a"/><path d="M-32.755 113.794l-5.418-6.6 2.356-1.884-2.356-3.182 2.474-1.884 2.356 2.477c2.239-.122 3.886-.122 5.537-.122v11.194h-4.949z" fill="#b09855"/><path d="M-27.925 110.259c7.678 0 13.902 6.222 13.902 13.901 0 7.68-6.224 13.897-13.902 13.897-7.677 0-13.901-6.218-13.901-13.897s6.224-13.901 13.901-13.901z" fill="#d7d7d7"/><path d="M-27.925 138.058c-7.657 0-13.901-6.242-13.901-13.897 0-7.659 6.245-13.901 13.901-13.901v27.798z" fill="#c9c8c7"/><path d="M-27.925 188.481c9.5 0 17.2 7.699 17.2 17.197s-7.7 17.201-17.2 17.201c-9.499 0-17.199-7.703-17.199-17.201 0-9.498 7.7-17.197 17.199-17.197z" fill="#b48d40"/><path d="M-32.755 215.931l-5.418 6.596 2.356 1.883-2.356 3.183 2.474 1.883 2.356-2.472c4.595.235 6.478.235 11.073 0l2.356 2.472 2.474-1.883-2.357-3.183 2.357-1.883-5.419-6.596H-32.755z" fill="#c9ad5a"/><path d="M-32.755 215.931l-5.418 6.596 2.356 1.883-2.356 3.183 2.474 1.883 2.356-2.472c2.239.113 3.886.113 5.537.113v-11.186h-4.949z" fill="#b09855"/><path fill="#c9ad5a" d="M-20.15 197.43l6.715-13.074-2.944-1.412-2.592 2.001-3.417-.235-.236-7.542-4.122.357-.119 3.418H-28.984v-3.418l-4.124-.357-.235 7.542-3.418.235-2.592-2.001-2.944 1.412 6.715 13.074z"/><path fill="#b09855" d="M-27.925 180.943h-1.059v-3.418l-4.124-.357-.235 7.542-3.418.235-2.592-2.001-2.944 1.412 6.715 13.074h7.657z"/><path d="M-27.925 191.78c7.678 0 13.902 6.222 13.902 13.897 0 7.68-6.224 13.901-13.902 13.901-7.677 0-13.901-6.222-13.901-13.901 0-7.675 6.224-13.897 13.901-13.897z" fill="#d7d7d7"/><path d="M-27.925 191.78c-7.657 0-13.901 6.242-13.901 13.897 0 7.659 6.245 13.901 13.901 13.901V191.78z" fill="#c9c8c7"/><path fill="#cea19c" d="M131.936-46.301l-4.83 2.592 12.015 11.072 3.061-9.778z"/><path fill="#feeee9" d="M128.397-67.624l-1.291 23.915 15.076 1.294 2.357-25.68z"/><path fill="#cea19c" d="M140.533-63.736l-8.361-.355v13.902z"/><path d="M40.519-66.683c2.212 0 4.004 1.794 4.004 4.006s-1.792 4.006-4.004 4.006c-2.212 0-4.006-1.794-4.006-4.006.001-2.212 1.795-4.006 4.006-4.006zM81.396-68.213c2.212 0 4.006 1.792 4.006 4.004 0 2.212-1.794 4.006-4.006 4.006-2.213 0-4.002-1.794-4.002-4.006s1.79-4.004 4.002-4.004z" fill="#2b2c2b"/><path fill="#eecec9" d="M74.212-40.647l8.013 5.889 6.712 8.954-4.359-12.605z"/><path fill="none" d="M-151.5-151.5h399v399h-399z"/></svg>