<svg xmlns="http://www.w3.org/2000/svg" viewBox="0 0 400 400"><path opacity=".15" fill-rule="evenodd" clip-rule="evenodd" fill="#322f2c" stroke="#7ccbde" stroke-width=".216" stroke-miterlimit="2.6131" d="M103.702 384.967l89.315 14.446 96.835-12.385-95.862-15.365z"/><path fill-rule="evenodd" clip-rule="evenodd" fill="#e5e4e4" d="M179.019 174.593l6.901-9.514 5.274.606 3.98 6.614-10.063 42.364-4.808-3.112z"/><path fill-rule="evenodd" clip-rule="evenodd" fill="#e5e4e4" d="M201.052 165.685l-5.878 6.614 4.442 44.332 2.994-5.769 12.344-33.991-8.716-11.792z"/><path fill-rule="evenodd" clip-rule="evenodd" fill="#b98f16" d="M255.499 203.915l1.76 12.033 5.244 14.197 23.276-4.266 10.519-6.908-29.3-58.246-6.291 8.007z"/><path fill-rule="evenodd" clip-rule="evenodd" fill="#d5aba6" d="M173.006 132.78l7.173 16.696 15.724 13.16 17.465-7.435 4.193-4.617 5.28-4.578 7.91-19.822-13.574 3.506-40.509-1.068z"/><path fill-rule="evenodd" clip-rule="evenodd" fill="#f3d9d4" d="M232.13 64.59l-6.923-17.183-11.428 77.333-4.31 8.886h15.415l-7.323 16.958-1.425 3.493 9.998-3.445 3.367-4.788 15.823-35.957-1.034-6.996-2.909-3.379-3.778-31.054z"/><path fill-rule="evenodd" clip-rule="evenodd" fill="#d4a8a2" d="M235.769 97.783l9.555 12.104 3.55-8.067-5.107-6.241z"/><path fill-rule="evenodd" clip-rule="evenodd" fill="#4f3d2f" d="M237.942 57.133l-5.812 7.457 1.75 21.681 4.268 1.606 6.193-10.771 8.906 3.718 5.469-1.369 14.57-33.108-10.789-.107z"/><path fill-rule="evenodd" clip-rule="evenodd" fill="#604b39" d="M215.808 32.666l9.399 14.741 6.923 17.183 41.156-18.243-13.038-8.321-34.065-12.796-8.579 3.306z"/><path fill-rule="evenodd" clip-rule="evenodd" fill="#4f3d2f" d="M234.829 7.073l-7.953 1.902-11.934 13.661 2.662 5.9 55.682 17.811zM164.19 2.837l-1.729 5.879 8.3 27.667 4.112.8 11.276-29.506z"/><path fill-rule="evenodd" clip-rule="evenodd" fill="#604b39" d="M183.21.588l-10.911 32.444 2.574 4.151 40.935-4.517 1.796-4.13 17.225-21.463z"/><path fill-rule="evenodd" clip-rule="evenodd" fill="#604b39" d="M142.056 14.595l.692 6.743 6.398 8.993 4.823-.757 2.282 3.919 14.51 2.89 1.538-3.351-8.109-30.195z"/><path fill-rule="evenodd" clip-rule="evenodd" fill="#4f3d2f" d="M134.694 43.305l10.779 16.637 3.951.636 6.827-27.085-2.282-3.919-11.913-14.979z"/><path fill-rule="evenodd" clip-rule="evenodd" fill="#fef3f1" d="M165.602 132.608l43.867 1.018 11.739-21.484 3.999-64.735-7.603-18.871-45.305 4.496-18.33-3.458-8.496 30.368 2.847 55.762z"/><path fill-rule="evenodd" clip-rule="evenodd" fill="#f3d9d4" d="M158.296 64.84l-5.795 3.729 9.123 7.765 7.609 19.107 5.534-21.442-4.681-4.852zM178.916 73.913l5.621-6.917 15.866-4.517 4.983 3.884-12.895 8.156-8.041 20.663z"/><path fill-rule="evenodd" clip-rule="evenodd" fill="#d4a8a2" d="M178.311 101.494l-9.078-6.053 7.435-2.506 7.782 2.247z"/><path d="M161.885 80.196c2.047 0 3.717-1.806 3.717-4.019 0-2.214-1.67-4.02-3.717-4.02-2.048 0-3.718 1.805-3.718 4.02-.001 2.213 1.669 4.019 3.718 4.019z" fill-rule="evenodd" clip-rule="evenodd" fill="#33302d"/><path fill-rule="evenodd" clip-rule="evenodd" fill="#d4a8a2" d="M170.105 109.807l18.848-1.326 2.949-2.252 1.771 1.637-3.908 2.907-19.208 1.369z"/><path fill-rule="evenodd" clip-rule="evenodd" fill="#646060" d="M131.934 382.788h48.764v-7.434l-5.015-2.768-32.94-.07-10.809 2.838zM220.817 390.96h38.301v-7.911l-5.445-2.525-26.979-.156-5.877 2.681z"/><path fill-rule="evenodd" clip-rule="evenodd" fill="#4b4949" d="M156.402 358.147l-24.468 17.207h48.764v-16.342l-4.238-3.027-13.666-.295zM227.559 366.014l-6.742 17.035h38.301l-9.08-17.035-4.496-3.976-14.525.345z"/><path fill-rule="evenodd" clip-rule="evenodd" fill="#b98f16" d="M148.877 264.194l7.525 93.953 8.392.299 3.265-2.643-3.273-69.824-11.067-20.75z"/><path fill-rule="evenodd" clip-rule="evenodd" fill="#a47a1b" d="M164.786 285.979l-3.632 3.978 3.64 68.489 15.904.566 19.704-48.812-2.497-6.207zM210.456 287.895l-.557 9.625 21.118 64.863 5.227 3.631h13.794l3.498-87.859-3.976-8.992-15.737-11.241z"/><path fill-rule="evenodd" clip-rule="evenodd" fill="#8c681d" d="M210.456 287.895l25.788 78.119h-8.685L200.402 310.2l-2.497-6.207z"/><path fill-rule="evenodd" clip-rule="evenodd" fill="#7e5c1b" d="M162.556 281.799l-1.402 8.158 39.248 20.243 12.267-15.596-.533-8.863-24.237-32.875-5.782.322z"/><path fill-rule="evenodd" clip-rule="evenodd" fill="#9f751c" d="M157.428 252.174l-8.551 12.02 12.277 25.763 22.764-19.665.258-4.141z"/><path fill-rule="evenodd" clip-rule="evenodd" fill="#b98f16" d="M183.918 270.292l28.751 24.312 23.332-29.66 4.875-1.984 7.075-9.063-15.099-1.385-48.878 11.699z"/><path fill-rule="evenodd" clip-rule="evenodd" fill="#8c681d" d="M129.515 215.016l15.277 38.799 5.474 1.664 7.237-7.822 1.545-9.473-2.388-20.957-2.786-4.074-18.094-1.129z"/><path fill-rule="evenodd" clip-rule="evenodd" fill="#e5e4e4" d="M144.792 253.815l14.256-15.631 1.074 14.102-2.767 4.23-8.478 7.678z"/><path fill-rule="evenodd" clip-rule="evenodd" fill="#a47a1b" d="M158.024 160.007l-28.509 55.009 30.474 1.393 1.169-49.294z"/><path fill-rule="evenodd" clip-rule="evenodd" fill="#b98f16" d="M157.355 256.516l22.872 9.184 7.493-2.977 1.969-16.095-3.587-3.948-3.503-17.291-17.638-44.441 13.143-20.059 2.075-11.413-22.155 10.531-4.381 56.113z"/><path fill-rule="evenodd" clip-rule="evenodd" fill="#a47a1b" d="M197.164 223.831l-11.062 18.849-1.563 19.328.637 2.68 2.949 1.268 55.229-10.362 5.68-4.511 10.222-24.483-1.321-8.822 9.063-57.053-37.497-14.881-.173 11.066 6.916 18.157z"/><path fill-rule="evenodd" clip-rule="evenodd" fill="#85611b" d="M233.705 182.833h11.101v7.09h-16.739l-.234-4.359z"/><path fill-rule="evenodd" clip-rule="evenodd" fill="#74561a" d="M181.79 246.372l3.692 4.591 4.207-4.335-3.587-3.948z"/><path fill-rule="evenodd" clip-rule="evenodd" fill="#917c20" d="M180.303 211.551l10.549-36.139 4.322-3.113 4.497 3.286 2.939 35.277-16.508 31.818z"/><path fill-rule="evenodd" clip-rule="evenodd" fill="#b19119" d="M182.509 203.993l16.432 10.633 2.88-5.553-17.268-12.082zM185.92 165.079l4.932 10.333 8.819.173 6.567-10.506-9.942-6.052zM178.395 219.284l16.432 10.635 2.881-5.555-17.269-12.08zM186.891 188.983l14.688 9.506-.678-8.134-11.966-8.373z"/><path fill-rule="evenodd" clip-rule="evenodd" fill="#f0f2f2" d="M180.179 149.476l16.117 9.551-17.277 15.566zM196.296 159.027l33.205-13.183-14.547 31.027z"/><path fill-rule="evenodd" clip-rule="evenodd" fill="#a47a1b" d="M162.752 174.606l17.427-25.13 3.474 20.943 2.449 72.261z"/><path fill-rule="evenodd" clip-rule="evenodd" fill="#b98f16" d="M240.403 174.415l-54.301 68.265 24.506-69.964 18.893-26.872z"/><path fill-rule="evenodd" clip-rule="evenodd" fill="#d1af01" d="M226.408 172.017l5.882-1.15 4.604 2.802-6.047 4.619z"/><path fill-rule="evenodd" clip-rule="evenodd" fill="#e7c600" d="M226.408 172.017l10.486 1.652-4.38-6.628z"/><path fill-rule="evenodd" clip-rule="evenodd" fill="#f3d9d4" d="M236.001 264.944l17.535 13.211 5.139-10.684.045-4.971-10.592-10.29-4.774 3.384z"/><path fill-rule="evenodd" clip-rule="evenodd" fill="#8c681d" d="M244.855 252.237l7.369 3.953 9.232 3.449 3.656-.467 31.186-40.201-38.363-1.193z"/><path fill-rule="evenodd" clip-rule="evenodd" fill="#e5e4e4" d="M265.112 259.172l-17.144-15.08-4.614 11.502 15.321 11.877z"/><path fill-rule="evenodd" clip-rule="evenodd" fill="#4f3d2e" d="M151.582 65.406l4.783-2.609 11.506 2.065 2.315 4.308-13.546-2.927-4.139 2.326zM184.537 66.996l1.973-4.238 13.601-2.178 6.613 3.018-1.338 2.765-4.751-2.3z"/><path fill-rule="evenodd" clip-rule="evenodd" fill="#fef8f8" d="M172.323 73.796l-2.237-4.649 14.451-2.151-3.372 7.003 3.285 21.183-15.217.259z"/><path fill-rule="evenodd" clip-rule="evenodd" fill="#fef3f1" d="M241.985 71.896l-6.216 25.887 13.105 4.037 9.842-22.365z"/><path fill-rule="evenodd" clip-rule="evenodd" fill="#d5aba6" d="M246.48 80.024l6.052 2.853-8.861 7.349z"/><path fill-rule="evenodd" clip-rule="evenodd" fill="#74561a" d="M180.227 265.7l3.691 4.592 4.207-4.336-3.586-3.948z"/><path fill-rule="evenodd" clip-rule="evenodd" fill="#f2d6d2" d="M161.723 56.352h13.783l21.057-7.019-20.483 8.615z"/><path d="M165.839 76.112c0 2.184-1.771 3.955-3.955 3.955s-3.955-1.771-3.955-3.955 1.771-3.955 3.955-3.955 3.955 1.771 3.955 3.955zM196.181 76.241c0 2.184-1.771 3.955-3.955 3.955s-3.955-1.771-3.955-3.955 1.771-3.955 3.955-3.955 3.955 1.771 3.955 3.955z" fill="#322f2c"/></svg>