<svg xmlns="http://www.w3.org/2000/svg" viewBox="-141.337 -76.4 400 400"><path fill="#2b2b2b" fill-opacity=".149" d="M-29.369 310.786l106.316 10.556 49.388-24.696-9.99-.187-31.857-.754-52.028.754z"/><path fill="#545657" d="M86.938 280.06l-2.45 15.645 9.237 1.697 18.283.376 4.337-2.073-6.975-16.023-4.524-4.336-10.178.19z"/><path fill="#6f7173" d="M84.299 301.172h31.857l.189-5.467H84.488z"/><path fill="#755800" d="M83.922 263.658l8.106-34.872 3.392-.567 6.034 45.43-1.698 6.222-12.818.189z"/><path fill="#9e7700" d="M110.123 77.417l27.525 56.927-5.467 8.671-26.768 16.59-1.321-76.721z"/><path fill="#856400" d="M84.677 70.631l25.446 6.786-.187 73.705-2.073 6.222-34.497 18.849-36.193.753-4.901-4.523-.377-30.161 4.147-9.99 38.643-36.57z"/><path fill="#74665b" d="M-17.304-36.251L-5.051-4.017l7.54-34.497z"/><path fill="#856400" d="M-7.126 103.619L4.562 89.292l2.262 13.572-2.075 59.002-5.276 11.122-3.582-9.801-6.41-53.348z"/><path fill="#ffeee9" d="M66.013 155.08l-11.308 16.966 18.661 4.147 3.393-2.074-3.582-11.497z"/><path fill="#efd0cb" d="M89.577 163.752l-23.374-8.482 7.163 20.923 25.448-2.639z"/><path fill="#bf8f00" d="M137.648 134.344l-40.154 24.319 2.829 16.021 8.67 6.787 43.545-14.515z"/><path fill="#ececeb" d="M97.494 158.663l15.835 21.3-18.286 6.597-1.506-15.267-3.96-7.541z"/><path fill="#9e7700" d="M4.562 89.292l22.433-9.802-.754 21.301 9.99 37.701.565 40.718-27.144.375-8.295-3.203 3.582-38.455 2.073-9.616-4.336-6.785z"/><path fill="#755800" d="M42.263 148.859l-6.032-5.844-6.032 5.658 6.22 5.275z"/><path fill="#ababab" d="M-.527 172.988l2.073-36.003 4.147-3.205 2.45 4.9-1.131 34.121-3.393 2.827z"/><path fill="#9e7700" d="M-35.212 167.711l34.685 5.277-6.033-51.272-8.671-3.582-14.516 3.582z"/><path fill="#cea39f" d="M-33.516 84.014l5.09 26.58 12.818 4.335 7.729-3.959 6.22-10.743-6.032-10.746-14.892.753z"/><path fill="#efd0cb" d="M-33.516 84.014l9.048 11.688 16.023-2.074-4.147-10.368-6.975-2.451zM-13.723 55.551l-1.131 20.734 8.105 8.861 2.074-2.452-3.204-27.521z"/><path fill="#ffeee9" d="M-19.567 80.809l4.713-4.524L4.562 89.292l-6.598 11.688z"/><path fill="#ececeb" d="M-29.747 121.716H-6.56l-1.319-10.746-20.547-.376z"/><path fill="#ccc" d="M31.895 91.555l7.54-6.033 5.467 2.64 6.786-2.263 9.237 6.787-10.745 17.908-4.901-17.155-9.614 15.27z"/><path fill="#ccad14" d="M32.46 112.667l3.771 25.825 16.399-25.825L47.918 90.8l-3.016-2.638-2.074 2.638z"/><path fill="#856400" d="M16.626 104.562L26.995 79.49l6.974 1.508 1.696 11.123.566 46.371z"/><path fill="#9e7700" d="M64.695 81.375l-8.483 11.311-19.981 45.806L79.962 98.34l4.715-27.709z"/><path fill="#856400" d="M109.748 201.076l-6.788-2.262-10.554 5.09 7.35 75.967 9.614-.189z"/><path fill="#ccad14" d="M69.595 307.769l-3.959-4.712 17.155-99.908 4.901-6.598 7.728 2.64 4.903 4.335-16.024 97.646z"/><path fill="#e5c828" d="M-14.289 200.321l4.336-3.394 91.991-.564 6.597 3.394-19.04 108.012-72.573-3.015z"/><path fill="#b58b00" d="M-27.485 193.347l13.196 6.974 102.924-.564 11.688 3.769 9.425-.565-3.017-7.54-9.613-6.975-119.324 1.319z"/><path fill="#ccad14" d="M89.2 174.119l-2.826 13.196 3.581 5.278 19.793 10.368 3.581-22.998-19.792-8.67z"/><path fill="#f4d75d" d="M-28.05 173.366l.565 19.981 117.44-.754 3.582-21.3z"/><path fill="#cea19c" d="M22.47 56.68l8.294 13.385 15.27 13.76 16.211-10.556 10.746-20.358-45.62-.377z"/><path fill="#eecec9" d="M57.72 73.269l21.488-9.614L96.552 25.2 67.898-38.891l-4.335 2.45-1.131 70.124-10.933 15.646-.377 7.351H66.58z"/><path fill="#cea19c" d="M96.552 25.2l-11.31-9.235 7.728-3.959 7.54 4.335z"/><path fill="#5e5044" d="M63.751-41.907l-.188 13.572 16.589 30.35 6.597.376 15.836-12.063 2.261-29.219-9.237-3.582z"/><path fill="#feeee9" d="M85.62-10.427l-.378 26.392 15.268.376 2.075-26.013z"/><path fill="#cea19c" d="M90.52-4.395L90.332 7.67l5.843-11.876z"/><path fill="#74665b" d="M40.001-54.537l17.531 16.212 10.366-.566h36.948L73.554-70.748l-15.08 2.45z"/><path fill="#8e7e73" d="M-7.691-58.307l20.17 5.656L-.716-36.628l-5.844.187-10.744.19z"/><path fill="#feeee9" d="M67.145 35.757l.753-74.648L45.09-54.914 7.766-50.39-6.56-36.441l3.205 72.575L9.463 56.68h41.659z"/><path fill="#cea19c" d="M26.241 24.447l-7.73-8.106 13.195-.189z"/><path fill="#eecec9" d="M33.214-8.354l-3.581 5.845-2.074 8.294 4.147 10.367L40.001-.813l12.442-9.425-7.164-4.335zM6.824-12.123L2.111-7.788l9.426 6.975 6.974 17.154 4.901-10.933-1.884-7.917-3.205-5.655z"/><path fill="#74665b" d="M6.258-14.573L.981-8.541l1.695 1.13 4.148-3.016 11.499 2.263-1.131-4.525zM35.1-13.444l-1.886 5.09 13.007-4.335 5.278 3.204 2.263-1.319-7.728-6.033z"/><path fill="#fef4f2" d="M21.528-2.509l-3.017 18.85 5.09 2.45 8.105-2.639-2.073-18.661z"/><path d="M43.017-1.001c0-1.508-1.508-2.828-3.204-2.828-1.697 0-3.017 1.508-3.017 3.016.188 1.697 1.508 3.016 3.205 2.829 1.696-.001 3.016-1.321 3.016-3.017z" fill="#070908"/><path fill="#cea19c" d="M11.914 26.332l-.377 2.261 6.597 2.639 19.228-1.318 8.106-4.337-1.509-2.261-6.974 3.769-18.851 1.508z"/><path fill="#b58b00" d="M46.221 76.851l-5.654 3.958-.754 5.279 3.015 4.712h5.09l4.147-4.901-.753-6.785z"/><path fill="#ececeb" d="M80.907 59.697L46.221 76.851l9.991 15.835 28.465-22.055zM30.764 70.065l-3.769 9.425 8.67 12.631 10.556-15.27z"/><path fill="#ababab" d="M2.866 118.887l-5.091 8.106 10.368 4.714 7.73-.943-1.321-9.614z"/><path fill="#8f8f8f" d="M8.143 138.68l-6.597-1.695-3.771-9.992 18.098 3.771z"/><path fill="#2b2b2b" fill-opacity=".102" d="M-14.289 200.321l102.924-.564-101.604 11.498z"/><path fill="#eecec9" d="M8.898-26.261l15.644 2.639 20.171-7.352-20.358 4.902zM10.783-33.047l12.629.754 10.368-1.885-9.238 3.77zM-2.978 3.145l8.105-1.319L-.339.319zM48.86.884l10.746.942-4.336-2.827z"/><path fill="#efd0cb" d="M53.384 20.299l-5.089 22.245 7.729-17.532z"/><path d="M14.552-1.001c0-1.508-1.508-2.828-3.204-2.828-1.696 0-3.017 1.508-3.017 3.016C8.52.884 9.84 2.203 11.537 2.015c1.697 0 3.015-1.32 3.015-3.016z" fill="#070908"/><path fill="#efd0cb" d="M40.001 20.489l7.917 7.351.377-4.714zM14.365 22.184l-5.28 4.148 1.132 5.466zM3.054 28.593l6.598 13.762-5.279-18.473z"/><path fill="#74665b" d="M22.659-74.141l6.786 13.007-6.41 18.474-30.726-15.647z"/><path fill="#8e7e73" d="M22.659-74.141l50.895 3.393L23.035-42.66z"/><path fill="#755800" d="M42.452 167.334l-6.033-5.844-6.032 5.655 6.221 5.09z"/><path fill="#efd0cb" d="M21.904 36.134l12.065-.943-6.598 2.828zM22.659-18.155l-.377 9.614-1.508-4.524z"/><path d="M24.542 216.345l5.468-1.885-.189-3.206h2.263v2.45l5.278-1.884.565 9.991-5.467-2.264.188 1.697h-2.262l-.188-2.64-5.656-2.259zm7.541 45.995h3.582l.377 6.409-3.582-.188-.377-6.221zm17.343-5.089l-3.771-4.148v-5.088l2.828-8.107 2.45 3.959 6.031-.943-3.77-3.771-4.712.755.754-2.074 3.582-.188 3.393-4.146-5.278.375-1.696 3.959-2.828-6.598-1.319 2.639-1.696-1.883-3.771 1.695 3.771 3.959-3.959 1.697-7.352-7.352-6.409 6.974-4.335-1.697-.566-3.205 1.885 1.508 2.074-2.261-1.887-1.509-1.13-2.45 1.508-6.786-6.598-5.278-.754 7.541 5.844 4.523-1.132.943-2.826.189-2.263 6.597-3.582-.377-3.771-4.335 5.279.565 2.073 4.147 1.131 2.073-1.885 3.959-6.41-1.32 3.394-3.58 4.901.941 3.769 8.296-5.278.188 1.697 4.524 4.146.377 7.729-.565 4.712 1.319 4.336-1.131 3.958 4.9 7.733.19zm-3.77-4.149l-7.917-.941.565 8.294-9.048-.189-.566-8.294-3.205 4.712-7.918-.188 3.393-3.959-.565-5.089 12.818 3.582 12.441-3.017 5.278.376-1.32 4.525-3.956.188zm.378-35.06l1.695 7.352-5.466 4.523-2.262-6.974 6.033-4.901zm-18.851 5.089l8.859.188.754 11.311-4.713-4.713-4.335 4.524-.565-11.31z" fill="#b58b00"/><path fill="#ccad14" d="M18.134 237.646l7.917 4.146 6.221-6.407 7.163 6.785 7.353-3.77-2.829 7.729-10.932 2.638-11.123-3.016z"/><path fill="#f4d75d" d="M30.01 239.53l5.467.189v1.885l-3.394-.187v1.695l3.206-.188.188 2.074h-3.582l.188 1.696-1.696.189z"/></svg>