<svg xmlns="http://www.w3.org/2000/svg" viewBox="0 0 400 400"><path fill-rule="evenodd" clip-rule="evenodd" fill="#c5a20f" d="M270.718 242.952l6.242 20.691-19.306 5.93-3.748-24.94z"/><path opacity=".1" fill-rule="evenodd" clip-rule="evenodd" fill="#322f2c" d="M104.549 380.598L202.036 400l96.054-13.533-97.252-13.533z"/><path fill-rule="evenodd" clip-rule="evenodd" fill="#a07931" d="M229.462 373.547l-9.268 10.088.241 6.976 38.613.015.242-6.495z"/><path fill-rule="evenodd" clip-rule="evenodd" fill="#c29213" d="M228.902 354.256l-3.862 9.402-4.846 19.977 39.096.496-9.172-20.686z"/><path fill-rule="evenodd" clip-rule="evenodd" fill="#a07931" d="M145.966 366.813l-19.002 6.976.394 7.497 52.283.2v-7.939z"/><path fill-rule="evenodd" clip-rule="evenodd" fill="#c29213" d="M166.652 336.987l-12.749 13.228-26.939 23.574 52.677-.242v-14.912z"/><path fill-rule="evenodd" clip-rule="evenodd" fill="#a47a1b" d="M152.758 248.025l-.555 18.498.524 46.224 13.474 17.343 24.68-5.377 11.92-37.72-17.387-30.434z"/><path fill-rule="evenodd" clip-rule="evenodd" fill="#8c681d" d="M152.727 312.747l1.176 37.468 25.738 8.42 11.24-33.922z"/><path d="M201.769 256.319l1.031 30.674 11.892 41.078c3.752-.921 8.895 7.887 19.505 5.456 6.505-1.488 14.292-11.021 19.694-12.252l3.763-51.702-19.589-26.589-36.296 13.335z" fill-rule="evenodd" clip-rule="evenodd" fill="#a47a1b"/><path d="M214.692 328.071l10.348 35.587 25.078-.213 3.773-42.17c-14.211 3.236-33.146 5.311-39.199 6.796zM147.97 245.376l4.233 21.147 50.598 20.47 54.853-17.42-41.961-35.738z" fill-rule="evenodd" clip-rule="evenodd" fill="#8c681d"/><path d="M142.75 221.441l-20.347-15.244 22.7-54.929 19.799 24.515s-7.563 47.249-6.227 46.14c1.338-1.111-15.925-.482-15.925-.482z" fill-rule="evenodd" clip-rule="evenodd" fill="#a47a1b"/><path fill-rule="evenodd" clip-rule="evenodd" fill="#c29213" d="M132.845 235.839l-10.442-29.642 26.132 1.234 17.972 20.023-8.085 6.91 1.438-5.498-11.148.697z"/><path fill-rule="evenodd" clip-rule="evenodd" fill="#9f751c" d="M148.494 242.849l-10.746 3.367-4.903-10.377 16.107-9.764 10.908 2.791-1.438 5.498z"/><path d="M166.925 243.634l15.079 3.189 2.759-12.104 10.321-4.242-42.489-2.458-1.817 8.159 9.865 6.34 6.282 1.116zm34.17 3.392l24.074-1.583 26.018 3.077-.9-22.237-52.46 4.183 3.268 16.56z" fill-rule="evenodd" clip-rule="evenodd" fill="#7a7573"/><path d="M182.004 246.823l19.09.203c-.278-3.882-.442-13.74-.528-16.576l-5.481.027c-5.983.935-14.648 1.835-14.648 1.835l1.567 14.511z" fill-rule="evenodd" clip-rule="evenodd" fill="#948f8e"/><path fill-rule="evenodd" clip-rule="evenodd" fill="#e5e4e4" d="M206.842 229.56l-18.938 6.451-34.415-3.414 11.145-82.14 40.628-15.362z"/><path fill-rule="evenodd" clip-rule="evenodd" fill="#cac8c7" d="M206.668 176.007l-.664 3.407-7.58 2.494 7.648 1.615.235 14.059-3.078 4.878-11.623-15.005-20.007-17.949-8.76-9.141 11.086 3.096 18.871 19.715z"/><path fill-rule="evenodd" clip-rule="evenodd" fill="#d6d4d3" d="M213.824 139.962l-15.071 13.112-3.918 26.962-.032.218-1.806 26.283-4.885 12.021-.208 17.453 61.209-1.379 2.305-80.238z"/><path d="M235.167 203.809l-14.675 11.533 21.964 28.908 5.716 8.567s27.698-39.37 27.736-40.74c.037-1.369-15.531-12.832-14.583-12.779.948.054-26.158 4.511-26.158 4.511z" fill-rule="evenodd" clip-rule="evenodd" fill="#c5a20f"/><path fill-rule="evenodd" clip-rule="evenodd" fill="#f2d6d2" d="M250.651 243.348l-8.195.903-17.287 1.192.297 6.935 10.075.515 12.631-.075z"/><path fill-rule="evenodd" clip-rule="evenodd" fill="#fef2f0" d="M259.144 240.191l-16.688 4.06-6.915 8.642 22.113 16.68 5.098-15.4z"/><path fill-rule="evenodd" clip-rule="evenodd" fill="#bfbbb9" d="M200.565 182.36l-5.666 12.725-1.902 11.452 17.123-6.374 3.976-19.94 17.637-9.273-1.841-6.411z"/><path fill-rule="evenodd" clip-rule="evenodd" fill="#d2b000" d="M166.965 172.917l6.48-32.264-28.341 10.615 3.431 56.163 6.694 6.604 15.934-.42z"/><path fill-rule="evenodd" clip-rule="evenodd" fill="#c5a20f" d="M148.535 207.431l.417 18.644 1.827 10.103 3.909 8.052 16.475-30.615z"/><path fill-rule="evenodd" clip-rule="evenodd" fill="#b19119" d="M171.403 161.732l1.305 2.488 7.061 11.02 17.799 8.112 14.586-4.821 17.645-10.92-2.405-4.82-20.864 13.919-21.649-1.041-7.318-13.526z"/><path fill-rule="evenodd" clip-rule="evenodd" fill="#f0f2f2" d="M167.913 166.273l30.84-13.199 31.424 14.642 4.61-15.876.667-14.195-4.723-10.161-29.664 6.918-22.92-2.726-4.702 8.977z"/><path fill-rule="evenodd" clip-rule="evenodd" fill="#d2b000" d="M236.378 184.073l-.924-46.428 29.746 9.324 1.341 61.353-4.88 1.998-41.169 5.022z"/><path fill-rule="evenodd" clip-rule="evenodd" fill="#f8da46" d="M244.665 187.801l-9.211-50.156-14.962 77.697z"/><path fill-rule="evenodd" clip-rule="evenodd" fill="#a47a1b" d="M261.661 210.32l3.539-63.351 28.07 64.208-16.658 9.518z"/><path fill-rule="evenodd" clip-rule="evenodd" fill="#f3d8d4" d="M185.507 124.555l13.319 28.519 31.905-25.59 5.432-36.646-5.16-4.099 5.13-40.582-5.318-22.829-8.674-13.963-27.091 37.573z"/><path fill-rule="evenodd" clip-rule="evenodd" fill="#b2aead" d="M232.49 64.247l8.373-5.107-5.729-10.75-6.471-5.689-12.374 11.483 7.914 19.622z"/><path fill-rule="evenodd" clip-rule="evenodd" fill="#a9a6a5" d="M240.863 59.14l1.993-16.456-12.041-19.356-2.152 19.373z"/><path fill-rule="evenodd" clip-rule="evenodd" fill="#d4a8a2" d="M236.163 90.838l.975-6.565-16.056-1.938z"/><path fill-rule="evenodd" clip-rule="evenodd" fill="#fef2f0" d="M237.138 84.273l3.725-25.133-18.387-2.057-1.394 25.252z"/><path fill-rule="evenodd" clip-rule="evenodd" fill="#d4aba5" d="M200.289 115.391l-4.27 13.935h17.491l-14.684 23.748-32.987-29.321z"/><path fill-rule="evenodd" clip-rule="evenodd" fill="#fef3f1" d="M178.659 0l-35.453 10.035-13.825 28.986 5.452 65.528 20.191 24.777h40.995l14.719-27.481.374-60.611 11.029-31.869z"/><path fill-rule="evenodd" clip-rule="evenodd" fill="#d4a8a2" d="M160.934 85.568l-1.395 2.675 6.634 3.68 4.292-4.181z"/><path fill-rule="evenodd" clip-rule="evenodd" fill="#f2d6d2" d="M144.711 52.679l-6.523 4.403 10.477 10.088 10.465 12.707 11.335 7.865 10.031-16.24 17.673-16.538-8.361-3.456-18.841 6.299-1.951 2.788-2.118 2.117-3.123-2.23-1.392-2.82zM144.741 38.262l20.402.724 14.94-2.843-15.386 5.072zM153.184 42.254l12.041.836 22.019-2.843-21.741 5.101z"/><path fill-rule="evenodd" clip-rule="evenodd" fill="#a9a6a5" d="M170.743 56.358l19.845-6.968 8.139 4.236-.558 1.338-8.027-1.45-19.175 4.293zM162.54 56.046l-18.61-5.43-6.522 5.129.78 1.337 6.634-2.899 17.561 3.479z"/><path fill-rule="evenodd" clip-rule="evenodd" fill="#fef9f9" d="M163.775 60.482l-4.645 19.395.409 8.366 10.926-.501-.885-8.053-.564-19.094z"/><path fill-rule="evenodd" clip-rule="evenodd" fill="#f2d6d2" d="M143.11 66.202l7.261 3.973-6.244 1.268zM183.803 69.751l7.789-3.875-2.285 5.756zM148.001 102.514l11.538-14.271-6.632 2.565zM186.129 100.173l-15.664-12.431 7.861.947zM166.452 99.504l-1.758-3.469 1.479-4.112 1.879 3.875z"/><path fill-rule="evenodd" clip-rule="evenodd" fill="#d4a8a2" d="M154.468 105.748l12.263-3.903 16.054 2.899.223 2.063-16.44-2.782-11.822 3.228zM234.557 63.498l-6.374-.734-1.131 11.612z"/><path fill-rule="evenodd" clip-rule="evenodd" fill="#f8da46" d="M171.163 213.615l2.282-72.962-20.282 42.578z"/><path fill-rule="evenodd" clip-rule="evenodd" fill="#c1a545" d="M196.205 170.611l15.949 7.92-4.389 18.989-14.768 9.017L180.326 195l-.557-19.76z"/><path fill-rule="evenodd" clip-rule="evenodd" fill="#917c20" d="M195.757 174.131l-12.429 3.773.234 15.991 9.746 8.698 12.098-6.906 3.303-15.412z"/><path d="M198.389 192.395l1.43-11.037 3.087.425 1.805 9.08-2.052.413-.635-2.606-1.175-.188-.72 3.622-1.74.291zm2.644-5.971l.889.003-.563-1.761-.326 1.758zM192.869 180.75l-1.216 11.012 2.338.724 3.03.279.398-.914-.169-.413-3.401-1.275.121-2.078 2.553.161.348-2.037-2.966-.798.613-2.329 3.046-.409-.254-1.661zM185.507 180.938l.295 11.214 3.484-1.025 2.272-5.775-2.738-4.483-3.313.069zm1.989 2.978l1.99 1.273-2.218 4.119.228-5.392z" fill-rule="evenodd" clip-rule="evenodd" fill="#c1a545"/><path fill-rule="evenodd" clip-rule="evenodd" fill="#fef2f0" d="M137.748 246.216l13.031-10.038 10.075 7.001-.132 6.99-8.519 16.354z"/><path fill-rule="evenodd" clip-rule="evenodd" fill="#f2d6d2" d="M150.779 236.178l18.42 7.937-.536 4.938-7.941 1.116zM167.798 52.777l1.854 5.38-2.467-1.756zM165.4 52.931l.67 3.414-2.648 1.534z"/><path fill-rule="evenodd" clip-rule="evenodd" fill="#c29213" d="M261.661 210.32l-19.205 33.931 20.296 9.922 30.518-42.996z"/><path d="M153.311 64.352c0 1.843-1.494 3.337-3.336 3.337-1.842 0-3.336-1.494-3.336-3.337 0-1.843 1.494-3.336 3.336-3.336 1.842 0 3.336 1.493 3.336 3.336zM186.571 64.352c0 1.843-1.494 3.337-3.336 3.337-1.843 0-3.337-1.494-3.337-3.337 0-1.843 1.494-3.336 3.337-3.336 1.842 0 3.336 1.493 3.336 3.336z" fill="#322f2c"/></svg>